# Rhino

v 8.603578567504883 5.865845203399658 0.3414379954338074
v 8.603578567504883 5.865845203399658 0.3414379954338074
v 8.603578567504883 5.865845203399658 0.04637600108981133
v 8.603578567504883 5.865845203399658 0.04637600108981133
v 8.603578567504883 4.142568111419678 0.3414379954338074
v 8.603578567504883 4.142568111419678 0.3414379954338074
v 8.603578567504883 4.142568111419678 0.04637600108981133
v 8.603578567504883 4.142568111419678 0.04637600108981133
v 8.370068550109863 5.78997278213501 0.8301039934158325
v 8.370068550109863 5.78997278213501 0.8301039934158325
v 8.370068550109863 5.78997278213501 0.3414379954338074
v 8.370068550109863 5.78997278213501 0.3414379954338074
v 8.370068550109863 4.218440055847168 0.8301039934158325
v 8.370068550109863 4.218440055847168 0.8301039934158325
v 8.370068550109863 4.218440055847168 0.3414379954338074
v 8.370068550109863 4.218440055847168 0.3414379954338074
v 7.590662002563477 7.260004997253418 0.3414379954338074
v 7.590662002563477 7.260004997253418 0.3414379954338074
v 7.590662002563477 7.260004997253418 0.04637600108981133
v 7.590662002563477 7.260004997253418 0.04637600108981133
v 7.590662002563477 2.748406887054443 0.3414379954338074
v 7.590662002563477 2.748406887054443 0.3414379954338074
v 7.590662002563477 2.748406887054443 0.04637600108981133
v 7.590662002563477 2.748406887054443 0.04637600108981133
v 7.44634485244751 7.061369895935059 0.8301039934158325
v 7.44634485244751 7.061369895935059 0.8301039934158325
v 7.44634485244751 7.061369895935059 0.3414379954338074
v 7.44634485244751 7.061369895935059 0.3414379954338074
v 7.44634485244751 2.947041988372803 0.8301039934158325
v 7.44634485244751 2.947041988372803 0.8301039934158325
v 7.44634485244751 2.947041988372803 0.3414379954338074
v 7.44634485244751 2.947041988372803 0.3414379954338074
v 5.951727867126465 7.792527198791504 0.3414379954338074
v 5.951727867126465 7.792527198791504 0.3414379954338074
v 5.951727867126465 7.792527198791504 0.04637600108981133
v 5.951727867126465 7.792527198791504 0.04637600108981133
v 5.951727867126465 7.546999931335449 0.8301039934158325
v 5.951727867126465 7.546999931335449 0.8301039934158325
v 5.951727867126465 7.546999931335449 0.3414379954338074
v 5.951727867126465 7.546999931335449 0.3414379954338074
v 5.951727867126465 2.461411952972412 0.8301039934158325
v 5.951727867126465 2.461411952972412 0.8301039934158325
v 5.951727867126465 2.461411952972412 0.3414379954338074
v 5.951727867126465 2.461411952972412 0.3414379954338074
v 5.951727867126465 2.215884923934937 0.3414379954338074
v 5.951727867126465 2.215884923934937 0.3414379954338074
v 5.951727867126465 2.215884923934937 0.04637600108981133
v 5.951727867126465 2.215884923934937 0.04637600108981133
v 4.45711088180542 7.061369895935059 0.8301039934158325
v 4.45711088180542 7.061369895935059 0.8301039934158325
v 4.45711088180542 7.061369895935059 0.3414379954338074
v 4.45711088180542 7.061369895935059 0.3414379954338074
v 4.45711088180542 2.947041988372803 0.8301039934158325
v 4.45711088180542 2.947041988372803 0.8301039934158325
v 4.45711088180542 2.947041988372803 0.3414379954338074
v 4.45711088180542 2.947041988372803 0.3414379954338074
v 4.312794208526611 2.748405933380127 0.3414379954338074
v 4.312794208526611 2.748405933380127 0.3414379954338074
v 4.312794208526611 2.748405933380127 0.04637600108981133
v 4.312794208526611 2.748405933380127 0.04637600108981133
v 4.312792778015137 7.260004997253418 0.3414379954338074
v 4.312792778015137 7.260004997253418 0.3414379954338074
v 4.312792778015137 7.260004997253418 0.04637600108981133
v 4.312792778015137 7.260004997253418 0.04637600108981133
v 3.533386945724487 5.78997278213501 0.8301039934158325
v 3.533386945724487 5.78997278213501 0.8301039934158325
v 3.533386945724487 5.78997278213501 0.3414379954338074
v 3.533386945724487 5.78997278213501 0.3414379954338074
v 3.533386945724487 4.218439102172852 0.8301039934158325
v 3.533386945724487 4.218439102172852 0.8301039934158325
v 3.533386945724487 4.218439102172852 0.3414379954338074
v 3.533386945724487 4.218439102172852 0.3414379954338074
v 3.299876928329468 4.142567157745361 0.3414379954338074
v 3.299876928329468 4.142567157745361 0.3414379954338074
v 3.299876928329468 4.142567157745361 0.04637600108981133
v 3.299876928329468 4.142567157745361 0.04637600108981133
v 3.299875974655151 5.865845203399658 0.3414379954338074
v 3.299875974655151 5.865845203399658 0.3414379954338074
v 3.299875974655151 5.865845203399658 0.04637600108981133
v 3.299875974655151 5.865845203399658 0.04637600108981133
vn 0.9788010120391846 0.2048136442899704 0
vn 0 0 1
vn 0.9122529625892639 0.4096272587776184 0
vn 0 0 -1
vn 0.9122530817985535 -0.4096270501613617 0
vn 0 0 1
vn 0.9788010120391846 -0.2048135250806809 0
vn 0 0 -1
vn 0.9788010120391846 0.2048135697841644 0
vn 0 0 1
vn 0.9122530221939087 0.4096271395683289 0
vn 0 0 1
vn 0.9122531414031982 -0.4096269011497498 0
vn 0 0 1
vn 0.9788010120391846 -0.2048134505748749 0
vn 0 0 1
vn 0.6714801788330078 0.741022527217865 0
vn 0 0 1
vn 0.4972553849220276 0.8676041960716248 0
vn 0 0 -1
vn 0.4972554743289948 -0.8676041960716248 0
vn 0 0 1
vn 0.6714802980422974 -0.7410224080085754 0
vn 0 0 -1
vn 0.6714801788330078 0.741022527217865 0
vn 0 0 1
vn 0.4972552359104157 0.8676043152809143 0
vn 0 0 1
vn 0.4972553253173828 -0.8676042556762695 0
vn 0 0 1
vn 0.6714803576469421 -0.7410223484039307 0
vn 0 0 1
vn 0.1076769307255745 0.9941859245300293 0
vn 0 0 1
vn 0 0 -1
vn -0.1076767593622208 0.9941859841346741 0
vn 0.1076767593622208 0.9941859841346741 0
vn 0 0 1
vn 0 0 1
vn -0.1076767593622208 0.9941859841346741 0
vn 0 0 1
vn -0.1076767593622208 -0.9941859841346741 0
vn 0.1076767593622208 -0.9941859841346741 0
vn 0 0 1
vn 0 0 1
vn -0.1076764985918999 -0.9941859841346741 0
vn 0.107677049934864 -0.9941859245300293 0
vn 0 0 -1
vn 0 0 1
vn -0.4972552359104157 0.8676043152809143 0
vn 0 0 1
vn -0.6714801788330078 0.741022527217865 0
vn 0 0 1
vn -0.6714801788330078 -0.741022527217865 0
vn 0 0 1
vn -0.4972552359104157 -0.8676043152809143 0
vn 0 0 1
vn -0.6714801788330078 -0.741022527217865 0
vn 0 0 -1
vn -0.4972551465034485 -0.8676043748855591 0
vn 0 0 1
vn -0.497255265712738 0.8676042556762695 0
vn 0 0 -1
vn -0.671480119228363 0.7410225868225098 0
vn 0 0 1
vn -0.9122530221939087 0.4096271395683289 0
vn 0 0 1
vn -0.9788010120391846 0.2048135697841644 0
vn 0 0 1
vn -0.9788010120391846 -0.2048135697841644 0
vn 0 0 1
vn -0.9122530221939087 -0.4096271395683289 0
vn 0 0 1
vn -0.9788009524345398 -0.2048139274120331 0
vn 0 0 -1
vn -0.9122530221939087 -0.409627228975296 0
vn 0 0 1
vn -0.9122530221939087 0.4096271097660065 0
vn 0 0 -1
vn -0.9788010716438294 0.2048132568597794 0
f 48//48 59//59 75//75 24//24
f 24//24 75//75 79//79 8//8
f 8//8 79//79 63//63 4//4
f 14//14 10//10 49//49 65//65
f 69//69 30//30 14//14 65//65
f 53//53 41//41 30//30 69//69
f 50//50 37//37 40//40 52//52
f 37//37 25//25 27//27 40//40
f 25//25 9//9 11//11 27//27
f 9//9 13//13 15//15 11//11
f 13//13 29//29 31//31 15//15
f 29//29 42//42 43//43 31//31
f 42//42 54//54 56//56 43//43
f 54//54 70//70 72//72 56//56
f 70//70 66//66 68//68 72//72
f 66//66 50//50 52//52 68//68
f 51//51 39//39 34//34 61//61
f 39//39 28//28 18//18 34//34
f 28//28 12//12 2//2 18//18
f 12//12 16//16 6//6 2//2
f 16//16 32//32 22//22 6//6
f 32//32 44//44 45//45 22//22
f 44//44 55//55 57//57 45//45
f 55//55 71//71 73//73 57//57
f 71//71 67//67 77//77 73//73
f 67//67 51//51 61//61 77//77
f 26//26 38//38 49//49 10//10
f 20//20 4//4 63//63 35//35
f 62//62 33//33 36//36 64//64
f 33//33 17//17 19//19 36//36
f 17//17 1//1 3//3 19//19
f 1//1 5//5 7//7 3//3
f 5//5 21//21 23//23 7//7
f 21//21 46//46 47//47 23//23
f 46//46 58//58 60//60 47//47
f 58//58 74//74 76//76 60//60
f 74//74 78//78 80//80 76//76
f 78//78 62//62 64//64 80//80
