# RokuSuper Output Ver2.0 for Wavefront Obj

v 12.43743500 3.04703500 5.86243200
v 12.75130500 2.86582200 5.86243200
v 12.75130300 2.50339700 5.86243200
v 12.43743300 2.32218500 5.86243200
v 12.12356400 2.86582200 5.86243200
v 12.12356400 2.50339800 5.86243200
v 12.12356400 2.50339800 4.03086800
v 12.43743500 2.32218500 4.03086800
v 12.75130500 2.50339700 4.03086800
v 12.75130500 2.86582200 4.03086800
v 12.43743500 3.04703500 4.03086800
v 12.12356400 2.86582200 4.03086800
v 12.75130300 12.49660300 5.86243200
v 12.75130300 12.13417600 5.86243200
v 12.43743300 11.95296500 5.86243200
v 12.43743300 12.67781600 5.86243200
v 12.12356400 12.13417600 5.86243200
v 12.12356400 12.49660300 5.86243200
v 12.12356400 12.49660300 4.03086800
v 12.43743300 12.67781600 4.03086800
v 12.75130300 12.49660300 4.03086800
v 12.75130300 12.13417600 4.03086800
v 12.43743300 11.95296500 4.03086800
v 12.12356400 12.13417600 4.03086800
v 0.63571900 6.40780700 5.07127900
v 0.63572100 8.59219200 5.07127900
v 0.83556600 9.68438500 5.16147500
v 0.83556400 5.31561400 5.16147500
v 1.20955300 10.87272300 5.33427000
v 1.20955300 4.12727600 5.33427000
v 1.20926700 4.12727600 2.08895600
v 1.20926700 10.87272300 2.08895600
v 1.74245100 3.08156900 2.03541700
v 1.74245100 11.91843000 2.03541700
v 2.42791000 1.97476300 1.98521600
v 2.42790900 13.02523600 1.98521600
v 5.08206700 1.97476300 1.74986300
v 5.08206700 13.02523600 1.74986300
v 18.99055900 5.31561400 1.74986300
v 18.99055900 9.68438500 1.74986300
v 18.73084600 11.80539100 1.74986300
v 18.73084600 3.19460700 1.74986300
v 18.06376300 11.81783100 5.01659300
v 18.06376300 3.18216800 5.01659300
v 1.67469600 3.08156900 5.54827500
v 3.18039000 3.60241800 6.22034800
v 5.08206700 1.97476300 4.15125600
v 2.42791000 1.97476300 4.15125800
v 0.83541900 5.31561400 2.10630700
v 0.63555900 6.40780700 2.12365800
v 15.50119800 3.60241800 6.22034800
v 14.03943500 1.97476300 4.15125800
v 14.03943500 1.97476300 1.74986300
v 18.10307300 2.50364300 4.17657300
v 18.62125000 2.58963300 1.74986300
v 18.29567300 5.31561400 4.90726400
v 5.08206700 13.02523600 4.15125800
v 3.18039100 11.39758100 6.22034800
v 1.67469600 11.91843000 5.54827500
v 2.42790900 13.02523600 4.15125800
v 0.63556100 8.59219200 2.12365800
v 0.83542100 9.68438500 2.10630800
v 14.03943500 13.02523600 4.15125800
v 15.50119800 11.39758100 6.22034800
v 14.03943500 13.02523600 1.74986300
v 18.10307300 12.49635700 4.17657200
v 18.62125000 12.41036600 1.74986300
v 18.29567300 9.68438500 4.90726400

vn 0.00000000 0.00000000 1.00000000
vn 0.00000000 0.00000000 1.00000000
vn 0.00000000 0.00000000 1.00000000
vn 0.00000000 0.00000000 1.00000000
vn 0.00000000 0.00000000 1.00000000
vn 0.00000000 0.00000000 1.00000000
vn 0.00000000 0.00000000 1.00000000
vn 0.00000000 0.00000000 1.00000000
vn -0.50000015 -0.86602532 -0.00000027
vn -0.49999895 -0.86602601 0.00000000
vn -0.18898298 -0.98198036 -0.00000000
vn 0.18898024 -0.98198089 0.00000021
vn 0.18898024 -0.98198089 0.00000021
vn -0.18898298 -0.98198036 -0.00000000
vn 0.49999808 -0.86602651 0.00000055
vn 0.49999808 -0.86602651 0.00000055
vn 1.00000000 -0.00000276 0.00000055
vn 1.00000000 0.00000000 0.00000109
vn 1.00000000 -0.00000276 0.00000055
vn 1.00000000 -0.00000552 0.00000000
vn 0.50000015 0.86602532 0.00000000
vn 0.50000015 0.86602532 0.00000000
vn 0.18898269 0.98198042 0.00000000
vn -0.18898134 0.98198068 0.00000000
vn -0.18898134 0.98198068 0.00000000
vn 0.18898269 0.98198042 0.00000000
vn -0.49999895 0.86602601 0.00000000
vn -0.49999895 0.86602601 0.00000000
vn -1.00000000 0.00000000 0.00000000
vn -1.00000000 0.00000000 0.00000000
vn -1.00000000 0.00000000 0.00000000
vn -1.00000000 0.00000000 0.00000000
vn 0.00000000 0.00000000 1.00000000
vn 0.00000000 0.00000000 1.00000000
vn 0.00000000 0.00000000 1.00000000
vn 0.00000000 0.00000000 1.00000000
vn 0.00000000 0.00000000 1.00000000
vn 0.00000000 0.00000000 1.00000000
vn 0.00000000 0.00000000 1.00000000
vn 0.00000000 0.00000000 1.00000000
vn -0.75592967 0.65465283 0.00000000
vn -0.50000134 0.86602463 0.00000000
vn -0.50000134 0.86602463 0.00000000
vn -0.94491133 0.32732642 0.00000000
vn 0.50000015 0.86602532 0.00000000
vn 0.94491120 0.32732679 0.00000000
vn 0.75592903 0.65465358 0.00000000
vn 0.50000015 0.86602532 0.00000000
vn 0.94491120 0.32732679 0.00000000
vn 1.00000000 0.00000000 0.00000000
vn 1.00000000 0.00000000 0.00000000
vn 0.75592903 0.65465358 0.00000000
vn 0.49999601 -0.86602771 0.00000000
vn -0.18898126 -0.98198069 0.00000000
vn 0.18897991 -0.98198095 0.00000000
vn 0.49999601 -0.86602771 0.00000000
vn -0.18898126 -0.98198069 0.00000000
vn -0.49999720 -0.86602702 0.00000000
vn -0.49999720 -0.86602702 0.00000000
vn 0.18897991 -0.98198095 0.00000000
vn -1.00000000 0.00000000 0.00000000
vn -0.75592967 0.65465283 0.00000000
vn -0.94491133 0.32732642 0.00000000
vn -1.00000000 0.00000000 0.00000000
vn -0.41137194 0.00000028 0.91146757
vn -0.41137066 0.00000038 0.91146815
vn -0.41406064 0.00000025 0.91024930
vn -0.41674697 0.00000013 0.90902253
vn -0.41674697 0.00000013 0.90902253
vn -0.41406064 0.00000025 0.91024930
vn -0.41894199 0.00000006 0.90801300
vn -0.41845586 0.00000000 0.90823713
vn -0.41845586 0.00000000 0.90823713
vn -0.41894199 0.00000006 0.90801300
vn -0.35690601 -0.16920381 0.91868829
vn -0.30811205 0.29128444 0.90566017
vn -0.06423358 0.00000008 -0.99793489
vn -0.08208784 0.00000000 -0.99662510
vn -0.06643960 0.00000015 -0.99779045
vn -0.06643976 0.00000026 -0.99779044
vn -0.09096207 0.00000000 -0.99585436
vn -0.08200473 -0.00000000 -0.99663194
vn -0.08208784 0.00000000 -0.99662510
vn -0.06423358 0.00000008 -0.99793489
vn -0.07813862 -0.00000000 -0.99694250
vn -0.08323383 -0.00000000 -0.99653004
vn -0.08200473 -0.00000000 -0.99663194
vn -0.09096207 0.00000000 -0.99585436
vn -0.04420660 -0.00000000 -0.99902241
vn -0.04420660 0.00000000 -0.99902241
vn -0.08323383 -0.00000000 -0.99653004
vn -0.07813862 -0.00000000 -0.99694250
vn 0.00000000 0.00000000 -1.00000000
vn 0.00000000 0.00000000 -1.00000000
vn 0.00000000 0.00000000 -1.00000000
vn 0.00000000 0.00000000 -1.00000000
vn 0.00000000 0.00000000 -1.00000000
vn 0.00000000 0.00000000 -1.00000000
vn 0.00000000 0.00000000 -1.00000000
vn 0.00000000 0.00000000 -1.00000000
vn 0.15689932 0.45689356 0.87557460
vn 0.15689930 -0.45689361 0.87557458
vn 0.57305105 -0.27815280 0.77087192
vn 0.61397304 0.38224926 0.69059584
vn -0.11568926 -0.44338741 0.88883272
vn -0.35690601 -0.16920381 0.91868829
vn -0.40255529 -0.86798048 0.29079052
vn 0.00000010 -0.94497620 0.32713908
vn -0.99590867 -0.09036549 0.00005237
vn -0.96546255 -0.26054188 0.00005877
vn -0.97540152 -0.22043563 0.00004853
vn -0.99590908 -0.09036092 0.00005406
vn -0.92180937 -0.38760178 -0.00568808
vn -0.86004944 -0.51008959 -0.01111629
vn -0.88229565 -0.47056469 -0.01110259
vn -0.94184482 -0.33604811 0.00007005
vn -0.96546255 -0.26054188 0.00005877
vn -0.92180937 -0.38760178 -0.00568808
vn -0.94184482 -0.33604811 0.00007005
vn -0.97540152 -0.22043563 0.00004853
vn -0.86004944 -0.51008959 -0.01111629
vn -0.31892467 -0.94778007 0.00000000
vn -0.40255529 -0.86798048 0.29079052
vn -0.88229565 -0.47056469 -0.01110259
vn 0.15689930 -0.45689361 0.87557458
vn -0.11568926 -0.44338741 0.88883272
vn 0.00000010 -0.94497620 0.32713908
vn 0.06420675 -0.94548986 0.31925917
vn -0.31892467 -0.94778007 0.00000000
vn 0.00000000 -1.00000000 0.00000000
vn 0.00000010 -0.94497620 0.32713908
vn -0.40255529 -0.86798048 0.29079052
vn 0.00000000 -1.00000000 0.00000000
vn 0.06665101 -0.99777635 0.00000000
vn 0.06420675 -0.94548986 0.31925917
vn 0.00000010 -0.94497620 0.32713908
vn 0.06420675 -0.94548986 0.31925917
vn 0.06665101 -0.99777635 0.00000000
vn 0.13105578 -0.99136777 -0.00378486
vn 0.11983319 -0.93650883 0.32953183
vn 0.06420675 -0.94548986 0.31925917
vn 0.11983319 -0.93650883 0.32953183
vn 0.57305105 -0.27815280 0.77087192
vn 0.15689930 -0.45689361 0.87557458
vn 0.96870621 -0.14409884 0.20209847
vn 0.57305105 -0.27815280 0.77087192
vn 0.96344635 -0.18069789 0.19778625
vn 0.96416577 -0.17466653 0.19968968
vn 0.87257085 -0.03940747 0.48689543
vn 0.57305105 -0.27815280 0.77087192
vn 0.96870621 -0.14409884 0.20209847
vn 0.97489888 -0.05947531 0.21455735
vn -0.11568928 0.44338730 0.88883277
vn 0.00000000 0.94497617 0.32713916
vn -0.40255562 0.86798031 0.29079058
vn -0.30811205 0.29128444 0.90566017
vn -0.35690601 -0.16920381 0.91868829
vn -0.11568926 -0.44338741 0.88883272
vn -0.11568928 0.44338730 0.88883277
vn -0.30811205 0.29128444 0.90566017
vn -0.99272144 0.12043316 0.00005164
vn -0.99818549 0.06021400 0.00005418
vn -0.97540164 0.22043513 0.00004853
vn -0.96546281 0.26054089 0.00005877
vn -0.92180956 0.38760131 -0.00568808
vn -0.94184516 0.33604715 0.00007005
vn -0.88229574 0.47056450 -0.01110259
vn -0.86004966 0.51008922 -0.01111630
vn -0.96546281 0.26054089 0.00005877
vn -0.97540164 0.22043513 0.00004853
vn -0.94184516 0.33604715 0.00007005
vn -0.92180956 0.38760131 -0.00568808
vn -0.86004966 0.51008922 -0.01111630
vn -0.88229574 0.47056450 -0.01110259
vn -0.40255562 0.86798031 0.29079058
vn -0.31892484 0.94778001 0.00000000
vn 0.15689932 0.45689356 0.87557460
vn 0.06420675 0.94548988 0.31925912
vn 0.00000000 0.94497617 0.32713916
vn -0.11568928 0.44338730 0.88883277
vn -0.06643960 0.00000015 -0.99779045
vn -0.08649002 0.00000008 -0.99625272
vn -0.08648848 0.00000017 -0.99625285
vn -0.06643976 0.00000026 -0.99779044
vn -0.11568926 -0.44338741 0.88883272
vn 0.15689930 -0.45689361 0.87557458
vn 0.15689932 0.45689356 0.87557460
vn -0.11568928 0.44338730 0.88883277
vn -0.31892484 0.94778001 0.00000000
vn -0.40255562 0.86798031 0.29079058
vn 0.00000000 0.94497617 0.32713916
vn 0.00000000 1.00000000 0.00000000
vn 0.00000000 0.00000000 -1.00000000
vn -0.04420660 0.00000000 -0.99902241
vn -0.04420660 -0.00000000 -0.99902241
vn 0.00000000 0.00000000 -1.00000000
vn 0.00000000 1.00000000 0.00000000
vn 0.00000000 0.94497617 0.32713916
vn 0.06420675 0.94548988 0.31925912
vn 0.06665101 0.99777635 0.00000000
vn 0.06420675 0.94548988 0.31925912
vn 0.11983305 0.93650890 0.32953167
vn 0.13105566 0.99136779 -0.00378510
vn 0.06665101 0.99777635 0.00000000
vn 0.00000000 0.00000000 -1.00000000
vn 0.00000000 0.00000000 -1.00000000
vn 0.00000000 0.00000000 -1.00000000
vn 0.00000000 0.00000000 -1.00000000
vn -0.99590867 -0.09036549 0.00005237
vn -0.99590908 -0.09036092 0.00005406
vn -0.99818549 0.06021400 0.00005418
vn -0.99272144 0.12043316 0.00005164
vn 0.06420675 0.94548988 0.31925912
vn 0.15689932 0.45689356 0.87557460
vn 0.61397304 0.38224926 0.69059584
vn 0.11983305 0.93650890 0.32953167
vn 0.57305105 -0.27815280 0.77087192
vn 0.87257085 -0.03940747 0.48689543
vn 0.87257085 0.03940748 0.48689543
vn 0.61397304 0.38224926 0.69059584
vn 0.96870623 0.14409877 0.20209846
vn 0.96416581 0.17466625 0.19968971
vn 0.96344639 0.18069772 0.19778624
vn 0.61397304 0.38224926 0.69059584
vn 0.87257085 0.03940748 0.48689543
vn 0.97586003 0.03964241 0.21476888
vn 0.96870623 0.14409877 0.20209846
vn 0.61397304 0.38224926 0.69059584
vn 0.87257085 -0.03940747 0.48689543
vn 0.97489888 -0.05947531 0.21455735
vn 0.97586003 0.03964241 0.21476888
vn 0.87257085 0.03940748 0.48689543

g ²ã
f 2//1 1//2 4//3 3//4
f 1//5 5//6 6//7 4//8
f 6//9 7//10 8//11 4//12
f 4//13 8//14 9//15 3//16
f 3//17 9//18 10//19 2//20
f 2//21 10//22 11//23 1//24
f 1//25 11//26 12//27 5//28
f 5//29 12//30 7//31 6//32
f 14//33 13//34 16//35 15//36
f 15//37 16//38 18//39 17//40
f 18//41 16//42 20//43 19//44
f 16//45 13//46 21//47 20//48
f 13//49 14//50 22//51 21//52
f 14//53 15//54 23//55 22//56
f 15//57 17//58 24//59 23//60
f 17//61 18//62 19//63 24//64
f 26//65 25//66 28//67 27//68
f 27//69 28//70 30//71 29//72
f 29//73 30//74 45//75 59//76
f 32//77 31//78 49//79 62//80
f 34//81 33//82 31//83 32//84
f 36//85 35//86 33//87 34//88
f 38//89 37//90 35//91 36//92
f 40//93 39//94 42//95 41//96
f 41//97 42//98 55//99 67//100
f 64//101 51//102 44//103 43//104
f 46//105 45//106 48//107 47//108
f 50//109 49//110 28//111 25//112
f 31//113 33//114 45//115 30//116
f 49//117 31//118 30//119 28//120
f 33//121 35//122 48//123 45//124
f 51//125 46//126 47//127 52//128
f 35//129 37//130 47//131 48//132
f 37//133 53//134 52//135 47//136
f 52//137 53//138 55//139 54//140
f 52//141 54//142 44//143 51//144
f 42//145 44//146 54//147 55//148
f 56//149 44//150 42//151 39//152
f 58//153 57//154 60//155 59//156
f 45//157 46//158 58//159 59//160
f 61//161 26//162 27//163 62//164
f 32//165 29//166 59//167 34//168
f 62//169 27//170 29//171 32//172
f 34//173 59//174 60//175 36//176
f 64//177 63//178 57//179 58//180
f 49//181 50//182 61//183 62//184
f 46//185 51//186 64//187 58//188
f 36//189 60//190 57//191 38//192
f 53//193 37//194 38//195 65//196
f 38//197 57//198 63//199 65//200
f 63//201 66//202 67//203 65//204
f 55//205 53//206 65//207 67//208
f 50//209 25//210 26//211 61//212
f 63//213 64//214 43//215 66//216
f 44//217 56//218 68//219 43//220
f 41//221 67//222 66//223 43//224
f 68//225 40//226 41//227 43//228
f 56//229 39//230 40//231 68//232

