# Rhino

v 21.55271720886231 6.816339015960693 1.544137954711914
v 21.55271720886231 6.816339015960693 1.544137954711914
v 21.55271720886231 6.816339015960693 0.08275000005960465
v 21.55271720886231 6.816339015960693 0.08275000005960465
v 21.55271720886231 3.183659076690674 1.544137954711914
v 21.55271720886231 3.183659076690674 1.544137954711914
v 21.55271720886231 3.183659076690674 0.08275000005960465
v 21.55271720886231 3.183659076690674 0.08275000005960465
v 19.97655868530273 10.08926963806152 1.544137954711914
v 19.97655868530273 10.08926963806152 1.544137954711914
v 19.97655868530273 10.08926963806152 0.08275000005960465
v 19.97655868530273 10.08926963806152 0.08275000005960465
v 19.9765567779541 -0.08927100151777268 1.544137954711914
v 19.9765567779541 -0.08927100151777268 1.544137954711914
v 19.9765567779541 -0.08927100151777268 0.08275000005960465
v 19.9765567779541 -0.08927100151777268 0.08275000005960465
v 17.13641548156738 12.35420894622803 1.544137954711914
v 17.13641548156738 12.35420894622803 1.544137954711914
v 17.13641548156738 12.35420894622803 0.08275000005960465
v 17.13641548156738 12.35420894622803 0.08275000005960465
v 17.13641357421875 -2.354208946228027 1.544137954711914
v 17.13641357421875 -2.354208946228027 1.544137954711914
v 17.13641357421875 -2.354208946228027 0.08275000005960465
v 17.13641357421875 -2.354208946228027 0.08275000005960465
v 13.59481430053711 13.1625566482544 1.544137954711914
v 13.59481430053711 13.1625566482544 1.544137954711914
v 13.59481430053711 13.1625566482544 0.08275000005960465
v 13.59481430053711 13.1625566482544 0.08275000005960465
v 13.59481334686279 -3.162554979324341 1.544137954711914
v 13.59481334686279 -3.162554979324341 1.544137954711914
v 13.59481334686279 -3.162554979324341 0.08275000005960465
v 13.59481334686279 -3.162554979324341 0.08275000005960465
v 10.05321598052979 12.35420989990234 1.544137954711914
v 10.05321598052979 12.35420989990234 1.544137954711914
v 10.05321598052979 12.35420989990234 0.08275000005960465
v 10.05321598052979 12.35420989990234 0.08275000005960465
v 10.05321311950684 -2.354207992553711 1.544137954711914
v 10.05321311950684 -2.354207992553711 1.544137954711914
v 10.05321311950684 -2.354207992553711 0.08275000005960465
v 10.05321311950684 -2.354207992553711 0.08275000005960465
v 7.213071823120117 10.08927154541016 1.544137954711914
v 7.213071823120117 10.08927154541016 1.544137954711914
v 7.213071823120117 10.08927154541016 0.08275000005960465
v 7.213071823120117 10.08927154541016 0.08275000005960465
v 7.213070869445801 -0.0892689973115921 1.544137954711914
v 7.213070869445801 -0.0892689973115921 1.544137954711914
v 7.213070869445801 -0.0892689973115921 0.08275000005960465
v 7.213070869445801 -0.0892689973115921 0.08275000005960465
v 5.636910915374756 6.816340923309326 1.544137954711914
v 5.636910915374756 6.816340923309326 1.544137954711914
v 5.636910915374756 6.816340923309326 0.08275000005960465
v 5.636910915374756 6.816340923309326 0.08275000005960465
v 5.636910915374756 3.183661937713623 1.544137954711914
v 5.636910915374756 3.183661937713623 1.544137954711914
v 5.636910915374756 3.183661937713623 0.08275000005960465
v 5.636910915374756 3.183661937713623 0.08275000005960465
vn 0.9889993667602539 0.1479195803403854 0
vn 0 0 1
vn 0.9552376866340637 0.2958394289016724 0
vn 0 0 -1
vn 0.955237627029419 -0.2958396971225739 0
vn 0 0 1
vn 0.9889993071556091 -0.1479199826717377 0
vn 0 0 -1
vn 0.8268777132034302 0.5623818039894104 0
vn 0 0 1
vn 0.7322794795036316 0.6810042858123779 0
vn 0 0 -1
vn 0.7322792410850525 -0.6810044646263123 0
vn 0 0 1
vn 0.8268775939941406 -0.5623819231987 0
vn 0 0 -1
vn 0.5009827613830566 0.8654572367668152 0
vn 0 0 1
vn 0.3642843365669251 0.9312877655029297 0
vn 0 0 -1
vn 0.364283949136734 -0.931287944316864 0
vn 0 0 1
vn 0.500982403755188 -0.8654574751853943 0
vn 0 0 -1
vn 0.07586201280355454 0.997118353843689 0
vn 0 0 1
vn 0 0 -1
vn -0.07586192339658737 0.997118353843689 0
vn 0 0 1
vn -0.07586199790239334 -0.997118353843689 0
vn 0.07586172968149185 -0.997118353843689 0
vn 0 0 -1
vn 0 0 1
vn -0.3642841875553131 0.9312878251075745 0
vn 0 0 -1
vn -0.5009825229644775 0.8654574155807495 0
vn 0 0 1
vn -0.5009828209877014 -0.8654572367668152 0
vn 0 0 -1
vn -0.3642842769622803 -0.9312878251075745 0
vn 0 0 1
vn -0.7322792410850525 0.681004524230957 0
vn 0 0 -1
vn -0.8268775343894959 0.5623820424079895 0
vn 0 0 1
vn -0.8268777132034302 -0.5623817443847656 0
vn 0 0 -1
vn -0.7322795391082764 -0.6810041666030884 0
vn 0 0 1
vn -0.955237627029419 0.2958396673202515 0
vn 0 0 -1
vn -0.9889993667602539 0.1479198336601257 0
vn 0 0 1
vn -0.9889993667602539 -0.1479197591543198 0
vn 0 0 -1
vn -0.955237627029419 -0.2958395183086395 0
f 24//24 32//32 39//39 16//16
f 16//16 39//39 47//47 8//8
f 8//8 47//47 55//55 4//4
f 12//12 51//51 43//43 20//20
f 4//4 55//55 51//51 12//12
f 49//49 10//10 18//18 41//41
f 53//53 2//2 10//10 49//49
f 45//45 6//6 2//2 53//53
f 37//37 14//14 6//6 45//45
f 29//29 22//22 14//14 37//37
f 18//18 26//26 33//33 41//41
f 20//20 43//43 35//35 27//27
f 34//34 25//25 28//28 36//36
f 25//25 17//17 19//19 28//28
f 17//17 9//9 11//11 19//19
f 9//9 1//1 3//3 11//11
f 1//1 5//5 7//7 3//3
f 5//5 13//13 15//15 7//7
f 13//13 21//21 23//23 15//15
f 21//21 30//30 31//31 23//23
f 30//30 38//38 40//40 31//31
f 38//38 46//46 48//48 40//40
f 46//46 54//54 56//56 48//48
f 54//54 50//50 52//52 56//56
f 50//50 42//42 44//44 52//52
f 42//42 34//34 36//36 44//44
