# Blender v2.63 (sub 0) OBJ File: 'depthcharge_ bullet.blend'
# www.blender.org
mtllib depthcharge_ bullet.mtl
o Cylinder.001_Cylinder.002
v 0.000000 0.709228 0.628457
v 0.000000 -0.709228 0.628457
v 0.444386 0.709228 0.444386
v 0.444386 -0.709228 0.444386
v 0.628457 0.709228 -0.000000
v 0.628457 -0.709228 0.000000
v 0.444386 0.709228 -0.444386
v 0.444386 -0.709228 -0.444386
v -0.000000 0.709228 -0.628457
v -0.000000 -0.709228 -0.628457
v -0.444386 0.709228 -0.444386
v -0.444386 -0.709228 -0.444386
v -0.628457 0.709228 -0.000000
v -0.628457 -0.709228 0.000000
v -0.444386 0.709228 0.444386
v -0.444386 -0.709228 0.444386
v 0.000000 0.709228 0.492409
v 0.348186 0.709228 0.348186
v 0.492410 0.709228 -0.000000
v 0.348186 0.709228 -0.348186
v -0.000000 0.709228 -0.492410
v -0.348186 0.709228 -0.348186
v -0.492410 0.709228 -0.000000
v -0.348186 0.709228 0.348186
v 0.348186 -0.709228 0.348186
v 0.000000 -0.709228 0.492410
v 0.492410 -0.709228 0.000000
v 0.348186 -0.709228 -0.348186
v -0.000000 -0.709228 -0.492409
v -0.348186 -0.709228 -0.348186
v -0.492410 -0.709228 0.000000
v -0.348186 -0.709228 0.348186
v 0.348186 -0.598943 0.348186
v 0.000000 -0.598943 0.492410
v 0.492410 -0.598943 0.000000
v 0.348186 -0.598943 -0.348186
v -0.000000 -0.598943 -0.492409
v -0.348186 -0.598943 -0.348186
v -0.492410 -0.598943 0.000000
v -0.348186 -0.598943 0.348186
v 0.000000 0.598943 0.492409
v 0.348186 0.598943 0.348186
v 0.492410 0.598943 -0.000000
v 0.348186 0.598943 -0.348186
v -0.000000 0.598943 -0.492410
v -0.348186 0.598943 -0.348186
v -0.492410 0.598943 -0.000000
v -0.348186 0.598943 0.348186
vn 0.382683 0.000000 0.923880
vn 0.923880 0.000000 0.382683
vn 0.923879 -0.000000 -0.382683
vn 0.382683 -0.000000 -0.923880
vn -0.382684 -0.000000 -0.923879
vn -0.923880 -0.000000 -0.382683
vn -0.382683 0.000000 0.923880
vn -0.382684 0.000000 0.923880
vn -0.923880 0.000000 0.382683
vn 0.923880 -0.000000 -0.382683
vn -0.000000 1.000000 -0.000000
vn 0.000000 -1.000000 0.000000
vn -0.382683 0.000000 -0.923880
vn 0.382684 0.000000 0.923880
usemtl _gray
s off
f 1//1 2//1 4//1 3//1
f 3//2 4//2 6//2 5//2
f 5//3 6//3 8//3 7//3
f 7//4 8//4 10//4 9//4
f 9//5 10//5 12//5 11//5
f 11//6 12//6 14//6 13//6
f 29//7 28//7 36//7 37//7
f 2//8 1//8 15//8 16//8
f 13//9 14//9 16//9 15//9
f 23//10 24//10 48//10 47//10
f 1//11 3//11 18//11 17//11
f 19//11 18//11 3//11 5//11
f 20//11 19//11 5//11 7//11
f 21//11 20//11 7//11 9//11
f 22//11 21//11 9//11 11//11
f 23//11 22//11 11//11 13//11
f 24//11 23//11 13//11 15//11
f 15//11 1//11 17//11 24//11
f 26//12 25//12 4//12 2//12
f 25//12 27//12 6//12 4//12
f 27//12 28//12 8//12 6//12
f 28//12 29//12 10//12 8//12
f 29//12 30//12 12//12 10//12
f 30//12 31//12 14//12 12//12
f 31//12 32//12 16//12 14//12
f 32//12 26//12 2//12 16//12
f 33//12 34//12 40//12
f 33//12 40//12 35//12
f 40//12 39//12 35//12
f 39//12 38//12 35//12
f 38//12 36//12 35//12
f 38//12 37//12 36//12
f 32//10 31//10 39//10 40//10
f 28//9 27//9 35//9 36//9
f 31//2 30//2 38//2 39//2
f 27//6 25//6 33//6 35//6
f 30//1 29//1 37//1 38//1
f 26//4 32//4 40//4 34//4
f 25//13 26//13 34//13 33//13
f 41//11 42//11 48//11
f 42//11 43//11 48//11
f 43//11 47//11 48//11
f 43//11 46//11 47//11
f 43//11 44//11 46//11
f 44//11 45//11 46//11
f 19//9 20//9 44//9 43//9
f 22//2 23//2 47//2 46//2
f 18//6 19//6 43//6 42//6
f 21//14 22//14 46//14 45//14
f 24//4 17//4 41//4 48//4
f 17//13 18//13 42//13 41//13
f 20//7 21//7 45//7 44//7
