# Rhino

o object_1
v 2.959 2.311 0.6005
v 2.959 2.311 3.785
v 2.959 2.889 0.6005
v 2.959 2.889 3.785
v 2.959 7.111 0.6005
v 2.959 7.111 3.785
v 2.959 7.689 0.6005
v 2.959 7.689 3.785
v 4.22 1.52 0.6005
v 4.22 1.52 7.243
v 4.22 2.889 0.6005
v 4.22 2.889 7.243
v 4.22 7.111 0.6005
v 4.22 7.111 7.243
v 4.22 8.48 0.6005
v 4.22 8.48 7.243
v 4.247 1.408 3.422
v 4.247 1.408 5.079
v 4.247 1.586 3.422
v 4.247 1.586 5.079
v 4.247 8.414 3.422
v 4.247 8.414 5.079
v 4.247 8.592 3.422
v 4.247 8.592 5.079
v 4.295 1.408 3.296
v 4.295 1.408 5.205
v 4.295 1.586 3.296
v 4.295 1.586 5.205
v 4.295 8.414 3.296
v 4.295 8.414 5.205
v 4.295 8.592 3.296
v 4.295 8.592 5.205
v 4.364 1.408 3.229
v 4.364 1.408 5.272
v 4.364 1.586 3.229
v 4.364 1.586 5.272
v 4.364 8.414 3.229
v 4.364 8.414 5.272
v 4.364 8.592 3.229
v 4.364 8.592 5.272
v 5.65 1.408 3.229
v 5.65 1.408 5.272
v 5.65 1.586 3.229
v 5.65 1.586 5.272
v 5.65 8.414 3.229
v 5.65 8.414 5.272
v 5.65 8.592 3.229
v 5.65 8.592 5.272
v 5.719 1.408 3.296
v 5.719 1.408 5.205
v 5.719 1.586 3.296
v 5.719 1.586 5.205
v 5.719 8.414 3.296
v 5.719 8.414 5.205
v 5.719 8.592 3.296
v 5.719 8.592 5.205
v 5.767 1.408 3.422
v 5.767 1.408 5.079
v 5.767 1.586 3.422
v 5.767 1.586 5.079
v 5.767 8.414 3.422
v 5.767 8.414 5.079
v 5.767 8.592 3.422
v 5.767 8.592 5.079
v 5.794 1.52 0.6005
v 5.794 1.52 7.243
v 5.794 2.889 0.6005
v 5.794 2.889 7.243
v 5.794 7.111 0.6005
v 5.794 7.111 7.243
v 5.794 8.48 0.6005
v 5.794 8.48 7.243
v 7.055 2.311 0.6005
v 7.055 2.311 3.785
v 7.055 2.889 0.6005
v 7.055 2.889 3.785
v 7.055 7.111 0.6005
v 7.055 7.111 3.785
v 7.055 7.689 0.6005
v 7.055 7.689 3.785
vn 0.918 -0.3887 0.07862
vn 0.875 -0.4841 0
vn 1 0 0
vn 0.9728 0 0.2316
vn -0.875 -0.4841 0
vn -0.9525 -0.2366 0.1915
vn -0.9933 0 0.1158
vn -1 0 0
vn 0 0 -1
vn 0 0 -1
vn 0 0 -1
vn 0 0 -1
vn -0.2764 -0.961 0
vn -0.2764 -0.961 0
vn 0.2764 -0.961 0
vn 0.2764 -0.961 0
vn 0 1 0
vn 0 1 0
vn 0 1 0
vn 0 1 0
vn 0 0 -1
vn 0 0 -1
vn 0 0 -1
vn 0 0 -1
vn 0.918 -0.3887 0.07862
vn 0.2764 -0.961 0
vn 0.2764 -0.961 0
vn 0.875 -0.4841 0
vn 0.9728 0 0.2316
vn 0.9394 0 0.3427
vn 0.9394 0 0.3427
vn 0.918 -0.3887 0.07862
vn 0 1 0
vn 0 1 0
vn 0 1 0
vn 0 1 0
vn -0.9525 -0.2366 0.1915
vn -0.9394 0 0.3427
vn -0.9394 0 0.3427
vn -0.9933 0 0.1158
vn -0.875 -0.4841 0
vn -0.2764 -0.961 0
vn -0.2764 -0.961 0
vn -0.9525 -0.2366 0.1915
vn 0 0 -1
vn 0 0 -1
vn 0 0 -1
vn 0 0 -1
vn 0 1 0
vn 0 1 0
vn 0 1 0
vn 0 1 0
vn 0 0 1
vn 0 0 1
vn 0 0 1
vn 0 0 1
vn 0.918 0.3887 0.07862
vn 0.9728 0 0.2316
vn 1 0 0
vn 0.875 0.4841 0
vn -0.875 0.4841 0
vn -1 0 0
vn -0.9933 0 0.1158
vn -0.9525 0.2367 0.1915
vn 0 0 -1
vn 0 0 -1
vn 0 0 -1
vn 0 0 -1
vn -0.2764 0.961 0
vn 0.2764 0.961 0
vn 0.2764 0.961 0
vn -0.2764 0.961 0
vn 0 -1 0
vn 0 -1 0
vn 0 -1 0
vn 0 -1 0
vn 0 0 -1
vn 0 0 -1
vn 0 0 -1
vn 0 0 -1
vn 0.918 0.3887 0.07862
vn 0.875 0.4841 0
vn 0.2764 0.961 0
vn 0.2764 0.961 0
vn 0.9728 0 0.2316
vn 0.918 0.3887 0.07862
vn 0.9394 0 0.3427
vn 0.9394 0 0.3427
vn 0 -1 0
vn 0 -1 0
vn 0 -1 0
vn 0 -1 0
vn -0.9525 0.2367 0.1915
vn -0.9933 0 0.1158
vn -0.9394 0 0.3427
vn -0.9394 0 0.3427
vn -0.875 0.4841 0
vn -0.9525 0.2367 0.1915
vn -0.2764 0.961 0
vn -0.2764 0.961 0
vn 0 0 -1
vn 0 0 -1
vn 0 0 -1
vn 0 0 -1
vn 0 -1 0
vn 0 -1 0
vn 0 -1 0
vn 0 -1 0
vn 0 0 1
vn 0 0 1
vn 0 0 1
vn 0 0 1
vn 0.9928 0 0.1196
vn 0.971 0 0.2391
vn 0.9928 0 -0.1196
vn 0.971 0 -0.2391
vn -0.247 0 0.969
vn -0.494 0 0.8695
vn 0.247 0 0.969
vn 0.494 0 0.8695
vn -0.9928 0 -0.1196
vn -0.971 0 -0.2392
vn -0.9928 0 0.1196
vn -0.971 0 0.2391
vn 0.247 0 -0.969
vn 0.494 0 -0.8695
vn -0.247 0 -0.969
vn -0.494 0 -0.8695
vn 0 1 0
vn 0 1 0
vn 0 1 0
vn 0 1 0
vn 0 -1 0
vn 0 -1 0
vn 0 -1 0
vn 0 -1 0
vn 0.494 0 0.8695
vn 0.247 0 0.969
vn 0.7913 0 0.6115
vn 0.8737 0 0.4864
vn 0 1 0
vn 0 1 0
vn 0 1 0
vn 0 1 0
vn -0.494 0 0.8695
vn -0.247 0 0.969
vn -0.7913 0 0.6115
vn -0.8737 0 0.4864
vn 0 -1 0
vn 0 -1 0
vn 0 -1 0
vn 0 -1 0
vn -0.494 0 -0.8695
vn -0.247 0 -0.969
vn -0.7913 0 -0.6115
vn -0.8737 0 -0.4864
vn 0 1 0
vn 0 1 0
vn 0 1 0
vn 0 1 0
vn 0.494 0 -0.8695
vn 0.247 0 -0.969
vn 0.7913 0 -0.6115
vn 0.8737 0 -0.4864
vn 0 -1 0
vn 0 -1 0
vn 0 -1 0
vn 0 -1 0
vn 0.971 0 -0.2391
vn 0.9928 0 -0.1196
vn 0.8737 0 -0.4864
vn 0.7913 0 -0.6115
vn 0 1 0
vn 0 1 0
vn 0 1 0
vn 0 1 0
vn 0.971 0 0.2391
vn 0.9928 0 0.1196
vn 0.8737 0 0.4864
vn 0.7913 0 0.6115
vn 0 -1 0
vn 0 -1 0
vn 0 -1 0
vn 0 -1 0
vn -0.971 0 0.2391
vn -0.9928 0 0.1196
vn -0.8737 0 0.4864
vn -0.7913 0 0.6115
vn 0 1 0
vn 0 1 0
vn 0 1 0
vn 0 1 0
vn -0.971 0 -0.2392
vn -0.9928 0 -0.1196
vn -0.8737 0 -0.4864
vn -0.7913 0 -0.6115
vn 0 -1 0
vn 0 -1 0
vn 0 -1 0
vn 0 -1 0
vn 0.9928 0 0.1196
vn 0.971 0 0.2391
vn 0.9928 0 -0.1196
vn 0.971 0 -0.2391
vn -0.247 0 0.969
vn -0.494 0 0.8695
vn 0.247 0 0.969
vn 0.494 0 0.8695
vn -0.9928 0 -0.1196
vn -0.971 0 -0.2392
vn -0.9928 0 0.1196
vn -0.971 0 0.2391
vn 0.247 0 -0.969
vn 0.494 0 -0.8695
vn -0.247 0 -0.969
vn -0.494 0 -0.8695
vn 0 1 0
vn 0 1 0
vn 0 1 0
vn 0 1 0
vn 0 -1 0
vn 0 -1 0
vn 0 -1 0
vn 0 -1 0
vn 0.494 0 0.8695
vn 0.247 0 0.969
vn 0.7913 0 0.6115
vn 0.8737 0 0.4864
vn 0 1 0
vn 0 1 0
vn 0 1 0
vn 0 1 0
vn -0.494 0 0.8695
vn -0.247 0 0.969
vn -0.7913 0 0.6115
vn -0.8737 0 0.4864
vn 0 -1 0
vn 0 -1 0
vn 0 -1 0
vn 0 -1 0
vn -0.494 0 -0.8695
vn -0.247 0 -0.969
vn -0.7913 0 -0.6115
vn -0.8737 0 -0.4864
vn 0 1 0
vn 0 1 0
vn 0 1 0
vn 0 1 0
vn 0.494 0 -0.8695
vn 0.247 0 -0.969
vn 0.7913 0 -0.6115
vn 0.8737 0 -0.4864
vn 0 -1 0
vn 0 -1 0
vn 0 -1 0
vn 0 -1 0
vn 0.971 0 -0.2391
vn 0.9928 0 -0.1196
vn 0.8737 0 -0.4864
vn 0.7913 0 -0.6115
vn 0 1 0
vn 0 1 0
vn 0 1 0
vn 0 1 0
vn 0.971 0 0.2391
vn 0.9928 0 0.1196
vn 0.8737 0 0.4864
vn 0.7913 0 0.6115
vn 0 -1 0
vn 0 -1 0
vn 0 -1 0
vn 0 -1 0
vn -0.971 0 0.2391
vn -0.9928 0 0.1196
vn -0.8737 0 0.4864
vn -0.7913 0 0.6115
vn 0 1 0
vn 0 1 0
vn 0 1 0
vn 0 1 0
vn -0.971 0 -0.2392
vn -0.9928 0 -0.1196
vn -0.8737 0 -0.4864
vn -0.7913 0 -0.6115
vn 0 -1 0
vn 0 -1 0
vn 0 -1 0
vn 0 -1 0
f 74//1 73//2 75//3 76//4
f 1//5 2//6 4//7 3//8
f 65//9 9//10 11//11 67//12
f 10//13 9//14 65//15 66//16
f 68//17 67//18 11//19 12//20
f 73//21 65//22 67//23 75//24
f 74//25 66//26 65//27 73//28
f 76//29 68//30 66//31 74//32
f 75//33 67//34 68//35 76//36
f 2//37 10//38 12//39 4//40
f 1//41 9//42 10//43 2//44
f 3//45 11//46 9//47 1//48
f 4//49 12//50 11//51 3//52
f 68//53 12//54 10//55 66//56
f 80//57 78//58 77//59 79//60
f 7//61 5//62 6//63 8//64
f 71//65 69//66 13//67 15//68
f 16//69 72//70 71//71 15//72
f 70//73 14//74 13//75 69//76
f 79//77 77//78 69//79 71//80
f 80//81 79//82 71//83 72//84
f 78//85 80//86 72//87 70//88
f 77//89 78//90 70//91 69//92
f 8//93 6//94 14//95 16//96
f 7//97 8//98 16//99 15//100
f 5//101 7//102 15//103 13//104
f 6//105 5//106 13//107 14//108
f 70//109 72//110 16//111 14//112
f 60//113 58//114 57//115 59//116
f 36//117 34//118 42//119 44//120
f 19//121 17//122 18//123 20//124
f 43//125 41//126 33//127 35//128
f 28//129 52//130 51//131 27//132
f 50//133 26//134 25//135 49//136
f 44//137 42//138 50//139 52//140
f 36//141 44//142 52//143 28//144
f 34//145 36//146 28//147 26//148
f 42//149 34//150 26//151 50//152
f 35//153 33//154 25//155 27//156
f 43//157 35//158 27//159 51//160
f 41//161 43//162 51//163 49//164
f 33//165 41//166 49//167 25//168
f 59//169 57//170 49//171 51//172
f 60//173 59//174 51//175 52//176
f 58//177 60//178 52//179 50//180
f 57//181 58//182 50//183 49//184
f 20//185 18//186 26//187 28//188
f 19//189 20//190 28//191 27//192
f 17//193 19//194 27//195 25//196
f 18//197 17//198 25//199 26//200
f 64//201 62//202 61//203 63//204
f 40//205 38//206 46//207 48//208
f 23//209 21//210 22//211 24//212
f 47//213 45//214 37//215 39//216
f 32//217 56//218 55//219 31//220
f 54//221 30//222 29//223 53//224
f 48//225 46//226 54//227 56//228
f 40//229 48//230 56//231 32//232
f 38//233 40//234 32//235 30//236
f 46//237 38//238 30//239 54//240
f 39//241 37//242 29//243 31//244
f 47//245 39//246 31//247 55//248
f 45//249 47//250 55//251 53//252
f 37//253 45//254 53//255 29//256
f 63//257 61//258 53//259 55//260
f 64//261 63//262 55//263 56//264
f 62//265 64//266 56//267 54//268
f 61//269 62//270 54//271 53//272
f 24//273 22//274 30//275 32//276
f 23//277 24//278 32//279 31//280
f 21//281 23//282 31//283 29//284
f 22//285 21//286 29//287 30//288
