# Rhino

o object_1
v 0.4632 5 0.06074
v 0.4632 5 0.7363
v 1.794 1.787 0.06074
v 1.794 1.787 0.7363
v 1.794 8.213 0.06074
v 1.794 8.213 0.7363
v 5.007 0.4564 0.06074
v 5.007 0.4564 0.7363
v 5.007 5 0.06074
v 5.007 5 0.7363
v 5.007 9.544 0.06074
v 5.007 9.544 0.7363
v 8.22 1.787 0.06074
v 8.22 1.787 0.7363
v 8.22 8.213 0.06074
v 8.22 8.213 0.7363
v 9.55 5 0.06074
v 9.55 5 0.7363
vn -0.9906 0.1368 0
vn -0.6037 0.7972 0
vn -0.7972 0.6037 0
vn -0.9906 -0.1368 0
vn -0.7972 -0.6037 0
vn -0.9906 0.1368 0
vn -0.9906 -0.1368 0
vn -0.6037 -0.7972 0
vn -0.1368 -0.9906 0
vn -0.7972 -0.6037 0
vn -0.6037 -0.7972 0
vn 0.1368 -0.9906 0
vn 0.6037 -0.7972 0
vn -0.1368 -0.9906 0
vn 0.1368 -0.9906 0
vn 0.7972 -0.6037 0
vn 0.9906 -0.1368 0
vn 0.6037 -0.7972 0
vn 0.7972 -0.6037 0
vn 0.9906 0.1368 0
vn 0.7972 0.6037 0
vn 0.9906 -0.1368 0
vn 0.9906 0.1368 0
vn 0.6037 0.7972 0
vn 0.1368 0.9906 0
vn 0.7972 0.6037 0
vn 0.6037 0.7972 0
vn -0.1368 0.9906 0
vn -0.6037 0.7972 0
vn 0.1368 0.9906 0
vn -0.1368 0.9906 0
vn -0.7972 0.6037 0
vn 0 0 -1
vn 0 0 -1
vn 0 0 -1
vn 0 0 -1
vn 0 0 -1
vn 0 0 -1
vn 0 0 -1
vn 0 0 -1
vn 0 0 -1
vn 0 0 -1
vn 0 0 -1
vn 0 0 -1
vn 0 0 -1
vn 0 0 -1
vn 0 0 -1
vn 0 0 -1
vn 0 0 -1
vn 0 0 -1
vn 0 0 -1
vn 0 0 -1
vn 0 0 -1
vn 0 0 -1
vn 0 0 -1
vn 0 0 -1
vn 0 0 1
vn 0 0 1
vn 0 0 1
vn 0 0 1
vn 0 0 1
vn 0 0 1
vn 0 0 1
vn 0 0 1
vn 0 0 1
vn 0 0 1
vn 0 0 1
vn 0 0 1
vn 0 0 1
vn 0 0 1
vn 0 0 1
vn 0 0 1
vn 0 0 1
vn 0 0 1
vn 0 0 1
vn 0 0 1
vn 0 0 1
vn 0 0 1
vn 0 0 1
vn 0 0 1
f 2//1 6//2 5//3 1//4
f 4//5 2//6 1//7 3//8
f 8//9 4//10 3//11 7//12
f 14//13 8//14 7//15 13//16
f 18//17 14//18 13//19 17//20
f 16//21 18//22 17//23 15//24
f 12//25 16//26 15//27 11//28
f 6//29 12//30 11//31 5//32
f 1//33 5//34 9//35
f 3//36 1//37 9//38
f 7//39 3//40 9//41
f 13//42 7//43 9//44
f 17//45 13//46 9//47
f 15//48 17//49 9//50
f 11//51 15//52 9//53
f 5//54 11//55 9//56
f 6//57 2//58 10//59
f 2//60 4//61 10//62
f 4//63 8//64 10//65
f 8//66 14//67 10//68
f 14//69 18//70 10//71
f 18//72 16//73 10//74
f 16//75 12//76 10//77
f 12//78 6//79 10//80
