# Rhino

o object_1
v 2.662 5 0.0007276
v 2.662 5 0.3646
v 3.109 3.626 0.0007276
v 3.109 3.626 0.3646
v 3.109 6.374 0.0007276
v 3.109 6.374 0.3646
v 3.831 5 0.3646
v 3.831 5 0.4417
v 4.054 4.313 0.3646
v 4.054 4.313 0.4417
v 4.054 5.687 0.3646
v 4.054 5.687 0.4417
v 4.278 2.777 0.0007276
v 4.278 2.777 0.3646
v 4.278 7.223 0.0007276
v 4.278 7.223 0.3646
v 4.639 3.888 0.3646
v 4.639 3.888 0.4417
v 4.639 6.112 0.3646
v 4.639 6.112 0.4417
v 5 5 0.0007276
v 5 5 0.4417
v 5.361 3.888 0.3646
v 5.361 3.888 0.4417
v 5.361 6.112 0.3646
v 5.361 6.112 0.4417
v 5.722 2.777 0.0007276
v 5.722 2.777 0.3646
v 5.722 7.223 0.0007276
v 5.722 7.223 0.3646
v 5.946 4.313 0.3646
v 5.946 4.313 0.4417
v 5.946 5.687 0.3646
v 5.946 5.687 0.4417
v 6.169 5 0.3646
v 6.169 5 0.4417
v 6.891 3.626 0.0007276
v 6.891 3.626 0.3646
v 6.891 6.374 0.0007276
v 6.891 6.374 0.3646
v 7.338 5 0.0007276
v 7.338 5 0.3646
vn 0 0 -1
vn 0.5878 0.809 0
vn 0.9511 0.309 0
vn 0 0 -1
vn 0.309 0.9511 0
vn 0 0 -1
vn -0.309 0.9511 0
vn 0 0 -1
vn -0.809 0.5878 0
vn 0 0 -1
vn -1 0 0
vn 0 0 -1
vn -0.809 -0.5878 0
vn 0 0 -1
vn -0.309 -0.9511 0
vn 0 0 -1
vn 0.309 -0.9511 0
vn 0 0 -1
vn 0.809 -0.5878 0
vn 0 0 -1
vn 1 -6.581e-07 0
vn 0.5878 0.809 0
vn 0.9511 0.309 0
vn 0 0 1
vn 0.309 0.9511 0
vn 0 0 1
vn -0.309 0.9511 0
vn 0 0 1
vn -0.809 0.5878 0
vn 0 0 1
vn -1 0 0
vn 0 0 1
vn -0.809 -0.5878 0
vn 0 0 1
vn -0.309 -0.9511 0
vn 0 0 1
vn 0.309 -0.9511 0
vn 0 0 1
vn 0.809 -0.5878 0
vn 0 0 1
vn 1 -6.581e-07 0
vn 0 0 1
vn 0 0 -1
vn 0.5575 0.4051 0.7246
vn 0.213 0.6554 0.7246
vn -0.213 0.6554 0.7246
vn -0.5575 0.4051 0.7246
vn -0.6892 -3.023e-07 0.7246
vn -0.5575 -0.4051 0.7246
vn -0.213 -0.6554 0.7246
vn 0.213 -0.6554 0.7246
vn 0.5575 -0.4051 0.7246
vn 0.6892 -3.023e-07 0.7246
vn 0.5575 0.4051 0.7246
vn 0.213 0.6554 0.7246
vn 0 0 1
vn -0.213 0.6554 0.7246
vn -0.5575 0.4051 0.7246
vn -0.6892 -3.023e-07 0.7246
vn -0.5575 -0.4051 0.7246
vn -0.213 -0.6554 0.7246
vn 0.213 -0.6554 0.7246
vn 0.5575 -0.4051 0.7246
vn 0.6892 -3.023e-07 0.7246
f 39//2 29//5 30//25 40//22
f 29//5 15//7 16//27 30//25
f 15//7 5//9 6//29 16//27
f 5//9 1//11 2//31 6//29
f 1//11 3//13 4//33 2//31
f 3//13 13//15 14//35 4//33
f 13//15 27//17 28//37 14//35
f 27//17 37//19 38//39 28//37
f 37//19 41//21 42//41 38//39
f 41//21 39//3 40//23 42//41
f 29//4 39//1 21//43
f 15//6 29//4 21//43
f 5//8 15//6 21//43
f 1//10 5//8 21//43
f 3//12 1//10 21//43
f 13//14 3//12 21//43
f 27//16 13//14 21//43
f 37//18 27//16 21//43
f 41//20 37//18 21//43
f 39//1 41//20 21//43
f 34//54 26//55 22//56
f 26//55 20//57 22//56
f 20//57 12//58 22//56
f 12//58 8//59 22//56
f 8//59 10//60 22//56
f 10//60 18//61 22//56
f 18//61 24//62 22//56
f 24//62 32//63 22//56
f 32//63 36//64 22//56
f 36//64 34//54 22//56
f 40//24 30//26 25//45 33//44
f 30//26 16//28 19//46 25//45
f 16//28 6//30 11//47 19//46
f 6//30 2//32 7//48 11//47
f 2//32 4//34 9//49 7//48
f 4//34 14//36 17//50 9//49
f 14//36 28//38 23//51 17//50
f 28//38 38//40 31//52 23//51
f 38//40 42//42 35//53 31//52
f 42//42 40//24 33//44 35//53
f 33//44 25//45 26//55 34//54
f 25//45 19//46 20//57 26//55
f 19//46 11//47 12//58 20//57
f 11//47 7//48 8//59 12//58
f 7//48 9//49 10//60 8//59
f 9//49 17//50 18//61 10//60
f 17//50 23//51 24//62 18//61
f 23//51 31//52 32//63 24//62
f 31//52 35//53 36//64 32//63
f 35//53 33//44 34//54 36//64
