# Rhino

o object_1
v 3.127 3.849 5.118
v 3.127 3.849 6.23
v 3.127 4.427 5.118
v 3.127 4.427 6.23
v 3.127 5.581 5.118
v 3.127 5.581 6.23
v 3.127 6.159 5.118
v 3.127 6.159 6.23
v 4.609 3.984 5.764
v 4.609 3.984 5.864
v 4.609 4.043 5.683
v 4.609 4.043 5.944
v 4.609 4.138 5.652
v 4.609 4.138 5.975
v 4.609 4.233 5.683
v 4.609 4.233 5.944
v 4.609 4.291 5.764
v 4.609 4.291 5.864
v 4.609 5.716 5.764
v 4.609 5.716 5.864
v 4.609 5.775 5.683
v 4.609 5.775 5.944
v 4.609 5.87 5.652
v 4.609 5.87 5.975
v 4.609 5.965 5.683
v 4.609 5.965 5.944
v 4.609 6.023 5.764
v 4.609 6.023 5.864
v 4.646 4 5.769
v 4.646 4 5.858
v 4.646 4.053 5.696
v 4.646 4.053 5.931
v 4.646 4.138 5.669
v 4.646 4.138 5.959
v 4.646 4.223 5.696
v 4.646 4.223 5.931
v 4.646 4.276 5.769
v 4.646 4.276 5.858
v 4.646 5.732 5.769
v 4.646 5.732 5.858
v 4.646 5.785 5.696
v 4.646 5.785 5.931
v 4.646 5.87 5.669
v 4.646 5.87 5.959
v 4.646 5.955 5.696
v 4.646 5.955 5.931
v 4.646 6.008 5.769
v 4.646 6.008 5.858
v 4.769 3.711 6.172
v 4.769 3.711 6.295
v 4.769 3.892 6.172
v 4.769 3.892 6.295
v 4.769 4.443 6.172
v 4.769 4.443 6.295
v 4.769 4.624 6.172
v 4.769 4.624 6.295
v 4.769 5.383 6.172
v 4.769 5.383 6.295
v 4.769 5.564 6.172
v 4.769 5.564 6.295
v 4.769 6.114 6.172
v 4.769 6.114 6.295
v 4.769 6.295 6.172
v 4.769 6.295 6.295
v 5.127 3.849 5.118
v 5.127 3.849 6.23
v 5.127 4.427 5.118
v 5.127 4.427 6.23
v 5.127 5.581 5.118
v 5.127 5.581 6.23
v 5.127 6.159 5.118
v 5.127 6.159 6.23
v 7.487 3.352 6.12
v 7.487 3.352 6.375
v 7.487 6.656 6.12
v 7.487 6.656 6.375
v 8.014 3.352 6.12
v 8.014 3.352 6.375
v 8.014 6.656 6.12
v 8.014 6.656 6.375
v 9.473 3.711 6.172
v 9.473 3.711 6.295
v 9.473 3.892 6.172
v 9.473 3.892 6.295
v 9.473 4.443 6.172
v 9.473 4.443 6.295
v 9.473 4.624 6.172
v 9.473 4.624 6.295
v 9.473 5.383 6.172
v 9.473 5.383 6.295
v 9.473 5.564 6.172
v 9.473 5.564 6.295
v 9.473 6.114 6.172
v 9.473 6.114 6.295
v 9.473 6.295 6.172
v 9.473 6.295 6.295
v 13.81 4 5.769
v 13.81 4 5.858
v 13.81 4.053 5.696
v 13.81 4.053 5.931
v 13.81 4.138 5.669
v 13.81 4.138 5.959
v 13.81 4.223 5.696
v 13.81 4.223 5.931
v 13.81 4.276 5.769
v 13.81 4.276 5.858
v 13.81 5.732 5.769
v 13.81 5.732 5.858
v 13.81 5.785 5.696
v 13.81 5.785 5.931
v 13.81 5.87 5.669
v 13.81 5.87 5.959
v 13.81 5.955 5.696
v 13.81 5.955 5.931
v 13.81 6.008 5.769
v 13.81 6.008 5.858
v 13.84 3.984 5.764
v 13.84 3.984 5.864
v 13.84 4.043 5.683
v 13.84 4.043 5.944
v 13.84 4.138 5.652
v 13.84 4.138 5.975
v 13.84 4.233 5.683
v 13.84 4.233 5.944
v 13.84 4.291 5.764
v 13.84 4.291 5.864
v 13.84 5.716 5.764
v 13.84 5.716 5.864
v 13.84 5.775 5.683
v 13.84 5.775 5.944
v 13.84 5.87 5.652
v 13.84 5.87 5.975
v 13.84 5.965 5.683
v 13.84 5.965 5.944
v 13.84 6.023 5.764
v 13.84 6.023 5.864
vn 0 -1 0
vn 0 -0.809 0.5878
vn -0.3885 -0.9214 0
vn -0.3886 -0.7454 0.5416
vn 0 -0.9511 -0.309
vn -0.4053 -0.8694 -0.2825
vn 0 -0.5878 -0.809
vn -0.4053 -0.5373 -0.7396
vn 0 -1.097e-07 -1
vn -0.4053 -3.109e-08 -0.9142
vn 0 0.5878 -0.809
vn -0.4053 0.5373 -0.7396
vn 0 0.9511 -0.309
vn -0.4053 0.8694 -0.2825
vn 0 0.9511 0.309
vn -0.4053 0.8694 0.2825
vn 0 0.5878 0.809
vn -0.4053 0.5373 0.7396
vn 0 -9.401e-08 1
vn -0.4053 -3.109e-08 0.9142
vn 0 -0.5878 0.809
vn -0.4053 -0.5373 0.7396
vn 0.1982 -0.9802 0
vn 0.1982 -0.793 0.5761
vn 0.208 -0.9303 -0.3023
vn 0.208 -0.5749 -0.7913
vn 0.208 -7.178e-08 -0.9781
vn 0.208 0.5749 -0.7913
vn 0.208 0.9303 -0.3023
vn 0.208 0.9303 0.3023
vn 0.208 0.5749 0.7913
vn 0.208 -6.381e-08 0.9781
vn 0.208 -0.5749 0.7913
vn 0.9802 0.1982 0
vn 0.9802 0.1604 -0.1165
vn 0.982 0.1796 0.05835
vn 0.982 0.111 0.1528
vn 0.982 -7.532e-08 0.1889
vn 0.982 -0.111 0.1528
vn 0.982 -0.1796 0.05835
vn 0.982 -0.1796 -0.05835
vn 0.982 -0.111 -0.1528
vn 0.982 -7.532e-08 -0.1889
vn 0.982 0.111 -0.1528
vn -0.9802 0.1982 0
vn -0.9802 0.1604 -0.1165
vn -0.982 0.1796 0.05836
vn -0.982 0.111 0.1528
vn -0.982 -7.532e-08 0.1889
vn -0.982 -0.111 0.1528
vn -0.982 -0.1796 0.05836
vn -0.982 -0.1796 -0.05836
vn -0.982 -0.111 -0.1528
vn -0.982 -7.532e-08 -0.1889
vn -0.982 0.111 -0.1528
vn 0.7071 -0.7071 0
vn 0 0 -1
vn 0.7071 0.7071 0
vn 0 0 -1
vn 0.5774 -0.5774 0.5774
vn 0.5774 0.5774 0.5774
vn -0.7071 0 0.7071
vn 0 -1 0
vn -0.7071 0 0.7071
vn 0 1 0
vn -0.7071 0 -0.7071
vn 0 -1 0
vn -0.7071 0 -0.7071
vn 0 1 0
vn 0.7071 -0.7071 0
vn 0 0 -1
vn 0.7071 0.7071 0
vn 0 0 -1
vn 0.5774 -0.5774 0.5774
vn 0.5774 0.5774 0.5774
vn -0.7071 0 0.7071
vn 0 -1 0
vn -0.7071 0 0.7071
vn 0 1 0
vn -0.7071 0 -0.7071
vn 0 -1 0
vn -0.7071 0 -0.7071
vn 0 1 0
vn 0.7071 -0.7071 0
vn 0 0 -1
vn 0.7071 0.7071 0
vn 0 0 -1
vn 0.5774 -0.5774 0.5774
vn 0.5774 0.5774 0.5774
vn -0.7071 0 0.7071
vn 0 -1 0
vn -0.7071 0 0.7071
vn 0 1 0
vn -0.7071 0 -0.7071
vn 0 -1 0
vn -0.7071 0 -0.7071
vn 0 1 0
vn 0 -1 0
vn 0 -0.809 0.5878
vn -0.3886 -0.9214 0
vn -0.3886 -0.7454 0.5416
vn 0 -0.9511 -0.309
vn -0.4054 -0.8694 -0.2825
vn 0 -0.5878 -0.809
vn -0.4054 -0.5373 -0.7396
vn 0 -3.384e-06 -1
vn -0.4053 -2.938e-06 -0.9142
vn 0 0.5878 -0.809
vn -0.4053 0.5373 -0.7396
vn 0 0.9511 -0.309
vn -0.4053 0.8694 -0.2825
vn 0 0.9511 0.309
vn -0.4053 0.8694 0.2825
vn 0 0.5878 0.809
vn -0.4053 0.5373 0.7396
vn 0 -3.4e-06 1
vn -0.4053 -2.922e-06 0.9142
vn 0 -0.5878 0.809
vn -0.4053 -0.5373 0.7396
vn 0.1982 -0.9802 0
vn 0.1982 -0.793 0.5761
vn 0.208 -0.9303 -0.3023
vn 0.208 -0.5749 -0.7913
vn 0.208 -3.23e-06 -0.9781
vn 0.208 0.5749 -0.7913
vn 0.208 0.9303 -0.3023
vn 0.208 0.9303 0.3023
vn 0.208 0.5749 0.7913
vn 0.208 -3.23e-06 0.9781
vn 0.208 -0.5749 0.7913
vn 0.9802 0.1982 0
vn 0.9802 0.1604 -0.1165
vn 0.982 0.1796 0.05836
vn 0.982 0.111 0.1528
vn 0.982 1.883e-07 0.1889
vn 0.982 -0.111 0.1528
vn 0.982 -0.1796 0.05835
vn 0.982 -0.1796 -0.05835
vn 0.982 -0.111 -0.1528
vn 0.982 2.26e-07 -0.1889
vn 0.982 0.111 -0.1528
vn -0.9802 0.1982 0
vn -0.9802 0.1604 -0.1165
vn -0.982 0.1796 0.05837
vn -0.982 0.111 0.1528
vn -0.982 1.883e-07 0.1889
vn -0.982 -0.111 0.1528
vn -0.982 -0.1796 0.05836
vn -0.982 -0.1796 -0.05836
vn -0.982 -0.111 -0.1528
vn -0.982 2.26e-07 -0.1889
vn -0.982 0.111 -0.1528
vn 0.7071 -0.7071 0
vn 0 0 -1
vn 0.7071 0.7071 0
vn 0 0 -1
vn 0.5774 -0.5774 0.5774
vn 0.5774 0.5774 0.5774
vn -0.7071 0 0.7071
vn 0 -1 0
vn -0.7071 0 0.7071
vn 0 1 0
vn -0.7071 0 -0.7071
vn 0 -1 0
vn -0.7071 0 -0.7071
vn 0 1 0
vn 0.7071 -0.7071 0
vn 0 0 -1
vn 0.7071 0.7071 0
vn 0 0 -1
vn 0.5774 -0.5774 0.5774
vn 0.5774 0.5774 0.5774
vn -0.7071 0 0.7071
vn 0 -1 0
vn -0.7071 0 0.7071
vn 0 1 0
vn -0.7071 0 -0.7071
vn 0 -1 0
vn -0.7071 0 -0.7071
vn 0 1 0
vn 0.7071 -0.7071 0
vn 0 0 -1
vn 0.7071 0.7071 0
vn 0 0 -1
vn 0.5774 -0.5774 0.5774
vn 0.5774 0.5774 0.5774
vn -0.7071 0 0.7071
vn 0 -1 0
vn -0.7071 0 0.7071
vn 0 1 0
vn -0.7071 0 -0.7071
vn 0 -1 0
vn -0.7071 0 -0.7071
vn 0 1 0
vn 0.7071 -0.7071 0
vn 0 0 -1
vn 0.7071 0.7071 0
vn 0 0 -1
vn 0.5774 -0.5774 0.5774
vn 0.5774 0.5774 0.5774
vn -0.7071 0 0.7071
vn 0 -1 0
vn -0.7071 0 0.7071
vn 0 1 0
vn -0.7071 0 -0.7071
vn 0 -1 0
vn -0.7071 0 -0.7071
vn 0 1 0
f 38//5 37//1 105//23 106//25
f 36//7 38//5 106//25 104//26
f 34//9 36//7 104//26 102//27
f 32//11 34//9 102//27 100//28
f 30//13 32//11 100//28 98//29
f 29//15 30//13 98//29 97//30
f 31//17 29//15 97//30 99//31
f 33//19 31//17 99//31 101//32
f 35//21 33//19 101//32 103//33
f 37//2 35//21 103//33 105//24
f 106//25 105//23 125//34 126//36
f 104//26 106//25 126//36 124//37
f 102//27 104//26 124//37 122//38
f 100//28 102//27 122//38 120//39
f 98//29 100//28 120//39 118//40
f 97//30 98//29 118//40 117//41
f 99//31 97//30 117//41 119//42
f 101//32 99//31 119//42 121//43
f 103//33 101//32 121//43 123//44
f 105//24 103//33 123//44 125//35
f 126//36 125//34 17//45 18//47
f 124//37 126//36 18//47 16//48
f 122//38 124//37 16//48 14//49
f 120//39 122//38 14//49 12//50
f 118//40 120//39 12//50 10//51
f 117//41 118//40 10//51 9//52
f 119//42 117//41 9//52 11//53
f 121//43 119//42 11//53 13//54
f 123//44 121//43 13//54 15//55
f 125//35 123//44 15//55 17//46
f 18//47 17//45 37//3 38//6
f 16//48 18//47 38//6 36//8
f 14//49 16//48 36//8 34//10
f 12//50 14//49 34//10 32//12
f 10//51 12//50 32//12 30//14
f 9//52 10//51 30//14 29//16
f 11//53 9//52 29//16 31//18
f 13//54 11//53 31//18 33//20
f 15//55 13//54 33//20 35//22
f 17//46 15//55 35//22 37//4
f 85//56 87//58 88//61 86//60
f 86//60 88//61 56//64 54//62
f 54//62 56//64 55//68 53//66
f 53//66 55//68 87//59 85//57
f 87//58 55//69 56//65 88//61
f 53//67 85//56 86//60 54//63
f 69//70 71//72 72//75 70//74
f 70//74 72//75 8//78 6//76
f 6//76 8//78 7//82 5//80
f 5//80 7//82 71//73 69//71
f 71//72 7//83 8//79 72//75
f 5//81 69//70 70//74 6//77
f 77//84 79//86 80//89 78//88
f 78//88 80//89 76//92 74//90
f 74//90 76//92 75//96 73//94
f 73//94 75//96 79//87 77//85
f 79//86 75//97 76//93 80//89
f 73//95 77//84 78//88 74//91
f 48//102 47//98 115//120 116//122
f 46//104 48//102 116//122 114//123
f 44//106 46//104 114//123 112//124
f 42//108 44//106 112//124 110//125
f 40//110 42//108 110//125 108//126
f 39//112 40//110 108//126 107//127
f 41//114 39//112 107//127 109//128
f 43//116 41//114 109//128 111//129
f 45//118 43//116 111//129 113//130
f 47//99 45//118 113//130 115//121
f 116//122 115//120 135//131 136//133
f 114//123 116//122 136//133 134//134
f 112//124 114//123 134//134 132//135
f 110//125 112//124 132//135 130//136
f 108//126 110//125 130//136 128//137
f 107//127 108//126 128//137 127//138
f 109//128 107//127 127//138 129//139
f 111//129 109//128 129//139 131//140
f 113//130 111//129 131//140 133//141
f 115//121 113//130 133//141 135//132
f 136//133 135//131 27//142 28//144
f 134//134 136//133 28//144 26//145
f 132//135 134//134 26//145 24//146
f 130//136 132//135 24//146 22//147
f 128//137 130//136 22//147 20//148
f 127//138 128//137 20//148 19//149
f 129//139 127//138 19//149 21//150
f 131//140 129//139 21//150 23//151
f 133//141 131//140 23//151 25//152
f 135//132 133//141 25//152 27//143
f 28//144 27//142 47//100 48//103
f 26//145 28//144 48//103 46//105
f 24//146 26//145 46//105 44//107
f 22//147 24//146 44//107 42//109
f 20//148 22//147 42//109 40//111
f 19//149 20//148 40//111 39//113
f 21//150 19//149 39//113 41//115
f 23//151 21//150 41//115 43//117
f 25//152 23//151 43//117 45//119
f 27//143 25//152 45//119 47//101
f 81//153 83//155 84//158 82//157
f 82//157 84//158 52//161 50//159
f 50//159 52//161 51//165 49//163
f 49//163 51//165 83//156 81//154
f 83//155 51//166 52//162 84//158
f 49//164 81//153 82//157 50//160
f 65//167 67//169 68//172 66//171
f 66//171 68//172 4//175 2//173
f 2//173 4//175 3//179 1//177
f 1//177 3//179 67//170 65//168
f 67//169 3//180 4//176 68//172
f 1//178 65//167 66//171 2//174
f 89//181 91//183 92//186 90//185
f 90//185 92//186 60//189 58//187
f 58//187 60//189 59//193 57//191
f 57//191 59//193 91//184 89//182
f 91//183 59//194 60//190 92//186
f 57//192 89//181 90//185 58//188
f 93//195 95//197 96//200 94//199
f 94//199 96//200 64//203 62//201
f 62//201 64//203 63//207 61//205
f 61//205 63//207 95//198 93//196
f 95//197 63//208 64//204 96//200
f 61//206 93//195 94//199 62//202
