# Blender v2.63 (sub 13) OBJ File: '46cm_retake_output_Pitch.blend'
# www.blender.org
mtllib 46cm_retake_output_Pitch.mtl
o Cylinder.002_Cylinder.012
v 18.784979 15.571419 3.161384
v 18.492699 16.421310 3.161384
v 18.492699 16.172382 1.628847
v 18.492699 15.571419 1.379920
v 18.492699 14.970456 1.628847
v 18.492699 14.721530 3.161384
v 18.492699 14.970456 4.380926
v 18.492699 15.571419 4.629853
v 18.492699 16.172382 4.380926
v 22.911127 16.421310 3.161355
v 23.084944 16.172382 1.948207
v 23.288277 16.275723 3.161386
v 23.288277 16.069439 2.663369
v 23.120249 15.571419 1.701796
v 23.288277 15.571419 2.457083
v 23.084944 14.970456 1.948207
v 23.288277 15.073402 2.663369
v 22.911127 14.721530 3.161355
v 23.288277 14.867117 3.161386
v 22.738159 14.970456 4.368567
v 23.288277 15.073402 3.659402
v 22.702854 15.571419 4.614979
v 23.288277 15.571419 3.865686
v 22.738161 16.172382 4.368567
v 23.288277 16.069439 3.659401
v 39.771622 16.220802 3.161386
v 39.762657 16.079134 3.161386
v 39.762657 15.930427 2.802377
v 39.771622 16.030603 2.702204
v 39.762657 15.571419 2.653670
v 39.771622 15.571420 2.512003
v 39.762657 15.212410 2.802376
v 39.771622 15.112236 2.702203
v 39.762657 15.063703 3.161386
v 39.771622 14.922037 3.161386
v 39.762657 15.212410 3.520395
v 39.771622 15.112236 3.620568
v 39.762657 15.571419 3.669101
v 39.771622 15.571420 3.810767
v 39.762657 15.930429 3.520394
v 39.771622 16.030603 3.620567
v 23.397751 15.930429 3.520394
v 23.397751 16.079134 3.161386
v 23.397751 15.571419 3.669101
v 23.397751 15.212410 3.520395
v 23.397751 15.063703 3.161386
v 23.397751 15.212410 2.802376
v 23.397751 15.571419 2.653670
v 23.397751 15.930427 2.802377
v 23.002529 15.571419 3.161386
v 26.592634 16.275723 3.161386
v 26.592634 16.069439 2.663369
v 26.592634 15.571419 2.457083
v 26.592634 15.073402 2.663369
v 26.592634 14.867117 3.161386
v 26.592634 15.073402 3.659402
v 26.592634 15.571419 3.865686
v 26.592634 16.069439 3.659401
v 26.855003 16.220802 3.161386
v 26.855003 16.030603 2.702203
v 26.855003 15.571419 2.512003
v 26.855003 15.112236 2.702203
v 26.855003 14.922037 3.161386
v 26.855003 15.112236 3.620568
v 26.855003 15.571419 3.810767
v 26.855003 16.030603 3.620567
v 18.784979 19.820868 3.161384
v 18.492699 20.670757 3.161384
v 18.492699 20.421829 1.628847
v 18.492699 19.820868 1.379920
v 18.492699 19.219904 1.628847
v 18.492699 18.970978 3.161384
v 18.492699 19.219904 4.380926
v 18.492699 19.820868 4.629853
v 18.492699 20.421829 4.380926
v 22.911127 20.670757 3.161355
v 23.084944 20.421829 1.948207
v 23.288277 20.525171 3.161386
v 23.288277 20.318886 2.663369
v 23.120249 19.820868 1.701796
v 23.288277 19.820868 2.457083
v 23.084944 19.219904 1.948207
v 23.288277 19.322851 2.663369
v 22.911127 18.970978 3.161355
v 23.288277 19.116566 3.161386
v 22.738159 19.219904 4.368567
v 23.288277 19.322851 3.659402
v 22.702854 19.820868 4.614979
v 23.288277 19.820868 3.865686
v 22.738161 20.421829 4.368567
v 23.288277 20.318886 3.659401
v 39.771622 20.470249 3.161386
v 39.762657 20.328583 3.161386
v 39.762657 20.179876 2.802377
v 39.771622 20.280050 2.702204
v 39.762657 19.820868 2.653670
v 39.771622 19.820868 2.512003
v 39.762657 19.461859 2.802376
v 39.771622 19.361685 2.702203
v 39.762657 19.313150 3.161386
v 39.771622 19.171486 3.161386
v 39.762657 19.461859 3.520395
v 39.771622 19.361685 3.620568
v 39.762657 19.820868 3.669101
v 39.771622 19.820868 3.810767
v 39.762657 20.179878 3.520394
v 39.771622 20.280050 3.620567
v 23.397751 20.179878 3.520394
v 23.397751 20.328583 3.161386
v 23.397751 19.820868 3.669101
v 23.397751 19.461859 3.520395
v 23.397751 19.313150 3.161386
v 23.397751 19.461859 2.802376
v 23.397751 19.820868 2.653670
v 23.397751 20.179876 2.802377
v 23.002529 19.820868 3.161386
v 26.592634 20.525171 3.161386
v 26.592634 20.318886 2.663369
v 26.592634 19.820868 2.457083
v 26.592634 19.322851 2.663369
v 26.592634 19.116566 3.161386
v 26.592634 19.322851 3.659402
v 26.592634 19.820868 3.865686
v 26.592634 20.318886 3.659401
v 26.855003 20.470249 3.161386
v 26.855003 20.280050 2.702203
v 26.855003 19.820868 2.512003
v 26.855003 19.361685 2.702203
v 26.855003 19.171486 3.161386
v 26.855003 19.361685 3.620568
v 26.855003 19.820868 3.810767
v 26.855003 20.280050 3.620567
v 18.784979 24.070316 3.161384
v 18.492699 24.920206 3.161384
v 18.492699 24.671278 1.628847
v 18.492699 24.070316 1.379920
v 18.492699 23.469353 1.628847
v 18.492699 23.220427 3.161384
v 18.492699 23.469353 4.380926
v 18.492699 24.070316 4.629853
v 18.492699 24.671278 4.380926
v 22.911127 24.920206 3.161355
v 23.084944 24.671278 1.948207
v 23.288277 24.774618 3.161386
v 23.288277 24.568335 2.663369
v 23.120249 24.070316 1.701796
v 23.288277 24.070316 2.457083
v 23.084944 23.469353 1.948207
v 23.288277 23.572300 2.663369
v 22.911127 23.220427 3.161355
v 23.288277 23.366013 3.161386
v 22.738159 23.469353 4.368567
v 23.288277 23.572300 3.659402
v 22.702854 24.070316 4.614979
v 23.288277 24.070316 3.865686
v 22.738161 24.671278 4.368567
v 23.288277 24.568335 3.659401
v 39.771622 24.719698 3.161386
v 39.762657 24.578030 3.161386
v 39.762657 24.429323 2.802377
v 39.771622 24.529499 2.702204
v 39.762657 24.070316 2.653670
v 39.771622 24.070316 2.512003
v 39.762657 23.711306 2.802376
v 39.771622 23.611134 2.702203
v 39.762657 23.562599 3.161386
v 39.771622 23.420933 3.161386
v 39.762657 23.711306 3.520395
v 39.771622 23.611134 3.620568
v 39.762657 24.070316 3.669101
v 39.771622 24.070316 3.810767
v 39.762657 24.429325 3.520394
v 39.771622 24.529499 3.620567
v 23.397751 24.429325 3.520394
v 23.397751 24.578030 3.161386
v 23.397751 24.070316 3.669101
v 23.397751 23.711306 3.520395
v 23.397751 23.562599 3.161386
v 23.397751 23.711306 2.802376
v 23.397751 24.070316 2.653670
v 23.397751 24.429323 2.802377
v 23.002529 24.070316 3.161386
v 26.592634 24.774618 3.161386
v 26.592634 24.568335 2.663369
v 26.592634 24.070316 2.457083
v 26.592634 23.572300 2.663369
v 26.592634 23.366013 3.161386
v 26.592634 23.572300 3.659402
v 26.592634 24.070316 3.865686
v 26.592634 24.568335 3.659401
v 26.855003 24.719698 3.161386
v 26.855003 24.529499 2.702203
v 26.855003 24.070316 2.512003
v 26.855003 23.611134 2.702203
v 26.855003 23.420933 3.161386
v 26.855003 23.611134 3.620568
v 26.855003 24.070316 3.810767
v 26.855003 24.529499 3.620567
vn -0.944326 -0.324756 0.052750
vn -0.984595 -0.066912 0.161540
vn -0.984595 0.066912 0.161540
vn -0.944325 0.324757 0.052750
vn -0.943565 0.324496 -0.066234
vn -0.977571 0.080595 -0.194573
vn -0.977571 -0.080595 -0.194573
vn -0.943566 -0.324495 -0.066235
vn 0.006309 0.984006 -0.178024
vn 0.550295 0.819103 -0.162004
vn 0.064125 0.381856 -0.921995
vn 0.963723 0.127539 -0.234459
vn 0.064125 -0.381856 -0.921994
vn 0.963723 -0.127539 -0.234459
vn 0.006309 -0.984006 -0.178022
vn 0.550297 -0.819102 -0.162003
vn 0.000287 -0.979594 0.200986
vn 0.438343 -0.856326 0.273059
vn 0.002978 -0.380955 0.924589
vn 0.777459 -0.218031 0.589932
vn 0.002978 0.380954 0.924589
vn 0.777460 0.218029 0.589932
vn 0.438342 0.856326 0.273059
vn 0.000287 0.979594 0.200987
vn 0.997663 -0.063130 0.026149
vn 0.997663 -0.026150 0.063131
vn 0.997663 0.026150 0.063131
vn 0.997663 0.063131 0.026150
vn 0.997663 0.063131 -0.026150
vn 0.997663 0.026150 -0.063131
vn 0.997663 -0.026150 -0.063131
vn 0.997663 -0.063131 -0.026150
vn 0.000000 -0.923880 -0.382682
vn 0.000000 -0.382683 -0.923880
vn 0.000000 0.382683 -0.923880
vn 0.000000 0.923879 -0.382685
vn 0.000000 0.923879 0.382685
vn 0.000000 0.382683 0.923880
vn 0.000000 -0.382686 0.923879
vn -0.000000 -0.923879 0.382686
vn 0.764737 -0.595296 -0.246578
vn 0.764737 -0.246579 -0.595295
vn 0.764737 0.246579 -0.595295
vn 0.764737 0.595294 -0.246580
vn 0.764737 0.595294 0.246580
vn 0.764737 0.246579 0.595295
vn 0.764737 -0.246581 0.595295
vn 0.764736 -0.595295 0.246581
vn 0.000000 0.923881 -0.382681
vn 0.000000 0.382681 -0.923880
vn 0.000000 -0.382684 -0.923879
vn 0.000000 -0.923880 -0.382684
vn 0.000000 -0.923880 0.382684
vn 0.000000 -0.382682 0.923880
vn 0.000000 0.382681 0.923881
vn 0.000000 0.923880 0.382681
vn 0.189874 0.907074 -0.375720
vn 0.000000 0.923880 -0.382682
vn 0.189872 0.375720 -0.907074
vn 0.189871 -0.375722 -0.907073
vn 0.189871 -0.907074 -0.375722
vn 0.189871 -0.907073 0.375722
vn 0.000000 -0.923880 0.382682
vn 0.189870 -0.375721 0.907074
vn 0.000000 -0.382683 0.923880
vn 0.189872 0.375721 0.907074
vn -0.000000 0.923880 0.382683
vn 0.189874 0.907073 0.375721
vn -0.944325 -0.324757 0.052750
vn -0.944325 0.324757 0.052749
vn -0.943565 -0.324496 -0.066235
vn 0.550294 0.819104 -0.162005
vn 0.064125 0.381857 -0.921994
vn 0.064125 -0.381856 -0.921995
vn 0.550298 -0.819101 -0.162003
vn 0.438345 -0.856325 0.273059
vn 0.002978 -0.380954 0.924589
vn 0.002978 0.380955 0.924589
vn 0.777460 0.218030 0.589932
vn 0.438341 0.856327 0.273060
vn 0.997663 -0.063131 0.026150
vn 0.997663 0.063132 0.026150
vn 0.997663 0.063132 -0.026150
vn 0.997663 -0.026150 -0.063132
vn 0.997662 -0.063132 -0.026150
vn 0.000000 -0.923881 -0.382680
vn 0.000000 -0.382682 -0.923880
vn 0.000000 0.923878 -0.382687
vn 0.000000 0.923878 0.382687
vn 0.000000 -0.382685 0.923879
vn -0.000000 -0.923880 0.382683
vn 0.764737 -0.595296 -0.246577
vn 0.764737 -0.246578 -0.595295
vn 0.764737 0.595294 -0.246582
vn 0.764737 0.595294 0.246581
vn 0.764737 -0.246580 0.595295
vn 0.764737 -0.595295 0.246580
vn 0.000000 0.923880 -0.382684
vn 0.000000 0.382682 0.923880
vn 0.000000 0.923879 0.382684
vn 0.189877 0.907072 -0.375721
vn 0.189872 0.375721 -0.907073
vn 0.000000 0.382684 -0.923879
vn 0.189872 0.375722 0.907073
vn 0.000000 0.382684 0.923879
vn 0.189877 0.907072 0.375722
vn 0.550297 -0.819102 -0.162004
vn 0.438344 -0.856325 0.273060
vn 0.997663 0.026150 0.063132
vn 0.997663 0.026150 -0.063132
vn 0.000000 0.382681 -0.923881
vn 0.000000 0.923880 -0.382683
vn 0.000000 -0.382687 0.923878
vn 0.764736 -0.595297 -0.246577
vn 0.764737 -0.246580 -0.595295
vn 0.764737 0.246578 -0.595296
vn 0.764738 0.595294 -0.246579
vn 0.764738 0.595294 0.246578
vn 0.764737 0.246578 0.595295
vn 0.764735 -0.595297 0.246580
vn 0.000000 -0.923878 -0.382687
vn 0.000000 -0.923878 0.382687
vn 0.189871 -0.907072 -0.375725
vn 0.000000 -0.923879 -0.382685
vn 0.189871 -0.907072 0.375725
usemtl 
s off
f 1//1 2//1 3//1
f 1//2 3//2 4//2
f 1//3 4//3 5//3
f 1//4 5//4 6//4
f 1//5 6//5 7//5
f 1//6 7//6 8//6
f 1//7 8//7 9//7
f 2//8 1//8 9//8
f 2//9 10//9 11//9 3//9
f 10//10 12//10 13//10 11//10
f 3//11 11//11 14//11 4//11
f 11//12 13//12 15//12 14//12
f 4//13 14//13 16//13 5//13
f 14//14 15//14 17//14 16//14
f 5//15 16//15 18//15 6//15
f 16//16 17//16 19//16 18//16
f 6//17 18//17 20//17 7//17
f 18//18 19//18 21//18 20//18
f 7//19 20//19 22//19 8//19
f 20//20 21//20 23//20 22//20
f 8//21 22//21 24//21 9//21
f 22//22 23//22 25//22 24//22
f 12//23 10//23 24//23 25//23
f 10//24 2//24 9//24 24//24
f 26//25 27//25 28//25 29//25
f 29//26 28//26 30//26 31//26
f 31//27 30//27 32//27 33//27
f 33//28 32//28 34//28 35//28
f 35//29 34//29 36//29 37//29
f 37//30 36//30 38//30 39//30
f 39//31 38//31 40//31 41//31
f 41//32 40//32 27//32 26//32
f 27//33 40//33 42//33 43//33
f 40//34 38//34 44//34 42//34
f 38//35 36//35 45//35 44//35
f 36//36 34//36 46//36 45//36
f 34//37 32//37 47//37 46//37
f 32//38 30//38 48//38 47//38
f 30//39 28//39 49//39 48//39
f 28//40 27//40 43//40 49//40
f 42//41 50//41 43//41
f 44//42 50//42 42//42
f 45//43 50//43 44//43
f 46//44 50//44 45//44
f 47//45 50//45 46//45
f 48//46 50//46 47//46
f 49//47 50//47 48//47
f 43//48 50//48 49//48
f 12//49 51//49 52//49 13//49
f 13//50 52//50 53//50 15//50
f 15//51 53//51 54//51 17//51
f 17//52 54//52 55//52 19//52
f 19//53 55//53 56//53 21//53
f 21//54 56//54 57//54 23//54
f 23//55 57//55 58//55 25//55
f 51//56 12//56 25//56 58//56
f 51//57 59//57 60//57 52//57
f 59//58 26//58 29//58 60//58
f 52//59 60//59 61//59 53//59
f 60//35 29//35 31//35 61//35
f 53//60 61//60 62//60 54//60
f 61//34 31//34 33//34 62//34
f 54//61 62//61 63//61 55//61
f 62//33 33//33 35//33 63//33
f 55//62 63//62 64//62 56//62
f 63//63 35//63 37//63 64//63
f 56//64 64//64 65//64 57//64
f 64//65 37//65 39//65 65//65
f 57//66 65//66 66//66 58//66
f 65//38 39//38 41//38 66//38
f 26//67 59//67 66//67 41//67
f 59//68 51//68 58//68 66//68
f 67//69 68//69 69//69
f 67//2 69//2 70//2
f 67//3 70//3 71//3
f 67//70 71//70 72//70
f 67//5 72//5 73//5
f 67//6 73//6 74//6
f 67//7 74//7 75//7
f 68//71 67//71 75//71
f 68//9 76//9 77//9 69//9
f 76//72 78//72 79//72 77//72
f 69//73 77//73 80//73 70//73
f 77//12 79//12 81//12 80//12
f 70//74 80//74 82//74 71//74
f 80//14 81//14 83//14 82//14
f 71//15 82//15 84//15 72//15
f 82//75 83//75 85//75 84//75
f 72//17 84//17 86//17 73//17
f 84//76 85//76 87//76 86//76
f 73//77 86//77 88//77 74//77
f 86//20 87//20 89//20 88//20
f 74//78 88//78 90//78 75//78
f 88//79 89//79 91//79 90//79
f 78//80 76//80 90//80 91//80
f 76//24 68//24 75//24 90//24
f 92//81 93//81 94//81 95//81
f 95//26 94//26 96//26 97//26
f 97//27 96//27 98//27 99//27
f 99//82 98//82 100//82 101//82
f 101//83 100//83 102//83 103//83
f 103//30 102//30 104//30 105//30
f 105//84 104//84 106//84 107//84
f 107//85 106//85 93//85 92//85
f 93//86 106//86 108//86 109//86
f 106//87 104//87 110//87 108//87
f 104//35 102//35 111//35 110//35
f 102//88 100//88 112//88 111//88
f 100//89 98//89 113//89 112//89
f 98//38 96//38 114//38 113//38
f 96//90 94//90 115//90 114//90
f 94//91 93//91 109//91 115//91
f 108//92 116//92 109//92
f 110//93 116//93 108//93
f 111//43 116//43 110//43
f 112//94 116//94 111//94
f 113//95 116//95 112//95
f 114//46 116//46 113//46
f 115//96 116//96 114//96
f 109//97 116//97 115//97
f 78//98 117//98 118//98 79//98
f 79//35 118//35 119//35 81//35
f 81//51 119//51 120//51 83//51
f 83//52 120//52 121//52 85//52
f 85//53 121//53 122//53 87//53
f 87//54 122//54 123//54 89//54
f 89//99 123//99 124//99 91//99
f 117//100 78//100 91//100 124//100
f 117//101 125//101 126//101 118//101
f 125//58 92//58 95//58 126//58
f 118//102 126//102 127//102 119//102
f 126//103 95//103 97//103 127//103
f 119//60 127//60 128//60 120//60
f 127//34 97//34 99//34 128//34
f 120//61 128//61 129//61 121//61
f 128//33 99//33 101//33 129//33
f 121//62 129//62 130//62 122//62
f 129//63 101//63 103//63 130//63
f 122//64 130//64 131//64 123//64
f 130//65 103//65 105//65 131//65
f 123//104 131//104 132//104 124//104
f 131//105 105//105 107//105 132//105
f 92//67 125//67 132//67 107//67
f 125//106 117//106 124//106 132//106
f 133//69 134//69 135//69
f 133//2 135//2 136//2
f 133//3 136//3 137//3
f 133//70 137//70 138//70
f 133//5 138//5 139//5
f 133//6 139//6 140//6
f 133//7 140//7 141//7
f 134//71 133//71 141//71
f 134//9 142//9 143//9 135//9
f 142//10 144//10 145//10 143//10
f 135//73 143//73 146//73 136//73
f 143//12 145//12 147//12 146//12
f 136//74 146//74 148//74 137//74
f 146//14 147//14 149//14 148//14
f 137//15 148//15 150//15 138//15
f 148//107 149//107 151//107 150//107
f 138//17 150//17 152//17 139//17
f 150//108 151//108 153//108 152//108
f 139//77 152//77 154//77 140//77
f 152//20 153//20 155//20 154//20
f 140//78 154//78 156//78 141//78
f 154//79 155//79 157//79 156//79
f 144//23 142//23 156//23 157//23
f 142//24 134//24 141//24 156//24
f 158//25 159//25 160//25 161//25
f 161//26 160//26 162//26 163//26
f 163//109 162//109 164//109 165//109
f 165//82 164//82 166//82 167//82
f 167//83 166//83 168//83 169//83
f 169//110 168//110 170//110 171//110
f 171//31 170//31 172//31 173//31
f 173//32 172//32 159//32 158//32
f 159//86 172//86 174//86 175//86
f 172//51 170//51 176//51 174//51
f 170//111 168//111 177//111 176//111
f 168//112 166//112 178//112 177//112
f 166//67 164//67 179//67 178//67
f 164//55 162//55 180//55 179//55
f 162//113 160//113 181//113 180//113
f 160//91 159//91 175//91 181//91
f 174//114 182//114 175//114
f 176//115 182//115 174//115
f 177//116 182//116 176//116
f 178//117 182//117 177//117
f 179//118 182//118 178//118
f 180//119 182//119 179//119
f 181//47 182//47 180//47
f 175//120 182//120 181//120
f 144//49 183//49 184//49 145//49
f 145//35 184//35 185//35 147//35
f 147//51 185//51 186//51 149//51
f 149//121 186//121 187//121 151//121
f 151//122 187//122 188//122 153//122
f 153//54 188//54 189//54 155//54
f 155//99 189//99 190//99 157//99
f 183//56 144//56 157//56 190//56
f 183//57 191//57 192//57 184//57
f 191//58 158//58 161//58 192//58
f 184//102 192//102 193//102 185//102
f 192//103 161//103 163//103 193//103
f 185//60 193//60 194//60 186//60
f 193//34 163//34 165//34 194//34
f 186//123 194//123 195//123 187//123
f 194//124 165//124 167//124 195//124
f 187//125 195//125 196//125 188//125
f 195//40 167//40 169//40 196//40
f 188//64 196//64 197//64 189//64
f 196//65 169//65 171//65 197//65
f 189//104 197//104 198//104 190//104
f 197//105 171//105 173//105 198//105
f 158//67 191//67 198//67 173//67
f 191//68 183//68 190//68 198//68
