# This file uses centimeters as units for non-parametric coordinates.

mtllib GunYamatoYaw.mtl
g default
v 0.627834 17.053886 3.052553
v 0.627834 8.662655 3.052553
v 0.627834 8.662655 4.346996
v 0.627834 17.053886 4.346996
v 4.285717 17.053886 4.346996
v 4.285717 8.662655 4.346996
v 4.285717 8.662655 3.052553
v 4.285717 17.053886 3.052553
v 0.389320 22.581861 4.431401
v 4.524230 22.581861 4.431401
v 4.524230 22.581861 2.968149
v 0.389320 22.581861 2.968149
v 4.524230 3.134681 4.431401
v 0.389320 3.134681 4.431401
v 0.389320 3.134681 2.968149
v 4.524230 3.134681 2.968149
v 12.973471 12.545698 1.106735
v 18.349125 20.968439 1.106735
v 20.906418 18.566000 1.106735
v 20.985847 6.575489 1.106735
v 18.409000 4.147761 1.106735
v 14.168832 4.131760 1.106735
v 5.300356 6.746857 1.106735
v 5.300356 18.284670 1.106735
v 14.108958 20.934839 1.106735
v 16.525509 20.533667 5.118721
v 18.743607 18.566000 4.705798
v 18.712616 6.575489 4.664758
v 16.589176 4.584132 5.118721
v 14.108588 4.608299 5.188182
v 5.300356 6.473671 6.021712
v 0.445506 6.473671 6.021712
v 0.445506 6.746857 1.106735
v 5.300356 18.554068 6.021712
v 14.044929 20.456732 5.188182
v 16.229515 19.501200 5.410429
v 18.201401 18.671537 5.292016
v 12.955555 12.651228 5.607031
v 18.224159 6.681029 5.290649
v 15.451350 5.824054 5.457158
v 14.256963 5.845951 5.528881
v 6.140725 7.432524 6.016264
v 6.140725 17.814924 6.016264
v 0.653524 7.432524 6.191765
v 14.202035 19.433737 5.532179
v 0.653524 17.814924 6.191765
v 0.445506 18.554068 6.021712
v 0.445506 18.284670 1.106735
v -1.520224 6.746857 1.106735
v -1.520224 18.284670 1.106735
vn -1.000000 0.000000 0.000000
vn -1.000000 0.000000 0.000000
vn -1.000000 0.000000 0.000000
vn -1.000000 0.000000 0.000000
vn 1.000000 0.000000 0.000000
vn 1.000000 0.000000 0.000000
vn 1.000000 0.000000 0.000000
vn 1.000000 0.000000 0.000000
vn 0.000000 0.000000 -1.000000
vn 0.000000 0.000000 -1.000000
vn 0.000000 0.000000 -1.000000
vn 0.000000 0.000000 -1.000000
vn 0.000000 0.000000 1.000000
vn 0.000000 0.000000 1.000000
vn 0.000000 0.000000 1.000000
vn 0.000000 0.000000 1.000000
vn 0.000000 1.000000 0.000000
vn 0.000000 1.000000 0.000000
vn 0.000000 1.000000 0.000000
vn 0.000000 1.000000 0.000000
vn 0.000000 -0.015267 0.999883
vn 0.000000 -0.015267 0.999883
vn 0.000000 -0.015267 0.999883
vn 0.000000 -0.015267 0.999883
vn 0.999070 -0.043107 0.000000
vn 0.999070 -0.043107 0.000000
vn 0.999070 -0.043107 0.000000
vn 0.999070 -0.043107 0.000000
vn 0.000000 -0.015267 -0.999883
vn 0.000000 -0.015267 -0.999883
vn 0.000000 -0.015267 -0.999883
vn 0.000000 -0.015267 -0.999883
vn -0.999070 -0.043107 0.000000
vn -0.999070 -0.043107 0.000000
vn -0.999070 -0.043107 0.000000
vn -0.999070 -0.043107 0.000000
vn 0.000000 -1.000000 0.000000
vn 0.000000 -1.000000 0.000000
vn 0.000000 -1.000000 0.000000
vn 0.000000 -1.000000 0.000000
vn 0.000000 0.015267 0.999883
vn 0.000000 0.015267 0.999883
vn 0.000000 0.015267 0.999883
vn 0.000000 0.015267 0.999883
vn -0.999070 0.043107 0.000000
vn -0.999070 0.043107 0.000000
vn -0.999070 0.043107 0.000000
vn -0.999070 0.043107 0.000000
vn 0.000000 0.015267 -0.999883
vn 0.000000 0.015267 -0.999883
vn 0.000000 0.015267 -0.999883
vn 0.000000 0.015267 -0.999883
vn 0.999070 0.043107 0.000000
vn 0.999070 0.043107 0.000000
vn 0.999070 0.043107 0.000000
vn 0.999070 0.043107 0.000000
vn 0.000000 0.000000 -1.000000
vn 0.000000 0.000000 -1.000000
vn 0.000000 0.000000 -1.000000
vn 0.000000 0.000000 -1.000000
vn 0.000000 0.000000 -1.000000
vn 0.000000 0.000000 -1.000000
vn 0.000000 0.000000 -1.000000
vn 0.000000 0.000000 -1.000000
vn 0.000000 0.000000 -1.000000
vn 0.000000 0.000000 -1.000000
vn 0.000000 0.000000 -1.000000
vn 0.000000 0.000000 -1.000000
vn 0.000000 0.000000 -1.000000
vn 0.000000 0.000000 -1.000000
vn 0.000000 0.000000 -1.000000
vn 0.000000 0.000000 -1.000000
vn 0.000000 0.000000 -1.000000
vn 0.000000 0.000000 -1.000000
vn 0.000000 0.000000 -1.000000
vn 0.000000 0.000000 -1.000000
vn 0.000000 0.000000 -1.000000
vn 0.000000 0.000000 -1.000000
vn 0.000000 0.000000 -1.000000
vn 0.000000 0.000000 -1.000000
vn 0.643269 0.667488 0.375053
vn 0.643269 0.667488 0.375053
vn 0.643269 0.667488 0.375053
vn 0.643269 0.667488 0.375053
vn 0.849974 0.000815 0.526823
vn 0.849974 0.000815 0.526823
vn 0.849974 0.000815 0.526823
vn 0.849974 0.000815 0.526823
vn 0.650604 -0.652006 0.389362
vn 0.650604 -0.652006 0.389362
vn 0.650604 -0.652006 0.389362
vn 0.650604 -0.652006 0.389362
vn -0.000049 -0.993700 0.112074
vn -0.000049 -0.993700 0.112074
vn -0.000049 -0.993700 0.112074
vn -0.000049 -0.993700 0.112074
vn -0.244749 -0.969375 0.020273
vn -0.244749 -0.969375 0.020273
vn -0.244749 -0.969375 0.020273
vn -0.244749 -0.969375 0.020273
vn 0.000000 -0.998459 -0.055497
vn 0.000000 -0.998459 -0.055497
vn 0.000000 -0.998459 -0.055497
vn 0.000000 -0.998459 -0.055497
vn -0.250092 0.968001 0.020677
vn -0.250092 0.968001 0.020677
vn -0.250092 0.968001 0.020677
vn -0.250092 0.968001 0.020677
vn -0.015226 0.993973 0.108562
vn -0.015226 0.993973 0.108562
vn -0.015226 0.993973 0.108562
vn -0.015226 0.993973 0.108562
vn 0.387336 0.424748 0.818266
vn 0.387336 0.424748 0.818266
vn 0.387336 0.424748 0.818266
vn 0.387336 0.424748 0.818266
vn 0.059942 0.000000 0.998202
vn 0.059942 0.000000 0.998202
vn 0.059942 0.000000 0.998202
vn 0.761703 -0.001407 0.647925
vn 0.761703 -0.001407 0.647925
vn 0.761703 -0.001407 0.647925
vn 0.761703 -0.001407 0.647925
vn 0.290028 -0.300635 0.908572
vn 0.290028 -0.300635 0.908572
vn 0.290028 -0.300635 0.908572
vn 0.290028 -0.300635 0.908572
vn 0.034006 -0.251554 0.967246
vn 0.034006 -0.251554 0.967246
vn 0.034006 -0.251554 0.967246
vn 0.034006 -0.251554 0.967246
vn 0.059942 0.000000 0.998202
vn 0.059942 0.000000 0.998202
vn 0.059942 0.000000 0.998202
vn 0.042312 -0.169333 0.984650
vn 0.042312 -0.169333 0.984650
vn 0.042312 -0.169333 0.984650
vn 0.042312 -0.169333 0.984650
vn 0.059942 0.000000 0.998202
vn 0.059942 0.000000 0.998202
vn 0.059942 0.000000 0.998202
vn 0.016891 -0.094670 0.995365
vn 0.016891 -0.094670 0.995365
vn 0.016891 -0.094670 0.995365
vn 0.016891 -0.094670 0.995365
vn 0.059942 0.000000 0.998202
vn 0.059942 0.000000 0.998202
vn 0.059942 0.000000 0.998202
vn 0.033344 0.206739 0.977828
vn 0.033344 0.206739 0.977828
vn 0.033344 0.206739 0.977828
vn 0.033344 0.206739 0.977828
vn 0.031129 0.293404 0.955482
vn 0.031129 0.293404 0.955482
vn 0.031129 0.293404 0.955482
vn 0.031129 0.293404 0.955482
vn 0.059942 0.000000 0.998202
vn 0.059942 0.000000 0.998202
vn 0.059942 0.000000 0.998202
vn 0.059942 0.000000 0.998202
vn 0.059942 0.000000 0.998202
vn 0.059942 0.000000 0.998202
vn 0.059942 0.000000 0.998202
vn 0.059942 0.000000 0.998202
vn -0.632917 0.000000 0.774220
vn -0.632917 0.000000 0.774220
vn -0.632917 0.000000 0.774220
vn -0.632917 0.000000 0.774220
vn 0.016840 0.122437 0.992333
vn 0.016840 0.122437 0.992333
vn 0.016840 0.122437 0.992333
vn 0.016840 0.122437 0.992333
vn 0.031967 0.000000 0.999489
vn 0.031967 0.000000 0.999489
vn 0.031967 0.000000 0.999489
vn 0.031967 0.000000 0.999489
vn 0.000000 0.000000 -1.000000
vn 0.000000 0.000000 -1.000000
vn 0.000000 0.000000 -1.000000
vn 0.000000 0.000000 -1.000000
vn 0.000000 0.998501 -0.054729
vn 0.000000 0.998501 -0.054729
vn 0.000000 0.998501 -0.054729
vn 0.000000 0.998501 -0.054729
vn -0.928494 0.000000 0.371348
vn -0.928494 0.000000 0.371348
vn -0.928494 0.000000 0.371348
vn -0.928494 0.000000 0.371348
vn 0.000000 -0.998459 -0.055497
vn 0.000000 -0.998459 -0.055497
vn 0.000000 -0.998459 -0.055497
vn 0.000000 0.000000 -1.000000
vn 0.000000 0.000000 -1.000000
vn 0.000000 0.000000 -1.000000
vn 0.000000 0.000000 -1.000000
vn 0.000000 0.998501 -0.054729
vn 0.000000 0.998501 -0.054729
vn 0.000000 0.998501 -0.054729
s off
g polySurface9
usemtl initialShadingGroup
f 1//1 2//2 3//3 4//4
f 5//5 6//6 7//7 8//8
f 2//9 1//10 8//11 7//12
f 6//13 5//14 4//15 3//16
f 9//17 10//18 11//19 12//20
f 5//21 10//22 9//23 4//24
f 8//25 11//26 10//27 5//28
f 1//29 12//30 11//31 8//32
f 4//33 9//34 12//35 1//36
f 13//37 14//38 15//39 16//40
f 3//41 14//42 13//43 6//44
f 2//45 15//46 14//47 3//48
f 15//49 2//50 7//51 16//52
f 6//53 13//54 16//55 7//56
f 17//57 18//58 19//59
f 17//60 19//61 20//62
f 17//63 20//64 21//65
f 17//66 21//67 22//68
f 17//69 22//70 23//71
f 17//72 23//73 24//74
f 17//75 24//76 25//77
f 18//78 17//79 25//80
f 18//81 26//82 27//83 19//84
f 19//85 27//86 28//87 20//88
f 20//89 28//90 29//91 21//92
f 21//93 29//94 30//95 22//96
f 22//97 30//98 31//99 23//100
f 23//101 31//102 32//103 33//104
f 24//105 34//106 35//107 25//108
f 26//109 18//110 25//111 35//112
f 26//113 36//114 37//115 27//116
f 37//117 38//118 39//119
f 27//120 37//121 39//122 28//123
f 28//124 39//125 40//126 29//127
f 29//128 40//129 41//130 30//131
f 41//132 38//133 42//134
f 30//135 41//136 42//137 31//138
f 42//139 38//140 43//141
f 31//142 42//143 44//144 32//145
f 43//146 38//147 45//148
f 34//149 43//150 45//151 35//152
f 35//153 45//154 36//155 26//156
f 39//157 38//158 41//159 40//160
f 37//161 36//162 45//163 38//164
f 32//165 44//166 46//167 47//168
f 47//169 46//170 43//171 34//172
f 42//173 43//174 46//175 44//176
f 33//177 48//178 24//179 23//180
f 48//181 47//182 34//183 24//184
f 49//185 32//186 47//187 50//188
f 49//189 33//190 32//191
f 49//192 50//193 48//194 33//195
f 48//196 50//197 47//198
