# Rhino

o object_1
v 0.948 5.624 0.6216
v 0.948 5.624 0.8246
v 0.948 9.23 0.6216
v 0.948 9.23 0.8246
v 1.332 5.748 0.009841
v 1.332 5.748 0.6216
v 1.332 9.105 0.009841
v 1.332 9.105 0.6216
v 3.068 2.707 0.6216
v 3.068 2.707 0.8246
v 3.068 12.15 0.6216
v 3.068 12.15 0.8246
v 3.305 3.033 0.009841
v 3.305 3.033 0.6216
v 3.305 11.83 0.009841
v 3.305 11.83 0.6216
v 6.497 1.592 0.6216
v 6.497 1.592 0.8246
v 6.497 1.995 0.009841
v 6.497 1.995 0.6216
v 6.497 7.427 0.009841
v 6.497 7.427 0.8246
v 6.497 12.85 0.009841
v 6.497 12.85 0.6216
v 6.497 13.27 0.6216
v 6.497 13.27 0.8246
v 9.692 3.033 0.009841
v 9.692 3.033 0.6216
v 9.692 11.83 0.009841
v 9.692 11.83 0.6216
v 9.927 2.707 0.6216
v 9.927 2.707 0.8246
v 9.927 12.15 0.6216
v 9.927 12.15 0.8246
v 11.66 5.748 0.009841
v 11.66 5.748 0.6216
v 11.66 9.105 0.009841
v 11.66 9.105 0.6216
v 12.04 5.624 0.6216
v 12.04 5.624 0.8246
v 12.04 9.23 0.6216
v 12.04 9.23 0.8246
vn -0.6554 -0.213 -0.7246
vn -0.6554 -0.213 0.7246
vn -0.6554 0.213 -0.7246
vn -0.6554 0.213 0.7246
vn 0 0 -1
vn -0.9511 -0.309 0
vn -0.9511 -0.309 0
vn 0 0 -1
vn 0 0 -1
vn -0.9511 0.309 0
vn -0.9511 0.309 0
vn 0 0 -1
vn -0.4051 -0.5575 -0.7246
vn -0.4051 -0.5575 0.7246
vn -0.4051 0.5575 -0.7246
vn -0.4051 0.5575 0.7246
vn 0 0 -1
vn -0.5878 0.809 0
vn -0.5878 0.809 0
vn 0 0 -1
vn 0 0 -1
vn -0.5878 -0.809 0
vn -0.5878 -0.809 0
vn 0 0 -1
vn 0 -0.6892 -0.7246
vn 0 -0.6892 0.7246
vn 0 0 -1
vn 0 -1 0
vn 0 -1 0
vn 0 0 -1
vn 0 0 1
vn 0 0 -1
vn 0 0 -1
vn 0 1 0
vn 0 1 0
vn 0 0 -1
vn -5.399e-08 0.6892 -0.7246
vn -5.399e-08 0.6892 0.7246
vn 0 0 -1
vn 0.5878 -0.809 0
vn 0.5878 -0.809 0
vn 0 0 -1
vn 0 0 -1
vn 0.5878 0.809 0
vn 0.5878 0.809 0
vn 0 0 -1
vn 0.4051 -0.5575 -0.7246
vn 0.4051 -0.5575 0.7246
vn 0.4051 0.5575 -0.7246
vn 0.4051 0.5575 0.7246
vn 0 0 -1
vn 0.9511 -0.309 0
vn 0.9511 -0.309 0
vn 0 0 -1
vn 0 0 -1
vn 0.809 0.5878 0
vn 1 -1.169e-06 0
vn 0.809 0.5878 0
vn 1 -1.169e-06 0
vn 0 0 -1
vn 0.6554 -0.213 -0.7246
vn 0.6554 -0.213 0.7246
vn 0.6554 0.213 -0.7246
vn 0.6554 0.213 0.7246
f 37//56 29//44 30//45 38//58
f 29//44 23//34 24//35 30//45
f 23//34 15//18 16//19 24//35
f 15//18 7//10 8//11 16//19
f 7//10 5//6 6//7 8//11
f 5//6 13//22 14//23 6//7
f 13//22 19//28 20//29 14//23
f 19//28 27//40 28//41 20//29
f 27//40 35//52 36//53 28//41
f 35//52 37//57 38//59 36//53
f 29//43 37//55 21//32
f 23//33 29//43 21//32
f 15//17 23//33 21//32
f 7//9 15//17 21//32
f 5//5 7//9 21//32
f 13//21 5//5 21//32
f 19//27 13//21 21//32
f 27//39 19//27 21//32
f 35//51 27//39 21//32
f 37//55 35//51 21//32
f 42//64 34//50 22//31
f 34//50 26//38 22//31
f 26//38 12//16 22//31
f 12//16 4//4 22//31
f 4//4 2//2 22//31
f 2//2 10//14 22//31
f 10//14 18//26 22//31
f 18//26 32//48 22//31
f 32//48 40//62 22//31
f 40//62 42//64 22//31
f 38//60 30//46 33//49 41//63
f 30//46 24//36 25//37 33//49
f 24//36 16//20 11//15 25//37
f 16//20 8//12 3//3 11//15
f 8//12 6//8 1//1 3//3
f 6//8 14//24 9//13 1//1
f 14//24 20//30 17//25 9//13
f 20//30 28//42 31//47 17//25
f 28//42 36//54 39//61 31//47
f 36//54 38//60 41//63 39//61
f 41//63 33//49 34//50 42//64
f 33//49 25//37 26//38 34//50
f 25//37 11//15 12//16 26//38
f 11//15 3//3 4//4 12//16
f 3//3 1//1 2//2 4//4
f 1//1 9//13 10//14 2//2
f 9//13 17//25 18//26 10//14
f 17//25 31//47 32//48 18//26
f 31//47 39//61 40//62 32//48
f 39//61 41//63 42//64 40//62
