# Rhino

o object_1
v 1.816 3.542 0.4136
v 1.816 6.473 0.4136
v 1.907 3.542 1.233
v 1.907 6.473 1.233
v 2.042 3.542 2.141
v 2.042 6.473 2.141
v 2.477 3.542 3.915
v 2.477 6.473 3.915
v 2.6 7.444 1.143
v 2.731 7.444 1.616
v 2.779 7.444 2.141
v 2.894 3.542 4.169
v 2.894 6.473 4.169
v 2.93 7.444 2.666
v 3.171 7.444 3.139
v 3.342 1.447 1.143
v 3.427 1.447 1.616
v 3.545 3.542 4.505
v 3.545 6.473 4.505
v 3.555 1.447 2.141
v 3.574 8.806 2.141
v 3.603 7.444 3.515
v 3.657 8.734 2.661
v 3.657 8.879 1.62
v 3.694 1.447 2.666
v 3.898 1.447 3.139
v 3.898 8.668 3.131
v 3.898 8.945 1.151
v 4.274 1.447 0.6411
v 4.274 1.447 3.515
v 4.274 8.616 3.504
v 4.274 8.997 0.7779
v 4.364 3.542 4.869
v 4.364 6.473 4.869
v 4.747 1.447 0.5261
v 4.747 1.447 3.756
v 4.747 7.444 0.5261
v 4.747 7.444 3.756
v 4.747 8.583 3.743
v 4.747 9.03 0.5386
v 5.263 4.317 5.071
v 5.263 5.699 5.071
v 5.272 1.447 0.5216
v 5.272 1.447 2.141
v 5.272 1.447 3.839
v 5.272 3.542 5.08
v 5.272 3.902 5.08
v 5.272 6.113 5.08
v 5.272 6.473 5.08
v 5.272 7.444 0.5216
v 5.272 7.444 3.839
v 5.272 7.708 3.839
v 5.272 8.382 3.839
v 5.272 8.571 3.826
v 5.272 8.806 2.141
v 5.272 9.042 0.5348
v 5.298 7.77 3.438
v 5.298 8.32 3.438
v 5.328 3.918 4.63
v 5.328 4.309 4.63
v 5.328 5.706 4.63
v 5.328 6.098 4.63
v 5.726 7.77 3.37
v 5.726 8.32 3.37
v 5.797 1.447 0.5261
v 5.797 1.447 3.756
v 5.797 7.444 0.5261
v 5.797 7.444 3.756
v 5.797 7.708 3.756
v 5.797 8.382 3.756
v 5.797 8.583 3.743
v 5.797 9.03 0.5386
v 6.062 3.918 4.514
v 6.062 4.309 4.514
v 6.062 5.706 4.514
v 6.062 6.098 4.514
v 6.113 7.77 3.173
v 6.113 8.32 3.173
v 6.18 3.542 4.936
v 6.18 3.902 4.936
v 6.18 6.113 4.936
v 6.18 6.473 4.936
v 6.191 4.317 4.931
v 6.191 5.699 4.931
v 6.27 1.447 0.7672
v 6.27 1.447 3.515
v 6.27 7.444 0.7672
v 6.27 7.444 3.515
v 6.27 7.708 3.515
v 6.27 8.382 3.515
v 6.27 8.616 3.504
v 6.27 8.997 0.7779
v 6.419 7.77 1.236
v 6.419 7.77 2.866
v 6.419 8.32 1.236
v 6.419 8.32 2.866
v 6.616 7.77 1.623
v 6.616 7.77 2.48
v 6.616 8.32 1.623
v 6.616 8.32 2.48
v 6.646 1.447 1.143
v 6.646 1.447 3.139
v 6.646 7.444 1.143
v 6.646 7.444 3.139
v 6.646 7.708 1.143
v 6.646 7.708 3.139
v 6.646 8.382 1.143
v 6.646 8.382 3.139
v 6.646 8.668 3.131
v 6.646 8.945 1.151
v 6.684 7.77 2.051
v 6.684 8.32 2.051
v 6.723 3.918 4.177
v 6.723 4.309 4.177
v 6.723 5.706 4.177
v 6.723 6.098 4.177
v 6.887 1.447 1.616
v 6.887 1.447 2.666
v 6.887 7.444 1.616
v 6.887 7.444 2.666
v 6.887 7.708 1.616
v 6.887 7.708 2.666
v 6.887 8.382 1.616
v 6.887 8.382 2.666
v 6.887 8.734 2.661
v 6.887 8.879 1.62
v 6.97 1.447 2.141
v 6.97 7.444 2.141
v 6.97 7.708 2.141
v 6.97 8.382 2.141
v 6.97 8.806 2.141
v 6.984 4.317 4.527
v 6.984 5.699 4.527
v 6.999 3.542 4.518
v 6.999 3.902 4.518
v 6.999 6.113 4.518
v 6.999 6.473 4.518
v 7.248 3.918 0.8627
v 7.248 3.918 3.652
v 7.248 4.309 0.8627
v 7.248 4.309 3.652
v 7.248 5.706 0.8627
v 7.248 5.706 3.652
v 7.248 6.098 0.8627
v 7.248 6.098 3.652
v 7.585 3.918 1.524
v 7.585 3.918 2.991
v 7.585 4.309 1.524
v 7.585 4.309 2.991
v 7.585 5.706 1.524
v 7.585 5.706 2.991
v 7.585 6.098 1.524
v 7.585 6.098 2.991
v 7.614 4.317 3.897
v 7.614 5.699 3.897
v 7.639 4.317 0.6619
v 7.639 5.699 0.6619
v 7.649 3.542 3.868
v 7.649 3.902 3.868
v 7.649 6.113 3.868
v 7.649 6.473 3.868
v 7.701 3.918 2.257
v 7.701 4.309 2.257
v 7.701 5.706 2.257
v 7.701 6.098 2.257
v 8.019 4.317 1.343
v 8.019 4.317 3.103
v 8.019 5.699 1.343
v 8.019 5.699 3.103
v 8.067 3.542 1.233
v 8.067 3.542 3.049
v 8.067 3.902 1.233
v 8.067 3.902 3.049
v 8.067 6.113 1.233
v 8.067 6.113 3.049
v 8.067 6.473 1.233
v 8.067 6.473 3.049
v 8.158 4.317 2.223
v 8.158 5.699 2.223
v 8.211 3.542 2.141
v 8.211 3.902 2.141
v 8.211 6.113 2.141
v 8.211 6.473 2.141
v 8.222 3.542 0.5284
v 8.222 3.902 0.5284
v 8.222 6.113 0.5284
v 8.222 6.473 0.5284
vn -0.1625 0.7585 0.631
vn -0.406 0 0.9139
vn -0.2255 0 0.9742
vn -0.2984 0.7213 0.6251
vn -0.4328 0 0.9015
vn -0.4533 0.7148 0.5325
vn -0.4901 0 0.8716
vn -0.6536 0.6787 0.3349
vn -0.8068 0 0.5908
vn -0.7806 0.607 0.1489
vn -0.9813 0 0.1927
vn -0.793 0.5975 0.119
vn -0.9917 0 0.1286
vn -0.8004 0.5834 0.1379
vn -0.9939 0 0.1105
vn -0.4474 0.4722 -0.7595
vn 0.00485 -0.01955 -0.9998
vn 0.03836 0 -0.9993
vn 0.5656 0.8237 -0.04148
vn 0.9767 0 0.2146
vn 0.0009497 0 -1
vn 0.3449 0.8097 -0.4747
vn 0.59 0.8044 -0.06939
vn 0.9996 0 0.02961
vn 0.6164 0.7874 1.872e-08
vn 1 0 1.584e-07
vn 0.5862 0.7874 0.1905
vn 0.9511 0 0.309
vn 0.4987 0.7874 0.3623
vn 0.809 0 0.5878
vn 0.3623 0.7874 0.4987
vn 0.5878 0 0.809
vn 0.1905 0.7874 0.5862
vn 0.309 0 0.9511
vn -0.01486 0.7844 0.6201
vn -0.03519 0 0.9994
vn -0.406 0 0.9139
vn -0.2255 0 0.9742
vn -0.273 -0.4965 0.824
vn -0.4328 0 0.9015
vn -0.4266 -0.5153 0.7433
vn -0.4901 0 0.8716
vn -0.5477 -0.5723 0.6103
vn -0.8068 0 0.5908
vn -0.7123 -0.5999 0.3645
vn -0.9813 0 0.1927
vn -0.8007 -0.5735 0.1731
vn -0.9917 0 0.1286
vn -0.8128 -0.5678 0.1298
vn -0.9939 0 0.1105
vn -0.8178 -0.5646 0.1114
vn 0.03836 0 -0.9993
vn -0.3491 -0.4957 -0.7953
vn 0.9767 0 0.2146
vn 0.8273 -0.5585 -0.06068
vn 0.0009497 0 -1
vn -0.4952 0.5388 0.6815
vn 0.9996 0 0.02961
vn 0.8409 -0.5322 -0.09797
vn 1 0 1.584e-07
vn 0.8605 -0.5095 3.008e-08
vn 0.9511 0 0.309
vn 0.8184 -0.5095 0.2659
vn 0.809 0 0.5878
vn 0.6961 -0.5095 0.5058
vn 0.5878 0 0.809
vn 0.5058 -0.5095 0.6961
vn 0.309 0 0.9511
vn 0.2659 -0.5095 0.8184
vn -0.03519 0 0.9994
vn -0.01989 -0.5057 0.8625
vn -0.2077 0.4411 0.8731
vn -0.3969 0.5026 0.768
vn -0.5923 0.5772 0.5621
vn -0.7427 0.5799 0.3348
vn -0.8187 0.5587 0.1328
vn -0.8113 0.5826 0.04893
vn -0.774 0.629 -0.07295
vn -0.04268 0.0726 -0.9964
vn 0.00485 -0.01955 -0.9998
vn -0.008534 0 -1
vn 0.03836 0 -0.9993
vn 7.451e-09 0.008102 -1
vn -0.008534 0 -1
vn 0.008534 0 -1
vn 0.2367 0.007556 -0.9716
vn 0.008534 0 -1
vn 0.0009497 0 -1
vn 0.3449 0.8097 -0.4747
vn 0.5865 0.005515 -0.8099
vn 0.3449 0.8097 -0.4747
vn 0.6226 0.4435 -0.6448
vn 0.3449 0.8097 -0.4747
vn 0.865 0.4547 -0.2119
vn 0.8982 0.4396 -7.732e-08
vn 0.8542 0.4396 0.2776
vn 0.7266 0.4396 0.5279
vn 0.5279 0.4396 0.7266
vn 0.2776 0.4396 0.8542
vn -0.2768 0.4224 0.8631
vn -0.1574 -0.8658 0.475
vn -0.2447 -0.8708 0.4263
vn 0 -1 0
vn -0.3079 -0.8874 0.343
vn -0.3947 -0.8963 0.202
vn -0.4513 -0.887 0.09759
vn -0.459 -0.8854 0.07329
vn -0.3035 -0.9519 0.04136
vn -0.3491 -0.4957 -0.7953
vn 0 -1 0
vn 0.00485 -0.01955 -0.9998
vn -0.3491 -0.4957 -0.7953
vn 0 -1 0
vn 0.00485 -0.01955 -0.9998
vn -0.008534 0 -1
vn 0.03836 0 -0.9993
vn -0.3491 -0.4957 -0.7953
vn 0 -1 0
vn -0.008534 0 -1
vn 0.008534 0 -1
vn 0 -1 0
vn 0.008534 0 -1
vn 0.0009497 0 -1
vn -0.4952 0.5388 0.6815
vn 0 -1 0
vn -0.4952 0.5388 0.6815
vn 0.3076 -0.9512 -0.02256
vn -0.4952 0.5388 0.6815
vn 0.4801 -0.8754 -0.05593
vn 0.493 -0.8701 1.723e-08
vn 0.4688 -0.8701 0.1523
vn 0.3988 -0.8701 0.2898
vn 0.2898 -0.8701 0.3988
vn 0.1523 -0.8701 0.4688
vn -0.01139 -0.8694 0.494
vn -0.1423 0.6774 0.7217
vn -0.2786 0.7538 0.5952
vn -2.192e-09 0.9903 0.139
vn -0.408 0.8165 0.4085
vn -0.4686 0.8417 0.2683
vn -0.4883 0.8604 0.1461
vn -0.4673 0.8816 0.06633
vn -0.4141 0.91 -0.02127
vn -0.2485 0.9102 -0.3314
vn -0.03882 0.7794 -0.6253
vn 1.985e-08 0.7592 -0.6508
vn 0.1847 0.765 -0.6169
vn 0.4361 0.7496 -0.498
vn 0.264 0.881 -0.3926
vn 0.6819 0.7213 -0.1218
vn 0.7024 0.7049 0.09844
vn 0.6526 0.6917 0.3092
vn 0.5413 0.6838 0.4894
vn 0.3835 0.6817 0.6231
vn 0.1976 0.6833 0.7029
vn -0.3119 0.6411 0.7012
vn 0.6538 -0.4945 0.5726
vn 0.7096 -0.7043 0.01788
vn 0.7096 0.7043 0.01788
vn 0.6538 0.4945 0.5726
vn 0.7137 -0.7004 0.0001239
vn 0.7137 0.7004 0.0001239
vn 0.6795 -0.6997 0.2209
vn 0.6795 0.6997 0.2209
vn 0.5785 -0.699 0.4204
vn 0.5785 0.699 0.4204
vn 0.4205 -0.6986 0.5788
vn 0.4205 0.6986 0.5788
vn 0.2211 -0.6986 0.6805
vn 0.2211 0.6986 0.6805
vn 0.6043 -0.5232 0.601
vn 0.6043 0.5232 0.601
vn 0.7432 -0.6011 0.294
vn 0.6777 -0.7025 -0.2171
vn 0.6777 0.7025 -0.2171
vn 0.7432 0.6011 0.294
vn 0.7137 -0.7004 0.0001239
vn 0.7137 0.7004 0.0001239
vn 0.6795 -0.6997 0.2209
vn 0.6795 0.6997 0.2209
vn 0.5785 -0.699 0.4204
vn 0.5785 0.699 0.4204
vn 0.4205 -0.6986 0.5788
vn 0.4205 0.6986 0.5788
vn 0.2211 -0.6986 0.6805
vn 0.2211 0.6986 0.6805
vn 0.6043 -0.5232 0.601
vn 0.6043 0.5232 0.601
vn 0.2575 0.5749 -0.7767
vn 0.6736 0.7059 -0.219
vn 0.6736 -0.7059 -0.219
vn 0.2575 -0.5749 -0.7767
vn 0.7084 0.7058 2.114e-05
vn 0.7084 -0.7058 2.114e-05
vn 0.6738 0.7057 0.219
vn 0.6738 -0.7057 0.219
vn 0.5733 0.7056 0.4165
vn 0.5733 -0.7056 0.4165
vn 0.4165 0.7056 0.5733
vn 0.4165 -0.7056 0.5733
vn 0.219 0.7055 0.674
vn 0.219 -0.7055 0.674
vn -0.5331 0.642 0.551
vn -0.5331 -0.642 0.551
vn 0.2442 0.5678 -0.7861
vn 0.6684 0.707 -0.2311
vn 0.6684 -0.707 -0.2311
vn 0.2442 -0.5678 -0.7861
vn 0.7084 0.7058 2.112e-05
vn 0.7084 -0.7058 2.112e-05
vn 0.6738 0.7057 0.219
vn 0.6738 -0.7057 0.219
vn 0.5733 0.7056 0.4165
vn 0.5733 -0.7056 0.4165
vn 0.4165 0.7056 0.5733
vn 0.4165 -0.7056 0.5733
vn 0.2163 0.7057 0.6746
vn 0.2163 -0.7057 0.6746
vn -0.5365 0.6401 0.55
vn -0.5365 -0.6401 0.55
vn 0.4289 0.8471 0.3138
vn 0.7435 0.6231 -0.2427
vn 0.4303 -0.8463 0.3142
vn 0.7442 -0.622 -0.2435
vn 0.7754 0.6314 -0.001031
vn 0.7757 -0.6312 -0.0009978
vn 0.7319 0.639 0.2369
vn 0.733 -0.6372 0.2381
vn 0.6185 0.6452 0.4485
vn 0.6219 -0.6388 0.453
vn 0.4472 0.6499 0.6146
vn 0.4524 -0.6359 0.6252
vn 0.2343 0.6532 0.7201
vn 0.2386 -0.6314 0.7378
vn 0.1139 0.6297 0.7684
vn 0.116 -0.6043 0.7883
vn 0.8218 0.5343 0.1979
vn 0.7435 0.6231 -0.2427
vn 0.8218 -0.5343 0.1979
vn 0.7435 -0.6231 -0.2427
vn 0.7754 0.6314 -0.001031
vn 0.7754 -0.6314 -0.001031
vn 0.7319 0.639 0.2369
vn 0.7319 -0.639 0.2369
vn 0.6185 0.6452 0.4485
vn 0.6185 -0.6452 0.4485
vn 0.4472 0.6499 0.6146
vn 0.4472 -0.6499 0.6146
vn 0.2343 0.6532 0.7201
vn 0.2343 -0.6532 0.7201
vn 0.6032 0.5055 0.6169
vn 0.6032 -0.5055 0.6169
f 34//2 19//5 18//40 33//37
f 19//5 13//7 12//42 18//40
f 13//7 8//9 7//44 12//42
f 8//9 6//11 5//46 7//44
f 6//11 4//13 3//48 5//46
f 4//13 2//15 1//50 3//48
f 157//205 168//206 166//207 156//208
f 168//206 179//209 178//210 166//207
f 179//209 169//211 167//212 178//210
f 169//211 155//213 154//214 167//212
f 155//213 133//215 132//216 154//214
f 133//215 84//217 83//218 132//216
f 84//217 42//219 41//220 83//218
f 49//36 34//3 33//38 46//70
f 31//137 39//136 55//138
f 27//139 31//137 55//138
f 23//140 27//139 55//138
f 21//141 23//140 55//138
f 24//142 21//141 55//138
f 28//143 24//142 55//138
f 32//144 28//143 55//138
f 40//145 32//144 55//138
f 56//146 40//145 55//138
f 72//147 56//146 55//138
f 92//148 72//147 55//138
f 110//149 92//148 55//138
f 126//150 110//149 55//138
f 131//151 126//150 55//138
f 125//152 131//151 55//138
f 109//153 125//152 55//138
f 91//154 109//153 55//138
f 71//155 91//154 55//138
f 54//156 71//155 55//138
f 39//136 54//156 55//138
f 36//101 30//102 44//103
f 30//102 26//104 44//103
f 26//104 25//105 44//103
f 25//105 20//106 44//103
f 20//106 17//107 44//103
f 17//107 16//108 44//103
f 16//108 29//110 44//103
f 29//110 35//113 44//103
f 35//113 43//118 44//103
f 43//118 65//121 44//103
f 65//121 85//125 44//103
f 85//125 101//127 44//103
f 101//127 117//129 44//103
f 117//129 127//130 44//103
f 127//130 118//131 44//103
f 118//131 102//132 44//103
f 102//132 86//133 44//103
f 86//133 66//134 44//103
f 66//134 45//135 44//103
f 45//135 36//101 44//103
f 19//4 34//1 38//72 22//73
f 13//6 19//4 22//73 15//74
f 8//8 13//6 15//74 14//75
f 6//10 8//8 14//75 11//76
f 4//12 6//10 11//76 10//77
f 2//14 4//12 10//77 9//78
f 176//23 187//19 103//92 119//94
f 183//25 176//23 119//94 128//95
f 177//27 183//25 128//95 120//96
f 161//29 177//27 120//96 104//97
f 137//31 161//29 104//97 88//98
f 82//33 137//31 88//98 68//99
f 49//35 82//33 68//99 51//100
f 34//1 49//35 51//100 38//72
f 33//39 18//41 30//102 36//101
f 18//41 12//43 26//104 30//102
f 12//43 7//45 25//105 26//104
f 7//45 5//47 20//106 25//105
f 5//47 3//49 17//107 20//106
f 3//49 1//51 16//108 17//107
f 184//55 170//59 117//129 101//127
f 170//59 180//61 127//130 117//129
f 180//61 171//63 118//131 127//130
f 171//63 158//65 102//132 118//131
f 158//65 134//67 86//133 102//132
f 134//67 79//69 66//134 86//133
f 79//69 46//71 45//135 66//134
f 46//71 33//39 36//101 45//135
f 22//73 38//72 39//136 31//137
f 15//74 22//73 31//137 27//139
f 14//75 15//74 27//139 23//140
f 11//76 14//75 23//140 21//141
f 10//77 11//76 21//141 24//142
f 9//78 10//77 24//142 28//143
f 2//16 9//78 28//143 32//144
f 37//79 2//16 32//144 40//145
f 50//83 37//79 40//145 56//146
f 67//86 50//83 56//146 72//147
f 87//90 67//86 72//147 92//148
f 103//92 87//90 92//148 110//149
f 97//238 93//237 95//239 99//240
f 111//241 97//238 99//240 112//242
f 98//243 111//241 112//242 100//244
f 94//245 98//243 100//244 96//246
f 77//247 94//245 96//246 78//248
f 63//249 77//247 78//248 64//250
f 57//251 63//249 64//250 58//252
f 38//72 51//100 54//156 39//136
f 187//20 176//24 174//158 186//157
f 170//58 184//54 185//160 172//159
f 184//54 187//20 186//157 185//160
f 176//24 183//26 182//161 174//158
f 180//60 170//58 172//159 181//162
f 183//26 177//28 175//163 182//161
f 171//62 180//60 181//162 173//164
f 177//28 161//30 160//165 175//163
f 158//64 171//62 173//164 159//166
f 161//30 137//32 136//167 160//165
f 134//66 158//64 159//166 135//168
f 137//32 82//34 81//169 136//167
f 79//68 134//66 135//168 80//170
f 82//34 49//36 48//171 81//169
f 49//36 46//70 47//172 48//171
f 46//70 79//68 80//170 47//172
f 186//157 174//158 152//174 144//173
f 172//159 185//160 138//176 146//175
f 185//160 186//157 144//173 138//176
f 174//158 182//161 165//177 152//174
f 181//162 172//159 146//175 162//178
f 182//161 175//163 153//179 165//177
f 173//164 181//162 162//178 147//180
f 175//163 160//165 145//181 153//179
f 159//166 173//164 147//180 139//182
f 160//165 136//167 116//183 145//181
f 135//168 159//166 139//182 113//184
f 136//167 81//169 76//185 116//183
f 80//170 135//168 113//184 73//186
f 81//169 48//171 62//187 76//185
f 48//171 47//172 59//188 62//187
f 47//172 80//170 73//186 59//188
f 144//173 152//174 150//190 142//189
f 146//175 138//176 140//192 148//191
f 138//176 144//173 142//189 140//192
f 152//174 165//177 164//193 150//190
f 162//178 146//175 148//191 163//194
f 165//177 153//179 151//195 164//193
f 147//180 162//178 163//194 149//196
f 153//179 145//181 143//197 151//195
f 139//182 147//180 149//196 141//198
f 145//181 116//183 115//199 143//197
f 113//184 139//182 141//198 114//200
f 116//183 76//185 75//201 115//199
f 73//186 113//184 114//200 74//202
f 76//185 62//187 61//203 75//201
f 62//187 59//188 60//204 61//203
f 59//188 73//186 74//202 60//204
f 142//189 150//190 168//206 157//205
f 148//191 140//192 156//208 166//207
f 140//192 142//189 157//205 156//208
f 150//190 164//193 179//209 168//206
f 163//194 148//191 166//207 178//210
f 164//193 151//195 169//211 179//209
f 149//196 163//194 178//210 167//212
f 151//195 143//197 155//213 169//211
f 141//198 149//196 167//212 154//214
f 143//197 115//199 133//215 155//213
f 114//200 141//198 154//214 132//216
f 115//199 75//201 84//217 133//215
f 74//202 114//200 132//216 83//218
f 75//201 61//203 42//219 84//217
f 61//203 60//204 41//220 42//219
f 60//204 74//202 83//218 41//220
f 119//94 103//92 105//221 121//222
f 103//92 110//149 107//223 105//221
f 110//149 126//150 123//224 107//223
f 128//95 119//94 121//222 129//225
f 126//150 131//151 130//226 123//224
f 120//96 128//95 129//225 122//227
f 131//151 125//152 124//228 130//226
f 104//97 120//96 122//227 106//229
f 125//152 109//153 108//230 124//228
f 88//98 104//97 106//229 89//231
f 109//153 91//154 90//232 108//230
f 68//99 88//98 89//231 69//233
f 91//154 71//155 70//234 90//232
f 51//100 68//99 69//233 52//235
f 71//155 54//156 53//236 70//234
f 54//156 51//100 52//235 53//236
f 121//222 105//221 93//237 97//238
f 105//221 107//223 95//239 93//237
f 107//223 123//224 99//240 95//239
f 129//225 121//222 97//238 111//241
f 123//224 130//226 112//242 99//240
f 122//227 129//225 111//241 98//243
f 130//226 124//228 100//244 112//242
f 106//229 122//227 98//243 94//245
f 124//228 108//230 96//246 100//244
f 89//231 106//229 94//245 77//247
f 108//230 90//232 78//248 96//246
f 69//233 89//231 77//247 63//249
f 90//232 70//234 64//250 78//248
f 52//235 69//233 63//249 57//251
f 70//234 53//236 58//252 64//250
f 53//236 52//235 57//251 58//252
f 2//17 37//80 35//114 29//111
f 37//81 50//84 43//119 35//115
f 50//85 67//87 65//122 43//120
f 1//52 2//18 37//82 35//116
f 29//112 16//109 1//53 35//117
f 187//21 184//56 65//123 67//88
f 85//126 101//128 184//57 65//124
f 87//91 103//93 187//22 67//89
