# Rhino

v 18.22003364562988 7.5 1.479423999786377
v 18.22003364562988 7.5 1.479423999786377
v 18.22003364562988 7.5 0.01461200043559074
v 18.22003364562988 7.5 0.01461200043559074
v 16.03425216674805 12.77694511413574 1.479423999786377
v 16.03425216674805 12.77694511413574 1.479423999786377
v 16.03425216674805 12.77694511413574 0.01461200043559074
v 16.03425216674805 12.77694511413574 0.01461200043559074
v 16.03425025939941 2.223054885864258 1.479423999786377
v 16.03425025939941 2.223054885864258 1.479423999786377
v 16.03425025939941 2.223054885864258 0.01461200043559074
v 16.03425025939941 2.223054885864258 0.01461200043559074
v 10.75730800628662 14.9627275466919 1.479423999786377
v 10.75730800628662 14.9627275466919 1.479423999786377
v 10.75730800628662 14.9627275466919 0.01461200043559074
v 10.75730800628662 14.9627275466919 0.01461200043559074
v 10.75730800628662 0.03727500140666962 1.479423999786377
v 10.75730800628662 0.03727500140666962 1.479423999786377
v 10.75730800628662 0.03727500140666962 0.01461200043559074
v 10.75730800628662 0.03727500140666962 0.01461200043559074
v 5.480363845825195 12.77694511413574 1.479423999786377
v 5.480363845825195 12.77694511413574 1.479423999786377
v 5.480363845825195 12.77694511413574 0.01461200043559074
v 5.480363845825195 12.77694511413574 0.01461200043559074
v 5.480363845825195 2.223054885864258 1.479423999786377
v 5.480363845825195 2.223054885864258 1.479423999786377
v 5.480363845825195 2.223054885864258 0.01461200043559074
v 5.480363845825195 2.223054885864258 0.01461200043559074
v 3.294581890106201 7.5 1.479423999786377
v 3.294581890106201 7.5 1.479423999786377
v 3.294581890106201 7.5 0.01461200043559074
v 3.294581890106201 7.5 0.01461200043559074
vn 0.9906023144721985 -0.1367737948894501 0
vn 0 0 1
vn 0.9906023740768433 0.1367734670639038 0
vn 0 0 -1
vn 0.7971752882003784 0.6037479043006897 0
vn 0 0 1
vn 0.6037481427192688 0.7971751093864441 0
vn 0 0 -1
vn 0.6037479043006897 -0.7971752882003784 0
vn 0 0 1
vn 0.7971751093864441 -0.6037482023239136 0
vn 0 0 -1
vn 0.1367736756801605 0.9906023144721985 0
vn 0 0 1
vn 0 0 -1
vn -0.1367737352848053 0.9906023144721985 0
vn 0 0 1
vn -0.1367735117673874 -0.9906023740768433 0
vn 0.1367735862731934 -0.9906023144721985 0
vn 0 0 -1
vn 0 0 1
vn -0.6037481427192688 0.7971751093864441 0
vn 0 0 -1
vn -0.7971752285957336 0.6037479639053345 0
vn 0 0 1
vn -0.7971751689910889 -0.603748083114624 0
vn 0 0 -1
vn -0.6037479043006897 -0.7971752882003784 0
vn 0 0 1
vn -0.9906023144721985 0.1367736309766769 0
vn 0 0 -1
vn -0.9906023144721985 -0.1367736309766769 0
f 12//12 20//20 27//27 4//4
f 23//23 15//15 8//8 4//4
f 2//2 6//6 14//14 21//21
f 17//17 10//10 2//2 25//25
f 29//29 25//25 2//2 21//21
f 27//27 31//31 23//23 4//4
f 22//22 13//13 16//16 24//24
f 13//13 5//5 7//7 16//16
f 5//5 1//1 3//3 7//7
f 1//1 9//9 11//11 3//3
f 9//9 18//18 19//19 11//11
f 18//18 26//26 28//28 19//19
f 26//26 30//30 32//32 28//28
f 30//30 22//22 24//24 32//32
