# Rhino

v 21.64384269714356 20.29770469665527 1.705760955810547
v 21.64384269714356 20.29770469665527 1.705760955810547
v 21.64384269714356 20.29770469665527 1.705760955810547
v 21.64384269714356 18.72057342529297 1.705760955810547
v 21.64384269714356 18.72057342529297 1.705760955810547
v 21.64384269714356 6.27942705154419 1.705760955810547
v 21.64384269714356 6.27942705154419 1.705760955810547
v 21.64384269714356 4.702294826507568 1.705760955810547
v 21.64384269714356 4.702294826507568 1.705760955810547
v 21.64384269714356 4.702294826507568 1.705760955810547
v 20.38144493103027 20.83040428161621 1.289965987205505
v 20.38144493103027 20.83040428161621 1.289965987205505
v 20.38144493103027 4.169596195220947 1.289965987205505
v 20.38144493103027 4.169596195220947 1.289965987205505
v 17.62620735168457 20.25920867919922 5.781082153320313
v 17.62620735168457 4.740790843963623 5.781082153320313
v 17.24345970153809 22.55861282348633 1.289965987205505
v 17.24345970153809 22.55861282348633 1.289965987205505
v 17.24345970153809 2.441386938095093 1.289965987205505
v 17.24345970153809 2.441386938095093 1.289965987205505
v 16.86941337585449 18.72057342529297 6.552744865417481
v 16.86941337585449 6.27942705154419 6.552744865417481
v 16.30264854431152 20.67142105102539 5.565108776092529
v 16.30264854431152 4.328578948974609 5.565108776092529
v 15.27147483825684 18.44840049743652 6.696393013000488
v 15.27147483825684 6.551599025726318 6.696393013000488
v 14.83199119567871 21.07856559753418 5.566411018371582
v 14.83199119567871 3.921433925628662 5.566411018371582
v 12.87286853790283 23.67267990112305 1.289965987205505
v 12.87286853790283 23.67267990112305 1.289965987205505
v 12.87286853790283 1.32732105255127 1.289965987205505
v 12.87286853790283 1.32732105255127 1.289965987205505
v 11.94908714294434 18.39470481872559 6.985476016998291
v 11.94908714294434 18.39470481872559 6.985476016998291
v 11.94908714294434 6.605295181274414 6.985476016998291
v 11.94908714294434 6.605295181274414 6.985476016998291
v 11.92913627624512 18.39320945739746 6.830349922180176
v 11.92913627624512 18.39320945739746 6.830349922180176
v 11.92913627624512 6.606790065765381 6.830349922180176
v 11.92913627624512 6.606790065765381 6.830349922180176
v 11.82809257507324 20.6153564453125 6.044792175292969
v 11.82809257507324 20.6153564453125 6.044792175292969
v 11.82809257507324 4.384643077850342 6.044792175292969
v 11.82809257507324 4.384643077850342 6.044792175292969
v 11.79748344421387 20.85638809204102 5.806820869445801
v 11.79748344421387 20.85638809204102 5.806820869445801
v 11.79748344421387 4.143610954284668 5.806820869445801
v 11.79748344421387 4.143610954284668 5.806820869445801
v 10.84441184997559 23.25495147705078 1.289965987205505
v 10.84441184997559 23.25495147705078 1.289965987205505
v 10.84441184997559 1.745048046112061 1.289965987205505
v 10.84441184997559 1.745048046112061 1.289965987205505
v 6.839818954467773 18.41678047180176 7.23956823348999
v 6.839818954467773 18.41678047180176 7.23956823348999
v 6.839810848236084 6.5832200050354 7.23956823348999
v 6.839810848236084 6.5832200050354 7.23956823348999
v 6.833555221557617 18.41671752929688 7.124934196472168
v 6.833555221557617 18.41671752929688 7.124934196472168
v 6.833555221557617 6.583281993865967 7.124934196472168
v 6.833555221557617 6.583281993865967 7.124934196472168
v 6.80695915222168 20.31877136230469 6.569445133209229
v 6.80695915222168 20.31877136230469 6.569445133209229
v 6.80695915222168 4.681228160858154 6.569445133209229
v 6.80695915222168 4.681228160858154 6.569445133209229
v 6.792531967163086 20.48540115356445 6.37125301361084
v 6.792531967163086 20.48540115356445 6.37125301361084
v 6.792531967163086 4.514598846435547 6.37125301361084
v 6.792531967163086 4.514598846435547 6.37125301361084
v 6.389204025268555 22.33748054504395 1.289965987205505
v 6.389204025268555 22.33748054504395 1.289965987205505
v 6.389204025268555 2.662518978118897 1.289965987205505
v 6.389204025268555 2.662518978118897 1.289965987205505
v 3.241528987884522 25.49196243286133 5.702406883239746
v 3.241528987884522 25.49196243286133 5.702406883239746
v 3.241528987884522 25.49196243286133 5.702406883239746
v 3.241528987884522 25.49196243286133 3.705652952194214
v 3.241528987884522 25.49196243286133 3.705652952194214
v 3.241528987884522 25.49196243286133 3.705652952194214
v 3.241528987884522 -0.4919619858264923 5.702406883239746
v 3.241528987884522 -0.4919619858264923 5.702406883239746
v 3.241528987884522 -0.4919619858264923 5.702406883239746
v 3.241528987884522 -0.4919619858264923 3.705652952194214
v 3.241528987884522 -0.4919619858264923 3.705652952194214
v 3.241528987884522 -0.4919619858264923 3.705652952194214
v 1.884130001068115 19.15003967285156 5.702406883239746
v 1.884130001068115 19.15003967285156 5.702406883239746
v 1.884130001068115 19.15003967285156 3.705652952194214
v 1.884130001068115 19.15003967285156 3.705652952194214
v 1.884130001068115 5.849960803985596 5.702406883239746
v 1.884130001068115 5.849960803985596 5.702406883239746
v 1.884130001068115 5.849960803985596 3.705652952194214
v 1.884130001068115 5.849960803985596 3.705652952194214
v 1.768460988998413 20.02439117431641 6.622939109802246
v 1.768460988998413 20.02439117431641 6.622939109802246
v 1.768460988998413 19.82147789001465 6.924932956695557
v 1.768460988998413 19.82147789001465 6.924932956695557
v 1.768460988998413 18.45394897460938 7.393387794494629
v 1.768460988998413 18.45394897460938 7.393387794494629
v 1.768460988998413 18.45376205444336 7.166688919067383
v 1.768460988998413 18.45376205444336 7.166688919067383
v 1.768460988998413 6.546237945556641 7.166688919067383
v 1.768460988998413 6.546237945556641 7.166688919067383
v 1.768460988998413 6.546050071716309 7.393387794494629
v 1.768460988998413 6.546050071716309 7.393387794494629
v 1.768460988998413 5.178522109985352 6.924932956695557
v 1.768460988998413 5.178522109985352 6.924932956695557
v 1.768460988998413 4.975608825683594 6.622939109802246
v 1.768460988998413 4.975608825683594 6.622939109802246
v 1.303709030151367 25.27477264404297 5.50032901763916
v 1.303709030151367 25.27477264404297 5.50032901763916
v 1.303709030151367 25.27477264404297 4.025606155395508
v 1.303709030151367 25.27477264404297 4.025606155395508
v 1.303709030151367 19.15003967285156 5.50032901763916
v 1.303709030151367 19.15003967285156 4.025606155395508
v 1.303709030151367 5.849960803985596 5.50032901763916
v 1.303709030151367 5.849960803985596 4.025606155395508
v 1.303709030151367 -0.2747739851474762 5.50032901763916
v 1.303709030151367 -0.2747739851474762 5.50032901763916
v 1.303709030151367 -0.2747739851474762 4.025606155395508
v 1.303709030151367 -0.2747739851474762 4.025606155395508
v -0.4449410140514374 20.93010330200195 1.289965987205505
v -0.4449410140514374 20.93010330200195 1.289965987205505
v -0.4449410140514374 4.069897174835205 1.289965987205505
v -0.4449410140514374 4.069897174835205 1.289965987205505
v -1.327981948852539 19.15003967285156 5.466649055480957
v -1.327981948852539 19.15003967285156 4.042445182800293
v -1.327981948852539 5.849960803985596 5.466649055480957
v -1.327981948852539 5.849960803985596 4.042445182800293
v -1.60637903213501 19.15003967285156 4.295038223266602
v -1.60637903213501 5.849960803985596 4.295038223266602
v -1.65690004825592 19.15003967285156 5.298255920410156
v -1.65690004825592 5.849960803985596 5.298255920410156
v -1.741098046302795 19.15003967285156 4.754549980163574
v -1.741098046302795 5.849960803985596 4.754545211791992
v -1.835839986801148 19.20467567443848 7.073696136474609
v -1.835839986801148 19.20467567443848 7.073696136474609
v -1.835839986801148 5.795323848724365 7.073696136474609
v -1.835839986801148 5.795323848724365 7.073696136474609
v -1.841295003890991 18.989990234375 7.074819087982178
v -1.841295003890991 18.989990234375 7.074819087982178
v -1.841295003890991 6.010008811950684 7.074819087982178
v -1.841295003890991 6.010008811950684 7.074819087982178
v -1.991526007652283 24.73587036132813 5.466649055480957
v -1.991526007652283 24.73587036132813 5.466649055480957
v -1.991526007652283 24.70466423034668 4.042445182800293
v -1.991526007652283 24.70466423034668 4.042445182800293
v -1.991526007652283 0.2953360080718994 4.042445182800293
v -1.991526007652283 0.2953360080718994 4.042445182800293
v -1.991526007652283 0.2641290128231049 5.466649055480957
v -1.991526007652283 0.2641290128231049 5.466649055480957
v -2.421197891235352 24.17922973632813 4.295038223266602
v -2.421197891235352 0.8207700252532959 4.295038223266602
v -2.484544992446899 24.10464859008789 5.298255920410156
v -2.484544992446899 0.8953520059585571 5.298255920410156
v -2.488810062408447 17.31757164001465 7.084952831268311
v -2.488810062408447 17.31757164001465 7.084952831268311
v -2.488810062408447 7.68242883682251 7.084952831268311
v -2.488810062408447 7.68242883682251 7.084952831268311
v -2.57194709777832 23.99881362915039 4.754549980163574
v -2.57194709777832 1.001186966896057 4.754545211791992
v -2.913134098052979 15.60135269165039 7.091407775878906
v -2.913134098052979 15.60135269165039 7.091407775878906
v -2.913134098052979 9.398647308349609 7.091407775878906
v -2.913134098052979 9.398647308349609 7.091407775878906
v -3.159997940063477 14.05067443847656 7.095241069793701
v -3.159997940063477 14.05067443847656 7.095241069793701
v -3.159997940063477 10.94932556152344 7.095241069793701
v -3.159997940063477 10.94932556152344 7.095241069793701
v -3.218378067016602 20.33545684814453 1.289965987205505
v -3.218378067016602 20.33545684814453 1.289965987205505
v -3.218378067016602 20.33545684814453 1.289965987205505
v -3.218378067016602 4.664542198181152 1.28996205329895
v -3.218378067016602 4.664542198181152 1.28996205329895
v -3.218378067016602 4.664542198181152 1.28996205329895
v -3.230058908462524 20.11510848999023 1.289965987205505
v -3.230058908462524 20.11510848999023 1.289965987205505
v -3.230058908462524 4.884891986846924 1.28996205329895
v -3.230058908462524 4.884891986846924 1.28996205329895
v -3.234224081039429 12.5 7.094436168670654
v -3.234224081039429 12.5 7.094436168670654
v -4.096209049224854 18.04499816894531 1.289965987205505
v -4.096209049224854 18.04499816894531 1.289965987205505
v -4.096209049224854 6.955002784729004 1.289965987205505
v -4.096209049224854 6.955002784729004 1.289965987205505
v -4.601187229156494 15.86626815795898 1.289965987205505
v -4.601187229156494 15.86626815795898 1.289965987205505
v -4.601187229156494 9.133731842041016 1.289965987205505
v -4.601187229156494 9.133731842041016 1.289965987205505
v -4.85314416885376 14.18313217163086 1.289965987205505
v -4.85314416885376 14.18313217163086 1.289965987205505
v -4.85314416885376 10.81686782836914 1.289965987205505
v -4.85314416885376 10.81686782836914 1.289965987205505
v -4.972630977630615 12.5 1.289965987205505
v -4.972630977630615 12.5 1.289965987205505
vn 0.7121288180351257 0 0.7020488381385803
vn 0.3128370940685272 0 -0.949806809425354
vn 0.2666068077087402 0.9223399758338928 0.2796600461006165
vn 0.7123461961746216 0.0003840799909085035 0.7018281221389771
vn 0.3128370940685272 0 -0.949806809425354
vn 0.7123219966888428 -0.0005121100111864507 0.7018526196479797
vn 0.3128370940685272 0 -0.949806809425354
vn 0.7121288180351257 0 0.7020488381385803
vn 0.3128370940685272 0 -0.949806809425354
vn 0.2666068077087402 -0.9223399758338928 0.2796600461006165
vn 0.3606742918491364 0.8536090850830078 0.3758531808853149
vn 0.1900050789117813 0 -0.9817830920219421
vn 0.3606742918491364 -0.8536090850830078 0.3758531808853149
vn 0.2109239846467972 0 -0.9775024652481079
vn 0.4982439875602722 0.413945347070694 0.7618412971496582
vn 0.4982439875602722 -0.413945347070694 0.7618412971496582
vn 0.3297510147094727 0.8347152471542358 0.441038191318512
vn 0 0 -1
vn 0.3297509253025055 -0.8347153067588806 0.441038191318512
vn 0 0 -1
vn 0.4144512414932251 0.1240546032786369 0.9015767574310303
vn 0.4144513010978699 -0.1240546107292175 0.9015766978263855
vn 0.2246425896883011 0.7401492595672607 0.6338097453117371
vn 0.2246426045894623 -0.7401492595672607 0.6338097453117371
vn 0.07495091855525971 0.2589840590953827 0.962969183921814
vn 0.07495096325874329 -0.2589841187000275 0.9629691243171692
vn 0.0723223015666008 0.6793296933174133 0.7302606701850891
vn 0.07232247292995453 -0.6793298125267029 0.7302605509757996
vn 0.1016754880547524 0.869584858417511 0.4832021296024323
vn 0 0 -1
vn 0.1016756668686867 -0.8695849180221558 0.4832019209861755
vn 0 0 -1
vn 0.08314522355794907 0.2705282270908356 0.9591149091720581
vn -0.991830050945282 -4.899999908047903e-07 0.1275662481784821
vn 0.08464162796735764 -0.2033806443214417 0.9754343032836914
vn -0.9918298125267029 6.500000040432497e-07 0.1275680363178253
vn 0.08006086200475693 0.13096584379673 0.9881488680839539
vn -0.9918307065963745 -3.070000047955546e-06 0.1275609433650971
vn 0.07948557287454605 -0.1968884617090225 0.9771985411643982
vn -0.9918307065963745 2.049999920927803e-06 0.1275609433650971
vn 0.04593354091048241 0.5578989982604981 0.8286367058753967
vn -0.9918280243873596 4.189999799564248e-06 0.1275822073221207
vn 0.04593373835086823 -0.5578989386558533 0.8286367654800415
vn -0.9918280243873596 -4.189999799564248e-06 0.1275822073221207
vn -0.004476959817111492 0.7323018908500671 0.6809654235839844
vn -0.9918293952941895 -9.799999816095806e-07 0.1275715827941895
vn -0.004477030131965876 -0.7323021292686462 0.6809651851654053
vn -0.9918293952941895 9.799999816095806e-07 0.1275715827941895
vn 0 0 -1
vn -0.1234569624066353 0.8502408862113953 0.511711597442627
vn 0 0 -1
vn -0.1234566792845726 -0.8502410054206848 0.5117114782333374
vn 0.0891323909163475 0.2430941015481949 0.965898871421814
vn -0.9981004595756531 0.0029828199185431 0.06153560057282448
vn 0.08735790848731995 -0.1826540529727936 0.9792885780334473
vn -0.997952401638031 -0.003970220219343901 0.06383804231882095
vn 0.05341925844550133 0.1158248484134674 0.9918321371078491
vn -0.9985103607177734 3.878999996231869e-05 0.05456205829977989
vn 0.05339447036385536 -0.1740385144948959 0.9832901954650879
vn -0.9985129237174988 -1.716999940981623e-05 0.05451574921607971
vn 0.06388173997402191 0.5694982409477234 0.8195064663887024
vn -0.9965202212333679 0.01185198966413736 0.08250430971384049
vn 0.0638815313577652 -0.5694992542266846 0.8195058107376099
vn -0.9965197443962097 -0.01185789983719587 0.08250918984413147
vn -0.03375900164246559 0.7879279851913452 0.6148412823677063
vn -0.9976304769515991 0.005965469870716333 0.06854108721017838
vn -0.03375910967588425 -0.7879282832145691 0.6148408651351929
vn -0.9976327419281006 -0.005955739878118038 0.06850883364677429
vn 0 0 -1
vn -0.1325562447309494 0.9082133769989014 0.3969600796699524
vn 0 0 -1
vn -0.132556363940239 -0.9082133769989014 0.3969600796699524
vn 0.9778524041175842 -0.2092955261468887 0
vn -0.1062120422720909 0.02273318916559219 0.99408358335495
vn -0.1113816499710083 0.9937776923179627 0
vn 0.9778524041175842 -0.2092955261468887 0
vn -0.1113816499710083 0.9937776923179627 0
vn -0.3266785740852356 0.05220926180481911 -0.9436923861503601
vn 0.977852463722229 0.2092954963445664 0
vn -0.1062120273709297 -0.02273317985236645 0.99408358335495
vn -0.1113811433315277 -0.9937777519226074 0
vn 0.977852463722229 0.2092954963445664 0
vn -0.1113811433315277 -0.9937777519226074 0
vn -0.3266785740852356 -0.05220925062894821 -0.9436923861503601
vn 0.9778524041175842 -0.2092955261468887 0
vn -0.2189484238624573 0.01144197955727577 0.9756693243980408
vn 0.9778524041175842 -0.2092955261468887 0
vn -0.4801976680755615 0.1027795374393463 -0.8711180090904236
vn 0.977852463722229 0.2092954963445664 0
vn -0.2189484238624573 -0.01144197024405003 0.9756693243980408
vn 0.977852463722229 0.2092954963445664 0
vn -0.4801976680755615 -0.1027795299887657 -0.8711180090904236
vn -0.103145457804203 0.8753870129585266 0.4722908437252045
vn -1 0 0
vn 0.006946519948542118 0.6089234948158264 0.7931985259056091
vn -1 0 0
vn 0.05621282011270523 0.2249590307474136 0.9727453589439392
vn -1 0 0
vn -0.008016300387680531 0.08407101780176163 0.9964275360107422
vn -1 0 0
vn -0.002120119985193014 -0.1123124808073044 0.9936707019805908
vn -1 0 0
vn 0.05565324053168297 -0.1689930111169815 0.9840447306632996
vn -1 0 0
vn 0.006946499925106764 -0.608923614025116 0.7931984663009644
vn -1 0 0
vn -0.1031454727053642 -0.8753869533538818 0.4722908437252045
vn -1 0 0
vn -0.1386552155017853 0.990325927734375 -0.005407220218330622
vn -0.1498060822486877 0.007648970000445843 0.9886857867240906
vn -0.05826444178819656 -0.0001999100059038028 -0.9983011484146118
vn -0.1409924030303955 0.990010678768158 0
vn -0.1186482608318329 -0.0005126600153744221 0.9929361939430237
vn -0.2214895039796829 0.03504939004778862 -0.9745326638221741
vn -0.1186482608318329 0.0005126600153744221 0.9929361939430237
vn -0.2214895039796829 -0.03504937887191773 -0.9745326638221741
vn -0.138655036687851 -0.9903259873390198 -0.005407390184700489
vn -0.1498060673475266 -0.007648970000445843 0.9886857867240906
vn -0.05826444178819656 0.0001999100059038028 -0.9983011484146118
vn -0.140992283821106 -0.990010678768158 0
vn 0 0 -1
vn -0.157893642783165 0.9510656595230103 0.2656006515026093
vn 4.899999908047903e-07 6.299999881775875e-07 -1
vn -0.157893642783165 -0.9510656595230103 0.2656006515026093
vn -0.255075067281723 -0.03774524107575417 0.9661842584609985
vn -0.2413212358951569 -0.02855697087943554 -0.9700250029563904
vn -0.2550750374794006 0.03774522989988327 0.9661842584609985
vn -0.2413212358951569 0.02855695970356464 -0.9700250029563904
vn -0.7282919883728027 -0.107905387878418 -0.6767179369926453
vn -0.728291392326355 0.1079052686691284 -0.6767186522483826
vn -0.8805083632469177 -0.1486260443925858 0.450128048658371
vn -0.8805088996887207 0.1486261337995529 0.4501270949840546
vn -0.9721693396568298 -0.1635547131299973 -0.1677396297454834
vn -0.9721689224243164 0.1635546237230301 -0.1677423715591431
vn -0.06669189035892487 0.5081025958061218 0.8587106466293335
vn -0.9700241684913635 0.0386447086930275 0.2399160265922546
vn -0.06669189035892487 -0.5081026554107666 0.8587105870246887
vn -0.9700242280960083 -0.03864464908838272 0.2399158626794815
vn -0.01145759969949722 0.001951570040546358 0.9999324679374695
vn -0.9281536340713501 0.2510304749011993 0.2747990787029266
vn -0.008833769708871841 -0.001170960022136569 0.9999603033065796
vn -0.9281536936759949 -0.2510305047035217 0.2747989296913147
vn -0.1032528877258301 -0.01185727026313543 0.9945844411849976
vn -0.6116930246353149 0.7909724712371826 -0.01393622998148203
vn -0.3890707194805145 -0.05300756171345711 -0.9196815490722656
vn -0.3921456634998322 0.9198179244995117 -0.01251920964568853
vn -0.3890707194805145 0.05300755053758621 -0.9196815490722656
vn -0.3921457827091217 -0.9198178648948669 -0.01251961011439562
vn -0.1032528504729271 0.01185726001858711 0.9945844411849976
vn -0.6116935014724731 -0.7909720540046692 -0.01393647957593203
vn -0.9063659310340881 0.293577641248703 -0.3038304150104523
vn -0.9063657522201538 -0.2935771346092224 -0.3038315176963806
vn -0.8227763772010803 0.2481858879327774 0.5113147497177124
vn -0.8227767944335938 -0.2481851577758789 0.5113144516944885
vn 0.01550268009305 0 0.9998798370361328
vn -0.9205283522605896 0.2653824985027313 0.2867049276828766
vn 0.01535668037831783 0 0.9998821020126343
vn -0.9205283522605896 -0.2653824388980866 0.2867049276828766
vn -0.9903018474578857 0.1184387505054474 -0.07262586802244186
vn -0.990301787853241 -0.1184383034706116 -0.07262764126062393
vn 0.01531540974974632 0 0.999882698059082
vn -0.9400169253349304 0.1915583163499832 0.2822651565074921
vn 0.0154201602563262 0 0.9998810887336731
vn -0.9400168657302856 -0.191558375954628 0.2822651565074921
vn 0.006735580042004585 0 0.9999772906303406
vn -0.9528741836547852 0.1132495999336243 0.2814343571662903
vn 0.002340340055525303 0 0.9999972581863403
vn -0.9528741836547852 -0.1132495999336243 0.2814343571662903
vn 0 0 -1
vn -0.1956836730241776 0.9512314796447754 0.2384671270847321
vn -0.968997597694397 0.0513678789138794 0.2416713386774063
vn 0.9337705373764038 0.3578723669052124 -1.150000002780871e-06
vn -0.1956836730241776 -0.9512314796447754 0.2384671270847321
vn -0.9689976572990418 -0.05136765167117119 0.2416711449623108
vn 0 0 -1
vn -0.954209566116333 0.1511352360248566 0.2581515312194824
vn 5.289999990054639e-06 2.799999947455945e-07 1
vn -0.9542096257209778 -0.1511353254318237 0.2581513524055481
vn -0.01084461994469166 0 0.9999411702156067
vn -0.9588455557823181 0 0.2839281857013702
vn 0 0 -1
vn -0.9054673314094544 0.311918318271637 0.2878122329711914
vn 2.420000100755715e-06 9.299999987888441e-07 -1
vn -0.9054673314094544 -0.3119183480739594 0.2878121733665466
vn 0 0 -1
vn -0.9410790205001831 0.1854654252529144 0.2827946543693543
vn 0 0 -1
vn -0.9410790205001831 -0.1854654848575592 0.2827946543693543
vn 0 0 -1
vn -0.9554398059844971 0.08531098067760468 0.282589465379715
vn 0 0 -1
vn -0.9554398059844971 -0.08531098067760468 0.282589465379715
vn 0 0 -1
vn -0.9579594731330872 0 0.2869036197662354
f 150//150 154//154 152//152 148//148
f 152//152 154//154 160//160
f 152//152 160//160 134//134 130//130
f 117//117 120//120 83//83 81//81
f 148//148 120//120 117//117 150//150
f 84//84 119//119 116//116 92//92
f 119//119 147//147 128//128 116//116
f 147//147 152//152 130//130 128//128
f 160//160 154//154 132//132 134//134
f 154//154 149//149 127//127 132//132
f 149//149 118//118 115//115 127//127
f 118//118 80//80 90//90 115//115
f 79//79 82//82 91//91 89//89
f 144//144 146//146 151//151 153//153
f 151//151 159//159 153//153
f 151//151 129//129 133//133 159//159
f 109//109 75//75 77//77 112//112
f 146//146 144//144 109//109 112//112
f 78//78 88//88 114//114 111//111
f 111//111 114//114 126//126 145//145
f 145//145 126//126 129//129 151//151
f 159//159 133//133 131//131 153//153
f 153//153 131//131 125//125 143//143
f 143//143 125//125 113//113 110//110
f 110//110 113//113 86//86 74//74
f 73//73 85//85 87//87 76//76
f 185//185 187//187 191//191 189//189
f 181//181 183//183 187//187 185//185
f 121//121 123//123 183//183 181//181
f 172//172 177//177 183//183 123//123
f 193//193 189//189 191//191
f 69//69 71//71 123//123 121//121
f 49//49 51//51 71//71 69//69
f 30//30 32//32 51//51 49//49
f 18//18 20//20 32//32 30//30
f 12//12 14//14 20//20 18//18
f 14//14 7//7 9//9
f 7//7 14//14 12//12 5//5
f 167//167 165//165 179//179
f 165//165 167//167 163//163 161//161
f 161//161 163//163 157//157 155//155
f 155//155 157//157 141//141 139//139
f 141//141 101//101 99//99 139//139
f 135//135 139//139 99//99 93//93
f 72//72 52//52 47//47 67//67
f 52//52 31//31 28//28 47//47
f 67//67 59//59 103//103 105//105
f 104//104 102//102 108//108 106//106
f 67//67 105//105 107//107
f 47//47 39//39 55//55 63//63
f 56//56 60//60 68//68 64//64
f 47//47 63//63 67//67
f 28//28 26//26 35//35 43//43
f 36//36 40//40 48//48 44//44
f 28//28 43//43 47//47
f 138//138 142//142 178//178 174//174
f 168//168 192//192 188//188 164//164
f 142//142 158//158 184//184 178//178
f 158//158 164//164 188//188 184//184
f 173//173 124//124 107//107 137//137
f 124//124 72//72 67//67 107//107
f 31//31 19//19 24//24 28//28
f 26//26 28//28 24//24
f 24//24 19//19 13//13
f 24//24 13//13 10//10 16//16
f 180//180 194//194 192//192 168//168
f 24//24 16//16 22//22 26//26
f 16//16 8//8 6//6 22//22
f 70//70 65//65 45//45 50//50
f 50//50 45//45 27//27 29//29
f 65//65 95//95 97//97 57//57
f 98//98 96//96 94//94 100//100
f 65//65 93//93 95//95
f 102//102 104//104 98//98 100//100
f 45//45 61//61 53//53 37//37
f 54//54 62//62 66//66 58//58
f 45//45 65//65 61//61
f 60//60 56//56 54//54 58//58
f 103//103 59//59 57//57 97//97
f 27//27 41//41 33//33 25//25
f 34//34 42//42 46//46 38//38
f 27//27 45//45 41//41
f 40//40 36//36 34//34 38//38
f 55//55 39//39 37//37 53//53
f 136//136 171//171 176//176 140//140
f 137//137 107//107 101//101 141//141
f 175//175 169//169 121//121 181//181
f 166//166 162//162 186//186 190//190
f 140//140 176//176 182//182 156//156
f 156//156 182//182 186//186 162//162
f 170//170 135//135 93//93 122//122
f 122//122 93//93 65//65 70//70
f 35//35 26//26 25//25 33//33
f 29//29 27//27 23//23 17//17
f 25//25 23//23 27//27
f 23//23 11//11 17//17
f 23//23 15//15 3//3 11//11
f 12//12 2//2 5//5
f 180//180 166//166 190//190 194//194
f 23//23 25//25 21//21 15//15
f 26//26 22//22 21//21 25//25
f 15//15 21//21 4//4 1//1
f 22//22 6//6 4//4 21//21
