# Rhino

o object_1
v 4.01 1.606 1.772
v 4.01 1.61 1.748
v 4.01 1.61 1.796
v 4.01 1.621 1.727
v 4.01 1.621 1.818
v 4.01 1.635 1.772
v 4.01 1.637 1.757
v 4.01 1.637 1.787
v 4.01 1.638 1.71
v 4.01 1.638 1.835
v 4.01 1.644 1.744
v 4.01 1.644 1.801
v 4.01 1.655 1.733
v 4.01 1.655 1.812
v 4.01 1.66 1.699
v 4.01 1.66 1.846
v 4.01 1.669 1.726
v 4.01 1.669 1.819
v 4.01 1.684 1.695
v 4.01 1.684 1.723
v 4.01 1.684 1.821
v 4.01 1.684 1.85
v 4.01 1.699 1.726
v 4.01 1.699 1.819
v 4.01 1.708 1.699
v 4.01 1.708 1.846
v 4.01 1.712 1.812
v 4.01 1.712 1.733
v 4.01 1.723 1.744
v 4.01 1.723 1.801
v 4.01 1.729 1.71
v 4.01 1.729 1.835
v 4.01 1.73 1.757
v 4.01 1.73 1.787
v 4.01 1.733 1.772
v 4.01 1.746 1.727
v 4.01 1.746 1.818
v 4.01 1.757 1.748
v 4.01 1.757 1.796
v 4.01 1.761 1.772
v 4.01 3.299 1.772
v 4.01 3.303 1.748
v 4.01 3.303 1.796
v 4.01 3.314 1.727
v 4.01 3.314 1.818
v 4.01 3.328 1.772
v 4.01 3.33 1.757
v 4.01 3.33 1.787
v 4.01 3.331 1.71
v 4.01 3.331 1.835
v 4.01 3.337 1.744
v 4.01 3.337 1.801
v 4.01 3.348 1.733
v 4.01 3.348 1.812
v 4.01 3.352 1.699
v 4.01 3.352 1.846
v 4.01 3.361 1.726
v 4.01 3.361 1.819
v 4.01 3.376 1.695
v 4.01 3.376 1.723
v 4.01 3.376 1.821
v 4.01 3.376 1.85
v 4.01 3.392 1.726
v 4.01 3.392 1.819
v 4.01 3.4 1.699
v 4.01 3.4 1.846
v 4.01 3.405 1.733
v 4.01 3.405 1.812
v 4.01 3.416 1.744
v 4.01 3.416 1.801
v 4.01 3.422 1.71
v 4.01 3.422 1.835
v 4.01 3.423 1.757
v 4.01 3.423 1.787
v 4.01 3.425 1.772
v 4.01 3.439 1.727
v 4.01 3.439 1.818
v 4.01 3.45 1.748
v 4.01 3.45 1.796
v 4.01 3.454 1.772
v 7.082 1.606 1.772
v 7.082 1.61 1.748
v 7.082 1.61 1.796
v 7.082 1.621 1.727
v 7.082 1.621 1.818
v 7.082 1.635 1.772
v 7.082 1.637 1.757
v 7.082 1.637 1.787
v 7.082 1.638 1.71
v 7.082 1.638 1.835
v 7.082 1.644 1.744
v 7.082 1.644 1.801
v 7.082 1.655 1.733
v 7.082 1.655 1.812
v 7.082 1.66 1.699
v 7.082 1.66 1.846
v 7.082 1.669 1.726
v 7.082 1.669 1.819
v 7.082 1.684 1.695
v 7.082 1.684 1.723
v 7.082 1.684 1.821
v 7.082 1.684 1.85
v 7.082 1.699 1.726
v 7.082 1.699 1.819
v 7.082 1.708 1.699
v 7.082 1.708 1.846
v 7.082 1.712 1.812
v 7.082 1.712 1.733
v 7.082 1.723 1.744
v 7.082 1.723 1.801
v 7.082 1.729 1.71
v 7.082 1.729 1.835
v 7.082 1.73 1.757
v 7.082 1.73 1.787
v 7.082 1.733 1.772
v 7.082 1.746 1.727
v 7.082 1.746 1.818
v 7.082 1.757 1.748
v 7.082 1.757 1.796
v 7.082 1.761 1.772
v 7.082 3.299 1.772
v 7.082 3.303 1.748
v 7.082 3.303 1.796
v 7.082 3.314 1.727
v 7.082 3.314 1.818
v 7.082 3.328 1.772
v 7.082 3.33 1.757
v 7.082 3.33 1.787
v 7.082 3.331 1.71
v 7.082 3.331 1.835
v 7.082 3.337 1.744
v 7.082 3.337 1.801
v 7.082 3.348 1.733
v 7.082 3.348 1.812
v 7.082 3.352 1.699
v 7.082 3.352 1.846
v 7.082 3.361 1.726
v 7.082 3.361 1.819
v 7.082 3.376 1.695
v 7.082 3.376 1.723
v 7.082 3.376 1.821
v 7.082 3.376 1.85
v 7.082 3.392 1.726
v 7.082 3.392 1.819
v 7.082 3.4 1.699
v 7.082 3.4 1.846
v 7.082 3.405 1.733
v 7.082 3.405 1.812
v 7.082 3.416 1.744
v 7.082 3.416 1.801
v 7.082 3.422 1.71
v 7.082 3.422 1.835
v 7.082 3.423 1.757
v 7.082 3.423 1.787
v 7.082 3.425 1.772
v 7.082 3.439 1.727
v 7.082 3.439 1.818
v 7.082 3.45 1.748
v 7.082 3.45 1.796
v 7.082 3.454 1.772
vn -1 0 0
vn -1 0 0
vn 0 -0.9986 0.05272
vn 0 -0.9986 0.05272
vn -1 0 0
vn -1 0 0
vn 0 -0.9334 0.3587
vn 0 -0.9334 0.3587
vn -1 0 0
vn -1 0 0
vn 0 0.966 -0.2584
vn 0 0.966 -0.2584
vn -1 0 0
vn -1 0 0
vn 0 0.9986 0.05272
vn 0 0.9986 0.05272
vn -1 0 0
vn -1 0 0
vn 0 -0.7769 0.6296
vn 0 -0.7769 0.6296
vn -1 0 0
vn -1 0 0
vn 0 0.8389 -0.5443
vn 0 0.8389 -0.5443
vn -1 0 0
vn -1 0 0
vn 0 -0.5443 0.8389
vn 0 -0.5443 0.8389
vn -1 0 0
vn -1 0 0
vn 0 0.6296 -0.7769
vn 0 0.6296 -0.7769
vn -1 0 0
vn -1 0 0
vn 0 -0.2584 0.966
vn 0 -0.2584 0.966
vn -1 0 0
vn -1 0 0
vn 0 0.3587 -0.9334
vn 0 0.3587 -0.9334
vn -1 0 0
vn -1 0 0
vn 0 0.05272 0.9986
vn 0 0.05272 0.9986
vn -1 0 0
vn -1 0 0
vn 0 0.05272 -0.9986
vn 0 0.05272 -0.9986
vn -1 0 0
vn -1 0 0
vn 0 0.3587 0.9334
vn 0 0.3587 0.9334
vn -1 0 0
vn -1 0 0
vn 0 -0.2584 -0.966
vn 0 -0.2584 -0.966
vn -1 0 0
vn -1 0 0
vn 0 0.6296 0.7769
vn 0 0.6296 0.7769
vn -1 0 0
vn -1 0 0
vn 0 -0.5443 -0.8389
vn 0 -0.5443 -0.8389
vn -1 0 0
vn -1 0 0
vn 0 0.8389 0.5443
vn 0 0.8389 0.5443
vn -1 0 0
vn -1 0 0
vn 0 -0.7769 -0.6296
vn 0 -0.7769 -0.6296
vn -1 0 0
vn -1 0 0
vn 0 0.966 0.2584
vn 0 0.966 0.2584
vn -1 0 0
vn -1 0 0
vn 0 -0.9334 -0.3587
vn 0 -0.9334 -0.3587
vn -1 0 0
vn -1 0 0
vn 0 0.9986 -0.05272
vn 0 0.9986 -0.05272
vn -1 0 0
vn -1 0 0
vn 0 -0.9986 -0.05272
vn 0 -0.9986 -0.05272
vn -1 0 0
vn -1 0 0
vn 0 0.9334 -0.3587
vn 0 0.9334 -0.3587
vn -1 0 0
vn -1 0 0
vn 0 -0.966 0.2584
vn 0 -0.966 0.2584
vn -1 0 0
vn -1 0 0
vn 0 0.7769 -0.6296
vn 0 0.7769 -0.6296
vn -1 0 0
vn -1 0 0
vn 0 -0.8389 0.5443
vn 0 -0.8389 0.5443
vn -1 0 0
vn -1 0 0
vn 0 0.5443 -0.8389
vn 0 0.5443 -0.8389
vn -1 0 0
vn -1 0 0
vn 0 -0.6296 0.7769
vn 0 -0.6296 0.7769
vn -1 0 0
vn -1 0 0
vn 0 0.2584 -0.966
vn 0 0.2584 -0.966
vn -1 0 0
vn -1 0 0
vn 0 -0.3587 0.9334
vn 0 -0.3587 0.9334
vn -1 0 0
vn -1 0 0
vn 0 -0.05272 -0.9986
vn 0 -0.05272 -0.9986
vn -1 0 0
vn -1 0 0
vn 0 -0.05272 0.9986
vn 0 -0.05272 0.9986
vn -1 0 0
vn -1 0 0
vn 0 -0.3587 -0.9334
vn 0 -0.3587 -0.9334
vn -1 0 0
vn -1 0 0
vn 0 0.2584 0.966
vn 0 0.2584 0.966
vn -1 0 0
vn -1 0 0
vn 0 -0.6296 -0.7769
vn 0 -0.6296 -0.7769
vn -1 0 0
vn -1 0 0
vn 0 0.5443 0.8389
vn 0 0.5443 0.8389
vn -1 0 0
vn -1 0 0
vn 0 -0.8389 -0.5443
vn 0 -0.8389 -0.5443
vn -1 0 0
vn -1 0 0
vn 0 0.7769 0.6296
vn 0 0.7769 0.6296
vn -1 0 0
vn -1 0 0
vn 0 -0.966 -0.2584
vn 0 -0.966 -0.2584
vn -1 0 0
vn -1 0 0
vn 0 0.9334 0.3587
vn 0 0.9334 0.3587
vn 0 0.9334 -0.3587
vn 0 0.9334 -0.3587
vn 1 0 0
vn 1 0 0
vn 0 0.9986 -0.05272
vn 0 0.9986 -0.05272
vn 1 0 0
vn 1 0 0
vn 0 0.7769 -0.6296
vn 0 0.7769 -0.6296
vn 1 0 0
vn 1 0 0
vn 0 0.5443 -0.8389
vn 0 0.5443 -0.8389
vn 1 0 0
vn 1 0 0
vn 0 0.2584 -0.966
vn 0 0.2584 -0.966
vn 1 0 0
vn 1 0 0
vn 0 -0.05272 -0.9986
vn 0 -0.05272 -0.9986
vn 1 0 0
vn 1 0 0
vn 0 -0.3587 -0.9334
vn 0 -0.3587 -0.9334
vn 1 0 0
vn 1 0 0
vn 0 -0.6296 -0.7769
vn 0 -0.6296 -0.7769
vn 1 0 0
vn 1 0 0
vn 0 -0.8389 -0.5443
vn 0 -0.8389 -0.5443
vn 1 0 0
vn 1 0 0
vn 0 -0.966 -0.2584
vn 0 -0.966 -0.2584
vn 1 0 0
vn 1 0 0
vn 0 -0.9986 0.05272
vn 0 -0.9986 0.05272
vn 1 0 0
vn 1 0 0
vn 0 -0.9334 0.3587
vn 0 -0.9334 0.3587
vn 1 0 0
vn 1 0 0
vn 0 -0.7769 0.6296
vn 0 -0.7769 0.6296
vn 1 0 0
vn 1 0 0
vn 0 -0.5443 0.8389
vn 0 -0.5443 0.8389
vn 1 0 0
vn 1 0 0
vn 0 -0.2584 0.966
vn 0 -0.2584 0.966
vn 1 0 0
vn 1 0 0
vn 0 0.05272 0.9986
vn 0 0.05272 0.9986
vn 1 0 0
vn 1 0 0
vn 0 0.3587 0.9334
vn 0 0.3587 0.9334
vn 1 0 0
vn 1 0 0
vn 0 0.6296 0.7769
vn 0 0.6296 0.7769
vn 1 0 0
vn 1 0 0
vn 0 0.8389 0.5443
vn 0 0.8389 0.5443
vn 1 0 0
vn 1 0 0
vn 0 0.966 0.2584
vn 0 0.966 0.2584
vn 1 0 0
vn 1 0 0
vn 1 0 0
vn 1 0 0
vn 0 -0.966 0.2584
vn 0 -0.966 0.2584
vn 1 0 0
vn 1 0 0
vn 0 -0.9986 -0.05272
vn 0 -0.9986 -0.05272
vn 1 0 0
vn 1 0 0
vn 0 -0.8389 0.5443
vn 0 -0.8389 0.5443
vn 1 0 0
vn 1 0 0
vn 0 -0.6296 0.7769
vn 0 -0.6296 0.7769
vn 1 0 0
vn 1 0 0
vn 0 -0.3587 0.9334
vn 0 -0.3587 0.9334
vn 1 0 0
vn 1 0 0
vn 0 -0.05272 0.9986
vn 0 -0.05272 0.9986
vn 1 0 0
vn 1 0 0
vn 0 0.2584 0.966
vn 0 0.2584 0.966
vn 1 0 0
vn 1 0 0
vn 0 0.5443 0.8389
vn 0 0.5443 0.8389
vn 1 0 0
vn 1 0 0
vn 0 0.7769 0.6296
vn 0 0.7769 0.6296
vn 1 0 0
vn 1 0 0
vn 0 0.9334 0.3587
vn 0 0.9334 0.3587
vn 1 0 0
vn 1 0 0
vn 0 0.9986 0.05272
vn 0 0.9986 0.05272
vn 1 0 0
vn 1 0 0
vn 0 0.966 -0.2584
vn 0 0.966 -0.2584
vn 1 0 0
vn 1 0 0
vn 0 0.8389 -0.5443
vn 0 0.8389 -0.5443
vn 1 0 0
vn 1 0 0
vn 0 0.6296 -0.7769
vn 0 0.6296 -0.7769
vn 1 0 0
vn 1 0 0
vn 0 0.3587 -0.9334
vn 0 0.3587 -0.9334
vn 1 0 0
vn 1 0 0
vn 0 0.05272 -0.9986
vn 0 0.05272 -0.9986
vn 1 0 0
vn 1 0 0
vn 0 -0.2584 -0.966
vn 0 -0.2584 -0.966
vn 1 0 0
vn 1 0 0
vn 0 -0.5443 -0.8389
vn 0 -0.5443 -0.8389
vn 1 0 0
vn 1 0 0
vn 0 -0.7769 -0.6296
vn 0 -0.7769 -0.6296
vn 1 0 0
vn 1 0 0
vn 0 -0.9334 -0.3587
vn 0 -0.9334 -0.3587
vn -1 0 0
vn -1 0 0
vn 0 -0.9986 0.05272
vn 0 -0.9986 0.05272
vn -1 0 0
vn -1 0 0
vn 0 -0.9334 0.3587
vn 0 -0.9334 0.3587
vn -1 0 0
vn -1 0 0
vn 0 0.966 -0.2584
vn 0 0.966 -0.2584
vn -1 0 0
vn -1 0 0
vn 0 0.9986 0.05272
vn 0 0.9986 0.05272
vn -1 0 0
vn -1 0 0
vn 0 -0.7769 0.6296
vn 0 -0.7769 0.6296
vn -1 0 0
vn -1 0 0
vn 0 0.8389 -0.5443
vn 0 0.8389 -0.5443
vn -1 0 0
vn -1 0 0
vn 0 -0.5443 0.8389
vn 0 -0.5443 0.8389
vn -1 0 0
vn -1 0 0
vn 0 0.6296 -0.7769
vn 0 0.6296 -0.7769
vn -1 0 0
vn -1 0 0
vn 0 -0.2584 0.966
vn 0 -0.2584 0.966
vn -1 0 0
vn -1 0 0
vn 0 0.3587 -0.9334
vn 0 0.3587 -0.9334
vn -1 0 0
vn -1 0 0
vn 0 0.05272 0.9986
vn 0 0.05272 0.9986
vn -1 0 0
vn -1 0 0
vn 0 0.05272 -0.9986
vn 0 0.05272 -0.9986
vn -1 0 0
vn -1 0 0
vn 0 0.3587 0.9334
vn 0 0.3587 0.9334
vn -1 0 0
vn -1 0 0
vn 0 -0.2584 -0.966
vn 0 -0.2584 -0.966
vn -1 0 0
vn -1 0 0
vn 0 0.6296 0.7769
vn 0 0.6296 0.7769
vn -1 0 0
vn -1 0 0
vn 0 -0.5443 -0.8389
vn 0 -0.5443 -0.8389
vn -1 0 0
vn -1 0 0
vn 0 0.8389 0.5443
vn 0 0.8389 0.5443
vn -1 0 0
vn -1 0 0
vn 0 -0.7769 -0.6296
vn 0 -0.7769 -0.6296
vn -1 0 0
vn -1 0 0
vn 0 0.966 0.2584
vn 0 0.966 0.2584
vn -1 0 0
vn -1 0 0
vn 0 -0.9334 -0.3587
vn 0 -0.9334 -0.3587
vn -1 0 0
vn -1 0 0
vn 0 0.9986 -0.05272
vn 0 0.9986 -0.05272
vn -1 0 0
vn -1 0 0
vn 0 -0.9986 -0.05272
vn 0 -0.9986 -0.05272
vn -1 0 0
vn -1 0 0
vn 0 0.9334 -0.3587
vn 0 0.9334 -0.3587
vn -1 0 0
vn -1 0 0
vn 0 -0.966 0.2584
vn 0 -0.966 0.2584
vn -1 0 0
vn -1 0 0
vn 0 0.7769 -0.6296
vn 0 0.7769 -0.6296
vn -1 0 0
vn -1 0 0
vn 0 -0.8389 0.5443
vn 0 -0.8389 0.5443
vn -1 0 0
vn -1 0 0
vn 0 0.5443 -0.8389
vn 0 0.5443 -0.8389
vn -1 0 0
vn -1 0 0
vn 0 -0.6296 0.7769
vn 0 -0.6296 0.7769
vn -1 0 0
vn -1 0 0
vn 0 0.2584 -0.966
vn 0 0.2584 -0.966
vn -1 0 0
vn -1 0 0
vn 0 -0.3587 0.9334
vn 0 -0.3587 0.9334
vn -1 0 0
vn -1 0 0
vn 0 -0.05272 -0.9986
vn 0 -0.05272 -0.9986
vn -1 0 0
vn -1 0 0
vn 0 -0.05272 0.9986
vn 0 -0.05272 0.9986
vn -1 0 0
vn -1 0 0
vn 0 -0.3587 -0.9334
vn 0 -0.3587 -0.9334
vn -1 0 0
vn -1 0 0
vn 0 0.2584 0.966
vn 0 0.2584 0.966
vn -1 0 0
vn -1 0 0
vn 0 -0.6296 -0.7769
vn 0 -0.6296 -0.7769
vn -1 0 0
vn -1 0 0
vn 0 0.5443 0.8389
vn 0 0.5443 0.8389
vn -1 0 0
vn -1 0 0
vn 0 -0.8389 -0.5443
vn 0 -0.8389 -0.5443
vn -1 0 0
vn -1 0 0
vn 0 0.7769 0.6296
vn 0 0.7769 0.6296
vn -1 0 0
vn -1 0 0
vn 0 -0.966 -0.2584
vn 0 -0.966 -0.2584
vn -1 0 0
vn -1 0 0
vn 0 0.9334 0.3587
vn 0 0.9334 0.3587
vn 0 0.9334 -0.3587
vn 0 0.9334 -0.3587
vn 1 0 0
vn 1 0 0
vn 0 0.9986 -0.05272
vn 0 0.9986 -0.05272
vn 1 0 0
vn 1 0 0
vn 0 0.7769 -0.6296
vn 0 0.7769 -0.6296
vn 1 0 0
vn 1 0 0
vn 0 0.5443 -0.8389
vn 0 0.5443 -0.8389
vn 1 0 0
vn 1 0 0
vn 0 0.2584 -0.966
vn 0 0.2584 -0.966
vn 1 0 0
vn 1 0 0
vn 0 -0.05272 -0.9986
vn 0 -0.05272 -0.9986
vn 1 0 0
vn 1 0 0
vn 0 -0.3587 -0.9334
vn 0 -0.3587 -0.9334
vn 1 0 0
vn 1 0 0
vn 0 -0.6296 -0.7769
vn 0 -0.6296 -0.7769
vn 1 0 0
vn 1 0 0
vn 0 -0.8389 -0.5443
vn 0 -0.8389 -0.5443
vn 1 0 0
vn 1 0 0
vn 0 -0.966 -0.2584
vn 0 -0.966 -0.2584
vn 1 0 0
vn 1 0 0
vn 0 -0.9986 0.05272
vn 0 -0.9986 0.05272
vn 1 0 0
vn 1 0 0
vn 0 -0.9334 0.3587
vn 0 -0.9334 0.3587
vn 1 0 0
vn 1 0 0
vn 0 -0.7769 0.6296
vn 0 -0.7769 0.6296
vn 1 0 0
vn 1 0 0
vn 0 -0.5443 0.8389
vn 0 -0.5443 0.8389
vn 1 0 0
vn 1 0 0
vn 0 -0.2584 0.966
vn 0 -0.2584 0.966
vn 1 0 0
vn 1 0 0
vn 0 0.05272 0.9986
vn 0 0.05272 0.9986
vn 1 0 0
vn 1 0 0
vn 0 0.3587 0.9334
vn 0 0.3587 0.9334
vn 1 0 0
vn 1 0 0
vn 0 0.6296 0.7769
vn 0 0.6296 0.7769
vn 1 0 0
vn 1 0 0
vn 0 0.8389 0.5443
vn 0 0.8389 0.5443
vn 1 0 0
vn 1 0 0
vn 0 0.966 0.2584
vn 0 0.966 0.2584
vn 1 0 0
vn 1 0 0
vn 1 0 0
vn 1 0 0
vn 0 -0.966 0.2584
vn 0 -0.966 0.2584
vn 1 0 0
vn 1 0 0
vn 0 -0.9986 -0.05272
vn 0 -0.9986 -0.05272
vn 1 0 0
vn 1 0 0
vn 0 -0.8389 0.5443
vn 0 -0.8389 0.5443
vn 1 0 0
vn 1 0 0
vn 0 -0.6296 0.7769
vn 0 -0.6296 0.7769
vn 1 0 0
vn 1 0 0
vn 0 -0.3587 0.9334
vn 0 -0.3587 0.9334
vn 1 0 0
vn 1 0 0
vn 0 -0.05272 0.9986
vn 0 -0.05272 0.9986
vn 1 0 0
vn 1 0 0
vn 0 0.2584 0.966
vn 0 0.2584 0.966
vn 1 0 0
vn 1 0 0
vn 0 0.5443 0.8389
vn 0 0.5443 0.8389
vn 1 0 0
vn 1 0 0
vn 0 0.7769 0.6296
vn 0 0.7769 0.6296
vn 1 0 0
vn 1 0 0
vn 0 0.9334 0.3587
vn 0 0.9334 0.3587
vn 1 0 0
vn 1 0 0
vn 0 0.9986 0.05272
vn 0 0.9986 0.05272
vn 1 0 0
vn 1 0 0
vn 0 0.966 -0.2584
vn 0 0.966 -0.2584
vn 1 0 0
vn 1 0 0
vn 0 0.8389 -0.5443
vn 0 0.8389 -0.5443
vn 1 0 0
vn 1 0 0
vn 0 0.6296 -0.7769
vn 0 0.6296 -0.7769
vn 1 0 0
vn 1 0 0
vn 0 0.3587 -0.9334
vn 0 0.3587 -0.9334
vn 1 0 0
vn 1 0 0
vn 0 0.05272 -0.9986
vn 0 0.05272 -0.9986
vn 1 0 0
vn 1 0 0
vn 0 -0.2584 -0.966
vn 0 -0.2584 -0.966
vn 1 0 0
vn 1 0 0
vn 0 -0.5443 -0.8389
vn 0 -0.5443 -0.8389
vn 1 0 0
vn 1 0 0
vn 0 -0.7769 -0.6296
vn 0 -0.7769 -0.6296
vn 1 0 0
vn 1 0 0
vn 0 -0.9334 -0.3587
vn 0 -0.9334 -0.3587
f 33//5 35//1 40//13 38//9
f 29//17 33//6 38//10 36//21
f 28//25 29//18 36//22 31//29
f 23//33 28//26 31//30 25//37
f 20//41 23//34 25//38 19//45
f 17//49 20//42 19//46 15//53
f 13//57 17//50 15//54 9//61
f 11//65 13//58 9//62 4//69
f 7//73 11//66 4//70 2//77
f 6//81 7//74 2//78 1//85
f 8//89 6//82 1//86 3//93
f 12//97 8//90 3//94 5//101
f 14//105 12//98 5//102 10//109
f 18//113 14//106 10//110 16//117
f 21//121 18//114 16//118 22//125
f 24//129 21//122 22//126 26//133
f 27//137 24//130 26//134 32//141
f 30//145 27//138 32//142 37//149
f 34//153 30//146 37//150 39//157
f 35//2 34//154 39//158 40//14
f 38//11 40//15 120//165 118//161
f 36//23 38//12 118//162 116//169
f 31//31 36//24 116//170 111//173
f 25//39 31//32 111//174 105//177
f 19//47 25//40 105//178 99//181
f 15//55 19//48 99//182 95//185
f 9//63 15//56 95//186 89//189
f 4//71 9//64 89//190 84//193
f 2//79 4//72 84//194 82//197
f 1//87 2//80 82//198 81//201
f 3//95 1//88 81//202 83//205
f 5//103 3//96 83//206 85//209
f 10//111 5//104 85//210 90//213
f 16//119 10//112 90//214 96//217
f 22//127 16//120 96//218 102//221
f 26//135 22//128 102//222 106//225
f 32//143 26//136 106//226 112//229
f 37//151 32//144 112//230 117//233
f 39//159 37//152 117//234 119//237
f 40//16 39//160 119//238 120//166
f 118//163 120//167 115//245 113//241
f 116//171 118//164 113//242 109//249
f 111//175 116//172 109//250 108//253
f 105//179 111//176 108//254 103//257
f 99//183 105//180 103//258 100//261
f 95//187 99//184 100//262 97//265
f 89//191 95//188 97//266 93//269
f 84//195 89//192 93//270 91//273
f 82//199 84//196 91//274 87//277
f 81//203 82//200 87//278 86//281
f 83//207 81//204 86//282 88//285
f 85//211 83//208 88//286 92//289
f 90//215 85//212 92//290 94//293
f 96//219 90//216 94//294 98//297
f 102//223 96//220 98//298 101//301
f 106//227 102//224 101//302 104//305
f 112//231 106//228 104//306 107//309
f 117//235 112//232 107//310 110//313
f 119//239 117//236 110//314 114//317
f 120//168 119//240 114//318 115//246
f 113//243 115//247 35//3 33//7
f 109//251 113//244 33//8 29//19
f 108//255 109//252 29//20 28//27
f 103//259 108//256 28//28 23//35
f 100//263 103//260 23//36 20//43
f 97//267 100//264 20//44 17//51
f 93//271 97//268 17//52 13//59
f 91//275 93//272 13//60 11//67
f 87//279 91//276 11//68 7//75
f 86//283 87//280 7//76 6//83
f 88//287 86//284 6//84 8//91
f 92//291 88//288 8//92 12//99
f 94//295 92//292 12//100 14//107
f 98//299 94//296 14//108 18//115
f 101//303 98//300 18//116 21//123
f 104//307 101//304 21//124 24//131
f 107//311 104//308 24//132 27//139
f 110//315 107//312 27//140 30//147
f 114//319 110//316 30//148 34//155
f 115//248 114//320 34//156 35//4
f 73//325 75//321 80//333 78//329
f 69//337 73//326 78//330 76//341
f 67//345 69//338 76//342 71//349
f 63//353 67//346 71//350 65//357
f 60//361 63//354 65//358 59//365
f 57//369 60//362 59//366 55//373
f 53//377 57//370 55//374 49//381
f 51//385 53//378 49//382 44//389
f 47//393 51//386 44//390 42//397
f 46//401 47//394 42//398 41//405
f 48//409 46//402 41//406 43//413
f 52//417 48//410 43//414 45//421
f 54//425 52//418 45//422 50//429
f 58//433 54//426 50//430 56//437
f 61//441 58//434 56//438 62//445
f 64//449 61//442 62//446 66//453
f 68//457 64//450 66//454 72//461
f 70//465 68//458 72//462 77//469
f 74//473 70//466 77//470 79//477
f 75//322 74//474 79//478 80//334
f 78//331 80//335 160//485 158//481
f 76//343 78//332 158//482 156//489
f 71//351 76//344 156//490 151//493
f 65//359 71//352 151//494 145//497
f 59//367 65//360 145//498 139//501
f 55//375 59//368 139//502 135//505
f 49//383 55//376 135//506 129//509
f 44//391 49//384 129//510 124//513
f 42//399 44//392 124//514 122//517
f 41//407 42//400 122//518 121//521
f 43//415 41//408 121//522 123//525
f 45//423 43//416 123//526 125//529
f 50//431 45//424 125//530 130//533
f 56//439 50//432 130//534 136//537
f 62//447 56//440 136//538 142//541
f 66//455 62//448 142//542 146//545
f 72//463 66//456 146//546 152//549
f 77//471 72//464 152//550 157//553
f 79//479 77//472 157//554 159//557
f 80//336 79//480 159//558 160//486
f 158//483 160//487 155//565 153//561
f 156//491 158//484 153//562 149//569
f 151//495 156//492 149//570 147//573
f 145//499 151//496 147//574 143//577
f 139//503 145//500 143//578 140//581
f 135//507 139//504 140//582 137//585
f 129//511 135//508 137//586 133//589
f 124//515 129//512 133//590 131//593
f 122//519 124//516 131//594 127//597
f 121//523 122//520 127//598 126//601
f 123//527 121//524 126//602 128//605
f 125//531 123//528 128//606 132//609
f 130//535 125//532 132//610 134//613
f 136//539 130//536 134//614 138//617
f 142//543 136//540 138//618 141//621
f 146//547 142//544 141//622 144//625
f 152//551 146//548 144//626 148//629
f 157//555 152//552 148//630 150//633
f 159//559 157//556 150//634 154//637
f 160//488 159//560 154//638 155//566
f 153//563 155//567 75//323 73//327
f 149//571 153//564 73//328 69//339
f 147//575 149//572 69//340 67//347
f 143//579 147//576 67//348 63//355
f 140//583 143//580 63//356 60//363
f 137//587 140//584 60//364 57//371
f 133//591 137//588 57//372 53//379
f 131//595 133//592 53//380 51//387
f 127//599 131//596 51//388 47//395
f 126//603 127//600 47//396 46//403
f 128//607 126//604 46//404 48//411
f 132//611 128//608 48//412 52//419
f 134//615 132//612 52//420 54//427
f 138//619 134//616 54//428 58//435
f 141//623 138//620 58//436 61//443
f 144//627 141//624 61//444 64//451
f 148//631 144//628 64//452 68//459
f 150//635 148//632 68//460 70//467
f 154//639 150//636 70//468 74//475
f 155//568 154//640 74//476 75//324
