# Rhino

v 12.32363414764404 4.999999046325684 5.44556999206543
v 12.32363414764404 4.999999046325684 5.44556999206543
v 12.32363414764404 4.999999046325684 0.04773100093007088
v 12.32363414764404 4.999999046325684 0.04773100093007088
v 11.9461259841919 6.8978590965271 5.44556999206543
v 11.9461259841919 6.8978590965271 5.44556999206543
v 11.9461259841919 6.8978590965271 0.04773100093007088
v 11.9461259841919 6.8978590965271 0.04773100093007088
v 11.94612503051758 3.102139949798584 5.44556999206543
v 11.94612503051758 3.102139949798584 5.44556999206543
v 11.94612503051758 3.102139949798584 0.04773100093007088
v 11.94612503051758 3.102139949798584 0.04773100093007088
v 10.87107467651367 8.506787300109863 5.44556999206543
v 10.87107467651367 8.506787300109863 5.44556999206543
v 10.87107467651367 8.506787300109863 0.04773100093007088
v 10.87107467651367 8.506787300109863 0.04773100093007088
v 10.87107372283936 1.493211984634399 5.44556999206543
v 10.87107372283936 1.493211984634399 5.44556999206543
v 10.87107372283936 1.493211984634399 0.04773100093007088
v 10.87107372283936 1.493211984634399 0.04773100093007088
v 9.262146949768066 9.58183765411377 5.44556999206543
v 9.262146949768066 9.58183765411377 5.44556999206543
v 9.262146949768066 9.58183765411377 0.04773100093007088
v 9.262146949768066 9.58183765411377 0.04773100093007088
v 9.262145042419434 0.418161004781723 5.44556999206543
v 9.262145042419434 0.418161004781723 5.44556999206543
v 9.262145042419434 0.418161004781723 0.04773100093007088
v 9.262145042419434 0.418161004781723 0.04773100093007088
v 7.364287853240967 9.959345817565918 5.44556999206543
v 7.364287853240967 9.959345817565918 5.44556999206543
v 7.364287853240967 9.959345817565918 0.04773100093007088
v 7.364287853240967 9.959345817565918 0.04773100093007088
v 7.364285945892334 0.04065399989485741 5.44556999206543
v 7.364285945892334 0.04065399989485741 5.44556999206543
v 7.364285945892334 0.04065399989485741 0.04773100093007088
v 7.364285945892334 0.04065399989485741 0.04773100093007088
v 5.466431140899658 9.581838607788086 5.44556999206543
v 5.466431140899658 9.581838607788086 5.44556999206543
v 5.466431140899658 9.581838607788086 0.04773100093007088
v 5.466431140899658 9.581838607788086 0.04773100093007088
v 5.466425895690918 0.4181619882583618 5.44556999206543
v 5.466425895690918 0.4181619882583618 5.44556999206543
v 5.466425895690918 0.4181619882583618 0.04773100093007088
v 5.466425895690918 0.4181619882583618 0.04773100093007088
v 3.857502937316895 8.506789207458496 5.44556999206543
v 3.857502937316895 8.506789207458496 5.44556999206543
v 3.857502937316895 8.506789207458496 0.04773100093007088
v 3.857502937316895 8.506789207458496 0.04773100093007088
v 3.857500076293945 1.493214011192322 5.44556999206543
v 3.857500076293945 1.493214011192322 5.44556999206543
v 3.857500076293945 1.493214011192322 0.04773100093007088
v 3.857500076293945 1.493214011192322 0.04773100093007088
v 2.782450914382935 6.897861957550049 5.44556999206543
v 2.782450914382935 6.897861957550049 5.44556999206543
v 2.782450914382935 6.897861957550049 0.04773100093007088
v 2.782450914382935 6.897861957550049 0.04773100093007088
v 2.782449007034302 3.102143049240112 5.44556999206543
v 2.782449007034302 3.102143049240112 5.44556999206543
v 2.782449007034302 3.102143049240112 0.04773100093007088
v 2.782449007034302 3.102143049240112 0.04773100093007088
v 2.404942989349365 5.000001907348633 5.44556999206543
v 2.404942989349365 5.000001907348633 5.44556999206543
v 2.404942989349365 5.000001907348633 0.04773100093007088
v 2.404942989349365 5.000001907348633 0.04773100093007088
vn 0.9978090524673462 -0.06615930050611496 0
vn 0 0 1
vn 0.997809112071991 0.06615868955850601 0
vn 0 0 -1
vn 0.9471732974052429 0.320722222328186 0
vn 0 0 1
vn 0.8965375423431397 0.4429677724838257 0
vn 0 0 -1
vn 0.8965374231338501 -0.44296795129776 0
vn 0 0 1
vn 0.9471731781959534 -0.3207226097583771 0
vn 0 0 -1
vn 0.7523390054702759 0.6587761640548706 0
vn 0 0 1
vn 0.6587761640548706 0.7523390054702759 0
vn 0 0 -1
vn 0.6587760448455811 -0.7523391246795654 0
vn 0 0 1
vn 0.7523389458656311 -0.6587762236595154 0
vn 0 0 -1
vn 0.4429678022861481 0.8965375423431397 0
vn 0 0 1
vn 0.3207222819328308 0.9471732974052429 0
vn 0 0 -1
vn 0.3207218647003174 -0.9471734166145325 0
vn 0 0 1
vn 0.4429674744606018 -0.8965376615524292 0
vn 0 0 -1
vn 0.06615901738405228 0.997809112071991 0
vn 0 0 1
vn 0 0 -1
vn -0.0661587193608284 0.997809112071991 0
vn 0 0 1
vn -0.06615901738405228 -0.997809112071991 0
vn 0.06615860760211945 -0.997809112071991 0
vn 0 0 -1
vn 0 0 1
vn -0.3207219541072846 0.9471734166145325 0
vn 0 0 -1
vn -0.4429674446582794 0.8965376615524292 0
vn 0 0 1
vn -0.4429683685302734 -0.8965372443199158 0
vn 0 0 -1
vn -0.3207225203514099 -0.9471731781959534 0
vn 0 0 1
vn -0.658775806427002 0.7523393034934998 0
vn 0 0 -1
vn -0.7523385882377625 0.6587766408920288 0
vn 0 0 1
vn -0.7523393034934998 -0.658775806427002 0
vn 0 0 -1
vn -0.6587767601013184 -0.7523384690284729 0
vn 0 0 1
vn -0.8965373039245606 0.4429681897163391 0
vn 0 0 -1
vn -0.9471732378005981 0.3207224309444428 0
vn 0 0 1
vn -0.947173535823822 -0.3207215368747711 0
vn 0 0 -1
vn -0.8965377807617188 -0.4429673254489899 0
vn 0 0 1
vn -0.9978090524673462 0.06615918874740601 0
vn 0 0 -1
vn -0.997809112071991 -0.06615827232599258 0
f 16//16 55//55 47//47 24//24
f 8//8 63//63 55//55 16//16
f 4//4 59//59 63//63 8//8
f 12//12 51//51 59//59 4//4
f 20//20 43//43 51//51 12//12
f 28//28 36//36 43//43 20//20
f 53//53 14//14 22//22 45//45
f 61//61 6//6 14//14 53//53
f 57//57 2//2 6//6 61//61
f 49//49 10//10 2//2 57//57
f 41//41 18//18 10//10 49//49
f 33//33 26//26 18//18 41//41
f 22//22 30//30 37//37 45//45
f 24//24 47//47 39//39 31//31
f 38//38 29//29 32//32 40//40
f 29//29 21//21 23//23 32//32
f 21//21 13//13 15//15 23//23
f 13//13 5//5 7//7 15//15
f 5//5 1//1 3//3 7//7
f 1//1 9//9 11//11 3//3
f 9//9 17//17 19//19 11//11
f 17//17 25//25 27//27 19//19
f 25//25 34//34 35//35 27//27
f 34//34 42//42 44//44 35//35
f 42//42 50//50 52//52 44//44
f 50//50 58//58 60//60 52//52
f 58//58 62//62 64//64 60//60
f 62//62 54//54 56//56 64//64
f 54//54 46//46 48//48 56//56
f 46//46 38//38 40//40 48//48
