# RokuSuper Output Ver2.0 for Wavefront Obj

v 1.97397400 5.00000200 -0.00072500
v 2.82596700 2.94311000 -0.00072500
v 7.79174200 5.00000200 -0.00072500
v 2.82596700 7.05689000 -0.00072500
v 4.88285800 7.90888400 -0.00072500
v 6.93975100 7.05689000 -0.00072500
v 6.93975100 7.05689000 0.76891100
v 2.82596700 7.05689000 0.76891100
v 4.88285800 7.90888400 0.76891100
v 6.93975100 2.94311000 0.76891100
v 4.88285800 2.09111600 0.76891100
v 2.82596700 2.94311000 0.76891100
v 7.79174200 5.00000200 0.76891100
v 1.97397400 5.00000200 0.76891100
v 4.88285800 2.09111600 -0.00072500
v 6.93975100 2.94311000 -0.00072500

vn 0.00000000 0.00000000 -1.00000000
vn 0.00000000 0.00000000 -1.00000000
vn 0.00000000 0.00000000 -1.00000000
vn 0.00000000 0.00000000 -1.00000000
vn 0.00000000 0.00000000 -1.00000000
vn 0.00000000 0.00000000 -1.00000000
vn 0.00000000 0.00000000 -1.00000000
vn 0.00000000 0.00000000 -1.00000000
vn 0.00000000 0.00000000 1.00000000
vn 0.00000000 0.00000000 1.00000000
vn 0.00000000 0.00000000 1.00000000
vn 0.00000000 0.00000000 1.00000000
vn 0.00000000 0.00000000 1.00000000
vn 0.00000000 0.00000000 1.00000000
vn 0.00000000 0.00000000 1.00000000
vn 0.00000000 0.00000000 1.00000000
vn 0.00000000 0.00000000 1.00000000
vn 0.00000000 0.00000000 1.00000000
vn 0.00000000 0.00000000 1.00000000
vn 0.00000000 0.00000000 1.00000000
vn 0.00000000 0.00000000 -1.00000000
vn 0.00000000 0.00000000 -1.00000000
vn 0.00000000 0.00000000 -1.00000000
vn 0.00000000 0.00000000 -1.00000000
vn -0.60374827 0.79717503 0.00000000
vn 0.13677370 0.99060232 0.00000000
vn -0.13677404 0.99060227 0.00000000
vn -0.79717497 0.60374835 0.00000000
vn 0.13677370 0.99060232 0.00000000
vn 0.79717525 0.60374797 0.00000000
vn 0.60374828 0.79717502 0.00000000
vn -0.13677404 0.99060227 0.00000000
vn 0.79717525 0.60374797 0.00000000
vn 0.99060239 -0.13677318 0.00000000
vn 0.99060230 0.13677386 0.00000000
vn 0.60374828 0.79717502 0.00000000
vn 0.99060239 -0.13677318 0.00000000
vn 0.60374845 -0.79717489 0.00000000
vn 0.79717554 -0.60374759 0.00000000
vn 0.99060230 0.13677386 0.00000000
vn 0.60374845 -0.79717489 0.00000000
vn -0.13677404 -0.99060227 0.00000000
vn 0.13677370 -0.99060232 0.00000000
vn 0.79717554 -0.60374759 0.00000000
vn -0.13677404 -0.99060227 0.00000000
vn -0.79717526 -0.60374797 0.00000000
vn -0.60374843 -0.79717490 0.00000000
vn 0.13677370 -0.99060232 0.00000000
vn -0.79717526 -0.60374797 0.00000000
vn -0.99060225 0.13677418 0.00000000
vn -0.99060235 -0.13677350 0.00000000
vn -0.60374843 -0.79717490 0.00000000
vn -0.99060225 0.13677418 0.00000000
vn -0.60374827 0.79717503 0.00000000
vn -0.79717497 0.60374835 0.00000000
vn -0.99060235 -0.13677350 0.00000000

g ²ã
f 2//1 1//2 4//3 3//4
f 4//5 5//6 6//7 3//8
f 13//9 7//10 9//11 8//12
f 11//13 10//14 13//15 12//16
f 14//17 12//18 13//19 8//20
f 16//21 15//22 2//23 3//24
f 8//25 9//26 5//27 4//28
f 9//29 7//30 6//31 5//32
f 7//33 13//34 3//35 6//36
f 13//37 10//38 16//39 3//40
f 10//41 11//42 15//43 16//44
f 11//45 12//46 2//47 15//48
f 12//49 14//50 1//51 2//52
f 14//53 8//54 4//55 1//56

