# Rhino

v 20.54819679260254 2.499999046325684 1.324318051338196
v 20.54819679260254 2.499999046325684 1.324318051338196
v 20.54819679260254 2.499999046325684 0.06747499853372574
v 20.54819679260254 2.499999046325684 0.06747499853372574
v 19.94418334960938 5.536587238311768 1.324318051338196
v 19.94418334960938 5.536587238311768 1.324318051338196
v 19.94418334960938 5.536587238311768 0.06747499853372574
v 19.94418334960938 5.536587238311768 0.06747499853372574
v 19.94418144226074 -0.5365899801254273 1.324318051338196
v 19.94418144226074 -0.5365899801254273 1.324318051338196
v 19.94418144226074 -0.5365899801254273 0.06747499853372574
v 19.94418144226074 -0.5365899801254273 0.06747499853372574
v 18.22409439086914 8.110882759094238 1.324318051338196
v 18.22409439086914 8.110882759094238 1.324318051338196
v 18.22409439086914 8.110882759094238 0.06747499853372574
v 18.22409439086914 8.110882759094238 0.06747499853372574
v 18.22409248352051 -3.110883951187134 1.324318051338196
v 18.22409248352051 -3.110883951187134 1.324318051338196
v 18.22409248352051 -3.110883951187134 0.06747499853372574
v 18.22409248352051 -3.110883951187134 0.06747499853372574
v 15.64979934692383 9.830970764160156 1.324318051338196
v 15.64979934692383 9.830970764160156 1.324318051338196
v 15.64979934692383 9.830970764160156 0.06747499853372574
v 15.64979934692383 9.830970764160156 0.06747499853372574
v 15.64979553222656 -4.830972194671631 1.324318051338196
v 15.64979553222656 -4.830972194671631 1.324318051338196
v 15.64979553222656 -4.830972194671631 0.06747499853372574
v 15.64979553222656 -4.830972194671631 0.06747499853372574
v 12.61321067810059 10.43498611450195 1.324318051338196
v 12.61321067810059 10.43498611450195 1.324318051338196
v 12.61321067810059 10.43498611450195 0.06747499853372574
v 12.61321067810059 10.43498611450195 0.06747499853372574
v 12.61320781707764 -5.43498706817627 1.324318051338196
v 12.61320781707764 -5.43498706817627 1.324318051338196
v 12.61320781707764 -5.43498706817627 0.06747499853372574
v 12.61320781707764 -5.43498706817627 0.06747499853372574
v 9.576627731323242 9.830974578857422 1.324318051338196
v 9.576627731323242 9.830974578857422 1.324318051338196
v 9.576627731323242 9.830974578857422 0.06747499853372574
v 9.576627731323242 9.830974578857422 0.06747499853372574
v 9.576620101928711 -4.830970764160156 1.324318051338196
v 9.576620101928711 -4.830970764160156 1.324318051338196
v 9.576620101928711 -4.830970764160156 0.06747499853372574
v 9.576620101928711 -4.830970764160156 0.06747499853372574
v 7.002330780029297 8.110885620117188 1.324318051338196
v 7.002330780029297 8.110885620117188 1.324318051338196
v 7.002330780029297 8.110885620117188 0.06747499853372574
v 7.002330780029297 8.110885620117188 0.06747499853372574
v 7.002326011657715 -3.110879898071289 1.324318051338196
v 7.002326011657715 -3.110879898071289 1.324318051338196
v 7.002326011657715 -3.110879898071289 0.06747499853372574
v 7.002326011657715 -3.110879898071289 0.06747499853372574
v 5.282240867614746 5.53659200668335 1.324318051338196
v 5.282240867614746 5.53659200668335 1.324318051338196
v 5.282240867614746 5.53659200668335 0.06747499853372574
v 5.282240867614746 5.53659200668335 0.06747499853372574
v 5.282238006591797 -0.5365840196609497 1.324318051338196
v 5.282238006591797 -0.5365840196609497 1.324318051338196
v 5.282238006591797 -0.5365840196609497 0.06747499853372574
v 5.282238006591797 -0.5365840196609497 0.06747499853372574
v 4.678225040435791 2.500004053115845 1.324318051338196
v 4.678225040435791 2.500004053115845 1.324318051338196
v 4.678225040435791 2.500004053115845 0.06747499853372574
v 4.678225040435791 2.500004053115845 0.06747499853372574
vn 0.997809112071991 0.06615857034921646 0
vn 0 0 1
vn 0.997809112071991 -0.06615913659334183 0
vn 0 0 -1
vn 0.8965376019477844 0.4429676532745361 0
vn 0 0 1
vn 0.9471733570098877 0.3207219839096069 0
vn 0 0 -1
vn 0.9471732378005981 -0.3207224309444428 0
vn 0 0 1
vn 0.8965374231338501 -0.4429680407047272 0
vn 0 0 -1
vn 0.6587761044502258 0.7523390650749207 0
vn 0 0 1
vn 0.7523390054702759 0.6587761640548706 0
vn 0 0 -1
vn 0.7523387670516968 -0.6587764024734497 0
vn 0 0 1
vn 0.6587759256362915 -0.7523391842842102 0
vn 0 0 -1
vn 0.3207221329212189 0.9471733570098877 0
vn 0 0 1
vn 0.4429676830768585 0.8965376019477844 0
vn 0 0 -1
vn 0.4429675936698914 -0.8965376019477844 0
vn 0 0 1
vn 0.3207220733165741 -0.9471733570098877 0
vn 0 0 -1
vn 0 0 1
vn -0.066158227622509 0.9978091716766357 0
vn 0.06615918129682541 0.9978090524673462 0
vn 0 0 -1
vn 0.06615875661373138 -0.997809112071991 0
vn 0 0 1
vn 0 0 -1
vn -0.06615907698869705 -0.997809112071991 0
vn 0 0 1
vn -0.4429673552513123 0.896537721157074 0
vn 0 0 -1
vn -0.3207215070724487 0.947173535823822 0
vn 0 0 1
vn -0.3207226395606995 -0.9471731781959534 0
vn 0 0 -1
vn -0.4429683685302734 -0.8965372443199158 0
vn 0 0 1
vn -0.752338707447052 0.6587765216827393 0
vn 0 0 -1
vn -0.6587759256362915 0.7523391842842102 0
vn 0 0 1
vn -0.6587767004966736 -0.7523385286331177 0
vn 0 0 -1
vn -0.7523393034934998 -0.658775806427002 0
vn 0 0 1
vn -0.9471731781959534 0.3207225501537323 0
vn 0 0 -1
vn -0.8965373039245606 0.4429682195186615 0
vn 0 0 1
vn -0.896537721157074 -0.4429673850536346 0
vn 0 0 -1
vn -0.9471734762191773 -0.3207216858863831 0
vn 0 0 1
vn -0.997809112071991 -0.06615833938121796 0
vn 0 0 -1
vn -0.9978090524673462 0.06615929305553436 0
f 14//14 22//22 29//29 6//6
f 2//2 6//6 29//29 10//10
f 18//18 10//10 29//29 26//26
f 34//34 26//26 29//29 41//41
f 49//49 41//41 29//29 57//57
f 61//61 57//57 29//29 53//53
f 45//45 53//53 29//29 37//37
f 63//63 55//55 47//47 59//59
f 51//51 59//59 47//47 43//43
f 35//35 43//43 47//47 28//28
f 20//20 28//28 47//47 12//12
f 4//4 12//12 47//47 8//8
f 16//16 8//8 47//47 24//24
f 32//32 24//24 47//47 39//39
f 40//40 38//38 30//30 31//31
f 31//31 30//30 21//21 23//23
f 23//23 21//21 13//13 15//15
f 15//15 13//13 5//5 7//7
f 7//7 5//5 1//1 3//3
f 3//3 1//1 9//9 11//11
f 11//11 9//9 17//17 19//19
f 19//19 17//17 25//25 27//27
f 27//27 25//25 33//33 36//36
f 36//36 33//33 42//42 44//44
f 44//44 42//42 50//50 52//52
f 52//52 50//50 58//58 60//60
f 60//60 58//58 62//62 64//64
f 64//64 62//62 54//54 56//56
f 56//56 54//54 46//46 48//48
f 48//48 46//46 38//38 40//40
