# Rhino

v 33.1716423034668 5.016726016998291 2.856276988983154
v 33.1716423034668 5.016726016998291 2.856276988983154
v 33.1716423034668 4.950303077697754 2.856276988983154
v 33.1716423034668 4.950303077697754 2.856276988983154
v 33.1716423034668 4.938908100128174 3.044147968292236
v 33.1716423034668 4.938908100128174 3.044147968292236
v 33.1716423034668 4.938908100128174 2.668406963348389
v 33.1716423034668 4.938908100128174 2.668406963348389
v 33.1716423034668 4.891940116882324 2.997179985046387
v 33.1716423034668 4.891940116882324 2.997179985046387
v 33.1716423034668 4.891940116882324 2.715373992919922
v 33.1716423034668 4.891940116882324 2.715373992919922
v 33.1716423034668 4.751037120819092 3.121967077255249
v 33.1716423034668 4.751037120819092 3.121967077255249
v 33.1716423034668 4.751037120819092 3.055543899536133
v 33.1716423034668 4.751037120819092 3.055543899536133
v 33.1716423034668 4.751037120819092 2.657010078430176
v 33.1716423034668 4.751037120819092 2.657010078430176
v 33.1716423034668 4.751037120819092 2.590588092803955
v 33.1716423034668 4.751037120819092 2.590588092803955
v 33.1716423034668 4.610134124755859 2.997179985046387
v 33.1716423034668 4.610134124755859 2.997179985046387
v 33.1716423034668 4.610134124755859 2.715373992919922
v 33.1716423034668 4.610134124755859 2.715373992919922
v 33.1716423034668 4.56316614151001 3.044147968292236
v 33.1716423034668 4.56316614151001 3.044147968292236
v 33.1716423034668 4.56316614151001 2.668406963348389
v 33.1716423034668 4.56316614151001 2.668406963348389
v 33.1716423034668 4.551770210266113 2.856276988983154
v 33.1716423034668 4.551770210266113 2.856276988983154
v 33.1716423034668 4.485348224639893 2.856276988983154
v 33.1716423034668 4.485348224639893 2.856276988983154
v 33.1716423034668 0.5146520137786865 2.856276988983154
v 33.1716423034668 0.5146520137786865 2.856276988983154
v 33.1716423034668 0.4482299983501434 2.856276988983154
v 33.1716423034668 0.4482299983501434 2.856276988983154
v 33.1716423034668 0.4368340075016022 3.044147968292236
v 33.1716423034668 0.4368340075016022 3.044147968292236
v 33.1716423034668 0.4368340075016022 2.668406963348389
v 33.1716423034668 0.4368340075016022 2.668406963348389
v 33.1716423034668 0.3898659944534302 2.997179985046387
v 33.1716423034668 0.3898659944534302 2.997179985046387
v 33.1716423034668 0.3898659944534302 2.715373992919922
v 33.1716423034668 0.3898659944534302 2.715373992919922
v 33.1716423034668 0.2489629983901978 3.121967077255249
v 33.1716423034668 0.2489629983901978 3.121967077255249
v 33.1716423034668 0.2489629983901978 3.055543899536133
v 33.1716423034668 0.2489629983901978 3.055543899536133
v 33.1716423034668 0.2489629983901978 2.657010078430176
v 33.1716423034668 0.2489629983901978 2.657010078430176
v 33.1716423034668 0.2489629983901978 2.590588092803955
v 33.1716423034668 0.2489629983901978 2.590588092803955
v 33.1716423034668 0.1080600023269653 2.997179985046387
v 33.1716423034668 0.1080600023269653 2.997179985046387
v 33.1716423034668 0.1080600023269653 2.715373992919922
v 33.1716423034668 0.1080600023269653 2.715373992919922
v 33.1716423034668 0.06109299883246422 3.044147968292236
v 33.1716423034668 0.06109299883246422 3.044147968292236
v 33.1716423034668 0.06109299883246422 2.668406963348389
v 33.1716423034668 0.06109299883246422 2.668406963348389
v 33.1716423034668 0.04969599843025208 2.856276988983154
v 33.1716423034668 0.04969599843025208 2.856276988983154
v 33.1716423034668 -0.01672600023448467 2.856276988983154
v 33.1716423034668 -0.01672600023448467 2.856276988983154
v 33.06877136230469 5.069862842559815 2.856276988983154
v 33.06877136230469 5.069862842559815 2.856276988983154
v 33.06877136230469 4.976480960845947 3.081722021102905
v 33.06877136230469 4.976480960845947 3.081722021102905
v 33.06877136230469 4.976480960845947 2.63083291053772
v 33.06877136230469 4.976480960845947 2.63083291053772
v 33.06877136230469 4.751037120819092 3.175105094909668
v 33.06877136230469 4.751037120819092 3.175105094909668
v 33.06877136230469 4.751037120819092 2.537451028823853
v 33.06877136230469 4.751037120819092 2.537451028823853
v 33.06877136230469 4.525591850280762 3.081722021102905
v 33.06877136230469 4.525591850280762 3.081722021102905
v 33.06877136230469 4.525591850280762 2.63083291053772
v 33.06877136230469 4.525591850280762 2.63083291053772
v 33.06877136230469 4.432209014892578 2.856276988983154
v 33.06877136230469 4.432209014892578 2.856276988983154
v 33.06877136230469 0.5677909851074219 2.856276988983154
v 33.06877136230469 0.5677909851074219 2.856276988983154
v 33.06877136230469 0.4744080007076263 3.081722021102905
v 33.06877136230469 0.4744080007076263 3.081722021102905
v 33.06877136230469 0.4744080007076263 2.63083291053772
v 33.06877136230469 0.4744080007076263 2.63083291053772
v 33.06877136230469 0.2489629983901978 3.175105094909668
v 33.06877136230469 0.2489629983901978 3.175105094909668
v 33.06877136230469 0.2489629983901978 2.537451028823853
v 33.06877136230469 0.2489629983901978 2.537451028823853
v 33.06877136230469 0.0235190000385046 3.081722021102905
v 33.06877136230469 0.0235190000385046 3.081722021102905
v 33.06877136230469 0.0235190000385046 2.63083291053772
v 33.06877136230469 0.0235190000385046 2.63083291053772
v 33.06877136230469 -0.06986399739980698 2.856276988983154
v 33.06877136230469 -0.06986399739980698 2.856276988983154
v 26.56628036499023 5.092255115509033 2.856276988983154
v 26.56628036499023 5.092255115509033 2.856276988983154
v 26.56628036499023 4.992312908172607 3.097554922103882
v 26.56628036499023 4.992312908172607 3.097554922103882
v 26.56628036499023 4.992312908172607 2.615000009536743
v 26.56628036499023 4.992312908172607 2.615000009536743
v 26.56628036499023 4.751037120819092 3.197494983673096
v 26.56628036499023 4.751037120819092 3.197494983673096
v 26.56628036499023 4.751037120819092 2.515059947967529
v 26.56628036499023 4.751037120819092 2.515059947967529
v 26.56628036499023 4.509759902954102 3.097554922103882
v 26.56628036499023 4.509759902954102 3.097554922103882
v 26.56628036499023 4.509759902954102 2.615000009536743
v 26.56628036499023 4.509759902954102 2.615000009536743
v 26.56628036499023 4.409820079803467 2.856276988983154
v 26.56628036499023 4.409820079803467 2.856276988983154
v 26.56628036499023 0.590179979801178 2.856276988983154
v 26.56628036499023 0.590179979801178 2.856276988983154
v 26.56628036499023 0.4902409911155701 3.097554922103882
v 26.56628036499023 0.4902409911155701 3.097554922103882
v 26.56628036499023 0.4902409911155701 2.615000009536743
v 26.56628036499023 0.4902409911155701 2.615000009536743
v 26.56628036499023 0.2489629983901978 3.197494983673096
v 26.56628036499023 0.2489629983901978 3.197494983673096
v 26.56628036499023 0.2489629983901978 2.515059947967529
v 26.56628036499023 0.2489629983901978 2.515059947967529
v 26.56628036499023 0.007685999851673842 3.097554922103882
v 26.56628036499023 0.007685999851673842 3.097554922103882
v 26.56628036499023 0.007685999851673842 2.615000009536743
v 26.56628036499023 0.007685999851673842 2.615000009536743
v 26.56628036499023 -0.09225399792194367 2.856276988983154
v 26.56628036499023 -0.09225399792194367 2.856276988983154
v 26.46264839172363 5.18324613571167 2.856276988983154
v 26.46264839172363 5.18324613571167 2.856276988983154
v 26.46264839172363 5.05665397644043 3.161895990371704
v 26.46264839172363 5.05665397644043 3.161895990371704
v 26.46264839172363 5.05665397644043 2.550659894943237
v 26.46264839172363 5.05665397644043 2.550659894943237
v 26.46264839172363 4.751037120819092 3.288486003875732
v 26.46264839172363 4.751037120819092 3.288486003875732
v 26.46264839172363 4.751037120819092 2.424067974090576
v 26.46264839172363 4.751037120819092 2.424067974090576
v 26.46264839172363 4.445418834686279 3.161895990371704
v 26.46264839172363 4.445418834686279 3.161895990371704
v 26.46264839172363 4.445418834686279 2.550659894943237
v 26.46264839172363 4.445418834686279 2.550659894943237
v 26.46264839172363 4.318828105926514 2.856276988983154
v 26.46264839172363 4.318828105926514 2.856276988983154
v 26.46264839172363 0.6811720132827759 2.856276988983154
v 26.46264839172363 0.6811720132827759 2.856276988983154
v 26.46264839172363 0.5545809864997864 3.161895990371704
v 26.46264839172363 0.5545809864997864 3.161895990371704
v 26.46264839172363 0.5545809864997864 2.550659894943237
v 26.46264839172363 0.5545809864997864 2.550659894943237
v 26.46264839172363 0.2489629983901978 3.288486003875732
v 26.46264839172363 0.2489629983901978 3.288486003875732
v 26.46264839172363 0.2489629983901978 2.424067974090576
v 26.46264839172363 0.2489629983901978 2.424067974090576
v 26.46264839172363 -0.05665399879217148 3.161895990371704
v 26.46264839172363 -0.05665399879217148 3.161895990371704
v 26.46264839172363 -0.05665399879217148 2.550659894943237
v 26.46264839172363 -0.05665399879217148 2.550659894943237
v 26.46264839172363 -0.1832450032234192 2.856276988983154
v 26.46264839172363 -0.1832450032234192 2.856276988983154
v 19.85396385192871 4.950273990631104 2.856276988983154
v 19.85396385192871 4.891911029815674 2.997179985046387
v 19.85396385192871 4.891911029815674 2.715373992919922
v 19.85396385192871 4.751007080078125 3.055543899536133
v 19.85396385192871 4.751007080078125 2.657010078430176
v 19.85396385192871 4.610105037689209 2.997179985046387
v 19.85396385192871 4.610105037689209 2.715373992919922
v 19.85396385192871 4.551741123199463 2.856276988983154
v 19.85396385192871 0.4482589960098267 2.856276988983154
v 19.85396385192871 0.3898949921131134 2.997179985046387
v 19.85396385192871 0.3898949921131134 2.715373992919922
v 19.85396385192871 0.248991996049881 3.055543899536133
v 19.85396385192871 0.248991996049881 2.657010078430176
v 19.85396385192871 0.1080889999866486 2.997179985046387
v 19.85396385192871 0.1080889999866486 2.715373992919922
v 19.85396385192871 0.04972599819302559 2.856276988983154
v 16.66876220703125 5.413895130157471 2.856276988983154
v 16.66876220703125 5.219747066497803 3.326420068740845
v 16.66876220703125 5.219747066497803 2.386136054992676
v 16.66876220703125 4.751031875610352 3.521158933639526
v 16.66876220703125 4.751031875610352 2.191395998001099
v 16.66876220703125 4.282317161560059 3.326420068740845
v 16.66876220703125 4.282317161560059 2.386136054992676
v 16.66876220703125 4.088169097900391 2.856276988983154
v 16.66876220703125 0.9118310213088989 2.856276988983154
v 16.66876220703125 0.7176830172538757 3.326420068740845
v 16.66876220703125 0.7176830172538757 2.386136054992676
v 16.66876220703125 0.2489680051803589 3.521158933639526
v 16.66876220703125 0.2489680051803589 2.191395998001099
v 16.66876220703125 -0.219747006893158 3.326420068740845
v 16.66876220703125 -0.219747006893158 2.386136054992676
v 16.66876220703125 -0.4138950109481812 2.856276988983154
vn 1 0 0
vn 0.4555157423019409 0.8818615674972534 -0.1217603385448456
vn 1 0 0
vn 2.159999894502107e-06 -0.9906026124954224 -0.136771485209465
vn 1 0 0
vn 0.4555166959762573 0.7096682786941528 0.537471354007721
vn 1 0 0
vn 0.4555163979530335 0.5374739170074463 -0.7096665501594544
vn 1 0 0
vn 1.320000023952161e-06 -0.6037489771842957 -0.7971745133399963
vn 1 0 0
vn 1.740000016070553e-06 -0.7971776127815247 0.6037448644638062
vn 1 0 0
vn 0.455521821975708 0.1217607110738754 0.8818584084510803
vn 1 0 0
vn -3.000000106112566e-07 0.1367746442556381 -0.9906021952629089
vn 1 0 0
vn 3.000000106112566e-07 -0.1367729306221008 0.990602433681488
vn 1 0 0
vn 0.4555183351039887 -0.1217589005827904 -0.8818604350090027
vn 1 0 0
vn -1.740000016070553e-06 0.7971751093864441 -0.6037482023239136
vn 1 0 0
vn -1.320000023952161e-06 0.6037488579750061 0.7971745729446411
vn 1 0 0
vn 0.4555219411849976 -0.5374730825424194 0.7096636295318604
vn 1 0 0
vn 0.4555243849754334 -0.709663450717926 -0.5374712347984314
vn 1 0 0
vn -2.159999894502107e-06 0.9906023144721985 0.1367737948894501
vn 1 0 0
vn 0.4555268883705139 -0.8818559646606445 0.1217594295740128
vn 1 0 0
vn 0.4555268883705139 0.8818559646606445 0.1217594295740128
vn 1 0 0
vn -2.159999894502107e-06 -0.9906023144721985 0.1367737948894501
vn 1 0 0
vn 0.4555219411849976 0.5374730825424194 0.7096636295318604
vn 1 0 0
vn 0.4555243849754334 0.709663450717926 -0.5374712347984314
vn 1 0 0
vn -1.740000016070553e-06 -0.7971751093864441 -0.6037482023239136
vn 1 0 0
vn -1.31000001601933e-06 -0.6037482023239136 0.7971751093864441
vn 1 0 0
vn 0.4555229246616364 -0.1217610836029053 0.8818577527999878
vn 1 0 0
vn -3.000000106112566e-07 -0.1367737948894501 -0.9906023144721985
vn 1 0 0
vn 3.000000106112566e-07 0.1367737948894501 0.9906023144721985
vn 1 0 0
vn 0.4555183947086334 0.1217583566904068 -0.8818604946136475
vn 1 0 0
vn 1.31000001601933e-06 0.6037482023239136 -0.7971751093864441
vn 1 0 0
vn 1.760000031936215e-06 0.7971763610839844 0.6037465333938599
vn 1 0 0
vn 0.4555218517780304 -0.7096647620201111 0.5374716520309448
vn 1 0 0
vn 0.4555193483829498 -0.5374720692634583 -0.7096660137176514
vn 1 0 0
vn 2.2100000478531e-06 0.9906026124954224 -0.1367717236280441
vn 1 0 0
vn 0.4555229246616364 -0.8818577527999878 -0.1217610836029053
vn 0.4555158615112305 0.8818618059158325 0.1217582896351814
vn 0.003411130048334599 0.9905961751937866 -0.1367754936218262
vn 0.4555184841156006 0.5374744534492493 0.7096648216247559
vn 0.003411069978028536 0.7971705794334412 0.6037445068359375
vn 0.4555164277553558 0.7096675634384155 -0.5374725461006165
vn 0.00341101991944015 0.6037447452545166 -0.7971704006195068
vn 0.4555229544639587 -0.1217592731118202 0.8818579912185669
vn 0.003410960081964731 0.1367737203836441 0.9905964136123657
vn 0.4555172324180603 0.1217603608965874 -0.8818607926368713
vn 0.003411059966310859 -0.1367720663547516 -0.9905966520309448
vn 0.4555239379405975 -0.7096644639968872 0.5374702215194702
vn 0.003410970093682408 -0.603744387626648 0.7971706390380859
vn 0.4555197358131409 -0.5374709367752075 -0.7096666097640991
vn 0.003410920035094023 -0.7971696257591248 -0.6037457585334778
vn 0.4555276036262512 -0.8818556070327759 -0.1217593029141426
vn 0.003410829929634929 -0.9905967116355896 0.1367716938257217
vn 0.4555276036262512 0.8818556070327759 -0.1217593029141426
vn 0.003410879988223314 0.9905968904495239 0.136770486831665
vn 0.4555239379405975 0.7096644639968872 0.5374702215194702
vn 0.003411039942875505 0.6037440299987793 0.7971709370613098
vn 0.4555197358131409 0.5374709367752075 -0.7096666097640991
vn 0.003410989884287119 0.7971703410148621 -0.6037448048591614
vn 0.4555229544639587 0.1217592731118202 0.8818579912185669
vn 0.003410980105400085 -0.1367732137441635 0.9905965328216553
vn 0.4555181264877319 -0.1217607706785202 -0.8818602561950684
vn 0.003411079989746213 0.136771559715271 -0.9905967116355896
vn 0.4555216431617737 -0.5374727249145508 0.7096641063690186
vn 0.003411039942875505 -0.7971712350845337 0.6037436127662659
vn 0.4555216729640961 -0.7096636891365051 -0.537473201751709
vn 0.00341109000146389 -0.6037434339523315 -0.797171413898468
vn 0.4555229544639587 -0.8818579912185669 0.1217592731118202
vn 0.003410980105400085 -0.9905965328216553 -0.1367732137441635
vn 0.656267523765564 0.7474373579025269 -0.1032007485628128
vn 0.003411140060052276 0.9905966520309448 0.136772096157074
vn 0.656268298625946 0.6014900207519531 0.4555454552173615
vn 0.003410970093682408 0.6037446260452271 0.7971704602241516
vn 0.6562680602073669 0.4555443227291107 -0.6014911532402039
vn 0.003411069978028536 0.7971693277359009 -0.6037461757659912
vn 0.6562675833702087 0.1031991392374039 0.7474374771118164
vn 0.003410960081964731 -0.1367731839418411 0.9905965328216553
vn 0.6562687754631043 -0.1032000482082367 -0.7474363446235657
vn 0.003411059966310859 0.1367733627557755 -0.9905964732170105
vn 0.6562687754631043 -0.455543726682663 0.6014907956123352
vn 0.003410920035094023 -0.7971704006195068 0.6037447452545166
vn 0.656268298625946 -0.6014902591705322 -0.4555451571941376
vn 0.00341101991944015 -0.6037441492080689 -0.797170877456665
vn 0.6562700867652893 -0.7474353909492493 0.1031985431909561
vn 0.003410829929634929 -0.9905962944030762 -0.1367746144533157
vn 0.656268298625946 0.7474368810653687 0.1031990572810173
vn 0.003410869976505637 0.990596354007721 -0.136774480342865
vn 0.6562670469284058 0.4555454254150391 0.601491391658783
vn 0.003410999896004796 0.797170877456665 0.6037441492080689
vn 0.6562666893005371 0.6014916896820068 -0.4555455446243286
vn 0.003411100013181567 0.6037445664405823 -0.7971705198287964
vn 0.6562668681144714 -0.1031993478536606 0.7474380731582642
vn 0.003410980105400085 0.1367731243371964 0.9905965328216553
vn 0.6562680006027222 0.1032002717256546 -0.7474369406700134
vn 0.003411079989746213 -0.1367733031511307 -0.9905964732170105
vn 0.656266987323761 -0.6014922857284546 0.4555444121360779
vn 0.003411039942875505 -0.6037459373474121 0.7971695065498352
vn 0.6562663912773132 -0.4555467069149017 -0.6014911532402039
vn 0.003411039942875505 -0.7971697449684143 -0.6037455797195435
vn 0.6562654376029968 -0.7474391460418701 -0.1032005697488785
vn 0.003410980105400085 -0.9905965328216553 0.1367731243371964
vn 0.6562675833702087 0.7474373579025269 0.1032000333070755
vn 0.02334379963576794 0.9903829693794251 -0.1363695859909058
vn 0.6562688946723938 0.4555435478687286 0.6014907956123352
vn 0.02338952012360096 0.7971809506416321 0.6032872200012207
vn 0.6562665700912476 0.6014907360076904 -0.4555470049381256
vn 0.02345998957753182 0.6038792133331299 -0.7967305183410645
vn 0.6562672257423401 -0.1031988710165024 0.7474378347396851
vn 0.02350597083568573 0.1371045708656311 0.9902776479721069
vn 0.6562691926956177 0.1032001674175263 -0.7474359273910523
vn 0.02350605092942715 -0.1371046453714371 -0.9902776479721069
vn 0.6562702655792236 -0.6014894247055054 0.4555434286594391
vn 0.02346063032746315 -0.6038781404495239 0.7967313528060913
vn 0.6562679409980774 -0.4555449187755585 -0.60149085521698
vn 0.02339028939604759 -0.7971815466880798 -0.6032863855361939
vn 0.6562697291374207 -0.7474355101585388 -0.1031998470425606
vn 0.02334474958479404 -0.9903832077980042 0.136367455124855
vn 0.6562684178352356 0.7474367618560791 -0.1031993478536606
vn 0.02334474958479404 0.9903832077980042 0.136367455124855
vn 0.6562682390213013 0.601491391658783 0.4555436968803406
vn 0.02346063032746315 0.6038781404495239 0.7967313528060913
vn 0.6562660336494446 0.4555459916591644 -0.6014921069145203
vn 0.02339028939604759 0.7971815466880798 -0.6032863855361939
vn 0.6562666893005371 0.1031986698508263 0.747438371181488
vn 0.02350597083568573 -0.1371045708656311 0.9902776479721069
vn 0.6562686562538147 -0.1031999737024307 -0.7474364638328552
vn 0.02350605092942715 0.1371046453714371 -0.9902776479721069
vn 0.656266987323761 -0.45554518699646 0.6014916300773621
vn 0.02338957041501999 -0.7971815466880798 0.6032864451408386
vn 0.6562647223472595 -0.6014935970306397 -0.4555458426475525
vn 0.02345998957753182 -0.6038799285888672 -0.7967299818992615
vn 0.6562660336494446 -0.747438907623291 0.1031986102461815
vn 0.02334384992718697 -0.9903829693794251 -0.1363694667816162
vn 2.159999894502107e-06 -0.9906026124954224 0.136771485209465
vn 1.740000016070553e-06 -0.7971771359443665 -0.6037454605102539
vn 1.320000023952161e-06 -0.6037489771842957 0.7971745133399963
vn 3.000000106112566e-07 -0.1367721706628799 -0.9906025528907776
vn -3.000000106112566e-07 0.1367754191160202 0.9906020760536194
vn -1.320000023952161e-06 0.6037488579750061 -0.7971745729446411
vn -1.740000016070553e-06 0.7971755862236023 0.603747546672821
vn -2.159999894502107e-06 0.9906023144721985 -0.1367737948894501
vn -2.159999894502107e-06 -0.9906023144721985 -0.1367737948894501
vn -1.31000001601933e-06 -0.6037482023239136 -0.7971751093864441
vn -1.740000016070553e-06 -0.7971751093864441 0.6037482023239136
vn 3.000000106112566e-07 0.1367737948894501 -0.9906023144721985
vn -3.000000106112566e-07 -0.1367737948894501 0.9906023144721985
vn 1.760000031936215e-06 0.7971763610839844 -0.6037465333938599
vn 1.31000001601933e-06 0.603749692440033 0.7971739768981934
vn 2.2100000478531e-06 0.9906023144721985 0.1367735713720322
vn 0.02333573997020721 0.9903380870819092 0.1366965770721436
vn 0.02345415018498898 0.6041421890258789 0.7965313196182251
vn 0.02339538000524044 0.797380805015564 -0.6030228137969971
vn 0.02351411990821362 -0.1367747187614441 0.9903230667114258
vn 0.02351392991840839 0.1367771029472351 -0.9903227090835571
vn 0.02339614927768707 -0.7973818182945252 0.6030213832855225
vn 0.02345467917621136 -0.604143500328064 -0.7965303063392639
vn 0.02333673089742661 -0.9903379082679749 -0.136697381734848
vn 0.02333673089742661 0.9903379082679749 -0.136697381734848
vn 0.02339614927768707 0.7973818182945252 0.6030213832855225
vn 0.02345467917621136 0.604143500328064 -0.7965303063392639
vn 0.02351411990821362 0.1367747187614441 0.9903230667114258
vn 0.02351392991840839 -0.1367771029472351 -0.9903227090835571
vn 0.02345415018498898 -0.6041421890258789 0.7965313196182251
vn 0.02339540980756283 -0.7973814010620117 -0.603022038936615
vn 0.02333581075072289 -0.9903382062911987 0.1366956233978272
f 176//176 62//62 56//56 175//175
f 175//175 56//56 50//50 173//173
f 173//173 50//50 44//44 171//171
f 171//171 44//44 36//36 169//169
f 169//169 36//36 42//42 170//170
f 170//170 42//42 48//48 172//172
f 172//172 48//48 54//54 174//174
f 174//174 54//54 62//62 176//176
f 61//61 63//63 59//59 55//55
f 55//55 59//59 51//51 49//49
f 49//49 51//51 39//39 43//43
f 43//43 39//39 33//33 35//35
f 35//35 33//33 37//37 41//41
f 41//41 37//37 45//45 47//47
f 47//47 45//45 57//57 53//53
f 53//53 57//57 63//63 61//61
f 191//191 158//158 160//160 192//192
f 192//192 160//160 156//156 190//190
f 190//190 156//156 152//152 188//188
f 188//188 152//152 148//148 186//186
f 186//186 148//148 146//146 185//185
f 185//185 146//146 150//150 187//187
f 187//187 150//150 154//154 189//189
f 189//189 154//154 158//158 191//191
f 157//157 125//125 127//127 159//159
f 159//159 127//127 123//123 155//155
f 155//155 123//123 119//119 151//151
f 151//151 119//119 115//115 147//147
f 147//147 115//115 113//113 145//145
f 145//145 113//113 117//117 149//149
f 149//149 117//117 121//121 153//153
f 153//153 121//121 125//125 157//157
f 64//64 95//95 93//93 60//60
f 60//60 93//93 89//89 52//52
f 52//52 89//89 85//85 40//40
f 40//40 85//85 81//81 34//34
f 34//34 81//81 83//83 38//38
f 38//38 83//83 87//87 46//46
f 46//46 87//87 91//91 58//58
f 58//58 91//91 95//95 64//64
f 92//92 124//124 128//128 96//96
f 96//96 128//128 126//126 94//94
f 94//94 126//126 122//122 90//90
f 90//90 122//122 118//118 86//86
f 86//86 118//118 114//114 82//82
f 82//82 114//114 116//116 84//84
f 84//84 116//116 120//120 88//88
f 88//88 120//120 124//124 92//92
f 161//161 163//163 12//12 4//4
f 163//163 165//165 18//18 12//12
f 165//165 167//167 24//24 18//18
f 167//167 168//168 30//30 24//24
f 168//168 166//166 22//22 30//30
f 166//166 164//164 16//16 22//22
f 164//164 162//162 10//10 16//16
f 162//162 161//161 4//4 10//10
f 3//3 11//11 7//7 1//1
f 11//11 17//17 19//19 7//7
f 17//17 23//23 27//27 19//19
f 23//23 29//29 31//31 27//27
f 29//29 21//21 25//25 31//31
f 21//21 15//15 13//13 25//25
f 15//15 9//9 5//5 13//13
f 9//9 3//3 1//1 5//5
f 179//179 177//177 130//130 134//134
f 177//177 178//178 132//132 130//130
f 178//178 180//180 136//136 132//132
f 180//180 182//182 140//140 136//136
f 182//182 184//184 144//144 140//140
f 184//184 183//183 142//142 144//144
f 183//183 181//181 138//138 142//142
f 181//181 179//179 134//134 138//138
f 133//133 129//129 97//97 101//101
f 129//129 131//131 99//99 97//97
f 131//131 135//135 103//103 99//99
f 135//135 139//139 107//107 103//103
f 139//139 143//143 111//111 107//107
f 143//143 141//141 109//109 111//111
f 141//141 137//137 105//105 109//109
f 137//137 133//133 101//101 105//105
f 2//2 8//8 69//69 65//65
f 8//8 20//20 73//73 69//69
f 20//20 28//28 77//77 73//73
f 28//28 32//32 79//79 77//77
f 32//32 26//26 75//75 79//79
f 26//26 14//14 71//71 75//75
f 14//14 6//6 67//67 71//71
f 6//6 2//2 65//65 67//67
f 68//68 66//66 98//98 100//100
f 66//66 70//70 102//102 98//98
f 70//70 74//74 106//106 102//102
f 74//74 78//78 110//110 106//106
f 78//78 80//80 112//112 110//110
f 80//80 76//76 108//108 112//112
f 76//76 72//72 104//104 108//108
f 72//72 68//68 100//100 104//104
