# RokuSuper Output Ver2.0 for Wavefront Obj

v 101.25604081 70.92955300 0.32875670
v 101.25604081 58.71649895 0.32875670
v 85.84842474 58.71649895 11.97275247
v 85.84842474 70.92955300 11.97275247
v 85.84842474 70.92955300 0.32875670
v 85.84842474 58.71649895 0.32875670
v 101.20742083 22.82484816 0.32875670
v 101.20742083 10.61179412 0.32875670
v 85.79980476 10.61179412 11.97275247
v 85.79980476 22.82484816 11.97275247
v 85.79980476 22.82484816 0.32875670
v 85.79980476 10.61179412 0.32875670
v 85.79934020 10.61179412 11.97223203
v 85.79934020 22.82484816 11.97223203
v 85.79934020 22.82484816 0.32823626
v 85.79934020 10.61179412 0.32823626
v 70.39172413 10.61179412 11.97223203
v 70.39172413 22.82484816 11.97223203
v 34.01487802 22.81010785 11.88912894
v 70.28689996 22.81010785 11.88912894
v 70.28689996 58.66645966 11.88912894
v 34.01487802 58.66645966 11.88912894
v 34.01487802 22.81010785 23.57865380
v 70.28689996 22.81010785 23.57865380
v 70.28689996 58.66645966 23.57865380
v 34.01487802 58.66645966 23.57865380
v 85.84796018 58.66619796 11.97223203
v 85.84796018 70.92955300 11.97223203
v 85.84796018 70.92955300 0.32823626
v 85.84796018 58.66619796 0.32823626
v 70.44034411 58.66619796 11.97223203
v 70.44034411 70.92955300 11.97223203
v 85.96643024 58.51208779 11.94007809
v 70.44344186 58.51208779 11.94007809
v 70.44344186 58.51208779 23.42572231
v 85.96643024 70.94264213 11.94007809
v 70.44344186 70.94264213 11.94007809
v 70.30524290 10.60297669 11.97699384
v 70.30524290 22.80434655 11.97699384
v 70.30524290 22.80434655 23.46263806
v 85.66616596 10.60297669 11.97699384
v 85.66616596 22.80434655 11.97699384
v 85.66749545 58.73041044 11.88931100
v 85.66749545 22.78136904 11.88931100
v 70.25987938 22.78136904 23.53330677
v 70.25987938 58.73041044 23.53330677
v 70.25987938 58.73041044 11.88931100
v 70.25987938 22.78136904 11.88931100
v 34.11190657 71.17253656 12.14039067
v 70.52059087 71.17253656 12.14039067
v 70.52059087 58.71783341 23.61996974
v 34.11190657 58.71783341 23.61996974
v 34.11190657 58.71783341 12.14039067
v 70.52059087 58.71783341 12.14039067
v 33.91263535 22.89863590 23.54889256
v 70.32131964 22.89863590 23.54889256
v 70.32131964 10.54036003 11.87523510
v 33.91263535 10.54036003 11.87523510
v 33.91263535 22.89863590 11.87523510
v 70.32131964 22.89863590 11.87523510
v 33.97266043 58.64309307 23.51869323
v 33.97266043 22.90562726 23.51869323
v 22.32866466 22.90562726 11.86539808
v 22.32866466 58.64309307 11.86539808
v 33.97266043 58.64309307 11.86539808
v 33.97266043 22.90562726 11.86539808
v 34.07643621 10.52951599 11.92951429
v 22.34433587 22.93449912 11.92951429
v 34.07643621 22.93449912 23.52906208
v 34.07643621 22.93449912 11.92951429
v 34.07643621 58.66062481 23.51096525
v 22.34433587 58.66062481 11.82647392
v 34.07643621 70.94036757 11.82647392
v 34.07643621 58.66062481 11.82647392
v 33.97226584 10.54066537 11.87568981
v 33.97226584 10.54066537 0.21931208
v 22.33680631 10.54066537 0.21931208
v 22.33680631 23.01614085 11.87568981
v 33.97226584 23.01614085 11.87568981
v 22.33680631 23.01614085 0.21931208
v 33.97226584 23.01614085 0.21931208
v 22.49767022 10.47507372 0.12653803
v 10.76556989 23.02491873 0.12653803
v 22.49767022 23.02491873 12.04056965
v 22.49767022 23.02491873 0.12653803
v 22.27546832 58.55447633 11.93786193
v 22.27546832 58.55447633 0.28148421
v 22.27546832 71.01025229 0.28148421
v 34.07360736 71.01025229 11.93786193
v 34.07360736 58.55447633 11.93786193
v 34.07360736 71.01025229 0.28148421
v 34.07360736 58.55447633 0.28148421
v 22.28621722 58.66062481 11.95191874
v 10.55411688 58.66062481 0.26742740
v 22.28621722 70.94036757 0.26742740
v 22.28621722 58.66062481 0.26742740
v 61.32240746 56.62047376 26.25249478
v 61.32240746 56.62047376 23.46361013
v 67.93260386 50.01027736 26.25249478
v 67.93260386 50.01027736 23.46361013
v 70.35210366 40.98058116 26.25249478
v 70.35210366 40.98058116 23.46361013
v 67.93260386 31.95088495 26.25249478
v 67.93260386 31.95088495 23.46361013
v 61.32240746 25.34068855 26.25249478
v 61.32240746 25.34068855 23.46361013
v 52.29271125 22.92118875 26.25249478
v 52.29271125 22.92118875 23.46361013
v 43.26301505 25.34068855 26.25249478
v 43.26301505 25.34068855 23.46361013
v 36.65281865 31.95088495 26.25249478
v 36.65281865 31.95088495 23.46361013
v 34.23331885 40.98058116 26.25249478
v 34.23331885 40.98058116 23.46361013
v 36.65281865 50.01027736 26.25249478
v 36.65281865 50.01027736 23.46361013
v 43.26301505 56.62047376 26.25249478
v 43.26301505 56.62047376 23.46361013
v 52.29271125 59.03997356 26.25249478
v 52.29271125 59.03997356 23.46361013
v 52.29271125 40.98058116 23.46361013
v 52.29271125 40.98058116 26.25249478
v -31.08604405 12.76335059 0.00000000
v -31.08604405 12.76335059 0.00000000
v -31.08604405 12.76335059 0.00000000
v -31.08604405 12.76335059 0.00000000

vt 0.00000000 0.00000000
vt 0.00000000 0.00000000
vt 0.00000000 0.00000000
vt 0.00000000 0.00000000
vt 0.00000000 0.00000000
vt 0.00000000 0.00000000
vt 0.00000000 0.00000000
vt 0.00000000 0.00000000
vt 0.00000000 0.00000000
vt 0.00000000 0.00000000
vt 0.00000000 0.00000000
vt 0.00000000 0.00000000
vt 0.00000000 0.00000000
vt 0.00000000 0.00000000
vt 0.00000000 0.00000000
vt 0.00000000 0.00000000
vt 0.00000000 0.00000000
vt 0.00000000 0.00000000
vt 0.00000000 0.00000000
vt 0.00000000 0.00000000
vt 0.00000000 0.00000000
vt 0.00000000 0.00000000
vt 0.00000000 0.00000000
vt 0.00000000 0.00000000
vt 0.00000000 0.00000000
vt 0.00000000 0.00000000
vt 0.00000000 0.00000000
vt 0.00000000 0.00000000
vt 0.00000000 0.00000000
vt 0.00000000 0.00000000
vt 0.00000000 0.00000000
vt 0.00000000 0.00000000

vn 0.60292162 -0.00000000 0.79780043
vn 0.60292162 -0.00000000 0.79780043
vn 0.60292162 -0.00000000 0.79780043
vn 0.60292162 -0.00000000 0.79780043
vn 0.00000000 1.00000000 -0.00000000
vn 0.00000000 1.00000000 -0.00000000
vn 0.00000000 1.00000000 -0.00000000
vn 0.00000000 -1.00000000 0.00000000
vn 0.00000000 -1.00000000 0.00000000
vn 0.00000000 -1.00000000 0.00000000
vn -1.00000000 0.00000000 0.00000000
vn -1.00000000 0.00000000 0.00000000
vn -1.00000000 0.00000000 0.00000000
vn -1.00000000 0.00000000 0.00000000
vn 0.00000000 0.00000000 -1.00000000
vn 0.00000000 0.00000000 -1.00000000
vn 0.00000000 0.00000000 -1.00000000
vn 0.00000000 0.00000000 -1.00000000
vn 0.60292162 0.00000000 0.79780043
vn 0.60292162 0.00000000 0.79780043
vn 0.60292162 0.00000000 0.79780043
vn 0.60292162 0.00000000 0.79780043
vn 0.00000000 1.00000000 0.00000000
vn 0.00000000 1.00000000 0.00000000
vn 0.00000000 1.00000000 0.00000000
vn 0.00000000 -1.00000000 -0.00000000
vn 0.00000000 -1.00000000 -0.00000000
vn 0.00000000 -1.00000000 -0.00000000
vn -1.00000000 0.00000000 -0.00000000
vn -1.00000000 0.00000000 -0.00000000
vn -1.00000000 0.00000000 -0.00000000
vn -1.00000000 0.00000000 -0.00000000
vn -0.00000000 -0.00000000 -1.00000000
vn -0.00000000 -0.00000000 -1.00000000
vn -0.00000000 -0.00000000 -1.00000000
vn -0.00000000 -0.00000000 -1.00000000
vn -0.00000000 0.00000000 1.00000000
vn -0.00000000 0.00000000 1.00000000
vn -0.00000000 0.00000000 1.00000000
vn -0.00000000 0.00000000 1.00000000
vn 1.00000000 0.00000000 0.00000000
vn 1.00000000 0.00000000 0.00000000
vn 1.00000000 0.00000000 0.00000000
vn 1.00000000 0.00000000 0.00000000
vn -0.00000000 -1.00000000 -0.00000000
vn -0.00000000 -1.00000000 -0.00000000
vn -0.00000000 -1.00000000 -0.00000000
vn 0.00000000 1.00000000 0.00000000
vn 0.00000000 1.00000000 0.00000000
vn 0.00000000 1.00000000 0.00000000
vn -0.60292162 -0.00000000 -0.79780043
vn -0.60292162 -0.00000000 -0.79780043
vn -0.60292162 -0.00000000 -0.79780043
vn -0.60292162 -0.00000000 -0.79780043
vn -0.00000000 -0.00000000 -1.00000000
vn -0.00000000 -0.00000000 -1.00000000
vn -0.00000000 -0.00000000 -1.00000000
vn -0.00000000 -0.00000000 -1.00000000
vn 1.00000000 0.00000000 0.00000000
vn 1.00000000 0.00000000 0.00000000
vn 1.00000000 0.00000000 0.00000000
vn 1.00000000 0.00000000 0.00000000
vn 0.00000000 1.00000000 0.00000000
vn 0.00000000 1.00000000 0.00000000
vn 0.00000000 1.00000000 0.00000000
vn 0.00000000 1.00000000 0.00000000
vn -1.00000000 0.00000000 -0.00000000
vn -1.00000000 0.00000000 -0.00000000
vn -1.00000000 0.00000000 -0.00000000
vn -1.00000000 0.00000000 -0.00000000
vn 0.00000000 -1.00000000 -0.00000000
vn 0.00000000 -1.00000000 -0.00000000
vn 0.00000000 -1.00000000 -0.00000000
vn 0.00000000 -1.00000000 -0.00000000
vn 0.00000000 0.00000000 1.00000000
vn 0.00000000 0.00000000 1.00000000
vn 0.00000000 0.00000000 1.00000000
vn 0.00000000 0.00000000 1.00000000
vn -0.00000000 -0.00000000 1.00000000
vn -0.00000000 -0.00000000 1.00000000
vn -0.00000000 -0.00000000 1.00000000
vn -0.00000000 -0.00000000 1.00000000
vn 1.00000000 -0.00000000 -0.00000000
vn 1.00000000 -0.00000000 -0.00000000
vn 1.00000000 -0.00000000 -0.00000000
vn 1.00000000 -0.00000000 -0.00000000
vn 0.00000000 -1.00000000 0.00000000
vn 0.00000000 -1.00000000 0.00000000
vn 0.00000000 -1.00000000 0.00000000
vn -0.00000000 1.00000000 -0.00000000
vn -0.00000000 1.00000000 -0.00000000
vn -0.00000000 1.00000000 -0.00000000
vn -0.60292162 0.00000000 -0.79780043
vn -0.60292162 0.00000000 -0.79780043
vn -0.60292162 0.00000000 -0.79780043
vn -0.60292162 0.00000000 -0.79780043
vn -0.00000000 -1.00000000 0.00000000
vn -0.00000000 -1.00000000 0.00000000
vn -0.00000000 -1.00000000 0.00000000
vn 0.59479726 0.00000000 0.80387575
vn 0.59479726 0.00000000 0.80387575
vn 0.59479726 0.00000000 0.80387575
vn 0.00000000 0.67864009 0.73447099
vn 0.00000000 0.67864009 0.73447099
vn 0.00000000 0.67864009 0.73447099
vn -1.00000000 -0.00000000 0.00000000
vn -1.00000000 -0.00000000 0.00000000
vn -1.00000000 -0.00000000 0.00000000
vn -0.00000000 -0.00000000 -1.00000000
vn -0.00000000 -0.00000000 -1.00000000
vn -0.00000000 -0.00000000 -1.00000000
vn -0.00000000 -0.00000000 -1.00000000
vn -1.00000000 0.00000000 0.00000000
vn -1.00000000 0.00000000 0.00000000
vn -1.00000000 0.00000000 0.00000000
vn 0.00000000 -0.68542805 0.72814036
vn 0.00000000 -0.68542805 0.72814036
vn 0.00000000 -0.68542805 0.72814036
vn 0.59882988 -0.00000000 0.80087625
vn 0.59882988 -0.00000000 0.80087625
vn 0.59882988 -0.00000000 0.80087625
vn -0.00000000 1.00000000 -0.00000000
vn -0.00000000 1.00000000 -0.00000000
vn -0.00000000 1.00000000 -0.00000000
vn -0.00000000 0.00000000 -1.00000000
vn -0.00000000 0.00000000 -1.00000000
vn -0.00000000 0.00000000 -1.00000000
vn -0.00000000 0.00000000 -1.00000000
vn 0.60292162 0.00000000 0.79780043
vn 0.60292162 0.00000000 0.79780043
vn 0.60292162 0.00000000 0.79780043
vn 0.60292162 0.00000000 0.79780043
vn 0.00000000 1.00000000 0.00000000
vn 0.00000000 1.00000000 0.00000000
vn 0.00000000 1.00000000 0.00000000
vn 0.00000000 -1.00000000 -0.00000000
vn 0.00000000 -1.00000000 -0.00000000
vn 0.00000000 -1.00000000 -0.00000000
vn -1.00000000 0.00000000 -0.00000000
vn -1.00000000 0.00000000 -0.00000000
vn -1.00000000 0.00000000 -0.00000000
vn -1.00000000 0.00000000 -0.00000000
vn -0.00000000 -0.00000000 -1.00000000
vn -0.00000000 -0.00000000 -1.00000000
vn -0.00000000 -0.00000000 -1.00000000
vn -0.00000000 -0.00000000 -1.00000000
vn 0.00000000 0.67773578 0.73530553
vn 0.00000000 0.67773578 0.73530553
vn 0.00000000 0.67773578 0.73530553
vn 0.00000000 0.67773578 0.73530553
vn -1.00000000 -0.00000000 0.00000000
vn -1.00000000 -0.00000000 0.00000000
vn -1.00000000 -0.00000000 0.00000000
vn 1.00000000 0.00000000 0.00000000
vn 1.00000000 0.00000000 0.00000000
vn 1.00000000 0.00000000 0.00000000
vn -0.00000000 -1.00000000 0.00000000
vn -0.00000000 -1.00000000 0.00000000
vn -0.00000000 -1.00000000 0.00000000
vn -0.00000000 -1.00000000 0.00000000
vn 0.00000000 0.00000000 -1.00000000
vn 0.00000000 0.00000000 -1.00000000
vn 0.00000000 0.00000000 -1.00000000
vn 0.00000000 0.00000000 -1.00000000
vn -0.00000000 -0.68668423 0.72695582
vn -0.00000000 -0.68668423 0.72695582
vn -0.00000000 -0.68668423 0.72695582
vn -0.00000000 -0.68668423 0.72695582
vn -1.00000000 0.00000000 0.00000000
vn -1.00000000 0.00000000 0.00000000
vn -1.00000000 0.00000000 0.00000000
vn 1.00000000 0.00000000 -0.00000000
vn 1.00000000 0.00000000 -0.00000000
vn 1.00000000 0.00000000 -0.00000000
vn 0.00000000 -0.00000000 -1.00000000
vn 0.00000000 -0.00000000 -1.00000000
vn 0.00000000 -0.00000000 -1.00000000
vn 0.00000000 -0.00000000 -1.00000000
vn 0.00000000 1.00000000 0.00000000
vn 0.00000000 1.00000000 0.00000000
vn 0.00000000 1.00000000 0.00000000
vn 0.00000000 1.00000000 0.00000000
vn -0.70738897 -0.00000000 0.70682448
vn -0.70738897 -0.00000000 0.70682448
vn -0.70738897 -0.00000000 0.70682448
vn -0.70738897 -0.00000000 0.70682448
vn 0.00000000 1.00000000 0.00000000
vn 0.00000000 1.00000000 0.00000000
vn 0.00000000 1.00000000 0.00000000
vn 0.00000000 -1.00000000 -0.00000000
vn 0.00000000 -1.00000000 -0.00000000
vn 0.00000000 -1.00000000 -0.00000000
vn -0.00000000 0.00000000 -1.00000000
vn -0.00000000 0.00000000 -1.00000000
vn -0.00000000 0.00000000 -1.00000000
vn -0.00000000 0.00000000 -1.00000000
vn 1.00000000 0.00000000 -0.00000000
vn 1.00000000 0.00000000 -0.00000000
vn 1.00000000 0.00000000 -0.00000000
vn 1.00000000 0.00000000 -0.00000000
vn -0.58546226 -0.55370506 0.59215256
vn -0.58546226 -0.55370506 0.59215256
vn -0.58546226 -0.55370506 0.59215256
vn 0.00000000 1.00000000 0.00000000
vn 0.00000000 1.00000000 0.00000000
vn 0.00000000 1.00000000 0.00000000
vn -0.00000000 -0.00000000 -1.00000000
vn -0.00000000 -0.00000000 -1.00000000
vn -0.00000000 -0.00000000 -1.00000000
vn 1.00000000 0.00000000 0.00000000
vn 1.00000000 0.00000000 0.00000000
vn 1.00000000 0.00000000 0.00000000
vn -0.58510955 0.55901528 0.58749360
vn -0.58510955 0.55901528 0.58749360
vn -0.58510955 0.55901528 0.58749360
vn -0.00000000 -0.00000000 -1.00000000
vn -0.00000000 -0.00000000 -1.00000000
vn -0.00000000 -0.00000000 -1.00000000
vn 0.00000000 -1.00000000 -0.00000000
vn 0.00000000 -1.00000000 -0.00000000
vn 0.00000000 -1.00000000 -0.00000000
vn 1.00000000 0.00000000 0.00000000
vn 1.00000000 0.00000000 0.00000000
vn 1.00000000 0.00000000 0.00000000
vn 0.00000000 -1.00000000 0.00000000
vn 0.00000000 -1.00000000 0.00000000
vn 0.00000000 -1.00000000 0.00000000
vn -0.59066415 -0.55089273 0.58960416
vn -0.59066415 -0.55089273 0.58960416
vn -0.59066415 -0.55089273 0.58960416
vn -0.00000000 -0.00000000 1.00000000
vn -0.00000000 -0.00000000 1.00000000
vn -0.00000000 -0.00000000 1.00000000
vn -1.00000000 -0.00000000 0.00000000
vn -1.00000000 -0.00000000 0.00000000
vn -1.00000000 -0.00000000 0.00000000
vn 1.00000000 0.00000000 -0.00000000
vn 1.00000000 0.00000000 -0.00000000
vn 1.00000000 0.00000000 -0.00000000
vn 1.00000000 0.00000000 -0.00000000
vn 0.00000000 1.00000000 -0.00000000
vn 0.00000000 1.00000000 -0.00000000
vn 0.00000000 1.00000000 -0.00000000
vn 0.00000000 1.00000000 -0.00000000
vn 0.00000000 0.00000000 -1.00000000
vn 0.00000000 0.00000000 -1.00000000
vn 0.00000000 0.00000000 -1.00000000
vn 0.00000000 0.00000000 -1.00000000
vn -0.59301313 -0.55437255 0.58395762
vn -0.59301313 -0.55437255 0.58395762
vn -0.59301313 -0.55437255 0.58395762
vn 0.00000000 1.00000000 0.00000000
vn 0.00000000 1.00000000 0.00000000
vn 0.00000000 1.00000000 0.00000000
vn -0.00000000 -0.00000000 -1.00000000
vn -0.00000000 -0.00000000 -1.00000000
vn -0.00000000 -0.00000000 -1.00000000
vn 1.00000000 0.00000000 0.00000000
vn 1.00000000 0.00000000 0.00000000
vn 1.00000000 0.00000000 0.00000000
vn -1.00000000 -0.00000000 0.00000000
vn -1.00000000 -0.00000000 0.00000000
vn -1.00000000 -0.00000000 0.00000000
vn -0.58503912 0.55415038 0.59215419
vn -0.58503912 0.55415038 0.59215419
vn -0.58503912 0.55415038 0.59215419
vn 0.00000000 -0.00000000 1.00000000
vn 0.00000000 -0.00000000 1.00000000
vn 0.00000000 -0.00000000 1.00000000
vn -0.00000000 1.00000000 0.00000000
vn -0.00000000 1.00000000 0.00000000
vn -0.00000000 1.00000000 0.00000000
vn 0.00000000 -1.00000000 -0.00000000
vn 0.00000000 -1.00000000 -0.00000000
vn 0.00000000 -1.00000000 -0.00000000
vn 0.00000000 -1.00000000 -0.00000000
vn 1.00000000 0.00000000 0.00000000
vn 1.00000000 0.00000000 0.00000000
vn 1.00000000 0.00000000 0.00000000
vn 1.00000000 0.00000000 0.00000000
vn 0.00000000 0.00000000 -1.00000000
vn 0.00000000 0.00000000 -1.00000000
vn 0.00000000 0.00000000 -1.00000000
vn 0.00000000 0.00000000 -1.00000000
vn -0.58510955 0.55901528 0.58749360
vn -0.58510955 0.55901528 0.58749360
vn -0.58510955 0.55901528 0.58749360
vn 0.00000000 0.00000000 -1.00000000
vn 0.00000000 0.00000000 -1.00000000
vn 0.00000000 0.00000000 -1.00000000
vn 0.00000000 -1.00000000 0.00000000
vn 0.00000000 -1.00000000 0.00000000
vn 0.00000000 -1.00000000 0.00000000
vn 1.00000000 0.00000000 -0.00000000
vn 1.00000000 0.00000000 -0.00000000
vn 1.00000000 0.00000000 -0.00000000
vn 0.00000000 0.00000000 -1.00000000
vn 0.00000000 0.00000000 -1.00000000
vn 0.00000000 0.00000000 -1.00000000
vn 0.25881905 0.96592583 -0.00000000
vn 0.25881905 0.96592583 -0.00000000
vn 0.25881905 0.96592583 -0.00000000
vn 0.25881905 0.96592583 -0.00000000
vn -0.00000000 -0.00000000 1.00000000
vn -0.00000000 -0.00000000 1.00000000
vn -0.00000000 -0.00000000 1.00000000
vn 0.00000000 0.00000000 -1.00000000
vn 0.00000000 0.00000000 -1.00000000
vn 0.00000000 0.00000000 -1.00000000
vn 0.70710678 0.70710678 -0.00000000
vn 0.70710678 0.70710678 -0.00000000
vn 0.70710678 0.70710678 -0.00000000
vn 0.70710678 0.70710678 -0.00000000
vn -0.00000000 -0.00000000 1.00000000
vn -0.00000000 -0.00000000 1.00000000
vn -0.00000000 -0.00000000 1.00000000
vn 0.00000000 0.00000000 -1.00000000
vn 0.00000000 0.00000000 -1.00000000
vn 0.00000000 0.00000000 -1.00000000
vn 0.96592583 0.25881905 -0.00000000
vn 0.96592583 0.25881905 -0.00000000
vn 0.96592583 0.25881905 -0.00000000
vn 0.96592583 0.25881905 -0.00000000
vn -0.00000000 -0.00000000 1.00000000
vn -0.00000000 -0.00000000 1.00000000
vn -0.00000000 -0.00000000 1.00000000
vn 0.00000000 0.00000000 -1.00000000
vn 0.00000000 0.00000000 -1.00000000
vn 0.00000000 0.00000000 -1.00000000
vn 0.96592583 -0.25881905 -0.00000000
vn 0.96592583 -0.25881905 -0.00000000
vn 0.96592583 -0.25881905 -0.00000000
vn 0.96592583 -0.25881905 -0.00000000
vn -0.00000000 -0.00000000 1.00000000
vn -0.00000000 -0.00000000 1.00000000
vn -0.00000000 -0.00000000 1.00000000
vn 0.00000000 0.00000000 -1.00000000
vn 0.00000000 0.00000000 -1.00000000
vn 0.00000000 0.00000000 -1.00000000
vn 0.70710678 -0.70710678 0.00000000
vn 0.70710678 -0.70710678 0.00000000
vn 0.70710678 -0.70710678 0.00000000
vn 0.70710678 -0.70710678 0.00000000
vn -0.00000000 -0.00000000 1.00000000
vn -0.00000000 -0.00000000 1.00000000
vn -0.00000000 -0.00000000 1.00000000
vn 0.00000000 0.00000000 -1.00000000
vn 0.00000000 0.00000000 -1.00000000
vn 0.00000000 0.00000000 -1.00000000
vn 0.25881905 -0.96592583 0.00000000
vn 0.25881905 -0.96592583 0.00000000
vn 0.25881905 -0.96592583 0.00000000
vn 0.25881905 -0.96592583 0.00000000
vn -0.00000000 -0.00000000 1.00000000
vn -0.00000000 -0.00000000 1.00000000
vn -0.00000000 -0.00000000 1.00000000
vn 0.00000000 0.00000000 -1.00000000
vn 0.00000000 0.00000000 -1.00000000
vn 0.00000000 0.00000000 -1.00000000
vn -0.25881905 -0.96592583 0.00000000
vn -0.25881905 -0.96592583 0.00000000
vn -0.25881905 -0.96592583 0.00000000
vn -0.25881905 -0.96592583 0.00000000
vn -0.00000000 -0.00000000 1.00000000
vn -0.00000000 -0.00000000 1.00000000
vn -0.00000000 -0.00000000 1.00000000
vn 0.00000000 0.00000000 -1.00000000
vn 0.00000000 0.00000000 -1.00000000
vn 0.00000000 0.00000000 -1.00000000
vn -0.70710678 -0.70710678 0.00000000
vn -0.70710678 -0.70710678 0.00000000
vn -0.70710678 -0.70710678 0.00000000
vn -0.70710678 -0.70710678 0.00000000
vn -0.00000000 -0.00000000 1.00000000
vn -0.00000000 -0.00000000 1.00000000
vn -0.00000000 -0.00000000 1.00000000
vn 0.00000000 0.00000000 -1.00000000
vn 0.00000000 0.00000000 -1.00000000
vn 0.00000000 0.00000000 -1.00000000
vn -0.96592583 -0.25881905 0.00000000
vn -0.96592583 -0.25881905 0.00000000
vn -0.96592583 -0.25881905 0.00000000
vn -0.96592583 -0.25881905 0.00000000
vn -0.00000000 -0.00000000 1.00000000
vn -0.00000000 -0.00000000 1.00000000
vn -0.00000000 -0.00000000 1.00000000
vn 0.00000000 0.00000000 -1.00000000
vn 0.00000000 0.00000000 -1.00000000
vn 0.00000000 0.00000000 -1.00000000
vn -0.96592583 0.25881905 0.00000000
vn -0.96592583 0.25881905 0.00000000
vn -0.96592583 0.25881905 0.00000000
vn -0.96592583 0.25881905 0.00000000
vn -0.00000000 -0.00000000 1.00000000
vn -0.00000000 -0.00000000 1.00000000
vn -0.00000000 -0.00000000 1.00000000
vn 0.00000000 0.00000000 -1.00000000
vn 0.00000000 0.00000000 -1.00000000
vn 0.00000000 0.00000000 -1.00000000
vn -0.70710678 0.70710678 -0.00000000
vn -0.70710678 0.70710678 -0.00000000
vn -0.70710678 0.70710678 -0.00000000
vn -0.70710678 0.70710678 -0.00000000
vn -0.00000000 -0.00000000 1.00000000
vn -0.00000000 -0.00000000 1.00000000
vn -0.00000000 -0.00000000 1.00000000
vn 0.00000000 0.00000000 -1.00000000
vn 0.00000000 0.00000000 -1.00000000
vn 0.00000000 0.00000000 -1.00000000
vn -0.25881905 0.96592583 -0.00000000
vn -0.25881905 0.96592583 -0.00000000
vn -0.25881905 0.96592583 -0.00000000
vn -0.25881905 0.96592583 -0.00000000
vn -0.00000000 -0.00000000 1.00000000
vn -0.00000000 -0.00000000 1.00000000
vn -0.00000000 -0.00000000 1.00000000
vn 0.00000000 1.00000000 0.00000000
vn 0.00000000 1.00000000 0.00000000
vn 0.00000000 1.00000000 0.00000000
vn 0.00000000 1.00000000 0.00000000

g ²ã
f 2//1 1//2 4//3 3//4
f 1//5 5//6 4//7
f 3//8 6//9 2//10
f 6//11 3//12 4//13 5//14
f 6//15 5//16 1//17 2//18
f 8//19 7//20 10//21 9//22
f 7//23 11//24 10//25
f 9//26 12//27 8//28
f 12//29 9//30 10//31 11//32
f 12//33 11//34 7//35 8//36
f 18//37 17//38 13//39 14//40
f 15//41 14//42 13//43 16//44
f 16//45 13//46 17//47
f 18//48 14//49 15//50
f 15//51 16//52 17//53 18//54
f 20//55 19//56 22//57 21//58
f 24//59 20//60 21//61 25//62
f 26//63 25//64 21//65 22//66
f 23//67 26//68 22//69 19//70
f 24//71 23//72 19//73 20//74
f 26//75 23//76 24//77 25//78
f 32//79 31//80 27//81 28//82
f 29//83 28//84 27//85 30//86
f 30//87 27//88 31//89
f 32//90 28//91 29//92
f 29//93 30//94 31//95 32//96
f 35/1/97 34/2/98 33/3/99
f 36/4/100 35/5/101 33/6/102
f 37/7/103 35/8/104 36/9/105
f 34/10/106 35/11/107 37/12/108
f 36/13/109 33/14/110 34/15/111 37/16/112
f 40/17/113 39/18/114 38/19/115
f 41/20/116 40/21/117 38/22/118
f 42/23/119 40/24/120 41/25/121
f 39/26/122 40/27/123 42/28/124
f 41/29/125 38/30/126 39/31/127 42/32/128
f 44//129 43//130 46//131 45//132
f 43//133 47//134 46//135
f 45//136 48//137 44//138
f 48//139 45//140 46//141 47//142
f 48//143 47//144 43//145 44//146
f 50//147 49//148 52//149 51//150
f 49//151 53//152 52//153
f 51//154 54//155 50//156
f 54//157 51//158 52//159 53//160
f 54//161 53//162 49//163 50//164
f 56//165 55//166 58//167 57//168
f 55//169 59//170 58//171
f 57//172 60//173 56//174
f 60//175 57//176 58//177 59//178
f 60//179 59//180 55//181 56//182
f 62//183 61//184 64//185 63//186
f 61//187 65//188 64//189
f 63//190 66//191 62//192
f 66//193 63//194 64//195 65//196
f 66//197 65//198 61//199 62//200
f 69//201 68//202 67//203
f 68//204 69//205 70//206
f 67//207 68//208 70//209
f 69//210 67//211 70//212
f 73//213 72//214 71//215
f 72//216 73//217 74//218
f 71//219 72//220 74//221
f 73//222 71//223 74//224
f 77//225 76//226 75//227
f 75//228 78//229 77//230
f 75//231 79//232 78//233
f 78//234 80//235 77//236
f 81//237 79//238 75//239 76//240
f 80//241 78//242 79//243 81//244
f 80//245 81//246 76//247 77//248
f 84//249 83//250 82//251
f 83//252 84//253 85//254
f 82//255 83//256 85//257
f 84//258 82//259 85//260
f 88//261 87//262 86//263
f 86//264 89//265 88//266
f 86//267 90//268 89//269
f 89//270 91//271 88//272
f 92//273 90//274 86//275 87//276
f 91//277 89//278 90//279 92//280
f 91//281 92//282 87//283 88//284
f 95//285 94//286 93//287
f 94//288 95//289 96//290
f 93//291 94//292 96//293
f 95//294 93//295 96//296
f 98//297 121//298 120//299
f 98//300 120//301 119//302 97//303
f 119//304 122//305 97//306
f 100//307 121//308 98//309
f 100//310 98//311 97//312 99//313
f 97//314 122//315 99//316
f 102//317 121//318 100//319
f 102//320 100//321 99//322 101//323
f 99//324 122//325 101//326
f 104//327 121//328 102//329
f 104//330 102//331 101//332 103//333
f 101//334 122//335 103//336
f 106//337 121//338 104//339
f 106//340 104//341 103//342 105//343
f 103//344 122//345 105//346
f 108//347 121//348 106//349
f 108//350 106//351 105//352 107//353
f 105//354 122//355 107//356
f 110//357 121//358 108//359
f 110//360 108//361 107//362 109//363
f 107//364 122//365 109//366
f 112//367 121//368 110//369
f 112//370 110//371 109//372 111//373
f 109//374 122//375 111//376
f 114//377 121//378 112//379
f 114//380 112//381 111//382 113//383
f 111//384 122//385 113//386
f 116//387 121//388 114//389
f 116//390 114//391 113//392 115//393
f 113//394 122//395 115//396
f 118//397 121//398 116//399
f 118//400 116//401 115//402 117//403
f 115//404 122//405 117//406
f 120//407 121//408 118//409
f 120//410 118//411 117//412 119//413
f 117//414 122//415 119//416
f 124//417 123//418 126//419 125//420

