# Rhino

o object_1
v 5.003 4.859 1.496
v 5.003 4.877 1.427
v 5.003 4.877 1.564
v 5.003 4.928 1.377
v 5.003 4.928 1.614
v 5.003 4.996 1.359
v 5.003 4.996 1.496
v 5.003 4.996 1.633
v 5.003 5.064 1.377
v 5.003 5.064 1.614
v 5.003 5.115 1.427
v 5.003 5.115 1.564
v 5.003 5.133 1.496
v 5.056 4.692 1.512
v 5.056 4.733 1.36
v 5.056 4.733 1.664
v 5.056 4.844 1.249
v 5.056 4.844 1.776
v 5.056 4.996 1.208
v 5.056 4.996 1.512
v 5.056 4.996 1.816
v 5.056 5.148 1.249
v 5.056 5.148 1.776
v 5.056 5.259 1.36
v 5.056 5.259 1.664
v 5.056 5.3 1.512
v 7.44 4.721 1.512
v 7.44 4.758 1.374
v 7.44 4.758 1.649
v 7.44 4.859 1.274
v 7.44 4.859 1.75
v 7.44 4.996 1.237
v 7.44 4.996 1.787
v 7.44 5.134 1.274
v 7.44 5.134 1.75
v 7.44 5.234 1.374
v 7.44 5.234 1.649
v 7.44 5.271 1.512
v 7.44 4.692 1.51
v 7.44 4.733 1.358
v 7.44 4.733 1.662
v 7.44 4.844 1.247
v 7.44 4.844 1.773
v 7.44 4.996 1.206
v 7.44 4.996 1.814
v 7.44 5.148 1.247
v 7.44 5.148 1.773
v 7.44 5.259 1.358
v 7.44 5.259 1.662
v 7.44 5.3 1.51
v 8.305 4.721 1.514
v 8.305 4.746 1.518
v 8.305 4.758 1.377
v 8.305 4.758 1.652
v 8.305 4.779 1.393
v 8.305 4.779 1.643
v 8.305 4.859 1.276
v 8.305 4.859 1.752
v 8.305 4.871 1.301
v 8.305 4.871 1.735
v 8.305 4.996 1.239
v 8.305 4.996 1.268
v 8.305 4.996 1.768
v 8.305 4.996 1.789
v 8.305 5.121 1.301
v 8.305 5.121 1.735
v 8.305 5.134 1.276
v 8.305 5.134 1.752
v 8.305 5.213 1.393
v 8.305 5.213 1.643
v 8.305 5.234 1.377
v 8.305 5.234 1.652
v 8.305 5.246 1.518
v 8.305 5.271 1.514
v 12.52 4.783 1.501
v 12.52 4.811 1.394
v 12.52 4.811 1.607
v 12.52 4.889 1.316
v 12.52 4.889 1.685
v 12.52 4.996 1.288
v 12.52 4.996 1.714
v 12.52 5.103 1.316
v 12.52 5.103 1.685
v 12.52 5.181 1.394
v 12.52 5.181 1.607
v 12.52 5.209 1.501
v 12.52 4.844 1.506
v 12.52 4.864 1.43
v 12.52 4.864 1.582
v 12.52 4.92 1.374
v 12.52 4.92 1.638
v 12.52 4.996 1.354
v 12.52 4.996 1.658
v 12.52 5.072 1.374
v 12.52 5.072 1.638
v 12.52 5.128 1.43
v 12.52 5.128 1.582
v 12.52 5.148 1.506
vn 0.002027 1 1.9e-07
vn 0.002703 0.866 -0.5
vn 0.002703 0.866 -0.5
vn 0.002027 1 1.9e-07
vn 0.002703 0.866 -0.5
vn 0.002703 0.866 -0.5
vn 0.003125 0.5751 -0.8181
vn 0.003246 0.421 -0.9071
vn 0.003246 0.421 -0.9071
vn 0.003125 0.5751 -0.8181
vn 0.003366 0.08896 -0.996
vn 0.003366 -0.08896 -0.996
vn 0.003366 -0.08896 -0.996
vn 0.003366 0.08896 -0.996
vn 0.003246 -0.421 -0.9071
vn 0.003125 -0.5751 -0.8181
vn 0.003125 -0.5751 -0.8181
vn 0.003246 -0.421 -0.9071
vn 0.002797 -0.8181 -0.5751
vn 0.002589 -0.9071 -0.421
vn 0.002589 -0.9071 -0.421
vn 0.002797 -0.8181 -0.5751
vn 0.00214 -0.996 -0.08896
vn 0.001899 -0.996 0.08896
vn 0.001899 -0.996 0.08896
vn 0.00214 -0.996 -0.08896
vn 0.00145 -0.9071 0.421
vn 0.001242 -0.8181 0.5751
vn 0.001242 -0.8181 0.5751
vn 0.00145 -0.9071 0.421
vn 0.0009134 -0.5751 0.8181
vn 0.0007931 -0.421 0.9071
vn 0.0007931 -0.421 0.9071
vn 0.0009134 -0.5751 0.8181
vn 0.0006728 -0.08896 0.996
vn 0.0006728 0.08896 0.996
vn 0.0006728 0.08896 0.996
vn 0.0006728 -0.08896 0.996
vn 0.0007931 0.421 0.9071
vn 0.0009134 0.5751 0.8181
vn 0.0009134 0.5751 0.8181
vn 0.0007931 0.421 0.9071
vn 0.001242 0.8181 0.5751
vn 0.00145 0.9071 0.421
vn 0.00145 0.9071 0.421
vn 0.001242 0.8181 0.5751
vn 0.002027 1 1.9e-07
vn 0.002027 1 1.9e-07
vn 1 -0.004194 -0.001924
vn 1 -0.004757 2.856e-05
vn 1 -0.004757 2.856e-05
vn 1 -0.003737 -0.002602
vn 1 -0.004757 2.856e-05
vn 1 -0.004757 2.856e-05
vn 1 -0.004286 0.002505
vn 1 -0.004286 0.002505
vn 1 -0.002578 -0.003649
vn 1 -0.004194 -0.001924
vn 1 -0.003737 -0.002602
vn 1 -0.001877 -0.004018
vn 1 -0.0003919 -0.004388
vn 1 -0.002578 -0.003649
vn 1 -0.001877 -0.004018
vn 1 0.0003919 -0.004388
vn 1 0.001877 -0.004018
vn 1 -0.0003919 -0.004388
vn 1 0.0003919 -0.004388
vn 1 0.002578 -0.003649
vn 1 0.003737 -0.002602
vn 1 0.001877 -0.004018
vn 1 0.002578 -0.003649
vn 1 0.004194 -0.001924
vn 1 0.004722 -0.0003963
vn 1 0.003737 -0.002602
vn 1 0.004194 -0.001924
vn 1 0.004793 0.0004534
vn 1 0.004478 0.002105
vn 1 0.004722 -0.0003963
vn 1 0.004793 0.0004534
vn 1 0.004093 0.002906
vn 1 0.002935 0.004201
vn 1 0.004478 0.002105
vn 1 0.004093 0.002906
vn 1 0.002163 0.004695
vn 1 0.0004634 0.005189
vn 1 0.002935 0.004201
vn 1 0.002163 0.004695
vn 1 -0.0004634 0.005189
vn 1 -0.002163 0.004695
vn 1 0.0004634 0.005189
vn 1 -0.0004634 0.005189
vn 1 -0.002935 0.004201
vn 1 -0.004286 0.002505
vn 1 -0.002163 0.004695
vn 1 -0.002935 0.004201
vn 1 -0.004286 0.002505
vn 0.008776 -1 -2.43e-06
vn 0.01084 -0.866 0.5
vn 0.01084 -0.866 0.5
vn 0.008776 -1 -2.43e-06
vn 0.01084 -0.866 0.5
vn 0.01084 -0.866 0.5
vn 0.01212 -0.575 0.818
vn 0.01249 -0.4209 0.907
vn 0.01249 -0.4209 0.907
vn 0.01212 -0.575 0.818
vn 0.01285 -0.08895 0.996
vn 0.01285 0.08895 0.996
vn 0.01285 0.08895 0.996
vn 0.01285 -0.08895 0.996
vn 0.01249 0.4209 0.907
vn 0.01212 0.575 0.818
vn 0.01212 0.575 0.818
vn 0.01249 0.4209 0.907
vn 0.01112 0.8181 0.575
vn 0.01048 0.907 0.4209
vn 0.01048 0.907 0.4209
vn 0.01112 0.8181 0.575
vn 0.009108 0.996 0.08896
vn 0.008373 0.996 -0.08896
vn 0.008373 0.996 -0.08896
vn 0.009108 0.996 0.08896
vn 0.007002 0.907 -0.421
vn 0.006365 0.8181 -0.5751
vn 0.006365 0.8181 -0.5751
vn 0.007002 0.907 -0.421
vn 0.005361 0.5751 -0.8181
vn 0.004994 0.421 -0.9071
vn 0.004994 0.421 -0.9071
vn 0.005361 0.5751 -0.8181
vn 0.004626 0.08896 -0.996
vn 0.004626 -0.08896 -0.996
vn 0.004626 -0.08896 -0.996
vn 0.004626 0.08896 -0.996
vn 0.004994 -0.421 -0.9071
vn 0.005361 -0.5751 -0.8181
vn 0.005361 -0.5751 -0.8181
vn 0.004994 -0.421 -0.9071
vn 0.006365 -0.8181 -0.5751
vn 0.007002 -0.907 -0.421
vn 0.007002 -0.907 -0.421
vn 0.006365 -0.8181 -0.5751
vn 0.008776 -1 -2.43e-06
vn 0.008776 -1 -2.43e-06
vn 1 0 0
vn 1 0 0
vn 1 0 0
vn 1 0 0
vn 1 0 0
vn 1 0 0
vn 1 0 0
vn 1 0 0
vn 1 0 0
vn 1 0 0
vn 1 0 0
vn 1 0 0
vn 1 0 0
vn 1 0 0
vn 1 0 0
vn 1 0 0
vn 1 0 0
vn 1 0 0
vn 1 0 0
vn 1 0 0
vn 1 0 0
vn 1 0 0
vn 1 0 0
vn 1 0 0
vn 1 0 0
vn 1 0 0
vn 1 0 0
vn 1 0 0
vn 1 0 0
vn 1 0 0
vn 1 0 0
vn 1 0 0
vn 1 0 0
vn 1 0 0
vn 1 0 0
vn 1 0 0
vn 1 0 0
vn 1 0 0
vn 1 0 0
vn 1 0 0
vn 1 0 0
vn 1 0 0
vn 1 0 0
vn 1 0 0
vn 1 0 0
vn 1 0 0
vn 1 0 0
vn 1 0 0
vn 0 -1 0
vn -0.0013 -0.866 0.5
vn -0.0013 -0.866 0.5
vn 0 -1 0
vn -0.0013 -0.866 0.5
vn -0.0013 -0.866 0.5
vn -0.002128 -0.5751 0.8181
vn -0.002359 -0.421 0.9071
vn -0.002359 -0.421 0.9071
vn -0.002128 -0.5751 0.8181
vn -0.002591 -0.08896 0.996
vn -0.002591 0.08896 0.996
vn -0.002591 0.08896 0.996
vn -0.002591 -0.08896 0.996
vn -0.002359 0.421 0.9071
vn -0.002128 0.5751 0.8181
vn -0.002128 0.5751 0.8181
vn -0.002359 0.421 0.9071
vn -0.001496 0.8181 0.5751
vn -0.001095 0.9071 0.421
vn -0.001095 0.9071 0.421
vn -0.001496 0.8181 0.5751
vn -0.0002314 0.996 0.08896
vn 0.0002314 0.996 -0.08896
vn 0.0002314 0.996 -0.08896
vn -0.0002314 0.996 0.08896
vn 0.001095 0.9071 -0.421
vn 0.001496 0.8181 -0.5751
vn 0.001496 0.8181 -0.5751
vn 0.001095 0.9071 -0.421
vn 0.002128 0.5751 -0.8181
vn 0.002359 0.421 -0.9071
vn 0.002359 0.421 -0.9071
vn 0.002128 0.5751 -0.8181
vn 0.002591 0.08896 -0.996
vn 0.002591 -0.08896 -0.996
vn 0.002591 -0.08896 -0.996
vn 0.002591 0.08896 -0.996
vn 0.002359 -0.421 -0.9071
vn 0.002128 -0.5751 -0.8181
vn 0.002128 -0.5751 -0.8181
vn 0.002359 -0.421 -0.9071
vn 0.001496 -0.8181 -0.5751
vn 0.001095 -0.9071 -0.421
vn 0.001095 -0.9071 -0.421
vn 0.001496 -0.8181 -0.5751
vn 0 -1 0
vn 0 -1 0
vn 1 0.008891 0.004091
vn 0.9999 0.01 -4.484e-05
vn 0.9999 0.01 -4.484e-05
vn 1 0.007946 0.005546
vn 0.9999 0.01 -4.484e-05
vn 0.9999 0.01 -4.484e-05
vn 0.9999 0.008921 -0.005198
vn 0.9999 0.008921 -0.005198
vn 1 0.005508 0.007805
vn 1 0.008891 0.004091
vn 1 0.007946 0.005546
vn 1 0.004015 0.008609
vn 1 0.0008407 0.009413
vn 1 0.005508 0.007805
vn 1 0.004015 0.008609
vn 1 -0.0008407 0.009413
vn 1 -0.004015 0.008609
vn 1 0.0008407 0.009413
vn 1 -0.0008407 0.009413
vn 1 -0.005508 0.007805
vn 1 -0.007946 0.005546
vn 1 -0.004015 0.008609
vn 1 -0.005508 0.007805
vn 1 -0.008891 0.004091
vn 1 -0.009947 0.0008486
vn 1 -0.007946 0.005546
vn 1 -0.008891 0.004091
vn 0.9999 -0.01006 -0.0009383
vn 0.9999 -0.009337 -0.004374
vn 1 -0.009947 0.0008486
vn 0.9999 -0.01006 -0.0009383
vn 0.9999 -0.008504 -0.006023
vn 0.9999 -0.006067 -0.00867
vn 0.9999 -0.009337 -0.004374
vn 0.9999 -0.008504 -0.006023
vn 0.9999 -0.004462 -0.009668
vn 0.9999 -0.0009527 -0.01067
vn 0.9999 -0.006067 -0.00867
vn 0.9999 -0.004462 -0.009668
vn 0.9999 0.0009527 -0.01067
vn 0.9999 0.004462 -0.009668
vn 0.9999 -0.0009527 -0.01067
vn 0.9999 0.0009527 -0.01067
vn 0.9999 0.006067 -0.00867
vn 0.9999 0.008921 -0.005198
vn 0.9999 0.004462 -0.009668
vn 0.9999 0.006067 -0.00867
vn 0.9999 0.008921 -0.005198
vn 0.0004437 -0.9071 0.421
vn 0.0006061 -0.8181 0.5751
vn 9.377e-05 -0.996 0.08896
vn -9.377e-05 -0.996 -0.08896
vn -1 0 0
vn -1 0 0
vn -1 0 0
vn 0.0008623 -0.5751 0.8181
vn 0.0009561 -0.421 0.9071
vn 0.0006061 -0.8181 0.5751
vn 0.0004437 -0.9071 0.421
vn -1 0 0
vn -1 0 0
vn -1 0 0
vn 0.00105 -0.08896 0.996
vn 0.00105 0.08896 0.996
vn 0.0009561 -0.421 0.9071
vn 0.0008623 -0.5751 0.8181
vn -1 0 0
vn -1 0 0
vn -1 0 0
vn 0.0009561 0.421 0.9071
vn 0.0008623 0.5751 0.8181
vn 0.00105 0.08896 0.996
vn 0.00105 -0.08896 0.996
vn -1 0 0
vn -1 0 0
vn -1 0 0
vn 0.0006061 0.8181 0.5751
vn 0.0004437 0.9071 0.421
vn 0.0008623 0.5751 0.8181
vn 0.0009561 0.421 0.9071
vn -1 0 0
vn -1 0 0
vn -1 0 0
vn 9.377e-05 0.996 0.08896
vn -9.377e-05 0.996 -0.08896
vn 0.0004437 0.9071 0.421
vn 0.0006061 0.8181 0.5751
vn -1 0 0
vn -1 0 0
vn -1 0 0
vn -0.0004437 0.9071 -0.421
vn -0.0006061 0.8181 -0.5751
vn -9.377e-05 0.996 -0.08896
vn 9.377e-05 0.996 0.08896
vn -1 0 0
vn -1 0 0
vn -1 0 0
vn -0.0008623 0.5751 -0.8181
vn -0.0009561 0.421 -0.9071
vn -0.0006061 0.8181 -0.5751
vn -0.0004437 0.9071 -0.421
vn -1 0 0
vn -1 0 0
vn -1 0 0
vn -0.00105 0.08896 -0.996
vn -0.00105 -0.08896 -0.996
vn -0.0009561 0.421 -0.9071
vn -0.0008623 0.5751 -0.8181
vn -1 0 0
vn -1 0 0
vn -1 0 0
vn -0.0009561 -0.421 -0.9071
vn -0.0008623 -0.5751 -0.8181
vn -0.00105 -0.08896 -0.996
vn -0.00105 0.08896 -0.996
vn -1 0 0
vn -1 0 0
vn -1 0 0
vn -0.0006061 -0.8181 -0.5751
vn -0.0004437 -0.9071 -0.421
vn -0.0008623 -0.5751 -0.8181
vn -0.0009561 -0.421 -0.9071
vn -1 0 0
vn -1 0 0
vn -1 0 0
vn -9.377e-05 -0.996 -0.08896
vn 9.377e-05 -0.996 0.08896
vn -0.0004437 -0.9071 -0.421
vn -0.0006061 -0.8181 -0.5751
vn -1 0 0
vn -1 0 0
vn -1 0 0
vn 1 0 0
vn 1 0 0
vn 1 0 0
vn 1 0 0
vn 1 0 0
vn 1 0 0
vn 1 0 0
vn 1 0 0
vn 1 0 0
vn 1 0 0
vn 1 0 0
vn 1 0 0
vn 1 0 0
vn 1 0 0
vn 1 0 0
vn 1 0 0
vn 1 0 0
vn 1 0 0
vn 1 0 0
vn 1 0 0
vn 1 0 0
vn 1 0 0
vn 1 0 0
vn 1 0 0
vn 1 0 0
vn 1 0 0
vn 1 0 0
vn 1 0 0
vn 1 0 0
vn 1 0 0
vn 1 0 0
vn 1 0 0
vn 1 0 0
vn 1 0 0
vn 1 0 0
vn 1 0 0
f 1//1 3//2 89//3 87//4
f 89//5 3//6 5//7 91//8
f 91//9 5//10 8//11 93//12
f 93//13 8//14 10//15 95//16
f 95//17 10//18 12//19 97//20
f 97//21 12//22 13//23 98//24
f 98//25 13//26 11//27 96//28
f 96//29 11//30 9//31 94//32
f 94//33 9//34 6//35 92//36
f 92//37 6//38 4//39 90//40
f 90//41 4//42 2//43 88//44
f 88//45 2//46 1//47 87//48
f 88//49 87//50 75//51 76//52
f 75//53 87//54 89//55 77//56
f 90//57 88//58 76//59 78//60
f 92//61 90//62 78//63 80//64
f 94//65 92//66 80//67 82//68
f 96//69 94//70 82//71 84//72
f 98//73 96//74 84//75 86//76
f 97//77 98//78 86//79 85//80
f 95//81 97//82 85//83 83//84
f 93//85 95//86 83//87 81//88
f 91//89 93//90 81//91 79//92
f 89//93 91//94 79//95 77//96
f 75//97 77//98 56//99 52//100
f 56//101 77//102 79//103 60//104
f 60//105 79//106 81//107 63//108
f 63//109 81//110 83//111 66//112
f 66//113 83//114 85//115 70//116
f 70//117 85//118 86//119 73//120
f 73//121 86//122 84//123 69//124
f 69//125 84//126 82//127 65//128
f 65//129 82//130 80//131 62//132
f 62//133 80//134 78//135 59//136
f 59//137 78//138 76//139 55//140
f 55//141 76//142 75//143 52//144
f 55//145 52//146 51//147 53//148
f 51//149 52//150 56//151 54//152
f 59//153 55//154 53//155 57//156
f 62//157 59//158 57//159 61//160
f 65//161 62//162 61//163 67//164
f 69//165 65//166 67//167 71//168
f 73//169 69//170 71//171 74//172
f 70//173 73//174 74//175 72//176
f 66//177 70//178 72//179 68//180
f 63//181 66//182 68//183 64//184
f 60//185 63//186 64//187 58//188
f 56//189 60//190 58//191 54//192
f 51//193 54//194 29//195 27//196
f 29//197 54//198 58//199 31//200
f 31//201 58//202 64//203 33//204
f 33//205 64//206 68//207 35//208
f 35//209 68//210 72//211 37//212
f 37//213 72//214 74//215 38//216
f 38//217 74//218 71//219 36//220
f 36//221 71//222 67//223 34//224
f 34//225 67//226 61//227 32//228
f 32//229 61//230 57//231 30//232
f 30//233 57//234 53//235 28//236
f 28//237 53//238 51//239 27//240
f 28//241 27//242 39//243 40//244
f 39//245 27//246 29//247 41//248
f 30//249 28//250 40//251 42//252
f 32//253 30//254 42//255 44//256
f 34//257 32//258 44//259 46//260
f 36//261 34//262 46//263 48//264
f 38//265 36//266 48//267 50//268
f 37//269 38//270 50//271 49//272
f 35//273 37//274 49//275 47//276
f 33//277 35//278 47//279 45//280
f 31//281 33//282 45//283 43//284
f 29//285 31//286 43//287 41//288
f 41//289 16//290 14//291 39//292
f 20//293 14//294 16//295
f 43//296 18//297 16//298 41//299
f 20//300 16//301 18//302
f 45//303 21//304 18//305 43//306
f 20//307 18//308 21//309
f 47//310 23//311 21//312 45//313
f 20//314 21//315 23//316
f 49//317 25//318 23//319 47//320
f 20//321 23//322 25//323
f 50//324 26//325 25//326 49//327
f 20//328 25//329 26//330
f 48//331 24//332 26//333 50//334
f 20//335 26//336 24//337
f 46//338 22//339 24//340 48//341
f 20//342 24//343 22//344
f 44//345 19//346 22//347 46//348
f 20//349 22//350 19//351
f 42//352 17//353 19//354 44//355
f 20//356 19//357 17//358
f 40//359 15//360 17//361 42//362
f 20//363 17//364 15//365
f 39//366 14//367 15//368 40//369
f 20//370 15//371 14//372
f 7//373 3//374 1//375
f 7//376 5//377 3//378
f 7//379 8//380 5//381
f 7//382 10//383 8//384
f 7//385 12//386 10//387
f 7//388 13//389 12//390
f 7//391 11//392 13//393
f 7//394 9//395 11//396
f 7//397 6//398 9//399
f 7//400 4//401 6//402
f 7//403 2//404 4//405
f 7//406 1//407 2//408
