# Rhino

o object_1
v 1.739 4.996 0.01454
v 1.739 4.996 2.39
v 2.013 3.972 0.01454
v 2.013 3.972 2.39
v 2.013 6.021 0.01454
v 2.013 6.021 2.39
v 2.556 4.191 2.273
v 2.557 4.191 2.47
v 2.586 4.191 2.483
v 2.587 4.191 2.616
v 2.589 4.067 2.273
v 2.589 4.314 2.273
v 2.59 4.067 2.47
v 2.59 4.314 2.47
v 2.615 4.082 2.483
v 2.615 4.3 2.483
v 2.616 4.082 2.616
v 2.616 4.3 2.616
v 2.68 3.976 2.273
v 2.68 4.405 2.273
v 2.68 3.976 2.47
v 2.68 4.405 2.47
v 2.686 4.191 2.722
v 2.695 4.002 2.483
v 2.695 4.379 2.483
v 2.696 4.002 2.616
v 2.696 4.379 2.616
v 2.702 4.131 2.722
v 2.702 4.25 2.722
v 2.745 4.088 2.722
v 2.745 4.293 2.722
v 2.803 3.943 2.273
v 2.803 4.438 2.273
v 2.804 3.943 2.47
v 2.804 4.438 2.47
v 2.804 3.972 2.483
v 2.804 4.409 2.483
v 2.805 4.072 2.722
v 2.805 4.191 2.722
v 2.805 4.309 2.722
v 2.805 3.972 2.616
v 2.805 4.409 2.616
v 2.864 4.088 2.722
v 2.864 4.293 2.722
v 2.907 4.131 2.722
v 2.907 4.25 2.722
v 2.913 4.002 2.483
v 2.913 4.379 2.483
v 2.914 4.002 2.616
v 2.914 4.379 2.616
v 2.923 4.191 2.722
v 2.927 3.976 2.273
v 2.927 4.405 2.273
v 2.927 3.976 2.47
v 2.927 4.405 2.47
v 2.993 4.082 2.483
v 2.993 4.3 2.483
v 2.993 4.082 2.616
v 2.993 4.3 2.616
v 3.017 4.067 2.273
v 3.017 4.314 2.273
v 3.018 4.067 2.47
v 3.018 4.314 2.47
v 3.022 4.191 2.483
v 3.023 4.191 2.616
v 3.051 4.191 2.273
v 3.051 4.191 2.47
v 3.083 3.237 0.01454
v 3.083 3.237 2.39
v 3.083 6.786 0.01454
v 3.083 6.786 2.39
v 4.432 3.217 0.01454
v 4.432 3.217 2.39
v 4.462 4.996 0.01454
v 4.462 4.996 2.39
v 4.471 6.747 0.01454
v 4.471 6.747 2.39
v 5.879 3.21 0.01454
v 5.879 3.21 2.39
v 5.879 6.759 0.01454
v 5.879 6.759 2.39
v 6.97 3.984 0.01454
v 6.97 3.984 2.39
v 6.97 6.033 0.01454
v 6.97 6.033 2.39
v 7.244 5.008 0.01454
v 7.244 5.008 2.39
vn 0 0 1
vn 0 0 1
vn 0 0 1
vn -0.008432 -1 0
vn 0.4012 -0.916 0
vn 0.198 -0.9802 0
vn -0.01179 -0.9999 0
vn 0 0 -1
vn 0 0 -1
vn 0 0 -1
vn 0 0 1
vn 0 0 1
vn 0 0 1
vn 0.4012 -0.916 0
vn 0.8832 -0.469 0
vn 0.747 -0.6648 0
vn 0.198 -0.9802 0
vn 0 0 -1
vn 0 0 -1
vn 0 0 -1
vn 0 0 1
vn 0 0 1
vn 0 0 1
vn 0.8832 -0.469 0
vn 0.996 0.08896 0
vn 0.996 -0.08896 0
vn 0.747 -0.6648 0
vn 0 0 -1
vn 0 0 -1
vn 0 0 -1
vn 0 0 1
vn 0 0 1
vn 0 0 1
vn 0.996 0.08896 0
vn 0.7331 0.6801 0
vn 0.8787 0.4773 0
vn 0.996 -0.08896 0
vn 0 0 -1
vn 0 0 -1
vn 0 0 -1
vn 0 0 1
vn 0 0 1
vn 0 0 1
vn 0.7331 0.6801 0
vn 0.1863 0.9825 0
vn 0.3813 0.9244 0
vn 0.8787 0.4773 0
vn 0 0 -1
vn 0 0 -1
vn 0 0 -1
vn 0 0 1
vn 0 0 1
vn 0 0 1
vn 0.1863 0.9825 0
vn 0.01623 0.9999 0
vn 0.003891 1 0
vn 0.3813 0.9244 0
vn 0 0 -1
vn 0 0 -1
vn 0 0 -1
vn 0 0 1
vn 0 0 1
vn 0 0 1
vn 0.01623 0.9999 0
vn -0.3967 0.9179 0
vn -0.1834 0.983 0
vn 0.003891 1 0
vn 0 0 -1
vn 0 0 -1
vn 0 0 -1
vn 0 0 1
vn 0 0 1
vn 0 0 1
vn -0.3967 0.9179 0
vn -0.8838 0.4679 0
vn -0.7487 0.6629 0
vn -0.1834 0.983 0
vn 0 0 -1
vn 0 0 -1
vn 0 0 -1
vn 0 0 1
vn 0 0 1
vn 0 0 1
vn -0.8838 0.4679 0
vn -0.996 -0.08896 0
vn -0.996 0.08896 0
vn -0.7487 0.6629 0
vn 0 0 -1
vn 0 0 -1
vn 0 0 -1
vn 0 0 1
vn 0 0 1
vn 0 0 1
vn -0.996 -0.08896 0
vn -0.7398 -0.6728 0
vn -0.8809 -0.4733 0
vn -0.996 0.08896 0
vn 0 0 -1
vn 0 0 -1
vn 0 0 -1
vn 0 0 1
vn 0 0 1
vn 0 0 1
vn -0.7398 -0.6728 0
vn -0.2066 -0.9784 0
vn -0.3974 -0.9176 0
vn -0.8809 -0.4733 0
vn 0 0 -1
vn 0 0 -1
vn 0 0 -1
vn 0 0 1
vn 0 0 1
vn 0 0 1
vn -0.2066 -0.9784 0
vn -0.008432 -1 0
vn -0.01179 -0.9999 0
vn -0.3974 -0.9176 0
vn 0 0 -1
vn 0 0 -1
vn 0 0 -1
vn -5.31e-06 -0.394 0.9191
vn 0 0 1
vn -0.197 -0.3413 0.9191
vn -0.197 -0.3413 0.9191
vn 0 0 1
vn -0.3413 -0.197 0.9191
vn -0.3413 -0.197 0.9191
vn 0 0 1
vn -0.3941 0 0.9191
vn -0.3941 0 0.9191
vn 0 0 1
vn -0.3413 0.197 0.9191
vn -0.3413 0.197 0.9191
vn 0 0 1
vn -0.197 0.3413 0.9191
vn -0.197 0.3413 0.9191
vn 0 0 1
vn -5.31e-06 0.394 0.9191
vn -5.31e-06 0.394 0.9191
vn 0 0 1
vn 0.197 0.3412 0.9191
vn 0.197 0.3412 0.9191
vn 0 0 1
vn 0.3411 0.197 0.9191
vn 0.3411 0.197 0.9191
vn 0 0 1
vn 0.3939 0 0.9191
vn 0.3939 0 0.9191
vn 0 0 1
vn 0.3411 -0.197 0.9191
vn 0.3411 -0.197 0.9191
vn 0 0 1
vn 0.197 -0.3412 0.9191
vn 0.197 -0.3412 0.9191
vn 0 0 1
vn -5.31e-06 -0.394 0.9191
vn 0.08896 -0.996 -0.0003965
vn 0.5751 -0.8181 -0.002563
vn 0.4646 -0.8048 0.3695
vn -5.33e-06 -0.9289 0.3704
vn 0.5751 -0.8181 -0.002563
vn 0.9071 -0.421 -0.004043
vn 0.805 -0.4648 0.3688
vn 0.4646 -0.8048 0.3695
vn 0.9071 -0.421 -0.004043
vn 0.996 0.08896 -0.00444
vn 0.9296 0 0.3685
vn 0.805 -0.4648 0.3688
vn 0.996 0.08896 -0.00444
vn 0.8181 0.5751 -0.003646
vn 0.805 0.4648 0.3688
vn 0.9296 0 0.3685
vn 0.8181 0.5751 -0.003646
vn 0.421 0.9071 -0.001876
vn 0.4646 0.8048 0.3695
vn 0.805 0.4648 0.3688
vn 0.421 0.9071 -0.001876
vn -0.08896 0.996 0.0003965
vn -5.33e-06 0.9289 0.3704
vn 0.4646 0.8048 0.3695
vn -0.08896 0.996 0.0003965
vn -0.5751 0.8181 0.002563
vn -0.4642 0.8041 0.3714
vn -5.33e-06 0.9289 0.3704
vn -0.5751 0.8181 0.002563
vn -0.9071 0.421 0.004043
vn -0.8038 0.4641 0.3721
vn -0.4642 0.8041 0.3714
vn -0.9071 0.421 0.004043
vn -0.996 -0.08896 0.00444
vn -0.9281 0 0.3724
vn -0.8038 0.4641 0.3721
vn -0.996 -0.08896 0.00444
vn -0.8181 -0.5751 0.003646
vn -0.8038 -0.4641 0.3721
vn -0.9281 0 0.3724
vn -0.8181 -0.5751 0.003646
vn -0.421 -0.9071 0.001876
vn -0.4642 -0.8041 0.3714
vn -0.8038 -0.4641 0.3721
vn -0.421 -0.9071 0.001876
vn 0.08896 -0.996 -0.0003965
vn -5.33e-06 -0.9289 0.3704
vn -0.4642 -0.8041 0.3714
vn -0.8038 -0.4641 0.3721
vn -0.4642 -0.8041 0.3714
vn -0.197 -0.3413 0.9191
vn -0.3413 -0.197 0.9191
vn -0.9281 0 0.3724
vn -0.8038 -0.4641 0.3721
vn -0.3413 -0.197 0.9191
vn -0.3941 0 0.9191
vn -0.8038 0.4641 0.3721
vn -0.9281 0 0.3724
vn -0.3941 0 0.9191
vn -0.3413 0.197 0.9191
vn -0.4642 0.8041 0.3714
vn -0.8038 0.4641 0.3721
vn -0.3413 0.197 0.9191
vn -0.197 0.3413 0.9191
vn -5.33e-06 0.9289 0.3704
vn -0.4642 0.8041 0.3714
vn -0.197 0.3413 0.9191
vn -5.31e-06 0.394 0.9191
vn 0.4646 0.8048 0.3695
vn -5.33e-06 0.9289 0.3704
vn -5.31e-06 0.394 0.9191
vn 0.197 0.3412 0.9191
vn 0.805 0.4648 0.3688
vn 0.4646 0.8048 0.3695
vn 0.197 0.3412 0.9191
vn 0.3411 0.197 0.9191
vn 0.9296 0 0.3685
vn 0.805 0.4648 0.3688
vn 0.3411 0.197 0.9191
vn 0.3939 0 0.9191
vn 0.805 -0.4648 0.3688
vn 0.9296 0 0.3685
vn 0.3939 0 0.9191
vn 0.3411 -0.197 0.9191
vn 0.4646 -0.8048 0.3695
vn 0.805 -0.4648 0.3688
vn 0.3411 -0.197 0.9191
vn 0.197 -0.3412 0.9191
vn -0.197 -0.3413 0.9191
vn -0.4642 -0.8041 0.3714
vn -5.33e-06 -0.9289 0.3704
vn -5.31e-06 -0.394 0.9191
vn -5.33e-06 -0.9289 0.3704
vn 0.4646 -0.8048 0.3695
vn 0.197 -0.3412 0.9191
vn -5.31e-06 -0.394 0.9191
vn -0.2096 -0.3634 0.9077
vn -0.2096 -0.3634 0.9077
vn -0.3434 -0.2415 0.9076
vn -0.3804 -0.1767 0.9078
vn -0.3804 -0.1767 0.9078
vn -0.3434 -0.2415 0.9076
vn -0.4175 -0.03729 0.9079
vn -0.4175 0.03729 0.9079
vn -0.4175 0.03729 0.9079
vn -0.4175 -0.03729 0.9079
vn -0.3804 0.1767 0.9078
vn -0.3434 0.2415 0.9076
vn -0.3434 0.2415 0.9076
vn -0.3804 0.1767 0.9078
vn -0.2417 0.3442 0.9072
vn -0.1771 0.3821 0.907
vn -0.1771 0.3821 0.907
vn -0.2417 0.3442 0.9072
vn -0.03735 0.4207 0.9064
vn 0.03785 0.4213 0.9061
vn 0.03785 0.4213 0.9061
vn -0.03735 0.4207 0.9064
vn 0.1787 0.3847 0.9056
vn 0.2444 0.3474 0.9053
vn 0.2444 0.3474 0.9053
vn 0.1787 0.3847 0.9056
vn 0.3483 0.2447 0.9049
vn 0.3864 0.1792 0.9048
vn 0.3864 0.1792 0.9048
vn 0.3483 0.2447 0.9049
vn 0.4246 0.03792 0.9046
vn 0.4246 -0.03792 0.9046
vn 0.4246 -0.03792 0.9046
vn 0.4246 0.03792 0.9046
vn 0.3864 -0.1792 0.9048
vn 0.3483 -0.2447 0.9049
vn 0.3483 -0.2447 0.9049
vn 0.3864 -0.1792 0.9048
vn 0.2444 -0.3474 0.9053
vn 0.1787 -0.3847 0.9056
vn 0.000252 -0.4213 0.9069
vn -0.2096 -0.3634 0.9077
vn -0.2096 -0.3634 0.9077
vn 0.000252 -0.4213 0.9069
vn 0.1787 -0.3847 0.9056
vn 0.2444 -0.3474 0.9053
vn 0.000252 -0.4213 0.9069
vn 0.000252 -0.4213 0.9069
vn 0.421 -0.9071 -0.0006474
vn 0 -1 0
vn 0 -1 0
vn 0.5751 -0.8181 -0.0008844
vn 0.8181 -0.5751 -0.001258
vn 0.421 -0.9071 -0.0006474
vn 0.5751 -0.8181 -0.0008844
vn 0.9071 -0.421 -0.001395
vn 0.996 -0.08896 -0.001532
vn 0.8181 -0.5751 -0.001258
vn 0.9071 -0.421 -0.001395
vn 0.996 0.08896 -0.001532
vn 0.9071 0.421 -0.001395
vn 0.996 -0.08896 -0.001532
vn 0.996 0.08896 -0.001532
vn 0.8181 0.5751 -0.001258
vn 0.5751 0.8181 -0.0008844
vn 0.9071 0.421 -0.001395
vn 0.8181 0.5751 -0.001258
vn 0.421 0.9071 -0.0006474
vn 0.08896 0.996 -0.0001368
vn 0.5751 0.8181 -0.0008844
vn 0.421 0.9071 -0.0006474
vn -0.08896 0.996 0.0001368
vn -0.421 0.9071 0.0006474
vn 0.08896 0.996 -0.0001368
vn -0.08896 0.996 0.0001368
vn -0.5751 0.8181 0.0008844
vn -0.8181 0.5751 0.001258
vn -0.421 0.9071 0.0006474
vn -0.5751 0.8181 0.0008844
vn -0.9071 0.421 0.001395
vn -0.996 0.08896 0.001532
vn -0.8181 0.5751 0.001258
vn -0.9071 0.421 0.001395
vn -0.996 -0.08896 0.001532
vn -0.9071 -0.421 0.001395
vn -0.996 0.08896 0.001532
vn -0.996 -0.08896 0.001532
vn -0.8181 -0.5751 0.001258
vn -0.5 -0.866 0.000769
vn -0.9071 -0.421 0.001395
vn -0.8181 -0.5751 0.001258
vn -0.5 -0.866 0.000769
vn 0 -1 0
vn 0 -1 0
vn -0.5 -0.866 0.000769
vn -0.5 -0.866 0.000769
f 79//1 75//2 73//3
f 72//4 78//5 79//6 73//7
f 72//8 74//9 78//10
f 83//11 75//12 79//13
f 78//14 82//15 83//16 79//17
f 78//18 74//19 82//20
f 87//21 75//22 83//23
f 82//24 86//25 87//26 83//27
f 82//28 74//29 86//30
f 85//31 75//32 87//33
f 86//34 84//35 85//36 87//37
f 86//38 74//39 84//40
f 81//41 75//42 85//43
f 84//44 80//45 81//46 85//47
f 84//48 74//49 80//50
f 77//51 75//52 81//53
f 80//54 76//55 77//56 81//57
f 80//58 74//59 76//60
f 71//61 75//62 77//63
f 76//64 70//65 71//66 77//67
f 76//68 74//69 70//70
f 6//71 75//72 71//73
f 70//74 5//75 6//76 71//77
f 70//78 74//79 5//80
f 2//81 75//82 6//83
f 5//84 1//85 2//86 6//87
f 5//88 74//89 1//90
f 4//91 75//92 2//93
f 1//94 3//95 4//96 2//97
f 1//98 74//99 3//100
f 69//101 75//102 4//103
f 3//104 68//105 69//106 4//107
f 3//108 74//109 68//110
f 73//111 75//112 69//113
f 68//114 72//115 73//116 69//117
f 68//118 74//119 72//120
f 38//121 39//122 30//123
f 30//124 39//125 28//126
f 28//127 39//128 23//129
f 23//130 39//131 29//132
f 29//133 39//134 31//135
f 31//136 39//137 40//138
f 40//139 39//140 44//141
f 44//142 39//143 46//144
f 46//145 39//146 51//147
f 51//148 39//149 45//150
f 45//151 39//152 43//153
f 43//154 39//155 38//156
f 36//157 47//158 49//159 41//160
f 47//161 56//162 58//163 49//164
f 56//165 64//166 65//167 58//168
f 64//169 57//170 59//171 65//172
f 57//173 48//174 50//175 59//176
f 48//177 37//178 42//179 50//180
f 37//181 25//182 27//183 42//184
f 25//185 16//186 18//187 27//188
f 16//189 9//190 10//191 18//192
f 9//193 15//194 17//195 10//196
f 15//197 24//198 26//199 17//200
f 24//201 36//202 41//203 26//204
f 17//205 26//206 30//207 28//208
f 10//209 17//210 28//211 23//212
f 18//213 10//214 23//215 29//216
f 27//217 18//218 29//219 31//220
f 42//221 27//222 31//223 40//224
f 50//225 42//226 40//227 44//228
f 59//229 50//230 44//231 46//232
f 65//233 59//234 46//235 51//236
f 58//237 65//238 51//239 45//240
f 49//241 58//242 45//243 43//244
f 30//245 26//246 41//247 38//248
f 41//249 49//250 43//251 38//252
f 21//253 24//254 15//255 13//256
f 13//257 15//258 9//259 8//260
f 8//261 9//262 16//263 14//264
f 14//265 16//266 25//267 22//268
f 22//269 25//270 37//271 35//272
f 35//273 37//274 48//275 55//276
f 55//277 48//278 57//279 63//280
f 63//281 57//282 64//283 67//284
f 67//285 64//286 56//287 62//288
f 62//289 56//290 47//291 54//292
f 36//293 24//294 21//295 34//296
f 54//297 47//298 36//299 34//300
f 54//301 34//302 32//303 52//304
f 62//305 54//306 52//307 60//308
f 67//309 62//310 60//311 66//312
f 63//313 67//314 66//315 61//316
f 55//317 63//318 61//319 53//320
f 35//321 55//322 53//323 33//324
f 22//325 35//326 33//327 20//328
f 14//329 22//330 20//331 12//332
f 8//333 14//334 12//335 7//336
f 13//337 8//338 7//339 11//340
f 21//341 13//342 11//343 19//344
f 32//345 34//346 21//347 19//348
