# Rhino

o object_1
v -1.835 -0.4536 -0.0001864
v -1.835 -0.3928 -0.2272
v -1.835 -0.3928 0.2268
v -1.835 -0.3326 -0.0001864
v -1.835 -0.288 -0.1666
v -1.835 -0.288 0.1663
v -1.835 -0.2267 -0.3933
v -1.835 -0.2267 0.393
v -1.835 -0.1661 -0.2885
v -1.835 -0.1661 0.2881
v -1.835 0.000308 -0.4541
v -1.835 0.000308 -0.3331
v -1.835 0.000308 0.3327
v -1.835 0.000308 0.4538
v -1.835 0.1668 -0.2885
v -1.835 0.1668 0.2881
v -1.835 0.2273 -0.3933
v -1.835 0.2273 0.393
v -1.835 0.2886 -0.1666
v -1.835 0.2886 0.1663
v -1.835 0.3332 -0.0001864
v -1.835 0.3934 -0.2272
v -1.835 0.3934 0.2268
v -1.835 0.4543 -0.0001864
v -1.482 -0.5505 -0.0001864
v -1.482 0.000308 -0.551
v -1.482 0.000308 0.5506
v -1.482 0.5511 -0.0001864
v -1.448 -0.7155 -0.0001864
v -1.448 0.7161 -0.0001864
v -1.383 -0.2216 -0.0001864
v -1.383 -0.1919 -0.1112
v -1.383 -0.1919 0.1108
v -1.383 -0.1107 -0.1924
v -1.383 -0.1107 0.192
v -1.383 0.000308 -0.2221
v -1.383 0.000308 -0.0001864
v -1.383 0.000308 0.2217
v -1.383 0.1113 -0.1924
v -1.383 0.1113 0.192
v -1.383 0.1925 -0.1112
v -1.383 0.1925 0.1108
v -1.383 0.2222 -0.0001864
v -1.377 0.000308 -0.7229
v -1.377 0.000308 0.7226
v -1.273 0.000308 -0.923
v -1.273 0.000308 0.9226
v -1.223 -0.8024 -0.0001864
v -1.223 0.803 -0.0001864
v -0.9545 -0.8024 -0.0001864
v -0.9545 0.803 -0.0001864
v -0.7305 -0.7155 -0.0001864
v -0.7305 0.7161 -0.0001864
v -0.705 0.000308 -0.923
v -0.705 0.000308 0.9226
v -0.4532 0.000308 -0.7229
v -0.4532 0.000308 0.7226
v -0.349 -0.5505 -0.0001864
v -0.349 0.000308 -0.551
v -0.349 0.000308 0.5506
v -0.349 0.5511 -0.0001864
v 1.747 -0.4536 -0.0001864
v 1.747 -0.3928 -0.2272
v 1.747 -0.3928 0.2268
v 1.747 -0.2267 -0.3933
v 1.747 -0.2267 0.393
v 1.747 0.000308 -0.4541
v 1.747 0.000308 0.4538
v 1.747 0.2273 -0.3933
v 1.747 0.2273 0.393
v 1.747 0.3934 -0.2272
v 1.747 0.3934 0.2268
v 1.747 0.4543 -0.0001864
v 2.203 -0.2963 -0.0001864
v 2.203 -0.2565 -0.1485
v 2.203 -0.2565 0.1481
v 2.203 -0.148 -0.257
v 2.203 -0.148 0.2567
v 2.203 0.000308 -0.2968
v 2.203 0.000308 0.2964
v 2.203 0.1486 -0.257
v 2.203 0.1486 0.2567
v 2.203 0.2572 -0.1485
v 2.203 0.2572 0.1481
v 2.203 0.2969 -0.0001864
v 2.393 -0.1571 -0.0001864
v 2.393 -0.136 -0.0789
v 2.393 -0.136 0.07853
v 2.393 -0.07841 -0.1365
v 2.393 -0.07841 0.1362
v 2.393 0.000308 -0.1576
v 2.393 0.000308 0.1573
v 2.393 0.07903 -0.1365
v 2.393 0.07903 0.1362
v 2.393 0.1367 -0.0789
v 2.393 0.1367 0.07853
v 2.393 0.1577 -0.0001864
v 2.47 0.000308 -0.0001864
vn -1 0 0
vn 0 0.7071 0.7071
vn 0 0.9659 0.2588
vn -1 0 0
vn 0 0.5 0.866
vn -1 0 0
vn 0 0 1
vn 0 -1 0
vn -1 0 0
vn 0 -0.5 0.866
vn -1 0 0
vn 0 -0.866 0.5
vn -1 0 0
vn 0 -1 -2.113e-06
vn 0 0 -1
vn -1 0 0
vn 0 -0.866 -0.5
vn -1 0 0
vn 0 -0.5 -0.866
vn -1 0 0
vn 0 0 -1
vn 0 1 0
vn -1 0 0
vn 0 0.5 -0.866
vn -1 0 0
vn 0 0.866 -0.5
vn -1 0 0
vn 0 1 -2.113e-06
vn 0 0 1
vn 0 0.7071 0.7071
vn 0 0.9659 0.2588
vn 0.3265 0.8186 0.4726
vn 0 0.5 0.866
vn 0.3265 0.4726 0.8186
vn 0 0 1
vn 0.3265 0 0.9452
vn 0 -1 0
vn 0 -0.5 0.866
vn 0.3265 -0.4726 0.8186
vn 0 -0.866 0.5
vn 0.3265 -0.8186 0.4726
vn 0 -1 -2.113e-06
vn 0.3265 -0.9452 -2.421e-06
vn 0 0 -1
vn 0 -0.866 -0.5
vn 0.3265 -0.8186 -0.4726
vn 0 -0.5 -0.866
vn 0.3265 -0.4726 -0.8186
vn 0 0 -1
vn 0.3265 0 -0.9452
vn 0 1 0
vn 0 0.5 -0.866
vn 0.3265 0.4726 -0.8186
vn 0 0.866 -0.5
vn 0.3265 0.8186 -0.4726
vn 0 1 -2.113e-06
vn 0.3265 0.9452 -2.421e-06
vn 0 0 1
vn 0.4645 0.7669 0.4428
vn 0.4645 0.4428 0.7669
vn 0.4645 0 0.8856
vn 0.4645 -0.4428 0.7669
vn 0.4645 -0.7669 0.4428
vn 0.4645 -0.8856 -2.942e-06
vn 0.4645 -0.7669 -0.4428
vn 0.4645 -0.4428 -0.7669
vn 0.4645 0 -0.8856
vn 0.4645 0.4428 -0.7669
vn 0.4645 0.7669 -0.4428
vn 0.4645 0.8856 -2.942e-06
vn 0.7674 0.5553 0.3206
vn 0.7673 0.3206 0.5553
vn 0.7674 0 0.6412
vn 0.7673 -0.3206 0.5553
vn 0.7674 -0.5553 0.3206
vn 0.7673 -0.6412 -3.192e-06
vn 0.7673 -0.5553 -0.3206
vn 0.7673 -0.3206 -0.5553
vn 0.7673 0 -0.6412
vn 0.7673 0.3206 -0.5553
vn 0.7673 0.5553 -0.3206
vn 0.7673 0.6412 -3.192e-06
vn 1 -5.575e-09 -3.476e-06
vn -0.7947 -0.5257 -0.3035
vn -0.7947 -0.3035 -0.5257
vn -0.7947 0 -0.607
vn -0.7947 0.3035 -0.5257
vn -0.7947 0.5257 -0.3035
vn -0.7947 0.607 2.107e-06
vn -0.7947 0.5257 0.3035
vn -0.7947 0.3035 0.5257
vn -0.7947 0 0.607
vn -0.7947 -0.3035 0.5257
vn -0.7947 -0.5257 0.3035
vn -0.7947 -0.607 2.107e-06
vn -0.7947 -0.5257 -0.3035
vn -0.7947 -0.3035 -0.5257
vn -1 0 0
vn -0.7947 0 -0.607
vn -0.7947 0.3035 -0.5257
vn -0.7947 0.5257 -0.3035
vn -0.7947 0.607 2.107e-06
vn -0.7947 0.5257 0.3035
vn -0.7947 0.3035 0.5257
vn -0.7947 0 0.607
vn -0.7947 -0.3035 0.5257
vn -0.7947 -0.5257 0.3035
vn -0.7947 -0.607 2.107e-06
vn 0 -1 0
vn 0 -1 0
vn 0 -1 0
vn 0 -1 0
vn 0 0 -1
vn 0 0 -1
vn 0 0 -1
vn 0 0 -1
vn 0 1 0
vn 0 1 0
vn 0 1 0
vn 0 1 0
vn 0 0 1
vn 0 0 1
vn 0 0 1
vn 0 0 1
vn 0 -1 0
vn 0 -1 0
vn 0 -1 0
vn 0 -1 0
vn 0 1 0
vn 0 1 0
vn 0 1 0
vn 0 1 0
vn 0 -1 0
vn 0 -1 0
vn 0 1 0
vn 0 1 0
vn 0 0 -1
vn 0 0 -1
vn 0 0 -1
vn 0 0 -1
vn 0 0 1
vn 0 0 1
vn 0 0 1
vn 0 0 1
vn 0 0 -1
vn 0 0 -1
vn 0 0 1
vn 0 0 1
f 23//2 18//5 70//33 72//30
f 18//5 14//7 68//35 70//33
f 14//7 8//10 66//38 68//35
f 8//10 3//12 64//40 66//38
f 3//12 1//14 62//42 64//40
f 1//14 2//17 63//45 62//42
f 2//17 7//19 65//47 63//45
f 7//19 11//21 67//49 65//47
f 11//21 17//24 69//52 67//49
f 17//24 22//26 71//54 69//52
f 22//26 24//28 73//56 71//54
f 24//28 23//3 72//31 73//56
f 40//97 42//96 37//98
f 38//99 40//97 37//98
f 35//100 38//99 37//98
f 33//101 35//100 37//98
f 31//102 33//101 37//98
f 32//103 31//102 37//98
f 34//104 32//103 37//98
f 36//105 34//104 37//98
f 39//106 36//105 37//98
f 41//107 39//106 37//98
f 43//108 41//107 37//98
f 42//96 43//108 37//98
f 72//32 70//34 82//60 84//59
f 70//34 68//36 80//61 82//60
f 68//36 66//39 78//62 80//61
f 66//39 64//41 76//63 78//62
f 64//41 62//43 74//64 76//63
f 62//43 63//46 75//65 74//64
f 63//46 65//48 77//66 75//65
f 65//48 67//50 79//67 77//66
f 67//50 69//53 81//68 79//67
f 69//53 71//55 83//69 81//68
f 71//55 73//57 85//70 83//69
f 73//57 72//32 84//59 85//70
f 84//59 82//60 94//72 96//71
f 82//60 80//61 92//73 94//72
f 80//61 78//62 90//74 92//73
f 78//62 76//63 88//75 90//74
f 76//63 74//64 86//76 88//75
f 74//64 75//65 87//77 86//76
f 75//65 77//66 89//78 87//77
f 77//66 79//67 91//79 89//78
f 79//67 81//68 93//80 91//79
f 81//68 83//69 95//81 93//80
f 83//69 85//70 97//82 95//81
f 85//70 84//59 96//71 97//82
f 96//71 94//72 98//83
f 94//72 92//73 98//83
f 92//73 90//74 98//83
f 90//74 88//75 98//83
f 88//75 86//76 98//83
f 86//76 87//77 98//83
f 87//77 89//78 98//83
f 89//78 91//79 98//83
f 91//79 93//80 98//83
f 93//80 95//81 98//83
f 95//81 97//82 98//83
f 97//82 96//71 98//83
f 18//4 23//1 20//84 16//85
f 14//6 18//4 16//85 13//86
f 8//9 14//6 13//86 10//87
f 3//11 8//9 10//87 6//88
f 1//13 3//11 6//88 4//89
f 2//16 1//13 4//89 5//90
f 7//18 2//16 5//90 9//91
f 11//20 7//18 9//91 12//92
f 17//23 11//20 12//92 15//93
f 22//25 17//23 15//93 19//94
f 24//27 22//25 19//94 21//95
f 23//1 24//27 21//95 20//84
f 16//85 20//84 42//96 40//97
f 13//86 16//85 40//97 38//99
f 10//87 13//86 38//99 35//100
f 6//88 10//87 35//100 33//101
f 4//89 6//88 33//101 31//102
f 5//90 4//89 31//102 32//103
f 9//91 5//90 32//103 34//104
f 12//92 9//91 34//104 36//105
f 15//93 12//92 36//105 39//106
f 19//94 15//93 39//106 41//107
f 21//95 19//94 41//107 43//108
f 20//84 21//95 43//108 42//96
f 14//8 68//37 60//111 27//109
f 1//15 62//44 58//115 25//113
f 11//22 67//51 59//119 26//117
f 24//29 73//58 61//123 28//121
f 27//110 60//112 57//127 45//125
f 26//118 59//120 56//131 44//129
f 45//126 57//128 55//134 47//133
f 44//130 56//132 54//136 46//135
f 25//114 58//116 52//139 29//137
f 28//122 61//124 53//143 30//141
f 29//138 52//140 50//146 48//145
f 30//142 53//144 51//148 49//147
