# RokuSuper Output Ver2.0 for Wavefront Obj

v 2.86258400 5.00000000 1.32490200
v 10.87997500 5.00000000 1.32490200
v 9.93266200 7.92852300 1.32490200
v 4.07561700 7.92852300 1.32490200
v 7.00413900 0.85844400 1.32490200
v 9.93266200 2.07147700 1.32490200
v 4.07561800 2.07147700 1.32490200
v 2.86258400 5.00000000 1.68278900
v 4.07561700 7.92852300 1.68278900
v 9.93266200 7.92852300 1.68278900
v 10.87997500 5.00000000 1.68278900
v 7.00413900 0.85844400 1.68278900
v 4.07561800 2.07147700 1.68278900
v 9.93266200 2.07147700 1.68278900
v 7.00413900 9.14155600 1.68278900
v 7.00413900 9.14155600 1.32490200
v 6.81961200 1.62236600 4.18290500
v 6.81616200 2.06817000 4.18290500
v 7.01351400 1.95821300 4.18290500
v 7.01351400 1.73431400 4.18290500
v 6.62571000 1.73431400 4.18290500
v 6.62571000 1.95821300 4.18290500
v 6.81961200 2.09973400 3.87562300
v 6.60010000 1.97299900 3.87562300
v 6.60010000 1.71952800 3.87562300
v 6.81961200 1.59279300 3.87562300
v 7.03912300 1.71952800 3.87562300
v 7.03912300 1.97299900 3.87562300
v 6.60010000 1.71952800 2.85642100
v 6.81961200 1.59279300 2.85642100
v 7.03912300 1.71952800 2.85642100
v 7.03912300 1.97299900 2.85642100
v 6.81961200 2.09973400 2.85642100
v 6.60010000 1.97299900 2.85642100
v 10.58303400 4.36387600 3.13514000
v 10.53384000 3.72775000 3.15409400
v 10.53384000 6.27225000 3.15409400
v 10.58303400 5.63612400 3.13514000
v 10.32761900 3.12373600 3.23341900
v 10.32761900 6.87626400 3.23341900
v 10.12139700 2.51972300 3.31318100
v 10.12139700 7.48027700 3.31318100
v 9.74159200 1.79296300 3.45998600
v 9.74159200 8.20703700 3.45998600
v 0.63257200 6.96437300 3.59665100
v 0.63257200 3.03562700 3.59665100
v 0.85350800 7.57342200 3.67426100
v 0.85350800 2.42657800 3.67426100
v 2.43403200 2.72993500 4.22915000
v 2.43403200 7.27006500 4.22915000
v 0.33808300 4.36387600 1.28067800
v 0.44854500 3.72775200 1.28175900
v 0.44854500 6.27225000 1.28175900
v 0.33808300 5.63612400 1.28067800
v 0.63240500 3.03562700 1.28106600
v 0.63240500 6.96437300 1.28106600
v 0.85501100 2.42657800 1.27956800
v 0.85501100 7.57342200 1.27956800
v 1.41646100 1.38183400 1.27829200
v 1.41646100 8.61816600 1.27829200
v 10.98300900 3.72775000 1.28042100
v 10.98300900 6.27225000 1.28042100
v 10.80643800 6.87264100 1.28042100
v 10.80643800 3.12735900 1.28042100
v 10.62986600 7.47303200 1.28042100
v 10.62986600 2.52696800 1.28042100
v 10.28687500 8.19082100 1.28042100
v 10.28687500 1.80918000 1.28042100
v 10.04431500 8.48450200 1.28042100
v 10.04431500 1.51549800 1.28042100
v 7.79343300 8.63267500 1.28042100
v 7.79343300 1.36732500 1.28042100
v 2.43587300 8.61816600 1.28042100
v 2.43587300 1.38183400 1.28042100
v 9.60187100 1.48650900 3.18104400
v 7.79964100 2.72993500 4.21022300
v 7.79343300 1.36732500 3.16630000
v 0.33818000 4.36387600 3.49322700
v 0.44863100 3.72775200 3.53226000
v 1.41646100 1.38183400 3.16630000
v 2.43587300 1.38183400 3.16630000
v 11.05600800 4.36387600 1.28042100
v 11.05600800 5.63612400 1.28042100
v 9.60187100 8.51349100 3.18104400
v 7.79964100 7.27006500 4.21022300
v 7.79343300 8.63267500 3.16630000
v 0.33817900 5.63612400 3.49322700
v 0.44863100 6.27225000 3.53226000
v 1.41646100 8.61816600 3.16630000
v 2.43587300 8.61816600 3.16630000
v 7.01351400 8.04178700 4.18290500
v 6.81616200 7.93183000 4.18290500
v 6.81961200 8.37763400 4.18290500
v 7.01351400 8.26568600 4.18290500
v 6.62571000 8.04178700 4.18290500
v 6.62571000 8.26568600 4.18290500
v 6.81961200 7.90026700 3.87562300
v 6.60010000 8.02700000 3.87562300
v 6.60010000 8.28047200 3.87562300
v 6.81961200 8.40720700 3.87562300
v 7.03912300 8.28047200 3.87562300
v 7.03912300 8.02700000 3.87562300
v 6.60010000 8.28047200 2.85642100
v 6.81961200 8.40720700 2.85642100
v 7.03912300 8.28047200 2.85642100
v 7.03912300 8.02700000 2.85642100
v 6.81961200 7.90026700 2.85642100
v 6.60010000 8.02700000 2.85642100
v 2.86258400 5.00000000 1.31442500
v 4.07561700 7.92852300 1.31442500
v 9.93266200 7.92852300 1.31442500
v 11.14569600 5.00000000 1.31442500
v 7.00413900 0.85844400 1.31442500
v 4.07561800 2.07147700 1.31442500
v 9.93266200 2.07147700 1.31442500
v 9.93266200 2.07147700 0.01115700
v 4.07561800 2.07147700 0.01115700
v 7.00413900 0.85844400 0.01115700
v 2.86258400 5.00000000 0.01115700
v 11.14569600 5.00000000 0.01115700
v 9.93266200 7.92852300 0.01115700
v 4.07561700 7.92852300 0.01115700
v 7.00413900 9.14155600 1.31442500
v 7.00413900 9.14155600 0.01115700

vn 0.00000000 0.00000000 -1.00000000
vn 0.00000000 0.00000000 -1.00000000
vn 0.00000000 0.00000000 -1.00000000
vn 0.00000000 0.00000000 -1.00000000
vn 0.00000000 0.00000000 -1.00000000
vn 0.00000000 0.00000000 -1.00000000
vn 0.00000000 0.00000000 -1.00000000
vn 0.00000000 0.00000000 -1.00000000
vn 0.00000000 0.00000000 -1.00000000
vn 0.00000000 0.00000000 -1.00000000
vn 0.00000000 0.00000000 -1.00000000
vn 0.00000000 0.00000000 1.00000000
vn 0.00000000 0.00000000 1.00000000
vn 0.00000000 0.00000000 1.00000000
vn 0.00000000 0.00000000 1.00000000
vn 0.00000000 0.00000000 1.00000000
vn 0.00000000 0.00000000 1.00000000
vn 0.00000000 0.00000000 1.00000000
vn 0.00000000 0.00000000 1.00000000
vn 0.00000000 0.00000000 1.00000000
vn 0.00000000 0.00000000 1.00000000
vn 0.00000000 0.00000000 1.00000000
vn 0.00000000 0.00000000 1.00000000
vn 0.00000000 0.00000000 1.00000000
vn 0.00000000 0.00000000 1.00000000
vn 0.00000000 0.00000000 -1.00000000
vn 0.00000000 0.00000000 -1.00000000
vn 0.00000000 0.00000000 -1.00000000
vn -0.99060235 0.13677345 0.00000000
vn -0.60374804 0.79717520 0.00000000
vn -0.79717528 0.60374794 0.00000000
vn -0.99060231 -0.13677373 0.00000000
vn -0.60374804 0.79717520 0.00000000
vn 0.13677350 0.99060235 0.00000000
vn -0.13677362 0.99060233 0.00000000
vn -0.79717528 0.60374794 0.00000000
vn 0.13677350 0.99060235 0.00000000
vn 0.82941177 0.55863773 0.00000000
vn 0.62301125 0.78221288 0.00000000
vn -0.13677362 0.99060233 0.00000000
vn 0.82941177 0.55863773 0.00000000
vn 0.99423698 -0.10720462 0.00000000
vn 0.99423698 0.10720462 0.00000000
vn 0.62301125 0.78221288 0.00000000
vn 0.99423698 -0.10720462 0.00000000
vn 0.62301125 -0.78221288 0.00000000
vn 0.82941177 -0.55863773 0.00000000
vn 0.99423698 0.10720462 0.00000000
vn 0.62301125 -0.78221288 0.00000000
vn -0.13677370 -0.99060232 0.00000000
vn 0.13677346 -0.99060235 0.00000000
vn 0.82941177 -0.55863773 0.00000000
vn -0.13677370 -0.99060232 0.00000000
vn -0.79717518 -0.60374807 0.00000000
vn -0.60374803 -0.79717521 0.00000000
vn 0.13677346 -0.99060235 0.00000000
vn -0.79717518 -0.60374807 0.00000000
vn -0.99060235 0.13677345 0.00000000
vn -0.99060231 -0.13677373 0.00000000
vn -0.60374803 -0.79717521 0.00000000
vn 0.00000000 0.00000000 1.00000000
vn 0.00000000 0.00000000 1.00000000
vn 0.00000000 0.00000000 1.00000000
vn 0.00000000 0.00000000 1.00000000
vn 0.00000000 0.00000000 1.00000000
vn 0.00000000 0.00000000 1.00000000
vn 0.00000000 0.00000000 1.00000000
vn 0.00000000 0.00000000 1.00000000
vn -0.19259324 0.97635984 0.09812903
vn -0.00198258 0.99876620 0.04962004
vn -0.86519394 0.49913662 0.04798006
vn -0.94071964 0.32587545 0.09408369
vn -0.94071964 0.32587545 0.09408369
vn -0.86519394 0.49913662 0.04798006
vn -0.86486136 -0.49971267 0.04797991
vn -0.75257431 -0.65175142 0.09408501
vn -0.75257431 -0.65175142 0.09408501
vn -0.86486136 -0.49971267 0.04797991
vn 0.00000150 -0.99884824 0.04798126
vn 0.18814394 -0.97762458 0.09408524
vn 0.18814394 -0.97762458 0.09408524
vn 0.00000150 -0.99884824 0.04798126
vn 0.86502790 -0.49942441 0.04797916
vn 0.94071962 -0.32587640 0.09408067
vn 0.94071962 -0.32587640 0.09408067
vn 0.86502790 -0.49942441 0.04797916
vn 0.86502830 0.49942377 0.04797853
vn 0.74876482 0.65544813 0.09868632
vn 0.74876482 0.65544813 0.09868632
vn 0.86502830 0.49942377 0.04797853
vn -0.00198258 0.99876620 0.04962004
vn -0.19259324 0.97635984 0.09812903
vn -0.86486136 -0.49971267 0.04797991
vn -0.49999908 -0.86602594 0.00000000
vn -0.18898123 -0.98198070 0.00000000
vn 0.00000150 -0.99884824 0.04798126
vn 0.00000150 -0.99884824 0.04798126
vn -0.18898123 -0.98198070 0.00000000
vn 0.75592937 -0.65465318 0.00000000
vn 0.86502790 -0.49942441 0.04797916
vn 0.86502790 -0.49942441 0.04797916
vn 0.75592937 -0.65465318 0.00000000
vn 0.94491127 0.32732659 0.00000000
vn 0.86502830 0.49942377 0.04797853
vn 0.86502830 0.49942377 0.04797853
vn 0.94491127 0.32732659 0.00000000
vn 0.18898317 0.98198033 0.00000000
vn -0.00198258 0.99876620 0.04962004
vn -0.00198258 0.99876620 0.04962004
vn 0.18898317 0.98198033 0.00000000
vn -0.49999908 0.86602594 0.00000000
vn -0.86519394 0.49913662 0.04798006
vn -0.86519394 0.49913662 0.04798006
vn -1.00000000 0.00000000 0.00000000
vn -1.00000000 0.00000000 0.00000000
vn -0.86486136 -0.49971267 0.04797991
vn 0.74445387 -0.09924165 0.66025717
vn 0.85004485 -0.03307645 0.52567071
vn 0.85004485 0.03307645 0.52567071
vn 0.74445387 0.09924165 0.66025717
vn 0.73355039 0.16151656 0.66016379
vn 0.73355039 -0.16151656 0.66016379
vn 0.74445387 -0.09924165 0.66025717
vn 0.74445387 0.09924165 0.66025717
vn 0.72290965 0.20147672 0.66091510
vn 0.72290964 -0.20147680 0.66091508
vn 0.73355039 -0.16151656 0.66016379
vn 0.73355039 0.16151656 0.66016379
vn 0.57803906 0.38207987 0.72103108
vn 0.57803913 -0.38207987 0.72103103
vn 0.72290964 -0.20147680 0.66091508
vn 0.72290965 0.20147672 0.66091510
vn -0.33133584 0.00000000 0.94351288
vn -0.33226901 -0.00000009 0.94318466
vn -0.33074402 0.00000000 0.94372051
vn -0.33108431 0.00000000 0.94360118
vn -0.33108431 0.00000000 0.94360118
vn -0.33074402 0.00000000 0.94372051
vn -0.31151865 -0.10487748 0.94443467
vn -0.29578725 0.17648617 0.93880910
vn -0.31151865 -0.10487748 0.94443467
vn -0.11251295 -0.31536443 0.94227709
vn -0.11251295 0.31536443 0.94227709
vn -0.29578725 0.17648617 0.93880910
vn 0.00300835 0.00000000 -0.99999547
vn 0.00978570 0.00000000 -0.99995212
vn 0.00978570 0.00000000 -0.99995212
vn 0.00300835 0.00000000 -0.99999547
vn -0.00475584 0.00000000 -0.99998869
vn -0.00574254 0.00000000 -0.99998351
vn 0.00300835 0.00000000 -0.99999547
vn 0.00300835 0.00000000 -0.99999547
vn -0.00524372 0.00000000 -0.99998625
vn -0.00375820 0.00000000 -0.99999294
vn -0.00574254 0.00000000 -0.99998351
vn -0.00475584 0.00000000 -0.99998869
vn -0.00081897 0.00000000 -0.99999966
vn 0.00063474 0.00000000 -0.99999980
vn -0.00375820 0.00000000 -0.99999294
vn -0.00524372 0.00000000 -0.99998625
vn 0.00000000 0.00000000 -1.00000000
vn 0.00000000 0.00000000 -1.00000000
vn 0.00000000 0.00000000 -1.00000000
vn 0.00000000 0.00000000 -1.00000000
vn 0.00000000 0.00000000 -1.00000000
vn 0.00000000 0.00000000 -1.00000000
vn 0.00000000 0.00000000 -1.00000000
vn 0.00000000 0.00000000 -1.00000000
vn 0.00000000 0.00000000 -1.00000000
vn 0.00000000 0.00000000 -1.00000000
vn 0.00000000 0.00000000 -1.00000000
vn 0.00000000 0.00000000 -1.00000000
vn 0.00000000 0.00000000 -1.00000000
vn 0.00000000 0.00000000 -1.00000000
vn 0.00000000 0.00000000 -1.00000000
vn 0.00000000 0.00000000 -1.00000000
vn 0.00000000 0.00000000 -1.00000000
vn 0.00000000 0.00000000 -1.00000000
vn 0.00000000 0.00000000 -1.00000000
vn 0.00000000 0.00000000 -1.00000000
vn 0.00000000 0.00000000 -1.00000000
vn 0.00000000 0.00000000 -1.00000000
vn 0.00069615 0.00000000 -0.99999976
vn 0.00139230 0.00000000 -0.99999903
vn 0.00139230 0.00000000 -0.99999903
vn 0.00069615 0.00000000 -0.99999976
vn 0.00063474 0.00000000 -0.99999980
vn -0.00081897 0.00000000 -0.99999966
vn 0.74445387 -0.09924165 0.66025717
vn 0.73355039 -0.16151656 0.66016379
vn 0.93310239 -0.27913369 0.22672518
vn 0.96004654 -0.15182259 0.23507563
vn 0.72290964 -0.20147680 0.66091508
vn 0.57803913 -0.38207987 0.72103103
vn 0.83807967 -0.50687477 0.20174349
vn 0.91696763 -0.32822236 0.22680487
vn 0.83807967 -0.50687477 0.20174349
vn 0.57803913 -0.38207987 0.72103103
vn 0.34198963 -0.87176728 0.35080607
vn 0.32118815 -0.94509188 0.06032833
vn 0.57803913 -0.38207987 0.72103103
vn 0.10094516 -0.32655611 0.93977188
vn 0.02426507 -0.90178017 0.43151331
vn 0.34198963 -0.87176728 0.35080607
vn -0.99630751 -0.08585653 0.00004217
vn -0.97356272 -0.22841986 0.00004814
vn -0.97982890 -0.19983823 0.00003929
vn -0.99630791 -0.08585191 0.00004368
vn -0.94943727 -0.31395677 -0.00015080
vn -0.90223096 -0.43125301 -0.00038157
vn -0.92205929 -0.38704849 -0.00035894
vn -0.95849483 -0.28510990 0.00005819
vn -0.97356272 -0.22841986 0.00004814
vn -0.94943727 -0.31395677 -0.00015080
vn -0.95849483 -0.28510990 0.00005819
vn -0.97982890 -0.19983823 0.00003929
vn -0.90223096 -0.43125301 -0.00038157
vn -0.88085952 -0.47337776 0.00000000
vn -0.88065134 -0.47376486 -0.00027630
vn -0.92205929 -0.38704849 -0.00035894
vn -0.11251295 -0.31536443 0.94227709
vn -0.31151865 -0.10487748 0.94443467
vn -0.07277101 -0.79367157 0.60397833
vn -0.00059694 -0.89899961 0.43794901
vn 0.00000000 -1.00000000 0.00000000
vn -0.00180542 -0.99999837 0.00000000
vn -0.00059694 -0.89899961 0.43794901
vn -0.07277101 -0.79367157 0.60397833
vn -0.00059694 -0.89899961 0.43794901
vn 0.02426507 -0.90178017 0.43151331
vn 0.10094516 -0.32655611 0.93977188
vn -0.11251295 -0.31536443 0.94227709
vn -0.00180542 -0.99999837 0.00000000
vn 0.03150773 -0.99950351 0.00000000
vn 0.02426507 -0.90178017 0.43151331
vn -0.00059694 -0.89899961 0.43794901
vn 0.02426507 -0.90178017 0.43151331
vn 0.03150773 -0.99950351 0.00000000
vn 0.32118815 -0.94509188 0.06032833
vn 0.34198963 -0.87176728 0.35080607
vn 0.73355039 -0.16151656 0.66016379
vn 0.72290964 -0.20147680 0.66091508
vn 0.91696763 -0.32822236 0.22680487
vn 0.93310239 -0.27913369 0.22672518
vn 0.85004485 -0.03307645 0.52567071
vn 0.74445387 -0.09924165 0.66025717
vn 0.96004654 -0.15182259 0.23507563
vn 0.96750415 -0.05534269 0.24672433
vn 0.74445387 0.09924165 0.66025717
vn 0.96004654 0.15182259 0.23507563
vn 0.93310239 0.27913369 0.22672518
vn 0.73355039 0.16151656 0.66016379
vn 0.85004485 -0.03307645 0.52567071
vn 0.96750415 -0.05534269 0.24672433
vn 0.96832969 0.03688883 0.24693486
vn 0.85004485 0.03307645 0.52567071
vn 0.72290965 0.20147672 0.66091510
vn 0.91696769 0.32822219 0.22680488
vn 0.83807950 0.50687503 0.20174355
vn 0.57803906 0.38207987 0.72103108
vn 0.83807950 0.50687503 0.20174355
vn 0.32118768 0.94509205 0.06032821
vn 0.34198935 0.87176742 0.35080600
vn 0.57803906 0.38207987 0.72103108
vn 0.57803906 0.38207987 0.72103108
vn 0.34198935 0.87176742 0.35080600
vn 0.02426507 0.90178017 0.43151331
vn 0.10094516 0.32655611 0.93977188
vn -0.99343153 0.11442808 0.00004140
vn -0.99836212 0.05721083 0.00004347
vn -0.97982882 0.19983863 0.00003914
vn -0.97356265 0.22842015 0.00004814
vn -0.94943719 0.31395700 -0.00015080
vn -0.95849469 0.28511036 0.00005819
vn -0.92205929 0.38704849 -0.00035894
vn -0.90223096 0.43125301 -0.00038157
vn -0.97356265 0.22842015 0.00004814
vn -0.97982882 0.19983863 0.00003914
vn -0.95849469 0.28511036 0.00005819
vn -0.94943719 0.31395700 -0.00015080
vn -0.90223096 0.43125301 -0.00038157
vn -0.92205929 0.38704849 -0.00035894
vn -0.88065134 0.47376486 -0.00027630
vn -0.88085952 0.47337776 0.00000000
vn -0.11251295 0.31536443 0.94227709
vn -0.00059694 0.89899961 0.43794901
vn -0.07277101 0.79367157 0.60397833
vn -0.29578725 0.17648617 0.93880910
vn -0.33226901 -0.00000009 0.94318466
vn -0.33133584 0.00000000 0.94351288
vn -0.33320119 -0.00000013 0.94285575
vn -0.33320321 -0.00000026 0.94285504
vn 0.00000000 1.00000000 0.00000000
vn -0.07277101 0.79367157 0.60397833
vn -0.00059694 0.89899961 0.43794901
vn -0.00180542 0.99999837 0.00000000
vn -0.00059694 0.89899961 0.43794901
vn -0.11251295 0.31536443 0.94227709
vn 0.10094516 0.32655611 0.93977188
vn 0.02426507 0.90178017 0.43151331
vn -0.11251295 -0.31536443 0.94227709
vn 0.10094516 -0.32655611 0.93977188
vn 0.10094516 0.32655611 0.93977188
vn -0.11251295 0.31536443 0.94227709
vn -0.00180542 0.99999837 0.00000000
vn -0.00059694 0.89899961 0.43794901
vn 0.02426507 0.90178017 0.43151331
vn 0.03150773 0.99950351 0.00000000
vn 0.02426507 0.90178017 0.43151331
vn 0.34198935 0.87176742 0.35080600
vn 0.32118768 0.94509205 0.06032821
vn 0.03150773 0.99950351 0.00000000
vn 0.00000000 0.00000000 -1.00000000
vn 0.00000000 0.00000000 -1.00000000
vn 0.00000000 0.00000000 -1.00000000
vn 0.00000000 0.00000000 -1.00000000
vn -0.99630751 -0.08585653 0.00004217
vn -0.99630791 -0.08585191 0.00004368
vn -0.99836212 0.05721083 0.00004347
vn -0.99343153 0.11442808 0.00004140
vn 0.10094516 0.32655611 0.93977188
vn 0.10094516 -0.32655611 0.93977188
vn 0.57803913 -0.38207987 0.72103103
vn 0.57803906 0.38207987 0.72103108
vn 0.73355039 0.16151656 0.66016379
vn 0.93310239 0.27913369 0.22672518
vn 0.91696769 0.32822219 0.22680488
vn 0.72290965 0.20147672 0.66091510
vn 0.85004485 0.03307645 0.52567071
vn 0.96832969 0.03688883 0.24693486
vn 0.96004654 0.15182259 0.23507563
vn 0.74445387 0.09924165 0.66025717
vn 0.00000000 0.00000000 1.00000000
vn 0.00000000 0.00000000 1.00000000
vn 0.00000000 0.00000000 1.00000000
vn 0.00000000 0.00000000 1.00000000
vn 0.00000000 0.00000000 1.00000000
vn 0.00000000 0.00000000 1.00000000
vn 0.00000000 0.00000000 1.00000000
vn 0.00000000 0.00000000 1.00000000
vn -0.19259082 -0.97636042 0.09812805
vn -0.94071957 -0.32587536 0.09408474
vn -0.86519279 -0.49913859 0.04798020
vn -0.00198175 -0.99876625 0.04961913
vn -0.94071957 -0.32587536 0.09408474
vn -0.75257431 0.65175142 0.09408501
vn -0.86486136 0.49971267 0.04797991
vn -0.86519279 -0.49913859 0.04798020
vn -0.75257431 0.65175142 0.09408501
vn 0.18814394 0.97762458 0.09408524
vn 0.00000150 0.99884824 0.04798126
vn -0.86486136 0.49971267 0.04797991
vn 0.18814394 0.97762458 0.09408524
vn 0.94071962 0.32587640 0.09408067
vn 0.86502790 0.49942441 0.04797916
vn 0.00000150 0.99884824 0.04798126
vn 0.94071962 0.32587640 0.09408067
vn 0.74876321 -0.65544998 0.09868627
vn 0.86486022 -0.49971475 0.04797892
vn 0.86502790 0.49942441 0.04797916
vn 0.74876321 -0.65544998 0.09868627
vn -0.19259082 -0.97636042 0.09812805
vn -0.00198175 -0.99876625 0.04961913
vn 0.86486022 -0.49971475 0.04797892
vn -0.86486136 0.49971267 0.04797991
vn 0.00000150 0.99884824 0.04798126
vn -0.18898123 0.98198070 0.00000000
vn -0.49999908 0.86602594 0.00000000
vn 0.00000150 0.99884824 0.04798126
vn 0.86502790 0.49942441 0.04797916
vn 0.75592937 0.65465318 0.00000000
vn -0.18898123 0.98198070 0.00000000
vn 0.86502790 0.49942441 0.04797916
vn 0.86486022 -0.49971475 0.04797892
vn 1.00000000 0.00000000 0.00000000
vn 0.75592937 0.65465318 0.00000000
vn 0.86486022 -0.49971475 0.04797892
vn -0.00198175 -0.99876625 0.04961913
vn 0.18898030 -0.98198088 0.00000000
vn 0.49999487 -0.86602837 0.00000000
vn -0.00198175 -0.99876625 0.04961913
vn -0.86519279 -0.49913859 0.04798020
vn -0.49999316 -0.86602935 0.00000000
vn 0.18898030 -0.98198088 0.00000000
vn -0.86519279 -0.49913859 0.04798020
vn -0.86486136 0.49971267 0.04797991
vn -1.00000000 0.00000000 0.00000000
vn -1.00000000 0.00000000 0.00000000
vn 0.00000000 0.00000000 1.00000000
vn 0.00000000 0.00000000 1.00000000
vn 0.00000000 0.00000000 1.00000000
vn 0.00000000 0.00000000 1.00000000
vn 0.00000000 0.00000000 1.00000000
vn 0.00000000 0.00000000 1.00000000
vn 0.00000000 0.00000000 1.00000000
vn 0.00000000 0.00000000 -1.00000000
vn 0.00000000 0.00000000 -1.00000000
vn 0.00000000 0.00000000 -1.00000000
vn 0.00000000 0.00000000 -1.00000000
vn 0.00000000 0.00000000 -1.00000000
vn 0.00000000 0.00000000 -1.00000000
vn 0.00000000 0.00000000 -1.00000000
vn 0.00000000 0.00000000 1.00000000
vn 0.00000000 0.00000000 1.00000000
vn 0.00000000 0.00000000 1.00000000
vn 0.00000000 0.00000000 1.00000000
vn 0.00000000 0.00000000 1.00000000
vn 0.00000000 0.00000000 1.00000000
vn 0.00000000 0.00000000 1.00000000
vn 0.00000000 0.00000000 -1.00000000
vn 0.00000000 0.00000000 -1.00000000
vn 0.00000000 0.00000000 -1.00000000
vn 0.00000000 0.00000000 -1.00000000
vn 0.00000000 0.00000000 -1.00000000
vn 0.00000000 0.00000000 -1.00000000
vn 0.00000000 0.00000000 -1.00000000
vn -0.99060235 0.13677345 0.00000000
vn -0.60374804 0.79717520 0.00000000
vn -0.79717528 0.60374794 0.00000000
vn -0.99060231 -0.13677373 0.00000000
vn -0.60374804 0.79717520 0.00000000
vn 0.13677350 0.99060235 0.00000000
vn -0.13677362 0.99060233 0.00000000
vn -0.79717528 0.60374794 0.00000000
vn 0.13677350 0.99060235 0.00000000
vn 0.79717513 0.60374813 0.00000000
vn 0.60374790 0.79717531 0.00000000
vn -0.13677362 0.99060233 0.00000000
vn 0.79717513 0.60374813 0.00000000
vn 0.99060233 -0.13677365 0.00000000
vn 0.99060233 0.13677365 0.00000000
vn 0.60374790 0.79717531 0.00000000
vn 0.99060233 -0.13677365 0.00000000
vn 0.60374790 -0.79717531 0.00000000
vn 0.79717513 -0.60374813 0.00000000
vn 0.99060233 0.13677365 0.00000000
vn 0.60374790 -0.79717531 0.00000000
vn -0.13677370 -0.99060232 0.00000000
vn 0.13677346 -0.99060235 0.00000000
vn 0.79717513 -0.60374813 0.00000000
vn -0.13677370 -0.99060232 0.00000000
vn -0.79717518 -0.60374807 0.00000000
vn -0.60374803 -0.79717521 0.00000000
vn 0.13677346 -0.99060235 0.00000000
vn -0.79717518 -0.60374807 0.00000000
vn -0.99060235 0.13677345 0.00000000
vn -0.99060231 -0.13677373 0.00000000
vn -0.60374803 -0.79717521 0.00000000

g ²ã
f 2//1 1//2 4//3 3//4
f 7//5 6//6 5//7
f 6//8 7//9 1//10 2//11
f 9//12 8//13 11//14 10//15
f 14//16 13//17 12//18
f 13//19 14//20 11//21 8//22
f 9//23 10//24 15//25
f 4//26 16//27 3//28
f 8//29 9//30 4//31 1//32
f 9//33 15//34 16//35 4//36
f 15//37 10//38 3//39 16//40
f 10//41 11//42 2//43 3//44
f 11//45 14//46 6//47 2//48
f 14//49 12//50 5//51 6//52
f 12//53 13//54 7//55 5//56
f 13//57 8//58 1//59 7//60
f 18//61 17//62 20//63 19//64
f 21//65 17//66 18//67 22//68
f 18//69 23//70 24//71 22//72
f 22//73 24//74 25//75 21//76
f 21//77 25//78 26//79 17//80
f 17//81 26//82 27//83 20//84
f 20//85 27//86 28//87 19//88
f 19//89 28//90 23//91 18//92
f 25//93 29//94 30//95 26//96
f 26//97 30//98 31//99 27//100
f 27//101 31//102 32//103 28//104
f 28//105 32//106 33//107 23//108
f 23//109 33//110 34//111 24//112
f 24//113 34//114 29//115 25//116
f 36//117 35//118 38//119 37//120
f 40//121 39//122 36//123 37//124
f 42//125 41//126 39//127 40//128
f 44//129 43//130 41//131 42//132
f 88//133 79//134 46//135 45//136
f 45//137 46//138 48//139 47//140
f 48//141 49//142 50//143 47//144
f 52//145 51//146 54//147 53//148
f 56//149 55//150 52//151 53//152
f 58//153 57//154 55//155 56//156
f 60//157 59//158 57//159 58//160
f 62//161 61//162 64//163 63//164
f 63//165 64//166 66//167 65//168
f 65//169 66//170 68//171 67//172
f 67//173 68//174 70//175 69//176
f 69//177 70//178 72//179 71//180
f 71//181 72//182 74//183 73//184
f 73//185 74//186 59//187 60//188
f 36//189 39//190 64//191 61//192
f 41//193 43//194 68//195 66//196
f 68//197 43//198 75//199 70//200
f 43//201 76//202 77//203 75//204
f 51//205 52//206 79//207 78//208
f 55//209 57//210 48//211 46//212
f 52//213 55//214 46//215 79//216
f 57//217 59//218 80//219 48//220
f 49//221 48//222 80//223 81//224
f 59//225 74//226 81//227 80//228
f 81//229 77//230 76//231 49//232
f 74//233 72//234 77//235 81//236
f 77//237 72//238 70//239 75//240
f 39//241 41//242 66//243 64//244
f 35//245 36//246 61//247 82//248
f 37//249 62//250 63//251 40//252
f 35//253 82//254 83//255 38//256
f 42//257 65//258 67//259 44//260
f 67//261 69//262 84//263 44//264
f 44//265 84//266 86//267 85//268
f 54//269 87//270 88//271 53//272
f 56//273 45//274 47//275 58//276
f 53//277 88//278 45//279 56//280
f 58//281 47//282 89//283 60//284
f 50//285 90//286 89//287 47//288
f 79//289 88//290 87//291 78//292
f 60//293 89//294 90//295 73//296
f 90//297 50//298 85//299 86//300
f 49//301 76//302 85//303 50//304
f 73//305 90//306 86//307 71//308
f 86//309 84//310 69//311 71//312
f 61//313 62//314 83//315 82//316
f 51//317 78//318 87//319 54//320
f 85//321 76//322 43//323 44//324
f 40//325 63//326 65//327 42//328
f 38//329 83//330 62//331 37//332
f 92//333 91//334 94//335 93//336
f 96//337 95//338 92//339 93//340
f 92//341 95//342 98//343 97//344
f 95//345 96//346 99//347 98//348
f 96//349 93//350 100//351 99//352
f 93//353 94//354 101//355 100//356
f 94//357 91//358 102//359 101//360
f 91//361 92//362 97//363 102//364
f 99//365 100//366 104//367 103//368
f 100//369 101//370 105//371 104//372
f 101//373 102//374 106//375 105//376
f 102//377 97//378 107//379 106//380
f 97//381 98//382 108//383 107//384
f 98//385 99//386 103//387 108//388
f 110//389 109//390 112//391 111//392
f 115//393 114//394 113//395
f 118//396 117//397 116//398
f 120//399 119//400 122//401 121//402
f 110//403 111//404 123//405
f 114//406 115//407 112//408 109//409
f 124//410 121//411 122//412
f 119//413 120//414 116//415 117//416
f 109//417 110//418 122//419 119//420
f 110//421 123//422 124//423 122//424
f 123//425 111//426 121//427 124//428
f 111//429 112//430 120//431 121//432
f 112//433 115//434 116//435 120//436
f 115//437 113//438 118//439 116//440
f 113//441 114//442 117//443 118//444
f 114//445 109//446 119//447 117//448

