# Rhino

g ______01
o object_1
v 2.144 2 1.825
v 2.144 2 2.727
v 2.144 2.029 1.825
v 2.144 2.029 2.727
v 2.194 2 1.802
v 2.194 2.029 1.802
v 2.766 2 2.727
v 2.766 2.029 2.727
v 4.506 2 1.802
v 4.506 2.029 1.802
v 4.604 2 1.872
v 4.604 2.029 1.872
vn -1 1.528e-14 0
vn -1 1.528e-14 0
vn -1 1.528e-14 0
vn -1 1.528e-14 0
vn 0.5807 0 -0.8141
vn 0.5807 0 -0.8141
vn 0.5807 0 -0.8141
vn 0.5807 0 -0.8141
vn 0 -1 0
vn 0 -1 0
vn 0 -1 0
vn -3.252e-17 -1 -6.994e-17
vn 0 -1 0
vn 8.131e-18 -1 1.748e-17
vn 0.4217 -5.234e-15 0.9067
vn 0.4217 0 0.9067
vn 0.4217 -5.234e-15 0.9067
vn 0.4217 0 0.9067
vn 0 1 0
vn 0 1 0
vn 5.692e-17 1 1.224e-16
vn 0 1 0
vn -2.439e-17 1 -5.245e-17
vn 0 1 0
vn -0.4217 0 -0.9067
vn -0.4217 0 -0.9067
vn -0.4217 -2.768e-15 -0.9067
vn -0.4217 -5.214e-15 -0.9067
vn 0 0 -1
vn 0 0 -1
vn 0 0 -1
vn 0 0 -1
vn 0 0 1
vn 0 0 1
vn 0 0 1
vn 0 0 1
f 2//1 4//3 3//4 1//2
f 10//6 12//8 11//7 9//5
f 2//11 1//12 11//14
f 5//9 9//13 1//12
f 2//11 11//14 7//10
f 9//13 11//14 1//12
f 7//16 11//15 12//17 8//18
f 4//22 8//19 12//23
f 10//24 3//21 12//23
f 4//22 12//23 3//21
f 6//20 3//21 10//24
f 3//28 6//25 5//26 1//27
f 6//30 10//32 9//31 5//29
f 4//34 2//33 7//35 8//36
o object_2
v 2.144 2.971 1.825
v 2.144 2.971 2.727
v 2.144 3 1.825
v 2.144 3 2.727
v 2.194 2.971 1.802
v 2.194 3 1.802
v 2.766 2.971 2.727
v 2.766 3 2.727
v 4.506 2.971 1.802
v 4.506 3 1.802
v 4.604 2.971 1.872
v 4.604 3 1.872
vn -1 3.694e-30 -4.927e-16
vn -1 3.694e-30 -4.927e-16
vn -1 3.694e-30 -4.927e-16
vn -1 3.694e-30 -4.927e-16
vn 0.5807 0 -0.8141
vn 0.5807 0 -0.8141
vn 0.5807 0 -0.8141
vn 0.5807 0 -0.8141
vn 0 -1 0
vn 0 -1 0
vn 0 -1 0
vn 2.439e-17 -1 5.245e-17
vn 0 -1 0
vn 3.252e-17 -1 6.994e-17
vn 0.4217 -5.234e-15 0.9067
vn 0.4217 0 0.9067
vn 0.4217 -5.234e-15 0.9067
vn 0.4217 0 0.9067
vn 0 1 0
vn 0 1 0
vn -9.351e-17 1 -2.011e-16
vn 0 1 0
vn -1.626e-17 1 -3.497e-17
vn 0 1 0
vn -0.4217 0 -0.9067
vn -0.4217 0 -0.9067
vn -0.4217 -2.768e-15 -0.9067
vn -0.4217 -5.214e-15 -0.9067
vn 0 0 -1
vn 0 0 -1
vn 0 0 -1
vn 0 0 -1
vn 0 0 1
vn 0 0 1
vn 0 0 1
vn 0 0 1
f 14//37 16//39 15//40 13//38
f 22//42 24//44 23//43 21//41
f 14//47 13//48 23//50
f 17//45 21//49 13//48
f 14//47 23//50 19//46
f 21//49 23//50 13//48
f 19//52 23//51 24//53 20//54
f 16//58 20//55 24//59
f 22//60 15//57 24//59
f 16//58 24//59 15//57
f 18//56 15//57 22//60
f 15//64 18//61 17//62 13//63
f 18//66 22//68 21//67 17//65
f 16//70 14//69 19//71 20//72
o object_3
v 1.982 2 1.797
v 1.982 2 1.824
v 1.982 3 1.797
v 1.982 3 1.824
v 4.498 2 1.797
v 4.498 3 1.797
v 4.536 2 1.824
v 4.536 3 1.824
vn 0.5807 0 -0.8141
vn 0.5807 0 -0.8141
vn 0.5807 0 -0.8141
vn 0.5807 0 -0.8141
vn 0 -1 0
vn 0 -1 0
vn 0 -1 0
vn 0 -1 0
vn 0 1 0
vn 0 1 0
vn 0 1 0
vn 0 1 0
vn -1 0 0
vn -1 0 0
vn -1 0 0
vn -1 0 0
vn 0 0 -1
vn 0 0 -1
vn 0 0 -1
vn 0 0 -1
vn 0 0 1
vn 0 0 1
vn 0 0 1
vn 0 0 1
f 30//73 32//75 31//76 29//74
f 25//77 29//79 31//80 26//78
f 28//82 32//83 30//84 27//81
f 28//86 27//85 25//87 26//88
f 27//90 30//92 29//91 25//89
f 28//94 26//93 31//95 32//96
o object_4
v -0.3476 0.7381 2.144
v -0.3476 0.7381 2.176
v -0.3476 1.204 1.901
v -0.3476 3.797 1.901
v -0.3476 4.262 2.143
v -0.3476 4.262 2.176
v -0.0226 0.7381 2.581
v -0.0224 4.262 2.581
v 0.09422 0.8836 2.727
v 0.09422 4.117 2.727
v 0.7017 4.262 1.655
v 0.7048 0.7381 1.655
v 1.108 1.204 1.224
v 1.108 3.797 1.224
v 1.146 3.831 1.224
v 1.149 1.168 1.224
v 2.144 2 2.727
v 2.144 3 2.727
v 2.155 0.8836 2.727
v 2.157 4.117 2.727
v 2.305 0.7381 2.581
v 2.307 4.262 2.581
v 2.763 1.427 2.727
v 2.763 2 2.727
v 2.763 3 2.727
v 2.763 3.575 2.727
v 3.691 1.168 1.224
v 3.691 3.831 1.224
v 4.297 0.7381 1.655
v 4.298 4.262 1.655
v 4.576 2 1.852
v 4.576 3 1.852
v 4.603 1.427 1.871
v 4.603 2 1.871
v 4.603 3 1.871
v 4.603 3.575 1.871
vn 4.038e-08 -0.7071 -0.7071
vn 4.038e-08 -0.7071 -0.7071
vn 4.038e-08 -0.7071 -0.7071
vn 4.038e-08 -0.7071 -0.7071
vn 0 0.7071 -0.7071
vn 0 0.7071 -0.7071
vn 0 0.7071 -0.7071
vn 0 0.7071 -0.7071
vn 0 0.7071 0.7071
vn 0 0.7071 0.7071
vn 0 0.7071 0.7071
vn 0 0.7071 0.7071
vn 0 -0.7071 0.7071
vn 0 -0.7071 0.7071
vn 0 -0.7071 0.7071
vn 0 -0.7071 0.7071
vn -1 -7.642e-31 -1.627e-15
vn -1 -7.642e-31 -1.627e-15
vn -1 -7.642e-31 -1.627e-15
vn -1 -7.642e-31 -1.627e-15
vn -1 -7.642e-31 -1.627e-15
vn -1 -7.642e-31 -1.627e-15
vn 0.5785 -1.541e-33 -0.8157
vn 0.5785 -1.541e-33 -0.8157
vn 0.5785 -1.541e-33 -0.8157
vn 0.5785 -1.541e-33 -0.8157
vn 0.5785 -1.541e-33 -0.8157
vn 0.5785 -1.541e-33 -0.8157
vn 0.5785 -1.541e-33 -0.8157
vn 0.5785 -1.541e-33 -0.8157
vn 0.5785 -1.541e-33 -0.8157
vn 0.5785 -1.541e-33 -0.8157
vn 0.3813 0.4267 0.8201
vn 0.3813 0.4267 0.8201
vn 0.3813 0.4267 0.8201
vn 0.3813 0.4267 0.8201
vn 0.3813 0.4267 0.8201
vn 0.4217 0 0.9068
vn 0.4217 5.15e-17 0.9068
vn 0.4217 0 0.9068
vn 0.4217 -1.635e-17 0.9068
vn -1.299e-17 0 -1
vn 0 0 -1
vn 1.299e-17 0 -1
vn -1.299e-17 0 -1
vn 0 0 -1
vn 0 0 -1
vn -0.3813 0.4267 -0.8201
vn -0.3813 0.4267 -0.8201
vn -0.3813 0.4267 -0.8201
vn -0.3813 0.4267 -0.8201
vn -0.3813 0.4267 -0.8201
vn -0.3813 -0.4267 -0.8201
vn -0.3813 -0.4267 -0.8201
vn -0.3813 -0.4267 -0.8201
vn -0.3813 -0.4267 -0.8201
vn -0.3813 -0.4267 -0.8201
vn 3.464e-17 1 7.45e-17
vn 0 1 0
vn -6.928e-17 1 -1.49e-16
vn 6.928e-17 1 1.49e-16
vn 0 1 0
vn 0 1 0
vn -0.4217 0 -0.9068
vn -0.4217 0 -0.9068
vn -0.4217 0 -0.9068
vn -0.4217 0 -0.9068
vn -0.7797 1.402e-17 0.6262
vn -0.7797 1.402e-17 0.6262
vn -0.7797 1.402e-17 0.6262
vn -0.7797 1.402e-17 0.6262
vn -0.7797 1.402e-17 0.6262
vn -0.7797 1.402e-17 0.6262
vn 0.3813 -0.4267 0.8201
vn 0.3813 -0.4267 0.8201
vn 0.3813 -0.4267 0.8201
vn 0.3813 -0.4267 0.8201
vn 0.3813 -0.4267 0.8201
vn -8.66e-18 -1 -1.862e-17
vn 0 -1 0
vn 0 -1 0
vn 0 -1 0
vn 0 -1 0
vn 1.732e-17 -1 3.725e-17
vn 0 0 1
vn 1.732e-17 0 1
vn 0 0 1
vn 0 0 1
vn 0 0 1
vn 0 0 1
vn 4.33e-18 0 1
vn 0 0 1
vn 0 0 1
vn -3.464e-17 0 1
vn 0.4217 0 0.9068
vn 0.4217 0 0.9068
vn 0.4217 -5.15e-17 0.9068
vn 0.4217 3.515e-17 0.9068
f 59//98 44//99 48//100
f 44//99 59//98 61//97
f 60//103 47//104 43//101
f 43//101 62//102 60//103
f 52//106 54//105 40//108 42//107
f 51//110 41//111 39//112 53//109
f 38//118 33//113 34//115
f 35//114 33//113 37//116
f 33//113 38//118 37//116
f 36//117 35//114 37//116
f 61//119 60//121 62//122
f 59//120 60//121 61//119
f 64//128 61//119 62//122
f 63//126 61//119 64//128
f 64//128 62//122 68//124
f 65//123 63//126 66//127
f 61//119 63//126 65//123
f 68//124 67//125 64//128
f 52//129 62//131 54//130
f 58//133 68//132 52//129
f 62//131 52//129 68//132
f 57//134 67//137 68//135 58//136
f 48//143 47//140 60//138 59//139
f 45//142 46//141 47//140
f 48//143 45//142 47//140
f 36//145 37//144 43//148
f 46//146 36//145 47//147
f 43//148 47//147 36//145
f 48//153 35//149 45//151
f 48//153 44//152 35//149
f 33//150 35//149 44//152
f 54//155 62//154 40//158
f 38//157 40//158 62//154
f 38//157 62//154 37//156
f 43//159 37//156 62//154
f 36//161 46//160 45//162 35//163
f 38//168 34//169 39//166
f 41//167 40//165 39//166
f 39//166 40//165 38//168
f 42//164 40//165 41//167
f 51//171 65//172 55//174
f 53//170 61//173 51//171
f 65//172 51//171 61//173
f 34//177 33//178 61//175
f 44//176 61//175 33//178
f 53//180 39//179 61//175
f 34//177 61//175 39//179
f 50//189 57//190 58//182
f 56//184 49//188 55//183
f 58//182 52//187 50//189
f 42//181 41//185 49//188 50//189
f 52//187 42//181 50//189
f 41//185 51//186 49//188
f 49//188 51//186 55//183
f 55//191 65//194 66//193 56//192
o object_5
v 2.029 2 1.802
v 2.029 2 2.727
v 2.029 3 1.802
v 2.029 3 2.727
v 2.144 2 1.802
v 2.144 2 2.727
v 2.144 3 1.802
v 2.144 3 2.727
vn 0 -1 0
vn 0 -1 0
vn 0 -1 0
vn 0 -1 0
vn 1 0 0
vn 1 0 0
vn 1 0 0
vn 1 0 0
vn 0 1 0
vn 0 1 0
vn 0 1 0
vn 0 1 0
vn -1 0 0
vn -1 0 0
vn -1 0 0
vn -1 0 0
vn 0 0 -1
vn 0 0 -1
vn 0 0 -1
vn 0 0 -1
vn 0 0 1
vn 0 0 1
vn 0 0 1
vn 0 0 1
f 69//195 73//197 74//198 70//196
f 73//199 75//201 76//202 74//200
f 75//203 71//205 72//206 76//204
f 71//207 69//209 70//210 72//208
f 73//212 69//211 71//214
f 71//214 75//213 73//212
f 74//216 72//218 70//215
f 72//218 74//216 76//217
