# Rhino

o object_1
v 0.8574 7.537 0.01384
v 0.8574 7.537 0.2048
v 1.414 5.495 0.01384
v 1.414 5.495 0.2048
v 1.414 9.579 0.01384
v 1.414 9.579 0.2048
v 2.935 4 0.01384
v 2.935 4 0.2048
v 2.935 11.07 0.01384
v 2.935 11.07 0.2048
v 5.012 3.453 0.01384
v 5.012 3.453 0.2048
v 5.012 7.537 0.01384
v 5.012 7.537 0.2048
v 5.012 11.62 0.01384
v 5.012 11.62 0.2048
v 7.089 4 0.01384
v 7.089 4 0.2048
v 7.089 11.07 0.01384
v 7.089 11.07 0.2048
v 8.609 5.495 0.01384
v 8.609 5.495 0.2048
v 8.609 9.579 0.01384
v 8.609 9.579 0.2048
v 9.166 7.537 0.01384
v 9.166 7.537 0.2048
vn 0 0 1
vn 0 0 1
vn 0 0 1
vn 0.08747 -0.9962 0
vn 0.5692 -0.8222 0
vn 0.4159 -0.9094 0
vn -0.08747 -0.9962 0
vn 0 0 -1
vn 0 0 -1
vn 0 0 -1
vn 0 0 1
vn 0 0 1
vn 0 0 1
vn 0.5692 -0.8222 0
vn 0.9047 -0.4261 0
vn 0.814 -0.5809 0
vn 0.4159 -0.9094 0
vn 0 0 -1
vn 0 0 -1
vn 0 0 -1
vn 0 0 1
vn 0 0 1
vn 0 0 1
vn 0.9047 -0.4261 0
vn 0.9959 0.09047 0
vn 0.9959 -0.09047 0
vn 0.814 -0.5809 0
vn 0 0 -1
vn 0 0 -1
vn 0 0 -1
vn 0 0 1
vn 0 0 1
vn 0 0 1
vn 0.9959 0.09047 0
vn 0.814 0.5809 0
vn 0.9047 0.4261 0
vn 0.9959 -0.09047 0
vn 0 0 -1
vn 0 0 -1
vn 0 0 -1
vn 0 0 1
vn 0 0 1
vn 0 0 1
vn 0.814 0.5809 0
vn 0.4159 0.9094 0
vn 0.5692 0.8222 0
vn 0.9047 0.4261 0
vn 0 0 -1
vn 0 0 -1
vn 0 0 -1
vn 0 0 1
vn 0 0 1
vn 0 0 1
vn 0.4159 0.9094 0
vn -0.08747 0.9962 0
vn 0.08747 0.9962 0
vn 0.5692 0.8222 0
vn 0 0 -1
vn 0 0 -1
vn 0 0 -1
vn 0 0 1
vn 0 0 1
vn 0 0 1
vn -0.08747 0.9962 0
vn -0.5692 0.8222 0
vn -0.4159 0.9094 0
vn 0.08747 0.9962 0
vn 0 0 -1
vn 0 0 -1
vn 0 0 -1
vn 0 0 1
vn 0 0 1
vn 0 0 1
vn -0.5692 0.8222 0
vn -0.9047 0.4261 0
vn -0.814 0.5809 0
vn -0.4159 0.9094 0
vn 0 0 -1
vn 0 0 -1
vn 0 0 -1
vn 0 0 1
vn 0 0 1
vn 0 0 1
vn -0.9047 0.4261 0
vn -0.9959 -0.09047 0
vn -0.9959 0.09047 0
vn -0.814 0.5809 0
vn 0 0 -1
vn 0 0 -1
vn 0 0 -1
vn 0 0 1
vn 0 0 1
vn 0 0 1
vn -0.9959 -0.09047 0
vn -0.814 -0.5809 0
vn -0.9047 -0.4261 0
vn -0.9959 0.09047 0
vn 0 0 -1
vn 0 0 -1
vn 0 0 -1
vn 0 0 1
vn 0 0 1
vn 0 0 1
vn -0.814 -0.5809 0
vn -0.4159 -0.9094 0
vn -0.5692 -0.8222 0
vn -0.9047 -0.4261 0
vn 0 0 -1
vn 0 0 -1
vn 0 0 -1
vn 0 0 1
vn 0 0 1
vn 0 0 1
vn -0.4159 -0.9094 0
vn 0.08747 -0.9962 0
vn -0.08747 -0.9962 0
vn -0.5692 -0.8222 0
vn 0 0 -1
vn 0 0 -1
vn 0 0 -1
f 18//1 14//2 12//3
f 11//4 17//5 18//6 12//7
f 11//8 13//9 17//10
f 22//11 14//12 18//13
f 17//14 21//15 22//16 18//17
f 17//18 13//19 21//20
f 26//21 14//22 22//23
f 21//24 25//25 26//26 22//27
f 21//28 13//29 25//30
f 24//31 14//32 26//33
f 25//34 23//35 24//36 26//37
f 25//38 13//39 23//40
f 20//41 14//42 24//43
f 23//44 19//45 20//46 24//47
f 23//48 13//49 19//50
f 16//51 14//52 20//53
f 19//54 15//55 16//56 20//57
f 19//58 13//59 15//60
f 10//61 14//62 16//63
f 15//64 9//65 10//66 16//67
f 15//68 13//69 9//70
f 6//71 14//72 10//73
f 9//74 5//75 6//76 10//77
f 9//78 13//79 5//80
f 2//81 14//82 6//83
f 5//84 1//85 2//86 6//87
f 5//88 13//89 1//90
f 4//91 14//92 2//93
f 1//94 3//95 4//96 2//97
f 1//98 13//99 3//100
f 8//101 14//102 4//103
f 3//104 7//105 8//106 4//107
f 3//108 13//109 7//110
f 12//111 14//112 8//113
f 7//114 11//115 12//116 8//117
f 7//118 13//119 11//120
