# Rhino

o object_1
v 5.338 7.26 2.052
v 5.338 7.295 1.923
v 5.338 7.295 2.182
v 5.338 7.39 1.828
v 5.338 7.39 2.277
v 5.338 7.519 1.794
v 5.338 7.519 2.052
v 5.338 7.519 2.311
v 5.338 7.648 1.828
v 5.338 7.648 2.277
v 5.338 7.743 1.923
v 5.338 7.743 2.182
v 5.338 7.778 2.052
v 5.439 6.944 2.084
v 5.439 7.021 1.797
v 5.439 7.021 2.372
v 5.439 7.232 1.587
v 5.439 7.232 2.582
v 5.439 7.519 1.51
v 5.439 7.519 2.084
v 5.439 7.519 2.659
v 5.439 7.806 1.587
v 5.439 7.806 2.582
v 5.439 8.017 1.797
v 5.439 8.017 2.372
v 5.439 8.094 2.084
v 9.944 6.999 2.083
v 9.944 7.069 1.823
v 9.944 7.069 2.343
v 9.944 7.259 1.633
v 9.944 7.259 2.533
v 9.944 7.519 1.563
v 9.944 7.519 2.603
v 9.944 7.779 1.633
v 9.944 7.779 2.533
v 9.944 7.969 1.823
v 9.944 7.969 2.343
v 9.944 8.039 2.083
v 9.945 6.944 2.08
v 9.945 7.021 1.792
v 9.945 7.021 2.367
v 9.945 7.232 1.582
v 9.945 7.232 2.577
v 9.945 7.519 1.505
v 9.945 7.519 2.654
v 9.945 7.806 1.582
v 9.945 7.806 2.577
v 9.945 8.017 1.792
v 9.945 8.017 2.367
v 9.945 8.094 2.08
v 11.58 6.999 2.087
v 11.58 7.046 2.095
v 11.58 7.069 1.827
v 11.58 7.069 2.347
v 11.58 7.11 1.858
v 11.58 7.11 2.331
v 11.58 7.259 1.637
v 11.58 7.259 2.537
v 11.58 7.283 1.685
v 11.58 7.283 2.504
v 11.58 7.519 1.567
v 11.58 7.519 1.622
v 11.58 7.519 2.568
v 11.58 7.519 2.607
v 11.58 7.755 1.685
v 11.58 7.755 2.504
v 11.58 7.779 1.637
v 11.58 7.779 2.537
v 11.58 7.928 1.858
v 11.58 7.928 2.331
v 11.58 7.969 1.827
v 11.58 7.969 2.347
v 11.58 7.992 2.095
v 11.58 8.039 2.087
v 16.78 7.116 2.084
v 16.78 7.17 1.883
v 16.78 7.17 2.286
v 16.78 7.318 1.735
v 16.78 7.318 2.433
v 16.78 7.519 1.681
v 16.78 7.519 2.487
v 16.78 7.72 1.735
v 16.78 7.72 2.433
v 16.78 7.868 1.883
v 16.78 7.868 2.286
v 16.78 7.922 2.084
v 16.78 7.231 2.094
v 16.78 7.27 1.95
v 16.78 7.27 2.238
v 16.78 7.375 1.845
v 16.78 7.375 2.343
v 16.78 7.519 1.806
v 16.78 7.519 2.381
v 16.78 7.663 1.845
v 16.78 7.663 2.343
v 16.78 7.768 1.95
v 16.78 7.768 2.238
v 16.78 7.807 2.094
vn 1 0 0
vn 1 0 0
vn 1 0 0
vn 1 0 0
vn 1 0 0
vn 1 0 0
vn 1 0 0
vn 1 0 0
vn 1 0 0
vn 1 0 0
vn 1 0 0
vn 1 0 0
vn 1 0 0
vn 1 0 0
vn 1 0 0
vn 1 0 0
vn 1 0 0
vn 1 0 0
vn 1 0 0
vn 1 0 0
vn 1 0 0
vn 1 0 0
vn 1 0 0
vn 1 0 0
vn 1 0 0
vn 1 0 0
vn 1 0 0
vn 1 0 0
vn 1 0 0
vn 1 0 0
vn 1 0 0
vn 1 0 0
vn 1 0 0
vn 1 0 0
vn 1 0 0
vn 1 0 0
vn -1 0 0
vn -1 0 0
vn -1 0 0
vn -0.0004437 -0.9071 -0.421
vn -0.0006061 -0.8181 -0.5751
vn -9.377e-05 -0.996 -0.08896
vn 9.377e-05 -0.996 0.08896
vn -1 0 0
vn -1 0 0
vn -1 0 0
vn -0.0008623 -0.5751 -0.8181
vn -0.0009561 -0.421 -0.9071
vn -0.0006061 -0.8181 -0.5751
vn -0.0004437 -0.9071 -0.421
vn -1 0 0
vn -1 0 0
vn -1 0 0
vn -0.00105 -0.08896 -0.996
vn -0.00105 0.08896 -0.996
vn -0.0009561 -0.421 -0.9071
vn -0.0008623 -0.5751 -0.8181
vn -1 0 0
vn -1 0 0
vn -1 0 0
vn -0.0009561 0.421 -0.9071
vn -0.0008623 0.5751 -0.8181
vn -0.00105 0.08896 -0.996
vn -0.00105 -0.08896 -0.996
vn -1 0 0
vn -1 0 0
vn -1 0 0
vn -0.0006061 0.8181 -0.5751
vn -0.0004437 0.9071 -0.421
vn -0.0008623 0.5751 -0.8181
vn -0.0009561 0.421 -0.9071
vn -1 0 0
vn -1 0 0
vn -1 0 0
vn -9.377e-05 0.996 -0.08896
vn 9.377e-05 0.996 0.08896
vn -0.0004437 0.9071 -0.421
vn -0.0006061 0.8181 -0.5751
vn -1 0 0
vn -1 0 0
vn -1 0 0
vn 0.0004437 0.9071 0.421
vn 0.0006061 0.8181 0.5751
vn 9.377e-05 0.996 0.08896
vn -9.377e-05 0.996 -0.08896
vn -1 0 0
vn -1 0 0
vn -1 0 0
vn 0.0008623 0.5751 0.8181
vn 0.0009561 0.421 0.9071
vn 0.0006061 0.8181 0.5751
vn 0.0004437 0.9071 0.421
vn -1 0 0
vn -1 0 0
vn -1 0 0
vn 0.00105 0.08896 0.996
vn 0.00105 -0.08896 0.996
vn 0.0009561 0.421 0.9071
vn 0.0008623 0.5751 0.8181
vn -1 0 0
vn -1 0 0
vn -1 0 0
vn 0.0009561 -0.421 0.9071
vn 0.0008623 -0.5751 0.8181
vn 0.00105 -0.08896 0.996
vn 0.00105 0.08896 0.996
vn -1 0 0
vn -1 0 0
vn -1 0 0
vn 0.0006061 -0.8181 0.5751
vn 0.0004437 -0.9071 0.421
vn 0.0008623 -0.5751 0.8181
vn 0.0009561 -0.421 0.9071
vn -1 0 0
vn -1 0 0
vn -1 0 0
vn 9.377e-05 -0.996 0.08896
vn -9.377e-05 -0.996 -0.08896
vn 0.0004437 -0.9071 0.421
vn 0.0006061 -0.8181 0.5751
vn 0.9999 0.006067 -0.00867
vn 0.9999 0.008921 -0.005198
vn 0.9999 0.008921 -0.005198
vn 0.9999 0.004462 -0.009668
vn 0.9999 0.0009527 -0.01067
vn 0.9999 0.006067 -0.00867
vn 0.9999 0.004462 -0.009668
vn 0.9999 -0.0009527 -0.01067
vn 0.9999 -0.004462 -0.009668
vn 0.9999 0.0009527 -0.01067
vn 0.9999 -0.0009527 -0.01067
vn 0.9999 -0.006067 -0.00867
vn 0.9999 -0.008504 -0.006023
vn 0.9999 -0.004462 -0.009668
vn 0.9999 -0.006067 -0.00867
vn 0.9999 -0.009337 -0.004374
vn 0.9999 -0.01006 -0.0009383
vn 0.9999 -0.008504 -0.006023
vn 0.9999 -0.009337 -0.004374
vn 1 -0.009947 0.0008486
vn 1 -0.008891 0.004091
vn 0.9999 -0.01006 -0.0009383
vn 1 -0.009947 0.0008486
vn 1 -0.007946 0.005546
vn 1 -0.005508 0.007805
vn 1 -0.008891 0.004091
vn 1 -0.007946 0.005546
vn 1 -0.004015 0.008609
vn 1 -0.0008407 0.009413
vn 1 -0.005508 0.007805
vn 1 -0.004015 0.008609
vn 1 0.0008407 0.009413
vn 1 0.004015 0.008609
vn 1 -0.0008407 0.009413
vn 1 0.0008407 0.009413
vn 1 0.005508 0.007805
vn 1 0.007946 0.005546
vn 1 0.004015 0.008609
vn 1 0.005508 0.007805
vn 1 0.008891 0.004091
vn 0.9999 0.008921 -0.005198
vn 0.9999 0.008921 -0.005198
vn 0.9999 0.01 -4.484e-05
vn 0.9999 0.01 -4.484e-05
vn 0.9999 0.01 -4.484e-05
vn 1 0.007946 0.005546
vn 1 0.008891 0.004091
vn 0.9999 0.01 -4.484e-05
vn 0 -1 0
vn 0 -1 0
vn 0.001095 -0.9071 -0.421
vn 0.001496 -0.8181 -0.5751
vn 0.001496 -0.8181 -0.5751
vn 0.001095 -0.9071 -0.421
vn 0.002128 -0.5751 -0.8181
vn 0.002359 -0.421 -0.9071
vn 0.002359 -0.421 -0.9071
vn 0.002128 -0.5751 -0.8181
vn 0.002591 -0.08896 -0.996
vn 0.002591 0.08896 -0.996
vn 0.002591 0.08896 -0.996
vn 0.002591 -0.08896 -0.996
vn 0.002359 0.421 -0.9071
vn 0.002128 0.5751 -0.8181
vn 0.002128 0.5751 -0.8181
vn 0.002359 0.421 -0.9071
vn 0.001496 0.8181 -0.5751
vn 0.001095 0.9071 -0.421
vn 0.001095 0.9071 -0.421
vn 0.001496 0.8181 -0.5751
vn 0.0002314 0.996 -0.08896
vn -0.0002314 0.996 0.08896
vn -0.0002314 0.996 0.08896
vn 0.0002314 0.996 -0.08896
vn -0.001095 0.9071 0.421
vn -0.001496 0.8181 0.5751
vn -0.001496 0.8181 0.5751
vn -0.001095 0.9071 0.421
vn -0.002128 0.5751 0.8181
vn -0.002359 0.421 0.9071
vn -0.002359 0.421 0.9071
vn -0.002128 0.5751 0.8181
vn -0.002591 0.08896 0.996
vn -0.002591 -0.08896 0.996
vn -0.002591 -0.08896 0.996
vn -0.002591 0.08896 0.996
vn -0.002359 -0.421 0.9071
vn -0.002128 -0.5751 0.8181
vn -0.002128 -0.5751 0.8181
vn -0.002359 -0.421 0.9071
vn -0.0013 -0.866 0.5
vn -0.0013 -0.866 0.5
vn -0.0013 -0.866 0.5
vn 0 -1 0
vn 0 -1 0
vn -0.0013 -0.866 0.5
vn 1 0 0
vn 1 0 0
vn 1 0 0
vn 1 0 0
vn 1 0 0
vn 1 0 0
vn 1 0 0
vn 1 0 0
vn 1 0 0
vn 1 0 0
vn 1 0 0
vn 1 0 0
vn 1 0 0
vn 1 0 0
vn 1 0 0
vn 1 0 0
vn 1 0 0
vn 1 0 0
vn 1 0 0
vn 1 0 0
vn 1 0 0
vn 1 0 0
vn 1 0 0
vn 1 0 0
vn 1 0 0
vn 1 0 0
vn 1 0 0
vn 1 0 0
vn 1 0 0
vn 1 0 0
vn 1 0 0
vn 1 0 0
vn 1 0 0
vn 1 0 0
vn 1 0 0
vn 1 0 0
vn 1 0 0
vn 1 0 0
vn 1 0 0
vn 1 0 0
vn 1 0 0
vn 1 0 0
vn 1 0 0
vn 1 0 0
vn 1 0 0
vn 1 0 0
vn 1 0 0
vn 1 0 0
vn 0.01342 -0.9999 -1.86e-06
vn 0.01342 -0.9999 -1.86e-06
vn 0.0125 -0.907 -0.4209
vn 0.01218 -0.818 -0.575
vn 0.01218 -0.818 -0.575
vn 0.0125 -0.907 -0.4209
vn 0.01168 -0.575 -0.8181
vn 0.01149 -0.4209 -0.907
vn 0.01149 -0.4209 -0.907
vn 0.01168 -0.575 -0.8181
vn 0.01131 -0.08896 -0.996
vn 0.01131 0.08896 -0.996
vn 0.01131 0.08896 -0.996
vn 0.01131 -0.08896 -0.996
vn 0.01149 0.4209 -0.907
vn 0.01168 0.575 -0.8181
vn 0.01168 0.575 -0.8181
vn 0.01149 0.4209 -0.907
vn 0.01218 0.818 -0.575
vn 0.0125 0.907 -0.4209
vn 0.0125 0.907 -0.4209
vn 0.01218 0.818 -0.575
vn 0.01319 0.9959 -0.08896
vn 0.01355 0.9959 0.08895
vn 0.01355 0.9959 0.08895
vn 0.01319 0.9959 -0.08896
vn 0.01424 0.907 0.4209
vn 0.01456 0.818 0.575
vn 0.01456 0.818 0.575
vn 0.01424 0.907 0.4209
vn 0.01506 0.575 0.818
vn 0.01524 0.4209 0.907
vn 0.01524 0.4209 0.907
vn 0.01506 0.575 0.818
vn 0.01543 0.08895 0.9959
vn 0.01543 -0.08895 0.9959
vn 0.01543 -0.08895 0.9959
vn 0.01543 0.08895 0.9959
vn 0.01524 -0.4209 0.907
vn 0.01506 -0.575 0.818
vn 0.01506 -0.575 0.818
vn 0.01524 -0.4209 0.907
vn 0.01446 -0.8659 0.4999
vn 0.01446 -0.8659 0.4999
vn 0.01446 -0.8659 0.4999
vn 0.01342 -0.9999 -1.86e-06
vn 0.01342 -0.9999 -1.86e-06
vn 0.01446 -0.8659 0.4999
vn 1 -0.002935 0.004201
vn 1 -0.004286 0.002505
vn 1 -0.004286 0.002505
vn 1 -0.002163 0.004695
vn 1 -0.0004634 0.005189
vn 1 -0.002935 0.004201
vn 1 -0.002163 0.004695
vn 1 0.0004634 0.005189
vn 1 0.002163 0.004695
vn 1 -0.0004634 0.005189
vn 1 0.0004634 0.005189
vn 1 0.002935 0.004201
vn 1 0.004093 0.002906
vn 1 0.002163 0.004695
vn 1 0.002935 0.004201
vn 1 0.004478 0.002105
vn 1 0.004793 0.0004534
vn 1 0.004093 0.002906
vn 1 0.004478 0.002105
vn 1 0.004722 -0.0003963
vn 1 0.004194 -0.001924
vn 1 0.004793 0.0004534
vn 1 0.004722 -0.0003963
vn 1 0.003737 -0.002602
vn 1 0.002578 -0.003649
vn 1 0.004194 -0.001924
vn 1 0.003737 -0.002602
vn 1 0.001877 -0.004018
vn 1 0.0003919 -0.004388
vn 1 0.002578 -0.003649
vn 1 0.001877 -0.004018
vn 1 -0.0003919 -0.004388
vn 1 -0.001877 -0.004018
vn 1 0.0003919 -0.004388
vn 1 -0.0003919 -0.004388
vn 1 -0.002578 -0.003649
vn 1 -0.003737 -0.002602
vn 1 -0.001877 -0.004018
vn 1 -0.002578 -0.003649
vn 1 -0.004194 -0.001924
vn 1 -0.004286 0.002505
vn 1 -0.004286 0.002505
vn 1 -0.004757 2.856e-05
vn 1 -0.004757 2.856e-05
vn 1 -0.004757 2.856e-05
vn 1 -0.003737 -0.002602
vn 1 -0.004194 -0.001924
vn 1 -0.004757 2.856e-05
vn 0.002516 1 6.1e-07
vn 0.002516 1 6.1e-07
vn 0.0009856 0.9071 0.421
vn 0.0004291 0.8181 0.5751
vn 0.0004291 0.8181 0.5751
vn 0.0009856 0.9071 0.421
vn -0.0004485 0.5751 0.8181
vn -0.0007698 0.421 0.9071
vn -0.0007698 0.421 0.9071
vn -0.0004485 0.5751 0.8181
vn -0.001091 0.08896 0.996
vn -0.001091 -0.08896 0.996
vn -0.001091 -0.08896 0.996
vn -0.001091 0.08896 0.996
vn -0.0007698 -0.421 0.9071
vn -0.0004485 -0.5751 0.8181
vn -0.0004485 -0.5751 0.8181
vn -0.0007698 -0.421 0.9071
vn 0.0004291 -0.8181 0.5751
vn 0.0009856 -0.9071 0.421
vn 0.0009856 -0.9071 0.421
vn 0.0004291 -0.8181 0.5751
vn 0.002184 -0.996 0.08896
vn 0.002827 -0.996 -0.08896
vn 0.002827 -0.996 -0.08896
vn 0.002184 -0.996 0.08896
vn 0.004026 -0.9071 -0.421
vn 0.004582 -0.8181 -0.5751
vn 0.004582 -0.8181 -0.5751
vn 0.004026 -0.9071 -0.421
vn 0.00546 -0.5751 -0.8181
vn 0.005781 -0.421 -0.9071
vn 0.005781 -0.421 -0.9071
vn 0.00546 -0.5751 -0.8181
vn 0.006102 -0.08896 -0.996
vn 0.006102 0.08896 -0.996
vn 0.006102 0.08896 -0.996
vn 0.006102 -0.08896 -0.996
vn 0.005781 0.421 -0.9071
vn 0.00546 0.5751 -0.8181
vn 0.00546 0.5751 -0.8181
vn 0.005781 0.421 -0.9071
vn 0.004321 0.866 -0.5
vn 0.004321 0.866 -0.5
vn 0.004321 0.866 -0.5
vn 0.002516 1 6.1e-07
vn 0.002516 1 6.1e-07
vn 0.004321 0.866 -0.5
f 7//1 1//2 2//3
f 7//4 2//5 4//6
f 7//7 4//8 6//9
f 7//10 6//11 9//12
f 7//13 9//14 11//15
f 7//16 11//17 13//18
f 7//19 13//20 12//21
f 7//22 12//23 10//24
f 7//25 10//26 8//27
f 7//28 8//29 5//30
f 7//31 5//32 3//33
f 7//34 3//35 1//36
f 20//37 15//38 14//39
f 15//40 40//41 39//42 14//43
f 20//44 17//45 15//46
f 17//47 42//48 40//49 15//50
f 20//51 19//52 17//53
f 19//54 44//55 42//56 17//57
f 20//58 22//59 19//60
f 22//61 46//62 44//63 19//64
f 20//65 24//66 22//67
f 24//68 48//69 46//70 22//71
f 20//72 26//73 24//74
f 26//75 50//76 48//77 24//78
f 20//79 25//80 26//81
f 25//82 49//83 50//84 26//85
f 20//86 23//87 25//88
f 23//89 47//90 49//91 25//92
f 20//93 21//94 23//95
f 21//96 45//97 47//98 23//99
f 20//100 18//101 21//102
f 18//103 43//104 45//105 21//106
f 20//107 16//108 18//109
f 16//110 41//111 43//112 18//113
f 20//114 14//115 16//116
f 14//117 39//118 41//119 16//120
f 43//121 41//122 29//123 31//124
f 45//125 43//126 31//127 33//128
f 47//129 45//130 33//131 35//132
f 49//133 47//134 35//135 37//136
f 50//137 49//138 37//139 38//140
f 48//141 50//142 38//143 36//144
f 46//145 48//146 36//147 34//148
f 44//149 46//150 34//151 32//152
f 42//153 44//154 32//155 30//156
f 40//157 42//158 30//159 28//160
f 29//161 41//162 39//163 27//164
f 39//165 40//166 28//167 27//168
f 51//169 27//170 28//171 53//172
f 53//173 28//174 30//175 57//176
f 57//177 30//178 32//179 61//180
f 61//181 32//182 34//183 67//184
f 67//185 34//186 36//187 71//188
f 71//189 36//190 38//191 74//192
f 74//193 38//194 37//195 72//196
f 72//197 37//198 35//199 68//200
f 68//201 35//202 33//203 64//204
f 64//205 33//206 31//207 58//208
f 58//209 31//210 29//211 54//212
f 29//213 27//214 51//215 54//216
f 58//217 54//218 56//219 60//220
f 64//221 58//222 60//223 63//224
f 68//225 64//226 63//227 66//228
f 72//229 68//230 66//231 70//232
f 74//233 72//234 70//235 73//236
f 71//237 74//238 73//239 69//240
f 67//241 71//242 69//243 65//244
f 61//245 67//246 65//247 62//248
f 57//249 61//250 62//251 59//252
f 53//253 57//254 59//255 55//256
f 56//257 54//258 51//259 52//260
f 51//261 53//262 55//263 52//264
f 75//265 52//266 55//267 76//268
f 76//269 55//270 59//271 78//272
f 78//273 59//274 62//275 80//276
f 80//277 62//278 65//279 82//280
f 82//281 65//282 69//283 84//284
f 84//285 69//286 73//287 86//288
f 86//289 73//290 70//291 85//292
f 85//293 70//294 66//295 83//296
f 83//297 66//298 63//299 81//300
f 81//301 63//302 60//303 79//304
f 79//305 60//306 56//307 77//308
f 56//309 52//310 75//311 77//312
f 79//313 77//314 89//315 91//316
f 81//317 79//318 91//319 93//320
f 83//321 81//322 93//323 95//324
f 85//325 83//326 95//327 97//328
f 86//329 85//330 97//331 98//332
f 84//333 86//334 98//335 96//336
f 82//337 84//338 96//339 94//340
f 80//341 82//342 94//343 92//344
f 78//345 80//346 92//347 90//348
f 76//349 78//350 90//351 88//352
f 89//353 77//354 75//355 87//356
f 75//357 76//358 88//359 87//360
f 1//361 87//362 88//363 2//364
f 2//365 88//366 90//367 4//368
f 4//369 90//370 92//371 6//372
f 6//373 92//374 94//375 9//376
f 9//377 94//378 96//379 11//380
f 11//381 96//382 98//383 13//384
f 13//385 98//386 97//387 12//388
f 12//389 97//390 95//391 10//392
f 10//393 95//394 93//395 8//396
f 8//397 93//398 91//399 5//400
f 5//401 91//402 89//403 3//404
f 89//405 87//406 1//407 3//408
