# Rhino

o object_1
v 0.2113 7.505 0.2199
v 0.2221 7.505 3.558
v 0.7252 5.587 0.2199
v 0.7252 9.423 0.2199
v 0.7309 5.555 3.411
v 0.7321 9.423 3.443
v 1.454 7.486 3.17
v 1.455 7.486 3.52
v 1.507 7.486 3.544
v 1.508 7.486 3.779
v 1.513 7.266 3.17
v 1.513 7.705 3.17
v 1.514 7.266 3.52
v 1.514 7.705 3.52
v 1.559 7.292 3.544
v 1.559 7.679 3.544
v 1.56 7.292 3.779
v 1.56 7.679 3.779
v 1.674 7.105 3.17
v 1.674 7.866 3.17
v 1.674 7.105 3.52
v 1.674 7.866 3.52
v 1.685 7.486 3.968
v 1.701 7.15 3.544
v 1.701 7.821 3.544
v 1.702 7.15 3.779
v 1.702 7.821 3.779
v 1.713 7.38 3.968
v 1.713 7.591 3.968
v 1.79 7.304 3.968
v 1.79 7.667 3.968
v 1.893 7.047 3.17
v 1.893 7.925 3.17
v 1.894 7.047 3.52
v 1.894 7.925 3.52
v 1.894 7.098 3.544
v 1.894 7.873 3.544
v 1.895 7.275 3.968
v 1.895 7.486 3.968
v 1.895 7.696 3.968
v 1.895 7.098 3.779
v 1.895 7.873 3.779
v 2 7.304 3.968
v 2 7.667 3.968
v 2.077 7.38 3.968
v 2.077 7.591 3.968
v 2.088 7.15 3.544
v 2.088 7.821 3.544
v 2.089 7.15 3.779
v 2.089 7.821 3.779
v 2.105 7.486 3.968
v 2.113 7.105 3.17
v 2.113 7.866 3.17
v 2.113 7.105 3.52
v 2.113 7.866 3.52
v 2.23 7.292 3.544
v 2.23 7.679 3.544
v 2.231 7.292 3.779
v 2.231 7.679 3.779
v 2.274 7.266 3.17
v 2.274 7.705 3.17
v 2.274 7.266 3.52
v 2.274 7.705 3.52
v 2.282 7.486 3.544
v 2.283 7.486 3.779
v 2.332 7.486 3.17
v 2.333 7.486 3.52
v 3.057 10.83 2.942
v 3.059 4.181 2.939
v 3.091 4.215 0.2199
v 3.091 10.86 0.2199
v 4.993 3.733 2.772
v 4.995 11.34 2.773
v 5.009 3.701 0.2199
v 5.009 7.537 0.2199
v 5.009 11.37 0.2199
v 5.016 7.537 3.379
v 6.857 8.157 0.2199
v 6.86 8.157 3.269
v 6.864 7.532 0.2199
v 6.869 6.882 0.2199
v 6.871 6.874 3.269
v 6.871 7.526 3.267
v 6.878 8.152 1.315
v 6.889 6.884 1.315
v 6.889 7.521 1.315
v 6.926 4.215 0.2199
v 6.926 10.86 0.2199
v 6.936 4.181 2.818
v 6.938 10.83 2.82
v 8.318 5.587 3.05
v 8.32 9.455 3.05
v 8.324 5.604 1.635
v 8.324 9.455 1.635
v 8.33 5.619 0.2199
v 8.33 9.455 0.2199
v 8.752 8.151 3.142
v 8.754 8.151 0.9505
v 8.755 8.151 0.2199
v 8.762 7.839 0.2199
v 8.768 7.84 0.9621
v 8.769 7.527 0.2199
v 8.77 7.527 0.9737
v 8.771 8.151 1.21
v 8.773 7.875 1.062
v 8.773 7.212 0.2199
v 8.774 6.881 3.143
v 8.774 6.924 1.039
v 8.776 7.561 1.036
v 8.776 6.893 0.9506
v 8.778 8.185 1.04
v 8.778 6.897 0.2199
v 8.78 7.21 0.9622
v 8.786 7.242 1.062
v 8.787 8.145 1.23
v 8.79 7.521 1.23
v 8.792 6.885 1.21
v 8.798 6.886 1.23
vn -5.31e-06 -0.394 0.9191
vn 0 0 1
vn -0.197 -0.3413 0.9191
vn -0.197 -0.3413 0.9191
vn 0 0 1
vn -0.3413 -0.197 0.9191
vn -0.3413 -0.197 0.9191
vn 0 0 1
vn -0.3941 0 0.9191
vn -0.3941 0 0.9191
vn 0 0 1
vn -0.3413 0.197 0.9191
vn -0.3413 0.197 0.9191
vn 0 0 1
vn -0.197 0.3413 0.9191
vn -0.197 0.3413 0.9191
vn 0 0 1
vn -5.31e-06 0.394 0.9191
vn -5.31e-06 0.394 0.9191
vn 0 0 1
vn 0.197 0.3412 0.9191
vn 0.197 0.3412 0.9191
vn 0 0 1
vn 0.3411 0.197 0.9191
vn 0.3411 0.197 0.9191
vn 0 0 1
vn 0.3939 0 0.9191
vn 0.3939 0 0.9191
vn 0 0 1
vn 0.3411 -0.197 0.9191
vn 0.3411 -0.197 0.9191
vn 0 0 1
vn 0.197 -0.3412 0.9191
vn 0.197 -0.3412 0.9191
vn 0 0 1
vn -5.31e-06 -0.394 0.9191
vn 0.08896 -0.996 -0.0003965
vn 0.5751 -0.8181 -0.002563
vn 0.4646 -0.8048 0.3695
vn -5.33e-06 -0.9289 0.3704
vn 0.5751 -0.8181 -0.002563
vn 0.9071 -0.421 -0.004043
vn 0.805 -0.4648 0.3688
vn 0.4646 -0.8048 0.3695
vn 0.9071 -0.421 -0.004043
vn 0.996 0.08896 -0.00444
vn 0.9296 0 0.3685
vn 0.805 -0.4648 0.3688
vn 0.996 0.08896 -0.00444
vn 0.8181 0.5751 -0.003646
vn 0.805 0.4648 0.3688
vn 0.9296 0 0.3685
vn 0.8181 0.5751 -0.003646
vn 0.421 0.9071 -0.001876
vn 0.4646 0.8048 0.3695
vn 0.805 0.4648 0.3688
vn 0.421 0.9071 -0.001876
vn -0.08896 0.996 0.0003965
vn -5.33e-06 0.9289 0.3704
vn 0.4646 0.8048 0.3695
vn -0.08896 0.996 0.0003965
vn -0.5751 0.8181 0.002563
vn -0.4642 0.8041 0.3714
vn -5.33e-06 0.9289 0.3704
vn -0.5751 0.8181 0.002563
vn -0.9071 0.421 0.004043
vn -0.8038 0.4641 0.3721
vn -0.4642 0.8041 0.3714
vn -0.9071 0.421 0.004043
vn -0.996 -0.08896 0.00444
vn -0.9281 0 0.3724
vn -0.8038 0.4641 0.3721
vn -0.996 -0.08896 0.00444
vn -0.8181 -0.5751 0.003646
vn -0.8038 -0.4641 0.3721
vn -0.9281 0 0.3724
vn -0.8181 -0.5751 0.003646
vn -0.421 -0.9071 0.001876
vn -0.4642 -0.8041 0.3714
vn -0.8038 -0.4641 0.3721
vn -0.421 -0.9071 0.001876
vn 0.08896 -0.996 -0.0003965
vn -5.33e-06 -0.9289 0.3704
vn -0.4642 -0.8041 0.3714
vn -0.8038 -0.4641 0.3721
vn -0.4642 -0.8041 0.3714
vn -0.197 -0.3413 0.9191
vn -0.3413 -0.197 0.9191
vn -0.9281 0 0.3724
vn -0.8038 -0.4641 0.3721
vn -0.3413 -0.197 0.9191
vn -0.3941 0 0.9191
vn -0.8038 0.4641 0.3721
vn -0.9281 0 0.3724
vn -0.3941 0 0.9191
vn -0.3413 0.197 0.9191
vn -0.4642 0.8041 0.3714
vn -0.8038 0.4641 0.3721
vn -0.3413 0.197 0.9191
vn -0.197 0.3413 0.9191
vn -5.33e-06 0.9289 0.3704
vn -0.4642 0.8041 0.3714
vn -0.197 0.3413 0.9191
vn -5.31e-06 0.394 0.9191
vn 0.4646 0.8048 0.3695
vn -5.33e-06 0.9289 0.3704
vn -5.31e-06 0.394 0.9191
vn 0.197 0.3412 0.9191
vn 0.805 0.4648 0.3688
vn 0.4646 0.8048 0.3695
vn 0.197 0.3412 0.9191
vn 0.3411 0.197 0.9191
vn 0.9296 0 0.3685
vn 0.805 0.4648 0.3688
vn 0.3411 0.197 0.9191
vn 0.3939 0 0.9191
vn 0.805 -0.4648 0.3688
vn 0.9296 0 0.3685
vn 0.3939 0 0.9191
vn 0.3411 -0.197 0.9191
vn 0.4646 -0.8048 0.3695
vn 0.805 -0.4648 0.3688
vn 0.3411 -0.197 0.9191
vn 0.197 -0.3412 0.9191
vn -0.197 -0.3413 0.9191
vn -0.4642 -0.8041 0.3714
vn -5.33e-06 -0.9289 0.3704
vn -5.31e-06 -0.394 0.9191
vn -5.33e-06 -0.9289 0.3704
vn 0.4646 -0.8048 0.3695
vn 0.197 -0.3412 0.9191
vn -5.31e-06 -0.394 0.9191
vn -0.2096 -0.3634 0.9077
vn -0.2096 -0.3634 0.9077
vn -0.3434 -0.2415 0.9076
vn -0.3804 -0.1767 0.9078
vn -0.3804 -0.1767 0.9078
vn -0.3434 -0.2415 0.9076
vn -0.4175 -0.03729 0.9079
vn -0.4175 0.03729 0.9079
vn -0.4175 0.03729 0.9079
vn -0.4175 -0.03729 0.9079
vn -0.3804 0.1767 0.9078
vn -0.3434 0.2415 0.9076
vn -0.3434 0.2415 0.9076
vn -0.3804 0.1767 0.9078
vn -0.2417 0.3442 0.9072
vn -0.1771 0.3821 0.907
vn -0.1771 0.3821 0.907
vn -0.2417 0.3442 0.9072
vn -0.03735 0.4207 0.9064
vn 0.03785 0.4213 0.9061
vn 0.03785 0.4213 0.9061
vn -0.03735 0.4207 0.9064
vn 0.1787 0.3847 0.9056
vn 0.2444 0.3474 0.9053
vn 0.2444 0.3474 0.9053
vn 0.1787 0.3847 0.9056
vn 0.3483 0.2447 0.9049
vn 0.3864 0.1792 0.9048
vn 0.3864 0.1792 0.9048
vn 0.3483 0.2447 0.9049
vn 0.4246 0.03792 0.9046
vn 0.4246 -0.03792 0.9046
vn 0.4246 -0.03792 0.9046
vn 0.4246 0.03792 0.9046
vn 0.3864 -0.1792 0.9048
vn 0.3483 -0.2447 0.9049
vn 0.3483 -0.2447 0.9049
vn 0.3864 -0.1792 0.9048
vn 0.2444 -0.3474 0.9053
vn 0.1787 -0.3847 0.9056
vn 0.000252 -0.4213 0.9069
vn -0.2096 -0.3634 0.9077
vn -0.2096 -0.3634 0.9077
vn 0.000252 -0.4213 0.9069
vn 0.1787 -0.3847 0.9056
vn 0.2444 -0.3474 0.9053
vn 0.000252 -0.4213 0.9069
vn 0.000252 -0.4213 0.9069
vn 0.421 -0.9071 -0.0006474
vn 0 -1 0
vn 0 -1 0
vn 0.5751 -0.8181 -0.0008844
vn 0.8181 -0.5751 -0.001258
vn 0.421 -0.9071 -0.0006474
vn 0.5751 -0.8181 -0.0008844
vn 0.9071 -0.421 -0.001395
vn 0.996 -0.08896 -0.001532
vn 0.8181 -0.5751 -0.001258
vn 0.9071 -0.421 -0.001395
vn 0.996 0.08896 -0.001532
vn 0.9071 0.421 -0.001395
vn 0.996 -0.08896 -0.001532
vn 0.996 0.08896 -0.001532
vn 0.8181 0.5751 -0.001258
vn 0.5751 0.8181 -0.0008844
vn 0.9071 0.421 -0.001395
vn 0.8181 0.5751 -0.001258
vn 0.421 0.9071 -0.0006474
vn 0.08896 0.996 -0.0001368
vn 0.5751 0.8181 -0.0008844
vn 0.421 0.9071 -0.0006474
vn -0.08896 0.996 0.0001368
vn -0.421 0.9071 0.0006474
vn 0.08896 0.996 -0.0001368
vn -0.08896 0.996 0.0001368
vn -0.5751 0.8181 0.0008844
vn -0.8181 0.5751 0.001258
vn -0.421 0.9071 0.0006474
vn -0.5751 0.8181 0.0008844
vn -0.9071 0.421 0.001395
vn -0.996 0.08896 0.001532
vn -0.8181 0.5751 0.001258
vn -0.9071 0.421 0.001395
vn -0.996 -0.08896 0.001532
vn -0.9071 -0.421 0.001395
vn -0.996 0.08896 0.001532
vn -0.996 -0.08896 0.001532
vn -0.8181 -0.5751 0.001258
vn -0.5 -0.866 0.000769
vn -0.9071 -0.421 0.001395
vn -0.8181 -0.5751 0.001258
vn -0.5 -0.866 0.000769
vn 0 -1 0
vn 0 -1 0
vn -0.5 -0.866 0.000769
vn -0.5 -0.866 0.000769
vn 0.007126 -0.1609 0.9869
vn 0.03692 -0.001096 0.9993
vn 0.03095 -0.1577 0.987
vn 0.07688 -0.997 0.003539
vn 0.5 -0.8659 -0.01337
vn 0.5431 -0.8397 -0.004516
vn -0.0893 -0.996 0.003117
vn 0 0 -1
vn 0 0 -1
vn 0 0 -1
vn 0.02158 -0.1435 0.9894
vn 0.03692 -0.001096 0.9993
vn 0.007126 -0.1609 0.9869
vn 0 0 -1
vn 0 0 -1
vn 0 0 -1
vn 0.009538 0.1619 0.9868
vn 0.03692 -0.001096 0.9993
vn 0.02416 0.1408 0.9897
vn 0 0 -1
vn 0 0 -1
vn 0 0 -1
vn 0.03095 0.1574 0.987
vn 0.03692 -0.001096 0.9993
vn 0.009538 0.1619 0.9868
vn 0.4195 0.9077 0.009684
vn -0.08735 0.9961 0.01081
vn 0.08894 0.996 0.0117
vn 0.6087 0.7934 0.005168
vn 0 0 -1
vn 0 0 -1
vn 0 0 -1
vn 0.07092 0.1726 0.9824
vn 0.03692 -0.001096 0.9993
vn 0.03095 0.1574 0.987
vn -0.08735 0.9961 0.01081
vn -0.4355 0.9002 0.003759
vn -0.3465 0.938 0.007018
vn 0.08894 0.996 0.0117
vn 0 0 -1
vn 0 0 -1
vn 0 0 -1
vn 0.0674 0.1192 0.9906
vn 0.03692 -0.001096 0.9993
vn 0.07092 0.1726 0.9824
vn -0.4355 0.9002 0.003759
vn -0.8728 0.4881 0.002241
vn -0.7133 0.7009 0.002135
vn -0.3465 0.938 0.007018
vn 0 0 -1
vn 0 0 -1
vn 0 0 -1
vn 0.03749 -0.007659 0.9993
vn 0.03692 -0.001096 0.9993
vn 0.0674 0.1192 0.9906
vn -0.8728 0.4881 0.002241
vn -0.9962 -0.08682 0.001851
vn -0.9959 0.09039 0.002858
vn -0.7133 0.7009 0.002135
vn 0 0 -1
vn 0 0 -1
vn 0 0 -1
vn 0.06472 -0.1237 0.9902
vn 0.03692 -0.001096 0.9993
vn 0.03749 -0.007659 0.9993
vn -0.9962 -0.08682 0.001851
vn -0.7058 -0.7083 -0.009068
vn -0.8719 -0.4896 -0.001946
vn -0.9959 0.09039 0.002858
vn 0 0 -1
vn 0 0 -1
vn 0 0 -1
vn 0.07017 -0.1696 0.983
vn 0.03692 -0.001096 0.9993
vn 0.06472 -0.1237 0.9902
vn -0.7058 -0.7083 -0.009068
vn -0.332 -0.9433 -0.007144
vn -0.4168 -0.9089 -0.0133
vn -0.8719 -0.4896 -0.001946
vn 0 0 -1
vn 0 0 -1
vn 0 0 -1
vn 0.03095 -0.1577 0.987
vn 0.03692 -0.001096 0.9993
vn 0.07017 -0.1696 0.983
vn -0.332 -0.9433 -0.007144
vn 0.07688 -0.997 0.003539
vn -0.0893 -0.996 0.003117
vn -0.4168 -0.9089 -0.0133
vn 0 0 -1
vn 0 0 -1
vn 0 0 -1
vn 0.6087 0.7934 0.005168
vn 0.9143 0.4043 0.02509
vn 0.8486 0.5234 -0.07729
vn 0.8077 0.5896 0.004259
vn 0.4195 0.9077 0.009684
vn 0.6087 0.7934 0.005168
vn 0.8486 0.5234 -0.07729
vn 0.5431 -0.8397 -0.004516
vn 0.8783 -0.4776 0.02323
vn 0.8651 -0.4986 -0.0548
vn 0.5431 -0.8397 -0.004516
vn 0.5 -0.8659 -0.01337
vn 0.8059 -0.592 -0.005318
vn 0.8783 -0.4776 0.02323
vn 0.02158 -0.1435 0.9894
vn 0.06649 -0.09448 0.9933
vn 0.04132 -0.08768 0.9953
vn 0.02158 -0.1435 0.9894
vn 0.04132 -0.08768 0.9953
vn 0.03692 -0.001096 0.9993
vn 0.03692 -0.001096 0.9993
vn 0.04132 -0.08768 0.9953
vn 0.06017 0.0003683 0.9982
vn -0.003372 1 0.004864
vn -0.003372 1 0.004864
vn -0.003372 1 0.004864
vn 1 3.303e-05 0.009174
vn 1 3.303e-05 0.009174
vn 1 3.303e-05 0.009174
vn 1 0 0.009184
vn 1 0 0.009184
vn 1 0 0.009184
vn 0.9982 0.01905 -0.05764
vn 0.9988 0.01281 -0.04726
vn 0.9982 0.01905 -0.05764
vn 0.9974 0.02529 -0.068
vn 0.9305 -0.3176 -0.1827
vn 0.7868 -0.5784 -0.2156
vn 0.9305 -0.3176 -0.1827
vn 0.9907 -0.02828 -0.1334
vn 0.04435 0.0006164 0.999
vn 0.04415 0 0.999
vn 0.04435 0.0006164 0.999
vn 0.04456 0.001233 0.999
vn 0.05494 0.01816 0.9983
vn -0.0006958 1 0.002105
vn 0.05494 0.01816 0.9983
vn 0.002918 -0.9993 0.03828
vn 0.03692 -0.001096 0.9993
vn 0.06017 0.0003683 0.9982
vn 0.04377 0.08447 0.9955
vn 0.9998 0.01706 0.00914
vn 0.9998 0.01706 0.00914
vn 0.9998 0.01706 0.00914
vn 0.9998 0.0172 0.009185
vn 0.9998 0.0172 0.009185
vn 0.9998 0.0172 0.009185
vn -0.002768 -1 0.002383
vn -0.002768 -1 0.002383
vn -0.002768 -1 0.002383
vn 0 0 -1
vn 0 0 -1
vn 0 0 -1
vn 0 0 -1
vn 0 0 -1
vn 0 0 -1
vn 0 0 -1
vn 0 0 -1
vn 0 0 -1
vn 0 0 -1
vn 0 0 -1
vn 0 0 -1
vn 0 0 -1
vn 0 0 -1
vn 0 0 -1
vn 0 0 -1
vn 0 0 -1
vn 0 0 -1
vn 0 0 -1
vn 0 0 -1
vn 0 0 -1
vn 0 0 -1
vn 0 0 -1
vn 0 0 -1
vn 0.9996 -0.02608 -0.004775
vn 0.9985 -0.01058 -0.05321
vn 0.9996 -0.02608 -0.004775
vn 0.9982 -0.04152 0.04368
vn 0.9953 0.03115 -0.09145
vn 0.9923 0.03671 -0.1181
vn 0.9953 0.03115 -0.09145
vn 0.9976 0.02555 -0.06476
vn 1 0.0005659 -0.003819
vn 0.9999 0.01374 -0.009363
vn 1 0.0005659 -0.003819
vn 0.9999 -0.01261 0.001725
vn 0.9997 0.02337 -0.005273
vn 0.9999 0.01374 -0.001252
vn 0.9997 0.02337 -0.005273
vn 0.9994 0.03299 -0.009294
vn 0 0 -1
vn 0 0 -1
vn 0 0 -1
vn 0 0 -1
vn 0 0 -1
vn 0 0 -1
vn 0.04432 2.789e-05 0.999
vn 0.04408 -0.0007047 0.999
vn 0.04432 2.789e-05 0.999
vn 0.04456 0.0007605 0.999
vn 0.9814 -0.1909 0.01831
vn 0.3714 0.9285 0.003498
vn 0.9814 -0.1909 0.01831
vn -0.00372 -1 0.00336
vn 0.9956 0.01291 -0.09274
vn 0.9933 0.01983 -0.1134
vn 0.9956 0.01291 -0.09274
vn 0.9974 0.005978 -0.07202
vn 0.9549 0.1455 -0.2587
vn 0.9992 -0.01291 0.03797
vn 0.9549 0.1455 -0.2587
vn 0.8008 0.2871 -0.5256
vn 0.8651 -0.4986 -0.0548
vn 0.8757 -0.471 -0.1065
vn 0.943 -0.3328 0.008345
vn 0.8651 -0.4986 -0.0548
vn 0.8783 -0.4776 0.02323
vn 0.914 -0.4044 -0.03255
vn 0.8757 -0.471 -0.1065
vn 0.9969 0.01156 -0.07766
vn 0.9989 0.003666 -0.04653
vn 0.9969 0.01156 -0.07766
vn 0.9939 0.01945 -0.1087
vn 0.9884 0.007569 -0.1517
vn 0.9644 0.03324 -0.2624
vn 0.9884 0.007569 -0.1517
vn 0.9991 -0.01821 -0.03885
vn 0.9999 0.01366 -0.004754
vn 0.9997 0.02197 -0.008255
vn 0.9999 0.01366 -0.004754
vn 1 0.005346 -0.001253
vn 0.9994 0.03313 -0.003498
vn 0.9998 0.02197 0.001269
vn 0.9994 0.03313 -0.003498
vn 0.999 0.04428 -0.008264
vn 0.8783 -0.4776 0.02323
vn 0.9515 -0.3015 0.06107
vn 0.914 -0.4044 -0.03255
vn 0.8783 -0.4776 0.02323
vn 0.8059 -0.592 -0.005318
vn 0.9437 -0.3307 0.0003649
vn 0.9515 -0.3015 0.06107
vn 0.02416 0.1408 0.9897
vn 0.03692 -0.001096 0.9993
vn 0.04377 0.08447 0.9955
vn 0.02416 0.1408 0.9897
vn 0.04377 0.08447 0.9955
vn 0.06696 0.09289 0.9934
vn 0.9143 0.4043 0.02509
vn 0.9489 0.3155 0.009054
vn 0.9625 0.2673 0.04652
vn 0.9313 0.3497 -0.1023
vn 0.8486 0.5234 -0.07729
vn 0.9143 0.4043 0.02509
vn 0.9625 0.2673 0.04652
vn 0.8486 0.5234 -0.07729
vn 0.9313 0.3497 -0.1023
vn 0.8958 0.3987 -0.1966
vn 0.9503 0.3113 0.00276
vn 0.8077 0.5896 0.004259
vn 0.8486 0.5234 -0.07729
vn 0.8958 0.3987 -0.1966
vn 0 0 -1
vn 0 0 -1
vn 0 0 -1
vn 0 0 -1
vn 0 0 -1
vn 0 0 -1
f 38//1 39//2 30//3
f 30//4 39//5 28//6
f 28//7 39//8 23//9
f 23//10 39//11 29//12
f 29//13 39//14 31//15
f 31//16 39//17 40//18
f 40//19 39//20 44//21
f 44//22 39//23 46//24
f 46//25 39//26 51//27
f 51//28 39//29 45//30
f 45//31 39//32 43//33
f 43//34 39//35 38//36
f 36//37 47//38 49//39 41//40
f 47//41 56//42 58//43 49//44
f 56//45 64//46 65//47 58//48
f 64//49 57//50 59//51 65//52
f 57//53 48//54 50//55 59//56
f 48//57 37//58 42//59 50//60
f 37//61 25//62 27//63 42//64
f 25//65 16//66 18//67 27//68
f 16//69 9//70 10//71 18//72
f 9//73 15//74 17//75 10//76
f 15//77 24//78 26//79 17//80
f 24//81 36//82 41//83 26//84
f 17//85 26//86 30//87 28//88
f 10//89 17//90 28//91 23//92
f 18//93 10//94 23//95 29//96
f 27//97 18//98 29//99 31//100
f 42//101 27//102 31//103 40//104
f 50//105 42//106 40//107 44//108
f 59//109 50//110 44//111 46//112
f 65//113 59//114 46//115 51//116
f 58//117 65//118 51//119 45//120
f 49//121 58//122 45//123 43//124
f 30//125 26//126 41//127 38//128
f 41//129 49//130 43//131 38//132
f 21//133 24//134 15//135 13//136
f 13//137 15//138 9//139 8//140
f 8//141 9//142 16//143 14//144
f 14//145 16//146 25//147 22//148
f 22//149 25//150 37//151 35//152
f 35//153 37//154 48//155 55//156
f 55//157 48//158 57//159 63//160
f 63//161 57//162 64//163 67//164
f 67//165 64//166 56//167 62//168
f 62//169 56//170 47//171 54//172
f 36//173 24//174 21//175 34//176
f 54//177 47//178 36//179 34//180
f 54//181 34//182 32//183 52//184
f 62//185 54//186 52//187 60//188
f 67//189 62//190 60//191 66//192
f 63//193 67//194 66//195 61//196
f 55//197 63//198 61//199 53//200
f 35//201 55//202 53//203 33//204
f 22//205 35//206 33//207 20//208
f 14//209 22//210 20//211 12//212
f 8//213 14//214 12//215 7//216
f 13//217 8//218 7//219 11//220
f 21//221 13//222 11//223 19//224
f 32//225 34//226 21//227 19//228
f 89//229 77//230 72//231
f 74//232 87//233 89//234 72//235
f 74//236 75//237 87//238
f 91//239 77//240 89//241
f 87//242 75//243 95//244
f 90//245 77//246 92//247
f 96//248 75//249 88//250
f 73//251 77//252 90//253
f 88//254 76//255 73//256 90//257
f 88//258 75//259 76//260
f 68//261 77//262 73//263
f 76//264 71//265 68//266 73//267
f 76//268 75//269 71//270
f 6//271 77//272 68//273
f 71//274 4//275 6//276 68//277
f 71//278 75//279 4//280
f 2//281 77//282 6//283
f 4//284 1//285 2//286 6//287
f 4//288 75//289 1//290
f 5//291 77//292 2//293
f 1//294 3//295 5//296 2//297
f 1//298 75//299 3//300
f 69//301 77//302 5//303
f 3//304 70//305 69//306 5//307
f 3//308 75//309 70//310
f 72//311 77//312 69//313
f 70//314 74//315 72//316 69//317
f 70//318 75//319 74//320
f 90//321 92//322 94//323
f 96//324 88//325 90//326 94//327
f 89//328 93//329 91//330
f 89//331 87//332 95//333 93//334
f 91//335 107//336 82//337
f 91//338 82//339 77//340
f 77//341 82//342 83//343
f 82//344 107//345 85//346
f 82//347 85//348 83//349
f 83//350 85//351 86//352
f 116//353 118//354 114//355 109//356
f 118//357 117//358 108//359 114//360
f 86//361 85//362 118//363 116//364
f 85//365 107//366 117//367 118//368
f 77//369 83//370 79//371
f 83//372 86//373 84//374
f 83//375 84//376 79//377
f 79//378 84//379 97//380
f 75//381 78//382 80//383
f 78//384 99//385 100//386
f 78//387 100//388 80//389
f 80//390 100//391 102//392
f 75//393 80//394 81//395
f 80//396 102//397 106//398
f 80//399 106//400 81//401
f 81//402 106//403 112//404
f 110//405 113//406 114//407 108//408
f 113//409 103//410 109//411 114//412
f 112//413 106//414 113//415 110//416
f 106//417 102//418 103//419 113//420
f 95//421 75//422 81//423
f 95//424 81//425 112//426
f 116//427 115//428 84//429 86//430
f 115//431 104//432 97//433 84//434
f 109//435 105//436 115//437 116//438
f 105//439 111//440 104//441 115//442
f 91//443 117//444 107//445
f 91//446 93//447 108//448 117//449
f 103//450 101//451 105//452 109//453
f 101//454 98//455 111//456 105//457
f 102//458 100//459 101//460 103//461
f 100//462 99//463 98//464 101//465
f 93//466 110//467 108//468
f 93//469 95//470 112//471 110//472
f 92//473 77//474 79//475
f 92//476 79//477 97//478
f 92//479 97//480 104//481
f 111//482 94//483 92//484 104//485
f 94//486 111//487 98//488
f 99//489 96//490 94//491 98//492
f 96//493 99//494 78//495
f 96//496 78//497 75//498
