# Rhino

g ______73
o object_1
v 1.789 1.778 2.208
v 1.789 3.245 2.208
v 1.803 1.778 2.409
v 1.803 3.245 2.409
v 1.832 1.778 2.011
v 1.832 3.245 2.011
v 1.874 1.778 2.598
v 1.874 3.245 2.598
v 1.928 1.778 1.835
v 1.928 3.245 1.835
v 1.994 1.778 2.759
v 1.994 3.245 2.759
v 2.071 1.778 1.692
v 2.071 3.245 1.692
v 2.155 1.778 2.879
v 2.155 3.245 2.879
v 2.247 1.778 1.596
v 2.247 3.245 1.596
v 2.344 1.778 2.95
v 2.344 3.245 2.95
v 2.444 1.778 1.553
v 2.444 3.245 1.553
v 2.545 1.778 2.964
v 2.545 3.245 2.964
v 2.645 1.778 1.568
v 2.645 3.245 1.568
v 2.742 1.778 2.921
v 2.742 3.245 2.921
v 2.833 1.778 1.638
v 2.833 3.245 1.638
v 2.918 1.778 2.825
v 2.918 3.245 2.825
v 2.994 1.778 1.759
v 2.994 3.245 1.759
v 3.061 1.778 2.682
v 3.061 3.245 2.682
v 3.115 1.778 1.92
v 3.115 3.245 1.92
v 3.157 1.778 2.506
v 3.157 3.245 2.506
v 3.185 1.778 2.108
v 3.185 3.245 2.108
v 3.2 1.778 2.309
v 3.2 3.245 2.309
vn 0.7071 0 -0.7071
vn 0.7071 0 -0.7071
vn 0.8777 0 -0.4792
vn 0.8777 0 -0.4792
vn 0.9771 0 -0.2126
vn 0.9771 0 -0.2126
vn 0.9975 0 0.07134
vn 0.9975 0 0.07134
vn 0.9369 0 0.3495
vn 0.9369 0 0.3495
vn 0.8005 0 0.5993
vn 0.8005 0 0.5993
vn 0.5993 0 0.8005
vn 0.5993 0 0.8005
vn 0.3495 0 0.9369
vn 0.3495 0 0.9369
vn 0.07134 0 0.9975
vn 0.07134 0 0.9975
vn -0.2126 0 0.9771
vn -0.2126 0 0.9771
vn -0.4792 0 0.8777
vn -0.4792 0 0.8777
vn -0.7071 0 0.7071
vn -0.7071 0 0.7071
vn -0.8777 0 0.4792
vn -0.8777 0 0.4792
vn -0.9771 0 0.2126
vn -0.9771 0 0.2126
vn -0.9975 0 -0.07134
vn -0.9975 0 -0.07134
vn -0.9369 0 -0.3495
vn -0.9369 0 -0.3495
vn -0.8005 0 -0.5993
vn -0.8005 0 -0.5993
vn -0.5993 0 -0.8005
vn -0.5993 0 -0.8005
vn -0.3495 0 -0.9369
vn -0.3495 0 -0.9369
vn -0.07134 0 -0.9975
vn -0.07134 0 -0.9975
vn 0.2126 0 -0.9771
vn 0.2126 0 -0.9771
vn 0.4792 0 -0.8777
vn 0.4792 0 -0.8777
vn 0.7071 0 -0.7071
vn 0.7071 0 -0.7071
vn 0 1 0
vn 0 1 0
vn 0 1 0
vn 0 1 0
vn 0 1 0
vn 0 1 0
vn 0 1 0
vn 0 1 0
vn 0 1 0
vn 0 1 0
vn 0 1 0
vn 0 1 0
vn 0 1 0
vn 0 1 0
vn 0 1 0
vn 0 1 0
vn 0 1 0
vn 0 1 0
vn 0 1 0
vn 0 1 0
vn 0 1 0
vn 0 1 0
vn 0 -1 0
vn 0 -1 0
vn 0 -1 0
vn 0 -1 0
vn 0 -1 0
vn 0 -1 0
vn 0 -1 0
vn 0 -1 0
vn 0 -1 0
vn 0 -1 0
vn 0 -1 0
vn 0 -1 0
vn 0 -1 0
vn 0 -1 0
vn 0 -1 0
vn 0 -1 0
vn 0 -1 0
vn 0 -1 0
vn 0 -1 0
vn 0 -1 0
vn 0 -1 0
vn 0 -1 0
f 34//1 38//3 37//4 33//2
f 38//3 42//5 41//6 37//4
f 42//5 44//7 43//8 41//6
f 44//7 40//9 39//10 43//8
f 40//9 36//11 35//12 39//10
f 36//11 32//13 31//14 35//12
f 32//13 28//15 27//16 31//14
f 28//15 24//17 23//18 27//16
f 24//17 20//19 19//20 23//18
f 20//19 16//21 15//22 19//20
f 16//21 12//23 11//24 15//22
f 12//23 8//25 7//26 11//24
f 8//25 4//27 3//28 7//26
f 4//27 2//29 1//30 3//28
f 2//29 6//31 5//32 1//30
f 6//31 10//33 9//34 5//32
f 10//33 14//35 13//36 9//34
f 14//35 18//37 17//38 13//36
f 18//37 22//39 21//40 17//38
f 22//39 26//41 25//42 21//40
f 26//41 30//43 29//44 25//42
f 30//43 34//45 33//46 29//44
f 2//61 4//60 8//59
f 10//63 6//62 2//61
f 16//57 2//61 8//59
f 10//63 2//61 16//57
f 20//56 28//54 16//57
f 8//59 12//58 16//57
f 24//55 28//54 20//56
f 28//54 36//52 16//57
f 32//53 36//52 28//54
f 10//63 16//57 36//52
f 18//65 10//63 22//66
f 30//68 26//67 22//66
f 22//66 10//63 30//68
f 10//63 38//48 30//68
f 40//51 44//50 36//52
f 38//48 36//52 44//50
f 42//49 38//48 44//50
f 36//52 38//48 10//63
f 38//48 34//47 30//68
f 14//64 10//63 18//65
f 1//83 7//81 3//82
f 9//85 1//83 5//84
f 15//79 7//81 1//83
f 9//85 15//79 1//83
f 19//78 15//79 27//76
f 7//81 15//79 11//80
f 23//77 19//78 27//76
f 27//76 15//79 35//74
f 31//75 27//76 35//74
f 9//85 35//74 15//79
f 17//87 21//88 9//85
f 29//90 21//88 25//89
f 21//88 29//90 9//85
f 9//85 29//90 37//70
f 39//73 35//74 43//72
f 37//70 43//72 35//74
f 41//71 43//72 37//70
f 35//74 9//85 37//70
f 37//70 29//90 33//69
f 13//86 17//87 9//85
o object_2
v 1.86 1.71 2.21
v 1.86 3.311 2.21
v 1.872 1.71 2.391
v 1.872 3.311 2.391
v 1.898 1.71 2.033
v 1.898 3.311 2.033
v 1.936 1.71 2.561
v 1.936 3.311 2.561
v 1.985 1.71 1.874
v 1.985 3.311 1.874
v 2.044 1.71 2.706
v 2.044 3.311 2.706
v 2.113 1.71 1.746
v 2.113 3.311 1.746
v 2.189 1.71 2.814
v 2.189 3.311 2.814
v 2.272 1.71 1.659
v 2.272 3.311 1.659
v 2.359 1.71 2.878
v 2.359 3.311 2.878
v 2.449 1.71 1.621
v 2.449 3.311 1.621
v 2.54 1.71 2.89
v 2.54 3.311 2.89
v 2.63 1.71 1.634
v 2.63 3.311 1.634
v 2.717 1.71 2.852
v 2.717 3.311 2.852
v 2.8 1.71 1.697
v 2.8 3.311 1.697
v 2.876 1.71 2.765
v 2.876 3.311 2.765
v 2.945 1.71 1.806
v 2.945 3.311 1.806
v 3.004 1.71 2.637
v 3.004 3.311 2.637
v 3.053 1.71 1.951
v 3.053 3.311 1.951
v 3.091 1.71 2.478
v 3.091 3.311 2.478
v 3.116 1.71 2.12
v 3.116 3.311 2.12
v 3.129 1.71 2.301
v 3.129 3.311 2.301
vn 0.7071 0 -0.7071
vn 0.7071 0 -0.7071
vn 0.8777 0 -0.4792
vn 0.8777 0 -0.4792
vn 0.9771 0 -0.2126
vn 0.9771 0 -0.2126
vn 0.9975 0 0.07134
vn 0.9975 0 0.07134
vn 0.9369 0 0.3495
vn 0.9369 0 0.3495
vn 0.8005 0 0.5993
vn 0.8005 0 0.5993
vn 0.5993 0 0.8005
vn 0.5993 0 0.8005
vn 0.3495 0 0.9369
vn 0.3495 0 0.9369
vn 0.07134 0 0.9975
vn 0.07134 0 0.9975
vn -0.2126 0 0.9771
vn -0.2126 0 0.9771
vn -0.4792 0 0.8777
vn -0.4792 0 0.8777
vn -0.7071 0 0.7071
vn -0.7071 0 0.7071
vn -0.8777 0 0.4792
vn -0.8777 0 0.4792
vn -0.9771 0 0.2126
vn -0.9771 0 0.2126
vn -0.9975 0 -0.07134
vn -0.9975 0 -0.07134
vn -0.9369 0 -0.3495
vn -0.9369 0 -0.3495
vn -0.8005 0 -0.5993
vn -0.8005 0 -0.5993
vn -0.5993 0 -0.8005
vn -0.5993 0 -0.8005
vn -0.3495 0 -0.9369
vn -0.3495 0 -0.9369
vn -0.07134 0 -0.9975
vn -0.07134 0 -0.9975
vn 0.2126 0 -0.9771
vn 0.2126 0 -0.9771
vn 0.4792 0 -0.8777
vn 0.4792 0 -0.8777
vn 0.7071 0 -0.7071
vn 0.7071 0 -0.7071
vn 0 1 0
vn 0 1 0
vn 0 1 0
vn 0 1 0
vn 0 1 0
vn 0 1 0
vn 0 1 0
vn 0 1 0
vn 0 1 0
vn 0 1 0
vn 0 1 0
vn 0 1 0
vn 0 1 0
vn 0 1 0
vn 0 1 0
vn 0 1 0
vn 0 1 0
vn 0 1 0
vn 0 1 0
vn 0 1 0
vn 0 1 0
vn 0 1 0
vn 0 -1 0
vn 0 -1 0
vn 0 -1 0
vn 0 -1 0
vn 0 -1 0
vn 0 -1 0
vn 0 -1 0
vn 0 -1 0
vn 0 -1 0
vn 0 -1 0
vn 0 -1 0
vn 0 -1 0
vn 0 -1 0
vn 0 -1 0
vn 0 -1 0
vn 0 -1 0
vn 0 -1 0
vn 0 -1 0
vn 0 -1 0
vn 0 -1 0
vn 0 -1 0
vn 0 -1 0
f 78//91 82//93 81//94 77//92
f 82//93 86//95 85//96 81//94
f 86//95 88//97 87//98 85//96
f 88//97 84//99 83//100 87//98
f 84//99 80//101 79//102 83//100
f 80//101 76//103 75//104 79//102
f 76//103 72//105 71//106 75//104
f 72//105 68//107 67//108 71//106
f 68//107 64//109 63//110 67//108
f 64//109 60//111 59//112 63//110
f 60//111 56//113 55//114 59//112
f 56//113 52//115 51//116 55//114
f 52//115 48//117 47//118 51//116
f 48//117 46//119 45//120 47//118
f 46//119 50//121 49//122 45//120
f 50//121 54//123 53//124 49//122
f 54//123 58//125 57//126 53//124
f 58//125 62//127 61//128 57//126
f 62//127 66//129 65//130 61//128
f 66//129 70//131 69//132 65//130
f 70//131 74//133 73//134 69//132
f 74//133 78//135 77//136 73//134
f 46//151 48//150 52//149
f 46//151 72//144 84//141
f 52//149 64//146 46//151
f 66//156 50//152 46//151
f 60//147 64//146 56//148
f 64//146 52//149 56//148
f 68//145 72//144 64//146
f 64//146 72//144 46//151
f 76//143 84//141 72//144
f 58//154 54//153 50//152
f 50//152 66//156 62//155
f 70//157 66//156 78//137
f 46//151 84//141 66//156
f 78//137 74//158 70//157
f 88//140 78//137 84//141
f 84//141 76//143 80//142
f 86//139 82//138 88//140
f 78//137 88//140 82//138
f 84//141 78//137 66//156
f 62//155 58//154 50//152
f 45//173 51//171 47//172
f 45//173 83//163 71//166
f 51//171 45//173 63//168
f 65//178 45//173 49//174
f 59//169 55//170 63//168
f 63//168 55//170 51//171
f 67//167 63//168 71//166
f 63//168 45//173 71//166
f 75//165 71//166 83//163
f 57//176 49//174 53//175
f 49//174 61//177 65//178
f 69//179 77//159 65//178
f 45//173 65//178 83//163
f 77//159 69//179 73//180
f 87//162 83//163 77//159
f 83//163 79//164 75//165
f 85//161 87//162 81//160
f 77//159 81//160 87//162
f 83//163 65//178 77//159
f 61//177 49//174 57//176
o object_3
v 1.788 2.562 1.364
v 1.788 2.562 2.223
v 1.802 2.361 1.364
v 1.802 2.361 2.223
v 1.831 2.759 1.364
v 1.831 2.759 2.223
v 1.873 2.173 1.364
v 1.873 2.173 2.223
v 1.927 2.936 1.364
v 1.927 2.936 2.223
v 1.993 2.012 1.364
v 1.993 2.012 2.223
v 2.07 3.078 1.364
v 2.07 3.078 2.223
v 2.155 1.891 1.364
v 2.155 1.891 2.223
v 2.246 3.174 1.364
v 2.246 3.174 2.223
v 2.343 1.821 1.364
v 2.343 1.821 2.223
v 2.443 3.217 1.364
v 2.443 3.217 2.223
v 2.544 1.806 1.364
v 2.544 1.806 2.223
v 2.644 3.203 1.364
v 2.644 3.203 2.223
v 2.741 1.849 1.364
v 2.741 1.849 2.223
v 2.832 3.132 1.364
v 2.832 3.132 2.223
v 2.917 1.945 1.364
v 2.917 1.945 2.223
v 2.994 3.012 1.364
v 2.994 3.012 2.223
v 3.06 2.088 1.364
v 3.06 2.088 2.223
v 3.114 2.851 1.364
v 3.114 2.851 2.223
v 3.156 2.265 1.364
v 3.156 2.265 2.223
v 3.185 2.662 1.364
v 3.185 2.662 2.223
v 3.199 2.461 1.364
v 3.199 2.461 2.223
vn 0.7071 0.7071 0
vn 0.7071 0.7071 0
vn 0.8777 0.4792 0
vn 0.8777 0.4792 0
vn 0.9771 0.2126 0
vn 0.9771 0.2126 0
vn 0.9975 -0.07134 0
vn 0.9975 -0.07134 0
vn 0.9369 -0.3495 0
vn 0.9369 -0.3495 0
vn 0.8005 -0.5993 0
vn 0.8005 -0.5993 0
vn 0.5993 -0.8005 0
vn 0.5993 -0.8005 0
vn 0.3495 -0.9369 0
vn 0.3495 -0.9369 0
vn 0.07134 -0.9975 0
vn 0.07134 -0.9975 0
vn -0.2126 -0.9771 0
vn -0.2126 -0.9771 0
vn -0.4792 -0.8777 0
vn -0.4792 -0.8777 0
vn -0.7071 -0.7071 0
vn -0.7071 -0.7071 0
vn -0.8777 -0.4792 0
vn -0.8777 -0.4792 0
vn -0.9771 -0.2126 0
vn -0.9771 -0.2126 0
vn -0.9975 0.07134 0
vn -0.9975 0.07134 0
vn -0.9369 0.3495 0
vn -0.9369 0.3495 0
vn -0.8005 0.5993 0
vn -0.8005 0.5993 0
vn -0.5993 0.8005 0
vn -0.5993 0.8005 0
vn -0.3495 0.9369 0
vn -0.3495 0.9369 0
vn -0.07134 0.9975 0
vn -0.07134 0.9975 0
vn 0.2126 0.9771 0
vn 0.2126 0.9771 0
vn 0.4792 0.8777 0
vn 0.4792 0.8777 0
vn 0.7071 0.7071 0
vn 0.7071 0.7071 0
vn 0 0 1
vn 0 0 1
vn 0 0 1
vn 0 0 1
vn 0 0 1
vn 0 0 1
vn 0 0 1
vn 0 0 1
vn 0 0 1
vn 0 0 1
vn 0 0 1
vn 0 0 1
vn 0 0 1
vn 0 0 1
vn 0 0 1
vn 0 0 1
vn 0 0 1
vn 0 0 1
vn 0 0 1
vn 0 0 1
vn 0 0 1
vn 0 0 1
vn 0 0 -1
vn 0 0 -1
vn 0 0 -1
vn 0 0 -1
vn 0 0 -1
vn 0 0 -1
vn 0 0 -1
vn 0 0 -1
vn 0 0 -1
vn 0 0 -1
vn 0 0 -1
vn 0 0 -1
vn 0 0 -1
vn 0 0 -1
vn 0 0 -1
vn 0 0 -1
vn 0 0 -1
vn 0 0 -1
vn 0 0 -1
vn 0 0 -1
vn 0 0 -1
vn 0 0 -1
f 122//181 126//183 125//184 121//182
f 126//183 130//185 129//186 125//184
f 130//185 132//187 131//188 129//186
f 132//187 128//189 127//190 131//188
f 128//189 124//191 123//192 127//190
f 124//191 120//193 119//194 123//192
f 120//193 116//195 115//196 119//194
f 116//195 112//197 111//198 115//196
f 112//197 108//199 107//200 111//198
f 108//199 104//201 103//202 107//200
f 104//201 100//203 99//204 103//202
f 100//203 96//205 95//206 99//204
f 96//205 92//207 91//208 95//206
f 92//207 90//209 89//210 91//208
f 90//209 94//211 93//212 89//210
f 94//211 98//213 97//214 93//212
f 98//213 102//215 101//216 97//214
f 102//215 106//217 105//218 101//216
f 106//217 110//219 109//220 105//218
f 110//219 114//221 113//222 109//220
f 114//221 118//223 117//224 113//222
f 118//223 122//225 121//226 117//224
f 92//240 96//239 104//237
f 98//243 94//242 90//241
f 104//237 90//241 92//240
f 90//241 104//237 98//243
f 116//234 124//232 108//236
f 96//239 100//238 104//237
f 112//235 116//234 108//236
f 124//232 116//234 120//233
f 104//237 108//236 124//232
f 124//232 98//243 104//237
f 110//246 106//245 102//244
f 124//232 114//247 98//243
f 114//247 110//246 98//243
f 118//248 114//247 126//228
f 128//231 132//230 124//232
f 126//228 124//232 132//230
f 130//229 126//228 132//230
f 126//228 114//247 124//232
f 126//228 122//227 118//248
f 102//244 98//243 110//246
f 91//262 103//259 95//261
f 97//265 89//263 93//264
f 103//259 91//262 89//263
f 89//263 97//265 103//259
f 115//256 107//258 123//254
f 95//261 103//259 99//260
f 111//257 107//258 115//256
f 123//254 119//255 115//256
f 103//259 123//254 107//258
f 123//254 103//259 97//265
f 109//268 101//266 105//267
f 123//254 97//265 113//269
f 113//269 97//265 109//268
f 117//270 125//250 113//269
f 127//253 123//254 131//252
f 125//250 131//252 123//254
f 129//251 131//252 125//250
f 125//250 123//254 113//269
f 125//250 117//270 121//249
f 101//266 109//268 97//265
g ______62
o object_4
v 2.29 3.094 2.928
v 2.29 3.094 3.05
v 2.29 3.188 2.928
v 2.29 3.188 3.05
v 2.359 3.094 2.928
v 2.359 3.094 3.05
v 2.359 3.188 2.928
v 2.359 3.188 3.05
vn 0 0 1
vn 0 0 1
vn 0 0 1
vn 0 0 1
vn 1 0 0
vn 1 0 0
vn 1 0 0
vn 1 0 0
vn 0 0 -1
vn 0 0 -1
vn 0 0 -1
vn 0 0 -1
vn -1 0 0
vn -1 0 0
vn -1 0 0
vn -1 0 0
vn 0 -1 0
vn 0 -1 0
vn 0 -1 0
vn 0 -1 0
vn 0 1 0
vn 0 1 0
vn 0 1 0
vn 0 1 0
f 134//271 138//273 140//274 136//272
f 138//275 137//277 139//278 140//276
f 137//279 133//281 135//282 139//280
f 133//283 134//285 136//286 135//284
f 138//288 134//287 133//290
f 133//290 137//289 138//288
f 140//292 135//294 136//291
f 135//294 140//292 139//293
o object_5
v 2.637 3.094 2.928
v 2.637 3.094 3.05
v 2.637 3.188 2.928
v 2.637 3.188 3.05
v 2.706 3.094 2.928
v 2.706 3.094 3.05
v 2.706 3.188 2.928
v 2.706 3.188 3.05
vn 0 0 1
vn 0 0 1
vn 0 0 1
vn 0 0 1
vn 1 0 0
vn 1 0 0
vn 1 0 0
vn 1 0 0
vn 0 0 -1
vn 0 0 -1
vn 0 0 -1
vn 0 0 -1
vn -1 0 0
vn -1 0 0
vn -1 0 0
vn -1 0 0
vn 0 -1 0
vn 0 -1 0
vn 0 -1 0
vn 0 -1 0
vn 0 1 0
vn 0 1 0
vn 0 1 0
vn 0 1 0
f 142//295 146//297 148//298 144//296
f 146//299 145//301 147//302 148//300
f 145//303 141//305 143//306 147//304
f 141//307 142//309 144//310 143//308
f 146//312 142//311 141//314
f 141//314 145//313 146//312
f 148//316 143//318 144//315
f 143//318 148//316 147//317
o object_6
v 2.34 3.122 3.001
v 2.34 3.122 3.039
v 2.34 3.162 3.001
v 2.34 3.162 3.039
v 2.654 3.122 3.001
v 2.654 3.122 3.039
v 2.654 3.162 3.001
v 2.654 3.162 3.039
vn 0 0 1
vn 0 0 1
vn 0 0 1
vn 0 0 1
vn 1 0 0
vn 1 0 0
vn 1 0 0
vn 1 0 0
vn 0 0 -1
vn 0 0 -1
vn 0 0 -1
vn 0 0 -1
vn -1 0 0
vn -1 0 0
vn -1 0 0
vn -1 0 0
vn 0 -1 0
vn 0 -1 0
vn 0 -1 0
vn 0 -1 0
vn 0 1 0
vn 0 1 0
vn 0 1 0
vn 0 1 0
f 150//319 154//321 156//322 152//320
f 154//323 153//325 155//326 156//324
f 153//327 149//329 151//330 155//328
f 149//331 150//333 152//334 151//332
f 154//336 150//335 149//338
f 149//338 153//337 154//336
f 156//340 151//342 152//339
f 151//342 156//340 155//341
g ______48
o object_7
v 2.34 1.864 3.001
v 2.34 1.864 3.039
v 2.34 1.904 3.001
v 2.34 1.904 3.039
v 2.654 1.864 3.001
v 2.654 1.864 3.039
v 2.654 1.904 3.001
v 2.654 1.904 3.039
vn 0 0 1
vn 0 0 1
vn 0 0 1
vn 0 0 1
vn 1 0 0
vn 1 0 0
vn 1 0 0
vn 1 0 0
vn 0 0 -1
vn 0 0 -1
vn 0 0 -1
vn 0 0 -1
vn -1 0 0
vn -1 0 0
vn -1 0 0
vn -1 0 0
vn 0 -1 0
vn 0 -1 0
vn 0 -1 0
vn 0 -1 0
vn 0 1 0
vn 0 1 0
vn 0 1 0
vn 0 1 0
f 158//343 162//345 164//346 160//344
f 162//347 161//349 163//350 164//348
f 161//351 157//353 159//354 163//352
f 157//355 158//357 160//358 159//356
f 162//360 158//359 157//362
f 157//362 161//361 162//360
f 164//364 159//366 160//363
f 159//366 164//364 163//365
o object_8
v 2.637 1.836 2.928
v 2.637 1.836 3.05
v 2.637 1.93 2.928
v 2.637 1.93 3.05
v 2.706 1.836 2.928
v 2.706 1.836 3.05
v 2.706 1.93 2.928
v 2.706 1.93 3.05
vn 0 0 1
vn 0 0 1
vn 0 0 1
vn 0 0 1
vn 1 0 0
vn 1 0 0
vn 1 0 0
vn 1 0 0
vn 0 0 -1
vn 0 0 -1
vn 0 0 -1
vn 0 0 -1
vn -1 0 0
vn -1 0 0
vn -1 0 0
vn -1 0 0
vn 0 -1 0
vn 0 -1 0
vn 0 -1 0
vn 0 -1 0
vn 0 1 0
vn 0 1 0
vn 0 1 0
vn 0 1 0
f 166//367 170//369 172//370 168//368
f 170//371 169//373 171//374 172//372
f 169//375 165//377 167//378 171//376
f 165//379 166//381 168//382 167//380
f 170//384 166//383 165//386
f 165//386 169//385 170//384
f 172//388 167//390 168//387
f 167//390 172//388 171//389
o object_9
v 2.29 1.836 2.928
v 2.29 1.836 3.05
v 2.29 1.93 2.928
v 2.29 1.93 3.05
v 2.359 1.836 2.928
v 2.359 1.836 3.05
v 2.359 1.93 2.928
v 2.359 1.93 3.05
vn 0 0 1
vn 0 0 1
vn 0 0 1
vn 0 0 1
vn 1 0 0
vn 1 0 0
vn 1 0 0
vn 1 0 0
vn 0 0 -1
vn 0 0 -1
vn 0 0 -1
vn 0 0 -1
vn -1 0 0
vn -1 0 0
vn -1 0 0
vn -1 0 0
vn 0 -1 0
vn 0 -1 0
vn 0 -1 0
vn 0 -1 0
vn 0 1 0
vn 0 1 0
vn 0 1 0
vn 0 1 0
f 174//391 178//393 180//394 176//392
f 178//395 177//397 179//398 180//396
f 177//399 173//401 175//402 179//400
f 173//403 174//405 176//406 175//404
f 178//408 174//407 173//410
f 173//410 177//409 178//408
f 180//412 175//414 176//411
f 175//414 180//412 179//413
