# Rhino

o object_1
v -4.683528900146484 -0.4000000059604645 1.203760027885437
v -4.683528900146484 0.4000000059604645 1.203760027885437
v -1.542371988296509 -0.4000000059604645 1.497895002365112
v -1.542371988296509 -0.4000000059604645 1.497895002365112
v -1.542371988296509 0.4000000059604645 1.497895002365112
v -1.542371988296509 0.4000000059604645 1.497895002365112
v -0.9039570093154907 -0.4000000059604645 1.692201018333435
v -0.9039570093154907 0.4000000059604645 1.692201018333435
v -0.3586539924144745 -0.4000000059604645 2.076873064041138
v -0.3586539924144745 -0.4000000059604645 2.076873064041138
v -0.3586539924144745 0.4000000059604645 2.076873064041138
v -0.3586539924144745 0.4000000059604645 2.076873064041138
v -0.02056900039315224 -0.4000000059604645 2.404407978057861
v -0.02056900039315224 0.4000000059604645 2.404407978057861
v 0.4347519874572754 -0.4000000059604645 2.523835897445679
v 0.4347519874572754 -0.4000000059604645 2.523835897445679
v 0.4347519874572754 0.4000000059604645 2.523835897445679
v 4.680026054382324 -0.4000000059604645 2.523835897445679
v 0.4347519874572754 0.4000000059604645 2.523835897445679
v -0.3586539924144745 0.4000000059604645 2.076873064041138
v 0.4347519874572754 0.4000000059604645 2.523835897445679
v -0.02056900039315224 0.4000000059604645 2.404407978057861
v 4.680026054382324 0.4000000059604645 2.523835897445679
v 4.680026054382324 0.4000000059604645 2.523835897445679
v 0.4347519874572754 5.400000095367432 2.523835897445679
v -0.3586539924144745 5.400000095367432 2.076873064041138
v -0.02056900039315224 5.400000095367432 2.404407978057861
v 4.680026054382324 5.400000095367432 2.523835897445679
v 4.680026054382324 5.400000095367432 2.523835897445679
v 4.680026054382324 4.599999904632568 2.523835897445679
v 0.4347519874572754 5.400000095367432 2.523835897445679
v 0.4347519874572754 5.400000095367432 2.523835897445679
v 0.4347519874572754 4.599999904632568 2.523835897445679
v 0.4347519874572754 4.599999904632568 2.523835897445679
v -0.02056900039315224 5.400000095367432 2.404407978057861
v -0.02056900039315224 4.599999904632568 2.404407978057861
v -0.3586539924144745 5.400000095367432 2.076873064041138
v -0.3586539924144745 5.400000095367432 2.076873064041138
v -0.3586539924144745 4.599999904632568 2.076873064041138
v -0.3586539924144745 4.599999904632568 2.076873064041138
v -0.9039570093154907 5.400000095367432 1.692201018333435
v -0.9039570093154907 4.599999904632568 1.692201018333435
v -1.542371988296509 5.400000095367432 1.497895002365112
v -1.542371988296509 5.400000095367432 1.497895002365112
v -1.542371988296509 4.599999904632568 1.497895002365112
v -4.683528900146484 5.400000095367432 1.203760027885437
v -1.542371988296509 4.599999904632568 1.497895002365112
v -4.683528900146484 4.599999904632568 1.203760027885437
v 4.680026054382324 0.4000000059604645 0.5
v 4.680026054382324 0 0.5
v 5 0 0.5
v 4.680026054382324 0 0.5
v 4.680026054382324 5 0.5
v 5 5 0.5
v 4.680026054382324 4.599999904632568 0.5
v 4.680026054382324 4.599999904632568 2.523835897445679
v 4.680026054382324 5.400000095367432 2.523835897445679
v 4.680026054382324 4.599999904632568 0.5
v 0.4347519874572754 4.599999904632568 2.523835897445679
v 4.680026054382324 4.599999904632568 2.523835897445679
v -0.02056900039315224 4.599999904632568 2.404407978057861
v -0.3586539924144745 4.599999904632568 2.076873064041138
v -0.9039570093154907 4.599999904632568 1.692201018333435
v -1.542371988296509 4.599999904632568 1.497895002365112
v -4.683528900146484 4.599999904632568 1.203760027885437
v 4.680026054382324 4.599999904632568 0.5
v 4.680026054382324 5 0.5
v -4.683528900146484 4.599999904632568 1.203760027885437
v -4.683528900146484 4.599999904632568 0.5
v -4.683528900146484 5.400000095367432 1.203760027885437
v -4.683528900146484 4.599999904632568 0.5
v -4.683528900146484 5.400000095367432 0.5
v -4.683528900146484 5.400000095367432 1.203760027885437
v -4.683528900146484 5.400000095367432 0.5
v -4.339873790740967 5.400000095367432 0.5
v -4.919045925140381 6.012714862823486 0.5
v -4.683528900146484 5.400000095367432 0.5
v -4.683528900146484 4.599999904632568 0.5
v -4.339873790740967 5.400000095367432 0.5
v -4.339873790740967 5.506358146667481 0.5
v -5.9860520362854 6.012714862823486 0.5
v -5.9860520362854 5 0.5
v -4.919045925140381 -1.012714982032776 0.5
v -5.9860520362854 -1.012714982032776 0.5
v -4.339873790740967 -0.4000000059604645 0.5
v -4.683528900146484 -0.4000000059604645 1.203760027885437
v -4.683528900146484 -0.4000000059604645 0.5
v -4.683528900146484 0.4000000059604645 1.203760027885437
v -4.683528900146484 -0.4000000059604645 1.203760027885437
v -4.683528900146484 -0.4000000059604645 0.5
v -4.339873790740967 -0.5063580274581909 0.5
v -4.683528900146484 -0.4000000059604645 0.5
v -4.339873790740967 -0.4000000059604645 0.5
v -4.683528900146484 0.4000000059604645 0.5
v -1.542371988296509 0.4000000059604645 1.497895002365112
v -4.683528900146484 0.4000000059604645 1.203760027885437
v -0.9039570093154907 0.4000000059604645 1.692201018333435
v 4.680026054382324 0.4000000059604645 0.5
v -4.683528900146484 0.4000000059604645 0.5
v 4.102687835693359 4 0.5
v 4.102687835693359 1 0.5
v 4.680026054382324 0.4000000059604645 0.5
v -8.05825138092041 1 0.5
v -9 0 0.5
v -5.9860520362854 0 0.5
v -4.683528900146484 0.4000000059604645 0.5
v -8.05825138092041 4 0.5
v -9 5 0.5
v -9 5 0.5
v -9 5 0
v -5.9860520362854 5 0.5
v -5.9860520362854 5 0.5
v -5.9860520362854 5 0
v -5.9860520362854 6.012714862823486 0.5
v -5.9860520362854 5 0
v -5.9860520362854 6.012714862823486 0.5
v -5.9860520362854 6.012714862823486 0
v -4.919045925140381 6.012714862823486 0.5
v -5.9860520362854 6.012714862823486 0
v -4.919045925140381 6.012714862823486 0.5
v -4.919045925140381 6.012714862823486 0
v -4.339873790740967 5.506358146667481 0.5
v -4.919045925140381 6.012714862823486 0
v -4.919045925140381 6.012714862823486 0
v -5.9860520362854 6.012714862823486 0
v -4.339873790740967 5.506358146667481 0
v -4.339873790740967 5.506358146667481 0
v -4.339873790740967 5.400000095367432 0
v -0.9039570093154907 5.400000095367432 1.692201018333435
v -1.542371988296509 5.400000095367432 1.497895002365112
v -4.339873790740967 5.506358146667481 0.5
v -4.339873790740967 5.400000095367432 0
v -4.339873790740967 5.400000095367432 0.5
v -4.339873790740967 5.506358146667481 0
v 4.680026054382324 5.400000095367432 0
v 4.680026054382324 5 0
v 4.680026054382324 5.400000095367432 0
v 5 5 0.5
v 5 5 0
v 5 0 0.5
v 4.680026054382324 5 0.5
v 5 5 0
v 5 5 0.5
v 4.680026054382324 5 0
v 5 0 0.5
v 5 0 0
v 4.680026054382324 0 0.5
v 5 0 0
v 4.680026054382324 0 0
v 5 5 0
v 4.680026054382324 0 0
v 5 0 0
v 4.680026054382324 -0.4000000059604645 0
v 0.4347519874572754 -0.4000000059604645 2.523835897445679
v 4.680026054382324 -0.4000000059604645 2.523835897445679
v -0.02056900039315224 -0.4000000059604645 2.404407978057861
v -0.3586539924144745 -0.4000000059604645 2.076873064041138
v -0.9039570093154907 -0.4000000059604645 1.692201018333435
v -1.542371988296509 -0.4000000059604645 1.497895002365112
v 4.680026054382324 0.4000000059604645 2.523835897445679
v 4.680026054382324 -0.4000000059604645 0
v 4.680026054382324 -0.4000000059604645 2.523835897445679
v 4.680026054382324 0 0
v -4.339873790740967 -0.4000000059604645 0
v -4.339873790740967 -0.4000000059604645 0
v 4.680026054382324 -0.4000000059604645 0
v -4.339873790740967 -0.5063580274581909 0.5
v -4.339873790740967 -0.5063580274581909 0
v -4.919045925140381 -1.012714982032776 0.5
v -4.339873790740967 -0.4000000059604645 0.5
v -4.339873790740967 -0.5063580274581909 0
v -4.339873790740967 -0.5063580274581909 0.5
v -4.339873790740967 -0.4000000059604645 0
v -4.919045925140381 -1.012714982032776 0.5
v -4.919045925140381 -1.012714982032776 0
v -5.9860520362854 -1.012714982032776 0.5
v -4.919045925140381 -1.012714982032776 0
v -4.919045925140381 -1.012714982032776 0
v -4.339873790740967 -0.5063580274581909 0
v -5.9860520362854 -1.012714982032776 0.5
v -5.9860520362854 -1.012714982032776 0
v -5.9860520362854 0 0.5
v -5.9860520362854 -1.012714982032776 0
v -5.9860520362854 -1.012714982032776 0
v -5.9860520362854 0 0.5
v -5.9860520362854 0 0
v -9 0 0.5
v -5.9860520362854 0 0
v -5.9860520362854 0 0
v -9 0 0.5
v -9 0 0
v -9 5 0.5
v -9 5 0
v -9 0 0
v -8.05825138092041 1 0.5
v -8.05825138092041 1 0
v 4.102687835693359 1 0.5
v -8.05825138092041 1 0
v 4.102687835693359 1 0.5
v 4.102687835693359 1 0
v 4.102687835693359 4 0.5
v 4.102687835693359 1 0
v 4.680026054382324 5 0
v 4.102687835693359 1 0
v 4.102687835693359 4 0
v -8.05825138092041 4 0.5
v 4.102687835693359 4 0.5
v 4.102687835693359 4 0
v 4.680026054382324 5.400000095367432 0
v 4.102687835693359 4 0
v -8.05825138092041 4 0.5
v -8.05825138092041 4 0
v -8.05825138092041 1 0.5
v -8.05825138092041 4 0
v -5.9860520362854 5 0
v -9 5 0
v -4.339873790740967 5.400000095367432 0
v -9 0 0
v -8.05825138092041 1 0
v -8.05825138092041 4 0
vn -0.0932312086224556 0 0.9956445097923279
vn -0.0932312086224556 0 0.9956445097923279
vn -0.0932312086224556 0 0.9956445097923279
vn -0.2911695837974548 0 0.9566714763641357
vn -0.2911695837974548 0 0.9566714763641357
vn -0.0932312086224556 0 0.9956445097923279
vn -0.3906603455543518 0 0.9205349087715149
vn -0.4868326187133789 0 0.8734952807426453
vn -0.576435387134552 0 0.8171427249908447
vn -0.6958117485046387 0 0.7182242274284363
vn -0.6958117485046387 0 0.7182242274284363
vn -0.576435387134552 0 0.8171427249908447
vn -0.5648426413536072 0 0.8251986503601074
vn -0.413069874048233 0 0.9106993079185486
vn -0.253711611032486 0 0.9672799110412598
vn 0 0 1
vn 0 0 1
vn 0 0 1
vn 0 1 0
vn 0 1 0
vn -0.253711611032486 0 0.9672799110412598
vn 0 1 0
vn 0 0 1
vn 0 1 0
vn 0 1 0
vn 0 1 0
vn 0 1 0
vn 0 1 0
vn 0 0 1
vn 0 0 1
vn 0 0 1
vn -0.253711611032486 0 0.9672799110412598
vn -0.253711611032486 0 0.9672799110412598
vn 0 0 1
vn -0.413069874048233 0 0.9106993079185486
vn -0.5648426413536072 0 0.8251986503601074
vn -0.6958117485046387 0 0.7182242274284363
vn -0.576435387134552 0 0.8171427249908447
vn -0.576435387134552 0 0.8171427249908447
vn -0.6958117485046387 0 0.7182242274284363
vn -0.4868326187133789 0 0.8734952807426453
vn -0.3906603455543518 0 0.9205349087715149
vn -0.2911695837974548 0 0.9566714763641357
vn -0.0932312086224556 0 0.9956445097923279
vn -0.0932312086224556 0 0.9956445097923279
vn -0.0932312086224556 0 0.9956445097923279
vn -0.2911695837974548 0 0.9566714763641357
vn -0.0932312086224556 0 0.9956445097923279
vn 1 0 0
vn 1 0 0
vn 0 0 1
vn 0 0 1
vn 0 0 1
vn 0 0 1
vn 1 0 0
vn 1 0 0
vn 1 0 0
vn 0 -1 0
vn 0 -1 0
vn 0 -1 0
vn 0 -1 0
vn 0 -1 0
vn 0 -1 0
vn 0 -1 0
vn 0 -1 0
vn 0 0 1
vn 1 0 0
vn -1 0 0
vn -1 0 0
vn -1 0 0
vn 0 -1 0
vn 0 1 0
vn 0 1 0
vn -1 0 0
vn 0 1 0
vn 0 0 1
vn 0 0 1
vn 0 0 1
vn 0 0 1
vn 0 0 1
vn 0 0 1
vn 0 0 1
vn 0 0 1
vn 0 0 1
vn 0 -1 0
vn 0 -1 0
vn -1 0 0
vn -1 0 0
vn -1 0 0
vn 0 0 1
vn 0 0 1
vn 0 -1 0
vn 0 0 1
vn 0 1 0
vn 0 1 0
vn 0 1 0
vn 0 1 0
vn 0 1 0
vn -1 0 0
vn 0 0 1
vn 0 0 1
vn 0 0 1
vn 0 0 1
vn 0 0 1
vn 0 0 1
vn 0 0 1
vn 0 0 1
vn 0 0 1
vn 0 1 0
vn 0 1 0
vn 0 1 0
vn -1 0 0
vn -1 0 0
vn -1 0 0
vn 0 1 0
vn 0 1 0
vn 0 1 0
vn 0 1 0
vn -1 0 0
vn 0.6581961512565613 0.7528464794158936 0
vn 0.6581961512565613 0.7528464794158936 0
vn 0.6581961512565613 0.7528464794158936 0
vn 0 1 0
vn 0 0 -1
vn 0 0 -1
vn 0.6581961512565613 0.7528464794158936 0
vn 0 0 -1
vn 0 1 0
vn 0 1 0
vn 0 1 0
vn 1 0 0
vn 1 0 0
vn 1 0 0
vn 1 0 0
vn 0 1 0
vn 1 0 0
vn 1 0 0
vn 1 0 0
vn 1 0 0
vn 1 0 0
vn 0 1 0
vn 0 1 0
vn 0 1 0
vn 0 1 0
vn 0 -1 0
vn 0 -1 0
vn 0 -1 0
vn 1 0 0
vn 0 0 -1
vn 0 0 -1
vn 0 -1 0
vn 0 0 -1
vn 0 -1 0
vn 0 -1 0
vn 0 -1 0
vn 0 -1 0
vn 0 -1 0
vn 0 -1 0
vn 0 -1 0
vn 1 0 0
vn 1 0 0
vn 1 0 0
vn 1 0 0
vn 0 -1 0
vn 0 0 -1
vn 0 0 -1
vn 0.6581963300704956 -0.7528463006019592 0
vn 0.6581963300704956 -0.7528463006019592 0
vn 0.6581963300704956 -0.7528463006019592 0
vn 1 0 0
vn 1 0 0
vn 1 0 0
vn 1 0 0
vn 0 -1 0
vn 0 -1 0
vn 0 -1 0
vn 0.6581963300704956 -0.7528463006019592 0
vn 0 0 -1
vn 0 0 -1
vn -1 0 0
vn -1 0 0
vn -1 0 0
vn 0 -1 0
vn 0 0 -1
vn 0 -1 0
vn 0 -1 0
vn 0 -1 0
vn -1 0 0
vn 0 0 -1
vn -1 0 0
vn -1 0 0
vn -1 0 0
vn -1 0 0
vn 0 -1 0
vn 0 1 0
vn 0 1 0
vn 0 1 0
vn 0 0 -1
vn -1 0 0
vn -1 0 0
vn -1 0 0
vn 0 0 -1
vn 0 0 -1
vn 0 1 0
vn 0 -1 0
vn 0 -1 0
vn 0 -1 0
vn 0 0 -1
vn 0 0 -1
vn -1 0 0
vn 1 0 0
vn 1 0 0
vn 1 0 0
vn 0 0 -1
vn 0 0 -1
vn 0 0 -1
vn 0 0 -1
vn 0 0 -1
vn 1 0 0
vn 0 -1 0
f 3//3 2//2 1//1
f 7//7 5//5 4//4
f 3//3 6//6 2//2
f 9//9 8//8 7//7
f 7//7 8//8 5//5
f 13//13 11//11 10//10
f 9//9 12//12 8//8
f 15//15 14//14 13//13
f 13//13 14//14 11//11
f 18//18 17//17 16//16
f 97//97 20//20 19//19
f 15//15 21//21 14//14
f 20//20 22//22 19//19
f 18//18 23//23 17//17
f 97//97 19//19 24//24
f 129//129 26//26 25//25
f 26//26 27//27 25//25
f 129//129 25//25 28//28
f 31//31 30//30 29//29
f 35//35 33//33 32//32
f 31//31 34//34 30//30
f 37//37 36//36 35//35
f 35//35 36//36 33//33
f 41//41 39//39 38//38
f 37//37 40//40 36//36
f 43//43 42//42 41//41
f 41//41 42//42 39//39
f 46//46 45//45 44//44
f 43//43 47//47 42//42
f 46//46 48//48 45//45
f 160//160 50//50 49//49
f 102//102 52//52 51//51
f 51//51 54//54 53//53
f 57//57 56//56 55//55
f 60//60 59//59 58//58
f 59//59 61//61 58//58
f 61//61 62//62 58//58
f 62//62 63//63 58//58
f 63//63 64//64 58//58
f 64//64 65//65 58//58
f 102//102 51//51 66//66
f 57//57 55//55 67//67
f 51//51 53//53 66//66
f 70//70 69//69 68//68
f 65//65 71//71 58//58
f 73//73 130//130 72//72
f 70//70 74//74 69//69
f 130//130 75//75 72//72
f 78//78 77//77 76//76
f 77//77 79//79 76//76
f 79//79 80//80 76//76
f 78//78 76//76 81//81
f 78//78 81//81 82//82
f 105//105 84//84 83//83
f 159//159 86//86 85//85
f 89//89 88//88 87//87
f 105//105 83//83 90//90
f 83//83 91//91 90//90
f 86//86 92//92 85//85
f 91//91 93//93 90//90
f 96//96 95//95 94//94
f 95//95 97//97 94//94
f 97//97 24//24 94//94
f 24//24 98//98 94//94
f 88//88 99//99 87//87
f 102//102 66//66 100//100
f 66//66 78//78 100//100
f 102//102 101//101 106//106
f 102//102 100//100 101//101
f 108//108 104//104 103//103
f 104//104 105//105 103//103
f 105//105 90//90 103//103
f 90//90 106//106 103//103
f 106//106 101//101 103//103
f 78//78 82//82 107//107
f 82//82 108//108 107//107
f 78//78 107//107 100//100
f 108//108 103//103 107//107
f 111//111 110//110 109//109
f 114//114 113//113 112//112
f 111//111 115//115 110//110
f 118//118 117//117 116//116
f 114//114 119//119 113//113
f 122//122 121//121 120//120
f 118//118 123//123 117//117
f 215//215 125//125 124//124
f 122//122 126//126 121//121
f 215//215 124//124 127//127
f 130//130 129//129 128//128
f 129//129 28//28 128//128
f 130//130 128//128 75//75
f 133//133 132//132 131//131
f 131//131 132//132 134//134
f 28//28 135//135 128//128
f 57//57 67//67 136//136
f 57//57 136//136 137//137
f 140//140 139//139 138//138
f 143//143 142//142 141//141
f 141//141 142//142 144//144
f 147//147 146//146 145//145
f 140//140 148//148 139//139
f 203//203 150//150 149//149
f 147//147 151//151 146//146
f 150//150 152//152 149//149
f 155//155 154//154 153//153
f 154//154 156//156 153//153
f 156//156 157//157 153//153
f 157//157 158//158 153//153
f 158//158 159//159 153//153
f 162//162 161//161 160//160
f 160//160 161//161 50//50
f 159//159 85//85 153//153
f 50//50 161//161 163//163
f 85//85 164//164 153//153
f 149//149 166//166 165//165
f 169//169 168//168 167//167
f 172//172 171//171 170//170
f 170//170 171//171 173//173
f 176//176 175//175 174//174
f 169//169 177//177 168//168
f 165//165 179//179 178//178
f 182//182 181//181 180//180
f 176//176 183//183 175//175
f 165//165 178//178 184//184
f 187//187 186//186 185//185
f 182//182 188//188 181//181
f 165//165 184//184 189//189
f 192//192 191//191 190//190
f 192//192 193//193 191//191
f 187//187 194//194 186//186
f 197//197 196//196 195//195
f 189//189 218//218 198//198
f 201//201 200//200 199//199
f 209//209 203//203 202//202
f 203//203 149//149 202//202
f 149//149 165//165 202//202
f 165//165 189//189 202//202
f 197//197 204//204 196//196
f 189//189 198//198 202//202
f 207//207 206//206 205//205
f 217//217 209//209 208//208
f 201//201 210//210 200//200
f 209//209 202//202 208//208
f 213//213 212//212 211//211
f 216//216 215//215 214//214
f 215//215 127//127 214//214
f 127//127 217//217 214//214
f 216//216 214//214 218//218
f 213//213 219//219 212//212
f 218//218 214//214 198//198
f 206//206 220//220 205//205
f 217//217 208//208 214//214
