# Blender v2.67 (sub 0) OBJ File: 'Richelieu_38cmQuad_Yaw.blend'
# www.blender.org
mtllib GunRichelieuYaw.mtl
o Cube_Cube.001
v 11.541768 7.784899 1.585997
v 16.072842 7.784899 1.585997
v 11.620594 7.748844 5.746871
v 16.082439 7.750145 4.987732
v 11.541768 4.738762 2.240037
v 16.072842 4.738762 2.240037
v 11.585578 4.642165 4.960207
v 16.055813 4.776310 4.263236
v 8.172957 7.784899 1.585997
v 8.195927 8.039883 6.263520
v 8.172958 4.738762 2.240037
v 8.167794 4.750147 5.546787
v 4.172496 9.328833 1.585997
v 4.172496 8.039883 6.263520
v 4.172496 6.282695 2.240037
v 4.172496 6.282695 5.566219
v 1.400246 9.328833 1.585997
v 1.400247 8.039883 6.263520
v 1.400246 6.282695 2.240037
v 1.400246 6.282695 5.566219
v 4.172496 3.419847 6.263520
v 4.172496 3.419847 5.566219
v 1.400247 3.419847 6.263520
v 1.400246 3.419847 5.566219
v 0.163587 8.684358 1.585998
v 0.163589 8.684358 6.263521
v 0.163587 6.282695 2.240038
v 0.163587 6.282695 5.566220
v 4.172496 5.427464 5.566219
v 1.400246 5.427464 5.566219
v 4.172496 5.427464 6.263520
v 1.400247 5.427464 6.263520
v 5.285718 5.427464 6.263520
v 5.285718 5.427464 5.566219
v 5.285718 3.419847 5.566219
v 5.285718 3.419847 6.263520
v 11.541768 17.274345 1.585997
v 16.072842 17.274345 1.585997
v 11.620594 17.310400 5.746871
v 16.082439 17.309099 4.987732
v 11.541768 12.529623 1.585997
v 16.066677 12.529622 4.987732
v 16.072842 12.529623 1.585997
v 11.541768 20.320482 2.240037
v 16.072842 20.320482 2.240037
v 11.585578 20.417080 4.960207
v 16.055813 20.282934 4.263236
v 8.172957 17.274345 1.585997
v 8.195927 17.019361 6.263520
v 8.179122 12.529622 6.263520
v 8.172957 12.529623 1.585997
v 8.172958 20.320482 2.240037
v 8.167794 20.309097 5.546787
v 4.172496 15.730412 1.585997
v 4.172496 17.019361 6.263520
v 4.172496 12.529622 6.263520
v 4.172496 12.529622 1.585997
v 4.172496 18.776548 2.240037
v 4.172496 18.776548 5.566219
v 1.400246 15.730412 1.585997
v 1.400247 17.019361 6.263520
v 1.400247 12.529622 6.263520
v 1.400246 12.529622 1.585997
v 1.400246 18.776548 2.240037
v 1.400246 18.776548 5.566219
v 4.172496 21.639397 6.263520
v 4.172496 21.639397 5.566219
v 1.400247 21.639397 6.263520
v 1.400246 21.639397 5.566219
v 0.163587 16.374887 1.585998
v 0.163589 16.374887 6.263521
v 0.163589 12.529622 6.263521
v 0.163587 12.529622 1.585998
v 0.163587 18.776548 2.240038
v 0.163587 18.776548 5.566220
v 4.172496 19.631781 5.566219
v 1.400246 19.631781 5.566219
v 4.172496 19.631781 6.263520
v 1.400247 19.631781 6.263520
v 5.285718 19.631781 6.263520
v 5.285718 19.631781 5.566219
v 5.285718 21.639397 5.566219
v 5.285718 21.639397 6.263520
vn 0.999998 0.001655 -0.000496
vn 0.159747 -0.239616 0.957635
vn 0.000000 -0.209927 -0.977717
vn -0.000000 0.000000 -1.000000
vn 0.013930 -0.999825 -0.012525
vn 0.999989 -0.004439 0.001372
vn -0.359097 -0.933299 0.001322
vn -0.049121 -0.269209 0.961828
vn 0.159830 0.004460 0.987135
vn 0.142029 -0.227812 0.963291
vn -0.017119 -0.999755 -0.014025
vn -0.080754 -0.209241 -0.974524
vn -0.000000 0.000000 1.000000
vn 0.000001 0.000000 1.000000
vn 0.060724 -0.233045 -0.970568
vn 0.000000 -1.000000 0.000000
vn -1.000000 0.000000 0.000001
vn -1.000000 0.000000 0.000000
vn -0.082561 -0.316849 0.944876
vn -0.000001 -0.000000 -1.000000
vn 1.000000 -0.000000 0.000000
vn 0.000000 1.000000 0.000000
vn 0.999998 -0.001655 -0.000496
vn 0.159747 0.239616 0.957635
vn 0.000000 0.209927 -0.977717
vn 0.013930 0.999825 -0.012525
vn 0.999989 0.004439 0.001372
vn -0.359097 0.933299 0.001322
vn -0.049121 0.269209 0.961828
vn 0.159830 -0.004460 0.987134
vn 0.142029 0.227812 0.963291
vn -0.017120 0.999755 -0.014025
vn -0.080754 0.209241 -0.974524
vn 0.060724 0.233045 -0.970568
vn -0.082561 0.316849 0.944876
usemtl None
s off
f 42//1 4//1 2//1 43//1
f 4//2 3//2 7//2 8//2
f 1//3 5//3 11//3 9//3
f 1//4 41//4 43//4 2//4
f 8//5 7//5 5//5 6//5
f 1//3 2//3 6//3 5//3
f 2//6 4//6 8//6 6//6
f 11//7 12//7 16//7 15//7
f 12//8 10//8 14//8 16//8
f 41//4 1//4 9//4 51//4
f 42//9 50//9 10//9 3//9 4//9
f 7//10 3//10 10//10 12//10
f 5//11 7//11 12//11 11//11
f 13//3 15//3 19//3 17//3
f 51//4 9//4 13//4 57//4
f 9//12 11//12 15//12 13//12
f 10//13 50//13 56//13 14//13
f 18//14 62//14 72//14 26//14
f 17//15 19//15 27//15 25//15
f 14//13 56//13 62//13 18//13
f 30//4 29//4 22//4 24//4
f 15//16 16//16 20//16 19//16
f 57//4 13//4 17//4 63//4
f 22//16 21//16 23//16 24//16
f 31//13 21//13 36//13 33//13
f 32//17 30//17 24//17 23//17
f 31//13 32//13 23//13 21//13
f 26//18 72//18 73//18 25//18
f 26//18 25//18 27//18 28//18
f 20//19 18//19 26//19 28//19
f 19//16 20//16 28//16 27//16
f 63//20 17//20 25//20 73//20
f 20//4 16//4 29//4 30//4
f 16//21 14//21 31//21 29//21
f 18//17 20//17 30//17 32//17
f 14//13 18//13 32//13 31//13
f 22//4 29//4 34//4 35//4
f 29//22 31//22 33//22 34//22
f 21//16 22//16 35//16 36//16
f 34//21 33//21 36//21 35//21
f 42//23 43//23 38//23 40//23
f 40//24 47//24 46//24 39//24
f 37//25 48//25 52//25 44//25
f 37//4 38//4 43//4 41//4
f 47//26 45//26 44//26 46//26
f 37//25 44//25 45//25 38//25
f 38//27 45//27 47//27 40//27
f 52//28 58//28 59//28 53//28
f 53//29 59//29 55//29 49//29
f 41//4 51//4 48//4 37//4
f 42//30 40//30 39//30 49//30 50//30
f 46//31 53//31 49//31 39//31
f 44//32 52//32 53//32 46//32
f 54//25 60//25 64//25 58//25
f 56//16 62//16 63//16 57//16
f 51//4 57//4 54//4 48//4
f 50//16 56//16 57//16 51//16
f 48//33 54//33 58//33 52//33
f 49//13 55//13 56//13 50//13
f 61//14 71//14 72//14 62//14
f 60//34 70//34 74//34 64//34
f 55//13 61//13 62//13 56//13
f 77//4 69//4 67//4 76//4
f 58//22 64//22 65//22 59//22
f 57//4 63//4 60//4 54//4
f 67//22 69//22 68//22 66//22
f 78//13 80//13 83//13 66//13
f 79//17 68//17 69//17 77//17
f 78//13 66//13 68//13 79//13
f 71//18 70//18 73//18 72//18
f 71//18 75//18 74//18 70//18
f 65//35 75//35 71//35 61//35
f 64//22 74//22 75//22 65//22
f 63//20 73//20 70//20 60//20
f 62//16 72//16 73//16 63//16
f 65//4 77//4 76//4 59//4
f 59//21 76//21 78//21 55//21
f 61//17 79//17 77//17 65//17
f 55//13 78//13 79//13 61//13
f 67//4 82//4 81//4 76//4
f 76//16 81//16 80//16 78//16
f 66//22 83//22 82//22 67//22
f 81//21 82//21 83//21 80//21
