# Blender v2.67 (sub 0) OBJ File: 'Richelieu_38cmQuad.blend'
# www.blender.org
mtllib GunRichelieu.mtl
o Mesh_Cylinder.006_Cyli.000
v 7.096748 12.469879 0.106124
v 18.714991 12.496377 0.106124
v 16.960857 7.078100 0.106124
v 16.936157 17.906597 0.106124
v 18.714991 12.496377 0.106124
v 7.096748 12.469879 0.106124
v 7.096286 12.467203 1.618653
v 16.960546 7.076615 1.605438
v 18.714682 12.493711 1.615333
v 18.714682 12.493711 1.615333
v 16.935850 17.902752 1.623737
v 7.096286 12.467203 1.618653
v 10.562194 4.301584 0.106124
v 10.524892 20.653893 0.106124
v 10.561879 4.300096 1.600554
v 10.524583 20.650047 1.628189
v 3.304757 5.931301 0.106124
v 3.274966 18.991089 0.106124
v 3.304441 5.929819 1.602137
v 3.274656 18.987240 1.624207
v 0.086785 12.453893 0.106124
v 0.086785 12.453893 0.106124
v 0.086477 12.451226 1.610652
v 0.086477 12.451226 1.610652
vn -0.000000 0.000000 -1.000000
vn 0.000290 -0.001921 0.999998
vn 0.000289 -0.001459 0.999999
vn 0.000167 -0.002145 0.999998
vn 0.000165 -0.001235 0.999999
vn -0.000309 -0.002347 0.999997
vn -0.000312 -0.001035 0.999999
vn -0.001137 -0.001867 0.999998
vn -0.001138 -0.001519 0.999998
vn 0.951375 -0.308035 -0.000229
vn 0.949960 0.312372 0.000865
vn 0.398062 -0.917358 -0.000828
vn 0.393872 0.919162 0.002405
vn -0.219102 -0.975701 -0.001015
vn -0.223550 0.974689 0.002421
vn -0.896781 -0.442473 -0.000798
vn -0.898791 0.438378 0.000761
usemtl Material.000
s off
f 1//1 2//1 3//1
f 4//1 5//1 6//1
f 7//2 8//2 9//2
f 10//3 11//3 12//3
f 1//1 3//1 13//1
f 14//1 4//1 6//1
f 7//4 15//4 8//4
f 11//5 16//5 12//5
f 1//1 13//1 17//1
f 18//1 14//1 6//1
f 7//6 19//6 15//6
f 16//7 20//7 12//7
f 21//1 1//1 17//1
f 18//1 6//1 22//1
f 7//8 23//8 19//8
f 20//9 24//9 12//9
f 2//10 9//10 8//10 3//10
f 11//11 10//11 5//11 4//11
f 3//12 8//12 15//12 13//12
f 16//13 11//13 4//13 14//13
f 13//14 15//14 19//14 17//14
f 20//15 16//15 14//15 18//15
f 23//16 21//16 17//16 19//16
f 18//17 22//17 24//17 20//17
