# Rhino

v 4.116393089294434 2.5 0.1364099979400635
v 4.116393089294434 2.5 0.1364099979400635
v 4.116393089294434 2.5 0.009335000067949295
v 4.116393089294434 2.5 0.009335000067949295
v 3.860289096832275 2.5 0.2503570020198822
v 3.860289096832275 2.5 0.2503570020198822
v 3.860289096832275 2.5 0.1364099979400635
v 3.860289096832275 2.5 0.1364099979400635
v 3.553816080093384 3.858175992965698 0.1364099979400635
v 3.553816080093384 3.858175992965698 0.1364099979400635
v 3.553816080093384 3.858175992965698 0.009335000067949295
v 3.553816080093384 3.858175992965698 0.009335000067949295
v 3.553816080093384 1.141824007034302 0.1364099979400635
v 3.553816080093384 1.141824007034302 0.1364099979400635
v 3.553816080093384 1.141824007034302 0.009335000067949295
v 3.553816080093384 1.141824007034302 0.009335000067949295
v 3.372725009918213 3.677086114883423 0.2503570020198822
v 3.372725009918213 3.677086114883423 0.2503570020198822
v 3.372725009918213 3.677086114883423 0.1364099979400635
v 3.372725009918213 3.677086114883423 0.1364099979400635
v 3.372725009918213 1.322914004325867 0.2503570020198822
v 3.372725009918213 1.322914004325867 0.2503570020198822
v 3.372725009918213 1.322914004325867 0.1364099979400635
v 3.372725009918213 1.322914004325867 0.1364099979400635
v 2.195631980895996 4.420750141143799 0.1364099979400635
v 2.195631980895996 4.420750141143799 0.1364099979400635
v 2.195631980895996 4.420750141143799 0.009335000067949295
v 2.195631980895996 4.420750141143799 0.009335000067949295
v 2.195631980895996 4.164651870727539 0.2503570020198822
v 2.195631980895996 4.164651870727539 0.2503570020198822
v 2.195631980895996 4.164651870727539 0.1364099979400635
v 2.195631980895996 4.164651870727539 0.1364099979400635
v 2.195631980895996 0.8353509902954102 0.2503570020198822
v 2.195631980895996 0.8353509902954102 0.2503570020198822
v 2.195631980895996 0.8353509902954102 0.1364099979400635
v 2.195631980895996 0.8353509902954102 0.1364099979400635
v 2.195631980895996 0.5792499780654907 0.1364099979400635
v 2.195631980895996 0.5792499780654907 0.1364099979400635
v 2.195631980895996 0.5792499780654907 0.009335000067949295
v 2.195631980895996 0.5792499780654907 0.009335000067949295
v 1.018553018569946 3.677086114883423 0.2503570020198822
v 1.018553018569946 3.677086114883423 0.2503570020198822
v 1.018553018569946 3.677086114883423 0.1364099979400635
v 1.018553018569946 3.677086114883423 0.1364099979400635
v 1.018553018569946 1.322914004325867 0.2503570020198822
v 1.018553018569946 1.322914004325867 0.2503570020198822
v 1.018553018569946 1.322914004325867 0.1364099979400635
v 1.018553018569946 1.322914004325867 0.1364099979400635
v 0.8374620079994202 3.858175992965698 0.1364099979400635
v 0.8374620079994202 3.858175992965698 0.1364099979400635
v 0.8374620079994202 3.858175992965698 0.009335000067949295
v 0.8374620079994202 3.858175992965698 0.009335000067949295
v 0.8374620079994202 1.141824007034302 0.1364099979400635
v 0.8374620079994202 1.141824007034302 0.1364099979400635
v 0.8374620079994202 1.141824007034302 0.009335000067949295
v 0.8374620079994202 1.141824007034302 0.009335000067949295
v 0.5309889912605286 2.5 0.2503570020198822
v 0.5309889912605286 2.5 0.2503570020198822
v 0.5309889912605286 2.5 0.1364099979400635
v 0.5309889912605286 2.5 0.1364099979400635
v 0.2748860120773315 2.5 0.1364099979400635
v 0.2748860120773315 2.5 0.1364099979400635
v 0.2748860120773315 2.5 0.009335000067949295
v 0.2748860120773315 2.5 0.009335000067949295
vn 0.9906022548675537 -0.1367741376161575 0
vn 0 0 1
vn 0.9906022548675537 0.1367741376161575 0
vn 0 0 -1
vn 0.9906023740768433 -0.1367733627557755 0
vn 0 0 1
vn 0.9906023740768433 0.1367733627557755 0
vn 0 0 1
vn 0.7971741557121277 0.6037494540214539 0
vn 0 0 1
vn 0.6037462949752808 0.7971765398979187 0
vn 0 0 -1
vn 0.6037462949752808 -0.7971765398979187 0
vn 0 0 1
vn 0.7971741557121277 -0.6037494540214539 0
vn 0 0 -1
vn 0.7971752285957336 0.6037480235099793 0
vn 0 0 1
vn 0.6037474870681763 0.7971756458282471 0
vn 0 0 1
vn 0.6037462949752808 -0.7971765398979187 0
vn 0 0 1
vn 0.7971748113632202 -0.6037485003471375 0
vn 0 0 1
vn 0.1367715150117874 0.9906026124954224 0
vn 0 0 1
vn 0 0 -1
vn -0.1367751359939575 0.9906021356582642 0
vn 0.1367718428373337 0.9906025528907776 0
vn 0 0 1
vn 0 0 1
vn -0.1367760002613068 0.9906020164489746 0
vn 0 0 1
vn -0.1367751806974411 -0.9906021356582642 0
vn 0.1367710083723068 -0.9906026721000671 0
vn 0 0 1
vn 0 0 1
vn -0.1367751359939575 -0.9906021356582642 0
vn 0.1367715150117874 -0.9906026124954224 0
vn 0 0 -1
vn 0 0 1
vn -0.6037498116493225 0.7971738576889038 0
vn 0 0 1
vn -0.7971760034561157 0.6037469506263733 0
vn 0 0 1
vn -0.7971755862236023 -0.6037474870681763 0
vn 0 0 1
vn -0.603748619556427 -0.7971747517585754 0
vn 0 0 1
vn -0.6037484407424927 0.7971749305725098 0
vn 0 0 -1
vn -0.7971751093864441 0.6037482023239136 0
vn 0 0 1
vn -0.7971751093864441 -0.6037482023239136 0
vn 0 0 -1
vn -0.6037484407424927 -0.7971749305725098 0
vn 0 0 1
vn -0.9906023740768433 0.1367733627557755 0
vn 0 0 1
vn -0.9906023740768433 -0.1367733627557755 0
vn 0 0 1
vn -0.9906023144721985 0.1367738991975784 0
vn 0 0 -1
vn -0.9906023144721985 -0.1367738991975784 0
f 57//57 45//45 6//6 41//41
f 33//33 22//22 6//6 45//45
f 16//16 40//40 55//55 4//4
f 51//51 27//27 12//12 4//4
f 29//29 17//17 19//19 32//32
f 17//17 5//5 7//7 19//19
f 5//5 21//21 23//23 7//7
f 21//21 34//34 35//35 23//23
f 34//34 46//46 48//48 35//35
f 46//46 58//58 60//60 48//48
f 58//58 42//42 44//44 60//60
f 42//42 29//29 32//32 44//44
f 31//31 20//20 10//10 26//26
f 20//20 8//8 2//2 10//10
f 8//8 24//24 14//14 2//2
f 24//24 36//36 37//37 14//14
f 36//36 47//47 53//53 37//37
f 47//47 59//59 61//61 53//53
f 59//59 43//43 49//49 61//61
f 43//43 31//31 26//26 49//49
f 6//6 18//18 30//30 41//41
f 55//55 63//63 51//51 4//4
f 50//50 25//25 28//28 52//52
f 25//25 9//9 11//11 28//28
f 9//9 1//1 3//3 11//11
f 1//1 13//13 15//15 3//3
f 13//13 38//38 39//39 15//15
f 38//38 54//54 56//56 39//39
f 54//54 62//62 64//64 56//56
f 62//62 50//50 52//52 64//64
