# Blender v2.63 (sub 0) OBJ File: 'torpedo_oxygen_base.blend'
# www.blender.org
mtllib torpedo_oxygen_base.mtl
o Cylinder
v 5.273560 11.185664 0.671258
v 5.273560 11.185664 1.180383
v 7.931151 10.084854 0.671258
v 7.931151 10.084854 1.180383
v 9.031961 7.427263 0.671258
v 9.031961 7.427263 1.180383
v 7.931151 4.769672 0.671258
v 7.931151 4.769672 1.180383
v 5.273560 3.668862 0.671258
v 5.273560 3.668862 1.180383
v 2.615969 4.769672 0.671258
v 2.615969 4.769672 1.180383
v 1.515159 7.427263 0.671258
v 1.515159 7.427263 1.180383
v 2.615969 10.084853 0.671258
v 2.615969 10.084853 1.180383
v 5.273560 11.810274 0.439491
v 8.372817 10.526520 0.439491
v 9.656571 7.427263 0.439491
v 8.372817 4.328006 0.439491
v 5.273560 3.044251 0.439491
v 2.174303 4.328007 0.439491
v 0.890549 7.427263 0.439491
v 2.174303 10.526519 0.439491
v 5.273560 11.810274 0.069972
v 8.372817 10.526520 0.069972
v 9.656571 7.427263 0.069972
v 8.372817 4.328006 0.069972
v 5.273560 3.044251 0.069972
v 2.174303 4.328007 0.069972
v 0.890549 7.427263 0.069972
v 2.174303 10.526519 0.069972
vn 0.382683 0.923880 0.000000
vn 0.923880 0.382683 0.000000
vn 0.923880 -0.382684 0.000000
vn 0.382683 -0.923880 0.000000
vn -0.382684 -0.923879 0.000000
vn -0.923880 -0.382683 0.000000
vn -0.000000 0.000000 1.000000
vn -0.382684 0.923880 0.000000
vn -0.923880 0.382683 0.000000
vn 0.344326 -0.142624 0.927954
vn -0.382684 0.923879 0.000000
vn 0.142624 0.344326 0.927954
vn 0.142624 -0.344325 0.927954
vn -0.142624 -0.344326 0.927954
vn -0.344326 -0.142624 0.927954
vn -0.344326 0.142624 0.927954
vn -0.142624 0.344326 0.927954
vn 0.344326 0.142624 0.927954
vn 0.000000 0.000000 -1.000000
vn 0.923880 -0.382683 0.000000
usemtl 
s off
f 1//1 2//1 4//1 3//1
f 3//2 4//2 6//2 5//2
f 5//3 6//3 8//3 7//3
f 7//4 8//4 10//4 9//4
f 9//5 10//5 12//5 11//5
f 11//6 12//6 14//6 13//6
f 4//7 2//7 16//7
f 4//7 16//7 6//7
f 16//7 14//7 6//7
f 14//7 12//7 6//7
f 12//7 8//7 6//7
f 12//7 10//7 8//7
f 2//8 1//8 15//8 16//8
f 13//9 14//9 16//9 15//9
f 5//10 7//10 20//10 19//10
f 24//11 17//11 25//11 32//11
f 1//12 3//12 18//12 17//12
f 7//13 9//13 21//13 20//13
f 9//14 11//14 22//14 21//14
f 11//15 13//15 23//15 22//15
f 13//16 15//16 24//16 23//16
f 15//17 1//17 17//17 24//17
f 3//18 5//18 19//18 18//18
f 25//19 26//19 32//19
f 26//19 27//19 32//19
f 27//19 31//19 32//19
f 27//19 30//19 31//19
f 27//19 28//19 30//19
f 28//19 29//19 30//19
f 17//1 18//1 26//1 25//1
f 20//4 21//4 29//4 28//4
f 23//9 24//9 32//9 31//9
f 19//20 20//20 28//20 27//20
f 22//6 23//6 31//6 30//6
f 18//2 19//2 27//2 26//2
f 21//5 22//5 30//5 29//5
