# Blender v2.64 (sub 0) OBJ File: ' aegis_engine_trapezoid.blend'
# www.blender.org
mtllib  aegis_engine_trapezoid.mtl
o Cube.004_Cube
v 3.920832 2.516410 0.028380
v 3.920832 12.489779 0.028380
v 13.894199 12.489779 0.028380
v 13.894199 2.516410 0.028380
v 4.755907 3.736519 15.396317
v 4.755907 11.269669 15.396317
v 12.464224 11.269669 15.396317
v 12.464224 3.736519 15.396317
vn -0.998527 0.000000 0.054259
vn 0.000000 0.996863 0.079144
vn 0.995699 0.000000 0.092649
vn 0.000000 -0.996863 0.079144
vn -0.000000 0.000000 -1.000000
vn -0.000000 0.000000 1.000000
usemtl 
s off
f 2//1 1//1 5//1 6//1
f 6//2 7//2 3//2 2//2
f 7//3 8//3 4//3 3//3
f 1//4 4//4 8//4 5//4
f 1//5 2//5 3//5 4//5
f 8//6 7//6 6//6 5//6
