# Blender v2.64 (sub 0) OBJ File: 'carrier_funnel_6block_withColor_ver_output.blend'
# www.blender.org
mtllib carrier_funnel_6block_withColor_ver_output.mtl
vt 0 0 0 0
vt 0 0 0 0.7
o Black_Cylinder.000
v 1.188709 1.047451 2.217618
v 0.509790 1.133658 1.920893
v 0.228572 1.341779 1.204535
v 0.509790 1.628496 0.550528
v 1.188709 1.657513 0.476934
v 1.188709 0.076121 0.514575
v 0.509790 0.253040 0.430035
v 0.228572 0.680161 0.225937
v 0.509790 1.280403 0.196568
v 1.188709 1.475025 0.172708
v 0.733926 0.394047 0.362655
v 1.246960 0.260356 0.426539
v 0.545547 0.680161 0.225937
v 0.733926 0.966273 0.330735
v 1.246960 1.099965 0.266851
v 0.733926 0.885808 1.247219
v 1.246960 0.752117 1.247218
v 0.545547 1.171921 1.247218
v 0.733926 1.312163 0.972465
v 1.246960 1.517210 0.572056
v 28.864532 1.047451 2.217618
v 29.543451 1.133658 1.920893
v 29.824669 1.341779 1.204535
v 29.543451 1.628496 0.550528
v 28.864532 1.657513 0.476934
v 28.864532 0.076121 0.514575
v 29.543451 0.253040 0.430035
v 29.824669 0.680161 0.225937
v 29.543451 1.280403 0.196568
v 28.864532 1.475025 0.172708
v 29.319317 0.394047 0.362655
v 28.806282 0.260356 0.426539
v 29.507694 0.680161 0.225937
v 29.319317 0.966273 0.330735
v 28.806282 1.099965 0.266851
v 29.319317 0.885808 1.383937
v 28.806282 0.752117 1.447821
v 29.507694 1.171921 1.247219
v 29.319317 1.312163 0.835747
v 28.806282 1.517210 0.572056
v 15.026621 1.657513 0.476934
v 15.026621 1.047451 2.217618
v 15.026621 1.475025 0.172707
v 15.026621 0.076121 0.514575
v 15.026621 1.099965 0.266851
v 15.026621 0.260356 0.426538
v 15.026621 1.517210 0.572056
v 15.026621 0.752117 1.247218
vn -0.816126 0.491653 0.303568
vn -0.731223 -0.262185 -0.629688
vn -0.495224 -0.822169 -0.280587
vn -0.564501 0.142674 0.812983
vn -0.112918 -0.958495 -0.261727
vn -0.162114 0.060335 0.984924
vn -0.050661 0.987579 -0.148564
vn -0.053529 0.372265 -0.926572
vn -0.442274 0.324564 -0.836055
vn -0.454176 0.872677 -0.179296
vn 0.000000 -0.954314 -0.298715
vn 0.000000 0.090182 0.995911
vn 0.545213 0.163274 -0.822199
vn 0.100833 0.221747 -0.969848
vn 0.079989 0.243110 -0.966674
vn 0.334452 0.079562 -0.939024
vn 0.512528 -0.150517 -0.845332
vn 0.627613 -0.644185 -0.437117
vn 0.251137 -0.912442 -0.322977
vn 0.000000 -0.981445 -0.191595
vn 0.000000 0.382275 -0.924009
vn 0.740928 -0.440779 -0.506638
vn 0.474837 -0.857997 -0.195746
vn 0.204962 -0.973724 0.099002
vn 0.001160 0.300088 -0.953887
vn 0.001617 0.149022 -0.988830
vn 0.000000 0.994842 -0.101321
vn 0.000183 -0.997955 0.063692
vn 0.816126 0.491653 0.303568
vn 0.564501 0.142674 0.812983
vn 0.495224 -0.822169 -0.280587
vn 0.731223 -0.262185 -0.629688
vn 0.162114 0.060335 0.984924
vn 0.112918 -0.958495 -0.261727
vn 0.050661 0.987579 -0.148564
vn 0.454176 0.872677 -0.179296
vn 0.442274 0.324564 -0.836055
vn 0.053529 0.372265 -0.926572
vn -0.546648 0.117191 -0.829096
vn -0.366131 0.082614 -0.926878
vn -0.091952 0.271218 -0.958098
vn -0.115268 0.200232 -0.972930
vn -0.527848 -0.149663 -0.836024
vn -0.652120 -0.628224 -0.424268
vn -0.227882 -0.927824 -0.295236
vn -0.743431 -0.402020 -0.534440
vn -0.515061 -0.854915 -0.061525
vn -0.161107 -0.980285 0.114170
usemtl Material
s 1
f 3/2/1 8/2/2 7/2/3 2/2/4
f 6/2/5 1/2/6 2/2/4 7/2/3
f 5/2/7 10/2/8 9/2/9 4/2/10
f 4/2/10 9/2/9 8/2/2 3/2/1
f 1/2/6 6/2/5 44/2/11 42/2/12
f 16/2/13 17/2/14 12/2/15 11/2/16
f 11/2/16 12/2/15 6/2/5 7/2/3
f 13/2/17 11/2/16 7/2/3 8/2/2
f 14/2/18 13/2/17 8/2/2 9/2/9
f 15/2/19 14/2/18 9/2/9 10/2/8
f 45/2/20 15/2/19 10/2/8 43/2/21
f 18/2/22 16/2/13 11/2/16 13/2/17
f 19/2/23 18/2/22 13/2/17 14/2/18
f 20/2/24 19/2/23 14/2/18 15/2/19
f 46/2/25 12/2/15 17/2/14 48/2/26
f 10/2/8 5/2/7 41/2/27 43/2/21
f 12/2/15 46/2/25 44/2/11 6/2/5
f 15/2/19 45/2/20 47/2/28 20/2/24
f 48/2/26 17/2/14 16/2/13
f 47/2/28 48/2/26 16/2/13
f 47/2/28 16/2/13 18/2/22
f 19/2/23 47/2/28 18/2/22
f 19/2/23 20/2/24 47/2/28
f 23/2/29 22/2/30 27/2/31 28/2/32
f 22/2/30 21/2/33 26/2/34 27/2/31
f 25/2/35 24/2/36 29/2/37 30/2/38
f 24/2/36 23/2/29 28/2/32 29/2/37
f 44/2/11 26/2/34 21/2/33 42/2/12
f 36/2/39 31/2/40 32/2/41 37/2/42
f 31/2/40 27/2/31 26/2/34 32/2/41
f 33/2/43 28/2/32 27/2/31 31/2/40
f 34/2/44 29/2/37 28/2/32 33/2/43
f 35/2/45 30/2/38 29/2/37 34/2/44
f 45/2/20 43/2/21 30/2/38 35/2/45
f 38/2/46 33/2/43 31/2/40 36/2/39
f 39/2/47 34/2/44 33/2/43 38/2/46
f 40/2/48 35/2/45 34/2/44 39/2/47
f 46/2/25 48/2/26 37/2/42 32/2/41
f 30/2/38 43/2/21 41/2/27 25/2/35
f 32/2/41 26/2/34 44/2/11 46/2/25
f 35/2/45 40/2/48 47/2/28 45/2/20
f 37/2/42 48/2/26 47/2/28
f 36/2/39 37/2/42 47/2/28
f 38/2/46 36/2/39 47/2/28
f 39/2/47 38/2/46 47/2/28
f 39/2/47 47/2/28 40/2/48
f 2/2/4 1/2/6 42/2/12
f 42/2/12 21/2/33 22/2/30
f 2/2/4 42/2/12 22/2/30
f 3/2/1 2/2/4 22/2/30
f 3/2/1 22/2/30 23/2/29
f 3/2/1 23/2/29 4/2/10
f 23/2/29 24/2/36 4/2/10
f 24/2/36 5/2/7 4/2/10
f 24/2/36 25/2/35 5/2/7
f 25/2/35 41/2/27 5/2/7
o Gray_Cylinder.003
v 1.188713 9.954087 3.794070
v 1.188711 4.802556 3.790384
v 0.509792 9.954088 3.266848
v 0.509790 4.802556 3.433890
v 0.228576 9.954087 1.965240
v 0.228574 4.802556 2.496950
v 0.509792 9.954087 0.663633
v 0.509790 4.802556 1.636297
v 1.188713 9.954087 0.112568
v 1.188711 4.802556 1.279802
v 1.188709 3.810127 3.641748
v 0.509790 3.810127 3.305245
v 0.228572 3.810127 2.416569
v 0.509790 3.810127 1.604179
v 1.188709 3.810127 1.267676
v 1.188709 2.792252 3.360660
v 0.509790 2.792252 3.024157
v 0.228572 2.792252 2.211767
v 0.509790 2.792252 1.399378
v 1.188709 2.792252 1.062875
v 1.188709 1.977951 2.985876
v 0.509790 1.977952 2.649373
v 0.228572 1.977952 1.836983
v 0.509790 1.977952 1.024594
v 1.188709 1.977952 0.688091
v 1.188709 1.047451 2.217618
v 0.509790 1.133658 1.920893
v 0.228572 1.341779 1.204535
v 0.509790 1.628496 0.550528
v 1.188709 1.657513 0.476934
v 28.864529 9.954087 3.794070
v 28.864531 4.802556 3.790384
v 29.543449 9.954088 3.266848
v 29.543451 4.802556 3.433890
v 29.824665 9.954087 1.965240
v 29.824669 4.802556 2.496950
v 29.543449 9.954087 0.663633
v 29.543451 4.802556 1.636297
v 28.864529 9.954087 0.112568
v 28.864531 4.802556 1.279802
v 28.864532 3.810127 3.641748
v 29.543451 3.810127 3.305245
v 29.824669 3.810127 2.416569
v 29.543451 3.810127 1.604179
v 28.864532 3.810127 1.267676
v 28.864532 2.792252 3.360660
v 29.543451 2.792252 3.024157
v 29.824669 2.792252 2.211767
v 29.543451 2.792252 1.399378
v 28.864532 2.792252 1.062875
v 28.864532 1.977951 2.985876
v 29.543451 1.977952 2.649373
v 29.824669 1.977952 1.836983
v 29.543451 1.977952 1.024594
v 28.864532 1.977952 0.688091
v 28.864532 1.047451 2.217618
v 29.543451 1.133658 1.920893
v 29.824669 1.341779 1.204535
v 29.543451 1.628496 0.550528
v 28.864532 1.657513 0.476934
v 15.026621 9.954087 0.112568
v 15.026621 4.802556 1.279802
v 15.026621 4.802556 3.790384
v 15.026621 9.954087 3.794070
v 15.026621 3.810127 1.267676
v 15.026621 3.810127 3.641748
v 15.026621 2.792252 1.062875
v 15.026621 2.792252 3.360660
v 15.026621 1.977952 0.688091
v 15.026621 1.977951 2.985876
v 15.026621 1.657513 0.476934
v 15.026621 1.047451 2.217618
vn -0.218787 0.638905 0.737480
vn -0.623371 0.647023 0.439009
vn -0.781182 -0.034822 0.623280
vn -0.256478 -0.066561 0.964232
vn -0.750389 0.660787 -0.015320
vn -0.999908 -0.008362 0.007477
vn -0.637043 0.597705 -0.486709
vn -0.798791 -0.043397 -0.599994
vn -0.231849 0.553056 -0.800195
vn -0.266457 -0.094852 -0.959136
vn 0.000000 -0.105075 -0.994446
vn 0.000000 0.624104 -0.781335
vn 0.000000 0.706839 0.707358
vn 0.000000 -0.074618 0.997192
vn 0.000000 -0.207526 0.978210
vn -0.225257 -0.198401 0.953856
vn -0.999939 -0.009583 0.002380
vn -0.748070 -0.130100 0.650716
vn -0.762261 0.074374 -0.642933
vn -0.232673 0.105991 -0.966735
vn -0.752342 0.204291 -0.626240
vn -0.999603 -0.018403 0.020631
vn 0.000000 -0.343242 0.939238
vn -0.214301 -0.331980 0.918607
vn -0.729820 -0.232856 0.642720
vn -0.221259 0.306864 -0.925657
vn -0.698538 -0.388714 0.600726
vn -0.199072 -0.515458 0.833461
vn -0.156865 0.536576 -0.829096
vn -0.717338 0.412763 -0.561235
vn -0.998596 -0.041688 0.031892
vn 0.000000 -0.531816 0.846828
vn -0.531571 -0.826807 0.183782
vn -0.130894 -0.939756 0.315714
vn -0.097415 -0.260079 -0.960631
vn -0.529283 -0.181127 -0.828852
vn -0.780206 -0.556047 -0.286477
vn 0.000000 -0.963317 0.268349
vn 0.000000 0.105167 -0.994446
vn 0.000000 0.309763 -0.950804
vn 0.000000 0.485549 -0.874203
vn 0.000000 -0.319590 -0.947539
vn 0.218787 0.638905 0.737480
vn 0.256478 -0.066561 0.964232
vn 0.781182 -0.034822 0.623280
vn 0.623371 0.647023 0.439009
vn 0.999908 -0.008362 0.007477
vn 0.750389 0.660787 -0.015320
vn 0.798791 -0.043397 -0.599994
vn 0.637043 0.597705 -0.486709
vn 0.266457 -0.094852 -0.959136
vn 0.231849 0.553056 -0.800195
vn 0.225257 -0.198401 0.953856
vn 0.748070 -0.130131 0.650716
vn 0.999939 -0.009583 0.002380
vn 0.762261 0.074374 -0.642933
vn 0.232673 0.105991 -0.966735
vn 0.999603 -0.018403 0.020631
vn 0.752342 0.204291 -0.626240
vn 0.214301 -0.331980 0.918607
vn 0.729820 -0.232856 0.642720
vn 0.221259 0.306864 -0.925657
vn 0.199072 -0.515458 0.833461
vn 0.698538 -0.388714 0.600726
vn 0.717338 0.412763 -0.561235
vn 0.156865 0.536576 -0.829096
vn 0.998596 -0.041688 0.031892
vn 0.130894 -0.939756 0.315714
vn 0.531571 -0.826807 0.183782
vn 0.529283 -0.181127 -0.828852
vn 0.097415 -0.260079 -0.960631
vn 0.780206 -0.556047 -0.286477
usemtl 
s 1
f 49//49 51//50 52//51 50//52
f 51//50 53//53 54//54 52//51
f 53//53 55//55 56//56 54//54
f 55//55 57//57 58//58 56//56
f 51//50 49//49 57//57
f 57//57 53//53 51//50
f 57//57 55//55 53//53
f 110//59 58//58 57//57 109//60
f 112//61 49//49 50//52 111//62
f 114//63 111//62 50//52 59//64
f 54//54 61//65 60//66 52//51
f 56//56 62//67 61//65 54//54
f 52//51 60//66 59//64 50//52
f 58//58 63//68 62//67 56//56
f 62//67 67//69 66//70 61//65
f 116//71 114//63 59//64 64//72
f 61//65 66//70 65//73 60//66
f 60//66 65//73 64//72 59//64
f 63//68 68//74 67//69 62//67
f 65//73 70//75 69//76 64//72
f 68//74 73//77 72//78 67//69
f 67//69 72//78 71//79 66//70
f 118//80 116//71 64//72 69//76
f 66//70 71//79 70//75 65//73
f 70//75 75//81 74//82 69//76
f 73//77 78//83 77//84 72//78
f 72//78 77//84 76//85 71//79
f 120//86 118//80 69//76 74//82
f 71//79 76//85 75//81 70//75
f 49//49 112//61 109//60 57//57
f 63//68 58//58 110//59 113//87
f 68//74 63//68 113//87 115//88
f 73//77 68//74 115//88 117//89
f 78//83 73//77 117//89 119//90
f 79//91 80//92 82//93 81//94
f 81//94 82//93 84//95 83//96
f 83//96 84//95 86//97 85//98
f 85//98 86//97 88//99 87//100
f 87//100 79//91 81//94
f 87//100 81//94 83//96
f 87//100 83//96 85//98
f 110//59 109//60 87//100 88//99
f 112//61 111//62 80//92 79//91
f 114//63 89//101 80//92 111//62
f 84//95 82//93 90//102 91//103
f 86//97 84//95 91//103 92//104
f 82//93 80//92 89//101 90//102
f 88//99 86//97 92//104 93//105
f 92//104 91//103 96//106 97//107
f 116//71 94//108 89//101 114//63
f 91//103 90//102 95//109 96//106
f 90//102 89//101 94//108 95//109
f 93//105 92//104 97//107 98//110
f 95//109 94//108 99//111 100//112
f 98//110 97//107 102//113 103//114
f 97//107 96//106 101//115 102//113
f 118//80 99//111 94//108 116//71
f 96//106 95//109 100//112 101//115
f 100//112 99//111 104//116 105//117
f 103//114 102//113 107//118 108//119
f 102//113 101//115 106//120 107//118
f 120//86 104//116 99//111 118//80
f 101//115 100//112 105//117 106//120
f 79//91 87//100 109//60 112//61
f 93//105 113//87 110//59 88//99
f 98//110 115//88 113//87 93//105
f 103//114 117//89 115//88 98//110
f 108//119 119//90 117//89 103//114
f 75//81 120//86 74//82
f 105//117 104//116 120//86
f 75//81 105//117 120//86
f 75//81 76//85 105//117
f 76//85 106//120 105//117
f 76//85 77//84 106//120
f 77//84 107//118 106//120
f 77//84 78//83 107//118
f 78//83 108//119 107//118
f 78//83 119//90 108//119
