# RokuSuper Output Ver2.0 for Wavefront Obj

v 28.13669400 5.43578800 2.64082300
v 16.91917200 5.43581200 2.44502000
v 16.92124600 5.48498000 2.32633700
v 28.13876500 5.48495500 2.52213900
v 16.92210200 5.60368100 2.27717700
v 28.13962400 5.60365700 2.47297900
v 16.92124600 5.72238100 2.32633700
v 28.13876500 5.72235700 2.52213900
v 16.91917200 5.77155000 2.44502000
v 28.13669400 5.77152400 2.64082300
v 16.91710100 5.72238100 2.56370300
v 28.13462400 5.72235700 2.75950500
v 16.91624300 5.60368100 2.61286200
v 28.13376400 5.60365500 2.80866600
v 16.91710100 5.48497900 2.56370300
v 28.13462300 5.48495500 2.75950500
v 28.13669400 5.37983100 2.64082300
v 28.13945600 5.44538800 2.48257800
v 28.14060000 5.60365500 2.41703200
v 28.13945600 5.76192500 2.48257800
v 28.13669400 5.82748200 2.64082300
v 28.13393000 5.76192500 2.79906600
v 28.13278800 5.60365700 2.86461400
v 28.13393000 5.44538800 2.79906600
v 22.49018300 5.34619500 2.28476100
v 14.24318000 5.20880000 2.00218700
v 14.23626800 5.04524300 2.39819000
v 22.48568900 5.23955000 2.54218400
v 14.22935600 5.20880000 2.79419300
v 22.48119500 5.34619500 2.79960700
v 14.22649300 5.60366000 2.95822200
v 22.47933400 5.60365500 2.90623500
v 14.22935600 5.99851900 2.79419300
v 22.48119500 5.86111800 2.79960700
v 14.23626800 6.16207600 2.39819000
v 22.48568900 5.96776300 2.54218400
v 14.24318000 5.99851900 2.00218700
v 22.49018300 5.86111800 2.28476100
v 14.24604400 5.60366000 1.83815800
v 22.49204400 5.60365500 2.17813300
v 22.57652500 5.40039700 2.34047900
v 22.57297700 5.31620400 2.54370800
v 22.56942900 5.40039700 2.74693600
v 22.56796100 5.60365500 2.83111600
v 22.56942900 5.80691600 2.74693600
v 22.57297700 5.89110900 2.54370800
v 22.57652500 5.80691600 2.34047900
v 22.57799300 5.60365500 2.25630000
v 28.05004500 5.33506600 2.63931000
v 28.05335800 5.41373500 2.44941700
v 28.05473100 5.60365500 2.37076200
v 28.05335800 5.79357800 2.44941700
v 28.05004500 5.87224700 2.63931000
v 28.04673000 5.79357800 2.82920300
v 28.04535700 5.60365500 2.90785900
v 28.04673000 5.41373500 2.82920300
v 16.92124600 9.51501900 2.32633700
v 16.91917200 9.56418800 2.44502000
v 28.13669400 9.56421200 2.64082300
v 28.13876500 9.51504500 2.52213900
v 16.92210200 9.39631900 2.27717700
v 28.13962400 9.39634400 2.47297900
v 16.92124600 9.27761900 2.32633700
v 28.13876500 9.27764300 2.52213900
v 16.91917200 9.22845100 2.44502000
v 28.13669400 9.22847600 2.64082300
v 16.91710100 9.27761900 2.56370300
v 28.13462300 9.27764300 2.75950500
v 16.91624300 9.39631900 2.61286400
v 28.13376400 9.39634400 2.80866600
v 16.91710100 9.51501900 2.56370300
v 28.13462300 9.51504500 2.75950500
v 28.13669400 9.62017000 2.64082300
v 28.13945600 9.55461200 2.48257800
v 28.14060000 9.39634400 2.41703200
v 28.13945600 9.23807500 2.48257800
v 28.13669400 9.17251800 2.64082300
v 28.13393000 9.23807500 2.79906600
v 28.13278800 9.39634400 2.86461400
v 28.13393000 9.55461200 2.79906600
v 14.23626800 9.95475700 2.39819000
v 14.24318000 9.79120000 2.00218700
v 22.49018300 9.65380600 2.28476100
v 22.48568900 9.76045000 2.54218400
v 14.22935600 9.79120000 2.79419300
v 22.48119500 9.65380600 2.79960700
v 14.22649300 9.39634000 2.95822200
v 22.47933400 9.39634400 2.90623500
v 14.22935600 9.00148100 2.79419300
v 22.48119500 9.13888200 2.79960700
v 14.23626800 8.83792400 2.39819000
v 22.48568900 9.03223700 2.54218400
v 14.24318000 9.00148100 2.00218700
v 22.49018300 9.13888200 2.28476100
v 14.24604400 9.39634000 1.83815800
v 22.49204400 9.39634400 2.17813300
v 22.57652500 9.59960400 2.34047900
v 22.57297700 9.68379600 2.54370800
v 22.56942900 9.59960400 2.74693600
v 22.56796100 9.39634400 2.83111600
v 22.56942900 9.19308400 2.74693600
v 22.57297700 9.10889100 2.54370800
v 22.57652500 9.19308400 2.34047900
v 22.57799300 9.39634400 2.25630000
v 28.05004500 9.66493400 2.63931000
v 28.05335800 9.58626500 2.44941700
v 28.05473100 9.39634400 2.37076200
v 28.05335800 9.20642300 2.44941700
v 28.05004500 9.12775300 2.63931000
v 28.04673000 9.20642300 2.82920300
v 28.04535700 9.39634400 2.90785900
v 28.04673000 9.58626500 2.82920300

vn -0.00238487 0.99060236 0.13675262
vn 0.00238915 0.99060228 -0.13675308
vn -0.01053509 0.79717549 0.60365574
vn -0.01391128 0.60374621 0.79705520
vn -0.01391128 0.60374621 0.79705520
vn -0.01053509 0.79717549 0.60365574
vn -0.01728805 0.13677142 0.99045177
vn -0.01728863 -0.13677550 0.99045119
vn -0.01728863 -0.13677550 0.99045119
vn -0.01728805 0.13677142 0.99045177
vn -0.01391384 -0.60375114 0.79705142
vn -0.01053861 -0.79717503 0.60365629
vn -0.01053861 -0.79717503 0.60365629
vn -0.01391384 -0.60375114 0.79705142
vn -0.00238928 -0.99060215 0.13675408
vn 0.00238479 -0.99060233 -0.13675285
vn 0.00238479 -0.99060233 -0.13675285
vn -0.00238928 -0.99060215 0.13675408
vn 0.01053510 -0.79717406 -0.60365762
vn 0.01391136 -0.60374533 -0.79705586
vn 0.01391136 -0.60374533 -0.79705586
vn 0.01053510 -0.79717406 -0.60365762
vn 0.01728818 -0.13677037 -0.99045191
vn 0.01728875 0.13677476 -0.99045129
vn 0.01728875 0.13677476 -0.99045129
vn 0.01728818 -0.13677037 -0.99045191
vn 0.01391396 0.60374810 -0.79705372
vn 0.01053856 0.79717435 -0.60365718
vn 0.01053856 0.79717435 -0.60365718
vn 0.01391396 0.60374810 -0.79705372
vn 0.00238915 0.99060228 -0.13675308
vn -0.00238487 0.99060236 0.13675262
vn 0.99984773 0.00000401 0.01745022
vn 0.99984758 -0.00001189 0.01745918
vn 0.99984766 0.00000530 0.01745448
vn 0.99984771 0.00000137 0.01745153
vn 0.99984771 0.00000137 0.01745153
vn 0.99984766 0.00000530 0.01745448
vn 0.99984777 -0.00000148 0.01744833
vn 0.99984773 -0.00000211 0.01745030
vn 0.99984773 -0.00000211 0.01745030
vn 0.99984777 -0.00000148 0.01744833
vn 0.99984766 -0.00000119 0.01745450
vn 0.99984763 -0.00000233 0.01745604
vn 0.99984763 -0.00000233 0.01745604
vn 0.99984766 -0.00000119 0.01745450
vn 0.99984764 -0.00000300 0.01745540
vn 0.99984756 0.00002379 0.01745989
vn 0.99984756 0.00002379 0.01745989
vn 0.99984764 -0.00000300 0.01745540
vn 0.99984723 0.00003552 0.01747909
vn 0.99984736 0.00002879 0.01747174
vn 0.99984736 0.00002879 0.01747174
vn 0.99984723 0.00003552 0.01747909
vn 0.99984751 0.00000190 0.01746296
vn 0.99984753 -0.00001413 0.01746197
vn 0.99984753 -0.00001413 0.01746197
vn 0.99984751 0.00000190 0.01746296
vn 0.99984731 -0.00001928 0.01747423
vn 0.99984728 -0.00001619 0.01747597
vn 0.99984728 -0.00001619 0.01747597
vn 0.99984731 -0.00001928 0.01747423
vn 0.99984758 -0.00001189 0.01745918
vn 0.99984773 0.00000401 0.01745022
vn 0.03391612 -0.79738078 -0.60252269
vn 0.38052974 -0.65727256 -0.65053048
vn 0.36901344 -0.92940075 0.00658290
vn 0.02094661 -0.99033795 0.13708384
vn 0.02094661 -0.99033795 0.13708384
vn 0.36901344 -0.92940075 0.00658290
vn 0.35761790 -0.65726599 0.66340851
vn 0.00954927 -0.60414304 0.79681867
vn 0.00954927 -0.60414304 0.79681867
vn 0.35761790 -0.65726599 0.66340851
vn 0.35291243 -0.00014209 0.93565635
vn 0.00622704 0.13677560 0.99058248
vn 0.00622704 0.13677560 0.99058248
vn 0.35291243 -0.00014209 0.93565635
vn 0.35759498 0.65727106 0.66341585
vn 0.01286833 0.79738090 0.60333913
vn 0.01286833 0.79738090 0.60333913
vn 0.35759498 0.65727106 0.66341585
vn 0.36901823 0.92940079 0.00630163
vn 0.02571872 0.99033794 -0.13626927
vn 0.02571872 0.99033794 -0.13626927
vn 0.36901823 0.92940079 0.00630163
vn 0.38055501 0.65726376 -0.65052459
vn 0.03735249 0.60414215 -0.79600066
vn 0.03735249 0.60414215 -0.79600066
vn 0.38055501 0.65726376 -0.65052459
vn 0.38535829 0.00013950 -0.92276702
vn 0.04079392 -0.13677643 -0.98976162
vn 0.04079392 -0.13677643 -0.98976162
vn 0.38535829 0.00013950 -0.92276702
vn 0.38052974 -0.65727256 -0.65053048
vn 0.03391612 -0.79738078 -0.60252269
vn 0.38052974 -0.65727256 -0.65053048
vn 0.37136593 -0.65972218 -0.65334064
vn 0.35985049 -0.93298882 0.00628298
vn 0.36901344 -0.92940075 0.00658290
vn 0.36901344 -0.92940075 0.00658290
vn 0.35985049 -0.93298882 0.00628298
vn 0.34833695 -0.65972352 0.66590258
vn 0.35761790 -0.65726599 0.66340851
vn 0.35761790 -0.65726599 0.66340851
vn 0.34833695 -0.65972352 0.66590258
vn 0.34356676 -0.00000182 0.93912826
vn 0.35291243 -0.00014209 0.93565635
vn 0.35291243 -0.00014209 0.93565635
vn 0.34356676 -0.00000182 0.93912826
vn 0.34833614 0.65972143 0.66590508
vn 0.35759498 0.65727106 0.66341585
vn 0.35759498 0.65727106 0.66341585
vn 0.34833614 0.65972143 0.66590508
vn 0.35985117 0.93298856 0.00628277
vn 0.36901823 0.92940079 0.00630163
vn 0.36901823 0.92940079 0.00630163
vn 0.35985117 0.93298856 0.00628277
vn 0.37136462 0.65971963 -0.65334396
vn 0.38055501 0.65726376 -0.65052459
vn 0.38055501 0.65726376 -0.65052459
vn 0.37136462 0.65971963 -0.65334396
vn 0.37613834 -0.00000073 -0.92656352
vn 0.38535829 0.00013950 -0.92276702
vn 0.38535829 0.00013950 -0.92276702
vn 0.37613834 -0.00000073 -0.92656352
vn 0.37136593 -0.65972218 -0.65334064
vn 0.38052974 -0.65727256 -0.65053048
vn 0.45757220 -0.88186125 -0.11379114
vn 0.23961772 -0.97085831 0.00418283
vn 0.25159349 -0.68649944 -0.68221642
vn 0.46782589 -0.53747433 -0.70161263
vn 0.46782589 -0.53747433 -0.70161263
vn 0.25159349 -0.68649944 -0.68221642
vn 0.25655485 -0.00000264 -0.96652967
vn 0.47083079 0.12175576 -0.87378138
vn 0.47083079 0.12175576 -0.87378138
vn 0.25655485 -0.00000264 -0.96652967
vn 0.25159231 0.68649747 -0.68221883
vn 0.46482500 0.70966507 -0.52944613
vn 0.46482500 0.70966507 -0.52944613
vn 0.25159231 0.68649747 -0.68221883
vn 0.23961537 0.97085889 0.00418239
vn 0.45332782 0.88185778 0.12969480
vn 0.45332782 0.88185778 0.12969480
vn 0.23961537 0.97085889 0.00418239
vn 0.22763848 0.68649770 0.69058065
vn 0.44306347 0.53747231 0.71750838
vn 0.44306347 0.53747231 0.71750838
vn 0.22763848 0.68649770 0.69058065
vn 0.22267142 -0.00000081 0.97489355
vn 0.44005891 -0.12175815 0.88967585
vn 0.44005891 -0.12175815 0.88967585
vn 0.22267142 -0.00000081 0.97489355
vn 0.22763776 -0.68650061 0.69057800
vn 0.44607368 -0.70966423 0.54533930
vn 0.44607368 -0.70966423 0.54533930
vn 0.22763776 -0.68650061 0.69057800
vn 0.23961772 -0.97085831 0.00418283
vn 0.45757220 -0.88186125 -0.11379114
vn 0.22763776 -0.68650061 0.69057800
vn 0.34833695 -0.65972352 0.66590258
vn 0.35985049 -0.93298882 0.00628298
vn 0.23961772 -0.97085831 0.00418283
vn 0.23961772 -0.97085831 0.00418283
vn 0.35985049 -0.93298882 0.00628298
vn 0.37136593 -0.65972218 -0.65334064
vn 0.25159349 -0.68649944 -0.68221642
vn 0.25159349 -0.68649944 -0.68221642
vn 0.37136593 -0.65972218 -0.65334064
vn 0.37613834 -0.00000073 -0.92656352
vn 0.25655485 -0.00000264 -0.96652967
vn 0.25655485 -0.00000264 -0.96652967
vn 0.37613834 -0.00000073 -0.92656352
vn 0.37136462 0.65971963 -0.65334396
vn 0.25159231 0.68649747 -0.68221883
vn 0.25159231 0.68649747 -0.68221883
vn 0.37136462 0.65971963 -0.65334396
vn 0.35985117 0.93298856 0.00628277
vn 0.23961537 0.97085889 0.00418239
vn 0.23961537 0.97085889 0.00418239
vn 0.35985117 0.93298856 0.00628277
vn 0.34833614 0.65972143 0.66590508
vn 0.22763848 0.68649770 0.69058065
vn 0.22763848 0.68649770 0.69058065
vn 0.34833614 0.65972143 0.66590508
vn 0.34356676 -0.00000182 0.93912826
vn 0.22267142 -0.00000081 0.97489355
vn 0.22267142 -0.00000081 0.97489355
vn 0.34356676 -0.00000182 0.93912826
vn 0.34833695 -0.65972352 0.66590258
vn 0.22763776 -0.68650061 0.69057800
vn -0.00238481 -0.99060263 0.13675069
vn -0.01391123 -0.60374609 0.79705529
vn -0.01053507 -0.79717454 0.60365699
vn 0.00238929 -0.99060160 -0.13675801
vn -0.01391123 -0.60374609 0.79705529
vn -0.01728864 0.13677357 0.99045146
vn -0.01728803 -0.13677437 0.99045136
vn -0.01053507 -0.79717454 0.60365699
vn -0.01728864 0.13677357 0.99045146
vn -0.01053854 0.79717653 0.60365431
vn -0.01391386 0.60375031 0.79705204
vn -0.01728803 -0.13677437 0.99045136
vn -0.01053854 0.79717653 0.60365431
vn 0.00238484 0.99060237 -0.13675256
vn -0.00238918 0.99060248 0.13675163
vn -0.01391386 0.60375031 0.79705204
vn 0.00238484 0.99060237 -0.13675256
vn 0.01391123 0.60375185 -0.79705093
vn 0.01053508 0.79717611 -0.60365493
vn -0.00238918 0.99060248 0.13675163
vn 0.01391123 0.60375185 -0.79705093
vn 0.01728866 -0.13677631 -0.99045108
vn 0.01728804 0.13677718 -0.99045097
vn 0.01053508 0.79717611 -0.60365493
vn 0.01728866 -0.13677631 -0.99045108
vn 0.01053863 -0.79717514 -0.60365614
vn 0.01391391 -0.60375288 -0.79705010
vn 0.01728804 0.13677718 -0.99045097
vn 0.01053863 -0.79717514 -0.60365614
vn -0.00238481 -0.99060263 0.13675069
vn 0.00238929 -0.99060160 -0.13675801
vn 0.01391391 -0.60375288 -0.79705010
vn 0.99984773 -0.00000401 0.01745022
vn 0.99984771 -0.00000137 0.01745153
vn 0.99984766 -0.00000530 0.01745448
vn 0.99984758 0.00001189 0.01745918
vn 0.99984771 -0.00000137 0.01745153
vn 0.99984773 0.00000211 0.01745030
vn 0.99984777 0.00000148 0.01744833
vn 0.99984766 -0.00000530 0.01745448
vn 0.99984773 0.00000211 0.01745030
vn 0.99984763 0.00000233 0.01745604
vn 0.99984766 0.00000119 0.01745450
vn 0.99984777 0.00000148 0.01744833
vn 0.99984763 0.00000233 0.01745604
vn 0.99984757 -0.00001585 0.01745940
vn 0.99984764 0.00000300 0.01745540
vn 0.99984766 0.00000119 0.01745450
vn 0.99984757 -0.00001585 0.01745940
vn 0.99984747 -0.00002119 0.01746531
vn 0.99984734 -0.00002511 0.01747265
vn 0.99984764 0.00000300 0.01745540
vn 0.99984747 -0.00002119 0.01746531
vn 0.99984753 0.00001132 0.01746197
vn 0.99984761 -0.00000224 0.01745700
vn 0.99984734 -0.00002511 0.01747265
vn 0.99984753 0.00001132 0.01746197
vn 0.99984728 0.00001619 0.01747597
vn 0.99984731 0.00001928 0.01747423
vn 0.99984761 -0.00000224 0.01745700
vn 0.99984728 0.00001619 0.01747597
vn 0.99984773 -0.00000401 0.01745022
vn 0.99984758 0.00001189 0.01745918
vn 0.99984731 0.00001928 0.01747423
vn 0.03391604 0.79738147 -0.60252178
vn 0.02094659 0.99033811 0.13708270
vn 0.36901324 0.92940083 0.00658241
vn 0.38052990 0.65727299 -0.65052994
vn 0.02094659 0.99033811 0.13708270
vn 0.00954922 0.60414228 0.79681925
vn 0.35761804 0.65726581 0.66340862
vn 0.36901324 0.92940083 0.00658241
vn 0.00954922 0.60414228 0.79681925
vn 0.00622704 -0.13677607 0.99058242
vn 0.35291251 0.00014046 0.93565632
vn 0.35761804 0.65726581 0.66340862
vn 0.00622704 -0.13677607 0.99058242
vn 0.01286833 -0.79738090 0.60333913
vn 0.35759498 -0.65727139 0.66341551
vn 0.35291251 0.00014046 0.93565632
vn 0.01286833 -0.79738090 0.60333913
vn 0.02571872 -0.99033794 -0.13626927
vn 0.36901823 -0.92940079 0.00630163
vn 0.35759498 -0.65727139 0.66341551
vn 0.02571872 -0.99033794 -0.13626927
vn 0.03735247 -0.60414253 -0.79600038
vn 0.38055492 -0.65726426 -0.65052413
vn 0.36901823 -0.92940079 0.00630163
vn 0.03735247 -0.60414253 -0.79600038
vn 0.04079391 0.13677549 -0.98976175
vn 0.38535813 -0.00014133 -0.92276709
vn 0.38055492 -0.65726426 -0.65052413
vn 0.04079391 0.13677549 -0.98976175
vn 0.03391604 0.79738147 -0.60252178
vn 0.38052990 0.65727299 -0.65052994
vn 0.38535813 -0.00014133 -0.92276709
vn 0.38052990 0.65727299 -0.65052994
vn 0.36901324 0.92940083 0.00658241
vn 0.35985024 0.93298892 0.00628337
vn 0.37136619 0.65972206 -0.65334062
vn 0.36901324 0.92940083 0.00658241
vn 0.35761804 0.65726581 0.66340862
vn 0.34833731 0.65972371 0.66590220
vn 0.35985024 0.93298892 0.00628337
vn 0.35761804 0.65726581 0.66340862
vn 0.35291251 0.00014046 0.93565632
vn 0.34356660 -0.00000082 0.93912832
vn 0.34833731 0.65972371 0.66590220
vn 0.35291251 0.00014046 0.93565632
vn 0.35759498 -0.65727139 0.66341551
vn 0.34833598 -0.65972160 0.66590499
vn 0.34356660 -0.00000082 0.93912832
vn 0.35759498 -0.65727139 0.66341551
vn 0.36901823 -0.92940079 0.00630163
vn 0.35985128 -0.93298852 0.00628218
vn 0.34833598 -0.65972160 0.66590499
vn 0.36901823 -0.92940079 0.00630163
vn 0.38055492 -0.65726426 -0.65052413
vn 0.37136459 -0.65972041 -0.65334319
vn 0.35985128 -0.93298852 0.00628218
vn 0.38055492 -0.65726426 -0.65052413
vn 0.38535813 -0.00014133 -0.92276709
vn 0.37613844 -0.00000150 -0.92656347
vn 0.37136459 -0.65972041 -0.65334319
vn 0.38535813 -0.00014133 -0.92276709
vn 0.38052990 0.65727299 -0.65052994
vn 0.37136619 0.65972206 -0.65334062
vn 0.37613844 -0.00000150 -0.92656347
vn 0.45756738 0.88186373 -0.11379131
vn 0.46782598 0.53747208 -0.70161429
vn 0.25159252 0.68649850 -0.68221772
vn 0.23961423 0.97085916 0.00418375
vn 0.46782598 0.53747208 -0.70161429
vn 0.47082976 -0.12175843 -0.87378156
vn 0.25655477 0.00000011 -0.96652969
vn 0.25159252 0.68649850 -0.68221772
vn 0.47082976 -0.12175843 -0.87378156
vn 0.46482127 -0.70966618 -0.52944793
vn 0.25158947 -0.68649818 -0.68221916
vn 0.25655477 0.00000011 -0.96652969
vn 0.46482127 -0.70966618 -0.52944793
vn 0.45332500 -0.88185895 0.12969667
vn 0.23961448 -0.97085911 0.00418217
vn 0.25158947 -0.68649818 -0.68221916
vn 0.45332500 -0.88185895 0.12969667
vn 0.44306220 -0.53747374 0.71750809
vn 0.22763621 -0.68649807 0.69058102
vn 0.23961448 -0.97085911 0.00418217
vn 0.44306220 -0.53747374 0.71750809
vn 0.44005905 0.12175969 0.88967557
vn 0.22267022 -0.00000100 0.97489383
vn 0.22763621 -0.68649807 0.69058102
vn 0.44005905 0.12175969 0.88967557
vn 0.44607047 0.70966513 0.54534075
vn 0.22763703 0.68650070 0.69057814
vn 0.22267022 -0.00000100 0.97489383
vn 0.44607047 0.70966513 0.54534075
vn 0.45756738 0.88186373 -0.11379131
vn 0.23961423 0.97085916 0.00418375
vn 0.22763703 0.68650070 0.69057814
vn 0.22763703 0.68650070 0.69057814
vn 0.23961423 0.97085916 0.00418375
vn 0.35985024 0.93298892 0.00628337
vn 0.34833731 0.65972371 0.66590220
vn 0.23961423 0.97085916 0.00418375
vn 0.25159252 0.68649850 -0.68221772
vn 0.37136619 0.65972206 -0.65334062
vn 0.35985024 0.93298892 0.00628337
vn 0.25159252 0.68649850 -0.68221772
vn 0.25655477 0.00000011 -0.96652969
vn 0.37613844 -0.00000150 -0.92656347
vn 0.37136619 0.65972206 -0.65334062
vn 0.25655477 0.00000011 -0.96652969
vn 0.25158947 -0.68649818 -0.68221916
vn 0.37136459 -0.65972041 -0.65334319
vn 0.37613844 -0.00000150 -0.92656347
vn 0.25158947 -0.68649818 -0.68221916
vn 0.23961448 -0.97085911 0.00418217
vn 0.35985128 -0.93298852 0.00628218
vn 0.37136459 -0.65972041 -0.65334319
vn 0.23961448 -0.97085911 0.00418217
vn 0.22763621 -0.68649807 0.69058102
vn 0.34833598 -0.65972160 0.66590499
vn 0.35985128 -0.93298852 0.00628218
vn 0.22763621 -0.68649807 0.69058102
vn 0.22267022 -0.00000100 0.97489383
vn 0.34356660 -0.00000082 0.93912832
vn 0.34833598 -0.65972160 0.66590499
vn 0.22267022 -0.00000100 0.97489383
vn 0.22763703 0.68650070 0.69057814
vn 0.34833731 0.65972371 0.66590220
vn 0.34356660 -0.00000082 0.93912832

g ²ã
f 2//1 1//2 4//3 3//4
f 3//5 4//6 6//7 5//8
f 5//9 6//10 8//11 7//12
f 7//13 8//14 10//15 9//16
f 9//17 10//18 12//19 11//20
f 11//21 12//22 14//23 13//24
f 13//25 14//26 16//27 15//28
f 15//29 16//30 1//31 2//32
f 1//33 17//34 18//35 4//36
f 4//37 18//38 19//39 6//40
f 6//41 19//42 20//43 8//44
f 8//45 20//46 21//47 10//48
f 10//49 21//50 22//51 12//52
f 12//53 22//54 23//55 14//56
f 14//57 23//58 24//59 16//60
f 16//61 24//62 17//63 1//64
f 26//65 25//66 28//67 27//68
f 27//69 28//70 30//71 29//72
f 29//73 30//74 32//75 31//76
f 31//77 32//78 34//79 33//80
f 33//81 34//82 36//83 35//84
f 35//85 36//86 38//87 37//88
f 37//89 38//90 40//91 39//92
f 39//93 40//94 25//95 26//96
f 25//97 41//98 42//99 28//100
f 28//101 42//102 43//103 30//104
f 30//105 43//106 44//107 32//108
f 32//109 44//110 45//111 34//112
f 34//113 45//114 46//115 36//116
f 36//117 46//118 47//119 38//120
f 38//121 47//122 48//123 40//124
f 40//125 48//126 41//127 25//128
f 17//129 49//130 50//131 18//132
f 18//133 50//134 51//135 19//136
f 19//137 51//138 52//139 20//140
f 20//141 52//142 53//143 21//144
f 21//145 53//146 54//147 22//148
f 22//149 54//150 55//151 23//152
f 23//153 55//154 56//155 24//156
f 24//157 56//158 49//159 17//160
f 56//161 43//162 42//163 49//164
f 49//165 42//166 41//167 50//168
f 50//169 41//170 48//171 51//172
f 51//173 48//174 47//175 52//176
f 52//177 47//178 46//179 53//180
f 53//181 46//182 45//183 54//184
f 54//185 45//186 44//187 55//188
f 55//189 44//190 43//191 56//192
f 58//193 57//194 60//195 59//196
f 57//197 61//198 62//199 60//200
f 61//201 63//202 64//203 62//204
f 63//205 65//206 66//207 64//208
f 65//209 67//210 68//211 66//212
f 67//213 69//214 70//215 68//216
f 69//217 71//218 72//219 70//220
f 71//221 58//222 59//223 72//224
f 59//225 60//226 74//227 73//228
f 60//229 62//230 75//231 74//232
f 62//233 64//234 76//235 75//236
f 64//237 66//238 77//239 76//240
f 66//241 68//242 78//243 77//244
f 68//245 70//246 79//247 78//248
f 70//249 72//250 80//251 79//252
f 72//253 59//254 73//255 80//256
f 82//257 81//258 84//259 83//260
f 81//261 85//262 86//263 84//264
f 85//265 87//266 88//267 86//268
f 87//269 89//270 90//271 88//272
f 89//273 91//274 92//275 90//276
f 91//277 93//278 94//279 92//280
f 93//281 95//282 96//283 94//284
f 95//285 82//286 83//287 96//288
f 83//289 84//290 98//291 97//292
f 84//293 86//294 99//295 98//296
f 86//297 88//298 100//299 99//300
f 88//301 90//302 101//303 100//304
f 90//305 92//306 102//307 101//308
f 92//309 94//310 103//311 102//312
f 94//313 96//314 104//315 103//316
f 96//317 83//318 97//319 104//320
f 73//321 74//322 106//323 105//324
f 74//325 75//326 107//327 106//328
f 75//329 76//330 108//331 107//332
f 76//333 77//334 109//335 108//336
f 77//337 78//338 110//339 109//340
f 78//341 79//342 111//343 110//344
f 79//345 80//346 112//347 111//348
f 80//349 73//350 105//351 112//352
f 112//353 105//354 98//355 99//356
f 105//357 106//358 97//359 98//360
f 106//361 107//362 104//363 97//364
f 107//365 108//366 103//367 104//368
f 108//369 109//370 102//371 103//372
f 109//373 110//374 101//375 102//376
f 110//377 111//378 100//379 101//380
f 111//381 112//382 99//383 100//384

