# RokuSuper Output Ver2.0 for Wavefront Obj

v 8.27872800 4.98492100 4.93012300
v 8.53505100 5.13291000 4.93012300
v 8.53505100 4.83692900 4.93012300
v 8.79137600 4.98492100 4.93012300
v 8.79137600 5.28089900 4.93012300
v 8.53505100 5.42889000 4.93012300
v 8.27872800 5.28089900 4.93012300
v 8.53505100 4.83692900 3.17249900
v 8.53505100 5.13291000 3.17249900
v 8.27872800 4.98492100 3.17249900
v 8.79137600 4.98492100 3.17249900
v 8.79137600 5.28089900 3.17249900
v 8.53505100 5.42889000 3.17249900
v 8.27872800 5.28089900 3.17249900
v 5.13321500 6.15345300 4.77114600
v 5.13321500 6.15345300 4.94433300
v 3.04330600 6.15345300 4.94433300
v 2.82291200 6.15345300 4.77114600
v 5.13321500 6.15345300 4.40081800
v 2.64448000 6.15345300 4.40081800
v 5.13321500 6.15345300 4.03049100
v 2.82291200 6.15345300 4.03049100
v 5.13321500 6.15345300 3.85730500
v 3.04330600 6.15345300 3.85730500
v 2.82291200 3.40705500 4.77114600
v 3.04330600 3.40705500 4.94433300
v 5.13321500 3.40705500 4.94433300
v 5.13321500 3.40705500 4.77114600
v 2.64448000 3.40705500 4.40081800
v 5.13321500 3.40705500 4.40081800
v 2.82291200 3.40705500 4.03049100
v 5.13321500 3.40705500 4.03049100
v 3.04330600 3.40705500 3.85730500
v 5.13321500 3.40705500 3.85730500
v -1.73792800 8.71798000 1.22438200
v -1.10176300 5.71116300 1.22438200
v -1.69166600 8.72374200 4.42928100
v -1.84692800 10.11102000 4.38005600
v 1.70799800 10.11102000 5.22806600
v -0.64390800 10.11102000 1.22438200
v -0.64390800 4.30252100 1.22438200
v -1.89319000 10.11102000 1.22438200
v 1.70799800 6.38397400 5.22806600
v 7.56405300 10.11102000 5.22806600
v 7.56405300 6.51735100 5.22806600
v 13.59282300 10.11102000 3.55300700
v 13.59282300 5.30921200 3.55300700
v 14.22101600 5.30921200 1.22438200
v 14.22101600 10.11102000 1.22438200
v -1.89319000 10.11102000 3.55300800
v -1.73792800 8.71798000 3.55300700
v -0.64390800 4.30252100 3.55300800
v -1.10176300 5.71116300 3.55300800
v -1.09823800 7.44229600 4.56776300
v 7.56405300 4.30252100 3.55300700
v 7.56405300 10.11102000 1.22438200
v 7.56405300 4.30252100 1.22438200
v -1.73792800 11.50406000 1.22438200
v -1.14512400 10.11102000 1.22438200
v -1.10176300 14.51087800 1.22438200
v -1.69166600 11.49829900 4.42928100
v -0.64390800 15.91952000 1.22438200
v 1.70799800 13.83806600 5.22806600
v 7.56405300 13.70469000 5.22806600
v 13.59282300 14.91282900 3.55300700
v 14.22101600 14.91282900 1.22438200
v -1.73792800 11.50406000 3.55300800
v -1.10176300 14.51087800 3.55300800
v -0.64390800 15.91952000 3.55300800
v -1.09823800 12.77974400 4.56776300
v 7.56405300 15.91952000 3.55300700
v 7.56405300 15.91952000 1.22438200
v 8.53505100 15.08913000 4.93012300
v 8.27872800 15.23712200 4.93012300
v 8.53505100 15.38511100 4.93012300
v 8.79137600 15.23712200 4.93012300
v 8.79137600 14.94114100 4.93012300
v 8.53505100 14.79315100 4.93012300
v 8.27872800 14.94114100 4.93012300
v 8.53505100 15.08913000 3.17249900
v 8.53505100 15.38511100 3.17249900
v 8.27872800 15.23712200 3.17249900
v 8.79137600 15.23712200 3.17249900
v 8.79137600 14.94114100 3.17249900
v 8.53505100 14.79315100 3.17249900
v 8.27872800 14.94114100 3.17249900
v 3.04330600 14.06858800 4.94433300
v 5.13321500 14.06858800 4.94433300
v 5.13321500 14.06858800 4.77114600
v 2.82291200 14.06858800 4.77114600
v 5.13321500 14.06858800 4.40081800
v 2.64448000 14.06858800 4.40081800
v 5.13321500 14.06858800 4.03049100
v 2.82291200 14.06858800 4.03049100
v 5.13321500 14.06858800 3.85730500
v 3.04330600 14.06858800 3.85730500
v 5.13321500 16.81498700 4.94433300
v 3.04330600 16.81498700 4.94433300
v 2.82291200 16.81498700 4.77114600
v 5.13321500 16.81498700 4.77114600
v 2.64448000 16.81498700 4.40081800
v 5.13321500 16.81498700 4.40081800
v 2.82291200 16.81498700 4.03049100
v 5.13321500 16.81498700 4.03049100
v 3.04330600 16.81498700 3.85730500
v 5.13321500 16.81498700 3.85730500

vn 0.00000000 0.00000000 1.00000000
vn 0.00000000 0.00000000 1.00000000
vn 0.00000000 0.00000000 1.00000000
vn 0.00000000 0.00000000 1.00000000
vn 0.00000000 0.00000000 1.00000000
vn 0.00000000 0.00000000 1.00000000
vn 0.00000000 0.00000000 1.00000000
vn 0.00000000 0.00000000 1.00000000
vn 0.00000000 0.00000000 1.00000000
vn 0.00000000 0.00000000 1.00000000
vn 0.00000000 0.00000000 1.00000000
vn 0.00000000 0.00000000 1.00000000
vn 0.00000000 0.00000000 1.00000000
vn 0.00000000 0.00000000 1.00000000
vn 0.00000000 0.00000000 1.00000000
vn 0.00000000 0.00000000 1.00000000
vn 0.00000000 0.00000000 1.00000000
vn 0.00000000 0.00000000 1.00000000
vn 0.00000000 0.00000000 -1.00000000
vn 0.00000000 0.00000000 -1.00000000
vn 0.00000000 0.00000000 -1.00000000
vn 0.00000000 0.00000000 -1.00000000
vn 0.00000000 0.00000000 -1.00000000
vn 0.00000000 0.00000000 -1.00000000
vn 0.00000000 0.00000000 -1.00000000
vn 0.00000000 0.00000000 -1.00000000
vn 0.00000000 0.00000000 -1.00000000
vn 0.00000000 0.00000000 -1.00000000
vn 0.00000000 0.00000000 -1.00000000
vn 0.00000000 0.00000000 -1.00000000
vn 0.00000000 0.00000000 -1.00000000
vn 0.00000000 0.00000000 -1.00000000
vn 0.00000000 0.00000000 -1.00000000
vn 0.00000000 0.00000000 -1.00000000
vn 0.00000000 0.00000000 -1.00000000
vn 0.00000000 0.00000000 -1.00000000
vn -0.75593421 -0.65464759 0.00000000
vn -0.94491224 -0.32732380 0.00000000
vn -0.50000975 -0.86601978 0.00000000
vn -0.50000975 -0.86601978 0.00000000
vn 0.50000682 -0.86602147 0.00000000
vn 0.50000682 -0.86602147 0.00000000
vn 0.75593263 -0.65464942 0.00000000
vn 0.94491192 -0.32732471 0.00000000
vn 0.94491192 -0.32732471 0.00000000
vn 0.75593263 -0.65464942 0.00000000
vn 0.94491165 0.32732550 0.00000000
vn 0.75593126 0.65465100 0.00000000
vn 0.75593126 0.65465100 0.00000000
vn 0.94491165 0.32732550 0.00000000
vn 0.50000429 0.86602293 0.00000000
vn 0.50000429 0.86602293 0.00000000
vn -0.50000721 0.86602124 0.00000000
vn -0.50000721 0.86602124 0.00000000
vn -0.75593284 0.65464917 0.00000000
vn -0.94491196 0.32732459 0.00000000
vn -0.94491196 0.32732459 0.00000000
vn -0.75593284 0.65464917 0.00000000
vn -0.94491224 -0.32732380 0.00000000
vn -0.75593421 -0.65464759 0.00000000
vn 0.00000000 1.00000000 0.00000000
vn 0.00000000 1.00000000 0.00000000
vn 0.00000000 1.00000000 0.00000000
vn 0.00000000 1.00000000 0.00000000
vn 0.00000000 1.00000000 0.00000000
vn 0.00000000 1.00000000 0.00000000
vn 0.00000000 1.00000000 0.00000000
vn 0.00000000 1.00000000 0.00000000
vn 0.00000000 1.00000000 0.00000000
vn 0.00000000 1.00000000 0.00000000
vn 0.00000000 1.00000000 0.00000000
vn 0.00000000 1.00000000 0.00000000
vn 0.00000000 1.00000000 0.00000000
vn 0.00000000 1.00000000 0.00000000
vn 0.00000000 1.00000000 0.00000000
vn 0.00000000 1.00000000 0.00000000
vn 0.00000000 -1.00000000 0.00000000
vn 0.00000000 -1.00000000 0.00000000
vn 0.00000000 -1.00000000 0.00000000
vn 0.00000000 -1.00000000 0.00000000
vn 0.00000000 -1.00000000 0.00000000
vn 0.00000000 -1.00000000 0.00000000
vn 0.00000000 -1.00000000 0.00000000
vn 0.00000000 -1.00000000 0.00000000
vn 0.00000000 -1.00000000 0.00000000
vn 0.00000000 -1.00000000 0.00000000
vn 0.00000000 -1.00000000 0.00000000
vn 0.00000000 -1.00000000 0.00000000
vn 0.00000000 -1.00000000 0.00000000
vn 0.00000000 -1.00000000 0.00000000
vn 0.00000000 -1.00000000 0.00000000
vn 0.00000000 -1.00000000 0.00000000
vn 0.00000000 0.00000000 -1.00000000
vn -0.43298583 0.00000000 -0.90140073
vn -0.21649292 0.00000000 -0.97628419
vn 0.00000000 0.00000000 -1.00000000
vn -0.43298583 0.00000000 -0.90140073
vn -0.82548511 0.00000000 -0.56442389
vn -0.72893031 0.00000000 -0.68458791
vn -0.21649292 0.00000000 -0.97628419
vn -0.82548511 0.00000000 -0.56442389
vn -0.98734698 0.00000000 0.15857469
vn -0.98734682 0.00000000 -0.15857573
vn -0.72893031 0.00000000 -0.68458791
vn -0.98734698 0.00000000 0.15857469
vn -0.72893184 0.00000000 0.68458628
vn -0.82548603 0.00000000 0.56442255
vn -0.98734682 0.00000000 -0.15857573
vn -0.72893184 0.00000000 0.68458628
vn -0.21649378 0.00000000 0.97628400
vn -0.43298756 0.00000000 0.90139990
vn -0.82548603 0.00000000 0.56442255
vn -0.21649378 0.00000000 0.97628400
vn 0.00000000 0.00000000 1.00000000
vn 0.00000000 0.00000000 1.00000000
vn -0.43298756 0.00000000 0.90139990
vn 1.00000000 0.00000000 0.00000000
vn 1.00000000 0.00000000 0.00000000
vn 1.00000000 0.00000000 0.00000000
vn 1.00000000 0.00000000 0.00000000
vn 1.00000000 0.00000000 0.00000000
vn 1.00000000 0.00000000 0.00000000
vn 1.00000000 0.00000000 0.00000000
vn 1.00000000 0.00000000 0.00000000
vn 1.00000000 0.00000000 0.00000000
vn 1.00000000 0.00000000 0.00000000
vn 1.00000000 0.00000000 0.00000000
vn 1.00000000 0.00000000 0.00000000
vn 1.00000000 0.00000000 0.00000000
vn 1.00000000 0.00000000 0.00000000
vn 1.00000000 0.00000000 0.00000000
vn 1.00000000 0.00000000 0.00000000
vn 0.00000000 0.00000000 -1.00000000
vn 0.00000000 0.00000000 -1.00000000
vn 0.00000000 0.00000000 -1.00000000
vn -0.15452734 0.00000000 0.98798851
vn -0.23203457 0.00000000 0.97270754
vn -0.23026402 0.00396932 0.97312010
vn 0.00000000 0.00000000 -1.00000000
vn 0.00000000 0.00000000 -1.00000000
vn 0.00000000 0.00000000 -1.00000000
vn 0.00000000 0.00000000 -1.00000000
vn 0.00000000 0.00000000 -1.00000000
vn 0.00000000 0.00000000 -1.00000000
vn 0.00000000 0.00000000 -1.00000000
vn -0.15452734 0.00000000 0.98798851
vn -0.23026402 0.00396932 0.97312010
vn -0.66563083 -0.23409058 0.70861640
vn -0.14593226 -0.24917656 0.95740003
vn 0.13508998 0.00000000 0.99083333
vn -0.15452734 0.00000000 0.98798851
vn -0.14593226 -0.24917656 0.95740003
vn 0.10117932 -0.31900611 0.94233638
vn 0.59927246 -0.34790389 0.72099612
vn 0.70975739 0.00000000 0.70444620
vn 0.13508998 0.00000000 0.99083333
vn 0.10117932 -0.31900611 0.94233638
vn 0.59927246 -0.34790389 0.72099612
vn 0.96548496 0.00000000 0.26045881
vn 0.96548496 0.00000000 0.26045881
vn 0.70975739 0.00000000 0.70444620
vn -0.98070161 -0.18522424 0.06258057
vn -0.99960972 -0.00000001 0.02793566
vn -1.00000000 0.00000000 0.00000000
vn -0.98455015 -0.17510285 0.00000000
vn -0.99850585 -0.00000003 0.05464490
vn -0.99960972 -0.00000001 0.02793566
vn -0.98070161 -0.18522424 0.06258057
vn -0.96266293 -0.26554959 0.05256896
vn -0.66563083 -0.23409058 0.70861640
vn -0.94549940 -0.25210019 0.20609800
vn -0.65381413 -0.60622567 0.45278860
vn -0.98070161 -0.18522424 0.06258057
vn -0.94549940 -0.25210019 0.20609800
vn -0.66563083 -0.23409058 0.70861640
vn -0.96266293 -0.26554959 0.05256896
vn 0.10117932 -0.31900611 0.94233638
vn 0.07354376 -0.89168137 0.44664936
vn 0.59927246 -0.34790389 0.72099612
vn -0.65381413 -0.60622567 0.45278860
vn -0.14593226 -0.24917656 0.95740003
vn -0.66563083 -0.23409058 0.70861640
vn -0.14593226 -0.24917656 0.95740003
vn -0.65381413 -0.60622567 0.45278860
vn 0.07354376 -0.89168137 0.44664936
vn 0.10117932 -0.31900611 0.94233638
vn -0.98455015 -0.17510285 0.00000000
vn -0.96132520 -0.27541581 0.00000000
vn -0.94549940 -0.25210019 0.20609800
vn -0.98070161 -0.18522424 0.06258057
vn -0.96132520 -0.27541581 0.00000000
vn -0.95102487 -0.30911438 0.00000000
vn -0.65381413 -0.60622567 0.45278860
vn -0.94549940 -0.25210019 0.20609800
vn 0.00000000 0.00000000 -1.00000000
vn 0.00000000 0.00000000 -1.00000000
vn 0.00000000 0.00000000 -1.00000000
vn 0.00000000 0.00000000 -1.00000000
vn 0.00000000 -1.00000000 0.00000000
vn 0.07497287 -0.99718557 0.00000000
vn 0.07354376 -0.89168137 0.44664936
vn -0.65381413 -0.60622567 0.45278860
vn 0.07354376 -0.89168137 0.44664936
vn 0.07497287 -0.99718557 0.00000000
vn 0.15707444 -0.98733722 0.02219989
vn 0.59927246 -0.34790389 0.72099612
vn 0.00000000 0.00000000 -1.00000000
vn 0.00000000 0.00000000 -1.00000000
vn 0.00000000 0.00000000 -1.00000000
vn 0.00000000 0.00000000 -1.00000000
vn 0.00000000 0.00000000 -1.00000000
vn 0.00000000 0.00000000 -1.00000000
vn 0.00000000 0.00000000 -1.00000000
vn -0.15452734 0.00000000 0.98798851
vn -0.23026402 -0.00396932 0.97312010
vn -0.23203457 0.00000000 0.97270754
vn 0.00000000 0.00000000 -1.00000000
vn 0.00000000 0.00000000 -1.00000000
vn 0.00000000 0.00000000 -1.00000000
vn 0.00000000 0.00000000 -1.00000000
vn 0.00000000 0.00000000 -1.00000000
vn 0.00000000 0.00000000 -1.00000000
vn 0.00000000 0.00000000 -1.00000000
vn -0.15452734 0.00000000 0.98798851
vn -0.14593226 0.24917651 0.95740004
vn -0.66563078 0.23409063 0.70861643
vn -0.23026402 -0.00396932 0.97312010
vn 0.13508998 0.00000000 0.99083333
vn 0.10117929 0.31900611 0.94233638
vn -0.14593226 0.24917651 0.95740004
vn -0.15452734 0.00000000 0.98798851
vn 0.59927246 0.34790389 0.72099612
vn 0.10117929 0.31900611 0.94233638
vn 0.13508998 0.00000000 0.99083333
vn 0.70975739 0.00000000 0.70444620
vn 0.59927246 0.34790389 0.72099612
vn 0.70975739 0.00000000 0.70444620
vn 0.96548496 0.00000000 0.26045881
vn 0.96548496 0.00000000 0.26045881
vn -0.98070161 0.18522425 0.06258054
vn -0.98455016 0.17510280 0.00000000
vn -1.00000000 0.00000000 0.00000000
vn -0.99960972 -0.00000001 0.02793566
vn -0.99850585 -0.00000003 0.05464490
vn -0.96266291 0.26554972 0.05256871
vn -0.98070161 0.18522425 0.06258054
vn -0.99960972 -0.00000001 0.02793566
vn -0.66563078 0.23409063 0.70861643
vn -0.65381412 0.60622562 0.45278870
vn -0.94549937 0.25210018 0.20609812
vn -0.98070161 0.18522425 0.06258054
vn -0.96266291 0.26554972 0.05256871
vn -0.66563078 0.23409063 0.70861643
vn -0.94549937 0.25210018 0.20609812
vn 0.10117929 0.31900611 0.94233638
vn 0.59927246 0.34790389 0.72099612
vn 0.07354375 0.89168136 0.44664939
vn -0.65381412 0.60622562 0.45278870
vn -0.66563078 0.23409063 0.70861643
vn -0.14593226 0.24917651 0.95740004
vn -0.14593226 0.24917651 0.95740004
vn 0.10117929 0.31900611 0.94233638
vn 0.07354375 0.89168136 0.44664939
vn -0.65381412 0.60622562 0.45278870
vn -0.98455016 0.17510280 0.00000000
vn -0.98070161 0.18522425 0.06258054
vn -0.94549937 0.25210018 0.20609812
vn -0.96132520 0.27541579 0.00000000
vn -0.96132520 0.27541579 0.00000000
vn -0.94549937 0.25210018 0.20609812
vn -0.65381412 0.60622562 0.45278870
vn -0.95102487 0.30911438 0.00000000
vn 0.00000000 0.00000000 -1.00000000
vn 0.00000000 0.00000000 -1.00000000
vn 0.00000000 0.00000000 -1.00000000
vn 0.00000000 0.00000000 -1.00000000
vn 0.00000000 1.00000000 0.00000000
vn -0.65381412 0.60622562 0.45278870
vn 0.07354375 0.89168136 0.44664939
vn 0.07497287 0.99718557 0.00000000
vn 0.07354375 0.89168136 0.44664939
vn 0.59927246 0.34790389 0.72099612
vn 0.15707444 0.98733722 0.02219989
vn 0.07497287 0.99718557 0.00000000
vn 0.00000000 0.00000000 -1.00000000
vn 0.00000000 0.00000000 -1.00000000
vn 0.00000000 0.00000000 -1.00000000
vn 0.00000000 0.00000000 -1.00000000
vn 0.00000000 0.00000000 1.00000000
vn 0.00000000 0.00000000 1.00000000
vn 0.00000000 0.00000000 1.00000000
vn 0.00000000 0.00000000 1.00000000
vn 0.00000000 0.00000000 1.00000000
vn 0.00000000 0.00000000 1.00000000
vn 0.00000000 0.00000000 1.00000000
vn 0.00000000 0.00000000 1.00000000
vn 0.00000000 0.00000000 1.00000000
vn 0.00000000 0.00000000 1.00000000
vn 0.00000000 0.00000000 1.00000000
vn 0.00000000 0.00000000 1.00000000
vn 0.00000000 0.00000000 1.00000000
vn 0.00000000 0.00000000 1.00000000
vn 0.00000000 0.00000000 1.00000000
vn 0.00000000 0.00000000 1.00000000
vn 0.00000000 0.00000000 1.00000000
vn 0.00000000 0.00000000 1.00000000
vn 0.00000000 0.00000000 -1.00000000
vn 0.00000000 0.00000000 -1.00000000
vn 0.00000000 0.00000000 -1.00000000
vn 0.00000000 0.00000000 -1.00000000
vn 0.00000000 0.00000000 -1.00000000
vn 0.00000000 0.00000000 -1.00000000
vn 0.00000000 0.00000000 -1.00000000
vn 0.00000000 0.00000000 -1.00000000
vn 0.00000000 0.00000000 -1.00000000
vn 0.00000000 0.00000000 -1.00000000
vn 0.00000000 0.00000000 -1.00000000
vn 0.00000000 0.00000000 -1.00000000
vn 0.00000000 0.00000000 -1.00000000
vn 0.00000000 0.00000000 -1.00000000
vn 0.00000000 0.00000000 -1.00000000
vn 0.00000000 0.00000000 -1.00000000
vn 0.00000000 0.00000000 -1.00000000
vn 0.00000000 0.00000000 -1.00000000
vn -0.75593010 0.65465233 0.00000000
vn -0.50000215 0.86602416 0.00000000
vn -0.50000215 0.86602416 0.00000000
vn -0.94491141 0.32732617 0.00000000
vn 0.49999922 0.86602585 0.00000000
vn 0.49999922 0.86602585 0.00000000
vn 0.49999922 0.86602585 0.00000000
vn 0.49999922 0.86602585 0.00000000
vn 1.00000000 0.00000000 0.00000000
vn 0.75592989 -0.65465258 0.00000000
vn 0.94491137 -0.32732629 0.00000000
vn 1.00000000 0.00000000 0.00000000
vn 0.75592989 -0.65465258 0.00000000
vn 0.50000175 -0.86602439 0.00000000
vn 0.50000175 -0.86602439 0.00000000
vn 0.94491137 -0.32732629 0.00000000
vn -0.50000468 -0.86602270 0.00000000
vn -0.94491169 -0.32732538 0.00000000
vn -0.75593147 -0.65465075 0.00000000
vn -0.50000468 -0.86602270 0.00000000
vn -0.94491169 -0.32732538 0.00000000
vn -0.75593010 0.65465233 0.00000000
vn -0.94491141 0.32732617 0.00000000
vn -0.75593147 -0.65465075 0.00000000
vn 0.00000000 -1.00000000 0.00000000
vn 0.00000000 -1.00000000 0.00000000
vn 0.00000000 -1.00000000 0.00000000
vn 0.00000000 -1.00000000 0.00000000
vn 0.00000000 -1.00000000 0.00000000
vn 0.00000000 -1.00000000 0.00000000
vn 0.00000000 -1.00000000 0.00000000
vn 0.00000000 -1.00000000 0.00000000
vn 0.00000000 -1.00000000 0.00000000
vn 0.00000000 -1.00000000 0.00000000
vn 0.00000000 -1.00000000 0.00000000
vn 0.00000000 -1.00000000 0.00000000
vn 0.00000000 -1.00000000 0.00000000
vn 0.00000000 -1.00000000 0.00000000
vn 0.00000000 -1.00000000 0.00000000
vn 0.00000000 -1.00000000 0.00000000
vn 0.00000000 1.00000000 0.00000000
vn 0.00000000 1.00000000 0.00000000
vn 0.00000000 1.00000000 0.00000000
vn 0.00000000 1.00000000 0.00000000
vn 0.00000000 1.00000000 0.00000000
vn 0.00000000 1.00000000 0.00000000
vn 0.00000000 1.00000000 0.00000000
vn 0.00000000 1.00000000 0.00000000
vn 0.00000000 1.00000000 0.00000000
vn 0.00000000 1.00000000 0.00000000
vn 0.00000000 1.00000000 0.00000000
vn 0.00000000 1.00000000 0.00000000
vn 0.00000000 1.00000000 0.00000000
vn 0.00000000 1.00000000 0.00000000
vn 0.00000000 1.00000000 0.00000000
vn 0.00000000 1.00000000 0.00000000
vn 0.00000000 0.00000000 -1.00000000
vn 0.00000000 0.00000000 -1.00000000
vn -0.21649292 0.00000000 -0.97628419
vn -0.43298583 0.00000000 -0.90140073
vn -0.43298583 0.00000000 -0.90140073
vn -0.21649292 0.00000000 -0.97628419
vn -0.72893031 0.00000000 -0.68458791
vn -0.82548511 0.00000000 -0.56442389
vn -0.82548511 0.00000000 -0.56442389
vn -0.72893031 0.00000000 -0.68458791
vn -0.98734682 0.00000000 -0.15857573
vn -0.98734698 0.00000000 0.15857469
vn -0.98734698 0.00000000 0.15857469
vn -0.98734682 0.00000000 -0.15857573
vn -0.82548603 0.00000000 0.56442255
vn -0.72893184 0.00000000 0.68458628
vn -0.72893184 0.00000000 0.68458628
vn -0.82548603 0.00000000 0.56442255
vn -0.43298756 0.00000000 0.90139990
vn -0.21649378 0.00000000 0.97628400
vn -0.21649378 0.00000000 0.97628400
vn -0.43298756 0.00000000 0.90139990
vn 0.00000000 0.00000000 1.00000000
vn 0.00000000 0.00000000 1.00000000
vn 1.00000000 0.00000000 0.00000000
vn 1.00000000 0.00000000 0.00000000
vn 1.00000000 0.00000000 0.00000000
vn 1.00000000 0.00000000 0.00000000
vn 1.00000000 0.00000000 0.00000000
vn 1.00000000 0.00000000 0.00000000
vn 1.00000000 0.00000000 0.00000000
vn 1.00000000 0.00000000 0.00000000
vn 1.00000000 0.00000000 0.00000000
vn 1.00000000 0.00000000 0.00000000
vn 1.00000000 0.00000000 0.00000000
vn 1.00000000 0.00000000 0.00000000
vn 1.00000000 0.00000000 0.00000000
vn 1.00000000 0.00000000 0.00000000
vn 1.00000000 0.00000000 0.00000000
vn 1.00000000 0.00000000 0.00000000

g ²ã
f 3//1 2//2 1//3
f 4//4 2//5 3//6
f 5//7 2//8 4//9
f 6//10 2//11 5//12
f 7//13 2//14 6//15
f 1//16 2//17 7//18
f 10//19 9//20 8//21
f 8//22 9//23 11//24
f 11//25 9//26 12//27
f 12//28 9//29 13//30
f 13//31 9//32 14//33
f 14//34 9//35 10//36
f 1//37 10//38 8//39 3//40
f 3//41 8//42 11//43 4//44
f 4//45 11//46 12//47 5//48
f 5//49 12//50 13//51 6//52
f 6//53 13//54 14//55 7//56
f 7//57 14//58 10//59 1//60
f 16//61 15//62 18//63 17//64
f 15//65 19//66 20//67 18//68
f 19//69 21//70 22//71 20//72
f 21//73 23//74 24//75 22//76
f 26//77 25//78 28//79 27//80
f 25//81 29//82 30//83 28//84
f 29//85 31//86 32//87 30//88
f 31//89 33//90 34//91 32//92
f 34//93 33//94 24//95 23//96
f 33//97 31//98 22//99 24//100
f 31//101 29//102 20//103 22//104
f 29//105 25//106 18//107 20//108
f 25//109 26//110 17//111 18//112
f 26//113 27//114 16//115 17//116
f 27//117 28//118 15//119 16//120
f 28//121 30//122 19//123 15//124
f 30//125 32//126 21//127 19//128
f 32//129 34//130 23//131 21//132
f 36//133 35//134 59//135
f 39//136 38//137 37//138
f 59//139 40//140 41//141 36//142
f 35//143 42//144 59//145
f 39//146 37//147 54//148 43//149
f 44//150 39//151 43//152 45//153
f 47//154 46//155 44//156 45//157
f 47//158 48//159 49//160 46//161
f 51//162 50//163 42//164 35//165
f 38//166 50//167 51//168 37//169
f 54//170 53//171 52//172
f 51//173 53//174 54//175 37//176
f 45//177 55//178 47//179
f 52//180 43//181 54//182
f 43//183 52//184 55//185 45//186
f 35//187 36//188 53//189 51//190
f 36//191 41//192 52//193 53//194
f 40//195 56//196 57//197 41//198
f 41//199 57//200 55//201 52//202
f 55//203 57//204 48//205 47//206
f 56//207 49//208 48//209 57//210
f 60//211 59//212 58//213
f 39//214 61//215 38//216
f 59//217 60//218 62//219 40//220
f 58//221 59//222 42//223
f 39//224 63//225 70//226 61//227
f 44//228 64//229 63//230 39//231
f 65//232 64//233 44//234 46//235
f 65//236 46//237 49//238 66//239
f 67//240 58//241 42//242 50//243
f 38//244 61//245 67//246 50//247
f 70//248 69//249 68//250
f 67//251 61//252 70//253 68//254
f 64//255 65//256 71//257
f 69//258 70//259 63//260
f 63//261 64//262 71//263 69//264
f 58//265 67//266 68//267 60//268
f 60//269 68//270 69//271 62//272
f 40//273 62//274 72//275 56//276
f 62//277 69//278 71//279 72//280
f 71//281 65//282 66//283 72//284
f 56//285 72//286 66//287 49//288
f 75//289 74//290 73//291
f 76//292 75//293 73//294
f 77//295 76//296 73//297
f 78//298 77//299 73//300
f 79//301 78//302 73//303
f 74//304 79//305 73//306
f 82//307 81//308 80//309
f 81//310 83//311 80//312
f 83//313 84//314 80//315
f 84//316 85//317 80//318
f 85//319 86//320 80//321
f 86//322 82//323 80//324
f 74//325 75//326 81//327 82//328
f 75//329 76//330 83//331 81//332
f 76//333 77//334 84//335 83//336
f 77//337 78//338 85//339 84//340
f 78//341 79//342 86//343 85//344
f 79//345 74//346 82//347 86//348
f 88//349 87//350 90//351 89//352
f 89//353 90//354 92//355 91//356
f 91//357 92//358 94//359 93//360
f 93//361 94//362 96//363 95//364
f 98//365 97//366 100//367 99//368
f 99//369 100//370 102//371 101//372
f 101//373 102//374 104//375 103//376
f 103//377 104//378 106//379 105//380
f 106//381 95//382 96//383 105//384
f 105//385 96//386 94//387 103//388
f 103//389 94//390 92//391 101//392
f 101//393 92//394 90//395 99//396
f 99//397 90//398 87//399 98//400
f 98//401 87//402 88//403 97//404
f 97//405 88//406 89//407 100//408
f 100//409 89//410 91//411 102//412
f 102//413 91//414 93//415 104//416
f 104//417 93//418 95//419 106//420

