# RokuSuper Output Ver2.0 for Wavefront Obj

v 10.36605600 3.06884900 4.84088500
v 10.10975300 3.21682500 4.84088500
v 10.10975300 3.51278100 4.84088500
v 10.36605600 3.66075800 4.84088500
v 10.62236100 3.51278100 4.84088500
v 10.62236100 3.21682500 4.84088500
v 10.10975400 3.21682500 3.08341300
v 10.36605600 3.06884900 3.08341300
v 10.62236100 3.21682500 3.08341300
v 10.62236100 3.51278100 3.08341300
v 10.36605600 3.66075800 3.08341300
v 10.10975300 3.51278100 3.08341300
v 5.05081800 1.91145700 3.76816000
v 4.83044300 1.91145700 3.94133100
v 4.83044300 1.91145700 4.68192300
v 5.05081800 1.91145700 4.85509300
v 7.14054800 1.91145700 4.85509300
v 7.14054800 1.91145700 3.76816000
v 4.65202700 1.91145700 4.31162700
v 7.14054800 4.65761900 3.76816000
v 5.05081800 4.65761900 3.76816000
v 4.83044300 4.65761900 3.94133200
v 4.65202700 4.65761900 4.31162700
v 4.83044200 4.65761900 4.68192300
v 5.05081800 4.65761900 4.85509300
v 7.14054800 4.65761900 4.85509300
v 15.78857700 11.53653900 3.46388900
v 15.85346400 11.80530900 3.25947800
v 15.78857700 3.46346100 3.46388900
v 0.38593500 7.50000000 4.29086700
v 0.70667200 9.56888300 4.35819900
v 0.70667200 5.43111700 4.35819900
v 1.24521400 3.60963000 1.13546300
v 1.24521400 11.39037000 1.13546300
v 1.77797900 2.34544400 1.13546300
v 1.77797900 12.65455600 1.13546300
v 9.87132700 2.29429100 1.13546300
v 9.87132700 2.29429100 3.26467000
v 15.85346400 3.19469200 3.25947800
v 16.52771900 3.28164100 1.13546300
v 1.24443900 3.61018700 4.47855700
v 1.77797900 2.34544400 3.26467000
v 16.52771900 11.71835900 1.13546300
v 0.70934700 5.42336300 1.13546300
v 0.38837200 7.50000000 1.13546300
v 9.87132700 4.58902100 5.13880300
v 4.01578100 4.45565500 5.13880300
v 9.87132700 12.70570900 3.26467000
v 9.87132700 12.70570900 1.13546300
v 1.77797900 12.65455600 3.26467000
v 1.24443900 11.38981300 4.47855700
v 4.01577900 10.54434500 5.13880300
v 9.87132700 10.41097900 5.13880300
v 0.70934700 9.57663700 1.13546300
v 10.10975300 11.48721900 4.84088500
v 10.10975300 11.78317500 4.84088500
v 10.36605600 11.93115200 4.84088500
v 10.36605600 11.33924200 4.84088500
v 10.62236100 11.78317500 4.84088500
v 10.62236100 11.48721900 4.84088500
v 10.10975300 11.78317500 3.08341300
v 10.36605600 11.93115200 3.08341300
v 10.62236100 11.78317500 3.08341300
v 10.62236100 11.48721900 3.08341300
v 10.36605600 11.33924200 3.08341300
v 10.10975300 11.48721900 3.08341300
v 4.83044300 13.08854400 4.68192300
v 4.83044300 13.08854400 3.94133100
v 5.05081800 13.08854400 3.76816000
v 5.05081800 13.08854400 4.85509300
v 7.14054800 13.08854400 4.85509300
v 7.14054800 13.08854400 3.76816000
v 4.65202700 13.08854400 4.31162700
v 7.14054800 10.34238100 3.76816000
v 5.05081800 10.34238100 3.76816000
v 4.83044300 10.34238100 3.94133100
v 4.65202700 10.34238100 4.31162700
v 4.83044300 10.34238100 4.68192300
v 5.05081800 10.34238100 4.85509300
v 7.14054800 10.34238100 4.85509300

vn 0.00000000 0.00000000 1.00000000
vn 0.00000000 0.00000000 1.00000000
vn 0.00000000 0.00000000 1.00000000
vn 0.00000000 0.00000000 1.00000000
vn 0.00000000 0.00000000 1.00000000
vn 0.00000000 0.00000000 1.00000000
vn 0.00000000 0.00000000 1.00000000
vn 0.00000000 0.00000000 1.00000000
vn -0.49999920 -0.86602587 -0.00000014
vn -0.49999993 -0.86602545 -0.00000028
vn -0.18898303 -0.98198035 -0.00000011
vn 0.18897912 -0.98198111 0.00000000
vn 0.18897912 -0.98198111 0.00000000
vn -0.18898303 -0.98198035 -0.00000011
vn 0.49999554 -0.86602798 0.00000000
vn 0.49999554 -0.86602798 0.00000000
vn 1.00000000 0.00000000 0.00000000
vn 1.00000000 0.00000000 0.00000000
vn 1.00000000 0.00000000 0.00000000
vn 1.00000000 0.00000000 0.00000000
vn 0.49999807 0.86602652 0.00000000
vn 0.49999807 0.86602652 0.00000000
vn 0.18898035 0.98198087 0.00000000
vn -0.18898367 0.98198023 0.00000000
vn -0.18898367 0.98198023 0.00000000
vn 0.18898035 0.98198087 0.00000000
vn -0.50000100 0.86602483 0.00000000
vn -0.50000100 0.86602483 0.00000000
vn -1.00000000 -0.00000169 -0.00000028
vn -1.00000000 -0.00000338 0.00000000
vn -1.00000000 -0.00000169 -0.00000028
vn -1.00000000 0.00000000 -0.00000057
vn 0.00000000 -1.00000000 0.00000000
vn 0.00000000 -1.00000000 0.00000000
vn 0.00000000 -1.00000000 0.00000000
vn 0.00000000 -1.00000000 0.00000000
vn 0.00000000 -1.00000000 0.00000000
vn 0.00000000 -1.00000000 0.00000000
vn 0.00000000 -1.00000000 0.00000000
vn 0.00000000 -1.00000000 0.00000000
vn 0.00000000 -1.00000000 0.00000000
vn 0.00000000 -1.00000000 0.00000000
vn 0.00000000 -1.00000000 0.00000000
vn 0.00000000 0.00000000 -1.00000000
vn -0.43298658 0.00000010 -0.90140037
vn -0.21649372 0.00000000 -0.97628401
vn 0.00000000 0.00000000 -1.00000000
vn -0.43298658 0.00000010 -0.90140037
vn -0.82548576 0.00000015 -0.56442294
vn -0.72893115 0.00000015 -0.68458701
vn -0.21649372 0.00000000 -0.97628401
vn -0.82548576 0.00000015 -0.56442294
vn -0.98734714 -0.00000012 0.15857374
vn -0.98734685 0.00000006 -0.15857551
vn -0.72893115 0.00000015 -0.68458701
vn -0.98734714 -0.00000012 0.15857374
vn -0.72892893 -0.00000019 0.68458937
vn -0.82548546 -0.00000019 0.56442338
vn -0.98734685 0.00000006 -0.15857551
vn -0.72892893 -0.00000019 0.68458937
vn -0.21649199 0.00000000 0.97628439
vn -0.43298330 -0.00000008 0.90140194
vn -0.82548546 -0.00000019 0.56442338
vn -0.21649199 0.00000000 0.97628439
vn 0.00000000 0.00000000 1.00000000
vn 0.00000000 0.00000000 1.00000000
vn -0.43298330 -0.00000008 0.90140194
vn 1.00000000 0.00000000 0.00000000
vn 1.00000000 0.00000000 0.00000000
vn 1.00000000 0.00000000 0.00000000
vn 1.00000000 0.00000000 0.00000000
vn 0.95313018 0.00000000 0.30256050
vn 0.38905290 0.28127027 0.87722567
vn 0.57475973 -0.29598946 0.76291643
vn 0.95313018 0.00000000 0.30256050
vn -0.21193369 0.00000000 0.97728405
vn -0.21409266 0.00000000 0.97681336
vn -0.20545069 0.00000000 0.97866747
vn -0.21409266 0.00000000 0.97681336
vn -0.21193369 0.00000000 0.97728405
vn -0.18192330 -0.14389084 0.97272778
vn -0.14850962 0.24489353 0.95810858
vn 0.00000000 0.00000000 -1.00000000
vn 0.00000000 0.00000000 -1.00000000
vn 0.00000000 0.00000000 -1.00000000
vn 0.00000000 0.00000000 -1.00000000
vn 0.00000000 0.00000000 -1.00000000
vn 0.00000000 0.00000000 -1.00000000
vn 0.00000000 0.00000000 -1.00000000
vn 0.00000000 0.00000000 -1.00000000
vn 0.00000000 0.00000000 -1.00000000
vn 0.00000000 0.00000000 -1.00000000
vn 0.00000000 0.00000000 -1.00000000
vn 0.00000000 0.00000000 -1.00000000
vn 0.06669613 -0.90009043 0.43056804
vn 0.07041024 -0.99751812 0.00000000
vn 0.14778419 -0.98901384 0.00338469
vn 0.13311197 -0.88176778 0.45251164
vn -0.92146632 -0.38845825 -0.00007443
vn -0.94781359 -0.31882498 -0.00014639
vn -0.93527956 -0.35390977 -0.00010814
vn -0.92151119 -0.38835180 0.00000000
vn 0.95312886 0.00000000 0.30256467
vn 0.95312886 0.00000000 0.30256467
vn 0.95313018 0.00000000 0.30256050
vn 0.95313018 0.00000000 0.30256050
vn -0.98044467 -0.19679445 -0.00044440
vn -0.99999970 0.00000000 -0.00077233
vn -0.99999981 0.00000000 -0.00061523
vn -0.97070964 -0.24025556 -0.00024798
vn -0.94781359 -0.31882498 -0.00014639
vn -0.98044467 -0.19679445 -0.00044440
vn -0.97070964 -0.24025556 -0.00024798
vn -0.93527956 -0.35390977 -0.00010814
vn 0.57475973 -0.29598946 0.76291643
vn 0.10278961 -0.33676350 0.93596188
vn 0.06669613 -0.90009043 0.43056804
vn 0.13311197 -0.88176778 0.45251164
vn 0.00891258 -0.84598750 0.53312823
vn -0.05152383 -0.35832050 0.93217580
vn -0.18192330 -0.14389084 0.97272778
vn -0.05152383 -0.35832050 0.93217580
vn 0.00891258 -0.84598750 0.53312823
vn 0.06669613 -0.90009043 0.43056804
vn 0.10278961 -0.33676350 0.93596188
vn -0.00632025 -0.99998003 0.00000000
vn 0.07041024 -0.99751812 0.00000000
vn 0.06669613 -0.90009043 0.43056804
vn 0.00891258 -0.84598750 0.53312823
vn 0.06669607 0.90009038 0.43056817
vn 0.13311178 0.88176754 0.45251217
vn 0.14778411 0.98901385 0.00338443
vn 0.07041024 0.99751812 0.00000000
vn -0.92146632 0.38845825 -0.00007443
vn -0.92151119 0.38835180 0.00000000
vn -0.93527956 0.35390977 -0.00010814
vn -0.94781359 0.31882498 -0.00014639
vn -0.18192330 -0.14389084 0.97272778
vn -0.05152383 -0.35832050 0.93217580
vn -0.05152385 0.35832047 0.93217581
vn -0.14850962 0.24489353 0.95810858
vn -0.05152383 -0.35832050 0.93217580
vn 0.10278961 -0.33676350 0.93596188
vn 0.10278960 0.33676350 0.93596188
vn -0.05152385 0.35832047 0.93217581
vn 0.10278961 -0.33676350 0.93596188
vn 0.57475973 -0.29598946 0.76291643
vn 0.38905290 0.28127027 0.87722567
vn 0.10278960 0.33676350 0.93596188
vn -0.98044467 0.19679445 -0.00044440
vn -0.97070964 0.24025556 -0.00024798
vn -0.99999981 0.00000000 -0.00061523
vn -0.99999970 0.00000000 -0.00077233
vn -0.94781359 0.31882498 -0.00014639
vn -0.93527956 0.35390977 -0.00010814
vn -0.97070964 0.24025556 -0.00024798
vn -0.98044467 0.19679445 -0.00044440
vn 0.38905290 0.28127027 0.87722567
vn 0.13311178 0.88176754 0.45251217
vn 0.06669607 0.90009038 0.43056817
vn 0.10278960 0.33676350 0.93596188
vn 0.00891259 0.84598750 0.53312824
vn -0.14850962 0.24489353 0.95810858
vn -0.05152385 0.35832047 0.93217581
vn -0.05152385 0.35832047 0.93217581
vn 0.10278960 0.33676350 0.93596188
vn 0.06669607 0.90009038 0.43056817
vn 0.00891259 0.84598750 0.53312824
vn 0.00000000 0.00000000 -1.00000000
vn 0.00000000 0.00000000 -1.00000000
vn 0.00000000 0.00000000 -1.00000000
vn -0.00632025 0.99998003 0.00000000
vn 0.00891259 0.84598750 0.53312824
vn 0.06669607 0.90009038 0.43056817
vn 0.07041024 0.99751812 0.00000000
vn 0.00000000 0.00000000 -1.00000000
vn 0.00000000 0.00000000 -1.00000000
vn 0.00000000 0.00000000 -1.00000000
vn 0.00000000 0.00000000 -1.00000000
vn 0.00000000 0.00000000 1.00000000
vn 0.00000000 0.00000000 1.00000000
vn 0.00000000 0.00000000 1.00000000
vn 0.00000000 0.00000000 1.00000000
vn 0.00000000 0.00000000 1.00000000
vn 0.00000000 0.00000000 1.00000000
vn 0.00000000 0.00000000 1.00000000
vn 0.00000000 0.00000000 1.00000000
vn -0.75592949 0.65465305 0.00000000
vn 0.18898035 0.98198087 0.00000000
vn -0.18898367 0.98198023 0.00000000
vn -0.94491129 0.32732652 0.00000000
vn 0.18898035 0.98198087 0.00000000
vn 0.49999807 0.86602652 0.00000000
vn 0.49999807 0.86602652 0.00000000
vn -0.18898367 0.98198023 0.00000000
vn 1.00000000 0.00000000 0.00000000
vn 1.00000000 0.00000000 0.00000000
vn 1.00000000 0.00000000 0.00000000
vn 1.00000000 0.00000000 0.00000000
vn 0.49999807 -0.86602652 0.00000000
vn -0.18898367 -0.98198023 0.00000000
vn 0.18898035 -0.98198087 0.00000000
vn 0.49999807 -0.86602652 0.00000000
vn -0.18898367 -0.98198023 0.00000000
vn -0.94491129 -0.32732652 0.00000000
vn -0.75592949 -0.65465305 0.00000000
vn 0.18898035 -0.98198087 0.00000000
vn -0.94491129 -0.32732652 0.00000000
vn -0.75592949 0.65465305 0.00000000
vn -0.94491129 0.32732652 0.00000000
vn -0.75592949 -0.65465305 0.00000000
vn 0.00000000 1.00000000 0.00000000
vn 0.00000000 1.00000000 0.00000000
vn 0.00000000 1.00000000 0.00000000
vn 0.00000000 1.00000000 0.00000000
vn 0.00000000 1.00000000 0.00000000
vn 0.00000000 1.00000000 0.00000000
vn 0.00000000 1.00000000 0.00000000
vn 0.00000000 1.00000000 0.00000000
vn 0.00000000 1.00000000 0.00000000
vn 0.00000000 1.00000000 0.00000000
vn 0.00000000 1.00000000 0.00000000
vn 0.00000000 0.00000000 -1.00000000
vn 0.00000000 0.00000000 -1.00000000
vn -0.21649286 0.00000000 -0.97628420
vn -0.43298571 0.00000000 -0.90140078
vn -0.43298571 0.00000000 -0.90140078
vn -0.21649286 0.00000000 -0.97628420
vn -0.72893074 0.00000000 -0.68458745
vn -0.82548596 0.00000000 -0.56442265
vn -0.82548596 0.00000000 -0.56442265
vn -0.72893074 0.00000000 -0.68458745
vn -0.98734702 0.00000000 -0.15857450
vn -0.98734702 0.00000000 0.15857450
vn -0.98734702 0.00000000 0.15857450
vn -0.98734702 0.00000000 -0.15857450
vn -0.82548545 0.00000000 0.56442340
vn -0.72892944 0.00000000 0.68458883
vn -0.72892944 0.00000000 0.68458883
vn -0.82548545 0.00000000 0.56442340
vn -0.43298398 0.00000000 0.90140162
vn -0.21649199 0.00000000 0.97628439
vn -0.21649199 0.00000000 0.97628439
vn -0.43298398 0.00000000 0.90140162
vn 0.00000000 0.00000000 1.00000000
vn 0.00000000 0.00000000 1.00000000
vn 1.00000000 0.00000000 0.00000000
vn 1.00000000 0.00000000 0.00000000
vn 1.00000000 0.00000000 0.00000000
vn 1.00000000 0.00000000 0.00000000

g ²ã
f 2//1 1//2 4//3 3//4
f 6//5 5//6 4//7 1//8
f 2//9 7//10 8//11 1//12
f 1//13 8//14 9//15 6//16
f 6//17 9//18 10//19 5//20
f 5//21 10//22 11//23 4//24
f 4//25 11//26 12//27 3//28
f 3//29 12//30 7//31 2//32
f 14//33 13//34 16//35 15//36
f 16//37 13//38 18//39 17//40
f 15//41 19//42 14//43
f 18//44 13//45 21//46 20//47
f 13//48 14//49 22//50 21//51
f 14//52 19//53 23//54 22//55
f 19//56 15//57 24//58 23//59
f 15//60 16//61 25//62 24//63
f 16//64 17//65 26//66 25//67
f 26//68 17//69 18//70 20//71
f 28//72 27//73 29//74 39//75
f 32//76 31//77 30//78
f 31//79 32//80 41//81 51//82
f 34//83 33//84 44//85 54//86
f 36//87 35//88 33//89 34//90
f 49//91 37//92 35//93 36//94
f 38//95 37//96 40//97 39//98
f 42//99 41//100 33//101 35//102
f 40//103 43//104 28//105 39//106
f 32//107 30//108 45//109 44//110
f 41//111 32//112 44//113 33//114
f 29//115 46//116 38//117 39//118
f 42//119 47//120 41//121
f 47//122 42//123 38//124 46//125
f 35//126 37//127 38//128 42//129
f 48//130 28//131 43//132 49//133
f 50//134 36//135 34//136 51//137
f 41//138 47//139 52//140 51//141
f 47//142 46//143 53//144 52//145
f 46//146 29//147 27//148 53//149
f 31//150 54//151 45//152 30//153
f 51//154 34//155 54//156 31//157
f 27//158 28//159 48//160 53//161
f 50//162 51//163 52//164
f 52//165 53//166 48//167 50//168
f 45//169 54//170 44//171
f 36//172 50//173 48//174 49//175
f 40//176 37//177 49//178 43//179
f 56//180 55//181 58//182 57//183
f 59//184 57//185 58//186 60//187
f 56//188 57//189 62//190 61//191
f 57//192 59//193 63//194 62//195
f 59//196 60//197 64//198 63//199
f 60//200 58//201 65//202 64//203
f 58//204 55//205 66//206 65//207
f 55//208 56//209 61//210 66//211
f 68//212 67//213 70//214 69//215
f 70//216 71//217 72//218 69//219
f 67//220 68//221 73//222
f 72//223 74//224 75//225 69//226
f 69//227 75//228 76//229 68//230
f 68//231 76//232 77//233 73//234
f 73//235 77//236 78//237 67//238
f 67//239 78//240 79//241 70//242
f 70//243 79//244 80//245 71//246
f 80//247 74//248 72//249 71//250

