# Rhino

o object_1
v 2.727 7.521 0.01757
v 2.727 7.521 0.2091
v 2.953 7.521 0.2091
v 2.953 7.521 0.929
v 3.07 5.358 0.01757
v 3.07 5.358 0.2091
v 3.07 9.684 0.01757
v 3.07 9.684 0.2091
v 3.284 5.428 0.2091
v 3.284 5.428 0.929
v 3.284 9.615 0.2091
v 3.284 9.615 0.929
v 4.059 7.521 0.01757
v 4.059 7.521 0.2037
v 4.064 3.407 0.01757
v 4.064 3.407 0.2091
v 4.064 11.64 0.01757
v 4.064 11.64 0.2091
v 4.247 3.539 0.2091
v 4.247 3.539 0.929
v 4.247 11.5 0.2091
v 4.247 11.5 0.929
v 4.336 5.77 0.01757
v 4.336 5.77 0.2037
v 4.336 9.273 0.01757
v 4.336 9.273 0.2037
v 5.142 4.19 0.01757
v 5.142 4.19 0.2037
v 5.142 10.85 0.01757
v 5.142 10.85 0.2037
v 5.613 1.858 0.01757
v 5.613 1.858 0.2091
v 5.613 13.18 0.01757
v 5.613 13.18 0.2091
v 5.745 2.041 0.2091
v 5.745 2.041 0.929
v 5.745 13 0.2091
v 5.745 13 0.929
v 6.396 2.936 0.01757
v 6.396 2.936 0.2037
v 6.396 12.11 0.01757
v 6.396 12.11 0.2037
v 7.564 0.8638 0.01757
v 7.564 0.8638 0.2091
v 7.564 14.18 0.01757
v 7.564 14.18 0.2091
v 7.634 1.079 0.2091
v 7.634 1.079 0.929
v 7.634 13.96 0.2091
v 7.634 13.96 0.929
v 7.976 2.131 0.01757
v 7.976 2.131 0.2037
v 7.976 12.91 0.01757
v 7.976 12.91 0.2037
v 9.727 7.521 0.2037
v 9.727 0.5212 0.01757
v 9.727 0.5212 0.2091
v 9.727 0.747 0.2091
v 9.727 0.747 0.929
v 9.727 1.853 0.01757
v 9.727 1.853 0.2037
v 9.727 7.521 0.929
v 9.727 13.19 0.01757
v 9.727 13.19 0.2037
v 9.727 14.3 0.2091
v 9.727 14.3 0.929
v 9.727 14.52 0.01757
v 9.727 14.52 0.2091
v 11.48 12.91 0.01757
v 11.48 12.91 0.2037
v 11.48 2.131 0.01757
v 11.48 2.131 0.2037
v 11.82 13.96 0.2091
v 11.82 13.96 0.929
v 11.82 1.079 0.2091
v 11.82 1.079 0.929
v 11.89 14.18 0.01757
v 11.89 14.18 0.2091
v 11.89 0.8638 0.01757
v 11.89 0.8638 0.2091
v 13.06 12.11 0.01757
v 13.06 12.11 0.2037
v 13.06 2.936 0.01757
v 13.06 2.936 0.2037
v 13.71 13 0.2091
v 13.71 13 0.929
v 13.71 2.041 0.2091
v 13.71 2.041 0.929
v 13.84 13.18 0.01757
v 13.84 13.18 0.2091
v 13.84 1.858 0.01757
v 13.84 1.858 0.2091
v 14.31 10.85 0.01757
v 14.31 10.85 0.2037
v 14.31 4.19 0.01757
v 14.31 4.19 0.2037
v 15.12 9.273 0.01757
v 15.12 9.273 0.2037
v 15.12 5.77 0.01757
v 15.12 5.77 0.2037
v 15.21 11.5 0.2091
v 15.21 11.5 0.929
v 15.21 3.539 0.2091
v 15.21 3.539 0.929
v 15.39 11.64 0.01757
v 15.39 11.64 0.2091
v 15.39 3.407 0.01757
v 15.39 3.407 0.2091
v 15.4 7.521 0.01757
v 15.4 7.521 0.2037
v 16.17 9.615 0.2091
v 16.17 9.615 0.929
v 16.17 5.428 0.2091
v 16.17 5.428 0.929
v 16.38 9.684 0.01757
v 16.38 9.684 0.2091
v 16.38 5.358 0.01757
v 16.38 5.358 0.2091
v 16.5 7.521 0.2091
v 16.5 7.521 0.929
v 16.73 7.521 0.01757
v 16.73 7.521 0.2091
vn 0 0 -1
vn 0 0 -1
vn 0 0 -1
vn 0 0 -1
vn 0 0 -1
vn 0 0 -1
vn 0 0 -1
vn 0 0 -1
vn 0 0 -1
vn 0 0 -1
vn 0 0 -1
vn 0 0 -1
vn 0 0 -1
vn 0 0 -1
vn 0 0 -1
vn 0 0 -1
vn 0 0 -1
vn 0 0 -1
vn 0 0 -1
vn 0 0 -1
vn 0 0 -1
vn 0 0 -1
vn -0.966 0.2584 0
vn -0.966 0.2584 0
vn 0 0 -1
vn 0 0 -1
vn -0.9986 -0.05272 0
vn -0.9986 -0.05272 0
vn 0 0 -1
vn 0 0 -1
vn -0.9334 -0.3587 0
vn -0.9334 -0.3587 0
vn 0 0 -1
vn 0 0 -1
vn -0.7769 -0.6296 0
vn -0.7769 -0.6296 0
vn 0 0 -1
vn 0 0 -1
vn -0.5443 -0.8389 0
vn -0.5443 -0.8389 0
vn 0 0 -1
vn 0 0 -1
vn -0.2584 -0.966 0
vn -0.2584 -0.966 0
vn 0 0 -1
vn 0 0 -1
vn 0.05272 -0.9986 0
vn 0.05272 -0.9986 0
vn 0 0 -1
vn 0 0 -1
vn 0.3587 -0.9334 0
vn 0.3587 -0.9334 0
vn 0 0 -1
vn 0 0 -1
vn 0.6296 -0.7769 0
vn 0.6296 -0.7769 0
vn 0 0 -1
vn 0 0 -1
vn 0.8389 -0.5443 0
vn 0.8389 -0.5443 0
vn 0 0 -1
vn 0 0 -1
vn 0.966 -0.2584 0
vn 0.966 -0.2584 0
vn 0 0 -1
vn 0 0 -1
vn 0.9986 0.05272 0
vn 0.9986 0.05272 0
vn 0 0 -1
vn 0 0 -1
vn 0.9334 0.3587 0
vn 0.9334 0.3587 0
vn 0 0 -1
vn 0 0 -1
vn 0.7769 0.6296 0
vn 0.7769 0.6296 0
vn 0 0 -1
vn 0 0 -1
vn 0.5443 0.8389 0
vn 0.5443 0.8389 0
vn 0 0 -1
vn 0 0 -1
vn 0.2584 0.966 0
vn 0.2584 0.966 0
vn 0 0 -1
vn 0 0 -1
vn -0.05272 0.9986 0
vn -0.05272 0.9986 0
vn 0 0 -1
vn 0 0 -1
vn -0.3587 0.9334 0
vn -0.3587 0.9334 0
vn 0 0 -1
vn 0 0 -1
vn -0.6296 0.7769 0
vn -0.6296 0.7769 0
vn 0 0 -1
vn 0 0 -1
vn -0.8389 0.5443 0
vn -0.8389 0.5443 0
vn -0.9334 0.3587 0
vn -0.9334 0.3587 0
vn 0 0 -1
vn 0 0 -1
vn -0.9986 0.05272 0
vn -0.9986 0.05272 0
vn 0 0 -1
vn 0 0 -1
vn -0.966 -0.2584 0
vn -0.966 -0.2584 0
vn 0 0 -1
vn 0 0 -1
vn -0.8389 -0.5443 0
vn -0.8389 -0.5443 0
vn 0 0 -1
vn 0 0 -1
vn -0.6296 -0.7769 0
vn -0.6296 -0.7769 0
vn 0 0 -1
vn 0 0 -1
vn -0.3587 -0.9334 0
vn -0.3587 -0.9334 0
vn 0 0 -1
vn 0 0 -1
vn -0.05272 -0.9986 0
vn -0.05272 -0.9986 0
vn 0 0 -1
vn 0 0 -1
vn 0.2584 -0.966 0
vn 0.2584 -0.966 0
vn 0 0 -1
vn 0 0 -1
vn 0.5443 -0.8389 0
vn 0.5443 -0.8389 0
vn 0 0 -1
vn 0 0 -1
vn 0.7769 -0.6296 0
vn 0.7769 -0.6296 0
vn 0 0 -1
vn 0 0 -1
vn 0.9334 -0.3587 0
vn 0.9334 -0.3587 0
vn 0 0 -1
vn 0 0 -1
vn 0.9986 -0.05272 0
vn 0.9986 -0.05272 0
vn 0 0 -1
vn 0 0 -1
vn 0.966 0.2584 0
vn 0.966 0.2584 0
vn 0 0 -1
vn 0 0 -1
vn 0.8389 0.5443 0
vn 0.8389 0.5443 0
vn 0 0 -1
vn 0 0 -1
vn 0.6296 0.7769 0
vn 0.6296 0.7769 0
vn 0 0 -1
vn 0 0 -1
vn 0.3587 0.9334 0
vn 0.3587 0.9334 0
vn 0 0 -1
vn 0 0 -1
vn 0.05272 0.9986 0
vn 0.05272 0.9986 0
vn 0 0 -1
vn 0 0 -1
vn -0.2584 0.966 0
vn -0.2584 0.966 0
vn 0 0 -1
vn 0 0 -1
vn -0.5443 0.8389 0
vn -0.5443 0.8389 0
vn 0 0 -1
vn 0 0 -1
vn -0.7769 0.6296 0
vn -0.7769 0.6296 0
vn 0 0 -1
vn 0 0 -1
vn 0 0 -1
vn 0 0 -1
vn 0.966 -0.2584 0
vn 0.966 -0.2584 0
vn 0 0 -1
vn 0 0 -1
vn 0.9986 0.05272 0
vn 0.9986 0.05272 0
vn 0 0 -1
vn 0 0 -1
vn 0.9334 0.3587 0
vn 0.9334 0.3587 0
vn 0 0 -1
vn 0 0 -1
vn 0.7769 0.6296 0
vn 0.7769 0.6296 0
vn 0 0 -1
vn 0 0 -1
vn 0.5443 0.8389 0
vn 0.5443 0.8389 0
vn 0 0 -1
vn 0 0 -1
vn 0.2584 0.966 0
vn 0.2584 0.966 0
vn 0 0 -1
vn 0 0 -1
vn -0.05272 0.9986 0
vn -0.05272 0.9986 0
vn 0 0 -1
vn 0 0 -1
vn -0.3587 0.9334 0
vn -0.3587 0.9334 0
vn 0 0 -1
vn 0 0 -1
vn -0.6296 0.7769 0
vn -0.6296 0.7769 0
vn 0 0 -1
vn 0 0 -1
vn -0.8389 0.5443 0
vn -0.8389 0.5443 0
vn 0 0 -1
vn 0 0 -1
vn -0.966 0.2584 0
vn -0.966 0.2584 0
vn 0 0 -1
vn 0 0 -1
vn -0.9986 -0.05272 0
vn -0.9986 -0.05272 0
vn 0 0 -1
vn 0 0 -1
vn -0.9334 -0.3587 0
vn -0.9334 -0.3587 0
vn 0 0 -1
vn 0 0 -1
vn -0.7769 -0.6296 0
vn -0.7769 -0.6296 0
vn 0 0 -1
vn 0 0 -1
vn -0.5443 -0.8389 0
vn -0.5443 -0.8389 0
vn 0 0 -1
vn 0 0 -1
vn -0.2584 -0.966 0
vn -0.2584 -0.966 0
vn 0 0 -1
vn 0 0 -1
vn 0.05272 -0.9986 0
vn 0.05272 -0.9986 0
vn 0 0 -1
vn 0 0 -1
vn 0.3587 -0.9334 0
vn 0.3587 -0.9334 0
vn 0 0 -1
vn 0 0 -1
vn 0.6296 -0.7769 0
vn 0.6296 -0.7769 0
vn 0 0 -1
vn 0 0 -1
vn 0.8389 -0.5443 0
vn 0.8389 -0.5443 0
vn 0.9334 -0.3587 0
vn 0.9334 -0.3587 0
vn 0 0 1
vn 0 0 1
vn 0.9986 -0.05272 0
vn 0.9986 -0.05272 0
vn 0 0 1
vn 0 0 1
vn 0.966 0.2584 0
vn 0.966 0.2584 0
vn 0 0 1
vn 0 0 1
vn 0.8389 0.5443 0
vn 0.8389 0.5443 0
vn 0 0 1
vn 0 0 1
vn 0.6296 0.7769 0
vn 0.6296 0.7769 0
vn 0 0 1
vn 0 0 1
vn 0.3587 0.9334 0
vn 0.3587 0.9334 0
vn 0 0 1
vn 0 0 1
vn 0.05272 0.9986 0
vn 0.05272 0.9986 0
vn 0 0 1
vn 0 0 1
vn -0.2584 0.966 0
vn -0.2584 0.966 0
vn 0 0 1
vn 0 0 1
vn -0.5443 0.8389 0
vn -0.5443 0.8389 0
vn 0 0 1
vn 0 0 1
vn -0.7769 0.6296 0
vn -0.7769 0.6296 0
vn 0 0 1
vn 0 0 1
vn -0.9334 0.3587 0
vn -0.9334 0.3587 0
vn 0 0 1
vn 0 0 1
vn -0.9986 0.05272 0
vn -0.9986 0.05272 0
vn 0 0 1
vn 0 0 1
vn -0.966 -0.2584 0
vn -0.966 -0.2584 0
vn 0 0 1
vn 0 0 1
vn -0.8389 -0.5443 0
vn -0.8389 -0.5443 0
vn 0 0 1
vn 0 0 1
vn -0.6296 -0.7769 0
vn -0.6296 -0.7769 0
vn 0 0 1
vn 0 0 1
vn -0.3587 -0.9334 0
vn -0.3587 -0.9334 0
vn 0 0 1
vn 0 0 1
vn -0.05272 -0.9986 0
vn -0.05272 -0.9986 0
vn 0 0 1
vn 0 0 1
vn 0.2584 -0.966 0
vn 0.2584 -0.966 0
vn 0 0 1
vn 0 0 1
vn 0.5443 -0.8389 0
vn 0.5443 -0.8389 0
vn 0 0 1
vn 0 0 1
vn 0.7769 -0.6296 0
vn 0.7769 -0.6296 0
vn 0 0 1
vn 0 0 1
vn 0 0 1
vn 0 0 1
vn 0.966 -0.2584 0
vn 0.966 -0.2584 0
vn 0 0 1
vn 0 0 1
vn 0.9986 0.05272 0
vn 0.9986 0.05272 0
vn 0 0 1
vn 0 0 1
vn 0.9334 0.3587 0
vn 0.9334 0.3587 0
vn 0 0 1
vn 0 0 1
vn 0.7769 0.6296 0
vn 0.7769 0.6296 0
vn 0 0 1
vn 0 0 1
vn 0.5443 0.8389 0
vn 0.5443 0.8389 0
vn 0 0 1
vn 0 0 1
vn 0.2584 0.966 0
vn 0.2584 0.966 0
vn 0 0 1
vn 0 0 1
vn -0.05272 0.9986 0
vn -0.05272 0.9986 0
vn 0 0 1
vn 0 0 1
vn -0.3587 0.9334 0
vn -0.3587 0.9334 0
vn 0 0 1
vn 0 0 1
vn -0.6296 0.7769 0
vn -0.6296 0.7769 0
vn 0 0 1
vn 0 0 1
vn -0.8389 0.5443 0
vn -0.8389 0.5443 0
vn 0 0 1
vn 0 0 1
vn -0.966 0.2584 0
vn -0.966 0.2584 0
vn 0 0 1
vn 0 0 1
vn -0.9986 -0.05272 0
vn -0.9986 -0.05272 0
vn 0 0 1
vn 0 0 1
vn -0.9334 -0.3587 0
vn -0.9334 -0.3587 0
vn 0 0 1
vn 0 0 1
vn -0.7769 -0.6296 0
vn -0.7769 -0.6296 0
vn 0 0 1
vn 0 0 1
vn -0.5443 -0.8389 0
vn -0.5443 -0.8389 0
vn 0 0 1
vn 0 0 1
vn -0.2584 -0.966 0
vn -0.2584 -0.966 0
vn 0 0 1
vn 0 0 1
vn 0.05272 -0.9986 0
vn 0.05272 -0.9986 0
vn 0 0 1
vn 0 0 1
vn 0.3587 -0.9334 0
vn 0.3587 -0.9334 0
vn 0 0 1
vn 0 0 1
vn 0.6296 -0.7769 0
vn 0.6296 -0.7769 0
vn 0 0 1
vn 0 0 1
vn 0.8389 -0.5443 0
vn 0.8389 -0.5443 0
vn 0 0 1
vn 0 0 1
vn 0 0 1
vn 0 0 1
vn 0 0 1
vn 0 0 1
vn 0 0 1
vn 0 0 1
vn 0 0 1
vn 0 0 1
vn 0 0 1
vn 0 0 1
vn 0 0 1
vn 0 0 1
vn 0 0 1
vn 0 0 1
vn 0 0 1
vn 0 0 1
vn 0 0 1
vn 0 0 1
vn 0 0 1
vn 0 0 1
vn 0.9986 -0.05272 0
vn 0.9986 -0.05272 0
vn 0 0 1
vn 0 0 1
vn 0.9334 -0.3587 0
vn 0.9334 -0.3587 0
vn 0 0 1
vn 0 0 1
vn 0.966 0.2584 0
vn 0.966 0.2584 0
vn 0 0 1
vn 0 0 1
vn 0.8389 0.5443 0
vn 0.8389 0.5443 0
vn 0 0 1
vn 0 0 1
vn 0.6296 0.7769 0
vn 0.6296 0.7769 0
vn 0 0 1
vn 0 0 1
vn 0.3587 0.9334 0
vn 0.3587 0.9334 0
vn 0 0 1
vn 0 0 1
vn 0.05272 0.9986 0
vn 0.05272 0.9986 0
vn 0 0 1
vn 0 0 1
vn -0.2584 0.966 0
vn -0.2584 0.966 0
vn 0 0 1
vn 0 0 1
vn -0.5443 0.8389 0
vn -0.5443 0.8389 0
vn 0 0 1
vn 0 0 1
vn -0.7769 0.6296 0
vn -0.7769 0.6296 0
vn 0 0 1
vn 0 0 1
vn -0.9334 0.3587 0
vn -0.9334 0.3587 0
vn 0 0 1
vn 0 0 1
vn -0.9986 0.05272 0
vn -0.9986 0.05272 0
vn 0 0 1
vn 0 0 1
vn -0.966 -0.2584 0
vn -0.966 -0.2584 0
vn 0 0 1
vn 0 0 1
vn -0.8389 -0.5443 0
vn -0.8389 -0.5443 0
vn 0 0 1
vn 0 0 1
vn -0.6296 -0.7769 0
vn -0.6296 -0.7769 0
vn 0 0 1
vn 0 0 1
vn -0.3587 -0.9334 0
vn -0.3587 -0.9334 0
vn 0 0 1
vn 0 0 1
vn -0.05272 -0.9986 0
vn -0.05272 -0.9986 0
vn 0 0 1
vn 0 0 1
vn 0.2584 -0.966 0
vn 0.2584 -0.966 0
vn 0 0 1
vn 0 0 1
vn 0.5443 -0.8389 0
vn 0.5443 -0.8389 0
vn 0 0 1
vn 0 0 1
vn 0.7769 -0.6296 0
vn 0.7769 -0.6296 0
f 110//25 100//21 55//1
f 98//29 110//26 55//2
f 94//33 98//30 55//3
f 82//37 94//34 55//4
f 70//41 82//38 55//5
f 64//45 70//42 55//6
f 54//49 64//46 55//7
f 42//53 54//50 55//8
f 30//57 42//54 55//9
f 26//61 30//58 55//10
f 14//65 26//62 55//11
f 24//69 14//66 55//12
f 28//73 24//70 55//13
f 40//77 28//74 55//14
f 52//81 40//78 55//15
f 61//85 52//82 55//16
f 72//89 61//86 55//17
f 84//93 72//90 55//18
f 96//97 84//94 55//19
f 100//22 96//98 55//20
f 100//23 110//27 109//105 99//101
f 110//28 98//31 97//109 109//106
f 98//32 94//35 93//113 97//110
f 94//36 82//39 81//117 93//114
f 82//40 70//43 69//121 81//118
f 70//44 64//47 63//125 69//122
f 64//48 54//51 53//129 63//126
f 54//52 42//55 41//133 53//130
f 42//56 30//59 29//137 41//134
f 30//60 26//63 25//141 29//138
f 26//64 14//67 13//145 25//142
f 14//68 24//71 23//149 13//146
f 24//72 28//75 27//153 23//150
f 28//76 40//79 39//157 27//154
f 40//80 52//83 51//161 39//158
f 52//84 61//87 60//165 51//162
f 61//88 72//91 71//169 60//166
f 72//92 84//95 83//173 71//170
f 84//96 96//99 95//177 83//174
f 96//100 100//24 99//102 95//178
f 99//103 109//107 121//185 117//181
f 109//108 97//111 115//189 121//186
f 97//112 93//115 105//193 115//190
f 93//116 81//119 89//197 105//194
f 81//120 69//123 77//201 89//198
f 69//124 63//127 67//205 77//202
f 63//128 53//131 45//209 67//206
f 53//132 41//135 33//213 45//210
f 41//136 29//139 17//217 33//214
f 29//140 25//143 7//221 17//218
f 25//144 13//147 1//225 7//222
f 13//148 23//151 5//229 1//226
f 23//152 27//155 15//233 5//230
f 27//156 39//159 31//237 15//234
f 39//160 51//163 43//241 31//238
f 51//164 60//167 56//245 43//242
f 60//168 71//171 79//249 56//246
f 71//172 83//175 91//253 79//250
f 83//176 95//179 107//257 91//254
f 95//180 99//104 117//182 107//258
f 117//183 121//187 122//265 118//261
f 121//188 115//191 116//269 122//266
f 115//192 105//195 106//273 116//270
f 105//196 89//199 90//277 106//274
f 89//200 77//203 78//281 90//278
f 77//204 67//207 68//285 78//282
f 67//208 45//211 46//289 68//286
f 45//212 33//215 34//293 46//290
f 33//216 17//219 18//297 34//294
f 17//220 7//223 8//301 18//298
f 7//224 1//227 2//305 8//302
f 1//228 5//231 6//309 2//306
f 5//232 15//235 16//313 6//310
f 15//236 31//239 32//317 16//314
f 31//240 43//243 44//321 32//318
f 43//244 56//247 57//325 44//322
f 56//248 79//251 80//329 57//326
f 79//252 91//255 92//333 80//330
f 91//256 107//259 108//337 92//334
f 107//260 117//184 118//262 108//338
f 118//263 122//267 119//345 113//341
f 122//268 116//271 111//349 119//346
f 116//272 106//275 101//353 111//350
f 106//276 90//279 85//357 101//354
f 90//280 78//283 73//361 85//358
f 78//284 68//287 65//365 73//362
f 68//288 46//291 49//369 65//366
f 46//292 34//295 37//373 49//370
f 34//296 18//299 21//377 37//374
f 18//300 8//303 11//381 21//378
f 8//304 2//307 3//385 11//382
f 2//308 6//311 9//389 3//386
f 6//312 16//315 19//393 9//390
f 16//316 32//319 35//397 19//394
f 32//320 44//323 47//401 35//398
f 44//324 57//327 58//405 47//402
f 57//328 80//331 75//409 58//406
f 80//332 92//335 87//413 75//410
f 92//336 108//339 103//417 87//414
f 108//340 118//264 113//342 103//418
f 114//445 120//441 62//421
f 120//442 112//449 62//422
f 112//450 102//453 62//423
f 102//454 86//457 62//424
f 86//458 74//461 62//425
f 74//462 66//465 62//426
f 66//466 50//469 62//427
f 50//470 38//473 62//428
f 38//474 22//477 62//429
f 22//478 12//481 62//430
f 12//482 4//485 62//431
f 4//486 10//489 62//432
f 10//490 20//493 62//433
f 20//494 36//497 62//434
f 36//498 48//501 62//435
f 48//502 59//505 62//436
f 59//506 76//509 62//437
f 76//510 88//513 62//438
f 88//514 104//517 62//439
f 104//518 114//446 62//440
f 113//343 119//347 120//443 114//447
f 119//348 111//351 112//451 120//444
f 111//352 101//355 102//455 112//452
f 101//356 85//359 86//459 102//456
f 85//360 73//363 74//463 86//460
f 73//364 65//367 66//467 74//464
f 65//368 49//371 50//471 66//468
f 49//372 37//375 38//475 50//472
f 37//376 21//379 22//479 38//476
f 21//380 11//383 12//483 22//480
f 11//384 3//387 4//487 12//484
f 3//388 9//391 10//491 4//488
f 9//392 19//395 20//495 10//492
f 19//396 35//399 36//499 20//496
f 35//400 47//403 48//503 36//500
f 47//404 58//407 59//507 48//504
f 58//408 75//411 76//511 59//508
f 75//412 87//415 88//515 76//512
f 87//416 103//419 104//519 88//516
f 103//420 113//344 114//448 104//520
