# RokuSuper Output Ver2.0 for Wavefront Obj

v 10.95280500 2.82523500 4.81901400
v 11.20872800 2.67747800 4.81901400
v 11.20872800 2.38196300 4.81901400
v 10.95280500 2.23420600 4.81901400
v 10.69688000 2.67747800 4.81901400
v 10.69688000 2.38196300 4.81901400
v 10.69688000 2.38196300 3.06415500
v 10.95280500 2.23420600 3.06415500
v 11.20872800 2.38196300 3.06415500
v 11.20872800 2.67747800 3.06415500
v 10.95280500 2.82523500 3.06415500
v 10.69688000 2.67747800 3.06415500
v 5.24965000 0.80658100 3.92079700
v 5.24965000 0.80658100 4.66028700
v 5.46969800 0.80658100 4.83320000
v 5.46969800 0.80658100 3.74788400
v 7.55631800 0.80658100 4.83320000
v 7.55631800 0.80658100 3.74788400
v 5.07149900 0.80658100 4.29054200
v 7.55631800 3.54865900 3.74788400
v 5.46969800 3.54865900 3.74788400
v 5.24965000 3.54865900 3.92079700
v 5.07149900 3.54865900 4.29054200
v 5.24965000 3.54865900 4.66028700
v 5.46969800 3.54866000 4.83320000
v 7.55631800 3.54865900 4.83320000
v 15.89178100 2.78809900 3.44406500
v 15.89178100 12.21190100 3.44406500
v 1.37004800 2.93405200 1.11910300
v 1.37004800 12.06594800 1.11910300
v 1.90202000 1.67174600 1.11910300
v 1.90202000 13.32825400 1.11910300
v 0.55392700 6.33410900 4.28309000
v 0.55392700 8.66589100 4.28309000
v 0.83230700 10.24717100 4.33704500
v 0.83230700 4.75282800 4.33704500
v 9.98333200 1.62066700 1.11910300
v 9.98333200 1.62066700 3.24514200
v 15.95657200 2.51972900 3.23995800
v 16.62982400 2.60655000 1.11910300
v 0.83497800 4.74508500 1.11910300
v 0.55445700 6.33090800 1.11910300
v 1.36927500 2.93460800 4.45722400
v 1.90202000 1.67174600 3.24514200
v 9.98333200 3.91198400 5.11648800
v 4.13649300 3.77881700 5.11648800
v 15.95657200 12.48027000 3.23995800
v 9.98333200 13.37933300 3.24514200
v 9.98333200 13.37933300 1.11910300
v 16.62982400 12.39345000 1.11910300
v 0.83497800 10.25491500 1.11910300
v 0.55445700 8.66909000 1.11910300
v 1.90202000 13.32825400 3.24514200
v 1.36927500 12.06539200 4.45722400
v 4.13649300 11.22118200 5.11648800
v 9.98333200 11.08801600 5.11648800
v 11.20872800 12.61803600 4.81901400
v 11.20872800 12.32252100 4.81901400
v 10.95280500 12.17476500 4.81901400
v 10.95280500 12.76579400 4.81901400
v 10.69688000 12.32252100 4.81901400
v 10.69688000 12.61803600 4.81901400
v 10.69688000 12.61803600 3.06415500
v 10.95280500 12.76579400 3.06415500
v 11.20872800 12.61803600 3.06415500
v 11.20872800 12.32252100 3.06415500
v 10.95280500 12.17476500 3.06415500
v 10.69688000 12.32252100 3.06415500
v 5.46969700 14.19341900 4.83320000
v 5.24965000 14.19341900 4.66028700
v 5.24965000 14.19341900 3.92079700
v 5.46969700 14.19341900 3.74788400
v 7.55631800 14.19341900 4.83320000
v 7.55631800 14.19341900 3.74788400
v 5.07149900 14.19341900 4.29054300
v 7.55631800 11.45134200 3.74788400
v 5.46969700 11.45134200 3.74788400
v 5.24965000 11.45134200 3.92079700
v 5.07149900 11.45134200 4.29054300
v 5.24965000 11.45134200 4.66028700
v 5.46969700 11.45134200 4.83320000
v 7.55631800 11.45134200 4.83320000

vn 0.00000000 0.00000000 1.00000000
vn 0.00000000 0.00000000 1.00000000
vn 0.00000000 0.00000000 1.00000000
vn 0.00000000 0.00000000 1.00000000
vn 0.00000000 0.00000000 1.00000000
vn 0.00000000 0.00000000 1.00000000
vn 0.00000000 0.00000000 1.00000000
vn 0.00000000 0.00000000 1.00000000
vn -0.49999653 -0.86602741 0.00000000
vn -0.49999653 -0.86602741 0.00000000
vn -0.18897960 -0.98198101 0.00000000
vn 0.18898292 -0.98198037 0.00000000
vn 0.18898292 -0.98198037 0.00000000
vn -0.18897960 -0.98198101 0.00000000
vn 0.49999946 -0.86602572 0.00000000
vn 0.49999946 -0.86602572 0.00000000
vn 1.00000000 0.00000000 0.00000000
vn 1.00000000 0.00000000 0.00000000
vn 1.00000000 0.00000000 0.00000000
vn 1.00000000 0.00000000 0.00000000
vn 0.49999946 0.86602572 0.00000000
vn 0.49999946 0.86602572 0.00000000
vn 0.18898292 0.98198037 0.00000000
vn -0.18897960 0.98198101 0.00000000
vn -0.18897960 0.98198101 0.00000000
vn 0.18898292 0.98198037 0.00000000
vn -0.49999653 0.86602741 0.00000000
vn -0.49999653 0.86602741 0.00000000
vn -1.00000000 0.00000000 0.00000000
vn -1.00000000 0.00000000 0.00000000
vn -1.00000000 0.00000000 0.00000000
vn -1.00000000 0.00000000 0.00000000
vn 0.00000000 -1.00000000 0.00000000
vn 0.00000000 -1.00000000 0.00000000
vn 0.00000000 -1.00000000 0.00000000
vn 0.00000000 -1.00000000 0.00000000
vn 0.00000000 -1.00000000 0.00000000
vn 0.00000000 -1.00000000 0.00000000
vn 0.00000000 -1.00000000 0.00000000
vn 0.00000000 -1.00000000 0.00000000
vn 0.00000000 -1.00000000 0.00000000
vn 0.00000000 -1.00000000 0.00000000
vn 0.00000000 -1.00000000 0.00000000
vn 0.00000000 0.00000000 -1.00000000
vn -0.43298390 0.00000000 -0.90140165
vn -0.21649195 0.00000000 -0.97628440
vn 0.00000000 0.00000000 -1.00000000
vn -0.43298390 0.00000000 -0.90140165
vn -0.82548502 0.00000000 -0.56442402
vn -0.72892915 0.00000000 -0.68458914
vn -0.21649195 0.00000000 -0.97628440
vn -0.82548502 0.00000000 -0.56442402
vn -0.98734695 0.00000000 0.15857492
vn -0.98734695 0.00000000 -0.15857492
vn -0.72892915 0.00000000 -0.68458914
vn -0.98734695 0.00000000 0.15857492
vn -0.72892915 0.00000000 0.68458914
vn -0.82548502 0.00000000 0.56442402
vn -0.98734695 0.00000000 -0.15857492
vn -0.72892915 0.00000000 0.68458914
vn -0.21649195 0.00000000 0.97628440
vn -0.43298390 0.00000000 0.90140165
vn -0.82548502 0.00000000 0.56442402
vn -0.21649195 0.00000000 0.97628440
vn 0.00000000 0.00000000 1.00000000
vn 0.00000000 0.00000000 1.00000000
vn -0.43298390 0.00000000 0.90140165
vn 1.00000000 0.00000000 0.00000000
vn 1.00000000 0.00000000 0.00000000
vn 1.00000000 0.00000000 0.00000000
vn 1.00000000 0.00000000 0.00000000
vn 0.52476836 0.24235238 0.81601685
vn 0.41603537 -0.35874065 0.83559543
vn 0.95312984 0.00000000 0.30256159
vn 0.95312984 0.00000000 0.30256159
vn 0.00000000 0.00000000 -1.00000000
vn 0.00000000 0.00000000 -1.00000000
vn 0.00000000 0.00000000 -1.00000000
vn 0.00000000 0.00000000 -1.00000000
vn 0.00000000 0.00000000 -1.00000000
vn 0.00000000 0.00000000 -1.00000000
vn 0.00000000 0.00000000 -1.00000000
vn 0.00000000 0.00000000 -1.00000000
vn 0.00000000 0.00000000 -1.00000000
vn 0.00000000 0.00000000 -1.00000000
vn 0.00000000 0.00000000 -1.00000000
vn 0.00000000 0.00000000 -1.00000000
vn -0.19027684 0.00000000 0.98173047
vn -0.19027684 0.00000000 0.98173047
vn -0.19967191 0.00000000 0.97986281
vn -0.20904951 0.00000000 0.97790506
vn -0.20904951 0.00000000 0.97790506
vn -0.19967191 0.00000000 0.97986281
vn -0.18192327 -0.14389087 0.97272778
vn -0.14850953 0.24489359 0.95810858
vn 0.06669605 -0.90009043 0.43056806
vn 0.07041022 -0.99751812 0.00000000
vn 0.14778431 -0.98901382 0.00338438
vn 0.13311194 -0.88176762 0.45251197
vn -0.97757969 -0.21056572 -0.00016767
vn -0.99620653 -0.08702038 -0.00007884
vn -0.99618864 -0.08722476 -0.00018139
vn -0.96894684 -0.24726902 -0.00022952
vn -0.92146657 -0.38845766 -0.00007433
vn -0.94781357 -0.31882505 -0.00014622
vn -0.93527967 -0.35390948 -0.00010799
vn -0.92151138 -0.38835136 0.00000000
vn -0.94781357 -0.31882505 -0.00014622
vn -0.97757969 -0.21056572 -0.00016767
vn -0.96894684 -0.24726902 -0.00022952
vn -0.93527967 -0.35390948 -0.00010799
vn 0.41603537 -0.35874065 0.83559543
vn 0.10278962 -0.33676356 0.93596186
vn 0.06669605 -0.90009043 0.43056806
vn 0.13311194 -0.88176762 0.45251197
vn 0.00891234 -0.84598761 0.53312807
vn -0.05152399 -0.35832059 0.93217575
vn -0.18192327 -0.14389087 0.97272778
vn -0.05152399 -0.35832059 0.93217575
vn 0.00891234 -0.84598761 0.53312807
vn 0.06669605 -0.90009043 0.43056806
vn 0.10278962 -0.33676356 0.93596186
vn -0.00632051 -0.99998003 0.00000000
vn 0.07041022 -0.99751812 0.00000000
vn 0.06669605 -0.90009043 0.43056806
vn 0.00891234 -0.84598761 0.53312807
vn 0.06669609 0.90009048 0.43056796
vn 0.13311213 0.88176786 0.45251143
vn 0.14778439 0.98901381 0.00338464
vn 0.07041022 0.99751812 0.00000000
vn -0.97757971 0.21056564 -0.00016765
vn -0.96894687 0.24726890 -0.00022948
vn -0.99321995 0.11625014 -0.00018574
vn -0.99831721 0.05798904 -0.00010860
vn -0.92146657 0.38845766 -0.00007433
vn -0.92151138 0.38835136 0.00000000
vn -0.93527967 0.35390948 -0.00010799
vn -0.94781359 0.31882501 -0.00014619
vn -0.18192327 -0.14389087 0.97272778
vn -0.05152399 -0.35832059 0.93217575
vn -0.05152394 0.35832055 0.93217577
vn -0.14850953 0.24489359 0.95810858
vn -0.05152399 -0.35832059 0.93217575
vn 0.10278962 -0.33676356 0.93596186
vn 0.10278959 0.33676356 0.93596186
vn -0.05152394 0.35832055 0.93217577
vn 0.10278962 -0.33676356 0.93596186
vn 0.41603537 -0.35874065 0.83559543
vn 0.52476836 0.24235238 0.81601685
vn 0.10278959 0.33676356 0.93596186
vn 0.95312984 0.00000000 0.30256159
vn 0.95312884 0.00000000 0.30256472
vn 0.95312884 0.00000000 0.30256472
vn 0.95312984 0.00000000 0.30256159
vn -0.99618864 -0.08722476 -0.00018139
vn -0.99620653 -0.08702038 -0.00007884
vn -0.99831721 0.05798904 -0.00010860
vn -0.99321995 0.11625014 -0.00018574
vn -0.94781359 0.31882501 -0.00014619
vn -0.93527967 0.35390948 -0.00010799
vn -0.96894687 0.24726890 -0.00022948
vn -0.97757971 0.21056564 -0.00016765
vn 0.52476836 0.24235238 0.81601685
vn 0.13311213 0.88176786 0.45251143
vn 0.06669609 0.90009048 0.43056796
vn 0.10278959 0.33676356 0.93596186
vn 0.00891242 0.84598755 0.53312815
vn -0.14850953 0.24489359 0.95810858
vn -0.05152394 0.35832055 0.93217577
vn -0.05152394 0.35832055 0.93217577
vn 0.10278959 0.33676356 0.93596186
vn 0.06669609 0.90009048 0.43056796
vn 0.00891242 0.84598755 0.53312815
vn 0.00000000 0.00000000 -1.00000000
vn 0.00000000 0.00000000 -1.00000000
vn 0.00000000 0.00000000 -1.00000000
vn 0.00000000 0.00000000 -1.00000000
vn -0.00632051 0.99998003 0.00000000
vn 0.00891242 0.84598755 0.53312815
vn 0.06669609 0.90009048 0.43056796
vn 0.07041022 0.99751812 0.00000000
vn 0.00000000 0.00000000 -1.00000000
vn 0.00000000 0.00000000 -1.00000000
vn 0.00000000 0.00000000 -1.00000000
vn 0.00000000 0.00000000 -1.00000000
vn 0.00000000 0.00000000 1.00000000
vn 0.00000000 0.00000000 1.00000000
vn 0.00000000 0.00000000 1.00000000
vn 0.00000000 0.00000000 1.00000000
vn 0.00000000 0.00000000 1.00000000
vn 0.00000000 0.00000000 1.00000000
vn 0.00000000 0.00000000 1.00000000
vn 0.00000000 0.00000000 1.00000000
vn -0.49999907 0.86602594 0.00000000
vn -0.49999907 0.86602594 0.00000000
vn -0.49999907 0.86602594 0.00000000
vn -0.49999907 0.86602594 0.00000000
vn 0.50000200 0.86602425 0.00000000
vn 0.94491140 0.32732621 0.00000000
vn 0.75593002 0.65465243 0.00000000
vn 0.50000200 0.86602425 0.00000000
vn 0.94491140 0.32732621 0.00000000
vn 1.00000000 0.00000000 0.00000000
vn 1.00000000 0.00000000 0.00000000
vn 0.75593002 0.65465243 0.00000000
vn 0.49999692 -0.86602718 0.00000000
vn -0.18897837 -0.98198125 0.00000000
vn 0.18898169 -0.98198061 0.00000000
vn 0.49999692 -0.86602718 0.00000000
vn -0.18897837 -0.98198125 0.00000000
vn -0.49999399 -0.86602887 0.00000000
vn -0.49999399 -0.86602887 0.00000000
vn 0.18898169 -0.98198061 0.00000000
vn -1.00000000 0.00000000 0.00000000
vn -1.00000000 0.00000000 0.00000000
vn -1.00000000 0.00000000 0.00000000
vn -1.00000000 0.00000000 0.00000000
vn 0.00000000 1.00000000 0.00000000
vn 0.00000000 1.00000000 0.00000000
vn 0.00000000 1.00000000 0.00000000
vn 0.00000000 1.00000000 0.00000000
vn 0.00000000 1.00000000 0.00000000
vn 0.00000000 1.00000000 0.00000000
vn 0.00000000 1.00000000 0.00000000
vn 0.00000000 1.00000000 0.00000000
vn 0.00000000 1.00000000 0.00000000
vn 0.00000000 1.00000000 0.00000000
vn 0.00000000 1.00000000 0.00000000
vn 0.00000000 0.00000000 -1.00000000
vn 0.00000000 0.00000000 -1.00000000
vn -0.21649263 0.00000000 -0.97628425
vn -0.43298527 0.00000000 -0.90140100
vn -0.43298527 0.00000000 -0.90140100
vn -0.21649263 0.00000000 -0.97628425
vn -0.72893040 0.00000000 -0.68458781
vn -0.82548583 0.00000000 -0.56442284
vn -0.82548583 0.00000000 -0.56442284
vn -0.72893040 0.00000000 -0.68458781
vn -0.98734712 0.00000000 -0.15857387
vn -0.98734678 0.00000000 0.15857596
vn -0.98734678 0.00000000 0.15857596
vn -0.98734712 0.00000000 -0.15857387
vn -0.82548503 0.00000000 0.56442402
vn -0.72892993 0.00000000 0.68458831
vn -0.72892993 0.00000000 0.68458831
vn -0.82548503 0.00000000 0.56442402
vn -0.43298527 0.00000000 0.90140100
vn -0.21649263 0.00000000 0.97628425
vn -0.21649263 0.00000000 0.97628425
vn -0.43298527 0.00000000 0.90140100
vn 0.00000000 0.00000000 1.00000000
vn 0.00000000 0.00000000 1.00000000
vn 1.00000000 0.00000000 0.00000000
vn 1.00000000 0.00000000 0.00000000
vn 1.00000000 0.00000000 0.00000000
vn 1.00000000 0.00000000 0.00000000

g ²ã
f 2//1 1//2 4//3 3//4
f 1//5 5//6 6//7 4//8
f 6//9 7//10 8//11 4//12
f 4//13 8//14 9//15 3//16
f 3//17 9//18 10//19 2//20
f 2//21 10//22 11//23 1//24
f 1//25 11//26 12//27 5//28
f 5//29 12//30 7//31 6//32
f 14//33 13//34 16//35 15//36
f 15//37 16//38 18//39 17//40
f 14//41 19//42 13//43
f 18//44 16//45 21//46 20//47
f 16//48 13//49 22//50 21//51
f 13//52 19//53 23//54 22//55
f 19//56 14//57 24//58 23//59
f 14//60 15//61 25//62 24//63
f 15//64 17//65 26//66 25//67
f 26//68 17//69 18//70 20//71
f 28//72 27//73 39//74 47//75
f 30//76 29//77 41//78 51//79
f 32//80 31//81 29//82 30//83
f 49//84 37//85 31//86 32//87
f 34//88 33//89 36//90 35//91
f 35//92 36//93 43//94 54//95
f 38//96 37//97 40//98 39//99
f 36//100 33//101 42//102 41//103
f 44//104 43//105 29//106 31//107
f 43//108 36//109 41//110 29//111
f 27//112 45//113 38//114 39//115
f 44//116 46//117 43//118
f 46//119 44//120 38//121 45//122
f 31//123 37//124 38//125 44//126
f 48//127 47//128 50//129 49//130
f 35//131 51//132 52//133 34//134
f 53//135 32//136 30//137 54//138
f 43//139 46//140 55//141 54//142
f 46//143 45//144 56//145 55//146
f 45//147 27//148 28//149 56//150
f 39//151 40//152 50//153 47//154
f 42//155 33//156 34//157 52//158
f 54//159 30//160 51//161 35//162
f 28//163 47//164 48//165 56//166
f 53//167 54//168 55//169
f 55//170 56//171 48//172 53//173
f 41//174 42//175 52//176 51//177
f 32//178 53//179 48//180 49//181
f 40//182 37//183 49//184 50//185
f 58//186 57//187 60//188 59//189
f 59//190 60//191 62//192 61//193
f 62//194 60//195 64//196 63//197
f 60//198 57//199 65//200 64//201
f 57//202 58//203 66//204 65//205
f 58//206 59//207 67//208 66//209
f 59//210 61//211 68//212 67//213
f 61//214 62//215 63//216 68//217
f 70//218 69//219 72//220 71//221
f 69//222 73//223 74//224 72//225
f 70//226 71//227 75//228
f 74//229 76//230 77//231 72//232
f 72//233 77//234 78//235 71//236
f 71//237 78//238 79//239 75//240
f 75//241 79//242 80//243 70//244
f 70//245 80//246 81//247 69//248
f 69//249 81//250 82//251 73//252
f 82//253 76//254 74//255 73//256

