v 11.4759 8.87964 1.78688
v 11.4759 9.2407 2.14795
v 11.4759 9.39026 1.78688
v 11.4759 8.87964 2.29751
v 11.4759 8.51857 2.14795
v 11.4759 8.36902 1.78688
v 11.4759 8.51857 1.42582
v 11.4759 8.87964 1.27626
v 11.4759 9.2407 1.42582
v 17.9257 9.25595 1.78699
v 17.9257 9.14573 2.05309
v 17.9257 8.87964 2.1633
v 17.9257 8.61355 2.05309
v 17.9257 8.50333 1.78699
v 17.9257 8.61355 1.5209
v 17.9257 8.87964 1.41068
v 17.9257 9.14573 1.5209
v 13.18 9.39026 1.78691
v 13.18 9.2407 2.14798
v 13.18 8.87964 2.29754
v 13.18 8.51857 2.14798
v 13.18 8.36901 1.78691
v 13.18 8.51857 1.42585
v 13.18 8.87964 1.27629
v 13.18 9.2407 1.42585
v 13.2588 9.25595 1.78691
v 13.2587 9.14573 2.053
v 13.2587 8.87964 2.16322
v 13.2587 8.61355 2.053
v 13.2588 8.50333 1.78691
v 13.2588 8.61355 1.52082
v 13.2588 8.87964 1.4106
v 13.2588 9.14573 1.52082
v 17.9257 9.18712 1.78699
v 17.9257 9.09706 2.00442
v 17.9257 8.87964 2.09447
v 17.9257 8.66222 2.00442
v 17.9257 8.57216 1.78699
v 17.9257 8.66222 1.56957
v 17.9257 8.87964 1.47951
v 17.9257 9.09706 1.56957
v 12.3395 9.18712 1.78699
v 12.3395 9.09706 1.56957
v 12.3396 8.87964 1.47951
v 12.3395 8.66222 1.56957
v 12.3395 8.57216 1.78699
v 12.3395 8.66222 2.00442
v 12.3395 8.87964 2.09447
v 12.3395 9.09706 2.00442
v 12.3395 8.87964 1.78699
v 11.4759 6.22049 1.78688
v 11.4759 6.58156 2.14795
v 11.4759 6.73111 1.78688
v 11.4759 6.22049 2.29751
v 11.4759 5.85943 2.14795
v 11.4759 5.70987 1.78688
v 11.4759 5.85943 1.42582
v 11.4759 6.22049 1.27626
v 11.4759 6.58156 1.42582
v 17.9257 6.5968 1.78699
v 17.9257 6.48658 2.05309
v 17.9257 6.22049 2.1633
v 17.9257 5.9544 2.05309
v 17.9257 5.84418 1.78699
v 17.9257 5.9544 1.5209
v 17.9257 6.22049 1.41068
v 17.9257 6.48658 1.5209
v 13.18 6.73111 1.78691
v 13.18 6.58156 2.14798
v 13.18 6.22049 2.29754
v 13.18 5.85943 2.14798
v 13.18 5.70987 1.78691
v 13.18 5.85943 1.42585
v 13.18 6.22049 1.27629
v 13.18 6.58156 1.42585
v 13.2588 6.5968 1.78691
v 13.2587 6.48658 2.053
v 13.2587 6.22049 2.16322
v 13.2587 5.9544 2.053
v 13.2588 5.84418 1.78691
v 13.2588 5.9544 1.52082
v 13.2588 6.22049 1.4106
v 13.2588 6.48658 1.52082
v 17.9257 6.52797 1.78699
v 17.9257 6.43791 2.00442
v 17.9257 6.22049 2.09447
v 17.9257 6.00307 2.00442
v 17.9257 5.91301 1.78699
v 17.9257 6.00307 1.56957
v 17.9257 6.22049 1.47951
v 17.9257 6.43791 1.56957
v 12.3395 6.52797 1.78699
v 12.3395 6.43791 1.56957
v 12.3396 6.22049 1.47951
v 12.3395 6.00307 1.56957
v 12.3395 5.91301 1.78699
v 12.3395 6.00307 2.00442
v 12.3395 6.22049 2.09447
v 12.3395 6.43791 2.00442
v 12.3395 6.22049 1.78699
vt 0 1
vn -1 0 -4.13811e-05
vn nan nan nan
vn nan nan nan
vn nan nan nan
vn nan nan nan
vn nan nan nan
vn nan nan nan
vn nan nan nan
vn nan nan nan
vn nan nan nan
vn nan nan nan
vn nan nan nan
vn nan nan nan
vn nan nan nan
vn nan nan nan
vn nan nan nan
vn nan nan nan
vn nan nan nan
vn nan nan nan
vn nan nan nan
vn nan nan nan
vn nan nan nan
vn nan nan nan
vn nan nan nan
vn nan nan nan
vn nan nan nan
vn nan nan nan
vn nan nan nan
vn nan nan nan
vn nan nan nan
vn nan nan nan
vn nan nan nan
vn nan nan nan
vn -5.72795e-06 0.923882 0.382679
vn -1.57518e-05 0.382683 0.92388
vn -1.5752e-05 -0.382689 0.923877
vn -7.87588e-06 -0.923875 0.382693
vn 7.15993e-06 -0.923879 -0.382684
vn 1.57518e-05 -0.382683 -0.92388
vn 1.71839e-05 0.382689 -0.923877
vn 6.44397e-06 0.923881 -0.38268
vn 0.844322 0.495 0.205173
vn 0.844366 0.205059 0.494972
vn 0.844307 -0.20504 0.495079
vn 0.84434 -0.494997 0.205103
vn 0.844327 -0.495022 -0.205098
vn 0.844352 -0.205008 -0.495017
vn 0.84438 0.205034 -0.494958
vn 0.844345 0.495019 -0.205028
vn 1 0 0
vn nan nan nan
vn nan nan nan
vn nan nan nan
vn nan nan nan
vn nan nan nan
vn nan nan nan
vn nan nan nan
vn nan nan nan
vn nan nan nan
vn nan nan nan
vn nan nan nan
vn nan nan nan
vn nan nan nan
vn nan nan nan
vn nan nan nan
vn nan nan nan
vn nan nan nan
vn nan nan nan
vn nan nan nan
vn nan nan nan
vn nan nan nan
vn nan nan nan
vn nan nan nan
vn nan nan nan
vn nan nan nan
vn nan nan nan
vn nan nan nan
vn nan nan nan
vn nan nan nan
vn nan nan nan
vn nan nan nan
vn nan nan nan
f 1//1 2//1 3//1
f 1//1 4//1 2//1
f 1//1 5//1 4//1
f 1//1 6//1 5//1
f 1//1 7//1 6//1
f 1//1 8//1 7//1
f 1//1 9//1 8//1
f 1//1 3//1 9//1
f 10//2 10//3 11//4
f 10//2 11//4 11//5
f 11//6 11//7 12//8
f 11//6 12//8 12//9
f 12//10 12//11 13//12
f 12//10 13//12 13//13
f 13//14 13//15 14//16
f 13//14 14//16 14//17
f 14//18 14//19 15//20
f 14//18 15//20 15//21
f 15//22 15//23 16//24
f 15//22 16//24 16//25
f 16//26 16//27 17//28
f 16//26 17//28 17//29
f 10//30 10//31 17//32
f 10//30 17//32 17//33
f 18//34 3//34 2//34
f 18//34 2//34 19//34
f 19//35 2//35 4//35
f 19//35 4//35 20//35
f 20//36 4//36 5//36
f 20//36 5//36 21//36
f 21//37 5//37 6//37
f 21//37 6//37 22//37
f 22//38 6//38 7//38
f 22//38 7//38 23//38
f 23//39 7//39 8//39
f 23//39 8//39 24//39
f 24//40 8//40 9//40
f 24//40 9//40 25//40
f 3//41 18//41 25//41
f 3//41 25//41 9//41
f 10//34 26//34 27//34
f 10//34 27//34 11//34
f 26//42 18//42 19//42
f 26//42 19//42 27//42
f 11//35 27//35 28//35
f 11//35 28//35 12//35
f 27//43 19//43 20//43
f 27//43 20//43 28//43
f 12//36 28//36 29//36
f 12//36 29//36 13//36
f 28//44 20//44 21//44
f 28//44 21//44 29//44
f 13//37 29//37 30//37
f 13//37 30//37 14//37
f 29//45 21//45 22//45
f 29//45 22//45 30//45
f 14//38 30//38 31//38
f 14//38 31//38 15//38
f 30//46 22//46 23//46
f 30//46 23//46 31//46
f 15//39 31//39 32//39
f 15//39 32//39 16//39
f 31//47 23//47 24//47
f 31//47 24//47 32//47
f 16//40 32//40 33//40
f 16//40 33//40 17//40
f 32//48 24//48 25//48
f 32//48 25//48 33//48
f 18//49 26//49 33//49
f 18//49 33//49 25//49
f 26//41 10//41 17//41
f 26//41 17//41 33//41
f 34//50 10//50 11//50
f 34//50 11//50 35//50
f 12//50 36//50 35//50
f 12//50 35//50 11//50
f 13//50 37//50 36//50
f 13//50 36//50 12//50
f 14//50 38//50 37//50
f 14//50 37//50 13//50
f 15//50 39//50 38//50
f 15//50 38//50 14//50
f 16//50 40//50 39//50
f 16//50 39//50 15//50
f 17//50 41//50 40//50
f 17//50 40//50 16//50
f 10//50 34//50 41//50
f 10//50 41//50 17//50
f 41//37 34//37 42//37
f 41//37 42//37 43//37
f 40//36 41//36 43//36
f 40//36 43//36 44//36
f 39//35 40//35 44//35
f 39//35 44//35 45//35
f 38//34 39//34 45//34
f 38//34 45//34 46//34
f 37//41 38//41 46//41
f 37//41 46//41 47//41
f 36//40 37//40 47//40
f 36//40 47//40 48//40
f 35//39 36//39 48//39
f 35//39 48//39 49//39
f 34//38 35//38 49//38
f 34//38 49//38 42//38
f 42//50 50//50 43//50
f 43//50 50//50 44//50
f 44//50 50//50 45//50
f 45//50 50//50 46//50
f 46//50 50//50 47//50
f 47//50 50//50 48//50
f 48//50 50//50 49//50
f 49//50 50//50 42//50
f 51//1 52//1 53//1
f 51//1 54//1 52//1
f 51//1 55//1 54//1
f 51//1 56//1 55//1
f 51//1 57//1 56//1
f 51//1 58//1 57//1
f 51//1 59//1 58//1
f 51//1 53//1 59//1
f 60//51 60//52 61//53
f 60//51 61//53 61//54
f 61//55 61//56 62//57
f 61//55 62//57 62//58
f 62//59 62//60 63//61
f 62//59 63//61 63//62
f 63//63 63//64 64//65
f 63//63 64//65 64//66
f 64//67 64//68 65//69
f 64//67 65//69 65//70
f 65//71 65//72 66//73
f 65//71 66//73 66//74
f 66//75 66//76 67//77
f 66//75 67//77 67//78
f 60//79 60//80 67//81
f 60//79 67//81 67//82
f 68//34 53//34 52//34
f 68//34 52//34 69//34
f 69//35 52//35 54//35
f 69//35 54//35 70//35
f 70//36 54//36 55//36
f 70//36 55//36 71//36
f 71//37 55//37 56//37
f 71//37 56//37 72//37
f 72//38 56//38 57//38
f 72//38 57//38 73//38
f 73//39 57//39 58//39
f 73//39 58//39 74//39
f 74//40 58//40 59//40
f 74//40 59//40 75//40
f 53//41 68//41 75//41
f 53//41 75//41 59//41
f 60//34 76//34 77//34
f 60//34 77//34 61//34
f 76//42 68//42 69//42
f 76//42 69//42 77//42
f 61//35 77//35 78//35
f 61//35 78//35 62//35
f 77//43 69//43 70//43
f 77//43 70//43 78//43
f 62//36 78//36 79//36
f 62//36 79//36 63//36
f 78//44 70//44 71//44
f 78//44 71//44 79//44
f 63//37 79//37 80//37
f 63//37 80//37 64//37
f 79//45 71//45 72//45
f 79//45 72//45 80//45
f 64//38 80//38 81//38
f 64//38 81//38 65//38
f 80//46 72//46 73//46
f 80//46 73//46 81//46
f 65//39 81//39 82//39
f 65//39 82//39 66//39
f 81//47 73//47 74//47
f 81//47 74//47 82//47
f 66//40 82//40 83//40
f 66//40 83//40 67//40
f 82//48 74//48 75//48
f 82//48 75//48 83//48
f 68//49 76//49 83//49
f 68//49 83//49 75//49
f 76//41 60//41 67//41
f 76//41 67//41 83//41
f 84//50 60//50 61//50
f 84//50 61//50 85//50
f 62//50 86//50 85//50
f 62//50 85//50 61//50
f 63//50 87//50 86//50
f 63//50 86//50 62//50
f 64//50 88//50 87//50
f 64//50 87//50 63//50
f 65//50 89//50 88//50
f 65//50 88//50 64//50
f 66//50 90//50 89//50
f 66//50 89//50 65//50
f 67//50 91//50 90//50
f 67//50 90//50 66//50
f 60//50 84//50 91//50
f 60//50 91//50 67//50
f 91//37 84//37 92//37
f 91//37 92//37 93//37
f 90//36 91//36 93//36
f 90//36 93//36 94//36
f 89//35 90//35 94//35
f 89//35 94//35 95//35
f 88//34 89//34 95//34
f 88//34 95//34 96//34
f 87//41 88//41 96//41
f 87//41 96//41 97//41
f 86//40 87//40 97//40
f 86//40 97//40 98//40
f 85//39 86//39 98//39
f 85//39 98//39 99//39
f 84//38 85//38 99//38
f 84//38 99//38 92//38
f 92//50 100//50 93//50
f 93//50 100//50 94//50
f 94//50 100//50 95//50
f 95//50 100//50 96//50
f 96//50 100//50 97//50
f 97//50 100//50 98//50
f 98//50 100//50 99//50
f 99//50 100//50 92//50
