# This file uses centimeters as units for non-parametric coordinates.

mtllib GunB.mtl
g default
v 4.545009 4.991010 0.069525
v 1.611170 4.967533 0.069525
v 2.543466 6.862788 0.086813
v 4.545009 4.991010 1.125800
v 2.626534 6.886738 0.638146
v 1.707493 4.968263 0.638146
v 4.638918 7.854416 0.069525
v 4.635988 7.783031 0.638146
v 6.663929 6.969076 0.069525
v 6.599957 6.954979 0.638146
v 7.384928 4.967533 0.069525
v 7.314273 4.991010 0.638146
v 6.570020 2.942512 0.069525
v 6.531715 3.027041 0.638146
v 4.568486 2.104131 0.069525
v 4.613241 2.153500 0.638146
v 2.566943 2.848603 0.069525
v 2.603787 2.913315 0.638146
vn 0.000000 -0.000000 -1.000000
vn 0.000000 -0.000000 -1.000000
vn 0.000000 -0.000000 -1.000000
vn -0.114528 0.047439 0.992287
vn -0.114528 0.047439 0.992287
vn -0.114528 0.047439 0.992287
vn 0.000000 -0.000000 -1.000000
vn 0.000000 -0.000000 -1.000000
vn 0.000000 -0.000000 -1.000000
vn -0.047439 0.114528 0.992287
vn -0.047439 0.114528 0.992287
vn -0.047439 0.114528 0.992287
vn 0.000000 -0.000000 -1.000000
vn 0.000000 -0.000000 -1.000000
vn 0.000000 -0.000000 -1.000000
vn 0.047439 0.114528 0.992287
vn 0.047439 0.114528 0.992287
vn 0.047439 0.114528 0.992287
vn 0.000000 -0.000000 -1.000000
vn 0.000000 -0.000000 -1.000000
vn 0.000000 -0.000000 -1.000000
vn 0.114528 0.047439 0.992287
vn 0.114528 0.047439 0.992287
vn 0.114528 0.047439 0.992287
vn 0.000000 -0.000000 -1.000000
vn 0.000000 -0.000000 -1.000000
vn 0.000000 -0.000000 -1.000000
vn 0.114528 -0.047439 0.992287
vn 0.114528 -0.047439 0.992287
vn 0.114528 -0.047439 0.992287
vn 0.000000 -0.000000 -1.000000
vn 0.000000 -0.000000 -1.000000
vn 0.000000 -0.000000 -1.000000
vn 0.047439 -0.114528 0.992287
vn 0.047439 -0.114528 0.992287
vn 0.047439 -0.114528 0.992287
vn 0.000000 -0.000000 -1.000000
vn 0.000000 -0.000000 -1.000000
vn 0.000000 -0.000000 -1.000000
vn -0.047439 -0.114528 0.992287
vn -0.047439 -0.114528 0.992287
vn -0.047439 -0.114528 0.992287
vn 0.000000 -0.000000 -1.000000
vn 0.000000 -0.000000 -1.000000
vn 0.000000 -0.000000 -1.000000
vn -0.114528 -0.047439 0.992287
vn -0.114528 -0.047439 0.992287
vn -0.114528 -0.047439 0.992287
vn -0.923880 0.382683 -0.000000
vn -0.923880 0.382683 -0.000000
vn -0.923880 0.382683 -0.000000
vn -0.923880 0.382683 -0.000000
vn -0.923880 0.382683 -0.000000
vn -0.923880 0.382683 -0.000000
vn -0.382683 0.923880 -0.000001
vn -0.382683 0.923880 -0.000001
vn -0.382683 0.923880 -0.000001
vn -0.382683 0.923880 -0.000001
vn -0.382683 0.923880 -0.000001
vn -0.382683 0.923880 -0.000001
vn 0.382683 0.923880 0.000001
vn 0.382683 0.923880 0.000001
vn 0.382683 0.923880 0.000001
vn 0.382683 0.923880 0.000001
vn 0.382683 0.923880 0.000001
vn 0.382683 0.923880 0.000001
vn 0.923880 0.382684 0.000000
vn 0.923880 0.382684 0.000000
vn 0.923880 0.382684 0.000000
vn 0.923880 0.382684 0.000000
vn 0.923880 0.382684 0.000000
vn 0.923880 0.382684 0.000000
vn 0.923880 -0.382683 -0.000001
vn 0.923880 -0.382683 -0.000001
vn 0.923880 -0.382683 -0.000001
vn 0.923880 -0.382683 -0.000001
vn 0.923880 -0.382683 -0.000001
vn 0.923880 -0.382683 -0.000001
vn 0.382683 -0.923880 -0.000000
vn 0.382683 -0.923880 -0.000000
vn 0.382683 -0.923880 -0.000000
vn 0.382683 -0.923880 -0.000000
vn 0.382683 -0.923880 -0.000000
vn 0.382683 -0.923880 -0.000000
vn -0.382684 -0.923879 0.000002
vn -0.382684 -0.923879 0.000002
vn -0.382684 -0.923879 0.000002
vn -0.382684 -0.923879 0.000002
vn -0.382684 -0.923879 0.000002
vn -0.382684 -0.923879 0.000002
vn -0.923880 -0.382683 -0.000002
vn -0.923880 -0.382683 -0.000002
vn -0.923880 -0.382683 -0.000002
vn -0.923880 -0.382683 -0.000002
vn -0.923880 -0.382683 -0.000002
vn -0.923880 -0.382683 -0.000002
s off
g polySurface1
usemtl initialShadingGroup
f 1//1 2//2 3//3
f 4//4 5//5 6//6
f 1//7 3//8 7//9
f 4//10 8//11 5//12
f 1//13 7//14 9//15
f 4//16 10//17 8//18
f 1//19 9//20 11//21
f 4//22 12//23 10//24
f 1//25 11//26 13//27
f 4//28 14//29 12//30
f 1//31 13//32 15//33
f 4//34 16//35 14//36
f 1//37 15//38 17//39
f 4//40 18//41 16//42
f 17//43 2//44 1//45
f 4//46 6//47 18//48
f 2//49 6//50 5//51
f 2//52 5//53 3//54
f 3//55 5//56 8//57
f 3//58 8//59 7//60
f 7//61 8//62 10//63
f 7//64 10//65 9//66
f 9//67 10//68 12//69
f 9//70 12//71 11//72
f 11//73 12//74 14//75
f 11//76 14//77 13//78
f 13//79 14//80 16//81
f 13//82 16//83 15//84
f 15//85 16//86 18//87
f 15//88 18//89 17//90
f 6//91 2//92 17//93
f 6//94 17//95 18//96
