# Rhino

v 18.22307395935059 7.587408065795898 1.468399047851563
v 18.22307395935059 7.587408065795898 1.468399047851563
v 18.22307395935059 7.587408065795898 0.003276000032201409
v 18.22307395935059 7.587408065795898 0.003276000032201409
v 16.03683090209961 12.86547183990479 1.468399047851563
v 16.03683090209961 12.86547183990479 1.468399047851563
v 16.03683090209961 12.86547183990479 0.003276000032201409
v 16.03683090209961 12.86547183990479 0.003276000032201409
v 16.03682899475098 2.309343099594116 1.468399047851563
v 16.03682899475098 2.309343099594116 1.468399047851563
v 16.03682899475098 2.309343099594116 0.003276000032201409
v 16.03682899475098 2.309343099594116 0.003276000032201409
v 10.75876617431641 15.05171871185303 1.468399047851563
v 10.75876617431641 15.05171871185303 1.468399047851563
v 10.75876617431641 15.05171871185303 0.003276000032201409
v 10.75876617431641 15.05171871185303 0.003276000032201409
v 10.75876617431641 0.1230989992618561 1.468399047851563
v 10.75876617431641 0.1230989992618561 1.468399047851563
v 10.75876617431641 0.1230989992618561 0.003276000032201409
v 10.75876617431641 0.1230989992618561 0.003276000032201409
v 5.480701923370361 12.86547183990479 1.468399047851563
v 5.480701923370361 12.86547183990479 1.468399047851563
v 5.480701923370361 12.86547183990479 0.003276000032201409
v 5.480701923370361 12.86547183990479 0.003276000032201409
v 5.480701923370361 2.309343099594116 1.468399047851563
v 5.480701923370361 2.309343099594116 1.468399047851563
v 5.480701923370361 2.309343099594116 0.003276000032201409
v 5.480701923370361 2.309343099594116 0.003276000032201409
v 3.294456005096436 7.587408065795898 1.468399047851563
v 3.294456005096436 7.587408065795898 1.468399047851563
v 3.294456005096436 7.587408065795898 0.003276000032201409
v 3.294456005096436 7.587408065795898 0.003276000032201409
vn 0.9906023144721985 -0.1367736458778381 0
vn 0 0 1
vn 0.9906023740768433 0.1367733925580978 0
vn 0 0 -1
vn 0.797175407409668 0.6037477850914002 0
vn 0 0 1
vn 0.6037482619285584 0.7971750497817993 0
vn 0 0 -1
vn 0.6037479639053345 -0.7971752285957336 0
vn 0 0 1
vn 0.7971752285957336 -0.6037480235099793 0
vn 0 0 -1
vn 0.1367736756801605 0.9906023144721985 0
vn 0 0 1
vn 0 0 -1
vn -0.1367737352848053 0.9906023144721985 0
vn 0 0 1
vn -0.1367735266685486 -0.9906023144721985 0
vn 0.1367735862731934 -0.9906023144721985 0
vn 0 0 -1
vn 0 0 1
vn -0.6037481427192688 0.7971751093864441 0
vn 0 0 -1
vn -0.7971752285957336 0.6037480235099793 0
vn 0 0 1
vn -0.7971751689910889 -0.603748083114624 0
vn 0 0 -1
vn -0.6037479043006897 -0.7971752882003784 0
vn 0 0 1
vn -0.9906023144721985 0.1367736756801605 0
vn 0 0 -1
vn -0.9906023144721985 -0.1367736160755158 0
f 12//12 20//20 27//27 4//4
f 23//23 15//15 8//8 4//4
f 2//2 6//6 14//14 21//21
f 17//17 10//10 2//2 25//25
f 29//29 25//25 2//2 21//21
f 27//27 31//31 23//23 4//4
f 22//22 13//13 16//16 24//24
f 13//13 5//5 7//7 16//16
f 5//5 1//1 3//3 7//7
f 1//1 9//9 11//11 3//3
f 9//9 18//18 19//19 11//11
f 18//18 26//26 28//28 19//19
f 26//26 30//30 32//32 28//28
f 30//30 22//22 24//24 32//32
