# Blender v2.64 (sub 0) OBJ File: 'phalanx_output_Yaw.blend'
# www.blender.org
mtllib phalanx_output_Yaw.mtl
o Cylinder
v 0.120293 2.498997 0.231014
v 0.120293 2.498997 0.345327
v 0.476509 3.358978 0.231014
v 0.476509 3.358978 0.345327
v 1.336491 3.715194 0.231014
v 1.336491 3.715194 0.345327
v 2.196472 3.358978 0.231014
v 2.196472 3.358978 0.345327
v 2.552689 2.498996 0.231014
v 2.552689 2.498996 0.345327
v 2.196472 1.639015 0.231014
v 2.196472 1.639015 0.345327
v 1.336491 1.282799 0.231014
v 1.336491 1.282799 0.345327
v 0.476509 1.639015 0.231014
v 0.476509 1.639015 0.345327
vn -0.923879 0.382684 0.000000
vn -0.382683 0.923880 0.000000
vn 0.382683 0.923880 0.000000
vn 0.923880 0.382684 0.000000
vn 0.923879 -0.382684 0.000000
vn 0.382683 -0.923880 0.000000
vn 0.000000 -0.000000 1.000000
vn -0.923880 -0.382683 0.000000
vn -0.382683 -0.923880 0.000000
vn -0.000000 0.000000 -1.000000
usemtl 
s off
f 1//1 2//1 4//1 3//1
f 3//2 4//2 6//2 5//2
f 5//3 6//3 8//3 7//3
f 7//4 8//4 10//4 9//4
f 9//5 10//5 12//5 11//5
f 11//6 12//6 14//6 13//6
f 4//7 2//7 16//7
f 4//7 16//7 6//7
f 16//7 14//7 6//7
f 14//7 12//7 6//7
f 12//7 8//7 6//7
f 12//7 10//7 8//7
f 2//8 1//8 15//8 16//8
f 13//9 14//9 16//9 15//9
f 1//10 3//10 15//10
f 3//10 5//10 15//10
f 5//10 13//10 15//10
f 5//10 11//10 13//10
f 5//10 7//10 11//10
f 7//10 9//10 11//10
o Cube.003_Cube.001
v 1.909863 3.198854 0.317192
v 0.691829 3.198854 0.317192
v 0.691829 3.550920 0.317192
v 1.909863 3.550920 0.317192
v 1.909863 3.163217 2.178370
v 0.691829 3.163217 2.178370
v 0.691829 3.644255 2.178370
v 1.909863 3.644254 2.178370
v 0.239018 3.161308 0.869471
v 2.362674 3.161307 0.869471
v 0.239018 3.775137 0.869471
v 2.362674 3.775136 0.869471
v 1.909863 1.799139 0.317193
v 0.691829 1.799139 0.317193
v 0.691829 1.447074 0.317193
v 1.909863 1.447074 0.317193
v 1.909863 1.834775 2.178371
v 0.691829 1.834775 2.178371
v 0.691829 1.353737 2.178371
v 1.909863 1.353737 2.178371
v 0.239018 1.836686 0.869471
v 2.362674 1.836686 0.869471
v 0.239018 1.222857 0.869472
v 2.362674 1.222857 0.869472
vn -0.000000 -0.997697 -0.067829
vn -0.773308 0.000000 -0.634031
vn 0.000000 0.926552 -0.376166
vn 0.773308 0.000000 -0.634031
vn -0.000000 -0.999999 0.001459
vn -0.945046 0.000000 0.326937
vn 0.000000 0.995038 0.099498
vn 0.945046 0.000000 0.326937
vn -0.000000 0.997697 -0.067828
vn 0.000000 -0.926552 -0.376167
vn -0.000000 0.999999 0.001460
vn -0.945046 0.000000 0.326936
vn 0.000000 -0.995038 0.099497
vn 0.945046 -0.000000 0.326936
usemtl 
s off
f 18//11 17//11 26//11 25//11
f 25//12 27//12 19//12 18//12
f 27//13 28//13 20//13 19//13
f 17//14 20//14 28//14 26//14
f 17//10 18//10 19//10 20//10
f 24//7 23//7 22//7 21//7
f 21//15 22//15 25//15 26//15
f 22//16 23//16 27//16 25//16
f 23//17 24//17 28//17 27//17
f 24//18 21//18 26//18 28//18
f 38//19 29//19 30//19 37//19
f 37//12 30//12 31//12 39//12
f 39//20 31//20 32//20 40//20
f 40//14 32//14 29//14 38//14
f 29//10 32//10 31//10 30//10
f 36//7 33//7 34//7 35//7
f 33//21 38//21 37//21 34//21
f 34//22 37//22 39//22 35//22
f 35//23 39//23 40//23 36//23
f 36//24 40//24 38//24 33//24
