# Rhino

o object_1
v 4.769 0.2344 2.69
v 4.769 4.999 2.461
v 4.769 4.999 2.69
v 4.769 0.2344 2.461
v 4.999 0.2344 2.461
v 4.999 0.2344 2.69
v 4.999 4.999 2.461
v 4.999 4.999 2.69
vn 2.776e-17 -1 -1.846e-15
vn 0 -1 -1.887e-15
vn 0 -1 -1.693e-15
vn 0 -1 -1.693e-15
vn -1 0 1.776e-15
vn -1 0 0
vn -1 0 1.776e-15
vn -1 0 0
vn 0 1 0
vn 0 1 0
vn 0 1 0
vn 0 1 0
vn 1 0 -1.776e-15
vn 1 0 0
vn 1 0 -1.776e-15
vn 1 0 0
vn 0 0 -1
vn 0 0 -1
vn 0 0 -1
vn 0 0 -1
vn 0 0 1
vn 0 0 1
vn 0 0 1
vn 0 0 1
f 1//1 4//3 5//2 6//4
f 2//6 4//5 1//7 3//8
f 7//10 2//9 3//11 8//12
f 8//14 6//13 5//15 7//16
f 7//17 5//20 4//18 2//19
f 3//22 1//21 6//23 8//24
o object_2
v 4.769 2.631 1.739
v 4.769 2.631 1.969
v 4.769 4.77 1.739
v 4.769 4.77 1.969
v 4.999 2.631 1.739
v 4.999 2.631 1.969
v 4.999 4.77 1.739
v 4.999 4.77 1.969
vn 0 -1 0
vn 0 -1 0
vn 0 -1 0
vn 0 -1 0
vn 0 1 0
vn 0 1 0
vn 0 1 0
vn 0 1 0
vn 0 0 1
vn 0 0 1
vn 0 0 1
vn 0 0 1
vn -8.882e-16 0 -1
vn 0 0 -1
vn -8.882e-16 0 -1
vn 0 0 -1
vn -1 0 0
vn -1 0 0
vn -1 0 0
vn -1 0 0
vn 1 0 0
vn 1 0 0
vn 1 0 0
vn 1 0 0
f 9//26 13//28 14//27 10//25
f 11//30 12//29 16//31 15//32
f 12//34 10//33 14//35 16//36
f 15//38 13//37 9//39 11//40
f 11//42 9//41 10//43 12//44
f 16//46 14//45 13//47 15//48
o object_3
v 4.769 0.2342 1.739
v 4.769 0.2342 1.969
v 4.769 2.402 1.739
v 4.769 2.402 1.969
v 4.999 0.2342 1.739
v 4.999 0.2342 1.969
v 4.999 2.402 1.739
v 4.999 2.402 1.969
vn 0 -1 0
vn 0 -1 0
vn 0 -1 0
vn 0 -1 0
vn 0 1 0
vn 0 1 0
vn 0 1 0
vn 0 1 0
vn -1 0 1.776e-15
vn -1 0 1.776e-15
vn -1 0 1.776e-15
vn -1 0 1.776e-15
vn 8.882e-16 0 1
vn 8.882e-16 0 1
vn 8.882e-16 0 1
vn 8.882e-16 0 1
vn 1 0 1.776e-15
vn 1 0 0
vn 1 0 1.776e-15
vn 1 0 0
vn 0 0 -1
vn 0 0 -1
vn 0 0 -1
vn 0 0 -1
f 17//50 21//52 22//51 18//49
f 19//54 20//53 24//55 23//56
f 19//58 17//57 18//59 20//60
f 20//62 18//61 22//63 24//64
f 24//66 22//65 21//67 23//68
f 23//70 21//69 17//71 19//72
o object_4
v 4.769 2.631 1.027
v 4.769 2.631 1.256
v 4.769 4.77 1.027
v 4.769 4.77 1.256
v 4.999 2.631 1.027
v 4.999 2.631 1.256
v 4.999 4.77 1.027
v 4.999 4.77 1.256
vn 0 -1 0
vn 0 -1 0
vn 0 -1 0
vn 0 -1 0
vn 0 1 0
vn 0 1 0
vn 0 1 0
vn 0 1 0
vn 0 0 1
vn 0 0 1
vn 0 0 1
vn 0 0 1
vn 0 0 -1
vn 0 0 -1
vn 0 0 -1
vn 0 0 -1
vn -1 0 0
vn -1 0 0
vn -1 0 0
vn -1 0 0
vn 1 0 0
vn 1 0 0
vn 1 0 0
vn 1 0 0
f 25//74 29//76 30//75 26//73
f 27//78 28//77 32//79 31//80
f 28//82 26//81 30//83 32//84
f 31//86 29//85 25//87 27//88
f 27//90 25//89 26//91 28//92
f 32//94 30//93 29//95 31//96
o object_5
v 4.769 0.2342 1.027
v 4.769 0.2342 1.256
v 4.769 2.402 1.027
v 4.769 2.402 1.256
v 4.999 0.2342 1.027
v 4.999 0.2342 1.256
v 4.999 2.402 1.027
v 4.999 2.402 1.256
vn 0 -1 0
vn 0 -1 0
vn 0 -1 0
vn 0 -1 0
vn 0 1 0
vn 0 1 0
vn 0 1 0
vn 0 1 0
vn -1 0 1.776e-15
vn -1 0 1.776e-15
vn -1 0 1.776e-15
vn -1 0 1.776e-15
vn 0 0 1
vn 0 0 1
vn 0 0 1
vn 0 0 1
vn 1 0 1.776e-15
vn 1 0 0
vn 1 0 1.776e-15
vn 1 0 0
vn 0 0 -1
vn 0 0 -1
vn 0 0 -1
vn 0 0 -1
f 33//98 37//100 38//99 34//97
f 35//102 36//101 40//103 39//104
f 35//106 33//105 34//107 36//108
f 36//110 34//109 38//111 40//112
f 40//114 38//113 37//115 39//116
f 39//118 37//117 33//119 35//120
o object_6
v 4.769 2.402 0.002531
v 4.769 2.402 2.461
v 4.769 2.631 0.002531
v 4.769 2.631 2.461
v 4.999 2.402 0.002531
v 4.999 2.402 2.461
v 4.999 2.631 0.002531
v 4.999 2.631 2.461
vn 0 0 1
vn 0 0 1
vn 0 0 1
vn 0 0 1
vn -1 0 0
vn -1 0 0
vn -1 0 0
vn -1 0 0
vn 0 -1 0
vn 0 -1 0
vn 0 -1 0
vn 0 -1 0
vn 0 1 0
vn 0 1 0
vn 0 1 0
vn 0 1 0
vn 0 0 -1
vn 0 0 -1
vn 0 0 -1
vn 0 0 -1
vn 1 0 0
vn 1 0 0
vn 1 0 0
vn 1 0 0
f 44//122 42//124 46//123 48//121
f 44//126 43//125 41//127 42//128
f 42//130 41//129 45//131 46//132
f 48//134 47//133 43//135 44//136
f 47//138 45//140 41//139 43//137
f 46//142 45//141 47//143 48//144
o object_7
v 4.769 4.77 0.002531
v 4.769 4.77 2.461
v 4.769 4.999 0.002531
v 4.769 4.999 2.461
v 4.999 4.77 0.002531
v 4.999 4.77 2.461
v 4.999 4.999 0.002531
v 4.999 4.999 2.461
vn 0 0 1
vn 0 0 1
vn 0 0 1
vn 0 0 1
vn -1 0 0
vn -1 0 0
vn -1 0 0
vn -1 0 0
vn 0 -1 0
vn 0 -1 0
vn 0 -1 0
vn 0 -1 0
vn 0 1 0
vn 0 1 0
vn 0 1 0
vn 0 1 0
vn 0 0 -1
vn 0 0 -1
vn 0 0 -1
vn 0 0 -1
vn 1 0 0
vn 1 0 0
vn 1 0 0
vn 1 0 0
f 52//146 50//148 54//147 56//145
f 52//150 51//149 49//151 50//152
f 50//154 49//153 53//155 54//156
f 56//158 55//157 51//159 52//160
f 55//162 53//164 49//163 51//161
f 54//166 53//165 55//167 56//168
o object_8
v 0.003937 0.00469 2.461
v 0.003937 0.00469 2.69
v 0.003937 0.2344 2.461
v 0.003937 0.2344 2.69
v 4.769 0.00469 2.461
v 4.769 0.00469 2.69
v 4.769 0.2344 2.461
v 4.769 0.2344 2.69
v 4.999 0.00469 2.461
v 4.999 0.00469 2.69
v 4.999 0.2344 2.461
v 4.999 0.2344 2.69
vn 1 0 -3.553e-15
vn 1 0 -3.553e-15
vn 1 0 -3.553e-15
vn 1 0 -3.553e-15
vn 0 -1 0
vn 0 -1 1.735e-18
vn 0 -1 0
vn 0 -1 0
vn 0 -1 0
vn 0 -1 0
vn 0 8.882e-16 1
vn 0 0 1
vn 0 8.882e-16 1
vn 0 0 1
vn 0 0 1
vn 0 0 1
vn -1 0 0
vn -1 0 0
vn -1 0 0
vn -1 0 0
vn 0 1 -1.11e-16
vn 0 1 0
vn 0 1 0
vn 0 1 0
vn 0 1 0
vn 0 1 -1.11e-16
vn 0 8.882e-16 -1
vn 0 0 -1
vn 0 8.882e-16 -1
vn 0 0 -1
vn 0 8.882e-16 -1
vn 0 8.882e-16 -1
f 65//170 67//172 68//171 66//169
f 61//178 65//176 66//174 62//177
f 57//173 61//178 62//177 58//175
f 62//183 66//179 68//181 64//184
f 58//180 62//183 64//184 60//182
f 59//186 57//185 58//187 60//188
f 64//192 68//189 67//193 63//194
f 60//190 64//192 63//194 59//191
f 63//200 67//195 65//197 61//199
f 59//196 63//200 61//199 57//198
o object_9
v 4.769 0.00469 0.002531
v 4.769 0.00469 2.461
v 4.769 0.2344 0.002531
v 4.769 0.2344 2.461
v 4.999 0.00469 0.002531
v 4.999 0.00469 2.461
v 4.999 0.2344 0.002531
v 4.999 0.2344 2.461
vn 0 0 1
vn 0 0 1
vn 0 0 1
vn 0 0 1
vn 0 -1 0
vn 0 -1 0
vn 0 -1 0
vn 0 -1 0
vn 1 0 0
vn 1 0 0
vn 1 0 0
vn 1 0 0
vn -1 0 0
vn -1 3.553e-15 0
vn -1 0 0
vn -1 3.553e-15 0
vn 0 0 -1
vn 0 0 -1
vn 0 0 -1
vn 0 0 -1
vn 0 1 0
vn 0 1 0
vn 0 1 0
vn 0 1 0
f 70//202 74//204 76//203 72//201
f 70//206 69//205 73//207 74//208
f 74//210 73//209 75//211 76//212
f 72//214 71//213 69//215 70//216
f 71//218 75//220 73//219 69//217
f 76//222 75//221 71//223 72//224
o object_10
v 0.00397 0.00469 2.461
v 0.00397 0.2344 2.461
v 0.004003 0.00469 0.002531
v 0.004003 0.2344 0.002531
v 0.2336 0.00469 0.002531
v 0.2336 0.00469 2.461
v 0.2336 0.2344 0.002531
v 0.2336 0.2344 2.461
vn 0 0 1
vn 0 0 1
vn 0 0 1
vn 0 0 1
vn 0 -1 0
vn 0 -1 0
vn 0 -1 0
vn 0 -1 0
vn 1 0 0
vn 1 0 0
vn 1 0 0
vn 1 0 0
vn -1 0 0
vn -1 0 0
vn -1 0 0
vn -1 0 0
vn 0 0 -1
vn 0 0 -1
vn 0 0 -1
vn 0 0 -1
vn 0 1 0
vn 1.11e-16 1 0
vn 0 1 0
vn 1.11e-16 1 0
f 77//226 82//228 84//227 78//225
f 77//230 79//229 81//231 82//232
f 82//234 81//233 83//235 84//236
f 78//238 80//237 79//239 77//240
f 80//242 83//244 81//243 79//241
f 84//246 83//245 80//247 78//248
o object_11
v 2.372 0.00469 0.002531
v 2.372 0.00469 2.461
v 2.372 0.2344 0.002531
v 2.372 0.2344 2.461
v 2.601 0.00469 0.002531
v 2.601 0.00469 2.461
v 2.601 0.2344 0.002531
v 2.601 0.2344 2.461
vn 0 0 1
vn 0 0 1
vn 0 0 1
vn 0 0 1
vn 0 -1 0
vn 0 -1 0
vn 0 -1 0
vn 0 -1 0
vn 1 0 0
vn 1 0 0
vn 1 0 0
vn 1 0 0
vn -1 0 0
vn -1 0 0
vn -1 0 0
vn -1 0 0
vn 0 0 -1
vn 0 0 -1
vn 0 0 -1
vn 0 0 -1
vn 0 1 0
vn 1.11e-16 1 0
vn 0 1 0
vn 1.11e-16 1 0
f 86//250 90//252 92//251 88//249
f 86//254 85//253 89//255 90//256
f 90//258 89//257 91//259 92//260
f 88//262 87//261 85//263 86//264
f 87//266 91//268 89//267 85//265
f 92//270 91//269 87//271 88//272
o object_12
v 2.601 0.00469 1.027
v 2.601 0.00469 1.256
v 2.601 0.2344 1.027
v 2.601 0.2344 1.256
v 4.769 0.00469 1.027
v 4.769 0.00469 1.256
v 4.769 0.2344 1.027
v 4.769 0.2344 1.256
vn 1 0 0
vn 1 0 0
vn 1 0 0
vn 1 0 0
vn -1 0 0
vn -1 0 0
vn -1 0 0
vn -1 0 0
vn 0 -1 0
vn 0 -1 0
vn 0 -1 0
vn 0 -1 0
vn 0 0 1
vn 0 0 1
vn 0 0 1
vn 0 0 1
vn 0 1 -1.11e-16
vn 0 1 0
vn 0 1 -1.11e-16
vn 0 1 0
vn 0 0 -1
vn 0 0 -1
vn 0 0 -1
vn 0 0 -1
f 97//274 99//276 100//275 98//273
f 93//278 94//277 96//279 95//280
f 93//282 97//281 98//283 94//284
f 94//286 98//285 100//287 96//288
f 96//290 100//289 99//291 95//292
f 95//294 99//293 97//295 93//296
o object_13
v 0.2336 0.00469 1.027
v 0.2336 0.00469 1.256
v 0.2336 0.2344 1.027
v 0.2336 0.2344 1.256
v 2.372 0.00469 1.027
v 2.372 0.00469 1.256
v 2.372 0.2344 1.027
v 2.372 0.2344 1.256
vn 1 0 0
vn 1 0 0
vn 1 0 0
vn 1 0 0
vn -1 0 0
vn -1 0 0
vn -1 0 0
vn -1 0 0
vn 0 0 1
vn 0 0 1
vn 0 0 1
vn 0 0 1
vn 0 0 -1
vn 0 0 -1
vn 0 0 -1
vn 0 0 -1
vn 0 -1 -1.735e-18
vn 0 -1 0
vn 0 -1 -1.735e-18
vn 0 -1 0
vn 0 1 1.11e-16
vn 0 1 0
vn 0 1 1.11e-16
vn 0 1 0
f 105//298 107//300 108//299 106//297
f 101//302 102//301 104//303 103//304
f 102//306 106//305 108//307 104//308
f 103//310 107//309 105//311 101//312
f 101//314 105//313 106//315 102//316
f 104//318 108//317 107//319 103//320
o object_14
v 2.601 0.00469 1.739
v 2.601 0.00469 1.969
v 2.601 0.2344 1.739
v 2.601 0.2344 1.969
v 4.769 0.00469 1.739
v 4.769 0.00469 1.969
v 4.769 0.2344 1.739
v 4.769 0.2344 1.969
vn 1 0 0
vn 1 0 0
vn 1 0 0
vn 1 0 0
vn -1 0 0
vn -1 0 0
vn -1 0 0
vn -1 0 0
vn 0 -1 0
vn 0 -1 0
vn 0 -1 0
vn 0 -1 0
vn 0 8.882e-16 1
vn 0 8.882e-16 1
vn 0 8.882e-16 1
vn 0 8.882e-16 1
vn 0 1 -1.11e-16
vn 0 1 0
vn 0 1 -1.11e-16
vn 0 1 0
vn 0 0 -1
vn 0 0 -1
vn 0 0 -1
vn 0 0 -1
f 113//322 115//324 116//323 114//321
f 109//326 110//325 112//327 111//328
f 109//330 113//329 114//331 110//332
f 110//334 114//333 116//335 112//336
f 112//338 116//337 115//339 111//340
f 111//342 115//341 113//343 109//344
o object_15
v 0.2336 0.00469 1.739
v 0.2336 0.00469 1.969
v 0.2336 0.2344 1.739
v 0.2336 0.2344 1.969
v 2.372 0.00469 1.739
v 2.372 0.00469 1.969
v 2.372 0.2344 1.739
v 2.372 0.2344 1.969
vn 1 0 0
vn 1 0 0
vn 1 0 0
vn 1 0 0
vn -1 0 0
vn -1 0 0
vn -1 0 0
vn -1 0 0
vn 0 0 1
vn 0 0 1
vn 0 0 1
vn 0 0 1
vn 0 -8.882e-16 -1
vn 0 0 -1
vn 0 -8.882e-16 -1
vn 0 0 -1
vn 0 -1 -1.735e-18
vn 0 -1 0
vn 0 -1 -1.735e-18
vn 0 -1 0
vn 0 1 1.11e-16
vn 0 1 0
vn 0 1 1.11e-16
vn 0 1 0
f 121//346 123//348 124//347 122//345
f 117//350 118//349 120//351 119//352
f 118//354 122//353 124//355 120//356
f 119//358 123//357 121//359 117//360
f 117//362 121//361 122//363 118//364
f 120//366 124//365 123//367 119//368
