# Rhino

o object_1
v 0.2336 0.00469 1.739
v 0.2336 0.00469 1.969
v 0.2336 0.2344 1.739
v 0.2336 0.2344 1.969
v 2.372 0.00469 1.739
v 2.372 0.00469 1.969
v 2.372 0.2344 1.739
v 2.372 0.2344 1.969
vn 1 0 0
vn 1 0 0
vn 1 0 0
vn 1 0 0
vn -1 0 0
vn -1 0 0
vn -1 0 0
vn -1 0 0
vn 0 0 1
vn 0 0 1
vn 0 0 1
vn 0 0 1
vn 0 -8.882e-16 -1
vn 0 0 -1
vn 0 -8.882e-16 -1
vn 0 0 -1
vn 0 -1 -1.735e-18
vn 0 -1 0
vn 0 -1 -1.735e-18
vn 0 -1 0
vn 0 1 1.11e-16
vn 0 1 0
vn 0 1 1.11e-16
vn 0 1 0
f 5//2 7//4 8//3 6//1
f 1//6 2//5 4//7 3//8
f 2//10 6//9 8//11 4//12
f 3//14 7//13 5//15 1//16
f 1//18 5//17 6//19 2//20
f 4//22 8//21 7//23 3//24
o object_2
v 2.601 0.00469 1.739
v 2.601 0.00469 1.969
v 2.601 0.2344 1.739
v 2.601 0.2344 1.969
v 4.769 0.00469 1.739
v 4.769 0.00469 1.969
v 4.769 0.2344 1.739
v 4.769 0.2344 1.969
vn 1 0 0
vn 1 0 0
vn 1 0 0
vn 1 0 0
vn -1 0 0
vn -1 0 0
vn -1 0 0
vn -1 0 0
vn 0 -1 0
vn 0 -1 0
vn 0 -1 0
vn 0 -1 0
vn 0 8.882e-16 1
vn 0 8.882e-16 1
vn 0 8.882e-16 1
vn 0 8.882e-16 1
vn 0 1 -1.11e-16
vn 0 1 0
vn 0 1 -1.11e-16
vn 0 1 0
vn 0 0 -1
vn 0 0 -1
vn 0 0 -1
vn 0 0 -1
f 13//26 15//28 16//27 14//25
f 9//30 10//29 12//31 11//32
f 9//34 13//33 14//35 10//36
f 10//38 14//37 16//39 12//40
f 12//42 16//41 15//43 11//44
f 11//46 15//45 13//47 9//48
o object_3
v 0.2336 0.00469 1.027
v 0.2336 0.00469 1.256
v 0.2336 0.2344 1.027
v 0.2336 0.2344 1.256
v 2.372 0.00469 1.027
v 2.372 0.00469 1.256
v 2.372 0.2344 1.027
v 2.372 0.2344 1.256
vn 1 0 0
vn 1 0 0
vn 1 0 0
vn 1 0 0
vn -1 0 0
vn -1 0 0
vn -1 0 0
vn -1 0 0
vn 0 0 1
vn 0 0 1
vn 0 0 1
vn 0 0 1
vn 0 0 -1
vn 0 0 -1
vn 0 0 -1
vn 0 0 -1
vn 0 -1 -1.735e-18
vn 0 -1 0
vn 0 -1 -1.735e-18
vn 0 -1 0
vn 0 1 1.11e-16
vn 0 1 0
vn 0 1 1.11e-16
vn 0 1 0
f 21//50 23//52 24//51 22//49
f 17//54 18//53 20//55 19//56
f 18//58 22//57 24//59 20//60
f 19//62 23//61 21//63 17//64
f 17//66 21//65 22//67 18//68
f 20//70 24//69 23//71 19//72
o object_4
v 2.601 0.00469 1.027
v 2.601 0.00469 1.256
v 2.601 0.2344 1.027
v 2.601 0.2344 1.256
v 4.769 0.00469 1.027
v 4.769 0.00469 1.256
v 4.769 0.2344 1.027
v 4.769 0.2344 1.256
vn 1 0 0
vn 1 0 0
vn 1 0 0
vn 1 0 0
vn -1 0 0
vn -1 0 0
vn -1 0 0
vn -1 0 0
vn 0 -1 0
vn 0 -1 0
vn 0 -1 0
vn 0 -1 0
vn 0 0 1
vn 0 0 1
vn 0 0 1
vn 0 0 1
vn 0 1 -1.11e-16
vn 0 1 0
vn 0 1 -1.11e-16
vn 0 1 0
vn 0 0 -1
vn 0 0 -1
vn 0 0 -1
vn 0 0 -1
f 29//74 31//76 32//75 30//73
f 25//78 26//77 28//79 27//80
f 25//82 29//81 30//83 26//84
f 26//86 30//85 32//87 28//88
f 28//90 32//89 31//91 27//92
f 27//94 31//93 29//95 25//96
o object_5
v 2.372 0.00469 0.002531
v 2.372 0.00469 2.461
v 2.372 0.2344 0.002531
v 2.372 0.2344 2.461
v 2.601 0.00469 0.002531
v 2.601 0.00469 2.461
v 2.601 0.2344 0.002531
v 2.601 0.2344 2.461
vn 0 0 1
vn 0 0 1
vn 0 0 1
vn 0 0 1
vn 0 -1 0
vn 0 -1 0
vn 0 -1 0
vn 0 -1 0
vn 1 0 0
vn 1 0 0
vn 1 0 0
vn 1 0 0
vn -1 0 0
vn -1 0 0
vn -1 0 0
vn -1 0 0
vn 0 0 -1
vn 0 0 -1
vn 0 0 -1
vn 0 0 -1
vn 0 1 0
vn 1.11e-16 1 0
vn 0 1 0
vn 1.11e-16 1 0
f 34//98 38//100 40//99 36//97
f 34//102 33//101 37//103 38//104
f 38//106 37//105 39//107 40//108
f 36//110 35//109 33//111 34//112
f 35//114 39//116 37//115 33//113
f 40//118 39//117 35//119 36//120
o object_6
v 0.00397 0.00469 2.461
v 0.00397 0.2344 2.461
v 0.004003 0.00469 0.002531
v 0.004003 0.2344 0.002531
v 0.2336 0.00469 0.002531
v 0.2336 0.00469 2.461
v 0.2336 0.2344 0.002531
v 0.2336 0.2344 2.461
vn 0 0 1
vn 0 0 1
vn 0 0 1
vn 0 0 1
vn 0 -1 0
vn 0 -1 0
vn 0 -1 0
vn 0 -1 0
vn 1 0 0
vn 1 0 0
vn 1 0 0
vn 1 0 0
vn -1 0 0
vn -1 0 0
vn -1 0 0
vn -1 0 0
vn 0 0 -1
vn 0 0 -1
vn 0 0 -1
vn 0 0 -1
vn 0 1 0
vn 1.11e-16 1 0
vn 0 1 0
vn 1.11e-16 1 0
f 41//122 46//124 48//123 42//121
f 41//126 43//125 45//127 46//128
f 46//130 45//129 47//131 48//132
f 42//134 44//133 43//135 41//136
f 44//138 47//140 45//139 43//137
f 48//142 47//141 44//143 42//144
o object_7
v 4.769 0.00469 0.002531
v 4.769 0.00469 2.461
v 4.769 0.2344 0.002531
v 4.769 0.2344 2.461
v 4.999 0.00469 0.002531
v 4.999 0.00469 2.461
v 4.999 0.2344 0.002531
v 4.999 0.2344 2.461
vn 0 0 1
vn 0 0 1
vn 0 0 1
vn 0 0 1
vn 0 -1 0
vn 0 -1 0
vn 0 -1 0
vn 0 -1 0
vn 1 0 0
vn 1 0 0
vn 1 0 0
vn 1 0 0
vn -1 0 0
vn -1 3.553e-15 0
vn -1 0 0
vn -1 3.553e-15 0
vn 0 0 -1
vn 0 0 -1
vn 0 0 -1
vn 0 0 -1
vn 0 1 0
vn 0 1 0
vn 0 1 0
vn 0 1 0
f 50//146 54//148 56//147 52//145
f 50//150 49//149 53//151 54//152
f 54//154 53//153 55//155 56//156
f 52//158 51//157 49//159 50//160
f 51//162 55//164 53//163 49//161
f 56//166 55//165 51//167 52//168
o object_8
v 0.003937 0.00469 2.461
v 0.003937 0.00469 2.69
v 0.003937 0.2344 2.461
v 0.003937 0.2344 2.69
v 4.769 0.00469 2.461
v 4.769 0.00469 2.69
v 4.769 0.2344 2.461
v 4.769 0.2344 2.69
v 4.999 0.00469 2.461
v 4.999 0.00469 2.69
v 4.999 0.2344 2.461
v 4.999 0.2344 2.69
vn 1 0 -3.553e-15
vn 1 0 -3.553e-15
vn 1 0 -3.553e-15
vn 1 0 -3.553e-15
vn 0 -1 0
vn 0 -1 1.735e-18
vn 0 -1 0
vn 0 -1 0
vn 0 -1 0
vn 0 -1 0
vn 0 8.882e-16 1
vn 0 0 1
vn 0 8.882e-16 1
vn 0 0 1
vn 0 0 1
vn 0 0 1
vn -1 0 0
vn -1 0 0
vn -1 0 0
vn -1 0 0
vn 0 1 -1.11e-16
vn 0 1 0
vn 0 1 0
vn 0 1 0
vn 0 1 0
vn 0 1 -1.11e-16
vn 0 8.882e-16 -1
vn 0 0 -1
vn 0 8.882e-16 -1
vn 0 0 -1
vn 0 8.882e-16 -1
vn 0 8.882e-16 -1
f 65//170 67//172 68//171 66//169
f 61//178 65//176 66//174 62//177
f 57//173 61//178 62//177 58//175
f 62//183 66//179 68//181 64//184
f 58//180 62//183 64//184 60//182
f 59//186 57//185 58//187 60//188
f 64//192 68//189 67//193 63//194
f 60//190 64//192 63//194 59//191
f 63//200 67//195 65//197 61//199
f 59//196 63//200 61//199 57//198
