# Rhino

v 25 0 1.899999976158142
v 25 0 1.899999976158142
v 25 0 1.899999976158142
v 25 0 1.899999976158142
v 25 0 1.799999952316284
v 25 0 1.799999952316284
v 25 0 0.2000000029802322
v 25 0 0.2000000029802322
v 25 0 0.2000000029802322
v 25 0 0.2000000029802322
v 25 0 0.1000000014901161
v 25 0 0.1000000014901161
v 25 0 0.1000000014901161
v 25 -0.1000000014901161 2
v 25 -0.1000000014901161 2
v 25 -0.1000000014901161 2
v 25 -0.1000000014901161 2
v 25 -0.1000000014901161 1.899999976158142
v 25 -0.1000000014901161 1.899999976158142
v 25 -0.1000000014901161 1.899999976158142
v 25 -0.1000000014901161 0.1000000014901161
v 25 -0.1000000014901161 0.1000000014901161
v 25 -0.1000000014901161 0.1000000014901161
v 25 -0.1000000014901161 0.1000000014901161
v 25 -0.1000000014901161 0
v 25 -0.1000000014901161 0
v 25 -0.1000000014901161 0
v 25 -0.1000000014901161 0
v 25 -0.1000000014901161 0
v 25 -0.2000000029802322 2
v 25 -0.2000000029802322 2
v 25 -0.2000000029802322 0
v 25 -0.2000000029802322 0
v 25 -1.799999952316284 2
v 25 -1.799999952316284 0
v 25 -1.799999952316284 0
v 25 -1.899999976158142 2
v 25 -1.899999976158142 2
v 25 -1.899999976158142 2
v 25 -1.899999976158142 0.1000000014901161
v 25 -1.899999976158142 0.1000000014901161
v 25 -1.899999976158142 0.1000000014901161
v 25 -1.899999976158142 0
v 25 -1.899999976158142 0
v 25 -1.899999976158142 0
v 25 -1.899999976158142 0
v 25 -1.899999976158142 0
v 25 -2 1.899999976158142
v 25 -2 1.899999976158142
v 25 -2 1.899999976158142
v 25 -2 1.899999976158142
v 25 -2 1.799999952316284
v 25 -2 1.799999952316284
v 25 -2 0.2000000029802322
v 25 -2 0.2000000029802322
v 25 -2 0.1000000014901161
v 25 -2 0.1000000014901161
v 25 -2 0.1000000014901161
v 25 -2 0.1000000014901161
v 25 -2 0.1000000014901161
v 24.60000038146973 -1.100000023841858 3.799999952316284
v 24.60000038146973 -1.100000023841858 3.799999952316284
v 24.60000038146973 -1.100000023841858 3.799999952316284
v 24.60000038146973 -1.100000023841858 3.599999904632568
v 24.60000038146973 -1.100000023841858 3.599999904632568
v 24.60000038146973 -1.100000023841858 3.599999904632568
v 24.60000038146973 -1.100000023841858 2.799999952316284
v 24.60000038146973 -1.100000023841858 2.799999952316284
v 24.60000038146973 -1.100000023841858 2.799999952316284
v 24.60000038146973 -1.100000023841858 2.599999904632568
v 24.60000038146973 -1.100000023841858 2.599999904632568
v 24.60000038146973 -1.100000023841858 2.599999904632568
v 24.60000038146973 -2 3.799999952316284
v 24.60000038146973 -2 3.799999952316284
v 24.60000038146973 -2 3.799999952316284
v 24.60000038146973 -2 3.599999904632568
v 24.60000038146973 -2 3.599999904632568
v 24.60000038146973 -2 3.599999904632568
v 24.60000038146973 -2 2.799999952316284
v 24.60000038146973 -2 2.799999952316284
v 24.60000038146973 -2 2.799999952316284
v 24.60000038146973 -2 2.599999904632568
v 24.60000038146973 -2 2.599999904632568
v 24.60000038146973 -2 2.599999904632568
v 24.5 0 3.799999952316284
v 24.5 0 3.799999952316284
v 24.5 0 3.799999952316284
v 24.5 0 3.599999904632568
v 24.5 0 3.599999904632568
v 24.5 0 3.599999904632568
v 24.5 0 3.599999904632568
v 24.5 0 2.799999952316284
v 24.5 0 2.799999952316284
v 24.5 0 2.799999952316284
v 24.5 0 2.599999904632568
v 24.5 0 2.599999904632568
v 24.5 0 2.599999904632568
v 24.5 0 2.599999904632568
v 24.5 -0.2000000029802322 3.799999952316284
v 24.5 -0.2000000029802322 3.799999952316284
v 24.5 -0.2000000029802322 3.799999952316284
v 24.5 -0.2000000029802322 3.599999904632568
v 24.5 -0.2000000029802322 3.599999904632568
v 24.5 -0.2000000029802322 3.599999904632568
v 24.5 -0.2000000029802322 2.799999952316284
v 24.5 -0.2000000029802322 2.799999952316284
v 24.5 -0.2000000029802322 2.799999952316284
v 24.5 -0.2000000029802322 2.599999904632568
v 24.5 -0.2000000029802322 2.599999904632568
v 24.5 -0.2000000029802322 2.599999904632568
v 24.39999961853027 -1.100000023841858 3.799999952316284
v 24.39999961853027 -1.100000023841858 3.799999952316284
v 24.39999961853027 -1.100000023841858 3.799999952316284
v 24.39999961853027 -1.100000023841858 3.599999904632568
v 24.39999961853027 -1.100000023841858 3.599999904632568
v 24.39999961853027 -1.100000023841858 3.599999904632568
v 24.39999961853027 -1.100000023841858 3.599999904632568
v 24.39999961853027 -1.100000023841858 2.799999952316284
v 24.39999961853027 -1.100000023841858 2.799999952316284
v 24.39999961853027 -1.100000023841858 2.799999952316284
v 24.39999961853027 -1.100000023841858 2.599999904632568
v 24.39999961853027 -1.100000023841858 2.599999904632568
v 24.39999961853027 -1.100000023841858 2.599999904632568
v 24.39999961853027 -1.100000023841858 2.599999904632568
v 24.39999961853027 -1.799999952316284 3.799999952316284
v 24.39999961853027 -1.799999952316284 3.799999952316284
v 24.39999961853027 -1.799999952316284 3.799999952316284
v 24.39999961853027 -1.799999952316284 3.599999904632568
v 24.39999961853027 -1.799999952316284 3.599999904632568
v 24.39999961853027 -1.799999952316284 3.599999904632568
v 24.39999961853027 -1.799999952316284 2.799999952316284
v 24.39999961853027 -1.799999952316284 2.799999952316284
v 24.39999961853027 -1.799999952316284 2.799999952316284
v 24.39999961853027 -1.799999952316284 2.599999904632568
v 24.39999961853027 -1.799999952316284 2.599999904632568
v 24.39999961853027 -1.799999952316284 2.599999904632568
v 20.10000038146973 -2 5
v 20.10000038146973 -2 5
v 20.10000038146973 -2 5
v 20.10000038146973 -2 0
v 20.10000038146973 -2 0
v 20.10000038146973 -2 0
v 20.10000038146973 -9.800000190734863 5
v 20.10000038146973 -9.800000190734863 5
v 20.10000038146973 -9.800000190734863 5
v 20.10000038146973 -9.800000190734863 0
v 20.10000038146973 -9.800000190734863 0
v 20.10000038146973 -9.800000190734863 0
v 16.89999961853027 -1.799999952316284 3.599999904632568
v 16.89999961853027 -1.799999952316284 3.599999904632568
v 16.89999961853027 -1.799999952316284 3.599999904632568
v 16.89999961853027 -1.799999952316284 1.799999952316284
v 16.89999961853027 -1.799999952316284 1.799999952316284
v 16.89999961853027 -1.799999952316284 1.799999952316284
v 16.89999961853027 -2 3.599999904632568
v 16.89999961853027 -2 3.599999904632568
v 16.89999961853027 -2 3.599999904632568
v 16.89999961853027 -2 1.799999952316284
v 16.89999961853027 -2 1.799999952316284
v 16.89999961853027 -2 1.799999952316284
v 16.70000076293945 -1.799999952316284 3.599999904632568
v 16.70000076293945 -1.799999952316284 3.599999904632568
v 16.70000076293945 -1.799999952316284 3.599999904632568
v 16.70000076293945 -1.799999952316284 1.799999952316284
v 16.70000076293945 -1.799999952316284 1.799999952316284
v 16.70000076293945 -1.799999952316284 1.799999952316284
v 16.70000076293945 -2 3.599999904632568
v 16.70000076293945 -2 3.599999904632568
v 16.70000076293945 -2 3.599999904632568
v 16.70000076293945 -2 1.799999952316284
v 16.70000076293945 -2 1.799999952316284
v 16.70000076293945 -2 1.799999952316284
v 12.60000038146973 -1.799999952316284 3.799999952316284
v 12.60000038146973 -1.799999952316284 3.799999952316284
v 12.60000038146973 -1.799999952316284 3.599999904632568
v 12.60000038146973 -1.799999952316284 3.599999904632568
v 12.60000038146973 -1.799999952316284 2.799999952316284
v 12.60000038146973 -1.799999952316284 2.799999952316284
v 12.60000038146973 -1.799999952316284 2.599999904632568
v 12.60000038146973 -1.799999952316284 2.599999904632568
v 12.60000038146973 -2 3.799999952316284
v 12.60000038146973 -2 3.799999952316284
v 12.60000038146973 -2 3.599999904632568
v 12.60000038146973 -2 3.599999904632568
v 12.60000038146973 -2 2.799999952316284
v 12.60000038146973 -2 2.799999952316284
v 12.60000038146973 -2 2.599999904632568
v 12.60000038146973 -2 2.599999904632568
v 8.5 -1.799999952316284 3.599999904632568
v 8.5 -1.799999952316284 3.599999904632568
v 8.5 -1.799999952316284 3.599999904632568
v 8.5 -1.799999952316284 1.799999952316284
v 8.5 -1.799999952316284 1.799999952316284
v 8.5 -1.799999952316284 1.799999952316284
v 8.5 -2 3.599999904632568
v 8.5 -2 3.599999904632568
v 8.5 -2 3.599999904632568
v 8.5 -2 1.799999952316284
v 8.5 -2 1.799999952316284
v 8.5 -2 1.799999952316284
v 8.300000190734863 -1.799999952316284 3.599999904632568
v 8.300000190734863 -1.799999952316284 3.599999904632568
v 8.300000190734863 -1.799999952316284 3.599999904632568
v 8.300000190734863 -1.799999952316284 1.799999952316284
v 8.300000190734863 -1.799999952316284 1.799999952316284
v 8.300000190734863 -1.799999952316284 1.799999952316284
v 8.300000190734863 -2 3.599999904632568
v 8.300000190734863 -2 3.599999904632568
v 8.300000190734863 -2 3.599999904632568
v 8.300000190734863 -2 1.799999952316284
v 8.300000190734863 -2 1.799999952316284
v 8.300000190734863 -2 1.799999952316284
v 5.099999904632568 -2 5
v 5.099999904632568 -2 5
v 5.099999904632568 -2 5
v 5.099999904632568 -2 0
v 5.099999904632568 -2 0
v 5.099999904632568 -2 0
v 5.099999904632568 -9.800000190734863 5
v 5.099999904632568 -9.800000190734863 5
v 5.099999904632568 -9.800000190734863 5
v 5.099999904632568 -9.800000190734863 0
v 5.099999904632568 -9.800000190734863 0
v 5.099999904632568 -9.800000190734863 0
v 0.800000011920929 -1.100000023841858 3.799999952316284
v 0.800000011920929 -1.100000023841858 3.799999952316284
v 0.800000011920929 -1.100000023841858 3.799999952316284
v 0.800000011920929 -1.100000023841858 3.799999952316284
v 0.800000011920929 -1.100000023841858 3.599999904632568
v 0.800000011920929 -1.100000023841858 3.599999904632568
v 0.800000011920929 -1.100000023841858 3.599999904632568
v 0.800000011920929 -1.100000023841858 2.799999952316284
v 0.800000011920929 -1.100000023841858 2.799999952316284
v 0.800000011920929 -1.100000023841858 2.799999952316284
v 0.800000011920929 -1.100000023841858 2.799999952316284
v 0.800000011920929 -1.100000023841858 2.599999904632568
v 0.800000011920929 -1.100000023841858 2.599999904632568
v 0.800000011920929 -1.100000023841858 2.599999904632568
v 0.800000011920929 -1.799999952316284 3.799999952316284
v 0.800000011920929 -1.799999952316284 3.799999952316284
v 0.800000011920929 -1.799999952316284 3.799999952316284
v 0.800000011920929 -1.799999952316284 3.599999904632568
v 0.800000011920929 -1.799999952316284 3.599999904632568
v 0.800000011920929 -1.799999952316284 3.599999904632568
v 0.800000011920929 -1.799999952316284 2.799999952316284
v 0.800000011920929 -1.799999952316284 2.799999952316284
v 0.800000011920929 -1.799999952316284 2.799999952316284
v 0.800000011920929 -1.799999952316284 2.599999904632568
v 0.800000011920929 -1.799999952316284 2.599999904632568
v 0.800000011920929 -1.799999952316284 2.599999904632568
v 0.699999988079071 0 3.799999952316284
v 0.699999988079071 0 3.799999952316284
v 0.699999988079071 0 3.799999952316284
v 0.699999988079071 0 3.799999952316284
v 0.699999988079071 0 3.599999904632568
v 0.699999988079071 0 3.599999904632568
v 0.699999988079071 0 3.599999904632568
v 0.699999988079071 0 2.799999952316284
v 0.699999988079071 0 2.799999952316284
v 0.699999988079071 0 2.799999952316284
v 0.699999988079071 0 2.799999952316284
v 0.699999988079071 0 2.599999904632568
v 0.699999988079071 0 2.599999904632568
v 0.699999988079071 0 2.599999904632568
v 0.699999988079071 -0.2000000029802322 3.799999952316284
v 0.699999988079071 -0.2000000029802322 3.799999952316284
v 0.699999988079071 -0.2000000029802322 3.799999952316284
v 0.699999988079071 -0.2000000029802322 3.599999904632568
v 0.699999988079071 -0.2000000029802322 3.599999904632568
v 0.699999988079071 -0.2000000029802322 3.599999904632568
v 0.699999988079071 -0.2000000029802322 2.799999952316284
v 0.699999988079071 -0.2000000029802322 2.799999952316284
v 0.699999988079071 -0.2000000029802322 2.799999952316284
v 0.699999988079071 -0.2000000029802322 2.599999904632568
v 0.699999988079071 -0.2000000029802322 2.599999904632568
v 0.699999988079071 -0.2000000029802322 2.599999904632568
v 0.6000000238418579 -1.100000023841858 3.799999952316284
v 0.6000000238418579 -1.100000023841858 3.799999952316284
v 0.6000000238418579 -1.100000023841858 3.799999952316284
v 0.6000000238418579 -1.100000023841858 3.599999904632568
v 0.6000000238418579 -1.100000023841858 3.599999904632568
v 0.6000000238418579 -1.100000023841858 3.599999904632568
v 0.6000000238418579 -1.100000023841858 2.799999952316284
v 0.6000000238418579 -1.100000023841858 2.799999952316284
v 0.6000000238418579 -1.100000023841858 2.799999952316284
v 0.6000000238418579 -1.100000023841858 2.599999904632568
v 0.6000000238418579 -1.100000023841858 2.599999904632568
v 0.6000000238418579 -1.100000023841858 2.599999904632568
v 0.6000000238418579 -2 3.799999952316284
v 0.6000000238418579 -2 3.799999952316284
v 0.6000000238418579 -2 3.799999952316284
v 0.6000000238418579 -2 3.599999904632568
v 0.6000000238418579 -2 3.599999904632568
v 0.6000000238418579 -2 3.599999904632568
v 0.6000000238418579 -2 2.799999952316284
v 0.6000000238418579 -2 2.799999952316284
v 0.6000000238418579 -2 2.799999952316284
v 0.6000000238418579 -2 2.599999904632568
v 0.6000000238418579 -2 2.599999904632568
v 0.6000000238418579 -2 2.599999904632568
v 0 0 1.899999976158142
v 0 0 1.899999976158142
v 0 0 1.899999976158142
v 0 0 1.799999952316284
v 0 0 1.799999952316284
v 0 0 0.2000000029802322
v 0 0 0.2000000029802322
v 0 0 0.1000000014901161
v 0 0 0.1000000014901161
v 0 0 0.1000000014901161
v 0 -0.1000000014901161 2
v 0 -0.1000000014901161 2
v 0 -0.1000000014901161 2
v 0 -0.1000000014901161 1.899999976158142
v 0 -0.1000000014901161 1.899999976158142
v 0 -0.1000000014901161 1.899999976158142
v 0 -0.1000000014901161 0.1000000014901161
v 0 -0.1000000014901161 0.1000000014901161
v 0 -0.1000000014901161 0.1000000014901161
v 0 -0.1000000014901161 0
v 0 -0.1000000014901161 0
v 0 -0.1000000014901161 0
v 0 -0.2000000029802322 2
v 0 -0.2000000029802322 2
v 0 -0.2000000029802322 0
v 0 -0.2000000029802322 0
v 0 -1.799999952316284 2
v 0 -1.799999952316284 2
v 0 -1.799999952316284 0
v 0 -1.799999952316284 0
v 0 -1.799999952316284 0
v 0 -1.899999976158142 2
v 0 -1.899999976158142 2
v 0 -1.899999976158142 2
v 0 -1.899999976158142 0.1000000014901161
v 0 -1.899999976158142 0.1000000014901161
v 0 -1.899999976158142 0.1000000014901161
v 0 -1.899999976158142 0.1000000014901161
v 0 -1.899999976158142 0
v 0 -1.899999976158142 0
v 0 -1.899999976158142 0
v 0 -2 1.899999976158142
v 0 -2 1.899999976158142
v 0 -2 1.899999976158142
v 0 -2 1.799999952316284
v 0 -2 1.799999952316284
v 0 -2 0.2000000029802322
v 0 -2 0.2000000029802322
v 0 -2 0.1000000014901161
v 0 -2 0.1000000014901161
v 0 -2 0.1000000014901161
v 0 -2 0.1000000014901161
vn 1 0 0
vn 0 1 0
vn 0 0 1
vn -1 0 0
vn 0 1 0
vn 0 0 1
vn 1 0 0
vn 0 1 0
vn 0 0 1
vn -1 0 0
vn 1 0 0
vn 0 1 0
vn 0 0 -1
vn 1 0 0
vn 0 1 0
vn 0 0 1
vn -1 0 0
vn 0 1 0
vn 0 0 1
vn -1 0 0
vn 1 0 0
vn 0 1 0
vn 0 0 -1
vn -1 0 0
vn 1 0 0
vn 0 1 0
vn 0 0 1
vn 0 0 -1
vn -1 0 0
vn 1 0 0
vn 0 0 1
vn 0 0 1
vn 0 0 -1
vn 0 0 1
vn 0 0 1
vn 0 0 -1
vn 1 0 0
vn 0 0 1
vn 0 -0.7071067690849304 0.7071067690849304
vn 0 0 -1
vn 0 -1 0
vn -1 0 0
vn 1 0 0
vn 0 0 1
vn 0 0 -1
vn 0 -1 0
vn -1 0 0
vn 1 0 0
vn 0 0 1
vn 0 -0.7071067690849304 0.7071067690849304
vn 0 -1 0
vn 0 0 1
vn 0 -1 0
vn 0 0 1
vn 0 -1 0
vn 1 0 0
vn 0 0 1
vn 0 0 -1
vn 0 -1 0
vn -1 0 0
vn 1 0 0
vn 0.9958931803703308 0.09053575247526169 0
vn 0 0 1
vn 1 0 0
vn 0.9958931803703308 0.09053575247526169 0
vn 0 0 -1
vn 1 0 0
vn 0.9958931803703308 0.09053575247526169 0
vn 0 0 1
vn 1 0 0
vn 0.9958931803703308 0.09053575247526169 0
vn 0 0 -1
vn 1 0 0
vn 0 0 1
vn 0 -1 0
vn 1 0 0
vn 0 0 -1
vn 0 -1 0
vn 1 0 0
vn 0 0 1
vn 0 -1 0
vn 1 0 0
vn 0 0 -1
vn 0 -1 0
vn 0.9958931803703308 0.09053575247526169 0
vn 0 0 1
vn -1 0 0
vn 0.9958931803703308 0.09053575247526169 0
vn 0 0 1
vn 0 0 -1
vn -1 0 0
vn 0.9958931803703308 0.09053575247526169 0
vn 0 0 1
vn -1 0 0
vn 0.9958931803703308 0.09053575247526169 0
vn 0 0 1
vn 0 0 -1
vn -1 0 0
vn 0 0 1
vn -0.9938837289810181 0.1104315295815468 0
vn -1 0 0
vn 0 0 1
vn -0.9938837289810181 0.1104315295815468 0
vn -1 0 0
vn 0 0 1
vn -0.9938837289810181 0.1104315295815468 0
vn -1 0 0
vn 0 0 1
vn -0.9938837289810181 0.1104315295815468 0
vn -1 0 0
vn 0 0 1
vn -0.9938837289810181 0.1104315295815468 0
vn -1 0 0
vn 0 0 1
vn 0 0 -1
vn -0.9938837289810181 0.1104315295815468 0
vn -1 0 0
vn 0 0 1
vn -0.9938837289810181 0.1104315295815468 0
vn -1 0 0
vn 0 0 1
vn 0 0 -1
vn -0.9938837289810181 0.1104315295815468 0
vn -1 0 0
vn 0 1 0
vn 0 0 1
vn -1 0 0
vn 0 1 0
vn 0 0 -1
vn -1 0 0
vn 0 1 0
vn 0 0 1
vn -1 0 0
vn 0 1 0
vn 0 0 -1
vn -1 0 0
vn 1 0 0
vn 0 1 0
vn 0 0 1
vn 1 0 0
vn 0 1 0
vn 0 0 -1
vn 1 0 0
vn 0 0 1
vn 0 -1 0
vn 1 0 0
vn 0 0 -1
vn 0 -1 0
vn 1 0 0
vn 0 1 0
vn 0 0 1
vn 1 0 0
vn 0 1 0
vn 0 0 -1
vn 1 0 0
vn 0 0 1
vn 0 -1 0
vn 1 0 0
vn 0 0 -1
vn 0 -1 0
vn 0 1 0
vn 0 0 1
vn -1 0 0
vn 0 1 0
vn 0 0 -1
vn -1 0 0
vn 0 0 1
vn 0 -1 0
vn -1 0 0
vn 0 0 -1
vn 0 -1 0
vn -1 0 0
vn 0 1 0
vn 0 0 1
vn 0 1 0
vn 0 0 -1
vn 0 1 0
vn 0 0 1
vn 0 1 0
vn 0 0 -1
vn 0 0 1
vn 0 -1 0
vn 0 0 -1
vn 0 -1 0
vn 0 0 1
vn 0 -1 0
vn 0 0 -1
vn 0 -1 0
vn 1 0 0
vn 0 1 0
vn 0 0 1
vn 1 0 0
vn 0 1 0
vn 0 0 -1
vn 1 0 0
vn 0 0 1
vn 0 -1 0
vn 1 0 0
vn 0 0 -1
vn 0 -1 0
vn 0 1 0
vn 0 0 1
vn -1 0 0
vn 0 1 0
vn 0 0 -1
vn -1 0 0
vn 0 0 1
vn 0 -1 0
vn -1 0 0
vn 0 0 -1
vn 0 -1 0
vn -1 0 0
vn 0 1 0
vn 0 0 1
vn -1 0 0
vn 0 1 0
vn 0 0 -1
vn -1 0 0
vn 0 0 1
vn 0 -1 0
vn -1 0 0
vn 0 0 -1
vn 0 -1 0
vn -1 0 0
vn 1 0 0
vn 0.9938837289810181 0.1104315295815468 0
vn 0 0 1
vn 0 0 -1
vn 1 0 0
vn 0.9938837289810181 0.1104315295815468 0
vn 0 0 -1
vn 1 0 0
vn 0.9938837289810181 0.1104315295815468 0
vn 0 0 1
vn 0 0 -1
vn 1 0 0
vn 0.9938837289810181 0.1104315295815468 0
vn 0 0 -1
vn 1 0 0
vn 0 1 0
vn 0 0 1
vn 1 0 0
vn 0 1 0
vn 0 0 -1
vn 1 0 0
vn 0 1 0
vn 0 0 1
vn 1 0 0
vn 0 1 0
vn 0 0 -1
vn 1 0 0
vn 0 0 1
vn 0 0 -1
vn -0.9958931803703308 0.09053575247526169 0
vn 1 0 0
vn 0 0 -1
vn -0.9958931803703308 0.09053575247526169 0
vn 1 0 0
vn 0 0 1
vn 0 0 -1
vn -0.9958931803703308 0.09053575247526169 0
vn 1 0 0
vn 0 0 -1
vn -0.9958931803703308 0.09053575247526169 0
vn 1 0 0
vn 0.9938837289810181 0.1104315295815468 0
vn 0 0 -1
vn 1 0 0
vn 0.9938837289810181 0.1104315295815468 0
vn 0 0 -1
vn 1 0 0
vn 0.9938837289810181 0.1104315295815468 0
vn 0 0 -1
vn 1 0 0
vn 0.9938837289810181 0.1104315295815468 0
vn 0 0 -1
vn 0 0 1
vn -0.9958931803703308 0.09053575247526169 0
vn -1 0 0
vn 0 0 -1
vn -0.9958931803703308 0.09053575247526169 0
vn -1 0 0
vn 0 0 1
vn -0.9958931803703308 0.09053575247526169 0
vn -1 0 0
vn 0 0 -1
vn -0.9958931803703308 0.09053575247526169 0
vn -1 0 0
vn 0 0 1
vn 0 -1 0
vn -1 0 0
vn 0 0 -1
vn 0 -1 0
vn -1 0 0
vn 0 0 1
vn 0 -1 0
vn -1 0 0
vn 0 0 -1
vn 0 -1 0
vn -1 0 0
vn 0 1 0
vn 0 0 1
vn -1 0 0
vn 0 1 0
vn -1 0 0
vn 0 1 0
vn -1 0 0
vn 0 1 0
vn 0 0 -1
vn -1 0 0
vn 0 1 0
vn 0 0 1
vn -1 0 0
vn 0 1 0
vn 0 0 1
vn -1 0 0
vn 0 1 0
vn 0 0 -1
vn -1 0 0
vn 0 1 0
vn 0 0 -1
vn -1 0 0
vn 0 0 1
vn -1 0 0
vn 0 0 -1
vn -1 0 0
vn 0 0 1
vn -1 0 0
vn 1 0 0
vn 0 0 -1
vn -1 0 0
vn 0 0 1
vn 0 -0.7071067690849304 0.7071067690849304
vn -1 0 0
vn 1 0 0
vn 0 0 -1
vn 0 -1 0
vn -1 0 0
vn 0 0 -1
vn 0 -1 0
vn -1 0 0
vn 0 -0.7071067690849304 0.7071067690849304
vn 0 -1 0
vn -1 0 0
vn 0 -1 0
vn -1 0 0
vn 0 -1 0
vn -1 0 0
vn 1 0 0
vn 0 0 -1
vn 0 -1 0
vn -1 0 0
f 221//221 215//215 218//218
f 218//218 224//224 221//221
f 213//213 138//138 141//141
f 141//141 216//216 213//213
f 137//137 143//143 146//146
f 146//146 140//140 137//137
f 145//145 220//220 223//223
f 223//223 148//148 145//145
f 139//139 214//214 219//219
f 219//219 144//144 139//139
f 142//142 147//147 222//222
f 222//222 217//217 142//142
f 155//155 158//158 152//152
f 152//152 149//149 155//155
f 168//168 171//171 160//160
f 160//160 157//157 168//168
f 163//163 166//166 172//172
f 172//172 169//169 163//163
f 150//150 153//153 164//164
f 164//164 161//161 150//150
f 151//151 167//167 156//156
f 151//151 162//162 167//167
f 154//154 170//170 165//165
f 154//154 159//159 170//170
f 195//195 198//198 192//192
f 192//192 189//189 195//195
f 208//208 211//211 200//200
f 200//200 197//197 208//208
f 203//203 206//206 212//212
f 212//212 209//209 203//203
f 190//190 193//193 204//204
f 204//204 201//201 190//190
f 191//191 207//207 196//196
f 191//191 202//202 207//207
f 194//194 210//210 205//205
f 194//194 199//199 210//210
f 119//119 106//106 109//109
f 109//109 123//123 119//119
f 121//121 108//108 96//96
f 97//97 72//72 122//122
f 71//71 95//95 92//92
f 92//92 68//68 71//71
f 69//69 93//93 105//105
f 105//105 118//118 69//69
f 107//107 98//98 110//110
f 107//107 94//94 98//98
f 133//133 120//120 124//124
f 124//124 136//136 133//133
f 135//135 122//122 72//72
f 72//72 83//83 135//135
f 82//82 70//70 67//67
f 67//67 79//79 82//82
f 80//80 69//69 118//118
f 118//118 132//132 80//80
f 177//177 131//131 134//134
f 134//134 179//179 177//177
f 180//180 135//135 83//83
f 83//83 187//187 180//180
f 188//188 84//84 81//81
f 81//81 186//186 188//188
f 185//185 80//80 132//132
f 132//132 178//178 185//185
f 246//246 177//177 179//179
f 179//179 249//249 246//246
f 250//250 180//180 187//187
f 187//187 298//298 250//250
f 299//299 188//188 186//186
f 186//186 296//296 299//299
f 295//295 185//185 178//178
f 178//178 247//247 295//295
f 232//232 245//245 248//248
f 248//248 236//236 232//232
f 238//238 250//250 298//298
f 298//298 286//286 238//238
f 288//288 300//300 297//297
f 297//297 285//285 288//288
f 283//283 295//295 247//247
f 247//247 234//234 283//283
f 272//272 233//233 237//237
f 237//237 275//275 272//272
f 276//276 238//238 286//286
f 286//286 263//263 276//276
f 264//264 287//287 284//284
f 284//284 261//261 264//264
f 259//259 283//283 234//234
f 235//235 273//273 260//260
f 271//271 262//262 258//258
f 271//271 274//274 262//262
f 112//112 100//100 103//103
f 103//103 116//116 112//112
f 114//114 102//102 89//89
f 90//90 66//66 115//115
f 65//65 88//88 85//85
f 85//85 62//62 65//65
f 63//63 86//86 99//99
f 99//99 111//111 63//63
f 101//101 91//91 104//104
f 101//101 87//87 91//91
f 127//127 113//113 117//117
f 117//117 130//130 127//127
f 129//129 115//115 66//66
f 66//66 77//77 129//129
f 76//76 64//64 61//61
f 61//61 73//73 76//76
f 74//74 63//63 111//111
f 111//111 126//126 74//74
f 173//173 125//125 128//128
f 128//128 175//175 173//173
f 176//176 129//129 77//77
f 77//77 183//183 176//176
f 184//184 78//78 75//75
f 75//75 182//182 184//184
f 181//181 74//74 126//126
f 126//126 174//174 181//181
f 240//240 173//173 175//175
f 175//175 243//243 240//240
f 244//244 176//176 183//183
f 183//183 292//292 244//244
f 293//293 184//184 182//182
f 182//182 290//290 293//293
f 289//289 181//181 174//174
f 174//174 241//241 289//289
f 225//225 239//239 242//242
f 242//242 229//229 225//225
f 231//231 244//244 292//292
f 292//292 280//280 231//231
f 282//282 294//294 291//291
f 291//291 279//279 282//282
f 277//277 289//289 241//241
f 241//241 227//227 277//277
f 266//266 226//226 230//230
f 230//230 269//269 266//266
f 270//270 231//231 280//280
f 280//280 256//256 270//270
f 257//257 281//281 278//278
f 278//278 254//254 257//257
f 252//252 277//277 227//227
f 228//228 267//267 253//253
f 265//265 255//255 251//251
f 265//265 268//268 255//255
f 33//33 36//36 330//330
f 330//330 325//325 33//33
f 55//55 53//53 345//345
f 345//345 347//347 55//55
f 28//28 33//33 325//325
f 325//325 321//321 28//28
f 22//22 26//26 320//320
f 320//320 317//317 22//22
f 13//13 23//23 318//318
f 318//318 309//309 13//13
f 8//8 12//12 308//308
f 308//308 306//306 8//8
f 5//5 8//8 306//306
f 306//306 304//304 5//5
f 2//2 5//5 304//304
f 304//304 301//301 2//2
f 19//19 3//3 302//302
f 302//302 315//315 19//19
f 15//15 18//18 314//314
f 314//314 311//311 15//15
f 31//31 16//16 312//312
f 312//312 323//323 31//31
f 34//34 31//31 323//323
f 323//323 327//327 34//34
f 38//38 34//34 327//327
f 327//327 332//332 38//38
f 53//53 51//51 343//343
f 343//343 345//345 53//53
f 50//50 39//39 333//333
f 333//333 342//342 50//50
f 50//50 39//39 333//333
f 333//333 342//342 50//50
f 50//50 39//39 333//333
f 333//333 342//342 50//50
f 59//59 55//55 347//347
f 347//347 351//351 59//59
f 40//40 58//58 350//350
f 350//350 336//336 40//40
f 46//46 41//41 337//337
f 337//337 340//340 46//46
f 36//36 45//45 339//339
f 339//339 330//330 36//36
f 35//35 32//32 44//44
f 32//32 27//27 44//44
f 25//25 7//7 43//43
f 7//7 30//30 43//43
f 30//30 48//48 43//43
f 48//48 56//56 43//43
f 60//60 42//42 47//47
f 49//49 54//54 57//57
f 49//49 52//52 54//54
f 30//30 37//37 48//48
f 31//31 34//34 38//38
f 7//7 1//1 30//30
f 1//1 14//14 30//30
f 4//4 20//20 17//17
f 9//9 6//6 3//3
f 29//29 24//24 10//10
f 21//21 11//11 7//7
f 331//331 348//348 326//326
f 348//348 346//346 326//326
f 346//346 322//322 326//326
f 346//346 319//319 322//322
f 346//346 310//310 319//319
f 346//346 307//307 310//310
f 346//346 305//305 307//307
f 346//346 303//303 305//305
f 346//346 316//316 303//303
f 346//346 313//313 316//316
f 346//346 324//324 313//313
f 346//346 328//328 324//324
f 346//346 334//334 328//328
f 346//346 344//344 334//334
f 331//331 352//352 348//348
f 329//329 335//335 349//349
f 331//331 341//341 338//338
