# Rhino

v 0 5 0
v 0 0 -10
v 0 -5 0
v 0 -5 0
v 0 0 -10
v 20 0 -10
v 20 0 0
v 0 5 0
v 0 -5 0
v 20 0 -10
v 0 0 -10
v 0 5 0
v 0 5 0
v 20 0 0
v 20 0 -10
v 20 0 -10
v 20 0 0
v 0 -5 0
vn -1 0 0
vn -1 0 0
vn -1 0 0
vn 0 -0.8944271802902222 -0.4472135901451111
vn 0 -0.8944271802902222 -0.4472135901451111
vn 0 -0.8944271802902222 -0.4472135901451111
vn 0 0 1
vn 0 0 1
vn 0 0 1
vn 0 0.8944271802902222 -0.4472135901451111
vn 0 0.8944271802902222 -0.4472135901451111
vn 0 0.8944271802902222 -0.4472135901451111
vn 0.2425356358289719 0.9701424837112427 0
vn 0.2425356358289719 0.9701424837112427 0
vn 0.2425356358289719 0.9701424837112427 0
vn 0.2425356358289719 -0.9701424837112427 0
vn 0.2425356358289719 -0.9701424837112427 0
vn 0.2425356358289719 -0.9701424837112427 0
f 1//1 2//2 3//3
f 4//4 5//5 6//6
f 7//7 8//8 9//9
f 10//10 11//11 12//12
f 13//13 14//14 15//15
f 16//16 17//17 18//18
