# Rhino

v 9.699999809265137 4.800000190734863 9.199999809265137
v 9.699999809265137 4.800000190734863 9.199999809265137
v 9.699999809265137 4.800000190734863 9.199999809265137
v 9.699999809265137 4.800000190734863 9.100000381469727
v 9.699999809265137 4.800000190734863 9.100000381469727
v 9.699999809265137 4.800000190734863 9.100000381469727
v 9.699999809265137 4.800000190734863 0.1000000014901161
v 9.699999809265137 4.800000190734863 0.1000000014901161
v 9.699999809265137 4.800000190734863 0.1000000014901161
v 9.699999809265137 3.5 9.199999809265137
v 9.699999809265137 3.5 9.199999809265137
v 9.699999809265137 3.5 9.199999809265137
v 9.699999809265137 3.5 9.100000381469727
v 9.699999809265137 3.5 9.100000381469727
v 9.699999809265137 3.5 9.100000381469727
v 9.699999809265137 3.5 0.1000000014901161
v 9.699999809265137 3.5 0.1000000014901161
v 9.699999809265137 3.5 0.1000000014901161
v 9.600000381469727 4.800000190734863 9.100000381469727
v 9.600000381469727 4.800000190734863 9.100000381469727
v 9.600000381469727 4.800000190734863 0.1000000014901161
v 9.600000381469727 4.800000190734863 0.1000000014901161
v 9.600000381469727 4.800000190734863 0.1000000014901161
v 9.600000381469727 3.799999952316284 9.100000381469727
v 9.600000381469727 3.799999952316284 9.100000381469727
v 9.600000381469727 3.799999952316284 9.100000381469727
v 9.600000381469727 3.799999952316284 0.1000000014901161
v 9.600000381469727 3.799999952316284 0.1000000014901161
v 9.600000381469727 3.799999952316284 0.1000000014901161
v 9.600000381469727 3.700000047683716 9.100000381469727
v 9.600000381469727 3.700000047683716 9.100000381469727
v 9.600000381469727 3.700000047683716 9.100000381469727
v 9.600000381469727 3.700000047683716 0.1000000014901161
v 9.600000381469727 3.700000047683716 0.1000000014901161
v 9.600000381469727 3.700000047683716 0.1000000014901161
v 9.600000381469727 3.5 9.100000381469727
v 9.600000381469727 3.5 9.100000381469727
v 9.600000381469727 3.5 0.1000000014901161
v 9.600000381469727 3.5 0.1000000014901161
v 9.600000381469727 3.5 0.1000000014901161
v 7.5 3.099999904632568 9.100000381469727
v 7.5 3.099999904632568 9.100000381469727
v 7.5 3.099999904632568 9.100000381469727
v 7.5 3.099999904632568 0.1000000014901161
v 7.5 3.099999904632568 0.1000000014901161
v 7.5 3.099999904632568 0.1000000014901161
v 7.400000095367432 3.200000047683716 9.100000381469727
v 7.400000095367432 3.200000047683716 9.100000381469727
v 7.400000095367432 3.200000047683716 9.100000381469727
v 7.400000095367432 3.200000047683716 0.1000000014901161
v 7.400000095367432 3.200000047683716 0.1000000014901161
v 7.400000095367432 3.200000047683716 0.1000000014901161
v 7.400000095367432 3.099999904632568 9.100000381469727
v 7.400000095367432 3.099999904632568 9.100000381469727
v 7.400000095367432 3.099999904632568 9.100000381469727
v 7.400000095367432 3.099999904632568 0.1000000014901161
v 7.400000095367432 3.099999904632568 0.1000000014901161
v 7.400000095367432 3.099999904632568 0.1000000014901161
v 5.300000190734863 3.900000095367432 9.100000381469727
v 5.300000190734863 3.900000095367432 9.100000381469727
v 5.300000190734863 3.900000095367432 9.100000381469727
v 5.300000190734863 3.900000095367432 0.1000000014901161
v 5.300000190734863 3.900000095367432 0.1000000014901161
v 5.300000190734863 3.900000095367432 0.1000000014901161
v 5.199999809265137 3.799999952316284 9.100000381469727
v 5.199999809265137 3.799999952316284 9.100000381469727
v 5.199999809265137 3.799999952316284 9.100000381469727
v 5.199999809265137 3.799999952316284 0.1000000014901161
v 5.199999809265137 3.799999952316284 0.1000000014901161
v 5.199999809265137 3.799999952316284 0.1000000014901161
v 5 3.700000047683716 9.100000381469727
v 5 3.700000047683716 9.100000381469727
v 5 3.700000047683716 9.100000381469727
v 5 3.700000047683716 0.1000000014901161
v 5 3.700000047683716 0.1000000014901161
v 5 3.700000047683716 0.1000000014901161
v 4.900000095367432 3.799999952316284 9.100000381469727
v 4.900000095367432 3.799999952316284 9.100000381469727
v 4.900000095367432 3.799999952316284 9.100000381469727
v 4.900000095367432 3.799999952316284 0.1000000014901161
v 4.900000095367432 3.799999952316284 0.1000000014901161
v 4.900000095367432 3.799999952316284 0.1000000014901161
v 2.799999952316284 3.200000047683716 9.100000381469727
v 2.799999952316284 3.200000047683716 9.100000381469727
v 2.799999952316284 3.200000047683716 9.100000381469727
v 2.799999952316284 3.200000047683716 0.1000000014901161
v 2.799999952316284 3.200000047683716 0.1000000014901161
v 2.799999952316284 3.200000047683716 0.1000000014901161
v 2.799999952316284 3.099999904632568 9.100000381469727
v 2.799999952316284 3.099999904632568 9.100000381469727
v 2.799999952316284 3.099999904632568 9.100000381469727
v 2.799999952316284 3.099999904632568 0.1000000014901161
v 2.799999952316284 3.099999904632568 0.1000000014901161
v 2.799999952316284 3.099999904632568 0.1000000014901161
v 2.799999952316284 3 9.100000381469727
v 2.799999952316284 3 9.100000381469727
v 2.799999952316284 3 9.100000381469727
v 2.799999952316284 3 0.1000000014901161
v 2.799999952316284 3 0.1000000014901161
v 2.799999952316284 3 0.1000000014901161
v 2.700000047683716 3.099999904632568 9.100000381469727
v 2.700000047683716 3.099999904632568 9.100000381469727
v 2.700000047683716 3.099999904632568 9.100000381469727
v 2.700000047683716 3.099999904632568 0.1000000014901161
v 2.700000047683716 3.099999904632568 0.1000000014901161
v 2.700000047683716 3.099999904632568 0.1000000014901161
v 0.6000000238418579 3.900000095367432 9.100000381469727
v 0.6000000238418579 3.900000095367432 9.100000381469727
v 0.6000000238418579 3.900000095367432 9.100000381469727
v 0.6000000238418579 3.900000095367432 0.1000000014901161
v 0.6000000238418579 3.900000095367432 0.1000000014901161
v 0.6000000238418579 3.900000095367432 0.1000000014901161
v 0.5 4.800000190734863 9.100000381469727
v 0.5 4.800000190734863 9.100000381469727
v 0.5 4.800000190734863 0.1000000014901161
v 0.5 4.800000190734863 0.1000000014901161
v 0.5 4.800000190734863 0.1000000014901161
v 0.5 3.799999952316284 9.100000381469727
v 0.5 3.799999952316284 9.100000381469727
v 0.5 3.799999952316284 9.100000381469727
v 0.5 3.799999952316284 0.1000000014901161
v 0.5 3.799999952316284 0.1000000014901161
v 0.5 3.799999952316284 0.1000000014901161
v 0.5 3.5 9.100000381469727
v 0.5 3.5 9.100000381469727
v 0.5 3.5 0.1000000014901161
v 0.5 3.5 0.1000000014901161
v 0.5 3.5 0.1000000014901161
v 0.4000000059604645 4.800000190734863 9.199999809265137
v 0.4000000059604645 4.800000190734863 9.199999809265137
v 0.4000000059604645 4.800000190734863 9.199999809265137
v 0.4000000059604645 4.800000190734863 9.100000381469727
v 0.4000000059604645 4.800000190734863 9.100000381469727
v 0.4000000059604645 4.800000190734863 9.100000381469727
v 0.4000000059604645 4.800000190734863 0.1000000014901161
v 0.4000000059604645 4.800000190734863 0.1000000014901161
v 0.4000000059604645 4.800000190734863 0.1000000014901161
v 0.4000000059604645 3.5 9.199999809265137
v 0.4000000059604645 3.5 9.199999809265137
v 0.4000000059604645 3.5 9.199999809265137
v 0.4000000059604645 3.5 9.100000381469727
v 0.4000000059604645 3.5 9.100000381469727
v 0.4000000059604645 3.5 9.100000381469727
v 0.4000000059604645 3.5 0.1000000014901161
v 0.4000000059604645 3.5 0.1000000014901161
v 0.4000000059604645 3.5 0.1000000014901161
vn 1 0 0
vn 0 1 0
vn 0 0 1
vn 1 0 0
vn 0 1 0
vn 0 0 -1
vn 1 0 0
vn 0 1 0
vn 0 0 -1
vn 1 0 0
vn 0 0 1
vn 0 -1 0
vn 1 0 0
vn 0 0 -1
vn 0 -1 0
vn 1 0 0
vn 0 0 -1
vn 0 -1 0
vn 0 1 0
vn -1 0 0
vn 0 1 0
vn 0 0 -1
vn -1 0 0
vn 1 0 0
vn 0 0 1
vn -0.3032036423683167 0.9529258012771606 0
vn 1 0 0
vn 0 0 -1
vn -0.3032036423683167 0.9529258012771606 0
vn 1 0 0
vn 0.2747211456298828 -0.9615239500999451 0
vn 0 0 1
vn 1 0 0
vn 0.2747211456298828 -0.9615239500999451 0
vn 0 0 -1
vn 0 -1 0
vn -1 0 0
vn 0 0 -1
vn 0 -1 0
vn -1 0 0
vn 0.2747211456298828 -0.9615239500999451 0
vn 0 0 1
vn 0 -1 0
vn 0.2747211456298828 -0.9615239500999451 0
vn 0 0 -1
vn 0 -1 0
vn 0.2631173431873322 0.9647638201713562 0
vn 0 0 -1
vn -0.3162277936935425 -0.9486832618713379 0
vn 0.2631173431873322 0.9647638201713562 0
vn 0 0 1
vn -0.3162277936935425 -0.9486832618713379 0
vn 0 0 1
vn 0 -1 0
vn -0.3032036423683167 0.9529258012771606 0
vn 0 0 -1
vn 0 -1 0
vn -0.3032036423683167 0.9529258012771606 0
vn 0.7071059346199036 -0.7071076035499573 0
vn 0 0 -1
vn -0.3162277936935425 -0.9486832618713379 0
vn 0.7071059346199036 -0.7071076035499573 0
vn 0 0 1
vn -0.3162277936935425 -0.9486832618713379 0
vn 0.7071059346199036 -0.7071076035499573 0
vn 0.2631173431873322 0.9647638201713562 0
vn 0 0 -1
vn 0.7071059346199036 -0.7071076035499573 0
vn 0.2631173431873322 0.9647638201713562 0
vn 0 0 1
vn 0.7071067690849304 0.7071067690849304 0
vn 0.303203672170639 -0.9529258012771606 0
vn 0 0 1
vn 0.7071067690849304 0.7071067690849304 0
vn 0.303203672170639 -0.9529258012771606 0
vn 0 0 -1
vn 0.7071067690849304 0.7071067690849304 0
vn 0 0 1
vn -0.3162277638912201 0.9486833214759827 0
vn 0.7071067690849304 0.7071067690849304 0
vn 0 0 -1
vn -0.3162277638912201 0.9486833214759827 0
vn 0.7071076035499573 -0.7071059346199036 0
vn 0.303203672170639 0.9529257416725159 0
vn 0 0 1
vn 0.7071076035499573 -0.7071059346199036 0
vn 0.303203672170639 0.9529257416725159 0
vn 0 0 -1
vn 0 0 1
vn -0.3162277638912201 0.9486833214759827 0
vn -1 0 0
vn 0 0 -1
vn -0.3162277638912201 0.9486833214759827 0
vn -1 0 0
vn 0.303203672170639 -0.9529258012771606 0
vn 0 0 1
vn -1 0 0
vn 0.303203672170639 -0.9529258012771606 0
vn 0 0 -1
vn -1 0 0
vn 0.7071076035499573 -0.7071059346199036 0
vn 0 0 1
vn -0.303203672170639 -0.9529258012771606 0
vn 0.7071076035499573 -0.7071059346199036 0
vn 0 0 -1
vn -0.303203672170639 -0.9529258012771606 0
vn 0.303203672170639 0.9529257416725159 0
vn 0 0 1
vn -0.7071071863174439 0.707106351852417 0
vn 0.303203672170639 0.9529257416725159 0
vn 0 0 -1
vn -0.7071071863174439 0.707106351852417 0
vn 1 0 0
vn 0 1 0
vn 1 0 0
vn 0 1 0
vn 0 0 -1
vn 0 0 1
vn -0.303203672170639 -0.9529258012771606 0
vn -0.7071071863174439 0.707106351852417 0
vn 0 0 -1
vn -0.303203672170639 -0.9529258012771606 0
vn -0.7071071863174439 0.707106351852417 0
vn 1 0 0
vn 0 -1 0
vn 1 0 0
vn 0 0 -1
vn 0 -1 0
vn 0 1 0
vn 0 0 1
vn -1 0 0
vn 0 1 0
vn 0 0 -1
vn -1 0 0
vn 0 1 0
vn 0 0 -1
vn -1 0 0
vn 0 0 1
vn 0 -1 0
vn -1 0 0
vn 0 0 -1
vn 0 -1 0
vn -1 0 0
vn 0 0 -1
vn 0 -1 0
vn -1 0 0
f 34//34 31//31 41//41
f 41//41 44//44 34//34
f 29//29 58//58 55//55
f 55//55 26//26 29//29
f 33//33 27//27 24//24
f 24//24 30//30 33//33
f 46//46 43//43 54//54
f 54//54 57//57 46//46
f 35//35 45//45 56//56
f 56//56 28//28 35//35
f 32//32 25//25 53//53
f 53//53 42//42 32//32
f 66//66 47//47 69//69
f 50//50 69//69 47//47
f 52//52 49//49 64//64
f 61//61 64//64 49//49
f 62//62 59//59 68//68
f 65//65 68//68 59//59
f 63//63 70//70 51//51
f 60//60 48//48 67//67
f 75//75 72//72 95//95
f 95//95 98//98 75//75
f 82//82 93//93 90//90
f 90//90 79//79 82//82
f 74//74 80//80 77//77
f 77//77 71//71 74//74
f 100//100 97//97 91//91
f 91//91 94//94 100//100
f 76//76 99//99 92//92
f 92//92 81//81 76//76
f 73//73 78//78 89//89
f 89//89 96//96 73//73
f 103//103 119//119 122//122
f 122//122 106//106 103//103
f 84//84 87//87 110//110
f 110//110 107//107 84//84
f 109//109 112//112 123//123
f 123//123 120//120 109//109
f 83//83 101//101 104//104
f 104//104 86//86 83//83
f 88//88 105//105 121//121
f 121//121 111//111 88//88
f 85//85 108//108 118//118
f 118//118 102//102 85//85
f 9//9 17//17 38//38
f 38//38 22//22 9//9
f 19//19 5//5 8//8
f 8//8 21//21 19//19
f 37//37 20//20 23//23
f 23//23 40//40 37//37
f 15//15 36//36 39//39
f 39//39 18//18 15//15
f 4//4 13//13 16//16
f 16//16 7//7 4//4
f 117//117 127//127 144//144
f 144//144 136//136 117//117
f 132//132 114//114 116//116
f 116//116 135//135 132//132
f 143//143 134//134 137//137
f 137//137 146//146 143//143
f 125//125 142//142 145//145
f 145//145 128//128 125//125
f 113//113 124//124 126//126
f 126//126 115//115 113//113
f 129//129 2//2 5//5
f 5//5 132//132 129//129
f 138//138 11//11 3//3
f 3//3 130//130 138//138
f 139//139 142//142 15//15
f 15//15 12//12 139//139
f 141//141 133//133 6//6
f 6//6 14//14 141//141
f 10//10 13//13 4//4
f 4//4 1//1 10//10
f 143//143 140//140 131//131
f 131//131 134//134 143//143
