# Rhino

v 4.800000190734863 13 2
v 4.800000190734863 13 2
v 4.800000190734863 13 2
v 4.800000190734863 13 -2
v 4.800000190734863 13 -2
v 4.800000190734863 13 -2
v 4.800000190734863 -8.100000381469727 2
v 4.800000190734863 -8.100000381469727 2
v 4.800000190734863 -8.100000381469727 2
v 4.800000190734863 -8.100000381469727 -2
v 4.800000190734863 -8.100000381469727 -2
v 4.800000190734863 -8.100000381469727 -2
v 4.599999904632568 13 2
v 4.599999904632568 13 2
v 4.599999904632568 13 2
v 4.599999904632568 13 -2
v 4.599999904632568 13 -2
v 4.599999904632568 13 -2
v 4.599999904632568 -8.199999809265137 2
v 4.599999904632568 -8.199999809265137 2
v 4.599999904632568 -8.199999809265137 2
v 4.599999904632568 -8.199999809265137 -2
v 4.599999904632568 -8.199999809265137 -2
v 4.599999904632568 -8.199999809265137 -2
v 0.6000000238418579 5 2
v 0.6000000238418579 5 2
v 0.6000000238418579 5 2
v 0.6000000238418579 5 -2
v 0.6000000238418579 5 -2
v 0.6000000238418579 5 -2
v 0.6000000238418579 0 2
v 0.6000000238418579 0 2
v 0.6000000238418579 0 2
v 0.6000000238418579 0 -2
v 0.6000000238418579 0 -2
v 0.6000000238418579 0 -2
v 0.4000000059604645 5 2
v 0.4000000059604645 5 2
v 0.4000000059604645 5 2
v 0.4000000059604645 5 -2
v 0.4000000059604645 5 -2
v 0.4000000059604645 5 -2
v 0.4000000059604645 0 2
v 0.4000000059604645 0 2
v 0.4000000059604645 0 2
v 0.4000000059604645 0 -2
v 0.4000000059604645 0 -2
v 0.4000000059604645 0 -2
vn 0.8853979110717773 -0.4648338854312897 0
vn 0 1 0
vn 0 0 1
vn 0.8853979110717773 -0.4648338854312897 0
vn 0 1 0
vn 0 0 -1
vn 0.8877545595169067 0.4603171646595001 0
vn 0.4472135901451111 -0.8944271802902222 0
vn 0 0 1
vn 0.8877545595169067 0.4603171646595001 0
vn 0.4472135901451111 -0.8944271802902222 0
vn 0 0 -1
vn 0 1 0
vn 0 0 1
vn -0.8853979110717773 0.4648338854312897 0
vn 0 1 0
vn 0 0 -1
vn -0.8853979110717773 0.4648338854312897 0
vn 0.4472135901451111 -0.8944271802902222 0
vn 0 0 1
vn -0.8900433778762817 -0.4558758735656738 0
vn 0.4472135901451111 -0.8944271802902222 0
vn 0 0 -1
vn -0.8900433778762817 -0.4558758735656738 0
vn 1 0 0
vn 0.8853979110717773 -0.4648338854312897 0
vn 0 0 1
vn 1 0 0
vn 0.8853979110717773 -0.4648338854312897 0
vn 0 0 -1
vn 1 0 0
vn 0.8877545595169067 0.4603171646595001 0
vn 0 0 1
vn 1 0 0
vn 0.8877545595169067 0.4603171646595001 0
vn 0 0 -1
vn 0 0 1
vn -0.8853979110717773 0.4648338854312897 0
vn -1 0 0
vn 0 0 -1
vn -0.8853979110717773 0.4648338854312897 0
vn -1 0 0
vn 0 0 1
vn -0.8900433778762817 -0.4558758735656738 0
vn -1 0 0
vn 0 0 -1
vn -0.8900433778762817 -0.4558758735656738 0
vn -1 0 0
f 8//8 19//19 11//11
f 11//11 19//19 22//22
f 2//2 5//5 13//13
f 5//5 16//16 13//13
f 21//21 44//44 47//47
f 47//47 24//24 21//21
f 23//23 46//46 36//36
f 36//36 12//12 23//23
f 10//10 35//35 32//32
f 32//32 7//7 10//10
f 9//9 33//33 43//43
f 43//43 20//20 9//9
f 45//45 39//39 42//42
f 42//42 48//48 45//45
f 46//46 40//40 30//30
f 30//30 36//36 46//46
f 34//34 28//28 25//25
f 25//25 31//31 34//34
f 33//33 27//27 37//37
f 37//37 43//43 33//33
f 38//38 15//15 18//18
f 18//18 41//41 38//38
f 40//40 17//17 6//6
f 6//6 30//30 40//40
f 29//29 4//4 1//1
f 1//1 26//26 29//29
f 27//27 3//3 14//14
f 14//14 37//37 27//27
