# Rhino

v 0.300000011920929 8.800000190734863 4.400000095367432
v 0.300000011920929 8.800000190734863 4.400000095367432
v 0.300000011920929 8.800000190734863 4.400000095367432
v 0.300000011920929 8.800000190734863 0.4000000059604645
v 0.300000011920929 8.800000190734863 0.4000000059604645
v 0.300000011920929 8.800000190734863 0.4000000059604645
v 0.300000011920929 6.199999809265137 4.400000095367432
v 0.300000011920929 6.199999809265137 4.400000095367432
v 0.300000011920929 6.199999809265137 4.400000095367432
v 0.300000011920929 6.199999809265137 0.4000000059604645
v 0.300000011920929 6.199999809265137 0.4000000059604645
v 0.300000011920929 6.199999809265137 0.4000000059604645
v 0.1000000014901161 18.20000076293945 2.599999904632568
v 0.1000000014901161 18.20000076293945 2.599999904632568
v 0.1000000014901161 18.20000076293945 2.599999904632568
v 0.1000000014901161 17.89999961853027 3
v 0.1000000014901161 17.89999961853027 3
v 0.1000000014901161 17.89999961853027 2.099999904632568
v 0.1000000014901161 17.89999961853027 2.099999904632568
v 0.1000000014901161 17.39999961853027 3
v 0.1000000014901161 17.39999961853027 3
v 0.1000000014901161 17.39999961853027 3
v 0.1000000014901161 17.39999961853027 2.099999904632568
v 0.1000000014901161 17.39999961853027 2.099999904632568
v 0.1000000014901161 17.39999961853027 2.099999904632568
v 0.1000000014901161 17.20000076293945 2.599999904632568
v 0.1000000014901161 17.20000076293945 2.599999904632568
v 0.1000000014901161 13.19999980926514 2.599999904632568
v 0.1000000014901161 13.19999980926514 2.599999904632568
v 0.1000000014901161 13.19999980926514 2.599999904632568
v 0.1000000014901161 12.89999961853027 3
v 0.1000000014901161 12.89999961853027 3
v 0.1000000014901161 12.89999961853027 2.099999904632568
v 0.1000000014901161 12.89999961853027 2.099999904632568
v 0.1000000014901161 12.39999961853027 3
v 0.1000000014901161 12.39999961853027 3
v 0.1000000014901161 12.39999961853027 3
v 0.1000000014901161 12.39999961853027 2.099999904632568
v 0.1000000014901161 12.39999961853027 2.099999904632568
v 0.1000000014901161 12.39999961853027 2.099999904632568
v 0.1000000014901161 12.19999980926514 2.599999904632568
v 0.1000000014901161 12.19999980926514 2.599999904632568
v 0.1000000014901161 8.800000190734863 4.400000095367432
v 0.1000000014901161 8.800000190734863 4.400000095367432
v 0.1000000014901161 8.800000190734863 4.400000095367432
v 0.1000000014901161 8.800000190734863 0.4000000059604645
v 0.1000000014901161 8.800000190734863 0.4000000059604645
v 0.1000000014901161 8.800000190734863 0.4000000059604645
v 0.1000000014901161 6.199999809265137 4.400000095367432
v 0.1000000014901161 6.199999809265137 4.400000095367432
v 0.1000000014901161 6.199999809265137 4.400000095367432
v 0.1000000014901161 6.199999809265137 0.4000000059604645
v 0.1000000014901161 6.199999809265137 0.4000000059604645
v 0.1000000014901161 6.199999809265137 0.4000000059604645
v 0.1000000014901161 3.200000047683716 2.599999904632568
v 0.1000000014901161 3.200000047683716 2.599999904632568
v 0.1000000014901161 3.200000047683716 2.599999904632568
v 0.1000000014901161 2.900000095367432 3
v 0.1000000014901161 2.900000095367432 3
v 0.1000000014901161 2.900000095367432 2.099999904632568
v 0.1000000014901161 2.900000095367432 2.099999904632568
v 0.1000000014901161 2.400000095367432 3
v 0.1000000014901161 2.400000095367432 3
v 0.1000000014901161 2.400000095367432 3
v 0.1000000014901161 2.400000095367432 2.099999904632568
v 0.1000000014901161 2.400000095367432 2.099999904632568
v 0.1000000014901161 2.400000095367432 2.099999904632568
v 0.1000000014901161 2.200000047683716 2.599999904632568
v 0.1000000014901161 2.200000047683716 2.599999904632568
v 0.1000000014901161 -1.799999952316284 2.599999904632568
v 0.1000000014901161 -1.799999952316284 2.599999904632568
v 0.1000000014901161 -1.799999952316284 2.599999904632568
v 0.1000000014901161 -2.099999904632568 3
v 0.1000000014901161 -2.099999904632568 3
v 0.1000000014901161 -2.099999904632568 2.099999904632568
v 0.1000000014901161 -2.099999904632568 2.099999904632568
v 0.1000000014901161 -2.599999904632568 3
v 0.1000000014901161 -2.599999904632568 3
v 0.1000000014901161 -2.599999904632568 3
v 0.1000000014901161 -2.599999904632568 2.099999904632568
v 0.1000000014901161 -2.599999904632568 2.099999904632568
v 0.1000000014901161 -2.599999904632568 2.099999904632568
v 0.1000000014901161 -2.799999952316284 2.599999904632568
v 0.1000000014901161 -2.799999952316284 2.599999904632568
v 0 18.20000076293945 2.599999904632568
v 0 18.20000076293945 2.599999904632568
v 0 18.20000076293945 2.599999904632568
v 0 17.89999961853027 3
v 0 17.89999961853027 3
v 0 17.89999961853027 2.099999904632568
v 0 17.89999961853027 2.099999904632568
v 0 17.39999961853027 3
v 0 17.39999961853027 3
v 0 17.39999961853027 3
v 0 17.39999961853027 2.099999904632568
v 0 17.39999961853027 2.099999904632568
v 0 17.39999961853027 2.099999904632568
v 0 17.20000076293945 2.599999904632568
v 0 17.20000076293945 2.599999904632568
v 0 13.19999980926514 2.599999904632568
v 0 13.19999980926514 2.599999904632568
v 0 13.19999980926514 2.599999904632568
v 0 12.89999961853027 3
v 0 12.89999961853027 3
v 0 12.89999961853027 2.099999904632568
v 0 12.89999961853027 2.099999904632568
v 0 12.39999961853027 3
v 0 12.39999961853027 3
v 0 12.39999961853027 3
v 0 12.39999961853027 2.099999904632568
v 0 12.39999961853027 2.099999904632568
v 0 12.39999961853027 2.099999904632568
v 0 12.19999980926514 2.599999904632568
v 0 12.19999980926514 2.599999904632568
v 0 3.200000047683716 2.599999904632568
v 0 3.200000047683716 2.599999904632568
v 0 3.200000047683716 2.599999904632568
v 0 2.900000095367432 3
v 0 2.900000095367432 3
v 0 2.900000095367432 2.099999904632568
v 0 2.900000095367432 2.099999904632568
v 0 2.400000095367432 3
v 0 2.400000095367432 3
v 0 2.400000095367432 3
v 0 2.400000095367432 2.099999904632568
v 0 2.400000095367432 2.099999904632568
v 0 2.400000095367432 2.099999904632568
v 0 2.200000047683716 2.599999904632568
v 0 2.200000047683716 2.599999904632568
v 0 -1.799999952316284 2.599999904632568
v 0 -1.799999952316284 2.599999904632568
v 0 -1.799999952316284 2.599999904632568
v 0 -2.099999904632568 3
v 0 -2.099999904632568 3
v 0 -2.099999904632568 2.099999904632568
v 0 -2.099999904632568 2.099999904632568
v 0 -2.599999904632568 3
v 0 -2.599999904632568 3
v 0 -2.599999904632568 3
v 0 -2.599999904632568 2.099999904632568
v 0 -2.599999904632568 2.099999904632568
v 0 -2.599999904632568 2.099999904632568
v 0 -2.799999952316284 2.599999904632568
v 0 -2.799999952316284 2.599999904632568
vn 1 0 0
vn 0 1 0
vn 0 0 1
vn 1 0 0
vn 0 1 0
vn 0 0 -1
vn 1 0 0
vn 0 0 1
vn 0 -1 0
vn 1 0 0
vn 0 0 -1
vn 0 -1 0
vn 1 0 0
vn 0 0.8574929237365723 -0.5144957304000855
vn 0 0.800000011920929 0.6000000238418579
vn 1 0 0
vn 0 0.5881717205047607 0.8087360858917236
vn 1 0 0
vn 0 0.3227678239345551 -0.9464781880378723
vn 1 0 0
vn 0 0 1
vn 0 -0.8944271802902222 0.4472135901451111
vn 1 0 0
vn 0 0 -1
vn 0 -0.9284766912460327 -0.3713906705379486
vn 1 0 0
vn 0 -0.981974720954895 0.1890121698379517
vn 1 0 0
vn 0 0.8574929237365723 -0.5144957304000855
vn 0 0.800000011920929 0.6000000238418579
vn 1 0 0
vn 0 0.5881717205047607 0.8087360858917236
vn 1 0 0
vn 0 0.3227678239345551 -0.9464781880378723
vn 1 0 0
vn 0 0 1
vn 0 -0.8944271802902222 0.4472135901451111
vn 1 0 0
vn 0 0 -1
vn 0 -0.9284766912460327 -0.3713906705379486
vn 1 0 0
vn 0 -0.981974720954895 0.1890121698379517
vn 0 1 0
vn 0 0 1
vn -1 0 0
vn 0 1 0
vn 0 0 -1
vn -1 0 0
vn 0 0 1
vn 0 -1 0
vn -1 0 0
vn 0 0 -1
vn 0 -1 0
vn -1 0 0
vn 1 0 0
vn 0 0.8574929237365723 -0.5144957304000855
vn 0 0.800000011920929 0.6000000238418579
vn 1 0 0
vn 0 0.5881717205047607 0.8087360858917236
vn 1 0 0
vn 0 0.3227678239345551 -0.9464781880378723
vn 1 0 0
vn 0 0 1
vn 0 -0.8944271802902222 0.4472135901451111
vn 1 0 0
vn 0 0 -1
vn 0 -0.9284766912460327 -0.3713906705379486
vn 1 0 0
vn 0 -0.981974720954895 0.1890121698379517
vn 1 0 0
vn 0 0.8574929237365723 -0.5144957304000855
vn 0 0.800000011920929 0.6000000238418579
vn 1 0 0
vn 0 0.5881717205047607 0.8087360858917236
vn 1 0 0
vn 0 0.3227678239345551 -0.9464781880378723
vn 1 0 0
vn 0 0 1
vn 0 -0.8944271802902222 0.4472135901451111
vn 1 0 0
vn 0 0 -1
vn 0 -0.9284766912460327 -0.3713906705379486
vn 1 0 0
vn 0 -0.981974720954895 0.1890121698379517
vn 0 0.8574929237365723 -0.5144957304000855
vn 0 0.800000011920929 0.6000000238418579
vn -1 0 0
vn 0 0.2940858602523804 0.9557790160179138
vn -1 0 0
vn 0 0.6455356478691101 -0.7637301087379456
vn -1 0 0
vn 0 0 1
vn 0 -0.8944271802902222 0.4472135901451111
vn -1 0 0
vn 0 0 -1
vn 0 -0.9284766912460327 -0.3713906705379486
vn -1 0 0
vn 0 -0.9942793846130371 -0.1068107113242149
vn -1 0 0
vn 0 0.8574929237365723 -0.5144957304000855
vn 0 0.800000011920929 0.6000000238418579
vn -1 0 0
vn 0 0.2940858602523804 0.9557790160179138
vn -1 0 0
vn 0 0.6455356478691101 -0.7637301087379456
vn -1 0 0
vn 0 0 1
vn 0 -0.8944271802902222 0.4472135901451111
vn -1 0 0
vn 0 0 -1
vn 0 -0.9284766912460327 -0.3713906705379486
vn -1 0 0
vn 0 -0.9942793846130371 -0.1068107113242149
vn -1 0 0
vn 0 0.8574929237365723 -0.5144957304000855
vn 0 0.800000011920929 0.6000000238418579
vn -1 0 0
vn 0 0.2940858602523804 0.9557790160179138
vn -1 0 0
vn 0 0.6455356478691101 -0.7637301087379456
vn -1 0 0
vn 0 0 1
vn 0 -0.8944271802902222 0.4472135901451111
vn -1 0 0
vn 0 0 -1
vn 0 -0.9284766912460327 -0.3713906705379486
vn -1 0 0
vn 0 -0.9942793846130371 -0.1068107113242149
vn -1 0 0
vn 0 0.8574929237365723 -0.5144957304000855
vn 0 0.800000011920929 0.6000000238418579
vn -1 0 0
vn 0 0.2940858602523804 0.9557790160179138
vn -1 0 0
vn 0 0.6455356478691101 -0.7637301087379456
vn -1 0 0
vn 0 0 1
vn 0 -0.8944271802902222 0.4472135901451111
vn -1 0 0
vn 0 0 -1
vn 0 -0.9284766912460327 -0.3713906705379486
vn -1 0 0
vn 0 -0.9942793846130371 -0.1068107113242149
vn -1 0 0
f 51//51 45//45 48//48
f 48//48 54//54 51//51
f 43//43 2//2 5//5
f 5//5 46//46 43//43
f 1//1 7//7 10//10
f 10//10 4//4 1//1
f 9//9 50//50 53//53
f 53//53 12//12 9//9
f 3//3 44//44 49//49
f 49//49 8//8 3//3
f 6//6 11//11 52//52
f 52//52 47//47 6//6
f 26//26 23//23 20//20
f 23//23 13//13 20//20
f 13//13 16//16 20//20
f 23//23 18//18 13//13
f 94//94 89//89 99//99
f 89//89 91//91 99//99
f 91//91 97//97 99//99
f 89//89 87//87 91//91
f 27//27 22//22 93//93
f 93//93 98//98 27//27
f 21//21 17//17 88//88
f 88//88 92//92 21//21
f 17//17 15//15 86//86
f 86//86 88//88 17//17
f 14//14 19//19 90//90
f 90//90 85//85 14//14
f 19//19 24//24 95//95
f 95//95 90//90 19//19
f 25//25 27//27 98//98
f 98//98 96//96 25//25
f 41//41 38//38 35//35
f 38//38 28//28 35//35
f 28//28 31//31 35//35
f 38//38 33//33 28//28
f 109//109 104//104 114//114
f 104//104 106//106 114//114
f 106//106 112//112 114//114
f 104//104 102//102 106//106
f 42//42 37//37 108//108
f 108//108 113//113 42//42
f 36//36 32//32 103//103
f 103//103 107//107 36//36
f 32//32 30//30 101//101
f 101//101 103//103 32//32
f 29//29 34//34 105//105
f 105//105 100//100 29//29
f 34//34 39//39 110//110
f 110//110 105//105 34//34
f 40//40 42//42 113//113
f 113//113 111//111 40//40
f 68//68 65//65 62//62
f 65//65 55//55 62//62
f 55//55 58//58 62//62
f 65//65 60//60 55//55
f 124//124 119//119 129//129
f 119//119 121//121 129//129
f 121//121 127//127 129//129
f 119//119 117//117 121//121
f 69//69 64//64 123//123
f 123//123 128//128 69//69
f 63//63 59//59 118//118
f 118//118 122//122 63//63
f 59//59 57//57 116//116
f 116//116 118//118 59//59
f 56//56 61//61 120//120
f 120//120 115//115 56//56
f 61//61 66//66 125//125
f 125//125 120//120 61//61
f 67//67 69//69 128//128
f 128//128 126//126 67//67
f 83//83 80//80 77//77
f 80//80 70//70 77//77
f 70//70 73//73 77//77
f 80//80 75//75 70//70
f 139//139 134//134 144//144
f 134//134 136//136 144//144
f 136//136 142//142 144//144
f 134//134 132//132 136//136
f 84//84 79//79 138//138
f 138//138 143//143 84//84
f 78//78 74//74 133//133
f 133//133 137//137 78//78
f 74//74 72//72 131//131
f 131//131 133//133 74//74
f 71//71 76//76 135//135
f 135//135 130//130 71//71
f 76//76 81//81 140//140
f 140//140 135//135 76//76
f 82//82 84//84 143//143
f 143//143 141//141 82//82
