# RokuSuper Output Ver2.0 for Wavefront Obj

v 1.49326600 1.60405300 -0.00328700
v 0.81478800 0.92322400 -0.00328700
v 3.69911400 4.98714700 -0.00328700
v 2.89412800 4.08329900 -0.00328700
v 2.89409900 1.60405600 -0.00328700
v 0.81504200 1.76124000 0.01516200
v 1.49326600 1.60405300 0.01516200
v 0.81478800 0.92322400 0.01516200
v 3.69897300 0.92322400 0.01516200
v 2.89419300 -0.01140500 -0.00328700
v 3.69897300 -0.01140500 -0.00328700
v 2.89419300 0.92322400 -0.00328700
v 2.89419300 -0.01140500 0.01516200
v 2.89419300 0.92322400 0.01516200
v 3.69897300 -0.01140500 0.01516200
v 4.18521200 1.60403700 -0.00328700
v 4.18521200 1.60403700 0.01516200
v 3.69900100 1.60405600 0.01516200
v 3.69900100 1.60405600 -0.00328700
v 4.18518400 0.92320400 -0.00328700
v 3.69897300 0.92322400 -0.00328700
v 4.18518400 0.92320400 0.01516200
v 2.70516000 4.98291600 0.01516200
v 0.81504200 1.76124000 -0.00328700
v 2.70516000 4.98291600 -0.00328700
v 3.69911400 4.98714700 0.01516200
v 2.89412800 4.08329900 0.01516200
v 2.89409900 1.60405600 0.01516200

vn 0.00000000 0.00000000 -1.00000000
vn 0.00000000 0.00000000 -1.00000000
vn 0.00000000 0.00000000 -1.00000000
vn 0.00000000 0.00000000 -1.00000000
vn 0.00000000 0.00000000 -1.00000000
vn 0.00000000 0.00000000 -1.00000000
vn 0.00000000 0.00000000 -1.00000000
vn 0.00000000 0.00000000 -1.00000000
vn 0.00000000 0.00000000 -1.00000000
vn 0.00000000 0.00000000 -1.00000000
vn 0.00000000 0.00000000 -1.00000000
vn 0.00000000 0.00000000 1.00000000
vn 0.00000000 0.00000000 1.00000000
vn 0.00000000 0.00000000 1.00000000
vn 0.00000000 0.00000000 1.00000000
vn 0.00000000 0.00000000 1.00000000
vn 0.00000000 0.00000000 1.00000000
vn 0.00000000 0.00000000 1.00000000
vn 0.00000000 0.00000000 1.00000000
vn 0.00000000 0.00000000 1.00000000
vn 0.00000000 0.00000000 1.00000000
vn 0.00000000 0.00000000 1.00000000
vn 0.00000000 0.00000000 -1.00000000
vn 0.00000000 0.00000000 -1.00000000
vn 0.00000000 0.00000000 -1.00000000
vn 0.00000000 0.00000000 -1.00000000
vn -1.00000000 0.00000000 0.00000000
vn -1.00000000 0.00000000 0.00000000
vn -1.00000000 0.00000000 0.00000000
vn -1.00000000 0.00000000 0.00000000
vn 0.00000000 0.00000000 1.00000000
vn 0.00000000 0.00000000 1.00000000
vn 0.00000000 0.00000000 1.00000000
vn 0.00000000 0.00000000 1.00000000
vn 1.00000000 0.00000000 0.00000000
vn 1.00000000 0.00000000 0.00000000
vn 1.00000000 0.00000000 0.00000000
vn 1.00000000 0.00000000 0.00000000
vn 0.00000000 -1.00000000 0.00000000
vn 0.00000000 -1.00000000 0.00000000
vn 0.00000000 -1.00000000 0.00000000
vn 0.00000000 -1.00000000 0.00000000
vn 0.00003908 1.00000000 0.00000000
vn 0.00003908 1.00000000 0.00000000
vn 0.00003908 1.00000000 0.00000000
vn 0.00003908 1.00000000 0.00000000
vn 0.00000000 0.00000000 -1.00000000
vn 0.00000000 0.00000000 -1.00000000
vn 0.00000000 0.00000000 -1.00000000
vn 0.00000000 0.00000000 -1.00000000
vn -0.00004113 -1.00000000 0.00000000
vn -0.00004113 -1.00000000 0.00000000
vn -0.00004113 -1.00000000 0.00000000
vn -0.00004113 -1.00000000 0.00000000
vn 0.00000000 0.00000000 1.00000000
vn 0.00000000 0.00000000 1.00000000
vn 0.00000000 0.00000000 1.00000000
vn 0.00000000 0.00000000 1.00000000
vn 0.00000000 0.00000000 1.00000000
vn 0.00000000 0.00000000 1.00000000
vn 0.00000000 0.00000000 1.00000000
vn 0.00000000 0.00000000 1.00000000
vn -0.96497760 0.26233229 0.00000000
vn -0.49882256 0.86670413 0.00000000
vn -0.49882256 0.86670413 0.00000000
vn -0.96497760 0.26233229 0.00000000
vn 0.00000000 0.00000000 -1.00000000
vn 0.00000000 0.00000000 -1.00000000
vn 0.00000000 0.00000000 -1.00000000
vn 0.00000000 0.00000000 -1.00000000
vn 0.00000000 0.00000000 -1.00000000
vn 0.00000000 0.00000000 -1.00000000
vn 0.00000000 0.00000000 -1.00000000
vn 0.00000000 0.00000000 1.00000000
vn 0.00000000 0.00000000 1.00000000
vn 0.00000000 0.00000000 1.00000000
vn -0.49882256 0.86670413 0.00000000
vn -0.49882256 0.86670413 0.00000000
vn -0.00425670 0.99999094 0.00000000
vn -0.00425670 0.99999094 0.00000000
vn 1.00000000 -0.00003340 0.00000000
vn 1.00000000 -0.00003340 0.00000000
vn 1.00000000 -0.00003340 0.00000000
vn 1.00000000 -0.00003340 0.00000000
vn -1.00000000 0.00001170 0.00000000
vn -1.00000000 0.00001170 0.00000000
vn -1.00000000 0.00001170 0.00000000
vn -1.00000000 0.00001170 0.00000000
vn 0.00000000 0.00000000 -1.00000000
vn 0.00000000 0.00000000 -1.00000000
vn 0.00000000 0.00000000 -1.00000000
vn 0.00000000 0.00000000 -1.00000000
vn 0.00000000 0.00000000 1.00000000
vn 0.00000000 0.00000000 1.00000000
vn 0.00000000 0.00000000 1.00000000
vn 0.00000000 0.00000000 1.00000000
vn -0.99999995 0.00030310 0.00000000
vn -0.99999995 0.00030310 0.00000000
vn -0.96497760 0.26233229 0.00000000
vn -0.96497760 0.26233229 0.00000000
vn 0.87063067 -0.49193723 0.00000000
vn 0.87063067 -0.49193723 0.00000000
vn 0.87063067 -0.49193723 0.00000000
vn 0.87063067 -0.49193723 0.00000000
vn 1.00000000 -0.00004113 0.00000000
vn 1.00000000 -0.00004113 0.00000000
vn 1.00000000 -0.00004113 0.00000000
vn 1.00000000 -0.00004113 0.00000000
vn 0.00000000 -1.00000000 0.00000000
vn 0.00000000 -1.00000000 0.00000000
vn 0.00000000 -1.00000000 0.00000000
vn 0.00000000 -1.00000000 0.00000000
vn -0.00000214 1.00000000 0.00000000
vn -0.00000214 1.00000000 0.00000000
vn -0.00000214 1.00000000 0.00000000
vn -0.00000214 1.00000000 0.00000000

g ²ã
f 2//1 1//2 5//3 12//4
f 3//5 19//6 5//7 4//8
f 1//9 2//10 24//11
f 8//12 7//13 6//14
f 9//15 18//16 28//17 14//18
f 8//19 14//20 28//21 7//22
f 11//23 10//24 12//25 21//26
f 10//27 13//28 14//29 12//30
f 13//31 15//32 9//33 14//34
f 15//35 11//36 21//37 9//38
f 8//39 2//40 12//41 14//42
f 17//43 16//44 19//45 18//46
f 16//47 20//48 21//49 19//50
f 20//51 22//52 9//53 21//54
f 22//55 17//56 18//57 9//58
f 6//59 7//60 27//61 23//62
f 6//63 23//64 25//65 24//66
f 4//67 25//68 3//69
f 21//70 12//71 5//72 19//73
f 23//74 27//75 26//76
f 25//77 23//78 26//79 3//80
f 26//81 18//82 19//83 3//84
f 4//85 5//86 28//87 27//88
f 24//89 25//90 4//91 1//92
f 26//93 27//94 28//95 18//96
f 2//97 8//98 6//99 24//100
f 1//101 4//102 27//103 7//104
f 20//105 16//106 17//107 22//108
f 13//109 10//110 11//111 15//112
f 1//113 7//114 28//115 5//116

