# RokuSuper Output Ver2.0 for Wavefront Obj

v 0.97847100 5.00017500 -0.00328700
v 0.97847100 5.00017500 0.01515700
v 0.97690400 4.19521300 0.01515700
v 0.97690400 4.19521300 -0.00328700
v 2.56138600 0.02980700 -0.00328700
v 2.72188300 0.84647500 -0.00328700
v 1.92401500 1.08457100 -0.00328700
v 1.64974900 0.04061000 -0.00328700
v 2.56138600 0.02980700 0.01516200
v 1.64974900 0.04061000 0.01516200
v 1.92401500 1.08457100 0.01516200
v 2.72188300 0.84647500 0.01516200
v 2.31843000 2.21365100 0.01516200
v 3.07354500 1.93943300 0.01516200
v 3.07354500 1.93943300 -0.00328700
v 2.31843000 2.21365100 -0.00328700
v 3.46363600 2.98751300 -0.00328700
v 2.73097600 3.22380000 -0.00328700
v 4.02199800 4.07287600 -0.00328700
v 2.73097600 3.22380000 0.01516200
v 3.46363600 2.98751300 0.01516200
v 4.02199800 4.07287600 0.01516200
v 3.21844800 4.19994000 -0.00328700
v 3.21988000 4.99642400 -0.00328700
v 3.21844800 4.19994000 0.01516200
v 3.21988000 4.99642400 0.01516200
v 4.02309600 4.99863400 -0.00328700
v 4.02309600 4.99863400 0.01516200

vn -0.99999811 0.00194667 0.00000000
vn -0.99999811 0.00194667 0.00000000
vn -0.99999811 0.00194667 0.00000000
vn -0.99999811 0.00194667 0.00000000
vn 0.00000000 0.00000000 -1.00000000
vn 0.00000000 0.00000000 -1.00000000
vn 0.00000000 0.00000000 -1.00000000
vn 0.00000000 0.00000000 -1.00000000
vn 0.00000000 0.00000000 1.00000000
vn 0.00000000 0.00000000 1.00000000
vn 0.00000000 0.00000000 1.00000000
vn 0.00000000 0.00000000 1.00000000
vn 0.00000000 0.00000000 1.00000000
vn 0.00000000 0.00000000 1.00000000
vn 0.00000000 0.00000000 1.00000000
vn 0.00000000 0.00000000 1.00000000
vn 0.97295197 -0.23100751 0.00000000
vn 0.96317306 -0.26888224 0.00000000
vn 0.98123062 -0.19283794 0.00000000
vn 0.98123062 -0.19283794 0.00000000
vn 0.00000000 0.00000000 -1.00000000
vn 0.00000000 0.00000000 -1.00000000
vn 0.00000000 0.00000000 -1.00000000
vn 0.00000000 0.00000000 -1.00000000
vn 0.96317306 -0.26888224 0.00000000
vn 0.97295197 -0.23100751 0.00000000
vn 0.94480385 -0.32763650 0.00000000
vn 0.94480385 -0.32763650 0.00000000
vn -0.96717947 0.25409421 0.00000000
vn -0.96717947 0.25409421 0.00000000
vn -0.95636733 0.29216695 0.00000000
vn -0.95636733 0.29216695 0.00000000
vn 0.00000000 0.00000000 -1.00000000
vn 0.00000000 0.00000000 -1.00000000
vn 0.00000000 0.00000000 -1.00000000
vn 0.00000000 0.00000000 -1.00000000
vn 0.00000000 0.00000000 -1.00000000
vn 0.00000000 0.00000000 -1.00000000
vn 0.00000000 0.00000000 -1.00000000
vn 0.00000000 0.00000000 -1.00000000
vn 0.00000000 0.00000000 1.00000000
vn 0.00000000 0.00000000 1.00000000
vn 0.00000000 0.00000000 1.00000000
vn 0.00000000 0.00000000 1.00000000
vn 0.94480385 -0.32763650 0.00000000
vn 0.91482408 -0.40385257 0.00000000
vn 0.91482408 -0.40385257 0.00000000
vn 0.94480385 -0.32763650 0.00000000
vn 0.91482408 -0.40385257 0.00000000
vn 0.91482408 -0.40385257 0.00000000
vn 0.94970815 -0.31313643 0.00000000
vn 0.98757056 -0.15717632 0.00000000
vn 0.00000000 0.00000000 1.00000000
vn 0.00000000 0.00000000 1.00000000
vn 0.00000000 0.00000000 1.00000000
vn -0.00000056 0.00000000 1.00000000
vn -0.91085617 0.41272392 0.00000000
vn -0.91085617 0.41272392 0.00000000
vn -0.89464631 0.44677508 0.00000000
vn -0.89464631 0.44677508 0.00000000
vn -0.91085617 0.41272392 0.00000000
vn -0.93823974 0.34598583 0.00000000
vn -0.93214242 0.36209185 0.00000000
vn -0.91085617 0.41272392 0.00000000
vn -0.95636733 0.29216695 0.00000000
vn -0.93214242 0.36209185 0.00000000
vn -0.93823974 0.34598583 0.00000000
vn -0.95636733 0.29216695 0.00000000
vn 0.00000000 0.00000000 -1.00000000
vn 0.00000000 0.00000000 -1.00000000
vn 0.00000000 0.00000000 -1.00000000
vn 0.00000000 0.00000000 -1.00000000
vn -0.00000223 0.00000000 1.00000000
vn -0.00000056 0.00000000 1.00000000
vn -0.00000149 0.00000000 1.00000000
vn -0.00000223 0.00000000 1.00000000
vn 0.00019852 0.99999998 0.00000000
vn 0.00167350 0.99999860 0.00000000
vn 0.00167350 0.99999860 0.00000000
vn -0.00127646 0.99999919 0.00000000
vn 0.00210881 -0.99999778 0.00000000
vn 0.00210881 -0.99999778 0.00000000
vn 0.00210881 -0.99999778 0.00000000
vn 0.00210881 -0.99999778 0.00000000
vn 0.00000000 0.00000000 -1.00000000
vn 0.00000000 0.00000000 -1.00000000
vn 0.00000000 0.00000000 -1.00000000
vn 0.00000000 0.00000000 -1.00000000
vn 0.00000000 0.00000000 1.00000000
vn -0.00000149 0.00000000 1.00000000
vn -0.00000056 0.00000000 1.00000000
vn 0.00000000 0.00000000 1.00000000
vn 0.99999930 -0.00118605 0.00000000
vn 0.99999930 -0.00118605 0.00000000
vn 0.98757056 -0.15717632 0.00000000
vn 0.94970815 -0.31313643 0.00000000
vn -0.00127646 0.99999919 0.00000000
vn -0.00275143 0.99999621 0.00000000
vn -0.00275143 0.99999621 0.00000000
vn 0.00019852 0.99999998 0.00000000

g ²ã
f 2//1 1//2 4//3 3//4
f 6//5 5//6 8//7 7//8
f 10//9 9//10 12//11 11//12
f 11//13 12//14 14//15 13//16
f 6//17 12//18 9//19 5//20
f 6//21 7//22 16//23 15//24
f 12//25 6//26 15//27 14//28
f 8//29 10//30 11//31 7//32
f 15//33 16//34 18//35 17//36
f 17//37 18//38 23//39 19//40
f 20//41 13//42 14//43 21//44
f 15//45 17//46 21//47 14//48
f 21//49 17//50 19//51 22//52
f 20//53 21//54 22//55 25//56
f 18//57 20//58 25//59 23//60
f 18//61 16//62 13//63 20//64
f 11//65 13//66 16//67 7//68
f 24//69 23//70 4//71 1//72
f 3//73 25//74 26//75 2//76
f 24//77 1//78 2//79 26//80
f 4//81 23//82 25//83 3//84
f 27//85 19//86 23//87 24//88
f 28//89 26//90 25//91 22//92
f 27//93 28//94 22//95 19//96
f 26//97 28//98 27//99 24//100

