# Blender v2.62 (sub 0) OBJ File: 'BoltonDeck.blend'
# www.blender.org
mtllib BoltOnDeck.mtl
o Cylinder_Cylinder.003
v 2.499457 3.515940 0.057373
v 3.224036 3.215809 0.057373
v 3.524167 2.491230 0.057373
v 3.224036 1.766650 0.057373
v 2.499457 1.466519 0.057373
v 1.774877 1.766650 0.057373
v 1.474747 2.491230 0.057373
v 1.774877 3.215809 0.057373
v 2.499456 3.713990 2.557373
v 3.364079 3.355852 2.557373
v 3.722218 2.491230 2.557373
v 3.364079 1.626608 2.557373
v 2.499457 1.268469 2.557373
v 1.634834 1.626608 2.557373
v 1.276696 2.491230 2.557373
v 1.634835 3.355853 2.557373
v 2.499457 2.491230 0.057373
v 2.499457 2.491230 2.518304
v 3.224036 3.215810 1.584309
v 2.499457 3.515940 1.584309
v 3.524167 2.491230 1.584309
v 3.224037 1.766650 1.584309
v 2.499457 1.466519 1.584309
v 1.774877 1.766650 1.584309
v 1.474747 2.491230 1.584309
v 1.774878 3.215810 1.584309
v 3.560117 3.551890 1.747674
v 2.499457 3.991230 1.747674
v 3.999457 2.491230 1.747674
v 3.560117 1.430570 1.747674
v 2.499457 0.991230 1.747674
v 1.438796 1.430570 1.747674
v 0.999457 2.491230 1.747674
v 1.438797 3.551891 1.747674
v 3.560117 3.551890 2.402269
v 2.499456 3.991230 2.402269
v 3.999457 2.491231 2.402269
v 3.560117 1.430570 2.402269
v 2.499457 0.991230 2.402269
v 1.438796 1.430570 2.402269
v 0.999457 2.491231 2.402269
v 1.438798 3.551891 2.402269
vn -0.000000 -0.000000 -1.000000
vn -0.013227 -0.031933 0.999403
vn -0.031933 -0.013227 0.999403
vn -0.031933 0.013227 0.999402
vn -0.013227 0.031933 0.999402
vn 0.013227 0.031933 0.999403
vn 0.031933 0.013227 0.999403
vn 0.031933 -0.013227 0.999402
vn 0.013227 -0.031933 0.999403
vn 0.382683 0.923880 -0.000000
vn 0.923879 0.382684 -0.000000
vn 0.923880 -0.382683 0.000000
vn 0.382684 -0.923880 0.000000
vn -0.382684 -0.923880 0.000000
vn -0.923880 -0.382683 0.000000
vn -0.923879 0.382684 0.000000
vn -0.382683 0.923880 -0.000000
vn 0.133437 0.322145 -0.937239
vn 0.322145 0.133437 -0.937239
vn 0.322145 -0.133437 -0.937239
vn 0.133437 -0.322145 -0.937239
vn -0.133437 -0.322145 -0.937239
vn -0.322145 -0.133437 -0.937239
vn -0.322145 0.133437 -0.937239
vn -0.133437 0.322145 -0.937239
vn 0.198224 0.478555 0.855390
vn 0.478555 0.198224 0.855390
vn 0.478556 -0.198224 0.855390
vn 0.382684 -0.923879 0.000000
vn 0.198224 -0.478556 0.855390
vn -0.382684 -0.923879 0.000000
vn -0.198224 -0.478556 0.855390
vn -0.478556 -0.198224 0.855390
vn -0.478555 0.198225 0.855390
vn -0.198224 0.478555 0.855390
usemtl 
s off
f 17//1 1//1 2//1
f 18//2 10//2 9//2
f 17//1 2//1 3//1
f 18//3 11//3 10//3
f 17//1 3//1 4//1
f 18//4 12//4 11//4
f 17//1 4//1 5//1
f 18//5 13//5 12//5
f 17//1 5//1 6//1
f 18//6 14//6 13//6
f 17//1 6//1 7//1
f 18//7 15//7 14//7
f 17//1 7//1 8//1
f 18//8 16//8 15//8
f 8//1 1//1 17//1
f 18//9 9//9 16//9
f 1//10 20//10 19//10 2//10
f 2//11 19//11 21//11 3//11
f 3//12 21//12 22//12 4//12
f 4//13 22//13 23//13 5//13
f 5//14 23//14 24//14 6//14
f 6//15 24//15 25//15 7//15
f 7//16 25//16 26//16 8//16
f 20//17 1//17 8//17 26//17
f 20//18 28//18 27//18 19//18
f 19//19 27//19 29//19 21//19
f 21//20 29//20 30//20 22//20
f 22//21 30//21 31//21 23//21
f 23//22 31//22 32//22 24//22
f 24//23 32//23 33//23 25//23
f 25//24 33//24 34//24 26//24
f 28//25 20//25 26//25 34//25
f 28//10 36//10 35//10 27//10
f 36//26 9//26 10//26 35//26
f 27//11 35//11 37//11 29//11
f 35//27 10//27 11//27 37//27
f 29//12 37//12 38//12 30//12
f 37//28 11//28 12//28 38//28
f 30//29 38//29 39//29 31//29
f 38//30 12//30 13//30 39//30
f 31//31 39//31 40//31 32//31
f 39//32 13//32 14//32 40//32
f 32//15 40//15 41//15 33//15
f 40//33 14//33 15//33 41//33
f 33//16 41//16 42//16 34//16
f 41//34 15//34 16//34 42//34
f 9//35 36//35 42//35 16//35
f 36//17 28//17 34//17 42//17
