# Shade 12 - Wavefront OBJ Exporter


o Cube_Cube.001
v 1.890825e+00 3.110722e+00 5.523553e-02
v 1.890825e+00 1.873508e+00 5.523553e-02
v 1.890825e+00 1.873508e+00 2.843271e-01
v 1.890825e+00 3.110722e+00 2.843271e-01
v 3.128039e+00 3.110722e+00 2.843271e-01
v 3.128039e+00 3.110722e+00 5.523553e-02
v 3.128039e+00 1.873508e+00 2.843271e-01
v 3.128039e+00 1.873508e+00 5.523553e-02
# 8 vertices

vn -1.000000 0.000000 0.000000
vn -1.000000 0.000000 0.000000
vn -1.000000 0.000000 0.000000
vn -1.000000 0.000000 0.000000
vn 0.000000 1.000000 0.000000
vn 0.000000 1.000000 0.000000
vn 0.000000 1.000000 0.000000
vn 0.000000 1.000000 0.000000
vn 1.000000 0.000000 0.000000
vn 1.000000 0.000000 0.000000
vn 1.000000 0.000000 0.000000
vn 1.000000 0.000000 0.000000
vn 0.000000 -1.000000 0.000000
vn 0.000000 -1.000000 0.000000
vn 0.000000 -1.000000 0.000000
vn 0.000000 -1.000000 0.000000
vn 0.000000 0.000000 -1.000000
vn 0.000000 0.000000 -1.000000
vn 0.000000 0.000000 -1.000000
vn 0.000000 0.000000 -1.000000
vn 0.000000 0.000000 1.000000
vn 0.000000 0.000000 1.000000
vn 0.000000 0.000000 1.000000
vn 0.000000 0.000000 1.000000
# 24 vertex normals

s 1
g Cube_Cube.001
f 1//4 2//3 3//2 4//1
f 4//8 5//7 6//6 1//5
f 5//12 7//11 8//10 6//9
f 2//16 8//15 7//14 3//13
f 2//20 1//19 6//18 8//17
f 7//24 5//23 4//22 3//21
# 6 faces

o Cylinder.001_Cylinder
v 1.980115e+00 2.601204e+00 1.258484e-01
v 2.887622e+00 2.601204e+00 1.033355e+00
v 2.942048e+00 2.569322e+00 9.789296e-01
v 2.034540e+00 2.569322e+00 7.142316e-02
v 2.964591e+00 2.492353e+00 9.563859e-01
v 2.057084e+00 2.492353e+00 4.887922e-02
v 2.942048e+00 2.415384e+00 9.789296e-01
v 2.034540e+00 2.415384e+00 7.142316e-02
v 2.887622e+00 2.383502e+00 1.033355e+00
v 1.980115e+00 2.383502e+00 1.258484e-01
v 2.833196e+00 2.415384e+00 1.087781e+00
v 1.925689e+00 2.415384e+00 1.802740e-01
v 2.810653e+00 2.492353e+00 1.110325e+00
v 1.903145e+00 2.492353e+00 2.028176e-01
v 2.833196e+00 2.569322e+00 1.087781e+00
v 1.925689e+00 2.569322e+00 1.802740e-01
# 16 vertices

vn 0.270599 0.923879 -0.270599
vn 0.270599 0.923879 -0.270599
vn 0.270599 0.923879 -0.270599
vn 0.270599 0.923879 -0.270599
vn 0.653281 0.382684 -0.653282
vn 0.653281 0.382684 -0.653282
vn 0.653281 0.382684 -0.653282
vn 0.653281 0.382684 -0.653282
vn 0.653281 -0.382684 -0.653282
vn 0.653281 -0.382684 -0.653282
vn 0.653281 -0.382684 -0.653282
vn 0.653281 -0.382684 -0.653282
vn 0.270597 -0.923880 -0.270597
vn 0.270597 -0.923880 -0.270597
vn 0.270597 -0.923880 -0.270597
vn 0.270597 -0.923880 -0.270597
vn -0.270597 -0.923880 0.270598
vn -0.270597 -0.923880 0.270598
vn -0.270597 -0.923880 0.270598
vn -0.270597 -0.923880 0.270598
vn -0.653281 -0.382683 0.653282
vn -0.653281 -0.382683 0.653282
vn -0.653281 -0.382683 0.653282
vn -0.653281 -0.382683 0.653282
vn 0.707107 0.000002 0.707106
vn 0.707107 0.000004 0.707106
vn 0.707107 0.000002 0.707106
vn 0.707108 -0.000000 0.707106
vn 0.707107 0.000002 0.707106
vn 0.707107 0.000002 0.707106
vn 0.707108 -0.000000 0.707106
vn 0.707108 0.000000 0.707106
vn 0.707107 0.000002 0.707106
vn 0.707108 -0.000000 0.707106
vn 0.707107 -0.000002 0.707106
vn 0.707108 0.000000 0.707106
vn 0.707108 -0.000000 0.707106
vn 0.707107 -0.000002 0.707106
vn 0.707107 -0.000002 0.707106
vn 0.707107 -0.000002 0.707106
vn 0.707107 -0.000004 0.707106
vn 0.707107 -0.000002 0.707106
vn -0.270599 0.923879 0.270599
vn -0.270599 0.923879 0.270599
vn -0.270599 0.923879 0.270599
vn -0.270599 0.923879 0.270599
vn -0.653281 0.382683 0.653282
vn -0.653281 0.382683 0.653282
vn -0.653281 0.382683 0.653282
vn -0.653281 0.382683 0.653282
vn -0.707106 -0.000000 -0.707107
vn -0.707106 -0.000000 -0.707108
vn -0.707106 -0.000003 -0.707108
vn -0.707106 -0.000000 -0.707107
vn -0.707106 0.000000 -0.707107
vn -0.707106 -0.000000 -0.707108
vn -0.707106 -0.000000 -0.707107
vn -0.707107 0.000000 -0.707107
vn -0.707106 0.000000 -0.707107
vn -0.707107 0.000000 -0.707107
vn -0.707106 0.000000 -0.707107
vn -0.707106 0.000000 -0.707107
vn -0.707106 0.000000 -0.707107
vn -0.707106 0.000000 -0.707108
vn -0.707106 0.000000 -0.707107
vn -0.707106 0.000000 -0.707107
vn -0.707106 0.000003 -0.707108
vn -0.707106 0.000000 -0.707108
# 68 vertex normals

s 1
g Cylinder.001_Cylinder
f 9//28 10//27 11//26 12//25
f 12//32 11//31 13//30 14//29
f 14//36 13//35 15//34 16//33
f 16//40 15//39 17//38 18//37
f 18//44 17//43 19//42 20//41
f 20//48 19//47 21//46 22//45
f 11//51 10//50 23//49
f 11//54 23//53 13//52
f 23//57 21//56 13//55
f 21//60 19//59 13//58
f 19//63 15//62 13//61
f 19//66 17//65 15//64
f 10//70 9//69 24//68 23//67
f 22//74 21//73 23//72 24//71
f 9//77 12//76 24//75
f 12//80 14//79 24//78
f 14//83 22//82 24//81
f 14//86 20//85 22//84
f 14//89 16//88 20//87
f 16//92 18//91 20//90
# 20 faces

o Cylinder
v 2.896702e+00 2.603041e+00 4.492211e-02
v 2.896702e+00 2.603041e+00 7.413343e+00
v 2.973671e+00 2.571159e+00 7.413343e+00
v 2.973671e+00 2.571159e+00 4.492211e-02
v 3.005553e+00 2.494190e+00 7.413343e+00
v 3.005553e+00 2.494190e+00 4.492211e-02
v 2.973671e+00 2.417221e+00 7.413343e+00
v 2.973671e+00 2.417221e+00 4.492211e-02
v 2.896702e+00 2.385339e+00 7.413343e+00
v 2.896702e+00 2.385339e+00 4.492211e-02
v 2.819733e+00 2.417221e+00 7.413343e+00
v 2.819733e+00 2.417221e+00 4.492211e-02
v 2.787851e+00 2.494190e+00 7.413343e+00
v 2.787851e+00 2.494190e+00 4.492211e-02
v 2.819733e+00 2.571159e+00 7.413343e+00
v 2.819733e+00 2.571159e+00 4.492211e-02
# 16 vertices

vn 0.382682 0.923880 0.000000
vn 0.382682 0.923880 0.000000
vn 0.382682 0.923880 0.000000
vn 0.382682 0.923880 0.000000
vn 0.923879 0.382684 0.000000
vn 0.923879 0.382684 0.000000
vn 0.923879 0.382684 0.000000
vn 0.923879 0.382684 0.000000
vn 0.923879 -0.382684 0.000000
vn 0.923879 -0.382684 0.000000
vn 0.923879 -0.382684 0.000000
vn 0.923879 -0.382684 0.000000
vn 0.382682 -0.923880 0.000000
vn 0.382682 -0.923880 0.000000
vn 0.382682 -0.923880 0.000000
vn 0.382682 -0.923880 0.000000
vn -0.382682 -0.923880 0.000000
vn -0.382682 -0.923880 0.000000
vn -0.382682 -0.923880 0.000000
vn -0.382682 -0.923880 0.000000
vn -0.923880 -0.382682 0.000000
vn -0.923880 -0.382682 0.000000
vn -0.923880 -0.382682 0.000000
vn -0.923880 -0.382682 0.000000
vn 0.000000 0.000000 1.000000
vn 0.000000 0.000000 1.000000
vn 0.000000 0.000000 1.000000
vn 0.000000 0.000000 1.000000
vn 0.000000 0.000000 1.000000
vn 0.000000 0.000000 1.000000
vn 0.000000 0.000000 1.000000
vn 0.000000 0.000000 1.000000
vn 0.000000 0.000000 1.000000
vn 0.000000 0.000000 1.000000
vn 0.000000 0.000000 1.000000
vn 0.000000 0.000000 1.000000
vn 0.000000 0.000000 1.000000
vn 0.000000 0.000000 1.000000
vn 0.000000 0.000000 1.000000
vn 0.000000 0.000000 1.000000
vn 0.000000 0.000000 1.000000
vn 0.000000 0.000000 1.000000
vn -0.382682 0.923880 0.000000
vn -0.382682 0.923880 0.000000
vn -0.382682 0.923880 0.000000
vn -0.382682 0.923880 0.000000
vn -0.923880 0.382682 0.000000
vn -0.923880 0.382682 0.000000
vn -0.923880 0.382682 0.000000
vn -0.923880 0.382682 0.000000
vn 0.000000 0.000000 -1.000000
vn 0.000000 0.000000 -1.000000
vn 0.000000 0.000000 -1.000000
vn 0.000000 0.000000 -1.000000
vn 0.000000 0.000000 -1.000000
vn 0.000000 0.000000 -1.000000
vn 0.000000 0.000000 -1.000000
vn 0.000000 0.000000 -1.000000
vn 0.000000 0.000000 -1.000000
vn 0.000000 0.000000 -1.000000
vn 0.000000 0.000000 -1.000000
vn 0.000000 0.000000 -1.000000
vn 0.000000 0.000000 -1.000000
vn 0.000000 0.000000 -1.000000
vn 0.000000 0.000000 -1.000000
vn 0.000000 0.000000 -1.000000
vn 0.000000 0.000000 -1.000000
vn 0.000000 0.000000 -1.000000
# 68 vertex normals

s 1
g Cylinder
f 25//96 26//95 27//94 28//93
f 28//100 27//99 29//98 30//97
f 30//104 29//103 31//102 32//101
f 32//108 31//107 33//106 34//105
f 34//112 33//111 35//110 36//109
f 36//116 35//115 37//114 38//113
f 27//119 26//118 39//117
f 27//122 39//121 29//120
f 39//125 37//124 29//123
f 37//128 35//127 29//126
f 35//131 31//130 29//129
f 35//134 33//133 31//132
f 26//138 25//137 40//136 39//135
f 38//142 37//141 39//140 40//139
f 25//145 28//144 40//143
f 28//148 30//147 40//146
f 30//151 38//150 40//149
f 30//154 36//153 38//152
f 30//157 32//156 36//155
f 32//160 34//159 36//158
# 20 faces

