# Rhino

v 15 5 5
v 15 5 5
v 15 5 5
v 15 3.004199981689453 2.983370065689087
v 15 3.004199981689453 1.983369946479797
v 15 2.004199981689453 2.983370065689087
v 15 2.004199981689453 1.983369946479797
v 15 0 5
v 15 0 5
v 15 0 5
v 15 0 0
v 15 0 0
v 15 0 0
v 14.99999713897705 5 0
v 14.99999713897705 5 0
v 14.99999713897705 5 0
v 13.01076030731201 5 2.983370065689087
v 13.01076030731201 5 1.983369946479797
v 13.01076030731201 0 2.983370065689087
v 13.01076030731201 0 1.983369946479797
v 12.01076030731201 5 2.983370065689087
v 12.01076030731201 5 1.983369946479797
v 12.01076030731201 0 2.983370065689087
v 12.01076030731201 0 1.983369946479797
v 10 5 5
v 10 5 5
v 10 0 5
v 10 0 5
v 10 0 0
v 10 0 0
v 9.999998092651367 5 0
v 9.999998092651367 5 0
v 8.010760307312012 5 2.983370065689087
v 8.010760307312012 5 1.983369946479797
v 8.010760307312012 0 2.983370065689087
v 8.010760307312012 0 1.983369946479797
v 7.010759830474854 5 2.983370065689087
v 7.010759830474854 5 1.983369946479797
v 7.010759830474854 0 2.983370065689087
v 7.010759830474854 0 1.983369946479797
v 5 5 5
v 5 5 5
v 5 5 0
v 5 5 0
v 5 0 5
v 5 0 5
v 5 0 0
v 5 0 0
v 2.989239931106567 5 2.983370065689087
v 2.989239931106567 5 1.983369946479797
v 2.989239931106567 0 2.983370065689087
v 2.989239931106567 0 1.983369946479797
v 1.989240050315857 5 2.983370065689087
v 1.989240050315857 5 1.983369946479797
v 1.989240050315857 0 2.983370065689087
v 1.989240050315857 0 1.983369946479797
v 3.000000106112566e-06 5 0
v 3.000000106112566e-06 5 0
v 3.000000106112566e-06 5 0
v 0 5 5
v 0 5 5
v 0 5 5
v 0 3.004199981689453 2.983370065689087
v 0 3.004199981689453 1.983369946479797
v 0 2.004199981689453 2.983370065689087
v 0 2.004199981689453 1.983369946479797
v 0 0 5
v 0 0 5
v 0 0 5
v 0 0 0
v 0 0 0
v 0 0 0
vn 1 2.299999977140033e-07 -1.500000053056283e-07
vn 0 1 0
vn 0 0 1
vn 1 0 0
vn 1 3.000000106112566e-07 -6.999999868639861e-07
vn 1 0 0
vn 1 1.500000053056283e-07 -5.300000225361146e-07
vn 1 0 0
vn 0 0 1
vn 0 -1 0
vn 1 3.000000106112566e-07 -3.000000106112566e-07
vn 0 0 -1
vn 0 -1 0
vn 1 4.999999987376214e-07 -9.09999982923182e-07
vn 0 1 0
vn 0 0 -1
vn 0 1 0
vn 0 1 0
vn 0 -1 0
vn 0 -1 0
vn 0 1 0
vn 0 1 0
vn 0 -1 0
vn 0 -1 0
vn 0 1 0
vn 0 0 1
vn 0 0 1
vn 0 -1 0
vn 0 0 -1
vn 0 -1 0
vn 0 1 0
vn 0 0 -1
vn 0 1 0
vn 0 1 0
vn 0 -1 0
vn 0 -1 0
vn 0 1 0
vn 0 1 0
vn 0 -1 0
vn 0 -1 0
vn 0 1 0
vn 0 0 1
vn 0 1 0
vn 0 0 -1
vn 0 0 1
vn 0 -1 0
vn 0 0 -1
vn 0 -1 0
vn 0 1 0
vn 0 1 0
vn 0 -1 0
vn 0 -1 0
vn 0 1 0
vn 0 1 0
vn 0 -1 0
vn 0 -1 0
vn 0 1 0
vn 0 0 -1
vn -1 4.999999987376214e-07 -9.09999982923182e-07
vn 0 1 0
vn 0 0 1
vn -1 2.299999977140033e-07 -1.500000053056283e-07
vn -1 0 0
vn -1 3.000000106112566e-07 -6.999999868639861e-07
vn -1 0 0
vn -1 1.500000053056283e-07 -5.300000225361146e-07
vn 0 0 1
vn 0 -1 0
vn -1 0 0
vn 0 0 -1
vn 0 -1 0
vn -1 3.000000106112566e-07 -3.000000106112566e-07
f 18//18 17//17 2//2 15//15
f 31//31 22//22 18//18 15//15
f 22//22 31//31 25//25 21//21
f 17//17 21//21 25//25 2//2
f 7//7 6//6 8//8 11//11
f 14//14 5//5 7//7 11//11
f 5//5 14//14 1//1 4//4
f 6//6 4//4 1//1 8//8
f 23//23 19//19 10//10 28//28
f 13//13 20//20 24//24 30//30
f 19//19 20//20 13//13 10//10
f 24//24 23//23 28//28 30//30
f 27//27 9//9 3//3 26//26
f 16//16 12//12 29//29 32//32
f 34//34 33//33 25//25 31//31
f 43//43 38//38 34//34 31//31
f 38//38 43//43 41//41 37//37
f 33//33 37//37 41//41 25//25
f 39//39 35//35 28//28 46//46
f 30//30 36//36 40//40 48//48
f 35//35 36//36 30//30 28//28
f 40//40 39//39 46//46 48//48
f 45//45 27//27 26//26 42//42
f 32//32 29//29 47//47 44//44
f 54//54 57//57 60//60 53//53
f 43//43 57//57 54//54 50//50
f 50//50 49//49 41//41 43//43
f 53//53 60//60 41//41 49//49
f 66//66 72//72 69//69 65//65
f 59//59 72//72 66//66 64//64
f 64//64 63//63 62//62 59//59
f 65//65 69//69 62//62 63//63
f 51//51 46//46 68//68 55//55
f 71//71 48//48 52//52 56//56
f 55//55 68//68 71//71 56//56
f 52//52 48//48 46//46 51//51
f 45//45 42//42 61//61 67//67
f 58//58 44//44 47//47 70//70
