v 1.81269 0.402972 2.43144
v 1.81269 0.338608 2.43144
v 1.682 0.338608 2.43144
v 1.682 0.402972 2.43144
v 1.81269 0.402972 2.54345
v 1.682 0.402972 2.54345
v 1.682 0.338608 2.54345
v 1.81269 0.338608 2.54345
v 1.682 0.138608 2.43144
v 1.682 0.138608 2.54345
v 1.81269 0.138608 2.54345
v 1.81269 0.138608 2.43144
v 1.682 0.038608 2.54345
v 1.81269 0.038608 2.54345
v 1.81269 0.038608 2.43144
v 1.682 0.038608 2.43144
v 1.682 0.138608 2.13144
v 1.682 0.038608 2.13144
v 1.81269 0.038608 2.13144
v 1.81269 0.138608 2.13144
v 1.81269 0.038608 2.03144
v 1.81269 0.138608 2.03144
v 1.682 0.038608 2.03144
v 1.682 0.138608 2.03144
v 1.682 0.338608 2.13144
v 1.682 0.338608 2.03144
v 1.81269 0.338608 2.03144
v 1.81269 0.338608 2.13144
v 1.81269 0.438608 2.13144
v 1.682 0.438608 2.13144
v 1.81269 0.438608 2.03144
v 1.682 0.438608 2.03144
v 2.44017 0.136401 4.18881
v 2.44017 0.072037 4.18881
v 2.44017 0.072037 4.38443
v 2.44017 0.136402 4.38443
v 2.55218 0.136401 4.18881
v 2.55218 0.136401 4.38443
v 2.55218 0.072037 4.38443
v 2.55218 0.072037 4.18881
v 2.44017 0.16387 0.191052
v 2.44017 0.099506 0.191052
v 2.44017 0.099506 0.386667
v 2.44017 0.16387 0.386667
v 2.55218 0.16387 0.191052
v 2.55218 0.16387 0.386667
v 2.55218 0.099506 0.386667
v 2.55218 0.099506 0.191052
v 3.22908 0.16387 1.12654
v 3.22908 0.099506 1.12654
v 1.77092 0.099506 1.12654
v 1.77092 0.16387 1.12654
v 3.22908 0.16387 2.24669
v 3.22908 0.099506 2.24669
v 1.77092 0.099506 2.24669
v 1.77092 0.16387 2.24669
v 3.22908 0.16387 3.36685
v 3.22908 0.099506 3.36685
v 1.77092 0.099506 3.36685
v 1.77092 0.16387 3.36685
v 3.22908 0.16387 1.23855
v 1.77092 0.16387 1.23855
v 1.77092 0.099506 1.23855
v 3.22908 0.099506 1.23855
v 3.22908 0.16387 2.35871
v 1.77092 0.16387 2.35871
v 1.77092 0.099506 2.35871
v 3.22908 0.099506 2.35871
v 3.22908 0.16387 3.47886
v 1.77092 0.16387 3.47886
v 1.77092 0.099506 3.47886
v 3.22908 0.099506 3.47886
v 3.36 0.300635 0.272014
v 3.36 0.159126 0.272014
v 1.64 0.159126 0.272014
v 1.64 0.300635 0.272014
v 1.64 0.159126 4.29598
v 3.36 0.159126 4.29598
v 3.36 0.300635 4.29598
v 1.64 0.300635 4.29598
v 3.5 0.159126 4.0143
v 3.5 0.159126 0.553691
v 3.5 0.300635 0.553691
v 3.5 0.300635 4.0143
v 1.64 0.147608 4.0143
v 1.64 0.147608 0.553691
v 3.36 0.147608 0.553691
v 3.36 0.147608 4.0143
v 1.5 0.300635 4.0143
v 1.5 0.300635 0.553691
v 1.5 0.159126 0.553691
v 1.5 0.159126 4.0143
v 1.64 0.312153 0.553691
v 1.64 0.312153 4.0143
v 3.36 0.312153 4.0143
v 3.36 0.312153 0.553691
v 5 0.220033 0
v 1e-06 0.220033 0
v 3e-06 4.97644 1e-06
v 5 4.97644 1e-06
v 2e-06 4.97644 5
v 0 0.220033 5
v 5 0.220031 5
v 5 4.97644 5
v 5 2.49427 2.98337
v 5 3.07788 2.98337
v 5 2.13842 2.98337
v 5 3.07788 2.36987
v 5 3.07788 1.99579
v 5 3.07788 1.98337
v 5 2.49427 1.98337
v 5 2.1266 1.98337
v 5 2.1266 2.59686
v 5 2.1266 2.98337
v 2.01663 0.220033 2.98337
v 2.37774 0.220033 2.98337
v 2.98924 0.220033 2.98337
v 2.98924 0.220033 2.59486
v 2.98924 0.220033 2.01076
v 2.98924 0.220033 1.98337
v 1.98924 0.220033 2.59486
v 1.98924 0.220033 2.98337
v 1.98924 0.220033 1.98337
v 2.37774 0.220033 1.98337
v 2e-06 2.70396 2.98337
v 1e-06 2.1266 2.98337
v 2e-06 3.07788 2.98337
v 2e-06 3.07788 1.98337
v 2e-06 3.07788 2.5903
v 1e-06 2.1266 1.98337
v 2e-06 2.70395 1.98337
v 1e-06 2.1266 2.5903
v 2.59817 4.97644 2.98337
v 1.98924 4.97644 2.98337
v 2.98924 4.97644 2.98337
v 2.98924 4.97644 1.98337
v 2.98924 4.97644 2.5923
v 1.98924 4.97644 1.98337
v 2.59817 4.97644 1.98337
v 1.98924 4.97644 2.37444
v 0.250002 4.73862 0.250001
v 0.250001 0.457854 0.25
v 4.75 0.457854 0.25
v 4.75 4.73862 0.250001
v 4.75 0.457851 4.75
v 0.25 0.457854 4.75
v 0.250002 4.73862 4.75
v 4.75 4.73862 4.75
v 4.75 2.56683 2.98337
v 4.75 2.13842 2.98337
v 4.75 3.07788 2.98337
v 4.75 3.07788 1.99579
v 4.75 3.07788 2.44615
v 4.75 2.1266 2.98337
v 4.75 2.1266 2.52059
v 4.75 2.1266 1.98337
v 4.75 2.56683 1.98337
v 4.75 3.07788 1.98337
v 2.45402 0.457853 2.98337
v 2.01663 0.457854 2.98337
v 2.98924 0.457853 2.98337
v 2.98924 0.457854 2.01076
v 2.98924 0.457853 2.51859
v 2.98924 0.457854 1.98337
v 1.98924 0.457854 1.98337
v 2.45402 0.457854 1.98337
v 1.98924 0.457854 2.98337
v 1.98924 0.457854 2.51859
v 0.250002 3.07788 2.51402
v 0.250002 3.07788 1.98337
v 0.250002 3.07788 2.98337
v 0.250001 2.1266 2.98337
v 0.250001 2.6314 2.98337
v 0.250001 2.6314 1.98337
v 0.250001 2.1266 1.98337
v 0.250001 2.1266 2.51402
v 2.98924 4.73862 2.51602
v 2.98924 4.73862 1.98337
v 2.98924 4.73862 2.98337
v 1.98924 4.73862 2.98337
v 2.52189 4.73862 2.98337
v 2.52189 4.73862 1.98337
v 1.98924 4.73862 1.98337
v 1.98924 4.73862 2.45072
vt 0 0
vt 0.5 0.4 0.2 0.5
vn 0 0 -1
vn 0 0 1
vn 1 0 0
vn -1 0 0
vn 0 1 0
vn 0 -1 0
vn 0.895491 -6.69539e-07 -0.445079
vn 0 -0.999165 -0.0408566
vn 0 0.999165 -0.0408566
vn -0.895491 0 -0.44508
vn 0 0.999165 0.0408565
vn -0.895491 -5.35632e-06 0.445079
vn 0.895491 0 0.445079
vn 0 -0.999165 0.0408567
vn 0.0819946 0.996633 0
vn 0.0819942 -0.996633 0
vn -0.0819947 -0.996633 -1.53266e-08
vn -0.0819944 0.996633 0
vn 0.081926 0.995806 -0.0407197
vn 0.0819262 -0.995806 -0.0407197
vn -0.0819265 -0.995806 -0.0407192
vn -0.0819261 0.995806 -0.0407199
vn 0.0819282 0.995806 0.0407203
vn 0.0819282 -0.995806 0.0407203
vn -0.0819272 -0.995806 0.0407187
vn -0.0819282 0.995806 0.0407195
f 1/2/1 2/2/1 3/2/1
f 1/2/1 3/2/1 4/2/1
f 5/2/2 6/2/2 7/2/2
f 5/2/2 7/2/2 8/2/2
f 1/1/3 5/1/3 8/1/3
f 1/1/3 8/1/3 2/1/3
f 3/1/4 7/1/4 6/1/4
f 3/1/4 6/1/4 4/1/4
f 5/1/5 1/1/5 4/1/5
f 5/1/5 4/1/5 6/1/5
f 7/1/4 3/1/4 9/1/4
f 7/1/4 9/1/4 10/1/4
f 2/1/3 8/1/3 11/1/3
f 2/1/3 11/1/3 12/1/3
f 8/2/2 7/2/2 10/2/2
f 8/2/2 10/2/2 11/2/2
f 3/2/1 2/2/1 12/2/1
f 3/2/1 12/2/1 9/2/1
f 11/2/2 10/2/2 13/2/2
f 11/2/2 13/2/2 14/2/2
f 12/1/3 11/1/3 14/1/3
f 12/1/3 14/1/3 15/1/3
f 10/1/4 9/1/4 16/1/4
f 10/1/4 16/1/4 13/1/4
f 15/1/6 14/1/6 13/1/6
f 15/1/6 13/1/6 16/1/6
f 16/1/4 9/1/4 17/1/4
f 16/1/4 17/1/4 18/1/4
f 15/1/6 16/1/6 18/1/6
f 15/1/6 18/1/6 19/1/6
f 12/1/3 15/1/3 19/1/3
f 12/1/3 19/1/3 20/1/3
f 9/1/5 12/1/5 20/1/5
f 9/1/5 20/1/5 17/1/5
f 20/1/3 19/1/3 21/1/3
f 20/1/3 21/1/3 22/1/3
f 19/1/6 18/1/6 23/1/6
f 19/1/6 23/1/6 21/1/6
f 18/1/4 17/1/4 24/1/4
f 18/1/4 24/1/4 23/1/4
f 24/2/1 22/2/1 21/2/1
f 24/2/1 21/2/1 23/2/1
f 24/1/4 17/1/4 25/1/4
f 24/1/4 25/1/4 26/1/4
f 22/2/1 24/2/1 26/2/1
f 22/2/1 26/2/1 27/2/1
f 20/1/3 22/1/3 27/1/3
f 20/1/3 27/1/3 28/1/3
f 17/2/2 20/2/2 28/2/2
f 17/2/2 28/2/2 25/2/2
f 25/2/2 28/2/2 29/2/2
f 25/2/2 29/2/2 30/2/2
f 28/1/3 27/1/3 31/1/3
f 28/1/3 31/1/3 29/1/3
f 27/2/1 26/2/1 32/2/1
f 27/2/1 32/2/1 31/2/1
f 26/1/4 25/1/4 30/1/4
f 26/1/4 30/1/4 32/1/4
f 30/1/5 29/1/5 31/1/5
f 30/1/5 31/1/5 32/1/5
f 33/1/4 34/1/4 35/1/4
f 33/1/4 35/1/4 36/1/4
f 37/1/3 38/1/3 39/1/3
f 37/1/3 39/1/3 40/1/3
f 33/2/1 37/2/1 40/2/1
f 33/2/1 40/2/1 34/2/1
f 34/1/6 40/1/6 39/1/6
f 34/1/6 39/1/6 35/1/6
f 35/2/2 39/2/2 38/2/2
f 35/2/2 38/2/2 36/2/2
f 37/1/5 33/1/5 36/1/5
f 37/1/5 36/1/5 38/1/5
f 41/1/4 42/1/4 43/1/4
f 41/1/4 43/1/4 44/1/4
f 45/1/3 46/1/3 47/1/3
f 45/1/3 47/1/3 48/1/3
f 41/2/1 45/2/1 48/2/1
f 41/2/1 48/2/1 42/2/1
f 42/1/6 48/1/6 47/1/6
f 42/1/6 47/1/6 43/1/6
f 43/2/2 47/2/2 46/2/2
f 43/2/2 46/2/2 44/2/2
f 45/1/5 41/1/5 44/1/5
f 45/1/5 44/1/5 46/1/5
f 49/2/1 50/2/1 51/2/1
f 49/2/1 51/2/1 52/2/1
f 53/2/1 54/2/1 55/2/1
f 53/2/1 55/2/1 56/2/1
f 57/2/1 58/2/1 59/2/1
f 57/2/1 59/2/1 60/2/1
f 61/2/2 62/2/2 63/2/2
f 61/2/2 63/2/2 64/2/2
f 65/2/2 66/2/2 67/2/2
f 65/2/2 67/2/2 68/2/2
f 69/2/2 70/2/2 71/2/2
f 69/2/2 71/2/2 72/2/2
f 49/1/3 61/1/3 64/1/3
f 49/1/3 64/1/3 50/1/3
f 53/1/3 65/1/3 68/1/3
f 53/1/3 68/1/3 54/1/3
f 57/1/3 69/1/3 72/1/3
f 57/1/3 72/1/3 58/1/3
f 50/1/6 64/1/6 63/1/6
f 50/1/6 63/1/6 51/1/6
f 54/1/6 68/1/6 67/1/6
f 54/1/6 67/1/6 55/1/6
f 58/1/6 72/1/6 71/1/6
f 58/1/6 71/1/6 59/1/6
f 51/1/4 63/1/4 62/1/4
f 51/1/4 62/1/4 52/1/4
f 55/1/4 67/1/4 66/1/4
f 55/1/4 66/1/4 56/1/4
f 59/1/4 71/1/4 70/1/4
f 59/1/4 70/1/4 60/1/4
f 61/1/5 49/1/5 52/1/5
f 61/1/5 52/1/5 62/1/5
f 65/1/5 53/1/5 56/1/5
f 65/1/5 56/1/5 66/1/5
f 69/1/5 57/1/5 60/1/5
f 69/1/5 60/1/5 70/1/5
f 73/2/1 74/2/1 75/2/1
f 73/2/1 75/2/1 76/2/1
f 77/2/2 78/2/2 79/2/2
f 77/2/2 79/2/2 80/2/2
f 81/1/3 82/1/3 83/1/3
f 81/1/3 83/1/3 84/1/3
f 85/1/6 86/1/6 87/1/6
f 85/1/6 87/1/6 88/1/6
f 89/1/4 90/1/4 91/1/4
f 89/1/4 91/1/4 92/1/4
f 93/1/5 94/1/5 95/1/5
f 93/1/5 95/1/5 96/1/5
f 73/1/7 83/1/7 82/1/7
f 73/1/7 82/1/7 74/1/7
f 86/1/8 75/1/8 74/1/8
f 86/1/8 74/1/8 87/1/8
f 96/1/9 73/1/9 76/1/9
f 96/1/9 76/1/9 93/1/9
f 90/2/10 76/2/10 75/2/10
f 90/2/10 75/2/10 91/2/10
f 94/2/11 80/2/11 79/2/11
f 94/2/11 79/2/11 95/2/11
f 80/2/12 89/2/12 92/2/12
f 80/2/12 92/2/12 77/2/12
f 78/2/13 81/2/13 84/2/13
f 78/2/13 84/2/13 79/2/13
f 77/2/14 85/2/14 88/2/14
f 77/2/14 88/2/14 78/2/14
f 95/2/15 84/2/15 83/2/15
f 95/2/15 83/2/15 96/2/15
f 81/2/16 88/2/16 87/2/16
f 81/2/16 87/2/16 82/2/16
f 85/2/17 92/2/17 91/2/17
f 85/2/17 91/2/17 86/2/17
f 89/2/18 94/2/18 93/2/18
f 89/2/18 93/2/18 90/2/18
f 73/2/19 96/2/19 83/2/19
f 74/2/20 82/2/20 87/2/20
f 75/2/21 86/2/21 91/2/21
f 76/2/22 90/2/22 93/2/22
f 79/2/23 84/2/23 95/2/23
f 78/2/24 88/2/24 81/2/24
f 77/2/25 92/2/25 85/2/25
f 80/2/26 94/2/26 89/2/26
f 97/2/1 98/2/1 99/2/1
f 97/2/1 99/2/1 100/2/1
f 101/2/2 102/2/2 103/2/2
f 101/2/2 103/2/2 104/2/2
f 105/1/3 106/1/3 104/1/3
f 105/1/3 104/1/3 107/1/3
f 108/1/3 109/1/3 104/1/3
f 108/1/3 104/1/3 106/1/3
f 109/1/3 110/1/3 100/1/3
f 109/1/3 100/1/3 104/1/3
f 97/1/3 110/1/3 111/1/3
f 97/1/3 111/1/3 112/1/3
f 97/1/3 112/1/3 113/1/3
f 97/1/3 113/1/3 114/1/3
f 97/1/3 100/1/3 110/1/3
f 103/1/3 114/1/3 107/1/3
f 103/1/3 107/1/3 104/1/3
f 103/1/3 97/1/3 114/1/3
f 103/1/6 115/1/6 116/1/6
f 103/1/6 116/1/6 117/1/6
f 118/1/6 119/1/6 103/1/6
f 118/1/6 103/1/6 117/1/6
f 97/1/6 103/1/6 119/1/6
f 97/1/6 119/1/6 120/1/6
f 121/1/6 122/1/6 98/1/6
f 121/1/6 98/1/6 123/1/6
f 98/1/6 120/1/6 124/1/6
f 98/1/6 124/1/6 123/1/6
f 98/1/6 97/1/6 120/1/6
f 102/1/6 122/1/6 115/1/6
f 102/1/6 115/1/6 103/1/6
f 122/1/6 102/1/6 98/1/6
f 125/1/4 126/1/4 101/1/4
f 125/1/4 101/1/4 127/1/4
f 101/1/4 99/1/4 128/1/4
f 101/1/4 128/1/4 129/1/4
f 101/1/4 129/1/4 127/1/4
f 99/1/4 130/1/4 131/1/4
f 99/1/4 131/1/4 128/1/4
f 132/1/4 130/1/4 102/1/4
f 132/1/4 102/1/4 126/1/4
f 126/1/4 102/1/4 101/1/4
f 99/1/4 98/1/4 130/1/4
f 130/1/4 98/1/4 102/1/4
f 133/1/5 134/1/5 104/1/5
f 133/1/5 104/1/5 135/1/5
f 104/1/5 100/1/5 136/1/5
f 104/1/5 136/1/5 137/1/5
f 104/1/5 137/1/5 135/1/5
f 100/1/5 138/1/5 139/1/5
f 100/1/5 139/1/5 136/1/5
f 140/1/5 138/1/5 101/1/5
f 140/1/5 101/1/5 134/1/5
f 134/1/5 101/1/5 104/1/5
f 100/1/5 99/1/5 138/1/5
f 138/1/5 99/1/5 101/1/5
f 141/2/2 142/2/2 143/2/2
f 141/2/2 143/2/2 144/2/2
f 145/2/1 146/2/1 147/2/1
f 145/2/1 147/2/1 148/2/1
f 149/1/4 150/1/4 148/1/4
f 149/1/4 148/1/4 151/1/4
f 148/1/4 144/1/4 152/1/4
f 148/1/4 152/1/4 153/1/4
f 148/1/4 153/1/4 151/1/4
f 150/1/4 154/1/4 145/1/4
f 150/1/4 145/1/4 148/1/4
f 143/1/4 154/1/4 155/1/4
f 143/1/4 155/1/4 156/1/4
f 157/1/4 158/1/4 143/1/4
f 157/1/4 143/1/4 156/1/4
f 158/1/4 152/1/4 144/1/4
f 143/1/4 145/1/4 154/1/4
f 158/1/4 144/1/4 143/1/4
f 159/1/5 160/1/5 145/1/5
f 159/1/5 145/1/5 161/1/5
f 145/1/5 162/1/5 163/1/5
f 145/1/5 163/1/5 161/1/5
f 143/1/5 164/1/5 162/1/5
f 143/1/5 162/1/5 145/1/5
f 142/1/5 165/1/5 166/1/5
f 142/1/5 166/1/5 164/1/5
f 142/1/5 146/1/5 167/1/5
f 142/1/5 167/1/5 168/1/5
f 164/1/5 143/1/5 142/1/5
f 160/1/5 167/1/5 146/1/5
f 160/1/5 146/1/5 145/1/5
f 142/1/5 168/1/5 165/1/5
f 169/1/3 170/1/3 147/1/3
f 169/1/3 147/1/3 171/1/3
f 147/1/3 146/1/3 172/1/3
f 147/1/3 172/1/3 173/1/3
f 170/1/3 141/1/3 147/1/3
f 174/1/3 175/1/3 141/1/3
f 174/1/3 141/1/3 170/1/3
f 146/1/3 175/1/3 176/1/3
f 146/1/3 176/1/3 172/1/3
f 147/1/3 173/1/3 171/1/3
f 175/1/3 142/1/3 141/1/3
f 146/1/3 142/1/3 175/1/3
f 177/1/6 178/1/6 148/1/6
f 177/1/6 148/1/6 179/1/6
f 148/1/6 147/1/6 180/1/6
f 148/1/6 180/1/6 181/1/6
f 178/1/6 144/1/6 148/1/6
f 182/1/6 183/1/6 144/1/6
f 182/1/6 144/1/6 178/1/6
f 147/1/6 183/1/6 184/1/6
f 147/1/6 184/1/6 180/1/6
f 148/1/6 181/1/6 179/1/6
f 183/1/6 141/1/6 144/1/6
f 147/1/6 141/1/6 183/1/6
f 156/2/2 112/2/2 111/2/2
f 156/2/2 111/2/2 157/2/2
f 157/2/2 111/2/2 110/2/2
f 157/2/2 110/2/2 158/2/2
f 131/2/2 174/2/2 170/2/2
f 131/2/2 170/2/2 128/2/2
f 174/2/2 131/2/2 130/2/2
f 174/2/2 130/2/2 175/2/2
f 154/2/1 150/2/1 107/2/1
f 154/2/1 107/2/1 114/2/1
f 150/2/1 149/2/1 105/2/1
f 150/2/1 105/2/1 107/2/1
f 106/2/1 105/2/1 149/2/1
f 106/2/1 149/2/1 151/2/1
f 125/2/1 127/2/1 171/2/1
f 125/2/1 171/2/1 173/2/1
f 126/2/1 125/2/1 173/2/1
f 126/2/1 173/2/1 172/2/1
f 153/1/6 108/1/6 106/1/6
f 153/1/6 106/1/6 151/1/6
f 152/1/6 158/1/6 109/1/6
f 152/1/6 109/1/6 108/1/6
f 158/1/6 110/1/6 109/1/6
f 108/1/6 153/1/6 152/1/6
f 129/1/6 169/1/6 171/1/6
f 129/1/6 171/1/6 127/1/6
f 169/1/6 129/1/6 128/1/6
f 169/1/6 128/1/6 170/1/6
f 113/1/5 155/1/5 154/1/5
f 113/1/5 154/1/5 114/1/5
f 155/1/5 113/1/5 112/1/5
f 155/1/5 112/1/5 156/1/5
f 172/1/5 176/1/5 132/1/5
f 172/1/5 132/1/5 126/1/5
f 130/1/5 132/1/5 176/1/5
f 130/1/5 176/1/5 175/1/5
f 137/1/4 177/1/4 179/1/4
f 137/1/4 179/1/4 135/1/4
f 177/1/4 137/1/4 136/1/4
f 177/1/4 136/1/4 178/1/4
f 120/1/4 119/1/4 162/1/4
f 120/1/4 162/1/4 164/1/4
f 119/1/4 118/1/4 163/1/4
f 119/1/4 163/1/4 162/1/4
f 161/1/4 163/1/4 118/1/4
f 161/1/4 118/1/4 117/1/4
f 184/1/3 140/1/3 134/1/3
f 184/1/3 134/1/3 180/1/3
f 183/1/3 138/1/3 140/1/3
f 183/1/3 140/1/3 184/1/3
f 168/1/3 121/1/3 123/1/3
f 168/1/3 123/1/3 165/1/3
f 121/1/3 168/1/3 167/1/3
f 121/1/3 167/1/3 122/1/3
f 134/2/1 133/2/1 181/2/1
f 134/2/1 181/2/1 180/2/1
f 179/2/1 181/2/1 133/2/1
f 179/2/1 133/2/1 135/2/1
f 115/2/1 167/2/1 160/2/1
f 115/2/1 160/2/1 116/2/1
f 115/2/1 122/2/1 167/2/1
f 159/2/1 117/2/1 116/2/1
f 159/2/1 116/2/1 160/2/1
f 117/2/1 159/2/1 161/2/1
f 182/2/2 139/2/2 138/2/2
f 182/2/2 138/2/2 183/2/2
f 178/2/2 136/2/2 139/2/2
f 178/2/2 139/2/2 182/2/2
f 124/2/2 166/2/2 165/2/2
f 124/2/2 165/2/2 123/2/2
f 166/2/2 124/2/2 120/2/2
f 166/2/2 120/2/2 164/2/2
