# Rhino

v 10 5 5
v 10 5 5
v 10 5 5
v 10 3.004199981689453 2.983370065689087
v 10 3.004199981689453 1.983369946479797
v 10 2.004199981689453 2.983370065689087
v 10 2.004199981689453 1.983369946479797
v 10 0 5
v 10 0 5
v 10 0 5
v 10 0 0
v 10 0 0
v 10 0 0
v 9.999997138977051 5 0
v 9.999997138977051 5 0
v 9.999997138977051 5 0
v 8.010760307312012 5 2.983370065689087
v 8.010760307312012 5 1.983369946479797
v 8.010760307312012 0 2.983370065689087
v 8.010760307312012 0 1.983369946479797
v 7.010759830474854 5 2.983370065689087
v 7.010759830474854 5 1.983369946479797
v 7.010759830474854 0 2.983370065689087
v 7.010759830474854 0 1.983369946479797
v 5 5 5
v 5 5 5
v 5 5 0
v 5 5 0
v 5 0 5
v 5 0 5
v 5 0 0
v 5 0 0
v 2.989239931106567 5 2.983370065689087
v 2.989239931106567 5 1.983369946479797
v 2.989239931106567 0 2.983370065689087
v 2.989239931106567 0 1.983369946479797
v 1.989240050315857 5 2.983370065689087
v 1.989240050315857 5 1.983369946479797
v 1.989240050315857 0 2.983370065689087
v 1.989240050315857 0 1.983369946479797
v 3.000000106112566e-06 5 0
v 3.000000106112566e-06 5 0
v 3.000000106112566e-06 5 0
v 0 5 5
v 0 5 5
v 0 5 5
v 0 3.004199981689453 2.983370065689087
v 0 3.004199981689453 1.983369946479797
v 0 2.004199981689453 2.983370065689087
v 0 2.004199981689453 1.983369946479797
v 0 0 5
v 0 0 5
v 0 0 5
v 0 0 0
v 0 0 0
v 0 0 0
vn 1 2.299999977140033e-07 -1.500000053056283e-07
vn 0 1 0
vn 0 0 1
vn 1 0 0
vn 1 3.000000106112566e-07 -6.999999868639861e-07
vn 1 0 0
vn 1 1.500000053056283e-07 -5.300000225361146e-07
vn 1 0 0
vn 0 0 1
vn 0 -1 0
vn 1 3.000000106112566e-07 -3.000000106112566e-07
vn 0 0 -1
vn 0 -1 0
vn 1 4.999999987376214e-07 -9.09999982923182e-07
vn 0 1 0
vn 0 0 -1
vn 0 1 0
vn 0 1 0
vn 0 -1 0
vn 0 -1 0
vn 0 1 0
vn 0 1 0
vn 0 -1 0
vn 0 -1 0
vn 0 1 0
vn 0 0 1
vn 0 1 0
vn 0 0 -1
vn 0 0 1
vn 0 -1 0
vn 0 0 -1
vn 0 -1 0
vn 0 1 0
vn 0 1 0
vn 0 -1 0
vn 0 -1 0
vn 0 1 0
vn 0 1 0
vn 0 -1 0
vn 0 -1 0
vn 0 1 0
vn 0 0 -1
vn -1 4.999999987376214e-07 -9.09999982923182e-07
vn 0 1 0
vn 0 0 1
vn -1 2.299999977140033e-07 -1.500000053056283e-07
vn -1 0 0
vn -1 3.000000106112566e-07 -6.999999868639861e-07
vn -1 0 0
vn -1 1.500000053056283e-07 -5.300000225361146e-07
vn 0 0 1
vn 0 -1 0
vn -1 0 0
vn 0 0 -1
vn 0 -1 0
vn -1 3.000000106112566e-07 -3.000000106112566e-07
f 18//18 17//17 2//2 15//15
f 27//27 22//22 18//18 15//15
f 22//22 27//27 25//25 21//21
f 17//17 21//21 25//25 2//2
f 7//7 6//6 8//8 11//11
f 14//14 5//5 7//7 11//11
f 5//5 14//14 1//1 4//4
f 6//6 4//4 1//1 8//8
f 23//23 19//19 10//10 30//30
f 13//13 20//20 24//24 32//32
f 19//19 20//20 13//13 10//10
f 24//24 23//23 30//30 32//32
f 29//29 9//9 3//3 26//26
f 16//16 12//12 31//31 28//28
f 38//38 41//41 44//44 37//37
f 27//27 41//41 38//38 34//34
f 34//34 33//33 25//25 27//27
f 37//37 44//44 25//25 33//33
f 50//50 56//56 53//53 49//49
f 43//43 56//56 50//50 48//48
f 48//48 47//47 46//46 43//43
f 49//49 53//53 46//46 47//47
f 35//35 30//30 52//52 39//39
f 55//55 32//32 36//36 40//40
f 39//39 52//52 55//55 40//40
f 36//36 32//32 30//30 35//35
f 29//29 26//26 45//45 51//51
f 42//42 28//28 31//31 54//54
