# Rhino

v 25 5 5
v 25 5 5
v 25 5 5
v 25 3.004199981689453 2.983370065689087
v 25 3.004199981689453 1.983369946479797
v 25 2.004199981689453 2.983370065689087
v 25 2.004199981689453 1.983369946479797
v 25 0 5
v 25 0 5
v 25 0 5
v 25 0 0
v 25 0 0
v 25 0 0
v 24.99999618530273 5 0
v 24.99999618530273 5 0
v 24.99999618530273 5 0
v 23.0107593536377 5 2.983370065689087
v 23.0107593536377 5 1.983369946479797
v 23.0107593536377 0 2.983370065689087
v 23.0107593536377 0 1.983369946479797
v 22.0107593536377 5 2.983370065689087
v 22.0107593536377 5 1.983369946479797
v 22.0107593536377 0 2.983370065689087
v 22.0107593536377 0 1.983369946479797
v 20 5 5
v 20 5 5
v 20 0 5
v 20 0 5
v 20 0 0
v 20 0 0
v 19.99999809265137 5 0
v 19.99999809265137 5 0
v 18.0107593536377 5 2.983370065689087
v 18.0107593536377 5 1.983369946479797
v 18.0107593536377 0 2.983370065689087
v 18.0107593536377 0 1.983369946479797
v 17.0107593536377 5 2.983370065689087
v 17.0107593536377 5 1.983369946479797
v 17.0107593536377 0 2.983370065689087
v 17.0107593536377 0 1.983369946479797
v 15 5 5
v 15 5 5
v 15 0 5
v 15 0 5
v 15 0 0
v 15 0 0
v 14.99999809265137 5 0
v 14.99999809265137 5 0
v 13.01076030731201 5 2.983370065689087
v 13.01076030731201 5 1.983369946479797
v 13.01076030731201 0 2.983370065689087
v 13.01076030731201 0 1.983369946479797
v 12.01076030731201 5 2.983370065689087
v 12.01076030731201 5 1.983369946479797
v 12.01076030731201 0 2.983370065689087
v 12.01076030731201 0 1.983369946479797
v 10 5 5
v 10 5 5
v 10 0 5
v 10 0 5
v 10 0 0
v 10 0 0
v 9.999998092651367 5 0
v 9.999998092651367 5 0
v 8.010760307312012 5 2.983370065689087
v 8.010760307312012 5 1.983369946479797
v 8.010760307312012 0 2.983370065689087
v 8.010760307312012 0 1.983369946479797
v 7.010759830474854 5 2.983370065689087
v 7.010759830474854 5 1.983369946479797
v 7.010759830474854 0 2.983370065689087
v 7.010759830474854 0 1.983369946479797
v 5 5 5
v 5 5 5
v 5 5 0
v 5 5 0
v 5 0 5
v 5 0 5
v 5 0 0
v 5 0 0
v 2.989239931106567 5 2.983370065689087
v 2.989239931106567 5 1.983369946479797
v 2.989239931106567 0 2.983370065689087
v 2.989239931106567 0 1.983369946479797
v 1.989240050315857 5 2.983370065689087
v 1.989240050315857 5 1.983369946479797
v 1.989240050315857 0 2.983370065689087
v 1.989240050315857 0 1.983369946479797
v 3.000000106112566e-06 5 0
v 3.000000106112566e-06 5 0
v 3.000000106112566e-06 5 0
v 0 5 5
v 0 5 5
v 0 5 5
v 0 3.004199981689453 2.983370065689087
v 0 3.004199981689453 1.983369946479797
v 0 2.004199981689453 2.983370065689087
v 0 2.004199981689453 1.983369946479797
v 0 0 5
v 0 0 5
v 0 0 5
v 0 0 0
v 0 0 0
v 0 0 0
vn 1 3.000000106112566e-07 -2.000000023372195e-07
vn 0 1 0
vn 0 0 1
vn 1 0 0
vn 1 4.00000004674439e-07 -9.400000067216752e-07
vn 1 0 0
vn 1 2.000000023372195e-07 -7.099999947968172e-07
vn 1 0 0
vn 0 0 1
vn 0 -1 0
vn 1 4.00000004674439e-07 -4.00000004674439e-07
vn 0 0 -1
vn 0 -1 0
vn 1 6.700000199089118e-07 -1.210000050377857e-06
vn 0 1 0
vn 0 0 -1
vn 0 1 0
vn 0 1 0
vn 0 -1 0
vn 0 -1 0
vn 0 1 0
vn 0 1 0
vn 0 -1 0
vn 0 -1 0
vn 0 1 0
vn 0 0 1
vn 0 0 1
vn 0 -1 0
vn 0 0 -1
vn 0 -1 0
vn 0 1 0
vn 0 0 -1
vn 0 1 0
vn 0 1 0
vn 0 -1 0
vn 0 -1 0
vn 0 1 0
vn 0 1 0
vn 0 -1 0
vn 0 -1 0
vn 0 1 0
vn 0 0 1
vn 0 0 1
vn 0 -1 0
vn 0 0 -1
vn 0 -1 0
vn 0 1 0
vn 0 0 -1
vn 0 1 0
vn 0 1 0
vn 0 -1 0
vn 0 -1 0
vn 0 1 0
vn 0 1 0
vn 0 -1 0
vn 0 -1 0
vn 0 1 0
vn 0 0 1
vn 0 0 1
vn 0 -1 0
vn 0 0 -1
vn 0 -1 0
vn 0 1 0
vn 0 0 -1
vn 0 1 0
vn 0 1 0
vn 0 -1 0
vn 0 -1 0
vn 0 1 0
vn 0 1 0
vn 0 -1 0
vn 0 -1 0
vn 0 1 0
vn 0 0 1
vn 0 1 0
vn 0 0 -1
vn 0 0 1
vn 0 -1 0
vn 0 0 -1
vn 0 -1 0
vn 0 1 0
vn 0 1 0
vn 0 -1 0
vn 0 -1 0
vn 0 1 0
vn 0 1 0
vn 0 -1 0
vn 0 -1 0
vn 0 1 0
vn 0 0 -1
vn -1 4.999999987376214e-07 -9.09999982923182e-07
vn 0 1 0
vn 0 0 1
vn -1 2.299999977140033e-07 -1.500000053056283e-07
vn -1 0 0
vn -1 3.000000106112566e-07 -6.999999868639861e-07
vn -1 0 0
vn -1 1.500000053056283e-07 -5.300000225361146e-07
vn 0 0 1
vn 0 -1 0
vn -1 0 0
vn 0 0 -1
vn 0 -1 0
vn -1 3.000000106112566e-07 -3.000000106112566e-07
f 34//34 33//33 25//25 31//31
f 47//47 38//38 34//34 31//31
f 38//38 47//47 41//41 37//37
f 33//33 37//37 41//41 25//25
f 39//39 35//35 28//28 44//44
f 30//30 36//36 40//40 46//46
f 35//35 36//36 30//30 28//28
f 40//40 39//39 44//44 46//46
f 43//43 27//27 26//26 42//42
f 32//32 29//29 45//45 48//48
f 50//50 49//49 41//41 47//47
f 63//63 54//54 50//50 47//47
f 54//54 63//63 57//57 53//53
f 49//49 53//53 57//57 41//41
f 55//55 51//51 44//44 60//60
f 46//46 52//52 56//56 62//62
f 51//51 52//52 46//46 44//44
f 56//56 55//55 60//60 62//62
f 59//59 43//43 42//42 58//58
f 48//48 45//45 61//61 64//64
f 18//18 17//17 2//2 15//15
f 31//31 22//22 18//18 15//15
f 22//22 31//31 25//25 21//21
f 17//17 21//21 25//25 2//2
f 7//7 6//6 8//8 11//11
f 14//14 5//5 7//7 11//11
f 5//5 14//14 1//1 4//4
f 6//6 4//4 1//1 8//8
f 23//23 19//19 10//10 28//28
f 13//13 20//20 24//24 30//30
f 19//19 20//20 13//13 10//10
f 24//24 23//23 28//28 30//30
f 27//27 9//9 3//3 26//26
f 16//16 12//12 29//29 32//32
f 66//66 65//65 57//57 63//63
f 75//75 70//70 66//66 63//63
f 70//70 75//75 73//73 69//69
f 65//65 69//69 73//73 57//57
f 71//71 67//67 60//60 78//78
f 62//62 68//68 72//72 80//80
f 67//67 68//68 62//62 60//60
f 72//72 71//71 78//78 80//80
f 77//77 59//59 58//58 74//74
f 64//64 61//61 79//79 76//76
f 86//86 89//89 92//92 85//85
f 75//75 89//89 86//86 82//82
f 82//82 81//81 73//73 75//75
f 85//85 92//92 73//73 81//81
f 98//98 104//104 101//101 97//97
f 91//91 104//104 98//98 96//96
f 96//96 95//95 94//94 91//91
f 97//97 101//101 94//94 95//95
f 83//83 78//78 100//100 87//87
f 103//103 80//80 84//84 88//88
f 87//87 100//100 103//103 88//88
f 84//84 80//80 78//78 83//83
f 77//77 74//74 93//93 99//99
f 90//90 76//76 79//79 102//102
