# RokuSuper Output Ver2.0 for Wavefront Obj

v 0.79772400 2.56779200 12.22980500
v 0.70538600 2.56779100 12.12212000
v 18.67862200 2.56779100 15.42143700
v 18.77096800 2.56779200 15.52912200
v 0.79770900 2.39653200 12.22980400
v 18.77095300 2.39653200 15.52912100
v 0.70539300 2.39653000 12.12211800
v 18.67863700 2.39653000 15.42143600
v 18.67378500 2.56779100 15.38058100
v 18.81206000 2.56779200 15.41234000
v 18.81204500 2.39653100 15.41234000
v 18.67378500 2.39653000 15.38058100
v 18.55382000 2.71640600 15.35302000
v 18.55382000 2.24791200 15.35302000
v 19.03393800 2.47771600 10.55660600
v 19.06682100 2.47372200 10.54027400
v 19.11314600 2.44278300 10.42572700
v 19.04312400 2.46121400 10.38054500
v 19.03393800 2.48684400 10.55660600
v 19.04312400 2.50334500 10.38054500
v 19.06679000 2.49083700 10.54027600
v 19.11311600 2.52177700 10.42573900
v 19.29822000 2.44278300 10.43504500
v 19.32332100 2.46121400 10.35652200
v 19.32332100 2.50334500 10.35652200
v 19.29822000 2.52177700 10.43505100
v 19.37251500 2.39764200 10.54250400
v 19.63110600 2.43714000 10.59028500
v 19.63110600 2.52741900 10.59028500
v 19.37253000 2.56691700 10.54250200
v 19.37253000 2.39764200 10.79392900
v 19.63104500 2.43714000 10.84170800
v 19.63104500 2.52741900 10.84170800
v 19.37253000 2.56691700 10.79392700
v 19.21409800 2.39764200 10.89518400
v 19.47265900 2.43714000 10.94296400
v 19.47265900 2.52741900 10.94296400
v 19.21414400 2.56691700 10.89518400
v 19.24804900 2.42189600 11.10321500
v 19.43248200 2.45007500 11.13730300
v 19.43248200 2.51448400 11.13730300
v 19.24801900 2.54266400 11.10321300
v 19.29254400 2.45104700 11.11144200
v 19.38792700 2.46562200 11.12907400
v 19.38792700 2.49893700 11.12907400
v 19.29252900 2.51351300 11.11144100
v 19.29254400 2.45104700 11.11144200
v 19.38792700 2.46562200 11.12907400
v 19.38792700 2.49893700 11.12907400
v 19.29252900 2.51351300 11.11144100
v 19.28460900 2.45092800 14.89736000
v 19.38000700 2.46550300 14.91499200
v 19.38000700 2.49881800 14.91499200
v 19.28462500 2.51339400 14.89736000
v 19.00558700 2.24791300 14.84577800
v 19.72093400 2.35722800 14.97801800
v 19.72091900 2.60709000 14.97801800
v 19.00558700 2.71640700 14.84577800
v 19.75941700 2.60709100 15.29497300
v 18.93200900 2.71640800 15.43989600
v 19.75940200 2.35722800 15.29497500
v 18.93200900 2.24791500 15.43989700
v 18.82155100 2.71640600 14.81757100
v 18.82155100 2.24791200 14.81757100
v 1.20004500 2.71640600 7.11933900
v 1.98852800 2.71640600 5.54247800
v 1.20004500 2.24791200 7.11933900
v 1.98852800 2.24791200 5.54247800
v 1.68408400 2.48215900 13.45763400
v 2.01291900 2.15332200 13.45763400
v 1.68408400 2.01711200 13.45763400
v 1.35525000 2.15332200 13.45763400
v 1.21903500 2.48215900 13.45763400
v 1.35525000 2.81099600 13.45763400
v 1.68408400 2.94720600 13.45763400
v 2.01291900 2.81099600 13.45763400
v 2.14913400 2.48215900 13.45763400
v 1.68408400 2.48215900 0.09833100
v 1.68408400 1.82598300 0.09833100
v 2.14806600 2.01817300 0.09833100
v 1.22010300 2.01817300 0.09833100
v 1.02791100 2.48215900 0.09833100
v 1.22010300 2.94614500 0.09833100
v 1.68408400 3.13833500 0.09833100
v 2.14806600 2.94614500 0.09833100
v 2.34025800 2.48215900 0.09833100

vn 0.00000202 1.00000000 -0.00001102
vn 0.00000202 1.00000000 -0.00001102
vn -0.00000121 1.00000000 -0.00000825
vn -0.00000436 1.00000000 -0.00000428
vn -0.39338568 0.00002909 0.91937354
vn -0.59659527 0.00001198 0.80254226
vn -0.18055141 0.00001007 0.98356555
vn -0.18055141 0.00001007 0.98356555
vn -0.00000405 -1.00000000 0.00002204
vn -0.00000405 -1.00000000 0.00002204
vn 0.00000569 -1.00000000 0.00001370
vn 0.00000866 -1.00000000 0.00000978
vn 0.18055147 0.00002021 -0.98356554
vn 0.18055149 0.00001887 -0.98356553
vn 0.18055147 0.00002021 -0.98356554
vn 0.18055146 0.00002156 -0.98356554
vn -0.00000436 1.00000000 -0.00000428
vn -0.00000121 1.00000000 -0.00000825
vn -0.00000756 1.00000000 -0.00000091
vn -0.00000743 1.00000000 0.00000088
vn 0.94330679 -0.00008359 0.33192212
vn 0.94330635 -0.00008456 0.33192338
vn 0.94330679 -0.00008359 0.33192212
vn 0.94330724 -0.00008262 0.33192085
vn 0.00000866 -1.00000000 0.00000978
vn 0.00000569 -1.00000000 0.00001370
vn 0.00001501 -1.00000000 0.00000365
vn 0.00000487 -1.00000000 0.00001028
vn -0.99304309 -0.00004383 0.11775152
vn -0.99306456 -0.00008766 0.11757033
vn -0.99304309 -0.00004383 0.11775152
vn -0.99302159 0.00000000 0.11793271
vn -0.22388166 -0.00000650 0.97461634
vn -0.22386976 -0.00000614 0.97461907
vn -0.06658507 -0.00000363 0.99778075
vn -0.27631024 0.00000517 0.96106850
vn -0.22386976 -0.00000614 0.97461907
vn -0.22387278 -0.00000526 0.97461838
vn -0.12666039 0.00000446 0.99194614
vn -0.06658507 -0.00000363 0.99778075
vn -0.22387278 -0.00000526 0.97461838
vn -0.22389743 -0.00000973 0.97461271
vn -0.30753688 -0.00000712 0.95153616
vn -0.12666039 0.00000446 0.99194614
vn -0.22389743 -0.00000973 0.97461271
vn -0.22388166 -0.00000650 0.97461634
vn -0.27631024 0.00000517 0.96106850
vn -0.30753688 -0.00000712 0.95153616
vn -0.20254290 -0.97348901 0.10628038
vn -0.07637010 -0.99309083 0.08909667
vn -0.14821879 -0.98797568 -0.04399142
vn -0.11801743 -0.98130025 -0.15205823
vn -0.99864165 0.00000000 -0.05210423
vn -0.99864165 0.00000000 -0.05210423
vn -0.99864165 0.00000000 -0.05210423
vn -0.99864165 0.00000000 -0.05210423
vn -0.14386448 0.97435001 0.17304643
vn 0.01535631 0.96370235 0.26653699
vn -0.09233230 0.99547173 -0.02260044
vn -0.10241714 0.97557311 -0.19433948
vn 0.81327641 0.00093104 0.58187680
vn 0.64276252 0.00082672 0.76606505
vn 0.92711267 0.00096538 0.37478149
vn 0.92701534 0.00029509 0.37502329
vn -0.11801743 -0.98130025 -0.15205823
vn -0.14821879 -0.98797568 -0.04399142
vn 0.02034469 -0.96629894 -0.25661733
vn 0.10512543 -0.94302381 -0.31568140
vn -0.08542272 0.00000000 -0.99634480
vn -0.08542272 0.00000000 -0.99634480
vn 0.15375360 0.00000000 -0.98810922
vn 0.39829854 0.00000000 -0.91725584
vn -0.10241714 0.97557311 -0.19433948
vn -0.09233230 0.99547173 -0.02260044
vn -0.05804341 0.94982528 -0.30734817
vn 0.00431246 0.95506035 -0.29638005
vn -0.05026353 -0.00012334 0.99873598
vn -0.05028374 -0.00017081 0.99873496
vn -0.33848228 -0.00010629 0.94097276
vn -0.62163497 -0.00001447 0.78330707
vn 0.10512543 -0.94302381 -0.31568140
vn 0.02034469 -0.96629894 -0.25661733
vn 0.15403143 -0.95796445 -0.24202982
vn 0.17994042 -0.96828719 -0.17332442
vn 0.39829854 0.00000000 -0.91725584
vn 0.15375360 0.00000000 -0.98810922
vn 0.81127181 0.00000000 -0.58466918
vn 0.95635694 0.00000000 -0.29220098
vn 0.00431246 0.95506035 -0.29638005
vn -0.05804341 0.94982528 -0.30734817
vn 0.06298949 0.97347041 -0.21997203
vn 0.17213431 0.97728921 -0.12359439
vn -0.62163497 -0.00001447 0.78330707
vn -0.33848228 -0.00010629 0.94097276
vn -0.91865052 0.00004342 0.39507115
vn -0.98028979 0.00005842 0.19756499
vn 0.17994042 -0.96828719 -0.17332442
vn 0.15403143 -0.95796445 -0.24202982
vn 0.13979035 -0.98832535 0.06059424
vn 0.12799375 -0.98434486 0.12117262
vn 0.95635694 0.00000000 -0.29220098
vn 0.81127181 0.00000000 -0.58466918
vn 0.94904010 0.00000000 0.31515535
vn 0.77656381 0.00000000 0.63003861
vn 0.17213431 0.97728921 -0.12359439
vn 0.06298949 0.97347041 -0.21997203
vn 0.13979238 0.98832494 0.06059624
vn 0.12799840 0.98434324 0.12118088
vn -0.98028979 0.00005842 0.19756499
vn -0.91865052 0.00004342 0.39507115
vn -0.94908855 0.00002941 -0.31500940
vn -0.77657874 0.00005100 -0.63002021
vn 0.12799375 -0.98434486 0.12117262
vn 0.13979035 -0.98832535 0.06059424
vn 0.12176670 -0.98086026 0.15194087
vn 0.12769217 -0.98420220 0.12264067
vn 0.77656381 0.00000000 0.63003861
vn 0.94904010 0.00000000 0.31515535
vn 0.73673397 0.00000000 0.67618271
vn 0.89459311 0.00000000 0.44688160
vn 0.12799840 0.98434324 0.12118088
vn 0.13979238 0.98832494 0.06059624
vn 0.12178072 0.98085848 0.15194110
vn 0.12769903 0.98420009 0.12265048
vn -0.77657874 0.00005100 -0.63002021
vn -0.94908855 0.00002941 -0.31500940
vn -0.53857907 0.00006821 -0.84257497
vn -0.53863836 0.00014637 -0.84253706
vn 0.12769217 -0.98420220 0.12264067
vn 0.12176670 -0.98086026 0.15194087
vn 0.13350041 -0.98665151 0.09325474
vn 0.13351401 -0.98665084 0.09324233
vn 0.89459311 0.00000000 0.44688160
vn 0.73673397 0.00000000 0.67618271
vn 0.97929147 0.00000000 0.20245547
vn 0.97929147 0.00000000 0.20245547
vn 0.12769903 0.98420009 0.12265048
vn 0.12178072 0.98085848 0.15194110
vn 0.13349896 0.98664949 0.09327818
vn 0.13349194 0.98665138 0.09326816
vn -0.98697612 0.00001284 0.16086683
vn -0.98694781 0.00026820 0.16104023
vn -0.98697612 0.00001284 0.16086683
vn -0.98700434 -0.00024252 0.16069341
vn -0.18175639 -0.00012411 0.98334358
vn -0.18165065 -0.00008679 0.98336312
vn -0.09121966 -0.00004311 0.99583080
vn -0.09127070 -0.00002798 0.99582612
vn -0.18165065 -0.00008679 0.98336312
vn -0.18168404 0.00012652 0.98335695
vn -0.09121459 0.00007040 0.99583126
vn -0.09121966 -0.00004311 0.99583080
vn -0.18168404 0.00012652 0.98335695
vn -0.18176905 0.00001412 0.98334125
vn -0.09125845 0.00004064 0.99582724
vn -0.09121459 0.00007040 0.99583126
vn -0.18176905 0.00001412 0.98334125
vn -0.18175639 -0.00012411 0.98334358
vn -0.09127070 -0.00002798 0.99582612
vn -0.09125845 0.00004064 0.99582724
vn -0.09127070 -0.00002798 0.99582612
vn -0.09121966 -0.00004311 0.99583080
vn 0.00000000 0.00000000 1.00000000
vn 0.00000000 0.00000000 1.00000000
vn -0.09121966 -0.00004311 0.99583080
vn -0.09121459 0.00007040 0.99583126
vn 0.00000000 0.00000000 1.00000000
vn 0.00000000 0.00000000 1.00000000
vn -0.09121459 0.00007040 0.99583126
vn -0.09125845 0.00004064 0.99582724
vn 0.00000000 0.00000000 1.00000000
vn 0.00000000 0.00000000 1.00000000
vn -0.09125845 0.00004064 0.99582724
vn -0.09127070 -0.00002798 0.99582612
vn 0.00000000 0.00000000 1.00000000
vn 0.00000000 0.00000000 1.00000000
vn 0.15098860 -0.98853546 0.00028509
vn 0.15100025 -0.98853368 0.00028482
vn 0.15098860 -0.98853546 0.00028509
vn 0.15097695 -0.98853724 0.00028536
vn 0.99999781 0.00000000 0.00209196
vn 0.99999781 0.00000000 0.00209196
vn 0.99999781 0.00000000 0.00209196
vn 0.99999781 0.00000000 0.00209196
vn 0.15098838 0.98853548 0.00034661
vn 0.15097607 0.98853736 0.00034627
vn 0.15098838 0.98853548 0.00034661
vn 0.15100069 0.98853360 0.00034696
vn -0.99999781 0.00000799 -0.00209183
vn -0.99999777 -0.00024016 -0.00209593
vn -0.99999781 0.00000799 -0.00209183
vn -0.99999779 0.00025614 -0.00208772
vn 0.18178653 -0.00004070 -0.98333802
vn 0.18178127 -0.00002485 -0.98333899
vn 0.18177654 -0.00002153 -0.98333986
vn 0.17423445 -0.00000916 -0.98470420
vn 0.18178127 -0.00002485 -0.98333899
vn 0.18178633 0.00000668 -0.98333806
vn 0.18179056 0.00001024 -0.98333727
vn 0.18177654 -0.00002153 -0.98333986
vn 0.18178633 0.00000668 -0.98333806
vn 0.18179114 -0.00001544 -0.98333717
vn 0.16968747 0.00000401 -0.98549793
vn 0.18179056 0.00001024 -0.98333727
vn 0.18179114 -0.00001544 -0.98333717
vn 0.18178653 -0.00004070 -0.98333802
vn 0.17423445 -0.00000916 -0.98470420
vn 0.16968747 0.00000401 -0.98549793
vn 0.14415196 0.98955496 -0.00109503
vn 0.15442763 0.98782598 -0.01876021
vn 0.09631673 0.99535047 -0.00073244
vn 0.04469274 0.99898546 0.00553322
vn 0.44493832 0.00035073 0.89556114
vn 0.44482609 0.00000000 0.89561697
vn 0.64276252 0.00082672 0.76606505
vn 0.81327641 0.00093104 0.58187680
vn 0.13803210 -0.99042682 0.00136496
vn 0.12828261 -0.99161543 -0.01556923
vn 0.09221422 -0.99573877 0.00091327
vn 0.04936927 -0.99876186 0.00611695
vn 0.17252721 -0.00000019 0.98500475
vn 0.17252625 -0.00000247 0.98500492
vn -0.06658507 -0.00000363 0.99778075
vn -0.12666039 0.00000446 0.99194614
vn 0.04469274 0.99898546 0.00553322
vn 0.09631673 0.99535047 -0.00073244
vn -0.00000246 1.00000000 -0.00000117
vn -0.00000237 1.00000000 -0.00000119
vn 0.16968747 0.00000401 -0.98549793
vn 0.17423445 -0.00000916 -0.98470420
vn 0.26549768 0.00000000 -0.96411150
vn 0.37739382 0.00000000 -0.92605286
vn 0.04936927 -0.99876186 0.00611695
vn 0.09221422 -0.99573877 0.00091327
vn 0.00000300 -1.00000000 0.00000169
vn 0.00000252 -1.00000000 0.00000126
vn -0.59659527 0.00001198 0.80254226
vn -0.39338568 0.00002909 0.91937354
vn -0.75916901 0.00001203 0.65089355
vn -0.75920882 -0.00003863 0.65084711
vn 0.00000000 1.00000000 0.00000000
vn -0.00000237 1.00000000 -0.00000119
vn -0.00000246 1.00000000 -0.00000117
vn 0.00000000 1.00000000 0.00000000
vn 0.00000300 -1.00000000 0.00000169
vn 0.00000000 -1.00000000 0.00000000
vn 0.00000000 -1.00000000 0.00000000
vn 0.00000252 -1.00000000 0.00000126
vn 0.48259493 0.00000000 -0.87584367
vn 0.48259493 0.00000000 -0.87584367
vn 0.37739382 0.00000000 -0.92605286
vn 0.26549768 0.00000000 -0.96411150
vn 0.99270978 -0.00000048 -0.12052919
vn 0.99270411 0.00005960 -0.12057586
vn 0.99270978 -0.00000048 -0.12052919
vn 0.99271545 -0.00006056 -0.12048252
vn -0.30753688 -0.00000712 0.95153616
vn -0.27631024 0.00000517 0.96106850
vn -0.42865909 0.00000000 0.90346632
vn -0.42865909 0.00000000 0.90346632
vn -0.89441528 0.00000000 -0.44723742
vn -0.89441528 0.00000000 -0.44723742
vn -0.89441528 0.00000000 -0.44723742
vn -0.89441528 0.00000000 -0.44723742
vn 0.00000000 0.00000000 1.00000000
vn 0.00000000 0.00000000 1.00000000
vn 0.00000000 0.00000000 1.00000000
vn 0.00000000 0.00000000 1.00000000
vn 0.00000000 0.00000000 1.00000000
vn 0.00000000 0.00000000 1.00000000
vn 0.00000000 0.00000000 1.00000000
vn 0.00000000 0.00000000 1.00000000
vn 0.00000000 0.00000000 1.00000000
vn 0.00000000 0.00000000 1.00000000
vn 0.00000000 0.00000000 1.00000000
vn 0.00000000 0.00000000 1.00000000
vn 0.00000000 0.00000000 1.00000000
vn 0.00000000 0.00000000 1.00000000
vn 0.00000000 0.00000000 1.00000000
vn 0.00000000 0.00000000 1.00000000
vn 0.00000000 0.00000000 1.00000000
vn 0.00000000 0.00000000 1.00000000
vn 0.00000000 0.00000000 1.00000000
vn 0.00000000 0.00000000 1.00000000
vn 0.00000000 0.00000000 1.00000000
vn 0.00000000 0.00000000 1.00000000
vn 0.00000000 0.00000000 1.00000000
vn 0.00000000 0.00000000 1.00000000
vn 0.00000000 0.00000000 -1.00000000
vn 0.00000000 0.00000000 -1.00000000
vn 0.00000000 0.00000000 -1.00000000
vn 0.00000000 0.00000000 -1.00000000
vn 0.00000000 0.00000000 -1.00000000
vn 0.00000000 0.00000000 -1.00000000
vn 0.00000000 0.00000000 -1.00000000
vn 0.00000000 0.00000000 -1.00000000
vn 0.00000000 0.00000000 -1.00000000
vn 0.00000000 0.00000000 -1.00000000
vn 0.00000000 0.00000000 -1.00000000
vn 0.00000000 0.00000000 -1.00000000
vn 0.00000000 0.00000000 -1.00000000
vn 0.00000000 0.00000000 -1.00000000
vn 0.00000000 0.00000000 -1.00000000
vn 0.00000000 0.00000000 -1.00000000
vn 0.00000000 0.00000000 -1.00000000
vn 0.00000000 0.00000000 -1.00000000
vn 0.00000000 0.00000000 -1.00000000
vn 0.00000000 0.00000000 -1.00000000
vn 0.00000000 0.00000000 -1.00000000
vn 0.00000000 0.00000000 -1.00000000
vn 0.00000000 0.00000000 -1.00000000
vn 0.00000000 0.00000000 -1.00000000
vn 0.60368613 -0.79709613 0.01417087
vn -0.13676222 -0.99050254 0.01417095
vn 0.13676169 -0.99050261 0.01417094
vn 0.79709153 -0.60369221 0.01417076
vn -0.13676222 -0.99050254 0.01417095
vn -0.79709193 -0.60369169 0.01417072
vn -0.60368940 -0.79709365 0.01417088
vn 0.13676169 -0.99050261 0.01417094
vn -0.79709193 -0.60369169 0.01417072
vn -0.99050254 0.13676221 0.01417071
vn -0.99050207 -0.13676565 0.01417066
vn -0.60368940 -0.79709365 0.01417088
vn -0.99050254 0.13676221 0.01417071
vn -0.60368664 0.79709575 0.01417087
vn -0.79709167 0.60369202 0.01417076
vn -0.99050207 -0.13676565 0.01417066
vn -0.60368664 0.79709575 0.01417087
vn 0.13676127 0.99050267 0.01417095
vn -0.13676255 0.99050249 0.01417094
vn -0.79709167 0.60369202 0.01417076
vn 0.13676127 0.99050267 0.01417095
vn 0.79709173 0.60369195 0.01417072
vn 0.60368890 0.79709404 0.01417088
vn -0.13676255 0.99050249 0.01417094
vn 0.79709173 0.60369195 0.01417072
vn 0.99050254 -0.13676221 0.01417071
vn 0.99050207 0.13676565 0.01417066
vn 0.60368890 0.79709404 0.01417088
vn 0.99050254 -0.13676221 0.01417071
vn 0.60368613 -0.79709613 0.01417087
vn 0.79709153 -0.60369221 0.01417076
vn 0.99050207 0.13676565 0.01417066

g ²ã
f 2//1 1//2 4//3 3//4
f 1//5 5//6 6//7 4//8
f 5//9 7//10 8//11 6//12
f 7//13 2//14 3//15 8//16
f 3//17 4//18 10//19 9//20
f 4//21 6//22 11//23 10//24
f 6//25 8//26 12//27 11//28
f 8//29 3//30 9//31 12//32
f 9//33 10//34 60//35 13//36
f 10//37 11//38 62//39 60//40
f 11//41 12//42 14//43 62//44
f 12//45 9//46 13//47 14//48
f 16//49 15//50 18//51 17//52
f 15//53 19//54 20//55 18//56
f 19//57 21//58 22//59 20//60
f 21//61 16//62 17//63 22//64
f 17//65 18//66 24//67 23//68
f 18//69 20//70 25//71 24//72
f 20//73 22//74 26//75 25//76
f 22//77 17//78 23//79 26//80
f 23//81 24//82 28//83 27//84
f 24//85 25//86 29//87 28//88
f 25//89 26//90 30//91 29//92
f 26//93 23//94 27//95 30//96
f 27//97 28//98 32//99 31//100
f 28//101 29//102 33//103 32//104
f 29//105 30//106 34//107 33//108
f 30//109 27//110 31//111 34//112
f 31//113 32//114 36//115 35//116
f 32//117 33//118 37//119 36//120
f 33//121 34//122 38//123 37//124
f 34//125 31//126 35//127 38//128
f 35//129 36//130 40//131 39//132
f 36//133 37//134 41//135 40//136
f 37//137 38//138 42//139 41//140
f 38//141 35//142 39//143 42//144
f 39//145 40//146 44//147 43//148
f 40//149 41//150 45//151 44//152
f 41//153 42//154 46//155 45//156
f 42//157 39//158 43//159 46//160
f 43//161 44//162 48//163 47//164
f 44//165 45//166 49//167 48//168
f 45//169 46//170 50//171 49//172
f 46//173 43//174 47//175 50//176
f 47//177 48//178 52//179 51//180
f 48//181 49//182 53//183 52//184
f 49//185 50//186 54//187 53//188
f 50//189 47//190 51//191 54//192
f 51//193 52//194 56//195 55//196
f 52//197 53//198 57//199 56//200
f 53//201 54//202 58//203 57//204
f 54//205 51//206 55//207 58//208
f 59//209 57//210 58//211 60//212
f 19//213 15//214 16//215 21//216
f 56//217 61//218 62//219 55//220
f 61//221 59//222 60//223 62//224
f 60//225 58//226 63//227 13//228
f 58//229 55//230 64//231 63//232
f 55//233 62//234 14//235 64//236
f 5//237 1//238 2//239 7//240
f 65//241 13//242 63//243 66//244
f 14//245 67//246 68//247 64//248
f 68//249 66//250 63//251 64//252
f 56//253 57//254 59//255 61//256
f 14//257 13//258 65//259 67//260
f 67//261 65//262 66//263 68//264
f 71//265 70//266 69//267
f 72//268 71//269 69//270
f 73//271 72//272 69//273
f 74//274 73//275 69//276
f 75//277 74//278 69//279
f 76//280 75//281 69//282
f 77//283 76//284 69//285
f 70//286 77//287 69//288
f 80//289 79//290 78//291
f 79//292 81//293 78//294
f 81//295 82//296 78//297
f 82//298 83//299 78//300
f 83//301 84//302 78//303
f 84//304 85//305 78//306
f 85//307 86//308 78//309
f 86//310 80//311 78//312
f 70//313 71//314 79//315 80//316
f 71//317 72//318 81//319 79//320
f 72//321 73//322 82//323 81//324
f 73//325 74//326 83//327 82//328
f 74//329 75//330 84//331 83//332
f 75//333 76//334 85//335 84//336
f 76//337 77//338 86//339 85//340
f 77//341 70//342 80//343 86//344

