# Rhino

v 3.299999952316284 2.299999952316284 2.900000095367432
v 3.299999952316284 2.299999952316284 2.900000095367432
v 3.299999952316284 2.299999952316284 2.900000095367432
v 3.299999952316284 2.299999952316284 1.899999976158142
v 3.299999952316284 2.299999952316284 1.899999976158142
v 3.299999952316284 2.299999952316284 1.899999976158142
v 2.900000095367432 2.299999952316284 2
v 2.900000095367432 2.299999952316284 2
v 2.900000095367432 2.299999952316284 0
v 2.900000095367432 2.299999952316284 0
v 2.799999952316284 3.099999904632568 2.900000095367432
v 2.799999952316284 3.099999904632568 2.900000095367432
v 2.799999952316284 3.099999904632568 1.899999976158142
v 2.799999952316284 3.099999904632568 1.899999976158142
v 2.799999952316284 1.399999976158142 2.900000095367432
v 2.799999952316284 1.399999976158142 2.900000095367432
v 2.799999952316284 1.399999976158142 2.900000095367432
v 2.799999952316284 1.399999976158142 1.899999976158142
v 2.799999952316284 1.399999976158142 1.899999976158142
v 2.799999952316284 1.399999976158142 1.899999976158142
v 2.599999904632568 2.799999952316284 2
v 2.599999904632568 2.799999952316284 2
v 2.599999904632568 2.799999952316284 0
v 2.599999904632568 2.799999952316284 0
v 2.599999904632568 1.700000047683716 2
v 2.599999904632568 1.700000047683716 2
v 2.599999904632568 1.700000047683716 2
v 2.599999904632568 1.700000047683716 0
v 2.599999904632568 1.700000047683716 0
v 2.599999904632568 1.700000047683716 0
v 2 2.799999952316284 2
v 2 2.799999952316284 2
v 2 2.799999952316284 0
v 2 2.799999952316284 0
v 2 1.700000047683716 2
v 2 1.700000047683716 2
v 2 1.700000047683716 2
v 2 1.700000047683716 0
v 2 1.700000047683716 0
v 2 1.700000047683716 0
v 1.799999952316284 3.099999904632568 2.900000095367432
v 1.799999952316284 3.099999904632568 2.900000095367432
v 1.799999952316284 3.099999904632568 1.899999976158142
v 1.799999952316284 3.099999904632568 1.899999976158142
v 1.799999952316284 1.399999976158142 2.900000095367432
v 1.799999952316284 1.399999976158142 2.900000095367432
v 1.799999952316284 1.399999976158142 2.900000095367432
v 1.799999952316284 1.399999976158142 1.899999976158142
v 1.799999952316284 1.399999976158142 1.899999976158142
v 1.799999952316284 1.399999976158142 1.899999976158142
v 1.700000047683716 2.299999952316284 2
v 1.700000047683716 2.299999952316284 2
v 1.700000047683716 2.299999952316284 0
v 1.700000047683716 2.299999952316284 0
v 1.299999952316284 2.299999952316284 2.900000095367432
v 1.299999952316284 2.299999952316284 2.900000095367432
v 1.299999952316284 2.299999952316284 2.900000095367432
v 1.299999952316284 2.299999952316284 1.899999976158142
v 1.299999952316284 2.299999952316284 1.899999976158142
v 1.299999952316284 2.299999952316284 1.899999976158142
vn 0.8741573095321655 -0.4856429398059845 0
vn 0.847998321056366 0.5299989581108093 0
vn 0 0 1
vn 0.8741573095321655 -0.4856429398059845 0
vn 0.847998321056366 0.5299989581108093 0
vn 0 0 -1
vn 0.9898506999015808 -0.1421111226081848 0
vn 0 0 1
vn 0.9760356545448303 0.217610627412796 0
vn 0 0 -1
vn 0.635601818561554 0.7720170617103577 0
vn 0 0 1
vn 0.317800909280777 0.9481574892997742 0
vn 0 0 -1
vn 0.8741573095321655 -0.4856429398059845 0
vn 0 0 1
vn 0 -1 0
vn 0.8741573095321655 -0.4856429398059845 0
vn 0 0 -1
vn 0 -1 0
vn 0.6455356478691101 0.7637301087379456 0
vn 0 0 1
vn 0.3227678239345551 0.9464781880378723 0
vn 0 0 -1
vn 0.8944271802902222 -0.4472135901451111 0
vn 0 0 1
vn 0 -1 0
vn 0.8944271802902222 -0.4472135901451111 0
vn 0 0 -1
vn 0 -1 0
vn 0 0 1
vn -0.3227678239345551 0.9464781880378723 0
vn 0 0 -1
vn -0.6455356478691101 0.7637301087379456 0
vn 0 0 1
vn 0 -1 0
vn -0.8944271802902222 -0.4472135901451111 0
vn 0 0 -1
vn 0 -1 0
vn -0.8944271802902222 -0.4472135901451111 0
vn 0 0 1
vn -0.317800909280777 0.9481574892997742 0
vn 0 0 -1
vn -0.635601818561554 0.7720170617103577 0
vn 0 0 1
vn 0 -1 0
vn -0.8741573095321655 -0.4856429398059845 0
vn 0 0 -1
vn 0 -1 0
vn -0.8741573095321655 -0.4856429398059845 0
vn 0 0 1
vn -0.9760356545448303 0.217610627412796 0
vn 0 0 -1
vn -0.9898506999015808 -0.1421111226081848 0
vn 0 0 1
vn -0.847998321056366 0.5299989581108093 0
vn -0.8741573095321655 -0.4856429398059845 0
vn 0 0 -1
vn -0.847998321056366 0.5299989581108093 0
vn -0.8741573095321655 -0.4856429398059845 0
f 3//3 12//12 16//16
f 12//12 55//55 16//16
f 55//55 45//45 16//16
f 12//12 41//41 55//55
f 19//19 48//48 6//6
f 48//48 43//43 6//6
f 43//43 14//14 6//6
f 48//48 58//58 43//43
f 1//1 15//15 18//18
f 18//18 4//4 1//1
f 17//17 46//46 49//49
f 49//49 20//20 17//17
f 47//47 57//57 60//60
f 60//60 50//50 47//47
f 56//56 42//42 44//44
f 44//44 59//59 56//56
f 42//42 11//11 13//13
f 13//13 44//44 42//42
f 11//11 2//2 5//5
f 5//5 13//13 11//11
f 8//8 22//22 26//26
f 22//22 51//51 26//26
f 51//51 35//35 26//26
f 22//22 31//31 51//51
f 29//29 38//38 10//10
f 38//38 33//33 10//10
f 33//33 24//24 10//10
f 38//38 53//53 33//33
f 7//7 25//25 28//28
f 28//28 9//9 7//7
f 27//27 36//36 39//39
f 39//39 30//30 27//27
f 37//37 52//52 54//54
f 54//54 40//40 37//37
f 52//52 32//32 34//34
f 34//34 54//54 52//52
f 32//32 21//21 23//23
f 23//23 34//34 32//32
f 21//21 7//7 9//9
f 9//9 23//23 21//21
