# Rhino

v 5 0 0
v 5 0 0
v 5 0 0
v 4.755282878875732 1.542137980461121 0
v 4.755282878875732 1.542137980461121 0
v 4.755282878875732 0 1.545084953308106
v 4.755282878875732 0 1.545084953308106
v 4.522541999816895 1.545084953308106 1.469462990760803
v 4.045084953308106 2.939213037490845 0
v 4.045084953308106 2.939213037490845 0
v 4.045084953308106 0 2.938925981521606
v 4.045084953308106 0 2.938925981521606
v 3.847105026245117 2.938925981521606 1.25
v 3.847105026245117 1.545084953308106 2.795084953308106
v 3.272542953491211 2.938925981521606 2.377640962600708
v 2.938925981521606 4.045290946960449 0
v 2.938925981521606 4.045290946960449 0
v 2.938925981521606 0 4.045084953308106
v 2.938925981521606 0 4.045084953308106
v 2.795084953308106 4.045084953308106 0.9081779718399048
v 2.795084953308106 1.545084953308106 3.847105026245117
v 2.377640962600708 4.045084953308106 1.727458000183106
v 2.377640962600708 2.938925981521606 3.272542953491211
v 1.727458000183106 4.045084953308106 2.377640962600708
v 1.545084953308106 4.753440856933594 0
v 1.545084953308106 4.753440856933594 0
v 1.545084953308106 0 4.755282878875732
v 1.545084953308106 0 4.755282878875732
v 1.469462990760803 4.755282878875732 0.4774580001831055
v 1.469462990760803 1.545084953308106 4.522542953491211
v 1.25 4.755282878875732 0.9081779718399048
v 1.25 2.938925981521606 3.847105026245117
v 0.9081779718399048 4.755282878875732 1.25
v 0.9081779718399048 4.045084953308106 2.795084953308106
v 0.4774569869041443 4.755282878875732 1.469462990760803
v 0 5 0
v 0 5 0
v 0 5 0
v 0 4.753440856933594 1.545084953308106
v 0 4.753440856933594 1.545084953308106
v 0 4.045393943786621 2.938925981521606
v 0 4.045393943786621 2.938925981521606
v 0 2.939308881759644 4.045084953308106
v 0 2.939308881759644 4.045084953308106
v 0 1.542137980461121 4.755282878875732
v 0 1.542137980461121 4.755282878875732
v 0 0 5
v 0 0 5
v 0 0 5
v 0 0 0
v 0 0 0
v 0 0 0
vn 0.9757760167121887 0.1548427939414978 0.1545474678277969
vn 0 0 -1
vn 0 -1 0
vn 0.9549848437309265 0.2554388642311096 0.150847390294075
vn 0 0 -1
vn 0.9541760087013245 0.1563187688589096 0.2551716268062592
vn 0 -1 0
vn 0.9045435786247253 0.3090880513191223 0.2937099039554596
vn 0.8024284243583679 0.5830838680267334 0.1269716173410416
vn 0 0 -1
vn 0.8285809755325317 0.1562221348285675 0.5376320481300354
vn 0 -1 0
vn 0.7692397832870483 0.5880176424980164 0.2500108182430267
vn 0.7693769335746765 0.3091847002506256 0.5589847564697266
vn 0.6543717980384827 0.5880177021026611 0.4754289984703064
vn 0.5845310091972351 0.8060511350631714 0.09276328235864639
vn 0 0 -1
vn 0.6218898892402649 0.1562218368053436 0.7673641443252564
vn 0 -1 0
vn 0.558798611164093 0.8092657923698425 0.181198850274086
vn 0.5589849352836609 0.3091848194599152 0.7693767547607422
vn 0.4753389060497284 0.8091869950294495 0.3453539609909058
vn 0.4754289984703064 0.5880177021026611 0.6543717980384827
vn 0.3453539609909058 0.8091869950294495 0.4753389060497284
vn 0.3583395779132843 0.9320059418678284 0.05438413843512535
vn 0 0 -1
vn 0.3051377832889557 0.1565071940422058 0.9393596053123474
vn 0 -1 0
vn 0.2942892611026764 0.9511123299598694 0.09369701892137528
vn 0.2937140464782715 0.3090848922729492 0.9045432806015015
vn 0.2498615235090256 0.9511120915412903 0.1815350949764252
vn 0.2500320076942444 0.5880178213119507 0.7692327499389648
vn 0.1815349906682968 0.9511120915412903 0.2498615682125092
vn 0.1816905289888382 0.8091855049133301 0.5587551593780518
vn 0.09410254657268524 0.9511950612068176 0.2938922047615051
vn 0.1009681224822998 0.9897529482841492 0.1009681597352028
vn 0 0 -1
vn -1 0 0
vn 0.04519839957356453 0.9501453042030335 0.3085142076015472
vn -1 0 0
vn 0.08483122289180756 0.8362452983856201 0.5417541265487671
vn -1 0 0
vn 0.127013698220253 0.5830776691436768 0.802426278591156
vn -1 0 0
vn 0.1508473604917526 0.2554298639297485 0.9549872279167175
vn -1 0 0
vn 0.1545474678277969 0.1548427939414978 0.9757760167121887
vn 0 -1 0
vn -1 0 0
vn 0 0 -1
vn 0 -1 0
vn -1 0 0
f 36//36 33//33 31//31
f 36//36 29//29 25//25
f 52//52 49//49 46//46
f 36//36 31//31 29//29
f 36//36 35//35 33//33
f 35//35 36//36 39//39
f 25//25 29//29 20//20 16//16
f 29//29 31//31 22//22 20//20
f 31//31 33//33 24//24 22//22
f 33//33 35//35 34//34 24//24
f 35//35 39//39 41//41 34//34
f 20//20 13//13 9//9 16//16
f 20//20 22//22 15//15 13//13
f 22//22 24//24 23//23 15//15
f 24//24 34//34 32//32 23//23
f 34//34 41//41 43//43 32//32
f 9//9 13//13 8//8 4//4
f 13//13 15//15 14//14 8//8
f 15//15 23//23 21//21 14//14
f 23//23 32//32 30//30 21//21
f 43//43 45//45 30//30 32//32
f 4//4 8//8 6//6 1//1
f 8//8 14//14 11//11 6//6
f 14//14 21//21 18//18 11//11
f 21//21 30//30 27//27 18//18
f 45//45 47//47 27//27 30//30
f 44//44 42//42 52//52 46//46
f 52//52 42//42 40//40 38//38
f 51//51 3//3 7//7 12//12
f 51//51 12//12 19//19 28//28
f 51//51 28//28 48//48
f 10//10 5//5 50//50 17//17
f 2//2 50//50 5//5
f 26//26 17//17 50//50 37//37
