# Rhino

g ______01
o object_1
v 0.02179 0.02179 0
v 0.02179 0.02179 0.099
v 0.02179 4.972 0
v 0.02179 4.972 0.099
v 4.972 0.02179 0
v 4.972 0.02179 0.099
v 4.972 4.972 0
v 4.972 4.972 0.099
vn 0 -1 0
vn -1 0 0
vn 0 0 -1
vn 0 -1 0
vn -1 0 0
vn 0 0 1
vn 0 1 0
vn -1 0 0
vn 0 0 -1
vn 0 1 0
vn -1 0 0
vn 0 0 1
vn 0 -1 0
vn 1 0 0
vn 0 0 -1
vn 0 -1 0
vn 1 0 0
vn 0 0 1
vn 1 0 0
vn 0 1 0
vn 0 0 -1
vn 1 0 0
vn 0 1 0
vn 0 0 1
f 1//1 5//13 6//16 2//4
f 5//14 7//19 8//22 6//17
f 7//20 3//7 4//10 8//23
f 3//8 1//2 2//5 4//11
f 5//15 1//3 3//9
f 3//9 7//21 5//15
f 6//18 4//12 2//6
f 4//12 6//18 8//24
o object_2
v 4.655 4.663 0.0161
v 4.655 4.663 1.227
v 4.655 4.967 0.0161
v 4.655 4.967 1.227
v 4.959 4.663 0.0161
v 4.959 4.663 1.227
v 4.959 4.967 0.0161
v 4.959 4.967 1.227
vn 0 0 -1
vn -4.993e-06 1 0
vn -1 -4.005e-06 -1e-06
vn -4.993e-06 1 0
vn -1 -4.005e-06 -1e-06
vn 0 1.001e-06 1
vn 4.993e-06 -1 0
vn -1 -4.005e-06 -1e-06
vn 0 1.001e-06 1
vn 0 0 -1
vn 4.993e-06 -1 0
vn -1 -4.005e-06 -1e-06
vn 0 0 -1
vn -4.993e-06 1 0
vn 1 4.005e-06 1e-06
vn -4.993e-06 1 0
vn 0 1.001e-06 1
vn 1 4.005e-06 1e-06
vn 0 0 -1
vn 4.993e-06 -1 0
vn 1 4.005e-06 1e-06
vn 4.993e-06 -1 0
vn 0 1.001e-06 1
vn 1 4.005e-06 1e-06
f 15//38 11//26 12//28 16//40
f 13//44 14//46 10//31 9//35
f 15//37 13//43 9//34 11//25
f 11//27 9//36 10//32 12//29
f 12//30 10//33 14//47 16//41
f 13//45 15//39 16//42 14//48
o object_3
v 4.656 0.0481 1.201
v 4.656 0.0481 1.505
v 4.656 4.969 1.201
v 4.656 4.969 1.505
v 4.96 0.0481 1.201
v 4.96 0.0481 1.505
v 4.96 4.969 1.201
v 4.96 4.969 1.505
vn 0 0 -1
vn -1 -4.005e-06 0
vn -9.986e-07 1 -1.997e-06
vn 0 0 1
vn -1 -4.005e-06 0
vn -9.986e-07 1 -1.997e-06
vn 0 0 -1
vn 0 -1 0
vn -1 -4.005e-06 0
vn 0 0 1
vn 0 -1 0
vn -1 -4.005e-06 0
vn 0 0 -1
vn -9.986e-07 1 -1.997e-06
vn 1 4.005e-06 0
vn 0 0 1
vn -9.986e-07 1 -1.997e-06
vn 1 4.005e-06 0
vn 0 0 1
vn 0 -1 0
vn 1 4.005e-06 0
vn 0 0 -1
vn 0 -1 0
vn 1 4.005e-06 0
f 21//70 17//55 19//49 23//61
f 22//67 24//64 20//52 18//58
f 21//71 22//68 18//59 17//56
f 17//57 18//60 20//53 19//50
f 19//51 20//54 24//65 23//62
f 22//69 21//72 23//63 24//66
o object_4
v 4.667 0.02284 0.0161
v 4.667 0.02284 1.227
v 4.667 0.3264 0.0161
v 4.667 0.3264 1.227
v 4.97 0.02284 0.0161
v 4.97 0.02284 1.227
v 4.97 0.3264 0.0161
v 4.97 0.3264 1.227
vn 0 -1 0
vn -1 0 9.964e-07
vn -1.004e-06 -1.001e-06 -1
vn -1 0 9.964e-07
vn -1.004e-06 -1.001e-06 -1
vn 0 1 0
vn 0 -1 0
vn 0 1.001e-06 1
vn -1 0 9.964e-07
vn 0 1.001e-06 1
vn -1 0 9.964e-07
vn 0 1 0
vn 0 -1 0
vn 1 0 -9.964e-07
vn -1.004e-06 -1.001e-06 -1
vn 1 0 -9.964e-07
vn -1.004e-06 -1.001e-06 -1
vn 0 1 0
vn 0 -1 0
vn 0 1.001e-06 1
vn 1 0 -9.964e-07
vn 0 1.001e-06 1
vn 1 0 -9.964e-07
vn 0 1 0
f 27//76 25//74 26//81 28//83
f 31//88 32//95 30//93 29//86
f 27//77 31//89 29//87 25//75
f 25//73 29//85 30//91 26//79
f 26//80 30//92 32//94 28//82
f 31//90 27//78 28//84 32//96
o object_5
v 0.03074 0.02284 0.0161
v 0.03074 0.02284 1.227
v 0.03074 0.3268 0.0161
v 0.03074 0.3268 1.227
v 0.3336 0.02284 0.0161
v 0.3336 0.02284 1.227
v 0.3336 0.3268 0.0161
v 0.3336 0.3268 1.227
vn 0 -1 0
vn -1 0 9.964e-07
vn -1.004e-06 -1e-06 -1
vn -1 0 9.964e-07
vn -1.004e-06 -1e-06 -1
vn 0 1 0
vn 0 -1 0
vn 0 1e-06 1
vn -1 0 9.964e-07
vn 0 1e-06 1
vn -1 0 9.964e-07
vn 0 1 0
vn 0 -1 0
vn 1 0 -9.964e-07
vn -1.004e-06 -1e-06 -1
vn 1 0 -9.964e-07
vn -1.004e-06 -1e-06 -1
vn 0 1 0
vn 0 -1 0
vn 0 1e-06 1
vn 1 0 -9.964e-07
vn 0 1e-06 1
vn 1 0 -9.964e-07
vn 0 1 0
f 35//100 33//98 34//105 36//107
f 39//112 40//119 38//117 37//110
f 35//101 39//113 37//111 33//99
f 33//97 37//109 38//115 34//103
f 34//104 38//116 40//118 36//106
f 39//114 35//102 36//108 40//120
o object_6
v 0.02809 0.02284 1.201
v 0.02809 0.02284 1.505
v 0.02809 0.3268 1.201
v 0.02809 0.3268 1.505
v 4.971 0.02284 1.201
v 4.971 0.02284 1.505
v 4.971 0.3268 1.201
v 4.971 0.3268 1.505
vn 0 0 1
vn 0 -1 0
vn -1 3.986e-06 -1.993e-06
vn 0 0 -1
vn 0 -1 0
vn -1 3.986e-06 -1.993e-06
vn 0 0 1
vn 0 1 0
vn -1 3.986e-06 -1.993e-06
vn 0 0 -1
vn 0 1 0
vn -1 3.986e-06 -1.993e-06
vn 0 0 1
vn 0 -1 0
vn 1 -4.982e-06 0
vn 0 0 -1
vn 0 -1 0
vn 1 -4.982e-06 0
vn 0 0 -1
vn 0 1 0
vn 1 -4.982e-06 0
vn 0 0 1
vn 0 1 0
vn 1 -4.982e-06 0
f 47//139 45//136 41//124 43//130
f 48//142 44//127 42//121 46//133
f 47//141 48//144 46//135 45//138
f 45//137 46//134 42//122 41//125
f 41//126 42//123 44//129 43//132
f 48//143 47//140 43//131 44//128
