# Rhino

g ______02
o object_1
v 0.04561 0.0278 1.2
v 0.04561 0.0278 1.501
v 0.04561 0.3284 1.2
v 0.04561 0.3284 1.501
v 4.952 0.0278 1.2
v 4.952 0.0278 1.501
v 4.952 0.3284 1.2
v 4.952 0.3284 1.501
vn 0 -1 0
vn 0 0 1
vn -1 4e-06 -2e-06
vn 0 -1 0
vn 0 0 -1
vn -1 4e-06 -2e-06
vn 0 1 0
vn 0 0 1
vn -1 4e-06 -2e-06
vn 0 1 0
vn 0 0 -1
vn -1 4e-06 -2e-06
vn 0 -1 0
vn 0 0 1
vn 1 -5e-06 0
vn 0 -1 0
vn 0 0 -1
vn 1 -5e-06 0
vn 0 1 0
vn 0 0 -1
vn 1 -5e-06 0
vn 0 1 0
vn 0 0 1
vn 1 -5e-06 0
f 7//20 5//17 1//5 3//11
f 8//23 4//8 2//2 6//14
f 7//21 8//24 6//15 5//18
f 5//16 6//13 2//1 1//4
f 1//6 2//3 4//9 3//12
f 8//22 7//19 3//10 4//7
o object_2
v 4.649 0.0278 0.02841
v 4.649 0.0278 1.226
v 4.649 0.3284 0.02841
v 4.649 0.3284 1.226
v 4.949 0.0278 0.02841
v 4.949 0.0278 1.226
v 4.949 0.3284 0.02841
v 4.949 0.3284 1.226
vn -1 0 1e-06
vn -1e-06 -1e-06 -1
vn 0 -1 0
vn -1 0 1e-06
vn -1e-06 -1e-06 -1
vn 0 1 0
vn -1 0 1e-06
vn 0 -1 0
vn 0 1e-06 1
vn -1 0 1e-06
vn 0 1e-06 1
vn 0 1 0
vn 1 0 -1e-06
vn -1e-06 -1e-06 -1
vn 0 -1 0
vn 1 0 -1e-06
vn -1e-06 -1e-06 -1
vn 0 1 0
vn 1 0 -1e-06
vn 0 -1 0
vn 0 1e-06 1
vn 1 0 -1e-06
vn 0 1e-06 1
vn 0 1 0
f 11//28 9//25 10//31 12//34
f 15//40 16//46 14//43 13//37
f 11//29 15//41 13//38 9//26
f 9//27 13//39 14//44 10//32
f 10//33 14//45 16//47 12//35
f 15//42 11//30 12//36 16//48
o object_3
v 0.04824 0.0278 0.02841
v 0.04824 0.0278 1.226
v 0.04824 0.3284 0.02841
v 0.04824 0.3284 1.226
v 0.3489 0.0278 0.02841
v 0.3489 0.0278 1.226
v 0.3489 0.3284 0.02841
v 0.3489 0.3284 1.226
vn -1 0 1e-06
vn -1e-06 -1e-06 -1
vn 0 -1 0
vn -1 0 1e-06
vn -1e-06 -1e-06 -1
vn 0 1 0
vn -1 0 1e-06
vn 0 -1 0
vn 0 1e-06 1
vn -1 0 1e-06
vn 0 1e-06 1
vn 0 1 0
vn 1 0 -1e-06
vn -1e-06 -1e-06 -1
vn 0 -1 0
vn 1 0 -1e-06
vn -1e-06 -1e-06 -1
vn 0 1 0
vn 1 0 -1e-06
vn 0 -1 0
vn 0 1e-06 1
vn 1 0 -1e-06
vn 0 1e-06 1
vn 0 1 0
f 19//52 17//49 18//55 20//58
f 23//64 24//70 22//67 21//61
f 19//53 23//65 21//62 17//50
f 17//51 21//63 22//68 18//56
f 18//57 22//69 24//71 20//59
f 23//66 19//54 20//60 24//72
o object_4
v 0.02179 0.02179 0
v 0.02179 0.02179 0.099
v 0.02179 4.972 0
v 0.02179 4.972 0.099
v 4.972 0.02179 0
v 4.972 0.02179 0.099
v 4.972 4.972 0
v 4.972 4.972 0.099
vn 0 -1 0
vn -1 0 0
vn 0 0 -1
vn 0 -1 0
vn -1 0 0
vn 0 0 1
vn 0 1 0
vn -1 0 0
vn 0 0 -1
vn 0 1 0
vn -1 0 0
vn 0 0 1
vn 0 -1 0
vn 1 0 0
vn 0 0 -1
vn 0 -1 0
vn 1 0 0
vn 0 0 1
vn 1 0 0
vn 0 1 0
vn 0 0 -1
vn 1 0 0
vn 0 1 0
vn 0 0 1
f 25//73 29//85 30//88 26//76
f 29//86 31//91 32//94 30//89
f 31//92 27//79 28//82 32//95
f 27//80 25//74 26//77 28//83
f 29//87 25//75 27//81
f 27//81 31//93 29//87
f 30//90 28//84 26//78
f 28//84 30//90 32//96
