# Rhino

o object_1
v 0.0263 0.01906 4.867
v 0.0263 0.01906 4.981
v 0.0263 4.979 4.867
v 0.0263 4.979 4.981
v 0.2511 0.08305 4.277
v 0.2511 0.2072 4.153
v 0.2511 0.6968 4.891
v 0.2511 0.9292 4.887
v 0.2511 4.068 4.887
v 0.2511 4.3 4.891
v 0.2511 4.79 4.153
v 0.2511 4.914 4.277
v 0.2517 0.03851 0.003388
v 0.2517 0.03851 4.874
v 0.2517 0.2141 0.003388
v 0.2517 0.2141 4.874
v 0.2517 4.784 0.003388
v 0.2517 4.784 4.874
v 0.2517 4.96 0.003388
v 0.2517 4.96 4.874
v 0.2744 0.03851 4.277
v 0.2744 0.2141 4.277
v 0.2744 4.783 4.277
v 0.2744 4.959 4.277
v 0.3986 0.03851 4.153
v 0.3986 0.2141 4.153
v 0.3986 4.783 4.153
v 0.3986 4.959 4.153
v 0.4267 0.08305 4.277
v 0.4267 0.2072 4.153
v 0.4267 0.6968 4.891
v 0.4267 0.9292 4.887
v 0.4267 4.068 4.887
v 0.4267 4.3 4.891
v 0.4267 4.79 4.153
v 0.4267 4.914 4.277
v 0.4273 0.03851 0.003388
v 0.4273 0.03851 4.874
v 0.4273 0.2141 0.003388
v 0.4273 0.2141 4.874
v 0.4273 4.784 0.003388
v 0.4273 4.784 4.874
v 0.4273 4.96 0.003388
v 0.4273 4.96 4.874
v 0.844 0.03851 4.912
v 0.844 0.2141 4.912
v 0.844 4.783 4.912
v 0.844 4.959 4.912
v 1.056 0.03851 4.914
v 1.056 0.2141 4.914
v 1.056 4.783 4.914
v 1.056 4.959 4.914
v 3.355 0.01906 4.867
v 3.355 0.01906 4.981
v 3.355 4.979 4.867
v 3.355 4.979 4.981
v 3.931 0.01906 4.789
v 3.931 0.01906 4.903
v 3.931 4.979 4.789
v 3.931 4.979 4.903
v 4.521 0.01906 4.602
v 4.521 0.01906 4.716
v 4.521 4.979 4.602
v 4.521 4.979 4.716
v 4.986 0.01906 4.321
v 4.986 0.01906 4.435
v 4.986 4.979 4.321
v 4.986 4.979 4.435
vn -0.7071 -0.7071 0
vn 0 0 -1
vn 0.7071 -0.7071 0
vn -0.5161 0 -0.8565
vn -0.5774 -0.5774 0.5774
vn 0.755 -0.498 0.4265
vn 0 0.7071 0.7071
vn -1 0 0
vn 0.365 0.7071 0.6056
vn 1 0 0
vn 0 0.7071 -0.7071
vn -1 0 0
vn -0.365 0.7071 -0.6056
vn 1 0 0
vn 0 -1 0
vn -0.4122 0 -0.9111
vn 0.2905 -0.7095 0.642
vn 0.2905 0.7095 0.642
vn -0.2905 0.7095 -0.642
vn 0 -1 0
vn -0.219 0 -0.9757
vn 0.1546 -0.7084 0.6886
vn 0.1546 0.7084 0.6886
vn -0.1546 0.7084 -0.6886
vn -0.04736 0.7079 -0.7047
vn 0 -1 0
vn -0.06705 0 -0.9977
vn 0.04736 -0.7079 0.7047
vn 0.04736 0.7079 0.7047
vn 0.5351 0.7071 -0.4622
vn -0.7071 0 -0.7071
vn -0.5263 0.7071 0.4722
vn -0.7071 0 -0.7071
vn 0.5756 0.7727 0.2676
vn -0.3625 0.4793 0.7993
vn -0.008404 -0.7071 0.7071
vn 0.7568 0 -0.6537
vn -0.008404 -0.7071 0.7071
vn -0.7444 0 0.6678
vn -0.5 -0.7071 -0.5
vn 0.7568 0 -0.6537
vn -0.5 -0.7071 -0.5
vn -0.7444 0 0.6678
vn 0.7071 0.7071 0
vn 0 0 -1
vn -0.7071 0.7071 0
vn 0 0 -1
vn 0.5774 0.5774 0.5774
vn -0.5774 0.5774 0.5774
vn 0 -0.7071 0.7071
vn 1 0 0
vn 0 -0.7071 0.7071
vn -1 0 0
vn 0 -0.7071 -0.7071
vn 1 0 0
vn 0 -0.7071 -0.7071
vn -1 0 0
vn 0.7071 0.7071 0
vn 0 0 -1
vn -0.7071 0.7071 0
vn 0 0 -1
vn 0.5774 0.5774 0.5774
vn -0.5774 0.5774 0.5774
vn 0 -0.7071 0.7071
vn 1 0 0
vn 0 -0.7071 0.7071
vn -1 0 0
vn 0 -0.7071 -0.7071
vn 1 0 0
vn 0 -0.7071 -0.7071
vn -1 0 0
vn 0.5351 0.7071 -0.4622
vn -0.7071 0 -0.7071
vn -0.5263 0.7071 0.4722
vn -0.7071 0 -0.7071
vn 0.5756 0.7727 0.2676
vn -0.3625 0.4793 0.7993
vn -0.008404 -0.7071 0.7071
vn 0.7568 0 -0.6537
vn -0.008404 -0.7071 0.7071
vn -0.7444 0 0.6678
vn -0.5 -0.7071 -0.5
vn 0.7568 0 -0.6537
vn -0.5 -0.7071 -0.5
vn -0.7444 0 0.6678
vn -0.7071 0.5 0.5
vn 0 0.7071 -0.7071
vn -0.7071 -0.5041 -0.4959
vn 0 0.7071 -0.7071
vn -0.4773 0.3292 0.8148
vn -0.7851 -0.5734 0.2344
vn 0.7071 -0.01238 0.707
vn 0 0.7071 0.7071
vn 0.7071 -0.01238 0.707
vn 0 -0.7128 -0.7013
vn 0.7071 0.5 -0.5
vn 0 0.7071 0.7071
vn 0.7071 0.5 -0.5
vn 0 -0.7128 -0.7013
vn -0.7071 0.5041 -0.4959
vn 0 -0.7071 -0.7071
vn -0.7071 -0.5 0.5
vn 0 -0.7071 -0.7071
vn -0.7851 0.5734 0.2344
vn -0.4773 -0.3292 0.8148
vn 0.7071 0.01238 0.707
vn 0 0.7128 -0.7013
vn 0.7071 0.01238 0.707
vn 0 -0.7071 0.7071
vn 0.7071 -0.5 -0.5
vn 0 0.7128 -0.7013
vn 0.7071 -0.5 -0.5
vn 0 -0.7071 0.7071
f 2//5 1//1 53//26 54//28
f 4//7 2//5 54//28 56//29
f 3//11 4//7 56//29 55//25
f 1//2 3//11 55//25 53//27
f 65//3 67//14 68//10 66//6
f 3//12 1//1 2//5 4//8
f 61//15 65//3 66//6 62//17
f 64//18 62//17 66//6 68//9
f 63//19 64//18 68//9 67//13
f 61//16 63//19 67//13 65//4
f 57//20 61//15 62//17 58//22
f 60//23 58//22 62//17 64//18
f 59//24 60//23 64//18 63//19
f 57//21 59//24 63//19 61//16
f 55//25 59//24 57//21 53//27
f 54//28 53//26 57//20 58//22
f 56//29 54//28 58//22 60//23
f 55//25 56//29 60//23 59//24
f 26//30 22//32 46//35 50//34
f 50//34 46//35 45//38 49//36
f 49//36 45//38 21//42 25//40
f 25//40 21//42 22//33 26//31
f 22//32 21//43 45//39 46//35
f 25//41 26//30 50//34 49//37
f 39//44 15//46 16//49 40//48
f 40//48 16//49 14//52 38//50
f 38//50 14//52 13//56 37//54
f 37//54 13//56 15//47 39//45
f 15//46 13//57 14//53 16//49
f 37//55 39//44 40//48 38//51
f 43//58 19//60 20//63 44//62
f 44//62 20//63 18//66 42//64
f 42//64 18//66 17//70 41//68
f 41//68 17//70 19//61 43//59
f 19//60 17//71 18//67 20//63
f 41//69 43//58 44//62 42//65
f 28//72 24//74 48//77 52//76
f 52//76 48//77 47//80 51//78
f 51//78 47//80 23//84 27//82
f 27//82 23//84 24//75 28//73
f 24//74 23//85 47//81 48//77
f 27//83 28//72 52//76 51//79
f 12//86 11//88 9//91 10//90
f 10//90 9//91 33//94 34//92
f 34//92 33//94 35//98 36//96
f 36//96 35//98 11//89 12//87
f 11//88 35//99 33//95 9//91
f 36//97 12//86 10//90 34//93
f 6//100 5//102 7//105 8//104
f 8//104 7//105 31//108 32//106
f 32//106 31//108 29//112 30//110
f 30//110 29//112 5//103 6//101
f 5//102 29//113 31//109 7//105
f 30//111 6//100 8//104 32//107
