# Rhino

o object_1
v 0.02673 0.0267 0
v 0.02673 0.0267 1.485
v 0.02673 0.2346 0.07705
v 0.02673 0.2346 1.485
v 0.02673 4.977 0
v 0.02673 4.977 0.07705
v 4.771 0.2346 0.07705
v 4.771 0.2346 1.485
v 4.771 4.977 0.07705
v 4.771 4.977 1.485
v 4.977 0.0267 0
v 4.977 0.0267 1.485
v 4.977 4.977 0
v 4.977 4.977 1.485
vn 0 -1 0
vn 0 -1 0
vn 0 -1 0
vn 0 -1 0
vn 1 0 0
vn 1 0 0
vn 1 0 0
vn 1 0 0
vn 0 1 0
vn 0 1 0
vn 0 1 0
vn 4.906e-17 1 0
vn 0 1 0
vn 5.607e-17 1 0
vn 0 0 -1
vn 0 0 -1
vn 0 0 -1
vn 0 0 -1
vn 0 0 1
vn 0 0 1
vn 0 0 1
vn 0 0 1
vn 0 0 1
vn 0 0 1
vn -1 0 0
vn -1 0 0
vn -1 0 0
vn -1 2.738e-19 0
vn -1 0 0
vn -1 -1.643e-19 0
vn 0 1 0
vn 0 1 0
vn 0 1 0
vn 0 1 0
vn -1 0 0
vn -1 0 0
vn -1 0 0
vn -1 0 0
vn 0 0 1
vn 0 0 1
vn 0 0 1
vn 0 0 1
f 2//2 1//1 11//3 12//4
f 12//6 11//5 13//7 14//8
f 14//10 13//9 9//14 10//13
f 13//9 5//11 6//12 9//14
f 5//16 13//18 11//17 1//15
f 2//19 8//23 4//24
f 14//21 8//23 12//20
f 2//19 12//20 8//23
f 10//22 8//23 14//21
f 6//28 5//25 3//30
f 1//26 3//30 5//25
f 4//29 3//30 1//26 2//27
f 4//32 8//34 7//33 3//31
f 8//38 10//37 9//36 7//35
f 6//42 3//39 7//40 9//41
