# Blender v2.62 (sub 0) OBJ File: 'fence_ 05x05_ b_output.blend'
# www.blender.org
mtllib fence_ 05x05_ b_output.mtl
o Cube.002_Cube.006
v 4.956886 0.059177 1.200583
v 4.652945 0.059175 1.200583
v 4.652924 4.986530 1.200583
v 4.956865 4.986531 1.200583
v 4.956886 0.059175 1.504524
v 4.652945 0.059177 1.504524
v 4.652924 4.986531 1.504524
v 4.956865 4.986531 1.504524
vn 0.000000 -0.000000 -1.000000
vn -0.000000 0.000000 1.000000
vn 0.000000 -1.000000 0.000000
vn -1.000000 -0.000004 0.000000
vn -0.000001 1.000000 -0.000002
vn 1.000000 0.000004 0.000000
usemtl 
s off
f 1//1 2//1 3//1 4//1
f 5//2 8//2 7//2 6//2
f 1//3 5//3 6//3 2//3
f 2//4 6//4 7//4 3//4
f 3//5 7//5 8//5 4//5
f 5//6 1//6 4//6 8//6
o Cube.001_Cube.007
v 4.955523 4.984432 0.016104
v 4.651582 4.984431 0.016104
v 4.651582 4.984431 1.227173
v 4.955523 4.984432 1.227173
v 4.955524 4.680491 0.016103
v 4.651584 4.680490 0.016104
v 4.651583 4.680490 1.227173
v 4.955524 4.680491 1.227173
vn -0.000005 1.000000 -0.000000
vn 0.000005 -1.000000 0.000000
vn -1.000000 -0.000004 -0.000001
vn 0.000000 0.000001 1.000000
vn 1.000000 0.000004 0.000001
usemtl 
s off
f 9//7 10//7 11//7 12//7
f 13//8 16//8 15//8 14//8
f 9//1 13//1 14//1 10//1
f 10//9 14//9 15//9 11//9
f 11//10 15//10 16//10 12//10
f 13//11 9//11 12//11 16//11
o Cube.008_Cube.014
v 4.663001 0.337818 0.016104
v 4.663001 0.033877 0.016104
v 4.663002 0.033877 1.227173
v 4.663002 0.337818 1.227173
v 4.966941 0.337818 0.016103
v 4.966941 0.033877 0.016104
v 4.966942 0.033877 1.227173
v 4.966942 0.337818 1.227173
vn -1.000000 0.000000 0.000001
vn 1.000000 -0.000000 -0.000001
vn -0.000001 -0.000001 -1.000000
vn 0.000000 1.000000 -0.000000
usemtl 
s off
f 17//12 18//12 19//12 20//12
f 21//13 24//13 23//13 22//13
f 17//14 21//14 22//14 18//14
f 18//3 22//3 23//3 19//3
f 19//10 23//10 24//10 20//10
f 21//15 17//15 20//15 24//15
o Cube.000_Cube.007
v 0.009857 0.337818 0.016104
v 0.009857 0.033877 0.016104
v 0.009858 0.033877 1.227173
v 0.009858 0.337818 1.227173
v 0.313798 0.337818 0.016103
v 0.313798 0.033877 0.016104
v 0.313799 0.033877 1.227173
v 0.313799 0.337818 1.227173
usemtl 
s off
f 25//12 26//12 27//12 28//12
f 29//13 32//13 31//13 30//13
f 25//14 29//14 30//14 26//14
f 26//3 30//3 31//3 27//3
f 27//10 31//10 32//10 28//10
f 29//15 25//15 28//15 32//15
o Cube.020_Cube.006
v 4.967739 0.337818 1.200583
v 4.967739 0.033877 1.200583
v 0.007198 0.033877 1.200583
v 0.007199 0.337818 1.200583
v 4.967740 0.337818 1.504524
v 4.967737 0.033877 1.504524
v 0.007197 0.033877 1.504524
v 0.007198 0.337818 1.504524
vn 1.000000 -0.000005 -0.000000
vn -1.000000 0.000004 -0.000002
usemtl 
s off
f 33//1 34//1 35//1 36//1
f 37//2 40//2 39//2 38//2
f 33//16 37//16 38//16 34//16
f 34//3 38//3 39//3 35//3
f 35//17 39//17 40//17 36//17
f 37//15 33//15 36//15 40//15
