# Rhino

o object_1
v 0.007588 0.009552 4.997
v 0.007588 4.991 4.997
v 4.989 0.009552 4.997
vn 0 0 1
vn 0 0 1
vn 0 0 1
f 2//2 1//3 3//1
o object_2
v 0.00481 4.373 4.827
v 0.00481 4.991 4.996
v 0.007555 0.009556 4.827
v 0.007555 0.009556 4.996
v 4.369 0.009556 4.827
v 4.987 0.009556 4.996
vn 0 0 -1
vn 0 0 -1
vn 0 0 -1
vn 0.2549 0.255 -0.9327
vn 0.2549 0.255 -0.9327
vn 0.2549 0.255 -0.9327
vn 0.2549 0.255 -0.9327
vn 0 1 0
vn 0 1 0
vn 0 1 0
vn 0 1 0
vn 1 0.0005875 -0.001075
vn 1 0.0005875 -0.001075
vn 1 0.0005875 -0.001075
vn 1 0.0005875 -0.001075
f 8//4 6//5 4//6
f 9//7 8//8 4//9 5//10
f 7//11 9//12 8//13 6//14
f 6//15 4//16 5//17 7//18
o object_3
v 0.01295 0.02179 3.345
v 0.01295 0.02179 4.031
v 0.05322 0.06205 3.345
v 0.1306 0.1394 4.027
vn -0.7071 0.7071 2.433e-07
vn -0.7071 0.7071 1.217e-07
vn -0.7071 0.7071 1.217e-07
vn -0.7071 0.7071 0
f 13//19 12//20 11//21
f 11//21 12//20 10//22
o object_4
v 0.01295 0.02179 4.031
v 0.01295 0.02179 4.134
v 0.1306 0.1394 4.027
v 0.1469 0.1557 4.13
vn -0.7071 0.7071 0
vn -0.7071 0.7071 0
vn -0.7071 0.7071 0
vn -0.7071 0.7071 0
f 17//23 16//24 15//25
f 15//25 16//24 14//26
o object_5
v 0.01295 0.02179 4.134
v 0.01295 0.02179 4.236
v 0.1469 0.1557 4.13
v 0.1693 0.1781 4.233
vn -0.7071 0.7071 0
vn -0.7071 0.7071 0
vn -0.7071 0.7071 0
vn -0.7071 0.7071 0
f 21//27 20//28 19//29
f 19//29 20//28 18//30
o object_6
v 0.01295 0.02179 4.236
v 0.01295 0.02179 4.339
v 0.1693 0.1781 4.233
v 0.1977 0.2066 4.336
vn -0.7071 0.7071 -1.361e-06
vn -0.7071 0.7071 -6.806e-07
vn -0.7071 0.7071 -6.806e-07
vn -0.7071 0.7071 0
f 25//31 24//32 23//33
f 23//33 24//32 22//34
o object_7
v 0.01295 0.02179 4.339
v 0.01295 0.02179 4.472
v 0.1977 0.2066 4.336
v 0.2879 0.2968 4.469
vn -0.7071 0.7071 1.241e-06
vn -0.7071 0.7071 6.205e-07
vn -0.7071 0.7071 6.205e-07
vn -0.7071 0.7071 0
f 29//35 28//36 27//37
f 27//37 28//36 26//38
o object_8
v 0.01295 0.02179 4.472
v 0.01295 0.02179 4.849
v 0.2879 0.2968 4.469
v 1.41 1.418 4.849
vn -0.7071 0.7071 -4.313e-08
vn -0.7071 0.7071 -2.156e-08
vn -0.7071 0.7071 -2.156e-08
vn -0.7071 0.7071 0
f 33//39 32//40 31//41
f 31//41 32//40 30//42
