# Rhino

o object_1
v 0.2099 0.2159 0.002259
v 0.2099 0.2159 4.898
v 0.2099 0.3924 0.002259
v 0.2099 0.3924 4.898
v 0.3864 0.2159 0.002259
v 0.3864 0.2159 4.898
v 0.3864 0.3924 0.002259
v 0.3864 0.3924 4.898
vn 0.7071 -0.7071 0
vn 0.5774 -0.5774 -0.5774
vn 0.5774 0.5774 -0.5774
vn 0.7071 0.7071 0
vn -0.7071 0 -0.7071
vn -0.7071 0 -0.7071
vn -0.7071 0 0.7071
vn -0.7071 0 0.7071
vn 0 0 1
vn 0 0 1
vn 0 1 0
vn 0 1 0
vn 0 -1 0
vn 0 -1 0
f 3//1 4//2 2//3 1//4
f 4//2 8//5 6//6 2//3
f 8//5 7//7 5//8 6//6
f 7//7 3//9 1//10 5//8
f 1//4 2//3 6//11 5//12
f 7//13 8//14 4//2 3//1
o object_2
v 0.2558 0.2153 4.289
v 0.2558 0.3918 4.289
v 0.3806 0.2153 4.164
v 0.3806 0.3918 4.164
v 0.8726 0.2153 4.906
v 0.8726 0.3918 4.906
v 1.106 0.2153 4.902
v 1.106 0.3918 4.902
vn 0.5 0.7071 -0.5
vn 0.3292 0.4773 -0.8148
vn -0.5734 0.7851 -0.2344
vn -0.5041 0.7071 0.4959
vn -0.01238 -0.7071 -0.707
vn -0.01238 -0.7071 -0.707
vn 0.5 -0.7071 0.5
vn 0.5 -0.7071 0.5
vn 0.7071 0 0.7071
vn 0.7071 0 0.7071
vn -0.7128 0 0.7013
vn -0.7128 0 0.7013
vn 0.7071 0 -0.7071
vn 0.7071 0 -0.7071
f 9//15 13//16 15//17 11//18
f 13//16 14//19 16//20 15//17
f 14//19 10//21 12//22 16//20
f 10//21 9//23 11//24 12//22
f 11//18 15//17 16//25 12//26
f 10//27 14//28 13//16 9//15
o object_3
v 0.2106 0.2387 4.289
v 0.2106 0.3635 4.164
v 0.2106 0.8111 4.927
v 0.2106 1.025 4.929
v 0.3871 0.2387 4.289
v 0.3871 0.3635 4.164
v 0.3871 0.8111 4.927
v 0.3871 1.025 4.929
vn 0.7071 -0.5351 0.4622
vn 0.7727 -0.5756 -0.2676
vn 0.4793 0.3625 -0.7993
vn 0.7071 0.5263 -0.4722
vn -0.7071 0.008404 -0.7071
vn -0.7071 0.008404 -0.7071
vn -0.7071 0.5 0.5
vn -0.7071 0.5 0.5
vn 0 0.7071 0.7071
vn 0 0.7071 0.7071
vn 0 0.7444 -0.6678
vn 0 0.7444 -0.6678
vn 0 -0.7568 0.6537
vn 0 -0.7568 0.6537
f 18//29 20//30 19//31 17//32
f 20//30 24//33 23//34 19//31
f 24//33 22//35 21//36 23//34
f 22//35 18//37 17//38 21//36
f 17//32 19//31 23//39 21//40
f 22//41 24//42 20//30 18//29
o object_4
v 0.002131 3.36 4.996
v 0.002131 3.939 4.918
v 1.323 3.072 4.996
v 1.553 3.604 4.918
vn 0.02889 0.1335 0.9906
vn 0.02889 0.1335 0.9906
vn 0.02889 0.1335 0.9906
vn 0.02889 0.1335 0.9906
f 28//43 26//44 25//45 27//46
o object_5
v 0.002131 3.36 4.881
v 0.002131 3.939 4.803
v 1.323 3.072 4.881
v 1.553 3.604 4.803
vn -0.02889 -0.1335 -0.9906
vn -0.02889 -0.1335 -0.9906
vn -0.02889 -0.1335 -0.9906
vn -0.02889 -0.1335 -0.9906
f 31//47 29//48 30//49 32//50
o object_6
v 0.002131 3.939 4.803
v 0.002131 4.531 4.615
v 1.553 3.604 4.803
v 1.788 4.148 4.615
vn 0.06484 0.3015 0.9513
vn 0.06484 0.3015 0.9513
vn 0.06484 0.3015 0.9513
vn 0.06484 0.3015 0.9513
f 36//51 34//52 33//53 35//54
o object_7
v 0.002131 3.939 4.918
v 0.002131 4.531 4.73
v 1.553 3.604 4.918
v 1.788 4.148 4.73
vn 0.06484 0.3015 0.9513
vn 0.06484 0.3015 0.9513
vn 0.06484 0.3015 0.9513
vn 0.06484 0.3015 0.9513
f 40//55 38//56 37//57 39//58
o object_8
v 0.002131 4.531 4.615
v 0.002131 4.999 4.333
v 1.788 4.148 4.615
v 1.973 4.578 4.333
vn 0.1097 0.5125 0.8517
vn 0.1097 0.5125 0.8517
vn 0.1097 0.5125 0.8517
vn 0.1097 0.5125 0.8517
f 44//59 42//60 41//61 43//62
o object_9
v 0.002131 4.531 4.73
v 0.002131 4.999 4.448
v 1.788 4.148 4.73
v 1.973 4.578 4.448
vn 0.1097 0.5125 0.8517
vn 0.1097 0.5125 0.8517
vn 0.1097 0.5125 0.8517
vn 0.1097 0.5125 0.8517
f 48//63 46//64 45//65 47//66
o object_10
v 0.002131 4.999 4.333
v 0.002131 4.999 4.448
v 1.973 4.578 4.333
v 1.973 4.578 4.448
vn 0.209 0.9779 0
vn 0.209 0.9779 0
vn 0.209 0.9779 0
vn 0.209 0.9779 0
f 51//67 49//68 50//69 52//70
o object_11
v 0.0009352 0.001942 4.881
v 0.002131 3.36 4.881
v 1.323 3.072 4.881
vn 0 0 1
vn 0 0 1
vn 0 0 1
f 55//71 54//72 53//73
o object_12
v 0.0009352 0.001942 4.996
v 0.002131 3.36 4.996
v 1.323 3.072 4.996
vn 0 0 1
vn 0 0 1
vn 0 0 1
f 58//74 57//75 56//76
o object_13
v 1.323 3.072 4.996
v 1.553 3.604 4.918
v 2.796 1.838 4.996
v 3.279 2.156 4.918
vn 0.08968 0.1069 0.9902
vn 0.08968 0.1069 0.9902
vn 0.08968 0.1069 0.9902
vn 0.08968 0.1069 0.9902
f 62//77 60//78 59//79 61//80
o object_14
v 1.323 3.072 4.881
v 1.553 3.604 4.803
v 2.796 1.838 4.881
v 3.279 2.156 4.803
vn -0.08969 -0.1069 -0.9902
vn -0.08969 -0.1069 -0.9902
vn -0.08969 -0.1069 -0.9902
vn -0.08969 -0.1069 -0.9902
f 65//81 63//82 64//83 66//84
o object_15
v 1.553 3.604 4.803
v 1.788 4.148 4.615
v 3.279 2.156 4.803
v 3.774 2.481 4.615
vn 0.2022 0.241 0.9492
vn 0.2022 0.241 0.9492
vn 0.2022 0.241 0.9492
vn 0.2022 0.241 0.9492
f 70//85 68//86 67//87 69//88
o object_16
v 1.553 3.604 4.918
v 1.788 4.148 4.73
v 3.279 2.156 4.918
v 3.774 2.481 4.73
vn 0.2022 0.241 0.9492
vn 0.2022 0.241 0.9492
vn 0.2022 0.241 0.9492
vn 0.2022 0.241 0.9492
f 74//89 72//90 71//91 73//92
o object_17
v 1.788 4.148 4.615
v 1.973 4.578 4.333
v 3.774 2.481 4.615
v 4.165 2.739 4.333
vn 0.3422 0.4079 0.8465
vn 0.3422 0.4079 0.8465
vn 0.3422 0.4079 0.8465
vn 0.3422 0.4079 0.8465
f 78//93 76//94 75//95 77//96
o object_18
v 1.788 4.148 4.73
v 1.973 4.578 4.448
v 3.774 2.481 4.73
v 4.165 2.739 4.448
vn 0.3422 0.4079 0.8465
vn 0.3422 0.4079 0.8465
vn 0.3422 0.4079 0.8465
vn 0.3422 0.4079 0.8465
f 82//97 80//98 79//99 81//100
o object_19
v 1.973 4.578 4.333
v 1.973 4.578 4.448
v 4.165 2.739 4.333
v 4.165 2.739 4.448
vn 0.6427 0.7661 0
vn 0.6427 0.7661 0
vn 0.6427 0.7661 0
vn 0.6427 0.7661 0
f 85//101 83//102 84//103 86//104
o object_20
v 0.0009352 0.001942 4.881
v 1.323 3.072 4.881
v 2.796 1.838 4.881
vn 0 0 1
vn 0 0 1
vn 0 0 1
f 89//105 88//106 87//107
o object_21
v 0.0009352 0.001942 4.996
v 1.323 3.072 4.996
v 2.796 1.838 4.996
vn 0 0 1
vn 0 0 1
vn 0 0 1
f 92//108 91//109 90//110
o object_22
v 2.796 1.838 4.996
v 3.279 2.156 4.918
v 3.347 0.001942 4.996
v 3.926 0.001942 4.918
vn 0.1337 0.04011 0.9902
vn 0.1337 0.04011 0.9902
vn 0.1337 0.04011 0.9902
vn 0.1337 0.04011 0.9902
f 96//111 94//112 93//113 95//114
o object_23
v 2.796 1.838 4.881
v 3.279 2.156 4.803
v 3.347 0.001942 4.881
v 3.926 0.001942 4.803
vn -0.1337 -0.04011 -0.9902
vn -0.1337 -0.04011 -0.9902
vn -0.1337 -0.04011 -0.9902
vn -0.1337 -0.04011 -0.9902
f 99//115 97//116 98//117 100//118
o object_24
v 3.279 2.156 4.803
v 3.774 2.481 4.615
v 3.926 0.001942 4.803
v 4.518 0.001942 4.615
vn 0.3013 0.09039 0.9492
vn 0.3013 0.09039 0.9492
vn 0.3013 0.09039 0.9492
vn 0.3013 0.09039 0.9492
f 104//119 102//120 101//121 103//122
o object_25
v 3.279 2.156 4.918
v 3.774 2.481 4.73
v 3.926 0.001942 4.918
v 4.518 0.001942 4.73
vn 0.3013 0.09039 0.9492
vn 0.3013 0.09039 0.9492
vn 0.3013 0.09039 0.9492
vn 0.3013 0.09039 0.9492
f 108//123 106//124 105//125 107//126
o object_26
v 3.774 2.481 4.615
v 4.165 2.739 4.333
v 4.518 0.001942 4.615
v 4.986 0.001942 4.333
vn 0.51 0.153 0.8465
vn 0.51 0.153 0.8465
vn 0.51 0.153 0.8465
vn 0.51 0.153 0.8465
f 112//127 110//128 109//129 111//130
o object_27
v 3.774 2.481 4.73
v 4.165 2.739 4.448
v 4.518 0.001942 4.73
v 4.986 0.001942 4.448
vn 0.51 0.153 0.8465
vn 0.51 0.153 0.8465
vn 0.51 0.153 0.8465
vn 0.51 0.153 0.8465
f 116//131 114//132 113//133 115//134
o object_28
v 4.165 2.739 4.333
v 4.165 2.739 4.448
v 4.986 0.001942 4.333
v 4.986 0.001942 4.448
vn 0.9578 0.2873 0
vn 0.9578 0.2873 0
vn 0.9578 0.2873 0
vn 0.9578 0.2873 0
f 119//135 117//136 118//137 120//138
o object_29
v 0.0009352 0.001942 4.881
v 2.796 1.838 4.881
v 3.347 0.001942 4.881
vn 0 0 1
vn 0 0 1
vn 0 0 1
f 123//139 122//140 121//141
o object_30
v 0.0009352 0.001942 4.996
v 2.796 1.838 4.996
v 3.347 0.001942 4.996
vn 0 0 1
vn 0 0 1
vn 0 0 1
f 126//142 125//143 124//144
o object_31
v 0.0009352 0.001942 4.881
v 0.0009352 0.001942 4.996
v 3.347 0.001942 4.881
v 3.347 0.001942 4.996
v 3.926 0.001942 4.803
v 3.926 0.001942 4.918
v 4.518 0.001942 4.615
v 4.518 0.001942 4.73
v 4.986 0.001942 4.333
v 4.986 0.001942 4.448
vn 0 -1 0
vn 0 -1 0
vn 0 -1 0
vn 0 -1 0
vn 0 -1 0
vn 0 -1 0
vn 0 -1 0
vn 0 -1 0
vn 0 -1 0
vn 0 -1 0
f 127//145 129//146 130//147 128//148
f 133//149 135//150 136//151 134//152
f 131//153 133//149 134//152 132//154
f 129//146 131//153 132//154 130//147
o object_32
v 0.0009352 0.001942 4.881
v 0.0009352 0.001942 4.996
v 0.002131 3.36 4.881
v 0.002131 3.36 4.996
v 0.002131 3.939 4.803
v 0.002131 3.939 4.918
v 0.002131 4.531 4.615
v 0.002131 4.531 4.73
v 0.002131 4.999 4.333
v 0.002131 4.999 4.448
vn -1 0.0003562 0
vn -1 0.0001781 0
vn -1 0.0001781 0
vn -1 0.0003562 0
vn -1 0 0
vn -1 0 0
vn -1 0 0
vn -1 0 0
vn -1 0 0
vn -1 0 0
f 138//155 140//156 139//157 137//158
f 143//159 144//160 146//161 145//162
f 141//163 142//164 144//160 143//159
f 140//156 142//164 141//163 139//157
