# Rhino

o object_1
v 6.864e-05 6.626e-05 -6.939e-18
v 6.864e-05 6.626e-05 0.07645
v 6.864e-05 4.566 0.07645
v 6.864e-05 4.566 1.473
v 6.864e-05 5 -1.388e-17
v 6.864e-05 5 1.473
v 4.566 6.626e-05 0.07645
v 4.566 6.626e-05 1.473
v 5 6.626e-05 0
v 5 6.626e-05 1.473
vn -1 9.854e-17 -9.198e-21
vn -1 9.854e-17 -9.198e-21
vn -1 9.854e-17 -9.198e-21
vn -1 9.854e-17 -9.198e-21
vn -1 9.854e-17 -9.198e-21
vn -1 9.854e-17 -9.198e-21
vn 0 -1 3.377e-16
vn 0 -1 3.377e-16
vn 0 -1 3.377e-16
vn 0 -1 3.377e-16
vn 0 -1 3.377e-16
vn 0 -1 3.377e-16
vn -0.7071 -0.7071 0
vn -0.7071 -0.7071 0
vn -0.7071 -0.7071 0
vn -0.7071 -0.7071 0
vn 0 0 1
vn 0 0 1
vn 4.121e-19 4.121e-19 1
vn 0 0 1
vn 0 0 1
vn 0 0 1
vn 8.325e-18 8.325e-18 1
vn 0 0 -1
vn 0 0 -1
vn 0 0 -1
vn 0.7071 0.7071 0
vn 0.7071 0.7071 0
vn 0.7071 0.7071 0
vn 0.7071 0.7071 0
f 2//3 3//4 1//1
f 5//2 1//1 3//4
f 4//5 6//6 3//4
f 5//2 3//4 6//6
f 7//9 2//7 1//8 9//12
f 10//11 7//9 9//12
f 8//10 7//9 10//11
f 8//16 4//14 3//15 7//13
f 3//18 2//19 7//17
f 4//22 8//23 10//20 6//21
f 5//25 9//24 1//26
f 10//28 9//27 5//29 6//30
