# Rhino

o object_1
v 0.02834 0.02492 0
v 0.02834 0.02492 1.485
v 0.02834 0.2309 0.07705
v 0.02834 0.2309 1.485
v 0.02834 4.975 0
v 0.02834 4.975 0.07705
v 4.979 0.02492 0
v 4.979 0.02492 1.485
v 4.979 0.2309 0.07705
v 4.979 0.2309 1.485
v 4.979 4.975 0
v 4.979 4.975 0.07705
vn 0 1 0
vn -1 0 0
vn 0 0 -1
vn 0 0 1
vn -1.643e-19 1 0
vn -1 -3.833e-19 0
vn 0 1 0
vn 0 0 -1
vn 1 0 0
vn 0 0 1
vn 2.738e-19 1 0
vn 1 -4.906e-17 0
vn 0 1 0
vn 0 4.337e-19 1
vn -1 0 0
vn 0 1 0
vn -1 0 0
vn 0 0 1
vn 0 1 0
vn 0 0 1
vn 1 -5.607e-17 0
vn 0 1 0
vn 0 0 1
vn 1 0 0
vn -1 0 0
vn 0 0 -1
vn 0 -1 0
vn -1 0 0
vn 0 0 1
vn 0 -1 0
vn 0 0 -1
vn 1 0 0
vn 0 -1 0
vn 0 0 1
vn 1 0 0
vn 0 -1 0
f 4//16 10//22 9//19 3//13
f 12//10 6//4 3//14 9//20
f 12//11 11//7 5//1 6//5
f 5//2 3//15 6//6
f 2//28 3//15 1//25
f 5//2 1//25 3//15
f 4//17 3//15 2//28
f 10//23 4//18 2//29 8//34
f 11//8 7//31 1//26 5//3
f 8//35 7//32 9//21 10//24
f 7//32 11//9 12//12 9//21
f 2//30 1//27 7//33 8//36
