# Blender v2.62 (sub 0) OBJ File: 'fence_ 05x05_ c_output.blend'
# www.blender.org
mtllib fence_ 05x05_ c_output.mtl
o Cube.008_Cube.014
v 4.681283 0.317628 0.003060
v 4.681283 0.010867 0.003060
v 4.681283 0.010867 1.225362
v 4.681283 0.317628 1.225362
v 4.988043 0.317628 0.003059
v 4.988043 0.010867 0.003060
v 4.988044 0.010867 1.225362
v 4.988044 0.317628 1.225362
v 4.681283 0.317628 1.495958
v 4.988044 0.317628 1.495958
v 4.681283 0.010868 1.495959
v 4.988044 0.010868 1.495959
v 0.009518 4.989392 1.495955
v 0.009518 4.682631 1.495955
v 0.009518 4.682631 1.225358
v 0.316278 4.989391 1.225358
v 0.316278 4.989392 1.495954
v 0.009518 4.989391 1.225358
vn -1.000000 0.000000 0.000000
vn 1.000000 -0.000000 -0.000000
vn -0.000001 -0.000001 -1.000000
vn 0.000000 -1.000000 0.000000
vn 0.000000 1.000000 -0.000000
vn 0.000000 -1.000000 0.000001
vn 0.000000 0.000001 1.000000
vn -0.707107 -0.707107 0.000001
vn 0.707107 0.707107 -0.000002
vn -0.000000 -0.000001 -1.000000
vn -1.000000 0.000000 0.000002
vn -0.000000 1.000000 -0.000002
usemtl 
s off
f 1//1 2//1 3//1 4//1
f 5//2 8//2 7//2 6//2
f 1//3 5//3 6//3 2//3
f 2//4 6//4 7//4 3//4
f 5//5 1//5 4//5 8//5
f 3//6 7//6 12//6 11//6
f 7//2 8//2 10//2 12//2
f 11//7 12//7 10//7 9//7
f 11//7 9//7 13//7 14//7
f 3//8 11//8 14//8 15//8
f 10//9 8//9 16//9 17//9
f 9//7 10//7 17//7 13//7
f 8//10 4//10 18//10 16//10
f 4//10 3//10 15//10 18//10
f 18//11 15//11 14//11 13//11
f 16//12 18//12 13//12 17//12
o Cube.000_Cube.007
v 0.012708 4.986944 0.007084
v 0.012708 4.680184 0.007084
v 0.012709 4.680184 1.229387
v 0.012709 4.986944 1.229387
v 0.319468 4.986944 0.007084
v 0.319468 4.680183 0.007085
v 0.319469 4.680184 1.229387
v 0.319469 4.986944 1.229387
vn -1.000000 -0.000000 0.000001
vn 1.000000 0.000000 -0.000001
vn -0.000001 -1.000000 0.000000
usemtl 
s off
f 19//13 20//13 21//13 22//13
f 23//14 26//14 25//14 24//14
f 19//3 23//3 24//3 20//3
f 20//15 24//15 25//15 21//15
f 21//7 25//7 26//7 22//7
f 23//5 19//5 22//5 26//5
