# Blender v2.64 (sub 0) OBJ File: 'aegis_illuminator_output.blend'
# www.blender.org
mtllib aegis_illuminator.mtl
o Cylinder.017_Cylinder.080
v 2.301767 2.499999 3.472148
v 2.415718 2.499999 3.559474
v 2.664155 3.486039 3.235291
v 2.550203 3.486039 3.147965
v 3.263934 3.894470 2.452642
v 3.149983 3.894470 2.365316
v 3.863713 3.486039 1.669994
v 3.749762 3.486039 1.582668
v 4.112150 2.499999 1.345810
v 3.998199 2.499999 1.258484
v 3.863713 1.513960 1.669994
v 3.749762 1.513960 1.582668
v 3.263934 1.105530 2.452642
v 3.149983 1.105530 2.365316
v 2.966301 2.445892 2.292722
v 2.999212 2.423480 2.249774
v 3.090043 2.423480 2.319382
v 3.057132 2.445892 2.362329
v 2.550203 1.513960 3.147965
v 2.664155 1.513960 3.235291
v 3.419747 1.795624 1.684624
v 3.597217 2.499999 1.453044
v 2.991295 1.503861 2.243707
v 2.562844 1.795624 2.802792
v 2.592284 2.185177 2.334564
v 2.783782 2.054772 2.084680
v 2.385374 2.499999 3.034371
v 2.991296 3.496138 2.243707
v 2.562844 3.204375 2.802792
v 3.419747 3.204375 1.684623
v 2.512963 2.499999 2.438070
v 2.019755 2.499999 2.060104
v 2.099075 2.185177 1.956598
v 2.975280 2.814823 1.834795
v 2.783782 2.945228 2.084680
v 2.975279 2.185177 1.834795
v 2.592284 2.814823 2.334564
v 3.054601 2.499999 1.731289
v 2.099075 2.814823 1.956598
v 2.290574 2.054772 1.706713
v 2.290574 2.945228 1.706713
v 2.482072 2.185177 1.456828
v 2.482072 2.814823 1.456828
v 2.561393 2.499999 1.353322
v 2.476486 2.499999 3.120209
v 2.656220 3.213363 2.885674
v 3.090139 3.508849 2.319456
v 3.524058 3.213363 1.753237
v 3.703793 2.499999 1.518702
v 3.524058 1.786636 1.753238
v 3.090139 1.491152 2.319456
v 2.656220 1.786636 2.885674
v 2.712916 2.499999 2.623362
v 2.796770 2.832817 2.513941
v 2.999213 2.970673 2.249774
v 3.201656 2.832817 1.985608
v 3.285510 2.499999 1.876187
v 3.201656 2.167183 1.985608
v 2.999212 2.029327 2.249774
v 2.796770 2.167183 2.513941
v 2.952668 2.499999 2.310510
v 2.966301 2.554108 2.292722
v 2.999213 2.576519 2.249774
v 3.032125 2.554108 2.206827
v 3.045758 2.499999 2.189037
v 3.032125 2.445892 2.206827
v 3.057132 2.554108 2.362329
v 3.043498 2.499999 2.380118
v 3.090043 2.576519 2.319382
v 3.122955 2.445892 2.276435
v 3.122955 2.554108 2.276435
v 3.136587 2.499999 2.258646
v 2.272503 2.388627 3.534329
v 2.314720 2.388627 3.440224
v 3.034011 2.388627 3.762911
v 2.991795 2.388627 3.857016
v 2.991795 2.611373 3.857016
v 2.272503 2.611373 3.534329
v 3.034011 2.611373 3.762911
v 2.314720 2.611373 3.440224
v 3.047160 2.435160 3.858238
v 3.047160 2.564839 3.858238
v 3.675033 2.564839 4.074100
v 3.675033 2.435160 4.074100
v 3.071738 2.435160 3.803452
v 3.071738 2.564839 3.803452
v 3.736411 2.612003 4.077699
v 3.736411 2.387996 4.077699
v 3.650455 2.435160 4.128886
v 3.650455 2.564839 4.128886
v 3.901210 2.612002 4.265316
v 3.943666 2.612002 4.170678
v 3.693954 2.612003 4.172337
v 3.693954 2.387996 4.172337
v 3.901210 2.387996 4.265316
v 3.943666 2.387996 4.170678
v 3.151379 3.807472 2.394044
v 3.761464 2.571850 4.192822
v 3.778950 2.587286 4.197495
v 3.168866 3.822908 2.398716
v 3.801780 2.589275 4.191118
v 3.191696 3.824898 2.392340
v 3.816581 2.576653 4.177427
v 3.206498 3.812275 2.378649
v 3.814683 2.556813 4.164442
v 3.204599 3.792435 2.365663
v 3.797198 2.541377 4.159770
v 3.187114 3.776999 2.360991
v 3.774367 2.539388 4.166146
v 3.164284 3.775010 2.367368
v 3.759567 2.552011 4.179837
v 3.149483 3.787633 2.381059
v 3.151379 1.192527 2.394044
v 3.168866 1.177091 2.398717
v 3.778950 2.412713 4.197494
v 3.761465 2.428149 4.192822
v 3.191696 1.175101 2.392340
v 3.801780 2.410724 4.191117
v 3.206498 1.187724 2.378649
v 3.816581 2.423346 4.177426
v 3.204599 1.207565 2.365664
v 3.814684 2.443187 4.164442
v 3.187114 1.223001 2.360991
v 3.797198 2.458622 4.159769
v 3.164284 1.224989 2.367368
v 3.774367 2.460611 4.166146
v 3.759566 2.447989 4.179836
v 3.149483 1.212367 2.381059
vn -0.561968 0.382683 0.733311
vn -0.232775 0.923880 0.303747
vn 0.232775 0.923880 -0.303747
vn 0.561969 0.382683 -0.733311
vn 0.561969 -0.382684 -0.733311
vn 0.232775 -0.923880 -0.303747
vn -0.232777 -0.923878 0.303750
vn -0.561968 -0.382683 0.733311
vn -0.232775 -0.923880 0.303747
vn -0.429190 -0.182680 -0.884547
vn -0.812390 -0.422129 -0.402280
vn -0.586335 -0.441028 -0.679489
vn -0.808573 -0.441029 -0.389491
vn -0.965719 -0.182680 -0.184434
vn -0.808573 0.441028 -0.389493
vn -0.586335 0.441028 -0.679489
vn -0.965719 0.182680 -0.184434
vn -0.429189 0.182680 -0.884548
vn -0.561967 -0.382684 0.733311
vn -0.599675 0.422130 -0.679850
vn -0.599675 -0.422130 -0.679851
vn -0.812390 0.422131 -0.402280
vn -0.449262 -0.174853 -0.876122
vn -0.962802 -0.174852 -0.206009
vn -0.962802 0.174852 -0.206008
vn -0.449263 0.174852 -0.876122
vn -0.793734 0.000000 -0.608265
vn -0.793728 0.000000 -0.608273
vn -0.793730 0.000000 -0.608271
vn -0.793730 0.000000 -0.608270
vn -0.561968 0.382683 0.733312
vn -0.232776 -0.923879 0.303749
vn 0.232776 0.923879 -0.303748
vn 0.232776 -0.923879 -0.303748
vn -0.232776 0.923879 0.303749
vn 0.561969 -0.382685 -0.733310
vn 0.970477 -0.200376 0.134255
vn 0.798108 -0.483751 0.359178
vn 0.554342 -0.483752 0.677266
vn 0.381972 -0.200377 0.902190
vn 0.381973 0.200377 0.902189
vn 0.554342 0.483751 0.677266
vn 0.798108 0.483751 0.359178
vn 0.970477 0.200376 0.134255
vn 0.899637 -0.085918 0.428102
vn 0.825728 -0.207426 0.524546
vn 0.721204 -0.207426 0.660938
vn 0.647295 -0.085919 0.757381
vn 0.647295 0.085920 0.757382
vn 0.721203 0.207427 0.660939
vn 0.825728 0.207426 0.524545
vn 0.899637 0.085918 0.428102
vn 0.793729 -0.000002 0.608271
vn 0.793731 0.000001 0.608269
vn 0.793728 -0.000001 0.608272
vn 0.793729 0.000002 0.608271
vn 0.793727 -0.000001 0.608275
vn 0.793733 -0.000003 0.608267
vn 0.793686 0.000000 0.608327
vn 0.793746 -0.000000 0.608249
vn 0.793728 0.000000 0.608273
vn 0.793735 0.000000 0.608264
vn 0.232776 0.923880 -0.303744
vn 0.232777 -0.923879 -0.303748
vn -0.232772 0.923882 0.303742
vn 0.561970 -0.382695 -0.733303
vn -0.561970 -0.382686 0.733308
vn -0.561972 0.382678 0.733311
vn 0.561973 0.382686 -0.733306
vn 0.000000 -1.000000 0.000000
vn -0.409315 0.000000 0.912393
vn 0.000000 1.000000 0.000000
vn 0.409316 0.000000 -0.912393
vn -0.912395 0.000000 -0.409311
vn -0.022069 0.000000 0.999756
vn 0.732053 0.000000 -0.681248
vn 0.614874 0.738811 0.275841
vn 0.614863 -0.738822 0.275837
vn 0.058531 0.000000 -0.998286
vn 0.000004 1.000000 0.000002
vn -0.578787 -0.773036 -0.259657
vn -0.706707 0.000000 0.707506
vn -0.578794 0.773030 -0.259660
vn 0.912394 0.000000 0.409313
vn 0.409318 0.000000 -0.912392
vn -0.409317 0.000000 0.912392
vn -0.622205 0.530659 0.575554
vn 0.079781 0.834059 0.545876
vn 0.735078 0.648903 0.196433
vn 0.959762 0.083628 -0.268072
vn 0.622234 -0.530634 -0.575545
vn -0.079793 -0.834060 -0.545873
vn 0.269209 -0.545299 0.793836
vn 0.269237 -0.545307 0.793821
vn 0.269242 -0.545311 0.793817
vn 0.269202 -0.545300 0.793838
vn 0.269260 -0.545295 0.793821
vn 0.269326 -0.545313 0.793786
vn -0.959767 -0.083674 0.268042
vn -0.735094 -0.648889 -0.196418
vn -0.269245 0.545289 -0.793830
vn -0.269219 0.545282 -0.793844
vn -0.269224 0.545286 -0.793840
vn -0.269261 0.545297 -0.793820
vn -0.269214 0.545301 -0.793833
vn -0.269328 0.545333 -0.793772
vn -0.622219 -0.530647 0.575550
vn 0.079803 -0.834061 0.545869
vn 0.735066 -0.648913 0.196444
vn 0.959763 -0.083632 -0.268070
vn 0.622235 0.530634 -0.575545
vn -0.079823 0.834063 -0.545864
vn 0.269230 0.545308 0.793823
vn 0.269265 0.545293 0.793821
vn 0.269232 0.545295 0.793830
vn 0.269230 0.545297 0.793831
vn 0.269212 0.545298 0.793836
vn 0.269319 0.545252 0.793831
vn -0.959765 0.083656 0.268054
vn -0.735074 0.648905 -0.196437
vn -0.269242 -0.545287 -0.793833
vn -0.269222 -0.545296 -0.793834
vn -0.269235 -0.545295 -0.793830
vn -0.269246 -0.545290 -0.793829
vn -0.269232 -0.545292 -0.793833
vn -0.269249 -0.545284 -0.793832
usemtl 
s off
f 1//1 2//1 3//1 4//1
f 4//2 3//2 5//2 6//2
f 6//3 5//3 7//3 8//3
f 8//4 7//4 9//4 10//4
f 10//5 9//5 11//5 12//5
f 12//6 11//6 13//6 14//6
f 15//7 16//7 17//7 18//7
f 2//8 1//8 19//8 20//8
f 14//9 13//9 20//9 19//9
f 10//10 12//10 21//10 22//10
f 23//11 24//11 25//11 26//11
f 12//12 14//12 23//12 21//12
f 14//13 19//13 24//13 23//13
f 19//14 1//14 27//14 24//14
f 4//15 6//15 28//15 29//15
f 6//16 8//16 30//16 28//16
f 1//17 4//17 29//17 27//17
f 8//18 10//18 22//18 30//18
f 25//19 31//19 32//19 33//19
f 28//20 30//20 34//20 35//20
f 21//21 23//21 26//21 36//21
f 29//22 28//22 35//22 37//22
f 22//23 21//23 36//23 38//23
f 24//24 27//24 31//24 25//24
f 27//25 29//25 37//25 31//25
f 30//26 22//26 38//26 34//26
f 32//27 39//27 33//27
f 39//28 40//28 33//28
f 39//28 41//28 40//28
f 41//29 42//29 40//29
f 41//29 43//29 42//29
f 43//30 44//30 42//30
f 31//31 37//31 39//31 32//31
f 34//4 38//4 44//4 43//4
f 26//32 25//32 33//32 40//32
f 35//33 34//33 43//33 41//33
f 36//34 26//34 40//34 42//34
f 37//35 35//35 41//35 39//35
f 38//36 36//36 42//36 44//36
f 45//37 46//37 3//37 2//37
f 46//38 47//38 5//38 3//38
f 47//39 48//39 7//39 5//39
f 48//40 49//40 9//40 7//40
f 49//41 50//41 11//41 9//41
f 50//42 51//42 13//42 11//42
f 51//43 52//43 20//43 13//43
f 52//44 45//44 2//44 20//44
f 53//45 54//45 46//45 45//45
f 54//46 55//46 47//46 46//46
f 55//47 56//47 48//47 47//47
f 56//48 57//48 49//48 48//48
f 57//49 58//49 50//49 49//49
f 58//50 59//50 51//50 50//50
f 59//51 60//51 52//51 51//51
f 60//52 53//52 45//52 52//52
f 61//53 62//53 54//53 53//53
f 62//54 63//54 55//54 54//54
f 63//55 64//55 56//55 55//55
f 64//53 65//53 57//53 56//53
f 65//56 66//56 58//56 57//56
f 66//57 16//57 59//57 58//57
f 16//58 15//58 60//58 59//58
f 15//56 61//56 53//56 60//56
f 67//59 68//59 18//59
f 67//60 18//60 69//60
f 18//60 17//60 69//60
f 17//61 70//61 69//61
f 70//61 71//61 69//61
f 70//62 72//62 71//62
f 64//63 63//63 69//63 71//63
f 16//64 66//64 70//64 17//64
f 63//65 62//65 67//65 69//65
f 66//66 65//66 72//66 70//66
f 61//67 15//67 18//67 68//67
f 62//68 61//68 68//68 67//68
f 65//69 64//69 71//69 72//69
f 73//70 74//70 75//70 76//70
f 78//71 73//71 76//71 77//71
f 77//72 79//72 80//72 78//72
f 74//73 80//73 79//73 75//73
f 74//74 73//74 78//74 80//74
f 81//75 82//75 77//75 76//75
f 83//73 84//73 85//73 86//73
f 86//76 85//76 75//76 79//76
f 82//77 86//77 79//77 77//77
f 85//78 81//78 76//78 75//78
f 87//79 88//79 84//79 83//79
f 84//70 89//70 81//70 85//70
f 89//71 90//71 82//71 81//71
f 90//72 83//72 86//72 82//72
f 91//80 92//80 87//80 93//80
f 88//81 94//81 89//81 84//81
f 94//82 93//82 90//82 89//82
f 93//83 87//83 83//83 90//83
f 92//84 91//84 95//84 96//84
f 92//85 96//85 88//85 87//85
f 96//70 95//70 94//70 88//70
f 95//86 91//86 93//86 94//86
f 97//87 98//87 99//87 100//87
f 100//88 99//88 101//88 102//88
f 102//89 101//89 103//89 104//89
f 104//90 103//90 105//90 106//90
f 106//91 105//91 107//91 108//91
f 108//92 107//92 109//92 110//92
f 99//93 98//93 111//93
f 99//94 111//94 101//94
f 111//95 109//95 101//95
f 109//96 107//96 101//96
f 107//97 103//97 101//97
f 107//98 105//98 103//98
f 98//99 97//99 112//99 111//99
f 110//100 109//100 111//100 112//100
f 97//101 100//101 112//101
f 100//102 102//102 112//102
f 102//103 110//103 112//103
f 102//104 108//104 110//104
f 102//105 104//105 108//105
f 104//106 106//106 108//106
f 113//107 114//107 115//107 116//107
f 114//108 117//108 118//108 115//108
f 117//109 119//109 120//109 118//109
f 119//110 121//110 122//110 120//110
f 121//111 123//111 124//111 122//111
f 123//112 125//112 126//112 124//112
f 126//113 127//113 116//113
f 115//114 126//114 116//114
f 115//115 124//115 126//115
f 115//116 118//116 124//116
f 118//117 122//117 124//117
f 118//118 120//118 122//118
f 128//119 113//119 116//119 127//119
f 125//120 128//120 127//120 126//120
f 113//121 128//121 125//121
f 113//122 125//122 114//122
f 125//123 123//123 114//123
f 123//124 117//124 114//124
f 123//125 121//125 117//125
f 121//126 119//126 117//126
o Cube_Cube.001
v 1.995033 2.461554 0.011692
v 1.995033 2.938566 0.015455
v 3.004967 2.938566 0.015455
v 3.004967 2.461554 0.011692
v 1.995033 2.461554 1.002060
v 1.995033 3.152564 1.002060
v 3.004967 3.152564 1.002060
v 3.004967 2.461554 1.002060
v 1.995033 2.882922 1.002060
v 1.995033 2.882922 0.011692
v 3.004967 2.882922 1.002060
v 3.004967 2.882922 0.011692
v 1.995033 3.240533 1.415607
v 3.004967 3.240533 1.415607
v 1.995033 2.960347 1.419370
v 3.004967 2.960347 1.419370
v 2.100406 3.240533 1.893627
v 2.899594 3.240533 1.893627
v 2.100406 2.960347 1.897390
v 2.899594 2.960347 1.897390
v 1.995033 2.538446 0.011692
v 1.995033 2.061434 0.015455
v 3.004967 2.061434 0.015455
v 3.004967 2.538446 0.011692
v 1.995033 2.538446 1.002060
v 1.995033 1.847436 1.002060
v 3.004967 1.847436 1.002060
v 3.004967 2.538446 1.002060
v 1.995033 2.117078 1.002060
v 1.995033 2.117078 0.011692
v 3.004967 2.117078 1.002060
v 3.004967 2.117078 0.011692
v 1.995033 1.759467 1.415607
v 3.004967 1.759467 1.415607
v 1.995033 2.039652 1.419370
v 3.004967 2.039653 1.419370
v 2.100406 1.759467 1.893627
v 2.899594 1.759467 1.893627
v 2.100406 2.039653 1.897390
v 2.899594 2.039653 1.897390
vn -1.000000 -0.000000 0.000000
vn 0.000000 0.977275 -0.211975
vn 1.000000 0.000000 0.000000
vn 0.000000 0.067474 -0.997721
vn 1.000000 -0.000001 0.000000
vn 0.000000 0.000000 -1.000000
vn -0.000000 0.000000 1.000000
vn -0.976551 0.002891 0.215267
vn 0.000000 0.978116 -0.208062
vn 0.000000 -0.983220 0.182421
vn 0.000000 0.013430 0.999910
vn 0.976551 0.002891 0.215267
vn 0.000000 -0.977275 -0.211974
vn 0.000000 -0.067474 -0.997721
vn 1.000000 0.000001 0.000000
vn -0.976551 -0.002891 0.215267
vn 0.000000 -0.978115 -0.208063
vn -0.000000 0.983220 0.182421
vn 0.000000 -0.013430 0.999910
vn 0.976551 -0.002891 0.215268
usemtl 
s off
f 137//127 134//127 130//127 138//127
f 134//128 135//128 131//128 130//128
f 139//129 136//129 132//129 140//129
f 129//70 132//70 136//70 133//70
f 138//130 130//130 131//130 140//130
f 143//127 141//127 134//127 137//127
f 138//127 129//127 133//127 137//127
f 135//131 139//131 140//131 131//131
f 129//132 138//132 140//132 132//132
f 136//133 139//133 137//133 133//133
f 147//134 145//134 141//134 143//134
f 141//135 142//135 135//135 134//135
f 144//136 143//136 137//136 139//136
f 139//129 135//129 142//129 144//129
f 148//137 146//137 145//137 147//137
f 145//72 146//72 142//72 141//72
f 144//138 142//138 146//138 148//138
f 148//70 147//70 143//70 144//70
f 157//127 158//127 150//127 154//127
f 154//139 150//139 151//139 155//139
f 159//129 160//129 152//129 156//129
f 156//72 152//72 149//72 153//72
f 158//140 160//140 151//140 150//140
f 163//127 157//127 154//127 161//127
f 153//127 149//127 158//127 157//127
f 155//141 151//141 160//141 159//141
f 149//132 152//132 160//132 158//132
f 156//133 153//133 157//133 159//133
f 167//142 163//142 161//142 165//142
f 161//143 154//143 155//143 162//143
f 164//144 159//144 157//144 163//144
f 159//129 164//129 162//129 155//129
f 168//145 167//145 165//145 166//145
f 165//70 161//70 162//70 166//70
f 164//146 168//146 166//146 162//146
f 168//72 164//72 163//72 167//72
o Cylinder_Cylinder.001
v 2.500000 3.050439 1.513807
v 2.500000 3.537671 1.513807
v 2.407548 3.050439 1.552102
v 2.407548 3.537671 1.552102
v 2.369253 3.050439 1.644554
v 2.369253 3.537671 1.644554
v 2.407548 3.050439 1.737006
v 2.407548 3.537671 1.737006
v 2.500000 3.050439 1.775301
v 2.500000 3.537671 1.775301
v 2.592452 3.050439 1.737006
v 2.592452 3.537671 1.737006
v 2.630747 3.050439 1.644554
v 2.630747 3.537671 1.644554
v 2.592452 3.050439 1.552102
v 2.592452 3.537671 1.552102
v 2.500000 1.949561 1.513807
v 2.500000 1.462329 1.513807
v 2.407548 1.949561 1.552102
v 2.407548 1.462329 1.552102
v 2.369253 1.949561 1.644554
v 2.369253 1.462329 1.644554
v 2.407548 1.949561 1.737006
v 2.407548 1.462329 1.737006
v 2.500000 1.949561 1.775301
v 2.500000 1.462329 1.775301
v 2.592452 1.949561 1.737006
v 2.592452 1.462329 1.737006
v 2.630747 1.949561 1.644554
v 2.630747 1.462329 1.644554
v 2.592452 1.949561 1.552102
v 2.592452 1.462329 1.552102
vn 0.382683 0.000000 0.923880
vn 0.923880 0.000000 0.382683
vn 0.923880 0.000000 -0.382683
vn 0.382683 -0.000000 -0.923880
vn -0.382683 -0.000000 -0.923880
vn -0.923880 0.000000 -0.382683
vn -0.382683 0.000000 0.923880
vn -0.923880 0.000000 0.382683
vn 0.382684 0.000000 0.923880
vn 0.382684 0.000000 -0.923880
vn -0.382684 0.000000 -0.923880
vn -0.382684 0.000000 0.923880
usemtl 
s off
f 169//147 170//147 172//147 171//147
f 171//148 172//148 174//148 173//148
f 173//149 174//149 176//149 175//149
f 175//150 176//150 178//150 177//150
f 177//151 178//151 180//151 179//151
f 179//152 180//152 182//152 181//152
f 172//70 170//70 184//70
f 172//70 184//70 174//70
f 184//70 182//70 174//70
f 182//70 180//70 174//70
f 180//70 176//70 174//70
f 180//70 178//70 176//70
f 170//153 169//153 183//153 184//153
f 181//154 182//154 184//154 183//154
f 169//72 171//72 183//72
f 171//72 173//72 183//72
f 173//72 181//72 183//72
f 173//72 179//72 181//72
f 173//72 175//72 179//72
f 175//72 177//72 179//72
f 185//155 187//155 188//155 186//155
f 187//148 189//148 190//148 188//148
f 189//149 191//149 192//149 190//149
f 191//156 193//156 194//156 192//156
f 193//157 195//157 196//157 194//157
f 195//152 197//152 198//152 196//152
f 188//72 200//72 186//72
f 188//72 190//72 200//72
f 190//72 198//72 200//72
f 190//72 196//72 198//72
f 190//72 192//72 196//72
f 192//72 194//72 196//72
f 199//158 185//158 186//158 200//158
f 197//154 199//154 200//154 198//154
f 185//70 199//70 187//70
f 199//70 189//70 187//70
f 199//70 197//70 189//70
f 197//70 195//70 189//70
f 195//70 191//70 189//70
f 195//70 193//70 191//70
