# Blender v2.62 (sub 0) OBJ File: ' ladder_output.blend'
# www.blender.org
mtllib  ladder_output.mtl
o Cube.002_Cube.001
v 1.841908 0.213670 0.286649
v 1.841908 0.213670 0.711350
v 1.841908 0.213670 1.136051
v 1.841908 0.213670 1.560752
v 1.841908 0.213670 1.985453
v 1.841908 0.213670 2.410154
v 1.841908 0.213670 2.834855
v 1.841908 0.213670 3.259557
v 1.841908 0.213670 3.684258
v 1.841908 0.213670 4.108959
v 1.841908 0.213670 4.533660
v 1.841908 0.115267 0.286649
v 1.841908 0.115267 0.711350
v 1.841908 0.115267 1.136051
v 1.841908 0.115267 1.560752
v 1.841908 0.115267 1.985453
v 1.841908 0.115267 2.410154
v 1.841908 0.115267 2.834855
v 1.841908 0.115267 3.259557
v 1.841908 0.115267 3.684258
v 1.841908 0.115267 4.108959
v 1.841908 0.115267 4.533660
v 1.841908 0.115267 0.371589
v 1.841908 0.115267 0.796290
v 1.841908 0.115267 1.220991
v 1.841908 0.115267 1.645692
v 1.841908 0.115267 2.070394
v 1.841908 0.115267 2.495095
v 1.841908 0.115267 2.919796
v 1.841908 0.115267 3.344497
v 1.841908 0.115267 3.769198
v 1.841908 0.115267 4.193899
v 1.841908 0.115267 4.618600
v 1.841908 0.213670 0.371589
v 1.841908 0.213670 0.796290
v 1.841908 0.213670 1.220991
v 1.841908 0.213670 1.645692
v 1.841908 0.213670 2.070394
v 1.841908 0.213670 2.495095
v 1.841908 0.213670 2.919796
v 1.841908 0.213670 3.344497
v 1.841908 0.213670 3.769198
v 1.841908 0.213670 4.193899
v 1.841908 0.213670 4.618600
v 3.167114 0.213670 0.286649
v 3.167114 0.213670 0.711350
v 3.167113 0.213670 1.136051
v 3.167113 0.213670 1.560752
v 3.167113 0.213670 1.985453
v 3.167113 0.213670 2.410154
v 3.167113 0.213670 2.834855
v 3.167113 0.213670 3.259557
v 3.167113 0.213670 3.684258
v 3.167113 0.213670 4.108959
v 3.167113 0.213670 4.533660
v 3.167114 0.115267 0.286649
v 3.167114 0.115267 0.711350
v 3.167113 0.115267 1.136051
v 3.167113 0.115267 1.560752
v 3.167113 0.115267 1.985453
v 3.167113 0.115267 2.410154
v 3.167113 0.115267 2.834855
v 3.167113 0.115267 3.259557
v 3.167113 0.115267 3.684258
v 3.167113 0.115267 4.108959
v 3.167113 0.115267 4.533660
v 3.167114 0.115267 0.371589
v 3.167113 0.115267 0.796290
v 3.167113 0.115267 1.220991
v 3.167113 0.115267 1.645692
v 3.167113 0.115267 2.070394
v 3.167113 0.115267 2.495095
v 3.167113 0.115267 2.919796
v 3.167113 0.115267 3.344497
v 3.167113 0.115267 3.769198
v 3.167113 0.115267 4.193899
v 3.167113 0.115267 4.618600
v 3.167114 0.213670 0.371589
v 3.167113 0.213670 0.796290
v 3.167113 0.213670 1.220991
v 3.167113 0.213670 1.645692
v 3.167113 0.213670 2.070394
v 3.167113 0.213670 2.495095
v 3.167113 0.213670 2.919796
v 3.167113 0.213670 3.344497
v 3.167113 0.213670 3.769198
v 3.167113 0.213670 4.193899
v 3.167113 0.213670 4.618600
vn -1.000000 0.000000 -0.000000
vn 1.000000 -0.000000 0.000000
vn 1.000000 0.000000 0.000003
vn 0.000000 -0.000000 -1.000000
vn 0.000000 -0.000001 -1.000000
vn -0.000000 -1.000000 0.000000
vn -0.000000 0.000000 1.000000
vn 0.000000 1.000000 -0.000000
usemtl 
s off
f 1//1 12//1 23//1 34//1
f 2//1 13//1 24//1 35//1
f 3//1 14//1 25//1 36//1
f 4//1 15//1 26//1 37//1
f 5//1 16//1 27//1 38//1
f 6//1 17//1 28//1 39//1
f 7//1 18//1 29//1 40//1
f 8//1 19//1 30//1 41//1
f 9//1 20//1 31//1 42//1
f 10//1 21//1 32//1 43//1
f 11//1 22//1 33//1 44//1
f 45//2 78//2 67//2 56//2
f 46//3 79//3 68//3 57//3
f 47//2 80//2 69//2 58//2
f 48//2 81//2 70//2 59//2
f 49//2 82//2 71//2 60//2
f 50//2 83//2 72//2 61//2
f 51//2 84//2 73//2 62//2
f 52//2 85//2 74//2 63//2
f 53//2 86//2 75//2 64//2
f 54//2 87//2 76//2 65//2
f 55//2 88//2 77//2 66//2
f 1//4 45//4 56//4 12//4
f 2//4 46//4 57//4 13//4
f 3//5 47//5 58//5 14//5
f 4//5 48//5 59//5 15//5
f 5//5 49//5 60//5 16//5
f 6//5 50//5 61//5 17//5
f 7//4 51//4 62//4 18//4
f 8//4 52//4 63//4 19//4
f 9//4 53//4 64//4 20//4
f 10//4 54//4 65//4 21//4
f 11//4 55//4 66//4 22//4
f 12//6 56//6 67//6 23//6
f 13//6 57//6 68//6 24//6
f 14//6 58//6 69//6 25//6
f 15//6 59//6 70//6 26//6
f 16//6 60//6 71//6 27//6
f 17//6 61//6 72//6 28//6
f 18//6 62//6 73//6 29//6
f 19//6 63//6 74//6 30//6
f 20//6 64//6 75//6 31//6
f 21//6 65//6 76//6 32//6
f 22//6 66//6 77//6 33//6
f 23//7 67//7 78//7 34//7
f 24//7 68//7 79//7 35//7
f 25//7 69//7 80//7 36//7
f 26//7 70//7 81//7 37//7
f 27//7 71//7 82//7 38//7
f 28//7 72//7 83//7 39//7
f 29//7 73//7 84//7 40//7
f 30//7 74//7 85//7 41//7
f 31//7 75//7 86//7 42//7
f 32//7 76//7 87//7 43//7
f 33//7 77//7 88//7 44//7
f 45//8 1//8 34//8 78//8
f 46//8 2//8 35//8 79//8
f 47//8 3//8 36//8 80//8
f 48//8 4//8 37//8 81//8
f 49//8 5//8 38//8 82//8
f 50//8 6//8 39//8 83//8
f 51//8 7//8 40//8 84//8
f 52//8 8//8 41//8 85//8
f 53//8 9//8 42//8 86//8
f 54//8 10//8 43//8 87//8
f 55//8 11//8 44//8 88//8
o Cube.001_Cube.002
v 3.154437 0.289552 0.031068
v 3.154437 0.039385 0.031068
v 2.988786 0.039385 0.031068
v 2.988787 0.289552 0.031068
v 3.154437 0.289552 4.834292
v 3.154437 0.039384 4.834292
v 2.988786 0.039385 4.834292
v 2.988786 0.289552 4.834292
usemtl 
s off
f 89//4 90//4 91//4 92//4
f 93//7 96//7 95//7 94//7
f 89//2 93//2 94//2 90//2
f 90//6 94//6 95//6 91//6
f 91//1 95//1 96//1 92//1
f 93//8 89//8 92//8 96//8
o Cube_Cube.001
v 2.017659 0.289552 0.031068
v 2.017659 0.039385 0.031068
v 1.852009 0.039385 0.031068
v 1.852009 0.289552 0.031068
v 2.017659 0.289552 4.834292
v 2.017659 0.039384 4.834292
v 1.852009 0.039385 4.834292
v 1.852009 0.289552 4.834292
usemtl 
s off
f 97//4 98//4 99//4 100//4
f 101//7 104//7 103//7 102//7
f 97//2 101//2 102//2 98//2
f 98//6 102//6 103//6 99//6
f 99//1 103//1 104//1 100//1
f 101//8 97//8 100//8 104//8
