# Rhino

v 7.106767177581787 3.096085071563721 8.522173881530762
v -0.8481780290603638 3.244986057281494 9.929072380065918
v -2.115063905715942 3.268698930740356 2.763283967971802
v 5.83988094329834 3.119798898696899 1.356384992599487
v -0.8436930179595947 3.484592914581299 9.929072380065918
v 7.111250877380371 3.335692882537842 8.522173881530762
v 5.844366073608398 3.359405994415283 1.356384992599487
v -2.110579013824463 3.508306980133057 2.763283967971802
v 5.844366073608398 3.359405994415283 1.356384992599487
v 5.83988094329834 3.119798898696899 1.356384992599487
v -2.115063905715942 3.268698930740356 2.763283967971802
v -2.110579013824463 3.508306980133057 2.763283967971802
v -2.110579013824463 3.508306980133057 2.763283967971802
v -2.115063905715942 3.268698930740356 2.763283967971802
v -0.8481780290603638 3.244986057281494 9.929072380065918
v -0.8436930179595947 3.484592914581299 9.929072380065918
v -0.8436930179595947 3.484592914581299 9.929072380065918
v -0.8481780290603638 3.244986057281494 9.929072380065918
v 7.106767177581787 3.096085071563721 8.522173881530762
v 7.111250877380371 3.335692882537842 8.522173881530762
v 7.111250877380371 3.335692882537842 8.522173881530762
v 7.106767177581787 3.096085071563721 8.522173881530762
v 5.83988094329834 3.119798898696899 1.356384992599487
v 5.844366073608398 3.359405994415283 1.356384992599487
v 6.107277870178223 1.415071964263916 10.0237455368042
v -1.877006053924561 1.563971996307373 8.794221878051758
v -0.7690349817276001 1.587685942649841 1.602148056030273
v 7.215249061584473 1.438786029815674 2.831670999526978
v -1.872758984565735 1.803580045700073 8.795666694641113
v 6.111524105072022 1.65467894077301 10.02518939971924
v 7.219494819641113 1.678393006324768 2.833115100860596
v -0.7647889852523804 1.827293038368225 1.603592038154602
v 7.219494819641113 1.678393006324768 2.833115100860596
v 7.215249061584473 1.438786029815674 2.831670999526978
v -0.7690349817276001 1.587685942649841 1.602148056030273
v -0.7647889852523804 1.827293038368225 1.603592038154602
v -0.7647889852523804 1.827293038368225 1.603592038154602
v -0.7690349817276001 1.587685942649841 1.602148056030273
v -1.877006053924561 1.563971996307373 8.794221878051758
v -1.872758984565735 1.803580045700073 8.795666694641113
v -1.872758984565735 1.803580045700073 8.795666694641113
v -1.877006053924561 1.563971996307373 8.794221878051758
v 6.107277870178223 1.415071964263916 10.0237455368042
v 6.111524105072022 1.65467894077301 10.02518939971924
v 6.111524105072022 1.65467894077301 10.02518939971924
v 6.107277870178223 1.415071964263916 10.0237455368042
v 7.215249061584473 1.438786029815674 2.831670999526978
v 7.219494819641113 1.678393006324768 2.833115100860596
vn -0.01871469989418984 -0.9998248815536499 9.99999993922529e-09
vn -0.01871475018560886 -0.9998248815536499 7.999999951380232e-08
vn -0.01871469989418984 -0.9998248815536499 9.99999993922529e-09
vn -0.01871464960277081 -0.9998248815536499 -6.999999868639861e-08
vn 0.01871469989418984 0.9998248815536499 -9.99999993922529e-09
vn 0.01871462911367416 0.9998248815536499 -5.99999978589949e-08
vn 0.01871469989418984 0.9998248815536499 -9.99999993922529e-09
vn 0.01871477067470551 0.9998248815536499 5.000000058430487e-08
vn -0.1740956157445908 0.003258740063756704 -0.9847233891487122
vn -0.1740956157445908 0.003258750075474381 -0.9847233891487122
vn -0.1740956157445908 0.003258740063756704 -0.9847233891487122
vn -0.1740956157445908 0.003258730052039027 -0.9847233891487122
vn -0.9845508933067322 0.01842892915010452 0.1741261035203934
vn -0.9845508933067322 0.01842889934778214 0.1741261035203934
vn -0.9845508933067322 0.01842892915010452 0.1741261035203934
vn -0.9845508933067322 0.01842897012829781 0.1741261035203934
vn 0.1740955263376236 -0.003258380107581615 0.9847233891487122
vn 0.1740954965353012 -0.003258750075474381 0.9847233891487122
vn 0.1740955263376236 -0.003258380107581615 0.9847233891487122
vn 0.1740955412387848 -0.003258009906858206 0.9847233891487122
vn 0.984550952911377 -0.01842688024044037 -0.1741260141134262
vn 0.984550952911377 -0.01842479035258293 -0.174126073718071
vn 0.984550952911377 -0.01842688024044037 -0.1741260141134262
vn 0.984550952911377 -0.01842897012829781 -0.1741259545087814
vn -0.0177178792655468 -0.9998248815536499 -0.006026179995387793
vn -0.0177178792655468 -0.9998248815536499 -0.006026179995387793
vn -0.0177178792655468 -0.9998248815536499 -0.006026179995387793
vn -0.0177178792655468 -0.9998248815536499 -0.006026179995387793
vn 0.01771795004606247 0.9998248815536499 0.00602611992508173
vn 0.01771800965070725 0.9998248815536499 0.006026200018823147
vn 0.01771795004606247 0.9998248815536499 0.00602611992508173
vn 0.01771789975464344 0.9998248815536499 0.006026039831340313
vn 0.1522574126720429 0.003258130047470331 -0.9883354902267456
vn 0.1522574126720429 0.003258130047470331 -0.9883354902267456
vn 0.1522574126720429 0.003258130047470331 -0.9883354902267456
vn 0.1522574126720429 0.003258130047470331 -0.9883354902267456
vn -0.988182008266449 0.0184306800365448 -0.1521729826927185
vn -0.9881820678710938 0.01842834055423737 -0.1521730870008469
vn -0.988182008266449 0.0184306800365448 -0.1521729826927185
vn -0.988182008266449 0.01843301951885223 -0.1521728932857513
vn -0.1522574126720429 -0.003257809905335307 0.9883354902267456
vn -0.1522575914859772 -0.003261609934270382 0.9883354902267456
vn -0.1522574126720429 -0.003257809905335307 0.9883354902267456
vn -0.1522572338581085 -0.003254010109230876 0.9883355498313904
vn 0.9881820678710938 -0.0184280201792717 0.1521730720996857
vn 0.9881820678710938 -0.01842769980430603 0.1521730571985245
vn 0.9881820678710938 -0.0184280201792717 0.1521730720996857
vn 0.9881820678710938 -0.01842834055423737 0.1521730870008469
f 1//1 2//2 3//3 4//4
f 5//5 6//6 7//7 8//8
f 9//9 10//10 11//11 12//12
f 13//13 14//14 15//15 16//16
f 17//17 18//18 19//19 20//20
f 21//21 22//22 23//23 24//24
f 25//25 26//26 27//27 28//28
f 29//29 30//30 31//31 32//32
f 33//33 34//34 35//35 36//36
f 37//37 38//38 39//39 40//40
f 41//41 42//42 43//43 44//44
f 45//45 46//46 47//47 48//48
