# Rhino

o object_1
v 1.493 -0.9777 7.872
v 1.493 -0.9777 7.973
v 1.493 -0.5839 7.478
v 1.493 5.583 7.478
v 1.493 5.952 7.848
v 1.493 5.952 7.973
v 3.473 -0.9777 7.872
v 3.473 -0.9777 7.973
v 3.473 -0.5839 7.478
v 3.473 5.583 7.478
v 3.473 5.952 7.848
v 3.473 5.952 7.973
vn 0 -0.7071 -0.7071
vn 0 -0.7071 -0.7071
vn 0 -0.7071 -0.7071
vn 0 -0.7071 -0.7071
vn 0 0.7071 -0.7071
vn 0 0.7071 -0.7071
vn 0 0.7071 -0.7071
vn 0 0.7071 -0.7071
vn 0 -1 0
vn 0 -1 0
vn 0 -1 0
vn 0 -1 0
vn 1 0 0
vn 1 0 0
vn 1 0 0
vn 1 0 0
vn 1 0 0
vn 1 0 0
vn 0 1 0
vn 0 1 0
vn 0 1 0
vn 0 1 0
vn -1 0 0
vn -1 0 0
vn -1 0 0
vn -1 0 0
vn -1 0 0
vn -1 0 0
vn 0 0 -1
vn 8.327e-17 0 -1
vn 0 0 -1
vn 0 0 -1
vn 0 0 1
vn 0 0 1
vn 0 0 1
vn 0 0 1
f 3//2 9//1 7//3 1//4
f 5//7 11//8 10//6 4//5
f 2//10 1//9 7//11 8//12
f 8//13 7//15 11//18 12//14
f 9//16 11//18 7//15
f 10//17 11//18 9//16
f 12//20 11//19 5//21 6//22
f 6//23 5//27 1//26 2//24
f 4//28 3//25 5//27
f 3//25 1//26 5//27
f 4//29 10//32 9//30 3//31
f 6//34 2//33 8//35 12//36
o object_2
v 0.0147 0.01439 0.01688
v 0.0147 4.986 0.01688
v 1.293 1.293 9.983
v 1.293 3.708 9.983
v 3.708 1.293 9.983
v 3.708 3.708 9.983
v 4.987 0.01439 0.01688
v 4.987 4.986 0.01688
vn 0 0.9919 0.1272
vn 0 0.9919 0.1272
vn 0 0.9919 0.1272
vn 0 0.9919 0.1272
vn -0.9919 0 0.1272
vn -0.9919 0 0.1272
vn -0.9919 2.52e-16 0.1272
vn -0.9919 2.52e-16 0.1272
vn -1.616e-16 -0.9919 0.1272
vn -1.616e-16 -0.9919 0.1272
vn -2.52e-16 -0.9919 0.1272
vn -2.52e-16 -0.9919 0.1272
vn 0.9919 0 0.1272
vn 0.9919 0 0.1272
vn 0.9919 0 0.1272
vn 0.9919 0 0.1272
vn 0 0 -1
vn 0 0 -1
vn 0 0 -1
vn 0 0 -1
vn 0 0 1
vn 0 0 1
vn 0 0 1
vn 0 0 1
f 16//38 18//37 20//39 14//40
f 15//42 16//41 14//43 13//44
f 17//46 15//45 13//47 19//48
f 18//50 17//49 19//51 20//52
f 19//54 13//56 14//55 20//53
f 17//58 18//57 16//59 15//60
