# Rhino

o object_1
v 0.6658 2.482 0.005283
v 0.6658 2.482 0.3588
v 0.848 1.684 0.005283
v 0.848 1.684 0.3588
v 0.848 3.28 0.005283
v 0.848 3.28 0.3588
v 1.359 1.044 0.005283
v 1.359 1.044 0.3588
v 1.359 3.921 0.005283
v 1.359 3.921 0.3588
v 2.096 0.6882 0.005283
v 2.096 0.6882 0.3588
v 2.096 4.276 0.005283
v 2.096 4.276 0.3588
v 2.915 0.6882 0.005283
v 2.915 0.6882 0.3588
v 2.915 4.276 0.005283
v 2.915 4.276 0.3588
v 3.653 1.044 0.005283
v 3.653 1.044 0.3588
v 3.653 3.921 0.005283
v 3.653 3.921 0.3588
v 4.164 1.684 0.005283
v 4.164 1.684 0.3588
v 4.164 3.28 0.005283
v 4.164 3.28 0.3588
v 4.346 2.482 0.005283
v 4.346 2.482 0.3588
vn 1 0 0
vn 1 0 0
vn 0.901 -0.4339 0
vn 0.901 -0.4339 0
vn 0.6235 -0.7818 0
vn 0.6235 -0.7818 0
vn 0.2225 -0.9749 0
vn 0.2225 -0.9749 0
vn -0.2225 -0.9749 0
vn -0.2225 -0.9749 0
vn -0.6235 -0.7818 0
vn -0.6235 -0.7818 0
vn -0.901 -0.4339 0
vn -0.901 -0.4339 0
vn -1 0 0
vn -1 0 0
vn -0.901 0.4339 0
vn -0.901 0.4339 0
vn -0.6235 0.7818 0
vn -0.6235 0.7818 0
vn -0.2225 0.9749 0
vn -0.2225 0.9749 0
vn 0.2225 0.9749 0
vn 0.2225 0.9749 0
vn 0.6235 0.7818 0
vn 0.6235 0.7818 0
vn 0.901 0.4339 0
vn 0.901 0.4339 0
vn 1 0 0
vn 1 0 0
vn 0 0 1
vn 0 0 1
vn 0 0 1
vn 0 0 1
vn 0 0 1
vn 0 0 1
vn 0 0 1
vn 0 0 1
vn 0 0 1
vn 0 0 1
vn 0 0 1
vn 0 0 1
vn 0 0 1
vn 0 0 1
vn 0 0 -1
vn 0 0 -1
vn 0 0 -1
vn 0 0 -1
vn 0 0 -1
vn 0 0 -1
vn 0 0 -1
vn 0 0 -1
vn 0 0 -1
vn 0 0 -1
vn 0 0 -1
vn 0 0 -1
vn 0 0 -1
vn 0 0 -1
f 28//1 24//3 23//4 27//2
f 24//3 20//5 19//6 23//4
f 20//5 16//7 15//8 19//6
f 16//7 12//9 11//10 15//8
f 12//9 8//11 7//12 11//10
f 8//11 4//13 3//14 7//12
f 4//13 2//15 1//16 3//14
f 2//15 6//17 5//18 1//16
f 6//17 10//19 9//20 5//18
f 10//19 14//21 13//22 9//20
f 14//21 18//23 17//24 13//22
f 18//23 22//25 21//26 17//24
f 22//25 26//27 25//28 21//26
f 26//27 28//29 27//30 25//28
f 14//41 10//40 6//39
f 4//37 14//41 6//39
f 4//37 6//39 2//38
f 4//37 8//36 12//35
f 4//37 12//35 14//41
f 12//35 20//33 14//41
f 26//44 22//43 18//42
f 28//31 26//44 18//42
f 16//34 20//33 12//35
f 20//33 24//32 28//31
f 20//33 28//31 18//42
f 18//42 14//41 20//33
f 13//55 5//53 9//54
f 3//51 5//53 13//55
f 3//51 1//52 5//53
f 3//51 11//49 7//50
f 3//51 13//55 11//49
f 11//49 13//55 19//47
f 25//58 17//56 21//57
f 27//45 17//56 25//58
f 15//48 11//49 19//47
f 19//47 27//45 23//46
f 19//47 17//56 27//45
f 17//56 19//47 13//55
