v 0.089705 2.49384 2.49933
v 0.089705 2.50355 2.50904
v 0.089705 2.49384 2.51876
v 0.089705 2.48412 2.50904
v 4.92838 2.48412 2.50904
v 4.92838 2.49384 2.51876
v 4.92838 2.50355 2.50904
v 4.92838 2.49384 2.49933
v 2.49933 0.074499 2.50904
v 2.50904 0.074499 2.51876
v 2.51876 0.074499 2.50904
v 2.50904 0.074499 2.49933
v 2.51876 4.91318 2.50904
v 2.50904 4.91318 2.51876
v 2.49933 4.91318 2.50904
v 2.50904 4.91318 2.49933
v 2.50904 2.48412 0.089705
v 2.51876 2.49384 0.089705
v 2.50904 2.50355 0.089705
v 2.49933 2.49384 0.089705
v 2.49933 2.49384 4.92838
v 2.50904 2.50355 4.92838
v 2.51876 2.49384 4.92838
v 2.50904 2.48412 4.92838
vt 0 0
vn -1 -0 -0
vn 1 -0 -0
vn -0 -1 -0
vn -0 1 -0
vn -0 -0 -1
vn -0 -0 1
vn -0.577313 -0.577371 -0.577367
vn 0.577348 -0.577362 -0.577342
vn 0.577358 0.577347 -0.577346
vn -0.577338 0.577375 -0.577337
vn -0.577331 -0.577365 0.577355
vn 0.577343 -0.577343 0.577366
vn 0.57737 0.577335 0.577346
vn -0.577307 0.57736 0.577384
f 3/1/1 2/1/1 1/1/1
f 4/1/1 3/1/1 1/1/1
f 7/1/2 6/1/2 5/1/2
f 8/1/2 7/1/2 5/1/2
f 11/1/3 10/1/3 9/1/3
f 12/1/3 11/1/3 9/1/3
f 15/1/4 14/1/4 13/1/4
f 16/1/4 15/1/4 13/1/4
f 19/1/5 18/1/5 17/1/5
f 20/1/5 19/1/5 17/1/5
f 23/1/6 22/1/6 21/1/6
f 24/1/6 23/1/6 21/1/6
f 9/1/7 20/1/7 17/1/7
f 12/1/7 9/1/7 17/1/7
f 4/1/7 1/1/7 20/1/7
f 9/1/7 4/1/7 20/1/7
f 5/1/8 17/1/8 18/1/8
f 8/1/8 5/1/8 18/1/8
f 11/1/8 12/1/8 17/1/8
f 5/1/8 11/1/8 17/1/8
f 13/1/9 18/1/9 19/1/9
f 16/1/9 13/1/9 19/1/9
f 7/1/9 8/1/9 18/1/9
f 13/1/9 7/1/9 18/1/9
f 20/1/10 1/1/10 2/1/10
f 19/1/10 20/1/10 2/1/10
f 15/1/10 16/1/10 19/1/10
f 2/1/10 15/1/10 19/1/10
f 4/1/11 24/1/11 21/1/11
f 3/1/11 4/1/11 21/1/11
f 9/1/11 10/1/11 24/1/11
f 4/1/11 9/1/11 24/1/11
f 11/1/12 23/1/12 24/1/12
f 10/1/12 11/1/12 24/1/12
f 5/1/12 6/1/12 23/1/12
f 11/1/12 5/1/12 23/1/12
f 7/1/13 22/1/13 23/1/13
f 6/1/13 7/1/13 23/1/13
f 13/1/13 14/1/13 22/1/13
f 7/1/13 13/1/13 22/1/13
f 15/1/14 21/1/14 22/1/14
f 14/1/14 15/1/14 22/1/14
f 2/1/14 3/1/14 21/1/14
f 15/1/14 2/1/14 21/1/14
