# Rhino

v 5.000000953674316 0 5
v 5.000000953674316 0 5
v 5.000000953674316 0 5
v 5.000000953674316 0 0
v 5.000000953674316 0 0
v 5.000000953674316 0 0
v 4.755282878875732 1.545084953308106 5
v 4.755282878875732 1.545084953308106 5
v 4.755282878875732 1.545084953308106 0
v 4.755282878875732 1.545084953308106 0
v 4.045084953308106 2.938925981521606 5
v 4.045084953308106 2.938925981521606 5
v 4.045084953308106 2.938925981521606 0
v 4.045084953308106 2.938925981521606 0
v 2.938926935195923 4.045084953308106 5
v 2.938926935195923 4.045084953308106 5
v 2.938926935195923 4.045084953308106 0
v 2.938926935195923 4.045084953308106 0
v 1.545084953308106 4.755282878875732 5
v 1.545084953308106 4.755282878875732 5
v 1.545084953308106 4.755282878875732 0
v 1.545084953308106 4.755282878875732 0
v 0 5 5
v 0 5 5
v 0 5 5
v 0 5 0
v 0 5 0
v 0 5 0
v 0 0 5
v 0 0 5
v 0 0 5
v 0 0 0
v 0 0 0
v 0 0 0
vn 0.9876883029937744 0.1564348191022873 0
vn 0 0 1
vn 0 -1 0
vn 0.9876883029937744 0.1564348191022873 0
vn 0 0 -1
vn 0 -1 0
vn 0.9660255312919617 0.2584465444087982 0
vn 0 0 1
vn 0.9334419369697571 0.3587285578250885 0
vn 0 0 -1
vn 0.838880717754364 0.5443153381347656 0
vn 0 0 1
vn 0.7769031524658203 0.6296201348304749 0
vn 0 0 -1
vn 0.6296205520629883 0.7769027948379517 0
vn 0 0 1
vn 0.5443154573440552 0.8388805985450745 0
vn 0 0 -1
vn 0.3587281703948975 0.9334420561790466 0
vn 0 0 1
vn 0.2584460377693176 0.966025710105896 0
vn 0 0 -1
vn 0.1564341932535172 0.9876883625984192 0
vn 0 0 1
vn -1 0 0
vn 0.1564341932535172 0.9876883625984192 0
vn 0 0 -1
vn -1 0 0
vn 0 0 1
vn 0 -1 0
vn -1 0 0
vn 0 0 -1
vn 0 -1 0
vn -1 0 0
f 33//33 6//6 3//3 30//30
f 25//25 28//28 34//34 31//31
f 20//20 24//24 29//29 16//16
f 12//12 16//16 29//29 8//8
f 2//2 8//8 29//29
f 32//32 27//27 22//22 18//18
f 32//32 18//18 14//14 10//10
f 10//10 5//5 32//32
f 23//23 19//19 21//21 26//26
f 19//19 15//15 17//17 21//21
f 15//15 11//11 13//13 17//17
f 11//11 7//7 9//9 13//13
f 7//7 1//1 4//4 9//9
