v 4.39294 4.01217 3.39608
v 3.39608 4.39294 4.01217
v 4.01217 3.39608 4.39294
v 4.39294 4.01217 1.60392
v 4.01217 3.39608 0.607062
v 3.39608 4.39294 0.987827
v 4.39294 0.987827 3.39608
v 4.01217 1.60392 4.39294
v 3.39608 0.607062 4.01217
v 4.39294 0.987827 1.60392
v 3.39608 0.607062 0.987827
v 4.01217 1.60392 0.607062
v 0.607062 4.01217 3.39608
v 0.987827 3.39608 4.39294
v 1.60392 4.39294 4.01217
v 0.607062 4.01217 1.60392
v 1.60392 4.39294 0.987827
v 0.987827 3.39608 0.607062
v 0.607062 0.987827 3.39608
v 1.60392 0.607062 4.01217
v 0.987827 1.60392 4.39294
v 0.607062 0.987827 1.60392
v 0.987827 1.60392 0.607062
v 1.60392 0.607062 0.987827
v 4.05066 4.56598 2.5
v 3.05381 4.94675 1.88391
v 3.05381 4.94675 3.11609
v 0.949335 4.56598 2.5
v 1.94619 4.94675 3.11609
v 1.94619 4.94675 1.88391
v 4.05066 0.434018 2.5
v 3.05381 0.0532526 3.11609
v 3.05381 0.0532526 1.88391
v 0.949335 0.434018 2.5
v 1.94619 0.0532526 1.88391
v 1.94619 0.0532526 3.11609
v 4.56598 2.5 4.05066
v 4.94675 1.88391 3.05381
v 4.94675 3.11609 3.05381
v 4.56598 2.5 0.949335
v 4.94675 3.11609 1.94619
v 4.94675 1.88391 1.94619
v 0.434018 2.5 4.05066
v 0.0532526 3.11609 3.05381
v 0.0532526 1.88391 3.05381
v 0.434018 2.5 0.949335
v 0.0532526 1.88391 1.94619
v 0.0532526 3.11609 1.94619
v 2.5 4.05066 4.56598
v 1.88391 3.05381 4.94675
v 3.11609 3.05381 4.94675
v 2.5 0.949335 4.56598
v 3.11609 1.94619 4.94675
v 1.88391 1.94619 4.94675
v 2.5 4.05066 0.434018
v 3.11609 3.05381 0.0532526
v 1.88391 3.05381 0.0532526
v 2.5 0.949335 0.434018
v 1.88391 1.94619 0.0532526
v 3.11609 1.94619 0.0532526
vt 0 0
vn 0.742842 0.531277 0.407345
vn 0.407345 0.742842 0.531278
vn 0.531278 0.407345 0.742842
vn 0.675357 0.640471 -0.365637
vn 0.614962 0.250548 -0.747695
vn 0.285359 0.727629 -0.6238
vn 0.747694 -0.614962 0.250548
vn 0.640471 -0.365637 0.675357
vn 0.285359 -0.72763 0.623799
vn 0.780298 -0.53858 -0.31791
vn 0.407345 -0.742842 -0.531277
vn 0.53858 -0.31791 -0.780298
vn -0.747695 0.614962 0.250548
vn -0.614962 0.250548 0.747694
vn -0.285359 0.72763 0.623799
vn -0.780298 0.53858 -0.31791
vn -0.407345 0.742842 -0.531277
vn -0.531277 0.407345 -0.742842
vn -0.742842 -0.531277 0.407345
vn -0.407345 -0.742842 0.531277
vn -0.53858 -0.31791 0.780298
vn -0.675357 -0.640471 -0.365637
vn -0.640471 -0.365637 -0.675357
vn -0.285359 -0.72763 -0.623799
vn 0.669657 0.741229 0.0462435
vn 0.293462 0.92711 -0.233125
vn 0.126267 0.948786 0.28959
vn -0.561473 0.824739 -0.0674851
vn -0.293462 0.92711 0.233125
vn -0.126268 0.948786 -0.28959
vn 0.561472 -0.824739 -0.0674852
vn 0.293461 -0.92711 0.233125
vn 0.126267 -0.948786 -0.28959
vn -0.669657 -0.741229 0.0462434
vn -0.293462 -0.92711 -0.233125
vn -0.126267 -0.948786 0.28959
vn 0.741229 0.0462435 0.669657
vn 0.92711 -0.233125 0.293462
vn 0.95666 0.253221 0.143811
vn 0.824739 -0.067485 -0.561473
vn 0.924109 0.305889 -0.22903
vn 0.95666 -0.253221 -0.143811
vn -0.824739 -0.0674852 0.561472
vn -0.92711 0.233125 0.293462
vn -0.95666 -0.253221 0.143811
vn -0.741229 0.0462434 -0.669657
vn -0.924109 -0.305889 -0.22903
vn -0.95666 0.253221 -0.143811
vn 0.0526685 0.63875 0.76761
vn -0.233125 0.293462 0.92711
vn 0.253221 0.143811 0.95666
vn -0.0526683 -0.63875 0.76761
vn 0.305889 -0.22903 0.924109
vn -0.253221 -0.143811 0.95666
vn -0.0526685 0.63875 -0.76761
vn 0.233125 0.293462 -0.92711
vn -0.253221 0.143811 -0.95666
vn 0.0526684 -0.63875 -0.76761
vn -0.305889 -0.22903 -0.924109
vn 0.253221 -0.143811 -0.95666
f 1/1/1 2/1/2 3/1/3
f 4/1/4 5/1/5 6/1/6
f 7/1/7 8/1/8 9/1/9
f 10/1/10 11/1/11 12/1/12
f 13/1/13 14/1/14 15/1/15
f 16/1/16 17/1/17 18/1/18
f 19/1/19 20/1/20 21/1/21
f 22/1/22 23/1/23 24/1/24
f 25/1/25 26/1/26 27/1/27
f 28/1/28 29/1/29 30/1/30
f 31/1/31 32/1/32 33/1/33
f 34/1/34 35/1/35 36/1/36
f 37/1/37 38/1/38 39/1/39
f 40/1/40 41/1/41 42/1/42
f 43/1/43 44/1/44 45/1/45
f 46/1/46 47/1/47 48/1/48
f 49/1/49 50/1/50 51/1/51
f 52/1/52 53/1/53 54/1/54
f 55/1/55 56/1/56 57/1/57
f 58/1/58 59/1/59 60/1/60
f 2/1/2 1/1/1 25/1/25
f 2/1/2 25/1/25 27/1/27
f 37/1/37 39/1/39 1/1/1
f 37/1/37 1/1/1 3/1/3
f 3/1/3 2/1/2 49/1/49
f 3/1/3 49/1/49 51/1/51
f 5/1/5 4/1/4 41/1/41
f 5/1/5 41/1/41 40/1/40
f 26/1/26 25/1/25 4/1/4
f 26/1/26 4/1/4 6/1/6
f 6/1/6 5/1/5 56/1/56
f 6/1/6 56/1/56 55/1/55
f 8/1/8 7/1/7 38/1/38
f 8/1/8 38/1/38 37/1/37
f 32/1/32 31/1/31 7/1/7
f 32/1/32 7/1/7 9/1/9
f 9/1/9 8/1/8 53/1/53
f 9/1/9 53/1/53 52/1/52
f 11/1/11 10/1/10 31/1/31
f 11/1/11 31/1/31 33/1/33
f 40/1/40 42/1/42 10/1/10
f 40/1/40 10/1/10 12/1/12
f 12/1/12 11/1/11 58/1/58
f 12/1/12 58/1/58 60/1/60
f 14/1/14 13/1/13 44/1/44
f 14/1/14 44/1/44 43/1/43
f 29/1/29 28/1/28 13/1/13
f 29/1/29 13/1/13 15/1/15
f 15/1/15 14/1/14 50/1/50
f 15/1/15 50/1/50 49/1/49
f 17/1/17 16/1/16 28/1/28
f 17/1/17 28/1/28 30/1/30
f 46/1/46 48/1/48 16/1/16
f 46/1/46 16/1/16 18/1/18
f 18/1/18 17/1/17 55/1/55
f 18/1/18 55/1/55 57/1/57
f 20/1/20 19/1/19 34/1/34
f 20/1/20 34/1/34 36/1/36
f 43/1/43 45/1/45 19/1/19
f 43/1/43 19/1/19 21/1/21
f 21/1/21 20/1/20 52/1/52
f 21/1/21 52/1/52 54/1/54
f 23/1/23 22/1/22 47/1/47
f 23/1/23 47/1/47 46/1/46
f 35/1/35 34/1/34 22/1/22
f 35/1/35 22/1/22 24/1/24
f 24/1/24 23/1/23 59/1/59
f 24/1/24 59/1/59 58/1/58
f 27/1/27 26/1/26 30/1/30
f 27/1/27 30/1/30 29/1/29
f 33/1/33 32/1/32 36/1/36
f 33/1/33 36/1/36 35/1/35
f 39/1/39 38/1/38 42/1/42
f 39/1/39 42/1/42 41/1/41
f 45/1/45 44/1/44 48/1/48
f 45/1/45 48/1/48 47/1/47
f 51/1/51 50/1/50 54/1/54
f 51/1/51 54/1/54 53/1/53
f 57/1/57 56/1/56 60/1/60
f 57/1/57 60/1/60 59/1/59
f 41/1/41 4/1/4 25/1/25
f 41/1/41 25/1/25 39/1/39
f 39/1/39 25/1/25 1/1/1
f 49/1/49 2/1/2 27/1/27
f 49/1/49 27/1/27 15/1/15
f 15/1/15 27/1/27 29/1/29
f 53/1/53 8/1/8 37/1/37
f 53/1/53 37/1/37 51/1/51
f 51/1/51 37/1/37 3/1/3
f 60/1/60 56/1/56 5/1/5
f 60/1/60 5/1/5 12/1/12
f 12/1/12 5/1/5 40/1/40
f 55/1/55 17/1/17 30/1/30
f 55/1/55 30/1/30 6/1/6
f 6/1/6 30/1/30 26/1/26
f 42/1/42 38/1/38 7/1/7
f 42/1/42 7/1/7 10/1/10
f 10/1/10 7/1/7 31/1/31
f 52/1/52 20/1/20 36/1/36
f 52/1/52 36/1/36 9/1/9
f 9/1/9 36/1/36 32/1/32
f 58/1/58 11/1/11 33/1/33
f 58/1/58 33/1/33 24/1/24
f 24/1/24 33/1/33 35/1/35
f 48/1/48 44/1/44 13/1/13
f 48/1/48 13/1/13 16/1/16
f 16/1/16 13/1/13 28/1/28
f 54/1/54 50/1/50 14/1/14
f 54/1/54 14/1/14 21/1/21
f 21/1/21 14/1/14 43/1/43
f 59/1/59 23/1/23 46/1/46
f 59/1/59 46/1/46 57/1/57
f 57/1/57 46/1/46 18/1/18
f 47/1/47 22/1/22 34/1/34
f 47/1/47 34/1/34 45/1/45
f 45/1/45 34/1/34 19/1/19
