# Blender v2.62 (sub 0) OBJ File: ' BlockStairs.blend'
# www.blender.org
mtllib BlockStairs.mtl
o Cube
v 4.699956 1.901928 0.068946
v 4.699956 2.901928 0.911719
v 4.699956 3.901928 1.754493
v 4.699956 4.901928 2.597266
v 4.699956 0.901929 0.068946
v 4.699956 1.901929 0.911719
v 4.699956 2.901929 1.754493
v 4.699956 3.901929 2.597266
v 0.326933 0.901929 0.068946
v 0.326933 1.901929 0.911719
v 0.326933 2.901929 1.754493
v 0.326933 3.901929 2.597266
v 0.326934 1.901929 0.068946
v 0.326934 2.901929 0.911719
v 0.326934 3.901929 1.754493
v 0.326934 4.901929 2.597266
v 4.699957 1.901928 1.068946
v 4.699957 2.901928 1.911719
v 4.699957 3.901928 2.754493
v 4.699957 4.901928 3.597266
v 4.699955 0.901929 1.068946
v 4.699955 1.901929 1.911719
v 4.699955 2.901929 2.754493
v 4.699955 3.901929 3.597266
v 0.326933 0.901929 1.068946
v 0.326933 1.901929 1.911719
v 0.326933 2.901929 2.754493
v 0.326933 3.901929 3.597266
v 0.326934 1.901928 1.068946
v 0.326934 2.901928 1.911719
v 0.326934 3.901928 2.754493
v 0.326934 4.901928 3.597266
vn 0.000000 0.000000 -1.000000
vn 0.000000 -0.000000 1.000000
vn 1.000000 -0.000001 -0.000000
vn -0.000000 -1.000000 -0.000000
vn -1.000000 0.000001 -0.000000
vn 0.000000 1.000000 0.000000
usemtl 
s off
f 1//1 5//1 9//1 13//1
f 2//1 6//1 10//1 14//1
f 3//1 7//1 11//1 15//1
f 4//1 8//1 12//1 16//1
f 17//2 29//2 25//2 21//2
f 18//2 30//2 26//2 22//2
f 19//2 31//2 27//2 23//2
f 20//2 32//2 28//2 24//2
f 1//3 17//3 21//3 5//3
f 2//3 18//3 22//3 6//3
f 3//3 19//3 23//3 7//3
f 4//3 20//3 24//3 8//3
f 5//4 21//4 25//4 9//4
f 6//4 22//4 26//4 10//4
f 7//4 23//4 27//4 11//4
f 8//4 24//4 28//4 12//4
f 9//5 25//5 29//5 13//5
f 10//5 26//5 30//5 14//5
f 11//5 27//5 31//5 15//5
f 12//5 28//5 32//5 16//5
f 17//6 1//6 13//6 29//6
f 18//6 2//6 14//6 30//6
f 19//6 3//6 15//6 31//6
f 20//6 4//6 16//6 32//6
o Cube.001_Cube.008
v 4.969275 4.947809 0.052539
v 4.969275 3.890100 0.052539
v 4.421932 3.890100 0.052539
v 4.421932 4.947810 0.052539
v 4.969275 4.947808 4.693399
v 4.969275 3.890098 4.693399
v 4.421932 3.890100 4.693399
v 4.421932 4.947809 4.693399
v 0.575686 4.947810 0.052539
v 0.575686 3.890100 0.052539
v 0.028343 3.890100 0.052539
v 0.028343 4.947811 0.052539
v 0.575686 4.947809 4.693399
v 0.575686 3.890098 4.693399
v 0.028343 3.890101 4.693399
v 0.028343 4.947810 4.693399
v 0.028343 1.127460 0.052539
v 0.028343 1.127461 1.409038
v 0.575686 1.127460 0.052539
v 0.575686 1.127459 1.409038
v 4.421932 1.127460 0.052539
v 4.421932 1.127461 1.409038
v 4.969275 1.127460 0.052539
v 4.969275 1.127459 1.409038
v 4.969275 0.023701 0.052539
v 4.421932 0.023701 0.052539
v 4.969275 0.023700 1.409038
v 4.421932 0.023702 1.409038
v 0.575686 0.023701 0.052539
v 0.028343 0.023701 0.052539
v 0.575686 0.023700 1.409038
v 0.028343 0.023702 1.409038
vn 1.000000 -0.000000 0.000000
vn -1.000000 -0.000000 0.000000
vn 0.000002 1.000000 0.000000
vn 0.000003 1.000000 0.000000
vn -0.000003 -0.765271 0.643708
vn -0.000002 -1.000000 -0.000000
usemtl 
s off
f 33//1 34//1 35//1 36//1
f 37//2 40//2 39//2 38//2
f 33//7 37//7 38//7 34//7
f 35//8 39//8 40//8 36//8
f 37//9 33//9 36//9 40//9
f 41//1 42//1 43//1 44//1
f 45//2 48//2 47//2 46//2
f 41//7 45//7 46//7 42//7
f 43//8 47//8 48//8 44//8
f 45//10 41//10 44//10 48//10
f 47//8 43//8 49//8 50//8
f 42//7 46//7 52//7 51//7
f 46//11 47//11 50//11 52//11
f 43//1 42//1 51//1 49//1
f 39//8 35//8 53//8 54//8
f 34//7 38//7 56//7 55//7
f 38//11 39//11 54//11 56//11
f 35//1 34//1 55//1 53//1
f 53//1 55//1 57//1 58//1
f 56//2 54//2 60//2 59//2
f 55//7 56//7 59//7 57//7
f 54//8 53//8 58//8 60//8
f 49//1 51//1 61//1 62//1
f 52//2 50//2 64//2 63//2
f 51//7 52//7 63//7 61//7
f 50//8 49//8 62//8 64//8
f 57//12 59//12 60//12 58//12
f 61//12 63//12 64//12 62//12
