# Shade 12 - Wavefront OBJ Exporter


o ポリゴンメッシュ
v 3.350001e+00 9.772001e+00 4.550000e+00
v 9.349998e+00 7.500001e+00 4.550000e+00
v 3.350001e+00 5.228001e+00 4.550000e+00
v 3.600000e+00 9.275001e+00 5.550000e+00
v 8.600000e+00 7.500001e+00 5.550000e+00
v 3.600000e+00 5.725001e+00 5.550000e+00
# 6 vertices

vn 0.000000 0.000000 -1.000000
vn 0.000000 0.000000 -1.000000
vn 0.000000 0.000000 -1.000000
vn 0.000000 0.000000 1.000000
vn 0.000000 0.000000 1.000000
vn 0.000000 0.000000 1.000000
vn 0.333656 -0.906897 0.257315
vn 0.333656 -0.906897 0.257315
vn 0.333656 -0.906897 0.257315
vn 0.333656 -0.906897 0.257315
vn 0.333656 0.906897 0.257315
vn 0.333656 0.906897 0.257315
vn 0.333656 0.906897 0.257315
vn 0.333656 0.906897 0.257315
vn -0.978980 0.000000 0.203954
vn -0.978980 0.000000 0.203954
vn -0.978980 0.000000 0.203954
vn -0.978980 0.000000 0.203954
# 18 vertex normals

s 1
g ポリゴンメッシュ
f 1//3 2//2 3//1
f 6//6 5//5 4//4
f 6//10 3//9 2//8 5//7
f 5//14 2//13 1//12 4//11
f 4//18 1//17 3//16 6//15
# 5 faces

o ポリゴンメッシュ
v 1.179592e+01 7.504943e+00 4.882813e-07
v 1.005791e+01 1.170252e+01 4.882813e-07
v 5.854956e+00 1.343832e+01 4.882813e-07
v 1.649102e+00 1.169553e+01 4.882813e-07
v -9.592188e-02 7.495059e+00 4.882813e-07
v 1.642093e+00 3.297479e+00 4.882813e-07
v 5.845044e+00 1.561684e+00 4.882813e-07
v 1.005089e+01 3.304470e+00 4.882813e-07
v 1.179592e+01 7.504943e+00 5.000000e+00
v 1.005791e+01 1.170252e+01 5.000000e+00
v 5.854956e+00 1.343832e+01 5.000000e+00
v 1.649102e+00 1.169553e+01 5.000000e+00
v -9.592188e-02 7.495059e+00 5.000000e+00
v 1.642093e+00 3.297479e+00 5.000000e+00
v 5.845044e+00 1.561684e+00 5.000000e+00
v 1.005089e+01 3.304470e+00 5.000000e+00
# 16 vertices

vn 0.000000 0.000000 -1.000000
vn 0.000000 0.000000 -1.000000
vn 0.000000 0.000000 -1.000000
vn 0.000000 0.000000 -1.000000
vn 0.000000 0.000000 -1.000000
vn 0.000000 0.000000 -1.000000
vn 0.000000 0.000000 -1.000000
vn 0.000000 0.000000 -1.000000
vn 0.000000 0.000000 1.000000
vn 0.000000 0.000000 1.000000
vn 0.000000 0.000000 1.000000
vn 0.000000 0.000000 1.000000
vn 0.000000 0.000000 1.000000
vn 0.000000 0.000000 1.000000
vn 0.000000 0.000000 1.000000
vn 0.000000 0.000000 1.000000
vn 0.382808 -0.923828 0.000000
vn 0.382808 -0.923828 0.000000
vn 0.382808 -0.923828 0.000000
vn 0.382808 -0.923828 0.000000
vn -0.381721 -0.924277 0.000000
vn -0.381721 -0.924277 0.000000
vn -0.381721 -0.924277 0.000000
vn -0.381721 -0.924277 0.000000
vn -0.923932 -0.382556 0.000000
vn -0.923932 -0.382556 0.000000
vn -0.923932 -0.382556 0.000000
vn -0.923932 -0.382556 0.000000
vn -0.923480 0.383646 0.000000
vn -0.923480 0.383646 0.000000
vn -0.923480 0.383646 0.000000
vn -0.923480 0.383646 0.000000
vn -0.382808 0.923828 0.000000
vn -0.382808 0.923828 0.000000
vn -0.382808 0.923828 0.000000
vn -0.382808 0.923828 0.000000
vn 0.381721 0.924278 0.000000
vn 0.381721 0.924278 0.000000
vn 0.381721 0.924278 0.000000
vn 0.381721 0.924278 0.000000
vn 0.923932 0.382556 0.000000
vn 0.923932 0.382556 0.000000
vn 0.923932 0.382556 0.000000
vn 0.923932 0.382556 0.000000
vn 0.923480 -0.383648 0.000000
vn 0.923480 -0.383648 0.000000
vn 0.923480 -0.383648 0.000000
vn 0.923480 -0.383648 0.000000
# 48 vertex normals

s 1
g ポリゴンメッシュ
f 14//26 13//25 12//24 11//23 10//22 9//21 8//20 7//19
f 15//34 16//33 17//32 18//31 19//30 20//29 21//28 22//27
f 21//38 13//37 14//36 22//35
f 20//42 12//41 13//40 21//39
f 19//46 11//45 12//44 20//43
f 18//50 10//49 11//48 19//47
f 17//54 9//53 10//52 18//51
f 16//58 8//57 9//56 17//55
f 15//62 7//61 8//60 16//59
f 22//66 14//65 7//64 15//63
# 10 faces

