# Rhino

v 15.97420883178711 6.448476791381836 3.292594909667969
v 15.97420883178711 6.448476791381836 3.292594909667969
v 15.97420883178711 6.399243831634522 3.292594909667969
v 15.97420883178711 6.399243831634522 3.292594909667969
v 15.97420883178711 6.396564960479736 3.417922019958496
v 15.97420883178711 6.396564960479736 3.417922019958496
v 15.97420883178711 6.396564960479736 3.167268037796021
v 15.97420883178711 6.396564960479736 3.167268037796021
v 15.97420883178711 6.361752033233643 3.383109092712402
v 15.97420883178711 6.361752033233643 3.383109092712402
v 15.97420883178711 6.361752033233643 3.202080965042114
v 15.97420883178711 6.361752033233643 3.202080965042114
v 15.97420883178711 6.271237850189209 3.469834089279175
v 15.97420883178711 6.271237850189209 3.469834089279175
v 15.97420883178711 6.271237850189209 3.420600891113281
v 15.97420883178711 6.271237850189209 3.420600891113281
v 15.97420883178711 6.271237850189209 3.164588928222656
v 15.97420883178711 6.271237850189209 3.164588928222656
v 15.97420883178711 6.271237850189209 3.115355968475342
v 15.97420883178711 6.271237850189209 3.115355968475342
v 15.97420883178711 6.180724143981934 3.383109092712402
v 15.97420883178711 6.180724143981934 3.383109092712402
v 15.97420883178711 6.180724143981934 3.202080965042114
v 15.97420883178711 6.180724143981934 3.202080965042114
v 15.97420883178711 6.14591121673584 3.417922019958496
v 15.97420883178711 6.14591121673584 3.417922019958496
v 15.97420883178711 6.14591121673584 3.167268037796021
v 15.97420883178711 6.14591121673584 3.167268037796021
v 15.97420883178711 6.143231868743897 3.292594909667969
v 15.97420883178711 6.143231868743897 3.292594909667969
v 15.97420883178711 6.093998908996582 3.292594909667969
v 15.97420883178711 6.093998908996582 3.292594909667969
v 15.97420883178711 3.906001091003418 3.292594909667969
v 15.97420883178711 3.906001091003418 3.292594909667969
v 15.97420883178711 3.856767892837524 3.292594909667969
v 15.97420883178711 3.856767892837524 3.292594909667969
v 15.97420883178711 3.854089021682739 3.417922019958496
v 15.97420883178711 3.854089021682739 3.417922019958496
v 15.97420883178711 3.854089021682739 3.167268037796021
v 15.97420883178711 3.854089021682739 3.167268037796021
v 15.97420883178711 3.819276094436646 3.383109092712402
v 15.97420883178711 3.819276094436646 3.383109092712402
v 15.97420883178711 3.819276094436646 3.202080965042114
v 15.97420883178711 3.819276094436646 3.202080965042114
v 15.97420883178711 3.728761911392212 3.469834089279175
v 15.97420883178711 3.728761911392212 3.469834089279175
v 15.97420883178711 3.728761911392212 3.420600891113281
v 15.97420883178711 3.728761911392212 3.420600891113281
v 15.97420883178711 3.728761911392212 3.164588928222656
v 15.97420883178711 3.728761911392212 3.164588928222656
v 15.97420883178711 3.728761911392212 3.115355968475342
v 15.97420883178711 3.728761911392212 3.115355968475342
v 15.97420883178711 3.638247966766357 3.383109092712402
v 15.97420883178711 3.638247966766357 3.383109092712402
v 15.97420883178711 3.638247966766357 3.202080965042114
v 15.97420883178711 3.638247966766357 3.202080965042114
v 15.97420883178711 3.603435039520264 3.417922019958496
v 15.97420883178711 3.603435039520264 3.417922019958496
v 15.97420883178711 3.603435039520264 3.167268037796021
v 15.97420883178711 3.603435039520264 3.167268037796021
v 15.97420883178711 3.600755929946899 3.292594909667969
v 15.97420883178711 3.600755929946899 3.292594909667969
v 15.97420883178711 3.551522970199585 3.292594909667969
v 15.97420883178711 3.551522970199585 3.292594909667969
v 11.86135005950928 6.495758056640625 3.292594909667969
v 11.86135005950928 6.495758056640625 3.292594909667969
v 11.86135005950928 6.42999792098999 3.451354026794434
v 11.86135005950928 6.42999792098999 3.451354026794434
v 11.86135005950928 6.42999792098999 3.451354026794434
v 11.86135005950928 6.42999792098999 3.133836030960083
v 11.86135005950928 6.42999792098999 3.133836030960083
v 11.86135005950928 6.271238803863525 3.517113924026489
v 11.86135005950928 6.271238803863525 3.517113924026489
v 11.86135005950928 6.271238803863525 3.068075895309448
v 11.86135005950928 6.271238803863525 3.068075895309448
v 11.86135005950928 6.112480163574219 3.451354026794434
v 11.86135005950928 6.112480163574219 3.451354026794434
v 11.86135005950928 6.112480163574219 3.133836030960083
v 11.86135005950928 6.112480163574219 3.133836030960083
v 11.86135005950928 6.046720027923584 3.292594909667969
v 11.86135005950928 6.046720027923584 3.292594909667969
v 11.86135005950928 3.953279972076416 3.292594909667969
v 11.86135005950928 3.953279972076416 3.292594909667969
v 11.86135005950928 3.88752007484436 3.451354026794434
v 11.86135005950928 3.88752007484436 3.451354026794434
v 11.86135005950928 3.88752007484436 3.133836030960083
v 11.86135005950928 3.88752007484436 3.133836030960083
v 11.86135005950928 3.728760004043579 3.517113924026489
v 11.86135005950928 3.728760004043579 3.517113924026489
v 11.86135005950928 3.728760004043579 3.068075895309448
v 11.86135005950928 3.728760004043579 3.068075895309448
v 11.86135005950928 3.57000207901001 3.451354026794434
v 11.86135005950928 3.57000207901001 3.451354026794434
v 11.86135005950928 3.57000207901001 3.133836030960083
v 11.86135005950928 3.57000207901001 3.133836030960083
v 11.86135005950928 3.504241943359375 3.292594909667969
v 11.86135005950928 3.504241943359375 3.292594909667969
v 11.80711460113525 6.540661811828613 3.292594909667969
v 11.80711460113525 6.540661811828613 3.292594909667969
v 11.80711460113525 6.461750030517578 3.483105897903442
v 11.80711460113525 6.461750030517578 3.483105897903442
v 11.80711460113525 6.461750030517578 3.483105897903442
v 11.80711460113525 6.461750030517578 3.102083921432495
v 11.80711460113525 6.461750030517578 3.102083921432495
v 11.80711460113525 6.271238803863525 3.562017917633057
v 11.80711460113525 6.271238803863525 3.562017917633057
v 11.80711460113525 6.271238803863525 3.023171901702881
v 11.80711460113525 6.271238803863525 3.023171901702881
v 11.80711460113525 6.080729007720947 3.483105897903442
v 11.80711460113525 6.080729007720947 3.483105897903442
v 11.80711460113525 6.080729007720947 3.102083921432495
v 11.80711460113525 6.080729007720947 3.102083921432495
v 11.80711460113525 6.001815795898438 3.292594909667969
v 11.80711460113525 6.001815795898438 3.292594909667969
v 11.80711460113525 3.998183965682983 3.292594909667969
v 11.80711460113525 3.998183965682983 3.292594909667969
v 11.80711460113525 3.919270992279053 3.483105897903442
v 11.80711460113525 3.919270992279053 3.483105897903442
v 11.80711460113525 3.919270992279053 3.102083921432495
v 11.80711460113525 3.919270992279053 3.102083921432495
v 11.80711460113525 3.728760004043579 3.562017917633057
v 11.80711460113525 3.728760004043579 3.562017917633057
v 11.80711460113525 3.728760004043579 3.023171901702881
v 11.80711460113525 3.728760004043579 3.023171901702881
v 11.80711460113525 3.538249969482422 3.483105897903442
v 11.80711460113525 3.538249969482422 3.483105897903442
v 11.80711460113525 3.538249969482422 3.102083921432495
v 11.80711460113525 3.538249969482422 3.102083921432495
v 11.80711460113525 3.459337949752808 3.292594909667969
v 11.80711460113525 3.459337949752808 3.292594909667969
v 10.01696300506592 6.412044048309326 3.292594909667969
v 10.01696300506592 6.370802879333496 3.392159938812256
v 10.01696300506592 6.370802879333496 3.193028926849365
v 10.01696300506592 6.271237850189209 3.433401107788086
v 10.01696300506592 6.271237850189209 3.151787996292114
v 10.01696300506592 6.171671867370606 3.392159938812256
v 10.01696300506592 6.171671867370606 3.193028926849365
v 10.01696300506592 6.130431175231934 3.292594909667969
v 10.01696300506592 3.869569063186646 3.292594909667969
v 10.01696300506592 3.828327894210815 3.392159938812256
v 10.01696300506592 3.828327894210815 3.193028926849365
v 10.01696300506592 3.728761911392212 3.433401107788086
v 10.01696300506592 3.728761911392212 3.151787996292114
v 10.01696300506592 3.629196882247925 3.392159938812256
v 10.01696300506592 3.629196882247925 3.193028926849365
v 10.01696300506592 3.587955951690674 3.292594909667969
v 7.331775188446045 6.594546794891357 3.292594909667969
v 7.331775188446045 6.499852180480957 3.521208047866821
v 7.331775188446045 6.499852180480957 3.063982009887695
v 7.331775188446045 6.271238803863525 3.615901947021484
v 7.331775188446045 6.271238803863525 2.969286918640137
v 7.331775188446045 6.042625904083252 3.521208047866821
v 7.331775188446045 6.042625904083252 3.063982009887695
v 7.331775188446045 5.947930812835693 3.292594909667969
v 7.331775188446045 4.052069187164307 3.292594909667969
v 7.331775188446045 3.957374095916748 3.521208047866821
v 7.331775188446045 3.957374095916748 3.063982009887695
v 7.331775188446045 3.728760004043579 3.615901947021484
v 7.331775188446045 3.728760004043579 2.969286918640137
v 7.331775188446045 3.500148057937622 3.521208047866821
v 7.331775188446045 3.500148057937622 3.063982009887695
v 7.331775188446045 3.405452966690064 3.292594909667969
vn 1 0 0
vn 0.01138712000101805 0.9905381202697754 -0.1367644965648651
vn 1 0 0
vn -0.002128449967131019 -0.9906001687049866 -0.1367727816104889
vn 1 0 0
vn 0.01138707995414734 0.7971236705780029 0.6037086844444275
vn 1 0 0
vn 0.01138702966272831 0.6037086844444275 -0.7971236705780029
vn 1 0 0
vn -0.002128449967131019 -0.603746235370636 -0.7971737384796143
vn 1 0 0
vn -0.002128530060872436 -0.7971744537353516 0.6037452816963196
vn 1 0 0
vn 0.01138691045343876 0.1367644965648651 0.9905381202697754
vn 1 0 0
vn -0.002128469990566373 0.136771559715271 -0.9906003475189209
vn 1 0 0
vn -0.002128619933500886 -0.1367727816104889 0.9906001687049866
vn 1 0 0
vn 0.01138684991747141 -0.1367644965648651 -0.9905381202697754
vn 1 0 0
vn -0.002128589898347855 0.7971737384796143 -0.603746235370636
vn 1 0 0
vn -0.002128659980371594 0.6037452816963196 0.7971744537353516
vn 1 0 0
vn 0.0113867400214076 -0.6037086844444275 0.7971236705780029
vn 1 0 0
vn 0.01138668972998858 -0.7971236705780029 -0.6037086844444275
vn 1 0 0
vn -0.00212863995693624 0.9906003475189209 0.136771559715271
vn 1 0 0
vn 0.01138664036989212 -0.9905381202697754 0.1367644965648651
vn 1 0 0
vn 0.01138664036989212 0.9905381202697754 0.1367644965648651
vn 1 0 0
vn -0.00212863995693624 -0.9906003475189209 0.136771559715271
vn 1 0 0
vn 0.0113866999745369 0.6037080883979797 0.7971241474151611
vn 1 0 0
vn 0.01138668972998858 0.7971236705780029 -0.6037086844444275
vn 1 0 0
vn -0.002128589898347855 -0.7971737384796143 -0.603746235370636
vn 1 0 0
vn -0.002128659980371594 -0.6037452816963196 0.7971744537353516
vn 1 0 0
vn 0.01138691045343876 -0.136765256524086 0.9905380606651306
vn 1 0 0
vn -0.002128469990566373 -0.136771559715271 -0.9906003475189209
vn 1 0 0
vn -0.002128619933500886 0.1367727816104889 0.9906001687049866
vn 1 0 0
vn 0.01138684991747141 0.1367637366056442 -0.9905382394790649
vn 1 0 0
vn -0.002128449967131019 0.603746235370636 -0.7971737384796143
vn 1 0 0
vn -0.002128530060872436 0.7971744537353516 0.6037452816963196
vn 1 0 0
vn 0.01138707995414734 -0.7971236705780029 0.6037086844444275
vn 1 0 0
vn 0.01138706039637327 -0.6037092804908752 -0.7971231937408447
vn 1 0 0
vn -0.002128449967131019 0.9906001687049866 -0.1367727816104889
vn 1 0 0
vn 0.01138712000101805 -0.9905381202697754 -0.1367644965648651
vn 0.6341592073440552 0.7659362554550171 -0.1057533696293831
vn 0.01138712000101805 0.9905381798744202 0.136764407157898
vn 0.6075624227523804 0.3039542138576508 0.7338117957115173
vn 0.6075620055198669 0.733812153339386 0.3039541840553284
vn 0.01138702966272831 0.6037086248397827 0.7971237301826477
vn 0.6341595649719238 0.4668190181255341 -0.6163778305053711
vn 0.01138707995414734 0.7971237301826477 -0.6037086248397827
vn 0.6341592073440552 0.1057533696293831 0.7659362554550171
vn 0.01138684991747141 -0.136764407157898 0.9905381798744202
vn 0.6341579556465149 -0.1057542487978935 -0.7659371495246887
vn 0.01138691045343876 0.136764407157898 -0.9905381798744202
vn 0.6341556906700134 -0.46682208776474 0.6163794994354248
vn 0.01138668972998858 -0.7971237301826477 0.6037086248397827
vn 0.6341556906700134 -0.6163796782493591 -0.4668218791484833
vn 0.0113867400214076 -0.6037086248397827 -0.7971237301826477
vn 0.6341562271118164 -0.765938401222229 0.1057555004954338
vn 0.01138664036989212 -0.9905381798744202 -0.136764407157898
vn 0.6341562271118164 0.765938401222229 0.1057555004954338
vn 0.01138664036989212 0.9905381798744202 -0.136764407157898
vn 0.6341558694839478 0.4668211340904236 0.6163800358772278
vn 0.01138668972998858 0.7971233129501343 0.6037091612815857
vn 0.6341556906700134 0.6163793206214905 -0.4668223261833191
vn 0.01138671021908522 0.603708028793335 -0.7971242070198059
vn 0.6341593265533447 -0.1057550013065338 0.7659359574317932
vn 0.01138683967292309 0.1367629766464233 0.9905383586883545
vn 0.6341578364372253 0.1057526096701622 -0.7659374475479126
vn 0.01138691976666451 -0.1367658525705338 -0.9905379414558411
vn 0.6341595649719238 -0.6163781881332398 0.4668186008930206
vn 0.01138706039637327 -0.6037092208862305 0.7971232533454895
vn 0.6341594457626343 -0.4668199717998505 -0.6163772344589233
vn 0.01138706970959902 -0.7971241474151611 -0.6037080883979797
vn 0.6341592073440552 -0.7659362554550171 -0.1057533696293831
vn 0.01138712000101805 -0.9905381798744202 0.136764407157898
vn 0.6341591477394104 0.7659363150596619 0.105753481388092
vn 0.01192636974155903 0.9905318021774292 -0.1367643773555756
vn 0.6075623631477356 0.7338119745254517 0.3039539456367493
vn 0.6075620651245117 0.303954154253006 0.7338120937347412
vn 0.01192633993923664 0.7971181869506836 0.6037054657936096
vn 0.6341596245765686 0.6163777112960815 -0.4668190777301788
vn 0.01192633993923664 0.6037054657936096 -0.7971181869506836
vn 0.6341581344604492 -0.1057543009519577 0.7659370303153992
vn 0.01192623004317284 0.1367625296115875 0.9905320405960083
vn 0.6341591477394104 0.1057529896497726 -0.7659363150596619
vn 0.01192640978842974 -0.1367650032043457 -0.9905317425727844
vn 0.6341552138328552 -0.6163802742958069 0.4668217301368713
vn 0.01192636042833328 -0.6037038564682007 0.7971194386482239
vn 0.6341554522514343 -0.4668213427066803 -0.6163803339004517
vn 0.01192643120884895 -0.7971176505088806 -0.6037062406539917
vn 0.6341567635536194 -0.7659381628036499 -0.1057543009519577
vn 0.01192646007984877 -0.9905318021774292 0.1367645412683487
vn 0.6341567635536194 0.7659381628036499 -0.1057543009519577
vn 0.01192646007984877 0.9905318021774292 0.1367645412683487
vn 0.6341552734375 0.616379976272583 0.46682208776474
vn 0.01192636042833328 0.6037029027938843 0.7971201539039612
vn 0.6341555714607239 0.4668203890323639 -0.6163808703422546
vn 0.01192643027752638 0.797117292881012 -0.6037067174911499
vn 0.6341580152511597 0.1057527363300324 0.7659373283386231
vn 0.01192623004317284 -0.136764258146286 0.9905318021774292
vn 0.6341592669487 -0.1057545468211174 -0.765936017036438
vn 0.01192640978842974 0.1367632746696472 -0.9905319809913635
vn 0.6341595053672791 -0.4668200314044952 0.6163771152496338
vn 0.01192633993923664 -0.7971185445785523 0.6037050485610962
vn 0.6341596245765686 -0.6163780689239502 -0.4668186902999878
vn 0.01192632969468832 -0.603706419467926 -0.7971174716949463
vn 0.6341591477394104 -0.7659363150596619 0.105753481388092
vn 0.01192636974155903 -0.9905318021774292 -0.1367643773555756
vn -0.002128469990566373 -0.9906002879142761 0.1367716491222382
vn -0.002128449967131019 -0.7971736788749695 -0.6037462949752808
vn -0.002128589898347855 -0.6037471890449524 0.797173023223877
vn -0.002128449967131019 -0.136773943901062 -0.9905999898910523
vn -0.00212863995693624 0.1367716491222382 0.9906002879142761
vn -0.002128530060872436 0.6037453413009644 -0.7971743941307068
vn -0.002128669992089272 0.7971737384796143 0.603746235370636
vn -0.002128609921783209 0.9905999898910523 -0.136773943901062
vn -0.002128609921783209 -0.9905999898910523 -0.136773943901062
vn -0.002128530060872436 -0.6037453413009644 -0.7971743941307068
vn -0.002128669992089272 -0.7971737384796143 0.603746235370636
vn -0.002128449967131019 0.136773943901062 -0.9905999898910523
vn -0.00212863995693624 -0.1367716491222382 0.9906002879142761
vn -0.002128449967131019 0.7971736788749695 -0.6037462949752808
vn -0.002128589898347855 0.6037471890449524 0.797173023223877
vn -0.002128469990566373 0.9906002879142761 0.1367716491222382
vn 0.01192637998610735 0.9905319213867188 0.1367636024951935
vn 0.01192625984549522 0.6037038564682007 0.7971194386482239
vn 0.01192632969468832 0.7971186637878418 -0.6037048697471619
vn 0.0119262496009469 -0.1367640942335129 0.990531861782074
vn 0.01192637998610735 0.1367636024951935 -0.9905319213867188
vn 0.01192643959075213 -0.7971170544624329 0.6037070155143738
vn 0.01192643027752638 -0.6037053465843201 -0.7971183061599731
vn 0.01192646007984877 -0.9905316829681397 -0.1367651373147965
vn 0.01192646007984877 0.9905316829681397 -0.1367651373147965
vn 0.01192643959075213 0.797116756439209 0.6037073731422424
vn 0.01192643959075213 0.6037044525146484 -0.7971190214157105
vn 0.0119262496009469 0.1367624551057816 0.9905321002006531
vn 0.01192639023065567 -0.1367652416229248 -0.9905316829681397
vn 0.01192625984549522 -0.6037047505378723 0.7971187829971314
vn 0.01192632969468832 -0.7971189618110657 -0.6037044525146484
vn 0.01192637998610735 -0.9905319213867188 0.1367636024951935
f 14//14 6//6 69//69 73//73
f 26//26 14//14 73//73 77//77
f 32//32 26//26 77//77 81//81
f 28//28 32//32 81//81 79//79
f 20//20 28//28 79//79 75//75
f 8//8 20//20 75//75 71//71
f 2//2 8//8 71//71 66//66
f 6//6 2//2 66//66 69//69
f 70//70 74//74 107//107 103//103
f 74//74 78//78 111//111 107//107
f 78//78 80//80 113//113 111//111
f 80//80 76//76 109//109 113//113
f 76//76 72//72 105//105 109//109
f 72//72 67//67 101//101 105//105
f 68//68 65//65 98//98 100//100
f 65//65 70//70 103//103 98//98
f 104//104 108//108 151//151 149//149
f 108//108 112//112 153//153 151//151
f 112//112 114//114 154//154 153//153
f 114//114 110//110 152//152 154//154
f 110//110 106//106 150//150 152//152
f 106//106 102//102 148//148 150//150
f 102//102 99//99 147//147 148//148
f 99//99 104//104 149//149 147//147
f 1//1 5//5 9//9 3//3
f 5//5 13//13 15//15 9//9
f 13//13 25//25 21//21 15//15
f 25//25 31//31 29//29 21//21
f 31//31 27//27 23//23 29//29
f 27//27 19//19 17//17 23//23
f 19//19 7//7 11//11 17//17
f 7//7 1//1 3//3 11//11
f 4//4 10//10 132//132 131//131
f 10//10 16//16 134//134 132//132
f 16//16 22//22 136//136 134//134
f 22//22 30//30 138//138 136//136
f 30//30 24//24 137//137 138//138
f 24//24 18//18 135//135 137//137
f 18//18 12//12 133//133 135//135
f 12//12 4//4 131//131 133//133
f 46//46 89//89 93//93 58//58
f 38//38 85//85 89//89 46//46
f 34//34 83//83 85//85 38//38
f 40//40 87//87 83//83 34//34
f 52//52 91//91 87//87 40//40
f 60//60 95//95 91//91 52//52
f 64//64 97//97 95//95 60//60
f 58//58 93//93 97//97 64//64
f 94//94 127//127 123//123 90//90
f 90//90 123//123 119//119 86//86
f 86//86 119//119 115//115 82//82
f 82//82 115//115 117//117 84//84
f 84//84 117//117 121//121 88//88
f 88//88 121//121 125//125 92//92
f 92//92 125//125 129//129 96//96
f 96//96 129//129 127//127 94//94
f 128//128 161//161 159//159 124//124
f 124//124 159//159 157//157 120//120
f 120//120 157//157 155//155 116//116
f 116//116 155//155 156//156 118//118
f 118//118 156//156 158//158 122//122
f 122//122 158//158 160//160 126//126
f 126//126 160//160 162//162 130//130
f 130//130 162//162 161//161 128//128
f 63//63 61//61 53//53 57//57
f 57//57 53//53 47//47 45//45
f 45//45 47//47 41//41 37//37
f 37//37 41//41 35//35 33//33
f 33//33 35//35 43//43 39//39
f 39//39 43//43 49//49 51//51
f 51//51 49//49 55//55 59//59
f 59//59 55//55 61//61 63//63
f 62//62 146//146 144//144 54//54
f 54//54 144//144 142//142 48//48
f 48//48 142//142 140//140 42//42
f 42//42 140//140 139//139 36//36
f 36//36 139//139 141//141 44//44
f 44//44 141//141 143//143 50//50
f 50//50 143//143 145//145 56//56
f 56//56 145//145 146//146 62//62
