# Rhino

v 7.44757080078125 6.096864223480225 4.602433204650879
v 7.44757080078125 6.096864223480225 4.602433204650879
v 7.44757080078125 6.096864223480225 4.602433204650879
v 7.44757080078125 6.096864223480225 2.408705949783325
v 7.44757080078125 6.096864223480225 2.408705949783325
v 7.44757080078125 6.096864223480225 2.408705949783325
v 7.44757080078125 3.903136014938355 4.602433204650879
v 7.44757080078125 3.903136014938355 4.602433204650879
v 7.44757080078125 3.903136014938355 4.602433204650879
v 7.44757080078125 3.903136014938355 2.408705949783325
v 7.44757080078125 3.903136014938355 2.408705949783325
v 7.44757080078125 3.903136014938355 2.408705949783325
v 7.353150844573975 6.13468599319458 4.640254974365234
v 7.353150844573975 6.13468599319458 4.640254974365234
v 7.353150844573975 6.13468599319458 4.640254974365234
v 7.353150844573975 6.13468599319458 2.370882987976074
v 7.353150844573975 6.13468599319458 2.370882987976074
v 7.353150844573975 6.13468599319458 2.370882987976074
v 7.353150844573975 6.096864223480225 4.602433204650879
v 7.353150844573975 6.096864223480225 4.602433204650879
v 7.353150844573975 6.096864223480225 4.602433204650879
v 7.353150844573975 6.096864223480225 2.408705949783325
v 7.353150844573975 6.096864223480225 2.408705949783325
v 7.353150844573975 6.096864223480225 2.408705949783325
v 7.353150844573975 3.903136014938355 4.602433204650879
v 7.353150844573975 3.903136014938355 4.602433204650879
v 7.353150844573975 3.903136014938355 4.602433204650879
v 7.353150844573975 3.903136014938355 2.408705949783325
v 7.353150844573975 3.903136014938355 2.408705949783325
v 7.353150844573975 3.903136014938355 2.408705949783325
v 7.353150844573975 3.86531400680542 4.640254974365234
v 7.353150844573975 3.86531400680542 4.640254974365234
v 7.353150844573975 3.86531400680542 4.640254974365234
v 7.353150844573975 3.86531400680542 2.370882987976074
v 7.353150844573975 3.86531400680542 2.370882987976074
v 7.353150844573975 3.86531400680542 2.370882987976074
v 6.998204231262207 6.267020225524902 4.772589206695557
v 6.998204231262207 6.267020225524902 4.772589206695557
v 6.998204231262207 6.267020225524902 4.772589206695557
v 6.998204231262207 6.267020225524902 2.238549947738648
v 6.998204231262207 6.267020225524902 2.238549947738648
v 6.998204231262207 6.267020225524902 2.238549947738648
v 6.998204231262207 6.13468599319458 4.640254974365234
v 6.998204231262207 6.13468599319458 4.640254974365234
v 6.998204231262207 6.13468599319458 4.640254974365234
v 6.998204231262207 6.13468599319458 2.370882987976074
v 6.998204231262207 6.13468599319458 2.370882987976074
v 6.998204231262207 6.13468599319458 2.370882987976074
v 6.998204231262207 3.86531400680542 4.640254974365234
v 6.998204231262207 3.86531400680542 4.640254974365234
v 6.998204231262207 3.86531400680542 4.640254974365234
v 6.998204231262207 3.86531400680542 2.370882987976074
v 6.998204231262207 3.86531400680542 2.370882987976074
v 6.998204231262207 3.86531400680542 2.370882987976074
v 6.998204231262207 3.732980012893677 4.772589206695557
v 6.998204231262207 3.732980012893677 4.772589206695557
v 6.998204231262207 3.732980012893677 4.772589206695557
v 6.998204231262207 3.732980012893677 2.238549947738648
v 6.998204231262207 3.732980012893677 2.238549947738648
v 6.998204231262207 3.732980012893677 2.238549947738648
v 6.848443031311035 6.157680034637451 5.038866996765137
v 6.848443031311035 6.157680034637451 5.038866996765137
v 6.848443031311035 6.157680034637451 5.038866996765137
v 6.848443031311035 6.157680034637451 2.094023942947388
v 6.848443031311035 6.157680034637451 2.094023942947388
v 6.848443031311035 3.842319965362549 5.038866996765137
v 6.848443031311035 3.842319965362549 5.038866996765137
v 6.848443031311035 3.842319965362549 5.038866996765137
v 6.848443031311035 3.842319965362549 2.094023942947388
v 6.848443031311035 3.842319965362549 2.094023942947388
v 6.713531017303467 6.267020225524902 4.772589206695557
v 6.713531017303467 6.267020225524902 4.772589206695557
v 6.713531017303467 6.267020225524902 2.238549947738648
v 6.713531017303467 6.267020225524902 2.238549947738648
v 6.713531017303467 3.732980012893677 4.772589206695557
v 6.713531017303467 3.732980012893677 4.772589206695557
v 6.713531017303467 3.732980012893677 2.238549947738648
v 6.713531017303467 3.732980012893677 2.238549947738648
v 6.40567684173584 6.917628765106201 5.948997020721436
v 6.40567684173584 6.917628765106201 2.094023942947388
v 6.40567684173584 6.917628765106201 2.094023942947388
v 6.40567684173584 3.08237099647522 5.948997020721436
v 6.40567684173584 3.08237099647522 2.094023942947388
v 6.40567684173584 3.08237099647522 2.094023942947388
v 6.337915897369385 7.002538204193115 5.420392990112305
v 6.337915897369385 7.002538204193115 5.420392990112305
v 6.337915897369385 7.002538204193115 2.40297794342041
v 6.337915897369385 7.002538204193115 2.40297794342041
v 6.337915897369385 6.858438968658447 5.420392990112305
v 6.337915897369385 6.858438968658447 2.40297794342041
v 6.337915897369385 3.140678882598877 5.420392990112305
v 6.337915897369385 3.140678882598877 2.40297794342041
v 6.337915897369385 2.996581077575684 5.420392990112305
v 6.337915897369385 2.996581077575684 5.420392990112305
v 6.337915897369385 2.996581077575684 2.40297794342041
v 6.337915897369385 2.996581077575684 2.40297794342041
v 6.254555225372315 7.002538204193115 2.278284072875977
v 6.254555225372315 7.002538204193115 2.278284072875977
v 6.254555225372315 6.858438968658447 2.278284072875977
v 6.254555225372315 3.140678882598877 2.278284072875977
v 6.254555225372315 2.996581077575684 2.278284072875977
v 6.254555225372315 2.996581077575684 2.278284072875977
v 6.126622200012207 7.002538204193115 2.202083110809326
v 6.126622200012207 7.002538204193115 2.202083110809326
v 6.126622200012207 6.858438968658447 2.202083110809326
v 6.126622200012207 3.140678882598877 2.202083110809326
v 6.126622200012207 2.996581077575684 2.202083110809326
v 6.126622200012207 2.996581077575684 2.202083110809326
v 5.618537902832031 6.917628765106201 7.561088085174561
v 5.618537902832031 6.917628765106201 7.561088085174561
v 5.618537902832031 3.08237099647522 7.561088085174561
v 5.618537902832031 3.08237099647522 7.561088085174561
v 5.618536949157715 6.157680034637451 7.561088085174561
v 5.618536949157715 6.157680034637451 7.561088085174561
v 5.618536949157715 3.842319965362549 7.561088085174561
v 5.618536949157715 3.842319965362549 7.561088085174561
v 5.429993152618408 6.917628765106201 7.748966217041016
v 5.429993152618408 6.917628765106201 7.748966217041016
v 5.429993152618408 3.08237099647522 7.748966217041016
v 5.429993152618408 3.08237099647522 7.748966217041016
v 5.429992198944092 6.157680034637451 7.748966217041016
v 5.429992198944092 6.157680034637451 7.748966217041016
v 5.429992198944092 3.842319965362549 7.748966217041016
v 5.429992198944092 3.842319965362549 7.748966217041016
v 5.367819786071777 7.002538204193115 7.401576042175293
v 5.367819786071777 7.002538204193115 7.401576042175293
v 5.367819786071777 6.858438968658447 7.401576042175293
v 5.367819786071777 3.140678882598877 7.401576042175293
v 5.367819786071777 2.996581077575684 7.401576042175293
v 5.367819786071777 2.996581077575684 7.401576042175293
v 5.263518810272217 7.002538204193115 7.523261070251465
v 5.263518810272217 7.002538204193115 7.523261070251465
v 5.263518810272217 6.858438968658447 7.523261070251465
v 5.263518810272217 3.140678882598877 7.523261070251465
v 5.263518810272217 2.996581077575684 7.523261070251465
v 5.263518810272217 2.996581077575684 7.523261070251465
v 5.16704797744751 6.917628765106201 7.828939914703369
v 5.16704797744751 6.917628765106201 7.828939914703369
v 5.16704797744751 3.08237099647522 7.828939914703369
v 5.16704797744751 3.08237099647522 7.828939914703369
v 5.167047023773193 6.157680034637451 7.828939914703369
v 5.167047023773193 6.157680034637451 7.828939914703369
v 5.167047023773193 3.842319965362549 7.828939914703369
v 5.167047023773193 3.842319965362549 7.828939914703369
v 5.163889884948731 6.157680034637451 5.038866996765137
v 5.163889884948731 6.157680034637451 5.038866996765137
v 5.163889884948731 6.157680034637451 5.038866996765137
v 5.163889884948731 6.157680034637451 2.769336938858032
v 5.163889884948731 6.157680034637451 2.769336938858032
v 5.163889884948731 6.157680034637451 2.769336938858032
v 5.163889884948731 3.842319965362549 5.038866996765137
v 5.163889884948731 3.842319965362549 5.038866996765137
v 5.163889884948731 3.842319965362549 5.038866996765137
v 5.163889884948731 3.842319965362549 2.769336938858032
v 5.163889884948731 3.842319965362549 2.769336938858032
v 5.163889884948731 3.842319965362549 2.769336938858032
v 5.095478057861328 7.002538204193115 7.592794895172119
v 5.095478057861328 7.002538204193115 7.592794895172119
v 5.095478057861328 6.858438968658447 7.592794895172119
v 5.095478057861328 3.140678882598877 7.592794895172119
v 5.095478057861328 2.996581077575684 7.592794895172119
v 5.095478057861328 2.996581077575684 7.592794895172119
v 4.119318008422852 7.002538204193115 2.202083110809326
v 4.119318008422852 7.002538204193115 2.202083110809326
v 4.119318008422852 6.858438968658447 2.202083110809326
v 4.119318008422852 3.140678882598877 2.202083110809326
v 4.119318008422852 2.996581077575684 2.202083110809326
v 4.119318008422852 2.996581077575684 2.202083110809326
v 3.991384983062744 7.002538204193115 2.278284072875977
v 3.991384983062744 7.002538204193115 2.278284072875977
v 3.991384983062744 6.858438968658447 2.278284072875977
v 3.991384983062744 3.140678882598877 2.278284072875977
v 3.991384983062744 2.996581077575684 2.278284072875977
v 3.991384983062744 2.996581077575684 2.278284072875977
v 3.908024072647095 7.002538204193115 7.41026782989502
v 3.908024072647095 7.002538204193115 7.41026782989502
v 3.908024072647095 7.002538204193115 7.41026782989502
v 3.908024072647095 7.002538204193115 5.420392990112305
v 3.908024072647095 7.002538204193115 5.420392990112305
v 3.908024072647095 7.002538204193115 2.40297794342041
v 3.908024072647095 7.002538204193115 2.40297794342041
v 3.908024072647095 6.858438968658447 7.41026782989502
v 3.908024072647095 6.858438968658447 7.41026782989502
v 3.908024072647095 6.858438968658447 5.420392990112305
v 3.908024072647095 6.858438968658447 2.40297794342041
v 3.908024072647095 3.140678882598877 7.41026782989502
v 3.908024072647095 3.140678882598877 7.41026782989502
v 3.908024072647095 3.140678882598877 5.420392990112305
v 3.908024072647095 3.140678882598877 2.40297794342041
v 3.908024072647095 2.996581077575684 7.41026782989502
v 3.908024072647095 2.996581077575684 7.41026782989502
v 3.908024072647095 2.996581077575684 7.41026782989502
v 3.908024072647095 2.996581077575684 5.420392990112305
v 3.908024072647095 2.996581077575684 5.420392990112305
v 3.908024072647095 2.996581077575684 2.40297794342041
v 3.908024072647095 2.996581077575684 2.40297794342041
v 3.615969896316528 6.157680034637451 2.77001690864563
v 3.615969896316528 6.157680034637451 2.77001690864563
v 3.615969896316528 6.157680034637451 2.77001690864563
v 3.615969896316528 3.842319965362549 2.77001690864563
v 3.615969896316528 3.842319965362549 2.77001690864563
v 3.615969896316528 3.842319965362549 2.77001690864563
v 3.615968942642212 6.917628765106201 7.554503917694092
v 3.615968942642212 6.917628765106201 7.554503917694092
v 3.615968942642212 6.917628765106201 7.554503917694092
v 3.615968942642212 6.917628765106201 5.038866996765137
v 3.615968942642212 6.917628765106201 5.038866996765137
v 3.615968942642212 6.917628765106201 2.094023942947388
v 3.615968942642212 6.917628765106201 2.094023942947388
v 3.615968942642212 6.917628765106201 2.094023942947388
v 3.615968942642212 6.157680034637451 7.554503917694092
v 3.615968942642212 6.157680034637451 7.554503917694092
v 3.615968942642212 6.157680034637451 7.554503917694092
v 3.615968942642212 6.157680034637451 5.038866996765137
v 3.615968942642212 6.157680034637451 5.038866996765137
v 3.615968942642212 6.157680034637451 2.094023942947388
v 3.615968942642212 6.157680034637451 2.094023942947388
v 3.615968942642212 3.842319965362549 7.554503917694092
v 3.615968942642212 3.842319965362549 7.554503917694092
v 3.615968942642212 3.842319965362549 7.554503917694092
v 3.615968942642212 3.842319965362549 5.038866996765137
v 3.615968942642212 3.842319965362549 5.038866996765137
v 3.615968942642212 3.842319965362549 2.094023942947388
v 3.615968942642212 3.842319965362549 2.094023942947388
v 3.615968942642212 3.08237099647522 7.554503917694092
v 3.615968942642212 3.08237099647522 7.554503917694092
v 3.615968942642212 3.08237099647522 7.554503917694092
v 3.615968942642212 3.08237099647522 5.038866996765137
v 3.615968942642212 3.08237099647522 5.038866996765137
v 3.615968942642212 3.08237099647522 2.094023942947388
v 3.615968942642212 3.08237099647522 2.094023942947388
v 3.615968942642212 3.08237099647522 2.094023942947388
vn 1 0 0
vn 0 1 0
vn 0 0 1
vn 1 0 0
vn 0 1 0
vn 0 0 -1
vn 1 0 0
vn 0 0 1
vn 0 -1 0
vn 1 0 0
vn 0 0 -1
vn 0 -1 0
vn 1 0 0
vn 0 1 0
vn 0 0 1
vn 1 0 0
vn 0 1 0
vn 0 0 -1
vn 1 0 0
vn 0 1 0
vn 0 0 1
vn 1 0 0
vn 0 1 0
vn 0 0 -1
vn 1 0 0
vn 0 0 1
vn 0 -1 0
vn 1 0 0
vn 0 0 -1
vn 0 -1 0
vn 1 0 0
vn 0 0 1
vn 0 -1 0
vn 1 0 0
vn 0 0 -1
vn 0 -1 0
vn 1 0 0
vn 0 1 0
vn 0 0 1
vn 1 0 0
vn 0 1 0
vn 0 0 -1
vn 1 0 0
vn 0 1 0
vn 0 0 1
vn 1 0 0
vn 0 1 0
vn 0 0 -1
vn 1 0 0
vn 0 0 1
vn 0 -1 0
vn 1 0 0
vn 0 0 -1
vn 0 -1 0
vn 1 0 0
vn 0 0 1
vn 0 -1 0
vn 1 0 0
vn 0 0 -1
vn 0 -1 0
vn 0.9773091673851013 0.1051411181688309 0.1838807761669159
vn 0 0 1
vn 0 -1 0
vn 0.9381483793258667 0.3462334275245667 0
vn 0 0 -1
vn 0.9571781158447266 -0.2653874754905701 0.1156701520085335
vn 0 1 0
vn 0 0 1
vn 0.9849013090133667 -0.1731167137622833 0
vn 0 0 -1
vn 0 1 0
vn 0 0 1
vn 0 1 0
vn 0 0 -1
vn 0 0 1
vn 0 -1 0
vn 0 0 -1
vn 0 -1 0
vn 0.5461461544036865 0.8327075242996216 0.09122814238071442
vn 0.3262600600719452 0.9452800750732422 0
vn 0 0 -1
vn 0.5933768153190613 -0.7808124423027039 0.1955401003360748
vn 0.6525201201438904 -0.757771372795105 0
vn 0 0 -1
vn 0 -1 0
vn -0.953923761844635 0 -0.3000491857528687
vn 0 -1 0
vn -0.9812741279602051 0 0.1926163583993912
vn -0.9886822700500488 0 -0.1500245928764343
vn -0.9228194355964661 0 0.3852327167987824
vn -0.9886822700500488 0 -0.1500245928764343
vn -0.9228194355964661 0 0.3852327167987824
vn 0 1 0
vn -0.953923761844635 0 -0.3000491857528687
vn 0 1 0
vn -0.9812741279602051 0 0.1926163583993912
vn 0 -1 0
vn -0.7409656643867493 0 0.6715428829193115
vn -0.6320555806159973 0 0.7749230265617371
vn -0.6320555806159973 0 0.7749230265617371
vn 0 1 0
vn -0.7409656643867493 0 0.6715428829193115
vn 0 -1 0
vn -0.3523635268211365 0 0.935863196849823
vn -0.1761817634105682 0 0.9843576550483704
vn -0.1761817634105682 0 0.9843576550483704
vn 0 1 0
vn -0.3523635268211365 0 0.935863196849823
vn 0.8448185920715332 -0.0006491999956779182 0.535052478313446
vn 0 1 0
vn 0.779676616191864 1.030000021273736e-06 0.6261823773384094
vn 0 -1 0
vn 0.7797837853431702 -1.030000021273736e-06 0.6260488629341126
vn 0 -1 0
vn 0.8448187112808228 0.0004154499911237508 0.535052478313446
vn 0 1 0
vn 0.5829085111618042 -7.699999855503847e-07 0.8125377893447876
vn 0 1 0
vn 0.4408808350563049 5.80000005356851e-07 0.8975656628608704
vn 0 -1 0
vn 0.4408808350563049 -5.80000005356851e-07 0.8975656628608704
vn 0 -1 0
vn 0.5829085111618042 7.699999855503847e-07 0.8125377893447876
vn 0 1 0
vn 0 -1 0
vn -0.8113158345222473 0 -0.5846081376075745
vn -0.857932448387146 0 -0.5137625336647034
vn -0.857932448387146 0 -0.5137625336647034
vn 0 1 0
vn -0.8113158345222473 0 -0.5846081376075745
vn 0 -1 0
vn -0.520678699016571 0 -0.8537527322769165
vn -0.6494534611701965 0 -0.7604013681411743
vn -0.6494534611701965 0 -0.7604013681411743
vn 0 1 0
vn -0.520678699016571 0 -0.8537527322769165
vn 0.1393191367387772 -1.800000006824121e-07 0.9902475476264954
vn 0 1 0
vn 0 -1 0
vn -0.0196352805942297 5.000000058430487e-08 0.9998072385787964
vn 0 -1 0
vn -0.0196352805942297 -5.000000058430487e-08 0.9998072385787964
vn 0.1393191069364548 1.800000006824121e-07 0.9902475476264954
vn 0 1 0
vn 0 0 1
vn 0 -1 0
vn -1 0 0
vn 0.0004392999981064349 0 0.9999998807907105
vn 0 -1 0
vn -1 0 0
vn 0 1 0
vn 0 0 1
vn -1 0 0
vn 0.0004392999981064349 0 0.9999998807907105
vn 0 1 0
vn -1 0 0
vn 0 -1 0
vn -0.02704945020377636 0 -0.9996340870857239
vn -0.2111654877662659 0 -0.9774503111839294
vn -0.2111654877662659 0 -0.9774503111839294
vn 0 1 0
vn -0.02704945020377636 0 -0.9996340870857239
vn 0.1761817634105682 0 0.9843576550483704
vn 0 -1 0
vn 0.3523635268211365 0 0.935863196849823
vn 0.3523635268211365 0 0.935863196849823
vn 0.1761817634105682 0 0.9843576550483704
vn 0 1 0
vn 0.6320555806159973 0 0.7749230265617371
vn 0 -1 0
vn 0.7409656643867493 0 0.6715428829193115
vn 0.7409656643867493 0 0.6715428829193115
vn 0.6320555806159973 0 0.7749230265617371
vn 0 1 0
vn 1 0 0
vn 0.1519285142421722 0 -0.9883914589881897
vn 0 -1 0
vn 1 0 0
vn 0 -1 0
vn 0.9228194355964661 0 0.3852327167987824
vn 0 -1 0
vn 1 0 0
vn 0.1519285142421722 0 -0.9883914589881897
vn 1 0 0
vn 0.9812741279602051 0 0.1926163583993912
vn 1 0 0
vn 0.1519285142421722 0 -0.9883914589881897
vn 1 0 0
vn 0.9812741279602051 0 0.1926163583993912
vn 1 0 0
vn 0.1519285142421722 0 -0.9883914589881897
vn 0 1 0
vn 1 0 0
vn 0 1 0
vn 0.9228194355964661 0 0.3852327167987824
vn 0 1 0
vn 0.0004392999981064349 0 0.9999998807907105
vn 0 -1 0
vn -1 -4.300000000512227e-07 9.999999974752427e-07
vn 0.0004392999981064349 0 0.9999998807907105
vn 0 1 0
vn -1 3.300000059880404e-07 6.299999881775875e-07
vn 0 1 0
vn -0.174226313829422 1.100000019960135e-07 0.9847056269645691
vn -1 0 0
vn 0 1 0
vn -1 0 0
vn 0 1 0
vn 0 0 -1
vn -1 -5.6999999742402e-07 3.499999934319931e-07
vn 0 -1 0
vn -0.1742263585329056 0 0.9847056269645691
vn -1 0 0
vn 0 -1 0
vn -1 -5.6999999742402e-07 -1.500000053056283e-07
vn 0 0 -1
vn -1 0 1.480000037190621e-06
vn 0 1 0
vn -0.174226313829422 -1.100000019960135e-07 0.9847056269645691
vn -1 0 0
vn 0 1 0
vn -1 0 -1.500000053056283e-07
vn 0 0 -1
vn -1 0 1.480000037190621e-06
vn 0 -1 0
vn -0.1742262542247772 0 0.9847056269645691
vn -1 0 0
vn 0 -1 0
vn -1 4.400000079840538e-07 -1.500000053056283e-07
vn 0 0 -1
vn 0 -1 0
vn -1 6.600000119760807e-07 7.400000185953104e-07
f 114//114 122//122 141//141
f 151//151 144//144 116//116 67//67
f 105//105 104//104 163//163 165//165
f 99//99 98//98 104//104 105//105
f 165//165 163//163 169//169 171//171
f 90//90 88//88 98//98 99//99
f 171//171 169//169 180//180 185//185
f 183//183 176//176 158//158 159//159
f 159//159 158//158 132//132 133//133
f 133//133 132//132 126//126 127//127
f 127//127 126//126 86//86 89//89
f 184//184 178//178 175//175 182//182
f 89//89 86//86 88//88 90//90
f 185//185 180//180 178//178 184//184
f 103//103 97//97 170//170 164//164
f 97//97 87//87 181//181 170//170
f 177//177 125//125 131//131 157//157
f 177//177 179//179 85//85 125//125
f 85//85 179//179 181//181 87//87
f 2//2 5//5 23//23 20//20
f 6//6 11//11 29//29 24//24
f 12//12 9//9 27//27 30//30
f 8//8 3//3 21//21 26//26
f 19//19 22//22 16//16 13//13
f 22//22 28//28 34//34 16//16
f 28//28 25//25 31//31 34//34
f 25//25 19//19 13//13 31//31
f 14//14 17//17 47//47 44//44
f 18//18 35//35 53//53 48//48
f 36//36 33//33 51//51 54//54
f 32//32 15//15 45//45 50//50
f 43//43 46//46 40//40 37//37
f 46//46 52//52 58//58 40//40
f 52//52 49//49 55//55 58//58
f 49//49 43//43 37//37 55//55
f 71//71 38//38 41//41 73//73
f 57//57 76//76 78//78 60//60
f 77//77 74//74 42//42 59//59
f 10//10 4//4 1//1 7//7
f 56//56 39//39 72//72 75//75
f 106//106 166//166 167//167 108//108
f 100//100 106//106 108//108 102//102
f 166//166 172//172 173//173 167//167
f 92//92 100//100 102//102 96//96
f 172//172 189//189 195//195 173//173
f 187//187 160//160 162//162 191//191
f 160//160 134//134 136//136 162//162
f 134//134 128//128 130//130 136//136
f 128//128 91//91 94//94 130//130
f 188//188 186//186 190//190 193//193
f 91//91 92//92 96//96 94//94
f 189//189 188//188 193//193 195//195
f 107//107 168//168 174//174 101//101
f 101//101 174//174 196//196 95//95
f 192//192 161//161 135//135 129//129
f 192//192 129//129 93//93 194//194
f 93//93 95//95 196//196 194//194
f 224//224 232//232 202//202
f 215//215 207//207 210//210 199//199
f 224//224 202//202 199//199 217//217
f 198//198 149//149 146//146 214//214
f 150//150 156//156 153//153 147//147
f 155//155 201//201 221//221 151//151
f 221//221 218//218 144//144 151//151
f 154//154 148//148 197//197 200//200
f 211//211 214//214 146//146 141//141
f 143//143 140//140 119//119 123//123
f 225//225 112//112 120//120 139//139
f 137//137 142//142 121//121 117//117
f 146//146 63//63 114//114 141//141
f 123//123 119//119 111//111 115//115
f 203//203 138//138 118//118 110//110
f 117//117 121//121 113//113 109//109
f 116//116 144//144 124//124
f 115//115 111//111 82//82 66//66
f 112//112 225//225 228//228 82//82
f 227//227 220//220 222//222 229//229
f 203//203 110//110 79//79 206//206
f 109//109 113//113 61//61 79//79
f 213//213 205//205 207//207 215//215
f 206//206 79//79 80//80 208//208
f 82//82 228//228 231//231 83//83
f 230//230 223//223 70//70 84//84
f 223//223 216//216 65//65 70//70
f 216//216 209//209 81//81 65//65
f 83//83 69//69 66//66 82//82
f 69//69 64//64 61//61 66//66
f 64//64 80//80 79//79 61//61
f 140//140 143//143 219//219 226//226
f 68//68 62//62 145//145 152//152
f 142//142 137//137 204//204 212//212
f 229//229 222//222 202//202 232//232
f 210//210 217//217 199//199
