# This file uses centimeters as units for non-parametric coordinates.

mtllib TorpedoOxygenDKMAxis.mtl
g default
v 2.582849 4.498408 0.469221
v 2.582849 4.498408 0.762958
v 3.996260 3.912955 0.762958
v 3.996260 3.912955 0.469221
v 4.581714 2.499543 0.762958
v 4.581714 2.499543 0.469221
v 3.996260 1.086133 0.762958
v 3.996260 1.086133 0.469221
v 2.582849 0.500679 0.762958
v 2.582849 0.500679 0.469221
v 1.169438 1.086133 0.762958
v 1.169438 1.086133 0.469221
v 0.583984 2.499543 0.762958
v 0.583984 2.499543 0.469221
v 1.169438 3.912954 0.762958
v 1.169438 3.912954 0.469221
v 4.231155 0.851237 0.140139
v 4.913906 2.499543 0.140139
v 0.934543 4.147849 0.140139
v 2.582849 4.830601 0.140139
v 2.582849 4.830601 0.005951
v 0.934543 4.147849 0.005951
v 4.231155 4.147850 0.140139
v 2.582849 0.168486 0.140139
v 0.934543 0.851238 0.140139
v 0.251792 2.499543 0.140139
v 4.231155 4.147850 0.005951
v 4.913906 2.499543 0.005951
v 0.251792 2.499543 0.005951
v 0.934543 0.851238 0.005951
v 4.231155 0.851237 0.005951
v 2.582849 0.168486 0.005951
vn 0.382683 0.923880 -0.000000
vn 0.382683 0.923880 -0.000000
vn 0.382683 0.923880 -0.000000
vn 0.382683 0.923880 -0.000000
vn 0.923880 0.382683 0.000000
vn 0.923880 0.382683 0.000000
vn 0.923880 0.382683 0.000000
vn 0.923880 0.382683 0.000000
vn 0.923879 -0.382684 0.000000
vn 0.923879 -0.382684 0.000000
vn 0.923879 -0.382684 0.000000
vn 0.923879 -0.382684 0.000000
vn 0.382683 -0.923880 0.000000
vn 0.382683 -0.923880 0.000000
vn 0.382683 -0.923880 0.000000
vn 0.382683 -0.923880 0.000000
vn -0.382684 -0.923879 0.000000
vn -0.382684 -0.923879 0.000000
vn -0.382684 -0.923879 0.000000
vn -0.382684 -0.923879 0.000000
vn -0.923880 -0.382683 -0.000000
vn -0.923880 -0.382683 -0.000000
vn -0.923880 -0.382683 -0.000000
vn -0.923880 -0.382683 -0.000000
vn -0.000000 0.000000 1.000000
vn -0.000000 0.000000 1.000000
vn -0.000000 0.000000 1.000000
vn -0.000000 0.000000 1.000000
vn -0.000000 0.000000 1.000000
vn -0.000000 0.000000 1.000000
vn -0.000000 0.000000 1.000000
vn -0.000000 0.000000 1.000000
vn -0.000000 0.000000 1.000000
vn -0.000000 0.000000 1.000000
vn -0.000000 0.000000 1.000000
vn -0.000000 0.000000 1.000000
vn -0.000000 0.000000 1.000000
vn -0.000000 0.000000 1.000000
vn -0.000000 0.000000 1.000000
vn -0.000000 0.000000 1.000000
vn -0.000000 0.000000 1.000000
vn -0.000000 0.000000 1.000000
vn -0.382684 0.923879 -0.000000
vn -0.382684 0.923879 -0.000000
vn -0.382684 0.923879 -0.000000
vn -0.382684 0.923879 -0.000000
vn -0.923880 0.382683 -0.000000
vn -0.923880 0.382683 -0.000000
vn -0.923880 0.382683 -0.000000
vn -0.923880 0.382683 -0.000000
vn 0.244341 -0.101209 0.964393
vn 0.244341 -0.101209 0.964393
vn 0.244341 -0.101209 0.964393
vn 0.244341 -0.101209 0.964393
vn -0.382684 0.923879 -0.000000
vn -0.382684 0.923879 -0.000000
vn -0.382684 0.923879 -0.000000
vn -0.382684 0.923879 -0.000000
vn 0.101209 0.244341 0.964393
vn 0.101209 0.244341 0.964393
vn 0.101209 0.244341 0.964393
vn 0.101209 0.244341 0.964393
vn 0.101209 -0.244340 0.964393
vn 0.101209 -0.244340 0.964393
vn 0.101209 -0.244340 0.964393
vn 0.101209 -0.244340 0.964393
vn -0.101209 -0.244341 0.964393
vn -0.101209 -0.244341 0.964393
vn -0.101209 -0.244341 0.964393
vn -0.101209 -0.244341 0.964393
vn -0.244341 -0.101209 0.964393
vn -0.244341 -0.101209 0.964393
vn -0.244341 -0.101209 0.964393
vn -0.244341 -0.101209 0.964393
vn -0.244341 0.101209 0.964393
vn -0.244341 0.101209 0.964393
vn -0.244341 0.101209 0.964393
vn -0.244341 0.101209 0.964393
vn -0.101209 0.244341 0.964393
vn -0.101209 0.244341 0.964393
vn -0.101209 0.244341 0.964393
vn -0.101209 0.244341 0.964393
vn 0.244341 0.101209 0.964393
vn 0.244341 0.101209 0.964393
vn 0.244341 0.101209 0.964393
vn 0.244341 0.101209 0.964393
vn 0.000000 -0.000000 -1.000000
vn 0.000000 -0.000000 -1.000000
vn 0.000000 -0.000000 -1.000000
vn 0.000000 -0.000000 -1.000000
vn 0.000000 -0.000000 -1.000000
vn 0.000000 -0.000000 -1.000000
vn 0.000000 -0.000000 -1.000000
vn 0.000000 -0.000000 -1.000000
vn 0.000000 -0.000000 -1.000000
vn 0.000000 -0.000000 -1.000000
vn 0.000000 -0.000000 -1.000000
vn 0.000000 -0.000000 -1.000000
vn 0.000000 -0.000000 -1.000000
vn 0.000000 -0.000000 -1.000000
vn 0.000000 -0.000000 -1.000000
vn 0.000000 -0.000000 -1.000000
vn 0.000000 -0.000000 -1.000000
vn 0.000000 -0.000000 -1.000000
vn 0.382683 0.923880 -0.000000
vn 0.382683 0.923880 -0.000000
vn 0.382683 0.923880 -0.000000
vn 0.382683 0.923880 -0.000000
vn 0.382683 -0.923880 0.000000
vn 0.382683 -0.923880 0.000000
vn 0.382683 -0.923880 0.000000
vn 0.382683 -0.923880 0.000000
vn -0.923880 0.382683 -0.000000
vn -0.923880 0.382683 -0.000000
vn -0.923880 0.382683 -0.000000
vn -0.923880 0.382683 -0.000000
vn 0.923880 -0.382683 0.000000
vn 0.923880 -0.382683 0.000000
vn 0.923880 -0.382683 0.000000
vn 0.923880 -0.382683 0.000000
vn -0.923880 -0.382683 -0.000000
vn -0.923880 -0.382683 -0.000000
vn -0.923880 -0.382683 -0.000000
vn -0.923880 -0.382683 -0.000000
vn 0.923880 0.382683 0.000000
vn 0.923880 0.382683 0.000000
vn 0.923880 0.382683 0.000000
vn 0.923880 0.382683 0.000000
vn -0.382684 -0.923879 0.000000
vn -0.382684 -0.923879 0.000000
vn -0.382684 -0.923879 0.000000
vn -0.382684 -0.923879 0.000000
s off
g polySurface44 polySurface43
usemtl initialShadingGroup
f 1//1 2//2 3//3 4//4
f 4//5 3//6 5//7 6//8
f 6//9 5//10 7//11 8//12
f 8//13 7//14 9//15 10//16
f 10//17 9//18 11//19 12//20
f 12//21 11//22 13//23 14//24
f 3//25 2//26 15//27
f 3//28 15//29 5//30
f 15//31 13//32 5//33
f 13//34 11//35 5//36
f 11//37 7//38 5//39
f 11//40 9//41 7//42
f 2//43 1//44 16//45 15//46
f 14//47 13//48 15//49 16//50
f 6//51 8//52 17//53 18//54
f 19//55 20//56 21//57 22//58
f 1//59 4//60 23//61 20//62
f 8//63 10//64 24//65 17//66
f 10//67 12//68 25//69 24//70
f 12//71 14//72 26//73 25//74
f 14//75 16//76 19//77 26//78
f 16//79 1//80 20//81 19//82
f 4//83 6//84 18//85 23//86
f 21//87 27//88 22//89
f 27//90 28//91 22//92
f 28//93 29//94 22//95
f 28//96 30//97 29//98
f 28//99 31//100 30//101
f 31//102 32//103 30//104
f 20//105 23//106 27//107 21//108
f 17//109 24//110 32//111 31//112
f 26//113 19//114 22//115 29//116
f 18//117 17//118 31//119 28//120
f 25//121 26//122 29//123 30//124
f 23//125 18//126 28//127 27//128
f 24//129 25//130 30//131 32//132
