# RokuSuper Output Ver2.0 for Wavefront Obj

v 5.29935700 12.34829100 0.09835700
v 10.14765000 0.64348000 0.09835700
v 14.99594100 2.65170700 0.09835700
v 10.14765000 14.35652000 0.09835700
v 14.99594100 12.34829100 0.09835700
v 17.00416800 7.49999900 0.09835700
v 14.99594100 2.65170700 1.25066000
v 10.14765000 0.64348000 1.25066000
v 5.29935700 12.34829100 1.25066000
v 10.14765000 14.35652000 1.25066000
v 5.29935700 2.65170700 1.25066000
v 3.29113000 7.49999900 1.25066000
v 14.99594100 12.34829100 1.25066000
v 17.00416800 7.49999900 1.25066000
v 3.29113000 7.49999900 0.09835700
v 5.29935700 2.65170700 0.09835700

vn 0.00000000 0.00000000 -1.00000000
vn 0.00000000 0.00000000 -1.00000000
vn 0.00000000 0.00000000 -1.00000000
vn 0.00000000 0.00000000 -1.00000000
vn 0.00000000 0.00000000 -1.00000000
vn 0.00000000 0.00000000 -1.00000000
vn 0.00000000 0.00000000 -1.00000000
vn 0.00000000 0.00000000 -1.00000000
vn 0.00000000 0.00000000 1.00000000
vn 0.00000000 0.00000000 1.00000000
vn 0.00000000 0.00000000 1.00000000
vn 0.00000000 0.00000000 1.00000000
vn 0.00000000 0.00000000 1.00000000
vn 0.00000000 0.00000000 1.00000000
vn 0.00000000 0.00000000 1.00000000
vn 0.00000000 0.00000000 1.00000000
vn 0.00000000 0.00000000 1.00000000
vn 0.00000000 0.00000000 1.00000000
vn 0.00000000 0.00000000 1.00000000
vn 0.00000000 0.00000000 1.00000000
vn 0.00000000 0.00000000 -1.00000000
vn 0.00000000 0.00000000 -1.00000000
vn 0.00000000 0.00000000 -1.00000000
vn 0.00000000 0.00000000 -1.00000000
vn -0.60374814 0.79717513 0.00000000
vn 0.13677376 0.99060231 0.00000000
vn -0.13677361 0.99060233 0.00000000
vn -0.79717530 0.60374792 0.00000000
vn 0.13677376 0.99060231 0.00000000
vn 0.79717532 0.60374788 0.00000000
vn 0.60374822 0.79717507 0.00000000
vn -0.13677361 0.99060233 0.00000000
vn 0.79717532 0.60374788 0.00000000
vn 0.99060234 -0.13677355 0.00000000
vn 0.99060234 0.13677355 0.00000000
vn 0.60374822 0.79717507 0.00000000
vn 0.99060234 -0.13677355 0.00000000
vn 0.60374803 -0.79717521 0.00000000
vn 0.79717526 -0.60374797 0.00000000
vn 0.99060234 0.13677355 0.00000000
vn 0.60374803 -0.79717521 0.00000000
vn -0.13677348 -0.99060235 0.00000000
vn 0.13677362 -0.99060233 0.00000000
vn 0.79717526 -0.60374797 0.00000000
vn -0.13677348 -0.99060235 0.00000000
vn -0.79717523 -0.60374800 0.00000000
vn -0.60374795 -0.79717527 0.00000000
vn 0.13677362 -0.99060233 0.00000000
vn -0.79717523 -0.60374800 0.00000000
vn -0.99060234 0.13677355 0.00000000
vn -0.99060234 -0.13677355 0.00000000
vn -0.60374795 -0.79717527 0.00000000
vn -0.99060234 0.13677355 0.00000000
vn -0.60374814 0.79717513 0.00000000
vn -0.79717530 0.60374792 0.00000000
vn -0.99060234 -0.13677355 0.00000000

g ²ã
f 2//1 1//2 4//3 3//4
f 4//5 5//6 6//7 3//8
f 8//9 7//10 10//11 9//12
f 12//13 11//14 8//15 9//16
f 14//17 13//18 10//19 7//20
f 16//21 15//22 1//23 2//24
f 9//25 10//26 4//27 1//28
f 10//29 13//30 5//31 4//32
f 13//33 14//34 6//35 5//36
f 14//37 7//38 3//39 6//40
f 7//41 8//42 2//43 3//44
f 8//45 11//46 16//47 2//48
f 11//49 12//50 15//51 16//52
f 12//53 9//54 1//55 15//56

