# RokuSuper Output Ver2.0 for Wavefront Obj

v 32.77701600 5.60293700 3.06377200
v 20.85444600 5.61958400 3.04297900
v 20.85471300 5.68389300 2.88772500
v 32.77730600 5.67212400 2.89673900
v 20.85482800 5.83914400 2.82341800
v 32.77742800 5.83915700 2.82755400
v 20.85471700 5.99439800 2.88772500
v 32.77730600 6.00619000 2.89673900
v 20.85444600 6.05870400 3.04297900
v 32.77701600 6.07537600 3.06377200
v 20.85417600 5.99439800 3.19822900
v 32.77672600 6.00619000 3.23080600
v 20.85406100 5.83914400 3.26253600
v 32.77660000 5.83915700 3.29999000
v 20.85417600 5.68389300 3.19822900
v 32.77672600 5.67212400 3.23080600
v 32.77702000 5.49248300 3.06377200
v 32.77744700 5.59402100 2.81863800
v 32.77762200 5.83915700 2.71710000
v 32.77744700 6.08429100 2.81863800
v 32.77702000 6.18583200 3.06377200
v 32.77658800 6.08429100 3.30890700
v 32.77641300 5.83915700 3.41044400
v 32.77658800 5.59402300 3.30890700
v 31.74052400 5.57157900 3.06196300
v 31.74084900 5.64995000 2.87275600
v 31.74099000 5.83915700 2.79438600
v 31.74085200 6.02836400 2.87275600
v 31.74052400 6.10673700 3.06196300
v 31.74019600 6.02836400 3.25117000
v 31.74005500 5.83915700 3.32954000
v 31.74019600 5.64995000 3.25117000
v 22.67705200 5.36642100 3.04677600
v 22.67763500 5.50488400 2.71250000
v 22.67787600 5.83915900 2.57403800
v 22.67763500 6.17343500 2.71250000
v 22.67705200 6.31189500 3.04677600
v 22.67646800 6.17343500 3.38104900
v 22.67622800 5.83915900 3.51951100
v 22.67646800 5.50488400 3.38104900
v 22.67705200 5.30398500 3.04677600
v 22.67771100 5.46073400 2.66835000
v 22.67798600 5.83915900 2.51160300
v 22.67771100 6.21758500 2.66835000
v 22.67705200 6.37433200 3.04677600
v 22.67639200 6.21758500 3.42519900
v 22.67611700 5.83915900 3.58194900
v 22.67639200 5.46073400 3.42519900
v 14.25820400 5.25345800 3.61715100
v 14.25922400 5.01085500 3.03145200
v 14.26024600 5.25345800 2.44575300
v 14.26067000 5.83915900 2.20315000
v 14.26024600 6.42485800 2.44575300
v 14.25922400 6.66746400 3.03145200
v 14.25820400 6.42485800 3.61715100
v 14.25777800 5.83915900 3.85975700
v 20.85471700 9.31610300 2.88772500
v 20.85444600 9.38041100 3.04297900
v 32.77701600 9.39705700 3.06377200
v 32.77730600 9.32786900 2.89673900
v 20.85482800 9.16085100 2.82341800
v 32.77742800 9.16083900 2.82755400
v 20.85471700 9.00560000 2.88772500
v 32.77730600 8.99380700 2.89673900
v 20.85444600 8.94129200 3.04297900
v 32.77701600 8.92462000 3.06377200
v 20.85417600 9.00560000 3.19822900
v 32.77672600 8.99380700 3.23080600
v 20.85406100 9.16085100 3.26253600
v 32.77660000 9.16083900 3.29999000
v 20.85417600 9.31610300 3.19822900
v 32.77672600 9.32786900 3.23080600
v 32.77702000 9.50751100 3.06377200
v 32.77744700 9.40597300 2.81863800
v 32.77762200 9.16083900 2.71710000
v 32.77744700 8.91570300 2.81863800
v 32.77702000 8.81416500 3.06377200
v 32.77658800 8.91570300 3.30890700
v 32.77641300 9.16083900 3.41044400
v 32.77658800 9.40597300 3.30890700
v 31.74052400 9.42841700 3.06196300
v 31.74085200 9.35004400 2.87275600
v 31.74099300 9.16083700 2.79438600
v 31.74085200 8.97163200 2.87275600
v 31.74052400 8.89325900 3.06196300
v 31.74019600 8.97163200 3.25117000
v 31.74005500 9.16083700 3.32954000
v 31.74019600 9.35004400 3.25117000
v 22.67705200 9.63357400 3.04677600
v 22.67763500 9.49511300 2.71250000
v 22.67787600 9.16083700 2.57403800
v 22.67763500 8.82656100 2.71250000
v 22.67705200 8.68809900 3.04677600
v 22.67646800 8.82656100 3.38104900
v 22.67622800 9.16083700 3.51951100
v 22.67646800 9.49511300 3.38104900
v 22.67705200 9.69601100 3.04677600
v 22.67771100 9.53926100 2.66835000
v 22.67798600 9.16083700 2.51160300
v 22.67771100 8.78241200 2.66835000
v 22.67705200 8.62566200 3.04677600
v 22.67639200 8.78241200 3.42519900
v 22.67611700 9.16083700 3.58194900
v 22.67639200 9.53926100 3.42519900
v 14.25820400 9.74653600 3.61715100
v 14.25922400 9.98914100 3.03145200
v 14.26024600 9.74653600 2.44575300
v 14.26067000 9.16083700 2.20315000
v 14.26024600 8.57513600 2.44575300
v 14.25922400 8.33253100 3.03145200
v 14.25820400 8.57513600 3.61715100
v 14.25777800 9.16083700 3.85975700

vn 0.00114464 0.99060186 0.13677227
vn 0.00162175 0.99060091 -0.13677432
vn 0.00033041 0.79717210 0.60375204
vn -0.00000680 0.60374359 0.79717857
vn -0.00000680 0.60374359 0.79717857
vn 0.00033041 0.79717210 0.60375204
vn -0.00034374 0.13677314 0.99060234
vn -0.00034347 -0.13676727 0.99060315
vn -0.00034347 -0.13676727 0.99060315
vn -0.00034374 0.13677314 0.99060234
vn -0.00000559 -0.60374431 0.79717803
vn 0.00033202 -0.79717749 0.60374493
vn 0.00033202 -0.79717749 0.60374493
vn -0.00000559 -0.60374431 0.79717803
vn 0.00114665 -0.99060195 0.13677155
vn 0.00162377 -0.99060146 -0.13677028
vn 0.00162377 -0.99060146 -0.13677028
vn 0.00114665 -0.99060195 0.13677155
vn 0.00243808 -0.79717421 -0.60374443
vn 0.00277527 -0.60374214 -0.79717484
vn 0.00277527 -0.60374214 -0.79717484
vn 0.00243808 -0.79717421 -0.60374443
vn 0.00311211 -0.13677063 -0.99059785
vn 0.00311185 0.13676998 -0.99059795
vn 0.00311185 0.13676998 -0.99059795
vn 0.00311211 -0.13677063 -0.99059785
vn 0.00277407 0.60374408 -0.79717338
vn 0.00243648 0.79717279 -0.60374631
vn 0.00243648 0.79717279 -0.60374631
vn 0.00277407 0.60374408 -0.79717338
vn 0.00162175 0.99060091 -0.13677432
vn 0.00114464 0.99060186 0.13677227
vn 0.99999848 0.00004045 0.00174484
vn 0.99999847 0.00002305 0.00174724
vn 0.99999844 0.00003637 0.00176491
vn 0.99999844 0.00002333 0.00176473
vn 0.99999844 0.00002333 0.00176473
vn 0.99999844 0.00003637 0.00176491
vn 0.99999844 0.00000248 0.00176471
vn 0.99999844 -0.00000961 0.00176861
vn 0.99999844 -0.00000961 0.00176861
vn 0.99999844 0.00000248 0.00176471
vn 0.99999843 -0.00002359 0.00176998
vn 0.99999844 -0.00003112 0.00176824
vn 0.99999844 -0.00003112 0.00176824
vn 0.99999843 -0.00002359 0.00176998
vn 0.99999846 -0.00003910 0.00175299
vn 0.99999847 -0.00001689 0.00174788
vn 0.99999847 -0.00001689 0.00174788
vn 0.99999846 -0.00003910 0.00175299
vn 0.99999847 -0.00000058 0.00174890
vn 0.99999850 -0.00000621 0.00173080
vn 0.99999850 -0.00000621 0.00173080
vn 0.99999847 -0.00000058 0.00174890
vn 0.99999853 -0.00000925 0.00171341
vn 0.99999852 -0.00000819 0.00172295
vn 0.99999852 -0.00000819 0.00172295
vn 0.99999853 -0.00000925 0.00171341
vn 0.99999847 0.00000842 0.00174650
vn 0.99999846 0.00001628 0.00175589
vn 0.99999846 0.00001628 0.00175589
vn 0.99999847 0.00000842 0.00174650
vn 0.99999847 0.00002305 0.00174724
vn 0.99999848 0.00004045 0.00174484
vn -0.07514003 -0.98778462 -0.13651197
vn -0.02677176 -0.99964157 -0.00004622
vn -0.02556217 -0.70685198 -0.70689946
vn -0.07398956 -0.60202732 -0.79504003
vn -0.07398956 -0.60202732 -0.79504003
vn -0.02556217 -0.70685198 -0.70689946
vn -0.02506138 0.00000029 -0.99968591
vn -0.07365309 0.13638229 -0.98791452
vn -0.07365309 0.13638229 -0.98791452
vn -0.02506138 0.00000029 -0.99968591
vn -0.02556172 0.70685020 -0.70690126
vn -0.07432520 0.79490497 -0.60216431
vn -0.07432520 0.79490497 -0.60216431
vn -0.02556172 0.70685020 -0.70690126
vn -0.02677123 0.99964159 -0.00004813
vn -0.07561533 0.98778400 0.13625381
vn -0.07561533 0.98778400 0.13625381
vn -0.02677123 0.99964159 -0.00004813
vn -0.02798020 0.70685020 0.70680967
vn -0.07676432 0.60202565 0.79477818
vn -0.07676432 0.60202565 0.79477818
vn -0.02798020 0.70685020 0.70680967
vn -0.02848136 -0.00000092 0.99959432
vn -0.07710137 -0.13638187 0.98765144
vn -0.07710137 -0.13638187 0.98765144
vn -0.02848136 -0.00000092 0.99959432
vn -0.02798041 -0.70685210 0.70680775
vn -0.07642788 -0.79490681 0.60189862
vn -0.07642788 -0.79490681 0.60189862
vn -0.02798041 -0.70685210 0.70680775
vn -0.02677176 -0.99964157 -0.00004622
vn -0.07514003 -0.98778462 -0.13651197
vn -0.02677176 -0.99964157 -0.00004622
vn 0.02218805 -0.99035331 0.13677720
vn 0.02342858 -0.79697641 -0.60355588
vn -0.02556217 -0.70685198 -0.70689946
vn -0.02556217 -0.70685198 -0.70689946
vn 0.02342858 -0.79697641 -0.60355588
vn 0.02407702 -0.13673698 -0.99031475
vn -0.02506138 0.00000029 -0.99968591
vn -0.02506138 0.00000029 -0.99968591
vn 0.02407702 -0.13673698 -0.99031475
vn 0.02375303 0.60359608 -0.79693636
vn -0.02556172 0.70685020 -0.70690126
vn -0.02556172 0.70685020 -0.70690126
vn 0.02375303 0.60359608 -0.79693636
vn 0.02264647 0.99035355 -0.13670031
vn -0.02677123 0.99964159 -0.00004813
vn -0.02677123 0.99964159 -0.00004813
vn 0.02264647 0.99035355 -0.13670031
vn 0.02140586 0.79697412 0.60363403
vn -0.02798020 0.70685020 0.70680967
vn -0.02798020 0.70685020 0.70680967
vn 0.02140586 0.79697412 0.60363403
vn 0.02075777 0.13673558 0.99039007
vn -0.02848136 -0.00000092 0.99959432
vn -0.02848136 -0.00000092 0.99959432
vn 0.02075777 0.13673558 0.99039007
vn 0.02108150 -0.60359233 0.79701435
vn -0.02798041 -0.70685210 0.70680775
vn -0.02798041 -0.70685210 0.70680775
vn 0.02108150 -0.60359233 0.79701435
vn 0.02218805 -0.99035331 0.13677720
vn -0.02677176 -0.99964157 -0.00004622
vn 0.99999848 -0.00000534 0.00174197
vn 0.99999848 0.00000534 0.00174198
vn 0.99999849 -0.00000857 0.00173664
vn 0.99999848 -0.00000563 0.00174344
vn 0.99999848 -0.00000563 0.00174344
vn 0.99999849 -0.00000857 0.00173664
vn 0.99999847 -0.00000131 0.00175158
vn 0.99999847 0.00000378 0.00175022
vn 0.99999847 0.00000378 0.00175022
vn 0.99999847 -0.00000131 0.00175158
vn 0.99999848 0.00000556 0.00174147
vn 0.99999849 0.00000659 0.00173554
vn 0.99999849 0.00000659 0.00173554
vn 0.99999848 0.00000556 0.00174147
vn 0.99999848 0.00000472 0.00174123
vn 0.99999848 -0.00000605 0.00174257
vn 0.99999848 -0.00000605 0.00174257
vn 0.99999848 0.00000472 0.00174123
vn 0.99999849 -0.00000927 0.00173823
vn 0.99999847 -0.00000314 0.00174946
vn 0.99999847 -0.00000314 0.00174946
vn 0.99999849 -0.00000927 0.00173823
vn 0.99999845 -0.00000031 0.00176219
vn 0.99999845 0.00000407 0.00176014
vn 0.99999845 0.00000407 0.00176014
vn 0.99999845 -0.00000031 0.00176219
vn 0.99999847 0.00000328 0.00174670
vn 0.99999849 0.00000651 0.00173647
vn 0.99999849 0.00000651 0.00173647
vn 0.99999847 0.00000328 0.00174670
vn 0.99999848 0.00000534 0.00174198
vn 0.99999848 -0.00000534 0.00174197
vn 0.03337649 -0.79670322 0.60344841
vn 0.03302471 -0.60339219 0.79676046
vn 0.03422591 -0.99001372 0.13675314
vn 0.03472354 -0.99001342 -0.13662981
vn 0.03472354 -0.99001342 -0.13662981
vn 0.03422591 -0.99001372 0.13675314
vn 0.03557310 -0.79670043 -0.60332659
vn 0.03592497 -0.60338663 -0.79663917
vn 0.03592497 -0.60338663 -0.79663917
vn 0.03557310 -0.79670043 -0.60332659
vn 0.03627674 -0.13669038 -0.98994936
vn 0.03627667 0.13669101 -0.98994928
vn 0.03627667 0.13669101 -0.98994928
vn 0.03627674 -0.13669038 -0.98994936
vn 0.03592479 0.60338609 -0.79663959
vn 0.03557304 0.79670019 -0.60332692
vn 0.03557304 0.79670019 -0.60332692
vn 0.03592479 0.60338609 -0.79663959
vn 0.03472360 0.99001341 -0.13662984
vn 0.03422594 0.99001361 0.13675391
vn 0.03422594 0.99001361 0.13675391
vn 0.03472360 0.99001341 -0.13662984
vn 0.03337640 0.79670315 0.60344851
vn 0.03302454 0.60339224 0.79676043
vn 0.03302454 0.60339224 0.79676043
vn 0.03337640 0.79670315 0.60344851
vn 0.03267278 0.13669393 0.99007437
vn 0.03267283 -0.13669358 0.99007442
vn 0.03267283 -0.13669358 0.99007442
vn 0.03267278 0.13669393 0.99007437
vn 0.03302471 -0.60339219 0.79676046
vn 0.03337649 -0.79670322 0.60344841
vn 0.00114449 -0.99060164 0.13677382
vn -0.00000690 -0.60374606 0.79717670
vn 0.00033027 -0.79717336 0.60375038
vn 0.00162162 -0.99060114 -0.13677263
vn -0.00000690 -0.60374606 0.79717670
vn -0.00034346 0.13677103 0.99060263
vn -0.00034377 -0.13677389 0.99060223
vn 0.00033027 -0.79717336 0.60375038
vn -0.00034346 0.13677103 0.99060263
vn 0.00033205 0.79717540 0.60374769
vn -0.00000557 0.60374552 0.79717711
vn -0.00034377 -0.13677389 0.99060223
vn 0.00033205 0.79717540 0.60374769
vn 0.00162381 0.99060116 -0.13677244
vn 0.00114668 0.99060141 0.13677550
vn -0.00000557 0.60374552 0.79717711
vn 0.00162381 0.99060116 -0.13677244
vn 0.00277529 0.60374190 -0.79717502
vn 0.00243813 0.79717124 -0.60374835
vn 0.00114668 0.99060141 0.13677550
vn 0.00277529 0.60374190 -0.79717502
vn 0.00311181 -0.13676929 -0.99059804
vn 0.00311212 0.13677175 -0.99059770
vn 0.00243813 0.79717124 -0.60374835
vn 0.00311181 -0.13676929 -0.99059804
vn 0.00243634 -0.79717245 -0.60374676
vn 0.00277396 -0.60374394 -0.79717348
vn 0.00311212 0.13677175 -0.99059770
vn 0.00243634 -0.79717245 -0.60374676
vn 0.00114449 -0.99060164 0.13677382
vn 0.00162162 -0.99060114 -0.13677263
vn 0.00277396 -0.60374394 -0.79717348
vn 0.99999848 -0.00004045 0.00174484
vn 0.99999844 -0.00002333 0.00176473
vn 0.99999844 -0.00003637 0.00176491
vn 0.99999847 -0.00002305 0.00174724
vn 0.99999844 -0.00002333 0.00176473
vn 0.99999844 0.00000961 0.00176861
vn 0.99999844 -0.00000248 0.00176471
vn 0.99999844 -0.00003637 0.00176491
vn 0.99999844 0.00000961 0.00176861
vn 0.99999844 0.00003112 0.00176824
vn 0.99999843 0.00002359 0.00176998
vn 0.99999844 -0.00000248 0.00176471
vn 0.99999844 0.00003112 0.00176824
vn 0.99999847 0.00001689 0.00174789
vn 0.99999846 0.00003910 0.00175299
vn 0.99999843 0.00002359 0.00176998
vn 0.99999847 0.00001689 0.00174789
vn 0.99999850 0.00000621 0.00173080
vn 0.99999847 0.00000058 0.00174890
vn 0.99999846 0.00003910 0.00175299
vn 0.99999850 0.00000621 0.00173080
vn 0.99999852 0.00000819 0.00172295
vn 0.99999853 0.00000925 0.00171341
vn 0.99999847 0.00000058 0.00174890
vn 0.99999852 0.00000819 0.00172295
vn 0.99999846 -0.00001628 0.00175589
vn 0.99999847 -0.00000842 0.00174650
vn 0.99999853 0.00000925 0.00171341
vn 0.99999846 -0.00001628 0.00175589
vn 0.99999848 -0.00004045 0.00174484
vn 0.99999847 -0.00002305 0.00174724
vn 0.99999847 -0.00000842 0.00174650
vn -0.07513877 0.98778395 -0.13651752
vn -0.07398999 0.60202809 -0.79503941
vn -0.02556181 0.70684947 -0.70690199
vn -0.02677133 0.99964158 -0.00004668
vn -0.07398999 0.60202809 -0.79503941
vn -0.07365345 -0.13638136 -0.98791462
vn -0.02506136 -0.00000113 -0.99968591
vn -0.02556181 0.70684947 -0.70690199
vn -0.07365345 -0.13638136 -0.98791462
vn -0.07432597 -0.79490656 -0.60216211
vn -0.02556215 -0.70685044 -0.70690101
vn -0.02506136 -0.00000113 -0.99968591
vn -0.07432597 -0.79490656 -0.60216211
vn -0.07561512 -0.98778407 0.13625341
vn -0.02677107 -0.99964159 -0.00004617
vn -0.02556215 -0.70685044 -0.70690101
vn -0.07561512 -0.98778407 0.13625341
vn -0.07676504 -0.60202840 0.79477603
vn -0.02798052 -0.70685211 0.70680775
vn -0.02677107 -0.99964159 -0.00004617
vn -0.07676504 -0.60202840 0.79477603
vn -0.07710162 0.13638273 0.98765130
vn -0.02848160 -0.00000026 0.99959432
vn -0.02798052 -0.70685211 0.70680775
vn -0.07710162 0.13638273 0.98765130
vn -0.07642830 0.79490636 0.60189916
vn -0.02798109 0.70685014 0.70680969
vn -0.02848160 -0.00000026 0.99959432
vn -0.07642830 0.79490636 0.60189916
vn -0.07513877 0.98778395 -0.13651752
vn -0.02677133 0.99964158 -0.00004668
vn -0.02798109 0.70685014 0.70680969
vn -0.02677133 0.99964158 -0.00004668
vn -0.02556181 0.70684947 -0.70690199
vn 0.02342873 0.79697546 -0.60355713
vn 0.02218804 0.99035291 0.13678010
vn -0.02556181 0.70684947 -0.70690199
vn -0.02506136 -0.00000113 -0.99968591
vn 0.02407705 0.13673662 -0.99031479
vn 0.02342873 0.79697546 -0.60355713
vn -0.02506136 -0.00000113 -0.99968591
vn -0.02556215 -0.70685044 -0.70690101
vn 0.02375300 -0.60359595 -0.79693647
vn 0.02407705 0.13673662 -0.99031479
vn -0.02556215 -0.70685044 -0.70690101
vn -0.02677107 -0.99964159 -0.00004617
vn 0.02264665 -0.99035352 -0.13670050
vn 0.02375300 -0.60359595 -0.79693647
vn -0.02677107 -0.99964159 -0.00004617
vn -0.02798052 -0.70685211 0.70680775
vn 0.02140590 -0.79697305 0.60363544
vn 0.02264665 -0.99035352 -0.13670050
vn -0.02798052 -0.70685211 0.70680775
vn -0.02848160 -0.00000026 0.99959432
vn 0.02075777 -0.13673719 0.99038985
vn 0.02140590 -0.79697305 0.60363544
vn -0.02848160 -0.00000026 0.99959432
vn -0.02798109 0.70685014 0.70680969
vn 0.02108170 0.60359329 0.79701362
vn 0.02075777 -0.13673719 0.99038985
vn -0.02798109 0.70685014 0.70680969
vn -0.02677133 0.99964158 -0.00004668
vn 0.02218804 0.99035291 0.13678010
vn 0.02108170 0.60359329 0.79701362
vn 0.99999848 0.00000534 0.00174197
vn 0.99999848 0.00000563 0.00174344
vn 0.99999849 0.00000857 0.00173664
vn 0.99999848 -0.00000534 0.00174198
vn 0.99999848 0.00000563 0.00174344
vn 0.99999847 -0.00000378 0.00175022
vn 0.99999847 0.00000131 0.00175158
vn 0.99999849 0.00000857 0.00173664
vn 0.99999847 -0.00000378 0.00175022
vn 0.99999849 -0.00000659 0.00173554
vn 0.99999848 -0.00000556 0.00174147
vn 0.99999847 0.00000131 0.00175158
vn 0.99999849 -0.00000659 0.00173554
vn 0.99999848 0.00000605 0.00174257
vn 0.99999848 -0.00000472 0.00174123
vn 0.99999848 -0.00000556 0.00174147
vn 0.99999848 0.00000605 0.00174257
vn 0.99999847 0.00000314 0.00174946
vn 0.99999849 0.00000927 0.00173823
vn 0.99999848 -0.00000472 0.00174123
vn 0.99999847 0.00000314 0.00174946
vn 0.99999845 -0.00000407 0.00176014
vn 0.99999845 0.00000031 0.00176219
vn 0.99999849 0.00000927 0.00173823
vn 0.99999845 -0.00000407 0.00176014
vn 0.99999849 -0.00000651 0.00173647
vn 0.99999847 -0.00000328 0.00174670
vn 0.99999845 0.00000031 0.00176219
vn 0.99999849 -0.00000651 0.00173647
vn 0.99999848 0.00000534 0.00174197
vn 0.99999848 -0.00000534 0.00174198
vn 0.99999847 -0.00000328 0.00174670
vn 0.03337642 0.79670232 0.60344960
vn 0.03472352 0.99001327 -0.13663089
vn 0.03422589 0.99001360 0.13675402
vn 0.03302464 0.60339206 0.79676056
vn 0.03472352 0.99001327 -0.13663089
vn 0.03592491 0.60338667 -0.79663915
vn 0.03557302 0.79669958 -0.60332772
vn 0.03422589 0.99001360 0.13675402
vn 0.03592491 0.60338667 -0.79663915
vn 0.03627673 -0.13669063 -0.98994933
vn 0.03627673 0.13669148 -0.98994921
vn 0.03557302 0.79669958 -0.60332772
vn 0.03627673 -0.13669063 -0.98994933
vn 0.03557311 -0.79669925 -0.60332815
vn 0.03592496 -0.60338637 -0.79663937
vn 0.03627673 0.13669148 -0.98994921
vn 0.03557311 -0.79669925 -0.60332815
vn 0.03422605 -0.99001364 0.13675366
vn 0.03472362 -0.99001310 -0.13663210
vn 0.03592496 -0.60338637 -0.79663937
vn 0.03422605 -0.99001364 0.13675366
vn 0.03302468 -0.60339050 0.79676174
vn 0.03337655 -0.79670181 0.60345027
vn 0.03472362 -0.99001310 -0.13663210
vn 0.03302468 -0.60339050 0.79676174
vn 0.03267282 0.13669403 0.99007436
vn 0.03267282 -0.13669347 0.99007443
vn 0.03337655 -0.79670181 0.60345027
vn 0.03267282 0.13669403 0.99007436
vn 0.03337642 0.79670232 0.60344960
vn 0.03302464 0.60339206 0.79676056
vn 0.03267282 -0.13669347 0.99007443

g ²ã
f 2//1 1//2 4//3 3//4
f 3//5 4//6 6//7 5//8
f 5//9 6//10 8//11 7//12
f 7//13 8//14 10//15 9//16
f 9//17 10//18 12//19 11//20
f 11//21 12//22 14//23 13//24
f 13//25 14//26 16//27 15//28
f 15//29 16//30 1//31 2//32
f 1//33 17//34 18//35 4//36
f 4//37 18//38 19//39 6//40
f 6//41 19//42 20//43 8//44
f 8//45 20//46 21//47 10//48
f 10//49 21//50 22//51 12//52
f 12//53 22//54 23//55 14//56
f 14//57 23//58 24//59 16//60
f 16//61 24//62 17//63 1//64
f 17//65 25//66 26//67 18//68
f 18//69 26//70 27//71 19//72
f 19//73 27//74 28//75 20//76
f 20//77 28//78 29//79 21//80
f 21//81 29//82 30//83 22//84
f 22//85 30//86 31//87 23//88
f 23//89 31//90 32//91 24//92
f 24//93 32//94 25//95 17//96
f 25//97 33//98 34//99 26//100
f 26//101 34//102 35//103 27//104
f 27//105 35//106 36//107 28//108
f 28//109 36//110 37//111 29//112
f 29//113 37//114 38//115 30//116
f 30//117 38//118 39//119 31//120
f 31//121 39//122 40//123 32//124
f 32//125 40//126 33//127 25//128
f 33//129 41//130 42//131 34//132
f 34//133 42//134 43//135 35//136
f 35//137 43//138 44//139 36//140
f 36//141 44//142 45//143 37//144
f 37//145 45//146 46//147 38//148
f 38//149 46//150 47//151 39//152
f 39//153 47//154 48//155 40//156
f 40//157 48//158 41//159 33//160
f 48//161 49//162 50//163 41//164
f 41//165 50//166 51//167 42//168
f 42//169 51//170 52//171 43//172
f 43//173 52//174 53//175 44//176
f 44//177 53//178 54//179 45//180
f 45//181 54//182 55//183 46//184
f 46//185 55//186 56//187 47//188
f 47//189 56//190 49//191 48//192
f 58//193 57//194 60//195 59//196
f 57//197 61//198 62//199 60//200
f 61//201 63//202 64//203 62//204
f 63//205 65//206 66//207 64//208
f 65//209 67//210 68//211 66//212
f 67//213 69//214 70//215 68//216
f 69//217 71//218 72//219 70//220
f 71//221 58//222 59//223 72//224
f 59//225 60//226 74//227 73//228
f 60//229 62//230 75//231 74//232
f 62//233 64//234 76//235 75//236
f 64//237 66//238 77//239 76//240
f 66//241 68//242 78//243 77//244
f 68//245 70//246 79//247 78//248
f 70//249 72//250 80//251 79//252
f 72//253 59//254 73//255 80//256
f 73//257 74//258 82//259 81//260
f 74//261 75//262 83//263 82//264
f 75//265 76//266 84//267 83//268
f 76//269 77//270 85//271 84//272
f 77//273 78//274 86//275 85//276
f 78//277 79//278 87//279 86//280
f 79//281 80//282 88//283 87//284
f 80//285 73//286 81//287 88//288
f 81//289 82//290 90//291 89//292
f 82//293 83//294 91//295 90//296
f 83//297 84//298 92//299 91//300
f 84//301 85//302 93//303 92//304
f 85//305 86//306 94//307 93//308
f 86//309 87//310 95//311 94//312
f 87//313 88//314 96//315 95//316
f 88//317 81//318 89//319 96//320
f 89//321 90//322 98//323 97//324
f 90//325 91//326 99//327 98//328
f 91//329 92//330 100//331 99//332
f 92//333 93//334 101//335 100//336
f 93//337 94//338 102//339 101//340
f 94//341 95//342 103//343 102//344
f 95//345 96//346 104//347 103//348
f 96//349 89//350 97//351 104//352
f 104//353 97//354 106//355 105//356
f 97//357 98//358 107//359 106//360
f 98//361 99//362 108//363 107//364
f 99//365 100//366 109//367 108//368
f 100//369 101//370 110//371 109//372
f 101//373 102//374 111//375 110//376
f 102//377 103//378 112//379 111//380
f 103//381 104//382 105//383 112//384

