# Rhino

o object_1
v 1.191 1.413 1.274
v 1.191 1.413 4.517
v 1.191 3.574 1.274
v 1.191 3.574 4.517
v 1.392 0.7579 1.274
v 1.392 0.7579 4.517
v 1.392 4.229 1.274
v 1.392 4.229 4.517
v 1.766 1.502 5.299
v 1.766 3.484 5.299
v 1.791 1.638 0.7777
v 1.791 3.348 0.7777
v 1.887 1.11 5.299
v 1.887 3.877 5.299
v 1.944 0.2784 1.274
v 1.944 0.2784 4.517
v 1.944 4.708 1.274
v 1.944 4.708 4.517
v 1.95 1.12 0.7777
v 1.95 3.866 0.7777
v 2.142 0.8882 5.299
v 2.142 4.099 5.299
v 2.254 2.493 0.7777
v 2.286 0.1987 4.517
v 2.286 0.8547 5.299
v 2.286 1.597 4.517
v 2.286 1.597 5.299
v 2.386 0.7409 0.7777
v 2.386 4.246 0.7777
v 2.497 1.588 0.7777
v 2.497 3.399 0.7777
v 2.51 0.2536 4.517
v 2.51 1.597 4.517
v 2.525 0.2536 4.809
v 2.525 1.597 4.809
v 2.593 4.204 5.299
v 2.679 0.2536 5.057
v 2.679 1.597 5.057
v 2.696 0.1029 1.274
v 2.696 0.1029 4.517
v 2.696 4.884 1.274
v 2.696 4.884 4.517
v 2.934 0.2536 5.199
v 2.934 1.597 5.199
v 2.982 0.602 0.7777
v 2.982 4.385 0.7777
v 3.159 0.9253 0.7777
v 3.159 4.061 0.7777
v 3.227 0.2536 5.199
v 3.227 1.597 5.199
v 3.482 0.2536 5.057
v 3.482 1.597 5.057
v 3.636 0.2536 4.809
v 3.636 1.597 4.809
v 3.651 0.2536 4.517
v 3.651 1.597 4.517
v 4.065 0.6827 0.7777
v 4.065 4.304 0.7777
v 4.143 1.84 5.006
v 4.143 1.84 5.299
v 4.143 3.147 5.006
v 4.143 3.147 5.299
v 4.235 0.1029 4.517
v 4.235 4.884 4.517
v 4.559 1.597 5.299
v 4.559 1.84 5.299
v 4.559 3.147 5.299
v 4.559 4.204 5.299
v 4.97 0.9253 0.7777
v 4.97 4.061 0.7777
v 5.341 0.7831 4.517
v 5.341 1.597 4.517
v 5.376 1.84 4.374
v 5.376 3.147 4.374
v 5.633 1.588 0.7777
v 5.633 3.399 0.7777
v 5.72 0.602 0.7777
v 5.72 4.385 0.7777
v 5.875 2.493 0.7777
v 6.157 0.1029 2.596
v 6.157 4.884 2.596
v 6.157 0.1029 1.274
v 6.157 4.884 1.274
v 6.288 1.84 3.33
v 6.288 3.147 3.33
v 6.338 1.14 0.7777
v 6.338 3.847 0.7777
v 6.748 1.84 2.023
v 6.748 3.147 2.023
v 6.938 0.7831 1.274
v 6.938 0.7831 2.92
v 6.938 1.84 2.023
v 6.938 1.84 2.92
v 6.938 3.147 2.023
v 6.938 3.147 2.92
v 6.938 4.204 1.274
v 6.938 4.204 2.92
vn 0.2507 0 0.9681
vn -0.2507 0 0.9681
vn 0.2507 0 0.9681
vn -0.2507 0 0.9681
vn 0.6891 0 0.7246
vn 0.2507 0 0.9681
vn 0.6891 0 0.7246
vn 0.2507 0 0.9681
vn 0.6891 0 0.7246
vn 0.6891 0 0.7246
vn 0.9542 0 0.2991
vn 0.9542 0 0.2991
vn 0.5335 0.234 -0.8128
vn 0.5335 0.234 -0.8128
vn 0.2025 0.596 -0.7771
vn 0.2025 0.596 -0.7771
vn 0.2025 0.596 -0.7771
vn 0.2025 0.596 -0.7771
vn -0.07626 0.681 -0.7283
vn -0.07626 0.681 -0.7283
vn -0.2808 0.5645 -0.7762
vn -0.07626 0.681 -0.7283
vn -0.2808 0.5645 -0.7762
vn -0.07626 0.681 -0.7283
vn -0.5014 0.3262 -0.8013
vn -0.2808 0.5645 -0.7762
vn -0.5014 0.3262 -0.8013
vn -0.2808 0.5645 -0.7762
vn 1 0 0
vn 1 0 0
vn 1 0 0
vn 1 0 0
vn 0 1.6e-05 1
vn 0 1.6e-05 1
vn 0 1.6e-05 1
vn 0 1.6e-05 1
vn 0 0 1
vn 0 0 1
vn 0 0 1
vn 0 0 1
vn 0 0 1
vn 0 -2e-06 1
vn 0 0 1
vn 0 4e-06 1
vn 0 -2e-06 1
vn 0 -3e-06 1
vn 0 -2e-06 1
vn 0 0 1
vn 0 0 1
vn 0 0 1
vn 0 2.9e-05 1
vn 0 2.9e-05 1
vn 0 2.9e-05 1
vn 0 2.9e-05 1
vn 0 -7e-06 1
vn 0 -7e-06 1
vn 0 -7e-06 1
vn 0 -7e-06 1
vn 0.4641 0.7544 0.4641
vn 0.4641 0.7544 0.4641
vn 0.4641 0.7544 0.4641
vn 0.4641 0.7544 0.4641
vn -0.7693 0.237 0.5933
vn -0.7693 0.237 0.5933
vn -0.7693 0.237 0.5933
vn -0.7693 0.237 0.5933
vn -0.5239 0.6021 0.6025
vn -0.3564 0.6908 0.6292
vn -0.5239 0.6021 0.6025
vn -0.3564 0.6908 0.6292
vn -0.3564 0.6908 0.6292
vn -0.1758 0.7541 0.6328
vn -0.3564 0.6908 0.6292
vn -0.1758 0.7541 0.6328
vn 0 0.7544 0.6564
vn 0 0.7544 0.6564
vn 0 0.7544 0.6564
vn 0 0.7544 0.6564
vn 0.9434 0 0.3317
vn 0.9434 0 0.3317
vn 0.8638 0 0.5038
vn 0.8638 0 0.5038
vn 0.8638 0 0.5038
vn 0.8638 0 0.5038
vn 0.6156 0 0.7881
vn 0.6156 0 0.7881
vn 0.6156 0 0.7881
vn 0.6156 0 0.7881
vn 0.4558 0 0.8901
vn 0.4558 0 0.8901
vn 3e-06 1 0
vn 3e-06 1 0
vn 3e-06 1 0
vn 3e-06 1 0
vn 1.8e-05 1 0
vn 1.8e-05 1 0
vn 1.8e-05 1 0
vn 1.8e-05 1 0
vn 3e-06 1 0
vn 3e-06 1 0
vn 3e-06 1 0
vn 3e-06 1 0
vn -0.7694 -0.237 0.5932
vn -0.7694 -0.237 0.5932
vn -0.7694 -0.237 0.5932
vn -0.7694 -0.237 0.5932
vn -0.7722 -0.5969 0.2178
vn -0.9889 -0.1488 0
vn -0.8382 -0.5453 0
vn -0.9889 -0.1488 0
vn -0.8382 -0.5453 0
vn -0.4551 -0.8904 0
vn -0.7722 -0.5969 0.2178
vn -0.4301 -0.8381 0.3356
vn -0.4301 -0.8381 0.3356
vn -0.3563 -0.6908 0.6292
vn -0.7722 -0.5969 0.2178
vn -0.5239 -0.6022 0.6025
vn -0.8054 0 0.5927
vn -0.8054 0 0.5927
vn -0.8054 0 0.5927
vn -0.8054 0 0.5927
vn -0.9889 -0.1488 0
vn -0.9889 0.1488 0
vn -0.9889 -0.1488 0
vn -0.9889 0.1488 0
vn -0.6145 0.09063 -0.7837
vn -0.6145 0.09063 -0.7837
vn -0.6145 -0.09063 -0.7837
vn -0.6145 -0.09063 -0.7837
vn -0.6145 -0.09063 -0.7837
vn -0.5014 -0.3262 -0.8013
vn -0.6145 -0.09063 -0.7837
vn -0.5014 -0.3262 -0.8013
vn -0.5014 -0.3262 -0.8013
vn -0.5014 -0.3262 -0.8013
vn -0.2808 -0.5646 -0.7761
vn -0.2808 -0.5646 -0.7761
vn -0.07627 -0.681 -0.7283
vn -0.07627 -0.681 -0.7283
vn -0.2808 -0.5646 -0.7761
vn -0.2808 -0.5646 -0.7761
vn 0 -5e-06 -1
vn 0 -5e-06 -1
vn 0 -5e-06 -1
vn 0 -5e-06 -1
vn 0 4e-06 -1
vn 0 4e-06 -1
vn 0 4e-06 -1
vn 0 4e-06 -1
vn 0 0 -1
vn 0 0 -1
vn 0 0 -1
vn 0 0 -1
vn 0 0 -1
vn 0 0 -1
vn 0 0 -1
vn 0 0 -1
vn 0 0 -1
vn 0 0 -1
vn 0 0 -1
vn 0 0 -1
vn 0 0 -1
vn 0 0 -1
vn 0 0 -1
vn 0 0 -1
vn 0 0 -1
vn 0 0 -1
vn 0 0 -1
vn 0 0 -1
vn 0 0 -1
vn 0 0 -1
vn 0 0 -1
vn 0 0 -1
vn 0 0 -1
vn 0 0 -1
vn 0 0 -1
vn 0 0 -1
vn 0 0 -1
vn 0 0 -1
vn 0 0 -1
vn 0 0 -1
vn 0 0 -1
vn 0 0 -1
vn 0 0 -1
vn 0 0 -1
vn 0 0 -1
vn 0 0 -1
vn 0 0 -1
vn 0 0 -1
vn -0.6145 0.09063 -0.7837
vn -0.6145 0.09063 -0.7837
vn -0.5014 0.3262 -0.8013
vn -0.5014 0.3262 -0.8013
vn -0.8382 0.5453 0
vn -0.9889 0.1488 0
vn -0.8382 0.5453 0
vn -0.9889 0.1488 0
vn -0.8382 0.5453 0
vn -0.8382 0.5453 0
vn -0.4551 0.8904 0
vn -0.4551 0.8904 0
vn -0.4551 0.8904 0
vn -0.4551 0.8904 0
vn -0.07611 0.9971 0
vn -0.1142 0.9935 0
vn -0.07611 0.9971 0
vn 0 1 0
vn 0 1 0
vn -0.1142 0.9935 0
vn 0 1 0
vn -0.07611 0.9971 0
vn 0 1 0
vn 0.6564 0.7544 7e-06
vn 0.6564 0.7544 7e-06
vn 0.6564 0.7544 7e-06
vn 0.6564 0.7544 7e-06
vn 1 0 0
vn 1 0 0
vn 1 0 0
vn 1 0 0
vn 1 0 -1.2e-05
vn 1 0 -1.2e-05
vn 1 0 -1.2e-05
vn 1 0 -1.2e-05
vn 1 0 0
vn 1 0 0
vn 1 0 0
vn 1 0 0
vn 0.7071 0 0.7071
vn 0.7071 0 0.7071
vn 0.7071 0 0.7071
vn 0.7071 0 0.7071
vn 0 -1 0
vn 0 -1 0
vn 0 -1 0
vn 0 -1 0
vn 5e-06 -1 0
vn 5e-06 -1 0
vn 5e-06 -1 0
vn 5e-06 -1 0
vn 0 -1 0
vn 0 -1 0
vn 0 -1 0
vn 0 -1 0
vn 0 0 1
vn 0 0 1
vn 0 0 1
vn 0 0 1
vn 0.7071 1.9e-05 0.7071
vn 0.7071 1.9e-05 0.7071
vn 0.7071 1.9e-05 0.7071
vn 0.7071 1.9e-05 0.7071
vn 0.7071 0 0.7071
vn 0.7071 0 0.7071
vn 0.7071 0 0.7071
vn 0.7071 0 0.7071
vn 0 -1 0
vn 0 -1 0
vn 0 -1 0
vn 0 -1 0
vn -5e-06 -1 0
vn -5e-06 -1 0
vn -5e-06 -1 0
vn -5e-06 -1 0
vn 0 -1 0
vn 0 -1 0
vn 0 -1 0
vn 0 -1 0
vn 2e-06 -1 0
vn 2e-06 -1 0
vn 2e-06 -1 0
vn 2e-06 -1 0
vn 1e-06 -1 0
vn 1e-06 -1 0
vn 1e-06 -1 0
vn 1e-06 -1 0
vn 1 0 -1.2e-05
vn 1 0 -1.2e-05
vn 1 0 -1.2e-05
vn 1 0 -1.2e-05
vn -0.2213 -0.9495 0.2224
vn -0.1757 -0.7541 0.6328
vn -0.4301 -0.8381 0.3356
vn -0.3563 -0.6908 0.6292
vn -0.2213 -0.9495 0.2224
vn -0.1143 -0.9934 0
vn -0.1143 -0.9934 0
vn -0.4301 -0.8381 0.3356
vn -0.4551 -0.8904 0
vn -0.2213 -0.9495 0.2224
vn -0.1143 -0.9934 0
vn 0 -1 0
vn -0.1143 -0.9934 0
vn 0 -1 0
vn -0.1143 -0.9934 0
vn -0.1143 -0.9934 0
vn 0 -1 0
vn 0 -1 0
vn 0.2025 -0.596 -0.7771
vn -0.07627 -0.681 -0.7283
vn 0.2025 -0.596 -0.7771
vn -0.07627 -0.681 -0.7283
vn 0.5335 -0.234 -0.8128
vn 0.2025 -0.596 -0.7771
vn 0.5335 -0.234 -0.8128
vn 0.2025 -0.596 -0.7771
vn 0.5335 -0.234 -0.8128
vn 0.5335 0.234 -0.8128
vn 0.5335 -0.234 -0.8128
vn 0.5335 0.234 -0.8128
vn 0.9987 0 0.05027
vn 0.9987 0 0.05027
vn 0.9542 0 0.2991
vn 0.9542 0 0.2991
vn 0 -1 0
vn 0 -1 0
vn 0 -1 0
vn 0 -1 0
vn 0 -1 0
vn 0 -1 0
vn 0 -1 0
vn 0 -1 0
vn 0 -1 0
vn 0 -1 0
vn 0 -1 0
vn 0 -1 0
vn -0.6891 0 0.7247
vn -0.2507 0 0.9681
vn -0.6891 0 0.7247
vn -0.2507 0 0.9681
vn -0.6891 0 0.7247
vn -0.6891 0 0.7247
vn -0.9542 0 0.2991
vn -0.9542 0 0.2991
vn -0.9542 0 0.2991
vn -0.9542 0 0.2991
vn -0.9987 0 0.05032
vn -0.9987 0 0.05032
vn 0 0 1
vn 0 0 1
vn 0 0 1
vn 0 0 1
vn 0 0 1
vn 0 0 1
vn 0 0 1
vn 0 0 1
vn 0 -2.4e-05 1
vn 0 -2.4e-05 1
vn 0 -2.4e-05 1
vn 0 -2.4e-05 1
vn 0 0 1
vn 0 0 1
vn 0 0 1
vn 0 0 1
vn 0.4641 -0.7544 0.4641
vn 0.4641 -0.7544 0.4641
vn 0.4641 -0.7544 0.4641
vn 0.4641 -0.7544 0.4641
vn 0.6564 -0.7544 0
vn 0.6564 -0.7544 0
vn 0.6564 -0.7544 0
vn 0.6564 -0.7544 0
f 50//1 44//2 49//3
f 49//3 44//2 43//4
f 52//5 50//6 51//7
f 51//7 50//6 49//8
f 52//9 51//10 54//11
f 54//11 51//10 53//12
f 96//13 87//14 83//15
f 83//15 87//14 78//16
f 83//17 78//18 41//19
f 41//19 78//18 46//20
f 17//21 41//22 29//23
f 29//23 41//22 46//24
f 7//25 17//26 20//27
f 20//27 17//26 29//28
f 59//29 61//30 60//31
f 60//31 61//30 62//32
f 27//33 65//34 60//35
f 60//35 65//34 66//36
f 25//37 27//38 21//39
f 21//39 27//38 13//40
f 9//41 27//42 10//43
f 10//43 27//42 62//44
f 62//44 27//42 60//45
f 13//46 27//47 9//41
f 68//48 14//49 10//50
f 14//51 68//52 22//53
f 68//52 36//54 22//53
f 67//55 68//56 62//57
f 62//57 68//56 10//58
f 68//59 97//60 64//61
f 64//61 97//60 81//62
f 8//63 4//64 14//65
f 14//65 4//64 10//66
f 14//67 22//68 8//69
f 8//69 22//68 18//70
f 22//71 36//72 18//73
f 18//73 36//72 42//74
f 42//75 36//76 64//77
f 64//77 36//76 68//78
f 88//79 89//80 84//81
f 84//81 89//80 85//82
f 84//83 85//84 73//85
f 73//85 85//84 74//86
f 73//87 74//88 59//89
f 59//89 74//88 61//90
f 73//91 59//92 66//93
f 66//93 59//92 60//94
f 84//95 73//96 93//97
f 93//97 73//96 66//98
f 92//99 88//100 93//101
f 93//101 88//100 84//102
f 6//103 13//104 2//105
f 2//105 13//104 9//106
f 6//107 2//108 5//109
f 5//109 2//108 1//110
f 5//111 15//112 6//113
f 6//113 15//112 16//114
f 16//115 21//116 6//117
f 6//117 21//116 13//118
f 9//119 10//120 2//121
f 2//121 10//120 4//122
f 2//123 4//124 1//125
f 1//125 4//124 3//126
f 3//127 12//128 1//129
f 1//129 12//128 11//130
f 11//131 19//132 1//133
f 1//133 19//132 5//134
f 5//135 19//136 15//137
f 15//137 19//136 28//138
f 45//139 39//140 28//141
f 28//141 39//140 15//142
f 23//143 12//144 31//145
f 31//145 12//144 20//146
f 30//147 11//148 23//149
f 23//149 11//148 12//150
f 47//151 19//152 30//153
f 30//153 19//152 11//154
f 57//155 28//156 47//157
f 47//157 28//156 19//158
f 77//159 45//160 57//161
f 57//161 45//160 28//162
f 57//163 69//164 77//165
f 77//165 69//164 86//166
f 87//167 86//168 75//169
f 75//169 86//168 69//170
f 75//171 79//172 87//173
f 79//172 76//174 87//173
f 70//175 78//176 76//177
f 76//177 78//176 87//178
f 46//179 78//180 58//181
f 58//181 78//180 70//182
f 58//183 48//184 46//185
f 46//185 48//184 29//186
f 48//187 31//188 29//189
f 29//189 31//188 20//190
f 12//191 3//192 20//193
f 20//193 3//192 7//194
f 7//195 3//196 8//197
f 8//197 3//196 4//198
f 7//199 8//200 17//201
f 17//201 8//200 18//202
f 17//203 18//204 41//205
f 41//205 18//204 42//206
f 41//207 81//208 83//209
f 42//210 64//211 41//212
f 41//212 64//211 81//213
f 83//214 81//215 96//216
f 96//216 81//215 97//217
f 96//218 97//219 94//220
f 94//220 97//219 95//221
f 92//222 90//223 94//224
f 94//224 90//223 96//225
f 93//226 91//227 92//228
f 92//228 91//227 90//229
f 95//230 97//231 67//232
f 67//232 97//231 68//233
f 85//234 89//235 95//236
f 95//236 89//235 94//237
f 67//238 74//239 95//240
f 95//240 74//239 85//241
f 62//242 61//243 67//244
f 67//244 61//243 74//245
f 94//246 89//247 92//248
f 92//248 89//247 88//249
f 93//250 66//251 72//252
f 72//252 66//251 65//253
f 71//254 91//255 72//256
f 72//256 91//255 93//257
f 33//258 35//259 26//260
f 26//260 35//259 27//261
f 44//262 27//263 38//264
f 38//264 27//263 35//265
f 65//266 27//267 50//268
f 50//268 27//267 44//269
f 50//270 52//271 65//272
f 52//271 54//273 65//272
f 72//274 65//275 56//276
f 56//276 65//275 54//277
f 24//278 26//279 25//280
f 25//280 26//279 27//281
f 24//282 25//283 16//284
f 16//284 25//283 21//285
f 24//286 39//287 40//288
f 16//289 15//290 24//291
f 24//291 15//290 39//292
f 80//293 39//294 82//295
f 40//296 39//297 63//298
f 63//298 39//297 80//299
f 82//300 39//301 77//302
f 77//302 39//301 45//303
f 90//304 82//305 86//306
f 86//306 82//305 77//307
f 86//308 87//309 90//310
f 90//310 87//309 96//311
f 55//312 56//313 53//314
f 53//314 56//313 54//315
f 32//316 43//317 34//318
f 34//318 43//317 37//319
f 51//320 49//321 32//322
f 32//322 49//321 43//323
f 55//324 53//325 32//326
f 32//326 53//325 51//327
f 37//328 43//329 38//330
f 38//330 43//329 44//331
f 37//332 38//333 34//334
f 34//334 38//333 35//335
f 34//336 35//337 32//338
f 32//338 35//337 33//339
f 72//340 56//341 71//342
f 71//342 56//341 55//343
f 40//344 63//345 55//346
f 55//346 63//345 71//347
f 55//348 32//349 40//350
f 40//350 32//349 24//351
f 33//352 26//353 32//354
f 32//354 26//353 24//355
f 63//356 80//357 71//358
f 71//358 80//357 91//359
f 91//360 80//361 90//362
f 90//362 80//361 82//363
