# RokuSuper Output Ver2.0 for Wavefront Obj

v 3.81602480 1.51334453 5.05433818
v 3.47738924 1.50584486 1.60580313
v 3.81590798 2.39858629 5.05242502
v 5.65250059 2.40095089 6.03405743
v 5.65261816 1.51570913 6.03597058
v 5.04833353 2.40123080 6.20035445
v 5.04845110 1.51598828 6.20226835
v 4.43918867 1.51559158 6.05569036
v 4.43907185 2.40083334 6.05377721
v 6.08971033 2.40006900 5.59945140
v 6.08982715 1.51482725 5.60136456
v 3.98808797 1.51462314 5.63552069
v 3.98797115 2.39986566 5.63360679
v 6.24278792 2.39882140 5.01298471
v 6.24290475 1.51357964 5.01489862
v 6.33711896 4.29815892 1.55328734
v 6.46889394 4.79027761 1.55008062
v 6.32868284 4.29703505 1.03416302
v 6.54440939 5.03502885 2.18527992
v 6.42715143 4.59719177 2.18813321
v 3.47692344 5.03335431 1.59817734
v 3.59255184 5.03336580 1.59629838
v 3.78950400 5.76885747 1.59150625
v 3.78106788 5.76773435 1.07238194
v 4.31966085 3.75844323 1.06797705
v 4.31932461 6.30619463 1.06246965
v 3.78126184 4.29678882 1.07556169
v 3.78969871 4.29791194 1.59468599
v 3.58411497 5.03224192 1.07717481
v 4.32809698 3.75956636 1.58710136
v 5.06350057 3.56256229 1.57557653
v 5.05506445 3.56143916 1.05645298
v 5.05467578 6.50333022 1.05009349
v 4.32776073 6.30731775 1.58159396
v 5.06311190 6.50445335 1.56921704
v 5.65168655 8.57072728 6.02071975
v 5.65180338 7.68548551 6.02263365
v 5.04751950 8.57100718 6.18701752
v 5.04763632 7.68576542 6.18893068
v 4.43837389 7.68536796 6.04235344
v 4.43825707 8.57060973 6.04043953
v 6.40054900 7.67814623 2.58163908
v 6.24208997 7.68335601 5.00156169
v 6.46839594 8.56115335 1.54192909
v 6.24197314 8.56859853 4.99964779
v 6.08901237 7.68460363 5.58802763
v 6.08889555 8.56984614 5.58611373
v 3.98727394 7.68440028 5.62218302
v 3.98715711 8.56964204 5.62026987
v 3.81509320 8.56836343 5.03908735
v 3.47645763 8.56086375 1.59055230
v 5.79851550 6.30746052 1.55769238
v 6.46886174 5.03364390 1.54955488
v 6.46882954 5.27702142 1.54902855
v 6.33692500 5.76910445 1.55010759
v 6.42703610 5.47285263 2.18624010
v 6.52562451 5.03252745 1.02937165
v 6.46932754 1.50613520 1.55717993
v 3.57891101 2.39333763 2.63892938
v 3.57821381 7.67787301 2.62750562
v 6.40124696 2.39361086 2.59306284
v 3.81521002 7.68312091 5.04100125
v 5.79885175 3.75970912 1.56319978
v 5.79041563 3.75858600 1.04407547
v 5.79007938 6.30633665 1.03856806
v 6.32848888 5.76798133 1.03098329


vn -0.98704897 0.00021692 0.16041909
vn -0.99521327 0.00008034 0.09772688
vn -0.97488271 0.00035276 0.22271862
vn -0.99521323 0.00008038 0.09772727
vn -0.99521327 0.00008034 0.09772688
vn -0.98704897 0.00021692 0.16041909
vn 0.10181254 0.00216401 0.99480125
vn 0.42427273 0.00201364 0.90553222
vn 0.57520441 0.00184405 0.81800763
vn 0.42427273 0.00201364 0.90553222
vn 0.10181254 0.00216401 0.99480125
vn -0.06942966 0.00214735 0.99758454
vn 0.00013199 -0.99999766 0.00216055
vn 0.00013208 -0.99999766 0.00216110
vn 0.00013195 -0.99999766 0.00215798
vn -0.06942966 0.00214735 0.99758454
vn -0.39462210 0.00193390 0.91884148
vn -0.54831977 0.00173516 0.83626696
vn -0.39462210 0.00193390 0.91884148
vn -0.06942966 0.00214735 0.99758454
vn 0.10181254 0.00216401 0.99480125
vn -0.00013202 0.99999765 -0.00216240
vn -0.00013197 0.99999765 -0.00216209
vn -0.00013202 0.99999765 -0.00216284
vn -0.00013192 0.99999765 -0.00216172
vn -0.00013197 0.99999765 -0.00216209
vn -0.00013202 0.99999765 -0.00216240
vn 0.57520441 0.00184405 0.81800763
vn 0.70499285 0.00162607 0.70921255
vn 0.70499255 0.00162577 0.70921285
vn 0.70499285 0.00162607 0.70921255
vn 0.57520441 0.00184405 0.81800763
vn 0.42427273 0.00201364 0.90553222
vn 0.00013217 -0.99999765 0.00216206
vn 0.00013216 -0.99999765 0.00216162
vn 0.00013208 -0.99999766 0.00216110
vn 0.00013217 -0.99999765 0.00216206
vn 0.00013208 -0.99999766 0.00216110
vn 0.00013199 -0.99999766 0.00216055
vn -0.54831977 0.00173516 0.83626696
vn -0.68157565 0.00149179 0.73174614
vn -0.68157533 0.00149209 0.73174644
vn -0.68157565 0.00149179 0.73174614
vn -0.54831977 0.00173516 0.83626696
vn -0.39462210 0.00193390 0.91884148
vn -0.00013192 0.99999765 -0.00216172
vn -0.00013193 0.99999765 -0.00216182
vn -0.00013197 0.99999765 -0.00216209
vn -0.00013197 0.99999765 -0.00216193
vn -0.00013193 0.99999765 -0.00216182
vn -0.00013192 0.99999765 -0.00216172
vn 0.96758259 0.00067361 0.25255393
vn 0.98160663 0.00054223 0.19091393
vn 0.96758262 0.00067350 0.25255378
vn 0.98160663 0.00054223 0.19091393
vn 0.96758259 0.00067361 0.25255393
vn 0.99174058 0.00041022 0.12825936
vn 0.99174058 0.00041022 0.12825936
vn 0.99786341 0.00027496 0.06533400
vn 0.98160663 0.00054223 0.19091393
vn 0.99786233 0.00027642 0.06535052
vn 0.99786341 0.00027496 0.06533400
vn 0.99174058 0.00041022 0.12825936
vn 0.96583388 -0.25871957 -0.01513639
vn 0.98073135 -0.19529610 0.00504611
vn 0.96583362 -0.25872060 -0.01513533
vn 0.98073135 -0.19529610 0.00504611
vn 0.96583388 -0.25871957 -0.01513639
vn 0.96584709 -0.25867194 -0.01510736
vn 0.01625078 0.00216377 0.99986561
vn 0.01625078 0.00216377 0.99986561
vn 0.01625078 0.00216377 0.99986561
vn -0.01624865 -0.00216348 -0.99986564
vn -0.01624824 -0.00216355 -0.99986565
vn -0.01624760 -0.00216355 -0.99986566
vn -0.01624865 -0.00216348 -0.99986564
vn -0.01624884 -0.00216348 -0.99986564
vn -0.01624824 -0.00216355 -0.99986565
vn -0.01624820 -0.00216354 -0.99986565
vn -0.01624848 -0.00216353 -0.99986564
vn -0.01624997 -0.00216354 -0.99986562
vn -0.01624997 -0.00216354 -0.99986562
vn -0.01624848 -0.00216353 -0.99986564
vn -0.01625059 -0.00216355 -0.99986561
vn -0.01624997 -0.00216354 -0.99986562
vn -0.01625059 -0.00216355 -0.99986561
vn -0.01625235 -0.00216356 -0.99986558
vn -0.96576212 -0.25891943 0.01625605
vn -0.86584321 -0.50008590 0.01515356
vn -0.96576215 -0.25891930 0.01625625
vn -0.86584321 -0.50008590 0.01515356
vn -0.96576212 -0.25891943 0.01625605
vn -0.86584308 -0.50008611 0.01515372
vn -0.49982306 -0.86606984 0.00999647
vn -0.86584321 -0.50008590 0.01515356
vn -0.86584308 -0.50008611 0.01515372
vn -0.86584321 -0.50008590 0.01515356
vn -0.49982306 -0.86606984 0.00999647
vn -0.49982321 -0.86606976 0.00999621
vn -0.01624884 -0.00216359 -0.99986564
vn -0.01624894 -0.00216364 -0.99986564
vn -0.01624896 -0.00216365 -0.99986564
vn -0.01624884 -0.00216359 -0.99986564
vn -0.01624886 -0.00216356 -0.99986564
vn -0.01624894 -0.00216364 -0.99986564
vn -0.49982306 -0.86606984 0.00999647
vn -0.25866463 -0.96594669 0.00629331
vn -0.49982321 -0.86606976 0.00999621
vn -0.25866463 -0.96594669 0.00629331
vn -0.49982306 -0.86606984 0.00999647
vn -0.25866464 -0.96594668 0.00629333
vn -0.01624820 -0.00216354 -0.99986565
vn -0.01624856 -0.00216355 -0.99986564
vn -0.01624848 -0.00216353 -0.99986564
vn -0.01624916 -0.00216355 -0.99986563
vn -0.01624856 -0.00216355 -0.99986564
vn -0.01624820 -0.00216354 -0.99986565
vn -0.25890634 0.96590011 0.00211767
vn -0.08907964 0.99602426 -0.00070731
vn -0.25890633 0.96590011 0.00211768
vn -0.08907964 0.99602426 -0.00070731
vn -0.25890634 0.96590011 0.00211767
vn 0.08881680 0.99604148 -0.00359876
vn 0.10181226 0.00216365 0.99480128
vn 0.42427273 0.00201349 0.90553222
vn 0.57520495 0.00184445 0.81800725
vn 0.42427273 0.00201349 0.90553222
vn 0.10181226 0.00216365 0.99480128
vn -0.06942994 0.00214707 0.99758452
vn 0.00013201 -0.99999765 0.00216209
vn 0.00013197 -0.99999765 0.00216201
vn 0.00013202 -0.99999765 0.00216284
vn -0.06942994 0.00214707 0.99758452
vn -0.39462200 0.00193419 0.91884152
vn -0.54831992 0.00173545 0.83626685
vn -0.39462200 0.00193419 0.91884152
vn -0.06942994 0.00214707 0.99758452
vn 0.10181226 0.00216365 0.99480128
vn -0.00013200 0.99999766 -0.00216149
vn -0.00013208 0.99999766 -0.00216136
vn -0.00013202 0.99999765 -0.00216276
vn -0.00013215 0.99999766 -0.00216106
vn -0.00013208 0.99999766 -0.00216136
vn -0.00013200 0.99999766 -0.00216149
vn 0.99786278 0.00027005 0.06534377
vn 0.99174058 0.00040524 0.12825936
vn 0.99786274 0.00026883 0.06534434
vn 0.99174058 0.00040524 0.12825936
vn 0.99786278 0.00027005 0.06534377
vn 0.98160647 0.00054230 0.19091475
vn 0.98160647 0.00054230 0.19091475
vn 0.96758255 0.00067371 0.25255408
vn 0.99174058 0.00040524 0.12825936
vn 0.96758255 0.00067371 0.25255408
vn 0.98160647 0.00054230 0.19091475
vn 0.96758255 0.00067371 0.25255408
vn 0.57520495 0.00184445 0.81800725
vn 0.70499315 0.00162636 0.70921225
vn 0.70499314 0.00162636 0.70921225
vn 0.70499315 0.00162636 0.70921225
vn 0.57520495 0.00184445 0.81800725
vn 0.42427273 0.00201349 0.90553222
vn 0.00013192 -0.99999765 0.00216182
vn 0.00013193 -0.99999765 0.00216196
vn 0.00013197 -0.99999765 0.00216201
vn 0.00013192 -0.99999765 0.00216182
vn 0.00013197 -0.99999765 0.00216201
vn 0.00013201 -0.99999765 0.00216209
vn -0.54831992 0.00173545 0.83626685
vn -0.68157625 0.00149179 0.73174558
vn -0.68157657 0.00149148 0.73174528
vn -0.68157625 0.00149179 0.73174558
vn -0.54831992 0.00173545 0.83626685
vn -0.39462200 0.00193419 0.91884152
vn -0.00013215 0.99999766 -0.00216106
vn -0.00013216 0.99999766 -0.00216130
vn -0.00013208 0.99999766 -0.00216136
vn -0.00013208 0.99999766 -0.00216154
vn -0.00013216 0.99999766 -0.00216130
vn -0.00013215 0.99999766 -0.00216106
vn -0.00013208 0.99999766 -0.00216154
vn -0.00013197 0.99999766 -0.00216152
vn -0.00013216 0.99999766 -0.00216130
vn -0.00013197 0.99999765 -0.00216181
vn -0.00013197 0.99999766 -0.00216152
vn -0.00013208 0.99999766 -0.00216154
vn -0.00013197 0.99999766 -0.00216152
vn -0.00013197 0.99999765 -0.00216181
vn -0.00013192 0.99999765 -0.00216178
vn -0.01624962 -0.00216366 -0.99986563
vn -0.01624885 -0.00216353 -0.99986564
vn -0.01624865 -0.00216348 -0.99986564
vn -0.01624865 -0.00216348 -0.99986564
vn -0.01624885 -0.00216353 -0.99986564
vn -0.01624879 -0.00216339 -0.99986564
vn -0.01624865 -0.00216348 -0.99986564
vn -0.01624879 -0.00216339 -0.99986564
vn -0.01624890 -0.00216352 -0.99986564
vn -0.01624865 -0.00216348 -0.99986564
vn -0.01624890 -0.00216352 -0.99986564
vn -0.01624884 -0.00216348 -0.99986564
vn -0.70711366 0.70702973 0.00996142
vn -0.86597766 0.49991390 0.01299143
vn -0.70711366 0.70702973 0.00996142
vn -0.86597766 0.49991390 0.01299143
vn -0.70711366 0.70702973 0.00996142
vn -0.86597758 0.49991405 0.01299116
vn -0.96583055 0.25873198 0.01513615
vn -0.86597766 0.49991390 0.01299143
vn -0.86597758 0.49991405 0.01299116
vn -0.86597766 0.49991390 0.01299143
vn -0.96583055 0.25873198 0.01513615
vn -0.96583064 0.25873164 0.01513667
vn -0.01624890 -0.00216343 -0.99986564
vn -0.01624884 -0.00216359 -0.99986564
vn -0.01624870 -0.00216355 -0.99986564
vn -0.01624889 -0.00216352 -0.99986564
vn -0.01624884 -0.00216359 -0.99986564
vn -0.01624890 -0.00216343 -0.99986564
vn -0.01624875 -0.00216362 -0.99986564
vn -0.01624884 -0.00216359 -0.99986564
vn -0.01624889 -0.00216352 -0.99986564
vn -0.01624884 -0.00216359 -0.99986564
vn -0.01624887 -0.00216377 -0.99986564
vn -0.01625154 -0.00216339 -0.99986559
vn -0.01624887 -0.00216377 -0.99986564
vn -0.01624884 -0.00216359 -0.99986564
vn -0.01624887 -0.00216330 -0.99986564
vn -0.01624887 -0.00216330 -0.99986564
vn -0.01624884 -0.00216359 -0.99986564
vn -0.01624875 -0.00216362 -0.99986564
vn -0.01624962 -0.00216366 -0.99986563
vn -0.01624992 -0.00216365 -0.99986562
vn -0.01624885 -0.00216353 -0.99986564
vn -0.01624992 -0.00216365 -0.99986562
vn -0.01624962 -0.00216366 -0.99986563
vn -0.01625087 -0.00216360 -0.99986561
vn 0.99786274 0.00026883 0.06534434
vn 0.98465769 0.17414732 0.01104309
vn 0.99786278 0.00027005 0.06534377
vn 0.98465769 0.17414732 0.01104309
vn 0.99786274 0.00026883 0.06534434
vn 0.99683237 0.06539641 0.04526068
vn 0.96576312 0.25891635 -0.01624579
vn 0.98465769 0.17414732 0.01104309
vn 0.99683237 0.06539641 0.04526068
vn 0.96576741 0.25889956 -0.01625812
vn 0.98465769 0.17414732 0.01104309
vn 0.96576312 0.25891635 -0.01624579
vn 0.99398975 -0.10423136 0.03346951
vn 0.96584709 -0.25867194 -0.01510736
vn 0.96582367 -0.25875768 -0.01513583
vn 0.96584709 -0.25867194 -0.01510736
vn 0.99398975 -0.10423136 0.03346951
vn 0.98073135 -0.19529610 0.00504611
vn 0.99398975 -0.10423136 0.03346951
vn 0.99786233 0.00027642 0.06535052
vn 0.98073135 -0.19529610 0.00504611
vn 0.99786233 0.00027642 0.06535052
vn 0.99398975 -0.10423136 0.03346951
vn 0.99786341 0.00027496 0.06533400
vn 0.99683237 0.06539641 0.04526068
vn 0.99786341 0.00027496 0.06533400
vn 0.99398975 -0.10423136 0.03346951
vn 0.99786341 0.00027496 0.06533400
vn 0.99683237 0.06539641 0.04526068
vn 0.99786274 0.00026883 0.06534434
vn 0.01624888 0.00216359 0.99986564
vn 0.01624888 0.00216359 0.99986564
vn 0.01624888 0.00216359 0.99986564
vn 0.01624888 0.00216359 0.99986564
vn 0.01624888 0.00216359 0.99986564
vn 0.01624888 0.00216359 0.99986564
vn 0.00013198 -0.99999766 0.00216158
vn 0.00013197 -0.99999766 0.00216147
vn 0.00013194 -0.99999766 0.00216151
vn 0.00013197 -0.99999766 0.00216147
vn 0.00013198 -0.99999766 0.00216158
vn 0.00013197 -0.99999765 0.00216183
vn 0.00013197 -0.99999765 0.00216183
vn 0.00013198 -0.99999766 0.00216158
vn 0.00013193 -0.99999765 0.00216196
vn 0.00013197 -0.99999765 0.00216183
vn 0.00013193 -0.99999765 0.00216196
vn 0.00013192 -0.99999765 0.00216182
vn -0.95886037 0.00048709 0.28387770
vn -0.97488258 0.00035279 0.22271917
vn -0.95886032 0.00048697 0.28387787
vn -0.97488258 0.00035279 0.22271917
vn -0.95886037 0.00048709 0.28387770
vn -0.98704894 0.00021595 0.16041927
vn -0.97488258 0.00035279 0.22271917
vn -0.98704894 0.00021595 0.16041927
vn -0.99521324 0.00007946 0.09772720
vn -0.99521321 0.00007896 0.09772745
vn -0.99521324 0.00007946 0.09772720
vn -0.98704894 0.00021595 0.16041927
vn -0.99521324 0.00007946 0.09772720
vn -0.99521321 0.00007896 0.09772745
vn -0.99521317 0.00007988 0.09772788
vn -0.99521324 0.00007946 0.09772720
vn -0.99521317 0.00007988 0.09772788
vn -0.99521323 0.00008038 0.09772727
vn -0.99521323 0.00008038 0.09772727
vn -0.99521317 0.00007988 0.09772788
vn -0.99521327 0.00008034 0.09772688
vn -0.01624824 -0.00216355 -0.99986565
vn -0.01624867 -0.00216362 -0.99986564
vn -0.01624760 -0.00216355 -0.99986566
vn -0.01624888 -0.00216362 -0.99986564
vn -0.01624867 -0.00216362 -0.99986564
vn -0.01624824 -0.00216355 -0.99986565
vn -0.01624892 -0.00216361 -0.99986564
vn -0.01624867 -0.00216362 -0.99986564
vn -0.01624888 -0.00216362 -0.99986564
vn -0.01624882 -0.00216369 -0.99986564
vn -0.01624867 -0.00216362 -0.99986564
vn -0.01624892 -0.00216361 -0.99986564
vn -0.01624886 -0.00216355 -0.99986564
vn -0.01624867 -0.00216362 -0.99986564
vn -0.01624882 -0.00216369 -0.99986564
vn -0.01624884 -0.00216359 -0.99986564
vn -0.01624879 -0.00216349 -0.99986564
vn -0.01624886 -0.00216356 -0.99986564
vn 0.25892011 -0.96589642 -0.00211790
vn 0.42104015 -0.90702887 -0.00487983
vn 0.25892011 -0.96589642 -0.00211790
vn 0.42104015 -0.90702887 -0.00487983
vn 0.25892011 -0.96589642 -0.00211790
vn 0.57508969 -0.81805529 -0.00757539
vn -0.01624916 -0.00216355 -0.99986563
vn -0.01624941 -0.00216354 -0.99986563
vn -0.01624856 -0.00216355 -0.99986564
vn -0.01624908 -0.00216353 -0.99986563
vn -0.01624941 -0.00216354 -0.99986563
vn -0.01624916 -0.00216355 -0.99986563
vn 0.08881680 0.99604148 -0.00359876
vn 0.25865130 0.96595025 -0.00629380
vn -0.08907964 0.99602426 -0.00070731
vn 0.25865130 0.96595025 -0.00629380
vn 0.08881680 0.99604148 -0.00359876
vn 0.25865084 0.96595037 -0.00629448
vn 0.70691982 0.70717388 -0.01301840
vn 0.70691982 0.70717388 -0.01301840
vn 0.70692005 0.70717363 -0.01301892
vn 0.70691982 0.70717388 -0.01301840
vn 0.70691982 0.70717388 -0.01301840
vn 0.70691958 0.70717413 -0.01301789
vn 0.98465769 0.17414732 0.01104309
vn 0.96576495 0.25890876 -0.01625778
vn 0.96576413 0.25891202 -0.01625448
vn 0.96576495 0.25890876 -0.01625778
vn 0.98465769 0.17414732 0.01104309
vn 0.96576741 0.25889956 -0.01625812
vn -0.01624775 -0.00216354 -0.99986566
vn -0.01624726 -0.00216355 -0.99986566
vn -0.01624571 -0.00216355 -0.99986569
vn -0.01624726 -0.00216355 -0.99986566
vn -0.01624775 -0.00216354 -0.99986566
vn -0.01624908 -0.00216353 -0.99986563
vn -0.01624908 -0.00216353 -0.99986563
vn -0.01624775 -0.00216354 -0.99986566
vn -0.01624941 -0.00216354 -0.99986563
vn 0.70709966 -0.70704374 -0.00996065
vn 0.57508969 -0.81805529 -0.00757539
vn 0.70709942 -0.70704399 -0.00996014
vn 0.57508969 -0.81805529 -0.00757539
vn 0.70709966 -0.70704374 -0.00996065
vn 0.42104015 -0.90702887 -0.00487983
vn -0.01624884 -0.00216359 -0.99986564
vn -0.01625153 -0.00216306 -0.99986560
vn -0.01624879 -0.00216349 -0.99986564
vn -0.01625154 -0.00216339 -0.99986559
vn -0.01625153 -0.00216306 -0.99986560
vn -0.01624884 -0.00216359 -0.99986564
vn -0.01625153 -0.00216306 -0.99986560
vn -0.01625154 -0.00216339 -0.99986559
vn -0.01625700 -0.00216213 -0.99986551
vn -0.01624984 -0.00216348 -0.99986562
vn -0.01625026 -0.00216348 -0.99986562
vn -0.01625169 -0.00216355 -0.99986559
vn -0.01625026 -0.00216348 -0.99986562
vn -0.01624984 -0.00216348 -0.99986562
vn -0.01624886 -0.00216355 -0.99986564
vn -0.01624886 -0.00216355 -0.99986564
vn -0.01624984 -0.00216348 -0.99986562
vn -0.01624867 -0.00216362 -0.99986564
vn 0.00013206 -0.99999765 0.00216173
vn 0.00013209 -0.99999765 0.00216171
vn 0.00013217 -0.99999765 0.00216164
vn 0.00013209 -0.99999765 0.00216171
vn 0.00013206 -0.99999765 0.00216173
vn 0.00013208 -0.99999766 0.00216148
vn 0.00013208 -0.99999766 0.00216148
vn 0.00013206 -0.99999765 0.00216173
vn 0.00013216 -0.99999765 0.00216162
vn 0.00013208 -0.99999766 0.00216148
vn 0.00013216 -0.99999765 0.00216162
vn 0.00013217 -0.99999765 0.00216206
vn -0.95886071 0.00048708 0.28387656
vn -0.97488271 0.00035276 0.22271862
vn -0.95886076 0.00048720 0.28387640
vn -0.97488271 0.00035276 0.22271862
vn -0.95886071 0.00048708 0.28387656
vn -0.98704897 0.00021692 0.16041909
vn -0.00013197 0.99999765 -0.00216193
vn -0.00013199 0.99999765 -0.00216194
vn -0.00013193 0.99999765 -0.00216182
vn -0.00013198 0.99999765 -0.00216179
vn -0.00013199 0.99999765 -0.00216194
vn -0.00013197 0.99999765 -0.00216193
vn -0.00013199 0.99999765 -0.00216194
vn -0.00013198 0.99999765 -0.00216179
vn -0.00013194 0.99999765 -0.00216175

g ²ã
f 3//1 2//2 1//3
f 59//4 2//5 3//6
f 6//7 5//8 4//9
f 5//10 6//11 7//12
f 8//13 5//14 7//15
f 7//16 9//17 8//18
f 9//19 7//20 6//21
f 4//22 9//23 6//24
f 10//25 9//26 4//27
f 4//28 11//29 10//30
f 11//31 4//32 5//33
f 12//34 11//35 5//36
f 12//37 5//38 8//39
f 8//40 13//41 12//42
f 13//43 8//44 9//45
f 10//46 13//47 9//48
f 14//49 13//50 10//51
f 11//52 14//53 10//54
f 14//55 11//56 15//57
f 15//58 61//59 14//60
f 58//61 61//62 15//63
f 18//64 17//65 16//66
f 17//67 18//68 57//69
f 20//70 19//71 56//72
f 51//73 22//74 21//75
f 51//76 23//77 22//78
f 26//79 25//80 24//81
f 24//82 25//83 27//84
f 24//85 27//86 29//87
f 29//88 28//89 22//90
f 28//91 29//92 27//93
f 25//94 28//95 27//96
f 28//97 25//98 30//99
f 22//100 30//101 28//102
f 22//103 31//104 30//105
f 25//106 31//107 30//108
f 31//109 25//110 32//111
f 26//112 32//113 25//114
f 33//115 32//116 26//117
f 34//118 33//119 26//120
f 33//121 34//122 35//123
f 38//124 37//125 36//126
f 37//127 38//128 39//129
f 40//130 37//131 39//132
f 39//133 41//134 40//135
f 41//136 39//137 38//138
f 36//139 41//140 38//141
f 47//142 41//143 36//144
f 44//145 43//146 42//147
f 43//148 44//149 45//150
f 45//151 46//152 43//153
f 46//154 45//155 47//156
f 36//157 46//158 47//159
f 46//160 36//161 37//162
f 48//163 46//164 37//165
f 48//166 37//167 40//168
f 40//169 49//170 48//171
f 49//172 40//173 41//174
f 47//175 49//176 41//177
f 45//178 49//179 47//180
f 45//181 50//182 49//183
f 44//184 50//185 45//186
f 50//187 44//188 51//189
f 44//190 52//191 51//192
f 51//193 52//194 35//195
f 51//196 35//197 34//198
f 51//199 34//200 23//201
f 26//202 23//203 34//204
f 23//205 26//206 24//207
f 29//208 23//209 24//210
f 23//211 29//212 22//213
f 34//214 22//215 23//216
f 35//217 22//218 34//219
f 52//220 22//221 35//222
f 22//223 54//224 53//225
f 54//226 22//227 55//228
f 55//229 22//230 52//231
f 44//232 55//233 52//234
f 55//235 44//236 54//237
f 42//238 54//239 44//240
f 54//241 42//242 56//243
f 19//244 54//245 56//246
f 57//247 54//248 19//249
f 20//250 57//251 19//252
f 57//253 20//254 17//255
f 20//256 58//257 17//258
f 58//259 20//260 61//261
f 56//262 61//263 20//264
f 61//265 56//266 42//267
f 61//268 60//269 59//270
f 60//271 61//272 42//273
f 43//274 60//275 42//276
f 60//277 43//278 62//279
f 62//280 43//281 46//282
f 62//283 46//284 48//285
f 49//286 62//287 48//288
f 62//289 49//290 50//291
f 62//292 50//293 60//294
f 51//295 60//296 50//297
f 60//298 51//299 21//300
f 60//301 21//302 59//303
f 59//304 21//305 2//306
f 22//307 2//308 21//309
f 28//310 2//311 22//312
f 30//313 2//314 28//315
f 31//316 2//317 30//318
f 63//319 2//320 31//321
f 22//322 63//323 31//324
f 32//325 63//326 31//327
f 63//328 32//329 64//330
f 33//331 64//332 32//333
f 65//334 64//335 33//336
f 35//337 65//338 33//339
f 65//340 35//341 52//342
f 55//343 65//344 52//345
f 65//346 55//347 66//348
f 54//349 66//350 55//351
f 66//352 54//353 57//354
f 18//355 66//356 57//357
f 66//358 18//359 65//360
f 65//361 18//362 64//363
f 16//364 64//365 18//366
f 64//367 16//368 63//369
f 22//370 16//371 63//372
f 53//373 16//374 22//375
f 16//376 53//377 17//378
f 58//379 16//380 17//381
f 16//382 58//383 63//384
f 63//385 58//386 2//387
f 15//388 2//389 58//390
f 2//391 15//392 1//393
f 1//394 15//395 11//396
f 1//397 11//398 12//399
f 13//400 1//401 12//402
f 1//403 13//404 3//405
f 14//406 3//407 13//408
f 61//409 3//410 14//411
f 3//412 61//413 59//414

