# Rhino

v 19.47142028808594 6.572251796722412 1.744449973106384
v 19.47142028808594 6.572251796722412 1.744449973106384
v 19.47142028808594 6.512267112731934 1.744449973106384
v 19.47142028808594 6.512267112731934 1.744449973106384
v 19.47142028808594 6.506368160247803 1.903507947921753
v 19.47142028808594 6.506368160247803 1.903507947921753
v 19.47142028808594 6.506368160247803 1.585391044616699
v 19.47142028808594 6.506368160247803 1.585391044616699
v 19.47142028808594 6.463951110839844 1.861093044281006
v 19.47142028808594 6.463951110839844 1.861093044281006
v 19.47142028808594 6.463951110839844 1.627807021141052
v 19.47142028808594 6.463951110839844 1.627807021141052
v 19.47142028808594 6.347310066223145 1.969391942024231
v 19.47142028808594 6.347310066223145 1.969391942024231
v 19.47142028808594 6.347310066223145 1.909407019615173
v 19.47142028808594 6.347310066223145 1.909407019615173
v 19.47142028808594 6.347310066223145 1.579491972923279
v 19.47142028808594 6.347310066223145 1.579491972923279
v 19.47142028808594 6.347310066223145 1.519507050514221
v 19.47142028808594 6.347310066223145 1.519507050514221
v 19.47142028808594 6.230666160583496 1.861093044281006
v 19.47142028808594 6.230666160583496 1.861093044281006
v 19.47142028808594 6.230666160583496 1.627807021141052
v 19.47142028808594 6.230666160583496 1.627807021141052
v 19.47142028808594 6.188249111175537 1.903507947921753
v 19.47142028808594 6.188249111175537 1.903507947921753
v 19.47142028808594 6.188249111175537 1.585391044616699
v 19.47142028808594 6.188249111175537 1.585391044616699
v 19.47142028808594 6.182350158691406 1.744449973106384
v 19.47142028808594 6.182350158691406 1.744449973106384
v 19.47142028808594 6.12236499786377 1.744449973106384
v 19.47142028808594 6.12236499786377 1.744449973106384
v 19.47142028808594 3.877635002136231 1.744449973106384
v 19.47142028808594 3.877635002136231 1.744449973106384
v 19.47142028808594 3.817650079727173 1.744449973106384
v 19.47142028808594 3.817650079727173 1.744449973106384
v 19.47142028808594 3.811750888824463 1.903507947921753
v 19.47142028808594 3.811750888824463 1.903507947921753
v 19.47142028808594 3.811750888824463 1.585391044616699
v 19.47142028808594 3.811750888824463 1.585391044616699
v 19.47142028808594 3.769334077835083 1.861093044281006
v 19.47142028808594 3.769334077835083 1.861093044281006
v 19.47142028808594 3.769334077835083 1.627807021141052
v 19.47142028808594 3.769334077835083 1.627807021141052
v 19.47142028808594 3.652693033218384 1.969391942024231
v 19.47142028808594 3.652693033218384 1.969391942024231
v 19.47142028808594 3.652693033218384 1.909407019615173
v 19.47142028808594 3.652693033218384 1.909407019615173
v 19.47142028808594 3.652693033218384 1.579491972923279
v 19.47142028808594 3.652693033218384 1.579491972923279
v 19.47142028808594 3.652693033218384 1.519507050514221
v 19.47142028808594 3.652693033218384 1.519507050514221
v 19.47142028808594 3.536048889160156 1.861093044281006
v 19.47142028808594 3.536048889160156 1.861093044281006
v 19.47142028808594 3.536048889160156 1.627807021141052
v 19.47142028808594 3.536048889160156 1.627807021141052
v 19.47142028808594 3.493632078170776 1.903507947921753
v 19.47142028808594 3.493632078170776 1.903507947921753
v 19.47142028808594 3.493632078170776 1.585391044616699
v 19.47142028808594 3.493632078170776 1.585391044616699
v 19.47142028808594 3.487732887268066 1.744449973106384
v 19.47142028808594 3.487732887268066 1.744449973106384
v 19.47142028808594 3.427747964859009 1.744449973106384
v 19.47142028808594 3.427747964859009 1.744449973106384
v 14.57421970367432 6.512267112731934 1.744449973106384
v 14.57421970367432 6.463951110839844 1.861093044281006
v 14.57421970367432 6.463951110839844 1.627807021141052
v 14.57421970367432 6.347310066223145 1.909407019615173
v 14.57421970367432 6.347310066223145 1.579491972923279
v 14.57421970367432 6.230666160583496 1.861093044281006
v 14.57421970367432 6.230666160583496 1.627807021141052
v 14.57421970367432 6.182350158691406 1.744449973106384
v 14.57421970367432 3.817650079727173 1.744449973106384
v 14.57421970367432 3.769334077835083 1.861093044281006
v 14.57421970367432 3.769334077835083 1.627807021141052
v 14.57421970367432 3.652693033218384 1.909407019615173
v 14.57421970367432 3.652693033218384 1.579491972923279
v 14.57421970367432 3.536048889160156 1.861093044281006
v 14.57421970367432 3.536048889160156 1.627807021141052
v 14.57421970367432 3.487732887268066 1.744449973106384
v 14.17156314849854 6.622747898101807 1.744449973106384
v 14.17156314849854 6.542074203491211 1.939214944839478
v 14.17156314849854 6.542074203491211 1.549684047698975
v 14.17156314849854 6.347310066223145 2.019889116287231
v 14.17156314849854 6.347310066223145 1.46900999546051
v 14.17156314849854 6.152543067932129 1.939214944839478
v 14.17156314849854 6.152543067932129 1.549684047698975
v 14.17156314849854 6.071868896484375 1.744449973106384
v 14.17156314849854 3.928131103515625 1.744449973106384
v 14.17156314849854 3.847456932067871 1.939214944839478
v 14.17156314849854 3.847456932067871 1.549684047698975
v 14.17156314849854 3.652693033218384 2.019889116287231
v 14.17156314849854 3.652693033218384 1.46900999546051
v 14.17156314849854 3.457926034927368 1.939214944839478
v 14.17156314849854 3.457926034927368 1.549684047698975
v 14.17156314849854 3.377252101898193 1.744449973106384
v 13.98975467681885 6.659128189086914 1.744449973106384
v 13.98975467681885 6.567796230316162 1.964938998222351
v 13.98975467681885 6.567796230316162 1.523960947990418
v 13.98975467681885 6.347310066223145 2.056267976760864
v 13.98975467681885 6.347310066223145 1.432631015777588
v 13.98975467681885 6.126821041107178 1.964938998222351
v 13.98975467681885 6.126821041107178 1.523960947990418
v 13.98975467681885 6.035489082336426 1.744449973106384
v 13.98975467681885 3.964509963989258 1.744449973106384
v 13.98975467681885 3.873178958892822 1.964938998222351
v 13.98975467681885 3.873178958892822 1.523960947990418
v 13.98975467681885 3.652693033218384 2.056267976760864
v 13.98975467681885 3.652693033218384 1.432631015777588
v 13.98975467681885 3.432204008102417 1.964938998222351
v 13.98975467681885 3.432204008102417 1.523960947990418
v 13.98975467681885 3.340872049331665 1.744449973106384
v 9.942646980285645 6.71269416809082 1.744449973106384
v 9.942646980285645 6.605675220489502 2.002815961837769
v 9.942646980285645 6.605675220489502 1.486083984375
v 9.942646980285645 6.347310066223145 2.109834909439087
v 9.942646980285645 6.347310066223145 1.379065036773682
v 9.942646980285645 6.088942050933838 2.002815961837769
v 9.942646980285645 6.088942050933838 1.486083984375
v 9.942646980285645 5.98192310333252 1.744449973106384
v 9.942646980285645 4.018076896667481 1.744449973106384
v 9.942646980285645 3.911057949066162 2.002815961837769
v 9.942646980285645 3.911057949066162 1.486083984375
v 9.942646980285645 3.652693033218384 2.109834909439087
v 9.942646980285645 3.652693033218384 1.379065036773682
v 9.942646980285645 3.394325017929077 2.002815961837769
v 9.942646980285645 3.394325017929077 1.486083984375
v 9.942646980285645 3.287306070327759 1.744449973106384
vn 1 0 0
vn 0.009437859989702702 0.9905584454536438 -0.1367657035589218
vn 1 0 0
vn 0 -0.9906020164489746 -0.1367761045694351
vn 1 0 0
vn 0.009437919594347477 0.7971399426460266 0.6037207841873169
vn 1 0 0
vn 0.009437980130314827 0.6037218570709229 -0.7971391677856445
vn 1 0 0
vn 0 -0.6037452816963196 -0.797177255153656
vn 1 0 0
vn 0 -0.7971734404563904 0.6037503480911255
vn 1 0 0
vn 0.009438020177185535 0.1367697566747665 0.9905579090118408
vn 1 0 0
vn 0 0.1367666274309158 -0.9906032681465149
vn 1 0 0
vn 0 -0.1367784142494202 0.990601658821106
vn 1 0 0
vn 0.009438009932637215 -0.1367635726928711 -0.9905587434768677
vn 1 0 0
vn 0 0.7971704006195068 -0.6037544012069702
vn 1 0 0
vn 0 0.6037443280220032 0.7971780300140381
vn 1 0 0
vn 0.009437999688088894 -0.6037179827690125 0.7971420884132385
vn 1 0 0
vn 0.009437929838895798 -0.797139585018158 -0.6037213206291199
vn 1 0 0
vn 0 0.9906020164489746 0.1367761045694351
vn 1 0 0
vn 0.009437859989702702 -0.9905582070350647 0.1367677748203278
vn 1 0 0
vn 0.009437859989702702 0.9905582070350647 0.1367677748203278
vn 1 0 0
vn 0 -0.9906020164489746 0.1367761045694351
vn 1 0 0
vn 0.009437980130314827 0.6037213206291199 0.797139585018158
vn 1 0 0
vn 0.009437919594347477 0.7971407771110535 -0.6037197113037109
vn 1 0 0
vn 0 -0.7971720695495606 -0.6037521362304688
vn 1 0 0
vn 0 -0.6037493348121643 0.7971742153167725
vn 1 0 0
vn 0.009438009932637215 -0.1367635726928711 0.9905587434768677
vn 1 0 0
vn 0 -0.1367756277322769 -0.9906020760536194
vn 1 0 0
vn 0 0.1367693990468979 0.9906029105186462
vn 1 0 0
vn 0.009438020177185535 0.1367697566747665 -0.9905579090118408
vn 1 0 0
vn 0 0.6037402749061585 -0.7971810698509216
vn 1 0 0
vn 0 0.7971717715263367 0.6037525534629822
vn 1 0 0
vn 0.009437919594347477 -0.7971386909484863 0.6037224531173706
vn 1 0 0
vn 0.009437999688088894 -0.6037185192108154 -0.7971416711807251
vn 1 0 0
vn 0 0.9906020164489746 -0.1367761045694351
vn 1 0 0
vn 0.009437859989702702 -0.9905584454536438 -0.1367657035589218
vn 0 -0.9906020164489746 0.1367761045694351
vn 0 -0.7971720695495606 -0.6037521362304688
vn 0 -0.6037493348121643 0.7971742153167725
vn 0 -0.1367756277322769 -0.9906020760536194
vn 0 0.1367693990468979 0.9906029105186462
vn 0 0.6037402749061585 -0.7971810698509216
vn 0 0.7971717715263367 0.6037525534629822
vn 0 0.9906020164489746 -0.1367761045694351
vn 0 -0.9906020164489746 -0.1367761045694351
vn 0 -0.6037452816963196 -0.797177255153656
vn 0 -0.7971734404563904 0.6037503480911255
vn 0 0.1367666274309158 -0.9906032681465149
vn 0 -0.1367784142494202 0.990601658821106
vn 0 0.7971704006195068 -0.6037544012069702
vn 0 0.6037443280220032 0.7971780300140381
vn 0 0.9906020164489746 0.1367761045694351
vn 0.1034554466605187 0.9946340918540955 -6.399999961104186e-07
vn 0.1034538596868515 0.7033122777938843 0.7033129930496216
vn 0.1034511476755142 0.7033146619796753 -0.703311026096344
vn 0.103454701602459 3.220000053261174e-06 0.9946341514587402
vn 0.1034539192914963 1.750000024003384e-06 -0.9946342706680298
vn 0.1034524515271187 -0.7033116817474365 0.7033137679100037
vn 0.1034523323178291 -0.7033107876777649 -0.7033147215843201
vn 0.1034557595849037 -0.9946340322494507 2.259999973830418e-06
vn 0.1034538000822067 0.9946342706680298 1.730000008137722e-06
vn 0.1034523323178291 0.7033135294914246 0.7033119201660156
vn 0.103451631963253 0.7033132314682007 -0.7033123373985291
vn 0.1034545972943306 2.270000095450087e-06 0.9946341514587402
vn 0.1034540235996246 3.749999905267032e-06 -0.994634211063385
vn 0.1034538671374321 -0.7033102512359619 0.703315019607544
vn 0.1034512594342232 -0.7033127546310425 -0.703312873840332
vn 0.1034554466605187 -0.9946340918540955 -6.399999961104186e-07
vn 0.10529675334692 0.9944408535957336 -1.599999990276046e-07
vn 0.1052930131554604 0.7031744122505188 0.7031778693199158
vn 0.1052927002310753 0.7031757831573486 -0.7031764984130859
vn 0.1052953600883484 2.680000079635647e-06 0.9944409728050232
vn 0.1052947789430618 2.150000000256114e-06 -0.994441032409668
vn 0.1052943095564842 -0.7031729221343994 0.7031791806221008
vn 0.1052917987108231 -0.7031737565994263 -0.7031787037849426
vn 0.1052964925765991 -0.9944408535957336 3.700000092976552e-07
vn 0.1052945181727409 0.9944410920143127 4.1000001260727e-07
vn 0.1052937433123589 0.7031756639480591 0.7031764984130859
vn 0.1052917316555977 0.7031765580177307 -0.703175961971283
vn 0.1052954494953156 2.100000074278796e-06 0.9944409728050232
vn 0.1052946895360947 2.629999926284654e-06 -0.9944410920143127
vn 0.1052931100130081 -0.7031726241111755 0.703179657459259
vn 0.1052926927804947 -0.7031741738319397 -0.7031781673431397
vn 0.10529675334692 -0.9944408535957336 -1.599999990276046e-07
vn 0.01311029028147459 0.990516722202301 0.1367651969194412
vn 0.01311044953763485 0.6036973595619202 0.7971057891845703
vn 0.01311037037521601 0.7971048951148987 -0.6036984920501709
vn 0.01311034988611937 -0.1367598623037338 0.9905174970626831
vn 0.01311019994318485 0.1367654949426651 -0.990516722202301
vn 0.01311037968844175 -0.7971041202545166 0.6036995053291321
vn 0.01311037968844175 -0.6036959290504456 -0.7971068620681763
vn 0.01311029028147459 -0.990516722202301 -0.1367651969194412
vn 0.01311044953763485 0.9905169010162354 -0.1367638558149338
vn 0.01311044953763485 0.7971057295799255 0.6036974191665649
vn 0.01311037037521601 0.6036983728408814 -0.7971050143241882
vn 0.01311036013066769 0.1367641687393189 0.9905169010162354
vn 0.01311018969863653 -0.1367611736059189 -0.9905173182487488
vn 0.01311045978218317 -0.6036948561668396 0.7971076369285584
vn 0.01311037968844175 -0.7971041202545166 -0.6036995053291321
vn 0.01311029028147459 -0.990516722202301 0.1367651969194412
f 78//78 54//54 62//62 80//80
f 80//80 62//62 56//56 79//79
f 79//79 56//56 50//50 77//77
f 77//77 50//50 44//44 75//75
f 75//75 44//44 36//36 73//73
f 73//73 36//36 42//42 74//74
f 74//74 42//42 48//48 76//76
f 76//76 48//48 54//54 78//78
f 53//53 57//57 63//63 61//61
f 61//61 63//63 59//59 55//55
f 55//55 59//59 51//51 49//49
f 49//49 51//51 39//39 43//43
f 43//43 39//39 33//33 35//35
f 35//35 33//33 37//37 41//41
f 41//41 37//37 45//45 47//47
f 47//47 45//45 57//57 53//53
f 58//58 94//94 96//96 64//64
f 64//64 96//96 95//95 60//60
f 60//60 95//95 93//93 52//52
f 52//52 93//93 91//91 40//40
f 40//40 91//91 89//89 34//34
f 34//34 89//89 90//90 38//38
f 38//38 90//90 92//92 46//46
f 46//46 92//92 94//94 58//58
f 94//94 110//110 112//112 96//96
f 96//96 112//112 111//111 95//95
f 95//95 111//111 109//109 93//93
f 93//93 109//109 107//107 91//91
f 91//91 107//107 105//105 89//89
f 89//89 105//105 106//106 90//90
f 90//90 106//106 108//108 92//92
f 92//92 108//108 110//110 94//94
f 110//110 126//126 128//128 112//112
f 112//112 128//128 127//127 111//111
f 111//111 127//127 125//125 109//109
f 109//109 125//125 123//123 107//107
f 107//107 123//123 121//121 105//105
f 105//105 121//121 122//122 106//106
f 106//106 122//122 124//124 108//108
f 108//108 124//124 126//126 110//110
f 66//66 65//65 4//4 10//10
f 65//65 67//67 12//12 4//4
f 67//67 69//69 18//18 12//12
f 69//69 71//71 24//24 18//18
f 71//71 72//72 30//30 24//24
f 72//72 70//70 22//22 30//30
f 70//70 68//68 16//16 22//22
f 68//68 66//66 10//10 16//16
f 9//9 3//3 1//1 5//5
f 3//3 11//11 7//7 1//1
f 11//11 17//17 19//19 7//7
f 17//17 23//23 27//27 19//19
f 23//23 29//29 31//31 27//27
f 29//29 21//21 25//25 31//31
f 21//21 15//15 13//13 25//25
f 15//15 9//9 5//5 13//13
f 6//6 2//2 81//81 82//82
f 2//2 8//8 83//83 81//81
f 8//8 20//20 85//85 83//83
f 20//20 28//28 87//87 85//85
f 28//28 32//32 88//88 87//87
f 32//32 26//26 86//86 88//88
f 26//26 14//14 84//84 86//86
f 14//14 6//6 82//82 84//84
f 82//82 81//81 97//97 98//98
f 81//81 83//83 99//99 97//97
f 83//83 85//85 101//101 99//99
f 85//85 87//87 103//103 101//101
f 87//87 88//88 104//104 103//103
f 88//88 86//86 102//102 104//104
f 86//86 84//84 100//100 102//102
f 84//84 82//82 98//98 100//100
f 98//98 97//97 113//113 114//114
f 97//97 99//99 115//115 113//113
f 99//99 101//101 117//117 115//115
f 101//101 103//103 119//119 117//117
f 103//103 104//104 120//120 119//119
f 104//104 102//102 118//118 120//120
f 102//102 100//100 116//116 118//118
f 100//100 98//98 114//114 116//116
