# Rhino

v 11.89182472229004 5.000010967254639 0.3594349920749664
v 11.89182472229004 5.000010967254639 0.3594349920749664
v 11.89182472229004 5.000010967254639 0.06297700107097626
v 11.89182472229004 5.000010967254639 0.06297700107097626
v 10.72391796112061 7.819571018218994 0.3594349920749664
v 10.72391796112061 7.819571018218994 0.3594349920749664
v 10.72391796112061 7.819571018218994 0.06297700107097626
v 10.72391796112061 7.819571018218994 0.06297700107097626
v 10.72391796112061 2.180449962615967 0.3594349920749664
v 10.72391796112061 2.180449962615967 0.3594349920749664
v 10.72391796112061 2.180449962615967 0.06297700107097626
v 10.72391796112061 2.180449962615967 0.06297700107097626
v 7.904359817504883 8.98747444152832 0.3594349920749664
v 7.904359817504883 8.98747444152832 0.3594349920749664
v 7.904359817504883 8.98747444152832 0.06297700107097626
v 7.904359817504883 8.98747444152832 0.06297700107097626
v 7.904359817504883 1.012547016143799 0.3594349920749664
v 7.904359817504883 1.012547016143799 0.3594349920749664
v 7.904359817504883 1.012547016143799 0.06297700107097626
v 7.904359817504883 1.012547016143799 0.06297700107097626
v 5.084797859191895 7.819571018218994 0.3594349920749664
v 5.084797859191895 7.819571018218994 0.3594349920749664
v 5.084797859191895 7.819571018218994 0.06297700107097626
v 5.084797859191895 7.819571018218994 0.06297700107097626
v 5.084797859191895 2.180449962615967 0.3594349920749664
v 5.084797859191895 2.180449962615967 0.3594349920749664
v 5.084797859191895 2.180449962615967 0.06297700107097626
v 5.084797859191895 2.180449962615967 0.06297700107097626
v 3.916897058486939 5.000010967254639 0.3594349920749664
v 3.916897058486939 5.000010967254639 0.3594349920749664
v 3.916897058486939 5.000010967254639 0.06297700107097626
v 3.916897058486939 5.000010967254639 0.06297700107097626
vn 0.9906022548675537 -0.1367743611335754 0
vn 0 0 1
vn 0.9906021952629089 0.136774480342865 0
vn 0 0 -1
vn 0.7971745133399963 0.6037489175796509 0
vn 0 0 1
vn 0.6037481427192688 0.7971751093864441 0
vn 0 0 -1
vn 0.6037482023239136 -0.7971751093864441 0
vn 0 0 1
vn 0.7971745729446411 -0.6037488579750061 0
vn 0 0 -1
vn 0.1367742270231247 0.9906022548675537 0
vn 0 0 1
vn 0 0 -1
vn -0.1367737352848053 0.9906023144721985 0
vn 0 0 1
vn -0.1367737352848053 -0.9906023144721985 0
vn 0.1367742270231247 -0.9906022548675537 0
vn 0 0 -1
vn 0 0 1
vn -0.6037483215332031 0.7971749901771545 0
vn 0 0 -1
vn -0.7971751689910889 0.603748083114624 0
vn 0 0 1
vn -0.7971752285957336 -0.6037479639053345 0
vn 0 0 -1
vn -0.6037483811378479 -0.7971749305725098 0
vn 0 0 1
vn -0.9906023144721985 0.1367737948894501 0
vn 0 0 -1
vn -0.9906023144721985 -0.1367736756801605 0
f 27//27 31//31 23//23 4//4
f 8//8 4//4 23//23 15//15
f 6//6 14//14 21//21 2//2
f 17//17 10//10 2//2 25//25
f 25//25 2//2 21//21 29//29
f 12//12 20//20 27//27 4//4
f 22//22 13//13 16//16 24//24
f 13//13 5//5 7//7 16//16
f 5//5 1//1 3//3 7//7
f 1//1 9//9 11//11 3//3
f 9//9 18//18 19//19 11//11
f 18//18 26//26 28//28 19//19
f 26//26 30//30 32//32 28//28
f 30//30 22//22 24//24 32//32
