# Rhino

v 14.65584087371826 7.5 1.761222004890442
v 14.65584087371826 7.5 1.761222004890442
v 14.65584087371826 7.5 0.08070400357246399
v 14.65584087371826 7.5 0.08070400357246399
v 12.96042156219482 11.59310245513916 1.761222004890442
v 12.96042156219482 11.59310245513916 1.761222004890442
v 12.96042156219482 11.59310245513916 0.08070400357246399
v 12.96042156219482 11.59310245513916 0.08070400357246399
v 12.96042156219482 3.406898021697998 1.761222004890442
v 12.96042156219482 3.406898021697998 1.761222004890442
v 12.96042156219482 3.406898021697998 0.08070400357246399
v 12.96042156219482 3.406898021697998 0.08070400357246399
v 8.867320060729981 13.28851890563965 1.761222004890442
v 8.867320060729981 13.28851890563965 1.761222004890442
v 8.867320060729981 13.28851890563965 0.08070400357246399
v 8.867320060729981 13.28851890563965 0.08070400357246399
v 8.867320060729981 1.711480975151062 1.761222004890442
v 8.867320060729981 1.711480975151062 1.761222004890442
v 8.867320060729981 1.711480975151062 0.08070400357246399
v 8.867320060729981 1.711480975151062 0.08070400357246399
v 4.774219036102295 11.59310245513916 1.761222004890442
v 4.774219036102295 11.59310245513916 1.761222004890442
v 4.774219036102295 11.59310245513916 0.08070400357246399
v 4.774219036102295 11.59310245513916 0.08070400357246399
v 4.774219036102295 3.406898021697998 1.761222004890442
v 4.774219036102295 3.406898021697998 1.761222004890442
v 4.774219036102295 3.406898021697998 0.08070400357246399
v 4.774219036102295 3.406898021697998 0.08070400357246399
v 3.078803062438965 7.5 1.761222004890442
v 3.078803062438965 7.5 1.761222004890442
v 3.078803062438965 7.5 0.08070400357246399
v 3.078803062438965 7.5 0.08070400357246399
vn 0.9906023144721985 -0.1367736905813217 0
vn 0 0 1
vn 0.9906023144721985 0.1367736905813217 0
vn 0 0 -1
vn 0.7971751093864441 0.6037482023239136 0
vn 0 0 1
vn 0.6037478446960449 0.7971753478050232 0
vn 0 0 -1
vn 0.6037478446960449 -0.7971753478050232 0
vn 0 0 1
vn 0.7971751093864441 -0.6037482023239136 0
vn 0 0 -1
vn 0.1367735117673874 0.9906023740768433 0
vn 0 0 1
vn 0 0 -1
vn -0.1367735862731934 0.9906023144721985 0
vn 0 0 1
vn -0.1367735862731934 -0.9906023144721985 0
vn 0.1367735117673874 -0.9906023740768433 0
vn 0 0 -1
vn 0 0 1
vn -0.603748083114624 0.7971751689910889 0
vn 0 0 -1
vn -0.7971753478050232 0.6037478446960449 0
vn 0 0 1
vn -0.7971753478050232 -0.6037478446960449 0
vn 0 0 -1
vn -0.603748083114624 -0.7971751689910889 0
vn 0 0 1
vn -0.9906023740768433 0.1367734521627426 0
vn 0 0 -1
vn -0.9906023740768433 -0.1367734521627426 0
f 27//27 31//31 23//23 4//4
f 8//8 4//4 23//23 15//15
f 6//6 14//14 21//21 2//2
f 17//17 10//10 2//2 25//25
f 25//25 2//2 21//21 29//29
f 12//12 20//20 27//27 4//4
f 22//22 13//13 16//16 24//24
f 13//13 5//5 7//7 16//16
f 5//5 1//1 3//3 7//7
f 1//1 9//9 11//11 3//3
f 9//9 18//18 19//19 11//11
f 18//18 26//26 28//28 19//19
f 26//26 30//30 32//32 28//28
f 30//30 22//22 24//24 32//32
