# RokuSuper Output Ver2.0 for Wavefront Obj

v 4.55517600 10.05207900 4.64622400
v 4.18554400 10.26548600 4.64622400
v 4.55517600 10.47889200 4.64622400
v 4.92480700 10.26548600 4.64622400
v 4.92480700 9.83867300 4.64622400
v 4.55517600 9.62526500 4.64622400
v 4.18554400 9.83867300 4.64622400
v 4.55517600 10.05207900 3.79259700
v 4.55517600 10.47889200 3.79259700
v 4.18554400 10.26548600 3.79259700
v 4.92480700 10.26548600 3.79259700
v 4.92480700 9.83867300 3.79259700
v 4.55517600 9.62526500 3.79259700
v 4.18554400 9.83867300 3.79259700
v 4.18554400 4.58413000 4.64622400
v 4.55517600 4.79753600 4.64622400
v 4.55517600 4.37072300 4.64622400
v 4.92480700 4.58413000 4.64622400
v 4.92480700 5.01094300 4.64622400
v 4.55517600 5.22434900 4.64622400
v 4.18554400 5.01094300 4.64622400
v 4.55517600 4.37072300 3.79259700
v 4.55517600 4.79753600 3.79259700
v 4.18554400 4.58413000 3.79259700
v 4.92480700 4.58413000 3.79259700
v 4.92480700 5.01094300 3.79259700
v 4.55517600 5.22434900 3.79259700
v 4.18554400 5.01094300 3.79259700
v 9.42878800 6.94522600 4.28017100
v 10.55046900 6.94522600 4.28017100
v 10.55046900 6.94522600 3.32100800
v 9.42878800 6.94522600 3.32100800
v 10.55046900 7.90438900 4.28017100
v 9.42878800 7.90438900 4.28017100
v 9.42878800 7.90438900 3.32100800
v 10.55046900 7.90438900 3.32100800
v 0.38373300 6.98070800 5.67009700
v 1.45630300 7.05061600 5.67009700
v 1.45630300 7.05061600 4.78189800
v 0.38373300 6.98070800 4.78189800
v 1.45630300 7.79899900 5.67009700
v 0.38373300 7.86890700 5.67009700
v 0.38373300 7.86890700 4.78189800
v 1.45630300 7.79899900 4.78189800
v 0.37612400 7.42480800 5.88509300
v -0.21816900 7.76792300 5.88509300
v 0.37612400 8.11103800 5.88509300
v 0.97041700 7.76792300 5.88509300
v 0.97041700 7.08169200 5.88509300
v 0.37612400 6.73857600 5.88509300
v -0.21817000 7.08169200 5.88509300
v 0.37612400 7.42480800 4.51263000
v 0.37612400 8.11103800 4.51263000
v -0.21816900 7.76792300 4.51263000
v 0.97041700 7.76792300 4.51263000
v 0.97041700 7.08169200 4.51263000
v 0.37612400 6.73857600 4.51263000
v -0.21817000 7.08169200 4.51263000
v -1.70567100 6.89298200 5.19811700
v -1.16900000 4.96168500 4.85999300
v -1.12130000 4.83918500 1.64803200
v -1.70269700 6.88214800 1.64803200
v -0.71428600 3.60256100 4.64086200
v -0.52784700 2.96184500 1.66011500
v -0.50299200 6.54939500 1.67219700
v -0.50299200 4.33628900 1.67219700
v 2.12758500 4.95477200 4.83353600
v 2.12758500 3.16632300 4.58098400
v 2.12758500 6.89883500 5.18190400
v 2.12758500 7.95077900 5.18190400
v -1.70567100 7.95663400 5.19811700
v 2.12758500 6.11369300 1.67219700
v 2.12758500 3.97227600 1.67219700
v 2.12758500 2.52560700 1.67219800
v 7.76485000 2.21445100 3.69528000
v 8.07364000 1.55948500 1.67219800
v 11.56201600 2.91143600 1.67219700
v 12.87016600 4.93919200 1.67219700
v 12.87016600 9.91042300 1.67219700
v -1.70269700 7.96746700 1.64803200
v 11.16178600 3.33751500 3.44551000
v 11.94304100 4.93919200 3.62181800
v 11.94304100 9.91042300 3.62181800
v -1.12130000 10.01043000 1.64803200
v -1.16900000 9.88793000 4.85999300
v -0.52784700 11.88777100 1.66011500
v -0.71428600 11.24705400 4.64086200
v -0.50299200 8.30022000 1.67219700
v -0.50299200 10.51332700 1.67219700
v 2.12758500 11.68329200 4.58098400
v 2.12758500 9.89484400 4.83353600
v 2.12758500 8.73592200 1.67219700
v 2.12758500 10.87733900 1.67219700
v 2.12758500 12.32400800 1.67219700
v 7.76485000 12.63516400 3.69528000
v 8.07364000 13.29013100 1.67219700
v 11.56201600 11.93818000 1.67219700
v 11.16178600 11.51210100 3.44551000

vn 0.00000000 0.00000000 1.00000000
vn 0.00000000 0.00000000 1.00000000
vn 0.00000000 0.00000000 1.00000000
vn 0.00000000 0.00000000 1.00000000
vn 0.00000000 0.00000000 1.00000000
vn 0.00000000 0.00000000 1.00000000
vn 0.00000000 0.00000000 1.00000000
vn 0.00000000 0.00000000 1.00000000
vn 0.00000000 0.00000000 1.00000000
vn 0.00000000 0.00000000 1.00000000
vn 0.00000000 0.00000000 1.00000000
vn 0.00000000 0.00000000 1.00000000
vn 0.00000000 0.00000000 1.00000000
vn 0.00000000 0.00000000 1.00000000
vn 0.00000000 0.00000000 1.00000000
vn 0.00000000 0.00000000 1.00000000
vn 0.00000000 0.00000000 1.00000000
vn 0.00000000 0.00000000 1.00000000
vn 0.00000000 0.00000000 -1.00000000
vn 0.00000000 0.00000000 -1.00000000
vn 0.00000000 0.00000000 -1.00000000
vn 0.00000000 0.00000000 -1.00000000
vn 0.00000000 0.00000000 -1.00000000
vn 0.00000000 0.00000000 -1.00000000
vn 0.00000000 0.00000000 -1.00000000
vn 0.00000000 0.00000000 -1.00000000
vn 0.00000000 0.00000000 -1.00000000
vn 0.00000000 0.00000000 -1.00000000
vn 0.00000000 0.00000000 -1.00000000
vn 0.00000000 0.00000000 -1.00000000
vn 0.00000000 0.00000000 -1.00000000
vn 0.00000000 0.00000000 -1.00000000
vn 0.00000000 0.00000000 -1.00000000
vn 0.00000000 0.00000000 -1.00000000
vn 0.00000000 0.00000000 -1.00000000
vn 0.00000000 0.00000000 -1.00000000
vn -0.49999801 0.86602655 0.00000000
vn 0.18898209 0.98198053 0.00000000
vn -0.18898094 0.98198076 0.00000000
vn -0.49999801 0.86602655 0.00000000
vn 0.18898209 0.98198053 0.00000000
vn 0.49999902 0.86602597 0.00000000
vn 0.49999902 0.86602597 0.00000000
vn -0.18898094 0.98198076 0.00000000
vn 1.00000000 0.00000000 0.00000000
vn 0.75593031 -0.65465209 0.00000000
vn 0.94491146 -0.32732605 0.00000000
vn 1.00000000 0.00000000 0.00000000
vn 0.75593031 -0.65465209 0.00000000
vn 0.50000254 -0.86602394 0.00000000
vn 0.50000254 -0.86602394 0.00000000
vn 0.94491146 -0.32732605 0.00000000
vn -0.50000152 -0.86602453 0.00000000
vn -0.94491135 -0.32732636 0.00000000
vn -0.75592977 -0.65465272 0.00000000
vn -0.50000152 -0.86602453 0.00000000
vn -0.94491135 -0.32732636 0.00000000
vn -1.00000000 0.00000000 0.00000000
vn -1.00000000 0.00000000 0.00000000
vn -0.75592977 -0.65465272 0.00000000
vn 0.00000000 0.00000000 1.00000000
vn 0.00000000 0.00000000 1.00000000
vn 0.00000000 0.00000000 1.00000000
vn 0.00000000 0.00000000 1.00000000
vn 0.00000000 0.00000000 1.00000000
vn 0.00000000 0.00000000 1.00000000
vn 0.00000000 0.00000000 1.00000000
vn 0.00000000 0.00000000 1.00000000
vn 0.00000000 0.00000000 1.00000000
vn 0.00000000 0.00000000 1.00000000
vn 0.00000000 0.00000000 1.00000000
vn 0.00000000 0.00000000 1.00000000
vn 0.00000000 0.00000000 1.00000000
vn 0.00000000 0.00000000 1.00000000
vn 0.00000000 0.00000000 1.00000000
vn 0.00000000 0.00000000 1.00000000
vn 0.00000000 0.00000000 1.00000000
vn 0.00000000 0.00000000 1.00000000
vn 0.00000000 0.00000000 -1.00000000
vn 0.00000000 0.00000000 -1.00000000
vn 0.00000000 0.00000000 -1.00000000
vn 0.00000000 0.00000000 -1.00000000
vn 0.00000000 0.00000000 -1.00000000
vn 0.00000000 0.00000000 -1.00000000
vn 0.00000000 0.00000000 -1.00000000
vn 0.00000000 0.00000000 -1.00000000
vn 0.00000000 0.00000000 -1.00000000
vn 0.00000000 0.00000000 -1.00000000
vn 0.00000000 0.00000000 -1.00000000
vn 0.00000000 0.00000000 -1.00000000
vn 0.00000000 0.00000000 -1.00000000
vn 0.00000000 0.00000000 -1.00000000
vn 0.00000000 0.00000000 -1.00000000
vn 0.00000000 0.00000000 -1.00000000
vn 0.00000000 0.00000000 -1.00000000
vn 0.00000000 0.00000000 -1.00000000
vn -0.49999976 -0.86602554 0.00000000
vn -0.49999976 -0.86602554 0.00000000
vn -0.49999976 -0.86602554 0.00000000
vn -0.49999976 -0.86602554 0.00000000
vn 0.50000078 -0.86602495 0.00000000
vn 0.50000078 -0.86602495 0.00000000
vn 0.75592937 -0.65465319 0.00000000
vn 0.94491127 -0.32732659 0.00000000
vn 0.94491127 -0.32732659 0.00000000
vn 0.75592937 -0.65465319 0.00000000
vn 1.00000000 0.00000000 0.00000000
vn 1.00000000 0.00000000 0.00000000
vn 0.49999902 0.86602597 0.00000000
vn 0.49999902 0.86602597 0.00000000
vn 0.18898209 0.98198053 0.00000000
vn -0.18898094 0.98198076 0.00000000
vn -0.18898094 0.98198076 0.00000000
vn 0.18898209 0.98198053 0.00000000
vn -0.49999801 0.86602655 0.00000000
vn -0.49999801 0.86602655 0.00000000
vn -1.00000000 0.00000000 0.00000000
vn -1.00000000 0.00000000 0.00000000
vn -1.00000000 0.00000000 0.00000000
vn -1.00000000 0.00000000 0.00000000
vn 0.00000000 -1.00000000 0.00000000
vn 0.00000000 -1.00000000 0.00000000
vn 0.00000000 -1.00000000 0.00000000
vn 0.00000000 -1.00000000 0.00000000
vn 0.00000000 1.00000000 0.00000000
vn 0.00000000 1.00000000 0.00000000
vn 0.00000000 1.00000000 0.00000000
vn 0.00000000 1.00000000 0.00000000
vn 0.00000000 0.00000000 -1.00000000
vn 0.00000000 0.00000000 -1.00000000
vn 0.00000000 0.00000000 -1.00000000
vn 0.00000000 0.00000000 -1.00000000
vn -1.00000000 0.00000000 0.00000000
vn -1.00000000 0.00000000 0.00000000
vn -1.00000000 0.00000000 0.00000000
vn -1.00000000 0.00000000 0.00000000
vn 0.00000000 0.00000000 1.00000000
vn 0.00000000 0.00000000 1.00000000
vn 0.00000000 0.00000000 1.00000000
vn 0.00000000 0.00000000 1.00000000
vn 1.00000000 0.00000000 0.00000000
vn 1.00000000 0.00000000 0.00000000
vn 1.00000000 0.00000000 0.00000000
vn 1.00000000 0.00000000 0.00000000
vn 0.06504003 -0.99788266 0.00000000
vn 0.06504003 -0.99788266 0.00000000
vn 0.06504003 -0.99788266 0.00000000
vn 0.06504003 -0.99788266 0.00000000
vn 0.06504003 0.99788266 0.00000000
vn 0.06504003 0.99788266 0.00000000
vn 0.06504003 0.99788266 0.00000000
vn 0.06504003 0.99788266 0.00000000
vn 0.00000000 0.00000000 -1.00000000
vn 0.00000000 0.00000000 -1.00000000
vn 0.00000000 0.00000000 -1.00000000
vn 0.00000000 0.00000000 -1.00000000
vn -1.00000000 0.00000000 0.00000000
vn -1.00000000 0.00000000 0.00000000
vn -1.00000000 0.00000000 0.00000000
vn -1.00000000 0.00000000 0.00000000
vn 0.00000000 0.00000000 1.00000000
vn 0.00000000 0.00000000 1.00000000
vn 0.00000000 0.00000000 1.00000000
vn 0.00000000 0.00000000 1.00000000
vn 1.00000000 0.00000000 0.00000000
vn 1.00000000 0.00000000 0.00000000
vn 1.00000000 0.00000000 0.00000000
vn 1.00000000 0.00000000 0.00000000
vn 0.00000000 0.00000000 1.00000000
vn 0.00000000 0.00000000 1.00000000
vn 0.00000000 0.00000000 1.00000000
vn 0.00000000 0.00000000 1.00000000
vn 0.00000000 0.00000000 1.00000000
vn 0.00000000 0.00000000 1.00000000
vn 0.00000000 0.00000000 1.00000000
vn 0.00000000 0.00000000 1.00000000
vn 0.00000000 0.00000000 1.00000000
vn 0.00000000 0.00000000 1.00000000
vn 0.00000000 0.00000000 1.00000000
vn 0.00000000 0.00000000 1.00000000
vn 0.00000000 0.00000000 1.00000000
vn 0.00000000 0.00000000 1.00000000
vn 0.00000000 0.00000000 1.00000000
vn 0.00000000 0.00000000 1.00000000
vn 0.00000000 0.00000000 1.00000000
vn 0.00000000 0.00000000 1.00000000
vn 0.00000000 0.00000000 -1.00000000
vn 0.00000000 0.00000000 -1.00000000
vn 0.00000000 0.00000000 -1.00000000
vn 0.00000000 0.00000000 -1.00000000
vn 0.00000000 0.00000000 -1.00000000
vn 0.00000000 0.00000000 -1.00000000
vn 0.00000000 0.00000000 -1.00000000
vn 0.00000000 0.00000000 -1.00000000
vn 0.00000000 0.00000000 -1.00000000
vn 0.00000000 0.00000000 -1.00000000
vn 0.00000000 0.00000000 -1.00000000
vn 0.00000000 0.00000000 -1.00000000
vn 0.00000000 0.00000000 -1.00000000
vn 0.00000000 0.00000000 -1.00000000
vn 0.00000000 0.00000000 -1.00000000
vn 0.00000000 0.00000000 -1.00000000
vn 0.00000000 0.00000000 -1.00000000
vn 0.00000000 0.00000000 -1.00000000
vn -0.75592854 0.65465414 0.00000000
vn 0.18898212 0.98198053 0.00000000
vn -0.18898212 0.98198053 0.00000000
vn -0.94491082 0.32732790 0.00000000
vn 0.18898212 0.98198053 0.00000000
vn 0.49999976 0.86602554 0.00000000
vn 0.49999976 0.86602554 0.00000000
vn -0.18898212 0.98198053 0.00000000
vn 1.00000000 0.00000000 0.00000000
vn 0.75592940 -0.65465314 0.00000000
vn 0.94491127 -0.32732657 0.00000000
vn 1.00000000 0.00000000 0.00000000
vn 0.75592940 -0.65465314 0.00000000
vn 0.50000085 -0.86602491 0.00000000
vn 0.50000085 -0.86602491 0.00000000
vn 0.94491127 -0.32732657 0.00000000
vn -0.50000022 -0.86602528 0.00000000
vn -0.50000022 -0.86602528 0.00000000
vn -0.50000022 -0.86602528 0.00000000
vn -0.50000022 -0.86602528 0.00000000
vn -1.00000000 0.00000146 0.00000000
vn -0.75592854 0.65465414 0.00000000
vn -0.94491082 0.32732790 0.00000000
vn -1.00000000 0.00000146 0.00000000
vn -0.95816114 -0.28622273 -0.00194377
vn -0.99594351 -0.08997896 -0.00055973
vn -0.98329694 -0.18200182 -0.00157048
vn -0.95474833 -0.29741483 -0.00023226
vn -0.95099716 -0.30919560 0.00157392
vn -0.95816114 -0.28622273 -0.00194377
vn -0.95474833 -0.29741483 -0.00023226
vn -0.95349074 -0.30137844 0.00514305
vn 0.03035688 0.00481791 -0.99952751
vn 0.01006969 0.00000000 -0.99994930
vn 0.02099551 0.00488232 -0.99976765
vn 0.04814822 0.01120505 -0.99877735
vn 0.02574986 0.00832159 -0.99963378
vn 0.04814822 0.01120505 -0.99877735
vn 0.02099551 0.00488232 -0.99976765
vn 0.06412822 -0.15809449 0.98533939
vn 0.00757429 -0.16355568 0.98650503
vn 0.00349855 -0.14826514 0.98894146
vn 0.08401046 -0.14770115 0.98545757
vn 0.00542253 -0.11599046 0.99323553
vn 0.00757429 -0.16355568 0.98650503
vn 0.06412822 -0.15809449 0.98533939
vn 0.07194662 -0.08842516 0.99348109
vn 0.07194662 -0.08842516 0.99348109
vn 0.07194664 0.08842507 0.99348110
vn 0.00513004 0.08702962 0.99619252
vn 0.00542253 -0.11599046 0.99323553
vn 0.01006969 0.00000000 -0.99994930
vn 0.00000000 0.00000000 -1.00000000
vn -0.00000005 -0.00000033 -1.00000000
vn 0.02099551 0.00488232 -0.99976765
vn 0.02099551 0.00488232 -0.99976765
vn -0.00000005 -0.00000033 -1.00000000
vn 0.00199206 0.00289354 -0.99999383
vn 0.02574986 0.00832159 -0.99963378
vn -0.15197337 -0.96671335 0.20583825
vn -0.15803432 -0.96431707 0.21240936
vn -0.14399437 -0.96278121 0.22873120
vn -0.14457930 -0.96921607 0.19929133
vn -0.14399437 -0.96278121 0.22873120
vn -0.15803432 -0.96431707 0.21240936
vn 0.02357336 -0.95747258 0.28755966
vn 0.18596278 -0.93161803 0.31225902
vn -0.00000009 -0.00000063 -1.00000000
vn 0.00199206 0.00289354 -0.99999383
vn -0.00000005 -0.00000033 -1.00000000
vn -0.00000002 -0.00000019 -1.00000000
vn -0.00000002 -0.00000019 -1.00000000
vn -0.00000005 -0.00000033 -1.00000000
vn 0.00000000 0.00000000 -1.00000000
vn 0.00000000 0.00000000 -1.00000000
vn 0.00000000 0.00000000 -1.00000000
vn 0.00000000 0.00000000 -1.00000000
vn 0.00000000 0.00000000 -1.00000000
vn 0.00000000 0.00000000 -1.00000000
vn -0.99594351 -0.08997896 -0.00055973
vn -0.99083081 0.13510785 -0.00041777
vn -0.99061904 0.13664546 -0.00139054
vn -0.98329694 -0.18200182 -0.00157048
vn 0.08401046 -0.14770115 0.98545757
vn 0.12607586 -0.16374245 0.97841366
vn 0.45123166 -0.45549814 0.76740565
vn 0.06412822 -0.15809449 0.98533939
vn 0.06412822 -0.15809449 0.98533939
vn 0.45123166 -0.45549814 0.76740565
vn 0.57333872 -0.17532889 0.80033899
vn 0.07194662 -0.08842516 0.99348109
vn 0.57333872 -0.17532889 0.80033899
vn 0.57333874 0.17532879 0.80033899
vn 0.07194664 0.08842507 0.99348110
vn 0.07194662 -0.08842516 0.99348109
vn 0.18596278 -0.93161803 0.31225902
vn 0.02357336 -0.95747258 0.28755966
vn 0.50770375 -0.79856944 0.32330134
vn 0.45123166 -0.45549814 0.76740565
vn 0.45123166 -0.45549814 0.76740565
vn 0.50770375 -0.79856944 0.32330134
vn 0.88266896 -0.24653544 0.40014470
vn 0.57333872 -0.17532889 0.80033899
vn 0.88266896 -0.24653544 0.40014470
vn 0.86308310 0.32762251 0.38438399
vn 0.57333874 0.17532879 0.80033899
vn 0.57333872 -0.17532889 0.80033899
vn -0.95816113 0.28622277 -0.00194380
vn -0.95474834 0.29741478 -0.00023224
vn -0.99061904 0.13664546 -0.00139054
vn -0.99083081 0.13510785 -0.00041777
vn -0.95099719 0.30919552 0.00157395
vn -0.95349078 0.30137829 0.00514312
vn -0.95474834 0.29741478 -0.00023224
vn -0.95816113 0.28622277 -0.00194380
vn 0.02780235 -0.00361336 -0.99960691
vn 0.04814824 -0.01120506 -0.99877735
vn 0.02099548 -0.00488241 -0.99976765
vn 0.01006969 0.00000000 -0.99994930
vn 0.02574967 -0.00832160 -0.99963379
vn 0.02099548 -0.00488241 -0.99976765
vn 0.04814824 -0.01120506 -0.99877735
vn 0.06412822 0.15809447 0.98533939
vn 0.08401044 0.14770124 0.98545755
vn 0.00349852 0.14826518 0.98894145
vn 0.00757424 0.16355574 0.98650502
vn 0.00513004 0.08702962 0.99619252
vn 0.07194664 0.08842507 0.99348110
vn 0.06412822 0.15809447 0.98533939
vn 0.00757424 0.16355574 0.98650502
vn 0.01006969 0.00000000 -0.99994930
vn 0.03035688 0.00481791 -0.99952751
vn 0.02780235 -0.00361336 -0.99960691
vn 0.01006969 0.00000000 -0.99994930
vn 0.01006969 0.00000000 -0.99994930
vn 0.02099548 -0.00488241 -0.99976765
vn 0.00000000 0.00000000 -1.00000000
vn 0.00000000 0.00000000 -1.00000000
vn 0.02099548 -0.00488241 -0.99976765
vn 0.02574967 -0.00832160 -0.99963379
vn 0.00199200 -0.00289401 -0.99999383
vn 0.00000000 0.00000000 -1.00000000
vn -0.15197315 0.96671336 0.20583838
vn -0.14457928 0.96921601 0.19929164
vn -0.14399428 0.96278120 0.22873132
vn -0.15803419 0.96431711 0.21240930
vn 0.00000000 0.00000000 -1.00000000
vn 0.01006969 0.00000000 -0.99994930
vn 0.01006969 0.00000000 -0.99994930
vn 0.00000000 0.00000000 -1.00000000
vn -0.14399428 0.96278120 0.22873132
vn 0.18596268 0.93161799 0.31225919
vn 0.02357329 0.95747253 0.28755982
vn -0.15803419 0.96431711 0.21240930
vn 0.00000000 0.00000000 -1.00000000
vn 0.00000000 0.00000000 -1.00000000
vn 0.00000000 0.00000000 -1.00000000
vn 0.00199200 -0.00289401 -0.99999383
vn 0.00000000 0.00000000 -1.00000000
vn 0.00000000 0.00000000 -1.00000000
vn 0.00000000 0.00000000 -1.00000000
vn 0.00000000 0.00000000 -1.00000000
vn 0.08401044 0.14770124 0.98545755
vn 0.06412822 0.15809447 0.98533939
vn 0.45123167 0.45549811 0.76740567
vn 0.12607584 0.16374254 0.97841365
vn 0.06412822 0.15809447 0.98533939
vn 0.07194664 0.08842507 0.99348110
vn 0.57333874 0.17532879 0.80033899
vn 0.45123167 0.45549811 0.76740567
vn 0.18596268 0.93161799 0.31225919
vn 0.45123167 0.45549811 0.76740567
vn 0.50770370 0.79856944 0.32330142
vn 0.02357329 0.95747253 0.28755982
vn 0.45123167 0.45549811 0.76740567
vn 0.57333874 0.17532879 0.80033899
vn 0.86308310 0.32762251 0.38438399
vn 0.50770370 0.79856944 0.32330142

g ²ã
f 3//1 2//2 1//3
f 4//4 3//5 1//6
f 5//7 4//8 1//9
f 6//10 5//11 1//12
f 7//13 6//14 1//15
f 2//16 7//17 1//18
f 10//19 9//20 8//21
f 9//22 11//23 8//24
f 11//25 12//26 8//27
f 12//28 13//29 8//30
f 13//31 14//32 8//33
f 14//34 10//35 8//36
f 2//37 3//38 9//39 10//40
f 3//41 4//42 11//43 9//44
f 4//45 5//46 12//47 11//48
f 5//49 6//50 13//51 12//52
f 6//53 7//54 14//55 13//56
f 7//57 2//58 10//59 14//60
f 17//61 16//62 15//63
f 18//64 16//65 17//66
f 19//67 16//68 18//69
f 20//70 16//71 19//72
f 21//73 16//74 20//75
f 15//76 16//77 21//78
f 24//79 23//80 22//81
f 22//82 23//83 25//84
f 25//85 23//86 26//87
f 26//88 23//89 27//90
f 27//91 23//92 28//93
f 28//94 23//95 24//96
f 15//97 24//98 22//99 17//100
f 17//101 22//102 25//103 18//104
f 18//105 25//106 26//107 19//108
f 19//109 26//110 27//111 20//112
f 20//113 27//114 28//115 21//116
f 21//117 28//118 24//119 15//120
f 30//121 29//122 32//123 31//124
f 34//125 33//126 36//127 35//128
f 36//129 31//130 32//131 35//132
f 35//133 32//134 29//135 34//136
f 34//137 29//138 30//139 33//140
f 33//141 30//142 31//143 36//144
f 38//145 37//146 40//147 39//148
f 42//149 41//150 44//151 43//152
f 44//153 39//154 40//155 43//156
f 43//157 40//158 37//159 42//160
f 42//161 37//162 38//163 41//164
f 41//165 38//166 39//167 44//168
f 47//169 46//170 45//171
f 48//172 47//173 45//174
f 49//175 48//176 45//177
f 50//178 49//179 45//180
f 51//181 50//182 45//183
f 46//184 51//185 45//186
f 54//187 53//188 52//189
f 53//190 55//191 52//192
f 55//193 56//194 52//195
f 56//196 57//197 52//198
f 57//199 58//200 52//201
f 58//202 54//203 52//204
f 46//205 47//206 53//207 54//208
f 47//209 48//210 55//211 53//212
f 48//213 49//214 56//215 55//216
f 49//217 50//218 57//219 56//220
f 50//221 51//222 58//223 57//224
f 51//225 46//226 54//227 58//228
f 60//229 59//230 62//231 61//232
f 63//233 60//234 61//235 64//236
f 62//237 65//238 66//239 61//240
f 64//241 61//242 66//243
f 67//244 60//245 63//246 68//247
f 59//248 60//249 67//250 69//251
f 69//252 70//253 71//254 59//255
f 65//256 72//257 73//258 66//259
f 66//260 73//261 74//262 64//263
f 64//264 74//265 68//266 63//267
f 68//268 74//269 76//270 75//271
f 76//272 74//273 73//274 77//275
f 77//276 73//277 72//278 78//279
f 72//280 92//281 79//282 78//283
f 59//284 71//285 80//286 62//287
f 68//288 75//289 81//290 67//291
f 67//292 81//293 82//294 69//295
f 82//296 83//297 70//298 69//299
f 75//300 76//301 77//302 81//303
f 81//304 77//305 78//306 82//307
f 78//308 79//309 83//310 82//311
f 85//312 84//313 80//314 71//315
f 87//316 86//317 84//318 85//319
f 80//320 84//321 89//322 88//323
f 86//324 89//325 84//326
f 91//327 90//328 87//329 85//330
f 71//331 70//332 91//333 85//334
f 65//335 62//336 80//337 88//338
f 88//339 89//340 93//341 92//342
f 89//343 86//344 94//345 93//346
f 86//347 87//348 90//349 94//350
f 72//351 65//352 88//353 92//354
f 90//355 95//356 96//357 94//358
f 96//359 97//360 93//361 94//362
f 97//363 79//364 92//365 93//366
f 90//367 91//368 98//369 95//370
f 91//371 70//372 83//373 98//374
f 95//375 98//376 97//377 96//378
f 98//379 83//380 79//381 97//382

