v 1.8797 1.92642 1.42127
v 1.8797 1.92642 2.93633
v 0.7356 1.92642 2.93633
v 0.7356 1.92642 1.42127
v 1.8797 3.07052 2.93633
v 1.8797 3.07052 1.42127
v 0.735601 3.07052 1.42127
v 0.735601 3.07052 2.93633
v 1.8797 2.84997 1.42127
v 1.8797 2.18832 1.42127
v 0.7356 2.18832 1.42127
v 0.735601 2.84997 1.42127
v 0.7356 2.84997 2.02553
v 0.7356 2.18832 2.02553
v 1.8797 2.18832 2.02553
v 1.8797 2.84997 2.02553
v 1.8797 2.15777 1.42127
v 0.7356 2.15777 1.42127
v 0.7356 2.15777 2.93633
v 1.8797 2.15777 2.93633
v 1.8797 2.8757 1.42127
v 0.735601 2.8757 1.42127
v 0.735601 2.8757 2.93633
v 1.8797 2.8757 2.93633
v 2.18827 3.09927 1.31397
v 1.34678 3.95558 1.31397
v 1.34678 3.95558 3.39934
v 2.18827 3.09927 3.39934
v 2.17779 1.89874 3.39934
v 1.32148 1.05725 3.39934
v 1.32148 1.05725 1.31397
v 2.17779 1.89874 1.31397
v 1.21666 3.64906 3.39934
v 1.87952 2.97453 3.39934
v 1.87127 2.02885 3.39934
v 1.19674 1.36599 3.39934
v 1.19674 1.36599 1.31462
v 1.87127 2.02885 1.31462
v 1.87952 2.97453 1.31462
v 1.21666 3.64906 1.31462
v 2.17945 2.17872 1.31397
v 2.18627 2.20091 2.24032
v 2.18781 2.16028 3.30456
v 1.86661 2.14657 3.30445
v 1.86176 2.17166 2.24035
v 1.87268 2.26996 1.3147
v 2.18599 2.84554 1.31397
v 2.19428 2.86873 3.29519
v 2.19012 2.83192 2.24114
v 2.1828 2.51787 2.10444
v 1.87506 2.51675 2.03181
v 1.87366 2.86702 2.24118
v 1.87141 2.86787 3.29515
v 1.87772 2.77632 1.31462
v 0.177929 1.06722 3.39934
v 0.177929 1.06722 1.31397
v 0.295946 1.37386 3.39934
v 0.295946 1.37386 1.31462
v 0.193986 3.96564 1.31397
v 0.193986 3.96564 3.39934
v 0.308594 3.65698 3.39934
v 0.308594 3.65698 1.31462
vt 0 0
vn 0 -1 1.37545e-07
vn 0 1 0
vn 0 0 -1
vn 0 0 1
vn 1 0 0
vn -1 0 -2.38533e-06
vn 0 0.999438 0.0335229
vn 0 -0.999601 0.0282387
vn 0.713252 0.700908 0
vn 0.700908 -0.713252 0
vn -0.70091 0.71325 0
vn -0.71325 -0.70091 0
vn 0.995485 -0.094781 -0.00506821
vn -0.027012 0.626679 0.778809
vn 0.14114 0.332518 0.932476
vn -0.0897453 0.995678 0.0238851
vn -0.0426263 0.998361 0.0381768
vn 0.980923 -0.194184 -0.00905857
vn 0.999939 0.0102273 -0.00429745
vn 0.999952 -0.00980763 -3.07563e-05
vn 0.999942 0.00771319 -0.00754521
vn 0.999763 -0.0212276 -0.00476496
vn -0.199016 0.512462 0.83533
vn -0.0353778 0.393449 0.918666
vn -0.0567277 -0.512412 0.856864
vn -0.210565 -0.386033 0.898132
vn 0.00266236 -0.999996 0.000811318
vn -0.110167 -0.993292 0.0351234
vn 0.275677 -0.682346 0.677056
vn 0.000980729 -0.411673 0.911331
vn 0.99973 0.0231446 0.00211686
vn -0.99995 0.00995289 -0.000106357
vn -0.99999 -0.00146379 -0.00423842
vn -0.999403 0.0335455 -0.00822756
vn -0.00871789 -0.999962 0
vn 0.00873629 0.999962 1.58694e-08
vn -0.937462 -0.348087 0
vn -0.933266 0.359187 0
vn 0.999982 -0.00593074 0
vn 0.999192 -0.0399355 -0.00456644
vn 0.999595 0.028095 -0.00451114
vn -0.999005 -0.0442123 -0.00578637
vn -0.999983 0.00584787 0
vn -0.996558 0.0826049 -0.00699231
vn -1.74779e-05 -0.00211281 -0.999998
vn -0.00150659 -0.00148141 -0.999998
vn -0.00237472 1.66258e-05 -0.999997
vn -0.0014808 0.00150727 -0.999998
vn 1.80666e-05 0.0021125 -0.999998
f 1/1/1 2/1/1 3/1/1
f 1/1/1 3/1/1 4/1/1
f 5/1/2 6/1/2 7/1/2
f 5/1/2 7/1/2 8/1/2
f 9/1/3 10/1/3 11/1/3
f 9/1/3 11/1/3 12/1/3
f 13/1/4 14/1/4 15/1/4
f 13/1/4 15/1/4 16/1/4
f 16/1/5 15/1/5 10/1/5
f 16/1/5 10/1/5 9/1/5
f 14/1/6 13/1/6 12/1/6
f 14/1/6 12/1/6 11/1/6
f 10/1/3 17/1/3 18/1/3
f 10/1/3 18/1/3 11/1/3
f 17/1/3 1/1/3 4/1/3
f 17/1/3 4/1/3 18/1/3
f 14/1/7 19/1/7 20/1/7
f 14/1/7 20/1/7 15/1/7
f 19/1/4 3/1/4 2/1/4
f 19/1/4 2/1/4 20/1/4
f 15/1/5 20/1/5 17/1/5
f 15/1/5 17/1/5 10/1/5
f 20/1/5 2/1/5 1/1/5
f 20/1/5 1/1/5 17/1/5
f 3/1/6 19/1/6 18/1/6
f 3/1/6 18/1/6 4/1/6
f 19/1/6 14/1/6 11/1/6
f 19/1/6 11/1/6 18/1/6
f 6/1/3 21/1/3 22/1/3
f 6/1/3 22/1/3 7/1/3
f 21/1/3 9/1/3 12/1/3
f 21/1/3 12/1/3 22/1/3
f 8/1/4 23/1/4 24/1/4
f 8/1/4 24/1/4 5/1/4
f 23/1/8 13/1/8 16/1/8
f 23/1/8 16/1/8 24/1/8
f 21/1/5 6/1/5 5/1/5
f 21/1/5 5/1/5 24/1/5
f 24/1/5 16/1/5 9/1/5
f 24/1/5 9/1/5 21/1/5
f 13/1/6 23/1/6 22/1/6
f 13/1/6 22/1/6 12/1/6
f 23/1/6 8/1/6 7/1/6
f 23/1/6 7/1/6 22/1/6
f 25/1/9 26/1/9 27/1/9
f 28/1/9 25/1/9 27/1/9
f 29/1/10 30/1/10 31/1/10
f 32/1/10 29/1/10 31/1/10
f 33/1/4 34/1/4 28/1/4
f 27/1/4 33/1/4 28/1/4
f 35/1/4 36/1/4 30/1/4
f 29/1/4 35/1/4 30/1/4
f 37/1/11 36/1/11 35/1/11
f 38/1/11 37/1/11 35/1/11
f 39/1/12 34/1/12 33/1/12
f 40/1/12 39/1/12 33/1/12
f 41/1/13 42/1/13 43/1/13
f 43/1/14 44/1/14 35/1/14
f 29/1/15 43/1/15 35/1/15
f 42/1/16 45/1/16 44/1/16
f 43/1/17 42/1/17 44/1/17
f 46/1/18 44/1/18 45/1/18
f 47/1/19 48/1/19 49/1/19
f 41/1/20 47/1/20 50/1/20
f 41/1/21 50/1/21 42/1/21
f 47/1/22 49/1/22 50/1/22
f 50/1/23 51/1/23 45/1/23
f 42/1/24 50/1/24 45/1/24
f 49/1/25 52/1/25 51/1/25
f 50/1/26 49/1/26 51/1/26
f 48/1/27 53/1/27 52/1/27
f 49/1/28 48/1/28 52/1/28
f 28/1/29 34/1/29 53/1/29
f 48/1/30 28/1/30 53/1/30
f 54/1/31 52/1/31 53/1/31
f 54/1/32 46/1/32 51/1/32
f 54/1/33 51/1/33 52/1/33
f 46/1/34 45/1/34 51/1/34
f 31/1/35 30/1/35 55/1/35
f 56/1/35 31/1/35 55/1/35
f 57/1/4 55/1/4 30/1/4
f 36/1/4 57/1/4 30/1/4
f 58/1/36 57/1/36 36/1/36
f 37/1/36 58/1/36 36/1/36
f 27/1/36 26/1/36 59/1/36
f 60/1/36 27/1/36 59/1/36
f 60/1/4 61/1/4 33/1/4
f 27/1/4 60/1/4 33/1/4
f 40/1/35 33/1/35 61/1/35
f 62/1/35 40/1/35 61/1/35
f 61/1/37 60/1/37 59/1/37
f 62/1/37 61/1/37 59/1/37
f 57/1/38 58/1/38 56/1/38
f 55/1/38 57/1/38 56/1/38
f 29/1/39 32/1/39 41/1/39
f 43/1/40 29/1/40 41/1/40
f 28/1/41 48/1/41 47/1/41
f 25/1/20 28/1/20 47/1/20
f 35/1/42 44/1/42 46/1/42
f 38/1/43 35/1/43 46/1/43
f 34/1/32 39/1/32 54/1/32
f 53/1/44 34/1/44 54/1/44
f 62/1/45 59/1/45 26/1/45
f 40/1/45 62/1/45 26/1/45
f 40/1/46 26/1/46 25/1/46
f 39/1/46 40/1/46 25/1/46
f 46/1/47 41/1/47 32/1/47
f 38/1/47 46/1/47 32/1/47
f 54/1/47 47/1/47 41/1/47
f 46/1/47 54/1/47 41/1/47
f 54/1/47 39/1/47 25/1/47
f 47/1/47 54/1/47 25/1/47
f 38/1/48 32/1/48 31/1/48
f 37/1/48 38/1/48 31/1/48
f 58/1/49 37/1/49 31/1/49
f 56/1/49 58/1/49 31/1/49
