# RokuSuper Output Ver2.0 for Wavefront Obj

v 4.06195500 4.71935000 2.40859500
v 3.94570800 5.00000100 2.40859500
v 4.62325100 4.71935000 2.40859500
v 4.34260200 4.60310500 2.40859500
v 4.34260200 5.39689700 2.40859500
v 4.06195500 5.28064800 2.40859500
v 4.06195500 5.28064800 0.91548800
v 4.34260200 5.39689700 0.91548800
v 4.62325100 5.28064800 2.40859500
v 4.62325100 5.28064800 0.91548800
v 4.73949800 5.00000100 2.40859500
v 4.73949800 5.00000100 0.91548800
v 4.62325100 4.71935000 0.91548800
v 4.34260200 4.60310500 0.91548800
v 4.06195500 4.71935000 0.91548800
v 3.94570800 5.00000100 0.91548800
v 2.27695100 6.20277500 0.91548800
v 3.47972700 6.70098200 0.91548800
v 4.68250300 6.20277500 0.91548800
v 5.18071000 5.00000100 0.91548800
v 4.68250300 3.79722300 0.91548800
v 3.47972700 3.29901600 0.91548800
v 2.27695100 3.79722300 0.91548800
v 1.77874400 5.00000100 0.91548800
v 3.47972700 2.94236100 0.01227200
v 4.93470000 3.54503000 0.01227200
v 2.02475600 3.54503000 0.01227200
v 3.47972700 7.05763900 0.01227200
v 2.02475600 6.45497200 0.01227200
v 5.53736700 5.00000100 0.01227200
v 4.93470000 6.45497200 0.01227200
v 3.47972700 6.70098200 0.49238800
v 4.68250300 6.20277500 0.49238800
v 5.18071000 5.00000100 0.49238800
v 4.68250300 3.79722300 0.49238800
v 3.47972700 3.29901600 0.49238800
v 2.27695100 3.79722300 0.49238800
v 1.77874400 5.00000100 0.49238800
v 2.27695100 6.20277500 0.49238800
v 3.47972700 7.05763900 0.49238800
v 4.93470000 6.45497200 0.49238800
v 5.53736700 5.00000100 0.49238800
v 4.93470000 3.54503000 0.49238800
v 3.47972700 2.94236100 0.49238800
v 2.02475600 3.54503000 0.49238800
v 1.42208700 5.00000100 0.49238800
v 2.02475600 6.45497200 0.49238800
v 1.42208700 5.00000100 0.01227200

vn 0.00000000 0.00000000 1.00000000
vn 0.00000000 0.00000000 1.00000000
vn 0.00000000 0.00000000 1.00000000
vn 0.00000000 0.00000000 1.00000000
vn 0.00000000 0.00000000 1.00000000
vn 0.00000000 0.00000000 1.00000000
vn 0.00000000 0.00000000 1.00000000
vn 0.00000000 0.00000000 1.00000000
vn -0.60375067 0.79717321 0.00000000
vn 0.13677331 0.99060237 0.00000000
vn -0.13677580 0.99060203 0.00000000
vn -0.79717688 0.60374582 0.00000000
vn 0.13677331 0.99060237 0.00000000
vn 0.79717641 0.60374644 0.00000000
vn 0.60374928 0.79717426 0.00000000
vn -0.13677580 0.99060203 0.00000000
vn 0.79717641 0.60374644 0.00000000
vn 0.99060293 -0.13676927 0.00000000
vn 0.99060224 0.13677426 0.00000000
vn 0.60374928 0.79717426 0.00000000
vn 0.99060293 -0.13676927 0.00000000
vn 0.60374381 -0.79717840 0.00000000
vn 0.79717625 -0.60374665 0.00000000
vn 0.99060224 0.13677426 0.00000000
vn 0.60374381 -0.79717840 0.00000000
vn -0.13677118 -0.99060267 0.00000000
vn 0.13676869 -0.99060301 0.00000000
vn 0.79717625 -0.60374665 0.00000000
vn -0.13677118 -0.99060267 0.00000000
vn -0.79717672 -0.60374604 0.00000000
vn -0.60374520 -0.79717735 0.00000000
vn 0.13676869 -0.99060301 0.00000000
vn -0.79717672 -0.60374604 0.00000000
vn -0.99060224 0.13677426 0.00000000
vn -0.99060293 -0.13676927 0.00000000
vn -0.60374520 -0.79717735 0.00000000
vn -0.99060224 0.13677426 0.00000000
vn -0.60375067 0.79717321 0.00000000
vn -0.79717688 0.60374582 0.00000000
vn -0.99060293 -0.13676927 0.00000000
vn 0.00000000 0.00000000 1.00000000
vn 0.00000000 0.00000000 1.00000000
vn 0.00000000 0.00000000 1.00000000
vn 0.00000000 0.00000000 1.00000000
vn 0.00000000 0.00000000 1.00000000
vn 0.00000000 0.00000000 1.00000000
vn 0.00000000 0.00000000 1.00000000
vn 0.00000000 0.00000000 1.00000000
vn 0.00000000 0.00000000 1.00000000
vn 0.00000000 0.00000000 1.00000000
vn 0.00000000 0.00000000 1.00000000
vn 0.00000000 0.00000000 1.00000000
vn 0.00000000 0.00000000 1.00000000
vn 0.00000000 0.00000000 1.00000000
vn 0.00000000 0.00000000 1.00000000
vn 0.00000000 0.00000000 1.00000000
vn 0.00000000 0.00000000 1.00000000
vn 0.00000000 0.00000000 1.00000000
vn 0.00000000 0.00000000 1.00000000
vn 0.00000000 0.00000000 1.00000000
vn 0.00000000 0.00000000 1.00000000
vn 0.00000000 0.00000000 1.00000000
vn 0.00000000 0.00000000 1.00000000
vn 0.00000000 0.00000000 1.00000000
vn 0.00000000 0.00000000 1.00000000
vn 0.00000000 0.00000000 1.00000000
vn 0.00000000 0.00000000 1.00000000
vn 0.00000000 0.00000000 1.00000000
vn 0.00000000 0.00000000 1.00000000
vn 0.00000000 0.00000000 1.00000000
vn 0.00000000 0.00000000 1.00000000
vn 0.00000000 0.00000000 1.00000000
vn 0.00000000 0.00000000 -1.00000000
vn 0.00000000 0.00000000 -1.00000000
vn 0.00000000 0.00000000 -1.00000000
vn 0.00000000 0.00000000 -1.00000000
vn 0.00000000 0.00000000 -1.00000000
vn 0.00000000 0.00000000 -1.00000000
vn 0.00000000 0.00000000 -1.00000000
vn 0.00000000 0.00000000 -1.00000000
vn 0.13677387 0.99060230 0.00000000
vn 0.79717480 0.60374857 0.00000000
vn 0.60374810 0.79717516 0.00000000
vn -0.13677387 0.99060230 0.00000000
vn 0.79717480 0.60374857 0.00000000
vn 0.99060238 -0.13677329 0.00000000
vn 0.99060221 0.13677446 0.00000000
vn 0.60374810 0.79717516 0.00000000
vn 0.99060238 -0.13677329 0.00000000
vn 0.60374839 -0.79717494 0.00000000
vn 0.79717529 -0.60374792 0.00000000
vn 0.99060221 0.13677446 0.00000000
vn 0.60374839 -0.79717494 0.00000000
vn -0.13677387 -0.99060230 0.00000000
vn 0.13677387 -0.99060230 0.00000000
vn 0.79717529 -0.60374792 0.00000000
vn -0.13677387 -0.99060230 0.00000000
vn -0.79717529 -0.60374792 0.00000000
vn -0.60374839 -0.79717494 0.00000000
vn 0.13677387 -0.99060230 0.00000000
vn -0.79717529 -0.60374792 0.00000000
vn -0.99060221 0.13677446 0.00000000
vn -0.99060238 -0.13677329 0.00000000
vn -0.60374839 -0.79717494 0.00000000
vn -0.99060221 0.13677446 0.00000000
vn -0.60374810 0.79717516 0.00000000
vn -0.79717480 0.60374857 0.00000000
vn -0.99060238 -0.13677329 0.00000000
vn -0.60374810 0.79717516 0.00000000
vn 0.13677387 0.99060230 0.00000000
vn -0.13677387 0.99060230 0.00000000
vn -0.79717480 0.60374857 0.00000000
vn 0.00000000 0.00000000 1.00000000
vn 0.00000000 0.00000000 1.00000000
vn 0.00000000 0.00000000 1.00000000
vn 0.00000000 0.00000000 1.00000000
vn 0.00000000 0.00000000 1.00000000
vn 0.00000000 0.00000000 1.00000000
vn 0.00000000 0.00000000 1.00000000
vn 0.00000000 0.00000000 1.00000000
vn 0.00000000 0.00000000 1.00000000
vn 0.00000000 0.00000000 1.00000000
vn 0.00000000 0.00000000 1.00000000
vn 0.00000000 0.00000000 1.00000000
vn 0.00000000 0.00000000 1.00000000
vn 0.00000000 0.00000000 1.00000000
vn 0.00000000 0.00000000 1.00000000
vn 0.00000000 0.00000000 1.00000000
vn 0.00000000 0.00000000 1.00000000
vn 0.00000000 0.00000000 1.00000000
vn 0.00000000 0.00000000 1.00000000
vn 0.00000000 0.00000000 1.00000000
vn 0.00000000 0.00000000 1.00000000
vn 0.00000000 0.00000000 1.00000000
vn 0.00000000 0.00000000 1.00000000
vn 0.00000000 0.00000000 1.00000000
vn 0.00000000 0.00000000 1.00000000
vn 0.00000000 0.00000000 1.00000000
vn 0.00000000 0.00000000 1.00000000
vn 0.00000000 0.00000000 1.00000000
vn 0.00000000 0.00000000 1.00000000
vn 0.00000000 0.00000000 1.00000000
vn 0.00000000 0.00000000 1.00000000
vn 0.00000000 0.00000000 1.00000000
vn 0.00000000 0.00000000 1.00000000
vn 0.00000000 0.00000000 1.00000000
vn 0.00000000 0.00000000 1.00000000
vn 0.00000000 0.00000000 1.00000000
vn 0.00000000 0.00000000 -1.00000000
vn 0.00000000 0.00000000 -1.00000000
vn 0.00000000 0.00000000 -1.00000000
vn 0.00000000 0.00000000 -1.00000000
vn -0.60374746 0.79717564 0.00000000
vn 0.13677292 0.99060243 0.00000000
vn -0.13677340 0.99060236 0.00000000
vn -0.79717494 0.60374839 0.00000000
vn 0.13677292 0.99060243 0.00000000
vn 0.79717533 0.60374787 0.00000000
vn 0.60374748 0.79717563 0.00000000
vn -0.13677340 0.99060236 0.00000000
vn 0.79717533 0.60374787 0.00000000
vn 0.99060238 -0.13677326 0.00000000
vn 0.99060238 0.13677326 0.00000000
vn 0.60374748 0.79717563 0.00000000
vn 0.99060238 -0.13677326 0.00000000
vn 0.60374813 -0.79717514 0.00000000
vn 0.79717555 -0.60374758 0.00000000
vn 0.99060238 0.13677326 0.00000000
vn 0.60374813 -0.79717514 0.00000000
vn -0.13677385 -0.99060230 0.00000000
vn 0.13677337 -0.99060237 0.00000000
vn 0.79717555 -0.60374758 0.00000000
vn -0.13677385 -0.99060230 0.00000000
vn -0.79717515 -0.60374811 0.00000000
vn -0.60374811 -0.79717515 0.00000000
vn 0.13677337 -0.99060237 0.00000000
vn -0.79717515 -0.60374811 0.00000000
vn -0.99060232 0.13677370 0.00000000
vn -0.99060232 -0.13677370 0.00000000
vn -0.60374811 -0.79717515 0.00000000
vn -0.99060232 0.13677370 0.00000000
vn -0.60374746 0.79717564 0.00000000
vn -0.79717494 0.60374839 0.00000000
vn -0.99060232 -0.13677370 0.00000000

g ²ã
f 1//1 11//2 6//3 2//4
f 4//5 3//6 11//7 1//8
f 6//9 5//10 8//11 7//12
f 5//13 9//14 10//15 8//16
f 9//17 11//18 12//19 10//20
f 11//21 3//22 13//23 12//24
f 3//25 4//26 14//27 13//28
f 4//29 1//30 15//31 14//32
f 1//33 2//34 16//35 15//36
f 2//37 6//38 7//39 16//40
f 7//41 8//42 18//43 17//44
f 8//45 10//46 19//47 18//48
f 10//49 12//50 20//51 19//52
f 12//53 13//54 21//55 20//56
f 13//57 14//58 22//59 21//60
f 14//61 15//62 23//63 22//64
f 15//65 16//66 24//67 23//68
f 16//69 7//70 17//71 24//72
f 26//73 25//74 27//75 30//76
f 29//77 28//78 31//79 30//80
f 18//81 19//82 33//83 32//84
f 19//85 20//86 34//87 33//88
f 20//89 21//90 35//91 34//92
f 21//93 22//94 36//95 35//96
f 22//97 23//98 37//99 36//100
f 23//101 24//102 38//103 37//104
f 24//105 17//106 39//107 38//108
f 17//109 18//110 32//111 39//112
f 32//113 33//114 41//115 40//116
f 33//117 34//118 42//119 41//120
f 34//121 35//122 43//123 42//124
f 35//125 36//126 44//127 43//128
f 36//129 37//130 45//131 44//132
f 37//133 38//134 46//135 45//136
f 38//137 39//138 47//139 46//140
f 39//141 32//142 40//143 47//144
f 9//145 5//146 6//147 11//148
f 27//149 48//150 29//151 30//152
f 47//153 40//154 28//155 29//156
f 40//157 41//158 31//159 28//160
f 41//161 42//162 30//163 31//164
f 42//165 43//166 26//167 30//168
f 43//169 44//170 25//171 26//172
f 44//173 45//174 27//175 25//176
f 45//177 46//178 48//179 27//180
f 46//181 47//182 29//183 48//184

