v 6.10294 3.04346 3.16236
v 6.18992 3.35474 2.38208
v 6.10294 3.04346 1.6018
v 5.89297 2.29196 1.2786
v 5.89297 2.29196 3.48557
v 5.683 1.54046 1.6018
v 5.683 1.54046 3.16236
v 5.59603 1.22918 2.38208
v 7.30672 1.0991 2.38208
v 7.35915 1.28674 1.91174
v 6.18935 1.61358 1.91174
v 6.13692 1.42594 2.38208
v 7.25127 2.95098 2.38208
v 7.1643 2.6397 3.16236
v 7.1643 2.6397 1.6018
v 6.95433 1.88821 3.48557
v 6.74436 1.13671 3.16236
v 6.65738 0.825428 2.38208
v 6.74436 1.13671 1.6018
v 6.95433 1.88821 1.2786
v 7.64319 2.30336 2.96729
v 7.70842 2.53682 2.38208
v 7.48571 1.73974 3.2097
v 7.32824 1.17611 2.96729
v 7.26301 0.942652 2.38208
v 7.32824 1.17611 1.79688
v 7.48571 1.73974 1.55447
v 7.64319 2.30336 1.79688
v 7.61228 2.19273 2.85243
v 7.66471 2.38037 2.38208
v 7.48571 1.73974 3.04726
v 7.35915 1.28674 2.85243
v 7.48571 1.73974 1.71691
v 7.61228 2.19273 1.91174
v 6.49491 2.70722 2.38208
v 6.44248 2.51958 2.85243
v 6.44248 2.51958 1.91174
v 6.31592 2.06658 3.04726
v 6.31592 2.06658 1.71691
v 6.18935 1.61358 2.85243
v 14.9398 4.98188 0.021416
v 14.9398 4.98188 4.98142
v 14.9398 0.02188 4.98142
v 14.9398 0.02188 0.021416
v 0.049792 4.98188 0.021416
v 0.049791 4.98188 4.98142
v 0.049792 0.02188 0.021416
v 0.049791 0.02188 4.98142
v 6.69794 0.02188 3.92218
v 13.9381 0.02188 3.92218
v 6.69872 0.02188 1.1138
v 13.9381 0.02188 1.1138
v 6.0501 0.451248 1.1138
v 6.0501 0.451247 3.92218
v 6.04005 0.873062 1.1138
v 6.04005 0.873062 3.92218
v 5.29971 1.48759 1.4955
v 5.29971 1.48759 3.54047
v 6.68534 3.34922 3.92218
v 6.68534 3.34922 1.1138
v 5.30409 3.35232 1.4955
v 5.30409 3.35232 3.54047
vt 0 0
vn -0.963112 0.269101 0
vn 0.248611 0.889801 0.382684
vn 0.328692 0.864031 0.38133
vn 0.328692 0.864031 -0.38133
vn 0.136548 0.358944 0.923317
vn -0.136549 -0.358944 0.923317
vn -0.328691 -0.864032 0.381329
vn -0.328691 -0.864031 -0.38133
vn -0.136548 -0.358946 -0.923316
vn 0.136549 0.358945 -0.923316
vn 0.629583 0.694935 0.347406
vn 0.497376 0.221745 0.838717
vn 0.310404 -0.44744 0.838717
vn 0.178196 -0.920626 0.347409
vn 0.178195 -0.920627 -0.347408
vn 0.310405 -0.447442 -0.838716
vn 0.497376 0.221747 -0.838717
vn 0.629585 0.694933 -0.347407
vn 0.963115 -0.269089 1.1124e-05
vn -0.248611 -0.889801 0.382684
vn -0.248611 -0.889801 -0.382683
vn 0.248612 0.8898 -0.382685
vn -0.102979 -0.368567 0.92388
vn 0.102978 0.368566 -0.92388
vn 0.102979 0.368567 0.92388
vn -0.102978 -0.368566 -0.92388
vn 1 1.42945e-07 -3.14963e-08
vn -4.74146e-09 1 0
vn -1 6.62483e-11 -1.97761e-07
vn 0 -1 -3.07909e-10
vn 0 1.23076e-08 1
vn 0 2.01764e-10 -1
vn 0.552217 0.8337 7.69759e-05
vn 0.999717 0.0238107 5.03014e-07
vn 0.638694 0.769461 2.04226e-07
vn -0.41698 -0.908916 -8.51125e-08
vn 0.999997 -0.00235234 5.00179e-07
vn 0.325584 -0.0487284 0.944257
vn 0.26558 -0.0692108 0.961601
vn 0.457548 -0.0010762 0.889184
vn 0.325583 -0.0487276 -0.944257
vn 0.266361 -0.000625265 -0.963873
vn 0.388267 -0.101183 -0.915975
vn -0.00224612 -0.999997 -2.84522e-07
f 1/1/1 2/1/1 3/1/1
f 1/1/1 3/1/1 4/1/1
f 1/1/1 4/1/1 5/1/1
f 4/1/1 6/1/1 5/1/1
f 6/1/1 7/1/1 5/1/1
f 6/1/1 8/1/1 7/1/1
f 9/1/2 10/1/2 11/1/2
f 9/1/2 11/1/2 12/1/2
f 13/1/3 2/1/3 1/1/3
f 13/1/3 1/1/3 14/1/3
f 2/1/4 13/1/4 15/1/4
f 2/1/4 15/1/4 3/1/4
f 14/1/5 1/1/5 5/1/5
f 14/1/5 5/1/5 16/1/5
f 16/1/6 5/1/6 7/1/6
f 16/1/6 7/1/6 17/1/6
f 17/1/7 7/1/7 8/1/7
f 17/1/7 8/1/7 18/1/7
f 18/1/8 8/1/8 6/1/8
f 18/1/8 6/1/8 19/1/8
f 19/1/9 6/1/9 4/1/9
f 19/1/9 4/1/9 20/1/9
f 20/1/10 4/1/10 3/1/10
f 20/1/10 3/1/10 15/1/10
f 13/1/11 14/1/11 21/1/11
f 13/1/11 21/1/11 22/1/11
f 14/1/12 16/1/12 23/1/12
f 14/1/12 23/1/12 21/1/12
f 16/1/13 17/1/13 24/1/13
f 16/1/13 24/1/13 23/1/13
f 17/1/14 18/1/14 25/1/14
f 17/1/14 25/1/14 24/1/14
f 18/1/15 19/1/15 26/1/15
f 18/1/15 26/1/15 25/1/15
f 19/1/16 20/1/16 27/1/16
f 19/1/16 27/1/16 26/1/16
f 20/1/17 15/1/17 28/1/17
f 20/1/17 28/1/17 27/1/17
f 15/1/18 13/1/18 22/1/18
f 15/1/18 22/1/18 28/1/18
f 29/1/19 30/1/19 22/1/19
f 29/1/19 22/1/19 21/1/19
f 31/1/19 29/1/19 21/1/19
f 31/1/19 21/1/19 23/1/19
f 32/1/19 31/1/19 23/1/19
f 32/1/19 23/1/19 24/1/19
f 9/1/19 32/1/19 24/1/19
f 9/1/19 24/1/19 25/1/19
f 10/1/19 9/1/19 25/1/19
f 10/1/19 25/1/19 26/1/19
f 33/1/19 10/1/19 26/1/19
f 33/1/19 26/1/19 27/1/19
f 34/1/19 33/1/19 27/1/19
f 34/1/19 27/1/19 28/1/19
f 30/1/19 34/1/19 28/1/19
f 30/1/19 28/1/19 22/1/19
f 35/1/19 36/1/19 37/1/19
f 36/1/19 38/1/19 37/1/19
f 38/1/19 39/1/19 37/1/19
f 38/1/19 11/1/19 39/1/19
f 38/1/19 40/1/19 11/1/19
f 40/1/19 12/1/19 11/1/19
f 35/1/20 37/1/20 34/1/20
f 35/1/20 34/1/20 30/1/20
f 30/1/21 29/1/21 36/1/21
f 30/1/21 36/1/21 35/1/21
f 32/1/22 9/1/22 12/1/22
f 32/1/22 12/1/22 40/1/22
f 33/1/23 34/1/23 37/1/23
f 33/1/23 37/1/23 39/1/23
f 31/1/24 32/1/24 40/1/24
f 31/1/24 40/1/24 38/1/24
f 10/1/25 33/1/25 39/1/25
f 10/1/25 39/1/25 11/1/25
f 29/1/26 31/1/26 38/1/26
f 29/1/26 38/1/26 36/1/26
f 41/1/27 42/1/27 43/1/27
f 41/1/27 43/1/27 44/1/27
f 42/1/28 41/1/28 45/1/28
f 42/1/28 45/1/28 46/1/28
f 47/1/29 48/1/29 46/1/29
f 47/1/29 46/1/29 45/1/29
f 48/1/30 49/1/30 50/1/30
f 48/1/30 50/1/30 43/1/30
f 48/1/30 47/1/30 51/1/30
f 48/1/30 51/1/30 49/1/30
f 47/1/30 44/1/30 52/1/30
f 47/1/30 52/1/30 51/1/30
f 52/1/30 44/1/30 43/1/30
f 52/1/30 43/1/30 50/1/30
f 42/1/31 46/1/31 48/1/31
f 42/1/31 48/1/31 43/1/31
f 45/1/32 41/1/32 44/1/32
f 45/1/32 44/1/32 47/1/32
f 49/1/33 51/1/33 53/1/33
f 49/1/33 53/1/33 54/1/33
f 53/1/34 55/1/34 56/1/34
f 53/1/34 56/1/34 54/1/34
f 56/1/35 55/1/35 57/1/35
f 56/1/35 57/1/35 58/1/35
f 50/1/36 59/1/36 60/1/36
f 50/1/36 60/1/36 52/1/36
f 51/1/31 60/1/31 55/1/31
f 51/1/31 55/1/31 53/1/31
f 51/1/31 52/1/31 60/1/31
f 49/1/32 54/1/32 56/1/32
f 49/1/32 56/1/32 59/1/32
f 59/1/32 50/1/32 49/1/32
f 58/1/37 57/1/37 61/1/37
f 58/1/37 61/1/37 62/1/37
f 55/1/38 60/1/39 61/1/38
f 55/1/38 61/1/38 57/1/40
f 58/1/41 62/1/42 59/1/41
f 58/1/41 59/1/41 56/1/43
f 62/1/44 61/1/44 60/1/44
f 62/1/44 60/1/44 59/1/44
