# Blender v2.64 (sub 0) OBJ File: 'Catapult_C11_Output_Base.blend'
# www.blender.org
mtllib Catapult_C11_Output_Base.mtl
o JBD_Base_Cube.003
v 0.000000 0.000000 5.000000
v 0.000000 10.000000 5.000000
v 0.000000 10.000000 0.000000
v 0.000000 0.000000 0.000000
v 0.252099 9.757053 5.000000
v 0.252099 0.242947 5.000000
v 5.000000 10.000000 0.000000
v 5.000000 10.000000 5.000000
v 5.000000 0.000000 0.000000
v 5.000000 0.000000 5.000000
v 0.252099 0.242947 4.291855
v 0.252099 9.757053 4.291855
v 4.747901 9.757053 5.000000
v 4.747901 0.242947 5.000000
v 1.932251 1.502661 4.291855
v 1.932251 1.933906 4.291855
v 4.747901 9.757053 4.291855
v 4.747901 0.242947 4.291855
v 1.932251 3.131809 4.291855
v 1.932251 3.131809 4.291855
v 1.932251 3.563054 4.291855
v 1.932251 0.304757 4.291855
v 3.437339 1.933906 4.291855
v 3.437339 1.502661 4.291855
v 3.437339 9.648401 4.291855
v 1.932251 9.648401 4.291855
v 3.437339 0.304757 4.291855
v 1.932251 4.760957 4.291855
v 1.932251 5.192203 4.291855
v 1.932251 5.192203 4.291855
v 1.932251 3.131809 3.831150
v 1.932251 3.131809 3.831150
v 3.437339 3.563054 4.291855
v 3.437339 3.131809 4.291855
v 3.437339 8.450499 4.291855
v 3.437339 8.019254 4.291855
v 1.932251 8.450499 4.291855
v 1.932251 6.390105 4.291855
v 1.932251 6.821351 4.291855
v 1.932251 6.821351 4.291855
v 3.437339 5.192203 4.291855
v 3.437339 4.760957 4.291855
v 3.437339 3.131809 3.831150
v 3.437339 3.131809 3.831150
v 3.437339 3.131809 4.291855
v 3.437339 6.821351 4.291855
v 3.437339 6.821351 4.291855
v 3.437339 6.390105 4.291855
v 1.932251 8.019254 4.291855
v 3.437339 5.192203 4.291855
v 1.932251 0.304757 3.831150
v 1.932251 1.502661 3.831150
v 1.932251 0.304757 3.831150
v 1.932251 1.502661 3.831150
v 3.437339 1.502661 3.831150
v 3.437339 1.502661 3.831150
v 3.437339 0.304757 3.831150
v 3.437339 0.304757 3.831150
v 1.932251 1.933906 3.831150
v 1.932251 1.933906 3.831150
v 3.437339 1.933906 3.831150
v 3.437339 1.933906 3.831150
v 1.932251 3.563054 3.831150
v 1.932251 4.760957 3.831150
v 1.932251 3.563054 3.831150
v 1.932251 4.760957 3.831150
v 3.437339 4.760957 3.831150
v 3.437339 4.760957 3.831150
v 3.437339 3.563054 3.831150
v 3.437339 3.563054 3.831150
v 1.932251 6.390105 3.831150
v 1.932251 6.390105 3.831150
v 1.932251 5.192203 3.831150
v 3.437339 6.390105 3.831150
v 3.437339 6.390105 3.831150
v 3.437339 5.192203 3.831150
v 1.932251 8.019254 3.831150
v 1.932251 8.019254 3.831150
v 1.932251 6.821351 3.831150
v 3.437339 8.019254 3.831150
v 3.437339 8.019254 3.831150
v 3.437339 6.821351 3.831150
v 1.932251 8.450499 3.831150
v 1.932251 9.648401 3.831150
v 1.932251 8.450499 3.831150
v 1.932251 9.648401 3.831150
v 3.437339 9.648401 3.831150
v 3.437339 9.648401 3.831150
v 3.437339 8.450499 3.831150
v 3.437339 8.450499 3.831150
v 1.932251 3.131809 3.831150
v 3.437339 3.131809 3.831150
v 1.932251 5.192203 3.831150
v 3.437339 5.192203 3.831150
v 1.932251 6.821351 3.831150
v 3.437339 6.821351 3.831150
vn -1.000000 0.000000 0.000000
vn 0.000000 1.000000 -0.000000
vn 1.000000 0.000000 0.000000
vn 0.000000 -1.000000 0.000000
vn 0.000000 0.000000 -1.000000
vn 0.000000 0.000000 1.000000
vn 0.000000 0.000000 0.000000
usemtl 
s off
f 1//1 2//1 3//1 4//1
f 2//2 8//2 7//2 3//2
f 9//3 7//3 8//3 10//3
f 10//4 1//4 4//4 9//4
f 7//5 9//5 4//5 3//5
f 14//1 13//1 17//1 18//1
f 1//6 6//6 5//6 2//6
f 5//6 13//6 8//6 2//6
f 13//6 14//6 10//6 8//6
f 6//6 1//6 10//6 14//6
f 49//6 36//6 35//6 37//6
f 17//6 36//6 46//6 47//6
f 47//6 48//6 17//6
f 38//6 48//6 47//6 39//6
f 28//6 42//6 41//6 29//6
f 17//6 42//6 33//6 34//6
f 20//6 34//6 33//6 21//6
f 15//6 24//6 23//6 16//6
f 17//6 25//6 35//6 36//6
f 12//6 26//6 25//6 17//6
f 12//6 40//6 49//6 37//6
f 12//6 30//6 38//6 39//6
f 39//7 40//7 12//7
f 12//6 21//6 28//6 29//6
f 29//6 30//6 12//6
f 12//6 16//6 19//6 20//6
f 20//6 21//6 12//6
f 24//6 27//6 17//6 23//6
f 11//6 18//6 27//6 22//6
f 12//6 11//6 15//6 16//6
f 50//6 41//6 17//6 48//6
f 41//6 42//6 17//6
f 12//6 37//6 26//6
f 27//6 18//6 17//6
f 17//6 34//6 45//6 23//6
f 11//6 22//6 15//6
f 6//2 14//2 18//2 11//2
f 5//3 6//3 11//3 12//3
f 13//4 5//4 12//4 17//4
f 51//3 52//3 15//3 22//3
f 52//4 55//4 24//4 15//4
f 55//1 57//1 27//1 24//1
f 57//2 51//2 22//2 27//2
f 59//3 31//3 19//3 16//3
f 32//7 20//7 19//7 31//7
f 32//4 44//4 34//4 20//4
f 61//1 23//1 45//1 43//1
f 44//7 43//7 45//7 34//7
f 61//2 59//2 16//2 23//2
f 44//7 32//7 31//7 43//7
f 63//3 64//3 28//3 21//3
f 64//4 67//4 42//4 28//4
f 67//1 69//1 33//1 42//1
f 69//2 63//2 21//2 33//2
f 30//3 73//3 71//3 38//3
f 71//4 74//4 48//4 38//4
f 76//1 50//1 48//1 74//1
f 40//3 79//3 77//3 49//3
f 77//4 80//4 36//4 49//4
f 82//1 46//1 36//1 80//1
f 83//3 84//3 26//3 37//3
f 84//4 87//4 25//4 26//4
f 87//1 89//1 35//1 25//1
f 89//2 83//2 37//2 35//2
f 59//7 60//7 91//7 31//7
f 31//7 91//7 92//7 43//7
f 43//7 92//7 62//7 61//7
f 61//7 62//7 60//7 59//7
f 62//6 92//6 91//6 60//6
f 71//7 73//7 93//7 72//7
f 30//3 29//3 93//3 73//3
f 71//7 72//7 75//7 74//7
f 94//7 76//7 74//7 75//7
f 94//1 41//1 50//1 76//1
f 41//2 94//2 93//2 29//2
f 94//6 75//6 72//6 93//6
f 95//7 78//7 77//7 79//7
f 40//7 39//7 95//7 79//7
f 77//7 78//7 81//7 80//7
f 96//7 82//7 80//7 81//7
f 96//7 47//7 46//7 82//7
f 47//2 96//2 95//2 39//2
f 96//6 81//6 78//6 95//6
f 52//6 51//6 57//6 56//6
f 64//6 63//6 69//6 67//6
f 84//6 85//6 89//6 87//6
o Deck_Cube
v 5.005405 0.000000 0.000000
v 5.005405 10.000000 0.000000
v 90.000000 10.000000 0.000000
v 90.000000 0.000000 0.000000
v 5.005405 0.000000 5.000000
v 5.005405 10.000000 5.000000
v 90.000000 10.000000 5.000000
v 90.000000 0.000000 5.000000
v 5.027378 4.749521 5.000000
v 5.027378 5.250479 5.000000
v 89.978027 5.250479 5.000000
v 89.978027 4.749521 5.000000
v 5.027378 4.749521 4.527698
v 5.027378 5.250479 4.527698
v 89.978027 5.250479 4.527698
v 89.978027 4.749521 4.527698
usemtl 
s off
f 98//1 97//1 101//1 102//1
f 102//2 103//2 99//2 98//2
f 103//3 104//3 100//3 99//3
f 97//4 100//4 104//4 101//4
f 97//5 98//5 99//5 100//5
f 110//4 111//4 107//4 106//4
f 105//6 106//6 102//6 101//6
f 106//6 107//6 103//6 102//6
f 107//6 108//6 104//6 103//6
f 108//6 105//6 101//6 104//6
f 112//6 111//6 110//6 109//6
f 111//1 112//1 108//1 107//1
f 112//2 109//2 105//2 108//2
f 109//3 110//3 106//3 105//3
