v 4.26777 0.732234 5
v 4.26777 0.732234 2.44141e-07
v 5 2.5 2.44141e-07
v 5 2.5 5
v 2.5 0 5
v 2.5 0 2.44141e-07
v 0.732234 0.732232 5
v 0.732234 0.732232 2.44141e-07
v 0 2.5 5
v 0 2.5 2.44141e-07
v 0.732233 4.26777 5
v 0.732233 4.26777 2.44141e-07
v 2.5 5 5
v 2.5 5 2.44141e-07
v 4.26777 4.26777 5
v 4.26777 4.26777 2.44141e-07
vt 0 0
vn 0.797175 -0.603748 -4.45342e-09
vn 0.603748 -0.797175 -4.45342e-09
vn 0.990602 -0.136774 0
vn 0.990602 0.136774 -7.12547e-08
vn 0.136774 -0.990602 -4.45342e-09
vn -0.136773 -0.990602 0
vn -0.603748 -0.797175 0
vn -0.797175 -0.603748 0
vn -0.990602 -0.136774 0
vn -0.990602 0.136773 0
vn -0.797175 0.603748 0
vn -0.603748 0.797175 0
vn -0.136774 0.990602 0
vn 0.136773 0.990602 0
vn 0.603748 0.797175 -7.12547e-08
vn 0.797175 0.603748 -7.12547e-08
vn 0 -2.81361e-15 -1
vn -1.07896e-07 2.6974e-08 1
f 1/1/1 2/1/2 3/1/3
f 1/1/1 3/1/3 4/1/4
f 5/1/5 6/1/6 2/1/2
f 5/1/5 2/1/2 1/1/1
f 7/1/7 8/1/8 6/1/6
f 7/1/7 6/1/6 5/1/5
f 9/1/9 10/1/10 8/1/8
f 9/1/9 8/1/8 7/1/7
f 11/1/11 12/1/12 10/1/10
f 11/1/11 10/1/10 9/1/9
f 13/1/13 14/1/14 12/1/12
f 13/1/13 12/1/12 11/1/11
f 15/1/15 16/1/16 14/1/14
f 15/1/15 14/1/14 13/1/13
f 4/1/4 3/1/3 16/1/16
f 4/1/4 16/1/16 15/1/15
f 3/1/17 2/1/17 6/1/17
f 3/1/17 6/1/17 8/1/17
f 3/1/17 8/1/17 10/1/17
f 3/1/17 10/1/17 12/1/17
f 3/1/17 12/1/17 14/1/17
f 3/1/17 14/1/17 16/1/17
f 15/1/18 13/1/18 11/1/18
f 15/1/18 11/1/18 9/1/18
f 15/1/18 9/1/18 7/1/18
f 15/1/18 7/1/18 5/1/18
f 15/1/18 5/1/18 1/1/18
f 15/1/18 1/1/18 4/1/18
