# Blender v2.63 (sub 0) OBJ File: 'minamikojima_output.blend'
# www.blender.org
mtllib minamikojima_output.mtl
o Mesh_Cube.001_Cube.002
v 76.082481 41.118011 131.071884
v 106.983307 35.919956 0.000162
v 96.226212 82.023125 0.000162
v 52.516850 36.213928 141.866013
v 59.654667 18.678247 0.000162
v 14.499221 33.701328 139.553009
v 10.645387 6.319641 0.000162
v 1.669112 20.316416 156.515213
v -24.109266 -15.863991 0.000162
v -19.880520 26.879040 161.141296
v -108.545578 -45.977703 0.000162
v -33.284050 15.451333 178.875259
v -167.736176 -63.694481 0.000162
v -97.357758 -3.946100 166.538361
v -120.053062 -18.221132 151.118134
v -178.512482 -29.473051 144.983978
v -217.694382 -77.081146 0.000162
v 457.986298 -137.432556 88.999992
v 447.709076 -143.588058 88.999992
v 474.582397 -163.039307 88.999992
v 397.216553 -157.014633 88.999992
v 380.616882 -151.459656 88.999992
v 354.313629 -187.496277 88.999992
v 465.009735 -186.453857 88.999992
v 404.574646 -202.898438 88.999992
v 373.365875 -204.923950 88.999992
v -13.034708 105.747406 88.465141
v 49.038654 97.685585 0.000175
v 65.700325 102.582481 0.000162
v 48.343494 131.207733 0.000176
v -11.048511 136.094711 0.000173
v -19.669275 157.578644 0.000162
v -25.743689 131.081375 15.163142
v -41.159386 138.514160 53.071358
v -24.760313 92.580772 128.610016
v -85.465034 181.180939 0.000162
v -159.325348 171.292435 0.000162
v -60.579689 143.217575 68.234665
v -38.468491 99.279892 135.513779
v -178.086472 157.669968 0.000162
v -107.874962 140.479599 82.134315
v -51.613407 81.868477 139.449966
v -264.145264 155.708618 0.000162
v -155.746658 147.698532 68.928009
v -104.874130 67.129852 137.430344
v -171.380798 130.143005 59.584961
v -128.731354 76.571526 137.875488
v -276.856049 126.982178 0.000162
v -208.623108 126.321976 48.821808
v -138.221054 53.544060 137.430344
v -107.500069 2.083274 150.347122
v -178.987625 38.696209 142.520599
v -298.117401 90.337738 51.452206
v -338.082428 98.292976 0.000162
v -361.389984 74.587662 0.000162
v -316.843506 54.287720 56.691978
v -387.505463 59.185585 0.000162
v -357.994324 46.077805 15.163128
v -400.927032 11.124018 0.000162
v -351.263947 -5.410439 148.121094
v -303.571228 4.843237 150.758026
v -280.888580 44.452377 131.099442
v -270.957520 -20.304152 139.000000
v -288.156097 -48.220242 154.202103
v -250.770691 -54.643703 0.000162
v -284.616577 -62.434727 0.000162
v -334.734314 -47.115330 135.697876
v -305.709808 -91.991920 0.000162
v -365.910431 -72.125885 125.674728
v -371.464752 -94.130180 0.000162
v -390.528259 -31.826635 124.871628
v -412.944458 -47.277210 0.000162
v 371.390442 -218.926682 -0.000020
v 413.349823 -223.916580 -0.000020
v 341.364471 -197.243286 -0.000020
v 359.973663 -135.484665 -0.000020
v 387.643768 -123.550423 -0.000020
v 402.818359 -119.493698 -0.000020
v 422.660553 -117.314980 -0.000020
v 448.695038 -118.333046 -0.000020
v 491.352570 -136.350464 -0.000020
v 500.182373 -163.604996 -0.000020
v 440.123932 -204.786331 -0.000020
v 465.178436 -212.464493 -0.000020
v 453.276642 -219.019348 -0.000020
v 421.221771 -289.667450 0.000000
v 293.334045 -317.167542 0.000000
v 466.953766 -275.917389 0.000000
v 504.167999 -262.167358 0.000000
v 522.981934 -191.931427 0.000000
v 493.168060 -121.000252 0.000000
v 464.227661 -113.036606 0.000000
v 179.667023 -283.250763 0.000000
v 66.000008 -249.333969 0.000000
v -326.133789 204.200592 -134.619629
v -428.250824 185.444397 -134.619629
v -359.334595 157.667221 0.000000
v -269.500946 174.167267 0.000000
v 430.965546 -48.678810 0.000000
v 414.334473 -16.499908 0.000000
v 439.281067 -64.768257 0.000000
v 447.596588 -80.857712 0.000000
v 206.782867 64.323891 0.000018
v 350.681732 69.296944 0.000000
v -66.917076 -194.333817 0.000000
v 138.150162 47.822475 0.000015
v 172.466507 56.073185 0.000016
v -199.834152 -139.333664 0.000000
v -312.584503 -116.416931 0.000000
v -425.334839 -93.500198 0.000000
v -467.501617 55.000244 0.000000
v -179.667313 190.667297 0.000000
v -43.485004 202.363190 0.000000
v 92.697311 214.059052 0.000000
v 154.692154 158.223679 0.000000
v 152.650208 88.604111 0.000016
v 175.474426 106.444878 0.000017
v 182.881744 139.611893 0.000000
v 192.606537 101.312263 0.000018
v 211.071335 121.000122 0.000000
v 217.090057 97.532150 0.000018
v 239.260925 102.388321 0.000000
v 197.592941 82.469521 21.121998
v 197.044312 69.752533 32.455605
v 411.168823 -158.303223 150.811371
v 433.221008 -148.559540 150.811371
v 374.098297 -173.107590 88.999992
v 373.070465 -188.944687 88.999992
v 415.924194 -180.224060 150.811371
v 422.051849 -169.554367 164.767044
v 420.238403 -162.920685 164.767044
v 446.181946 -183.171509 150.811371
v 434.593628 -173.116577 164.767044
v 429.279724 -158.925797 164.767044
v 186.967880 70.406906 32.455605
v 171.526352 59.738289 32.455605
v 151.859299 62.124428 12.879211
v 137.768204 83.776451 0.000015
v 459.034698 -323.056488 -134.619629
v 511.019867 -307.426300 -134.619629
v 188.105316 164.920288 -134.619629
v 156.061234 186.076950 -134.619629
v 378.849396 84.990837 -134.619629
v 252.193497 122.606956 -134.619629
v 553.322571 -291.796234 -134.619629
v -551.208069 68.739281 -134.619629
v 85.589539 249.546967 -134.619629
v -69.213638 236.251892 -134.619629
v 220.149414 143.763641 -134.619629
v 479.563385 -67.405739 -134.619629
v 470.110840 -49.116302 -134.619629
v 574.709045 -211.956543 -134.619629
v -503.275574 -100.066353 -134.619629
v 55.241791 -277.208008 -134.619629
v 184.451035 -315.762390 -134.619629
v -246.941193 -152.166840 -134.619629
v -95.849701 -214.687439 -134.619629
v 540.818542 -131.326614 -134.619629
v 507.921021 -122.274055 -134.619629
v -375.108398 -126.116615 -134.619629
v -224.016800 222.956757 -134.619629
v 451.205627 -12.537423 -134.619629
v 489.015930 -85.695183 -134.619629
v 313.660278 -354.316772 -134.619629
v 129.446304 -46.270554 -218.266785
vn 0.950983 0.221890 0.215399
vn 0.312823 -0.941936 0.122054
vn 0.162275 -0.974115 0.157373
vn 0.619155 -0.778204 0.105102
vn 0.220490 -0.944205 0.244666
vn 0.398676 -0.905822 0.143333
vn 0.239506 -0.941623 0.236609
vn 0.472313 -0.874031 0.113976
vn 0.202285 -0.949668 0.239191
vn 0.000000 -0.000000 1.000000
vn 0.418520 0.862097 0.285709
vn 0.000001 0.000001 1.000000
vn 0.000001 -0.000000 1.000000
vn 0.458533 0.717328 0.524584
vn -0.000000 0.000001 1.000000
vn 0.648883 0.260375 0.714952
vn 0.012400 0.945734 0.324706
vn 0.577788 0.774403 0.257802
vn 0.496945 0.732978 0.464531
vn 0.028887 0.877931 0.477916
vn 0.507552 0.784323 0.356692
vn -0.133786 0.897391 0.420465
vn -0.057458 0.752798 0.655739
vn 0.025571 0.990515 0.135005
vn -0.162939 0.589671 0.791037
vn -0.291297 0.606495 0.739804
vn -0.507706 0.139309 0.850193
vn -0.170267 0.952934 0.250851
vn -0.470091 0.520731 0.712638
vn -0.213608 0.115956 0.970013
vn -0.337040 0.196450 0.920767
vn -0.225173 0.400414 0.888238
vn 0.205909 0.459610 0.863921
vn 0.422158 0.427233 0.799534
vn 0.655951 0.536122 0.531321
vn -0.086985 0.553907 0.828022
vn 0.173359 0.697451 0.695348
vn -0.677421 0.441161 0.588623
vn -0.039228 0.109411 0.993222
vn -0.222188 0.676077 0.702532
vn -0.346578 0.825791 0.444918
vn -0.620159 0.489960 0.612651
vn -0.577000 0.328887 0.747599
vn -0.412959 0.115322 0.903419
vn -0.472424 0.813580 0.338975
vn -0.631129 0.646375 0.428807
vn -0.232740 0.820072 0.522794
vn -0.083569 0.070956 0.993973
vn 0.454512 0.181741 0.872003
vn -0.246838 -0.926544 0.283878
vn 0.599073 -0.780712 0.177763
vn 0.325114 -0.918811 0.223803
vn 0.235285 -0.936306 0.260713
vn -0.785057 -0.593773 0.176407
vn -0.859551 0.456989 0.228765
vn -0.251799 -0.258499 0.932617
vn -0.201271 -0.159417 0.966476
vn -0.039733 -0.980701 0.191432
vn -0.615718 -0.772629 0.154714
vn -0.893410 0.410298 0.182961
vn -0.136645 0.948263 0.286574
vn -0.239598 0.899927 0.364314
vn -0.250955 0.906937 0.338360
vn 0.038238 0.977836 0.205853
vn 0.384378 0.910042 0.155169
vn 0.863218 0.415202 0.287164
vn 0.910851 -0.372387 -0.177983
vn 0.557707 -0.813354 0.165588
vn 0.372334 -0.912751 0.168083
vn -0.000001 -0.000001 1.000000
vn -0.000002 -0.000001 1.000000
vn -0.173249 0.943247 0.283320
vn -0.000000 -0.000001 1.000000
vn 0.000001 -0.000001 1.000000
vn 0.000007 -0.000006 1.000000
vn 0.000001 -0.000002 1.000000
vn -0.000002 -0.000003 1.000000
vn -0.000000 -0.000002 1.000000
vn 0.000015 -0.000011 1.000000
vn 0.000000 -0.000007 1.000000
vn -0.000003 -0.000016 1.000000
vn -0.000003 -0.000003 1.000000
vn -0.000004 -0.000001 1.000000
vn -0.000002 0.000001 1.000000
vn -0.000002 0.000004 1.000000
vn -0.000002 0.000002 1.000000
vn -0.000001 0.000003 1.000000
vn -0.000012 0.000005 1.000000
vn -0.000001 0.000006 1.000000
vn -0.000003 0.000005 1.000000
vn -0.000001 0.000008 1.000000
vn 0.000000 0.000004 1.000000
vn 0.000001 0.000002 1.000000
vn 0.116513 0.754645 0.645706
vn 0.880941 -0.093768 0.463842
vn -0.303917 0.951545 0.046868
vn -0.000000 0.000000 -1.000000
vn -0.843292 -0.193995 0.501223
vn 0.902371 0.352452 0.248001
vn 0.946463 0.205320 -0.249103
vn 0.964410 0.154656 -0.214466
vn 0.143866 -0.966693 0.211677
vn -0.351830 0.796270 0.492107
vn -0.122916 -0.808146 0.576014
vn 0.829181 0.310498 0.464812
vn 0.128609 0.719710 0.682259
vn -0.064111 -0.987221 0.145889
vn 0.344465 -0.905943 0.246193
vn -0.036164 -0.925513 0.376985
vn -0.680666 -0.007231 0.732558
vn -0.141566 0.436400 0.888546
vn -0.511626 0.472385 0.717698
vn -0.304094 0.582139 0.754083
vn 0.000003 -0.000000 1.000000
vn 0.000004 0.000001 1.000000
vn -0.829775 -0.081917 0.552053
vn -0.374732 -0.846055 0.379167
vn -0.565321 0.812109 0.144536
vn 0.274362 -0.912513 0.303391
vn 0.542428 0.821566 0.175501
vn 0.280615 0.944849 0.168866
vn 0.328829 -0.889972 0.315944
vn -0.615233 0.648192 0.448705
vn -0.082669 0.962571 0.258114
vn 0.542427 0.821567 0.175501
vn 0.860441 0.444703 0.248758
vn 0.893853 -0.239434 0.379076
vn -0.835639 -0.237280 0.495384
vn -0.279177 -0.935621 0.216038
vn -0.373274 -0.902078 0.216613
vn 0.883823 0.371490 0.284345
vn 0.265260 0.963971 0.019948
vn -0.196581 -0.967181 0.160990
vn 0.660768 0.733661 0.158517
vn 0.860441 0.444704 0.248757
vn -0.373274 -0.902079 0.216613
vn -0.082670 0.962571 0.258114
vn -0.196581 -0.967180 0.160990
vn 0.201276 -0.936026 0.288694
vn 0.781376 0.579703 0.231076
vn 0.860441 0.444702 0.248758
vn 0.237620 0.122809 -0.963563
vn -0.044558 0.242595 -0.969104
vn 0.216464 0.090985 -0.972042
vn 0.252367 0.917115 -0.308563
vn -0.084424 -0.415365 -0.905729
vn 0.237620 0.122810 -0.963563
vn -0.023090 0.268853 -0.962904
vn 0.050238 -0.233631 -0.971027
vn -0.125018 -0.302127 -0.945034
vn 0.205098 0.310643 -0.928135
vn -0.093232 -0.312454 -0.945347
vn 0.065172 -0.216760 -0.974047
vn 0.231013 0.171388 -0.957737
vn 0.269108 0.298794 -0.915589
vn 0.111350 0.374924 -0.920344
vn 0.075031 -0.203072 -0.976285
vn -0.103143 0.108669 -0.988713
vn 0.205098 0.310643 -0.928136
vn 0.168222 -0.045061 -0.984719
vn -0.127939 -0.036328 -0.991116
usemtl 
s off
f 1//1 2//1 3//1
f 2//2 1//2 4//2 5//2
f 6//3 7//3 5//3 4//3
f 8//4 9//4 7//4 6//4
f 10//5 11//5 9//5 8//5
f 12//6 13//6 11//6 10//6
f 14//7 13//7 12//7
f 15//8 13//8 14//8
f 16//9 17//9 13//9 15//9
f 18//10 19//10 20//10
f 19//10 21//10 20//10
f 21//10 22//10 23//10
f 21//10 23//10 20//10
f 23//10 24//10 20//10
f 23//10 25//10 24//10
f 23//10 26//10 25//10
f 27//11 1//11 3//11 28//11
f 28//12 3//12 29//12
f 28//13 29//13 30//13
f 31//14 27//14 28//14 30//14
f 31//15 30//15 32//15
f 32//16 33//16 31//16
f 33//17 27//17 31//17
f 34//18 35//18 27//18 33//18
f 33//19 32//19 36//19 34//19
f 34//20 36//20 37//20 38//20
f 38//21 39//21 35//21 34//21
f 38//22 37//22 40//22 41//22
f 41//23 42//23 39//23 38//23
f 41//24 40//24 43//24 44//24
f 44//25 45//25 42//25 41//25
f 46//26 47//26 45//26 44//26
f 44//27 43//27 48//27 46//27
f 48//28 49//28 46//28
f 49//29 50//29 47//29 46//29
f 50//30 15//30 51//30 47//30
f 47//31 51//31 14//31 45//31
f 12//32 42//32 45//32 14//32
f 42//33 12//33 10//33 39//33
f 39//34 10//34 8//34 35//34
f 6//35 27//35 35//35 8//35
f 27//36 6//36 4//36
f 4//37 1//37 27//37
f 15//38 14//38 51//38
f 52//39 16//39 15//39 50//39
f 53//40 52//40 50//40 49//40
f 49//41 48//41 54//41 53//41
f 53//42 54//42 55//42 56//42
f 56//43 55//43 57//43 58//43
f 58//44 57//44 59//44
f 59//45 60//45 61//45 58//45
f 58//46 61//46 62//46 56//46
f 56//47 62//47 52//47 53//47
f 62//48 63//48 16//48 52//48
f 61//49 64//49 63//49 62//49
f 63//50 65//50 17//50 16//50
f 64//51 66//51 65//51 63//51
f 67//52 68//52 66//52 64//52
f 69//53 70//53 68//53 67//53
f 71//54 72//54 70//54 69//54
f 60//55 59//55 72//55 71//55
f 71//56 69//56 67//56 60//56
f 60//57 67//57 64//57 61//57
f 26//58 73//58 74//58 25//58
f 23//59 75//59 73//59 26//59
f 22//60 76//60 75//60 23//60
f 21//61 77//61 76//61 22//61
f 19//62 78//62 77//62 21//62
f 18//63 79//63 78//63 19//63
f 18//64 80//64 79//64
f 18//65 81//65 80//65
f 20//66 82//66 81//66 18//66
f 83//67 20//67 24//67
f 83//68 82//68 20//68
f 83//10 84//10 82//10
f 84//10 83//10 85//10
f 25//69 74//69 83//69 24//69
f 86//10 74//10 73//10 87//10
f 88//10 85//10 74//10 86//10
f 85//10 88//10 89//10 84//10
f 74//10 85//10 83//10
f 84//10 89//10 90//10 82//10
f 81//70 91//70 92//70 80//70
f 91//71 81//71 82//71 90//71
f 75//10 93//10 87//10 73//10
f 93//10 75//10 76//10 94//10
f 95//72 96//72 97//72 98//72
f 77//10 99//10 100//10 76//10
f 78//10 101//10 99//10 77//10
f 79//10 102//10 101//10 78//10
f 80//73 92//73 102//73 79//73
f 103//10 100//10 104//10
f 76//10 100//10 103//10 94//10
f 9//74 105//74 7//74
f 7//73 105//73 5//73
f 5//73 105//73 2//73
f 2//75 105//75 106//75
f 94//10 103//10 107//10
f 106//10 94//10 107//10
f 106//10 105//10 94//10
f 11//73 105//73 9//73
f 105//73 11//73 13//73 108//73
f 17//76 108//76 13//76
f 65//77 108//77 17//77
f 66//78 109//78 108//78 65//78
f 68//79 109//79 66//79
f 70//80 109//80 68//80
f 109//81 70//81 110//81
f 72//82 110//82 70//82
f 59//83 111//83 110//83 72//83
f 57//84 111//84 59//84
f 55//85 111//85 57//85
f 54//86 97//86 111//86 55//86
f 48//87 98//87 97//87 54//87
f 43//88 98//88 48//88
f 98//89 43//89 40//89 112//89
f 37//90 112//90 40//90
f 36//91 113//91 112//91 37//91
f 32//92 114//92 113//92 36//92
f 30//93 114//93 32//93
f 114//12 30//12 29//12 115//12
f 3//12 115//12 29//12
f 115//10 116//10 117//10 118//10
f 119//15 120//15 118//15 117//15
f 120//15 119//15 121//15 122//15
f 123//94 121//94 119//94
f 124//95 103//95 121//95 123//95
f 103//13 122//13 121//13
f 103//10 104//10 122//10
f 24//10 20//10 18//10 19//10
f 19//96 21//96 125//96 126//96
f 23//97 22//97 127//97
f 22//97 21//97 127//97
f 23//97 127//97 128//97
f 26//97 23//97 128//97
f 26//97 128//97 25//97
f 125//98 129//98 130//98 131//98
f 126//99 132//99 24//99 19//99
f 125//100 129//100 25//100
f 21//101 125//101 25//101
f 21//97 25//97 128//97
f 21//97 128//97 127//97
f 25//102 24//102 132//102 129//102
f 130//10 133//10 134//10 131//10
f 126//103 125//103 131//103 134//103
f 129//104 132//104 133//104 130//104
f 134//105 133//105 132//105 126//105
f 123//106 119//106 117//106 124//106
f 135//107 103//107 124//107
f 136//108 107//108 103//108 135//108
f 106//109 107//109 136//109 137//109
f 137//110 138//110 106//110
f 137//111 116//111 138//111
f 116//112 137//112 136//112 135//112
f 116//113 135//113 124//113 117//113
f 116//114 115//114 3//114 138//114
f 2//115 106//115 138//115 3//115
f 127//116 128//116 129//116 125//116
f 129//117 128//117 25//117
f 125//118 21//118 127//118
f 88//119 86//119 139//119 140//119
f 141//120 142//120 115//120 118//120
f 143//121 144//121 122//121 104//121
f 140//122 145//122 89//122 88//122
f 96//123 146//123 111//123 97//123
f 113//124 114//124 147//124 148//124
f 149//125 141//125 118//125 120//125
f 120//120 122//120 144//120 149//120
f 150//126 151//126 99//126 101//126
f 145//127 152//127 90//127 89//127
f 146//128 153//128 110//128 111//128
f 93//129 94//129 154//129 155//129
f 105//130 108//130 156//130 157//130
f 91//131 90//131 152//131 158//131
f 158//132 159//132 92//132 91//132
f 160//133 156//133 108//133 109//133
f 114//134 115//134 142//134 147//134
f 98//72 112//72 161//72 95//72
f 151//135 162//135 100//135 99//135
f 102//126 92//126 159//126 163//126
f 157//136 154//136 94//136 105//136
f 148//137 161//137 112//137 113//137
f 109//138 110//138 153//138 160//138
f 86//139 87//139 164//139 139//139
f 162//140 143//140 104//140 100//140
f 101//141 102//141 163//141 150//141
f 155//129 164//129 87//129 93//129
f 150//142 163//142 165//142
f 95//143 161//143 165//143
f 158//144 152//144 165//144
f 165//145 159//145 158//145
f 165//146 156//146 160//146
f 165//147 151//147 150//147
f 160//146 153//146 165//146
f 165//148 161//148 148//148
f 139//149 164//149 165//149
f 165//147 162//147 151//147
f 165//150 154//150 157//150
f 165//151 142//151 141//151
f 155//152 154//152 165//152
f 140//153 139//153 165//153
f 165//154 143//154 162//154
f 165//152 164//152 155//152
f 165//143 96//143 95//143
f 165//151 141//151 149//151
f 165//155 147//155 142//155
f 148//148 147//148 165//148
f 165//156 144//156 143//156
f 165//157 145//157 140//157
f 165//158 146//158 96//158
f 163//147 159//147 165//147
f 157//150 156//150 165//150
f 149//159 144//159 165//159
f 165//160 152//160 145//160
f 165//161 153//161 146//161
