# Rhino

o object_1
v 831.6 87.13 2.667
v 831.6 87.13 44.91
v 834 78.4 2.667
v 834 78.4 44.91
v 834 95.86 2.667
v 834 95.86 44.91
v 839.9 71.22 2.667
v 839.9 71.22 44.91
v 839.9 103 2.667
v 839.9 103 44.91
v 852.9 85.41 2.667
v 852.9 85.41 44.91
v 854.8 78.33 2.667
v 854.8 78.33 44.91
v 854.8 92.48 2.667
v 854.8 92.48 44.91
v 859.6 72.52 2.667
v 859.6 72.52 23.79
v 859.6 72.52 44.91
v 859.6 98.29 2.667
v 859.6 98.29 44.91
v 917.9 181 2.667
v 917.9 181 23.79
v 917.9 181 44.91
v 922.7 161.4 2.667
v 922.7 161.4 23.79
v 922.7 161.4 44.91
v 925.1 186.9 2.667
v 925.1 186.9 44.91
v 928.5 166.2 2.667
v 928.5 166.2 44.91
v 933.8 189.3 2.667
v 933.8 189.3 44.91
v 935.6 168.1 2.667
v 935.6 168.1 44.91
v 942.5 186.9 2.667
v 942.5 186.9 44.91
v 942.7 166.2 2.667
v 942.7 166.2 44.91
v 948.5 161.4 2.667
v 948.5 161.4 23.79
v 948.5 161.4 44.91
v 949.7 181 2.667
v 949.7 181 44.91
v 1069 -157.7 2.667
v 1069 -157.7 44.91
v 1079 -147.2 2.667
v 1079 -147.2 44.91
v 1168 -58.3 2.667
v 1168 -58.3 44.91
v 1179 -47.93 2.667
v 1179 -47.93 44.91
vn 1.036e-16 1.499e-16 -1
vn 1.049e-16 1.513e-16 -1
vn 1.049e-16 1.486e-16 -1
vn 1.043e-16 1.492e-16 -1
vn 1.056e-16 1.506e-16 -1
vn 1.043e-16 1.492e-16 -1
vn 1.043e-16 1.492e-16 -1
vn 1.036e-16 1.472e-16 -1
vn 1.043e-16 1.492e-16 -1
vn 1.049e-16 1.486e-16 -1
vn 1.063e-16 1.525e-16 -1
vn 1.07e-16 1.518e-16 -1
vn 1.069e-16 1.519e-16 -1
vn 1.062e-16 1.525e-16 -1
vn 1.037e-16 1.498e-16 -1
vn 1.056e-16 1.506e-16 -1
vn 1.034e-16 1.501e-16 -1
vn 1.045e-16 1.49e-16 -1
vn 1.039e-16 1.496e-16 -1
vn 1.053e-16 1.509e-16 -1
vn 1.053e-16 1.509e-16 -1
vn 1.055e-16 1.507e-16 -1
vn 1.042e-16 1.493e-16 -1
vn 1.024e-16 1.484e-16 -1
vn 0.7071 -0.7071 0
vn 0.7071 -0.7071 0
vn 0.7071 -0.7071 0
vn 0.7071 -0.7071 0
vn 0.7071 0.7071 8.512e-17
vn -0.7071 0.7071 -1.163e-15
vn 0.7071 0.7071 8.512e-17
vn 0.4937 0.8696 -3.358e-16
vn -2.483e-07 1 -8.263e-16
vn -0.4937 0.8696 -1.092e-15
vn -0.4937 0.8696 -1.111e-15
vn 2.322e-14 1 -8.338e-16
vn 0.4937 0.8696 -3.735e-16
vn -0.7071 0.7071 -1.163e-15
vn -0.7071 0.7071 -1.163e-15
vn -0.7071 -0.7071 1.419e-17
vn -0.8696 0.4937 1.056e-16
vn -0.7071 0.7071 4.256e-17
vn -0.7071 -0.7071 1.419e-17
vn -0.7071 0.7071 4.256e-17
vn -0.8696 -0.4937 -3.761e-16
vn -1 5.331e-14 -1.755e-16
vn -0.8696 0.4937 -8.374e-17
vn -1 5.441e-14 -1.755e-16
vn -0.8696 -0.4937 -3.761e-16
vn -0.7071 0.7071 0
vn -0.7071 0.7071 0
vn -0.7071 0.7071 0
vn -0.7071 0.7071 0
vn -0.7071 0.7071 0
vn 0.7071 -0.7071 -3.328e-16
vn 0.7071 -0.7071 -3.328e-16
vn 0.7071 0.7071 2.277e-16
vn 0.8696 0.4937 1.967e-16
vn 1 -6.174e-14 -1.486e-16
vn 0.8696 -0.4937 -2.965e-16
vn 0.8696 -0.4937 -2.965e-16
vn 1 -5.97e-14 -1.486e-16
vn 0.8696 0.4937 3.083e-16
vn 0.7071 0.7071 2.277e-16
vn 0.7071 0.7071 2.277e-16
vn 0.7071 -0.7071 1.016e-15
vn -0.7071 -0.7071 -2.102e-16
vn -0.4937 -0.8696 4.109e-16
vn 2.483e-07 -1 8.576e-16
vn 0.4937 -0.8696 1.031e-15
vn 0.4937 -0.8696 1.065e-15
vn -1.099e-13 -1 8.545e-16
vn -0.4937 -0.8696 5.269e-16
vn -0.7071 -0.7071 -2.102e-16
vn -0.7071 -0.7071 -2.102e-16
vn 0.7071 -0.7071 1.016e-15
vn 0.7071 -0.7071 1.016e-15
vn 0.7071 -0.7071 1.121e-15
vn 0.7071 -0.7071 0
vn 0.7071 -0.7071 0
vn 0.7071 -0.7071 0
vn 0.7071 -0.7071 0
vn 0.7071 0.7071 0
vn 0.7071 0.7071 0
vn 0.7071 0.7071 0
vn 0.7071 0.7071 0
vn -0.7071 -0.7071 0
vn -0.7071 -0.7071 0
vn -0.7071 -0.7071 0
vn -0.7071 -0.7071 0
vn 0 0 1
vn 0 0 1
vn -1.278e-19 1.278e-19 1
vn -1.278e-19 1.278e-19 1
vn 0 0 1
vn -1.363e-18 1.363e-18 1
vn 1.363e-18 -1.363e-18 1
vn -3.407e-19 3.407e-19 1
vn -6.389e-19 6.389e-19 1
vn 0 0 1
vn 0 0 1
vn 0 0 1
vn 0 0 1
vn 0 0 1
vn 0 0 1
vn 0 0 1
vn 0 0 1
vn 0 0 1
vn 0 0 1
vn 6.815e-19 -6.815e-19 1
vn -1.363e-18 1.363e-18 1
vn 2.044e-18 -2.044e-18 1
vn 1.363e-18 -1.363e-18 1
vn 2.044e-18 -2.044e-18 1
vn 0.7071 0.7071 0
vn 0.7071 0.7071 0
vn 0.7071 0.7071 0
vn 0.7071 0.7071 0
vn 0.7071 0.7071 0
vn -0.7071 -0.7071 1.121e-15
vn -0.7071 -0.7071 0
vn -0.7071 -0.7071 0
vn -0.7071 -0.7071 0
vn -0.7071 -0.7071 0
vn 0.7071 -0.7071 0
vn 0.7071 -0.7071 0
vn 0.7071 -0.7071 0
vn 0.7071 -0.7071 0
f 17//24 47//11 45//12
f 7//15 17//24 45//12
f 11//22 13//23 7//15
f 17//24 7//15 13//23
f 3//16 11//22 7//15
f 51//13 49//14 40//1
f 43//10 51//13 40//1
f 43//10 38//2 34//3
f 36//9 43//10 34//3
f 40//1 38//2 43//10
f 9//19 20//20 15//21
f 3//16 1//17 11//22
f 5//18 11//22 1//17
f 15//21 5//18 9//19
f 5//18 15//21 11//22
f 22//6 20//20 9//19
f 36//9 34//3 32//8
f 25//5 22//6 30//4
f 28//7 34//3 30//4
f 34//3 28//7 32//8
f 22//6 28//7 30//4
f 22//6 25//5 20//20
f 50//25 49//27 51//28 52//26
f 37//37 44//29 43//31 36//32
f 29//35 33//36 32//33 28//34
f 23//39 24//30 29//35
f 33//36 37//37 36//32 32//33
f 22//38 23//39 28//34
f 28//34 23//39 29//35
f 3//49 7//40 8//43 4//45
f 5//41 1//48 2//46 6//47
f 9//42 5//41 6//47 10//44
f 1//48 3//49 4//45 2//46
f 9//54 23//52 22//53
f 24//50 23//52 10//51
f 9//54 10//51 23//52
f 18//65 17//64 13//63
f 15//61 16//60 12//59 11//62
f 20//55 21//56 16//60 15//61
f 11//62 12//59 14//58 13//63
f 14//58 19//57 18//65
f 13//63 14//58 18//65
f 35//72 34//69 38//68 39//73
f 31//71 30//70 34//69 35//72
f 27//66 26//77 31//71
f 31//71 26//77 30//70
f 41//75 42//74 39//73
f 38//68 40//67 41//75
f 30//70 26//77 25//76
f 39//73 38//68 41//75
f 20//82 25//81 26//80
f 27//79 21//78 26//80
f 20//82 26//80 21//78
f 52//84 51//83 43//85 44//86
f 8//87 7//90 45//88 46//89
f 10//96 12//112 16//113
f 10//96 6//97 12//112
f 10//96 16//113 21//104
f 4//99 8//94 2//98
f 6//97 2//98 19//110
f 24//95 10//96 21//104
f 39//108 33//102 29//103
f 29//103 24//95 35//107
f 44//100 37//101 33//102
f 27//105 31//106 24//95
f 35//107 24//95 31//106
f 27//105 24//95 21//104
f 12//112 6//97 14//111
f 19//110 2//98 8//94
f 14//111 6//97 19//110
f 48//114 19//110 46//93
f 8//94 46//93 19//110
f 39//108 42//109 33//102
f 44//100 33//102 42//109
f 35//107 39//108 29//103
f 52//92 42//109 50//91
f 44//100 42//109 52//92
f 47//115 17//117 18//119
f 19//118 48//116 18//119
f 47//115 18//119 48//116
f 50//122 41//124 40//123 49//120
f 50//122 42//121 41//124
f 46//125 45//126 47//128 48//127
