# Rhino

g ______548
o object_1
v 869.4 706.5 42.7
v 869.4 706.5 50.06
v 869.4 709.1 42.7
v 869.4 709.1 50.06
v 1420 706.5 42.7
v 1420 706.5 50.06
v 1420 709.1 42.7
v 1420 709.1 50.06
vn 0 -1 0
vn 0 -1 0
vn 0 -1 0
vn 0 -1 0
vn 1 0 0
vn 1 0 0
vn 1 0 0
vn 1 0 0
vn 0 1 0
vn 0 1 0
vn 0 1 0
vn 0 1 0
vn -1 0 0
vn -1 0 0
vn -1 0 0
vn -1 0 0
vn 0 0 -1
vn 0 0 -1
vn 0 0 -1
vn 0 0 -1
vn 0 0 1
vn 0 0 1
vn 0 0 1
vn 0 0 1
f 1//1 5//3 6//4 2//2
f 5//5 7//7 8//8 6//6
f 7//9 3//11 4//12 8//10
f 3//13 1//15 2//16 4//14
f 5//18 1//17 3//20
f 3//20 7//19 5//18
f 6//22 4//24 2//21
f 4//24 6//22 8//23
o object_2
v 869.4 726.7 42.7
v 869.4 726.7 50.06
v 869.4 729.4 42.7
v 869.4 729.4 50.06
v 1420 726.7 42.7
v 1420 726.7 50.06
v 1420 729.4 42.7
v 1420 729.4 50.06
vn 0 -1 0
vn 0 -1 0
vn 0 -1 0
vn 0 -1 0
vn 1 0 0
vn 1 0 0
vn 1 0 0
vn 1 0 0
vn 0 1 0
vn 0 1 0
vn 0 1 0
vn 0 1 0
vn -1 0 0
vn -1 0 0
vn -1 0 0
vn -1 0 0
vn 0 0 -1
vn 0 0 -1
vn 0 0 -1
vn 0 0 -1
vn 0 0 1
vn 0 0 1
vn 0 0 1
vn 0 0 1
f 9//25 13//27 14//28 10//26
f 13//29 15//31 16//32 14//30
f 15//33 11//35 12//36 16//34
f 11//37 9//39 10//40 12//38
f 13//42 9//41 11//44
f 11//44 15//43 13//42
f 14//46 12//48 10//45
f 12//48 14//46 16//47
g ______576
o object_3
v 353 -462.8 6.094
v 353 -462.8 47.07
v 353 745.7 6.094
v 353 745.7 47.07
v 805.3 -462.8 6.094
v 805.3 -462.8 47.07
v 811.4 -408.7 6.094
v 811.4 -408.7 47.07
v 811.4 -239.9 6.094
v 811.4 -239.9 47.07
v 811.4 301.2 6.094
v 811.4 301.2 47.07
v 811.4 470 6.094
v 811.4 470 47.07
v 841.2 85.48 6.094
v 841.2 85.48 47.07
v 844.4 73.83 6.094
v 844.4 73.83 47.07
v 844.4 97.12 6.094
v 844.4 97.12 47.07
v 852.3 64.26 6.094
v 852.3 64.26 47.07
v 852.3 106.7 6.094
v 852.3 106.7 47.07
v 859.4 -408.7 6.094
v 859.4 -408.7 47.07
v 867.3 522.9 6.094
v 867.3 522.9 47.07
v 867.3 691.7 6.094
v 867.3 691.7 47.07
v 914.3 168.8 6.094
v 914.3 168.8 47.07
v 923.9 176.6 6.094
v 923.9 176.6 47.07
v 935.5 179.8 6.094
v 935.5 179.8 47.07
v 947.2 176.6 6.094
v 947.2 176.6 47.07
v 956.7 168.8 6.094
v 956.7 168.8 47.07
v 978.5 147 6.094
v 978.5 147 47.07
v 1028 -239.9 6.094
v 1028 -239.9 47.07
v 1092 -175.8 6.094
v 1092 -175.8 47.07
v 1108 -462.8 6.094
v 1108 -462.8 47.07
v 1126 -408.7 6.094
v 1126 -408.7 47.07
v 1162 -408.7 6.094
v 1162 -408.7 47.07
v 1181 -462.8 6.094
v 1181 -462.8 47.07
v 1197 -71.31 6.094
v 1197 -71.31 47.07
v 1199 -462.8 6.094
v 1199 -462.8 47.07
v 1253 -408.7 6.094
v 1253 -408.7 47.07
v 1256 -12.4 6.094
v 1256 -12.4 47.07
v 1312 141.9 6.094
v 1312 141.9 47.07
v 1312 301.2 6.094
v 1312 301.2 47.07
v 1312 470 6.094
v 1312 470 47.07
v 1312 522.9 6.094
v 1312 522.9 47.07
v 1312 691.7 6.094
v 1312 691.7 47.07
v 1312 745.7 6.094
v 1312 745.7 47.07
v 1316 -462.8 6.094
v 1316 -462.8 47.07
v 1316 -408.7 6.094
v 1316 -408.7 47.07
v 1333 64.47 6.094
v 1333 64.47 47.07
v 1407 -163.7 6.094
v 1407 -163.7 47.07
v 1415 64.47 6.094
v 1415 64.47 47.07
v 1439 691.7 6.094
v 1439 691.7 47.07
v 1439 745.7 6.094
v 1439 745.7 47.07
v 1453 -209.2 6.094
v 1453 -209.2 47.07
v 1488 141.9 6.094
v 1488 141.9 47.07
v 1525 -45.85 6.094
v 1525 -45.85 47.07
v 1526 179.8 6.094
v 1526 179.8 47.07
v 1526 301.2 6.094
v 1526 301.2 47.07
v 1526 470 6.094
v 1526 470 47.07
v 1526 522.9 6.094
v 1526 522.9 47.07
v 1588 -74.12 6.094
v 1588 -74.12 47.07
v 1588 164.2 6.094
v 1588 164.2 47.07
v 1588 301.2 6.094
v 1588 301.2 47.07
v 1588 470 6.094
v 1588 470 47.07
v 1588 522.9 6.094
v 1588 522.9 47.07
vn -1 1.11e-16 0
vn -1 1.11e-16 0
vn -1 1.11e-16 0
vn -1 1.11e-16 0
vn 1 0 0
vn 1 0 0
vn 1 0 0
vn 1 0 0
vn -0.7071 -0.7071 -3.867e-15
vn -0.7071 -0.7071 -3.867e-15
vn -0.7071 -0.7071 -7.733e-15
vn -0.7071 -0.7071 -7.733e-15
vn 0.7071 -0.7071 0
vn 0.7071 -0.7071 0
vn 0.7071 -0.7071 0
vn 0.7071 -0.7071 0
vn 0.7071 -0.7071 0
vn 0.7071 -0.7071 0
vn 0 1 0
vn 0 1 0
vn 0 1 0
vn 0 1 0
vn 0 1 0
vn 0 1 0
vn -6.939e-17 -1 0
vn -6.939e-17 -1 0
vn -9.252e-17 -1 0
vn -9.252e-17 -1 0
vn -6.939e-17 -1 0
vn -9.252e-17 -1 0
vn 1 0 0
vn 1 1.85e-16 0
vn 1 0 0
vn 1 1.85e-16 0
vn -1 4.626e-16 0
vn -1 3.701e-16 0
vn -1 3.701e-16 0
vn -1 5.551e-16 0
vn 0.7071 -0.7071 0
vn 0.7071 -0.7071 0
vn 0.7071 -0.7071 0
vn 0.7071 -0.7071 0
vn -0.7071 0.7071 0
vn -0.7071 0.7071 0
vn -0.7071 0.7071 0
vn -0.7071 0.7071 0
vn 2.313e-16 1 0
vn 2.313e-16 1 0
vn 1.85e-16 1 0
vn 1.85e-16 1 0
vn -0.7071 0.7071 0
vn -0.7071 0.7071 0
vn -0.7071 0.7071 0
vn -0.7071 0.7071 0
vn 4.626e-17 -1 0
vn 0 -1 0
vn 0 -1 0
vn -4.626e-17 -1 0
vn -0.7071 -0.7071 0
vn -0.7071 -0.7071 0
vn -0.7071 -0.7071 0
vn -0.7071 -0.7071 0
vn 0.7071 -0.7071 0
vn 0.7071 -0.7071 0
vn 0.7071 -0.7071 0
vn 0.7071 -0.7071 0
vn 1 0 0
vn 1 0 0
vn 1 0 0
vn 1 0 0
vn 1 -1.85e-16 0
vn 1 0 0
vn 1 -1.85e-16 0
vn 1 0 0
vn 1 1.85e-16 0
vn 1 0 0
vn 1 1.85e-16 0
vn 1 0 0
vn 1 1.85e-16 0
vn 1 0 0
vn 1 0 0
vn 1 -3.701e-16 0
vn 0 1 0
vn 0 1 0
vn 0 1 0
vn 0 1 0
vn 1 0 0
vn 1 0 0
vn 1 0 0
vn 1 0 0
vn 1 0 0
vn 1 0 0
vn 0 -1 0
vn 0 -1 0
vn 0 -1 0
vn 0 -1 0
vn 0 1 0
vn 0 1 0
vn 0 1 0
vn -1.075e-17 1 0
vn 2.149e-17 -1 0
vn 0 -1 0
vn 0 -1 0
vn 0 -1 0
vn 0 -1 0
vn 2.149e-17 -1 0
vn 2.149e-17 -1 0
vn 2.149e-17 -1 0
vn 2.313e-17 1 0
vn 0 1 0
vn 0 1 0
vn 0 1 0
vn 0 1 0
vn 0 1 0
vn 0 1 0
vn 0 1 0
vn 1 0 0
vn 1 0 0
vn 1 0 0
vn 1 0 0
vn 0.7071 0.7071 0
vn 0.7071 0.7071 0
vn 0.7071 0.7071 0
vn 0.7071 0.7071 0
vn -0.7071 -0.7071 0
vn -0.7071 -0.7071 0
vn -0.7071 -0.7071 0
vn -0.7071 -0.7071 0
vn -0.7071 -0.7071 0
vn -0.7071 -0.7071 0
vn 0 0 1
vn 0 0 1
vn 0 0 1
vn -2.168e-18 0 1
vn 0 0 1
vn 7.228e-19 0 1
vn 0 0 1
vn 0 0 1
vn 0 0 1
vn 0 0 1
vn 0 0 1
vn 0 0 1
vn 0 0 1
vn 0 0 1
vn -2.891e-18 0 1
vn 2.891e-18 0 1
vn 0 0 1
vn 0 0 1
vn 0 0 1
vn 2.891e-18 0 1
vn 0 0 1
vn 1.446e-18 0 1
vn 0 0 1
vn -2.891e-18 0 1
vn 1.807e-18 0 1
vn 2.891e-18 0 1
vn 2.891e-18 0 1
vn 0 0 1
vn 0 0 1
vn 0 0 1
vn 0 0 1
vn 0 0 1
vn 0 0 1
vn -2.891e-18 0 1
vn -1.446e-18 0 1
vn -1.446e-18 0 1
vn -1.446e-18 0 1
vn 0 0 1
vn -2.711e-18 0 1
vn -2.711e-18 0 1
vn -2.711e-18 0 1
vn 1.988e-18 0 1
vn 0 0 1
vn 0 0 1
vn 0 0 1
vn 2.891e-18 0 1
vn 2.891e-18 0 1
vn 0 0 1
vn 2.891e-18 0 1
vn 0 0 1
vn 2.891e-18 0 1
vn 2.891e-18 0 1
vn 0 0 1
vn 0 0 1
vn 0 0 1
vn 0 0 1
vn 0 0 -1
vn 0 0 -1
vn 0 0 -1
vn 4.518e-20 0 -1
vn 0 0 -1
vn 3.614e-19 0 -1
vn 0 0 -1
vn 0 0 -1
vn 0 0 -1
vn 0 0 -1
vn 0 0 -1
vn 0 0 -1
vn -3.614e-19 0 -1
vn 0 0 -1
vn 0 0 -1
vn -3.614e-19 0 -1
vn 0 0 -1
vn 0 0 -1
vn 2.936e-19 0 -1
vn 3.614e-19 0 -1
vn 1.807e-19 0 -1
vn -3.614e-19 0 -1
vn -2.711e-19 0 -1
vn 0 0 -1
vn 0 0 -1
vn 0 0 -1
vn 0 0 -1
vn 0 0 -1
vn 0 0 -1
vn 0 0 -1
vn -3.614e-19 0 -1
vn 0 0 -1
vn 0 0 -1
vn 0 0 -1
vn 1.807e-19 0 -1
vn 3.614e-19 0 -1
vn 1.807e-19 0 -1
vn 0 0 -1
vn 9.035e-20 0 -1
vn 1.129e-19 0 -1
vn 1.129e-19 0 -1
vn 2.936e-19 0 -1
vn 0 0 -1
vn 0 0 -1
vn 0 0 -1
vn 0 0 -1
vn -3.614e-19 0 -1
vn 3.614e-19 0 -1
vn -3.614e-19 0 -1
vn 0 0 -1
vn -3.614e-19 0 -1
vn 0 0 -1
vn 0 0 -1
vn 0 0 -1
vn 0 0 -1
vn 0 0 -1
vn 0 -1 0
vn 0 -1 0
vn 0 -1 0
vn 0 -1 0
vn 0 -1 0
vn 0 -1 0
vn 0 -1 0
vn 0 -1 0
vn 0 -1 0
vn 0 -1 0
vn 0 -1 0
vn 0 -1 0
vn 2.149e-17 1 0
vn 0 1 0
vn 2.149e-17 1 0
vn 0 1 0
vn 0 1 0
vn 0 1 0
vn 0 1 0
vn 0 1 0
vn 2.149e-17 1 0
vn 2.149e-17 1 0
vn 2.149e-17 1 0
vn 2.149e-17 1 0
vn 0.7071 -0.7071 1.571e-16
vn 0.7071 -0.7071 1.571e-16
vn 0.7071 -0.7071 0
vn 0.7071 -0.7071 0
vn 0.7071 -0.7071 1.208e-16
vn -2.442e-14 -1 -1.687e-16
vn -0.7071 -0.7071 3.383e-16
vn 0.7071 -0.7071 1.208e-16
vn -2.411e-14 -1 -1.687e-16
vn -0.4937 -0.8696 -2.78e-18
vn -0.7071 -0.7071 3.383e-16
vn 0.4937 -0.8696 -1.142e-16
vn -0.4937 -0.8696 1.208e-17
vn 0.4937 -0.8696 -8.774e-17
vn 0.7071 -0.7071 -4.592e-16
vn 0.8696 -0.4937 -8.459e-16
vn 1 1.113e-14 -7.049e-16
vn 0.8696 0.4937 -1.684e-16
vn 0.7071 0.7071 -1.329e-16
vn 0.7071 -0.7071 -4.592e-16
vn 1 1.607e-14 -7.049e-16
vn 0.8696 0.4937 -1.684e-16
vn 0.7071 0.7071 -1.329e-16
vn 0.8696 -0.4937 -9.243e-16
f 18//50 20//52 19//51 17//49
f 91//54 93//56 94//55 92//53
f 98//58 97//57 105//59 106//60
f 96//62 78//65 77//66 95//61
f 71//63 77//66 78//65 72//64
f 103//67 89//71 90//72 104//70
f 20//69 90//72 89//71 19//68
f 101//73 102//76 88//78 87//77
f 46//75 45//74 87//77 88//78
f 82//80 80//82 79//81 81//79
f 112//86 114//84 113//83 111//85
f 62//90 60//89 59//88 61//87
f 98//91 110//92 109//93 97//94
f 80//98 108//97 107//96 79//95
f 108//100 112//102 111//101 107//99
f 96//104 95//103 99//106 100//105
f 110//109 100//108 99//110 109//107
f 105//114 119//113 120//112 106//111
f 126//116 125//115 127//117 128//118
f 46//120 44//122 43//121 45//119
f 30//124 28//126 27//125 29//123
f 26//128 24//129 23//130 25//127
f 28//132 82//134 81//133 27//131
f 120//136 119//135 121//140 122//139
f 123//137 124//138 122//139 121//140
f 60//144 26//142 25//141 59//143
f 113//145 114//147 124//146 123//148
f 125//154 126//153 116//152 115//155
f 84//151 83//156 115//155 116//152
f 83//156 84//151 30//150 29//149
f 43//157 44//158 86//161 85//162
f 85//162 86//161 118//160 117//163
f 117//163 118//160 128//159 127//164
f 102//166 101//165 103//167 104//168
f 38//170 62//172 61//171 37//169
f 58//177 57//175 71//174 72//173
f 57//175 58//177 56//176 55//178
f 22//231 24//203 18//179
f 64//232 42//220 22//231
f 42//220 24//203 22//231
f 18//179 24//203 26//200
f 26//200 38//214 34//228
f 38//214 26//200 60//201
f 18//179 26//200 34//228
f 32//229 18//179 34//228
f 64//232 70//233 68//218 66//219
f 38//214 60//201 62//212
f 74//234 68//218 70//233
f 64//232 66//219 42//220
f 28//202 36//230 40//221
f 28//202 32//229 36//230
f 30//194 20//180 28//202
f 28//202 20//180 18//179
f 46//187 20//180 30//194
f 82//209 28//202 54//227
f 44//193 46//187 30//194
f 48//222 28//202 40//221
f 32//229 28//202 18//179
f 82//209 56//223 58//224
f 28//202 52//226 54//227
f 52//226 28//202 50//225
f 30//194 84//195 44//193
f 56//223 82//209 54//227
f 48//222 50//225 28//202
f 90//186 20//180 46//187
f 72//215 78//216 58//224
f 92//181 76//217 74//234
f 94//182 76//217 92//181
f 100//207 80//208 96//206
f 78//216 96//206 80//208
f 58//224 80//208 82//209
f 80//208 58//224 78//216
f 106//184 110//213 98//183
f 120//204 110//213 106//184
f 80//208 100//207 108//211
f 110//213 108//211 100//207
f 108//211 110//213 122//205
f 120//204 122//205 110//213
f 122//205 112//210 108//211
f 84//195 86//192 44//193
f 118//191 86//192 84//195 116//196
f 104//185 90//186 88//188
f 90//186 46//187 88//188
f 88//188 102//189 104//185
f 114//199 112//210 124//198
f 122//205 124//198 112//210
f 128//190 118//191 116//196 126//197
f 76//217 68//218 74//234
f 23//253 21//287 17//235
f 41//276 21//287 23//253
f 25//254 23//253 17//235
f 17//235 33//284 25//254
f 37//270 25//254 33//284
f 37//270 59//257 25//254
f 41//276 63//288 21//287
f 31//285 33//284 17//235
f 63//288 65//275 67//274 69//289
f 59//257 37//270 61//268
f 73//290 69//289 67//274
f 63//288 41//276 65//275
f 27//250 39//277 35//286
f 27//250 35//286 31//285
f 29//251 27//250 19//236
f 27//250 17//235 19//236
f 45//243 29//251 19//236
f 81//261 53//283 27//250
f 43//252 29//251 45//243
f 47//278 39//277 27//250
f 31//285 17//235 27//250
f 81//261 57//280 55//279
f 27//250 53//283 51//282
f 51//282 49//281 27//250
f 55//279 53//283 81//261
f 47//278 27//250 49//281
f 89//242 45//243 19//236
f 71//271 57//280 77//272
f 91//237 73//290 75//273
f 93//238 91//237 75//273
f 99//259 95//258 79//260
f 77//272 79//260 95//258
f 57//280 81//261 79//260
f 79//260 77//272 57//280
f 105//240 97//239 109//269
f 119//255 105//240 109//269
f 79//260 107//263 99//259
f 109//269 99//259 107//263
f 107//263 121//256 109//269
f 119//255 109//269 121//256
f 121//256 107//263 111//262
f 85//265 115//267 83//266
f 43//252 83//266 29//251
f 103//241 87//244 89//242
f 89//242 87//244 45//243
f 87//244 103//241 101//245
f 43//252 85//265 83//266
f 113//249 123//248 111//262
f 121//256 111//262 123//248
f 85//265 117//264 115//267
f 125//246 115//267 117//264
f 117//264 127//247 125//246
f 75//273 73//290 67//274
f 17//298 21//299 22//297 18//291
f 21//299 63//300 64//296 22//297
f 63//300 69//301 70//295 64//296
f 69//301 73//302 74//294 70//295
f 91//292 92//293 74//294 73//302
f 23//303 24//304 42//310 41//311
f 41//311 42//310 66//309 65//312
f 65//312 66//309 68//308 67//313
f 67//313 68//308 76//307 75//314
f 75//314 76//307 94//306 93//305
f 48//316 40//318 39//317 47//315
f 49//328 50//326 48//322 47//319
f 53//327 54//324 52//323 51//320
f 55//321 56//325 54//324 53//327
f 51//320 52//323 50//326 49//328
f 36//330 35//338 39//334 40//329
f 34//332 33//336 31//335 32//331
f 38//333 37//337 33//336 34//332
f 32//331 31//335 35//338 36//330
g ______244
o object_4
v 968.2 221.8 42.7
v 968.2 221.8 50.06
v 970 223.7 42.7
v 970 223.7 50.06
v 1208 -18.47 42.7
v 1208 -18.47 50.06
v 1210 -16.59 42.7
v 1210 -16.59 50.06
vn -0.7071 -0.7071 0
vn -0.7071 -0.7071 0
vn -0.7071 -0.7071 0
vn -0.7071 -0.7071 0
vn 0.7071 -0.7071 0
vn 0.7071 -0.7071 0
vn 0.7071 -0.7071 0
vn 0.7071 -0.7071 0
vn 0.7071 0.7071 0
vn 0.7071 0.7071 0
vn 0.7071 0.7071 0
vn 0.7071 0.7071 0
vn -0.7071 0.7071 0
vn -0.7071 0.7071 0
vn -0.7071 0.7071 0
vn -0.7071 0.7071 0
vn 0 0 -1
vn 0 0 -1
vn 0 0 -1
vn 0 0 -1
vn 0 0 1
vn 0 0 1
vn 0 0 1
vn 0 0 1
f 129//339 133//341 134//342 130//340
f 133//343 135//345 136//346 134//344
f 135//347 131//349 132//350 136//348
f 131//351 129//353 130//354 132//352
f 133//356 129//355 131//358
f 131//358 135//357 133//356
f 134//360 132//362 130//359
f 132//362 134//360 136//361
o object_5
v 953.9 207.5 42.7
v 953.9 207.5 50.06
v 955.7 209.4 42.7
v 955.7 209.4 50.06
v 1194 -32.78 42.7
v 1194 -32.78 50.06
v 1196 -30.9 42.7
v 1196 -30.9 50.06
vn -0.7071 -0.7071 0
vn -0.7071 -0.7071 0
vn -0.7071 -0.7071 0
vn -0.7071 -0.7071 0
vn 0.7071 -0.7071 0
vn 0.7071 -0.7071 0
vn 0.7071 -0.7071 0
vn 0.7071 -0.7071 0
vn 0.7071 0.7071 0
vn 0.7071 0.7071 0
vn 0.7071 0.7071 0
vn 0.7071 0.7071 0
vn -0.7071 0.7071 0
vn -0.7071 0.7071 0
vn -0.7071 0.7071 0
vn -0.7071 0.7071 0
vn 0 0 -1
vn 0 0 -1
vn 0 0 -1
vn 0 0 -1
vn 0 0 1
vn 0 0 1
vn 0 0 1
vn 0 0 1
f 137//363 141//365 142//366 138//364
f 141//367 143//369 144//370 142//368
f 143//371 139//373 140//374 144//372
f 139//375 137//377 138//378 140//376
f 141//380 137//379 139//382
f 139//382 143//381 141//380
f 142//384 140//386 138//383
f 140//386 142//384 144//385
g ______245
o object_6
v 797.4 50.89 42.7
v 797.4 50.89 50.06
v 799.2 52.76 42.7
v 799.2 52.76 50.06
v 1038 -189.4 42.7
v 1038 -189.4 50.06
v 1040 -187.5 42.7
v 1040 -187.5 50.06
vn -0.7071 -0.7071 0
vn -0.7071 -0.7071 0
vn -0.7071 -0.7071 0
vn -0.7071 -0.7071 0
vn 0.7071 -0.7071 0
vn 0.7071 -0.7071 0
vn 0.7071 -0.7071 0
vn 0.7071 -0.7071 0
vn 0.7071 0.7071 0
vn 0.7071 0.7071 0
vn 0.7071 0.7071 0
vn 0.7071 0.7071 0
vn -0.7071 0.7071 0
vn -0.7071 0.7071 0
vn -0.7071 0.7071 0
vn -0.7071 0.7071 0
vn 0 0 -1
vn 0 0 -1
vn 0 0 -1
vn 0 0 -1
vn 0 0 1
vn 0 0 1
vn 0 0 1
vn 0 0 1
f 145//387 149//389 150//390 146//388
f 149//391 151//393 152//394 150//392
f 151//395 147//397 148//398 152//396
f 147//399 145//401 146//402 148//400
f 149//404 145//403 147//406
f 147//406 151//405 149//404
f 150//408 148//410 146//407
f 148//410 150//408 152//409
o object_7
v 811.7 65.19 42.7
v 811.7 65.19 50.06
v 813.6 67.07 42.7
v 813.6 67.07 50.06
v 1052 -175.1 42.7
v 1052 -175.1 50.06
v 1054 -173.2 42.7
v 1054 -173.2 50.06
vn -0.7071 -0.7071 0
vn -0.7071 -0.7071 0
vn -0.7071 -0.7071 0
vn -0.7071 -0.7071 0
vn 0.7071 -0.7071 0
vn 0.7071 -0.7071 0
vn 0.7071 -0.7071 0
vn 0.7071 -0.7071 0
vn 0.7071 0.7071 0
vn 0.7071 0.7071 0
vn 0.7071 0.7071 0
vn 0.7071 0.7071 0
vn -0.7071 0.7071 0
vn -0.7071 0.7071 0
vn -0.7071 0.7071 0
vn -0.7071 0.7071 0
vn 0 0 -1
vn 0 0 -1
vn 0 0 -1
vn 0 0 -1
vn 0 0 1
vn 0 0 1
vn 0 0 1
vn 0 0 1
f 153//411 157//413 158//414 154//412
f 157//415 159//417 160//418 158//416
f 159//419 155//421 156//422 160//420
f 155//423 153//425 154//426 156//424
f 157//428 153//427 155//430
f 155//430 159//429 157//428
f 158//432 156//434 154//431
f 156//434 158//432 160//433
g ______265
o object_8
v 869.4 486.6 42.7
v 869.4 486.6 50.06
v 869.4 489.2 42.7
v 869.4 489.2 50.06
v 1420 486.6 42.7
v 1420 486.6 50.06
v 1420 489.2 42.7
v 1420 489.2 50.06
vn 0 -1 0
vn 0 -1 0
vn 0 -1 0
vn 0 -1 0
vn 1 0 0
vn 1 0 0
vn 1 0 0
vn 1 0 0
vn 0 1 0
vn 0 1 0
vn 0 1 0
vn 0 1 0
vn -1 0 0
vn -1 0 0
vn -1 0 0
vn -1 0 0
vn 0 0 -1
vn 0 0 -1
vn 0 0 -1
vn 0 0 -1
vn 0 0 1
vn 0 0 1
vn 0 0 1
vn 0 0 1
f 161//435 165//437 166//438 162//436
f 165//439 167//441 168//442 166//440
f 167//443 163//445 164//446 168//444
f 163//447 161//449 162//450 164//448
f 165//452 161//451 163//454
f 163//454 167//453 165//452
f 166//456 164//458 162//455
f 164//458 166//456 168//457
o object_9
v 869.4 506.8 42.7
v 869.4 506.8 50.06
v 869.4 509.5 42.7
v 869.4 509.5 50.06
v 1420 506.8 42.7
v 1420 506.8 50.06
v 1420 509.5 42.7
v 1420 509.5 50.06
vn 0 -1 0
vn 0 -1 0
vn 0 -1 0
vn 0 -1 0
vn 1 0 0
vn 1 0 0
vn 1 0 0
vn 1 0 0
vn 0 1 0
vn 0 1 0
vn 0 1 0
vn 0 1 0
vn -1 0 0
vn -1 0 0
vn -1 0 0
vn -1 0 0
vn 0 0 -1
vn 0 0 -1
vn 0 0 -1
vn 0 0 -1
vn 0 0 1
vn 0 0 1
vn 0 0 1
vn 0 0 1
f 169//459 173//461 174//462 170//460
f 173//463 175//465 176//466 174//464
f 175//467 171//469 172//470 176//468
f 171//471 169//473 170//474 172//472
f 173//476 169//475 171//478
f 171//478 175//477 173//476
f 174//480 172//482 170//479
f 172//482 174//480 176//481
g ______263
o object_10
v 829.8 285.2 42.7
v 829.8 285.2 50.06
v 829.8 287.8 42.7
v 829.8 287.8 50.06
v 1293 285.2 42.7
v 1293 285.2 50.06
v 1293 287.8 42.7
v 1293 287.8 50.06
vn 0 -1 0
vn 0 -1 0
vn 0 -1 0
vn 0 -1 0
vn 1 0 0
vn 1 0 0
vn 1 0 0
vn 1 0 0
vn 0 1 0
vn 0 1 0
vn 0 1 0
vn 0 1 0
vn -1 0 0
vn -1 0 0
vn -1 0 0
vn -1 0 0
vn 0 0 -1
vn 0 0 -1
vn 0 0 -1
vn 0 0 -1
vn 0 0 1
vn 0 0 1
vn 0 0 1
vn 0 0 1
f 177//483 181//485 182//486 178//484
f 181//487 183//489 184//490 182//488
f 183//491 179//493 180//494 184//492
f 179//495 177//497 178//498 180//496
f 181//500 177//499 179//502
f 179//502 183//501 181//500
f 182//504 180//506 178//503
f 180//506 182//504 184//505
o object_11
v 829.8 264.9 42.7
v 829.8 264.9 50.06
v 829.8 267.6 42.7
v 829.8 267.6 50.06
v 1293 264.9 42.7
v 1293 264.9 50.06
v 1293 267.6 42.7
v 1293 267.6 50.06
vn 0 -1 0
vn 0 -1 0
vn 0 -1 0
vn 0 -1 0
vn 1 0 0
vn 1 0 0
vn 1 0 0
vn 1 0 0
vn 0 1 0
vn 0 1 0
vn 0 1 0
vn 0 1 0
vn -1 0 0
vn -1 0 0
vn -1 0 0
vn -1 0 0
vn 0 0 -1
vn 0 0 -1
vn 0 0 -1
vn 0 0 -1
vn 0 0 1
vn 0 0 1
vn 0 0 1
vn 0 0 1
f 185//507 189//509 190//510 186//508
f 189//511 191//513 192//514 190//512
f 191//515 187//517 188//518 192//516
f 187//519 185//521 186//522 188//520
f 189//524 185//523 187//526
f 187//526 191//525 189//524
f 190//528 188//530 186//527
f 188//530 190//528 192//529
