# RokuSuper Output Ver2.0 for Wavefront Obj

v -0.00085181 5.01603222 0.09401959
v -0.00085181 0.01603222 0.09401959
v 4.99914819 0.01603222 0.09401959
v 4.99914819 0.00000000 0.06966392
v -0.00085181 0.00000000 0.06966392
v -0.00085181 5.00000000 0.06966392


vn 0.00000000 0.00000000 -1.00000000
vn 0.00000000 0.00000000 -1.00000000
vn 0.00000000 0.00000000 -1.00000000
vn 0.00000000 0.00000000 1.00000000
vn 0.00000000 0.00000000 1.00000000
vn 0.00000000 0.00000000 1.00000000

g ²ã
f 3//1 2//2 1//3
f 6//4 5//5 4//6

