# Blender v2.62 (sub 0) OBJ File: 'Propeller_001_a _output_ Yaw.blend'
# www.blender.org
mtllib Propeller_001_a_Yaw.mtl
o Cylinder.001_Cylinder.018
v 2.619693 2.551781 1.345080
v 2.619678 2.455777 1.345080
v 2.551781 2.387902 1.345080
v 2.455777 2.387917 1.345080
v 2.387902 2.455813 1.345080
v 2.387917 2.551818 1.345080
v 2.455813 2.619693 1.345080
v 2.551818 2.619678 1.345080
v 2.619693 2.551781 1.595953
v 2.619678 2.455777 1.595953
v 2.551781 2.387902 1.595953
v 2.455777 2.387917 1.595953
v 2.387902 2.455813 1.595953
v 2.387917 2.551818 1.595953
v 2.455813 2.619693 1.595953
v 2.551818 2.619678 1.595953
v 2.503797 2.503797 1.345080
v 2.503797 2.503797 1.595953
v 2.469945 2.617855 1.379198
v 2.469945 2.617855 1.556211
v 2.537685 2.617844 1.556211
v 2.537685 2.617844 1.379198
v 2.537649 2.389740 1.379198
v 2.537649 2.389740 1.556211
v 2.469909 2.389750 1.556211
v 2.469909 2.389750 1.379198
v 2.722352 0.312317 1.529845
v 2.710637 0.312318 1.562036
v 2.280733 0.312330 1.405564
v 2.292449 0.312330 1.373373
v 2.285244 4.695277 1.529845
v 2.296960 4.695277 1.562036
v 2.726865 4.695264 1.405564
v 2.715147 4.695264 1.373373
vn -0.000000 0.000000 -1.000000
vn 0.000000 0.000000 1.000000
vn 1.000000 -0.000156 0.000000
vn 0.706995 -0.707219 0.000000
vn -0.707219 -0.706995 0.000000
vn -1.000000 0.000156 0.000000
vn -0.706995 0.707219 0.000000
vn 0.707219 0.706994 -0.000000
vn 0.128952 0.991651 0.000000
vn 0.000157 0.998935 -0.046138
vn -0.128652 0.991690 0.000000
vn 0.000157 0.998556 0.053723
vn -0.128953 -0.991651 0.000000
vn -0.000157 -0.998935 -0.046138
vn 0.128652 -0.991690 0.000000
vn -0.000157 -0.998556 0.053723
vn 0.994587 0.087721 0.055697
vn -0.299795 -0.032066 0.953464
vn -0.994397 0.089846 -0.055688
vn 0.299787 -0.032711 -0.953445
vn -0.000030 -1.000000 0.000000
vn -0.994586 -0.087721 0.055703
vn 0.299796 0.032065 0.953464
vn 0.994397 -0.089848 -0.055699
vn -0.299787 0.032711 -0.953445
vn 0.000029 1.000000 -0.000003
usemtl 
s off
f 17//1 1//1 2//1
f 18//2 10//2 9//2
f 17//1 2//1 3//1
f 18//2 11//2 10//2
f 17//1 3//1 4//1
f 18//2 12//2 11//2
f 17//1 4//1 5//1
f 18//2 13//2 12//2
f 17//1 5//1 6//1
f 18//2 14//2 13//2
f 17//1 6//1 7//1
f 18//2 15//2 14//2
f 17//1 7//1 8//1
f 18//2 16//2 15//2
f 8//1 1//1 17//1
f 18//2 9//2 16//2
f 1//3 9//3 10//3 2//3
f 2//4 10//4 11//4 3//4
f 4//5 12//5 13//5 5//5
f 5//6 13//6 14//6 6//6
f 6//7 14//7 15//7 7//7
f 9//8 1//8 8//8 16//8
f 15//9 20//9 19//9 7//9
f 16//10 21//10 20//10 15//10
f 8//11 22//11 21//11 16//11
f 7//12 19//12 22//12 8//12
f 11//13 24//13 23//13 3//13
f 12//14 25//14 24//14 11//14
f 4//15 26//15 25//15 12//15
f 3//16 23//16 26//16 4//16
f 24//17 28//17 27//17 23//17
f 25//18 29//18 28//18 24//18
f 26//19 30//19 29//19 25//19
f 23//20 27//20 30//20 26//20
f 27//21 28//21 29//21 30//21
f 20//22 32//22 31//22 19//22
f 21//23 33//23 32//23 20//23
f 22//24 34//24 33//24 21//24
f 19//25 31//25 34//25 22//25
f 31//26 32//26 33//26 34//26
