# Blender v2.62 (sub 0) OBJ File: 'Propeller_001_a _output.blend'
# www.blender.org
mtllib Propeller _001_a.mtl
o Cylinder_Cylinder.003
v 2.503797 3.055461 0.292030
v 2.893882 2.893882 0.292030
v 3.055461 2.503797 0.292030
v 2.893882 2.113712 0.292030
v 2.503797 1.952134 0.292030
v 2.113712 2.113712 0.292030
v 1.952134 2.503797 0.292030
v 2.113712 2.893882 0.292030
v 2.503797 2.780278 0.844992
v 2.699299 2.699299 0.844992
v 2.780278 2.503798 0.844992
v 2.699299 2.308296 0.844992
v 2.503797 2.227316 0.844992
v 2.308296 2.308296 0.844992
v 2.227316 2.503798 0.844992
v 2.308296 2.699299 0.844992
v 2.503797 2.503797 0.292030
v 2.699299 2.699299 0.430271
v 2.503797 2.780278 0.430271
v 2.780278 2.503797 0.430271
v 2.699299 2.308296 0.430271
v 2.503797 2.227316 0.430271
v 2.308296 2.308296 0.430271
v 2.227316 2.503797 0.430271
v 2.308296 2.699299 0.430271
v 2.503797 3.055461 0.055834
v 2.113712 2.893882 0.055834
v 1.952134 2.503797 0.055834
v 2.113712 2.113712 0.055834
v 2.503797 1.952134 0.055834
v 2.893882 2.113712 0.055834
v 3.055461 2.503797 0.055834
v 2.893882 2.893882 0.055834
v 2.503797 2.642038 0.844992
v 2.601548 2.601548 0.844992
v 2.642038 2.503797 0.844992
v 2.601548 2.406047 0.844992
v 2.503797 2.365557 0.844992
v 2.406047 2.406047 0.844992
v 2.365557 2.503797 0.844992
v 2.406047 2.601548 0.844992
v 2.503797 2.642038 1.325864
v 2.406047 2.601548 1.325864
v 2.365557 2.503797 1.325864
v 2.406047 2.406047 1.325864
v 2.503797 2.365557 1.325864
v 2.601548 2.406047 1.325864
v 2.642038 2.503797 1.325864
v 2.601548 2.601548 1.325864
v 2.503797 2.503797 1.325864
vn -0.000000 -0.000000 -1.000000
vn 0.182807 0.441335 0.878525
vn 0.382683 0.923880 0.000000
vn 0.441335 0.182807 0.878525
vn 0.923879 0.382684 0.000000
vn 0.441335 -0.182807 0.878525
vn 0.923880 -0.382683 0.000000
vn 0.182807 -0.441335 0.878525
vn 0.382684 -0.923879 0.000000
vn -0.182807 -0.441335 0.878525
vn -0.382684 -0.923879 0.000000
vn -0.441335 -0.182807 0.878525
vn -0.923880 -0.382683 0.000000
vn -0.441335 0.182807 0.878525
vn -0.923879 0.382684 0.000000
vn -0.382683 0.923880 0.000000
vn -0.182807 0.441335 0.878525
vn -0.923880 0.382683 0.000000
vn -0.382683 -0.923880 0.000000
vn 0.382683 -0.923880 0.000000
vn 0.923880 0.382683 0.000000
vn 0.000000 0.000000 1.000000
vn -0.382682 0.923880 0.000000
vn -0.923880 -0.382684 0.000000
vn -0.382684 -0.923880 0.000000
vn 0.382684 -0.923880 0.000000
vn 0.923880 -0.382684 0.000000
vn 0.382682 0.923880 0.000000
usemtl 
s off
f 17//1 1//1 2//1
f 17//1 2//1 3//1
f 17//1 3//1 4//1
f 17//1 4//1 5//1
f 17//1 5//1 6//1
f 17//1 6//1 7//1
f 17//1 7//1 8//1
f 8//1 1//1 17//1
f 1//2 19//2 18//2 2//2
f 19//3 9//3 10//3 18//3
f 2//4 18//4 20//4 3//4
f 18//5 10//5 11//5 20//5
f 3//6 20//6 21//6 4//6
f 20//7 11//7 12//7 21//7
f 4//8 21//8 22//8 5//8
f 21//9 12//9 13//9 22//9
f 5//10 22//10 23//10 6//10
f 22//11 13//11 14//11 23//11
f 6//12 23//12 24//12 7//12
f 23//13 14//13 15//13 24//13
f 7//14 24//14 25//14 8//14
f 24//15 15//15 16//15 25//15
f 9//16 19//16 25//16 16//16
f 19//17 1//17 8//17 25//17
f 8//16 1//16 26//16 27//16
f 7//18 8//18 27//18 28//18
f 6//13 7//13 28//13 29//13
f 5//19 6//19 29//19 30//19
f 4//20 5//20 30//20 31//20
f 3//7 4//7 31//7 32//7
f 2//21 3//21 32//21 33//21
f 1//3 2//3 33//3 26//3
f 9//22 34//22 35//22 10//22
f 10//22 35//22 36//22 11//22
f 11//22 36//22 37//22 12//22
f 12//22 37//22 38//22 13//22
f 13//22 38//22 39//22 14//22
f 14//22 39//22 40//22 15//22
f 15//22 40//22 41//22 16//22
f 16//22 41//22 34//22 9//22
f 34//23 41//23 43//23 42//23
f 41//18 40//18 44//18 43//18
f 40//24 39//24 45//24 44//24
f 39//25 38//25 46//25 45//25
f 38//26 37//26 47//26 46//26
f 37//27 36//27 48//27 47//27
f 36//21 35//21 49//21 48//21
f 35//28 34//28 42//28 49//28
f 43//22 50//22 42//22
f 44//22 50//22 43//22
f 45//22 50//22 44//22
f 46//22 50//22 45//22
f 47//22 50//22 46//22
f 48//22 50//22 47//22
f 49//22 50//22 48//22
f 42//22 50//22 49//22
