# Rhino

v 9.929035186767578 4.999999046325684 1.446864008903503
v 9.929035186767578 4.999999046325684 1.446864008903503
v 9.929035186767578 4.999999046325684 1.220932960510254
v 9.929035186767578 4.999999046325684 1.220932960510254
v 9.737509727478027 4.999999046325684 1.220932960510254
v 9.737509727478027 4.999999046325684 1.220932960510254
v 9.737509727478027 4.999999046325684 0.06796800345182419
v 9.737509727478027 4.999999046325684 0.06796800345182419
v 9.62287712097168 6.539161205291748 1.446864008903503
v 9.62287712097168 6.539161205291748 1.446864008903503
v 9.62287712097168 6.539161205291748 1.220932960510254
v 9.62287712097168 6.539161205291748 1.220932960510254
v 9.622876167297363 3.460838079452515 1.446864008903503
v 9.622876167297363 3.460838079452515 1.446864008903503
v 9.622876167297363 3.460838079452515 1.220932960510254
v 9.622876167297363 3.460838079452515 1.220932960510254
v 9.445931434631348 6.465867042541504 1.220932960510254
v 9.445931434631348 6.465867042541504 1.220932960510254
v 9.445931434631348 6.465867042541504 0.06796800345182419
v 9.445931434631348 6.465867042541504 0.06796800345182419
v 9.445931434631348 3.534131050109863 1.220932960510254
v 9.445931434631348 3.534131050109863 1.220932960510254
v 9.445931434631348 3.534131050109863 0.06796800345182419
v 9.445931434631348 3.534131050109863 0.06796800345182419
v 8.751011848449707 7.843998908996582 1.446864008903503
v 8.751011848449707 7.843998908996582 1.446864008903503
v 8.751011848449707 7.843998908996582 1.220932960510254
v 8.751011848449707 7.843998908996582 1.220932960510254
v 8.751010894775391 2.155999898910523 1.446864008903503
v 8.751010894775391 2.155999898910523 1.446864008903503
v 8.751010894775391 2.155999898910523 1.220932960510254
v 8.751010894775391 2.155999898910523 1.220932960510254
v 8.615584373474121 7.708570957183838 1.220932960510254
v 8.615584373474121 7.708570957183838 1.220932960510254
v 8.615584373474121 7.708570957183838 0.06796800345182419
v 8.615584373474121 7.708570957183838 0.06796800345182419
v 8.615583419799805 2.291429042816162 1.220932960510254
v 8.615583419799805 2.291429042816162 1.220932960510254
v 8.615583419799805 2.291429042816162 0.06796800345182419
v 8.615583419799805 2.291429042816162 0.06796800345182419
v 7.446174144744873 8.715864181518555 1.446864008903503
v 7.446174144744873 8.715864181518555 1.446864008903503
v 7.446174144744873 8.715864181518555 1.220932960510254
v 7.446174144744873 8.715864181518555 1.220932960510254
v 7.446173191070557 1.284134984016419 1.446864008903503
v 7.446173191070557 1.284134984016419 1.446864008903503
v 7.446173191070557 1.284134984016419 1.220932960510254
v 7.446173191070557 1.284134984016419 1.220932960510254
v 7.372880935668945 8.538917541503906 1.220932960510254
v 7.372880935668945 8.538917541503906 1.220932960510254
v 7.372880935668945 8.538917541503906 0.06796800345182419
v 7.372880935668945 8.538917541503906 0.06796800345182419
v 7.372879981994629 1.461081027984619 1.220932960510254
v 7.372879981994629 1.461081027984619 1.220932960510254
v 7.372879981994629 1.461081027984619 0.06796800345182419
v 7.372879981994629 1.461081027984619 0.06796800345182419
v 5.907012939453125 9.022022247314453 1.446864008903503
v 5.907012939453125 9.022022247314453 1.446864008903503
v 5.907012939453125 9.022022247314453 1.220932960510254
v 5.907012939453125 9.022022247314453 1.220932960510254
v 5.907012939453125 8.830496788024902 1.220932960510254
v 5.907012939453125 8.830496788024902 1.220932960510254
v 5.907012939453125 8.830496788024902 0.06796800345182419
v 5.907012939453125 8.830496788024902 0.06796800345182419
v 5.907011032104492 1.169502973556519 1.220932960510254
v 5.907011032104492 1.169502973556519 1.220932960510254
v 5.907011032104492 1.169502973556519 0.06796800345182419
v 5.907011032104492 1.169502973556519 0.06796800345182419
v 5.907011032104492 0.977977991104126 1.446864008903503
v 5.907011032104492 0.977977991104126 1.446864008903503
v 5.907011032104492 0.977977991104126 1.220932960510254
v 5.907011032104492 0.977977991104126 1.220932960510254
v 4.441146850585938 8.538919448852539 1.220932960510254
v 4.441146850585938 8.538919448852539 1.220932960510254
v 4.441146850585938 8.538919448852539 0.06796800345182419
v 4.441146850585938 8.538919448852539 0.06796800345182419
v 4.441143035888672 1.461081981658936 1.220932960510254
v 4.441143035888672 1.461081981658936 1.220932960510254
v 4.441143035888672 1.461081981658936 0.06796800345182419
v 4.441143035888672 1.461081981658936 0.06796800345182419
v 4.367854118347168 8.715865135192871 1.446864008903503
v 4.367854118347168 8.715865135192871 1.446864008903503
v 4.367854118347168 8.715865135192871 1.220932960510254
v 4.367854118347168 8.715865135192871 1.220932960510254
v 4.367849826812744 1.284136056900024 1.446864008903503
v 4.367849826812744 1.284136056900024 1.446864008903503
v 4.367849826812744 1.284136056900024 1.220932960510254
v 4.367849826812744 1.284136056900024 1.220932960510254
v 3.198442935943604 7.708571910858154 1.220932960510254
v 3.198442935943604 7.708571910858154 1.220932960510254
v 3.198442935943604 7.708571910858154 0.06796800345182419
v 3.198442935943604 7.708571910858154 0.06796800345182419
v 3.198441028594971 2.291429996490479 1.220932960510254
v 3.198441028594971 2.291429996490479 1.220932960510254
v 3.198441028594971 2.291429996490479 0.06796800345182419
v 3.198441028594971 2.291429996490479 0.06796800345182419
v 3.063015937805176 7.843999862670898 1.446864008903503
v 3.063015937805176 7.843999862670898 1.446864008903503
v 3.063015937805176 7.843999862670898 1.220932960510254
v 3.063015937805176 7.843999862670898 1.220932960510254
v 3.063013076782227 2.156002044677734 1.446864008903503
v 3.063013076782227 2.156002044677734 1.446864008903503
v 3.063013076782227 2.156002044677734 1.220932960510254
v 3.063013076782227 2.156002044677734 1.220932960510254
v 2.368094921112061 6.465869903564453 1.220932960510254
v 2.368094921112061 6.465869903564453 1.220932960510254
v 2.368094921112061 6.465869903564453 0.06796800345182419
v 2.368094921112061 6.465869903564453 0.06796800345182419
v 2.368093013763428 3.534133911132813 1.220932960510254
v 2.368093013763428 3.534133911132813 1.220932960510254
v 2.368093013763428 3.534133911132813 0.06796800345182419
v 2.368093013763428 3.534133911132813 0.06796800345182419
v 2.191148996353149 6.539163112640381 1.446864008903503
v 2.191148996353149 6.539163112640381 1.446864008903503
v 2.191148996353149 6.539163112640381 1.220932960510254
v 2.191148996353149 6.539163112640381 1.220932960510254
v 2.191147089004517 3.460839986801148 1.446864008903503
v 2.191147089004517 3.460839986801148 1.446864008903503
v 2.191147089004517 3.460839986801148 1.220932960510254
v 2.191147089004517 3.460839986801148 1.220932960510254
v 2.076515913009644 5.000001907348633 1.220932960510254
v 2.076515913009644 5.000001907348633 1.220932960510254
v 2.076515913009644 5.000001907348633 0.06796800345182419
v 2.076515913009644 5.000001907348633 0.06796800345182419
v 1.884991049766541 5.000001907348633 1.446864008903503
v 1.884991049766541 5.000001907348633 1.446864008903503
v 1.884991049766541 5.000001907348633 1.220932960510254
v 1.884991049766541 5.000001907348633 1.220932960510254
vn 0.997809112071991 0.06615854054689407 0
vn 0 0 1
vn 0.9978090524673462 -0.06615927815437317 0
vn 0 0 -1
vn 0.997809112071991 0.06615880131721497 0
vn 0 0 -1
vn 0.997809112071991 -0.06615880131721497 0
vn 0 0 -1
vn 0.8965375423431397 0.4429678022861481 0
vn 0 0 1
vn 0.9471733570098877 0.3207220733165741 0
vn 0 0 -1
vn 0.9471731781959534 -0.3207225501537323 0
vn 0 0 1
vn 0.8965374231338501 -0.4429680109024048 0
vn 0 0 -1
vn 0.896537721157074 0.4429673552513123 0
vn 0 0 -1
vn 0.9471734166145325 0.3207218647003174 0
vn 0 0 -1
vn 0.9471732974052429 -0.3207222819328308 0
vn 0 0 -1
vn 0.8965373635292053 -0.4429681301116943 0
vn 0 0 -1
vn 0.6587762236595154 0.7523389458656311 0
vn 0 0 1
vn 0.7523389458656311 0.6587762236595154 0
vn 0 0 -1
vn 0.7523389458656311 -0.6587762236595154 0
vn 0 0 1
vn 0.6587762236595154 -0.7523389458656311 0
vn 0 0 -1
vn 0.6587762236595154 0.7523389458656311 0
vn 0 0 -1
vn 0.7523391842842102 0.6587759256362915 0
vn 0 0 -1
vn 0.7523387670516968 -0.6587764620780945 0
vn 0 0 -1
vn 0.6587761640548706 -0.7523390054702759 0
vn 0 0 -1
vn 0.3207221627235413 0.9471732974052429 0
vn 0 0 1
vn 0.4429678320884705 0.8965374827384949 0
vn 0 0 -1
vn 0.4429676234722138 -0.8965376019477844 0
vn 0 0 1
vn 0.3207216858863831 -0.9471734762191773 0
vn 0 0 -1
vn 0.3207219839096069 0.9471733570098877 0
vn 0 0 -1
vn 0.442967563867569 0.8965376019477844 0
vn 0 0 -1
vn 0.4429676830768585 -0.8965376019477844 0
vn 0 0 -1
vn 0.3207216560840607 -0.9471734762191773 0
vn 0 0 -1
vn 0 0 1
vn -0.06615857034921646 0.997809112071991 0
vn 0.0661589503288269 0.997809112071991 0
vn 0 0 -1
vn 0 0 -1
vn -0.06615853309631348 0.997809112071991 0
vn 0.06615892052650452 0.997809112071991 0
vn 0 0 -1
vn 0.06615827232599258 -0.997809112071991 0
vn 0 0 -1
vn 0 0 -1
vn -0.06615904718637466 -0.997809112071991 0
vn 0.06615831702947617 -0.997809112071991 0
vn 0 0 1
vn 0 0 -1
vn -0.06615906953811646 -0.997809112071991 0
vn 0 0 -1
vn -0.4429672360420227 0.8965377807617188 0
vn 0 0 -1
vn -0.3207215964794159 0.947173535823822 0
vn 0 0 -1
vn -0.3207222819328308 -0.9471732974052429 0
vn 0 0 -1
vn -0.4429681301116943 -0.8965373635292053 0
vn 0 0 1
vn -0.4429677426815033 0.8965375423431397 0
vn 0 0 -1
vn -0.3207219243049622 0.9471734166145325 0
vn 0 0 1
vn -0.3207224309444428 -0.9471732378005981 0
vn 0 0 -1
vn -0.4429683685302734 -0.8965372443199158 0
vn 0 0 -1
vn -0.7523385286331177 0.6587767004966736 0
vn 0 0 -1
vn -0.6587756872177124 0.7523394227027893 0
vn 0 0 -1
vn -0.6587765216827393 -0.7523386478424072 0
vn 0 0 -1
vn -0.7523391246795654 -0.6587759852409363 0
vn 0 0 1
vn -0.7523382902145386 0.6587769389152527 0
vn 0 0 -1
vn -0.6587758660316467 0.752339243888855 0
vn 0 0 1
vn -0.6587765216827393 -0.7523386478424072 0
vn 0 0 -1
vn -0.7523388862609863 -0.6587762832641602 0
vn 0 0 -1
vn -0.9471732974052429 0.3207222819328308 0
vn 0 0 -1
vn -0.8965373635292053 0.4429681301116943 0
vn 0 0 -1
vn -0.8965377807617188 -0.4429672956466675 0
vn 0 0 -1
vn -0.9471736550331116 -0.3207212090492249 0
vn 0 0 1
vn -0.9471731781959534 0.3207225799560547 0
vn 0 0 -1
vn -0.8965370655059815 0.4429686963558197 0
vn 0 0 1
vn -0.8965375423431397 -0.4429677426815033 0
vn 0 0 -1
vn -0.947173535823822 -0.320721447467804 0
vn 0 0 -1
vn -0.9978091716766357 -0.06615790724754334 0
vn 0 0 -1
vn -0.9978090524673462 0.06615921854972839 0
vn 0 0 1
vn -0.9978091716766357 -0.06615789979696274 0
vn 0 0 -1
vn -0.9978090524673462 0.06615927070379257 0
f 84//84 82//82 58//58 59//59
f 59//59 58//58 41//41 43//43
f 43//43 41//41 25//25 27//27
f 27//27 25//25 9//9 11//11
f 11//11 9//9 1//1 3//3
f 3//3 1//1 13//13 15//15
f 15//15 13//13 29//29 31//31
f 31//31 29//29 45//45 47//47
f 47//47 45//45 69//69 72//72
f 72//72 69//69 86//86 88//88
f 88//88 86//86 102//102 104//104
f 104//104 102//102 118//118 120//120
f 120//120 118//118 126//126 128//128
f 128//128 126//126 114//114 116//116
f 116//116 114//114 98//98 100//100
f 100//100 98//98 82//82 84//84
f 73//73 83//83 60//60 61//61
f 61//61 60//60 44//44 50//50
f 50//50 44//44 28//28 34//34
f 34//34 28//28 12//12 18//18
f 18//18 12//12 4//4 6//6
f 6//6 4//4 16//16 22//22
f 22//22 16//16 32//32 38//38
f 38//38 32//32 48//48 54//54
f 54//54 48//48 71//71 66//66
f 66//66 71//71 87//87 77//77
f 77//77 87//87 103//103 93//93
f 93//93 103//103 119//119 109//109
f 109//109 119//119 127//127 121//121
f 121//121 127//127 115//115 105//105
f 105//105 115//115 99//99 89//89
f 89//89 99//99 83//83 73//73
f 26//26 42//42 57//57 10//10
f 2//2 10//10 57//57 14//14
f 30//30 14//14 57//57 46//46
f 70//70 46//46 57//57 85//85
f 101//101 85//85 57//57 117//117
f 125//125 117//117 57//57 113//113
f 97//97 113//113 57//57 81//81
f 123//123 107//107 91//91 111//111
f 95//95 111//111 91//91 79//79
f 67//67 79//79 91//91 56//56
f 40//40 56//56 91//91 24//24
f 8//8 24//24 91//91 20//20
f 36//36 20//20 91//91 52//52
f 64//64 52//52 91//91 75//75
f 76//76 74//74 62//62 63//63
f 63//63 62//62 49//49 51//51
f 51//51 49//49 33//33 35//35
f 35//35 33//33 17//17 19//19
f 19//19 17//17 5//5 7//7
f 7//7 5//5 21//21 23//23
f 23//23 21//21 37//37 39//39
f 39//39 37//37 53//53 55//55
f 55//55 53//53 65//65 68//68
f 68//68 65//65 78//78 80//80
f 80//80 78//78 94//94 96//96
f 96//96 94//94 110//110 112//112
f 112//112 110//110 122//122 124//124
f 124//124 122//122 106//106 108//108
f 108//108 106//106 90//90 92//92
f 92//92 90//90 74//74 76//76
