# Rhino

v 4.926848888397217 2.517330884933472 0.2789190113544464
v 4.926848888397217 2.517330884933472 0.2789190113544464
v 4.926848888397217 2.517330884933472 0.04458700120449066
v 4.926848888397217 2.517330884933472 0.04458700120449066
v 4.356784820556641 3.893587112426758 0.2789190113544464
v 4.356784820556641 3.893587112426758 0.2789190113544464
v 4.356784820556641 3.893587112426758 0.04458700120449066
v 4.356784820556641 3.893587112426758 0.04458700120449066
v 4.356784820556641 1.141075015068054 0.2789190113544464
v 4.356784820556641 1.141075015068054 0.2789190113544464
v 4.356784820556641 1.141075015068054 0.04458700120449066
v 4.356784820556641 1.141075015068054 0.04458700120449066
v 2.980529069900513 4.46365213394165 0.2789190113544464
v 2.980529069900513 4.46365213394165 0.2789190113544464
v 2.980529069900513 4.46365213394165 0.04458700120449066
v 2.980529069900513 4.46365213394165 0.04458700120449066
v 2.980529069900513 0.571012020111084 0.2789190113544464
v 2.980529069900513 0.571012020111084 0.2789190113544464
v 2.980529069900513 0.571012020111084 0.04458700120449066
v 2.980529069900513 0.571012020111084 0.04458700120449066
v 1.604272961616516 3.893587112426758 0.2789190113544464
v 1.604272961616516 3.893587112426758 0.2789190113544464
v 1.604272961616516 3.893587112426758 0.04458700120449066
v 1.604272961616516 3.893587112426758 0.04458700120449066
v 1.604272961616516 1.141075015068054 0.2789190113544464
v 1.604272961616516 1.141075015068054 0.2789190113544464
v 1.604272961616516 1.141075015068054 0.04458700120449066
v 1.604272961616516 1.141075015068054 0.04458700120449066
v 1.03420901298523 2.517330884933472 0.2789190113544464
v 1.03420901298523 2.517330884933472 0.2789190113544464
v 1.03420901298523 2.517330884933472 0.04458700120449066
v 1.03420901298523 2.517330884933472 0.04458700120449066
vn 0.9906023144721985 -0.1367736607789993 0
vn 0 0 1
vn 0.9906023144721985 0.1367736607789993 0
vn 0 0 -1
vn 0.7971752882003784 0.6037479043006897 0
vn 0 0 1
vn 0.6037484407424927 0.7971749305725098 0
vn 0 0 -1
vn 0.6037477254867554 -0.7971754670143127 0
vn 0 0 1
vn 0.7971750497817993 -0.6037482023239136 0
vn 0 0 -1
vn 0.1367738991975784 0.9906023144721985 0
vn 0 0 1
vn 0 0 -1
vn -0.1367738991975784 0.9906023144721985 0
vn 0 0 1
vn -0.1367734372615814 -0.9906023740768433 0
vn 0.1367734372615814 -0.9906023740768433 0
vn 0 0 -1
vn 0 0 1
vn -0.6037484407424927 0.7971749305725098 0
vn 0 0 -1
vn -0.7971752882003784 0.6037479043006897 0
vn 0 0 1
vn -0.7971750497817993 -0.6037482023239136 0
vn 0 0 -1
vn -0.6037477254867554 -0.7971754670143127 0
vn 0 0 1
vn -0.9906023144721985 0.1367736607789993 0
vn 0 0 -1
vn -0.9906023144721985 -0.1367736607789993 0
f 27//27 31//31 23//23 4//4
f 8//8 4//4 23//23 15//15
f 29//29 25//25 2//2 21//21
f 17//17 10//10 2//2 25//25
f 21//21 2//2 6//6 14//14
f 12//12 20//20 27//27 4//4
f 30//30 22//22 24//24 32//32
f 22//22 13//13 16//16 24//24
f 13//13 5//5 7//7 16//16
f 5//5 1//1 3//3 7//7
f 1//1 9//9 11//11 3//3
f 9//9 18//18 19//19 11//11
f 18//18 26//26 28//28 19//19
f 26//26 30//30 32//32 28//28
