# Blender v2.63 (sub 0) OBJ File: 'rocketlauncher_base.blend'
# www.blender.org
mtllib rocketlauncher.mtl
o Cylinder.001
v 3.303175 9.096498 0.036926
v 3.303175 9.096498 0.796230
v 6.696826 9.096498 0.036926
v 6.696826 9.096498 0.796230
v 9.096498 6.696825 0.036926
v 9.096498 6.696825 0.796230
v 9.096498 3.303174 0.036926
v 9.096498 3.303174 0.796230
v 6.696825 0.903501 0.036926
v 6.696825 0.903501 0.796230
v 3.303174 0.903502 0.036926
v 3.303174 0.903502 0.796230
v 0.903501 3.303175 0.036926
v 0.903501 3.303175 0.796230
v 0.903501 6.696825 0.036926
v 0.903501 6.696825 0.796230
vn 0.000000 1.000000 0.000000
vn 0.707107 0.707107 0.000000
vn 1.000000 -0.000000 0.000000
vn 0.707107 -0.707107 0.000000
vn -0.000000 -1.000000 0.000000
vn -0.707107 -0.707107 0.000000
vn 0.000000 0.000000 1.000000
vn -0.707107 0.707107 0.000000
vn -1.000000 -0.000000 0.000000
vn 0.000000 0.000000 -1.000000
usemtl 
s off
f 1//1 2//1 4//1 3//1
f 3//2 4//2 6//2 5//2
f 5//3 6//3 8//3 7//3
f 7//4 8//4 10//4 9//4
f 9//5 10//5 12//5 11//5
f 11//6 12//6 14//6 13//6
f 4//7 2//7 16//7
f 4//7 16//7 6//7
f 16//7 14//7 6//7
f 14//7 12//7 6//7
f 12//7 8//7 6//7
f 12//7 10//7 8//7
f 2//8 1//8 15//8 16//8
f 13//9 14//9 16//9 15//9
f 1//10 3//10 15//10
f 3//10 5//10 15//10
f 5//10 13//10 15//10
f 5//10 11//10 13//10
f 5//10 7//10 11//10
f 7//10 9//10 11//10
o Plane
v 7.164844 3.068893 0.494708
v 3.302630 3.068893 0.494708
v 7.164844 6.931107 0.494708
v 3.302630 6.931107 0.494708
usemtl 
s off
f 18//7 17//7 19//7 20//7
