# Rhino

g ______24
o object_1
v 4.588 5.444 1.018
v 4.588 5.444 1.732
v 4.588 4.554 1.018
v 4.588 4.554 1.732
v 4.974 6.247 1.018
v 4.974 6.247 1.732
v 4.975 3.752 1.018
v 4.975 3.752 1.732
v 5.67 6.802 1.018
v 5.67 6.802 1.732
v 5.671 3.197 1.018
v 5.671 3.197 1.732
v 6.538 7.001 1.018
v 6.538 7.001 1.732
v 6.539 2.999 1.018
v 6.539 2.999 1.732
v 7.406 6.803 1.018
v 7.406 6.803 1.732
v 7.407 3.198 1.018
v 7.407 3.198 1.732
v 8.102 6.248 1.018
v 8.102 6.248 1.732
v 8.103 3.753 1.018
v 8.103 3.753 1.732
v 8.489 5.446 1.018
v 8.489 5.446 1.732
v 8.489 4.556 1.018
v 8.489 4.556 1.732
vn 0.0004025 -1 0
vn 0.0004025 -1 0
vn -0.4335 -0.9011 0
vn -0.4335 -0.9011 0
vn -0.7816 -0.6238 0
vn -0.7816 -0.6238 0
vn -0.9748 -0.2229 0
vn -0.9748 -0.2229 0
vn -0.975 0.2221 0
vn -0.975 0.2221 0
vn -0.7821 0.6232 0
vn -0.7821 0.6232 0
vn -0.4342 0.9008 0
vn -0.4342 0.9008 0
vn -0.0004025 1 0
vn -0.0004025 1 0
vn 0.4335 0.9011 0
vn 0.4335 0.9011 0
vn 0.7816 0.6238 0
vn 0.7816 0.6238 0
vn 0.9748 0.2229 0
vn 0.9748 0.2229 0
vn 0.975 -0.2221 0
vn 0.975 -0.2221 0
vn 0.7821 -0.6232 0
vn 0.7821 -0.6232 0
vn 0.4342 -0.9008 0
vn 0.4342 -0.9008 0
vn 0.0004025 -1 0
vn 0.0004025 -1 0
vn 0 0 1
vn 0 0 1
vn 0 0 1
vn 0 0 1
vn 0 0 1
vn 0 0 1
vn 0 0 1
vn 0 0 1
vn 0 0 1
vn 0 0 1
vn 0 0 1
vn 0 0 1
vn 0 0 1
vn 0 0 1
vn 0 0 -1
vn 0 0 -1
vn 0 0 -1
vn 0 0 -1
vn 0 0 -1
vn 0 0 -1
vn 0 0 -1
vn 0 0 -1
vn 0 0 -1
vn 0 0 -1
vn 0 0 -1
vn 0 0 -1
vn 0 0 -1
vn 0 0 -1
f 16//1 12//3 11//4 15//2
f 12//3 8//5 7//6 11//4
f 8//5 4//7 3//8 7//6
f 4//7 2//9 1//10 3//8
f 2//9 6//11 5//12 1//10
f 6//11 10//13 9//14 5//12
f 10//13 14//15 13//16 9//14
f 14//15 18//17 17//18 13//16
f 18//17 22//19 21//20 17//18
f 22//19 26//21 25//22 21//20
f 26//21 28//23 27//24 25//22
f 28//23 24//25 23//26 27//24
f 24//25 20//27 19//28 23//26
f 20//27 16//29 15//30 19//28
f 18//39 6//36 24//43
f 18//39 24//43 22//40
f 10//37 18//39 14//38
f 6//36 18//39 10//37
f 2//35 8//33 6//36
f 26//41 22//40 28//42
f 8//33 24//43 6//36
f 20//44 24//43 16//31
f 4//34 8//33 2//35
f 8//33 12//32 16//31
f 8//33 16//31 24//43
f 24//43 28//42 22//40
f 17//53 23//57 5//50
f 17//53 21//54 23//57
f 9//51 13//52 17//53
f 5//50 9//51 17//53
f 1//49 5//50 7//47
f 25//55 27//56 21//54
f 7//47 5//50 23//57
f 19//58 15//45 23//57
f 3//48 1//49 7//47
f 7//47 15//45 11//46
f 7//47 23//57 15//45
f 23//57 21//54 27//56
g ______23
o object_2
v 3.782 5.708 6.191
v 3.782 5.708 6.557
v 3.782 5.708 6.923
v 3.782 6.044 6.923
v 3.782 6.07 6.557
v 3.782 6.097 6.191
v 3.851 6.126 5.782
v 3.919 6.156 5.372
v 3.987 6.186 4.963
v 4.056 5.708 4.553
v 4.056 6.215 4.553
v 4.124 6.245 4.143
v 4.193 6.274 3.734
v 4.261 6.304 3.324
v 4.271 5.708 6.926
v 4.271 6.044 6.926
v 4.33 5.708 2.915
v 4.33 6.021 2.915
v 4.33 6.334 2.915
v 4.508 6.35 2.688
v 4.606 6.197 4.809
v 4.606 6.275 3.727
v 4.66 5.708 2.496
v 4.759 5.708 6.929
v 4.759 6.043 6.929
v 4.779 6.35 2.345
v 4.922 6.07 6.555
v 4.99 5.708 2.077
v 5.049 6.35 2.001
v 5.085 6.097 6.182
v 5.167 6.35 2.688
v 5.248 6.124 5.808
v 5.319 5.708 1.658
v 5.319 6.029 1.658
v 5.319 6.35 1.658
v 5.411 6.151 5.434
v 5.411 5.708 5.434
v 5.463 6.275 3.727
v 5.574 6.178 5.061
v 5.737 6.205 4.687
v 5.826 6.35 2.688
v 5.9 6.232 4.314
v 6.062 5.708 3.94
v 6.062 6.26 3.94
v 6.333 6.282 3.627
v 6.485 6.35 2.688
v 6.565 5.708 1.658
v 6.565 6.35 1.658
v 6.603 6.305 3.314
v 6.874 6.327 3.001
v 6.936 5.708 2.929
v 7.144 6.35 2.688
v 7.81 5.708 1.658
v 7.81 5.708 1.918
v 7.81 6.029 1.658
v 7.81 6.029 1.918
v 7.81 6.35 1.658
v 7.81 6.35 1.918
vn -1.067e-16 0.9974 0.07213
vn 0 0.9974 0.07213
vn 0 0.9974 0.07213
vn 0 0.9974 0.07213
vn 0 0.9974 0.07213
vn 0 0.9974 0.07213
vn 0 0.9974 0.07213
vn 0 0.9974 0.07213
vn -2.306e-17 0.9974 0.07213
vn -2.969e-17 0.9974 0.07213
vn -4.936e-17 0.9974 0.07213
vn -5.737e-17 0.9974 0.07213
vn -4.004e-18 0.9974 0.07213
vn 4.004e-18 0.9974 0.07213
vn -1.147e-16 0.9974 0.07213
vn -4.004e-18 0.9974 0.07213
vn 6.367e-17 0.9974 0.07213
vn -7.137e-17 0.9974 0.07213
vn 4.004e-18 0.9974 0.07213
vn 5.637e-17 0.9974 0.07213
vn 0 0.9974 0.07213
vn 0 0.9974 0.07213
vn 0 0.9974 0.07213
vn 0 0.9974 0.07213
vn 8.008e-18 0.9974 0.07213
vn 1.147e-16 0.9974 0.07213
vn 0 0.9974 0.07213
vn -4.004e-18 0.9974 0.07213
vn 0 0.9974 0.07213
vn 0 0.9974 0.07213
vn 0 0.9974 0.07213
vn 0 0.9974 0.07213
vn 0 1 0
vn -2.776e-17 1 0
vn 0 1 0
vn -2.949e-17 1 0
vn -2.949e-17 1 0
vn -2.949e-17 1 0
vn 0 1 0
vn 0 1 0
vn 0 1 0
vn -1.11e-16 1 0
vn 1.11e-16 1 0
vn -0.006048 0 1
vn -0.006048 0 1
vn -0.006048 0 1
vn -0.006048 0 1
vn -0.006048 0 1
vn -0.006048 0 1
vn -1 0 -4.441e-16
vn -1 0 0
vn -1 0 0
vn -1 0 0
vn -1 0 0
vn -1 0 0
vn -0.9863 0 -0.1648
vn -0.9863 0 -0.1648
vn -0.9863 0 -0.1648
vn -0.9863 0 -0.1648
vn -0.9863 0 -0.1648
vn -0.9863 0 -0.1648
vn -0.9863 0 -0.1648
vn -0.9863 0 -0.1648
vn -0.9863 0 -0.1648
vn -0.9863 0 -0.1648
vn -0.9863 0 -0.1648
vn -0.9863 0 -0.1648
vn -0.9863 0 -0.1648
vn -0.7857 0 -0.6186
vn -0.7857 0 -0.6186
vn -0.7857 0 -0.6186
vn -0.7857 0 -0.6186
vn -0.7857 0 -0.6186
vn -0.7857 0 -0.6186
vn -0.7857 0 -0.6186
vn -0.7857 0 -0.6186
vn -0.7857 0 -0.6186
vn -0.7857 0 -0.6186
vn -0.7857 0 -0.6186
vn 0 0 -1
vn 0 0 -1
vn 0 0 -1
vn 0 0 -1
vn 0 0 -1
vn 0 0 -1
vn 0 0 -1
vn 0 0 -1
vn 1 0 0
vn 1 0 0
vn 1 0 0
vn 1 0 0
vn 1 0 0
vn 1 0 0
vn 0.7565 0 0.6539
vn 0.7565 0 0.6539
vn 0.7565 0 0.6539
vn 0.7565 0 0.6539
vn 0.7565 0 0.6539
vn 0.7565 0 0.6539
vn 0.7565 0 0.6539
vn 0.7565 0 0.6539
vn 0.7565 0 0.6539
vn 0.7565 0 0.6539
vn 0.9166 0 0.3997
vn 0.9166 0 0.3997
vn 0.9166 0 0.3997
vn 0.9166 0 0.3997
vn 0.9166 0 0.3997
vn 0.9166 0 0.3997
vn 0.9166 0 0.3997
vn 0.9166 0 0.3997
vn 0.9166 0 0.3997
vn 0.9166 0 0.3997
vn 0.9166 0 0.3997
vn 0.9166 0 0.3997
vn 0 -1 0
vn 0 -1 0
vn 0 -1 0
vn 0 -1 0
vn 0 -1 0
vn 0 -1 0
vn 1.11e-16 -1 0
vn 8.327e-17 -1 0
vn -9.714e-17 -1 0
vn -1.006e-16 -1 0
vn -1.006e-16 -1 0
vn -1.006e-16 -1 0
vn 5.551e-17 -1 0
vn 5.551e-17 -1 0
vn 1.11e-16 -1 0
vn 1.11e-16 -1 0
f 66//61 50//60 49//59
f 33//78 44//76 34//77
f 35//86 34//77 55//68
f 44//76 33//78 32//75
f 49//59 36//85 58//69
f 36//85 49//59 37//84
f 36//85 35//86 58//69
f 55//68 34//77 44//76
f 50//60 41//81 40//82
f 41//81 50//60 42//80
f 39//83 49//59 40//82
f 42//80 50//60 47//79
f 50//60 48//87 47//79
f 59//90 48//87 50//60 66//61
f 49//59 50//60 40//82
f 49//59 39//83 37//84
f 44//76 53//67 55//68
f 58//69 60//70 49//59
f 64//71 67//72 49//59
f 64//71 49//59 60//70
f 66//61 49//59 68//73
f 66//61 70//74 72//62
f 70//74 66//61 68//73
f 67//72 68//73 49//59
f 69//89 66//61 73//63
f 72//62 73//63 66//61
f 66//61 69//89 59//90
f 69//89 73//63 74//88
f 74//88 77//64 78//65
f 78//65 80//66 74//88
f 73//63 77//64 74//88
f 55//68 58//69 35//86
f 57//101 54//100 69//98
f 59//99 54//100 48//91
f 54//100 59//99 69//98
f 76//96 63//95 57//101
f 86//92 85//94 76//96
f 57//101 74//97 86//92
f 74//97 57//101 69//98
f 86//92 74//97 80//93
f 86//92 76//96 57//101
f 31//103 44//105 32//102
f 43//107 44//105 31//103
f 52//104 53//106 43//107
f 44//105 43//107 53//106
f 30//113 33//111 29//109
f 34//108 29//109 33//111
f 30//113 31//110 32//112
f 33//111 30//113 32//112
f 46//126 41//118 42//117
f 46//126 42//117 47//114
f 38//125 46//126 45//115
f 41//118 46//126 40//119
f 40//119 46//126 39//120
f 38//125 36//122 37//121
f 38//125 37//121 39//120
f 29//116 35//123 38//125
f 36//122 38//125 35//123
f 35//123 29//116 34//124
f 46//126 38//125 39//120
f 62//135 57//136 63//127
f 61//128 56//134 62//135
f 57//136 62//135 56//134
f 57//136 56//134 51//133 54//137
f 48//130 54//137 51//133
f 47//131 48//130 46//132
f 45//129 46//132 51//133
f 48//130 51//133 46//132
f 83//145 76//142 85//138
f 83//145 81//139 75//144
f 62//143 63//140 76//142 83//145
f 83//145 75//144 61//141 62//143
f 84//151 83//150 85//148 86//146
f 82//147 81//149 83//150 84//151
f 77//157 73//156 79//161
f 71//152 73//156 72//155
f 73//156 71//152 79//161
f 79//161 78//158 77//157
f 84//160 86//153 80//159
f 82//154 84//160 79//161
f 84//160 78//158 79//161
f 80//159 78//158 84//160
f 55//166 65//173 58//167
f 58//167 65//173 60//168
f 52//162 55//166 53//165
f 55//166 52//162 65//173
f 65//173 64//169 60//168
f 71//164 72//163 70//172
f 71//164 70//172 68//171
f 71//164 67//170 65//173
f 64//169 65//173 67//170
f 68//171 67//170 71//164
f 29//178 65//189 52//174
f 71//188 38//179 45//180
f 29//178 38//179 65//189
f 43//175 31//176 30//177
f 29//178 43//175 30//177
f 43//175 29//178 52//174
f 51//181 71//188 45//180
f 75//184 71//188 61//183
f 75//184 81//185 82//186
f 82//186 79//187 75//184
f 56//182 71//188 51//181
f 65//189 38//179 71//188
f 61//183 71//188 56//182
f 71//188 75//184 79//187
o object_3
v 4.563 6.286 3.333
v 4.563 6.286 3.452
v 4.563 6.442 3.333
v 4.563 6.442 3.452
v 5.684 6.286 3.333
v 5.684 6.286 3.452
v 5.684 6.442 3.333
v 5.684 6.442 3.452
vn -1 0 0
vn -1 0 0
vn -1 0 0
vn -1 0 0
vn 0 -1 0
vn 0 -1 0
vn 0 -1 0
vn 0 -1 0
vn 1 0 0
vn 1 0 0
vn 1 0 0
vn 1 0 0
vn 0 1 0
vn 0 1 0
vn 0 1 0
vn 0 1 0
vn 0 0 -1
vn 0 0 -1
vn 0 0 -1
vn 0 0 -1
vn 0 0 1
vn 0 0 1
vn 0 0 1
vn 0 0 1
f 89//190 87//192 88//193 90//191
f 87//194 91//196 92//197 88//195
f 91//198 93//200 94//201 92//199
f 93//202 89//204 90//205 94//203
f 89//206 93//209 91//208
f 91//208 87//207 89//206
f 90//210 92//212 94//213
f 92//212 90//210 88//211
o object_4
v 4.44 6.246 3.828
v 4.44 6.246 3.947
v 4.44 6.402 3.828
v 4.44 6.402 3.947
v 5.561 6.246 3.828
v 5.561 6.246 3.947
v 5.561 6.402 3.828
v 5.561 6.402 3.947
vn -1 0 0
vn -1 0 0
vn -1 0 0
vn -1 0 0
vn 0 -1 0
vn 0 -1 0
vn 0 -1 0
vn 0 -1 0
vn 1 0 0
vn 1 0 0
vn 1 0 0
vn 1 0 0
vn 0 1 0
vn 0 1 0
vn 0 1 0
vn 0 1 0
vn 0 0 -1
vn 0 0 -1
vn 0 0 -1
vn 0 0 -1
vn 0 0 1
vn 0 0 1
vn 0 0 1
vn 0 0 1
f 97//214 95//216 96//217 98//215
f 95//218 99//220 100//221 96//219
f 99//222 101//224 102//225 100//223
f 101//226 97//228 98//229 102//227
f 97//230 101//233 99//232
f 99//232 95//231 97//230
f 98//234 100//236 102//237
f 100//236 98//234 96//235
o object_5
v 4.311 6.206 4.372
v 4.311 6.206 4.491
v 4.311 6.362 4.372
v 4.311 6.362 4.491
v 5.432 6.206 4.372
v 5.432 6.206 4.491
v 5.432 6.362 4.372
v 5.432 6.362 4.491
vn -1 0 0
vn -1 0 0
vn -1 0 0
vn -1 0 0
vn 0 -1 0
vn 0 -1 0
vn 0 -1 0
vn 0 -1 0
vn 1 0 0
vn 1 0 0
vn 1 0 0
vn 1 0 0
vn 0 1 0
vn 0 1 0
vn 0 1 0
vn 0 1 0
vn 0 0 -1
vn 0 0 -1
vn 0 0 -1
vn 0 0 -1
vn 0 0 1
vn 0 0 1
vn 0 0 1
vn 0 0 1
f 105//238 103//240 104//241 106//239
f 103//242 107//244 108//245 104//243
f 107//246 109//248 110//249 108//247
f 109//250 105//252 106//253 110//251
f 105//254 109//257 107//256
f 107//256 103//255 105//254
f 106//258 108//260 110//261
f 108//260 106//258 104//259
g ______22
o object_6
v 3.782 3.907 6.191
v 3.782 3.933 6.557
v 3.782 3.96 6.923
v 3.782 4.296 6.191
v 3.782 4.296 6.557
v 3.782 4.296 6.923
v 3.851 3.877 5.782
v 3.919 3.848 5.372
v 3.987 3.818 4.963
v 4.056 3.789 4.553
v 4.056 4.296 4.553
v 4.124 3.759 4.143
v 4.193 3.729 3.734
v 4.261 3.7 3.324
v 4.271 3.96 6.926
v 4.271 4.296 6.926
v 4.33 3.67 2.915
v 4.33 4.296 2.915
v 4.508 3.654 2.688
v 4.606 3.729 3.727
v 4.606 3.807 4.809
v 4.759 3.96 6.929
v 4.759 4.296 6.929
v 4.825 4.296 2.286
v 4.914 3.654 2.173
v 4.922 3.933 6.555
v 5.085 3.906 6.182
v 5.167 3.654 2.688
v 5.248 3.879 5.808
v 5.319 3.654 1.658
v 5.319 4.296 1.658
v 5.411 3.852 5.434
v 5.411 4.296 5.434
v 5.463 3.729 3.727
v 5.574 3.825 5.061
v 5.737 3.798 4.687
v 5.826 3.654 2.688
v 5.9 3.771 4.314
v 6.062 3.744 3.94
v 6.062 4.296 3.94
v 6.333 3.722 3.627
v 6.485 3.654 2.688
v 6.565 3.654 1.658
v 6.565 4.296 1.658
v 6.603 3.699 3.314
v 6.874 3.676 3.001
v 6.936 4.296 2.929
v 7.144 3.654 2.688
v 7.81 3.654 1.658
v 7.81 3.654 1.918
v 7.81 3.975 1.658
v 7.81 3.975 1.918
v 7.81 4.296 1.658
v 7.81 4.296 1.918
vn 4.004e-18 -0.9974 0.07213
vn 1.107e-16 -0.9974 0.07213
vn 1.107e-16 -0.9974 0.07213
vn -1.107e-16 -0.9974 0.07213
vn 1.107e-16 -0.9974 0.07213
vn 0 -0.9974 0.07213
vn -1.107e-16 -0.9974 0.07213
vn 0 -0.9974 0.07213
vn 2.366e-17 -0.9974 0.07213
vn 6.721e-17 -0.9974 0.07213
vn -4.936e-17 -0.9974 0.07213
vn 6.137e-17 -0.9974 0.07213
vn -5.937e-17 -0.9974 0.07213
vn -4.004e-18 -0.9974 0.07213
vn -4.004e-18 -0.9974 0.07213
vn 1.067e-16 -0.9974 0.07213
vn 4.291e-17 -0.9974 0.07213
vn 5.034e-17 -0.9974 0.07213
vn -1.067e-16 -0.9974 0.07213
vn 1.001e-18 -0.9974 0.07213
vn 0 -0.9974 0.07213
vn 0 -0.9974 0.07213
vn 1.107e-16 -0.9974 0.07213
vn -1.107e-16 -0.9974 0.07213
vn 1.187e-16 -0.9974 0.07213
vn -1.067e-16 -0.9974 0.07213
vn 5.537e-17 -0.9974 0.07213
vn -4.004e-18 -0.9974 0.07213
vn 0 -0.9974 0.07213
vn 0 -0.9974 0.07213
vn 0 -0.9974 0.07213
vn 0 -0.9974 0.07213
vn 2.776e-17 -1 0
vn -2.776e-17 -1 0
vn 2.776e-17 -1 0
vn -4.163e-17 -1 0
vn -4.163e-17 -1 0
vn -4.163e-17 -1 0
vn 2.776e-17 -1 0
vn 2.776e-17 -1 0
vn 2.776e-17 -1 0
vn 1.388e-17 -1 0
vn -0.006048 0 1
vn -0.006048 0 1
vn -0.006048 0 1
vn -0.006048 0 1
vn -0.006048 0 1
vn -0.006048 0 1
vn -1 0 0
vn -1 0 0
vn -1 0 0
vn -1 0 0
vn -1 0 0
vn -1 0 0
vn -0.9863 0 -0.1648
vn -0.9863 0 -0.1648
vn -0.9863 0 -0.1648
vn -0.9863 0 -0.1648
vn -0.9863 0 -0.1648
vn -0.9863 0 -0.1648
vn -0.9863 0 -0.1648
vn -0.9863 0 -0.1648
vn -0.9863 0 -0.1648
vn -0.9863 0 -0.1648
vn -0.9863 0 -0.1648
vn -0.9863 0 -0.1648
vn -0.7857 0 -0.6186
vn -0.7857 0 -0.6186
vn -0.7857 0 -0.6186
vn -0.7857 0 -0.6186
vn -0.7857 0 -0.6186
vn -0.7857 0 -0.6186
vn -0.7857 0 -0.6186
vn 0 0 -1
vn 0 0 -1
vn 0 0 -1
vn 0 0 -1
vn 0 0 -1
vn 0 0 -1
vn 0 0 -1
vn 1 0 0
vn 1 0 0
vn 1 0 0
vn 1 0 0
vn 1 0 0
vn 1 0 0
vn 0.7565 0 0.6539
vn 0.7565 0 0.6539
vn 0.7565 0 0.6539
vn 0.7565 0 0.6539
vn 0.7565 0 0.6539
vn 0.7565 0 0.6539
vn 0.7565 0 0.6539
vn 0.7565 0 0.6539
vn 0.7565 0 0.6539
vn 0.7565 0 0.6539
vn 0.9166 0 0.3997
vn 0.9166 0 0.3997
vn 0.9166 0 0.3997
vn 0.9166 0 0.3997
vn 0.9166 0 0.3997
vn 0.9166 0 0.3997
vn 0.9166 0 0.3997
vn 0.9166 0 0.3997
vn 0.9166 0 0.3997
vn 0.9166 0 0.3997
vn 0.9166 0 0.3997
vn 0.9166 0 0.3997
vn 0 1 0
vn 0 1 0
vn 0 1 0
vn 1.11e-16 1 0
vn 0 1 0
vn -1.11e-16 1 0
vn 5.551e-17 1 0
vn -5.551e-17 1 0
vn 2.082e-17 1 0
vn 2.082e-17 1 0
vn 2.082e-17 1 0
vn 5.551e-17 1 0
vn -5.551e-17 1 0
vn 5.551e-17 1 0
vn -1.11e-16 1 0
f 144//264 131//262 130//263
f 112//281 111//280 125//279
f 117//289 136//271 111//280
f 125//279 113//278 112//281
f 131//262 137//272 118//288
f 118//288 119//287 131//262
f 118//288 137//272 117//289
f 136//271 125//279 111//280
f 130//263 122//285 123//284
f 123//284 124//283 130//263
f 120//286 122//285 131//262
f 124//283 127//282 130//263
f 130//263 127//282 129//290
f 138//293 144//264 130//263 129//290
f 131//262 122//285 130//263
f 131//262 119//287 120//286
f 125//279 136//271 132//270
f 137//272 131//262 139//273
f 142//274 139//273 131//262
f 131//262 145//275 142//274
f 144//264 146//276 131//262
f 144//264 149//265 148//277
f 145//275 131//262 146//276
f 146//276 144//264 148//277
f 147//292 151//266 144//264
f 149//265 144//264 151//266
f 144//264 138//293 147//292
f 147//292 152//291 151//266
f 152//291 156//268 155//267
f 156//268 152//291 158//269
f 151//266 152//291 155//267
f 136//271 117//289 137//272
f 152//300 147//301 135//303
f 135//303 138//302 129//294
f 135//303 147//301 138//302
f 153//299 135//303 140//298
f 160//295 153//299 159//297
f 158//296 152//300 160//295
f 160//295 152//300 135//303
f 153//299 160//295 135//303
f 116//305 113//304 125//307
f 126//309 116//305 125//307
f 133//306 126//309 132//308
f 125//307 132//308 126//309
f 114//311 111//310 112//313 115//315
f 113//314 116//312 115//315 112//313
f 124//319 128//317 127//316
f 123//320 128//317 124//319
f 122//321 121//327 128//317
f 123//320 122//321 128//317
f 120//322 121//327 122//321
f 121//327 118//324 117//325
f 121//327 119//323 118//324
f 121//327 117//325 114//318
f 111//326 114//318 117//325
f 120//322 119//323 121//327
f 140//328 135//334 134//333 141//329
f 128//330 129//331 127//332
f 128//330 134//333 135//334 129//331
f 153//339 161//341 159//335
f 154//340 163//336 161//341
f 140//337 141//338 154//340 153//339
f 161//341 153//339 154//340
f 162//347 160//342 159//344 161//346
f 164//343 162//347 161//346 163//345
f 155//353 157//357 151//352
f 150//348 149//351 151//352
f 151//352 157//357 150//348
f 157//357 155//353 156//354
f 162//356 158//355 160//349
f 164//350 157//357 162//356
f 162//356 157//357 156//354
f 158//355 162//356 156//354
f 139//364 143//369 137//363
f 137//363 143//369 136//362
f 133//358 132//361 136//362
f 136//362 143//369 133//358
f 143//369 139//364 142//365
f 150//360 148//368 149//359
f 150//360 146//367 148//368
f 150//360 143//369 145//366
f 142//365 145//366 143//369
f 146//367 150//360 145//366
f 114//374 133//370 143//384
f 114//374 143//384 121//375
f 126//371 115//373 116//372
f 114//374 115//373 126//371
f 126//371 133//370 114//374
f 150//383 128//376 121//375
f 154//379 141//378 150//383
f 154//379 164//381 163//380
f 164//381 154//379 157//382
f 134//377 128//376 150//383
f 143//384 150//383 121//375
f 141//378 134//377 150//383
f 150//383 157//382 154//379
o object_7
v 4.563 3.561 3.333
v 4.563 3.561 3.452
v 4.563 3.718 3.333
v 4.563 3.718 3.452
v 5.684 3.561 3.333
v 5.684 3.561 3.452
v 5.684 3.718 3.333
v 5.684 3.718 3.452
vn 0 -1 0
vn 0 -1 0
vn 0 -1 0
vn 0 -1 0
vn 1 0 0
vn 1 0 0
vn 1 0 0
vn 1 0 0
vn 0 1 0
vn 0 1 0
vn 0 1 0
vn 0 1 0
vn -1 0 0
vn -1 0 0
vn -1 0 0
vn -1 0 0
vn 0 0 -1
vn 0 0 -1
vn 0 0 -1
vn 0 0 -1
vn 0 0 1
vn 0 0 1
vn 0 0 1
vn 0 0 1
f 165//385 169//387 170//388 166//386
f 169//389 171//391 172//392 170//390
f 171//393 167//395 168//396 172//394
f 167//397 165//399 166//400 168//398
f 169//402 165//401 167//404
f 167//404 171//403 169//402
f 170//406 168//408 166//405
f 168//408 170//406 172//407
o object_8
v 4.44 3.601 3.828
v 4.44 3.601 3.947
v 4.44 3.758 3.828
v 4.44 3.758 3.947
v 5.561 3.601 3.828
v 5.561 3.601 3.947
v 5.561 3.758 3.828
v 5.561 3.758 3.947
vn 0 -1 0
vn 0 -1 0
vn 0 -1 0
vn 0 -1 0
vn 1 0 0
vn 1 0 0
vn 1 0 0
vn 1 0 0
vn 0 1 0
vn 0 1 0
vn 0 1 0
vn 0 1 0
vn -1 0 0
vn -1 0 0
vn -1 0 0
vn -1 0 0
vn 0 0 -1
vn 0 0 -1
vn 0 0 -1
vn 0 0 -1
vn 0 0 1
vn 0 0 1
vn 0 0 1
vn 0 0 1
f 173//409 177//411 178//412 174//410
f 177//413 179//415 180//416 178//414
f 179//417 175//419 176//420 180//418
f 175//421 173//423 174//424 176//422
f 177//426 173//425 175//428
f 175//428 179//427 177//426
f 178//430 176//432 174//429
f 176//432 178//430 180//431
o object_9
v 4.311 3.642 4.372
v 4.311 3.642 4.491
v 4.311 3.798 4.372
v 4.311 3.798 4.491
v 5.432 3.642 4.372
v 5.432 3.642 4.491
v 5.432 3.798 4.372
v 5.432 3.798 4.491
vn 0 -1 0
vn 0 -1 0
vn 0 -1 0
vn 0 -1 0
vn 1 0 0
vn 1 0 0
vn 1 0 0
vn 1 0 0
vn 0 1 0
vn 0 1 0
vn 0 1 0
vn 0 1 0
vn -1 0 0
vn -1 0 0
vn -1 0 0
vn -1 0 0
vn 0 0 -1
vn 0 0 -1
vn 0 0 -1
vn 0 0 -1
vn 0 0 1
vn 0 0 1
vn 0 0 1
vn 0 0 1
f 181//433 185//435 186//436 182//434
f 185//437 187//439 188//440 186//438
f 187//441 183//443 184//444 188//442
f 183//445 181//447 182//448 184//446
f 185//450 181//449 183//452
f 183//452 187//451 185//450
f 186//454 184//456 182//453
f 184//456 186//454 188//455
