# Rhino

g ______19
o object_1
v 1.825 4.497 3.888
v 1.825 4.635 3.888
v 2.231 4.497 3.147
v 2.231 4.635 3.147
v 2.387 4.497 4.196
v 2.387 4.635 4.196
v 2.793 4.497 3.455
v 2.793 4.635 3.455
vn -0.4806 0 0.8769
vn -0.4806 0 0.8769
vn -0.4806 0 0.8769
vn -0.4806 0 0.8769
vn 0.8769 0 0.4806
vn 0.8769 0 0.4806
vn 0.8769 0 0.4806
vn 0.8769 0 0.4806
vn 0.4806 0 -0.8769
vn 0.4806 0 -0.8769
vn 0.4806 0 -0.8769
vn 0.4806 0 -0.8769
vn -0.8769 0 -0.4806
vn -0.8769 0 -0.4806
vn -0.8769 0 -0.4806
vn -0.8769 0 -0.4806
vn 0 -1 0
vn 0 -1 0
vn 0 -1 0
vn 0 -1 0
vn 0 1 0
vn 0 1 0
vn 0 1 0
vn 0 1 0
f 1//1 5//3 6//4 2//2
f 5//5 7//7 8//8 6//6
f 7//9 3//11 4//12 8//10
f 3//13 1//15 2//16 4//14
f 5//18 1//17 3//20
f 3//20 7//19 5//18
f 6//22 4//24 2//21
f 4//24 6//22 8//23
o object_2
v 1.825 5.366 3.888
v 1.825 5.505 3.888
v 2.231 5.366 3.147
v 2.231 5.505 3.147
v 2.387 5.366 4.196
v 2.387 5.505 4.196
v 2.793 5.366 3.455
v 2.793 5.505 3.455
vn -0.4806 0 0.8769
vn -0.4806 0 0.8769
vn -0.4806 0 0.8769
vn -0.4806 0 0.8769
vn 0.8769 0 0.4806
vn 0.8769 0 0.4806
vn 0.8769 0 0.4806
vn 0.8769 0 0.4806
vn 0.4806 0 -0.8769
vn 0.4806 0 -0.8769
vn 0.4806 0 -0.8769
vn 0.4806 0 -0.8769
vn -0.8769 0 -0.4806
vn -0.8769 0 -0.4806
vn -0.8769 0 -0.4806
vn -0.8769 0 -0.4806
vn 0 -1 0
vn 0 -1 0
vn 0 -1 0
vn 0 -1 0
vn 0 1 0
vn 0 1 0
vn 0 1 0
vn 0 1 0
f 9//25 13//27 14//28 10//26
f 13//29 15//31 16//32 14//30
f 15//33 11//35 12//36 16//34
f 11//37 9//39 10//40 12//38
f 13//42 9//41 11//44
f 11//44 15//43 13//42
f 14//46 12//48 10//45
f 12//48 14//46 16//47
o object_3
v 1.033 4.633 4.924
v 1.033 5.366 4.924
v 1.558 4.633 3.966
v 1.558 5.366 3.966
v 2.043 4.633 5.477
v 2.043 5.366 5.477
v 2.045 4.633 5.473
v 2.045 5.366 5.473
v 2.254 4.633 2.857
v 2.254 5.366 2.857
v 3.004 4.633 3.267
v 3.004 5.366 3.267
vn -0.4805 1.432e-16 0.877
vn -0.4805 -5.839e-16 0.877
vn -0.4805 1.432e-16 0.877
vn -0.4805 -5.839e-16 0.877
vn 0.4802 8.437e-19 -0.8771
vn 0.4802 0 -0.8771
vn 0.4802 8.437e-19 -0.8771
vn 0.4802 0 -0.8771
vn 0.9172 0 0.3985
vn 0.9172 0 0.3985
vn 0.9172 0 0.3985
vn 0.9172 0 0.3985
vn 0.8769 0 0.4806
vn 0.8769 0 0.4806
vn 0.8769 0 0.4806
vn 0.8769 0 0.4806
vn -0.8769 0 -0.4806
vn -0.8769 0 -0.4806
vn -0.8769 0 -0.4806
vn -0.8769 0 -0.4806
vn -0.847 0 -0.5317
vn -0.847 0 -0.5317
vn -0.847 0 -0.5317
vn -0.847 0 -0.5317
vn 0 1 0
vn 0 1 0
vn 0 1 0
vn 1.334e-17 1 -2.434e-17
vn 0 1 0
vn 0 1 0
vn 0 -1 0
vn 3.335e-18 -1 -6.085e-18
vn 0 -1 0
vn 6.67e-18 -1 -1.217e-17
vn 3.335e-18 -1 -6.085e-18
vn 0 -1 0
f 22//50 17//51 21//52
f 17//51 22//50 18//49
f 25//56 26//54 28//53 27//55
f 27//58 28//57 24//59 23//60
f 23//62 24//61 22//63 21//64
f 17//66 18//65 20//67 19//68
f 19//70 20//69 26//72 25//71
f 26//75 20//78 28//76
f 18//73 28//76 20//78
f 18//73 22//74 24//77
f 28//76 18//73 24//77
f 25//81 27//82 19//84
f 17//79 19//84 27//82
f 17//79 23//83 21//80
f 27//82 23//83 17//79
g ______18
o object_4
v 1.688 4.499 5.459
v 1.688 5.502 5.459
v 2.242 4.499 4.45
v 2.242 5.502 4.45
v 5.478 4.499 7.539
v 5.478 5.502 7.539
v 6.985 4.499 7.053
v 6.985 5.502 7.053
v 7.683 4.499 8.498
v 7.683 5.502 8.498
v 8.093 4.499 7.75
v 8.093 5.502 7.75
vn 0.8769 5.099e-16 0.4807
vn 0.8769 0 0.4807
vn 0.8769 5.099e-16 0.4807
vn 0.8769 0 0.4807
vn -0.399 -9.498e-16 0.9169
vn -0.399 -9.498e-16 0.9169
vn -0.399 0 0.9169
vn -0.399 0 0.9169
vn -0.4811 0 0.8767
vn -0.4811 0 0.8767
vn -0.4811 0 0.8767
vn -0.4811 0 0.8767
vn -0.8767 0 -0.4811
vn -0.8767 0 -0.4811
vn -0.8767 0 -0.4811
vn -0.8767 0 -0.4811
vn 0.4811 0 -0.8767
vn 0.4811 0 -0.8767
vn 0.4811 0 -0.8767
vn 0.4811 0 -0.8767
vn 0.5322 0 -0.8466
vn 0.5322 0 -0.8466
vn 0.5322 0 -0.8466
vn 0.5322 0 -0.8466
vn -1.825e-17 1 -1.002e-17
vn 0 1 0
vn 0 1 0
vn 0 1 0
vn -1.825e-17 1 -1.002e-17
vn 0 1 0
vn 0 -1 0
vn 0 -1 0
vn 0 -1 0
vn 1.217e-17 -1 6.677e-18
vn 0 -1 0
vn 0 -1 0
f 39//88 40//86 38//85 37//87
f 37//90 38//89 34//91 33//92
f 33//94 34//93 30//95 29//96
f 29//98 30//97 32//99 31//100
f 31//102 32//101 36//103 35//104
f 35//106 36//105 40//108 39//107
f 40//111 36//114 38//112
f 34//113 38//112 36//114
f 34//113 36//114 32//110 30//109
f 39//117 37//118 35//120
f 33//119 35//120 37//118
f 33//119 29//115 31//116 35//120
o object_5
v 3.156 5.502 5.963
v 3.156 5.69 5.963
v 3.457 5.502 5.414
v 3.457 5.69 5.414
v 5.233 5.502 7.103
v 5.233 5.69 7.103
v 5.534 5.502 6.555
v 5.534 5.69 6.555
vn -0.8767 0 -0.4811
vn -0.8767 0 -0.4811
vn -0.8767 0 -0.4811
vn -0.8767 0 -0.4811
vn -0.4811 0 0.8767
vn -0.4811 0 0.8767
vn -0.4811 0 0.8767
vn -0.4811 0 0.8767
vn 0.8767 0 0.4811
vn 0.8767 0 0.4811
vn 0.8767 0 0.4811
vn 0.8767 0 0.4811
vn 0.4811 0 -0.8767
vn 0.4811 0 -0.8767
vn 0.4811 0 -0.8767
vn 0.4811 0 -0.8767
vn 0 -1 0
vn 0 -1 0
vn 0 -1 0
vn 0 -1 0
vn 0 1 0
vn 0 1 0
vn 0 1 0
vn 0 1 0
f 43//121 41//123 42//124 44//122
f 41//125 45//127 46//128 42//126
f 45//129 47//131 48//132 46//130
f 47//133 43//135 44//136 48//134
f 41//138 43//137 47//140
f 47//140 45//139 41//138
f 42//142 48//144 44//141
f 48//144 42//142 46//143
o object_6
v 3.156 4.312 5.963
v 3.156 4.501 5.963
v 3.457 4.312 5.414
v 3.457 4.501 5.414
v 5.233 4.312 7.103
v 5.233 4.501 7.103
v 5.534 4.312 6.555
v 5.534 4.501 6.555
vn -0.8767 0 -0.4811
vn -0.8767 0 -0.4811
vn -0.8767 0 -0.4811
vn -0.8767 0 -0.4811
vn -0.4811 0 0.8767
vn -0.4811 0 0.8767
vn -0.4811 0 0.8767
vn -0.4811 0 0.8767
vn 0.8767 0 0.4811
vn 0.8767 0 0.4811
vn 0.8767 0 0.4811
vn 0.8767 0 0.4811
vn 0.4811 0 -0.8767
vn 0.4811 0 -0.8767
vn 0.4811 0 -0.8767
vn 0.4811 0 -0.8767
vn 0 -1 0
vn 0 -1 0
vn 0 -1 0
vn 0 -1 0
vn 0 1 0
vn 0 1 0
vn 0 1 0
vn 0 1 0
f 51//145 49//147 50//148 52//146
f 49//149 53//151 54//152 50//150
f 53//153 55//155 56//156 54//154
f 55//157 51//159 52//160 56//158
f 49//162 51//161 55//164
f 55//164 53//163 49//162
f 50//166 56//168 52//165
f 56//168 50//166 54//167
g ______06
o object_7
v 2.819 5.001 4.361
v 2.859 4.798 4.287
v 2.859 5.203 4.287
v 2.957 4.714 4.11
v 2.957 5.287 4.11
v 3.054 4.798 3.932
v 3.054 5.203 3.932
v 3.094 5.001 3.858
v 8.383 5.001 7.414
v 8.413 5.001 7.386
v 8.423 4.798 7.341
v 8.423 5.203 7.341
v 8.439 5.001 7.445
v 8.448 4.826 7.323
v 8.448 5.175 7.323
v 8.451 5.001 7.407
v 8.479 4.798 7.371
v 8.479 5.203 7.371
v 8.486 4.826 7.343
v 8.486 5.175 7.343
v 8.521 4.714 7.163
v 8.521 5.287 7.163
v 8.532 4.753 7.169
v 8.532 5.248 7.169
v 8.57 4.753 7.19
v 8.57 5.248 7.19
v 8.577 4.714 7.194
v 8.577 5.287 7.194
v 8.616 4.826 7.016
v 8.616 5.175 7.016
v 8.618 4.798 6.986
v 8.618 5.203 6.986
v 8.651 5.001 6.953
v 8.654 4.826 7.037
v 8.654 5.175 7.037
v 8.658 5.001 6.912
v 8.674 4.798 7.016
v 8.674 5.203 7.016
v 8.689 5.001 6.973
v 8.714 5.001 6.943
v 9.168 5.001 7.845
v 9.208 4.798 7.771
v 9.208 5.203 7.771
v 9.305 4.714 7.594
v 9.305 5.287 7.594
v 9.403 4.798 7.416
v 9.403 5.203 7.416
v 9.443 5.001 7.343
v 9.634 5.001 7.989
v 9.661 4.867 7.941
v 9.661 5.134 7.941
v 9.725 4.812 7.824
v 9.725 5.189 7.824
v 9.789 4.867 7.707
v 9.789 5.134 7.707
v 9.816 5.001 7.659
v 9.829 5.001 8.005
v 9.844 4.924 7.977
v 9.844 5.077 7.977
v 9.881 4.892 7.91
v 9.881 5.109 7.91
v 9.918 4.924 7.843
v 9.918 5.077 7.843
v 9.933 5.001 7.815
v 9.964 5.001 7.989
v 9.969 4.98 7.982
v 9.969 5.021 7.982
v 9.979 4.971 7.963
v 9.979 5.03 7.963
v 9.989 4.98 7.945
v 9.989 5.021 7.945
v 9.993 5.001 7.937
vn 0.5803 -0.7495 0.3185
vn 0.8353 -0.53 -0.1461
vn -0.3983 -0.4888 -0.7762
vn -0.6335 -0.6912 -0.3477
vn 0.941 0 -0.3385
vn -0.3009 0 -0.9536
vn 0.8353 0.53 -0.1461
vn -0.3983 0.4888 -0.7762
vn 0.5803 0.7495 0.3185
vn -0.6335 0.6912 -0.3477
vn 0.3254 0.53 0.7831
vn -0.8687 0.4888 0.0808
vn 0.2197 0 0.9756
vn -0.9661 0 0.2583
vn -0.8939 0 0.4482
vn -0.3925 0 0.9198
vn -0.2522 0.7037 0.6642
vn -0.7779 0.582 0.2369
vn 0.3254 -0.53 0.7831
vn -0.8687 -0.4888 0.0808
vn 0.4248 -0.7037 -0.5695
vn 0.5871 -0.6747 -0.4473
vn 0.2625 -0.9541 0.1441
vn 0.08628 -0.9951 0.04735
vn -0.7779 -0.582 0.2369
vn -0.2522 -0.7037 0.6642
vn -0.4979 -0.8231 -0.2733
vn -0.1019 0 -0.9948
vn 0.5651 0 -0.825
vn -0.2179 -0.582 -0.7835
vn -0.2179 0.582 -0.7835
vn 0.4248 0.7037 -0.5695
vn -0.4979 0.8231 -0.2733
vn 0.08631 0.9951 0.04737
vn 0.7216 0 -0.6923
vn 0.8466 0 -0.5322
vn 0.7235 -0.6179 -0.3078
vn 0.2625 0.9541 0.1441
vn 0.5871 0.6747 -0.4473
vn -0.06205 -0.6747 0.7355
vn -0.1965 0 0.9805
vn -0.06205 0.6747 0.7355
vn 0.7235 0.6179 -0.3078
vn 0.9215 0.382 0.06994
vn 0.9976 0 -0.06881
vn 0.1289 0.6179 0.7756
vn 0.4262 0.8739 0.2339
vn 0.4262 -0.8739 0.2339
vn 0.1289 -0.6179 0.7756
vn 0.005767 0 1
vn 0.7377 0.5403 0.4049
vn 0.5539 0.382 0.7398
vn 0.4777 0 0.8785
vn 0.5539 -0.382 0.7398
vn 0.9215 -0.3821 0.06994
vn 0.7377 -0.5403 0.4049
vn -0.8167 0.549 0.178
vn -0.5525 0.7764 -0.3032
vn -0.2884 0.549 -0.7845
vn -0.9261 0 0.3774
vn -0.179 0 -0.9839
vn -0.8167 -0.549 0.178
vn -0.2884 -0.549 -0.7845
vn -0.5525 -0.7764 -0.3032
vn 0.7493 -0.6021 -0.2756
vn 0.4596 -0.8516 0.2522
vn 0.8693 0 -0.4943
vn 0.7493 0.6021 -0.2756
vn 0.4596 0.8516 0.2522
vn 0.1699 0.6021 0.7801
vn 0.04987 0 0.9988
vn 0.1699 -0.6021 0.7801
f 79//169 85//170 90//171 81//172
f 85//170 89//173 95//174 90//171
f 89//173 86//175 91//176 95//174
f 86//175 80//177 82//178 91//176
f 80//177 71//179 76//180 82//178
f 71//179 66//181 72//182 76//180
f 69//183 97//184 99//185 74//186
f 70//187 79//169 81//172 75//188
f 66//181 70//187 75//188 72//182
f 102//189 110//190 108//191 100//192
f 73//193 98//194 97//184 69//183
f 83//195 100//192 98//194 73//193
f 96//196 104//197 102//189 93//198
f 94//199 103//200 104//197 96//196
f 93//198 102//189 100//192 83//195
f 84//201 101//202 103//200 94//199
f 74//186 99//185 101//202 84//201
f 112//203 120//204 118//205 110//190
f 101//202 109//206 111//207 103//200
f 98//194 106//208 105//209 97//184
f 103//200 111//207 112//203 104//197
f 97//184 105//209 107//210 99//185
f 104//197 112//203 110//190 102//189
f 99//185 107//210 109//206 101//202
f 100//192 108//191 106//208 98//194
f 119//211 127//212 128//213 120//204
f 107//210 115//214 117//215 109//206
f 108//191 116//216 114//217 106//208
f 110//190 118//205 116//216 108//191
f 109//206 117//215 119//211 111//207
f 106//208 114//217 113//218 105//209
f 111//207 119//211 120//204 112//203
f 105//209 113//218 115//214 107//210
f 127//212 125//219 123//220
f 127//212 123//220 121//221
f 128//213 127//212 121//221
f 128//213 121//221 122//222
f 126//223 128//213 122//222
f 126//223 122//222 124//224
f 113//218 121//221 123//220 115//214
f 120//204 128//213 126//223 118//205
f 115//214 123//220 125//219 117//215
f 116//216 124//224 122//222 114//217
f 118//205 126//223 124//224 116//216
f 117//215 125//219 127//212 119//211
f 114//217 122//222 121//221 113//218
f 59//225 61//226 63//227
f 57//228 59//225 63//227
f 57//228 63//227 64//229
f 58//230 57//228 64//229
f 58//230 64//229 62//231
f 58//230 62//231 60//232
f 72//182 69//183 74//186 76//180
f 75//188 73//193 69//183 72//182
f 81//172 83//195 73//193 75//188
f 95//174 96//196 93//198 90//171
f 91//176 94//199 96//196 95//174
f 90//171 93//198 83//195 81//172
f 82//178 84//201 94//199 91//176
f 76//180 74//186 84//201 82//178
f 60//232 62//231 87//233 77//234
f 62//231 64//229 92//235 87//233
f 64//229 63//227 88//236 92//235
f 63//227 61//226 78//237 88//236
f 61//226 59//225 68//238 78//237
f 59//225 57//228 65//239 68//238
f 58//230 60//232 77//234 67//240
f 57//228 58//230 67//240 65//239
f 78//237 68//238 71//179 80//177
f 67//240 77//234 79//169 70//187
f 92//235 88//236 86//175 89//173
f 68//238 65//239 66//181 71//179
f 77//234 87//233 85//170 79//169
f 88//236 78//237 80//177 86//175
f 87//233 92//235 89//173 85//170
f 65//239 67//240 70//187 66//181
o object_8
v 2.857 5.488 4.628
v 2.861 5.496 4.62
v 3.056 5.075 4.266
v 3.06 5.084 4.259
v 3.198 5.483 4.81
v 3.202 5.491 4.802
v 3.717 5.08 4.634
v 3.721 5.088 4.627
vn -0.1103 -0.002319 -0.9939
vn -0.5029 -0.8182 -0.2786
vn -0.8967 0.004242 0.4426
vn -0.5044 0.8195 -0.272
vn -0.1091 0.05277 0.9926
vn 0.3094 0.9227 0.23
vn 0.5892 -0.67 0.4516
vn 0.9657 0.1124 -0.2342
f 132//241 131//242 129//243 130//244
f 130//244 129//243 133//245 134//246
f 134//246 133//245 135//247 136//248
f 136//248 135//247 131//242 132//241
f 131//242 135//247 133//245 129//243
f 136//248 132//241 130//244 134//246
o object_9
v 3.135 4.911 4.122
v 3.139 4.919 4.115
v 3.333 4.499 3.76
v 3.337 4.507 3.753
v 3.67 4.503 3.951
v 3.674 4.511 3.943
v 3.801 4.906 4.482
v 3.805 4.914 4.475
vn -0.5051 0.8182 -0.2746
vn -0.1081 -0.004273 -0.9941
vn -0.5004 -0.8195 -0.2795
vn -0.8977 0.002319 0.4407
vn 0.7787 -0.05277 -0.6251
vn 0.3602 -0.9227 0.1375
vn 0.6974 0.6699 0.2545
vn 0.321 -0.1124 0.9404
f 138//249 140//250 139//251 137//252
f 140//250 142//253 141//254 139//251
f 142//253 144//255 143//256 141//254
f 144//255 138//249 137//252 143//256
f 137//252 139//251 141//254 143//256
f 144//255 142//253 140//250 138//249
o object_10
v 2.839 4.51 4.639
v 2.844 4.5 4.629
v 3.038 4.923 4.277
v 3.043 4.912 4.268
v 3.18 4.515 4.821
v 3.185 4.504 4.811
v 3.699 4.918 4.645
v 3.704 4.907 4.636
vn -0.5029 0.8182 -0.2786
vn -0.1103 0.002289 -0.9939
vn -0.5044 -0.8195 -0.272
vn -0.8967 -0.004273 0.4427
vn 0.3094 -0.9227 0.23
vn -0.1091 -0.05277 0.9926
vn 0.9657 -0.1125 -0.2342
vn 0.5893 0.6699 0.4516
f 147//257 148//258 146//259 145//260
f 145//260 146//259 150//261 149//262
f 149//262 150//261 152//263 151//264
f 151//264 152//263 148//258 147//257
f 148//258 152//263 150//261 146//259
f 151//264 147//257 145//260 149//262
o object_11
v 3.127 5.109 4.114
v 3.132 5.098 4.105
v 3.325 5.521 3.753
v 3.33 5.51 3.743
v 3.662 5.516 3.943
v 3.667 5.506 3.933
v 3.793 5.113 4.474
v 3.798 5.103 4.465
vn -0.8977 -0.002289 0.4407
vn -0.5004 0.8195 -0.2795
vn -0.1082 0.004242 -0.9941
vn -0.5051 -0.8182 -0.2746
vn 0.3602 0.9227 0.1375
vn 0.7787 0.05277 -0.6251
vn 0.321 0.1125 0.9404
vn 0.6974 -0.6699 0.2545
f 153//265 155//266 156//267 154//268
f 155//266 157//269 158//270 156//267
f 157//269 159//271 160//272 158//270
f 159//271 153//265 154//268 160//272
f 154//268 156//267 158//270 160//272
f 159//271 157//269 155//266 153//265
o object_12
v 3.898 5.206 4.418
v 3.912 5.179 4.394
v 5.147 5.6 4.642
v 5.155 5.584 4.627
v 6.679 5.6 5.482
v 6.686 5.584 5.468
v 7.562 5.206 6.428
v 7.575 5.179 6.404
vn 0.3528 0.07093 -0.933
vn -0.2902 -0.8714 -0.3956
vn -0.8091 0.2072 0.5499
vn -0.08825 0.9877 -0.1293
vn 0.1547 0.9879 0.003958
vn 0.5959 0.07098 -0.7999
vn -0.02628 0.2114 0.977
vn 0.4936 -0.8692 0.02975
f 164//273 162//274 161//275 163//276
f 163//276 165//277 166//278 164//273
f 165//277 167//279 168//280 166//278
f 162//274 168//280 167//279 161//275
f 162//274 164//273 166//278 168//280
f 167//279 165//277 163//276 161//275
o object_13
v 3.711 4.818 4.758
v 3.725 4.79 4.735
v 4.576 4.413 5.682
v 4.584 4.397 5.668
v 6.107 4.413 6.523
v 6.115 4.397 6.508
v 7.375 4.818 6.769
v 7.388 4.79 6.745
vn -0.4896 0.8714 -0.03236
vn 0.02935 -0.2072 -0.9779
vn -0.1565 -0.9877 -0.005
vn -0.5976 -0.07093 0.7987
vn 0.08644 -0.9879 0.1284
vn -0.3547 -0.07101 0.9323
vn 0.8101 -0.2114 -0.5469
vn 0.2902 0.8692 0.4004
f 169//281 170//282 172//283 171//284
f 171//284 172//283 174//285 173//286
f 173//286 174//285 176//287 175//288
f 175//288 176//287 170//282 169//281
f 170//282 176//287 174//285 172//283
f 175//288 169//281 171//284 173//286
o object_14
v 3.711 5.184 4.758
v 3.725 5.211 4.735
v 4.576 5.588 5.682
v 4.584 5.605 5.668
v 6.107 5.588 6.523
v 6.115 5.605 6.508
v 7.375 5.184 6.769
v 7.388 5.211 6.745
vn -0.4896 -0.8714 -0.03236
vn -0.5976 0.07093 0.7987
vn -0.1565 0.9877 -0.004973
vn 0.02935 0.2072 -0.9779
vn -0.3547 0.07098 0.9323
vn 0.08644 0.9879 0.1284
vn 0.2902 -0.8692 0.4004
vn 0.8101 0.2114 -0.5469
f 177//289 179//290 180//291 178//292
f 179//290 181//293 182//294 180//291
f 181//293 183//295 184//296 182//294
f 183//295 177//289 178//292 184//296
f 178//292 180//291 182//294 184//296
f 183//295 181//293 179//290 177//289
o object_15
v 3.898 4.795 4.418
v 3.912 4.822 4.394
v 5.147 4.401 4.642
v 5.155 4.417 4.627
v 6.679 4.401 5.482
v 6.686 4.417 5.468
v 7.562 4.795 6.428
v 7.575 4.822 6.404
vn -0.8091 -0.2072 0.5499
vn -0.2902 0.8714 -0.3956
vn 0.3528 -0.07093 -0.933
vn -0.08824 -0.9877 -0.1293
vn 0.5959 -0.07098 -0.7999
vn 0.1547 -0.9879 0.003958
vn 0.4936 0.8692 0.02975
vn -0.02628 -0.2114 0.977
f 185//297 186//298 188//299 187//300
f 187//300 188//299 190//301 189//302
f 189//302 190//301 192//303 191//304
f 191//304 192//303 186//298 185//297
f 186//298 192//303 190//301 188//299
f 191//304 185//297 187//300 189//302
