# Rhino

o object_1
v 1.102 4.111 0.001085
v 1.102 4.111 1.029
v 1.102 5.891 0.001085
v 1.102 5.891 1.029
v 1.873 2.507 0.001085
v 1.873 2.507 1.029
v 1.875 7.494 0.001085
v 1.875 7.494 1.029
v 3.265 1.397 0.001085
v 3.265 1.397 1.029
v 3.267 8.604 0.001085
v 3.267 8.604 1.029
v 5 0.9999 0.001085
v 5 0.9999 1.029
v 5.003 8.999 0.001085
v 5.003 8.999 1.029
v 6.736 1.395 0.001085
v 6.736 1.395 1.029
v 6.738 8.603 0.001085
v 6.738 8.603 1.029
v 8.128 2.505 0.001085
v 8.128 2.505 1.029
v 8.129 7.492 0.001085
v 8.129 7.492 1.029
v 8.901 4.108 0.001085
v 8.901 4.108 1.029
v 8.901 5.888 0.001085
v 8.901 5.888 1.029
vn -0.000321 -1 0
vn -0.000321 -1 0
vn -0.4342 -0.9008 0
vn -0.4342 -0.9008 0
vn -0.782 -0.6232 0
vn -0.782 -0.6232 0
vn -0.975 -0.2222 0
vn -0.975 -0.2222 0
vn -0.9749 0.2228 0
vn -0.9749 0.2228 0
vn -0.7816 0.6237 0
vn -0.7816 0.6237 0
vn -0.4336 0.9011 0
vn -0.4336 0.9011 0
vn 0.000321 1 0
vn 0.000321 1 0
vn 0.4342 0.9008 0
vn 0.4342 0.9008 0
vn 0.782 0.6232 0
vn 0.782 0.6232 0
vn 0.975 0.2222 0
vn 0.975 0.2222 0
vn 0.9749 -0.2228 0
vn 0.9749 -0.2228 0
vn 0.7816 -0.6237 0
vn 0.7816 -0.6237 0
vn 0.4336 -0.9011 0
vn 0.4336 -0.9011 0
vn -0.000321 -1 0
vn -0.000321 -1 0
vn 0 0 1
vn 0 0 1
vn 0 0 1
vn 0 0 1
vn 0 0 1
vn 0 0 1
vn 0 0 1
vn 0 0 1
vn 0 0 1
vn 0 0 1
vn 0 0 1
vn 0 0 1
vn 0 0 1
vn 0 0 1
vn 0 0 -1
vn 0 0 -1
vn 0 0 -1
vn 0 0 -1
vn 0 0 -1
vn 0 0 -1
vn 0 0 -1
vn 0 0 -1
vn 0 0 -1
vn 0 0 -1
vn 0 0 -1
vn 0 0 -1
vn 0 0 -1
vn 0 0 -1
f 14//1 10//3 9//4 13//2
f 10//3 6//5 5//6 9//4
f 6//5 2//7 1//8 5//6
f 2//7 4//9 3//10 1//8
f 4//9 8//11 7//12 3//10
f 8//11 12//13 11//14 7//12
f 12//13 16//15 15//16 11//14
f 16//15 20//17 19//18 15//16
f 20//17 24//19 23//20 19//18
f 24//19 28//21 27//22 23//20
f 28//21 26//23 25//24 27//22
f 26//23 22//25 21//26 25//24
f 22//25 18//27 17//28 21//26
f 18//27 14//29 13//30 17//28
f 24//40 20//39 26//42
f 26//42 20//39 8//36
f 12//37 20//39 16//38
f 8//36 20//39 12//37
f 4//35 6//33 8//36
f 24//40 26//42 28//41
f 22//43 26//42 6//33
f 18//44 22//43 14//31
f 2//34 6//33 4//35
f 6//33 10//32 14//31
f 6//33 14//31 22//43
f 26//42 8//36 6//33
f 23//54 25//56 19//53
f 25//56 7//50 19//53
f 11//51 15//52 19//53
f 7//50 11//51 19//53
f 3//49 7//50 5//47
f 23//54 27//55 25//56
f 21//57 5//47 25//56
f 17//58 13//45 21//57
f 1//48 3//49 5//47
f 5//47 13//45 9//46
f 5//47 21//57 13//45
f 25//56 5//47 7//50
