# Rhino

v 12.38864994049072 2.689595937728882 2.748794078826904
v 12.38864994049072 2.689595937728882 2.748794078826904
v 12.38864994049072 2.636929988861084 2.748794078826904
v 12.38864994049072 2.636929988861084 2.748794078826904
v 12.38864994049072 2.634063959121704 2.882858991622925
v 12.38864994049072 2.634063959121704 2.882858991622925
v 12.38864994049072 2.634063959121704 2.614729881286621
v 12.38864994049072 2.634063959121704 2.614729881286621
v 12.38864994049072 2.596823930740356 2.845618963241577
v 12.38864994049072 2.596823930740356 2.845618963241577
v 12.38864994049072 2.596823930740356 2.651969909667969
v 12.38864994049072 2.596823930740356 2.651969909667969
v 12.38864994049072 2.5 2.938390016555786
v 12.38864994049072 2.5 2.938390016555786
v 12.38864994049072 2.5 2.885725021362305
v 12.38864994049072 2.5 2.885725021362305
v 12.38864994049072 2.5 2.61186408996582
v 12.38864994049072 2.5 2.61186408996582
v 12.38864994049072 2.5 2.559197902679443
v 12.38864994049072 2.5 2.559197902679443
v 12.38864994049072 2.403175115585327 2.845618963241577
v 12.38864994049072 2.403175115585327 2.845618963241577
v 12.38864994049072 2.403175115585327 2.651969909667969
v 12.38864994049072 2.403175115585327 2.651969909667969
v 12.38864994049072 2.36593508720398 2.882858991622925
v 12.38864994049072 2.36593508720398 2.882858991622925
v 12.38864994049072 2.36593508720398 2.614729881286621
v 12.38864994049072 2.36593508720398 2.614729881286621
v 12.38864994049072 2.3630690574646 2.748794078826904
v 12.38864994049072 2.3630690574646 2.748794078826904
v 12.38864994049072 2.310404062271118 2.748794078826904
v 12.38864994049072 2.310404062271118 2.748794078826904
v 7.546030998229981 2.740173101425171 2.748794078826904
v 7.546030998229981 2.740173101425171 2.748794078826904
v 7.546030998229981 2.669827938079834 2.918622016906738
v 7.546030998229981 2.669827938079834 2.918622016906738
v 7.546030998229981 2.669827938079834 2.578967094421387
v 7.546030998229981 2.669827938079834 2.578967094421387
v 7.546030998229981 2.500000953674316 2.988966941833496
v 7.546030998229981 2.500000953674316 2.988966941833496
v 7.546030998229981 2.500000953674316 2.50862193107605
v 7.546030998229981 2.500000953674316 2.50862193107605
v 7.546030998229981 2.330173015594482 2.918622016906738
v 7.546030998229981 2.330173015594482 2.918622016906738
v 7.546030998229981 2.330173015594482 2.578967094421387
v 7.546030998229981 2.330173015594482 2.578967094421387
v 7.546030998229981 2.259828090667725 2.748794078826904
v 7.546030998229981 2.259828090667725 2.748794078826904
v 7.488015174865723 2.7882080078125 2.748794078826904
v 7.488015174865723 2.7882080078125 2.748794078826904
v 7.488015174865723 2.703794002532959 2.952588081359863
v 7.488015174865723 2.703794002532959 2.952588081359863
v 7.488015174865723 2.703794002532959 2.545001029968262
v 7.488015174865723 2.703794002532959 2.545001029968262
v 7.488015174865723 2.500000953674316 3.037002086639404
v 7.488015174865723 2.500000953674316 3.037002086639404
v 7.488015174865723 2.500000953674316 2.460587024688721
v 7.488015174865723 2.500000953674316 2.460587024688721
v 7.488015174865723 2.296206951141357 2.952588081359863
v 7.488015174865723 2.296206951141357 2.952588081359863
v 7.488015174865723 2.296206951141357 2.545001029968262
v 7.488015174865723 2.296206951141357 2.545001029968262
v 7.488015174865723 2.211792945861816 2.748794078826904
v 7.488015174865723 2.211792945861816 2.748794078826904
v 6.016064167022705 2.650621891021729 2.748794078826904
v 6.016064167022705 2.606506109237671 2.855300903320313
v 6.016064167022705 2.606506109237671 2.642287015914917
v 6.016064167022705 2.499999046325684 2.899418115615845
v 6.016064167022705 2.499999046325684 2.59817099571228
v 6.016064167022705 2.393491983413696 2.855300903320313
v 6.016064167022705 2.393491983413696 2.642287015914917
v 6.016064167022705 2.349375009536743 2.748794078826904
v 2.990194082260132 2.84584903717041 2.748794078826904
v 2.990194082260132 2.74455189704895 2.993345975875855
v 2.990194082260132 2.74455189704895 2.504241943359375
v 2.990194082260132 2.500000953674316 3.094643115997315
v 2.990194082260132 2.500000953674316 2.402945995330811
v 2.990194082260132 2.255449056625366 2.993345975875855
v 2.990194082260132 2.255449056625366 2.504241943359375
v 2.990194082260132 2.15415096282959 2.748794078826904
vn 1 0 0
vn 0.01034548971801996 0.9905490875244141 -0.1367679387331009
vn 1 0 0
vn -0.002128399908542633 -0.9906004667282105 -0.1367703676223755
vn 1 0 0
vn 0.01034545991569758 0.7971318364143372 0.6037166714668274
vn 1 0 0
vn 0.01034540962427855 0.6037163734436035 -0.7971320152282715
vn 1 0 0
vn -0.002128449967131019 -0.6037484407424927 -0.7971720695495606
vn 1 0 0
vn -0.002128500025719404 -0.7971744537353516 0.6037452816963196
vn 1 0 0
vn 0.01034543011337519 0.1367677003145218 0.9905491471290588
vn 1 0 0
vn -0.002128530060872436 0.1367731243371964 -0.9906001091003418
vn 1 0 0
vn -0.002128560096025467 -0.1367727369070053 0.9906001687049866
vn 1 0 0
vn 0.01034525036811829 -0.1367655247449875 -0.9905494451522827
vn 1 0 0
vn -0.002128599910065532 0.7971728444099426 -0.6037474274635315
vn 1 0 0
vn -0.002128649968653917 0.6037443280220032 0.7971751689910889
vn 1 0 0
vn 0.01034525968134403 -0.6037155389785767 0.797132670879364
vn 1 0 0
vn 0.01034521032124758 -0.7971328496932983 -0.6037153005599976
vn 1 0 0
vn -0.002128680003806949 0.9905998110771179 0.136775478720665
vn 1 0 0
vn 0.01034518983215094 -0.9905494451522827 0.1367652863264084
vn 0.6341635584831238 0.765932559967041 -0.1057538688182831
vn 0.0103454701602459 0.9905492663383484 0.1367666721343994
vn 0.6341638565063477 0.6163753271102905 0.4668164551258087
vn 0.01034548971801996 0.6037160754203796 0.7971322536468506
vn 0.6341637372970581 0.4668173491954804 -0.6163748502731323
vn 0.0103454701602459 0.797131359577179 -0.6037173271179199
vn 0.6341635584831238 0.1057538688182831 0.765932559967041
vn 0.01034537982195616 -0.1367644965648651 0.9905495643615723
vn 0.6341634392738342 -0.1057523414492607 -0.7659328579902649
vn 0.01034529972821474 0.1367689371109009 -0.9905489683151245
vn 0.6341639161109924 -0.4668168723583221 0.6163750290870667
vn 0.01034521032124758 -0.7971332669258118 0.6037147641181946
vn 0.6341637372970581 -0.6163744926452637 -0.4668177664279938
vn 0.01034517958760262 -0.6037160158157349 -0.7971323132514954
vn 0.6341634392738342 -0.7659328579902649 0.1057523414492607
vn 0.01034520007669926 -0.9905492663383484 -0.1367667466402054
vn 0.6341633796691895 0.7659329175949097 0.105752632021904
vn 0.0126938596367836 0.9905223846435547 -0.1367634683847427
vn 0.6341638565063477 0.4668178856372833 0.6163742542266846
vn 0.0126937897875905 0.7971111536026001 0.6036992073059082
vn 0.6341638565063477 0.6163745522499085 -0.4668175280094147
vn 0.01269389037042856 0.6036990880966187 -0.7971112132072449
vn 0.6341633796691895 -0.105752632021904 0.7659329175949097
vn 0.01269381958991289 0.1367639750242233 0.9905223250389099
vn 0.6341634392738342 0.1057540774345398 -0.7659326195716858
vn 0.01269389968365431 -0.1367611438035965 -0.9905227422714233
vn 0.6341639757156372 -0.6163748502731323 0.4668169915676117
vn 0.0126937897875905 -0.6036996245384216 0.7971107959747315
vn 0.6341639757156372 -0.466816633939743 -0.6163751482963562
vn 0.01269397046416998 -0.7971097230911255 -0.6037010550498962
vn 0.6341634392738342 -0.7659326195716858 -0.1057540774345398
vn 0.01269397046416998 -0.9905223846435547 0.1367635428905487
vn -0.002128419931977987 -0.990600049495697 0.1367737054824829
vn -0.002128429943695664 -0.797175407409668 -0.6037440299987793
vn -0.002128530060872436 -0.6037470102310181 0.7971731424331665
vn -0.002128510037437081 -0.1367740035057068 -0.9905999898910523
vn -0.002128579886630178 0.1367724537849426 0.9906002283096314
vn -0.002128570107743144 0.603746235370636 -0.7971737384796143
vn -0.002128669992089272 0.7971714735031128 0.6037492156028748
vn -0.002128659980371594 0.9906001687049866 -0.1367727518081665
vn 0.01269382983446121 0.990522563457489 0.1367623060941696
vn 0.01269377954304218 0.6037000417709351 0.7971104979515076
vn 0.01269389037042856 0.7971104383468628 -0.6037001609802246
vn 0.01269382983446121 -0.136761873960495 0.9905226230621338
vn 0.01269389037042856 0.1367632746696472 -0.9905224442481995
vn 0.01269385032355785 -0.7971104383468628 0.6037001013755798
vn 0.01269389968365431 -0.6036973595619202 -0.7971125245094299
vn 0.01269401982426643 -0.9905224442481995 -0.1367630362510681
f 14//14 6//6 36//36 40//40
f 26//26 14//14 40//40 44//44
f 32//32 26//26 44//44 48//48
f 28//28 32//32 48//48 46//46
f 20//20 28//28 46//46 42//42
f 8//8 20//20 42//42 38//38
f 2//2 8//8 38//38 34//34
f 6//6 2//2 34//34 36//36
f 37//37 41//41 57//57 53//53
f 41//41 45//45 61//61 57//57
f 45//45 47//47 63//63 61//61
f 47//47 43//43 59//59 63//63
f 43//43 39//39 55//55 59//59
f 39//39 35//35 51//51 55//55
f 35//35 33//33 49//49 51//51
f 33//33 37//37 53//53 49//49
f 54//54 58//58 77//77 75//75
f 58//58 62//62 79//79 77//77
f 62//62 64//64 80//80 79//79
f 64//64 60//60 78//78 80//80
f 60//60 56//56 76//76 78//78
f 56//56 52//52 74//74 76//76
f 52//52 50//50 73//73 74//74
f 50//50 54//54 75//75 73//73
f 1//1 5//5 9//9 3//3
f 5//5 13//13 15//15 9//9
f 13//13 25//25 21//21 15//15
f 25//25 31//31 29//29 21//21
f 31//31 27//27 23//23 29//29
f 27//27 19//19 17//17 23//23
f 19//19 7//7 11//11 17//17
f 7//7 1//1 3//3 11//11
f 4//4 10//10 66//66 65//65
f 10//10 16//16 68//68 66//66
f 16//16 22//22 70//70 68//68
f 22//22 30//30 72//72 70//70
f 30//30 24//24 71//71 72//72
f 24//24 18//18 69//69 71//71
f 18//18 12//12 67//67 69//69
f 12//12 4//4 65//65 67//67
