# Rhino

v 3.401525020599365 3.033382892608643 0.5007590055465698
v 3.401525020599365 3.033382892608643 0.5007590055465698
v 3.401525020599365 3.033382892608643 0.5007590055465698
v 3.401525020599365 3.033382892608643 0.003112999955192208
v 3.401525020599365 3.033382892608643 0.003112999955192208
v 3.401525020599365 3.033382892608643 0.003112999955192208
v 3.401525020599365 1.973341941833496 0.003112999955192208
v 3.401525020599365 1.973341941833496 0.003112999955192208
v 3.401525020599365 1.97334098815918 0.5007590055465698
v 3.401525020599365 1.97334098815918 0.5007590055465698
v 2.483503103256226 3.563402891159058 0.5007590055465698
v 2.483503103256226 3.563402891159058 0.5007590055465698
v 2.483503103256226 3.563402891159058 0.003112999955192208
v 2.483503103256226 3.563402891159058 0.003112999955192208
v 2.48350191116333 1.443320989608765 0.5007590055465698
v 2.48350191116333 1.443320989608765 0.5007590055465698
v 2.48350191116333 1.443320989608765 0.003112999955192208
v 2.48350191116333 1.443320989608765 0.003112999955192208
v 1.56547999382019 3.033382892608643 0.5007590055465698
v 1.56547999382019 3.033382892608643 0.5007590055465698
v 1.56547999382019 3.033382892608643 0.5007590055465698
v 1.56547999382019 3.033382892608643 0.003112999955192208
v 1.56547999382019 3.033382892608643 0.003112999955192208
v 1.56547999382019 3.033382892608643 0.003112999955192208
v 1.56547999382019 1.973341941833496 0.5007590055465698
v 1.56547999382019 1.973341941833496 0.5007590055465698
v 1.56547999382019 1.973341941833496 0.003112999955192208
v 1.56547999382019 1.973341941833496 0.003112999955192208
vn 1 0 0
vn 0.4999998211860657 0.8660255074501038 0
vn 0 0 1
vn 1 0 0
vn 0.4999998211860657 0.8660255074501038 0
vn 0 0 -1
vn 0.9449111819267273 -0.3273268043994904 -6.600000119760807e-07
vn 0 0 -1
vn 0.7559288144111633 -0.654653787612915 -6.600000119760807e-07
vn 0 0 1
vn 0.1889822781085968 0.9819805026054382 0
vn 0 0 1
vn 0 0 -1
vn -0.1889818161725998 0.981980562210083 0
vn 0 0 1
vn -0.1889828592538834 -0.9819803833961487 0
vn 0.1889818757772446 -0.981980562210083 -6.600000119760807e-07
vn 0 0 -1
vn 0 0 1
vn -0.4999994337558746 0.8660257458686829 0
vn -1 0 0
vn 0 0 -1
vn -0.4999994337558746 0.8660257458686829 0
vn -1 0 0
vn 0 0 1
vn -0.9449112415313721 -0.3273266553878784 0
vn 0 0 -1
vn -0.7559292316436768 -0.6546533107757568 0
f 13//13 6//6 8//8 18//18
f 12//12 15//15 10//10 3//3
f 19//19 25//25 15//15 12//12
f 27//27 22//22 13//13 18//18
f 20//20 11//11 14//14 23//23
f 11//11 2//2 5//5 14//14
f 1//1 9//9 7//7 4//4
f 9//9 16//16 17//17 7//7
f 16//16 26//26 28//28 17//17
f 26//26 21//21 24//24 28//28
