# Rhino

o object_1
v -1.393 6.607 0.4885
v -1.393 8.379 0.4885
v -1.137 6.727 3.788
v -1.137 8.259 3.788
v -1.027 6.727 3.369
v -1.027 8.259 3.369
v -0.9111 5.347 0.4885
v -0.9111 9.639 0.4885
v -0.7821 5.636 3.788
v -0.7821 9.35 3.788
v -0.6718 5.636 3.369
v -0.6718 9.35 3.369
v -0.4568 4.465 0.4885
v -0.4568 10.52 0.4885
v -0.3278 4.873 3.788
v -0.3278 10.11 3.788
v -0.2175 4.873 3.369
v -0.2175 10.11 3.369
v 0.0122 3.739 0.4885
v 0.0122 11.25 0.4885
v 0.1412 4.245 3.788
v 0.1412 10.74 3.788
v 0.2516 4.245 3.369
v 0.2516 10.74 3.369
v 0.699 3.142 0.4885
v 0.699 3.728 3.369
v 0.699 3.728 3.788
v 0.699 11.26 3.369
v 0.699 11.26 3.788
v 0.699 11.84 0.4885
v 1.258 1.922 2.741
v 1.258 1.922 3.459
v 1.258 3.307 2.741
v 1.258 3.307 3.459
v 1.258 11.68 2.741
v 1.258 11.68 3.459
v 1.258 13.06 2.741
v 1.258 13.06 3.459
v 2.77 3.307 2.741
v 2.77 3.307 3.459
v 2.77 11.68 2.741
v 2.77 11.68 3.459
v 3.044 1.922 2.741
v 3.044 1.922 3.459
v 3.044 13.06 2.741
v 3.044 13.06 3.459
v 6.102 2.744 0.4885
v 6.102 3.384 3.369
v 6.102 3.384 3.788
v 6.102 11.6 3.369
v 6.102 11.6 3.788
v 6.102 12.24 0.4885
v 6.573 6.726 3.788
v 6.573 8.26 3.788
v 11.06 5.693 1.506
v 11.06 5.693 3.795
v 11.06 5.948 1.165
v 11.06 6.282 1.165
v 11.06 6.537 1.506
v 11.06 6.537 3.795
v 11.06 8.449 1.506
v 11.06 8.449 3.795
v 11.06 8.704 1.165
v 11.06 9.037 1.165
v 11.06 9.293 1.506
v 11.06 9.293 3.795
v 11.53 5.364 1.506
v 11.53 5.364 3.795
v 11.53 5.664 1.165
v 11.53 6.566 1.165
v 11.53 6.866 1.506
v 11.53 6.866 3.795
v 11.53 8.12 1.506
v 11.53 8.12 3.795
v 11.53 8.42 1.165
v 11.53 9.321 1.165
v 11.53 9.622 1.506
v 11.53 9.622 3.795
v 12.7 5.364 1.506
v 12.7 5.364 3.795
v 12.7 5.664 1.165
v 12.7 6.566 1.165
v 12.7 6.866 1.506
v 12.7 6.866 3.795
v 12.7 8.12 1.506
v 12.7 8.12 3.795
v 12.7 8.42 1.165
v 12.7 9.321 1.165
v 12.7 9.622 1.506
v 12.7 9.622 3.795
v 12.7 4.27 0.4885
v 12.7 4.807 3.369
v 12.7 4.807 3.788
v 12.7 10.18 3.369
v 12.7 10.18 3.788
v 12.7 10.72 0.4885
vn 0.8893 0.08717 -0.4489
vn 0 0 -1
vn 0.8893 -0.08717 -0.4489
vn 0 0 -1
vn 0.7021 0.06881 0.7088
vn 0.7021 -0.06881 0.7088
vn -0.7071 0 0.7071
vn -0.7071 0 0.7071
vn -0.7071 0 0.7071
vn -0.7071 0 0.7071
vn -0.7071 0 -0.7071
vn -0.7071 0 -0.7071
vn -0.7071 0 -0.7071
vn -0.7071 0 -0.7071
vn -0.5774 0.5774 -0.5774
vn 0.607 0.4986 -0.6188
vn -0.5774 0.5774 0.5774
vn 0.607 0.4986 0.6188
vn -0.5774 -0.5774 -0.5774
vn 0.607 -0.4986 -0.6188
vn 0.607 -0.4986 0.6188
vn -0.5774 -0.5774 0.5774
vn 0.2138 -0.9571 0.1956
vn 0 0 -1
vn 1 0.0007045 -5.186e-05
vn -1 0 -0.001062
vn -1 0 -0.001062
vn 0.2138 0.9571 0.1956
vn 0 0 -1
vn 1 -0.0007046 -5.186e-05
vn -1 0 -0.001062
vn -1 0 -0.001062
vn 0.2107 -0.9775 0
vn 1 0.00129 0
vn 0.001556 -0.008494 1
vn 0.2107 0.9775 0
vn 1 -0.00129 0
vn 0.001556 0.008495 1
vn -0.3318 -0.3228 0.8864
vn -0.0636 -0.998 0
vn -0.3318 0.3228 0.8864
vn -0.0636 0.998 0
vn -0.3314 -0.3376 -0.881
vn -0.06704 -0.9759 0.2078
vn -0.3314 0.3376 -0.881
vn -0.06704 0.9759 0.2078
vn 0 0 1
vn 0.07428 0.9972 0
vn 0.001444 0.0003706 -1
vn 0.0007929 -0.001134 -1
vn 0.001321 0 -1
vn 0.001556 0.008495 1
vn 0 0 1
vn 0.07428 -0.9972 0
vn 0 0 1
vn 0.0007929 0.001134 -1
vn 0.001444 -0.0003706 -1
vn 0.001321 0 -1
vn 0.001556 -0.008494 1
vn 0 0 1
vn 0.07411 -0.9762 0.2037
vn 0 0 -1
vn 0 0 -1
vn 0.07411 0.9762 0.2037
vn 0.2133 0.972 0.09829
vn 1 -0.0007046 -5.186e-05
vn 1 -0.00129 0
vn 0.2133 -0.972 0.09829
vn 1 0.0007045 -5.186e-05
vn 1 0.00129 0
vn 0.07458 -0.9919 0.1024
vn -0.06568 -0.9924 0.1045
vn -0.7083 -0.7051 0.0345
vn -0.7083 0.7051 0.0345
vn -0.06568 0.9924 0.1045
vn 0.07458 0.9919 0.1024
vn -0.7624 -0.6471 0.004842
vn -0.7624 0.6471 0.004842
vn -0.5811 0.4898 -0.6499
vn -0.5811 -0.4898 -0.6499
vn -0.5755 -0.4919 0.6533
vn -0.5755 0.4919 0.6533
vn -0.8402 -0.541 -0.03553
vn -0.8402 0.541 -0.03553
vn -0.6422 0.3983 -0.655
vn -0.6422 -0.3983 -0.655
vn -0.6472 -0.4326 0.6277
vn -0.6472 0.4326 0.6277
vn -0.9099 -0.4114 -0.05386
vn -0.9099 0.4114 -0.05386
vn -0.6832 0.3077 -0.6623
vn -0.6832 -0.3077 -0.6623
vn -0.7128 -0.3236 0.6223
vn -0.7128 0.3236 0.6223
vn -0.9845 -0.1634 -0.06422
vn -0.9845 0.1634 -0.06422
vn -0.9197 0.1589 -0.359
vn -0.9197 -0.1589 -0.359
vn -0.9551 -0.1519 0.2543
vn -0.9551 0.1519 0.2543
vn 0 -1 0
vn 0 -0.7508 -0.6606
vn 1 0.0007045 -5.186e-05
vn 1 0.00129 0
vn 0 1 0
vn 0 0.7508 -0.6606
vn -1 0 0
vn -1 0 0
vn 0 -1 0
vn 1 0.00129 0
vn 0.001556 -0.008494 1
vn 0 1 0
vn -1 0 0
vn 0 0 -1
vn 0 -1 0
vn -0.5731 -0.8195 0
vn 0.0007929 0.001134 -1
vn 0.001556 -0.008494 1
vn 0 1 0
vn -0.5731 0.8195 0
vn 0.001444 -0.0003706 -1
vn 0 0 -1
vn 0.001321 0 -1
vn 0 -1 0
vn -0.3699 -0.8172 -0.4421
vn 0 1 0
vn -0.3699 0.8172 -0.4421
vn -0.8869 -0.462 0
vn 0.0007929 0.001134 -1
vn 0.001321 0 -1
vn -0.8869 0.462 0
vn 0.001444 -0.0003706 -1
vn 0.001321 0 -1
vn -0.8823 0.4411 -0.1644
vn -0.8823 -0.4411 -0.1644
vn -0.1267 -0.4052 -0.9054
vn -0.1267 0.4052 -0.9054
vn 0 0.412 -0.9112
vn -1 0 0
vn -1 0 -0.001062
vn -1 0 -0.001062
vn 0 -0.412 -0.9112
vn 1 0.0007045 -5.186e-05
vn -1 0 -0.001062
vn -0.647 -0.3087 -0.6972
vn -0.647 0.3087 -0.6972
vn 0 -1 0
vn 0 -0.7508 -0.6606
vn -1 0 0
vn -1 0 0
vn 0 1 0
vn 0 0.7508 -0.6606
vn 1 -0.0007046 -5.186e-05
vn 1 -0.00129 0
vn 0 -1 0
vn -1 0 0
vn 0 0 -1
vn 0 1 0
vn 1 -0.00129 0
vn 0.001556 0.008495 1
vn 0 -1 0
vn -0.5731 -0.8195 0
vn 0.001444 0.0003706 -1
vn 0 0 -1
vn 0.001321 0 -1
vn 0 1 0
vn -0.5731 0.8195 0
vn 0.0007929 -0.001134 -1
vn 0.001556 0.008495 1
vn 0 -1 0
vn -0.3699 -0.8172 -0.4421
vn 0 1 0
vn -0.3699 0.8172 -0.4421
vn -0.8869 -0.462 0
vn 0.001444 0.0003706 -1
vn 0.001321 0 -1
vn -0.8869 0.462 0
vn 0.0007929 -0.001134 -1
vn 0.001321 0 -1
vn -0.8823 0.4411 -0.1644
vn -0.8823 -0.4411 -0.1644
vn -0.1267 -0.4052 -0.9054
vn -0.1267 0.4052 -0.9054
vn 0 0.412 -0.9112
vn 1 -0.0007046 -5.186e-05
vn -1 0 -0.001062
vn 0 -0.412 -0.9112
vn -1 0 0
vn -1 0 -0.001062
vn -1 0 -0.001062
vn -0.647 -0.3087 -0.6972
vn -0.647 0.3087 -0.6972
vn 0.001444 -0.0003706 -1
vn 0.001321 0 -1
vn 0 0 1
vn 0.001444 0.0003706 -1
vn 0.001321 0 -1
vn 0 0 1
f 39//1 41//3 42//6 40//5
f 40//5 42//6 36//9 34//7
f 34//7 36//9 35//13 33//11
f 33//11 35//13 41//4 39//2
f 45//16 37//15 38//17 46//18
f 31//19 43//20 44//21 32//22
f 41//3 35//14 37//15 45//16
f 35//14 36//10 38//17 37//15
f 36//10 42//6 46//18 38//17
f 42//6 41//3 45//16 46//18
f 33//12 39//1 43//20 31//19
f 39//1 40//5 44//21 43//20
f 40//5 34//8 32//22 44//21
f 34//8 33//12 31//19 32//22
f 5//95 6//96 2//97 1//98
f 47//62 52//63 96//29 91//24
f 96//28 52//64 50//76 94//65
f 47//61 91//23 92//68 48//71
f 49//55 51//47 29//41 27//39
f 25//44 47//61 48//71 26//72
f 25//43 30//45 52//63 47//62
f 50//76 52//64 30//46 28//75
f 48//71 92//68 93//33 49//54
f 26//72 48//71 49//54 27//40
f 3//99 4//100 6//96 5//95
f 51//48 50//76 28//75 29//42
f 94//65 50//76 51//48 95//36
f 28//74 30//45 20//79 24//78
f 30//45 25//43 19//80 20//79
f 25//43 26//73 23//77 19//80
f 27//39 29//41 22//82 21//81
f 29//41 28//74 24//78 22//82
f 26//73 27//39 21//81 23//77
f 24//78 20//79 14//85 18//84
f 20//79 19//80 13//86 14//85
f 19//80 23//77 17//83 13//86
f 21//81 22//82 16//88 15//87
f 22//82 24//78 18//84 16//88
f 23//77 21//81 15//87 17//83
f 18//84 14//85 8//91 12//90
f 14//85 13//86 7//92 8//91
f 13//86 17//83 11//89 7//92
f 15//87 16//88 10//94 9//93
f 16//88 18//84 12//90 10//94
f 17//83 15//87 9//93 11//89
f 12//90 8//91 2//97 6//96
f 8//91 7//92 1//98 2//97
f 7//92 11//89 5//95 1//98
f 9//93 10//94 4//100 3//99
f 10//94 12//90 6//96 4//100
f 11//89 9//93 3//99 5//95
f 56//128 60//131 59//134 55//135
f 69//136 70//137 82//138 81//142
f 83//105 71//126 72//119 84//112
f 67//124 79//101 80//109 68//115
f 72//120 71//127 59//134 60//131
f 70//137 69//136 57//145 58//146
f 67//125 68//116 56//128 55//135
f 71//127 83//106 82//138 70//137
f 79//102 67//125 69//136 81//142
f 67//125 55//135 57//145 69//136
f 55//135 59//134 58//146 57//145
f 59//134 71//127 70//137 58//146
f 62//174 66//177 65//180 61//181
f 75//182 76//183 88//184 87//187
f 89//151 77//172 78//166 90//158
f 73//170 85//147 86//155 74//161
f 78//167 77//173 65//180 66//177
f 76//183 75//182 63//191 64//192
f 73//171 74//162 62//174 61//181
f 77//173 89//152 88//184 76//183
f 85//148 73//171 75//182 87//187
f 73//171 61//181 63//191 75//182
f 61//181 65//180 64//192 63//191
f 65//180 77//173 76//183 64//192
f 92//69 91//25 81//143 79//103
f 96//30 94//66 89//153 88//185
f 94//67 95//37 90//159 89//154
f 93//34 92//70 79//104 80//110
f 83//107 84//113 86//156 85//149
f 82//139 83//108 85//150 87//188
f 81//144 82//140 91//26
f 87//189 88//186 96//31
f 82//141 87//190 96//32 91//27
f 56//129 68//117 49//56
f 72//121 60//132 49//57 53//193
f 60//133 56//130 49//58
f 62//175 74//163 54//196 51//49
f 78//168 66//178 51//50
f 66//179 62//176 51//51
f 49//59 93//35 80//111 68//118
f 95//38 51//52 78//169 90//160
f 74//164 86//157 84//114 72//122
f 54//197 74//165 72//123 53//194
f 51//53 49//60 53//195 54//198
