# RokuSuper Output Ver2.0 for Wavefront Obj

v 12.05712700 0.58185200 1.74144600
v 16.94899700 2.60812900 1.74144600
v 7.16526000 2.60813300 1.74144600
v 5.13898400 7.50000100 1.74144600
v 18.97527700 7.49999900 1.74144600
v 7.16525800 12.39186300 1.74144600
v 18.79633300 7.49999900 2.35697500
v 5.13898400 7.49999900 2.35697500
v 7.16526200 12.39186900 2.35697500
v 12.05713100 0.58185200 2.35697500
v 7.16526200 2.60813100 2.35697500
v 16.94899700 2.60813100 2.35697500
v 12.05712700 14.41814600 1.74144600
v 12.05713100 14.41814600 2.35697500
v 16.94899700 12.39186900 1.74144600
v 16.94899700 12.39186900 2.35697500
v 12.43743500 3.04703500 5.86243200
v 12.75130500 2.86582200 5.86243200
v 12.75130300 2.50339700 5.86243200
v 12.43743300 2.32218500 5.86243200
v 12.12356400 2.86582200 5.86243200
v 12.12356400 2.50339800 5.86243200
v 12.12356400 2.50339800 4.03086800
v 12.43743500 2.32218500 4.03086800
v 12.75130500 2.50339700 4.03086800
v 12.75130500 2.86582200 4.03086800
v 12.43743500 3.04703500 4.03086800
v 12.12356400 2.86582200 4.03086800
v 4.64999800 0.42203600 5.83103400
v 5.08157000 0.40406300 6.08043600
v 5.08157000 0.40406300 4.37301400
v 4.64999600 0.42203600 4.62241500
v 7.50946400 0.30137400 6.08043600
v 7.50946400 0.30137400 4.37301400
v 4.37742400 0.43312100 5.22672400
v 7.50946400 3.74039400 4.37301400
v 5.08157000 3.74039400 4.37301400
v 4.64999600 3.74039400 4.62241500
v 4.37742400 3.74039400 5.22672400
v 4.64999800 3.74039400 5.83103400
v 5.08157100 3.74039400 6.08043600
v 7.50946600 3.74039400 6.08043600
v 12.75130300 12.49660300 5.86243200
v 12.75130300 12.13417600 5.86243200
v 12.43743300 11.95296500 5.86243200
v 12.43743300 12.67781600 5.86243200
v 12.12356400 12.13417600 5.86243200
v 12.12356400 12.49660300 5.86243200
v 12.12356400 12.49660300 4.03086800
v 12.43743300 12.67781600 4.03086800
v 12.75130300 12.49660300 4.03086800
v 12.75130300 12.13417600 4.03086800
v 12.43743300 11.95296500 4.03086800
v 12.12356400 12.13417600 4.03086800
v 0.63571900 6.40780700 5.07127900
v 0.63572100 8.59219200 5.07127900
v 0.83556600 9.68438500 5.16147500
v 0.83556400 5.31561400 5.16147500
v 1.20955300 10.87272300 5.33427000
v 1.20955300 4.12727600 5.33427000
v 1.20926700 4.12727600 2.08895600
v 1.20926700 10.87272300 2.08895600
v 1.74245100 3.08156900 2.03541700
v 1.74245100 11.91843000 2.03541700
v 2.42791000 1.97476300 1.98521600
v 2.42790900 13.02523600 1.98521600
v 5.08206700 1.97476300 1.74986300
v 5.08206700 13.02523600 1.74986300
v 18.99055900 5.31561400 1.74986300
v 18.99055900 9.68438500 1.74986300
v 18.73084600 11.80539100 1.74986300
v 18.73084600 3.19460700 1.74986300
v 18.06376300 11.81783100 5.01659300
v 18.06376300 3.18216800 5.01659300
v 1.67469600 3.08156900 5.54827500
v 3.18039000 3.60241800 6.22034800
v 5.08206700 1.97476300 4.15125600
v 2.42791000 1.97476300 4.15125800
v 0.83541900 5.31561400 2.10630700
v 0.63555900 6.40780700 2.12365800
v 15.50119800 3.60241800 6.22034800
v 14.03943500 1.97476300 4.15125800
v 14.03943500 1.97476300 1.74986300
v 18.10307300 2.50364300 4.17657300
v 18.62125000 2.58963300 1.74986300
v 18.29567300 5.31561400 4.90726400
v 5.08206700 13.02523600 4.15125800
v 3.18039100 11.39758100 6.22034800
v 1.67469600 11.91843000 5.54827500
v 2.42790900 13.02523600 4.15125800
v 0.63556100 8.59219200 2.12365800
v 0.83542100 9.68438500 2.10630800
v 14.03943500 13.02523600 4.15125800
v 15.50119800 11.39758100 6.22034800
v 14.03943500 13.02523600 1.74986300
v 18.10307300 12.49635700 4.17657200
v 18.62125000 12.41036600 1.74986300
v 18.29567300 9.68438500 4.90726400
v 5.08157000 14.59593600 4.37301400
v 5.08157000 14.59593600 6.08043600
v 4.64999600 14.57796300 5.83103400
v 4.64999600 14.57796300 4.62241500
v 7.50946400 14.69862600 4.37301400
v 7.50946400 14.69862600 6.08043600
v 4.37742300 14.56687700 5.22672400
v 7.50946400 11.25960500 4.37301400
v 5.08157000 11.25960500 4.37301400
v 4.64999600 11.25960500 4.62241500
v 4.37742300 11.25960500 5.22672400
v 4.64999600 11.25960500 5.83103400
v 5.08157000 11.25960500 6.08043600
v 7.50946400 11.25960500 6.08043600

vn 0.00000000 0.00000000 -1.00000000
vn 0.00000000 0.00000000 -1.00000000
vn 0.00000000 0.00000000 -1.00000000
vn 0.00000000 0.00000000 -1.00000000
vn 0.00000000 0.00000000 -1.00000000
vn 0.00000000 0.00000000 -1.00000000
vn 0.00000000 0.00000000 -1.00000000
vn 0.00000000 0.00000000 -1.00000000
vn 0.00000000 0.00000000 -1.00000000
vn 0.00000000 0.00000000 -1.00000000
vn 0.00000000 0.00000000 -1.00000000
vn 0.00000000 0.00000000 1.00000000
vn 0.00000000 0.00000000 1.00000000
vn 0.00000000 0.00000000 1.00000000
vn 0.00000000 0.00000000 1.00000000
vn 0.00000000 0.00000000 1.00000000
vn 0.00000000 0.00000000 1.00000000
vn 0.00000000 0.00000000 1.00000000
vn 0.00000000 0.00000000 1.00000000
vn 0.00000000 0.00000000 1.00000000
vn 0.00000000 0.00000000 1.00000000
vn 0.00000000 0.00000000 1.00000000
vn -0.79717523 0.60374800 -0.00000107
vn -0.60374827 0.79717503 -0.00000063
vn -0.99060233 0.13677360 0.00000081
vn -0.99060234 -0.13677356 0.00000063
vn -0.60374827 0.79717503 -0.00000063
vn -0.79717523 0.60374800 -0.00000107
vn -0.13677383 0.99060230 -0.00000233
vn 0.13677327 0.99060238 0.00000000
vn 0.13677327 0.99060238 0.00000000
vn -0.13677383 0.99060230 -0.00000233
vn 0.61146504 0.79127145 -0.00000089
vn 0.79840048 0.59479298 0.09369087
vn 0.79840048 0.59479298 0.09369087
vn 0.61146504 0.79127145 -0.00000089
vn 0.97308100 0.13612367 0.18596697
vn 0.97414383 -0.12683452 0.18696737
vn 0.97414383 -0.12683452 0.18696737
vn 0.97308100 0.13612367 0.18596697
vn 0.79804192 -0.59509848 0.09479921
vn 0.60374800 -0.79717523 0.00000063
vn 0.60374800 -0.79717523 0.00000063
vn 0.79804192 -0.59509848 0.09479921
vn 0.13677360 -0.99060233 0.00000107
vn -0.13677397 -0.99060228 -0.00000063
vn -0.13677397 -0.99060228 -0.00000063
vn 0.13677360 -0.99060233 0.00000107
vn -0.60374824 -0.79717505 0.00000089
vn -0.79717538 -0.60374781 -0.00000044
vn -0.79717538 -0.60374781 -0.00000044
vn -0.60374824 -0.79717505 0.00000089
vn -0.99060234 -0.13677356 0.00000063
vn -0.99060233 0.13677360 0.00000081
vn 0.00000000 0.00000000 -1.00000000
vn 0.00000000 0.00000000 -1.00000000
vn 0.00000000 0.00000000 -1.00000000
vn 0.00000000 0.00000000 1.00000000
vn 0.00000000 0.00000000 1.00000000
vn 0.00000000 0.00000000 1.00000000
vn 0.00000000 0.00000000 1.00000000
vn 0.00000000 0.00000000 1.00000000
vn 0.00000000 0.00000000 1.00000000
vn 0.00000000 0.00000000 1.00000000
vn 0.00000000 0.00000000 1.00000000
vn 0.00000000 0.00000000 1.00000000
vn 0.00000000 0.00000000 1.00000000
vn 0.00000000 0.00000000 1.00000000
vn -0.50000015 -0.86602532 -0.00000027
vn -0.49999895 -0.86602601 0.00000000
vn -0.18898298 -0.98198036 -0.00000000
vn 0.18898024 -0.98198089 0.00000021
vn 0.18898024 -0.98198089 0.00000021
vn -0.18898298 -0.98198036 -0.00000000
vn 0.49999808 -0.86602651 0.00000055
vn 0.49999808 -0.86602651 0.00000055
vn 1.00000000 -0.00000276 0.00000055
vn 1.00000000 0.00000000 0.00000109
vn 1.00000000 -0.00000276 0.00000055
vn 1.00000000 -0.00000552 0.00000000
vn 0.50000015 0.86602532 0.00000000
vn 0.50000015 0.86602532 0.00000000
vn 0.18898269 0.98198042 0.00000000
vn -0.18898134 0.98198068 0.00000000
vn -0.18898134 0.98198068 0.00000000
vn 0.18898269 0.98198042 0.00000000
vn -0.49999895 0.86602601 0.00000000
vn -0.49999895 0.86602601 0.00000000
vn -1.00000000 0.00000000 0.00000000
vn -1.00000000 0.00000000 0.00000000
vn -1.00000000 0.00000000 0.00000000
vn -1.00000000 0.00000000 0.00000000
vn -0.04182543 -0.99912493 0.00000002
vn -0.04112191 -0.99915414 0.00000007
vn -0.04128433 -0.99914744 0.00000005
vn -0.04204154 -0.99911586 0.00000000
vn -0.04225772 -0.99910674 0.00000000
vn -0.04182543 -0.99912493 0.00000002
vn -0.04204154 -0.99911586 0.00000000
vn -0.04225772 -0.99910674 0.00000000
vn -0.04128433 -0.99914744 0.00000005
vn -0.04112191 -0.99915414 0.00000007
vn -0.04063442 -0.99917408 0.00000007
vn 0.00000000 0.00000000 -1.00000000
vn -0.34397970 0.00000000 -0.93897709
vn -0.17198985 0.00000000 -0.98509872
vn 0.00000000 0.00000000 -1.00000000
vn -0.34397970 0.00000000 -0.93897709
vn -0.80901090 0.00000000 -0.58779365
vn -0.66582986 0.00000000 -0.74610361
vn -0.17198985 0.00000000 -0.98509872
vn -0.80901090 0.00000000 -0.58779365
vn -0.98888543 0.00000000 0.14867956
vn -0.98888574 0.00000000 -0.14867746
vn -0.66582986 0.00000000 -0.74610361
vn -0.98888543 0.00000000 0.14867956
vn -0.66583101 0.00000005 0.74610259
vn -0.80901055 0.00000000 0.58779412
vn -0.98888574 0.00000000 -0.14867746
vn -0.66583101 0.00000005 0.74610259
vn -0.17199104 0.00000005 0.98509851
vn -0.34398176 0.00000005 0.93897633
vn -0.80901055 0.00000000 0.58779412
vn -0.17199104 0.00000005 0.98509851
vn 0.00000000 0.00000000 1.00000000
vn 0.00000000 0.00000000 1.00000000
vn -0.34398176 0.00000005 0.93897633
vn 1.00000000 -0.00000029 -0.00000059
vn 1.00000000 -0.00000058 0.00000000
vn 1.00000000 -0.00000029 -0.00000059
vn 1.00000000 0.00000000 -0.00000117
vn 0.00000000 0.00000000 1.00000000
vn 0.00000000 0.00000000 1.00000000
vn 0.00000000 0.00000000 1.00000000
vn 0.00000000 0.00000000 1.00000000
vn 0.00000000 0.00000000 1.00000000
vn 0.00000000 0.00000000 1.00000000
vn 0.00000000 0.00000000 1.00000000
vn 0.00000000 0.00000000 1.00000000
vn -0.75592967 0.65465283 0.00000000
vn -0.50000134 0.86602463 0.00000000
vn -0.50000134 0.86602463 0.00000000
vn -0.94491133 0.32732642 0.00000000
vn 0.50000015 0.86602532 0.00000000
vn 0.94491120 0.32732679 0.00000000
vn 0.75592903 0.65465358 0.00000000
vn 0.50000015 0.86602532 0.00000000
vn 0.94491120 0.32732679 0.00000000
vn 1.00000000 0.00000000 0.00000000
vn 1.00000000 0.00000000 0.00000000
vn 0.75592903 0.65465358 0.00000000
vn 0.49999601 -0.86602771 0.00000000
vn -0.18898126 -0.98198069 0.00000000
vn 0.18897991 -0.98198095 0.00000000
vn 0.49999601 -0.86602771 0.00000000
vn -0.18898126 -0.98198069 0.00000000
vn -0.49999720 -0.86602702 0.00000000
vn -0.49999720 -0.86602702 0.00000000
vn 0.18897991 -0.98198095 0.00000000
vn -1.00000000 0.00000000 0.00000000
vn -0.75592967 0.65465283 0.00000000
vn -0.94491133 0.32732642 0.00000000
vn -1.00000000 0.00000000 0.00000000
vn -0.41137194 0.00000028 0.91146757
vn -0.41137066 0.00000038 0.91146815
vn -0.41406064 0.00000025 0.91024930
vn -0.41674697 0.00000013 0.90902253
vn -0.41674697 0.00000013 0.90902253
vn -0.41406064 0.00000025 0.91024930
vn -0.41894199 0.00000006 0.90801300
vn -0.41845586 0.00000000 0.90823713
vn -0.41845586 0.00000000 0.90823713
vn -0.41894199 0.00000006 0.90801300
vn -0.35690601 -0.16920381 0.91868829
vn -0.30811205 0.29128444 0.90566017
vn -0.06423358 0.00000008 -0.99793489
vn -0.08208784 0.00000000 -0.99662510
vn -0.06643960 0.00000015 -0.99779045
vn -0.06643976 0.00000026 -0.99779044
vn -0.09096207 0.00000000 -0.99585436
vn -0.08200473 -0.00000000 -0.99663194
vn -0.08208784 0.00000000 -0.99662510
vn -0.06423358 0.00000008 -0.99793489
vn -0.07813862 -0.00000000 -0.99694250
vn -0.08323383 -0.00000000 -0.99653004
vn -0.08200473 -0.00000000 -0.99663194
vn -0.09096207 0.00000000 -0.99585436
vn -0.04420660 -0.00000000 -0.99902241
vn -0.04420660 0.00000000 -0.99902241
vn -0.08323383 -0.00000000 -0.99653004
vn -0.07813862 -0.00000000 -0.99694250
vn 0.00000000 0.00000000 -1.00000000
vn 0.00000000 0.00000000 -1.00000000
vn 0.00000000 0.00000000 -1.00000000
vn 0.00000000 0.00000000 -1.00000000
vn 0.00000000 0.00000000 -1.00000000
vn 0.00000000 0.00000000 -1.00000000
vn 0.00000000 0.00000000 -1.00000000
vn 0.00000000 0.00000000 -1.00000000
vn 0.15689932 0.45689356 0.87557460
vn 0.15689930 -0.45689361 0.87557458
vn 0.57305105 -0.27815280 0.77087192
vn 0.61397304 0.38224926 0.69059584
vn -0.11568926 -0.44338741 0.88883272
vn -0.35690601 -0.16920381 0.91868829
vn -0.40255529 -0.86798048 0.29079052
vn 0.00000010 -0.94497620 0.32713908
vn -0.99590867 -0.09036549 0.00005237
vn -0.96546255 -0.26054188 0.00005877
vn -0.97540152 -0.22043563 0.00004853
vn -0.99590908 -0.09036092 0.00005406
vn -0.92180937 -0.38760178 -0.00568808
vn -0.86004944 -0.51008959 -0.01111629
vn -0.88229565 -0.47056469 -0.01110259
vn -0.94184482 -0.33604811 0.00007005
vn -0.96546255 -0.26054188 0.00005877
vn -0.92180937 -0.38760178 -0.00568808
vn -0.94184482 -0.33604811 0.00007005
vn -0.97540152 -0.22043563 0.00004853
vn -0.86004944 -0.51008959 -0.01111629
vn -0.31892467 -0.94778007 0.00000000
vn -0.40255529 -0.86798048 0.29079052
vn -0.88229565 -0.47056469 -0.01110259
vn 0.15689930 -0.45689361 0.87557458
vn -0.11568926 -0.44338741 0.88883272
vn 0.00000010 -0.94497620 0.32713908
vn 0.06420675 -0.94548986 0.31925917
vn -0.31892467 -0.94778007 0.00000000
vn 0.00000000 -1.00000000 0.00000000
vn 0.00000010 -0.94497620 0.32713908
vn -0.40255529 -0.86798048 0.29079052
vn 0.00000000 -1.00000000 0.00000000
vn 0.06665101 -0.99777635 0.00000000
vn 0.06420675 -0.94548986 0.31925917
vn 0.00000010 -0.94497620 0.32713908
vn 0.06420675 -0.94548986 0.31925917
vn 0.06665101 -0.99777635 0.00000000
vn 0.13105578 -0.99136777 -0.00378486
vn 0.11983319 -0.93650883 0.32953183
vn 0.06420675 -0.94548986 0.31925917
vn 0.11983319 -0.93650883 0.32953183
vn 0.57305105 -0.27815280 0.77087192
vn 0.15689930 -0.45689361 0.87557458
vn 0.96870621 -0.14409884 0.20209847
vn 0.57305105 -0.27815280 0.77087192
vn 0.96344635 -0.18069789 0.19778625
vn 0.96416577 -0.17466653 0.19968968
vn 0.87257085 -0.03940747 0.48689543
vn 0.57305105 -0.27815280 0.77087192
vn 0.96870621 -0.14409884 0.20209847
vn 0.97489888 -0.05947531 0.21455735
vn -0.11568928 0.44338730 0.88883277
vn 0.00000000 0.94497617 0.32713916
vn -0.40255562 0.86798031 0.29079058
vn -0.30811205 0.29128444 0.90566017
vn -0.35690601 -0.16920381 0.91868829
vn -0.11568926 -0.44338741 0.88883272
vn -0.11568928 0.44338730 0.88883277
vn -0.30811205 0.29128444 0.90566017
vn -0.99272144 0.12043316 0.00005164
vn -0.99818549 0.06021400 0.00005418
vn -0.97540164 0.22043513 0.00004853
vn -0.96546281 0.26054089 0.00005877
vn -0.92180956 0.38760131 -0.00568808
vn -0.94184516 0.33604715 0.00007005
vn -0.88229574 0.47056450 -0.01110259
vn -0.86004966 0.51008922 -0.01111630
vn -0.96546281 0.26054089 0.00005877
vn -0.97540164 0.22043513 0.00004853
vn -0.94184516 0.33604715 0.00007005
vn -0.92180956 0.38760131 -0.00568808
vn -0.86004966 0.51008922 -0.01111630
vn -0.88229574 0.47056450 -0.01110259
vn -0.40255562 0.86798031 0.29079058
vn -0.31892484 0.94778001 0.00000000
vn 0.15689932 0.45689356 0.87557460
vn 0.06420675 0.94548988 0.31925912
vn 0.00000000 0.94497617 0.32713916
vn -0.11568928 0.44338730 0.88883277
vn -0.06643960 0.00000015 -0.99779045
vn -0.08649002 0.00000008 -0.99625272
vn -0.08648848 0.00000017 -0.99625285
vn -0.06643976 0.00000026 -0.99779044
vn -0.11568926 -0.44338741 0.88883272
vn 0.15689930 -0.45689361 0.87557458
vn 0.15689932 0.45689356 0.87557460
vn -0.11568928 0.44338730 0.88883277
vn -0.31892484 0.94778001 0.00000000
vn -0.40255562 0.86798031 0.29079058
vn 0.00000000 0.94497617 0.32713916
vn 0.00000000 1.00000000 0.00000000
vn 0.00000000 0.00000000 -1.00000000
vn -0.04420660 0.00000000 -0.99902241
vn -0.04420660 -0.00000000 -0.99902241
vn 0.00000000 0.00000000 -1.00000000
vn 0.00000000 1.00000000 0.00000000
vn 0.00000000 0.94497617 0.32713916
vn 0.06420675 0.94548988 0.31925912
vn 0.06665101 0.99777635 0.00000000
vn 0.06420675 0.94548988 0.31925912
vn 0.11983305 0.93650890 0.32953167
vn 0.13105566 0.99136779 -0.00378510
vn 0.06665101 0.99777635 0.00000000
vn 0.00000000 0.00000000 -1.00000000
vn 0.00000000 0.00000000 -1.00000000
vn 0.00000000 0.00000000 -1.00000000
vn 0.00000000 0.00000000 -1.00000000
vn -0.99590867 -0.09036549 0.00005237
vn -0.99590908 -0.09036092 0.00005406
vn -0.99818549 0.06021400 0.00005418
vn -0.99272144 0.12043316 0.00005164
vn 0.06420675 0.94548988 0.31925912
vn 0.15689932 0.45689356 0.87557460
vn 0.61397304 0.38224926 0.69059584
vn 0.11983305 0.93650890 0.32953167
vn 0.57305105 -0.27815280 0.77087192
vn 0.87257085 -0.03940747 0.48689543
vn 0.87257085 0.03940748 0.48689543
vn 0.61397304 0.38224926 0.69059584
vn 0.96870623 0.14409877 0.20209846
vn 0.96416581 0.17466625 0.19968971
vn 0.96344639 0.18069772 0.19778624
vn 0.61397304 0.38224926 0.69059584
vn 0.87257085 0.03940748 0.48689543
vn 0.97586003 0.03964241 0.21476888
vn 0.96870623 0.14409877 0.20209846
vn 0.61397304 0.38224926 0.69059584
vn 0.87257085 -0.03940747 0.48689543
vn 0.97489888 -0.05947531 0.21455735
vn 0.97586003 0.03964241 0.21476888
vn 0.87257085 0.03940748 0.48689543
vn -0.04182549 0.99912493 0.00000000
vn -0.04204181 0.99911585 0.00000000
vn -0.04128547 0.99914739 0.00000000
vn -0.04112363 0.99915407 0.00000000
vn -0.04225813 0.99910673 0.00000000
vn -0.04225813 0.99910673 0.00000000
vn -0.04204181 0.99911585 0.00000000
vn -0.04182549 0.99912493 0.00000000
vn -0.04128547 0.99914739 0.00000000
vn -0.04063808 0.99917393 0.00000000
vn -0.04112363 0.99915407 0.00000000
vn 0.00000000 0.00000000 -1.00000000
vn 0.00000000 0.00000000 -1.00000000
vn -0.17198985 0.00000000 -0.98509872
vn -0.34397970 0.00000000 -0.93897709
vn -0.34397970 0.00000000 -0.93897709
vn -0.17198985 0.00000000 -0.98509872
vn -0.66582954 0.00000000 -0.74610390
vn -0.80901034 0.00000000 -0.58779441
vn -0.80901034 0.00000000 -0.58779441
vn -0.66582954 0.00000000 -0.74610390
vn -0.98888554 0.00000000 -0.14867882
vn -0.98888563 0.00000000 0.14867820
vn -0.98888563 0.00000000 0.14867820
vn -0.98888554 0.00000000 -0.14867882
vn -0.80901092 0.00000000 0.58779362
vn -0.66583057 0.00000000 0.74610298
vn -0.66583057 0.00000000 0.74610298
vn -0.80901092 0.00000000 0.58779362
vn -0.34398080 0.00000000 0.93897668
vn -0.17199040 0.00000000 0.98509863
vn -0.17199040 0.00000000 0.98509863
vn -0.34398080 0.00000000 0.93897668
vn 0.00000000 0.00000000 1.00000000
vn 0.00000000 0.00000000 1.00000000
vn 1.00000000 0.00000000 0.00000000
vn 1.00000000 0.00000000 0.00000000
vn 1.00000000 0.00000000 0.00000000
vn 1.00000000 0.00000000 0.00000000

g ²ã
f 3//1 2//2 1//3
f 5//4 4//5 6//6 15//7
f 2//8 3//9 4//10 5//11
f 7//12 16//13 9//14 8//15
f 12//16 11//17 10//18
f 11//19 12//20 7//21 8//22
f 9//23 6//24 4//25 8//26
f 6//27 9//28 14//29 13//30
f 13//31 14//32 16//33 15//34
f 15//35 16//36 7//37 5//38
f 5//39 7//40 12//41 2//42
f 2//43 12//44 10//45 1//46
f 1//47 10//48 11//49 3//50
f 3//51 11//52 8//53 4//54
f 13//55 15//56 6//57
f 9//58 16//59 14//60
f 18//61 17//62 20//63 19//64
f 17//65 21//66 22//67 20//68
f 22//69 23//70 24//71 20//72
f 20//73 24//74 25//75 19//76
f 19//77 25//78 26//79 18//80
f 18//81 26//82 27//83 17//84
f 17//85 27//86 28//87 21//88
f 21//89 28//90 23//91 22//92
f 30//93 29//94 32//95 31//96
f 33//97 30//98 31//99 34//100
f 32//101 29//102 35//103
f 34//104 31//105 37//106 36//107
f 31//108 32//109 38//110 37//111
f 32//112 35//113 39//114 38//115
f 35//116 29//117 40//118 39//119
f 29//120 30//121 41//122 40//123
f 30//124 33//125 42//126 41//127
f 42//128 33//129 34//130 36//131
f 44//132 43//133 46//134 45//135
f 45//136 46//137 48//138 47//139
f 48//140 46//141 50//142 49//143
f 46//144 43//145 51//146 50//147
f 43//148 44//149 52//150 51//151
f 44//152 45//153 53//154 52//155
f 45//156 47//157 54//158 53//159
f 47//160 48//161 49//162 54//163
f 56//164 55//165 58//166 57//167
f 57//168 58//169 60//170 59//171
f 59//172 60//173 75//174 89//175
f 62//176 61//177 79//178 92//179
f 64//180 63//181 61//182 62//183
f 66//184 65//185 63//186 64//187
f 68//188 67//189 65//190 66//191
f 70//192 69//193 72//194 71//195
f 71//196 72//197 85//198 97//199
f 94//200 81//201 74//202 73//203
f 76//204 75//205 78//206 77//207
f 80//208 79//209 58//210 55//211
f 61//212 63//213 75//214 60//215
f 79//216 61//217 60//218 58//219
f 63//220 65//221 78//222 75//223
f 81//224 76//225 77//226 82//227
f 65//228 67//229 77//230 78//231
f 67//232 83//233 82//234 77//235
f 82//236 83//237 85//238 84//239
f 82//240 84//241 74//242 81//243
f 72//244 74//245 84//246 85//247
f 86//248 74//249 72//250 69//251
f 88//252 87//253 90//254 89//255
f 75//256 76//257 88//258 89//259
f 91//260 56//261 57//262 92//263
f 62//264 59//265 89//266 64//267
f 92//268 57//269 59//270 62//271
f 64//272 89//273 90//274 66//275
f 94//276 93//277 87//278 88//279
f 79//280 80//281 91//282 92//283
f 76//284 81//285 94//286 88//287
f 66//288 90//289 87//290 68//291
f 83//292 67//293 68//294 95//295
f 68//296 87//297 93//298 95//299
f 93//300 96//301 97//302 95//303
f 85//304 83//305 95//306 97//307
f 80//308 55//309 56//310 91//311
f 93//312 94//313 73//314 96//315
f 74//316 86//317 98//318 73//319
f 71//320 97//321 96//322 73//323
f 98//324 70//325 71//326 73//327
f 86//328 69//329 70//330 98//331
f 100//332 99//333 102//334 101//335
f 104//336 103//337 99//338 100//339
f 102//340 105//341 101//342
f 103//343 106//344 107//345 99//346
f 99//347 107//348 108//349 102//350
f 102//351 108//352 109//353 105//354
f 105//355 109//356 110//357 101//358
f 101//359 110//360 111//361 100//362
f 100//363 111//364 112//365 104//366
f 112//367 106//368 103//369 104//370

