# RokuSuper Output Ver2.0 for Wavefront Obj

v 1.50044800 5.00000100 0.87266500
v 2.52491900 7.47329200 0.87266500
v 4.99821000 8.49776200 0.87266500
v 4.99821000 5.00000100 0.87266500
v 7.47150200 7.47329200 0.87266500
v 8.49596500 5.00000100 0.87266500
v 7.47150200 2.52670800 0.87266500
v 4.99821000 1.50223900 0.87266500
v 2.52491900 2.52670800 0.87266500
v 1.50044800 5.00000100 0.01765700
v 4.99821000 5.00000100 0.01765700
v 4.99821000 8.49776200 0.01765700
v 2.52491900 7.47329200 0.01765700
v 8.49596500 5.00000100 0.01765700
v 7.47150200 7.47329200 0.01765700
v 4.99821000 1.50223900 0.01765700
v 7.47150200 2.52670800 0.01765700
v 2.52491900 2.52670800 0.01765700

vn 0.00000000 0.00000000 1.00000000
vn 0.00000000 0.00000000 1.00000000
vn 0.00000000 0.00000000 1.00000000
vn 0.00000000 0.00000000 1.00000000
vn 0.00000000 0.00000000 1.00000000
vn 0.00000000 0.00000000 1.00000000
vn 0.00000000 0.00000000 1.00000000
vn 0.00000000 0.00000000 1.00000000
vn 0.00000000 0.00000000 1.00000000
vn 0.00000000 0.00000000 1.00000000
vn 0.00000000 0.00000000 1.00000000
vn 0.00000000 0.00000000 1.00000000
vn 0.00000000 0.00000000 1.00000000
vn 0.00000000 0.00000000 1.00000000
vn 0.00000000 0.00000000 1.00000000
vn 0.00000000 0.00000000 1.00000000
vn 0.00000000 0.00000000 -1.00000000
vn 0.00000000 0.00000000 -1.00000000
vn 0.00000000 0.00000000 -1.00000000
vn 0.00000000 0.00000000 -1.00000000
vn 0.00000000 0.00000000 -1.00000000
vn 0.00000000 0.00000000 -1.00000000
vn 0.00000000 0.00000000 -1.00000000
vn 0.00000000 0.00000000 -1.00000000
vn 0.00000000 0.00000000 -1.00000000
vn 0.00000000 0.00000000 -1.00000000
vn 0.00000000 0.00000000 -1.00000000
vn 0.00000000 0.00000000 -1.00000000
vn 0.00000000 0.00000000 -1.00000000
vn 0.00000000 0.00000000 -1.00000000
vn 0.00000000 0.00000000 -1.00000000
vn 0.00000000 0.00000000 -1.00000000
vn -0.60374790 0.79717531 0.00000000
vn 0.13677345 0.99060235 0.00000000
vn -0.13677359 0.99060233 0.00000000
vn -0.79717510 0.60374817 0.00000000
vn 0.13677345 0.99060235 0.00000000
vn 0.79717623 0.60374669 0.00000000
vn 0.60374850 0.79717486 0.00000000
vn -0.13677359 0.99060233 0.00000000
vn 0.79717623 0.60374669 0.00000000
vn 0.99060249 -0.13677244 0.00000000
vn 0.99060245 0.13677272 0.00000000
vn 0.60374850 0.79717486 0.00000000
vn 0.99060249 -0.13677244 0.00000000
vn 0.60374838 -0.79717495 0.00000000
vn 0.79717628 -0.60374661 0.00000000
vn 0.99060245 0.13677272 0.00000000
vn 0.60374838 -0.79717495 0.00000000
vn -0.13677346 -0.99060235 0.00000000
vn 0.13677332 -0.99060237 0.00000000
vn 0.79717628 -0.60374661 0.00000000
vn -0.13677346 -0.99060235 0.00000000
vn -0.79717516 -0.60374810 0.00000000
vn -0.60374778 -0.79717540 0.00000000
vn 0.13677332 -0.99060237 0.00000000
vn -0.79717516 -0.60374810 0.00000000
vn -0.99060231 0.13677377 0.00000000
vn -0.99060235 -0.13677349 0.00000000
vn -0.60374778 -0.79717540 0.00000000
vn -0.99060231 0.13677377 0.00000000
vn -0.60374790 0.79717531 0.00000000
vn -0.79717510 0.60374817 0.00000000
vn -0.99060235 -0.13677349 0.00000000

g ²ã
f 2//1 1//2 4//3 3//4
f 5//5 3//6 4//7 6//8
f 7//9 6//10 4//11 8//12
f 9//13 8//14 4//15 1//16
f 11//17 10//18 13//19 12//20
f 11//21 12//22 15//23 14//24
f 11//25 14//26 17//27 16//28
f 11//29 16//30 18//31 10//32
f 2//33 3//34 12//35 13//36
f 3//37 5//38 15//39 12//40
f 5//41 6//42 14//43 15//44
f 6//45 7//46 17//47 14//48
f 7//49 8//50 16//51 17//52
f 8//53 9//54 18//55 16//56
f 9//57 1//58 10//59 18//60
f 1//61 2//62 13//63 10//64

