# Rhino

o object_1
v -2.323 3.493 0.01177
v -2.323 3.493 0.5795
v -2.323 6.507 0.01177
v -2.323 6.507 0.5795
v 0.2054 3.493 0.01177
v 0.2054 3.493 0.5795
v 0.2054 6.507 0.01177
v 0.2054 6.507 0.5795
v 0.5334 3.069 0.01177
v 0.5334 3.406 1.385
v 0.5334 3.493 0.01177
v 0.5334 3.493 1.385
v 0.5334 6.507 0.01177
v 0.5334 6.507 1.385
v 0.5334 6.594 1.385
v 0.5334 6.932 0.01177
v 1.066 5 0.788
v 1.066 5 2.216
v 1.222 4.623 0.788
v 1.222 4.623 2.216
v 1.222 5.377 0.788
v 1.222 5.377 2.216
v 1.321 5 2.216
v 1.321 5 3.377
v 1.403 4.804 2.216
v 1.403 4.804 3.377
v 1.403 5.197 2.216
v 1.403 5.197 3.377
v 1.599 4.467 0.788
v 1.599 4.467 2.216
v 1.599 4.722 2.216
v 1.599 4.722 3.377
v 1.599 5 0.788
v 1.599 5 3.377
v 1.599 5.278 2.216
v 1.599 5.278 3.377
v 1.599 5.533 0.788
v 1.599 5.533 2.216
v 1.796 4.804 2.216
v 1.796 4.804 3.377
v 1.796 5.197 2.216
v 1.796 5.197 3.377
v 1.877 5 2.216
v 1.877 5 3.377
v 1.976 4.623 0.788
v 1.976 4.623 2.216
v 1.976 5.377 0.788
v 1.976 5.377 2.216
v 2.132 5 0.788
v 2.132 5 2.216
v 2.215 3.069 0.01177
v 2.215 3.406 1.385
v 2.215 3.493 0.01177
v 2.215 3.493 1.385
v 2.215 6.507 0.01177
v 2.215 6.507 1.385
v 2.215 6.594 1.385
v 2.215 6.932 0.01177
v 2.619 3.493 1.168
v 2.619 6.507 1.168
v 2.975 3.493 0.01177
v 2.975 6.507 0.01177
vn -0.9906 -0.1368 0
vn -0.9906 -0.1368 0
vn 0 0 1
vn 0 0 1
vn -0.7972 0.6037 0
vn -0.7972 0.6037 0
vn 0 0 1
vn 0 0 1
vn -0.6037 0.7972 0
vn -0.6037 0.7972 0
vn 0 0 1
vn 0 0 1
vn -0.9906 0.1368 0
vn -0.9906 0.1368 0
vn 0 0 1
vn 0 0 1
vn -0.6037 -0.7972 0
vn -0.6037 -0.7972 0
vn 0 0 1
vn 0 0 1
vn -0.7972 -0.6037 0
vn -0.7972 -0.6037 0
vn 0 0 1
vn 0 0 1
vn 0.1368 -0.9906 0
vn 0.1368 -0.9906 0
vn 0 0 1
vn 0 0 1
vn -0.1368 -0.9906 0
vn -0.1368 -0.9906 0
vn 0 0 1
vn 0 0 1
vn 0.7972 -0.6037 0
vn 0.7972 -0.6037 0
vn 0 0 1
vn 0 0 1
vn 0.6037 -0.7972 0
vn 0.6037 -0.7972 0
vn 0 0 1
vn 0 0 1
vn 0.9906 0.1368 0
vn 0.9906 0.1368 0
vn 0 0 1
vn 0 0 1
vn 0.9906 -0.1368 0
vn 0.9906 -0.1368 0
vn 0 0 1
vn 0 0 1
vn 0.6037 0.7972 0
vn 0.6037 0.7972 0
vn 0 0 1
vn 0 0 1
vn 0.7972 0.6037 0
vn 0.7972 0.6037 0
vn 0 0 1
vn 0 0 1
vn -0.1368 0.9906 0
vn -0.1368 0.9906 0
vn 0 0 1
vn 0 0 1
vn 0.1368 0.9906 0
vn 0.1368 0.9906 0
vn 0 0 1
vn 0 0 1
vn 0 0 -1
vn 0 0 -1
vn 0 0 -1
vn 0 0 -1
vn 0 0 -1
vn 0 0 -1
vn 0 0 -1
vn 0 0 -1
vn 0 0 -1
vn 0 0 -1
vn -0.7972 0.6037 0
vn -0.7972 0.6037 0
vn 0 0 -1
vn 0 0 -1
vn -0.9906 -0.1368 0
vn -0.9906 -0.1368 0
vn 0 0 -1
vn 0 0 -1
vn -0.6037 -0.7972 0
vn -0.6037 -0.7972 0
vn 0 0 -1
vn 0 0 -1
vn 0.1368 -0.9906 0
vn 0.1368 -0.9906 0
vn 0 0 -1
vn 0 0 -1
vn 0.7972 -0.6037 0
vn 0.7972 -0.6037 0
vn 0 0 -1
vn 0 0 -1
vn 0.9906 0.1368 0
vn 0.9906 0.1368 0
vn 0 0 -1
vn 0 0 -1
vn 0.6037 0.7972 0
vn 0.6037 0.7972 0
vn 0 0 -1
vn 0 0 -1
vn -0.1368 0.9906 0
vn -0.1368 0.9906 0
vn 0 0 1
vn 0 0 1
vn 0 0 1
vn 0 0 1
vn 0 0 1
vn 0 0 1
vn 0 0 1
vn 0 0 1
vn 0 0 1
vn 0 0 1
vn -0.9906 0.1368 0
vn -0.9906 0.1368 0
vn 0 0 1
vn 0 0 1
vn -0.6037 0.7972 0
vn -0.6037 0.7972 0
vn 0 0 1
vn 0 0 1
vn -0.7972 -0.6037 0
vn -0.7972 -0.6037 0
vn 0 0 1
vn 0 0 1
vn -0.1368 -0.9906 0
vn -0.1368 -0.9906 0
vn 0 0 1
vn 0 0 1
vn 0.6037 -0.7972 0
vn 0.6037 -0.7972 0
vn 0 0 1
vn 0 0 1
vn 0.9906 -0.1368 0
vn 0.9906 -0.1368 0
vn 0 0 1
vn 0 0 1
vn 0.7972 0.6037 0
vn 0.7972 0.6037 0
vn 0 0 1
vn 0 0 1
vn 0.1368 0.9906 0
vn 0.1368 0.9906 0
vn 0.9556 0 0.2948
vn 0 0 -1
vn 0 1 0
vn 0.9556 0 0.2948
vn 0 0 -1
vn 0 -1 0
vn 0.6798 0 0.7334
vn 0.6798 0 0.7334
vn 0 -1 0
vn 0.8514 0 0.5245
vn 0 1 0
vn 0.8514 0 0.5245
vn 0.09681 0 0.9953
vn 0.09681 0 0.9953
vn 0 -1 0
vn 1 0 0
vn 0.09681 0 0.9953
vn -0.5582 0 0.8297
vn -0.5582 0 0.8297
vn 0 -1 0
vn -0.5582 0 0.8297
vn -1 0 0
vn -0.207 0 0.9783
vn -0.207 0 0.9783
vn 0 1 0
vn -1 0 0
vn -0.207 0 0.9783
vn -1 0 0
vn 0 0 1
vn 0 1 0
vn -1 0 0
vn 0 0 1
vn 0 -1 0
vn -1 0 0
vn 0 0 -1
vn 0 -1 0
vn -1 0 0
vn 0 1 0
vn 0 0 -1
vn 0 0 -1
vn 0 0 -1
vn 0 -1 0
vn 0 0 -1
vn -1 0 0
vn 0 0 -1
vn 0 0 -1
vn 0 -1 0
vn 0 0 -1
vn 1 0 0
vn 0 0 -1
vn 0 0 -1
vn 0 1 0
vn 0 0 -1
vn 1 0 0
vn 0 0.9711 0.2387
vn 0 0 -1
vn -1 0 0
vn 0 0.9711 0.2387
vn 0 0 -1
vn 1 0 0
vn 0 0.9711 0.2387
vn 0 0 1
vn 1 0 0
vn 0 0.9711 0.2387
vn -1 0 0
vn 0 0 1
vn 0 -0.9711 0.2387
vn 0 0 -1
vn 1 0 0
vn 0 -0.9711 0.2387
vn 0 0 -1
vn -1 0 0
vn 0 -0.9711 0.2387
vn 0 0 1
vn -1 0 0
vn 0 -0.9711 0.2387
vn 1 0 0
vn 0 0 1
vn 0.2448 0 0.9696
vn 0 1 0
vn 0.2448 0 0.9696
vn 0.2448 0 0.9696
vn 1 0 0
vn -0.3631 0 0.9318
vn -0.3631 0 0.9318
vn 0 -1 0
vn 0 -1 0
vn -0.7262 0 0.6875
vn -0.7262 0 0.6875
vn 0 1 0
vn 0 1 0
vn 0 0 -1
vn 0 1 0
vn 0 0 -1
vn 0 0 -1
vn -1 0 0
vn 0 1 0
vn 0 1 0
vn 0 0 -1
vn 0 0 -1
vn 0 0 -1
vn 0 0 -1
vn 0 -1 0
vn 0 -1 0
f 27//5 23//1 24//13 28//9
f 23//2 25//17 26//21 24//14
f 25//18 31//25 32//29 26//22
f 31//26 39//33 40//37 32//30
f 39//34 43//41 44//45 40//38
f 43//42 41//49 42//53 44//46
f 41//50 35//57 36//61 42//54
f 35//58 27//6 28//10 36//62
f 17//77 21//73 33//65
f 19//81 17//78 33//66
f 29//85 19//82 33//67
f 45//89 29//86 33//68
f 49//93 45//90 33//69
f 47//97 49//94 33//70
f 37//101 47//98 33//71
f 21//74 37//102 33//72
f 28//11 24//15 34//105
f 24//16 26//23 34//106
f 26//24 32//31 34//107
f 32//32 40//39 34//108
f 40//40 44//47 34//109
f 44//48 42//55 34//110
f 42//56 36//63 34//111
f 36//64 28//12 34//112
f 23//3 27//7 22//117 18//113
f 25//19 23//4 18//114 20//121
f 31//27 25//20 20//122 30//125
f 39//35 31//28 30//126 46//129
f 43//43 39//36 46//130 50//133
f 41//51 43//44 50//134 48//137
f 35//59 41//52 48//138 38//141
f 27//8 35//60 38//142 22//118
f 18//115 22//119 21//75 17//79
f 20//123 18//116 17//80 19//83
f 30//127 20//124 19//84 29//87
f 46//131 30//128 29//88 45//91
f 50//135 46//132 45//92 49//95
f 48//139 50//136 49//96 47//99
f 38//143 48//140 47//100 37//103
f 22//120 38//144 37//104 21//76
f 61//148 62//145 60//154 59//151
f 54//157 56//223 14//167 12//162
f 2//175 4//172 3//181 1//178
f 11//184 13//236 55//194 53//189
f 58//202 16//199 15//208 57//205
f 9//214 51//211 52//220 10//217
f 53//190 55//195 62//146 61//149
f 55//196 56//224 60//155 62//147
f 56//225 54//158 59//152 60//156
f 54//159 53//191 61//150 59//153
f 12//163 14//168 8//232 6//228
f 6//229 8//233 4//173 2//176
f 14//169 13//237 7//241 8//234
f 8//235 7//242 3//182 4//174
f 13//238 11//185 5//245 7//243
f 7//244 5//246 1//179 3//183
f 11//186 12//164 6//230 5//247
f 5//248 6//231 2//177 1//180
f 55//197 13//239 16//200 58//203
f 13//240 14//170 15//209 16//201
f 14//171 56//226 57//206 15//210
f 56//227 55//198 58//204 57//207
f 11//187 53//192 51//212 9//215
f 53//193 54//160 52//221 51//213
f 54//161 12//165 10//218 52//222
f 12//166 11//188 9//216 10//219
