# Rhino

o object_1
v 0.08584 2.499 0.3024
v 0.08584 2.499 0.43
v 0.1639 2.499 0.3024
v 0.1639 2.499 0.009114
v 0.2536 1.873 0.3024
v 0.2536 1.873 0.43
v 0.2536 3.125 0.3024
v 0.2536 3.125 0.43
v 0.3213 1.912 0.009114
v 0.3213 1.912 0.3024
v 0.3213 3.086 0.3024
v 0.3213 3.086 0.009114
v 0.6879 2.499 0.43
v 0.6879 2.499 0.4995
v 0.7121 1.414 0.3024
v 0.7121 1.414 0.43
v 0.7121 3.584 0.3024
v 0.7121 3.584 0.43
v 0.7511 1.482 0.3024
v 0.7511 3.516 0.3024
v 0.7512 1.482 0.009114
v 0.7512 3.516 0.009114
v 0.775 2.174 0.43
v 0.775 2.174 0.4995
v 0.775 2.824 0.43
v 0.775 2.824 0.4995
v 1.013 1.936 0.43
v 1.013 1.936 0.4995
v 1.013 3.062 0.43
v 1.013 3.062 0.4995
v 1.338 1.247 0.3024
v 1.338 1.247 0.43
v 1.338 1.325 0.009114
v 1.338 1.325 0.3024
v 1.338 1.849 0.43
v 1.338 1.849 0.4995
v 1.338 3.15 0.43
v 1.338 3.15 0.4995
v 1.338 3.673 0.009114
v 1.338 3.673 0.3024
v 1.338 3.752 0.3024
v 1.338 3.752 0.43
v 1.664 1.936 0.43
v 1.664 1.936 0.4995
v 1.664 3.062 0.43
v 1.664 3.062 0.4995
v 1.902 2.174 0.43
v 1.902 2.174 0.4995
v 1.902 2.824 0.43
v 1.902 2.824 0.4995
v 1.926 1.482 0.009114
v 1.926 1.482 0.3024
v 1.926 3.516 0.009114
v 1.926 3.516 0.3024
v 1.965 1.414 0.3024
v 1.965 1.414 0.43
v 1.965 3.584 0.3024
v 1.965 3.584 0.43
v 1.989 2.499 0.43
v 1.989 2.499 0.4995
v 2.355 1.912 0.009114
v 2.355 1.912 0.3024
v 2.355 3.086 0.3024
v 2.355 3.086 0.009114
v 2.423 1.873 0.3024
v 2.423 1.873 0.43
v 2.423 3.125 0.3024
v 2.423 3.125 0.43
v 2.513 2.499 0.3024
v 2.513 2.499 0.009114
v 2.591 2.499 0.3024
v 2.591 2.499 0.43
vn 0 0 -1
vn 0 0 -1
vn 0 0 -1
vn 0 0 -1
vn 0 -2.8e-05 -1
vn 0 -2.8e-05 -1
vn 0 -2.8e-05 -1
vn 0 -2.8e-05 -1
vn 0 -4e-06 -1
vn 0 -4e-06 -1
vn 0 -4e-06 -1
vn 0 -4e-06 -1
vn 0 -4e-06 -1
vn 0 -4e-06 -1
vn 0 -4e-06 -1
vn 0 -4e-06 -1
vn 0 1.4e-05 -1
vn 0 1.4e-05 -1
vn 0 1.4e-05 -1
vn 0 1.4e-05 -1
vn 0 4e-06 -1
vn 0 4e-06 -1
vn 0 4e-06 -1
vn 0 4e-06 -1
vn 0 -2.8e-05 -1
vn 0 -2.8e-05 -1
vn 0 -2.8e-05 -1
vn 0 -2.8e-05 -1
vn 0 -2.8e-05 -1
vn 0 -2.8e-05 -1
vn 0 -2.8e-05 -1
vn 0 -2.8e-05 -1
vn 0 -7e-06 -1
vn 0 -7e-06 -1
vn 0 -7e-06 -1
vn 0 -7e-06 -1
vn 0 0 -1
vn 0 0 -1
vn 0 0 -1
vn 0 0 -1
vn 0 1.4e-05 -1
vn 0 1.4e-05 -1
vn 0 1.4e-05 -1
vn 0 1.4e-05 -1
vn 0 2.1e-05 -1
vn 0 2.1e-05 -1
vn 0 2.1e-05 -1
vn 0 2.1e-05 -1
vn 0.5 0.866 0
vn 0.5 0.866 0
vn 0 1 0
vn 0 1 0
vn 0 1 0
vn 0 1 0
vn -0.5 0.866 0
vn -0.5 0.866 0
vn -0.866 0.5 0
vn -0.866 0.5 0
vn -0.5 0.866 0
vn -0.5 0.866 0
vn -0.866 0.5 9e-06
vn -1 -6e-06 -9e-06
vn -0.866 0.5 9e-06
vn -1 -6e-06 -9e-06
vn -0.866 0.5 9e-06
vn -0.866 0.5 9e-06
vn -0.5 0.866 -4e-06
vn -0.5 0.866 -4e-06
vn -0.5 0.866 -4e-06
vn -0.5 0.866 -4e-06
vn -6e-06 1 -6e-06
vn -6e-06 1 -6e-06
vn -6e-06 1 -6e-06
vn -6e-06 1 -6e-06
vn 0.5 0.866 1.6e-05
vn 0.5 0.866 1.6e-05
vn 0.5 0.866 1.6e-05
vn 0.5 0.866 1.6e-05
vn 0.866 0.5 2.7e-05
vn 0.866 0.5 2.7e-05
vn 0.866 0.5 2.7e-05
vn 0.866 0.5 2.7e-05
vn 1 -6e-06 4e-06
vn 1 -6e-06 4e-06
vn 0.866 -0.5 -8e-06
vn 1 -6e-06 4e-06
vn 0.866 -0.5 -8e-06
vn 1 -6e-06 4e-06
vn 0.5 -0.866 0
vn 0.5 -0.866 0
vn 0.866 -0.5 -8e-06
vn 0.866 -0.5 -8e-06
vn 0.866 0.5 0
vn 0.866 0.5 0
vn 0.5 0.866 0
vn 0.5 0.866 0
vn -1 -8e-06 0
vn -0.866 0.5 0
vn -1 -8e-06 0
vn -0.866 0.5 0
vn -0.866 -0.5 -3.1e-05
vn -1 -6e-06 -9e-06
vn -0.866 -0.5 -3.1e-05
vn -1 -6e-06 -9e-06
vn -0.866 -0.5 -3.1e-05
vn -0.866 -0.5 -3.1e-05
vn -0.5 -0.866 -2.2e-05
vn -0.5 -0.866 -2.2e-05
vn -0.5 -0.866 -2.2e-05
vn -0.5 -0.866 -2.2e-05
vn -6e-06 -1 -6e-06
vn -6e-06 -1 -6e-06
vn -6e-06 -1 -6e-06
vn -6e-06 -1 -6e-06
vn 0.5 -0.866 0
vn 0.5 -0.866 0
vn 0 -1 0
vn 0 -1 0
vn 0.5 -0.866 0
vn 0.5 -0.866 0
vn 0.5 -0.866 0
vn 0.5 -0.866 0
vn 0.866 -0.5 0
vn 0.866 -0.5 0
vn 1 -8e-06 0
vn 0.866 -0.5 0
vn 1 -8e-06 0
vn 0.866 -0.5 0
vn 1 -8e-06 0
vn 1 -8e-06 0
vn 0.866 0.5 0
vn 0.866 0.5 0
vn 0 0 1
vn 0 0 1
vn 0 -5e-06 1
vn 0 0 1
vn 0 0 1
vn 0 5e-06 1
vn 0 -5e-06 1
vn 0 0 1
vn 0 7e-06 1
vn 0 7e-06 1
vn 0 0 1
vn 0 0 1
vn 0 5e-06 1
vn 0 -3e-06 1
vn 0 -5e-06 1
vn 0 -3e-06 1
vn 0 0 1
vn 0 5e-06 1
vn 0 0 1
vn 0 -5e-06 1
vn 0 0 1
vn 0 5e-06 1
vn 0 2e-06 1
vn 0 2e-06 1
vn 1 -1.6e-05 0
vn 1 -1.6e-05 0
vn 0.866 0.5 0
vn 0.866 0.5 0
vn 0.866 0.5 0
vn 0.866 0.5 0
vn 0.5 0.866 0
vn 0.5 0.866 0
vn 0.5 0.866 0
vn 0.5 0.866 0
vn -1.1e-05 1 0
vn -1.1e-05 1 0
vn -1.1e-05 1 0
vn -1.1e-05 1 0
vn -0.5 0.866 0
vn -0.5 0.866 0
vn -0.5 0.866 0
vn -0.5 0.866 0
vn -0.866 0.5 0
vn -0.866 0.5 0
vn -1 -1.6e-05 0
vn -0.866 0.5 0
vn -1 -1.6e-05 0
vn -0.866 0.5 0
vn -0.866 -0.5 0
vn -1 -8e-06 0
vn -0.866 -0.5 0
vn -1 -8e-06 0
vn -0.866 -0.5 0
vn -0.866 -0.5 0
vn -0.5 -0.866 0
vn -0.5 -0.866 0
vn -0.5 -0.866 0
vn -0.5 -0.866 0
vn 0 -1 0
vn 0 -1 0
vn 0.866 -0.5 0
vn 1 -1.6e-05 0
vn 0.866 -0.5 0
vn 1 -1.6e-05 0
vn -0.866 -0.5 0
vn -1 -1.6e-05 0
vn -0.866 -0.5 0
vn -1 -1.6e-05 0
vn -0.866 -0.5 0
vn -0.866 -0.5 0
vn -0.5 -0.866 0
vn -0.5 -0.866 0
vn -0.5 -0.866 0
vn -0.5 -0.866 0
vn -1.1e-05 -1 0
vn -1.1e-05 -1 0
vn -1.1e-05 -1 0
vn -1.1e-05 -1 0
vn 0.5 -0.866 0
vn 0.5 -0.866 0
vn 0.5 -0.866 0
vn 0.5 -0.866 0
vn 0.866 -0.5 0
vn 0.866 -0.5 0
f 57//1 54//2 41//3
f 41//3 54//2 40//4
f 67//5 63//6 57//7
f 57//7 63//6 54//8
f 67//9 71//10 63//11
f 63//11 71//10 69//12
f 71//13 65//14 69//15
f 69//15 65//14 62//16
f 65//17 55//18 62//19
f 62//19 55//18 52//20
f 55//21 31//22 52//23
f 52//23 31//22 34//24
f 15//25 19//26 31//27
f 31//27 19//26 34//28
f 5//29 10//30 15//31
f 15//31 10//30 19//32
f 1//33 3//34 5//35
f 5//35 3//34 10//36
f 7//37 11//38 1//39
f 1//39 11//38 3//40
f 7//41 17//42 11//43
f 11//43 17//42 20//44
f 17//45 41//46 20//47
f 20//47 41//46 40//48
f 58//49 57//50 42//51
f 42//51 57//50 41//52
f 42//53 41//54 18//55
f 18//55 41//54 17//56
f 7//57 8//58 17//59
f 17//59 8//58 18//60
f 12//61 4//62 11//63
f 11//63 4//62 3//64
f 12//65 11//66 22//67
f 22//67 11//66 20//68
f 22//69 20//70 39//71
f 39//71 20//70 40//72
f 39//73 40//74 53//75
f 53//75 40//74 54//76
f 53//77 54//78 64//79
f 64//79 54//78 63//80
f 64//81 63//82 70//83
f 70//83 63//82 69//84
f 61//85 70//86 62//87
f 62//87 70//86 69//88
f 52//89 51//90 62//91
f 62//91 51//90 61//92
f 68//93 67//94 58//95
f 58//95 67//94 57//96
f 2//97 8//98 1//99
f 1//99 8//98 7//100
f 10//101 3//102 9//103
f 9//103 3//102 4//104
f 10//105 9//106 19//107
f 19//107 9//106 21//108
f 19//109 21//110 34//111
f 34//111 21//110 33//112
f 34//113 33//114 52//115
f 52//115 33//114 51//116
f 32//117 31//118 56//119
f 56//119 31//118 55//120
f 56//121 55//122 66//123
f 66//123 55//122 65//124
f 72//125 66//126 71//127
f 71//127 66//126 65//128
f 72//129 71//130 68//131
f 68//131 71//130 67//132
f 68//133 58//134 72//135
f 58//134 42//136 72//135
f 42//136 45//137 72//135
f 45//137 49//138 72//135
f 49//138 59//139 72//135
f 45//137 42//136 37//140
f 42//136 18//141 37//140
f 37//140 18//141 29//142
f 18//141 8//143 29//142
f 29//142 8//143 25//144
f 8//143 2//145 25//144
f 25//144 2//145 13//146
f 2//145 6//147 13//146
f 13//146 6//147 23//148
f 6//147 16//149 23//148
f 23//148 16//149 27//150
f 16//149 32//151 27//150
f 27//150 32//151 35//152
f 32//151 56//153 35//152
f 35//152 56//153 43//154
f 56//153 66//155 43//154
f 43//154 66//155 47//156
f 66//155 72//135 47//156
f 59//139 47//156 72//135
f 60//157 59//158 50//159
f 50//159 59//158 49//160
f 50//161 49//162 46//163
f 46//163 49//162 45//164
f 46//165 45//166 38//167
f 38//167 45//166 37//168
f 38//169 37//170 30//171
f 30//171 37//170 29//172
f 30//173 29//174 26//175
f 26//175 29//174 25//176
f 14//177 26//178 13//179
f 13//179 26//178 25//180
f 6//181 2//182 5//183
f 5//183 2//182 1//184
f 6//185 5//186 16//187
f 16//187 5//186 15//188
f 16//189 15//190 32//191
f 32//191 15//190 31//192
f 47//193 59//194 48//195
f 48//195 59//194 60//196
f 24//197 14//198 23//199
f 23//199 14//198 13//200
f 24//201 23//202 28//203
f 28//203 23//202 27//204
f 28//205 27//206 36//207
f 36//207 27//206 35//208
f 36//209 35//210 44//211
f 44//211 35//210 43//212
f 44//213 43//214 48//215
f 48//215 43//214 47//216
