# Blender v2.63 (sub 13) OBJ File: 'tomahawk.blend'
# www.blender.org
mtllib tomahawk.mtl
o Cylinder
v -1.641185 -0.143488 -0.404834
v -1.641185 0.151862 -0.404834
v -1.342758 0.151862 -0.404834
v -1.342758 -0.143488 -0.404834
v -1.641185 -0.143488 -0.152106
v -1.641185 0.151862 -0.152106
v -1.389855 0.151862 -0.152106
v -1.389855 -0.143488 -0.152106
v -2.404167 -0.143488 -0.173716
v -2.404167 0.151862 -0.173716
v -2.404167 -0.143488 -0.152106
v -2.404167 0.151862 -0.152106
v -1.964681 -0.143488 -0.152106
v -1.964681 -0.143488 -0.327240
v -1.964681 0.151862 -0.152106
v -1.964681 0.151862 -0.327240
v -1.385194 0.122121 -0.274095
v -1.347419 0.122121 -0.364434
v -1.385194 -0.113747 -0.274095
v -1.347419 -0.113747 -0.364434
v -1.495088 0.122121 -0.282836
v -1.457314 0.122121 -0.373176
v -1.495088 -0.113747 -0.282836
v -1.457314 -0.113747 -0.373176
v -1.901135 0.252265 -0.000000
v 1.819019 0.217893 0.000000
v -1.901135 0.178378 -0.178378
v 1.819019 0.154074 -0.154074
v -1.901135 -0.000000 -0.252265
v 1.819019 -0.000000 -0.217893
v -1.901135 -0.178378 -0.178378
v 1.819019 -0.154074 -0.154074
v -1.901135 -0.252265 -0.000000
v 1.819019 -0.217893 0.000000
v -1.901135 -0.178378 0.178378
v 1.819019 -0.154074 0.154074
v -1.901135 0.000000 0.252265
v 1.819019 0.000000 0.217893
v -1.901135 0.178378 0.178378
v 1.819019 0.154074 0.154074
v 2.295640 0.252265 0.000000
v 2.295640 0.178378 -0.178378
v 2.295640 -0.000000 -0.252265
v 2.295640 -0.178378 -0.178378
v 2.295640 -0.252265 0.000000
v 2.295640 -0.178378 0.178378
v 2.295640 0.000000 0.252265
v 2.295640 0.178378 0.178378
v 2.567479 0.165918 0.000000
v 2.567479 0.117322 -0.117322
v 2.567479 -0.000000 -0.165918
v 2.567479 -0.117322 -0.117322
v 2.567479 -0.165918 0.000000
v 2.567479 -0.117322 0.117322
v 2.567479 0.000000 0.165918
v 2.567479 0.117322 0.117322
v 2.668628 0.095447 0.000000
v 2.668628 0.067491 -0.067491
v 2.668628 -0.000000 -0.095447
v 2.668628 -0.067491 -0.067491
v 2.668628 -0.095447 0.000000
v 2.668628 -0.067491 0.067492
v 2.668628 0.000000 0.095448
v 2.668628 0.067491 0.067492
v 2.731847 0.026034 0.000000
v 2.731847 0.018409 -0.018409
v 2.731847 -0.000000 -0.026034
v 2.731847 -0.018409 -0.018409
v 2.731847 -0.026034 0.000000
v 2.731847 -0.018409 0.018409
v 2.731847 0.000000 0.026034
v 2.731847 0.018409 0.018409
v -2.172974 0.240316 -0.000001
v -2.172974 0.169929 -0.169930
v -2.172974 -0.000000 -0.240316
v -2.172974 -0.169929 -0.169930
v -2.172974 -0.240316 -0.000001
v -2.172974 -0.169929 0.169928
v -2.172974 0.000000 0.240315
v -2.172974 0.169929 0.169928
v -3.108607 0.162965 -0.000001
v -3.108607 0.115233 -0.115234
v -3.108607 -0.000000 -0.162965
v -3.108607 -0.115233 -0.115234
v -3.108607 -0.162965 -0.000001
v -3.108607 -0.115233 0.115233
v -3.108607 0.000000 0.162964
v -3.108607 0.115233 0.115233
v 1.823401 -0.178378 0.178378
v 1.823401 0.000000 0.252265
v 1.823401 0.178378 0.178378
v 1.823401 0.252265 0.000000
v 1.823400 0.178378 -0.178378
v 1.823400 -0.000000 -0.252265
v 1.823400 -0.178378 -0.178378
v 1.823401 -0.252265 0.000000
v 1.787171 0.252265 0.000000
v 1.787171 0.178378 -0.178378
v 1.787171 -0.000000 -0.252265
v 1.787171 -0.178378 -0.178378
v 1.787171 -0.252265 0.000000
v 1.787171 -0.178378 0.178378
v 1.787171 0.000000 0.252265
v 1.787171 0.178378 0.178378
v 1.794634 -0.154074 -0.154074
v 1.794634 -0.000000 -0.217893
v 1.794634 0.154074 -0.154074
v 1.794634 0.217893 0.000000
v 1.794634 0.154074 0.154074
v 1.794634 0.000000 0.217893
v 1.794634 -0.154074 0.154074
v 1.794634 -0.217893 0.000000
v -3.084275 0.009286 0.102427
v -3.084513 0.009286 0.616142
v -2.832055 0.009286 0.610401
v -2.590197 0.009286 0.108167
v -3.084275 -0.000912 0.102427
v -3.084513 -0.000912 0.616142
v -2.832055 -0.000912 0.610401
v -2.590197 -0.000912 0.108167
v -3.084275 0.009286 -0.102427
v -3.084512 0.009286 -0.616142
v -2.832055 0.009286 -0.610402
v -2.590197 0.009286 -0.108168
v -3.084275 -0.000912 -0.102427
v -3.084512 -0.000912 -0.616142
v -2.832055 -0.000912 -0.610402
v -2.590197 -0.000912 -0.108168
v -3.091190 0.115780 0.005526
v -3.091428 0.629495 0.005526
v -2.838969 0.623755 0.005526
v -2.597111 0.121521 0.005526
v -3.091190 0.115780 0.018720
v -3.091428 0.629495 0.018720
v -2.838969 0.623755 0.018720
v -2.597111 0.121521 0.018720
v -3.091190 -0.115780 0.005526
v -3.091428 -0.629495 0.005526
v -2.838970 -0.623755 0.005526
v -2.597111 -0.121521 0.005526
v -3.091190 -0.115780 0.018720
v -3.091428 -0.629495 0.018720
v -2.838970 -0.623755 0.018720
v -2.597111 -0.121521 0.018720
v -0.545676 0.242164 -0.012999
v -0.437676 1.564918 -0.012999
v -0.186994 1.564918 -0.012999
v 0.054864 0.242164 -0.012999
v -0.545676 0.242164 0.007406
v -0.437676 1.564918 0.007406
v -0.186994 1.564918 0.007406
v 0.054864 0.242164 0.007406
v -0.545676 -0.242164 -0.012999
v -0.437676 -1.564918 -0.012999
v -0.186994 -1.564918 -0.012999
v 0.054864 -0.242164 -0.012999
v -0.545676 -0.242164 0.007406
v -0.437676 -1.564918 0.007406
v -0.186994 -1.564918 0.007406
v 0.054864 -0.242164 0.007406
vn -0.202399 -0.695944 -0.688955
vn 0.000000 -0.707083 0.707083
vn -0.577349 -0.577349 0.577349
vn -0.654073 -0.597095 -0.464339
vn 0.000000 0.707083 0.707083
vn 0.556566 0.584338 0.590533
vn 0.650105 0.508621 -0.564470
vn -0.085910 0.681600 -0.726646
vn 0.839229 -0.517777 -0.166051
vn 0.839229 0.517777 -0.166051
vn 0.705863 0.562487 -0.430494
vn 0.705863 -0.562487 -0.430494
vn -0.085910 -0.681600 -0.726646
vn 0.650105 -0.508621 -0.564470
vn 0.556566 -0.584338 0.590533
vn -0.577349 0.577349 0.577349
vn -0.654073 0.597095 -0.464339
vn -0.202399 0.695944 -0.688955
vn 0.811029 -0.378979 0.445601
vn 0.811029 0.378979 0.445601
vn 0.418165 0.595843 0.685598
vn 0.418165 -0.595843 0.685598
vn 0.714194 0.699911 0.000000
vn -0.752617 0.658406 0.000000
vn -0.752617 0.465560 -0.465560
vn 0.714194 0.494919 -0.494919
vn -0.752617 0.000000 -0.658406
vn 0.714194 0.000000 -0.699911
vn -0.752617 -0.465560 -0.465560
vn 0.714194 -0.494919 -0.494919
vn -0.752617 -0.658406 0.000000
vn 0.714194 -0.699911 0.000000
vn -0.752617 -0.465560 0.465560
vn 0.714194 -0.494919 0.494919
vn -0.752617 0.000000 0.658406
vn 0.714194 0.000000 0.699911
vn -0.590258 0.000000 0.807184
vn -0.590258 -0.570757 0.570757
vn 0.147801 -0.699332 0.699332
vn 0.147801 0.000000 0.989013
vn 0.714194 0.494919 0.494919
vn -0.752617 0.465560 0.465560
vn -0.021821 0.000000 -0.999756
vn -0.021821 -0.706931 -0.706931
vn -0.062868 -0.705679 -0.705679
vn -0.062868 0.000000 -0.998016
vn 0.147801 0.699332 -0.699332
vn 0.147801 0.989013 0.000000
vn 0.428236 0.903653 0.000000
vn 0.428236 0.638966 -0.638966
vn -0.590258 0.570757 0.570757
vn 0.147801 0.699332 0.699332
vn -0.590258 0.807184 0.000000
vn -0.590258 0.000000 -0.807184
vn -0.590258 0.570757 -0.570757
vn 0.147801 0.000000 -0.989013
vn -0.590258 -0.570757 -0.570757
vn 0.147801 -0.699332 -0.699332
vn -0.590258 -0.807184 0.000000
vn 0.147801 -0.989013 0.000000
vn 0.428236 0.000000 -0.903653
vn 0.646260 0.539567 -0.539567
vn 0.646260 0.000000 -0.763085
vn 0.428236 -0.638966 -0.638966
vn 0.428236 -0.903653 0.000000
vn 0.428236 0.000000 0.903653
vn 0.428236 0.638966 0.638966
vn 0.428236 -0.638966 0.638966
vn 0.646260 -0.539567 -0.539567
vn 0.900906 0.000000 -0.434004
vn 0.900906 -0.306864 -0.306864
vn 0.646290 -0.763085 0.000000
vn 0.646290 -0.539567 0.539567
vn 0.646290 0.539567 0.539567
vn 0.646290 0.763085 0.000000
vn 0.646290 0.000000 0.763085
vn 0.900906 0.306864 -0.306864
vn 0.900906 0.434004 0.000000
vn 0.900906 0.306864 0.306864
vn 0.900906 0.000000 0.434004
vn 0.900906 -0.306864 0.306864
vn 0.900906 -0.434004 0.000000
vn -0.062868 -0.998016 0.000000
vn -0.062868 -0.705679 0.705679
vn -0.660939 -0.530595 0.530595
vn -0.660939 -0.750389 0.000000
vn -0.021821 0.999756 0.000000
vn -0.021821 0.706931 -0.706931
vn -0.062868 0.705679 -0.705679
vn -0.062868 0.998016 0.000000
vn -0.021821 -0.999756 0.000000
vn -0.021821 -0.706931 0.706931
vn -0.021821 0.000000 0.999756
vn -0.062868 0.000000 0.998016
vn -0.021821 0.706931 0.706931
vn -0.062868 0.705679 0.705679
vn -0.660939 0.750389 0.000000
vn -0.660939 0.530595 -0.530595
vn -0.660939 0.530595 0.530595
vn -0.660939 0.000000 -0.750389
vn -0.660939 0.000000 0.750389
vn -0.660939 -0.530595 -0.530595
vn 0.561785 0.827265 0.000000
vn 0.561785 0.584948 -0.584948
vn 0.561785 0.000000 -0.827265
vn 0.561785 -0.584948 -0.584948
vn 0.561785 -0.827265 0.000000
vn 0.561785 -0.584948 0.584948
vn 0.561785 0.000000 0.827265
vn 0.561785 0.584948 0.584948
vn -0.574114 -0.576739 -0.581103
vn -0.571459 -0.576128 0.584338
vn -0.571459 0.576128 0.584338
vn -0.574114 0.576739 -0.581103
vn 0.430708 -0.606281 0.668477
vn 0.430708 0.606281 0.668477
vn 0.705313 -0.557756 -0.437483
vn 0.705313 0.557756 -0.437483
vn -0.574114 -0.576739 0.581103
vn -0.574114 0.576739 0.581103
vn -0.571459 0.576128 -0.584338
vn -0.571459 -0.576128 -0.584338
vn 0.430708 0.606281 -0.668477
vn 0.430708 -0.606281 -0.668477
vn 0.705313 0.557756 0.437483
vn 0.705313 -0.557756 0.437483
vn -0.574114 -0.581103 0.576739
vn -0.571459 0.584338 0.576128
vn -0.571459 0.584338 -0.576128
vn -0.574114 -0.581103 -0.576739
vn 0.430708 0.668477 0.606281
vn 0.430708 0.668477 -0.606281
vn 0.705313 -0.437483 0.557756
vn 0.705313 -0.437483 -0.557756
vn -0.574114 0.581103 0.576739
vn -0.574114 0.581103 -0.576739
vn -0.571459 -0.584338 -0.576128
vn -0.571459 -0.584338 0.576128
vn 0.430708 -0.668477 -0.606281
vn 0.430708 -0.668477 0.606281
vn 0.705313 0.437483 -0.557756
vn 0.705313 0.437483 0.557756
vn -0.602527 -0.555315 0.573168
vn -0.551225 0.598071 0.581744
vn -0.551225 0.598071 -0.581744
vn -0.602527 -0.555315 -0.573168
vn 0.518204 0.621540 0.587451
vn 0.518204 0.621540 -0.587451
vn 0.631886 -0.526841 0.568407
vn 0.631886 -0.526841 -0.568407
vn -0.602527 0.555315 0.573168
vn -0.602527 0.555315 -0.573168
vn -0.551225 -0.598071 -0.581744
vn -0.551225 -0.598071 0.581744
vn 0.518204 -0.621540 -0.587451
vn 0.518204 -0.621540 0.587451
vn 0.631886 0.526841 -0.568407
vn 0.631886 0.526841 0.568407
usemtl Material.001
s 1
f 14//1 13//2 11//3 9//4
f 6//5 7//6 3//7 2//8
f 17//9 19//10 23//11 21//12
f 1//13 4//14 8//15 5//2
f 1//13 2//8 3//7 4//14
f 8//15 7//6 6//5 5//2
f 11//3 12//16 10//17 9//4
f 13//2 15//5 12//16 11//3
f 15//5 16//18 10//17 12//16
f 16//18 14//1 9//4 10//17
f 1//13 5//2 13//2 14//1
f 5//2 6//5 15//5 13//2
f 6//5 2//8 16//18 15//5
f 2//8 1//13 14//1 16//18
f 17//9 18//19 3//7 7//6
f 19//10 17//9 7//6 8//15
f 20//20 19//10 8//15 4//14
f 18//19 20//20 4//14 3//7
f 21//12 23//11 24//21 22//22
f 19//10 20//20 24//21 23//11
f 20//20 18//19 22//22 24//21
f 21//12 22//22 18//19 17//9
f 108//23 26//24 28//25 107//26
f 107//26 28//25 30//27 106//28
f 106//28 30//27 32//29 105//30
f 105//30 32//29 34//31 112//32
f 112//32 34//31 36//33 111//34
f 111//34 36//33 38//35 110//36
f 90//37 89//38 46//39 47//40
f 109//41 40//42 26//24 108//23
f 110//36 38//35 40//42 109//41
f 29//43 31//44 76//45 75//46
f 42//47 41//48 49//49 50//50
f 91//51 90//37 47//40 48//52
f 92//53 91//51 48//52 41//48
f 94//54 93//55 42//47 43//56
f 95//57 94//54 43//56 44//58
f 93//55 92//53 41//48 42//47
f 96//59 95//57 44//58 45//60
f 89//38 96//59 45//60 46//39
f 51//61 50//50 58//62 59//63
f 45//60 44//58 52//64 53//65
f 48//52 47//40 55//66 56//67
f 44//58 43//56 51//61 52//64
f 47//40 46//39 54//68 55//66
f 43//56 42//47 50//50 51//61
f 46//39 45//60 53//65 54//68
f 41//48 48//52 56//67 49//49
f 60//69 59//63 67//70 68//71
f 54//68 53//65 61//72 62//73
f 49//49 56//67 64//74 57//75
f 50//50 49//49 57//75 58//62
f 53//65 52//64 60//69 61//72
f 56//67 55//66 63//76 64//74
f 52//64 51//61 59//63 60//69
f 55//66 54//68 62//73 63//76
f 66//77 65//78 72//79
f 66//77 72//79 67//70
f 72//79 71//80 67//70
f 71//80 70//81 67//70
f 70//81 68//71 67//70
f 70//81 69//82 68//71
f 63//76 62//73 70//81 71//80
f 59//63 58//62 66//77 67//70
f 62//73 61//72 69//82 70//81
f 57//75 64//74 72//79 65//78
f 58//62 57//75 65//78 66//77
f 61//72 60//69 68//71 69//82
f 64//74 63//76 71//80 72//79
f 77//83 78//84 86//85 85//86
f 25//87 27//88 74//89 73//90
f 31//44 33//91 77//83 76//45
f 33//91 35//92 78//84 77//83
f 35//92 37//93 79//94 78//84
f 37//93 39//95 80//96 79//94
f 39//95 25//87 73//90 80//96
f 27//88 29//43 75//46 74//89
f 81//97 82//98 88//99
f 82//98 83//100 88//99
f 83//100 87//101 88//99
f 83//100 86//85 87//101
f 83//100 84//102 86//85
f 84//102 85//86 86//85
f 80//96 73//90 81//97 88//99
f 73//90 74//89 82//98 81//97
f 76//45 77//83 85//86 84//102
f 79//94 80//96 88//99 87//101
f 75//46 76//45 84//102 83//100
f 78//84 79//94 87//101 86//85
f 74//89 75//46 83//100 82//98
f 38//35 36//33 89//38 90//37
f 40//42 38//35 90//37 91//51
f 26//24 40//42 91//51 92//53
f 30//27 28//25 93//55 94//54
f 32//29 30//27 94//54 95//57
f 28//25 26//24 92//53 93//55
f 34//31 32//29 95//57 96//59
f 36//33 34//31 96//59 89//38
f 25//87 97//103 98//104 27//88
f 27//88 98//104 99//105 29//43
f 29//43 99//105 100//106 31//44
f 31//44 100//106 101//107 33//91
f 33//91 101//107 102//108 35//92
f 35//92 102//108 103//109 37//93
f 39//95 104//110 97//103 25//87
f 37//93 103//109 104//110 39//95
f 101//107 112//32 111//34 102//108
f 104//110 109//41 108//23 97//103
f 99//105 106//28 105//30 100//106
f 102//108 111//34 110//36 103//109
f 97//103 108//23 107//26 98//104
f 100//106 105//30 112//32 101//107
f 98//104 107//26 106//28 99//105
f 103//109 110//36 109//41 104//110
f 117//111 118//112 114//113 113//114
f 118//112 119//115 115//116 114//113
f 119//115 120//117 116//118 115//116
f 120//117 117//111 113//114 116//118
f 113//114 114//113 115//116 116//118
f 120//117 119//115 118//112 117//111
f 125//119 121//120 122//121 126//122
f 126//122 122//121 123//123 127//124
f 127//124 123//123 124//125 128//126
f 128//126 124//125 121//120 125//119
f 121//120 124//125 123//123 122//121
f 128//126 125//119 126//122 127//124
f 133//127 134//128 130//129 129//130
f 134//128 135//131 131//132 130//129
f 135//131 136//133 132//134 131//132
f 136//133 133//127 129//130 132//134
f 129//130 130//129 131//132 132//134
f 136//133 135//131 134//128 133//127
f 141//135 137//136 138//137 142//138
f 142//138 138//137 139//139 143//140
f 143//140 139//139 140//141 144//142
f 144//142 140//141 137//136 141//135
f 137//136 140//141 139//139 138//137
f 144//142 141//135 142//138 143//140
f 149//143 150//144 146//145 145//146
f 150//144 151//147 147//148 146//145
f 151//147 152//149 148//150 147//148
f 152//149 149//143 145//146 148//150
f 145//146 146//145 147//148 148//150
f 152//149 151//147 150//144 149//143
f 157//151 153//152 154//153 158//154
f 158//154 154//153 155//155 159//156
f 159//156 155//155 156//157 160//158
f 160//158 156//157 153//152 157//151
f 153//152 156//157 155//155 154//153
f 160//158 157//151 158//154 159//156
