# Rhino

v 8.08809757232666 5 0.3506030142307282
v 8.08809757232666 5 0.3506030142307282
v 8.08809757232666 5 0.05739999935030937
v 8.08809757232666 5 0.05739999935030937
v 7.182466983795166 7.186385154724121 0.3506030142307282
v 7.182466983795166 7.186385154724121 0.3506030142307282
v 7.182466983795166 7.186385154724121 0.05739999935030937
v 7.182466983795166 7.186385154724121 0.05739999935030937
v 7.182466983795166 2.813615083694458 0.3506030142307282
v 7.182466983795166 2.813615083694458 0.3506030142307282
v 7.182466983795166 2.813615083694458 0.05739999935030937
v 7.182466983795166 2.813615083694458 0.05739999935030937
v 6.682637214660645 5 1.024570941925049
v 6.682637214660645 5 1.024570941925049
v 6.293430805206299 5 0.5059120059013367
v 6.188655853271484 6.19257402420044 1.024570941925049
v 6.188655853271484 6.19257402420044 1.024570941925049
v 6.188655853271484 3.807425975799561 1.024570941925049
v 6.188655853271484 3.807425975799561 1.024570941925049
v 5.91344690322876 5.917364120483398 0.5059120059013367
v 5.91344690322876 4.082635879516602 0.5059120059013367
v 5.501543998718262 5 1.299263954162598
v 5.501543998718262 5 1.299263954162598
v 5.501543998718262 5 0.5059120059013367
v 5.501543998718262 5 0.5059120059013367
v 5.353497982025147 5.357415199279785 1.299263954162598
v 5.353497982025147 5.357415199279785 1.299263954162598
v 5.353497982025147 5.357415199279785 0.5059120059013367
v 5.353497982025147 5.357415199279785 0.5059120059013367
v 5.353497982025147 4.642584800720215 1.299263954162598
v 5.353497982025147 4.642584800720215 1.299263954162598
v 5.353497982025147 4.642584800720215 0.5059120059013367
v 5.353497982025147 4.642584800720215 0.5059120059013367
v 4.996082782745361 8.092016220092773 0.3506030142307282
v 4.996082782745361 8.092016220092773 0.3506030142307282
v 4.996082782745361 8.092016220092773 0.05739999935030937
v 4.996082782745361 8.092016220092773 0.05739999935030937
v 4.996082782745361 6.686553955078125 1.024570941925049
v 4.996082782745361 6.686553955078125 1.024570941925049
v 4.996082782745361 6.297348976135254 0.5059120059013367
v 4.996082782745361 5.5054612159729 1.299263954162598
v 4.996082782745361 5.5054612159729 1.299263954162598
v 4.996082782745361 5.5054612159729 0.5059120059013367
v 4.996082782745361 5.5054612159729 0.5059120059013367
v 4.996082782745361 5 1.299263954162598
v 4.996082782745361 5 0.05739999935030937
v 4.996082782745361 4.4945387840271 1.299263954162598
v 4.996082782745361 4.4945387840271 1.299263954162598
v 4.996082782745361 4.4945387840271 0.5059120059013367
v 4.996082782745361 4.4945387840271 0.5059120059013367
v 4.996082782745361 3.702651023864746 0.5059120059013367
v 4.996082782745361 3.313446044921875 1.024570941925049
v 4.996082782745361 3.313446044921875 1.024570941925049
v 4.996082782745361 1.907984018325806 0.3506030142307282
v 4.996082782745361 1.907984018325806 0.3506030142307282
v 4.996082782745361 1.907984018325806 0.05739999935030937
v 4.996082782745361 1.907984018325806 0.05739999935030937
v 4.638668060302734 5.357415199279785 1.299263954162598
v 4.638668060302734 5.357415199279785 1.299263954162598
v 4.638668060302734 5.357415199279785 0.5059120059013367
v 4.638668060302734 5.357415199279785 0.5059120059013367
v 4.638668060302734 4.642584800720215 1.299263954162598
v 4.638668060302734 4.642584800720215 1.299263954162598
v 4.638668060302734 4.642584800720215 0.5059120059013367
v 4.638668060302734 4.642584800720215 0.5059120059013367
v 4.490622043609619 5 1.299263954162598
v 4.490622043609619 5 1.299263954162598
v 4.490622043609619 5 0.5059120059013367
v 4.490622043609619 5 0.5059120059013367
v 4.078719139099121 5.917364120483398 0.5059120059013367
v 4.078719139099121 4.082635879516602 0.5059120059013367
v 3.803508996963501 6.19257402420044 1.024570941925049
v 3.803508996963501 6.19257402420044 1.024570941925049
v 3.803508996963501 3.807425975799561 1.024570941925049
v 3.803508996963501 3.807425975799561 1.024570941925049
v 3.698734045028687 5 0.5059120059013367
v 3.309529066085815 5 1.024570941925049
v 3.309529066085815 5 1.024570941925049
v 2.809698104858398 7.186385154724121 0.3506030142307282
v 2.809698104858398 7.186385154724121 0.3506030142307282
v 2.809698104858398 7.186385154724121 0.05739999935030937
v 2.809698104858398 7.186385154724121 0.05739999935030937
v 2.809698104858398 2.813615083694458 0.3506030142307282
v 2.809698104858398 2.813615083694458 0.3506030142307282
v 2.809698104858398 2.813615083694458 0.05739999935030937
v 2.809698104858398 2.813615083694458 0.05739999935030937
v 1.904067993164063 5 0.3506030142307282
v 1.904067993164063 5 0.3506030142307282
v 1.904067993164063 5 0.05739999935030937
v 1.904067993164063 5 0.05739999935030937
vn 0.9906023144721985 -0.1367737352848053 0
vn 0.4316218793392181 0.05959462001919746 0.9000838994979858
vn 0.9906023144721985 0.1367737352848053 0
vn 0 0 -1
vn 0.7971751689910889 0.603748083114624 0
vn 0.2630630731582642 0.3473424017429352 0.9000838994979858
vn 0.6037482023239136 0.7971750497817993 0
vn 0 0 -1
vn 0.6037482023239136 -0.7971750497817993 0
vn 0.34734246134758 -0.2630631029605866 0.9000838994979858
vn 0.7971751689910889 -0.603748083114624 0
vn 0 0 -1
vn 0.4316218495368958 -0.05959457159042358 0.9000838994979858
vn -0.7950102686882019 -0.10976792126894 0.5965816974639893
vn -0.4354217946529388 1.800000006824121e-07 0.9002265334129334
vn 0.34734246134758 0.2630631625652313 0.9000838994979858
vn -0.4845397472381592 -0.6397751569747925 0.5965810418128967
vn 0.2630630433559418 -0.3473424017429352 0.9000839591026306
vn -0.6397750377655029 0.4845395386219025 0.5965813398361206
vn -0.307889848947525 -0.3078897297382355 0.9002264738082886
vn -0.3078900873661041 0.3078897893428803 0.9002264142036438
vn 0.9906023740768433 -0.1367735117673874 0
vn 0 0 1
vn 0.9906023740768433 0.1367735117673874 0
vn 0 0 1
vn 0.7971752882003784 0.6037479639053345 0
vn 0 0 1
vn 0.6037479639053345 0.7971752882003784 0
vn 0 0 1
vn 0.6037479639053345 -0.7971752882003784 0
vn 0 0 1
vn 0.7971752882003784 -0.6037479639053345 0
vn 0 0 1
vn 0.1367738544940949 0.9906023144721985 0
vn -0.05959447100758553 0.4316217005252838 0.9000840187072754
vn 0 0 -1
vn -0.1367736905813217 0.9906023144721985 0
vn 0.1097680330276489 -0.7950105667114258 0.5965812802314758
vn 0.05959466099739075 0.4316217303276062 0.9000839591026306
vn 5.000000058430487e-08 -0.4354220330715179 0.9002264738082886
vn 0.1367735117673874 0.9906023740768433 0
vn 0 0 1
vn 0 0 1
vn -0.1367735117673874 0.9906023740768433 0
vn 0 0 1
vn 0 0 -1
vn 0 0 1
vn -0.1367735117673874 -0.9906023740768433 0
vn 0.1367735117673874 -0.9906023740768433 0
vn 0 0 1
vn -1.000000011686097e-07 0.4354219734668732 0.9002264738082886
vn -0.05959454923868179 -0.4316217601299286 0.9000839591026306
vn -0.1097682192921639 0.7950106263160706 0.5965811610221863
vn 0.05959457159042358 -0.4316217005252838 0.9000840187072754
vn -0.1367736905813217 -0.9906023144721985 0
vn 0.1367738544940949 -0.9906023144721985 0
vn 0 0 -1
vn 0 0 1
vn -0.6037479639053345 0.7971752882003784 0
vn 0 0 1
vn -0.7971752882003784 0.6037479639053345 0
vn 0 0 1
vn -0.7971752882003784 -0.6037479639053345 0
vn 0 0 1
vn -0.6037479639053345 -0.7971752882003784 0
vn 0 0 1
vn -0.9906023740768433 0.1367735117673874 0
vn 0 0 1
vn -0.9906023740768433 -0.1367735117673874 0
vn 0.3078896701335907 -0.3078898191452026 0.9002265334129334
vn 0.3078898191452026 0.3078896701335907 0.9002265334129334
vn 0.6397748589515686 -0.4845395386219025 0.5965815782546997
vn -0.2630630433559418 0.3473423421382904 0.9000839591026306
vn 0.4845395386219025 0.6397748589515686 0.5965815782546997
vn -0.34734246134758 -0.2630630433559418 0.9000838994979858
vn 0.4354219734668732 1.000000011686097e-07 0.9002264738082886
vn 0.795010507106781 0.1097681075334549 0.5965812802314758
vn -0.4316219091415405 0.0595945417881012 0.9000838994979858
vn -0.3473425507545471 0.263062983751297 0.9000838994979858
vn -0.6037482023239136 0.7971750497817993 0
vn 0 0 -1
vn -0.7971752882003784 0.6037479043006897 0
vn -0.2630630731582642 -0.3473424017429352 0.9000839591026306
vn -0.7971752882003784 -0.6037479043006897 0
vn 0 0 -1
vn -0.6037482023239136 -0.7971750497817993 0
vn -0.4316219091415405 -0.05959450826048851 0.9000838994979858
vn -0.9906023144721985 0.1367735862731934 0
vn 0 0 -1
vn -0.9906023144721985 -0.1367735862731934 0
f 37//37 82//82 80//80 34//34
f 7//7 37//37 34//34 5//5
f 3//3 7//7 5//5 1//1
f 11//11 3//3 1//1 9//9
f 56//56 11//11 9//9 55//55
f 86//86 56//56 55//55 84//84
f 90//90 86//86 84//84 88//88
f 82//82 90//90 88//88 80//80
f 35//35 79//79 73//73 39//39
f 6//6 35//35 39//39 16//16
f 2//2 6//6 16//16 13//13
f 10//10 2//2 13//13 18//18
f 54//54 10//10 18//18 52//52
f 83//83 54//54 52//52 75//75
f 87//87 83//83 75//75 78//78
f 79//79 87//87 78//78 73//73
f 38//38 72//72 70//70 40//40
f 17//17 38//38 40//40 20//20
f 14//14 17//17 20//20 15//15
f 19//19 14//14 15//15 21//21
f 53//53 19//19 21//21 51//51
f 74//74 53//53 51//51 71//71
f 77//77 74//74 71//71 76//76
f 72//72 77//77 76//76 70//70
f 40//40 70//70 60//60 43//43
f 20//20 40//40 43//43 29//29
f 15//15 20//20 29//29 25//25
f 21//21 15//15 25//25 33//33
f 51//51 21//21 33//33 50//50
f 71//71 51//51 50//50 64//64
f 76//76 71//71 64//64 68//68
f 70//70 76//76 68//68 60//60
f 42//42 58//58 45//45
f 27//27 42//42 45//45
f 23//23 27//27 45//45
f 31//31 23//23 45//45
f 47//47 31//31 45//45
f 62//62 47//47 45//45
f 66//66 62//62 45//45
f 58//58 66//66 45//45
f 81//81 36//36 46//46
f 36//36 8//8 46//46
f 8//8 4//4 46//46
f 4//4 12//12 46//46
f 12//12 57//57 46//46
f 57//57 85//85 46//46
f 85//85 89//89 46//46
f 89//89 81//81 46//46
f 59//59 41//41 44//44 61//61
f 41//41 26//26 28//28 44//44
f 26//26 22//22 24//24 28//28
f 22//22 30//30 32//32 24//24
f 30//30 48//48 49//49 32//32
f 48//48 63//63 65//65 49//49
f 63//63 67//67 69//69 65//65
f 67//67 59//59 61//61 69//69
