v -1.9 -1.54543e-08 -3.731e-08
v -1.9 0.353553 -0.353553
v -1.9 8.74228e-08 -0.5
v -1.9 0.5 3.63798e-15
v -1.9 0.353553 0.353553
v -1.9 -4.37114e-08 0.5
v -1.9 -0.353554 0.353553
v -1.9 -0.5 -2.78181e-08
v -1.9 -0.353553 -0.353554
v -1.325 0.353553 -0.353554
v -1.325 8.74228e-08 -0.5
v 0 0.353553 -0.353554
v 0 8.74228e-08 -0.5
v -1.325 0.5 -2.5134e-08
v 0 0.5 -8.30516e-08
v -1.325 0.353553 0.353553
v 0 0.353553 0.353553
v -1.325 -4.37114e-08 0.5
v 0 -4.37114e-08 0.5
v -1.325 -0.353554 0.353553
v 0 -0.353554 0.353553
v -1.325 -0.5 -5.29522e-08
v 0 -0.5 -1.1087e-07
v -1.325 -0.353553 -0.353554
v 0 -0.353553 -0.353554
v 1.04412 0.30156 -0.30156
v 1.04412 7.45665e-08 -0.426471
v 2 -1.35998e-07 -3.28328e-07
v 1.04412 0.426471 -1.31905e-07
v 1.04412 0.30156 0.30156
v 1.04412 -3.72833e-08 0.426471
v 1.04412 -0.30156 0.30156
v 1.04412 -0.426471 -1.55633e-07
v 1.04412 -0.30156 -0.301561
vt 0 0
vn -1 -1.59585e-07 -2.61883e-08
vn -0.49799 0.52356 -0.691296
vn -0.49799 -0.118608 -0.859033
vn -0.49799 0.859033 -0.118608
vn -0.49799 0.691296 0.52356
vn -0.49799 0.118608 0.859033
vn -0.49799 -0.52356 0.691296
vn -0.49799 -0.859033 0.118608
vn -0.49799 -0.691296 -0.52356
vn -3.69161e-08 0.667578 -0.74454
vn -5.74213e-08 -0.0544209 -0.998518
vn 0.0301431 0.724833 -0.688265
vn 0.0301431 0.0258573 -0.999211
vn -5.96056e-09 0.998518 -0.0544211
vn 0.0301432 0.999211 0.0258571
vn 2.02732e-09 0.74454 0.667577
vn 0.0301432 0.688265 0.724833
vn 8.2223e-10 0.0544209 0.998518
vn 0.0301432 -0.0258572 0.999211
vn 7.38323e-09 -0.667577 0.74454
vn 0.0301432 -0.724833 0.688265
vn -1.27563e-09 -0.998518 0.0544208
vn 0.0301431 -0.999211 -0.0258573
vn -5.84794e-08 -0.74454 -0.667577
vn 0.0301431 -0.688265 -0.724833
vn 0.202654 0.756089 -0.622302
vn 0.202654 0.0946016 -0.97467
vn 1 8.68996e-08 4.05532e-07
vn 0.202654 0.97467 0.0946015
vn 0.202654 0.622303 0.756089
vn 0.202654 -0.0946015 0.97467
vn 0.202654 -0.756089 0.622303
vn 0.202654 -0.97467 -0.0946016
vn 0.202654 -0.622302 -0.756089
f 1//1 2//2 3//3
f 1//1 3//3 1//1
f 1//1 4//4 2//2
f 1//1 2//2 1//1
f 1//1 5//5 4//4
f 1//1 4//4 1//1
f 1//1 6//6 5//5
f 1//1 5//5 1//1
f 1//1 7//7 6//6
f 1//1 6//6 1//1
f 1//1 8//8 7//7
f 1//1 7//7 1//1
f 1//1 9//9 8//8
f 1//1 8//8 1//1
f 1//1 3//3 9//9
f 1//1 9//9 1//1
f 2//2 10//10 11//11
f 2//2 11//11 3//3
f 10//10 12//12 13//13
f 10//10 13//13 11//11
f 4//4 14//14 10//10
f 4//4 10//10 2//2
f 14//14 15//15 12//12
f 14//14 12//12 10//10
f 5//5 16//16 14//14
f 5//5 14//14 4//4
f 16//16 17//17 15//15
f 16//16 15//15 14//14
f 6//6 18//18 16//16
f 6//6 16//16 5//5
f 18//18 19//19 17//17
f 18//18 17//17 16//16
f 7//7 20//20 18//18
f 7//7 18//18 6//6
f 20//20 21//21 19//19
f 20//20 19//19 18//18
f 8//8 22//22 20//20
f 8//8 20//20 7//7
f 22//22 23//23 21//21
f 22//22 21//21 20//20
f 9//9 24//24 22//22
f 9//9 22//22 8//8
f 24//24 25//25 23//23
f 24//24 23//23 22//22
f 3//3 11//11 24//24
f 3//3 24//24 9//9
f 11//11 13//13 25//25
f 11//11 25//25 24//24
f 12//12 26//26 27//27
f 12//12 27//27 13//13
f 26//26 28//28 28//28
f 26//26 28//28 27//27
f 15//15 29//29 26//26
f 15//15 26//26 12//12
f 29//29 28//28 28//28
f 29//29 28//28 26//26
f 17//17 30//30 29//29
f 17//17 29//29 15//15
f 30//30 28//28 28//28
f 30//30 28//28 29//29
f 19//19 31//31 30//30
f 19//19 30//30 17//17
f 31//31 28//28 28//28
f 31//31 28//28 30//30
f 21//21 32//32 31//31
f 21//21 31//31 19//19
f 32//32 28//28 28//28
f 32//32 28//28 31//31
f 23//23 33//33 32//32
f 23//23 32//32 21//21
f 33//33 28//28 28//28
f 33//33 28//28 32//32
f 25//25 34//34 33//33
f 25//25 33//33 23//23
f 34//34 28//28 28//28
f 34//34 28//28 33//33
f 13//13 27//27 34//34
f 13//13 34//34 25//25
f 27//27 28//28 28//28
f 27//27 28//28 34//34
