# Rhino

g ______09
o object_1
v 3.07 3.38 3.295
v 3.07 6.644 3.295
v 3.071 3.38 2.554
v 3.071 6.644 2.554
v 3.594 3.38 3.82
v 3.594 6.644 3.82
v 3.596 3.38 2.031
v 3.596 6.644 2.031
v 4.335 3.38 3.821
v 4.335 6.644 3.821
v 4.337 3.38 2.032
v 4.337 6.644 2.032
v 4.86 3.38 3.298
v 4.86 6.644 3.298
v 4.86 3.38 2.556
v 4.86 6.644 2.556
vn 0.9243 0 -0.3816
vn 0.9243 0 -0.3816
vn 0.9234 0 0.3837
vn 0.9234 0 0.3837
vn 0.3816 0 0.9243
vn 0.3816 0 0.9243
vn -0.3837 0 0.9234
vn -0.3837 0 0.9234
vn -0.9243 0 0.3816
vn -0.9243 0 0.3816
vn -0.9234 0 -0.3837
vn -0.9234 0 -0.3837
vn -0.3816 0 -0.9243
vn -0.3816 0 -0.9243
vn 0.3837 0 -0.9234
vn 0.3837 0 -0.9234
vn 0.9243 0 -0.3816
vn 0.9243 0 -0.3816
vn 0 1 0
vn 0 1 0
vn 0 1 0
vn 0 1 0
vn 0 1 0
vn 0 1 0
vn 0 1 0
vn 0 1 0
vn 0 -1 0
vn 0 -1 0
vn 0 -1 0
vn 0 -1 0
vn 0 -1 0
vn 0 -1 0
vn 0 -1 0
vn 0 -1 0
f 16//1 14//3 13//4 15//2
f 14//3 10//5 9//6 13//4
f 10//5 6//7 5//8 9//6
f 6//7 2//9 1//10 5//8
f 2//9 4//11 3//12 1//10
f 4//11 8//13 7//14 3//12
f 8//13 12//15 11//16 7//14
f 12//15 16//17 15//18 11//16
f 6//22 8//25 4//24
f 4//24 2//23 6//22
f 6//22 14//20 8//25
f 14//20 16//19 12//26
f 14//20 6//22 10//21
f 12//26 8//25 14//20
f 5//30 3//32 7//33
f 3//32 5//30 1//31
f 5//30 7//33 13//28
f 13//28 11//34 15//27
f 13//28 9//29 5//30
f 11//34 13//28 7//33
o object_2
v 3.958 4.976 3.382
v 3.999 4.706 3.277
v 3.999 5.247 3.277
v 4.097 4.594 3.025
v 4.097 5.359 3.025
v 4.195 4.706 2.772
v 4.195 5.247 2.772
v 4.236 4.976 2.668
v 5.209 4.976 3.868
v 5.25 4.706 3.764
v 5.25 5.247 3.764
v 5.338 4.976 3.835
v 5.348 4.594 3.511
v 5.348 5.359 3.511
v 5.371 4.761 3.752
v 5.371 5.192 3.752
v 5.446 4.706 3.259
v 5.446 5.247 3.259
v 5.449 4.671 3.55
v 5.449 5.282 3.55
v 5.487 4.976 3.154
v 5.527 4.761 3.349
v 5.527 5.192 3.349
v 5.559 4.976 3.266
v 5.615 4.976 3.782
v 5.631 4.867 3.739
v 5.631 5.086 3.739
v 5.671 4.821 3.637
v 5.671 5.132 3.637
v 5.711 4.867 3.534
v 5.711 5.086 3.534
v 5.727 4.976 3.492
v 13.9 4.976 7.083
v 13.93 4.816 7.021
v 13.93 5.137 7.021
v 13.93 4.976 7.016
v 13.95 4.867 6.973
v 13.95 5.086 6.973
v 13.99 4.749 6.871
v 13.99 4.821 6.871
v 13.99 5.132 6.871
v 13.99 5.204 6.871
v 14.03 4.867 6.768
v 14.03 5.086 6.768
v 14.04 4.976 6.726
v 14.04 4.816 6.721
v 14.04 5.137 6.721
v 14.07 4.976 6.659
vn -0.3276 0.3827 0.8639
vn -0.3276 -0.3827 0.8639
vn 0.2368 0.3188 0.9178
vn 0.2368 -0.3188 0.9178
vn -0.3276 0.3827 0.8639
vn -0.3276 -0.3827 0.8639
vn 0.932 0 0.3625
vn -0.3276 0.3827 0.8639
vn -0.1314 0.9239 0.3595
vn 0.2368 0.3188 0.9178
vn 0.4002 0.7695 0.4977
vn -0.3276 0.3827 0.8639
vn -0.1314 0.9239 0.3595
vn 0.932 0 0.3625
vn -0.1314 0.9239 0.3595
vn 0.146 0.9239 -0.3538
vn 0.6313 0.7695 -0.0965
vn 0.4002 0.7695 0.4977
vn -0.1314 0.9239 0.3595
vn 0.146 0.9239 -0.3538
vn 0.932 0 0.3625
vn 0.146 0.9239 -0.3538
vn 0.3422 0.3827 -0.8582
vn 0.6313 0.7695 -0.0965
vn 0.7947 0.3188 -0.5166
vn 0.146 0.9239 -0.3538
vn 0.3422 0.3827 -0.8582
vn 0.932 0 0.3625
vn 0.3422 0.3827 -0.8582
vn 0.3422 -0.3827 -0.8582
vn 0.7947 0.3188 -0.5166
vn 0.7947 -0.3188 -0.5166
vn 0.3422 0.3827 -0.8582
vn 0.3422 -0.3827 -0.8582
vn 0.932 0 0.3625
vn 0.3422 -0.3827 -0.8582
vn 0.146 -0.9239 -0.3538
vn 0.7947 -0.3188 -0.5166
vn 0.6313 -0.7695 -0.0965
vn 0.3422 -0.3827 -0.8582
vn 0.146 -0.9239 -0.3538
vn 0.932 0 0.3625
vn 0.146 -0.9239 -0.3538
vn -0.1314 -0.9239 0.3595
vn 0.6313 -0.7695 -0.0965
vn 0.4002 -0.7695 0.4977
vn 0.146 -0.9239 -0.3538
vn -0.1314 -0.9239 0.3595
vn 0.932 0 0.3625
vn -0.3276 -0.3827 0.8639
vn -0.1314 -0.9239 0.3595
vn 0.4002 -0.7695 0.4977
vn 0.2368 -0.3188 0.9178
vn -0.3276 -0.3827 0.8639
vn -0.1314 -0.9239 0.3595
vn 0.932 0 0.3625
vn -0.3349 -0.3827 0.861
vn 0.2368 0.3188 0.9178
vn 0.2368 -0.3188 0.9178
vn -0.3349 0.3827 0.861
vn -0.1387 0.9239 0.3567
vn 0.2368 0.3188 0.9178
vn 0.4002 0.7695 0.4977
vn -0.3349 0.3827 0.861
vn -0.1387 0.9239 0.3567
vn 0.6313 0.7695 -0.0965
vn 0.4002 0.7695 0.4977
vn 0.1387 0.9239 -0.3567
vn 0.6313 0.7695 -0.0965
vn 0.7947 0.3188 -0.5166
vn 0.3349 0.3827 -0.861
vn 0.1387 0.9239 -0.3567
vn 0.7947 0.3188 -0.5166
vn 0.7947 -0.3188 -0.5166
vn 0.3349 0.3827 -0.861
vn 0.3349 -0.3827 -0.861
vn 0.7947 -0.3188 -0.5166
vn 0.6313 -0.7695 -0.0965
vn 0.1387 -0.9239 -0.3567
vn 0.3349 -0.3827 -0.861
vn 0.6313 -0.7695 -0.0965
vn 0.4002 -0.7695 0.4977
vn -0.1387 -0.9239 0.3567
vn 0.1387 -0.9239 -0.3567
vn -0.3349 -0.3827 0.861
vn 0.4002 -0.7695 0.4977
vn 0.2368 -0.3188 0.9178
vn -0.1387 -0.9239 0.3567
vn -0.3349 -0.3827 0.861
vn -0.932 0 -0.3625
vn -0.3349 0.3827 0.861
vn -0.1387 0.9239 0.3567
vn -0.932 0 -0.3625
vn -0.3349 0.3827 0.861
vn -0.1387 0.9239 0.3567
vn -0.932 0 -0.3625
vn 0.1387 0.9239 -0.3567
vn -0.932 0 -0.3625
vn 0.3349 0.3827 -0.861
vn 0.1387 0.9239 -0.3567
vn -0.932 0 -0.3625
vn 0.3349 0.3827 -0.861
vn 0.3349 -0.3827 -0.861
vn -0.932 0 -0.3625
vn 0.1387 -0.9239 -0.3567
vn 0.3349 -0.3827 -0.861
vn -0.932 0 -0.3625
vn -0.1387 -0.9239 0.3567
vn 0.1387 -0.9239 -0.3567
vn -0.3349 -0.3827 0.861
vn -0.932 0 -0.3625
vn -0.1387 -0.9239 0.3567
vn 0.932 0 0.3625
vn 0.1387 -0.9239 -0.3567
vn 0.3349 -0.3827 -0.861
vn 0.932 0 0.3625
vn 0.3349 0.3827 -0.861
vn 0.3349 -0.3827 -0.861
vn 0.932 0 0.3625
vn 0.1387 -0.9239 -0.3567
vn -0.1387 -0.9239 0.3567
vn 0.932 0 0.3625
vn -0.3349 -0.3827 0.861
vn -0.1387 -0.9239 0.3567
vn 0.932 0 0.3625
vn -0.3349 0.3827 0.861
vn -0.3349 -0.3827 0.861
vn -0.1387 0.9239 0.3567
vn 0.932 0 0.3625
vn -0.3349 0.3827 0.861
vn -0.1387 0.9239 0.3567
vn 0.1387 0.9239 -0.3567
vn 0.932 0 0.3625
vn 0.1387 0.9239 -0.3567
vn 0.932 0 0.3625
vn 0.3349 0.3827 -0.861
vn 0.932 0 0.3625
vn 0.1387 -0.9239 -0.3567
vn 0.3349 -0.3827 -0.861
vn 0.932 0 0.3625
vn 0.3349 0.3827 -0.861
vn 0.3349 -0.3827 -0.861
vn 0.932 0 0.3625
vn 0.1387 -0.9239 -0.3567
vn -0.1387 -0.9239 0.3567
vn 0.932 0 0.3625
vn -0.3349 -0.3827 0.861
vn -0.1387 -0.9239 0.3567
vn 0.932 0 0.3625
vn -0.3349 0.3827 0.861
vn -0.3349 -0.3827 0.861
vn -0.1387 0.9239 0.3567
vn 0.932 0 0.3625
vn -0.3349 0.3827 0.861
vn -0.1387 0.9239 0.3567
vn 0.1387 0.9239 -0.3567
vn 0.932 0 0.3625
vn 0.1387 0.9239 -0.3567
vn 0.932 0 0.3625
vn 0.3349 0.3827 -0.861
f 28//35 49//39 51//46 32//42
f 32//43 51//47 58//53 36//49
f 36//50 58//54 63//60 39//56
f 39//57 63//61 64//67 40//63
f 40//64 64//68 62//74 38//70
f 38//71 62//75 55//81 35//77
f 56//165 59//162 46//186 44//189
f 49//40 28//36 31//84 50//88
f 35//78 55//82 50//89 31//85
f 36//51 39//58 34//103 30//100
f 26//119 25//91 17//123 18//144
f 28//37 32//44 27//96 25//92
f 39//59 40//65 37//107 34//104
f 40//66 38//72 33//111 37//108
f 38//73 35//79 29//115 33//112
f 35//80 31//86 26//120 29//116
f 31//87 28//38 25//93 26//121
f 32//45 36//52 30//101 27//97
f 17//124 19//127 18//145
f 19//127 21//130 18//145
f 21//130 20//141 18//145
f 21//130 22//138 20//141
f 21//130 23//132 22//138
f 23//132 24//135 22//138
f 25//94 27//98 19//128 17//125
f 34//105 37//109 24//136 23//133
f 29//117 26//122 18//146 20//142
f 30//102 34//106 23//134 21//131
f 33//113 29//118 20//143 22//139
f 27//95 30//99 21//129 19//126
f 37//110 33//114 22//140 24//137
f 52//150 54//147 51//48 49//41
f 54//147 57//153 58//55 51//48
f 57//153 60//156 63//62 58//55
f 60//156 61//159 64//69 63//62
f 61//159 59//163 62//76 64//69
f 59//163 56//167 55//83 62//76
f 56//167 53//169 50//90 55//83
f 53//169 52//150 49//41 50//90
f 43//171 41//174 42//193
f 43//171 42//193 45//177
f 42//193 44//191 45//177
f 44//191 46//187 45//177
f 46//187 47//180 45//177
f 46//187 48//183 47//180
f 57//154 54//148 43//172 45//178
f 59//164 61//160 48//184 46//188
f 52//151 53//170 42//194 41//175
f 54//149 52//152 41//176 43//173
f 61//161 60//157 47//181 48//185
f 53//168 56//166 44//190 42//192
f 60//158 57//155 45//179 47//182
