v 2.54324 2.52961 0.008568
v 0.449888 2.52961 0.008568
v 1.06302 4.00983 0.008568
v 2.54324 2.52961 0.531906
v 1.06302 4.00983 0.290295
v 0.449888 2.52961 0.290295
v 2.54324 4.62296 0.008568
v 2.54324 4.62296 0.290295
v 4.02347 4.00983 0.008568
v 4.02347 4.00983 0.290295
v 4.6366 2.52961 0.008568
v 4.6366 2.52961 0.290295
v 4.02347 1.04938 0.008568
v 4.02347 1.04938 0.290295
v 2.54324 0.436256 0.008568
v 2.54324 0.436256 0.290295
v 1.06302 1.04938 0.008568
v 1.06302 1.04939 0.290295
vt 0 1
vn 0 0 -1
vn -0.114528 0.047439 0.992287
vn -0.0474391 0.114528 0.992287
vn 0.0474389 0.114528 0.992287
vn 0.114528 0.0474391 0.992287
vn 0.114528 -0.0474391 0.992287
vn 0.047439 -0.114528 0.992287
vn -0.0474391 -0.114528 0.992287
vn -0.114528 -0.047439 0.992287
vn -0.923879 0.382684 -7.92302e-07
vn -0.382684 0.923879 -2.11281e-06
vn 0.382683 0.92388 1.0564e-06
vn 0.923879 0.382684 1.0564e-06
vn 0.923879 -0.382684 1.0564e-06
vn 0.382683 -0.92388 5.28201e-07
vn -0.382684 -0.923879 1.5846e-06
vn -0.92388 -0.382684 -2.47594e-06
f 1//1 2//1 3//1
f 4//2 5//2 6//2
f 1//1 3//1 7//1
f 4//3 8//3 5//3
f 1//1 7//1 9//1
f 4//4 10//4 8//4
f 1//1 9//1 11//1
f 4//5 12//5 10//5
f 1//1 11//1 13//1
f 4//6 14//6 12//6
f 1//1 13//1 15//1
f 4//7 16//7 14//7
f 1//1 15//1 17//1
f 4//8 18//8 16//8
f 17//1 2//1 1//1
f 4//9 6//9 18//9
f 2//10 6//10 5//10
f 2//10 5//10 3//10
f 3//11 5//11 8//11
f 3//11 8//11 7//11
f 7//12 8//12 10//12
f 7//12 10//12 9//12
f 9//13 10//13 12//13
f 9//13 12//13 11//13
f 11//14 12//14 14//14
f 11//14 14//14 13//14
f 13//15 14//15 16//15
f 13//15 16//15 15//15
f 15//16 16//16 18//16
f 15//16 18//16 17//16
f 6//17 2//17 17//17
f 6//17 17//17 18//17
