v 2.06029 3.2689 1.15909
v 2.06029 2.92385 1.15909
v 1.59776 2.92385 1.15909
v 1.59776 3.2689 1.15909
v 2.06029 3.2689 1.25808
v 1.59776 3.2689 1.25808
v 1.59776 2.92385 1.25808
v 2.06029 2.92385 1.25808
v 2.06029 2.29922 1.15909
v 2.06029 1.95417 1.15909
v 1.59776 1.95417 1.15909
v 1.59776 2.29922 1.15909
v 2.06029 2.29922 1.25808
v 1.59776 2.29922 1.25808
v 1.59776 1.95417 1.25808
v 2.06029 1.95417 1.25808
v 1.83892 2.58982 0.114546
v 1.04136 2.58982 0.114546
v 1.17548 3.43239 0.114546
v 1.83892 2.58982 1.16036
v 1.17548 3.43239 1.16666
v 1.04136 2.58981 1.16666
v 1.83892 3.78139 0.114546
v 1.83892 3.78139 1.16666
v 1.83892 1.39824 0.114546
v 1.17548 1.74724 0.114546
v 1.17548 1.74724 1.16666
v 1.83892 1.39824 1.16666
v 3.1258 1.39824 0.114546
v 3.1258 1.39824 1.16666
v 3.1258 3.78139 1.16666
v 3.1258 3.78139 0.114546
v 3.1258 2.58982 1.16036
v 3.1258 2.58982 0.114546
v 3.78924 1.74724 0.114546
v 3.78924 1.74724 1.16666
v 3.92625 2.58981 0.114546
v 3.92625 2.58982 1.16666
v 3.78924 3.43239 0.114546
v 3.78924 3.43239 1.16666
vt 0 1
vn 0 0 -1
vn 0 0 1
vn 1 0 0
vn 0 -1 0
vn -1 0 0
vn 0 1 0
vn 0.0078995 -0.00125751 0.999968
vn 0.00278182 -0.00528784 0.999982
vn 0.00278182 0.00528799 0.999982
vn 0.00790024 0.00125752 0.999968
vn -0.987567 0.157197 -5.31211e-07
vn -0.465566 0.885013 -3.02292e-07
vn -0.465565 -0.885014 1.51146e-07
vn -0.987567 -0.157197 -4.6481e-07
vn 0 0.00528777 0.999986
vn 0 -0.00528769 0.999986
vn 0.465564 -0.885014 3.02292e-07
vn 0.987037 -0.160495 5.30926e-07
vn 0.987037 0.160495 5.30926e-07
vn 0.465565 0.885014 6.04583e-07
vn -0.00278182 0.0052886 0.999982
vn -0.00787172 0.00127967 0.999968
vn -0.00787103 -0.00127967 0.999968
vn -0.00278182 -0.00528829 0.999982
f 1//1 2//1 3//1
f 1//1 3//1 4//1
f 5//2 6//2 7//2
f 5//2 7//2 8//2
f 1//3 5//3 8//3
f 1//3 8//3 2//3
f 2//4 8//4 7//4
f 2//4 7//4 3//4
f 3//5 7//5 6//5
f 3//5 6//5 4//5
f 5//6 1//6 4//6
f 5//6 4//6 6//6
f 9//1 10//1 11//1
f 9//1 11//1 12//1
f 13//2 14//2 15//2
f 13//2 15//2 16//2
f 9//3 13//3 16//3
f 9//3 16//3 10//3
f 10//4 16//4 15//4
f 10//4 15//4 11//4
f 11//5 15//5 14//5
f 11//5 14//5 12//5
f 13//6 9//6 12//6
f 13//6 12//6 14//6
f 17//1 18//1 19//1
f 20//7 21//7 22//7
f 17//1 19//1 23//1
f 20//8 24//8 21//8
f 17//1 25//1 26//1
f 20//9 27//9 28//9
f 26//1 18//1 17//1
f 20//10 22//10 27//10
f 18//11 22//11 21//11
f 18//11 21//11 19//11
f 19//12 21//12 24//12
f 19//12 24//12 23//12
f 25//13 28//13 27//13
f 25//13 27//13 26//13
f 22//14 18//14 26//14
f 22//14 26//14 27//14
f 28//4 25//4 29//4
f 28//4 29//4 30//4
f 23//6 24//6 31//6
f 23//6 31//6 32//6
f 20//15 28//15 30//15
f 20//15 30//15 33//15
f 25//1 17//1 34//1
f 25//1 34//1 29//1
f 24//16 20//16 33//16
f 24//16 33//16 31//16
f 17//1 23//1 32//1
f 17//1 32//1 34//1
f 35//17 36//17 30//17
f 35//17 30//17 29//17
f 37//18 38//18 36//18
f 37//18 36//18 35//18
f 39//19 40//19 38//19
f 39//19 38//19 37//19
f 32//20 31//20 40//20
f 32//20 40//20 39//20
f 33//21 30//21 36//21
f 34//1 35//1 29//1
f 33//22 36//22 38//22
f 34//1 37//1 35//1
f 33//23 38//23 40//23
f 34//1 39//1 37//1
f 33//24 40//24 31//24
f 34//1 32//1 39//1
