# Rhino

g ______239
o object_1
v 3.368 1.599 0.7232
v 3.539 1.788 0.7232
v 3.578 1.411 0.057
v 3.749 1.6 0.057
v 3.799 1.212 0.7232
v 3.97 1.401 0.7232
v 4.009 1.024 0.057
v 4.18 1.213 0.057
vn -0.6672 -0.7448 4.441e-16
vn -0.6862 0.6147 -0.3888
vn 1.665e-16 4.718e-16 1
vn 0.6672 0.7448 -4.441e-16
vn -0.6862 0.6147 -0.3888
vn 1.665e-16 4.718e-16 1
vn -0.6672 -0.7448 4.441e-16
vn -0.6862 0.6147 -0.3888
vn -1.665e-16 -4.718e-16 -1
vn 0.6672 0.7448 -4.441e-16
vn -0.6862 0.6147 -0.3888
vn -1.665e-16 -4.718e-16 -1
vn -0.6672 -0.7448 4.441e-16
vn 0.6862 -0.6147 0.3888
vn 1.665e-16 4.718e-16 1
vn 0.6862 -0.6147 0.3888
vn 0.6672 0.7448 -4.441e-16
vn 1.665e-16 4.718e-16 1
vn -0.6672 -0.7448 4.441e-16
vn 0.6862 -0.6147 0.3888
vn -1.665e-16 -4.718e-16 -1
vn 0.6862 -0.6147 0.3888
vn 0.6672 0.7448 -4.441e-16
vn -1.665e-16 -4.718e-16 -1
f 3//7 7//19 5//13 1//1
f 7//20 8//22 6//16 5//14
f 8//23 4//10 2//4 6//17
f 4//11 3//8 1//2 2//5
f 7//21 3//9 4//12
f 4//12 8//24 7//21
f 5//15 2//6 1//3
f 2//6 5//15 6//18
o object_2
v 2.38 0.3987 0.057
v 2.38 0.6793 0.7232
v 2.38 0.9784 0.057
v 2.38 1.259 0.7232
v 2.635 0.3987 0.057
v 2.635 0.6793 0.7232
v 2.635 0.9784 0.057
v 2.635 1.259 0.7232
vn -1 0 0
vn 0 -0.9213 0.3888
vn 0 -3.331e-16 -1
vn -1 0 0
vn 0 -0.9213 0.3888
vn 0 3.331e-16 1
vn -1 0 0
vn 0 0.9213 -0.3888
vn 0 -3.331e-16 -1
vn -1 0 0
vn 0 0.9213 -0.3888
vn 0 3.331e-16 1
vn 0 -0.9213 0.3888
vn 1 0 0
vn 0 -3.331e-16 -1
vn 0 -0.9213 0.3888
vn 1 0 0
vn 0 3.331e-16 1
vn 1 0 0
vn 0 0.9213 -0.3888
vn 0 -3.331e-16 -1
vn 1 0 0
vn 0 0.9213 -0.3888
vn 0 3.331e-16 1
f 11//31 9//25 10//28 12//34
f 9//26 13//37 14//40 10//29
f 13//38 15//43 16//46 14//41
f 15//44 11//32 12//35 16//47
f 9//27 11//33 15//45
f 15//45 13//39 9//27
f 10//30 16//48 12//36
f 16//48 10//30 14//42
o object_3
v 0.9754 1.034 0.057
v 1.163 1.244 0.7232
v 1.165 0.8652 0.057
v 1.352 1.075 0.7232
v 1.362 1.467 0.057
v 1.55 1.676 0.7232
v 1.552 1.296 0.057
v 1.739 1.506 0.7232
vn -0.7448 0.6672 -2.498e-16
vn -0.6147 -0.6862 0.3888
vn 0 -3.331e-16 -1
vn -0.7448 0.6672 -2.498e-16
vn -0.6147 -0.6862 0.3888
vn 0 3.331e-16 1
vn -0.6147 -0.6862 0.3888
vn 0.7448 -0.6672 2.498e-16
vn 0 -3.331e-16 -1
vn -0.6147 -0.6862 0.3888
vn 0.7448 -0.6672 2.498e-16
vn 0 3.331e-16 1
vn -0.7448 0.6672 -2.498e-16
vn 0.6147 0.6862 -0.3888
vn 0 -3.331e-16 -1
vn -0.7448 0.6672 -2.498e-16
vn 0.6147 0.6862 -0.3888
vn 0 3.331e-16 1
vn 0.7448 -0.6672 2.498e-16
vn 0.6147 0.6862 -0.3888
vn 0 -3.331e-16 -1
vn 0.7448 -0.6672 2.498e-16
vn 0.6147 0.6862 -0.3888
vn 0 3.331e-16 1
f 21//61 17//49 18//52 22//64
f 17//50 19//55 20//58 18//53
f 19//56 23//67 24//70 20//59
f 23//68 21//62 22//65 24//71
f 17//51 21//63 23//69
f 23//69 19//57 17//51
f 18//54 24//72 22//66
f 24//72 18//54 20//60
o object_4
v 0.3636 2.428 0.057
v 0.3636 2.684 0.057
v 0.6441 2.428 0.7232
v 0.6441 2.684 0.7232
v 0.9433 2.428 0.057
v 0.9433 2.684 0.057
v 1.224 2.428 0.7232
v 1.224 2.684 0.7232
vn -0.9213 0 0.3888
vn 0 -1 0
vn -2.22e-16 0 -1
vn 0 1 0
vn -0.9213 0 0.3888
vn -2.22e-16 0 -1
vn -0.9213 0 0.3888
vn 0 -1 0
vn 2.22e-16 0 1
vn 0 1 0
vn -0.9213 0 0.3888
vn 2.22e-16 0 1
vn 0 -1 0
vn 0.9213 0 -0.3888
vn -2.22e-16 0 -1
vn 0 1 0
vn 0.9213 0 -0.3888
vn -2.22e-16 0 -1
vn 0 -1 0
vn 0.9213 0 -0.3888
vn 2.22e-16 0 1
vn 0 1 0
vn 0.9213 0 -0.3888
vn 2.22e-16 0 1
f 30//88 26//76 28//82 32//94
f 26//77 25//73 27//79 28//83
f 25//74 29//85 31//91 27//80
f 29//86 30//89 32//95 31//92
f 26//78 30//90 29//87
f 29//87 25//75 26//78
f 28//84 31//93 32//96
f 31//93 28//84 27//81
o object_5
v 0.8402 3.882 0.057
v 1.011 4.073 0.057
v 1.05 3.694 0.7232
v 1.22 3.885 0.7232
v 1.273 3.497 0.057
v 1.442 3.686 0.057
v 1.482 3.309 0.7232
v 1.651 3.498 0.7232
vn -0.6862 0.6147 0.3888
vn -0.6672 -0.7448 -1.388e-16
vn 1.11e-16 1.11e-16 -1
vn 0.6672 0.7448 1.388e-16
vn -0.6862 0.6147 0.3888
vn 1.11e-16 1.11e-16 -1
vn -0.6862 0.6147 0.3888
vn -0.6672 -0.7448 -1.388e-16
vn -1.11e-16 -1.11e-16 1
vn 0.6672 0.7448 1.388e-16
vn -0.6862 0.6147 0.3888
vn -1.11e-16 -1.11e-16 1
vn -0.6672 -0.7448 -1.388e-16
vn 0.6862 -0.6147 -0.3888
vn 1.11e-16 1.11e-16 -1
vn 0.6672 0.7448 1.388e-16
vn 0.6862 -0.6147 -0.3888
vn 1.11e-16 1.11e-16 -1
vn -0.6672 -0.7448 -1.388e-16
vn 0.6862 -0.6147 -0.3888
vn -1.11e-16 -1.11e-16 1
vn 0.6672 0.7448 1.388e-16
vn 0.6862 -0.6147 -0.3888
vn -1.11e-16 -1.11e-16 1
f 38//112 34//100 36//106 40//118
f 34//101 33//97 35//103 36//107
f 33//98 37//109 39//115 35//104
f 37//110 38//113 40//119 39//116
f 34//102 38//114 37//111
f 37//111 33//99 34//102
f 36//108 39//117 40//120
f 39//117 36//108 35//105
o object_6
v 2.392 3.816 0.7232
v 2.392 4.096 0.057
v 2.392 4.394 0.7232
v 2.392 4.676 0.057
v 2.647 3.816 0.7232
v 2.647 4.096 0.057
v 2.647 4.394 0.7232
v 2.647 4.676 0.057
vn -1 0 0
vn 0 -0.9213 -0.3888
vn 0 -3.331e-16 1
vn -1 0 0
vn 0 -0.9213 -0.3888
vn 0 3.331e-16 -1
vn 0 0.9213 0.3888
vn -1 0 0
vn 0 -3.331e-16 1
vn 0 0.9213 0.3888
vn -1 0 0
vn 0 3.331e-16 -1
vn 1 0 0
vn 0 -0.9213 -0.3888
vn 0 -3.331e-16 1
vn 1 0 0
vn 0 -0.9213 -0.3888
vn 0 3.331e-16 -1
vn 1 0 0
vn 0 0.9213 0.3888
vn 0 -3.331e-16 1
vn 1 0 0
vn 0 0.9213 0.3888
vn 0 3.331e-16 -1
f 46//136 48//142 47//139 45//133
f 48//143 44//130 43//127 47//140
f 44//131 42//124 41//121 43//128
f 42//125 46//137 45//134 41//122
f 48//144 46//138 42//126
f 42//126 44//132 48//144
f 47//141 41//123 45//135
f 41//123 47//141 43//129
o object_7
v 0.6357 2.3 0.6746
v 0.6357 2.3 0.7754
v 0.6441 2.837 0.6746
v 0.6441 2.837 0.7754
v 0.7776 1.785 0.6746
v 0.7776 1.785 0.7754
v 0.8047 3.348 0.6746
v 0.8047 3.348 0.7754
v 1.06 1.328 0.6746
v 1.06 1.328 0.7754
v 1.102 3.794 0.6746
v 1.102 3.794 0.7754
v 1.459 0.97 0.6746
v 1.459 0.97 0.7754
v 1.514 4.139 0.6746
v 1.514 4.139 0.7754
v 1.942 0.7384 0.6746
v 1.942 0.7384 0.7754
v 2.006 4.352 0.6746
v 2.006 4.352 0.7754
v 2.471 0.6522 0.6746
v 2.471 0.6522 0.7754
v 2.539 4.419 0.6746
v 2.539 4.419 0.7754
v 3.003 0.7198 0.6746
v 3.003 0.7198 0.7754
v 3.068 4.333 0.6746
v 3.068 4.333 0.7754
v 3.495 0.9328 0.6746
v 3.495 0.9328 0.7754
v 3.551 4.102 0.6746
v 3.551 4.102 0.7754
v 3.906 1.278 0.6746
v 3.906 1.278 0.7754
v 3.95 3.743 0.6746
v 3.95 3.743 0.7754
v 4.203 1.724 0.6746
v 4.203 1.724 0.7754
v 4.232 3.289 0.6746
v 4.232 3.289 0.7754
v 4.364 2.234 0.6746
v 4.364 2.234 0.7754
v 4.374 2.772 0.6746
v 4.374 2.772 0.7754
vn -0.9922 -0.1248 0
vn 0 0 -1
vn -0.9922 -0.1248 0
vn 0 0 1
vn -0.9871 0.1598 0
vn 0 0 -1
vn -0.9871 0.1598 0
vn 0 0 1
vn -0.9168 -0.3993 0
vn 0 0 -1
vn -0.9168 -0.3993 0
vn 0 0 1
vn -0.9021 0.4314 0
vn 0 0 -1
vn -0.9021 0.4314 0
vn 0 0 1
vn -0.7672 -0.6414 0
vn 0 0 -1
vn -0.7672 -0.6414 0
vn 0 0 1
vn -0.744 0.6681 0
vn 0 0 -1
vn -0.744 0.6681 0
vn 0 0 1
vn -0.5554 -0.8316 0
vn 0 0 -1
vn -0.5554 -0.8316 0
vn 0 0 1
vn -0.5257 0.8507 0
vn 0 0 -1
vn -0.5257 0.8507 0
vn 0 0 1
vn -0.2987 -0.9544 0
vn 0 0 -1
vn -0.2987 -0.9544 0
vn 0 0 1
vn -0.2647 0.9643 0
vn 0 0 -1
vn -0.2647 0.9643 0
vn 0 0 1
vn -0.01769 -0.9998 0
vn 0 0 -1
vn -0.01769 -0.9998 0
vn 0 0 1
vn 0.01769 0.9998 0
vn 0 0 -1
vn 0.01769 0.9998 0
vn 0 0 1
vn 0.2647 -0.9643 0
vn 0 0 -1
vn 0.2647 -0.9643 0
vn 0 0 1
vn 0.2987 0.9544 0
vn 0 0 -1
vn 0.2987 0.9544 0
vn 0 0 1
vn 0.5257 -0.8507 0
vn 0 0 -1
vn 0.5257 -0.8507 0
vn 0 0 1
vn 0.5554 0.8316 0
vn 0 0 -1
vn 0.5554 0.8316 0
vn 0 0 1
vn 0.744 -0.6681 0
vn 0.744 -0.6681 0
vn 0 0 -1
vn 0.744 -0.6681 0
vn 0.744 -0.6681 0
vn 0 0 1
vn 0.7672 0.6414 0
vn 0 0 -1
vn 0.7672 0.6414 0
vn 0 0 1
vn 0.9021 -0.4314 0
vn 0 0 -1
vn 0.9021 -0.4314 0
vn 0 0 1
vn 0.9168 0.3993 0
vn 0 0 -1
vn 0.9168 0.3993 0
vn 0 0 1
vn 0.9871 -0.1598 0
vn 0 0 -1
vn 0.9871 -0.1598 0
vn 0 0 1
vn 0.9922 0.1248 0
vn 0 0 -1
vn 0.9922 0.1248 0
vn 0 0 1
f 82//212 78//203 77//201 81//209
f 78//203 74//195 73//193 77//201
f 74//195 70//187 69//185 73//193
f 70//187 66//179 65//177 69//185
f 66//179 62//171 61//169 65//177
f 62//171 58//163 57//161 61//169
f 58//163 54//155 53//153 57//161
f 54//155 50//147 49//145 53//153
f 50//147 52//151 51//149 49//145
f 52//151 56//159 55//157 51//149
f 56//159 60//167 59//165 55//157
f 60//167 64//175 63//173 59//165
f 64//175 68//183 67//181 63//173
f 68//183 72//191 71//189 67//181
f 72//191 76//199 75//197 71//189
f 76//199 80//207 79//205 75//197
f 80//207 84//217 83//215 79//205
f 84//217 88//225 87//223 83//215
f 88//225 92//233 91//231 87//223
f 92//233 90//229 89//227 91//231
f 90//229 86//221 85//219 89//227
f 86//221 82//213 81//210 85//219
f 76//200 68//184 64//176
f 64//176 80//208 76//200
f 72//192 68//184 76//200
f 64//176 52//152 62//172
f 56//160 52//152 60//168
f 52//152 64//176 60//168
f 50//148 54//156 52//152
f 54//156 62//172 52//152
f 58//164 62//172 54//156
f 80//208 64//176 62//172
f 80//208 92//234 88//226
f 90//230 92//234 82//214
f 80//208 62//172 92//234
f 90//230 82//214 86//222
f 66//180 70//188 62//172
f 78//204 62//172 70//188
f 74//196 78//204 70//188
f 82//214 62//172 78//204
f 82//214 92//234 62//172
f 88//226 84//218 80//208
f 75//198 63//174 67//182
f 63//174 75//198 79//206
f 71//190 75//198 67//182
f 63//174 61//170 51//150
f 55//158 59//166 51//150
f 51//150 59//166 63//174
f 49//146 51//150 53//154
f 53//154 51//150 61//170
f 57//162 53//154 61//170
f 79//206 61//170 63//174
f 79//206 87//224 91//232
f 89//228 81//211 91//232
f 79//206 91//232 61//170
f 89//228 85//220 81//211
f 65//178 61//170 69//186
f 77//202 69//186 61//170
f 73//194 69//186 77//202
f 81//211 77//202 61//170
f 81//211 61//170 91//232
f 87//224 79//206 83//216
o object_8
v 0.9399 2.486 0.057
v 0.9399 2.486 0.7406
v 0.9855 2.927 0.057
v 0.9855 2.927 0.7406
v 1.019 2.05 0.057
v 1.019 2.05 0.7406
v 1.153 3.338 0.057
v 1.153 3.338 0.7406
v 1.22 1.654 0.057
v 1.22 1.654 0.7406
v 1.43 3.684 0.057
v 1.43 3.684 0.7406
v 1.523 1.332 0.057
v 1.523 1.332 0.7406
v 1.793 3.938 0.057
v 1.793 3.938 0.7406
v 1.905 1.107 0.057
v 1.905 1.107 0.7406
v 2.212 4.08 0.057
v 2.212 4.08 0.7406
v 2.336 0.9987 0.057
v 2.336 0.9987 0.7406
v 2.655 4.096 0.057
v 2.655 4.096 0.7406
v 2.779 1.017 0.057
v 2.779 1.017 0.7406
v 3.086 3.99 0.057
v 3.086 3.99 0.7406
v 3.198 1.159 0.057
v 3.198 1.159 0.7406
v 3.468 3.765 0.057
v 3.468 3.765 0.7406
v 3.561 1.413 0.057
v 3.561 1.413 0.7406
v 3.771 3.441 0.057
v 3.771 3.441 0.7406
v 3.838 1.759 0.057
v 3.838 1.759 0.7406
v 3.972 3.045 0.057
v 3.972 3.045 0.7406
v 4.006 2.17 0.057
v 4.006 2.17 0.7406
v 4.051 2.611 0.057
v 4.051 2.611 0.7406
vn -0.9992 -0.03982 0
vn 0 0 -1
vn -0.9992 -0.03982 0
vn 0 0 1
vn -0.97 0.2433 0
vn 0 0 -1
vn -0.97 0.2433 0
vn 0 0 1
vn -0.9475 -0.3197 0
vn 0 0 -1
vn -0.9475 -0.3197 0
vn 0 0 1
vn -0.8621 0.5067 0
vn 0 0 -1
vn -0.8621 0.5067 0
vn 0 0 1
vn -0.8191 -0.5737 0
vn 0 0 -1
vn -0.8191 -0.5737 0
vn 0 0 1
vn -0.6844 0.7291 0
vn 0 0 -1
vn -0.6844 0.7291 0
vn 0 0 1
vn -0.6242 -0.7812 0
vn 0 0 -1
vn -0.6242 -0.7812 0
vn 0 0 1
vn -0.4513 0.8924 0
vn 0 0 -1
vn -0.4513 0.8924 0
vn 0 0 1
vn -0.3789 -0.9254 0
vn 0 0 -1
vn -0.3789 -0.9254 0
vn 0 0 1
vn -0.1816 0.9834 0
vn 0 0 -1
vn -0.1816 0.9834 0
vn 0 0 1
vn -0.1028 -0.9947 0
vn 0 0 -1
vn -0.1028 -0.9947 0
vn 0 0 1
vn 0.1028 0.9947 0
vn 0 0 -1
vn 0.1028 0.9947 0
vn 0 0 1
vn 0.1816 -0.9834 0
vn 0 0 -1
vn 0.1816 -0.9834 0
vn 0 0 1
vn 0.3789 0.9254 0
vn 0 0 -1
vn 0.3789 0.9254 0
vn 0 0 1
vn 0.4513 -0.8924 0
vn 0 0 -1
vn 0.4513 -0.8924 0
vn 0 0 1
vn 0.6242 0.7812 0
vn 0 0 -1
vn 0.6242 0.7812 0
vn 0 0 1
vn 0.6844 -0.7291 0
vn 0.6844 -0.7291 0
vn 0 0 -1
vn 0.6844 -0.7291 0
vn 0.6844 -0.7291 0
vn 0 0 1
vn 0.8191 0.5737 0
vn 0 0 -1
vn 0.8191 0.5737 0
vn 0 0 1
vn 0.8621 -0.5067 0
vn 0 0 -1
vn 0.8621 -0.5067 0
vn 0 0 1
vn 0.9475 0.3197 0
vn 0 0 -1
vn 0.9475 0.3197 0
vn 0 0 1
vn 0.97 -0.2433 0
vn 0 0 -1
vn 0.97 -0.2433 0
vn 0 0 1
vn 0.9992 0.03982 0
vn 0 0 -1
vn 0.9992 0.03982 0
vn 0 0 1
f 126//302 122//293 121//291 125//299
f 122//293 118//285 117//283 121//291
f 118//285 114//277 113//275 117//283
f 114//277 110//269 109//267 113//275
f 110//269 106//261 105//259 109//267
f 106//261 102//253 101//251 105//259
f 102//253 98//245 97//243 101//251
f 98//245 94//237 93//235 97//243
f 94//237 96//241 95//239 93//235
f 96//241 100//249 99//247 95//239
f 100//249 104//257 103//255 99//247
f 104//257 108//265 107//263 103//255
f 108//265 112//273 111//271 107//263
f 112//273 116//281 115//279 111//271
f 116//281 120//289 119//287 115//279
f 120//289 124//297 123//295 119//287
f 124//297 128//307 127//305 123//295
f 128//307 132//315 131//313 127//305
f 132//315 136//323 135//321 131//313
f 136//323 134//319 133//317 135//321
f 134//319 130//311 129//309 133//317
f 130//311 126//303 125//300 129//309
f 116//282 112//274 108//266
f 124//298 120//290 116//282
f 100//250 116//282 108//266
f 116//282 100//250 134//320
f 96//242 94//238 100//250
f 108//266 104//258 100//250
f 98//246 106//262 94//238
f 106//262 98//246 102//254
f 100//250 94//238 106//262
f 124//298 116//282 134//320
f 124//298 136//324 132//316
f 122//294 134//320 100//250
f 134//320 136//324 124//298
f 130//312 134//320 122//294
f 114//278 118//286 110//270
f 106//262 110//270 118//286
f 100//250 106//262 118//286
f 100//250 118//286 122//294
f 122//294 126//304 130//312
f 124//298 132//316 128//308
f 115//280 107//264 111//272
f 123//296 115//280 119//288
f 99//248 107//264 115//280
f 115//280 133//318 99//248
f 95//240 99//248 93//236
f 107//264 99//248 103//256
f 97//244 93//236 105//260
f 105//260 101//252 97//244
f 99//248 105//260 93//236
f 123//296 133//318 115//280
f 123//296 131//314 135//322
f 121//292 99//248 133//318
f 133//318 123//296 135//322
f 129//310 121//292 133//318
f 113//276 109//268 117//284
f 105//260 117//284 109//268
f 99//248 117//284 105//260
f 99//248 121//292 117//284
f 121//292 129//310 125//301
f 123//296 127//306 131//314
o object_9
v 3.26 3.567 0.7232
v 3.448 3.777 0.057
v 3.45 3.398 0.7232
v 3.637 3.608 0.057
v 3.646 4 0.7232
v 3.833 4.208 0.057
v 3.837 3.829 0.7232
v 4.024 4.039 0.057
vn -0.7448 0.6672 -1.11e-16
vn -0.6147 -0.6862 -0.3888
vn -4.996e-16 -3.886e-16 1
vn -0.7448 0.6672 -1.11e-16
vn -0.6147 -0.6862 -0.3888
vn 4.996e-16 3.886e-16 -1
vn 0.7448 -0.6672 1.11e-16
vn -0.6147 -0.6862 -0.3888
vn -4.996e-16 -3.886e-16 1
vn 0.7448 -0.6672 1.11e-16
vn -0.6147 -0.6862 -0.3888
vn 4.996e-16 3.886e-16 -1
vn 0.6147 0.6862 0.3888
vn -0.7448 0.6672 -1.11e-16
vn -4.996e-16 -3.886e-16 1
vn 0.6147 0.6862 0.3888
vn -0.7448 0.6672 -1.11e-16
vn 4.996e-16 3.886e-16 -1
vn 0.7448 -0.6672 1.11e-16
vn 0.6147 0.6862 0.3888
vn -4.996e-16 -3.886e-16 1
vn 0.7448 -0.6672 1.11e-16
vn 0.6147 0.6862 0.3888
vn 4.996e-16 3.886e-16 -1
f 140//334 144//346 143//343 139//331
f 144//347 142//340 141//337 143//344
f 142//341 138//328 137//325 141//338
f 138//329 140//335 139//332 137//326
f 144//348 140//336 138//330
f 138//330 142//342 144//348
f 143//345 137//327 139//333
f 137//327 143//345 141//339
o object_10
v 3.779 2.422 0.7232
v 3.779 2.677 0.7232
v 4.061 2.422 0.057
v 4.061 2.677 0.057
v 4.359 2.422 0.7232
v 4.359 2.677 0.7232
v 4.641 2.422 0.057
v 4.641 2.677 0.057
vn 0 -1 0
vn -0.9213 0 -0.3888
vn -4.441e-16 0 1
vn 0 1 0
vn -0.9213 0 -0.3888
vn -4.441e-16 0 1
vn 0 -1 0
vn -0.9213 0 -0.3888
vn 4.441e-16 0 -1
vn 0 1 0
vn -0.9213 0 -0.3888
vn 4.441e-16 0 -1
vn 0 -1 0
vn 0.9213 0 0.3888
vn -4.441e-16 0 1
vn 0.9213 0 0.3888
vn 0 1 0
vn -4.441e-16 0 1
vn 0 -1 0
vn 0.9213 0 0.3888
vn 4.441e-16 0 -1
vn 0.9213 0 0.3888
vn 0 1 0
vn 4.441e-16 0 -1
f 147//355 151//367 149//361 145//349
f 151//368 152//370 150//364 149//362
f 152//371 148//358 146//352 150//365
f 148//359 147//356 145//350 146//353
f 151//369 147//357 148//360
f 148//360 152//372 151//369
f 149//363 146//354 145//351
f 146//354 149//363 150//366
o object_11
v 0.2487 2.824 0.004813
v 0.2487 2.824 0.149
v 0.2622 2.173 0.004813
v 0.2622 2.173 0.149
v 0.4177 3.453 0.004813
v 0.4177 3.453 0.149
v 0.4599 1.553 0.004813
v 0.4599 1.553 0.149
v 0.7574 4.009 0.004813
v 0.7574 4.009 0.149
v 0.8233 1.012 0.004813
v 0.8233 1.012 0.149
v 1.241 4.445 0.004813
v 1.241 4.445 0.149
v 1.325 0.5982 0.004813
v 1.325 0.5982 0.149
v 1.827 4.729 0.004813
v 1.827 4.729 0.149
v 1.922 0.3396 0.004813
v 1.922 0.3396 0.149
v 2.469 4.835 0.004813
v 2.469 4.835 0.149
v 2.569 0.2619 0.004813
v 2.569 0.2619 0.149
v 3.115 4.756 0.004813
v 3.115 4.756 0.149
v 3.211 0.3683 0.004813
v 3.211 0.3683 0.149
v 3.713 4.499 0.004813
v 3.713 4.499 0.149
v 3.798 0.6522 0.004813
v 3.798 0.6522 0.149
v 4.213 4.083 0.004813
v 4.213 4.083 0.149
v 4.279 1.088 0.004813
v 4.279 1.088 0.149
v 4.578 3.544 0.004813
v 4.578 3.544 0.149
v 4.619 1.644 0.004813
v 4.619 1.644 0.149
v 4.774 2.924 0.004813
v 4.774 2.924 0.149
v 4.79 2.273 0.004813
v 4.79 2.273 0.149
vn -0.9927 0.1207 0
vn 0 0 -1
vn -0.9927 0.1207 0
vn 0 0 1
vn -0.9865 -0.1639 0
vn 0 0 -1
vn -0.9865 -0.1639 0
vn 0 0 1
vn -0.9185 0.3954 0
vn 0 0 -1
vn -0.9185 0.3954 0
vn 0 0 1
vn -0.9003 -0.4352 0
vn 0 0 -1
vn -0.9003 -0.4352 0
vn 0 0 1
vn -0.7699 0.6382 0
vn 0 0 -1
vn -0.7699 0.6382 0
vn 0 0 1
vn -0.7413 -0.6712 0
vn 0 0 -1
vn -0.7413 -0.6712 0
vn 0 0 1
vn -0.5589 0.8292 0
vn 0 0 -1
vn -0.5589 0.8292 0
vn 0 0 1
vn -0.5221 -0.8529 0
vn 0 0 -1
vn -0.5221 -0.8529 0
vn 0 0 1
vn -0.3026 0.9531 0
vn 0 0 -1
vn -0.3026 0.9531 0
vn 0 0 1
vn -0.2607 -0.9654 0
vn 0 0 -1
vn -0.2607 -0.9654 0
vn 0 0 1
vn -0.02185 0.9998 0
vn 0 0 -1
vn -0.02185 0.9998 0
vn 0 0 1
vn 0.02185 -0.9998 0
vn 0 0 -1
vn 0.02185 -0.9998 0
vn 0 0 1
vn 0.2607 0.9654 0
vn 0 0 -1
vn 0.2607 0.9654 0
vn 0 0 1
vn 0.3026 -0.9531 0
vn 0 0 -1
vn 0.3026 -0.9531 0
vn 0 0 1
vn 0.5221 0.8529 0
vn 0 0 -1
vn 0.5221 0.8529 0
vn 0 0 1
vn 0.5589 -0.8292 0
vn 0 0 -1
vn 0.5589 -0.8292 0
vn 0 0 1
vn 0.7413 0.6712 0
vn 0 0 -1
vn 0.7413 0.6712 0
vn 0 0 1
vn 0.7699 -0.6382 0
vn 0.7699 -0.6382 0
vn 0 0 -1
vn 0.7699 -0.6382 0
vn 0.7699 -0.6382 0
vn 0 0 1
vn 0.9003 0.4352 0
vn 0 0 -1
vn 0.9003 0.4352 0
vn 0 0 1
vn 0.9185 -0.3954 0
vn 0 0 -1
vn 0.9185 -0.3954 0
vn 0 0 1
vn 0.9865 0.1639 0
vn 0 0 -1
vn 0.9865 0.1639 0
vn 0 0 1
vn 0.9927 -0.1207 0
vn 0 0 -1
vn 0.9927 -0.1207 0
vn 0 0 1
f 188//444 184//435 183//433 187//441
f 184//435 180//427 179//425 183//433
f 180//427 176//419 175//417 179//425
f 176//419 172//411 171//409 175//417
f 172//411 168//403 167//401 171//409
f 168//403 164//395 163//393 167//401
f 164//395 160//387 159//385 163//393
f 160//387 156//379 155//377 159//385
f 156//379 154//375 153//373 155//377
f 154//375 158//383 157//381 153//373
f 158//383 162//391 161//389 157//381
f 162//391 166//399 165//397 161//389
f 166//399 170//407 169//405 165//397
f 170//407 174//415 173//413 169//405
f 174//415 178//423 177//421 173//413
f 178//423 182//431 181//429 177//421
f 182//431 186//439 185//437 181//429
f 186//439 190//449 189//447 185//437
f 190//449 194//457 193//455 189//447
f 194//457 196//461 195//459 193//455
f 196//461 192//453 191//451 195//459
f 192//453 188//445 187//442 191//451
f 174//416 170//408 166//400
f 166//400 182//432 178//424
f 174//416 166//400 178//424
f 168//404 166//400 154//376
f 162//392 158//384 166//400
f 158//384 154//376 166//400
f 156//380 160//388 154//376
f 160//388 168//404 154//376
f 164//396 168//404 160//388
f 166//400 168//404 182//432
f 194//458 190//450 186//440
f 182//432 192//454 196//462
f 196//462 194//458 182//432
f 192//454 182//432 188//446
f 176//420 184//436 172//412
f 172//412 182//432 168//404
f 180//428 184//436 176//420
f 188//446 172//412 184//436
f 182//432 172//412 188//446
f 194//458 186//440 182//432
f 173//414 165//398 169//406
f 165//398 177//422 181//430
f 173//414 177//422 165//398
f 167//402 153//374 165//398
f 161//390 165//398 157//382
f 157//382 165//398 153//374
f 155//378 153//374 159//386
f 159//386 153//374 167//402
f 163//394 159//386 167//402
f 165//398 181//430 167//402
f 193//456 185//438 189//448
f 181//430 195//460 191//452
f 195//460 181//430 193//456
f 191//452 187//443 181//430
f 175//418 171//410 183//434
f 171//410 167//402 181//430
f 179//426 175//418 183//434
f 187//443 183//434 171//410
f 181//430 187//443 171//410
f 193//456 181//430 185//438
