# Blender v2.63 (sub 0) OBJ File: 'm61_vulcan.blend'
# www.blender.org
mtllib m61_vulcan.mtl
o Cylinder.001_Cylinder.002
v 0.929338 6.567434 0.086348
v 2.184816 6.569270 0.086348
v 3.086882 5.670025 0.086348
v 3.107116 4.396466 0.086348
v 2.233667 3.494625 0.086348
v 0.978189 3.492790 0.086348
v 0.076123 4.392035 0.086348
v 0.055888 5.665594 0.086348
v 1.245187 5.823339 1.662617
v 1.892625 5.824286 1.662617
v 2.357812 5.360554 1.662617
v 2.368247 4.703791 1.662617
v 1.917818 4.238720 1.662617
v 1.270379 4.237774 1.662617
v 0.805192 4.701507 1.662617
v 0.794758 5.358269 1.662617
v 1.581502 5.031030 0.083215
v 1.581502 5.031030 1.662617
v 2.094435 6.338830 0.839378
v 1.027037 6.337269 0.839378
v 2.861364 5.574299 0.839378
v 2.878568 4.491529 0.839378
v 2.135968 3.724790 0.839378
v 1.068569 3.723230 0.839378
v 0.301640 4.487761 0.839378
v 0.284437 5.570532 0.839378
v 2.184816 6.569270 0.311288
v 0.929338 6.567434 0.311288
v 3.086881 5.670025 0.311288
v 3.107116 4.396466 0.311288
v 2.233667 3.494625 0.311288
v 0.978188 3.492790 0.311288
v 0.076123 4.392035 0.311288
v 0.055889 5.665594 0.311288
v 2.094435 6.338830 0.412455
v 1.027037 6.337269 0.412455
v 2.861364 5.574299 0.412455
v 2.878568 4.491529 0.412455
v 2.135968 3.724790 0.412455
v 1.068569 3.723230 0.412455
v 0.301640 4.487761 0.412455
v 0.284437 5.570531 0.412455
vn -0.000003 0.002038 -0.999998
vn -0.000000 0.000000 1.000000
vn 0.001460 0.001464 -0.999998
vn 0.002067 0.000033 -0.999998
vn 0.001464 -0.001418 -0.999998
vn 0.000003 -0.002038 -0.999998
vn -0.001460 -0.001464 -0.999998
vn -0.002067 -0.000033 -0.999998
vn -0.001464 0.001418 -0.999998
vn -0.001240 0.848125 0.529794
vn 0.601180 0.603066 0.524304
vn 0.851424 0.013528 0.524304
vn 0.609229 -0.590049 0.529794
vn 0.001240 -0.848125 0.529794
vn -0.601180 -0.603065 0.524304
vn -0.851424 -0.013527 0.524304
vn -0.609229 0.590050 0.529794
vn -0.001462 0.999999 -0.000000
vn 0.705999 0.708213 0.000000
vn 0.999874 0.015886 0.000001
vn 0.718323 -0.695710 0.000000
vn 0.001462 -0.999999 0.000001
vn -0.705999 -0.708213 0.000000
vn -0.999874 -0.015886 0.000000
vn -0.718323 0.695709 -0.000001
vn -0.000588 0.402178 0.915561
vn 0.287383 0.288285 0.913402
vn 0.705998 0.708213 0.000001
vn 0.407008 0.006467 0.913402
vn 0.999874 0.015886 0.000000
vn 0.288894 -0.279799 0.915561
vn 0.718323 -0.695709 -0.000000
vn 0.000588 -0.402178 0.915561
vn 0.001462 -0.999999 -0.000000
vn -0.287383 -0.288285 0.913402
vn -0.407008 -0.006467 0.913402
vn -0.718323 0.695710 -0.000001
vn -0.288894 0.279799 0.915562
usemtl _body
s off
f 17//1 1//1 2//1
f 18//2 10//2 9//2
f 17//3 2//3 3//3
f 18//2 11//2 10//2
f 17//4 3//4 4//4
f 18//2 12//2 11//2
f 17//5 4//5 5//5
f 18//2 13//2 12//2
f 17//6 5//6 6//6
f 18//2 14//2 13//2
f 17//7 6//7 7//7
f 18//2 15//2 14//2
f 17//8 7//8 8//8
f 18//2 16//2 15//2
f 8//9 1//9 17//9
f 18//2 9//2 16//2
f 20//10 9//10 10//10 19//10
f 19//11 10//11 11//11 21//11
f 21//12 11//12 12//12 22//12
f 22//13 12//13 13//13 23//13
f 23//14 13//14 14//14 24//14
f 24//15 14//15 15//15 25//15
f 25//16 15//16 16//16 26//16
f 9//17 20//17 26//17 16//17
f 1//18 28//18 27//18 2//18
f 2//19 27//19 29//19 3//19
f 3//20 29//20 30//20 4//20
f 4//21 30//21 31//21 5//21
f 5//22 31//22 32//22 6//22
f 6//23 32//23 33//23 7//23
f 7//24 33//24 34//24 8//24
f 28//25 1//25 8//25 34//25
f 28//26 36//26 35//26 27//26
f 36//18 20//18 19//18 35//18
f 27//27 35//27 37//27 29//27
f 35//28 19//28 21//28 37//28
f 29//29 37//29 38//29 30//29
f 37//30 21//30 22//30 38//30
f 30//31 38//31 39//31 31//31
f 38//32 22//32 23//32 39//32
f 31//33 39//33 40//33 32//33
f 39//34 23//34 24//34 40//34
f 32//35 40//35 41//35 33//35
f 40//23 24//23 25//23 41//23
f 33//36 41//36 42//36 34//36
f 41//24 25//24 26//24 42//24
f 20//37 36//37 42//37 26//37
f 36//38 28//38 34//38 42//38
