# Rhino

g ______04
o object_1
v 1.285 1.278 0.004135
v 1.285 1.278 0.3711
v 1.285 8.715 0.004135
v 1.285 8.715 0.3711
v 8.723 1.278 0.004135
v 8.723 1.278 0.3711
v 8.723 8.715 0.004135
v 8.723 8.715 0.3711
vn 0 0 1
vn 0 0 1
vn 0 0 1
vn 0 0 1
vn 1 0 0
vn 1 0 0
vn 1 0 0
vn 1 0 0
vn 0 1 0
vn 0 1 0
vn 0 1 0
vn 0 1 0
vn -1 1.078e-16 0
vn -1 1.078e-16 0
vn -1 1.078e-16 0
vn -1 1.078e-16 0
vn 0 -1 0
vn 0 -1 0
vn 0 -1 0
vn 0 -1 0
vn 0 0 -1
vn 0 0 -1
vn 0 0 -1
vn 0 0 -1
f 2//2 6//1 8//3 4//4
f 7//6 8//5 6//7 5//8
f 3//10 4//9 8//11 7//12
f 1//14 2//13 4//15 3//16
f 5//18 6//17 2//19 1//20
f 1//22 3//24 7//23 5//21
o object_2
v 1.285 1.278 0.3711
v 1.285 8.715 0.3711
v 3.28 3.273 1.398
v 3.28 6.72 1.398
v 6.727 3.273 1.398
v 6.727 6.72 1.398
v 8.723 1.278 0.3711
v 8.723 8.715 0.3711
vn 0 0 1
vn 0 0 1
vn 0 0 1
vn 0 0 1
vn 0 0 -1
vn 0 0 -1
vn 0 0 -1
vn 0 0 -1
vn 7.091e-17 -0.4575 0.8892
vn 7.091e-17 -0.4575 0.8892
vn 0 -0.4575 0.8892
vn 0 -0.4575 0.8892
vn -0.4575 0 0.8892
vn -0.4575 0 0.8892
vn -0.4575 1.643e-17 0.8892
vn -0.4575 1.643e-17 0.8892
vn 0 0.4575 0.8892
vn 0 0.4575 0.8892
vn 0 0.4575 0.8892
vn 0 0.4575 0.8892
vn 0.4575 2.837e-16 0.8892
vn 0.4575 2.837e-16 0.8892
vn 0.4575 0 0.8892
vn 0.4575 0 0.8892
f 11//26 13//25 14//27 12//28
f 9//30 10//32 16//31 15//29
f 13//34 11//33 9//35 15//36
f 11//38 12//37 10//39 9//40
f 12//42 14//41 16//43 10//44
f 14//46 13//45 15//47 16//48
