# Rhino

g ______01
o object_1
v 2.71 4.129 1.415
v 2.71 4.284 2.174
v 2.71 4.319 2.205
v 2.71 5.55 2.205
v 2.71 5.703 2.072
v 2.71 5.837 1.415
v 3.079 4.372 2.451
v 3.079 5.497 2.451
v 3.544 4.132 2.495
v 3.544 5.738 2.495
v 4.317 3.122 1.415
v 4.35 3.256 2.174
v 4.382 6.885 1.415
v 4.411 6.769 2.072
v 4.851 3.313 2.495
v 5.071 6.695 2.495
v 5.45 5.547 2.495
v 5.45 6.695 2.495
v 5.552 5.547 1.748
v 5.552 6.826 1.748
v 5.648 6.829 1.732
v 5.667 6.885 1.415
v 5.788 3.313 2.495
v 5.87 3.122 1.415
v 6.45 4.169 2.495
v 6.45 5.547 2.495
v 6.6 5.547 1.573
v 6.6 5.999 1.573
v 6.626 4.1 1.415
v 6.626 6.012 1.415
vn -0.5543 0 0.8323
vn -0.5543 0 0.8323
vn -0.5543 0 0.8323
vn -0.5543 0 0.8323
vn 0 0 1
vn 0 0 1
vn 0 0 1
vn 0 0 1
vn 0 0 1
vn 0 0 1
vn 0 0 1
vn 0 0 1
vn 0 0 1
vn 0.6638 0.7289 0.1678
vn 0.6638 0.7289 0.1678
vn 0.6638 0.7289 0.1678
vn 0.6638 0.7289 0.1678
vn 0 0 -1
vn 0 0 -1
vn 0 0 -1
vn 1.731e-17 0 -1
vn -9.23e-18 0 -1
vn 1.694e-17 0 -1
vn 0 0 -1
vn 3.462e-17 0 -1
vn -0.5233 0.835 0.17
vn -0.5233 0.835 0.17
vn -0.5233 0.835 0.17
vn -0.5233 0.835 0.17
vn -0.5233 -0.835 0.17
vn -0.5233 -0.835 0.17
vn -0.5233 -0.835 0.17
vn -0.5233 -0.835 0.17
vn 0.164 0 0.9865
vn 0.164 0 0.9865
vn 0.164 0 0.9865
vn 0.164 0 0.9865
vn 0.164 0 0.9865
vn 0 -0.9848 0.1736
vn 0 -0.9848 0.1736
vn 6.012e-18 -0.9848 0.1736
vn -7.12e-17 -0.9848 0.1736
vn -3.71e-17 -0.9848 0.1736
vn 0 0.9848 0.1736
vn 0 0.9848 0.1736
vn -6.218e-17 0.9848 0.1736
vn 0 0.9848 0.1736
vn 1.304e-16 0.9848 0.1736
vn 1.202e-17 0.9848 0.1736
vn -1.202e-17 0.9848 0.1736
vn 0.9871 -1.603e-16 0.1604
vn 0.9871 -1.366e-16 0.1604
vn 0.9871 -1.002e-16 0.1604
vn 0.9871 -1.751e-17 0.1604
vn 0.9871 -1.28e-16 0.1604
vn 0.9871 -1.28e-16 0.1604
vn 0.7802 -0.6032 0.1655
vn 0.7802 -0.6032 0.1655
vn 0.7802 -0.6032 0.1655
vn 0.7802 -0.6032 0.1655
vn 0.9909 0 0.1346
vn 0.9909 0 0.1346
vn 0.9909 1.343e-17 0.1346
vn 0.9909 1.343e-17 0.1346
vn 0 1 0
vn 0 1 0
vn 0 1 0
vn 0 1 0
vn -1 0 0
vn -1 0 0
vn -1 -7.127e-17 0
vn -1 0 0
vn -1 0 0
vn -1 0 0
vn -0.3795 0.6057 0.6994
vn -0.3795 0.6057 0.6994
vn -0.3795 0.6057 0.6994
vn -0.3795 0.6057 0.6994
vn -0.3795 0.6057 0.6994
vn -0.3795 0.6057 0.6994
vn -0.3795 -0.6057 0.6994
vn -0.3795 -0.6057 0.6994
vn -0.3795 -0.6057 0.6994
vn -0.3795 -0.6057 0.6994
vn -0.3795 -0.6057 0.6994
vn -0.3795 -0.6057 0.6994
vn -0.09453 -4.716e-18 0.9955
vn -0.09453 0 0.9955
vn -0.09453 0 0.9955
vn -0.09453 0 0.9955
f 4//4 3//1 7//2 8//3
f 10//12 9//13 17//7
f 9//13 15//9 17//7
f 17//7 16//10 10//12
f 16//10 17//7 18//11
f 23//6 25//5 17//7
f 26//8 17//7 25//5
f 15//9 23//6 17//7
f 22//14 21//15 28//17
f 28//17 30//16 22//14
f 6//20 11//22 1//21
f 11//22 6//20 13//24
f 13//24 29//25 11//22
f 29//25 13//24 30//18
f 30//18 13//24 22//19
f 24//23 11//22 29//25
f 6//27 14//29 13//28
f 14//29 6//27 5//26
f 1//31 11//32 12//33
f 12//33 2//30 1//31
f 21//36 20//37 19//34
f 21//36 19//34 28//35
f 27//38 28//35 19//34
f 24//40 12//41 11//39
f 12//41 24//40 23//42
f 15//43 12//41 23//42
f 16//50 20//48 14//47
f 13//44 14//47 20//48
f 20//48 21//46 22//45
f 16//50 18//49 20//48
f 13//44 20//48 22//45
f 25//56 29//53 27//54
f 30//51 27//54 29//53
f 26//55 25//56 27//54
f 30//51 28//52 27//54
f 23//57 24//60 29//59
f 29//59 25//58 23//57
f 20//61 18//64 17//63 19//62
f 27//66 19//65 17//68
f 17//68 26//67 27//66
f 4//72 5//73 2//71
f 6//69 1//70 5//73
f 3//74 4//72 2//71
f 1//70 2//71 5//73
f 14//79 5//78 4//76
f 8//77 10//80 4//76
f 14//79 10//80 16//75
f 4//76 10//80 14//79
f 9//85 3//81 2//83
f 7//82 3//81 9//85
f 12//84 15//86 9//85
f 2//83 12//84 9//85
f 7//89 9//88 10//87 8//90
o object_2
v 4.869 5.434 1.559
v 4.869 5.434 2.387
v 4.869 6.327 1.559
v 4.869 6.327 2.387
v 5.254 5.481 2.137
v 5.254 6.283 2.137
v 5.41 5.481 1.559
v 5.41 6.283 1.559
v 5.96 5.434 1.559
v 5.96 5.434 2.387
v 5.96 5.481 1.559
v 5.96 5.481 2.329
v 5.96 6.283 1.559
v 5.96 6.283 2.329
v 5.96 6.327 1.559
v 5.96 6.327 2.387
vn 0 0 1
vn 0 0 1
vn 0 0 1
vn 0 0 1
vn 0 0 -1
vn 0 0 -1
vn 0 0 -1
vn 0 0 -1
vn 0 0 -1
vn 0 0 -1
vn 0 0 -1
vn 0 0 -1
vn -1 0 0
vn -1 0 0
vn -1 0 0
vn -1 0 0
vn 0 1 0
vn 0 1 0
vn 0 1 0
vn 0 1 0
vn 1 0 0
vn 1 0 0
vn 1 0 0
vn 1 0 0
vn 1 0 0
vn 1 0 0
vn 1 0 0
vn 1 0 0
vn 0 -1 0
vn 0 -1 0
vn 0 -1 0
vn 0 -1 0
vn 0.9651 0 0.2618
vn 0.9651 -3.551e-16 0.2618
vn 0.9651 0 0.2618
vn 0.9651 0 0.2618
vn 0 -1 0
vn 0 -1 0
vn -3.852e-16 -1 -1.045e-16
vn -3.852e-16 -1 -1.045e-16
vn 0 1 0
vn 0 1 0
vn 1.926e-16 1 5.224e-17
vn -1.926e-16 1 -5.224e-17
vn 0.2618 0 -0.9651
vn 0.2618 0 -0.9651
vn 0.2618 0 -0.9651
vn 0.2618 0 -0.9651
f 34//92 32//91 40//93 46//94
f 33//96 38//101 37//100 31//95
f 39//97 31//95 37//100
f 45//98 38//101 33//96
f 37//100 41//99 39//97
f 38//101 45//98 43//102
f 34//104 33//103 31//105 32//106
f 46//108 45//107 33//109 34//110
f 41//115 42//117 40//112 39//111
f 46//114 40//112 42//117 44//118
f 44//118 43//116 45//113
f 45//113 46//114 44//118
f 32//120 31//119 39//121 40//122
f 36//123 35//125 37//124 38//126
f 36//128 43//129 44//127
f 43//129 36//128 38//130
f 41//134 37//133 35//131
f 35//131 42//132 41//134
f 36//136 44//137 42//138 35//135
g ______02
o object_3
v 4.092 5.55 2.452
v 4.092 5.55 2.537
v 4.092 5.882 2.452
v 4.092 5.882 2.537
v 4.916 6.426 2.452
v 4.916 6.426 2.537
v 5.317 5.55 2.452
v 5.317 5.55 2.537
v 5.328 6.426 2.452
v 5.328 6.426 2.537
vn 0 0 -1
vn 0 0 -1
vn 0 0 -1
vn 0 0 -1
vn 0 0 -1
vn 0.9999 -0.01205 0
vn 0.9999 -0.01205 0
vn 0.9999 -0.01205 0
vn 0.9999 -0.01205 0
vn 0 -1 0
vn 0 -1 0
vn 0 -1 0
vn 0 -1 0
vn -1 0 0
vn -1 0 0
vn -1 0 0
vn -1 0 0
vn -0.551 0.8345 0
vn -0.551 0.8345 0
vn -0.551 0.8345 0
vn -0.551 0.8345 0
vn 0 1 0
vn 0 1 0
vn 0 1 0
vn 0 1 0
vn 0 0 1
vn 0 0 1
vn 0 0 1
vn 0 0 1
vn 0 0 1
f 53//140 47//143 49//142
f 53//140 51//141 55//139
f 49//142 51//141 53//140
f 54//145 53//144 55//146 56//147
f 48//149 47//148 53//150 54//151
f 50//153 49//152 47//154 48//155
f 52//157 51//156 49//158 50//159
f 56//161 55//160 51//162 52//163
f 54//165 50//167 48//166
f 54//165 56//164 52//168
f 50//167 54//165 52//168
g ______05
o object_4
v 5.673 5.501 1.714
v 5.673 5.501 2.222
v 5.673 5.511 2.237
v 5.673 5.554 1.649
v 5.673 5.564 2.298
v 5.673 5.621 1.592
v 5.673 5.63 2.351
v 5.673 5.655 2.366
v 5.673 5.702 1.547
v 5.673 5.791 1.519
v 5.673 5.885 1.51
v 5.673 5.976 1.52
v 5.673 6.061 1.546
v 5.673 6.109 2.366
v 5.673 6.134 1.586
v 5.673 6.19 2.307
v 5.673 6.203 1.642
v 5.673 6.253 2.237
v 5.673 6.263 1.714
v 5.673 6.263 2.222
v 5.673 6.265 2.22
v 5.673 6.279 1.739
v 5.673 6.305 1.793
v 5.673 6.305 2.144
v 5.679 5.501 1.717
v 5.706 5.68 2.366
v 5.706 6.084 2.366
v 5.709 6.305 2.105
v 5.71 6.305 1.832
v 5.727 5.501 2.177
v 5.729 5.501 1.762
v 5.731 6.305 2.056
v 5.731 6.05 2.366
v 5.731 6.305 1.881
v 5.744 6.305 1.969
v 5.762 5.501 1.821
v 5.762 5.501 2.115
v 5.762 5.79 2.366
v 5.762 5.974 2.366
v 5.764 5.964 2.366
v 5.772 5.877 2.366
v 5.781 5.501 2.047
v 5.785 5.561 1.756
v 5.785 5.567 2.189
v 5.785 5.661 1.653
v 5.785 5.67 2.29
v 5.785 5.803 2.345
v 5.785 5.805 1.591
v 5.785 5.96 2.345
v 5.785 5.961 1.591
v 5.785 6.094 1.647
v 5.785 6.103 2.283
v 5.785 6.197 1.747
v 5.785 6.203 2.18
v 5.785 6.259 2.047
v 5.785 6.259 1.891
v 5.787 5.501 1.933
v 5.856 5.62 2.022
v 5.856 5.62 1.914
v 5.856 5.659 1.821
v 5.856 5.663 2.122
v 5.856 5.729 1.749
v 5.856 5.735 2.191
v 5.856 5.827 2.23
v 5.856 5.828 1.706
v 5.856 5.936 2.23
v 5.856 5.937 1.707
v 5.856 6.029 1.745
v 5.856 6.036 2.187
v 5.856 6.101 1.815
v 5.856 6.105 2.115
v 5.856 6.144 2.023
v 5.856 6.144 1.914
v 5.895 5.75 1.995
v 5.895 5.75 1.941
v 5.895 5.769 1.894
v 5.895 5.771 2.046
v 5.895 5.805 1.858
v 5.895 5.808 2.081
v 5.895 5.854 2.1
v 5.895 5.855 1.836
v 5.895 5.909 2.101
v 5.895 5.91 1.836
v 5.895 5.956 1.855
v 5.895 5.96 2.079
v 5.895 5.993 1.891
v 5.895 5.995 2.043
v 5.895 6.014 1.996
v 5.895 6.014 1.941
v 5.907 5.882 1.968
vn -1 2.203e-16 -3.343e-16
vn -1 2.203e-16 -3.343e-16
vn -1 2.203e-16 -3.343e-16
vn -1 2.203e-16 -3.343e-16
vn -1 2.203e-16 -3.343e-16
vn -1 2.203e-16 -3.343e-16
vn -1 2.203e-16 -3.343e-16
vn -1 2.203e-16 -3.343e-16
vn -1 2.203e-16 -3.343e-16
vn -1 2.203e-16 -3.343e-16
vn -1 2.203e-16 -3.343e-16
vn -1 2.203e-16 -3.343e-16
vn -1 2.203e-16 -3.343e-16
vn -1 2.203e-16 -3.343e-16
vn -1 2.203e-16 -3.343e-16
vn -1 2.203e-16 -3.343e-16
vn -1 2.203e-16 -3.343e-16
vn -1 2.203e-16 -3.343e-16
vn -1 2.203e-16 -3.343e-16
vn -1 2.203e-16 -3.343e-16
vn -1 2.203e-16 -3.343e-16
vn -1 2.203e-16 -3.343e-16
vn -1 2.203e-16 -3.343e-16
vn -1 2.203e-16 -3.343e-16
vn 0.2501 0.5327 -0.8085
vn 0.749 0.3646 -0.5533
vn 0.9223 0.2126 -0.3227
vn 0.9841 0.09786 -0.1485
vn 1 -1.109e-15 2.457e-15
vn 0.749 0.5426 -0.3802
vn 0.9223 0.3164 -0.2217
vn 0.9841 0.1457 -0.1021
vn 1 1.907e-16 1.004e-15
vn 0.749 0.649 -0.1334
vn 0.9223 0.3785 -0.07782
vn 0.9841 0.1742 -0.03582
vn 1 3.343e-16 -1.711e-15
vn 0.749 0.6486 0.1353
vn 0.9223 0.3783 0.07891
vn 0.9841 0.1741 0.03632
vn 1 2.463e-15 -1.865e-15
vn 0.749 0.5533 0.3646
vn 0.9223 0.3227 0.2126
vn 0.9841 0.1485 0.09786
vn 1 7.307e-16 2.079e-15
vn 0.749 0.3802 0.5426
vn 0.9223 0.2217 0.3164
vn 0.9841 0.1021 0.1457
vn 1 -2.216e-15 6.808e-16
vn 0.9223 0.07782 0.3785
vn 0.9841 0.03582 0.1742
vn 1 1.911e-15 1.706e-15
vn 0.9223 -0.07891 0.3783
vn 0.9841 -0.03632 0.1741
vn 1 1.599e-15 2.02e-15
vn 0.749 -0.3646 0.5533
vn 0.9223 -0.2126 0.3227
vn 0.9841 -0.09786 0.1485
vn 1 5.94e-15 5.775e-15
vn 0.749 -0.5426 0.3802
vn 0.9223 -0.3164 0.2217
vn 0.9841 -0.1457 0.1021
vn 1 -4.716e-16 1.05e-15
vn 0.9223 -0.3785 0.07782
vn 0.9841 -0.1742 0.03582
vn 1 -1.226e-15 4.972e-15
vn 0.9223 -0.3783 -0.07891
vn 0.9841 -0.1741 -0.03632
vn 1 -2.244e-15 -1.685e-15
vn 0.749 -0.5533 -0.3646
vn 0.9223 -0.3227 -0.2126
vn 0.9841 -0.1485 -0.09786
vn 1 1.607e-15 6.335e-15
vn 0.749 -0.3802 -0.5426
vn 0.9223 -0.2217 -0.3164
vn 0.9841 -0.1021 -0.1457
vn 1 -4.932e-15 1.698e-15
vn 0.749 -0.1334 -0.649
vn 0.9223 -0.07782 -0.3785
vn 0.9841 -0.03582 -0.1742
vn 1 -3.151e-15 6.479e-16
vn 0.749 0.1353 -0.6486
vn 0.9223 0.07891 -0.3783
vn 0.9841 0.03632 -0.1741
vn 1 -1.185e-15 -1.069e-16
vn 0.749 0.3646 -0.5533
vn 0.9223 0.2126 -0.3227
vn 0.9841 0.09786 -0.1485
vn 1 2.739e-15 1.569e-15
vn 0.2501 -0.8055 -0.5372
vn 0.2501 -0.6946 -0.6746
vn 0.2501 -0.5519 -0.7955
vn 0.2501 -0.3816 -0.8898
vn 0.2501 -0.1919 -0.949
vn 0.2501 0.005811 -0.9682
vn 0.2501 0.1992 -0.9475
vn 0.2501 0.3774 -0.8916
vn 0.2501 0.5327 -0.8085
vn 0.2501 0.8941 -0.3715
vn 0.4466 0.8518 -0.2739
vn 0.5486 0.8189 -0.1684
vn 0.6022 0.7983 0.001251
vn 0.5469 0.8196 0.171
vn 0.4449 0.8523 0.2753
vn 0.2501 -0.8055 0.5372
vn 0.5304 -0.7436 0.4071
vn 0.6704 -0.6922 0.267
vn 0.7372 -0.6618 0.1361
vn 0.7549 -0.653 -0.0611
vn 0.6704 -0.6922 -0.267
vn 0.5393 -0.7408 -0.4005
vn 0.2848 -0.8004 -0.5274
vn 0.2501 0.4791 0.8413
vn 0.4272 0.4086 0.8066
vn 0.5475 0.3253 0.771
vn 0.6704 0.1665 0.723
vn 0.6787 0.1479 0.7193
vn 0.7089 -0.008927 0.7053
vn 0.6704 -0.1665 0.723
vn 0.4271 -0.4086 0.8066
vn 0.2501 -0.4791 0.8413
vn 0.2501 -0.5327 0.8085
vn 0.2501 -0.6728 0.6963
vn 0.2501 -0.7839 0.5683
vn 0.2501 0.6786 -0.6906
vn 0.2501 0.8056 -0.5371
vn 0.2501 0.8382 -0.4847
vn 0.2501 0.8941 0.3715
vn 0.2501 0.8085 0.5327
vn 0.2501 0.8056 0.5371
vn 0.2501 0.7839 0.5683
vn 0.2501 0.6506 0.7171
vn 0.749 0.1334 0.649
vn 0.749 -0.1353 0.6486
f 58//179 66//173 57//178
f 58//179 59//181 67//172
f 63//183 67//172 61//182
f 61//182 67//172 59//181
f 64//180 67//172 63//183
f 60//176 57//178 62//175
f 62//175 57//178 65//174
f 57//178 66//173 65//174
f 66//173 58//179 67//172
f 68//171 67//172 72//189
f 72//189 67//172 64//180
f 80//177 68//171 72//189
f 74//190 76//191 72//189
f 72//189 77//192 80//177
f 76//191 77//192 72//189
f 68//171 80//177 79//184
f 71//169 69//170 73//187
f 75//186 73//187 69//170
f 75//186 69//170 78//185
f 79//184 78//185 69//170
f 69//170 68//171 79//184
f 70//188 72//189 64//180
f 126//199 124//195 107//194 109//198
f 142//200 140//196 124//195 126//199
f 146//201 140//196 142//200
f 129//203 126//199 109//198 112//202
f 145//204 142//200 126//199 129//203
f 146//205 142//200 145//204
f 128//207 129//203 112//202 111//206
f 144//208 145//204 129//203 128//207
f 146//209 145//204 144//208
f 127//211 128//207 111//206 110//210
f 143//212 144//208 128//207 127//211
f 146//213 144//208 143//212
f 125//215 127//211 110//210 108//214
f 141//216 143//212 127//211 125//215
f 146//217 143//212 141//216
f 122//218 125//215 108//214
f 138//219 141//216 125//215 122//218
f 146//220 141//216 138//219
f 136//222 138//219 122//218 120//221
f 146//223 138//219 136//222
f 102//224 119//225 120//221
f 135//226 136//222 120//221 119//225
f 146//227 136//222 135//226
f 117//229 119//225 102//224 100//228
f 133//230 135//226 119//225 117//229
f 146//231 135//226 133//230
f 130//233 133//230 117//229 114//232
f 146//234 133//230 130//233
f 131//236 130//233 114//232 115//235
f 146//237 130//233 131//236
f 132//240 131//236 115//235 116//239
f 146//241 131//236 132//240
f 118//243 116//239 99//238 101//242
f 134//244 132//240 116//239 118//243
f 146//245 132//240 134//244
f 121//247 118//243 101//242 104//246
f 137//248 134//244 118//243 121//247
f 146//249 134//244 137//248
f 123//251 121//247 104//246 106//250
f 139//252 137//248 121//247 123//251
f 146//253 137//248 139//252
f 124//255 123//251 106//250 107//254
f 140//256 139//252 123//251 124//255
f 146//257 139//252 140//256
f 73//293 107//194 71//193
f 78//295 109//198 75//294
f 75//294 109//198 73//293
f 78//295 79//267 85//268
f 84//272 110//210 88//271
f 109//198 78//295 85//268
f 84//272 77//297 110//210
f 74//299 110//210 76//298
f 110//210 77//297 76//298
f 83//282 72//300 70//281
f 108//214 72//300 83//282
f 110//210 74//299 72//300
f 80//296 77//297 84//272
f 109//198 107//194 73//293
f 112//202 109//198 90//269
f 110//210 111//206 88//271
f 109//198 85//268 90//269
f 91//270 112//202 90//269
f 91//270 111//206 112//202
f 72//300 108//214 110//210
f 111//206 91//270 88//271
f 96//285 105//301 95//284
f 108//214 105//301 122//218
f 122//218 105//301 103//302 120//221
f 103//302 105//301 97//286
f 94//287 102//224 103//302
f 103//302 97//286 94//287
f 120//221 103//302 102//224
f 89//283 95//284 108//214
f 89//283 108//214 83//282
f 108//214 95//284 105//301
f 82//288 102//224 94//287
f 105//301 96//285 97//286
f 82//288 63//290 61//291
f 86//274 61//291 59//292
f 102//224 82//288 61//291
f 59//292 58//273 86//274
f 60//259 81//280 57//258
f 61//291 86//274 100//228
f 81//280 60//259 99//238
f 62//260 65//261 101//242
f 62//260 101//242 60//259
f 67//263 104//246 66//262
f 69//265 106//250 68//264
f 68//264 106//250 67//263
f 66//262 104//246 65//261
f 71//266 107//254 69//265
f 100//228 102//224 61//291
f 100//228 93//275 98//276
f 100//228 86//274 93//275
f 98//276 114//232 117//229 100//228
f 114//232 113//277 115//235
f 92//278 115//235 113//277
f 114//232 98//276 113//277
f 99//238 92//278 87//279
f 99//238 87//279 81//280
f 60//259 101//242 99//238
f 115//235 99//238 116//239
f 106//250 104//246 67//263
f 101//242 65//261 104//246
f 106//250 69//265 107//254
f 92//278 99//238 115//235
f 64//289 63//290 82//288
