# Blender v2.61 (sub 0) OBJ File: '36.5_yaw_output.blend'
# www.blender.org
mtllib 36.5_yaw_output.mtl
o Mesh_Cylinder
v 11.465308 6.913075 4.128623
v 11.465309 13.748441 4.128623
v 13.939846 6.907210 0.960182
v 13.939846 13.754306 0.960182
v 13.965351 10.353945 0.952700
v 13.965351 10.307571 0.952700
v 10.828278 10.353945 4.796523
v 10.828278 10.307571 4.796523
v 10.057722 6.741838 4.311825
v 10.057723 13.919679 4.311825
v 10.324975 4.660830 0.960182
v 10.324976 16.000687 0.960182
v 5.837785 6.915816 3.956038
v 5.837786 13.745701 3.956038
v 5.638316 5.449327 0.960182
v 5.638317 15.212191 0.960182
v 4.514496 7.038808 3.805049
v 4.514497 13.622709 3.805049
v 4.514496 6.163336 0.960182
v 4.514497 14.498180 0.960182
v 4.514495 10.353945 0.960182
v 4.514495 10.307572 0.960182
v 3.326568 7.193327 3.666177
v 3.326568 13.468191 3.666177
v 2.995544 6.613478 0.960182
v 2.995544 14.048039 0.960182
v 4.514495 10.353945 4.761018
v 4.514495 10.307572 4.761018
v 3.326568 10.353944 4.712580
v 3.326568 10.307573 4.712580
v 6.303724 10.353945 4.885924
v 6.303724 10.307572 4.885924
v 7.319200 7.067987 4.680587
v 7.319201 13.593530 4.680587
v 9.949824 6.963752 4.710766
v 9.949825 13.697764 4.710766
v 9.691266 10.353945 5.005140
v 9.691266 10.307571 5.005140
v 0.672439 7.720930 2.904792
v 0.672439 12.940587 2.904792
v 0.584552 7.497747 0.960182
v 0.584552 13.163771 0.960182
v 2.995544 10.353945 0.960182
v 2.995544 10.307572 0.960182
v 0.549585 10.353945 4.451433
v 0.549585 10.307573 4.451433
v 0.218815 10.353946 0.960182
v 0.218815 10.307572 0.960182
v 7.784885 6.755289 4.164821
v 7.784885 13.906228 4.164821
v 8.009768 7.038087 4.722209
v 8.009769 13.623429 4.722209
v 7.914693 4.771372 0.960182
v 7.914694 15.890145 0.960182
v 7.677428 10.353945 4.968214
v 7.677428 10.307571 4.968214
v 4.514496 7.281727 4.583676
v 4.514496 13.379789 4.583676
v 0.690240 7.825360 4.057007
v 0.690240 12.836157 4.057007
v 0.301280 8.909541 0.960182
v 0.301280 11.751977 0.960182
v 2.995544 8.627769 0.960182
v 2.995544 12.033749 0.960182
v 3.326568 7.347638 4.513978
v 3.326568 13.313880 4.513978
v 4.514496 8.358373 0.960182
v 4.514496 12.303144 0.960182
v 0.525536 10.353946 0.960182
v 0.525536 10.307572 0.960182
v 0.949569 10.353945 4.566141
v 0.949569 10.307573 4.566141
v 0.931848 7.003721 0.960182
v 0.931848 13.657796 0.960182
v 0.987318 7.400363 3.386822
v 0.987318 13.261154 3.386822
v 0.984402 7.471611 4.372660
v 0.984402 13.189907 4.372660
v 0.792527 8.800728 0.960182
v 0.792527 11.860790 0.960182
v 0.572040 9.193706 4.388104
v 0.572040 11.467813 4.388104
v 9.691266 8.352299 4.904035
v 9.691266 12.309217 4.904035
v 11.196208 7.102495 4.442774
v 11.196209 13.559021 4.442774
v 13.941257 7.101912 0.948712
v 13.941258 13.559603 0.948712
v 7.319200 8.462331 4.826756
v 7.319200 12.199185 4.826756
v 8.120546 8.388976 4.875250
v 8.120546 12.272541 4.875250
v 0.613517 7.540290 1.463700
v 0.613517 13.121227 1.463700
v 0.431854 8.050625 1.330255
v 0.431854 12.610893 1.330255
v 0.946151 7.210230 1.619321
v 0.946151 13.451287 1.619321
v 11.192349 6.937864 4.605526
v 11.192349 13.723652 4.605526
v 10.736191 10.353945 4.932809
v 10.736191 10.307571 4.932809
v 10.888165 8.419765 4.865087
v 10.888165 12.241751 4.865087
v 12.119413 5.495453 0.960182
v 12.119414 15.166063 0.960182
v 10.581390 6.714607 4.220883
v 10.581391 13.946909 4.220883
v 10.869355 8.728220 4.757638
v 10.869355 11.933296 4.757638
vn -0.000466 -0.000734 -1.000000
vn -0.000466 0.000734 -1.000000
vn -0.133966 -0.878577 0.458428
vn -0.133966 0.878578 0.458426
vn -0.000059 -0.001277 -0.999999
vn -0.000059 0.001277 -0.999999
vn -0.000302 -0.001013 -0.999999
vn -0.000302 0.001013 -0.999999
vn -0.106354 -0.889932 0.443521
vn -0.106354 0.889932 0.443520
vn -0.033496 -0.882198 0.469686
vn -0.033496 0.882197 0.469687
vn -0.157016 -0.942779 0.294132
vn -0.157015 0.942779 0.294133
vn -0.040673 -0.057581 0.997512
vn -0.040673 0.057581 0.997512
vn -0.069526 -0.057489 0.995922
vn -0.069526 0.057489 0.995922
vn -0.082755 -0.951346 0.296805
vn -0.082755 0.951345 0.296805
vn -0.000792 -0.000000 -1.000000
vn -0.000000 0.000000 -1.000000
vn -0.062082 -0.065791 0.995900
vn -0.062082 0.065791 0.995900
vn -0.064956 -0.981758 0.178693
vn -0.064955 0.981758 0.178693
vn 0.000000 1.000000 0.000000
vn -0.000000 -1.000000 0.000000
vn -0.062473 -0.066674 0.995817
vn -0.062473 0.066674 0.995817
vn -0.773637 -0.631039 0.057237
vn -0.773637 0.631039 0.057237
vn -0.080873 -0.989283 0.121564
vn -0.080873 0.989283 0.121564
vn -0.994905 -0.056802 0.083293
vn -0.994905 0.056802 0.083293
vn -0.995245 -0.024408 0.094292
vn -0.995245 0.024408 0.094292
vn -0.247238 -0.067871 0.966575
vn -0.247238 0.067871 0.966575
vn -0.275210 -0.057706 0.959651
vn -0.275210 0.057706 0.959651
vn -0.818740 -0.200874 0.537879
vn -0.818740 0.200874 0.537879
vn -0.004020 0.001256 -0.999991
vn -0.004020 -0.001256 -0.999991
vn -0.067225 -0.105425 0.992153
vn -0.067225 0.105425 0.992153
vn -0.062011 -0.062747 0.996101
vn -0.062011 0.062747 0.996101
vn -0.008881 -0.125885 0.992005
vn -0.008881 0.125885 0.992005
vn -0.018826 -0.050956 0.998523
vn -0.018826 0.050956 0.998523
vn -0.042272 -0.104166 0.993661
vn -0.042272 0.104166 0.993661
vn -0.059727 -0.063224 0.996211
vn -0.059727 0.063224 0.996211
vn -0.321611 -0.875009 0.361837
vn -0.321611 0.875009 0.361837
vn -0.223198 -0.939557 0.259643
vn -0.223197 0.939558 0.259643
vn -0.038988 -0.850311 0.524835
vn -0.038988 0.850311 0.524835
vn -0.193674 -0.856346 0.478709
vn -0.193674 0.856346 0.478709
vn -0.930858 -0.359182 0.067023
vn -0.930858 0.359182 0.067023
vn -0.970264 -0.237820 -0.045049
vn -0.970264 0.237820 -0.045049
vn -0.776044 -0.610156 0.159582
vn -0.776043 0.610156 0.159582
vn -0.752053 -0.651661 0.098763
vn -0.752053 0.651661 0.098763
vn -0.177380 -0.938025 0.297734
vn -0.177380 0.938025 0.297733
vn -0.162066 -0.970138 0.180465
vn -0.162066 0.970138 0.180465
vn -0.989761 -0.112755 0.087525
vn -0.989761 0.112755 0.087525
vn -0.990699 -0.106172 0.085107
vn -0.990699 0.106172 0.085107
vn 0.785680 0.062555 0.615463
vn 0.785680 -0.062553 0.615463
vn 0.780238 0.006847 0.625446
vn 0.780238 -0.006847 0.625446
vn 0.023425 -0.870952 0.490809
vn 0.023425 0.870952 0.490809
vn 0.060834 -0.143892 0.987722
vn 0.060834 0.143892 0.987722
vn 0.050761 -0.040844 0.997875
vn 0.050761 0.040844 0.997875
vn 0.045816 -0.059079 -0.997201
vn 0.045816 0.059079 -0.997201
vn 0.007027 -0.015109 -0.999861
vn 0.007027 0.015109 -0.999861
vn 0.470567 -0.765130 0.439480
vn 0.470567 0.765130 0.439480
vn 0.303723 -0.816764 0.490561
vn 0.303723 0.816764 0.490561
vn 0.033920 -0.886825 0.460859
vn 0.033920 0.886825 0.460859
vn 0.233541 -0.954912 0.183304
vn 0.233541 0.954912 0.183305
vn 0.799681 0.412537 0.436260
vn 0.799682 -0.412535 0.436262
vn 0.967727 0.165330 0.190182
vn 0.967727 -0.165329 0.190187
vn 0.828560 0.007545 0.559849
vn 0.828560 -0.007545 0.559849
vn 0.694670 0.000347 0.719329
vn 0.694668 -0.000347 0.719330
vn 0.958010 0.144661 0.247567
vn 0.958010 -0.144661 0.247568
vn 0.996009 0.076659 0.045703
vn 0.996009 -0.076659 0.045703
usemtl 
s off
f 5//1 15//1 19//1
f 20//2 16//2 6//2
f 33//3 17//3 13//3
f 14//4 18//4 34//4
f 11//5 53//5 5//5
f 6//6 54//6 12//6
f 53//7 15//7 5//7
f 6//8 16//8 54//8
f 13//9 49//9 51//9 33//9
f 52//10 50//10 14//10 34//10
f 49//11 9//11 35//11 51//11
f 36//12 10//12 50//12 52//12
f 17//13 57//13 23//13
f 24//14 58//14 18//14
f 57//15 27//15 29//15
f 30//16 28//16 58//16
f 27//17 57//17 31//17
f 32//18 58//18 28//18
f 57//19 17//19 33//19
f 34//20 18//20 58//20
f 19//21 67//21 5//21
f 6//21 68//21 20//21
f 67//21 21//21 5//21
f 6//21 22//21 68//21
f 25//22 63//22 67//22 19//22
f 68//22 64//22 26//22 20//22
f 63//22 43//22 21//22 67//22
f 22//22 44//22 64//22 68//22
f 29//23 65//23 57//23
f 58//24 66//24 30//24
f 65//25 23//25 57//25
f 58//26 24//26 66//26
f 43//27 69//27 71//27 29//27
f 72//28 70//28 44//28 30//28
f 69//27 47//27 45//27 71//27
f 46//28 48//28 70//28 72//28
f 77//29 65//29 29//29 71//29
f 30//30 66//30 78//30 72//30
f 39//31 75//31 77//31 59//31
f 78//32 76//32 40//32 60//32
f 75//33 23//33 65//33 77//33
f 66//34 24//34 76//34 78//34
f 63//22 79//22 69//22 43//22
f 70//22 80//22 64//22 44//22
f 79//22 61//22 47//22 69//22
f 48//22 62//22 80//22 70//22
f 25//22 73//22 79//22 63//22
f 80//22 74//22 26//22 64//22
f 73//22 41//22 61//22 79//22
f 62//22 42//22 74//22 80//22
f 81//35 47//35 61//35
f 62//36 48//36 82//36
f 81//37 45//37 47//37
f 48//38 46//38 82//38
f 81//39 77//39 71//39
f 72//40 78//40 82//40
f 45//41 81//41 71//41
f 72//42 82//42 46//42
f 81//43 59//43 77//43
f 78//44 60//44 82//44
f 5//45 87//45 11//45
f 12//46 88//46 6//46
f 51//47 91//47 89//47 33//47
f 90//48 92//48 52//48 34//48
f 91//49 55//49 31//49 89//49
f 32//50 56//50 92//50 90//50
f 35//51 83//51 91//51 51//51
f 92//52 84//52 36//52 52//52
f 83//53 37//53 55//53 91//53
f 56//54 38//54 84//54 92//54
f 33//55 89//55 57//55
f 58//56 90//56 34//56
f 89//57 31//57 57//57
f 58//58 32//58 90//58
f 15//59 13//59 17//59 19//59
f 18//60 14//60 16//60 20//60
f 23//61 25//61 19//61 17//61
f 20//62 26//62 24//62 18//62
f 49//63 53//63 11//63 9//63
f 12//64 54//64 50//64 10//64
f 13//65 15//65 53//65 49//65
f 54//66 16//66 14//66 50//66
f 59//67 95//67 93//67 39//67
f 94//68 96//68 60//68 40//68
f 95//69 61//69 41//69 93//69
f 42//70 62//70 96//70 94//70
f 73//71 97//71 93//71 41//71
f 94//72 98//72 74//72 42//72
f 97//73 75//73 39//73 93//73
f 40//74 76//74 98//74 94//74
f 25//75 97//75 73//75
f 74//76 98//76 26//76
f 25//77 23//77 75//77 97//77
f 76//78 24//78 26//78 98//78
f 61//79 95//79 81//79
f 82//80 96//80 62//80
f 95//81 59//81 81//81
f 82//82 60//82 96//82
f 1//83 3//83 87//83 85//83
f 88//84 4//84 2//84 86//84
f 5//85 7//85 85//85 87//85
f 86//86 8//86 6//86 88//86
f 99//87 35//87 9//87
f 10//88 36//88 100//88
f 103//89 83//89 35//89 99//89
f 36//90 84//90 104//90 100//90
f 101//91 37//91 83//91 103//91
f 84//92 38//92 102//92 104//92
f 3//93 105//93 87//93
f 88//94 106//94 4//94
f 105//95 11//95 87//95
f 88//96 12//96 106//96
f 1//97 107//97 105//97 3//97
f 106//98 108//98 2//98 4//98
f 107//99 9//99 11//99 105//99
f 12//100 10//100 108//100 106//100
f 9//101 107//101 99//101
f 100//102 108//102 10//102
f 107//103 1//103 99//103
f 100//104 2//104 108//104
f 99//105 1//105 85//105
f 86//106 2//106 100//106
f 85//107 103//107 99//107
f 100//108 104//108 86//108
f 101//109 109//109 7//109
f 8//110 110//110 102//110
f 109//111 85//111 7//111
f 8//112 86//112 110//112
f 85//113 109//113 103//113
f 104//114 110//114 86//114
f 109//115 101//115 103//115
f 104//116 102//116 110//116
