# Rhino

o object_1
v 2.72 2.541 0.009923
v 3.02 2.541 0.68
v 3.361 2.541 0.68
v 3.361 2.541 0.8389
v 3.389 0.9249 0.009923
v 3.389 4.157 0.009923
v 3.601 1.137 0.68
v 3.601 3.944 0.68
v 3.843 1.379 0.68
v 3.843 1.379 0.8389
v 3.843 3.703 0.68
v 3.843 3.703 0.8389
v 5.005 0.2556 0.009923
v 5.005 0.556 0.68
v 5.005 0.8972 0.68
v 5.005 0.8972 0.8389
v 5.005 4.184 0.68
v 5.005 4.184 0.8389
v 5.005 4.526 0.68
v 5.005 4.826 0.009923
v 6.167 1.379 0.68
v 6.167 1.379 0.8389
v 6.167 3.703 0.68
v 6.167 3.703 0.8389
v 6.408 1.137 0.68
v 6.408 3.944 0.68
v 6.621 0.9249 0.009923
v 6.621 4.157 0.009923
v 6.648 2.541 0.68
v 6.648 2.541 0.8389
v 6.99 2.541 0.68
v 7.29 2.541 0.009923
vn -0.8536 0.3536 0.3826
vn -0.8536 -0.3536 0.3826
vn 0 0 -1
vn -0.8536 0.3536 0.3826
vn -0.8536 -0.3536 0.3826
vn 0 0 1
vn -0.8536 0.3536 0.3826
vn -0.3536 0.8536 0.3826
vn 0 0 -1
vn -0.8536 0.3536 0.3826
vn -0.3536 0.8536 0.3826
vn 0 0 1
vn -0.3536 0.8536 0.3826
vn 0.3536 0.8536 0.3826
vn 0 0 -1
vn -0.3536 0.8536 0.3826
vn 0.3536 0.8536 0.3826
vn 0 0 1
vn 0.3536 0.8536 0.3826
vn 0.8536 0.3536 0.3826
vn 0 0 -1
vn 0.3536 0.8536 0.3826
vn 0.8536 0.3536 0.3826
vn 0 0 1
vn 0.8536 0.3536 0.3826
vn 0.8536 -0.3536 0.3826
vn 0 0 -1
vn 0.8536 0.3536 0.3826
vn 0.8536 -0.3536 0.3826
vn 0 0 1
vn 0.8536 -0.3536 0.3826
vn 0.3536 -0.8536 0.3826
vn 0 0 -1
vn 0.8536 -0.3536 0.3826
vn 0.3536 -0.8536 0.3826
vn 0 0 1
vn 0.3536 -0.8536 0.3826
vn -0.3536 -0.8536 0.3826
vn 0 0 -1
vn 0.3536 -0.8536 0.3826
vn -0.3536 -0.8536 0.3826
vn 0 0 1
vn -0.8536 -0.3536 0.3826
vn -0.3536 -0.8536 0.3826
vn 0 0 -1
vn -0.8536 -0.3536 0.3826
vn -0.3536 -0.8536 0.3826
vn 0 0 1
vn 0 0 1
vn -0.3827 0.9239 0
vn -0.9239 0.3827 0
vn 0 0 1
vn -0.9239 -0.3827 0
vn -0.9239 0.3827 0
vn 0 0 1
vn 0.3827 0.9239 0
vn -0.3827 0.9239 0
vn 0 0 1
vn 0.3827 0.9239 0
vn 0.9239 0.3827 0
vn 0 0 1
vn 0.9239 -0.3827 0
vn 0.9239 0.3827 0
vn 0 0 1
vn 0.3827 -0.9239 0
vn 0.9239 -0.3827 0
vn -0.3827 -0.9239 0
vn 0 0 1
vn 0.3827 -0.9239 0
vn -0.3827 -0.9239 0
vn 0 0 1
vn -0.9239 -0.3827 0
vn 0 0 1
vn -0.3827 0.9239 0
vn -0.9239 0.3827 0
vn 0 0 1
vn -0.9239 -0.3827 0
vn -0.9239 0.3827 0
vn 0 0 1
vn 0.3827 0.9239 0
vn -0.3827 0.9239 0
vn 0 0 1
vn 0.3827 0.9239 0
vn 0.9239 0.3827 0
vn 0 0 1
vn 0.9239 -0.3827 0
vn 0.9239 0.3827 0
vn 0 0 1
vn 0.3827 -0.9239 0
vn 0.9239 -0.3827 0
vn -0.3827 -0.9239 0
vn 0 0 1
vn 0.3827 -0.9239 0
vn -0.3827 -0.9239 0
vn 0 0 1
vn -0.9239 -0.3827 0
f 1//1 2//4 8//10 6//7
f 6//8 8//11 19//16 20//13
f 20//14 19//17 26//22 28//19
f 28//20 26//23 31//28 32//25
f 32//26 31//29 25//34 27//31
f 27//32 25//35 14//40 13//37
f 9//70 15//67 16//91 10//94
f 2//5 1//2 5//43 7//46
f 13//38 14//41 7//47 5//44
f 1//3 6//9 5//45
f 6//9 20//15 5//45
f 20//15 13//39 5//45
f 20//15 27//33 13//39
f 20//15 28//21 27//33
f 28//21 32//27 27//33
f 3//52 11//49 8//12 2//6
f 11//49 17//55 19//18 8//12
f 17//55 23//58 26//24 19//18
f 23//58 29//61 31//30 26//24
f 29//61 21//64 25//36 31//30
f 21//64 15//68 14//42 25//36
f 15//68 9//71 7//48 14//42
f 9//71 3//52 2//6 7//48
f 12//73 4//76 10//95
f 12//73 10//95 18//79
f 10//95 16//92 18//79
f 16//92 22//88 18//79
f 22//88 24//82 18//79
f 22//88 30//85 24//82
f 23//59 17//56 18//80 24//83
f 15//69 21//65 22//89 16//93
f 17//57 11//50 12//74 18//81
f 21//66 29//62 30//86 22//90
f 3//53 9//72 10//96 4//77
f 11//51 3//54 4//78 12//75
f 29//63 23//60 24//84 30//87
