# Rhino

v 14.85256958007813 2.688786029815674 4.000075817108154
v 14.85256958007813 2.688786029815674 4.000075817108154
v 14.85256958007813 2.655643939971924 4.000075817108154
v 14.85256958007813 2.655643939971924 4.000075817108154
v 14.85256958007813 2.652730941772461 4.111042022705078
v 14.85256958007813 2.652730941772461 4.111042022705078
v 14.85256958007813 2.652730941772461 3.889110088348389
v 14.85256958007813 2.652730941772461 3.889110088348389
v 14.85256958007813 2.625917911529541 4.09156084060669
v 14.85256958007813 2.625917911529541 4.09156084060669
v 14.85256958007813 2.625917911529541 3.908591032028198
v 14.85256958007813 2.625917911529541 3.908591032028198
v 14.85256958007813 2.558337926864624 4.179622173309326
v 14.85256958007813 2.558337926864624 4.179622173309326
v 14.85256958007813 2.558337926864624 3.820529937744141
v 14.85256958007813 2.558337926864624 3.820529937744141
v 14.85256958007813 2.548096895217896 4.148101806640625
v 14.85256958007813 2.548096895217896 4.148101806640625
v 14.85256958007813 2.548096895217896 3.852050065994263
v 14.85256958007813 2.548096895217896 3.852050065994263
v 14.85256958007813 2.451904058456421 4.148101806640625
v 14.85256958007813 2.451904058456421 4.148101806640625
v 14.85256958007813 2.451904058456421 3.852050065994263
v 14.85256958007813 2.451904058456421 3.852050065994263
v 14.85256958007813 2.441662073135376 4.179623126983643
v 14.85256958007813 2.441662073135376 4.179623126983643
v 14.85256958007813 2.441662073135376 3.820529937744141
v 14.85256958007813 2.441662073135376 3.820529937744141
v 14.85256958007813 2.374082088470459 4.09156084060669
v 14.85256958007813 2.374082088470459 4.09156084060669
v 14.85256958007813 2.374082088470459 3.908591032028198
v 14.85256958007813 2.374082088470459 3.908591032028198
v 14.85256958007813 2.347269058227539 4.111042022705078
v 14.85256958007813 2.347269058227539 4.111042022705078
v 14.85256958007813 2.347269058227539 3.889110088348389
v 14.85256958007813 2.347269058227539 3.889110088348389
v 14.85256958007813 2.344357013702393 4.000075817108154
v 14.85256958007813 2.344357013702393 4.000075817108154
v 14.85256958007813 2.311213970184326 4.000075817108154
v 14.85256958007813 2.311213970184326 4.000075817108154
v 14.50098419189453 2.655642986297607 4.000075817108154
v 14.50098419189453 2.625917911529541 4.09156084060669
v 14.50098419189453 2.625917911529541 3.908591032028198
v 14.50098419189453 2.548095941543579 4.148101806640625
v 14.50098419189453 2.548095941543579 3.852050065994263
v 14.50098419189453 2.451903104782105 4.148101806640625
v 14.50098419189453 2.451903104782105 3.852050065994263
v 14.50098419189453 2.374082088470459 3.908591032028198
v 14.50098419189453 2.374080896377564 4.09156084060669
v 14.50098419189453 2.344356060028076 4.000075817108154
v 7.05286979675293 2.788619995117188 4.000075817108154
v 7.05286979675293 2.788619995117188 4.000075817108154
v 7.05286979675293 2.754947900772095 4.000075817108154
v 7.05286979675293 2.754947900772095 4.000075817108154
v 7.05286979675293 2.733499050140381 4.169723033905029
v 7.05286979675293 2.733499050140381 4.169723033905029
v 7.05286979675293 2.733499050140381 3.830429077148438
v 7.05286979675293 2.733499050140381 3.830429077148438
v 7.05286979675293 2.706257104873657 4.149930953979492
v 7.05286979675293 2.706257104873657 4.149930953979492
v 7.05286979675293 2.706257104873657 3.850220918655396
v 7.05286979675293 2.706257104873657 3.850220918655396
v 7.05286979675293 2.589189052581787 4.274569988250732
v 7.05286979675293 2.589189052581787 4.274569988250732
v 7.05286979675293 2.589189052581787 3.725581884384155
v 7.05286979675293 2.589189052581787 3.725581884384155
v 7.05286979675293 2.57878303527832 4.242546081542969
v 7.05286979675293 2.57878303527832 4.242546081542969
v 7.05286979675293 2.57878303527832 3.757606029510498
v 7.05286979675293 2.57878303527832 3.757606029510498
v 7.05286979675293 2.42121696472168 4.242546081542969
v 7.05286979675293 2.42121696472168 4.242546081542969
v 7.05286979675293 2.42121696472168 3.757606029510498
v 7.05286979675293 2.42121696472168 3.757606029510498
v 7.05286979675293 2.410810947418213 4.274569988250732
v 7.05286979675293 2.410810947418213 4.274569988250732
v 7.05286979675293 2.410810947418213 3.725581884384155
v 7.05286979675293 2.410810947418213 3.725581884384155
v 7.05286979675293 2.293742895126343 4.149930953979492
v 7.05286979675293 2.293742895126343 4.149930953979492
v 7.05286979675293 2.293742895126343 3.850220918655396
v 7.05286979675293 2.293742895126343 3.850220918655396
v 7.05286979675293 2.266500949859619 4.169723033905029
v 7.05286979675293 2.266500949859619 4.169723033905029
v 7.05286979675293 2.266500949859619 3.830429077148438
v 7.05286979675293 2.266500949859619 3.830429077148438
v 7.05286979675293 2.245052099227905 4.000075817108154
v 7.05286979675293 2.245052099227905 4.000075817108154
v 7.05286979675293 2.211380004882813 4.000075817108154
v 7.05286979675293 2.211380004882813 4.000075817108154
v 6.049840927124023 2.87108302116394 4.000075817108154
v 6.049840927124023 2.87108302116394 4.000075817108154
v 6.049840927124023 2.800213098526001 4.218194007873535
v 6.049840927124023 2.800213098526001 4.218194007873535
v 6.049840927124023 2.800213098526001 3.781959056854248
v 6.049840927124023 2.800213098526001 3.781959056854248
v 6.049840927124023 2.788619995117188 4.000075817108154
v 6.049840927124023 2.788619995117188 4.000075817108154
v 6.049840927124023 2.733499050140381 4.169723033905029
v 6.049840927124023 2.733499050140381 4.169723033905029
v 6.049840927124023 2.733499050140381 3.830429077148438
v 6.049840927124023 2.733499050140381 3.830429077148438
v 6.049840927124023 2.614670991897583 4.352997779846191
v 6.049840927124023 2.614670991897583 4.352997779846191
v 6.049840927124023 2.614670991897583 3.647155046463013
v 6.049840927124023 2.614670991897583 3.647155046463013
v 6.049840927124023 2.589189052581787 4.274569988250732
v 6.049840927124023 2.589189052581787 4.274569988250732
v 6.049840927124023 2.589189052581787 3.725580930709839
v 6.049840927124023 2.589189052581787 3.725580930709839
v 6.049840927124023 2.410810947418213 4.274569988250732
v 6.049840927124023 2.410810947418213 4.274569988250732
v 6.049840927124023 2.410810947418213 3.725580930709839
v 6.049840927124023 2.410810947418213 3.725580930709839
v 6.049840927124023 2.385329008102417 4.352997779846191
v 6.049840927124023 2.385329008102417 4.352997779846191
v 6.049840927124023 2.385329008102417 3.647155046463013
v 6.049840927124023 2.385329008102417 3.647155046463013
v 6.049840927124023 2.266500949859619 4.169723033905029
v 6.049840927124023 2.266500949859619 4.169723033905029
v 6.049840927124023 2.266500949859619 3.830429077148438
v 6.049840927124023 2.266500949859619 3.830429077148438
v 6.049840927124023 2.211380004882813 4.000075817108154
v 6.049840927124023 2.211380004882813 4.000075817108154
v 6.049840927124023 2.199786901473999 4.218194007873535
v 6.049840927124023 2.199786901473999 4.218194007873535
v 6.049840927124023 2.199786901473999 3.781958103179932
v 6.049840927124023 2.199786901473999 3.781958103179932
v 6.049840927124023 2.12891697883606 4.000075817108154
v 6.049840927124023 2.12891697883606 4.000075817108154
v 5.462590217590332 2.939757108688355 3.974139928817749
v 5.462590217590332 2.060242891311646 3.974139928817749
v 5.378468036651611 2.939757108688355 4.505267143249512
v 5.378468036651611 2.939757108688355 3.443012952804565
v 5.378468036651611 2.060242891311646 4.505267143249512
v 5.378468036651611 2.060242891311646 3.443012952804565
v 5.134335994720459 2.939757108688355 4.984403133392334
v 5.134335994720459 2.939757108688355 2.963876962661743
v 5.134335994720459 2.060242891311646 4.984403133392334
v 5.134335994720459 2.060242891311646 2.963876962661743
v 4.754089832305908 2.939757108688355 5.36464786529541
v 4.754089832305908 2.939757108688355 2.583631992340088
v 4.754089832305908 2.060242891311646 5.36464786529541
v 4.754089832305908 2.060242891311646 2.583631992340088
v 4.274953842163086 2.939757108688355 5.608779907226563
v 4.274953842163086 2.939757108688355 2.339499950408936
v 4.274953842163086 2.060242891311646 5.608779907226563
v 4.274953842163086 2.060242891311646 2.339499950408936
v 3.849869012832642 2.87108302116394 4.000075817108154
v 3.849869012832642 2.800213098526001 4.218194007873535
v 3.849869012832642 2.800213098526001 3.781959056854248
v 3.849869012832642 2.614670991897583 4.352997779846191
v 3.849869012832642 2.614670991897583 3.647155046463013
v 3.849869012832642 2.385329008102417 4.352996826171875
v 3.849869012832642 2.385329008102417 3.647155046463013
v 3.849869012832642 2.199786901473999 4.218194007873535
v 3.849869012832642 2.199786901473999 3.781958103179932
v 3.849869012832642 2.12891697883606 4.000075817108154
v 3.743828058242798 2.939757108688355 5.692902088165283
v 3.743828058242798 2.939757108688355 2.255378007888794
v 3.743828058242798 2.060242891311646 5.692902088165283
v 3.743828058242798 2.060242891311646 2.255378007888794
v 3.212701082229614 2.939757108688355 5.608780860900879
v 3.212701082229614 2.939757108688355 2.339499950408936
v 3.212701082229614 2.060242891311646 5.608780860900879
v 3.212701082229614 2.060242891311646 2.339499950408936
vn 1 0 0
vn 0.008433010429143906 0.9941505789756775 -0.1076733469963074
vn 1 0 0
vn 1.890000021376181e-06 -0.9941860437393189 -0.1076761037111282
vn 1 0 0
vn 0.008433000184595585 0.8675726652145386 0.4972389340400696
vn 1 0 0
vn 0.008433010429143906 0.7409949898719788 -0.6714575886726379
vn 1 0 0
vn 5.80000005356851e-07 -0.7410223484039307 -0.6714803576469421
vn 1 0 0
vn 9.400000067216752e-07 -0.8676044344902039 0.4972550272941589
vn 1 0 0
vn 0.008433010429143906 0.4096134603023529 0.9122201800346375
vn 1 0 0
vn 0.008433029986917973 0.2048051357269287 -0.9787664413452148
vn 1 0 0
vn 5.80000005356851e-07 -0.2048154920339584 -0.9788005948066711
vn 1 0 0
vn 5.80000005356851e-07 -0.4096290767192841 0.9122521877288818
vn 1 0 0
vn -1.170000018646533e-06 0.4096271693706513 -0.9122530221939087
vn 1 0 0
vn -5.80000005356851e-07 0.2048135846853256 0.9788010120391846
vn 1 0 0
vn 0.008432970382273197 -0.2048044353723526 0.9787665605545044
vn 1 0 0
vn 0.008433019742369652 -0.4096109867095947 -0.9122213125228882
vn 1 0 0
vn -2.470000026733032e-06 0.8676051497459412 -0.4972537755966187
vn 1 0 0
vn -5.80000005356851e-07 0.7410244941711426 0.6714780330657959
vn 1 0 0
vn 0.008432960137724876 -0.7409965991973877 0.6714558601379395
vn 1 0 0
vn 0.008433000184595585 -0.8675726652145386 -0.4972389340400696
vn 1 0 0
vn -1.890000021376181e-06 0.9941856861114502 0.1076792180538178
vn 1 0 0
vn 0.008433010429143906 -0.9941505789756775 0.1076733469963074
vn 1.890000021376181e-06 -0.9941856861114502 0.1076792180538178
vn 9.400000067216752e-07 -0.8676034808158875 -0.4972566962242127
vn 5.80000005356851e-07 -0.7410244941711426 0.6714780330657959
vn 5.80000005356851e-07 -0.4096290767192841 -0.9122521877288818
vn 5.80000005356851e-07 -0.2048135846853256 0.9788010120391846
vn -5.80000005356851e-07 0.2048135846853256 -0.9788010120391846
vn -5.80000005356851e-07 0.4096290767192841 0.9122521877288818
vn -9.400000067216752e-07 0.8676044344902039 0.4972550272941589
vn -2.109999968524789e-06 0.741023063659668 -0.6714795827865601
vn -2.830000084941275e-06 0.9941864013671875 -0.107672743499279
vn 1 0 0
vn 0 0.9941861033439636 -0.1076756119728088
vn 1 0 0
vn 0.008433010429143906 0.9941505789756775 0.1076729521155357
vn 1 0 0
vn 0 0.8676051497459412 0.497253805398941
vn 1 0 0
vn 2.799999947455945e-07 0.7410234808921814 -0.6714791059494019
vn 1 0 0
vn 0.008433000184595585 0.7409947514533997 0.6714578866958618
vn 1 0 0
vn 0.008433000184595585 0.8675730228424072 -0.4972383379936218
vn 1 0 0
vn 0 0.4096261262893677 0.9122534990310669
vn 1 0 0
vn 9.799999816095806e-07 0.2048130631446838 -0.9788011312484741
vn 1 0 0
vn 0.008432989940047264 0.204808697104454 0.9787656664848328
vn 1 0 0
vn 0.008433019742369652 0.4096109867095947 -0.9122213125228882
vn 1 0 0
vn 0.008432939648628235 -0.4096131324768066 0.9122203588485718
vn 1 0 0
vn 0.008433040231466293 -0.2048058360815048 -0.9787662625312805
vn 1 0 0
vn 0 -0.2048130631446838 0.9788011312484741
vn 1 0 0
vn 6.299999881775875e-07 -0.4096275568008423 -0.9122528433799744
vn 1 0 0
vn 0.008433000184595585 -0.8675730228424072 0.4972383379936218
vn 1 0 0
vn 0.008433000184595585 -0.7409947514533997 -0.6714578866958618
vn 1 0 0
vn 0 -0.7410224676132202 0.6714802384376526
vn 1 0 0
vn 0 -0.8676051497459412 -0.497253805398941
vn 1 0 0
vn 0.008433010429143906 -0.9941505789756775 -0.1076729521155357
vn 1 0 0
vn 0 -0.9941861033439636 0.1076756119728088
vn 1 0 0
vn 0 0.9941859841346741 -0.1076765283942223
vn 1 0 0
vn 0 0.8676052689552307 0.4972535073757172
vn 1 0 0
vn 0 0.7410226464271545 -0.6714800596237183
vn 1 0 0
vn 0 0.9941861033439636 0.1076756119728088
vn 1 0 0
vn 0 0.7410224676132202 0.6714802384376526
vn 1 0 0
vn 0 0.8676058650016785 -0.4972525537014008
vn 1 0 0
vn 0 0.4096268117427826 0.912253201007843
vn 1 0 0
vn 0 0.2048134058713913 -0.9788010120391846
vn 1 0 0
vn 0 0.2048130631446838 0.9788011312484741
vn 1 0 0
vn 6.299999881775875e-07 0.4096275568008423 -0.9122528433799744
vn 1 0 0
vn 0 -0.4096261262893677 0.9122534990310669
vn 1 0 0
vn 9.799999816095806e-07 -0.2048144787549973 -0.9788008332252502
vn 1 0 0
vn -2.900000026784255e-07 -0.2048148661851883 0.9788007140159607
vn 1 0 0
vn 0 -0.4096246063709259 -0.9122541546821594
vn 1 0 0
vn 0 -0.8676051497459412 0.497253805398941
vn 1 0 0
vn 2.799999947455945e-07 -0.7410234808921814 -0.6714791059494019
vn 1 0 0
vn 0 -0.9941861033439636 -0.1076756119728088
vn 1 0 0
vn -1.300000036508209e-07 -0.7410221099853516 0.6714805960655212
vn 1 0 0
vn 0 -0.8676047325134277 -0.497254490852356
vn 1 0 0
vn 0 -0.9941861033439636 0.1076756119728088
vn 0.9986092448234558 0 -0.05272122845053673
vn 0.9986092448234558 0 0.05272122845053673
vn 0.966025710105896 0 0.2584459185600281
vn 0.9334421157836914 0 -0.3587281405925751
vn 0.9334421157836914 0 0.3587281405925751
vn 0.966025710105896 0 -0.2584459185600281
vn 0.8388804793357849 0 0.5443156957626343
vn 0.776902437210083 0 -0.6296209692955017
vn 0.776902437210083 0 0.6296209692955017
vn 0.8388804793357849 0 -0.5443156957626343
vn 0.6296195983886719 0 0.7769035696983337
vn 0.5443149209022522 0 -0.8388809561729431
vn 0.5443149209022522 0 0.8388809561729431
vn 0.6296195983886719 0 -0.7769035696983337
vn 0.3587282001972199 0 0.9334420561790466
vn 0.2584460973739624 0 -0.9660256505012512
vn 0.2584460973739624 0 0.9660256505012512
vn 0.3587282001972199 0 -0.9334420561790466
vn 0 0.9941861033439636 0.1076751872897148
vn 0 0.7410229444503784 0.6714797019958496
vn 0 0.8676048517227173 -0.4972543120384216
vn -1.599999990276046e-07 0.2048119455575943 0.9788013696670532
vn 0 0.4096268117427826 -0.912253201007843
vn -2.900000026784255e-07 -0.4096269607543945 0.9122531414031982
vn 0 -0.204812303185463 -0.9788012504577637
vn 0 -0.8676047325134277 0.497254490852356
vn 0 -0.7410213351249695 -0.6714814901351929
vn 0 -0.9941861033439636 -0.1076756119728088
vn 0.0527220293879509 0 0.9986092448234558
vn -0.05272113904356957 0 -0.9986092448234558
vn -0.05271990969777107 0 0.9986093640327454
vn 0.05272142961621285 0 -0.9986092448234558
vn -0.1564321964979172 0 0.9876887202262878
vn -0.1564340144395828 0 -0.987688422203064
vn -0.1564321964979172 0 0.9876887202262878
vn -0.1564340144395828 0 -0.987688422203064
f 161//161 159//159 163//163 165//165
f 147//147 145//145 159//159 161//161
f 143//143 141//141 145//145 147//147
f 139//139 137//137 141//141 143//143
f 135//135 133//133 137//137 139//139
f 132//132 131//131 133//133 135//135
f 136//136 134//134 131//131 132//132
f 140//140 138//138 134//134 136//136
f 144//144 142//142 138//138 140//140
f 148//148 146//146 142//142 144//144
f 162//162 160//160 146//146 148//148
f 166//166 164//164 160//160 162//162
f 42//42 41//41 4//4 10//10
f 41//41 43//43 12//12 4//4
f 43//43 45//45 20//20 12//12
f 45//45 47//47 24//24 20//20
f 47//47 48//48 32//32 24//24
f 48//48 50//50 38//38 32//32
f 50//50 49//49 30//30 38//38
f 49//49 46//46 22//22 30//30
f 46//46 44//44 18//18 22//22
f 44//44 42//42 10//10 18//18
f 9//9 3//3 1//1 5//5
f 3//3 11//11 7//7 1//1
f 11//11 19//19 15//15 7//7
f 19//19 23//23 27//27 15//15
f 23//23 31//31 35//35 27//27
f 31//31 37//37 39//39 35//35
f 37//37 29//29 33//33 39//39
f 29//29 21//21 25//25 33//33
f 21//21 17//17 13//13 25//25
f 17//17 9//9 5//5 13//13
f 6//6 2//2 54//54 60//60
f 2//2 8//8 62//62 54//54
f 8//8 16//16 70//70 62//62
f 16//16 28//28 74//74 70//70
f 28//28 36//36 82//82 74//74
f 36//36 40//40 88//88 82//82
f 40//40 34//34 80//80 88//88
f 34//34 26//26 72//72 80//80
f 26//26 14//14 68//68 72//72
f 14//14 6//6 60//60 68//68
f 59//59 53//53 51//51 55//55
f 53//53 61//61 57//57 51//51
f 61//61 69//69 65//65 57//57
f 69//69 73//73 77//77 65//65
f 73//73 81//81 85//85 77//77
f 81//81 87//87 89//89 85//85
f 87//87 79//79 83//83 89//89
f 79//79 71//71 75//75 83//83
f 71//71 67//67 63//63 75//75
f 67//67 59//59 55//55 63//63
f 56//56 52//52 98//98 100//100
f 52//52 58//58 102//102 98//98
f 58//58 66//66 110//110 102//102
f 66//66 78//78 114//114 110//110
f 78//78 86//86 122//122 114//114
f 86//86 90//90 124//124 122//122
f 90//90 84//84 120//120 124//124
f 84//84 76//76 112//112 120//120
f 76//76 64//64 108//108 112//112
f 64//64 56//56 100//100 108//108
f 99//99 97//97 91//91 93//93
f 97//97 101//101 95//95 91//91
f 101//101 109//109 105//105 95//95
f 109//109 113//113 117//117 105//105
f 113//113 121//121 127//127 117//117
f 121//121 123//123 129//129 127//127
f 123//123 119//119 125//125 129//129
f 119//119 111//111 115//115 125//125
f 111//111 107//107 103//103 115//115
f 107//107 99//99 93//93 103//103
f 94//94 92//92 149//149 150//150
f 92//92 96//96 151//151 149//149
f 96//96 106//106 153//153 151//151
f 106//106 118//118 155//155 153//153
f 118//118 128//128 157//157 155//155
f 128//128 130//130 158//158 157//157
f 130//130 126//126 156//156 158//158
f 126//126 116//116 154//154 156//156
f 116//116 104//104 152//152 154//154
f 104//104 94//94 150//150 152//152
