# Rhino

o object_1
v 0 5 0
v 0 5 0
v 0 5 0
v 0 0 0
v 0 0 0
v 0 0 0
v 3.5 0 0
v 3.5 0 0
v 3.5 0 0
v 4.5606369972229 0.4393630027770996 0
v 4.5606369972229 0.4393630027770996 0
v 5 1.5 0
v 5 1.5 0
v 5 1.5 0
v 5 3.5 0
v 5 3.5 0
v 5 3.5 0
v 4.5606369972229 4.5606369972229 0
v 4.5606369972229 4.5606369972229 0
v 3.5 5 0
v 3.5 5 0
v 3.5 5 0
v 1.5 0.5 0.5
v 1.5 0.5 0.5
v 1.5 0.5 0.5
v 1.5 1.539999961853027 0.5
v 1.5 1.539999961853027 0.5
v 1.5 1.539999961853027 0.5
v 1.200000047683716 1.75 0.5
v 1.200000047683716 1.75 0.5
v 1.200000047683716 1.75 0.5
v 1.200000047683716 3.25 0.5
v 1.200000047683716 3.25 0.5
v 1.200000047683716 3.25 0.5
v 1.5 3.460000038146973 0.5
v 1.5 3.460000038146973 0.5
v 1.5 3.460000038146973 0.5
v 1.5 4.5 0.5
v 1.5 4.5 0.5
v 1.5 4.5 0.5
v 0 5 0.5
v 0 5 0.5
v 0 5 0.5
v 0 5 0.5
v 3.5 5 0.5
v 3.5 5 0.5
v 3.5 5 0.5
v 4.5606369972229 4.5606369972229 0.5
v 4.5606369972229 4.5606369972229 0.5
v 5 3.5 0.5
v 5 3.5 0.5
v 5 3.5 0.5
v 5 1.5 0.5
v 5 1.5 0.5
v 5 1.5 0.5
v 4.5606369972229 0.4393630027770996 0.5
v 4.5606369972229 0.4393630027770996 0.5
v 3.5 0 0.5
v 3.5 0 0.5
v 3.5 0 0.5
v 0 0 0.5
v 0 0 0.5
v 0 0 0.5
v 0 0 0.5
v 0 0 1
v 0 0 1
v 0 0 1
v 0 5 1
v 0 5 1
v 0 5 1
v 1.5 1.539999961853027 1
v 1.5 1.539999961853027 1
v 1.5 1.539999961853027 1
v 1.5 0.5 1
v 1.5 0.5 1
v 1.5 0.5 1
v 1.5 4.5 1
v 1.5 4.5 1
v 1.5 4.5 1
v 1.5 3.460000038146973 1
v 1.5 3.460000038146973 1
v 1.5 3.460000038146973 1
v 1.200000047683716 3.25 1
v 1.200000047683716 3.25 1
v 1.200000047683716 3.25 1
v 1.200000047683716 1.75 1
v 1.200000047683716 1.75 1
v 1.200000047683716 1.75 1
v 1.100000023841858 4.099999904632568 1
v 1.100000023841858 4.099999904632568 1
v 1.100000023841858 4.099999904632568 1
v 0.9535530209541321 4.453553199768066 1
v 0.9535530209541321 4.453553199768066 1
v 0.6000000238418579 4.599999904632568 1
v 0.6000000238418579 4.599999904632568 1
v 0.2464469969272614 4.453553199768066 1
v 0.2464469969272614 4.453553199768066 1
v 0.1000000014901161 4.099999904632568 1
v 0.1000000014901161 4.099999904632568 1
v 0.1000000014901161 4.099999904632568 1
v 0.2464469969272614 3.746447086334229 1
v 0.2464469969272614 3.746447086334229 1
v 0.6000000238418579 3.599999904632568 1
v 0.6000000238418579 3.599999904632568 1
v 0.9535530209541321 3.746447086334229 1
v 0.9535530209541321 3.746447086334229 1
v 1.100000023841858 0.8999999761581421 1
v 1.100000023841858 0.8999999761581421 1
v 1.100000023841858 0.8999999761581421 1
v 0.9535530209541321 1.253553032875061 1
v 0.9535530209541321 1.253553032875061 1
v 0.6000000238418579 1.399999976158142 1
v 0.6000000238418579 1.399999976158142 1
v 0.2464469969272614 1.253553032875061 1
v 0.2464469969272614 1.253553032875061 1
v 0.1000000014901161 0.8999999761581421 1
v 0.1000000014901161 0.8999999761581421 1
v 0.1000000014901161 0.8999999761581421 1
v 0.2464469969272614 0.5464469790458679 1
v 0.2464469969272614 0.5464469790458679 1
v 0.6000000238418579 0.4000000059604645 1
v 0.6000000238418579 0.4000000059604645 1
v 0.9535530209541321 0.5464469790458679 1
v 0.9535530209541321 0.5464469790458679 1
v 1.100000023841858 4.099999904632568 1.129999995231628
v 1.100000023841858 4.099999904632568 1.129999995231628
v 1.100000023841858 4.099999904632568 1.129999995231628
v 0.9534940123558044 3.746404886245728 1.129999995231628
v 0.9534940123558044 3.746404886245728 1.129999995231628
v 0.6000000238418579 3.600022077560425 1.129999995231628
v 0.6000000238418579 3.600022077560425 1.129999995231628
v 0.246506005525589 3.746404886245728 1.129999995231628
v 0.246506005525589 3.746404886245728 1.129999995231628
v 0.1000000014901161 4.099999904632568 1.129999995231628
v 0.1000000014901161 4.099999904632568 1.129999995231628
v 0.1000000014901161 4.099999904632568 1.129999995231628
v 0.246506005525589 4.453595161437988 1.129999995231628
v 0.246506005525589 4.453595161437988 1.129999995231628
v 0.6000000238418579 4.599977970123291 1.129999995231628
v 0.6000000238418579 4.599977970123291 1.129999995231628
v 0.9534940123558044 4.453595161437988 1.129999995231628
v 0.9534940123558044 4.453595161437988 1.129999995231628
v 1.100000023841858 0.8999999761581421 1.129999995231628
v 1.100000023841858 0.8999999761581421 1.129999995231628
v 1.100000023841858 0.8999999761581421 1.129999995231628
v 0.9534940123558044 0.546405017375946 1.129999995231628
v 0.9534940123558044 0.546405017375946 1.129999995231628
v 0.6000000238418579 0.4000220000743866 1.129999995231628
v 0.6000000238418579 0.4000220000743866 1.129999995231628
v 0.246506005525589 0.546405017375946 1.129999995231628
v 0.246506005525589 0.546405017375946 1.129999995231628
v 0.1000000014901161 0.8999999761581421 1.129999995231628
v 0.1000000014901161 0.8999999761581421 1.129999995231628
v 0.1000000014901161 0.8999999761581421 1.129999995231628
v 0.246506005525589 1.253594994544983 1.129999995231628
v 0.246506005525589 1.253594994544983 1.129999995231628
v 0.6000000238418579 1.399978041648865 1.129999995231628
v 0.6000000238418579 1.399978041648865 1.129999995231628
v 0.9534940123558044 1.253594994544983 1.129999995231628
v 0.9534940123558044 1.253594994544983 1.129999995231628
vn 0 0 -1
vn -1 0 0
vn 0 1 0
vn 0 0 -1
vn -1 0 0
vn 0 -1 0
vn 0 0 -1
vn 0 -1 0
vn 0.382707804441452 -0.9238694310188294 0
vn 0 0 -1
vn 0.6037561297416687 -0.7971690893173218 0
vn 0 0 -1
vn 0.9238694310188294 -0.382707804441452 0
vn 1 0 0
vn 0 0 -1
vn 1 0 0
vn 0.9238694310188294 0.382707804441452 0
vn 0 0 -1
vn 0.7971690893173218 0.6037561297416687 0
vn 0 0 -1
vn 0.382707804441452 0.9238694310188294 0
vn 0 1 0
vn 0 0 1
vn 1 0 0
vn 0.3162277638912201 -0.9486833214759827 0
vn 0 0 1
vn 1 0 0
vn 0.5734624862670898 0.8192318081855774 0
vn 0 0 1
vn 0.5734624862670898 0.8192318081855774 0
vn 1 0 0
vn 0 0 1
vn 0.5734624862670898 -0.8192318081855774 0
vn 1 0 0
vn 0 0 1
vn 1 0 0
vn 0.5734624862670898 -0.8192318081855774 0
vn 0 0 1
vn 1 0 0
vn 0.3162277638912201 0.9486833214759827 0
vn 0 0 1
vn -1 0 0
vn 0 1 0
vn 0.3162277638912201 0.9486833214759827 0
vn 0 0 1
vn 0.382707804441452 0.9238694310188294 0
vn 0 1 0
vn 0 0 1
vn 0.6037561297416687 0.7971690893173218 0
vn 0 0 1
vn 1 0 0
vn 0.9238694310188294 0.382707804441452 0
vn 0 0 1
vn 0.9238694310188294 -0.382707804441452 0
vn 1 0 0
vn 0 0 1
vn 0.7971690893173218 -0.6037561297416687 0
vn 0 0 1
vn 0 -1 0
vn 0.382707804441452 -0.9238694310188294 0
vn 0 0 1
vn -1 0 0
vn 0 -1 0
vn 0.3162277638912201 -0.9486833214759827 0
vn -1 0 0
vn 0 0 1
vn 0.3162277638912201 -0.9486833214759827 0
vn -1 0 0
vn 0 0 1
vn 0.3162277638912201 0.9486833214759827 0
vn 0 0 1
vn 1 0 0
vn 0.5734624862670898 0.8192318081855774 0
vn 0 0 1
vn 1 0 0
vn 0.3162277638912201 -0.9486833214759827 0
vn 0 0 1
vn 1 0 0
vn 0.3162277638912201 0.9486833214759827 0
vn 0 0 1
vn 1 0 0
vn 0.5734624862670898 -0.8192318081855774 0
vn 0 0 1
vn 0.5734624862670898 -0.8192318081855774 0
vn 1 0 0
vn 0 0 1
vn 0.5734624862670898 0.8192318081855774 0
vn 1 0 0
vn 0 0 1
vn 0.9238791465759277 0.3826844096183777 0
vn 0.9238597750663757 -0.382731169462204 0.0001475671888329089
vn 0 0 1
vn 0.7971538901329041 0.6037761569023132 6.121687329141423e-05
vn 0 0 1
vn 0.1367412656545639 0.9906067848205566 6.692964961985126e-05
vn 0 0 1
vn -0.6037219166755676 0.7971950173377991 0.0001169306706287898
vn 0 0 1
vn -0.9238598942756653 0.3827307820320129 0.0001479182246839628
vn -0.9238789677619934 -0.3826848268508911 0
vn 0 0 1
vn -0.7971539497375488 -0.6037760972976685 6.036056583980098e-05
vn 0 0 1
vn -0.1367412656545639 -0.9906067848205566 6.753545312676579e-05
vn 0 0 1
vn 0.603722095489502 -0.7971948385238648 0.0001166796646430157
vn 0 0 1
vn 0.9238790273666382 0.3826846182346344 0
vn 0.9238597750663757 -0.3827310800552368 0.0001479181519243866
vn 0 0 1
vn 0.7971538901329041 0.603776216506958 6.121694605099037e-05
vn 0 0 1
vn 0.1367414742708206 0.9906067848205566 6.692974420730025e-05
vn 0 0 1
vn -0.603722095489502 0.7971948385238648 0.0001169307070085779
vn 0 0 1
vn -0.9238598346710205 0.382731020450592 0.0001479181664763019
vn -0.9238790273666382 -0.3826846480369568 0
vn 0 0 1
vn -0.7971538901329041 -0.6037761569023132 6.121693877503276e-05
vn 0 0 1
vn -0.136741429567337 -0.9906067848205566 6.723254773532972e-05
vn 0 0 1
vn 0.6037221550941467 -0.7971948385238648 0.0001170820687548257
vn 0 0 1
vn 0.9238598942756653 0.3827308118343353 0.0001478945050621405
vn 0.9238405823707581 -0.3827774524688721 0
vn 0 0 1
vn 0.7971360087394714 -0.6037998199462891 6.03598564339336e-05
vn 0 0 1
vn 0.1367707401514053 -0.9906027317047119 6.7515553382691e-05
vn 0 0 1
vn -0.6036974191665649 -0.7972134947776794 0.000116681563667953
vn 0 0 1
vn -0.9238407015800476 0.382777214050293 0
vn -0.9238597750663757 -0.382731169462204 0.0001475434546591714
vn 0 0 1
vn -0.797136127948761 0.60379958152771 6.121640035416931e-05
vn 0 0 1
vn -0.1367703080177307 0.9906027913093567 6.690999725833535e-05
vn 0 0 1
vn 0.6036971807479858 0.7972137331962585 0.0001169322640635073
vn 0 0 1
vn 0.9238597750663757 0.382731020450592 0.0001478944468544796
vn 0.9238405823707581 -0.3827775120735169 0
vn 0 0 1
vn 0.797136127948761 -0.6037996411323547 6.121643673395738e-05
vn 0 0 1
vn 0.1367705911397934 -0.9906027317047119 6.721288082189858e-05
vn 0 0 1
vn -0.6036974191665649 -0.7972135543823242 0.0001170837131212466
vn 0 0 1
vn -0.9238405823707581 0.3827774226665497 0
vn -0.9238597750663757 -0.3827310800552368 0.0001478944323025644
vn 0 0 1
vn -0.7971361875534058 0.60379958152771 6.121645856183022e-05
vn 0 0 1
vn -0.1367705315351486 0.9906027317047119 6.691009912174195e-05
vn 0 0 1
vn 0.6036974191665649 0.7972135543823242 0.0001169323149952106
f 20//20 4//4 1//1
f 42//42 2//2 5//5
f 47//47 22//22 3//3
f 47//47 3//3 43//43
f 20//20 7//7 4//4
f 63//63 6//6 8//8
f 68//68 42//42 5//5
f 68//68 5//5 62//62
f 18//18 10//10 7//7
f 60//60 9//9 11//11
f 20//20 18//18 7//7
f 63//63 8//8 59//59
f 15//15 12//12 10//10
f 57//57 11//11 13//13
f 18//18 15//15 10//10
f 60//60 11//11 57//57
f 55//55 14//14 16//16
f 57//57 13//13 54//54
f 52//52 17//17 19//19
f 55//55 16//16 51//51
f 49//49 19//19 21//21
f 52//52 19//19 49//49
f 49//49 21//21 46//46
f 58//58 26//26 23//23
f 75//75 24//24 27//27
f 61//61 58//58 23//23
f 67//67 64//64 25//25
f 76//76 67//67 25//25
f 32//32 29//29 26//26
f 87//87 28//28 30//30
f 35//35 32//32 26//26
f 58//58 35//35 26//26
f 75//75 27//27 72//72
f 87//87 73//73 28//28
f 88//88 31//31 34//34
f 82//82 33//33 37//37
f 84//84 33//33 82//82
f 88//88 34//34 85//85
f 58//58 38//38 35//35
f 81//81 36//36 39//39
f 45//45 41//41 38//38
f 79//79 40//40 44//44
f 58//58 45//45 38//38
f 81//81 39//39 78//78
f 79//79 44//44 70//70
f 56//56 48//48 45//45
f 58//58 56//56 45//45
f 53//53 50//50 48//48
f 56//56 53//53 48//48
f 68//68 62//62 65//65
f 98//98 69//69 66//66
f 121//121 66//66 74//74
f 101//101 98//98 66//66
f 116//116 101//101 66//66
f 119//119 116//116 66//66
f 121//121 119//119 66//66
f 94//94 77//77 69//69
f 96//96 94//94 69//69
f 98//98 96//96 69//69
f 123//123 74//74 71//71
f 112//112 71//71 86//86
f 110//110 107//107 71//71
f 123//123 71//71 107//107
f 112//112 110//110 71//71
f 123//123 121//121 74//74
f 105//105 80//80 77//77
f 92//92 89//89 77//77
f 105//105 77//77 89//89
f 94//94 92//92 77//77
f 103//103 83//83 80//80
f 105//105 103//103 80//80
f 114//114 86//86 83//83
f 114//114 83//83 103//103
f 114//114 112//112 86//86
f 126//126 90//90 93//93
f 129//129 106//106 91//91
f 129//129 91//91 127//127
f 142//142 93//93 95//95
f 142//142 126//126 93//93
f 140//140 95//95 97//97
f 142//142 95//95 140//140
f 138//138 97//97 99//99
f 140//140 97//97 138//138
f 136//136 100//100 102//102
f 138//138 99//99 135//135
f 116//116 103//103 101//101
f 133//133 102//102 104//104
f 136//136 102//102 133//133
f 131//131 104//104 106//106
f 116//116 114//114 103//103
f 133//133 104//104 131//131
f 131//131 106//106 129//129
f 144//144 108//108 111//111
f 147//147 124//124 109//109
f 147//147 109//109 145//145
f 160//160 111//111 113//113
f 160//160 144//144 111//111
f 158//158 113//113 115//115
f 160//160 113//113 158//158
f 156//156 115//115 117//117
f 158//158 115//115 156//156
f 154//154 118//118 120//120
f 156//156 117//117 153//153
f 151//151 120//120 122//122
f 154//154 120//120 151//151
f 149//149 122//122 124//124
f 151//151 122//122 149//149
f 149//149 124//124 147//147
f 132//132 128//128 125//125
f 134//134 132//132 125//125
f 141//141 134//134 125//125
f 132//132 130//130 128//128
f 141//141 137//137 134//134
f 141//141 139//139 137//137
f 150//150 146//146 143//143
f 152//152 150//150 143//143
f 159//159 152//152 143//143
f 150//150 148//148 146//146
f 159//159 155//155 152//152
f 159//159 157//157 155//155
