# Blender v2.63 (sub 13) OBJ File: 'mk45-5inch_pitch.blend'
# www.blender.org
mtllib mk45-5inch_pitch.mtl
o Cylinder
v 6.399753 2.539706 3.825847
v 15.165701 2.539705 3.751427
v 6.399753 2.746163 3.740330
v 15.165701 2.693541 3.687706
v 6.399753 2.831681 3.533872
v 15.165701 2.757262 3.533870
v 6.399753 2.746163 3.327415
v 15.165701 2.693541 3.380035
v 6.399753 2.539706 3.241897
v 15.165701 2.539705 3.316314
v 6.399753 2.333248 3.327415
v 15.165701 2.385869 3.380035
v 6.399753 2.247731 3.533872
v 15.165701 2.322148 3.533871
v 6.399753 2.333248 3.740330
v 15.165701 2.385869 3.687706
v 6.296184 2.539706 3.900321
v 6.296184 2.798824 3.792990
v 6.296184 2.906154 3.533872
v 6.296184 2.798824 3.274754
v 6.296184 2.539706 3.167424
v 6.296184 2.280588 3.274754
v 6.296184 2.173258 3.533872
v 6.296184 2.280588 3.792990
v 5.011927 2.539706 3.900321
v 5.011927 2.798824 3.792990
v 5.011927 2.906154 3.533872
v 5.011927 2.798824 3.274754
v 5.011927 2.539706 3.167424
v 5.011927 2.280588 3.274754
v 5.011927 2.173258 3.533872
v 5.011927 2.280588 3.792990
v 15.165701 2.644884 3.639049
v 15.165701 2.539705 3.682615
v 15.165701 2.688450 3.533870
v 15.165701 2.644884 3.428692
v 15.165701 2.539705 3.385126
v 15.165701 2.434527 3.428692
v 15.165701 2.390960 3.533871
v 15.165701 2.434527 3.639049
v 6.627919 2.644885 3.639049
v 6.627919 2.539707 3.682615
v 6.627919 2.688452 3.533870
v 6.627919 2.644885 3.428692
v 6.627919 2.539707 3.385126
v 6.627919 2.434528 3.428692
v 6.627919 2.390962 3.533871
v 6.627919 2.434528 3.639049
vn 0.007843 0.382672 0.923851
vn 0.007843 0.923851 0.382671
vn 0.007843 0.923851 -0.382672
vn 0.007843 0.382672 -0.923851
vn 0.007843 -0.382672 -0.923851
vn 0.007843 -0.923851 -0.382672
vn 0.000000 0.923880 0.382683
vn 0.007843 -0.382672 0.923851
vn 0.007843 -0.923851 0.382672
vn 0.553354 0.769542 -0.318755
vn -0.000000 -0.382684 0.923879
vn 0.553353 0.318755 0.769542
vn 0.553353 0.318755 -0.769542
vn 0.553353 -0.318755 -0.769542
vn 0.553353 -0.769543 -0.318755
vn 0.553353 -0.769543 0.318755
vn 0.553353 -0.318755 0.769542
vn 0.553354 0.769542 0.318755
vn -1.000000 0.000000 0.000000
vn 0.000000 0.382684 0.923879
vn 0.000000 0.382684 -0.923879
vn -0.000000 -0.923880 0.382683
vn 0.000000 0.923879 -0.382684
vn -0.000000 -0.923879 -0.382684
vn -0.000000 -0.382684 -0.923879
vn 1.000000 0.000000 0.000000
vn -0.000000 -0.923880 -0.382683
vn 0.000000 0.382683 0.923880
vn 0.000000 0.382683 -0.923880
vn -0.000000 -0.382683 -0.923880
vn -0.000000 -0.382683 0.923880
vn -0.000000 -0.923879 0.382684
usemtl 
s off
f 1//1 2//1 4//1 3//1
f 3//2 4//2 6//2 5//2
f 5//3 6//3 8//3 7//3
f 7//4 8//4 10//4 9//4
f 9//5 10//5 12//5 11//5
f 11//6 12//6 14//6 13//6
f 39//7 38//7 46//7 47//7
f 2//8 1//8 15//8 16//8
f 13//9 14//9 16//9 15//9
f 5//10 7//10 20//10 19//10
f 24//11 17//11 25//11 32//11
f 1//12 3//12 18//12 17//12
f 7//13 9//13 21//13 20//13
f 9//14 11//14 22//14 21//14
f 11//15 13//15 23//15 22//15
f 13//16 15//16 24//16 23//16
f 15//17 1//17 17//17 24//17
f 3//18 5//18 19//18 18//18
f 25//19 26//19 32//19
f 26//19 27//19 32//19
f 27//19 31//19 32//19
f 27//19 30//19 31//19
f 27//19 28//19 30//19
f 28//19 29//19 30//19
f 17//20 18//20 26//20 25//20
f 20//21 21//21 29//21 28//21
f 23//22 24//22 32//22 31//22
f 19//23 20//23 28//23 27//23
f 22//24 23//24 31//24 30//24
f 18//7 19//7 27//7 26//7
f 21//25 22//25 30//25 29//25
f 34//26 33//26 4//26 2//26
f 33//26 35//26 6//26 4//26
f 35//26 36//26 8//26 6//26
f 36//26 37//26 10//26 8//26
f 37//26 38//26 12//26 10//26
f 38//26 39//26 14//26 12//26
f 39//26 40//26 16//26 14//26
f 40//26 34//26 2//26 16//26
f 41//26 42//26 48//26
f 41//26 48//26 43//26
f 48//26 47//26 43//26
f 47//26 46//26 43//26
f 46//26 44//26 43//26
f 46//26 45//26 44//26
f 35//27 33//27 41//27 43//27
f 38//28 37//28 45//28 46//28
f 34//29 40//29 48//29 42//29
f 33//30 34//30 42//30 41//30
f 37//31 36//31 44//31 45//31
f 40//23 39//23 47//23 48//23
f 36//32 35//32 43//32 44//32
