# Rhino

g ______17
o object_1
v 1.361 0.6384 0.004484
v 1.442 0.592 0.004484
v 1.501 0.8794 0.004484
v 1.501 0.8794 0.4321
v 1.581 0.833 0.004484
v 1.581 0.833 0.4321
vn 0.866 -0.5 0
vn 0.866 -0.5 0
vn 0.866 -0.5 0
vn -0.4191 -0.7259 0.5455
vn -0.4191 -0.7259 0.5455
vn -0.4191 -0.7259 0.5455
vn -0.4191 -0.7259 0.5455
vn 0.5 0.866 0
vn 0.5 0.866 0
vn 0.5 0.866 0
vn 0.5 0.866 0
vn 0 0 -1
vn 0 0 -1
vn 0 0 -1
vn 0 0 -1
vn -0.866 0.5 0
vn -0.866 0.5 0
vn -0.866 0.5 0
f 6//2 2//1 5//3
f 4//5 1//7 2//6 6//4
f 3//9 4//11 6//10 5//8
f 1//13 3//15 5//14 2//12
f 4//17 3//18 1//16
o object_2
v 3.41 4.187 0.004484
v 3.41 4.187 0.4321
v 3.49 4.14 0.004484
v 3.49 4.14 0.4321
v 3.549 4.428 0.004484
v 3.63 4.381 0.004484
vn 0.866 -0.5 0
vn 0.866 -0.5 0
vn 0.866 -0.5 0
vn 0.4191 0.7259 0.5455
vn 0.4191 0.7259 0.5455
vn 0.4191 0.7259 0.5455
vn 0.4191 0.7259 0.5455
vn -0.5 -0.866 0
vn -0.5 -0.866 0
vn -0.5 -0.866 0
vn -0.5 -0.866 0
vn 0 0 -1
vn 0 0 -1
vn 0 0 -1
vn 0 0 -1
vn -0.866 0.5 0
vn -0.866 0.5 0
vn -0.866 0.5 0
f 10//20 9//21 12//19
f 8//23 10//22 12//24 11//25
f 7//27 9//26 10//28 8//29
f 11//31 12//30 9//32 7//33
f 8//35 11//34 7//36
o object_3
v 0.5764 3.563 0.004484
v 0.6228 3.644 0.004484
v 0.8174 3.424 0.004484
v 0.8174 3.424 0.4321
v 0.8638 3.505 0.004484
v 0.8638 3.505 0.4321
vn 0.5 0.866 0
vn 0.5 0.866 0
vn 0.5 0.866 0
vn -0.7259 0.4191 0.5455
vn -0.7259 0.4191 0.5455
vn -0.7259 0.4191 0.5455
vn -0.7259 0.4191 0.5455
vn 0.866 -0.5 0
vn 0.866 -0.5 0
vn 0.866 -0.5 0
vn 0.866 -0.5 0
vn 0 0 -1
vn 0 0 -1
vn 0 0 -1
vn 0 0 -1
vn -0.5 -0.866 0
vn -0.5 -0.866 0
vn -0.5 -0.866 0
f 18//38 17//39 14//37
f 16//41 18//40 14//42 13//43
f 15//45 17//44 18//46 16//47
f 13//49 14//48 17//50 15//51
f 16//53 13//52 15//54
o object_4
v 4.125 1.515 0.004484
v 4.125 1.515 0.4321
v 4.171 1.595 0.004484
v 4.171 1.595 0.4321
v 4.366 1.376 0.004484
v 4.412 1.456 0.004484
vn 0.5 0.866 0
vn 0.5 0.866 0
vn 0.5 0.866 0
vn 0.7259 -0.4191 0.5455
vn 0.7259 -0.4191 0.5455
vn 0.7259 -0.4191 0.5455
vn 0.7259 -0.4191 0.5455
vn -0.866 0.5 0
vn -0.866 0.5 0
vn -0.866 0.5 0
vn -0.866 0.5 0
vn 0 0 -1
vn 0 0 -1
vn 0 0 -1
vn 0 0 -1
vn -0.5 -0.866 0
vn -0.5 -0.866 0
vn -0.5 -0.866 0
f 22//56 24//55 21//57
f 20//59 23//61 24//60 22//58
f 19//63 20//65 22//64 21//62
f 23//67 19//69 21//68 24//66
f 20//71 19//72 23//70
o object_5
v 2.454 0.3177 0.004484
v 2.454 0.596 0.004484
v 2.454 0.596 0.4321
v 2.547 0.3177 0.004484
v 2.547 0.596 0.004484
v 2.547 0.596 0.4321
vn 1 0 0
vn 1 0 0
vn 1 0 0
vn 0 -0.8381 0.5455
vn 0 -0.8381 0.5455
vn 0 -0.8381 0.5455
vn 0 -0.8381 0.5455
vn 0 1 0
vn 0 1 0
vn 0 1 0
vn 0 1 0
vn 0 0 -1
vn 0 0 -1
vn 0 0 -1
vn 0 0 -1
vn -1 0 0
vn -1 0 0
vn -1 0 0
f 30//74 28//73 29//75
f 27//77 25//79 28//78 30//76
f 26//81 27//83 30//82 29//80
f 25//85 26//87 29//86 28//84
f 27//89 26//90 25//88
o object_6
v 2.454 4.415 0.004484
v 2.454 4.415 0.4321
v 2.454 4.693 0.004484
v 2.547 4.415 0.004484
v 2.547 4.415 0.4321
v 2.547 4.693 0.004484
vn 1 0 0
vn 1 0 0
vn 1 0 0
vn 0 0.8381 0.5455
vn 0 0.8381 0.5455
vn 0 0.8381 0.5455
vn 0 0.8381 0.5455
vn 0 -1 0
vn 0 -1 0
vn 0 -1 0
vn 0 -1 0
vn 0 0 -1
vn 0 0 -1
vn 0 0 -1
vn 0 0 -1
vn -1 0 0
vn -1 0 0
vn -1 0 0
f 35//92 34//93 36//91
f 32//95 35//94 36//96 33//97
f 31//99 34//98 35//100 32//101
f 33//103 36//102 34//104 31//105
f 32//107 33//106 31//108
o object_7
v 0.5841 2.504 0.005146
v 0.5841 2.504 0.4338
v 0.6158 2.156 0.005146
v 0.6158 2.156 0.4338
v 0.6158 2.853 0.005146
v 0.6158 2.853 0.4338
v 0.7187 1.799 0.005146
v 0.7187 1.799 0.4338
v 0.7187 3.21 0.005146
v 0.7187 3.21 0.4338
v 0.8963 1.456 0.005146
v 0.8963 1.456 0.4338
v 0.8963 3.553 0.005146
v 0.8963 3.553 0.4338
v 1.145 1.149 0.005146
v 1.145 1.149 0.4338
v 1.145 3.86 0.005146
v 1.145 3.86 0.4338
v 1.452 0.8999 0.005146
v 1.452 0.8999 0.4338
v 1.452 4.109 0.005146
v 1.452 4.109 0.4338
v 1.795 0.7224 0.005146
v 1.795 0.7224 0.4338
v 1.795 4.286 0.005146
v 1.795 4.286 0.4338
v 2.152 0.6194 0.005146
v 2.152 0.6194 0.4338
v 2.152 4.389 0.005146
v 2.152 4.389 0.4338
v 2.501 0.5877 0.005146
v 2.501 0.5877 0.4338
v 2.501 4.421 0.005146
v 2.501 4.421 0.4338
v 2.85 0.6194 0.005146
v 2.85 0.6194 0.4338
v 2.85 4.389 0.005146
v 2.85 4.389 0.4338
v 3.206 0.7224 0.005146
v 3.206 0.7224 0.4338
v 3.206 4.286 0.005146
v 3.206 4.286 0.4338
v 3.549 0.8999 0.005146
v 3.549 0.8999 0.4338
v 3.549 4.109 0.005146
v 3.549 4.109 0.4338
v 3.856 1.149 0.005146
v 3.856 1.149 0.4338
v 3.856 3.86 0.005146
v 3.856 3.86 0.4338
v 4.105 1.456 0.005146
v 4.105 1.456 0.4338
v 4.105 3.553 0.005146
v 4.105 3.553 0.4338
v 4.283 1.799 0.005146
v 4.283 1.799 0.4338
v 4.283 3.21 0.005146
v 4.283 3.21 0.4338
v 4.386 2.156 0.005146
v 4.386 2.156 0.4338
v 4.386 2.853 0.005146
v 4.386 2.853 0.4338
v 4.417 2.504 0.005146
v 4.417 2.504 0.4338
vn 0 0 -1
vn -1 -3.425e-17 0
vn 0 0 1
vn -1 3.425e-17 0
vn -3.855e-18 0 -1
vn -0.9833 -0.182 0
vn -1.542e-17 0 1
vn -0.9833 -0.182 0
vn 0 0 -1
vn -0.9833 0.182 0
vn 1.542e-17 0 1
vn -0.9833 0.182 0
vn 3.855e-18 0 -1
vn -0.9298 -0.3681 0
vn -1.542e-17 0 1
vn -0.9298 -0.3681 0
vn 0 0 -1
vn -0.9298 0.3681 0
vn -1.542e-17 0 1
vn -0.9298 0.3681 0
vn -1.927e-18 0 -1
vn -0.837 -0.5472 0
vn 7.71e-18 0 1
vn -0.837 -0.5472 0
vn 0 0 -1
vn -0.837 0.5472 0
vn 0 0 1
vn -0.837 0.5472 0
vn 1.927e-18 0 -1
vn -0.7071 -0.7071 0
vn 0 0 1
vn -0.7071 -0.7071 0
vn 0 0 -1
vn -0.7071 0.7071 0
vn 0 0 1
vn -0.7071 0.7071 0
vn 1.927e-18 0 -1
vn -0.5472 -0.837 0
vn 1.156e-17 0 1
vn -0.5472 -0.837 0
vn 0 0 -1
vn -0.5472 0.837 0
vn 0 0 1
vn -0.5472 0.837 0
vn -9.637e-19 0 -1
vn -0.3681 -0.9298 0
vn 4.819e-18 0 1
vn -0.3681 -0.9298 0
vn 0 0 -1
vn -0.3681 0.9298 0
vn 0 0 1
vn -0.3681 0.9298 0
vn -1.927e-18 0 -1
vn -0.182 -0.9833 0
vn 1.349e-17 0 1
vn -0.182 -0.9833 0
vn 0 0 -1
vn -0.182 0.9833 0
vn 0 0 1
vn -0.182 0.9833 0
vn 3.132e-18 0 -1
vn 6.851e-17 -1 0
vn 1.446e-18 0 1
vn -2.055e-16 -1 0
vn 0 0 -1
vn -1.37e-16 1 0
vn 0 0 1
vn -5.481e-16 1 0
vn -1.927e-18 0 -1
vn 0.182 -0.9833 0
vn 1.349e-17 0 1
vn 0.182 -0.9833 0
vn 0 0 -1
vn 0.182 0.9833 0
vn 0 0 1
vn 0.182 0.9833 0
vn -2.891e-18 0 -1
vn 0.3681 -0.9298 0
vn 4.819e-18 0 1
vn 0.3681 -0.9298 0
vn 0 0 -1
vn 0.3681 0.9298 0
vn 0 0 1
vn 0.3681 0.9298 0
vn 1.927e-18 0 -1
vn 0.5472 -0.837 0
vn 3.855e-18 0 1
vn 0.5472 -0.837 0
vn 0 0 -1
vn 0.5472 0.837 0
vn 0 0 1
vn 0.5472 0.837 0
vn 1.927e-18 0 -1
vn 0.7071 -0.7071 0
vn 7.71e-18 0 1
vn 0.7071 -0.7071 0
vn 0 0 -1
vn 0.7071 0.7071 0
vn 0 0 1
vn 0.7071 0.7071 0
vn -1.927e-18 0 -1
vn 0.837 -0.5472 0
vn 0 0 1
vn 0.837 -0.5472 0
vn 0 0 -1
vn 0.837 0.5472 0
vn 0 0 1
vn 0.837 0.5472 0
vn 0 0 -1
vn 0.9298 -0.3681 0
vn 0 0 1
vn 0.9298 -0.3681 0
vn 0 0 -1
vn 0.9298 0.3681 0
vn -1.542e-17 0 1
vn 0.9298 0.3681 0
vn 3.855e-18 0 -1
vn 0.9833 -0.182 0
vn -1.542e-17 0 1
vn 0.9833 -0.182 0
vn 0 0 -1
vn 0.9833 0.182 0
vn -1.542e-17 0 1
vn 0.9833 0.182 0
vn 0 0 -1
vn 1 4.11e-16 0
vn 1 4.11e-16 0
vn 0 0 1
vn 1 -1.096e-15 0
vn 1 -1.096e-15 0
f 64//163 40//115 44//123
f 38//111 40//115 42//119
f 48//131 52//139 44//123
f 52//139 60//155 64//163
f 60//155 52//139 56//147
f 52//139 64//163 44//123
f 54//143 40//115 74//183
f 54//143 46//127 40//115
f 46//127 54//143 50//135
f 46//127 42//119 40//115
f 62//159 58//151 54//143
f 62//159 74//183 66//167
f 54//143 74//183 62//159
f 66//167 74//183 70//175
f 64//163 72//179 40//115
f 40//115 72//179 84//203
f 84//203 72//179 76//187
f 76//187 80//195 84//203
f 88//211 86//207 84//203
f 94//223 88//211 92//219
f 84//203 86//207 40//115
f 94//223 92//219 96//227
f 78//191 86//207 82//199
f 78//191 74//183 40//115
f 40//115 86//207 78//191
f 88//211 94//223 86//207
f 94//223 90//215 86//207
f 96//227 98//231 94//223
f 96//227 100//236 98//231
f 68//171 72//179 64//163
f 39//113 47//129 43//121
f 37//109 41//117 39//113
f 47//129 39//113 41//117
f 41//117 81//197 47//129
f 47//129 59//153 55//145
f 47//129 55//145 51//137
f 81//197 59//153 47//129
f 49//133 41//117 45//125
f 49//133 53//141 57//149
f 57//149 41//117 49//133
f 61//157 41//117 57//149
f 65//165 41//117 61//157
f 65//165 81//197 41//117
f 69//173 73//181 65//165
f 67//169 63//161 59//153
f 75//185 71//177 67//169
f 75//185 59//153 79//193
f 59//153 81//197 79//193
f 79//193 91//217 87//209
f 79//193 89//213 91//217
f 87//209 83//201 79//193
f 91//217 97//229 95//225
f 81//197 85//205 89//213
f 81//197 73//181 77//189
f 81//197 65//165 73//181
f 79//193 81//197 89//213
f 97//229 89//213 93//221
f 89//213 97//229 91//217
f 95//225 97//229 99//233
f 75//185 67//169 59//153
f 96//228 95//226 99//234 100//237
f 92//220 88//212 87//210 91//218
f 96//228 92//220 91//218 95//226
f 84//204 80//196 79//194 83//202
f 76//188 72//180 71//178 75//186
f 80//196 76//188 75//186 79//194
f 88//212 84//204 83//202 87//210
f 64//164 63//162 67//170 68//172
f 56//148 55//146 59//154 60//156
f 60//156 59//154 63//162 64//164
f 48//132 47//130 51//138 52//140
f 40//116 39//114 43//122 44//124
f 44//124 43//122 47//130 48//132
f 52//140 51//138 55//146 56//148
f 68//172 67//170 71//178 72//180
f 38//112 37//110 39//114 40//116
f 42//120 46//128 45//126 41//118
f 54//144 53//142 49//134 50//136
f 50//136 49//134 45//126 46//128
f 62//160 61//158 57//150 58//152
f 70//176 69//174 65//166 66//168
f 66//168 65//166 61//158 62//160
f 58//152 57//150 53//142 54//144
f 74//184 78//192 77//190 73//182
f 86//208 85//206 81//198 82//200
f 82//200 81//198 77//190 78//192
f 94//224 93//222 89//214 90//216
f 100//238 99//235 97//230 98//232
f 98//232 97//230 93//222 94//224
f 90//216 89//214 85//206 86//208
f 70//176 74//184 73//182 69//174
f 41//118 37//110 38//112 42//120
o object_8
v 0.3709 2.504 0.4483
v 0.3709 2.504 0.6219
v 0.4066 2.117 0.4483
v 0.4066 2.117 0.6219
v 0.4066 2.892 0.4483
v 0.4066 2.892 0.6219
v 0.5207 1.72 0.4483
v 0.5207 1.72 0.6219
v 0.5207 3.288 0.4483
v 0.5207 3.288 0.6219
v 0.7181 1.339 0.4483
v 0.7181 1.339 0.6219
v 0.7181 3.67 0.4483
v 0.7181 3.67 0.6219
v 0.9946 0.9982 0.4483
v 0.9946 0.9982 0.6219
v 0.9946 4.01 0.4483
v 0.9946 4.01 0.6219
v 1.335 0.7217 0.4483
v 1.335 0.7217 0.6219
v 1.335 4.287 0.4483
v 1.335 4.287 0.6219
v 1.717 0.5244 0.4483
v 1.717 0.5244 0.6219
v 1.717 4.484 0.4483
v 1.717 4.484 0.6219
v 2.113 0.4102 0.4483
v 2.113 0.4102 0.6219
v 2.113 4.599 0.4483
v 2.113 4.599 0.6219
v 2.501 0.3745 0.4483
v 2.501 0.3745 0.6219
v 2.501 4.634 0.4483
v 2.501 4.634 0.6219
v 2.888 0.4102 0.4483
v 2.888 0.4102 0.6219
v 2.888 4.599 0.4483
v 2.888 4.599 0.6219
v 3.285 0.5244 0.4483
v 3.285 0.5244 0.6219
v 3.285 4.484 0.4483
v 3.285 4.484 0.6219
v 3.666 0.7217 0.4483
v 3.666 0.7217 0.6219
v 3.666 4.287 0.4483
v 3.666 4.287 0.6219
v 4.007 0.9982 0.4483
v 4.007 0.9982 0.6219
v 4.007 4.01 0.4483
v 4.007 4.01 0.6219
v 4.283 1.339 0.4483
v 4.283 1.339 0.6219
v 4.283 3.67 0.4483
v 4.283 3.67 0.6219
v 4.481 1.72 0.4483
v 4.481 1.72 0.6219
v 4.481 3.288 0.4483
v 4.481 3.288 0.6219
v 4.595 2.117 0.4483
v 4.595 2.117 0.6219
v 4.595 2.892 0.4483
v 4.595 2.892 0.6219
v 4.631 2.504 0.4483
v 4.631 2.504 0.6219
vn 0 0 -1
vn -1 -2.466e-16 0
vn 0 0 1
vn -1 -3.083e-17 0
vn 0 0 -1
vn -0.9833 -0.182 0
vn 0 0 1
vn -0.9833 -0.182 0
vn 0 0 -1
vn -0.9833 0.182 0
vn 0 0 1
vn -0.9833 0.182 0
vn 0 0 -1
vn -0.9298 -0.3681 0
vn 0 0 1
vn -0.9298 -0.3681 0
vn 0 0 -1
vn -0.9298 0.3681 0
vn 0 0 1
vn -0.9298 0.3681 0
vn 0 0 -1
vn -0.837 -0.5472 0
vn 0 0 1
vn -0.837 -0.5472 0
vn 0 0 -1
vn -0.837 0.5472 0
vn 0 0 1
vn -0.837 0.5472 0
vn 0 0 -1
vn -0.7071 -0.7071 0
vn 0 0 1
vn -0.7071 -0.7071 0
vn 0 0 -1
vn -0.7071 0.7071 0
vn 0 0 1
vn -0.7071 0.7071 0
vn 0 0 -1
vn -0.5472 -0.837 0
vn 0 0 1
vn -0.5472 -0.837 0
vn 0 0 -1
vn -0.5472 0.837 0
vn 0 0 1
vn -0.5472 0.837 0
vn 0 0 -1
vn -0.3681 -0.9298 0
vn 0 0 1
vn -0.3681 -0.9298 0
vn 0 0 -1
vn -0.3681 0.9298 0
vn 0 0 1
vn -0.3681 0.9298 0
vn 0 0 -1
vn -0.182 -0.9833 0
vn 0 0 1
vn -0.182 -0.9833 0
vn 0 0 -1
vn -0.182 0.9833 0
vn 0 0 1
vn -0.182 0.9833 0
vn 0 0 -1
vn -3.083e-17 -1 0
vn 0 0 1
vn -9.249e-17 -1 0
vn 0 0 -1
vn 0 1 0
vn 0 0 1
vn -7.399e-16 1 0
vn 0 0 -1
vn 0.182 -0.9833 0
vn 0 0 1
vn 0.182 -0.9833 0
vn 0 0 -1
vn 0.182 0.9833 0
vn 0 0 1
vn 0.182 0.9833 0
vn 0 0 -1
vn 0.3681 -0.9298 0
vn 0 0 1
vn 0.3681 -0.9298 0
vn 0 0 -1
vn 0.3681 0.9298 0
vn 0 0 1
vn 0.3681 0.9298 0
vn 0 0 -1
vn 0.5472 -0.837 0
vn 0 0 1
vn 0.5472 -0.837 0
vn 0 0 -1
vn 0.5472 0.837 0
vn 0 0 1
vn 0.5472 0.837 0
vn 0 0 -1
vn 0.7071 -0.7071 0
vn 0 0 1
vn 0.7071 -0.7071 0
vn 0 0 -1
vn 0.7071 0.7071 0
vn 0 0 1
vn 0.7071 0.7071 0
vn 0 0 -1
vn 0.837 -0.5472 0
vn 0 0 1
vn 0.837 -0.5472 0
vn 0 0 -1
vn 0.837 0.5472 0
vn 0 0 1
vn 0.837 0.5472 0
vn 0 0 -1
vn 0.9298 -0.3681 0
vn 0 0 1
vn 0.9298 -0.3681 0
vn 0 0 -1
vn 0.9298 0.3681 0
vn 0 0 1
vn 0.9298 0.3681 0
vn 0 0 -1
vn 0.9833 -0.182 0
vn 0 0 1
vn 0.9833 -0.182 0
vn 0 0 -1
vn 0.9833 0.182 0
vn 0 0 1
vn 0.9833 0.182 0
vn 0 0 -1
vn 1 7.399e-16 0
vn 1 7.399e-16 0
vn 0 0 1
vn 1 -9.865e-16 0
vn 1 -9.865e-16 0
f 116//269 104//245 108//253
f 102//241 104//245 106//249
f 112//261 116//269 108//253
f 124//285 128//293 104//245
f 124//285 116//269 120//277
f 124//285 104//245 116//269
f 118//273 104//245 138//313
f 118//273 110//257 104//245
f 110//257 118//273 114//265
f 110//257 106//249 104//245
f 126//289 122//281 118//273
f 126//289 138//313 130//297
f 118//273 138//313 126//289
f 130//297 138//313 134//305
f 128//293 140//317 104//245
f 140//317 132//301 136//309
f 140//317 150//337 104//245
f 144//325 148//333 140//317
f 152//341 150//337 148//333
f 158//353 152//341 156//349
f 148//333 150//337 140//317
f 158//353 156//349 160//357
f 142//321 150//337 146//329
f 138//313 104//245 142//321
f 104//245 150//337 142//321
f 152//341 158//353 150//337
f 158//353 154//345 150//337
f 160//357 162//361 158//353
f 160//357 164//366 162//361
f 132//301 140//317 128//293
f 103//243 111//259 107//251
f 101//239 105//247 103//243
f 111//259 103//243 105//247
f 119//275 127//291 123//283
f 105//247 145//327 111//259
f 119//275 115//267 111//259
f 145//327 119//275 111//259
f 113//263 105//247 109//255
f 113//263 117//271 121//279
f 121//279 105//247 113//263
f 129//295 121//279 125//287
f 121//279 129//295 133//303
f 133//303 105//247 121//279
f 145//327 105//247 133//303
f 131//299 127//291 119//275
f 139//315 135//307 131//299
f 119//275 147//331 139//315
f 143//323 139//315 147//331
f 151//339 147//331 145//327
f 155//347 151//339 157//351
f 145//327 147//331 119//275
f 155//347 157//351 159//355
f 145//327 149//335 153//343
f 145//327 137//311 141//319
f 145//327 133//303 137//311
f 157//351 151//339 153//343
f 153//343 151//339 145//327
f 159//355 157//351 161//359
f 159//355 161//359 163//363
f 139//315 131//299 119//275
f 164//367 160//358 159//356 163//364
f 156//350 152//342 151//340 155//348
f 160//358 156//350 155//348 159//356
f 148//334 144//326 143//324 147//332
f 140//318 136//310 135//308 139//316
f 144//326 140//318 139//316 143//324
f 152//342 148//334 147//332 151//340
f 128//294 127//292 131//300 132//302
f 120//278 119//276 123//284 124//286
f 124//286 123//284 127//292 128//294
f 116//270 112//262 111//260 115//268
f 104//246 103//244 107//252 108//254
f 112//262 108//254 107//252 111//260
f 116//270 115//268 119//276 120//278
f 136//310 132//302 131//300 135//308
f 102//242 101//240 103//244 104//246
f 110//258 109//256 105//248 106//250
f 118//274 117//272 113//264 114//266
f 114//266 113//264 109//256 110//258
f 126//290 125//288 121//280 122//282
f 130//298 134//306 133//304 129//296
f 126//290 130//298 129//296 125//288
f 122//282 121//280 117//272 118//274
f 138//314 142//322 141//320 137//312
f 150//338 149//336 145//328 146//330
f 146//330 145//328 141//320 142//322
f 158//354 157//352 153//344 154//346
f 164//368 163//365 161//360 162//362
f 162//362 161//360 157//352 158//354
f 154//346 153//344 149//336 150//338
f 134//306 138//314 137//312 133//304
f 106//250 105//248 101//240 102//242
o object_9
v 4.411 2.458 0.004484
v 4.411 2.458 0.4321
v 4.411 2.551 0.004484
v 4.411 2.551 0.4321
v 4.689 2.458 0.004484
v 4.689 2.551 0.004484
vn 0 -1 0
vn 0 -1 0
vn 0 -1 0
vn 0.8381 0 0.5455
vn 0.8381 0 0.5455
vn 0.8381 0 0.5455
vn 0.8381 0 0.5455
vn -1 0 0
vn -1 0 0
vn -1 0 0
vn -1 0 0
vn 0 0 -1
vn 0 0 -1
vn 0 0 -1
vn 0 0 -1
vn 0 1 0
vn 0 1 0
vn 0 1 0
f 166//370 165//371 169//369
f 168//373 166//372 169//374 170//375
f 167//377 165//376 166//378 168//379
f 170//381 169//380 165//382 167//383
f 168//385 170//384 167//386
o object_10
v 0.3137 2.458 0.004484
v 0.3137 2.551 0.004484
v 0.592 2.458 0.004484
v 0.592 2.458 0.4321
v 0.592 2.551 0.004484
v 0.592 2.551 0.4321
vn 0 -1 0
vn 0 -1 0
vn 0 -1 0
vn -0.8381 0 0.5455
vn -0.8381 0 0.5455
vn -0.8381 0 0.5455
vn -0.8381 0 0.5455
vn 1 0 0
vn 1 0 0
vn 1 0 0
vn 1 0 0
vn 0 0 -1
vn 0 0 -1
vn 0 0 -1
vn 0 0 -1
vn 0 1 0
vn 0 1 0
vn 0 1 0
f 174//388 171//387 173//389
f 176//391 172//393 171//392 174//390
f 175//395 176//397 174//396 173//394
f 172//399 175//401 173//400 171//398
f 176//403 175//404 172//402
o object_11
v 0.5777 1.45 0.004484
v 0.6241 1.37 0.004484
v 0.8187 1.589 0.004484
v 0.8187 1.589 0.4321
v 0.8651 1.509 0.004484
v 0.8651 1.509 0.4321
vn 0.5 -0.866 0
vn 0.5 -0.866 0
vn 0.5 -0.866 0
vn -0.7259 -0.4191 0.5455
vn -0.7259 -0.4191 0.5455
vn -0.7259 -0.4191 0.5455
vn -0.7259 -0.4191 0.5455
vn 0.866 0.5 0
vn 0.866 0.5 0
vn 0.866 0.5 0
vn 0.866 0.5 0
vn 0 0 -1
vn 0 0 -1
vn 0 0 -1
vn 0 0 -1
vn -0.5 0.866 0
vn -0.5 0.866 0
vn -0.5 0.866 0
f 182//406 178//405 181//407
f 180//409 177//411 178//410 182//408
f 179//413 180//415 182//414 181//412
f 177//417 179//419 181//418 178//416
f 180//421 179//422 177//420
o object_12
v 4.126 3.499 0.004484
v 4.126 3.499 0.4321
v 4.172 3.418 0.004484
v 4.172 3.418 0.4321
v 4.367 3.638 0.004484
v 4.413 3.558 0.004484
vn 0.5 -0.866 0
vn 0.5 -0.866 0
vn 0.5 -0.866 0
vn 0.7259 0.4191 0.5455
vn 0.7259 0.4191 0.5455
vn 0.7259 0.4191 0.5455
vn 0.7259 0.4191 0.5455
vn -0.866 -0.5 0
vn -0.866 -0.5 0
vn -0.866 -0.5 0
vn -0.866 -0.5 0
vn 0 0 -1
vn 0 0 -1
vn 0 0 -1
vn 0 0 -1
vn -0.5 0.866 0
vn -0.5 0.866 0
vn -0.5 0.866 0
f 186//424 185//425 188//423
f 184//427 186//426 188//428 187//429
f 183//431 185//430 186//432 184//433
f 187//435 188//434 185//436 183//437
f 184//439 187//438 183//440
o object_13
v 1.36 4.376 0.004484
v 1.441 4.422 0.004484
v 1.5 4.135 0.004484
v 1.5 4.135 0.4321
v 1.58 4.181 0.004484
v 1.58 4.181 0.4321
vn 0.866 0.5 0
vn 0.866 0.5 0
vn 0.866 0.5 0
vn -0.4191 0.7259 0.5455
vn -0.4191 0.7259 0.5455
vn -0.4191 0.7259 0.5455
vn -0.4191 0.7259 0.5455
vn 0.5 -0.866 0
vn 0.5 -0.866 0
vn 0.5 -0.866 0
vn 0.5 -0.866 0
vn 0 0 -1
vn 0 0 -1
vn 0 0 -1
vn 0 0 -1
vn -0.866 -0.5 0
vn -0.866 -0.5 0
vn -0.866 -0.5 0
f 194//442 193//443 190//441
f 192//445 194//444 190//446 189//447
f 191//449 193//448 194//450 192//451
f 189//453 190//452 193//454 191//455
f 192//457 189//456 191//458
o object_14
v 3.409 0.8276 0.004484
v 3.409 0.8276 0.4321
v 3.489 0.874 0.004484
v 3.489 0.874 0.4321
v 3.548 0.5866 0.004484
v 3.628 0.633 0.004484
vn 0.866 0.5 0
vn 0.866 0.5 0
vn 0.866 0.5 0
vn 0.4191 -0.7259 0.5455
vn 0.4191 -0.7259 0.5455
vn 0.4191 -0.7259 0.5455
vn 0.4191 -0.7259 0.5455
vn -0.5 0.866 0
vn -0.5 0.866 0
vn -0.5 0.866 0
vn -0.5 0.866 0
vn 0 0 -1
vn 0 0 -1
vn 0 0 -1
vn 0 0 -1
vn -0.866 -0.5 0
vn -0.866 -0.5 0
vn -0.866 -0.5 0
f 198//460 200//459 197//461
f 196//463 199//465 200//464 198//462
f 195//467 196//469 198//468 197//466
f 199//471 195//473 197//472 200//470
f 196//475 195//476 199//474
