# Rhino

v 10.14848232269287 5 2.279556035995483
v 10.14848232269287 5 2.279556035995483
v 10.14848232269287 5 -0.002742999931797385
v 10.14848232269287 5 -0.002742999931797385
v 8.640571594238281 8.640419006347656 2.279556035995483
v 8.640571594238281 8.640419006347656 2.279556035995483
v 8.640571594238281 8.640419006347656 -0.002742999931797385
v 8.640571594238281 8.640419006347656 -0.002742999931797385
v 8.640571594238281 1.359580993652344 2.279556035995483
v 8.640571594238281 1.359580993652344 2.279556035995483
v 8.640571594238281 1.359580993652344 -0.002742999931797385
v 8.640571594238281 1.359580993652344 -0.002742999931797385
v 5.0001540184021 10.14832878112793 2.279556035995483
v 5.0001540184021 10.14832878112793 2.279556035995483
v 5.0001540184021 10.14832878112793 -0.002742999931797385
v 5.0001540184021 10.14832878112793 -0.002742999931797385
v 5.0001540184021 -0.1483290046453476 2.279556035995483
v 5.0001540184021 -0.1483290046453476 2.279556035995483
v 5.0001540184021 -0.1483290046453476 -0.002742999931797385
v 5.0001540184021 -0.1483290046453476 -0.002742999931797385
v 1.35973596572876 8.640419006347656 2.279556035995483
v 1.35973596572876 8.640419006347656 2.279556035995483
v 1.35973596572876 8.640419006347656 -0.002742999931797385
v 1.35973596572876 8.640419006347656 -0.002742999931797385
v 1.35973596572876 1.359580993652344 2.279556035995483
v 1.35973596572876 1.359580993652344 2.279556035995483
v 1.35973596572876 1.359580993652344 -0.002742999931797385
v 1.35973596572876 1.359580993652344 -0.002742999931797385
v -0.1481750011444092 5 2.279556035995483
v -0.1481750011444092 5 2.279556035995483
v -0.1481750011444092 5 -0.002742999931797385
v -0.1481750011444092 5 -0.002742999931797385
vn 0.9906023144721985 -0.136773556470871 0
vn 0 0 1
vn 0.9906023144721985 0.136773556470871 0
vn 0 0 -1
vn 0.7971752882003784 0.6037479639053345 0
vn 0 0 1
vn 0.6037480235099793 0.7971752285957336 0
vn 0 0 -1
vn 0.6037480235099793 -0.7971752285957336 0
vn 0 0 1
vn 0.7971752882003784 -0.6037479639053345 0
vn 0 0 -1
vn 0.1367735862731934 0.9906023144721985 0
vn 0 0 1
vn 0 0 -1
vn -0.1367735862731934 0.9906023144721985 0
vn 0 0 1
vn -0.1367735862731934 -0.9906023144721985 0
vn 0.1367735862731934 -0.9906023144721985 0
vn 0 0 -1
vn 0 0 1
vn -0.6037479639053345 0.7971752285957336 0
vn 0 0 -1
vn -0.7971751689910889 0.603748083114624 0
vn 0 0 1
vn -0.7971751689910889 -0.603748083114624 0
vn 0 0 -1
vn -0.6037479639053345 -0.7971752285957336 0
vn 0 0 1
vn -0.9906023144721985 0.1367736458778381 0
vn 0 0 -1
vn -0.9906023144721985 -0.1367736458778381 0
f 31//31 23//23 4//4 27//27
f 15//15 8//8 4//4 23//23
f 21//21 29//29 25//25 2//2
f 10//10 2//2 25//25 17//17
f 20//20 27//27 4//4 12//12
f 6//6 14//14 21//21 2//2
f 22//22 13//13 16//16 24//24
f 13//13 5//5 7//7 16//16
f 5//5 1//1 3//3 7//7
f 1//1 9//9 11//11 3//3
f 9//9 18//18 19//19 11//11
f 18//18 26//26 28//28 19//19
f 26//26 30//30 32//32 28//28
f 30//30 22//22 24//24 32//32
