# Rhino

o object_1
v 11.32 5.146 4.163
v 11.32 5.237 3.673
v 11.32 5.237 4.654
v 11.32 5.409 3.924
v 11.32 5.45 3.798
v 11.32 5.45 4.05
v 11.32 5.476 3.37
v 11.32 5.476 4.957
v 11.32 5.558 3.72
v 11.32 5.558 4.128
v 11.32 5.69 3.72
v 11.32 5.69 4.128
v 11.32 5.771 3.37
v 11.32 5.771 4.957
v 11.32 5.797 3.798
v 11.32 5.797 4.05
v 11.32 5.838 3.924
v 11.32 6.01 3.673
v 11.32 6.01 4.654
v 11.32 6.101 4.163
v 11.32 8.907 4.163
v 11.32 8.998 3.673
v 11.32 8.998 4.654
v 11.32 9.17 3.924
v 11.32 9.211 3.798
v 11.32 9.211 4.05
v 11.32 9.237 3.37
v 11.32 9.237 4.957
v 11.32 9.318 3.72
v 11.32 9.318 4.128
v 11.32 9.451 3.72
v 11.32 9.451 4.128
v 11.32 9.532 3.37
v 11.32 9.532 4.957
v 11.32 9.558 3.798
v 11.32 9.558 4.05
v 11.32 9.599 3.924
v 11.32 9.771 3.673
v 11.32 9.771 4.654
v 11.32 9.862 4.163
v 14.28 5.146 4.028
v 14.28 5.237 3.693
v 14.28 5.237 4.362
v 14.28 5.409 3.924
v 14.28 5.45 3.798
v 14.28 5.45 4.05
v 14.28 5.476 3.487
v 14.28 5.476 4.569
v 14.28 5.558 3.72
v 14.28 5.558 4.128
v 14.28 5.69 3.72
v 14.28 5.69 4.128
v 14.28 5.771 3.487
v 14.28 5.771 4.569
v 14.28 5.797 3.798
v 14.28 5.797 4.05
v 14.28 5.838 3.924
v 14.28 6.01 3.693
v 14.28 6.01 4.362
v 14.28 6.101 4.028
v 14.28 8.907 4.028
v 14.28 8.998 3.693
v 14.28 8.998 4.362
v 14.28 9.17 3.924
v 14.28 9.211 3.798
v 14.28 9.211 4.05
v 14.28 9.237 3.487
v 14.28 9.237 4.569
v 14.28 9.318 3.72
v 14.28 9.318 4.128
v 14.28 9.451 3.72
v 14.28 9.451 4.128
v 14.28 9.532 3.487
v 14.28 9.532 4.569
v 14.28 9.558 3.798
v 14.28 9.558 4.05
v 14.28 9.599 3.924
v 14.28 9.771 3.693
v 14.28 9.771 4.362
v 14.28 9.862 4.028
v 14.86 5.323 3.924
v 14.86 5.38 3.747
v 14.86 5.38 4.101
v 14.86 5.409 3.924
v 14.86 5.45 3.798
v 14.86 5.45 4.05
v 14.86 5.531 3.638
v 14.86 5.531 4.21
v 14.86 5.558 3.72
v 14.86 5.558 4.128
v 14.86 5.69 3.72
v 14.86 5.69 4.128
v 14.86 5.717 3.638
v 14.86 5.717 4.21
v 14.86 5.797 3.798
v 14.86 5.797 4.05
v 14.86 5.838 3.924
v 14.86 5.867 3.747
v 14.86 5.867 4.101
v 14.86 5.925 3.924
v 14.86 9.084 3.924
v 14.86 9.141 3.747
v 14.86 9.141 4.101
v 14.86 9.17 3.924
v 14.86 9.211 3.798
v 14.86 9.211 4.05
v 14.86 9.291 3.638
v 14.86 9.291 4.21
v 14.86 9.318 3.72
v 14.86 9.318 4.128
v 14.86 9.451 3.72
v 14.86 9.451 4.128
v 14.86 9.477 3.638
v 14.86 9.477 4.21
v 14.86 9.558 3.798
v 14.86 9.558 4.05
v 14.86 9.599 3.924
v 14.86 9.628 3.747
v 14.86 9.628 4.101
v 14.86 9.685 3.924
v 23.65 5.323 3.924
v 23.65 5.38 3.747
v 23.65 5.38 4.101
v 23.65 5.409 3.924
v 23.65 5.45 3.798
v 23.65 5.45 4.05
v 23.65 5.531 3.638
v 23.65 5.531 4.21
v 23.65 5.558 3.72
v 23.65 5.558 4.128
v 23.65 5.69 3.72
v 23.65 5.69 4.128
v 23.65 5.717 3.638
v 23.65 5.717 4.21
v 23.65 5.797 3.798
v 23.65 5.797 4.05
v 23.65 5.838 3.924
v 23.65 5.867 3.747
v 23.65 5.867 4.101
v 23.65 5.925 3.924
v 23.65 9.084 3.924
v 23.65 9.141 3.747
v 23.65 9.141 4.101
v 23.65 9.17 3.924
v 23.65 9.211 3.798
v 23.65 9.211 4.05
v 23.65 9.291 3.638
v 23.65 9.291 4.21
v 23.65 9.318 3.72
v 23.65 9.318 4.128
v 23.65 9.451 3.72
v 23.65 9.451 4.128
v 23.65 9.477 3.638
v 23.65 9.477 4.21
v 23.65 9.558 3.798
v 23.65 9.558 4.05
v 23.65 9.599 3.924
v 23.65 9.628 3.747
v 23.65 9.628 4.101
v 23.65 9.685 3.924
vn 0 -0.741 0.6715
vn 0 -0.741 0.6715
vn -1 0 0
vn -1 0 0
vn 0 -0.9942 0.1077
vn 0 -0.9942 0.1077
vn -1 0 0
vn -1 0 0
vn 0 -1 0
vn 0 -1 0
vn 0 -1 0
vn 0 -1 0
vn 0 -0.809 0.5878
vn 0 -0.809 0.5878
vn 0 -0.809 0.5878
vn 0 -0.809 0.5878
vn 0.007379 0.996 0.08942
vn 0.007379 0.996 0.08942
vn -1 0 0
vn -1 0 0
vn -0.0007701 0.9318 -0.363
vn -0.0007701 0.9318 -0.363
vn -1 0 0
vn -1 0 0
vn 0.1282 0.8488 -0.513
vn 0.1282 0.8488 -0.513
vn 0.1282 0.8488 -0.513
vn 0.1282 0.8488 -0.513
vn 0.1513 0.9884 0.0143
vn 0.1513 0.9884 0.0143
vn 0.1513 0.9884 0.0143
vn 0.1513 0.9884 0.0143
vn 0 -0.2048 0.9788
vn 0 -0.2048 0.9788
vn -1 0 0
vn -1 0 0
vn 0 -0.309 0.9511
vn 0 -0.309 0.9511
vn 0 -0.309 0.9511
vn 0 -0.309 0.9511
vn 0.02655 0.5183 -0.8548
vn 0.02655 0.5183 -0.8548
vn -1 0 0
vn -1 0 0
vn 0.1501 0.3357 -0.9299
vn 0.1501 0.3357 -0.9299
vn 0.1501 0.3357 -0.9299
vn 0.1501 0.3357 -0.9299
vn 0 0.4096 0.9123
vn 0 0.4096 0.9123
vn -1 0 0
vn -1 0 0
vn 0 0.309 0.9511
vn 0 0.309 0.9511
vn 0 0.309 0.9511
vn 0 0.309 0.9511
vn 0.03787 -0.2872 -0.9571
vn 0.03787 -0.2872 -0.9571
vn -1 0 0
vn -1 0 0
vn 0.1508 -0.3668 -0.918
vn 0.1508 -0.3668 -0.918
vn 0.1508 -0.3668 -0.918
vn 0.1508 -0.3668 -0.918
vn 0 0.8676 0.4973
vn 0 0.8676 0.4973
vn -1 0 0
vn -1 0 0
vn 0 0.809 0.5878
vn 0 0.809 0.5878
vn 0 0.809 0.5878
vn 0 0.809 0.5878
vn 0.01076 -0.8411 -0.5408
vn 0.01076 -0.8411 -0.5408
vn -1 0 0
vn -1 0 0
vn 0.1286 -0.839 -0.5288
vn 0.1286 -0.839 -0.5288
vn 0.1286 -0.839 -0.5288
vn 0.1286 -0.839 -0.5288
vn 0 0.9942 -0.1077
vn 0 0.9942 -0.1077
vn -1 0 0
vn -1 0 0
vn 0 1 0
vn 0 1 0
vn 0 1 0
vn 0 1 0
vn -0.0008194 -0.996 -0.08943
vn -0.0008194 -0.996 -0.08943
vn -1 0 0
vn -1 0 0
vn 0.1485 -0.9887 -0.01799
vn 0.1485 -0.9887 -0.01799
vn 0.1485 -0.9887 -0.01799
vn 0.1485 -0.9887 -0.01799
vn 0 0.741 -0.6715
vn 0 0.741 -0.6715
vn -1 0 0
vn -1 0 0
vn 0 0.809 -0.5878
vn 0 0.809 -0.5878
vn 0 0.809 -0.5878
vn 0 0.809 -0.5878
vn 0.03248 -0.9313 0.3627
vn 0.03248 -0.9313 0.3627
vn -1 0 0
vn -1 0 0
vn 0.2343 -0.8345 0.4986
vn 0.2343 -0.8345 0.4986
vn 0.2343 -0.8345 0.4986
vn 0.2343 -0.8345 0.4986
vn 0 0.2048 -0.9788
vn 0 0.2048 -0.9788
vn -1 0 0
vn -1 0 0
vn 0 0.309 -0.9511
vn 0 0.309 -0.9511
vn 0 0.309 -0.9511
vn 0 0.309 -0.9511
vn 0.1043 -0.5165 0.8499
vn 0.1043 -0.5165 0.8499
vn -1 0 0
vn -1 0 0
vn 0.3294 -0.324 0.8869
vn 0.3294 -0.324 0.8869
vn 0.3294 -0.324 0.8869
vn 0.3294 -0.324 0.8869
vn 0 -0.4096 -0.9123
vn 0 -0.4096 -0.9123
vn -1 0 0
vn -1 0 0
vn 0 -0.309 -0.9511
vn 0 -0.309 -0.9511
vn 0 -0.309 -0.9511
vn 0 -0.309 -0.9511
vn 0.1247 0.2861 0.9501
vn 0.1247 0.2861 0.9501
vn -1 0 0
vn -1 0 0
vn 0.3286 0.3549 0.8752
vn 0.3286 0.3549 0.8752
vn 0.3286 0.3549 0.8752
vn 0.3286 0.3549 0.8752
vn 0 -0.8676 -0.4973
vn 0 -0.8676 -0.4973
vn -1 0 0
vn -1 0 0
vn 0 -0.809 -0.5878
vn 0 -0.809 -0.5878
vn 0 -0.809 -0.5878
vn 0 -0.809 -0.5878
vn 0.0602 0.8398 0.5396
vn 0.0602 0.8398 0.5396
vn -1 0 0
vn -1 0 0
vn 0.2365 0.825 0.5132
vn 0.2365 0.825 0.5132
vn 0.2365 0.825 0.5132
vn 0.2365 0.825 0.5132
vn 0 -1 0
vn 0 -1 0
vn 0 -1 0
vn 0 -1 0
vn 0 -0.809 0.5878
vn 0 -0.809 0.5878
vn 0 -0.809 0.5878
vn 0 -0.809 0.5878
vn 0.1307 0.8081 -0.5744
vn 0.1307 0.8081 -0.5744
vn 0.1307 0.8081 -0.5744
vn 0.1307 0.8081 -0.5744
vn 0.1517 0.9884 0.003964
vn 0.1517 0.9884 0.003964
vn 0.1517 0.9884 0.003964
vn 0.1517 0.9884 0.003964
vn 0 -0.309 0.9511
vn 0 -0.309 0.9511
vn 0 -0.309 0.9511
vn 0 -0.309 0.9511
vn 0.1347 0.3061 -0.9424
vn 0.1347 0.3061 -0.9424
vn 0.1347 0.3061 -0.9424
vn 0.1347 0.3061 -0.9424
vn 0 0.309 0.9511
vn 0 0.309 0.9511
vn 0 0.309 0.9511
vn 0 0.309 0.9511
vn 0.1286 -0.3165 -0.9398
vn 0.1286 -0.3165 -0.9398
vn 0.1286 -0.3165 -0.9398
vn 0.1286 -0.3165 -0.9398
vn 0 0.809 0.5878
vn 0 0.809 0.5878
vn 0 0.809 0.5878
vn 0 0.809 0.5878
vn 0.1206 -0.8062 -0.5792
vn 0.1206 -0.8062 -0.5792
vn 0.1206 -0.8062 -0.5792
vn 0.1206 -0.8062 -0.5792
vn 0 1 0
vn 0 1 0
vn 0 1 0
vn 0 1 0
vn 0.1495 -0.9887 -0.008363
vn 0.1495 -0.9887 -0.008363
vn 0.1495 -0.9887 -0.008363
vn 0.1495 -0.9887 -0.008363
vn 0 0.809 -0.5878
vn 0 0.809 -0.5878
vn 0 0.809 -0.5878
vn 0 0.809 -0.5878
vn 0.2185 -0.7977 0.5621
vn 0.2185 -0.7977 0.5621
vn 0.2185 -0.7977 0.5621
vn 0.2185 -0.7977 0.5621
vn 0 0.309 -0.9511
vn 0 0.309 -0.9511
vn 0 0.309 -0.9511
vn 0 0.309 -0.9511
vn 0.2742 -0.2991 0.914
vn 0.2742 -0.2991 0.914
vn 0.2742 -0.2991 0.914
vn 0.2742 -0.2991 0.914
vn 0 -0.309 -0.9511
vn 0 -0.309 -0.9511
vn 0 -0.309 -0.9511
vn 0 -0.309 -0.9511
vn 0.268 0.3097 0.9123
vn 0.268 0.3097 0.9123
vn 0.268 0.3097 0.9123
vn 0.268 0.3097 0.9123
vn 0 -0.809 -0.5878
vn 0 -0.809 -0.5878
vn 0 -0.809 -0.5878
vn 0 -0.809 -0.5878
vn 0.2105 0.7968 0.5664
vn 0.2105 0.7968 0.5664
vn 0.2105 0.7968 0.5664
vn 0.2105 0.7968 0.5664
vn 0 0.741 -0.6715
vn 0 0.741 -0.6715
vn 1 0 0
vn 1 0 0
vn 0 0.9942 -0.1077
vn 0 0.9942 -0.1077
vn 1 0 0
vn 1 0 0
vn 0 0.2048 -0.9788
vn 0 0.2048 -0.9788
vn 1 0 0
vn 1 0 0
vn 0 -0.4096 -0.9123
vn 0 -0.4096 -0.9123
vn 1 0 0
vn 1 0 0
vn 0 -0.8676 -0.4973
vn 0 -0.8676 -0.4973
vn 1 0 0
vn 1 0 0
vn 0 -0.9942 0.1077
vn 0 -0.9942 0.1077
vn 1 0 0
vn 1 0 0
vn 0 -0.741 0.6715
vn 0 -0.741 0.6715
vn 1 0 0
vn 1 0 0
vn 0 -0.2048 0.9788
vn 0 -0.2048 0.9788
vn 1 0 0
vn 1 0 0
vn 0 0.4096 0.9123
vn 0 0.4096 0.9123
vn 1 0 0
vn 1 0 0
vn 0 0.8676 0.4973
vn 0 0.8676 0.4973
vn 1 0 0
vn 1 0 0
vn 1 0 0
vn 1 0 0
vn 0 -0.8676 0.4973
vn 0 -0.8676 0.4973
vn 1 0 0
vn 1 0 0
vn 0 -0.9942 -0.1077
vn 0 -0.9942 -0.1077
vn 1 0 0
vn 1 0 0
vn 0 -0.4096 0.9123
vn 0 -0.4096 0.9123
vn 1 0 0
vn 1 0 0
vn 0 0.2048 0.9788
vn 0 0.2048 0.9788
vn 1 0 0
vn 1 0 0
vn 0 0.741 0.6715
vn 0 0.741 0.6715
vn 1 0 0
vn 1 0 0
vn 0 0.9942 0.1077
vn 0 0.9942 0.1077
vn 1 0 0
vn 1 0 0
vn 0 0.8676 -0.4973
vn 0 0.8676 -0.4973
vn 1 0 0
vn 1 0 0
vn 0 0.4096 -0.9123
vn 0 0.4096 -0.9123
vn 1 0 0
vn 1 0 0
vn 0 -0.2048 -0.9788
vn 0 -0.2048 -0.9788
vn 1 0 0
vn 1 0 0
vn 0 -0.741 -0.6715
vn 0 -0.741 -0.6715
vn 0 -0.741 0.6715
vn 0 -0.741 0.6715
vn -1 0 0
vn -1 0 0
vn 0 -0.9942 0.1077
vn 0 -0.9942 0.1077
vn -1 0 0
vn -1 0 0
vn 0 -1 0
vn 0 -1 0
vn 0 -1 0
vn 0 -1 0
vn 0 -0.809 0.5878
vn 0 -0.809 0.5878
vn 0 -0.809 0.5878
vn 0 -0.809 0.5878
vn 0.007379 0.996 0.08942
vn 0.007379 0.996 0.08942
vn -1 0 0
vn -1 0 0
vn -0.0007702 0.9318 -0.363
vn -0.0007702 0.9318 -0.363
vn -1 0 0
vn -1 0 0
vn 0.1282 0.8488 -0.513
vn 0.1282 0.8488 -0.513
vn 0.1282 0.8488 -0.513
vn 0.1282 0.8488 -0.513
vn 0.1513 0.9884 0.01429
vn 0.1513 0.9884 0.01429
vn 0.1513 0.9884 0.01429
vn 0.1513 0.9884 0.01429
vn 0 -0.2048 0.9788
vn 0 -0.2048 0.9788
vn -1 0 0
vn -1 0 0
vn 0 -0.309 0.9511
vn 0 -0.309 0.9511
vn 0 -0.309 0.9511
vn 0 -0.309 0.9511
vn 0.02655 0.5183 -0.8548
vn 0.02655 0.5183 -0.8548
vn -1 0 0
vn -1 0 0
vn 0.1501 0.3357 -0.9299
vn 0.1501 0.3357 -0.9299
vn 0.1501 0.3357 -0.9299
vn 0.1501 0.3357 -0.9299
vn 0 0.4096 0.9123
vn 0 0.4096 0.9123
vn -1 0 0
vn -1 0 0
vn 0 0.309 0.9511
vn 0 0.309 0.9511
vn 0 0.309 0.9511
vn 0 0.309 0.9511
vn 0.03787 -0.2872 -0.9571
vn 0.03787 -0.2872 -0.9571
vn -1 0 0
vn -1 0 0
vn 0.1508 -0.3668 -0.918
vn 0.1508 -0.3668 -0.918
vn 0.1508 -0.3668 -0.918
vn 0.1508 -0.3668 -0.918
vn 0 0.8676 0.4973
vn 0 0.8676 0.4973
vn -1 0 0
vn -1 0 0
vn 0 0.809 0.5878
vn 0 0.809 0.5878
vn 0 0.809 0.5878
vn 0 0.809 0.5878
vn 0.01076 -0.8411 -0.5408
vn 0.01076 -0.8411 -0.5408
vn -1 0 0
vn -1 0 0
vn 0.1286 -0.839 -0.5288
vn 0.1286 -0.839 -0.5288
vn 0.1286 -0.839 -0.5288
vn 0.1286 -0.839 -0.5288
vn 0 0.9942 -0.1077
vn 0 0.9942 -0.1077
vn -1 0 0
vn -1 0 0
vn 0 1 0
vn 0 1 0
vn 0 1 0
vn 0 1 0
vn -0.0008194 -0.996 -0.08943
vn -0.0008194 -0.996 -0.08943
vn -1 0 0
vn -1 0 0
vn 0.1485 -0.9887 -0.01799
vn 0.1485 -0.9887 -0.01799
vn 0.1485 -0.9887 -0.01799
vn 0.1485 -0.9887 -0.01799
vn 0 0.741 -0.6715
vn 0 0.741 -0.6715
vn -1 0 0
vn -1 0 0
vn 0 0.809 -0.5878
vn 0 0.809 -0.5878
vn 0 0.809 -0.5878
vn 0 0.809 -0.5878
vn 0.03248 -0.9313 0.3627
vn 0.03248 -0.9313 0.3627
vn -1 0 0
vn -1 0 0
vn 0.2343 -0.8345 0.4986
vn 0.2343 -0.8345 0.4986
vn 0.2343 -0.8345 0.4986
vn 0.2343 -0.8345 0.4986
vn 0 0.2048 -0.9788
vn 0 0.2048 -0.9788
vn -1 0 0
vn -1 0 0
vn 0 0.309 -0.9511
vn 0 0.309 -0.9511
vn 0 0.309 -0.9511
vn 0 0.309 -0.9511
vn 0.1043 -0.5165 0.8499
vn 0.1043 -0.5165 0.8499
vn -1 0 0
vn -1 0 0
vn 0.3294 -0.324 0.8869
vn 0.3294 -0.324 0.8869
vn 0.3294 -0.324 0.8869
vn 0.3294 -0.324 0.8869
vn 0 -0.4096 -0.9123
vn 0 -0.4096 -0.9123
vn -1 0 0
vn -1 0 0
vn 0 -0.309 -0.9511
vn 0 -0.309 -0.9511
vn 0 -0.309 -0.9511
vn 0 -0.309 -0.9511
vn 0.1247 0.2861 0.9501
vn 0.1247 0.2861 0.9501
vn -1 0 0
vn -1 0 0
vn 0.3286 0.3549 0.8752
vn 0.3286 0.3549 0.8752
vn 0.3286 0.3549 0.8752
vn 0.3286 0.3549 0.8752
vn 0 -0.8676 -0.4973
vn 0 -0.8676 -0.4973
vn -1 0 0
vn -1 0 0
vn 0 -0.809 -0.5878
vn 0 -0.809 -0.5878
vn 0 -0.809 -0.5878
vn 0 -0.809 -0.5878
vn 0.0602 0.8398 0.5396
vn 0.0602 0.8398 0.5396
vn -1 0 0
vn -1 0 0
vn 0.2365 0.825 0.5132
vn 0.2365 0.825 0.5132
vn 0.2365 0.825 0.5132
vn 0.2365 0.825 0.5132
vn 0 -1 0
vn 0 -1 0
vn 0 -1 0
vn 0 -1 0
vn 0 -0.809 0.5878
vn 0 -0.809 0.5878
vn 0 -0.809 0.5878
vn 0 -0.809 0.5878
vn 0.1307 0.8081 -0.5744
vn 0.1307 0.8081 -0.5744
vn 0.1307 0.8081 -0.5744
vn 0.1307 0.8081 -0.5744
vn 0.1517 0.9884 0.003963
vn 0.1517 0.9884 0.003963
vn 0.1517 0.9884 0.003963
vn 0.1517 0.9884 0.003963
vn 0 -0.309 0.9511
vn 0 -0.309 0.9511
vn 0 -0.309 0.9511
vn 0 -0.309 0.9511
vn 0.1347 0.3061 -0.9424
vn 0.1347 0.3061 -0.9424
vn 0.1347 0.3061 -0.9424
vn 0.1347 0.3061 -0.9424
vn 0 0.309 0.9511
vn 0 0.309 0.9511
vn 0 0.309 0.9511
vn 0 0.309 0.9511
vn 0.1286 -0.3165 -0.9398
vn 0.1286 -0.3165 -0.9398
vn 0.1286 -0.3165 -0.9398
vn 0.1286 -0.3165 -0.9398
vn 0 0.809 0.5878
vn 0 0.809 0.5878
vn 0 0.809 0.5878
vn 0 0.809 0.5878
vn 0.1206 -0.8062 -0.5792
vn 0.1206 -0.8062 -0.5792
vn 0.1206 -0.8062 -0.5792
vn 0.1206 -0.8062 -0.5792
vn 0 1 0
vn 0 1 0
vn 0 1 0
vn 0 1 0
vn 0.1495 -0.9887 -0.008363
vn 0.1495 -0.9887 -0.008363
vn 0.1495 -0.9887 -0.008363
vn 0.1495 -0.9887 -0.008363
vn 0 0.809 -0.5878
vn 0 0.809 -0.5878
vn 0 0.809 -0.5878
vn 0 0.809 -0.5878
vn 0.2185 -0.7977 0.5621
vn 0.2185 -0.7977 0.5621
vn 0.2185 -0.7977 0.5621
vn 0.2185 -0.7977 0.5621
vn 0 0.309 -0.9511
vn 0 0.309 -0.9511
vn 0 0.309 -0.9511
vn 0 0.309 -0.9511
vn 0.2742 -0.2991 0.914
vn 0.2742 -0.2991 0.914
vn 0.2742 -0.2991 0.914
vn 0.2742 -0.2991 0.914
vn 0 -0.309 -0.9511
vn 0 -0.309 -0.9511
vn 0 -0.309 -0.9511
vn 0 -0.309 -0.9511
vn 0.268 0.3097 0.9123
vn 0.268 0.3097 0.9123
vn 0.268 0.3097 0.9123
vn 0.268 0.3097 0.9123
vn 0 -0.809 -0.5878
vn 0 -0.809 -0.5878
vn 0 -0.809 -0.5878
vn 0 -0.809 -0.5878
vn 0.2105 0.7968 0.5664
vn 0.2105 0.7968 0.5664
vn 0.2105 0.7968 0.5664
vn 0.2105 0.7968 0.5664
vn 0 0.741 -0.6715
vn 0 0.741 -0.6715
vn 1 0 0
vn 1 0 0
vn 0 0.9942 -0.1077
vn 0 0.9942 -0.1077
vn 1 0 0
vn 1 0 0
vn 0 0.2048 -0.9788
vn 0 0.2048 -0.9788
vn 1 0 0
vn 1 0 0
vn 0 -0.4096 -0.9123
vn 0 -0.4096 -0.9123
vn 1 0 0
vn 1 0 0
vn 0 -0.8676 -0.4973
vn 0 -0.8676 -0.4973
vn 1 0 0
vn 1 0 0
vn 0 -0.9942 0.1077
vn 0 -0.9942 0.1077
vn 1 0 0
vn 1 0 0
vn 0 -0.741 0.6715
vn 0 -0.741 0.6715
vn 1 0 0
vn 1 0 0
vn 0 -0.2048 0.9788
vn 0 -0.2048 0.9788
vn 1 0 0
vn 1 0 0
vn 0 0.4096 0.9123
vn 0 0.4096 0.9123
vn 1 0 0
vn 1 0 0
vn 0 0.8676 0.4973
vn 0 0.8676 0.4973
vn 1 0 0
vn 1 0 0
vn 1 0 0
vn 1 0 0
vn 0 -0.8676 0.4973
vn 0 -0.8676 0.4973
vn 1 0 0
vn 1 0 0
vn 0 -0.9942 -0.1077
vn 0 -0.9942 -0.1077
vn 1 0 0
vn 1 0 0
vn 0 -0.4096 0.9123
vn 0 -0.4096 0.9123
vn 1 0 0
vn 1 0 0
vn 0 0.2048 0.9788
vn 0 0.2048 0.9788
vn 1 0 0
vn 1 0 0
vn 0 0.741 0.6715
vn 0 0.741 0.6715
vn 1 0 0
vn 1 0 0
vn 0 0.9942 0.1077
vn 0 0.9942 0.1077
vn 1 0 0
vn 1 0 0
vn 0 0.8676 -0.4973
vn 0 0.8676 -0.4973
vn 1 0 0
vn 1 0 0
vn 0 0.4096 -0.9123
vn 0 0.4096 -0.9123
vn 1 0 0
vn 1 0 0
vn 0 -0.2048 -0.9788
vn 0 -0.2048 -0.9788
vn 1 0 0
vn 1 0 0
vn 0 -0.741 -0.6715
vn 0 -0.741 -0.6715
f 37//5 35//1 75//13 77//9
f 38//21 40//17 80//29 78//25
f 35//2 31//33 71//37 75//14
f 33//41 38//22 78//26 73//45
f 31//34 29//49 69//53 71//38
f 27//57 33//42 73//46 67//61
f 29//50 25//65 65//69 69//54
f 22//73 27//58 67//62 62//77
f 25//66 24//81 64//85 65//70
f 21//89 22//74 62//78 61//93
f 24//82 26//97 66//101 64//86
f 23//105 21//90 61//94 63//109
f 26//98 30//113 70//117 66//102
f 28//121 23//106 63//110 68//125
f 30//114 32//129 72//133 70//118
f 34//137 28//122 68//126 74//141
f 32//130 36//145 76//149 72//134
f 39//153 34//138 74//142 79//157
f 36//146 37//6 77//10 76//150
f 40//18 39//154 79//158 80//30
f 77//11 75//15 115//165 117//161
f 78//27 80//31 120//173 118//169
f 75//16 71//39 111//177 115//166
f 73//47 78//28 118//170 113//181
f 71//40 69//55 109//185 111//178
f 67//63 73//48 113//182 107//189
f 69//56 65//71 105//193 109//186
f 62//79 67//64 107//190 102//197
f 65//72 64//87 104//201 105//194
f 61//95 62//80 102//198 101//205
f 64//88 66//103 106//209 104//202
f 63//111 61//96 101//206 103//213
f 66//104 70//119 110//217 106//210
f 68//127 63//112 103//214 108//221
f 70//120 72//135 112//225 110//218
f 74//143 68//128 108//222 114//229
f 72//136 76//151 116//233 112//226
f 79//159 74//144 114//230 119//237
f 76//152 77//12 117//162 116//234
f 80//32 79//160 119//238 120//174
f 35//3 37//7 40//19 38//23
f 31//35 35//4 38//24 33//43
f 29//51 31//36 33//44 27//59
f 25//67 29//52 27//60 22//75
f 24//83 25//68 22//76 21//91
f 26//99 24//84 21//92 23//107
f 30//115 26//100 23//108 28//123
f 32//131 30//116 28//124 34//139
f 36//147 32//132 34//140 39//155
f 37//8 36//148 39//156 40//20
f 118//171 120//175 160//245 158//241
f 113//183 118//172 158//242 153//249
f 107//191 113//184 153//250 147//253
f 102//199 107//192 147//254 142//257
f 101//207 102//200 142//258 141//261
f 103//215 101//208 141//262 143//265
f 108//223 103//216 143//266 148//269
f 114//231 108//224 148//270 154//273
f 119//239 114//232 154//274 159//277
f 120//176 119//240 159//278 160//246
f 158//243 160//247 157//285 155//281
f 153//251 158//244 155//282 151//289
f 147//255 153//252 151//290 149//293
f 142//259 147//256 149//294 145//297
f 141//263 142//260 145//298 144//301
f 143//267 141//264 144//302 146//305
f 148//271 143//268 146//306 150//309
f 154//275 148//272 150//310 152//313
f 159//279 154//276 152//314 156//317
f 160//248 159//280 156//318 157//286
f 155//283 157//287 117//163 115//167
f 151//291 155//284 115//168 111//179
f 149//295 151//292 111//180 109//187
f 145//299 149//296 109//188 105//195
f 144//303 145//300 105//196 104//203
f 146//307 144//304 104//204 106//211
f 150//311 146//308 106//212 110//219
f 152//315 150//312 110//220 112//227
f 156//319 152//316 112//228 116//235
f 157//288 156//320 116//236 117//164
f 17//325 15//321 55//333 57//329
f 18//341 20//337 60//349 58//345
f 15//322 11//353 51//357 55//334
f 13//361 18//342 58//346 53//365
f 11//354 9//369 49//373 51//358
f 7//377 13//362 53//366 47//381
f 9//370 5//385 45//389 49//374
f 2//393 7//378 47//382 42//397
f 5//386 4//401 44//405 45//390
f 1//409 2//394 42//398 41//413
f 4//402 6//417 46//421 44//406
f 3//425 1//410 41//414 43//429
f 6//418 10//433 50//437 46//422
f 8//441 3//426 43//430 48//445
f 10//434 12//449 52//453 50//438
f 14//457 8//442 48//446 54//461
f 12//450 16//465 56//469 52//454
f 19//473 14//458 54//462 59//477
f 16//466 17//326 57//330 56//470
f 20//338 19//474 59//478 60//350
f 57//331 55//335 95//485 97//481
f 58//347 60//351 100//493 98//489
f 55//336 51//359 91//497 95//486
f 53//367 58//348 98//490 93//501
f 51//360 49//375 89//505 91//498
f 47//383 53//368 93//502 87//509
f 49//376 45//391 85//513 89//506
f 42//399 47//384 87//510 82//517
f 45//392 44//407 84//521 85//514
f 41//415 42//400 82//518 81//525
f 44//408 46//423 86//529 84//522
f 43//431 41//416 81//526 83//533
f 46//424 50//439 90//537 86//530
f 48//447 43//432 83//534 88//541
f 50//440 52//455 92//545 90//538
f 54//463 48//448 88//542 94//549
f 52//456 56//471 96//553 92//546
f 59//479 54//464 94//550 99//557
f 56//472 57//332 97//482 96//554
f 60//352 59//480 99//558 100//494
f 15//323 17//327 20//339 18//343
f 11//355 15//324 18//344 13//363
f 9//371 11//356 13//364 7//379
f 5//387 9//372 7//380 2//395
f 4//403 5//388 2//396 1//411
f 6//419 4//404 1//412 3//427
f 10//435 6//420 3//428 8//443
f 12//451 10//436 8//444 14//459
f 16//467 12//452 14//460 19//475
f 17//328 16//468 19//476 20//340
f 98//491 100//495 140//565 138//561
f 93//503 98//492 138//562 133//569
f 87//511 93//504 133//570 127//573
f 82//519 87//512 127//574 122//577
f 81//527 82//520 122//578 121//581
f 83//535 81//528 121//582 123//585
f 88//543 83//536 123//586 128//589
f 94//551 88//544 128//590 134//593
f 99//559 94//552 134//594 139//597
f 100//496 99//560 139//598 140//566
f 138//563 140//567 137//605 135//601
f 133//571 138//564 135//602 131//609
f 127//575 133//572 131//610 129//613
f 122//579 127//576 129//614 125//617
f 121//583 122//580 125//618 124//621
f 123//587 121//584 124//622 126//625
f 128//591 123//588 126//626 130//629
f 134//595 128//592 130//630 132//633
f 139//599 134//596 132//634 136//637
f 140//568 139//600 136//638 137//606
f 135//603 137//607 97//483 95//487
f 131//611 135//604 95//488 91//499
f 129//615 131//612 91//500 89//507
f 125//619 129//616 89//508 85//515
f 124//623 125//620 85//516 84//523
f 126//627 124//624 84//524 86//531
f 130//631 126//628 86//532 90//539
f 132//635 130//632 90//540 92//547
f 136//639 132//636 92//548 96//555
f 137//608 136//640 96//556 97//484
