# Rhino

g ______64
o object_1
v 3.495 3.546 0.9435
v 3.554 3.488 0.9435
v 3.693 3.744 0.9435
v 3.751 3.685 0.9435
v 4.009 4.06 0.04294
v 4.067 4.001 0.04294
v 4.206 4.257 0.04294
v 4.265 4.199 0.04294
vn -0.7071 0.7071 5.274e-16
vn -0.7071 0.7071 5.274e-16
vn -0.7071 0.7071 5.274e-16
vn -0.7071 0.7071 5.274e-16
vn -0.5504 -0.5504 -0.6277
vn -0.5504 -0.5504 -0.6277
vn -0.5504 -0.5504 -0.6277
vn -0.5504 -0.5504 -0.6277
vn 0.7071 -0.7071 -5.274e-16
vn 0.7071 -0.7071 -5.274e-16
vn 0.7071 -0.7071 -5.274e-16
vn 0.7071 -0.7071 -5.274e-16
vn 0.5504 0.5504 0.6277
vn 0.5504 0.5504 0.6277
vn 0.5504 0.5504 0.6277
vn 0.5504 0.5504 0.6277
vn -5.551e-17 6.661e-16 -1
vn -5.551e-17 6.661e-16 -1
vn -5.551e-17 6.661e-16 -1
vn -5.551e-17 6.661e-16 -1
vn 5.551e-17 -6.661e-16 1
vn 5.551e-17 -6.661e-16 1
vn 5.551e-17 -6.661e-16 1
vn 5.551e-17 -6.661e-16 1
f 7//1 5//3 1//4 3//2
f 5//5 6//7 2//8 1//6
f 6//9 8//11 4//12 2//10
f 8//13 7//15 3//16 4//14
f 5//18 7//17 8//20
f 8//20 6//19 5//18
f 1//22 4//24 3//21
f 4//24 1//22 2//23
o object_2
v 0.7394 0.7948 0.04294
v 0.7978 0.7364 0.04294
v 0.9369 0.9923 0.04294
v 0.9953 0.9339 0.04294
v 1.253 1.308 0.9435
v 1.311 1.25 0.9435
v 1.45 1.506 0.9435
v 1.509 1.447 0.9435
vn 0.7071 -0.7071 0
vn 0.7071 -0.7071 0
vn 0.7071 -0.7071 0
vn 0.7071 -0.7071 0
vn 0.5504 0.5504 -0.6277
vn 0.5504 0.5504 -0.6277
vn 0.5504 0.5504 -0.6277
vn 0.5504 0.5504 -0.6277
vn -0.7071 0.7071 0
vn -0.7071 0.7071 0
vn -0.7071 0.7071 0
vn -0.7071 0.7071 0
vn -0.5504 -0.5504 0.6277
vn -0.5504 -0.5504 0.6277
vn -0.5504 -0.5504 0.6277
vn -0.5504 -0.5504 0.6277
vn 5.551e-17 5.551e-17 -1
vn 5.551e-17 5.551e-17 -1
vn 5.551e-17 5.551e-17 -1
vn 5.551e-17 5.551e-17 -1
vn -5.551e-17 -5.551e-17 1
vn -5.551e-17 -5.551e-17 1
vn -5.551e-17 -5.551e-17 1
vn -5.551e-17 -5.551e-17 1
f 10//25 12//27 16//28 14//26
f 12//29 11//31 15//32 16//30
f 11//33 9//35 13//36 15//34
f 9//37 10//39 14//40 13//38
f 12//42 10//41 9//44
f 9//44 11//43 12//42
f 16//46 13//48 14//45
f 13//48 16//46 15//47
o object_3
v 0.7461 4.203 0.04294
v 0.8045 4.261 0.04294
v 0.9436 4.005 0.04294
v 1.002 4.064 0.04294
v 1.26 3.689 0.9435
v 1.318 3.748 0.9435
v 1.457 3.492 0.9435
v 1.516 3.55 0.9435
vn -0.7071 -0.7071 -2.776e-16
vn -0.7071 -0.7071 -2.776e-16
vn -0.7071 -0.7071 -2.776e-16
vn -0.7071 -0.7071 -2.776e-16
vn 0.5504 -0.5504 -0.6277
vn 0.5504 -0.5504 -0.6277
vn 0.5504 -0.5504 -0.6277
vn 0.5504 -0.5504 -0.6277
vn 0.7071 0.7071 2.776e-16
vn 0.7071 0.7071 2.776e-16
vn 0.7071 0.7071 2.776e-16
vn 0.7071 0.7071 2.776e-16
vn -0.5504 0.5504 0.6277
vn -0.5504 0.5504 0.6277
vn -0.5504 0.5504 0.6277
vn -0.5504 0.5504 0.6277
vn 1.11e-16 3.331e-16 -1
vn 1.11e-16 3.331e-16 -1
vn 1.11e-16 3.331e-16 -1
vn 1.11e-16 3.331e-16 -1
vn -1.11e-16 -3.331e-16 1
vn -1.11e-16 -3.331e-16 1
vn -1.11e-16 -3.331e-16 1
vn -1.11e-16 -3.331e-16 1
f 17//49 19//51 23//52 21//50
f 19//53 20//55 24//56 23//54
f 20//57 18//59 22//60 24//58
f 18//61 17//63 21//64 22//62
f 19//66 17//65 18//68
f 18//68 20//67 19//66
f 23//70 22//72 21//69
f 22//72 23//70 24//71
o object_4
v 3.498 1.447 0.9435
v 3.556 1.505 0.9435
v 3.695 1.249 0.9435
v 3.754 1.308 0.9435
v 4.011 0.9334 0.04294
v 4.069 0.9919 0.04294
v 4.209 0.7359 0.04294
v 4.267 0.7944 0.04294
vn 0.7071 0.7071 7.772e-16
vn 0.7071 0.7071 7.772e-16
vn 0.7071 0.7071 7.772e-16
vn 0.7071 0.7071 7.772e-16
vn -0.5504 0.5504 -0.6277
vn -0.5504 0.5504 -0.6277
vn -0.5504 0.5504 -0.6277
vn -0.5504 0.5504 -0.6277
vn -0.7071 -0.7071 -7.772e-16
vn -0.7071 -0.7071 -7.772e-16
vn -0.7071 -0.7071 -7.772e-16
vn -0.7071 -0.7071 -7.772e-16
vn 0.5504 -0.5504 0.6277
vn 0.5504 -0.5504 0.6277
vn 0.5504 -0.5504 0.6277
vn 0.5504 -0.5504 0.6277
vn 8.327e-16 2.776e-16 -1
vn 8.327e-16 2.776e-16 -1
vn 8.327e-16 2.776e-16 -1
vn 8.327e-16 2.776e-16 -1
vn -8.327e-16 -2.776e-16 1
vn -8.327e-16 -2.776e-16 1
vn -8.327e-16 -2.776e-16 1
vn -8.327e-16 -2.776e-16 1
f 32//73 30//75 26//76 28//74
f 30//77 29//79 25//80 26//78
f 29//81 31//83 27//84 25//82
f 31//85 32//87 28//88 27//86
f 30//90 32//89 31//92
f 31//92 29//91 30//90
f 26//94 27//96 28//93
f 27//96 26//94 25//95
o object_5
v 3.945 2.456 0.9435
v 3.945 2.538 0.9435
v 4.224 2.456 0.9435
v 4.224 2.538 0.9435
v 4.671 2.456 0.04294
v 4.671 2.538 0.04294
v 4.95 2.456 0.04294
v 4.95 2.538 0.04294
vn 0 1 0
vn 0 1 0
vn 0 1 0
vn 0 1 0
vn -0.7784 0 -0.6277
vn -0.7784 0 -0.6277
vn -0.7784 0 -0.6277
vn -0.7784 0 -0.6277
vn 0 -1 0
vn 0 -1 0
vn 0 -1 0
vn 0 -1 0
vn 0.7784 0 0.6277
vn 0.7784 0 0.6277
vn 0.7784 0 0.6277
vn 0.7784 0 0.6277
vn -2.776e-16 0 -1
vn -2.776e-16 0 -1
vn -2.776e-16 0 -1
vn -2.776e-16 0 -1
vn 2.776e-16 0 1
vn 2.776e-16 0 1
vn 2.776e-16 0 1
vn 2.776e-16 0 1
f 40//97 38//99 34//100 36//98
f 38//101 37//103 33//104 34//102
f 37//105 39//107 35//108 33//106
f 39//109 40//111 36//112 35//110
f 38//114 40//113 39//116
f 39//116 37//115 38//114
f 34//118 35//120 36//117
f 35//120 34//118 33//119
o object_6
v 0.5269 3.914 0.6575
v 0.527 3.915 0.6575
v 0.5271 3.915 0.6575
v 0.5271 3.915 0.6575
v 0.5271 3.915 0.6575
vn -0.7 0.6354 0.326
vn -0.6999 0.6355 0.3259
vn -0.6999 0.6356 0.3259
vn -0.6998 0.6356 0.326
vn -0.6999 0.6355 0.326
f 44//123 43//125 45//124
f 44//123 42//122 43//125
f 41//121 43//125 42//122
o object_7
v 0.7428 2.579 0.9253
v 0.7428 2.579 0.9923
v 0.7901 2.08 0.9253
v 0.7901 2.08 0.9923
v 0.838 3.071 0.9253
v 0.838 3.071 0.9923
v 0.9759 1.615 0.9253
v 0.9759 1.615 0.9923
v 1.068 3.516 0.9253
v 1.068 3.516 0.9923
v 1.285 1.221 0.9253
v 1.285 1.221 0.9923
v 1.414 3.879 0.9253
v 1.414 3.879 0.9923
v 1.693 0.9297 0.9253
v 1.693 0.9297 0.9923
v 1.848 4.129 0.9253
v 1.848 4.129 0.9923
v 2.167 0.7655 0.9253
v 2.167 0.7655 0.9923
v 2.335 4.247 0.9253
v 2.335 4.247 0.9923
v 2.667 0.7413 0.9253
v 2.667 0.7413 0.9923
v 2.836 4.222 0.9253
v 2.836 4.222 0.9923
v 3.154 0.859 0.9253
v 3.154 0.859 0.9923
v 3.309 4.058 0.9253
v 3.309 4.058 0.9923
v 3.589 1.109 0.9253
v 3.589 1.109 0.9923
v 3.717 3.767 0.9253
v 3.717 3.767 0.9923
v 3.935 1.472 0.9253
v 3.935 1.472 0.9923
v 4.027 3.373 0.9253
v 4.027 3.373 0.9923
v 4.165 1.917 0.9253
v 4.165 1.917 0.9923
v 4.212 2.908 0.9253
v 4.212 2.908 0.9923
v 4.26 2.409 0.9253
v 4.26 2.409 0.9923
vn 0.9448 -0.3278 0
vn 0.9448 -0.3278 0
vn 0.8141 -0.5807 0
vn 0.8141 -0.5807 0
vn 0.6176 -0.7865 0
vn 0.6176 -0.7865 0
vn 0.371 -0.9286 0
vn 0.371 -0.9286 0
vn 0.09431 -0.9955 0
vn 0.09431 -0.9955 0
vn -0.19 -0.9818 0
vn -0.19 -0.9818 0
vn -0.4589 -0.8885 0
vn -0.4589 -0.8885 0
vn -0.6906 -0.7232 0
vn -0.6906 -0.7232 0
vn -0.8664 -0.4994 0
vn -0.8664 -0.4994 0
vn -0.972 -0.235 0
vn -0.972 -0.235 0
vn -0.9988 0.04833 0
vn -0.9988 0.04833 0
vn -0.9448 0.3278 0
vn -0.9448 0.3278 0
vn -0.8141 0.5807 0
vn -0.8141 0.5807 0
vn -0.6176 0.7865 0
vn -0.6176 0.7865 0
vn -0.371 0.9286 0
vn -0.371 0.9286 0
vn -0.09431 0.9955 0
vn -0.09431 0.9955 0
vn 0.19 0.9818 0
vn 0.19 0.9818 0
vn 0.4589 0.8885 0
vn 0.4589 0.8885 0
vn 0.6906 0.7232 0
vn 0.6906 0.7232 0
vn 0.8664 0.4994 0
vn 0.8664 0.4994 0
vn 0.972 0.235 0
vn 0.972 0.235 0
vn 0.9988 -0.04833 0
vn 0.9988 -0.04833 0
vn 0.9448 -0.3278 0
vn 0.9448 -0.3278 0
vn 0 0 1
vn 0 0 1
vn 0 0 1
vn 0 0 1
vn 0 0 1
vn 0 0 1
vn 0 0 1
vn 0 0 1
vn 0 0 1
vn 0 0 1
vn 0 0 1
vn 0 0 1
vn 0 0 1
vn 0 0 1
vn 0 0 1
vn 0 0 1
vn 0 0 1
vn 0 0 1
vn 0 0 1
vn 0 0 1
vn 0 0 1
vn 0 0 1
vn 0 0 -1
vn 0 0 -1
vn 0 0 -1
vn 0 0 -1
vn 0 0 -1
vn 0 0 -1
vn 0 0 -1
vn 0 0 -1
vn 0 0 -1
vn 0 0 -1
vn 0 0 -1
vn 0 0 -1
vn 0 0 -1
vn 0 0 -1
vn 0 0 -1
vn 0 0 -1
vn 0 0 -1
vn 0 0 -1
vn 0 0 -1
vn 0 0 -1
vn 0 0 -1
vn 0 0 -1
f 85//126 81//128 80//129 84//127
f 81//128 77//130 76//131 80//129
f 77//130 73//132 72//133 76//131
f 73//132 69//134 68//135 72//133
f 69//134 65//136 64//137 68//135
f 65//136 61//138 60//139 64//137
f 61//138 57//140 56//141 60//139
f 57//140 53//142 52//143 56//141
f 53//142 49//144 48//145 52//143
f 49//144 47//146 46//147 48//145
f 47//146 51//148 50//149 46//147
f 51//148 55//150 54//151 50//149
f 55//150 59//152 58//153 54//151
f 59//152 63//154 62//155 58//153
f 63//154 67//156 66//157 62//155
f 67//156 71//158 70//159 66//157
f 71//158 75//160 74//161 70//159
f 75//160 79//162 78//163 74//161
f 79//162 83//164 82//165 78//163
f 83//164 87//166 86//167 82//165
f 87//166 89//168 88//169 86//167
f 89//168 85//170 84//171 88//169
f 71//188 59//185 55//184
f 71//188 67//187 63//186
f 59//185 71//188 63//186
f 49//181 71//188 55//184
f 47//182 49//181 51//183
f 49//181 55//184 51//183
f 57//179 61//178 53//180
f 53//180 61//178 65//177
f 65//177 49//181 53//180
f 81//173 71//188 49//181
f 71//188 83//191 79//190
f 87//192 71//188 89//193
f 87//192 83//191 71//188
f 71//188 81//173 89//193
f 69//176 73//175 65//177
f 81//173 65//177 73//175
f 77//174 81//173 73//175
f 65//177 81//173 49//181
f 81//173 85//172 89//193
f 79//190 75//189 71//188
f 70//210 54//206 58//207
f 70//210 62//208 66//209
f 58//207 62//208 70//210
f 48//203 54//206 70//210
f 46//204 50//205 48//203
f 48//203 50//205 54//206
f 56//201 52//202 60//200
f 52//202 64//199 60//200
f 64//199 52//202 48//203
f 80//195 48//203 70//210
f 70//210 78//212 82//213
f 86//214 88//215 70//210
f 86//214 70//210 82//213
f 70//210 88//215 80//195
f 68//198 64//199 72//197
f 80//195 72//197 64//199
f 76//196 72//197 80//195
f 64//199 48//203 80//195
f 80//195 88//215 84//194
f 78//212 70//210 74//211
o object_8
v 0.04785 2.151 0.002529
v 0.04785 2.151 0.06408
v 0.04915 2.856 0.002529
v 0.04915 2.856 0.06408
v 0.2454 1.473 0.002529
v 0.2454 1.473 0.06408
v 0.2492 3.533 0.002529
v 0.2492 3.533 0.06408
v 0.6257 0.8789 0.002529
v 0.6257 0.8789 0.06408
v 0.6317 4.126 0.002529
v 0.6317 4.126 0.06408
v 1.158 0.4159 0.002529
v 1.158 0.4159 0.06408
v 1.166 4.587 0.002529
v 1.166 4.587 0.06408
v 1.799 0.1216 0.002529
v 1.799 0.1216 0.06408
v 1.808 4.879 0.002529
v 1.808 4.879 0.06408
v 2.498 0.01994 0.002529
v 2.498 0.01994 0.06408
v 2.507 4.978 0.002529
v 2.507 4.978 0.06408
v 3.196 0.1191 0.002529
v 3.196 0.1191 0.06408
v 3.205 4.876 0.002529
v 3.205 4.876 0.06408
v 3.838 0.411 0.002529
v 3.838 0.411 0.06408
v 3.846 4.582 0.002529
v 3.846 4.582 0.06408
v 4.373 0.872 0.002529
v 4.373 0.872 0.06408
v 4.379 4.119 0.002529
v 4.379 4.119 0.06408
v 4.755 1.465 0.002529
v 4.755 1.465 0.06408
v 4.759 3.524 0.002529
v 4.759 3.524 0.06408
v 4.955 2.142 0.002529
v 4.955 2.142 0.06408
v 4.956 2.847 0.002529
v 4.956 2.847 0.06408
vn -0.001842 -1 0
vn -0.001842 -1 0
vn -0.2835 -0.959 0
vn -0.2835 -0.959 0
vn -0.5422 -0.8403 0
vn -0.5422 -0.8403 0
vn -0.757 -0.6535 0
vn -0.757 -0.6535 0
vn -0.9104 -0.4137 0
vn -0.9104 -0.4137 0
vn -0.9901 -0.1405 0
vn -0.9901 -0.1405 0
vn -0.9896 0.1441 0
vn -0.9896 0.1441 0
vn -0.9089 0.4171 0
vn -0.9089 0.4171 0
vn -0.7545 0.6563 0
vn -0.7545 0.6563 0
vn -0.5391 0.8422 0
vn -0.5391 0.8422 0
vn -0.28 0.96 0
vn -0.28 0.96 0
vn 0.001842 1 0
vn 0.001842 1 0
vn 0.2835 0.959 0
vn 0.2835 0.959 0
vn 0.5422 0.8403 0
vn 0.5422 0.8403 0
vn 0.757 0.6535 0
vn 0.757 0.6535 0
vn 0.9104 0.4137 0
vn 0.9104 0.4137 0
vn 0.9901 0.1405 0
vn 0.9901 0.1405 0
vn 0.9896 -0.1441 0
vn 0.9896 -0.1441 0
vn 0.9089 -0.4171 0
vn 0.9089 -0.4171 0
vn 0.7545 -0.6563 0
vn 0.7545 -0.6563 0
vn 0.5391 -0.8422 0
vn 0.5391 -0.8422 0
vn 0.28 -0.96 0
vn 0.28 -0.96 0
vn -0.001842 -1 0
vn -0.001842 -1 0
vn 0 0 1
vn 0 0 1
vn 0 0 1
vn 0 0 1
vn 0 0 1
vn 0 0 1
vn 0 0 1
vn 0 0 1
vn 0 0 1
vn 0 0 1
vn 0 0 1
vn 0 0 1
vn 0 0 1
vn 0 0 1
vn 0 0 1
vn 0 0 1
vn 0 0 1
vn 0 0 1
vn 0 0 1
vn 0 0 1
vn 0 0 1
vn 0 0 1
vn 0 0 -1
vn 0 0 -1
vn 0 0 -1
vn 0 0 -1
vn 0 0 -1
vn 0 0 -1
vn 0 0 -1
vn 0 0 -1
vn 0 0 -1
vn 0 0 -1
vn 0 0 -1
vn 0 0 -1
vn 0 0 -1
vn 0 0 -1
vn 0 0 -1
vn 0 0 -1
vn 0 0 -1
vn 0 0 -1
vn 0 0 -1
vn 0 0 -1
vn 0 0 -1
vn 0 0 -1
f 111//216 107//218 106//219 110//217
f 107//218 103//220 102//221 106//219
f 103//220 99//222 98//223 102//221
f 99//222 95//224 94//225 98//223
f 95//224 91//226 90//227 94//225
f 91//226 93//228 92//229 90//227
f 93//228 97//230 96//231 92//229
f 97//230 101//232 100//233 96//231
f 101//232 105//234 104//235 100//233
f 105//234 109//236 108//237 104//235
f 109//236 113//238 112//239 108//237
f 113//238 117//240 116//241 112//239
f 117//240 121//242 120//243 116//241
f 121//242 125//244 124//245 120//243
f 125//244 129//246 128//247 124//245
f 129//246 133//248 132//249 128//247
f 133//248 131//250 130//251 132//249
f 131//250 127//252 126//253 130//251
f 127//252 123//254 122//255 126//253
f 123//254 119//256 118//257 122//255
f 119//256 115//258 114//259 118//257
f 115//258 111//260 110//261 114//259
f 125//276 121//275 117//274
f 133//278 129//277 125//276
f 131//279 125//276 117//274
f 117//274 105//271 99//265
f 113//273 109//272 117//274
f 109//272 105//271 117//274
f 97//269 93//268 101//270
f 105//271 101//270 93//268
f 93//268 95//266 105//271
f 133//278 125//276 131//279
f 117//274 123//281 127//280
f 115//283 119//282 123//281
f 99//265 123//281 117//274
f 115//283 123//281 111//262
f 93//268 91//267 95//266
f 105//271 95//266 99//265
f 103//264 107//263 99//265
f 107//263 123//281 99//265
f 123//281 107//263 111//262
f 117//274 127//280 131//279
f 124//298 116//296 120//297
f 132//300 124//298 128//299
f 130//301 116//296 124//298
f 116//296 98//287 104//293
f 112//295 116//296 108//294
f 108//294 116//296 104//293
f 96//291 100//292 92//290
f 104//293 92//290 100//292
f 92//290 104//293 94//288
f 132//300 130//301 124//298
f 116//296 126//302 122//303
f 114//305 122//303 118//304
f 98//287 116//296 122//303
f 114//305 110//284 122//303
f 92//290 94//288 90//289
f 104//293 98//287 94//288
f 102//286 98//287 106//285
f 106//285 98//287 122//303
f 122//303 110//284 106//285
f 116//296 130//301 126//302
o object_9
v 0.172 2.655 0.03133
v 0.1896 2.174 0.03133
v 0.2533 3.13 0.03133
v 0.302 1.716 0.03133
v 0.4255 3.568 0.03133
v 0.4943 1.307 0.03133
v 0.6705 3.949 0.03133
v 0.745 0.961 0.03133
v 0.8252 2.612 0.9506
v 0.8379 2.265 0.9506
v 0.8837 2.953 0.9506
v 0.9188 1.936 0.9506
v 0.9648 4.258 0.03133
v 1.008 3.269 0.9506
v 1.054 0.6667 0.03133
v 1.057 1.641 0.9506
v 1.184 3.543 0.9506
v 1.238 1.392 0.9506
v 1.31 4.509 0.03133
v 1.396 3.766 0.9506
v 1.435 0.4217 0.03133
v 1.46 1.18 0.9506
v 1.645 3.946 0.9506
v 1.72 4.701 0.03133
v 1.734 1.004 0.9506
v 1.874 0.2495 0.03133
v 1.94 4.084 0.9506
v 2.05 0.88 0.9506
v 2.178 4.814 0.03133
v 2.269 4.165 0.9506
v 2.348 0.1682 0.03133
v 2.392 0.8214 0.9506
v 2.615 4.178 0.9506
v 2.659 4.831 0.03133
v 2.738 0.8341 0.9506
v 2.829 0.1858 0.03133
v 2.957 4.12 0.9506
v 3.067 0.915 0.9506
v 3.133 4.75 0.03133
v 3.273 3.996 0.9506
v 3.287 0.2983 0.03133
v 3.362 1.053 0.9506
v 3.547 3.819 0.9506
v 3.572 4.578 0.03133
v 3.611 1.234 0.9506
v 3.697 0.4906 0.03133
v 3.769 3.607 0.9506
v 3.823 1.457 0.9506
v 3.95 3.359 0.9506
v 3.953 4.333 0.03133
v 3.999 1.73 0.9506
v 4.042 0.7412 0.03133
v 4.088 3.064 0.9506
v 4.123 2.046 0.9506
v 4.169 2.734 0.9506
v 4.182 2.388 0.9506
v 4.262 4.038 0.03133
v 4.337 1.051 0.03133
v 4.513 3.693 0.03133
v 4.582 1.431 0.03133
v 4.705 3.283 0.03133
v 4.754 1.87 0.03133
v 4.817 2.825 0.03133
v 4.835 2.344 0.03133
vn 0.5364 -0.613 0.5801
vn 0.5364 -0.613 0.5801
vn 0.639 -0.5052 0.5801
vn 0.639 -0.5052 0.5801
vn 0.7244 -0.3725 0.5801
vn 0.7244 -0.3725 0.5801
vn 0.7844 -0.2196 0.5801
vn 0.7844 -0.2196 0.5801
vn 0.8127 -0.05418 0.5801
vn 0.8127 -0.05418 0.5801
vn 0.8066 0.1135 0.5801
vn 0.8066 0.1135 0.5801
vn 0.7674 0.2731 0.5801
vn 0.7674 0.2731 0.5801
vn 0.7004 0.4159 0.5801
vn 0.7004 0.4159 0.5801
vn 0.613 0.5364 0.5801
vn 0.613 0.5364 0.5801
vn 0.5052 0.639 0.5801
vn 0.5052 0.639 0.5801
vn 0.3725 0.7244 0.5801
vn 0.3725 0.7244 0.5801
vn 0.2196 0.7844 0.5801
vn 0.2196 0.7844 0.5801
vn 0.05418 0.8127 0.5801
vn 0.05418 0.8127 0.5801
vn -0.1135 0.8066 0.5801
vn -0.1135 0.8066 0.5801
vn -0.2731 0.7674 0.5801
vn -0.2731 0.7674 0.5801
vn -0.4159 0.7004 0.5801
vn -0.4159 0.7004 0.5801
vn -0.5364 0.613 0.5801
vn -0.5364 0.613 0.5801
vn -0.639 0.5052 0.5801
vn -0.639 0.5052 0.5801
vn -0.7244 0.3725 0.5801
vn -0.7244 0.3725 0.5801
vn -0.7844 0.2196 0.5801
vn -0.7844 0.2196 0.5801
vn -0.8127 0.05418 0.5801
vn -0.8127 0.05418 0.5801
vn -0.8066 -0.1135 0.5801
vn -0.8066 -0.1135 0.5801
vn -0.7674 -0.2731 0.5801
vn -0.7674 -0.2731 0.5801
vn -0.7004 -0.4159 0.5801
vn -0.7004 -0.4159 0.5801
vn -0.613 -0.5364 0.5801
vn -0.613 -0.5364 0.5801
vn -0.5052 -0.639 0.5801
vn -0.5052 -0.639 0.5801
vn -0.3725 -0.7244 0.5801
vn -0.3725 -0.7244 0.5801
vn -0.2196 -0.7844 0.5801
vn -0.2196 -0.7844 0.5801
vn -0.05418 -0.8127 0.5801
vn -0.05418 -0.8127 0.5801
vn 0.1135 -0.8066 0.5801
vn 0.1135 -0.8066 0.5801
vn 0.2731 -0.7674 0.5801
vn 0.2731 -0.7674 0.5801
vn 0.4159 -0.7004 0.5801
vn 0.4159 -0.7004 0.5801
vn 0.5364 -0.613 0.5801
vn 0.5364 -0.613 0.5801
vn 0 0 -1
vn 0 0 -1
vn 0 0 -1
vn 0 0 -1
vn 0 0 -1
vn 0 0 -1
vn 0 0 -1
vn 0 0 -1
vn 0 0 -1
vn 0 0 -1
vn 0 0 -1
vn 0 0 -1
vn 0 0 -1
vn 0 0 -1
vn 0 0 -1
vn 0 0 -1
vn 0 0 -1
vn -2.863e-19 3.272e-19 -1
vn 0 0 -1
vn -1.431e-19 1.636e-19 -1
vn -1.431e-19 1.636e-19 -1
vn -2.147e-19 2.454e-19 -1
vn -5.368e-20 6.135e-20 -1
vn -5.368e-20 6.135e-20 -1
vn 0 0 -1
vn -2.237e-19 2.556e-19 -1
vn 2.326e-19 -2.658e-19 -1
vn 7.157e-20 -8.18e-20 -1
vn 1.431e-19 -1.636e-19 -1
vn -1.431e-19 1.636e-19 -1
vn 0 0 -1
vn 0 0 -1
vn 0 0 1
vn 0 0 1
vn 1.832e-17 -2.094e-17 1
vn 0 0 1
vn 0 0 1
vn 0 0 1
vn 0 0 1
vn 0 0 1
vn 0 0 1
vn 0 0 1
vn 0 0 1
vn 0 0 1
vn 1.832e-17 -2.094e-17 1
vn 1.832e-17 -2.094e-17 1
vn 0 0 1
vn 0 0 1
vn 0 0 1
vn 1.832e-17 -2.094e-17 1
vn -9.161e-18 1.047e-17 1
vn 9.161e-18 -1.047e-17 1
vn 1.832e-17 -2.094e-17 1
vn -4.581e-18 5.235e-18 1
vn 0 0 1
vn 4.294e-18 -4.908e-18 1
vn 0 0 1
vn 4.294e-18 -4.908e-18 1
vn 0 0 1
vn 1.832e-17 -2.094e-17 1
vn -9.161e-18 1.047e-17 1
vn 1.832e-17 -2.094e-17 1
vn 1.832e-17 -2.094e-17 1
vn 9.161e-18 -1.047e-17 1
f 191//308 181//309 178//307 185//306
f 195//312 187//313 184//311 193//310
f 193//310 184//311 181//309 191//308
f 196//316 188//317 189//315 197//314
f 192//320 182//321 186//319 194//318
f 194//318 186//319 188//317 196//316
f 197//314 189//315 187//313 195//312
f 183//324 176//325 180//323 190//322
f 172//328 170//329 173//327 177//326
f 177//326 173//327 176//325 183//324
f 162//332 163//333 166//331 167//330
f 152//336 156//337 160//335 157//334
f 157//334 160//335 163//333 162//332
f 167//330 166//331 170//329 172//328
f 190//322 180//323 182//321 192//320
f 146//338 153//339 156//337 152//336
f 138//342 147//343 150//341 140//340
f 134//346 142//347 144//345 136//344
f 136//344 144//345 147//343 138//342
f 137//350 145//351 143//349 135//348
f 141//354 151//355 149//353 139//352
f 139//352 149//353 145//351 137//350
f 135//348 143//349 142//347 134//346
f 154//358 158//359 155//357 148//356
f 164//362 165//363 161//361 159//360
f 159//360 161//361 158//359 154//358
f 174//366 171//367 168//365 169//364
f 185//370 178//371 175//369 179//368
f 179//368 175//369 171//367 174//366
f 169//364 168//365 165//363 164//362
f 148//356 155//357 151//355 141//354
f 140//340 150//341 153//339 146//338
f 157//390 140//387 152//389
f 152//389 140//387 146//388
f 162//391 136//385 157//390
f 135//383 172//393 177//394
f 172//393 134//384 167//392
f 167//392 134//384 162//391
f 183//395 139//381 177//394
f 138//386 140//387 157//390
f 136//385 138//386 157//390
f 162//391 134//384 136//385
f 134//384 172//393 135//383
f 135//383 177//394 137//382
f 177//394 139//381 137//382
f 141//380 139//381 190//396
f 190//396 139//381 183//395
f 190//396 192//397 148//379
f 194//398 154//378 192//397
f 154//378 194//398 196//399
f 195//401 164//376 197//400
f 169//375 195//401 193//402 174//374
f 164//376 196//399 197//400
f 174//374 193//402 191//403 179//373
f 196//399 164//376 159//377
f 196//399 159//377 154//378
f 192//397 154//378 148//379
f 195//401 169//375 164//376
f 185//372 179//373 191//403
f 141//380 190//396 148//379
f 144//423 163//417 160//418 147//422
f 147//422 156//419 150//421
f 163//417 144//423 142//424 166//416
f 176//413 145//426 149//427
f 145//426 170//415 143//425
f 143//425 170//415 142//424
f 176//413 149//427 151//428 180//412
f 156//419 153//420 150//421
f 160//418 156//419 147//422
f 166//416 142//424 170//415
f 145//426 173//414 170//415
f 173//414 145//426 176//413
f 155//429 158//430 182//411
f 161//431 188//409 158//430
f 188//409 161//431 165//432
f 171//434 184//406 168//433
f 181//405 171//434 175//435
f 187//407 165//432 168//433
f 181//405 175//435 178//404
f 158//430 188//409 186//410
f 158//430 186//410 182//411
f 155//429 182//411 180//412
f 168//433 184//406 187//407
f 187//407 189//408 165//432
f 165//432 189//408 188//409
f 181//405 184//406 171//434
f 151//428 155//429 180//412
o object_10
v 0.05069 2.459 0.04294
v 0.05069 2.541 0.04294
v 0.33 2.459 0.04294
v 0.33 2.541 0.04294
v 0.7769 2.459 0.9435
v 0.7769 2.541 0.9435
v 1.056 2.459 0.9435
v 1.056 2.541 0.9435
vn 0 -1 0
vn 0 -1 0
vn 0 -1 0
vn 0 -1 0
vn 0.7784 0 -0.6277
vn 0.7784 0 -0.6277
vn 0.7784 0 -0.6277
vn 0.7784 0 -0.6277
vn 0 1 0
vn 0 1 0
vn 0 1 0
vn 0 1 0
vn -0.7784 0 0.6277
vn -0.7784 0 0.6277
vn -0.7784 0 0.6277
vn -0.7784 0 0.6277
vn 1.11e-16 0 -1
vn 1.11e-16 0 -1
vn 1.11e-16 0 -1
vn 1.11e-16 0 -1
vn -1.11e-16 0 1
vn -1.11e-16 0 1
vn -1.11e-16 0 1
vn -1.11e-16 0 1
f 198//436 200//438 204//439 202//437
f 200//440 201//442 205//443 204//441
f 201//444 199//446 203//447 205//445
f 199//448 198//450 202//451 203//449
f 200//453 198//452 199//455
f 199//455 201//454 200//453
f 204//457 203//459 202//456
f 203//459 204//457 205//458
o object_11
v 2.465 3.941 0.9435
v 2.465 4.22 0.9435
v 2.465 4.667 0.04294
v 2.465 4.946 0.04294
v 2.548 3.941 0.9435
v 2.548 4.22 0.9435
v 2.548 4.667 0.04294
v 2.548 4.946 0.04294
vn -1 0 0
vn -1 0 0
vn -1 0 0
vn -1 0 0
vn 0 -0.7784 -0.6277
vn 0 -0.7784 -0.6277
vn 0 -0.7784 -0.6277
vn 0 -0.7784 -0.6277
vn 1 0 0
vn 1 0 0
vn 1 0 0
vn 1 0 0
vn 0 0.7784 0.6277
vn 0 0.7784 0.6277
vn 0 0.7784 0.6277
vn 0 0.7784 0.6277
vn 0 -5.551e-16 -1
vn 0 -5.551e-16 -1
vn 0 -5.551e-16 -1
vn 0 -5.551e-16 -1
vn 0 5.551e-16 1
vn 0 5.551e-16 1
vn 0 5.551e-16 1
vn 0 5.551e-16 1
f 209//460 208//462 206//463 207//461
f 208//464 212//466 210//467 206//465
f 212//468 213//470 211//471 210//469
f 213//472 209//474 207//475 211//473
f 208//477 209//476 213//479
f 213//479 212//478 208//477
f 206//481 211//483 207//480
f 211//483 206//481 210//482
o object_12
v 2.462 0.04652 0.04294
v 2.462 0.3258 0.04294
v 2.462 0.7727 0.9435
v 2.462 1.052 0.9435
v 2.545 0.04652 0.04294
v 2.545 0.3258 0.04294
v 2.545 0.7727 0.9435
v 2.545 1.052 0.9435
vn 1 0 0
vn 1 0 0
vn 1 0 0
vn 1 0 0
vn 0 0.7784 -0.6277
vn 0 0.7784 -0.6277
vn 0 0.7784 -0.6277
vn 0 0.7784 -0.6277
vn -1 0 0
vn -1 0 0
vn -1 0 0
vn -1 0 0
vn 0 -0.7784 0.6277
vn 0 -0.7784 0.6277
vn 0 -0.7784 0.6277
vn 0 -0.7784 0.6277
vn 0 1.11e-16 -1
vn 0 1.11e-16 -1
vn 0 1.11e-16 -1
vn 0 1.11e-16 -1
vn 0 -1.11e-16 1
vn 0 -1.11e-16 1
vn 0 -1.11e-16 1
vn 0 -1.11e-16 1
f 218//484 219//486 221//487 220//485
f 219//488 215//490 217//491 221//489
f 215//492 214//494 216//495 217//493
f 214//496 218//498 220//499 216//497
f 219//501 218//500 214//503
f 214//503 215//502 219//501
f 221//505 216//507 220//504
f 216//507 221//505 217//506
