# Blender v2.61 (sub 0) OBJ File: 'iland04miller.blend'
# www.blender.org
mtllib iland04.mtl
o Cube
v 564.971130 195.078003 0.139637
v 533.822571 -338.391632 0.139637
v -387.961365 -380.141663 0.139637
v -16.003683 509.993927 0.139637
v 194.288391 211.366577 299.781250
v 78.217186 126.926537 -477.808746
v 136.168777 -163.722626 336.032471
v 136.168777 -163.722626 -335.753174
v -229.915756 -1.595989 180.947723
v -69.443298 268.186523 220.558914
v 349.545776 258.529480 91.137108
v 349.545776 258.529480 -90.857841
v 289.771820 -301.032471 93.402664
v 289.771820 -301.032471 -93.123398
v -342.818604 -230.434052 47.280884
v -75.741714 387.720612 42.305164
v 281.909576 219.001404 163.324829
v 222.587280 244.039459 -189.538773
v 160.610855 -201.115616 144.033340
v 160.610855 -201.115616 -143.754074
v -289.868073 -95.266068 132.078522
v -115.152634 257.529602 132.078522
v 395.313232 339.575775 0.139637
v 278.733917 -529.699707 0.139637
v 112.410049 213.235031 424.569977
v -18.826750 -178.617599 364.144836
v -18.826750 -178.617599 -363.865540
v 48.256157 -386.094055 30.905869
v -1.512412 -422.615936 -28.371704
v 203.422058 302.917999 35.021240
v 203.422058 302.917999 -34.741966
v 21.594912 -230.725327 127.639282
v 21.594912 -230.725327 -127.360016
v 163.264999 269.077515 216.311264
v 34.633160 477.281860 0.139637
v -295.062561 -532.587830 0.139637
v -39.042271 260.763580 218.908386
v -182.358459 -70.717712 355.145294
v -217.769669 -240.800751 78.267471
v 26.800873 356.570862 91.137108
v -187.546677 -100.534424 272.713806
v -8.434379 285.298035 150.233627
v 195.935043 486.477356 0.139637
v -14.779309 -506.573883 0.139637
v 17.785559 299.273987 336.276947
v 17.785559 299.273987 -335.997650
v -124.231728 -170.849152 336.087585
v -124.231728 -170.849152 -335.808289
v -89.246674 -419.442139 24.552370
v 100.799942 334.091919 91.137108
v -120.816643 -257.149261 165.192520
v -88.441704 -306.531891 -93.634285
v 71.006760 318.178070 117.224335
v -13.650839 308.542389 -132.668625
v 518.652710 -90.015503 0.139637
v -436.676056 88.042221 0.139637
v 142.435883 -77.510925 390.951172
v -206.837906 74.435097 180.947723
v 311.928345 -65.240555 37.865944
v 289.359772 -39.851513 -117.174835
v -251.307281 68.816757 91.137108
v 279.328796 -64.860138 135.379517
v -239.472092 72.973640 132.078522
v -238.654938 -58.124832 -69.779472
v 35.266331 -6.965354 494.528687
v 35.266331 -6.965354 -494.249390
v -143.011658 -24.069307 387.079926
v 18.698263 81.582047 -489.936829
v -103.424805 -30.081543 456.569336
v 411.714264 80.856110 0.139637
v -278.232269 307.125031 0.139637
v 172.744659 120.058296 408.911133
v -132.011520 169.403320 180.947723
v 343.399017 163.165390 115.097221
v 343.399017 163.165390 -114.817955
v -288.763855 182.411423 91.137115
v -288.763855 182.411423 -90.857849
v 274.315582 85.952400 222.854156
v -170.146042 204.751129 132.078522
v 78.217186 126.926537 478.088043
v -44.868385 101.459030 472.682281
v 18.698263 81.582047 490.216125
v 239.770599 -60.831059 212.855362
v 91.640610 68.474251 450.241180
v 276.822205 10.546135 179.116837
v 264.771362 98.114052 315.882660
v 172.631348 80.587296 216.278641
v -171.487244 43.357838 261.818878
v -162.563416 158.196167 180.947723
v -93.402023 79.169632 432.441772
v -86.915741 181.120270 326.815033
v -121.259003 154.232544 228.410446
v 26.759247 57.496181 380.638458
v -20.898642 -59.568539 373.318176
v 66.271553 64.656296 257.552124
v 104.882881 -8.999636 254.045593
v -33.803993 75.724892 402.442780
v -83.803352 -41.281639 358.233856
v -37.934822 70.602684 268.991211
v -116.304123 24.416216 282.385223
v 204.473419 115.744843 360.719696
v 135.986496 87.387245 301.885895
v -74.396194 138.044479 397.118774
v -100.395042 157.378998 326.747620
v 55.461189 104.736969 351.178253
v -30.366425 102.560547 333.310974
v 182.730637 -80.815041 261.301147
v -171.991455 -18.603922 323.836487
v 66.152557 -46.627831 313.646210
v -108.613411 0.463875 289.491547
v -353.081146 -443.796295 22.648739
v -353.081146 -443.796295 -22.369465
v -171.394516 -606.679871 0.139637
v -142.036118 -377.124390 20.113344
v -51.280983 -459.137756 26.396091
v -160.143768 -456.200043 213.572418
v -291.347656 -362.868164 47.842140
v -291.347656 -362.868164 -47.562866
v -193.946579 -321.695709 145.232315
v -164.997849 -415.067566 -206.442932
v -192.119827 -459.054413 221.340408
v -164.903137 -435.866272 224.118423
v -212.588791 -436.089569 229.852280
vn 0.095617 -0.379876 0.920083
vn 0.108695 -0.379909 -0.918616
vn 0.262886 0.651041 0.712065
vn 0.262886 0.651041 -0.712065
vn -0.024218 -0.510836 0.859337
vn -0.006639 -0.458154 -0.888848
vn 0.154586 -0.962166 0.224365
vn 0.154586 -0.962166 -0.224365
vn 0.513644 0.783127 0.350545
vn 0.306452 0.871608 0.382606
vn 0.153939 0.929714 -0.334567
vn -0.070119 0.494335 0.866439
vn 0.336593 0.521031 -0.784367
vn -0.539075 -0.513819 0.667374
vn -0.901386 0.015365 0.432743
vn -0.157999 0.982166 0.101912
vn -0.227042 0.631787 0.741146
vn 0.286588 0.190126 0.938999
vn 0.290158 0.190066 -0.937914
vn 0.030835 0.546214 0.837078
vn -0.035593 0.624353 -0.780331
vn 0.209006 -0.560497 0.801349
vn 0.486843 -0.121715 -0.864968
vn 0.083413 -0.940782 0.328591
vn 0.176246 -0.906490 -0.383685
vn -0.819620 -0.518609 0.243451
vn -0.851943 -0.500346 -0.154423
vn 0.390117 0.886169 0.250028
vn 0.452209 0.833258 -0.318101
vn -0.463458 0.886118 -0.001250
vn 0.300568 0.899473 0.317187
vn 0.173481 0.927445 -0.331285
vn 0.118070 0.647503 0.752861
vn 0.290810 0.104890 0.951014
vn 0.401491 -0.030927 -0.915341
vn -0.505089 -0.021140 0.862808
vn -0.356981 -0.037144 -0.933373
vn 0.634174 -0.108036 0.765605
vn 0.304614 -0.086865 -0.948507
vn -0.944498 0.269014 0.188562
vn -0.811408 0.244062 0.531085
vn 0.252206 -0.602933 0.756878
vn 0.497380 -0.437369 -0.749214
vn -0.175927 -0.590357 0.787737
vn -0.475157 -0.327225 -0.816792
vn -0.683150 -0.316110 0.658316
vn -0.863374 0.208240 -0.459588
vn 0.473876 -0.264387 0.839965
vn 0.473876 -0.264387 -0.839965
vn 0.458266 -0.084525 0.884787
vn 0.638442 0.095144 -0.763766
vn -0.609652 0.221717 0.761030
vn -0.565138 0.095626 -0.819436
vn -0.367579 0.520205 0.770891
vn -0.382916 0.529172 -0.757200
vn 0.711750 0.202982 0.672466
vn 0.665045 0.428095 -0.611923
vn -0.540509 0.070202 0.838404
vn -0.724389 -0.208489 -0.657109
vn -0.412682 0.563904 0.715336
vn -0.421627 0.751375 -0.507608
vn -0.733375 0.431576 0.525265
vn 0.700954 0.349398 0.621759
vn -0.240816 0.564939 0.789210
vn -0.263187 0.556279 -0.788218
vn -0.136876 0.022622 0.990330
vn 0.143936 0.074990 -0.986742
vn -0.655855 0.558179 0.508223
vn -0.981874 0.106670 -0.156668
vn 0.803493 -0.556773 0.210722
vn 0.984115 0.149189 -0.096225
vn 0.706039 -0.590319 0.391194
vn 0.672334 -0.438474 -0.596412
vn 0.902178 -0.244476 0.355396
vn 0.884630 -0.211603 0.415517
vn 0.799797 -0.206347 -0.563689
vn 0.937362 -0.150943 0.313956
vn 0.710111 0.510830 0.484557
vn 0.994583 -0.010499 0.103411
vn 0.634298 0.035770 0.772261
vn 0.009507 -0.841747 0.539788
vn 0.727945 -0.151405 0.668710
vn 0.670252 -0.066965 0.739106
vn 0.560355 -0.247821 0.790308
vn -0.834955 0.393942 0.384266
vn -0.845521 0.256642 0.468220
vn -0.765270 0.402597 0.502272
vn -0.765958 0.404870 0.499388
vn -0.249952 0.681397 0.687912
vn 0.214889 0.737806 0.639894
vn -0.861208 0.453318 0.229834
vn 0.454844 -0.732501 0.506517
vn -0.713001 0.439906 0.545996
vn -0.590854 0.801103 -0.095532
vn -0.802291 0.491444 0.338839
vn -0.449581 0.231757 0.862650
vn -0.376463 -0.539703 0.752992
vn -0.846376 0.187718 0.498407
vn 0.353388 0.233595 -0.905842
vn 0.338544 0.136463 0.931002
vn 0.009292 0.211287 -0.977380
vn -0.321742 0.477920 -0.817358
vn 0.126011 0.039976 0.991223
vn -0.126139 0.376741 0.917690
vn 0.784582 0.390492 0.481609
vn 0.610950 0.470722 0.636523
vn 0.458155 -0.881809 0.111831
vn 0.056654 -0.972869 0.224311
vn -0.166800 0.827220 0.536549
vn -0.282917 0.815261 0.505279
vn -0.835772 0.473728 0.277611
vn -0.717820 0.513685 0.469960
vn 0.007228 -0.938182 -0.346068
vn 0.129909 -0.950294 0.282956
vn -0.102062 -0.779047 -0.618602
vn -0.032057 -0.909615 0.414214
vn -0.432004 -0.776909 -0.458024
vn -0.689747 -0.673454 0.265911
vn 0.506416 0.402819 0.762417
vn 0.921862 -0.253646 0.292975
vn -0.816049 0.408181 0.409209
vn -0.826761 0.401311 0.394228
vn 0.450190 0.558402 0.696790
vn 0.202040 0.961773 0.184856
vn 0.148052 0.691391 0.707148
vn 0.166034 0.875706 0.453401
vn 0.089093 0.628884 0.772377
vn 0.132757 0.949166 0.285410
vn -0.617268 -0.060866 0.784395
vn -0.491008 0.038695 -0.870295
vn -0.844693 -0.514745 -0.146734
vn -0.844693 -0.514745 0.146734
vn 0.050881 -0.130469 0.990146
vn -0.046599 0.001827 0.998912
vn -0.039966 -0.507255 0.860869
vn -0.025048 -0.317903 -0.947792
vn 0.599328 -0.585128 0.546289
vn 0.518207 -0.576182 -0.632041
vn -0.512044 -0.623664 0.590639
vn 0.536568 0.396024 -0.745158
vn -0.537594 -0.609503 0.582666
vn -0.263015 -0.098154 0.959786
vn -0.374692 -0.002804 -0.927145
vn -0.246668 -0.091780 0.964744
vn -0.725763 0.409708 0.552637
vn -0.765831 0.085960 -0.637271
vn 0.785359 0.474491 0.397578
vn -0.821188 0.147301 0.551320
vn -0.687001 0.321133 -0.651846
vn 0.170469 -0.312058 0.934644
vn 0.679277 0.664174 0.312178
vn 0.584997 0.759578 0.284288
vn 0.862533 -0.058772 0.502576
vn -0.455165 -0.759722 0.464378
vn -0.399057 -0.666072 -0.630160
vn 0.207007 -0.804693 0.556433
vn -0.664416 -0.559698 0.495267
vn -0.552865 -0.525244 -0.646884
vn -0.969535 -0.100665 0.223312
vn 0.827739 -0.298004 0.475438
usemtl Material
s off
f 13//1 28//1 24//1 2//1
f 24//2 29//2 14//2 2//2
f 1//3 23//3 30//3 11//3
f 1//4 12//4 31//4 23//4
f 19//5 32//5 28//5 13//5
f 29//6 33//6 20//6 14//6
f 7//7 26//7 32//7 19//7
f 33//8 27//8 8//8 20//8
f 17//9 34//9 25//9 5//9
f 11//10 30//10 34//10 17//10
f 18//11 31//11 12//11
f 35//12 4//12 16//12 40//12
f 54//13 4//13 35//13
f 41//14 21//14 15//14 39//14
f 38//15 9//15 21//15 41//15
f 42//16 22//16 10//16 37//16
f 40//17 16//17 22//17 42//17
f 23//18 43//18 50//18 30//18
f 54//19 43//19 23//19 31//19
f 43//20 35//20 40//20 50//20
f 54//21 35//21 43//21
f 32//22 51//22 49//22 28//22
f 120//23 52//23 33//23 29//23
f 26//24 47//24 51//24 32//24
f 52//25 48//25 27//25 33//25
f 47//26 38//26 41//26 51//26
f 64//27 48//27 52//27
f 34//28 53//28 45//28 25//28
f 46//29 54//29 18//29 6//29
f 53//30 42//30 37//30 45//30
f 30//31 50//31 53//31 34//31
f 54//32 31//32 18//32
f 50//33 40//33 42//33 53//33
f 59//34 13//34 2//34 55//34
f 2//35 14//35 60//35 55//35
f 15//36 61//36 56//36 3//36
f 56//37 64//37 3//37
f 62//38 19//38 13//38 59//38
f 14//39 20//39 60//39
f 21//40 63//40 61//40 15//40
f 9//41 58//41 63//41 21//41
f 65//42 26//42 7//42 57//42
f 8//43 27//43 66//43 6//43
f 69//44 47//44 26//44 65//44
f 27//45 48//45 68//45 66//45
f 67//46 38//46 47//46 69//46
f 48//47 64//47 68//47
f 70//48 1//48 11//48 74//48
f 12//49 1//49 70//49 75//49
f 74//50 59//50 55//50 70//50
f 55//51 60//51 75//51 70//51
f 61//52 76//52 71//52 56//52
f 71//53 77//53 64//53 56//53
f 76//54 16//54 4//54 71//54
f 4//55 54//55 77//55 71//55
f 17//56 78//56 74//56 11//56
f 75//57 6//57 18//57 12//57
f 63//58 79//58 76//58 61//58
f 77//59 6//59 64//59
f 79//60 22//60 16//60 76//60
f 54//61 6//61 77//61
f 73//62 10//62 22//62 79//62
f 25//63 80//63 72//63 5//63
f 45//64 82//64 80//64 25//64
f 6//65 68//65 46//65
f 82//66 69//66 65//66 80//66
f 66//67 68//67 6//67
f 37//68 81//68 82//68 45//68
f 68//69 54//69 46//69
f 83//70 7//70 19//70
f 20//71 8//71 6//71
f 62//72 83//72 19//72
f 20//73 6//73 60//73
f 85//74 59//74 74//74
f 78//75 85//75 74//75
f 75//76 60//76 6//76
f 85//77 62//77 59//77
f 86//78 17//78 5//78
f 86//79 78//79 17//79
f 87//80 83//80 62//80 85//80
f 86//81 87//81 85//81 78//81
f 84//82 80//82 65//82
f 57//83 84//83 65//83
f 84//84 72//84 80//84
f 88//85 9//85 38//85
f 88//86 58//86 9//86
f 89//87 79//87 63//87
f 58//88 89//88 63//88
f 89//89 73//89 79//89
f 91//90 37//90 10//90
f 73//91 91//91 10//91
f 54//92 68//92 6//92
f 89//93 58//93 88//93 92//93
f 68//94 64//94 6//94
f 73//95 89//95 92//95 91//95
f 90//96 69//96 82//96
f 81//97 90//97 82//97
f 90//98 67//98 69//98
f 57//99 94//99 93//99 84//99
f 87//100 95//100 96//100 83//100
f 94//101 98//101 97//101 93//101
f 98//102 67//102 90//102 97//102
f 95//103 99//103 100//103 96//103
f 99//104 92//104 88//104 100//104
f 72//105 101//105 5//105
f 101//106 86//106 5//106
f 84//107 102//107 101//107 72//107
f 102//108 87//108 86//108 101//108
f 91//109 103//109 37//109
f 103//110 81//110 37//110
f 92//111 104//111 103//111 91//111
f 104//112 90//112 81//112 103//112
f 93//113 105//113 102//113 84//113
f 105//114 95//114 87//114 102//114
f 97//115 106//115 105//115 93//115
f 106//116 99//116 95//116 105//116
f 90//117 104//117 106//117 97//117
f 104//118 92//118 99//118 106//118
f 83//119 107//119 7//119
f 107//120 57//120 7//120
f 67//121 108//121 38//121
f 108//122 88//122 38//122
f 96//123 109//123 107//123 83//123
f 109//124 94//124 57//124 107//124
f 100//125 110//125 109//125 96//125
f 110//126 98//126 94//126 109//126
f 88//127 108//127 110//127 100//127
f 108//128 67//128 98//128 110//128
f 111//129 15//129 3//129
f 3//130 64//130 112//130
f 36//131 111//131 3//131
f 3//132 112//132 36//132
f 115//133 24//133 28//133
f 49//134 115//134 28//134
f 115//135 44//135 24//135
f 24//136 44//136 29//136
f 115//137 116//137 113//137 44//137
f 113//138 120//138 29//138 44//138
f 114//139 51//139 41//139
f 64//140 52//140 120//140
f 114//141 49//141 51//141
f 111//142 117//142 15//142
f 64//143 118//143 112//143
f 117//144 39//144 15//144
f 119//145 39//145 117//145 123//145
f 118//146 64//146 120//146
f 114//147 119//147 123//147 122//147
f 123//148 117//148 111//148 121//148
f 112//149 118//149 120//149
f 122//150 123//150 121//150 116//150
f 122//151 115//151 49//151
f 114//152 122//152 49//152
f 122//153 116//153 115//153
f 121//154 36//154 113//154
f 113//155 36//155 120//155
f 116//156 121//156 113//156
f 121//157 111//157 36//157
f 36//158 112//158 120//158
f 39//159 119//159 41//159
f 119//160 114//160 41//160
