# Blender v2.61 (sub 0) OBJ File: 'iland05.blend'
# www.blender.org
mtllib iland05.mtl
o Cube
v 69.441551 45.960518 551.222839
v 71.660439 -96.432480 340.735382
v -69.754875 -48.275658 542.264587
v -46.631714 83.274414 492.356598
v 67.343262 85.716118 897.924805
v 112.729546 -135.288864 1174.203247
v -125.553596 -84.153404 1210.742554
v -52.527660 141.787048 1248.845581
v 73.408295 66.933388 810.485840
v 40.575645 -104.518532 950.558899
v -47.274742 68.440636 923.324158
v 46.961411 -70.755814 769.233826
v -29.383675 65.056786 1024.769775
v -33.072884 65.754555 791.640625
v -17.301567 101.911560 716.399109
v 106.505768 -45.949326 56.432896
v -63.052082 -13.474920 31.246748
v 184.262268 -98.003349 1216.435059
v -96.937981 -18.056345 1081.748413
v 53.664200 -35.955082 877.743469
v 43.074703 38.357334 690.359253
v 46.961414 -70.755814 692.854004
v -22.542021 63.762798 605.724609
v 89.186615 -72.537849 494.256775
v -103.635223 0.883659 559.861023
v 64.207130 19.278299 607.028687
v -49.626881 56.522438 169.319916
v 67.419319 35.786537 1004.349731
v -137.073929 107.805984 1261.015381
v 65.903435 27.771767 856.290649
v -85.604736 90.277908 988.852600
v -73.478050 55.576252 585.232178
v -57.705418 14.284819 -285.712158
v 208.050812 -5.693212 1184.716797
v -165.327271 68.215309 1193.891235
v -56.898643 18.550364 592.046631
v 38.044876 52.007675 439.421722
v 14.112571 -72.386559 -592.559937
v 60.333309 169.850922 1215.404175
v 33.150211 -206.342072 1221.282349
v -11.773744 -137.042892 616.467285
v 56.712227 150.705566 904.422363
v 22.267534 -29.907911 -729.474426
v -23.766684 -14.562389 1223.355957
v 38.044880 52.007668 648.391174
v 61.948997 55.827133 330.408539
v 112.042427 107.798042 1192.998657
v 90.288200 11.692940 -95.999107
v 147.419067 37.255936 1223.865967
v -86.332581 -35.618263 651.947937
v 95.543388 -43.536701 636.107544
v -11.478514 98.705963 194.590393
v -73.279053 -70.900566 -53.351963
v 9.544044 156.871765 1208.281494
v -43.105831 -119.357651 1261.740723
v -46.601231 -142.674194 938.362122
v 12.687206 87.938766 919.741943
v 4.793614 141.644119 693.731201
v -24.368025 -20.925665 -704.395508
v -80.593147 -40.837231 1269.894287
v -37.876213 -91.707787 248.539673
v -3.733108 86.672821 414.118286
v -8.066379 64.280014 -270.643402
v -7.760286 65.898476 1212.167480
v -29.142353 21.291338 -574.846008
v -11.321915 47.542629 1230.305054
v 96.882034 -44.129139 1047.089355
v 204.006012 -50.004684 1200.576050
v 108.265594 3.679456 934.924561
v 77.580109 -40.336277 781.437866
v 116.927025 -33.534882 991.006897
v 40.321079 80.584496 531.254761
v 6.753219 99.921394 553.924744
v 23.614025 137.931595 799.076782
v 51.632587 123.848503 776.406738
v 25.949299 119.079247 665.165771
v -5.422330 -139.566544 370.588623
v 74.680641 -7.494049 630.183044
v 103.604271 -30.510103 578.759766
v 77.631638 -72.245689 642.032043
v 66.057785 -52.511105 711.285583
vn -0.941332 0.335453 -0.036934
vn 0.982184 -0.187922 -0.000401
vn 0.683290 -0.729284 0.035503
vn -0.830747 -0.554315 -0.050934
vn 0.998822 -0.042127 0.024088
vn -0.200284 0.965603 -0.165822
vn 0.989681 -0.024539 0.141173
vn 0.444414 0.893204 -0.068430
vn -0.788047 0.602888 0.124534
vn -0.017174 0.973677 -0.227284
vn 0.957027 0.216288 0.193179
vn -0.021250 0.945508 -0.324904
vn -0.667289 0.744232 0.029067
vn -0.967786 -0.232544 -0.096512
vn -0.656882 0.733037 -0.176530
vn -0.913173 -0.407501 0.007599
vn -0.550140 0.735742 0.395006
vn -0.999820 -0.006613 -0.017793
vn -0.744832 0.666582 -0.029893
vn 0.820414 -0.542220 -0.181436
vn 0.986689 0.162344 -0.009402
vn 0.825823 -0.558921 -0.074988
vn 0.728325 -0.681010 -0.075946
vn 0.172660 -0.197655 0.964946
vn 0.748455 -0.663186 0.000000
vn 0.321469 0.945850 0.045008
vn 0.776603 0.629988 0.001798
vn 0.936543 0.309284 -0.165017
vn 0.952842 0.301765 0.032093
vn 0.983362 0.177765 -0.037400
vn 0.725631 0.633457 -0.268687
vn -0.583845 -0.808299 0.076006
vn -0.094762 0.995032 -0.030517
vn -0.607059 -0.794620 -0.007698
vn -0.697723 -0.714711 -0.048687
vn -0.626115 0.771521 -0.112849
vn -0.337974 0.915839 -0.216823
vn -0.787683 0.595714 0.157101
vn -0.629650 -0.764996 -0.135360
vn -0.975260 0.218917 -0.030703
vn -0.852453 0.303441 0.425731
vn 0.593984 0.177767 0.784590
vn -0.735743 -0.676958 0.020248
vn -0.507016 -0.859099 -0.069886
vn -0.891844 -0.450144 -0.044538
vn 0.079150 0.993100 0.086536
vn 0.531324 0.846936 -0.019866
vn -0.724397 0.687287 -0.053724
vn 0.390903 -0.203277 0.897705
vn 0.101148 -0.097086 0.990123
vn 0.589036 0.803089 -0.089910
vn -0.700605 0.711580 -0.052974
vn 0.465867 0.874545 -0.134683
vn -0.984226 -0.164732 -0.064515
vn -0.100165 -0.609703 0.786275
vn 0.024605 0.489351 0.871740
vn -0.796398 -0.228577 0.559914
vn 0.246645 -0.156437 0.956396
vn -0.311663 0.948716 -0.052964
vn -0.303507 0.949014 0.085182
vn 0.893255 -0.305100 -0.330166
vn 0.872129 -0.424628 -0.243067
vn 0.614607 -0.602742 -0.508881
vn 0.562818 0.825042 -0.050424
vn 0.446805 0.882742 -0.145364
vn 0.676337 0.722584 -0.142971
vn 0.489419 -0.788828 -0.371780
vn 0.883342 -0.281021 -0.375145
vn 0.073151 -0.997129 -0.019552
vn 0.879171 -0.474859 -0.039590
vn 0.651041 -0.733554 0.195047
vn 0.063334 -0.218813 0.973709
vn 0.136053 0.259904 0.956002
vn 0.630896 0.209757 0.746975
vn 0.940120 0.190422 -0.282691
vn 0.993356 0.015361 -0.114056
vn 0.947884 0.302180 -0.101008
vn -0.785517 0.593634 0.174816
vn -0.804297 0.571199 0.163821
vn 0.406838 0.898639 -0.164103
vn 0.977321 0.196186 -0.079717
vn 0.609009 0.776388 -0.162263
vn 0.332730 0.928386 -0.165501
vn -0.854487 0.502248 -0.132661
vn -0.896938 0.420089 -0.137940
vn -0.777841 0.628460 -0.001212
vn 0.935263 0.330729 -0.126099
vn -0.008313 0.998451 0.055022
vn 0.996843 -0.079401 -0.000000
vn 0.514660 -0.851751 0.098210
vn 0.733194 -0.679525 0.025914
vn 0.472319 -0.879905 -0.051794
vn -0.905795 -0.416566 0.077512
vn -0.454131 -0.888089 -0.071155
vn -0.809515 -0.586911 -0.014887
vn -0.051974 -0.998646 -0.002090
vn -0.048520 -0.998822 -0.000000
vn 0.863174 0.468826 -0.187436
vn 0.954038 0.279327 -0.108571
vn 0.823528 0.517943 0.231382
vn 0.883327 -0.465452 0.055576
vn 0.896927 -0.362509 0.253198
vn 0.780185 0.625389 -0.014152
vn 0.935721 -0.352395 0.015614
vn 0.703190 -0.710959 0.007889
vn 0.464434 -0.882269 0.076835
usemtl Material
s off
f 7//1 19//1 50//1
f 20//2 10//2 12//2
f 22//3 2//3 16//3 24//3
f 25//4 17//4 3//4 50//4
f 5//5 28//5 30//5 9//5
f 29//6 8//6 11//6 31//6
f 9//7 30//7 51//7
f 31//8 11//8 13//8 32//8
f 32//9 14//9 15//9
f 26//10 21//10 9//10
f 26//11 1//11 21//11
f 23//12 32//12 15//12
f 4//13 27//13 32//13 23//13
f 19//14 35//14 36//14 50//14
f 35//15 29//15 31//15 36//15
f 36//16 31//16 32//16
f 36//17 25//17 50//17
f 27//18 33//18 36//18 32//18
f 33//19 17//19 25//19 36//19
f 6//20 40//20 41//20 10//20
f 9//21 42//21 39//21 5//21
f 10//22 41//22 12//22
f 2//23 38//23 43//23 16//23
f 40//24 6//24 18//24 44//24
f 12//25 41//25 22//25
f 1//26 37//26 45//26 21//26
f 37//27 1//27 26//27 46//27
f 47//28 28//28 5//28 39//28
f 26//29 48//29 46//29
f 16//30 43//30 48//30 26//30
f 49//31 34//31 28//31 47//31
f 13//32 11//32 32//32
f 11//33 14//33 32//33
f 40//34 55//34 56//34 41//34
f 55//35 7//35 50//35 56//35
f 42//36 57//36 54//36 39//36
f 57//37 11//37 8//37 54//37
f 58//38 15//38 14//38 57//38
f 38//39 53//39 59//39 43//39
f 53//40 3//40 17//40 59//40
f 7//41 55//41 60//41 19//41
f 55//42 40//42 44//42 60//42
f 61//43 50//43 3//43 53//43
f 41//44 56//44 61//44
f 56//45 50//45 61//45
f 52//46 4//46 23//46 62//46
f 46//47 63//47 52//47 37//47
f 63//48 27//48 4//48 52//48
f 29//49 64//49 54//49 8//49
f 64//50 47//50 39//50 54//50
f 48//51 65//51 63//51 46//51
f 65//52 33//52 27//52 63//52
f 43//53 59//53 65//53 48//53
f 59//54 17//54 33//54 65//54
f 35//55 66//55 64//55 29//55
f 66//56 49//56 47//56 64//56
f 19//57 60//57 66//57 35//57
f 60//58 44//58 49//58 66//58
f 11//59 57//59 14//59
f 13//60 57//60 11//60
f 67//61 6//61 10//61
f 20//62 67//62 10//62
f 67//63 18//63 6//63
f 69//64 30//64 28//64
f 34//65 69//65 28//65
f 69//66 51//66 30//66
f 68//67 18//67 67//67 71//67
f 34//68 68//68 71//68 69//68
f 71//69 67//69 20//69 70//69
f 69//70 71//70 70//70 51//70
f 70//71 20//71 12//71
f 68//72 49//72 44//72
f 18//73 68//73 44//73
f 68//74 34//74 49//74
f 75//75 9//75 21//75
f 45//76 75//76 21//76
f 75//77 42//77 9//77
f 42//78 74//78 57//78
f 74//79 58//79 57//79
f 72//80 62//80 73//80 76//80
f 45//81 72//81 76//81 75//81
f 76//82 73//82 58//82 74//82
f 75//83 76//83 74//83 42//83
f 73//84 23//84 15//84
f 58//85 73//85 15//85
f 73//86 62//86 23//86
f 72//87 37//87 52//87
f 62//88 72//88 52//88
f 72//89 45//89 37//89
f 77//90 2//90 22//90
f 41//91 77//91 22//91
f 77//92 38//92 2//92
f 77//93 61//93 53//93
f 38//94 77//94 53//94
f 77//95 41//95 61//95
f 24//96 80//96 22//96
f 80//97 12//97 22//97
f 51//98 78//98 9//98
f 78//99 26//99 9//99
f 79//100 26//100 78//100 51//100
f 24//101 79//101 51//101 80//101
f 80//102 51//102 81//102 12//102
f 26//103 79//103 16//103
f 79//104 24//104 16//104
f 12//105 81//105 70//105
f 81//106 51//106 70//106
