# Rhino

v 20.55268096923828 4.999999046325684 1.341264009475708
v 20.55268096923828 4.999999046325684 1.341264009475708
v 20.55268096923828 4.999999046325684 0.08255500346422195
v 20.55268096923828 4.999999046325684 0.08255500346422195
v 19.94776916503906 8.041098594665527 1.341264009475708
v 19.94776916503906 8.041098594665527 1.341264009475708
v 19.94776916503906 8.041098594665527 0.08255500346422195
v 19.94776916503906 8.041098594665527 0.08255500346422195
v 19.94776725769043 1.958899021148682 1.341264009475708
v 19.94776725769043 1.958899021148682 1.341264009475708
v 19.94776725769043 1.958899021148682 0.08255500346422195
v 19.94776725769043 1.958899021148682 0.08255500346422195
v 18.22512435913086 10.61921977996826 1.341264009475708
v 18.22512435913086 10.61921977996826 1.341264009475708
v 18.22512435913086 10.61921977996826 0.08255500346422195
v 18.22512435913086 10.61921977996826 0.08255500346422195
v 18.22512245178223 -0.6192219853401184 1.341264009475708
v 18.22512245178223 -0.6192219853401184 1.341264009475708
v 18.22512245178223 -0.6192219853401184 0.08255500346422195
v 18.22512245178223 -0.6192219853401184 0.08255500346422195
v 15.64700317382813 12.34186363220215 1.341264009475708
v 15.64700317382813 12.34186363220215 1.341264009475708
v 15.64700317382813 12.34186363220215 0.08255500346422195
v 15.64700317382813 12.34186363220215 0.08255500346422195
v 15.64700126647949 -2.341865062713623 1.341264009475708
v 15.64700126647949 -2.341865062713623 1.341264009475708
v 15.64700126647949 -2.341865062713623 0.08255500346422195
v 15.64700126647949 -2.341865062713623 0.08255500346422195
v 12.60590362548828 12.94677734375 1.341264009475708
v 12.60590362548828 12.94677734375 1.341264009475708
v 12.60590362548828 12.94677734375 0.08255500346422195
v 12.60590362548828 12.94677734375 0.08255500346422195
v 12.60590076446533 -2.946777105331421 1.341264009475708
v 12.60590076446533 -2.946777105331421 1.341264009475708
v 12.60590076446533 -2.946777105331421 0.08255500346422195
v 12.60590076446533 -2.946777105331421 0.08255500346422195
v 9.564807891845703 12.34186744689941 1.341264009475708
v 9.564807891845703 12.34186744689941 1.341264009475708
v 9.564807891845703 12.34186744689941 0.08255500346422195
v 9.564807891845703 12.34186744689941 0.08255500346422195
v 9.564800262451172 -2.341864109039307 1.341264009475708
v 9.564800262451172 -2.341864109039307 1.341264009475708
v 9.564800262451172 -2.341864109039307 0.08255500346422195
v 9.564800262451172 -2.341864109039307 0.08255500346422195
v 6.986686229705811 10.61922264099121 1.341264009475708
v 6.986686229705811 10.61922264099121 1.341264009475708
v 6.986686229705811 10.61922264099121 0.08255500346422195
v 6.986686229705811 10.61922264099121 0.08255500346422195
v 6.98668098449707 -0.6192169785499573 1.341264009475708
v 6.98668098449707 -0.6192169785499573 1.341264009475708
v 6.98668098449707 -0.6192169785499573 0.08255500346422195
v 6.98668098449707 -0.6192169785499573 0.08255500346422195
v 5.264039993286133 8.041104316711426 1.341264009475708
v 5.264039993286133 8.041104316711426 1.341264009475708
v 5.264039993286133 8.041104316711426 0.08255500346422195
v 5.264039993286133 8.041104316711426 0.08255500346422195
v 5.264037132263184 1.958904027938843 1.341264009475708
v 5.264037132263184 1.958904027938843 1.341264009475708
v 5.264037132263184 1.958904027938843 0.08255500346422195
v 5.264037132263184 1.958904027938843 0.08255500346422195
v 4.659127235412598 5.000003814697266 1.341264009475708
v 4.659127235412598 5.000003814697266 1.341264009475708
v 4.659127235412598 5.000003814697266 0.08255500346422195
v 4.659127235412598 5.000003814697266 0.08255500346422195
vn 0.997809112071991 0.06615860760211945 0
vn 0 0 1
vn 0.9978090524673462 -0.06615924090147018 0
vn 0 0 -1
vn 0.8965375423431397 0.4429677426815033 0
vn 0 0 1
vn 0.9471733570098877 0.3207221031188965 0
vn 0 0 -1
vn 0.9471732378005981 -0.3207224905490875 0
vn 0 0 1
vn 0.8965374827384949 -0.4429679214954376 0
vn 0 0 -1
vn 0.6587760448455811 0.7523391246795654 0
vn 0 0 1
vn 0.7523389458656311 0.6587762236595154 0
vn 0 0 -1
vn 0.7523388862609863 -0.6587762832641602 0
vn 0 0 1
vn 0.6587759256362915 -0.752339243888855 0
vn 0 0 -1
vn 0.3207222521305084 0.9471732974052429 0
vn 0 0 1
vn 0.4429676830768585 0.8965376019477844 0
vn 0 0 -1
vn 0.442967414855957 -0.896537721157074 0
vn 0 0 1
vn 0.3207219243049622 -0.9471734166145325 0
vn 0 0 -1
vn 0 0 1
vn -0.06615842878818512 0.997809112071991 0
vn 0.06615918874740601 0.9978090524673462 0
vn 0 0 -1
vn 0.066158726811409 -0.997809112071991 0
vn 0 0 1
vn 0 0 -1
vn -0.06615898013114929 -0.997809112071991 0
vn 0 0 1
vn -0.4429673552513123 0.896537721157074 0
vn 0 0 -1
vn -0.3207216858863831 0.9471734762191773 0
vn 0 0 1
vn -0.3207225203514099 -0.9471731781959534 0
vn 0 0 -1
vn -0.4429683387279511 -0.8965372443199158 0
vn 0 0 1
vn -0.7523385882377625 0.658776581287384 0
vn 0 0 -1
vn -0.658775806427002 0.7523393034934998 0
vn 0 0 1
vn -0.6587767004966736 -0.7523385286331177 0
vn 0 0 -1
vn -0.7523393034934998 -0.658775806427002 0
vn 0 0 1
vn -0.9471732378005981 0.3207224905490875 0
vn 0 0 -1
vn -0.8965373039245606 0.4429681897163391 0
vn 0 0 1
vn -0.896537721157074 -0.4429673850536346 0
vn 0 0 -1
vn -0.947173535823822 -0.3207215964794159 0
vn 0 0 1
vn -0.997809112071991 -0.06615828722715378 0
vn 0 0 -1
vn -0.9978090524673462 0.06615923345088959 0
f 14//14 22//22 29//29 6//6
f 2//2 6//6 29//29 10//10
f 18//18 10//10 29//29 26//26
f 34//34 26//26 29//29 41//41
f 49//49 41//41 29//29 57//57
f 61//61 57//57 29//29 53//53
f 45//45 53//53 29//29 37//37
f 63//63 55//55 47//47 59//59
f 51//51 59//59 47//47 43//43
f 35//35 43//43 47//47 28//28
f 20//20 28//28 47//47 12//12
f 4//4 12//12 47//47 8//8
f 16//16 8//8 47//47 24//24
f 32//32 24//24 47//47 39//39
f 40//40 38//38 30//30 31//31
f 31//31 30//30 21//21 23//23
f 23//23 21//21 13//13 15//15
f 15//15 13//13 5//5 7//7
f 7//7 5//5 1//1 3//3
f 3//3 1//1 9//9 11//11
f 11//11 9//9 17//17 19//19
f 19//19 17//17 25//25 27//27
f 27//27 25//25 33//33 36//36
f 36//36 33//33 42//42 44//44
f 44//44 42//42 50//50 52//52
f 52//52 50//50 58//58 60//60
f 60//60 58//58 62//62 64//64
f 64//64 62//62 54//54 56//56
f 56//56 54//54 46//46 48//48
f 48//48 46//46 38//38 40//40
