# Rhino

o object_1
v 0.0457 5 5.789
v 6.09 5 3.058
v 6.101 4.105 3.205
v 6.101 5.895 3.205
v 6.136 3.28 3.672
v 6.136 6.72 3.672
v 6.189 2.738 4.382
v 6.189 7.262 4.382
v 6.247 2.567 5.153
v 6.247 7.433 5.153
v 6.304 2.738 5.924
v 6.304 7.262 5.924
v 6.357 3.28 6.634
v 6.357 6.72 6.634
v 6.392 4.105 7.101
v 6.392 5.895 7.101
v 6.403 5 7.248
v 12.13 5 0.3273
v 12.14 4.55 0.3452
v 12.14 5.45 0.3452
v 12.14 4.089 0.4014
v 12.14 5.911 0.4014
v 12.15 6.591 0.5577
v 12.15 3.409 0.5577
v 12.17 2.761 0.7971
v 12.17 7.239 0.7971
v 12.22 1.62 1.503
v 12.22 8.38 1.503
v 12.23 1.56 1.554
v 12.23 8.44 1.554
v 12.27 0.9426 2.205
v 12.27 9.057 2.205
v 12.33 9.511 2.948
v 12.33 0.4886 2.948
v 12.39 0.2187 3.741
v 12.39 9.781 3.741
v 12.45 9.865 4.517
v 12.45 0.1345 4.517
v 12.46 3.306 0.5223
v 12.46 6.694 0.5223
v 12.51 0.2187 5.293
v 12.51 9.781 5.293
v 12.56 0.4886 6.086
v 12.56 9.511 6.086
v 12.62 0.9426 6.829
v 12.62 9.057 6.829
v 12.67 8.44 7.48
v 12.67 1.56 7.48
v 12.67 8.38 7.531
v 12.67 1.62 7.531
v 12.72 2.761 8.237
v 12.72 7.239 8.237
v 12.74 3.409 8.476
v 12.74 6.591 8.476
v 12.75 4.089 8.633
v 12.75 5.911 8.633
v 12.76 4.55 8.689
v 12.76 5.45 8.689
v 12.76 5 8.707
v 13.05 3.306 8.449
v 13.05 6.694 8.449
v 13.29 5 0.1352
v 13.31 3.178 0.4345
v 13.31 6.822 0.4345
v 13.39 1.5 1.384
v 13.39 8.5 1.384
v 13.49 0.3975 2.829
v 13.49 9.602 2.829
v 13.55 0.1326 3.622
v 13.55 9.867 3.622
v 13.61 0.05 4.398
v 13.61 9.95 4.398
v 13.67 0.1326 5.173
v 13.67 9.867 5.173
v 13.73 0.3975 5.967
v 13.73 9.602 5.967
v 13.84 1.5 7.412
v 13.84 8.5 7.412
v 13.91 3.178 8.361
v 13.91 6.822 8.361
v 13.93 5 8.66
v 14.17 3.306 0.3466
v 14.17 6.694 0.3466
v 14.76 3.306 8.273
v 14.76 6.694 8.273
v 14.96 3.712 0.2657
v 14.96 6.288 0.2657
v 15.03 1.746 1.215
v 15.03 8.254 1.215
v 15.48 4.329 0.2126
v 15.48 5.671 0.2126
v 15.48 1.746 7.243
v 15.48 8.254 7.243
v 15.55 3.712 8.192
v 15.55 6.288 8.192
v 15.64 5 0.1959
v 15.66 0.7207 2.607
v 15.66 9.279 2.607
v 15.84 0.4744 3.387
v 15.84 9.526 3.387
v 15.89 0.7207 5.745
v 15.89 9.279 5.745
v 15.94 0.3975 4.159
v 15.94 9.602 4.159
v 15.96 0.4744 4.939
v 15.96 9.526 4.939
v 16.07 4.329 8.139
v 16.07 5.671 8.139
v 16.23 5 8.122
v 16.55 2.525 1.06
v 16.55 7.475 1.06
v 17 2.525 7.088
v 17 7.475 7.088
v 17.54 3.712 0.9575
v 17.54 6.288 0.9575
v 17.65 1.746 2.403
v 17.65 8.254 2.403
v 17.85 5 0.9253
v 17.88 1.746 5.541
v 17.88 8.254 5.541
v 17.95 1.558 3.171
v 17.95 8.442 3.171
v 17.99 3.712 6.986
v 17.99 6.288 6.986
v 18.06 1.558 4.723
v 18.06 8.442 4.723
v 18.08 1.5 3.939
v 18.08 8.5 3.939
v 18.3 5 6.953
v 18.96 3.306 2.268
v 18.96 6.694 2.268
v 19.19 3.306 5.406
v 19.19 6.694 5.406
v 19.33 3.208 3.029
v 19.33 6.792 3.029
v 19.37 5 2.226
v 19.45 3.208 4.581
v 19.45 6.792 4.581
v 19.49 3.178 3.795
v 19.49 6.822 3.795
v 19.6 5 5.364
v 19.77 5 2.985
v 19.88 5 4.536
v 19.93 5 3.749
vn -0.2237 4.281e-16 0.9747
vn -0.2237 4.657e-16 0.9747
vn -0.2341 -0.3084 0.922
vn -0.2341 -0.3084 0.922
vn -0.2676 -0.6188 0.7386
vn -0.2676 -0.6188 0.7386
vn -0.3171 -0.8525 0.4156
vn -0.3171 -0.8525 0.4156
vn -0.3627 -0.9315 0.02706
vn -0.3627 -0.9315 0.02706
vn -0.3938 -0.846 -0.3595
vn -0.3938 -0.846 -0.3595
vn -0.4084 -0.6106 -0.6786
vn -0.4084 -0.6106 -0.6786
vn -0.4116 -0.3034 -0.8594
vn -0.4116 -0.3034 -0.8594
vn -0.4117 5.683e-16 -0.9113
vn -0.4117 2.887e-16 -0.9113
vn -0.4117 2.887e-17 -0.9113
vn -0.4116 0.3034 -0.8594
vn -0.4116 0.3034 -0.8594
vn -0.4084 0.6106 -0.6786
vn -0.4084 0.6106 -0.6786
vn -0.3938 0.846 -0.3595
vn -0.3938 0.846 -0.3595
vn -0.3627 0.9315 0.02706
vn -0.3627 0.9315 0.02706
vn -0.3171 0.8525 0.4156
vn -0.3171 0.8525 0.4156
vn -0.2676 0.6188 0.7386
vn -0.2676 0.6188 0.7386
vn -0.2341 0.3084 0.922
vn -0.2341 0.3084 0.922
vn -0.2237 -1.935e-16 0.9747
vn -0.2237 3.321e-16 0.9747
vn -0.2237 1.417e-16 0.9747
vn -0.2243 0.07632 0.9715
vn -0.2263 0.155 0.9616
vn -0.2318 0.2731 0.9336
vn -0.2404 0.3889 0.8894
vn -0.2657 0.6065 0.7493
vn -0.2676 0.6188 0.7386
vn -0.2907 0.748 0.5966
vn -0.3162 0.8496 0.4221
vn -0.3412 0.9126 0.2252
vn -0.3627 0.9315 0.02706
vn -0.3627 0.9315 0.02706
vn -0.3804 0.909 -0.1705
vn -0.3942 0.843 -0.366
vn -0.4033 0.7398 -0.5385
vn -0.4084 0.6106 -0.6786
vn -0.4087 0.5984 -0.6892
vn -0.4113 0.3828 -0.8272
vn -0.4116 0.2687 -0.8708
vn -0.4117 0.1525 -0.8985
vn -0.4117 0.07505 -0.9082
vn -0.4117 -0.07505 -0.9082
vn -0.4117 -0.1525 -0.8985
vn -0.4116 -0.2687 -0.8708
vn -0.4113 -0.3828 -0.8272
vn -0.4087 -0.5984 -0.6892
vn -0.4084 -0.6106 -0.6786
vn -0.4033 -0.7398 -0.5385
vn -0.3942 -0.843 -0.366
vn -0.3804 -0.909 -0.1705
vn -0.3627 -0.9315 0.02706
vn -0.3627 -0.9315 0.02706
vn -0.3412 -0.9126 0.2252
vn -0.3162 -0.8496 0.4221
vn -0.2907 -0.748 0.5966
vn -0.2676 -0.6188 0.7386
vn -0.2657 -0.6065 0.7493
vn -0.2404 -0.3889 0.8894
vn -0.2318 -0.2731 0.9336
vn -0.2263 -0.155 0.9616
vn -0.2243 -0.07632 0.9715
vn -0.2237 -1.417e-16 0.9747
vn 0.102 8.094e-16 0.9948
vn -0.102 3.731e-17 -0.9948
vn 0.102 1.288e-15 0.9948
vn -0.102 6.784e-17 -0.9948
vn 0.102 4.275e-16 0.9948
vn -0.102 -6.452e-17 -0.9948
vn 0.102 -4.853e-16 0.9948
vn 0.00406 0.3022 0.9532
vn -0.1892 0.3008 -0.9348
vn -0.102 -4.267e-17 -0.9948
vn 0.102 3.179e-16 0.9948
vn 0.09656 0.3234 0.9413
vn 0.07725 0.6534 0.753
vn 0.04254 0.909 0.4147
vn 0.02139 0.9778 0.2085
vn 2.463e-16 1 -4.523e-16
vn -0.02139 0.9778 -0.2085
vn -0.04254 0.909 -0.4147
vn -0.07725 0.6534 -0.753
vn -0.09656 0.3234 -0.9413
vn -0.102 2.52e-16 -0.9948
vn 0.102 -5.046e-16 0.9948
vn 0.1892 0.3008 0.9348
vn 0.2662 0.6121 0.7446
vn 0.3085 0.8616 0.403
vn 0.3086 0.9316 0.1923
vn 0.2941 0.9555 -0.02194
vn 0.2657 0.9348 -0.2359
vn 0.2232 0.8671 -0.4454
vn 0.1114 0.6171 -0.779
vn -0.00406 0.3022 -0.9532
vn -0.102 2.113e-16 -0.9948
vn 0.102 -4.24e-16 0.9948
vn 0.2758 0.2299 0.9333
vn 0.4522 0.4788 0.7525
vn 0.5882 0.6974 0.4095
vn 0.6176 0.7641 0.1861
vn 0.6131 0.7887 -0.04575
vn 0.5748 0.7701 -0.2769
vn 0.5028 0.7071 -0.4972
vn 0.297 0.4867 -0.8215
vn 0.08241 0.2321 -0.9692
vn -0.102 1.095e-16 -0.9948
vn 0.102 -9.629e-16 0.9948
vn 0.3342 0.1204 0.9348
vn 0.5874 0.2571 0.7673
vn 0.8159 0.3903 0.4266
vn 0.8804 0.4352 0.1884
vn 0.8891 0.4528 -0.06634
vn 0.8388 0.4406 -0.3198
vn 0.732 0.3986 -0.5525
vn 0.4322 0.2632 -0.8625
vn 0.1405 0.122 -0.9825
vn -0.102 -6.588e-17 -0.9948
vn 0.102 -5.833e-16 0.9948
vn 0.3529 9.797e-16 0.9357
vn 0.6333 1.046e-15 0.7739
vn 0.9004 7.457e-17 0.4351
vn 0.9816 4.411e-16 0.1907
vn 0.9972 5.247e-16 -0.07441
vn 0.9412 6.125e-16 -0.338
vn 0.8177 -3.406e-16 -0.5756
vn 0.4782 3.22e-16 -0.8782
vn 0.1592 2.479e-16 -0.9873
vn -0.102 8.549e-17 -0.9948
vn 0.102 -1.038e-15 0.9948
vn 0.3342 -0.1204 0.9348
vn 0.5874 -0.2571 0.7673
vn 0.8159 -0.3903 0.4266
vn 0.8804 -0.4352 0.1884
vn 0.8891 -0.4528 -0.06634
vn 0.8388 -0.4406 -0.3198
vn 0.732 -0.3986 -0.5525
vn 0.4322 -0.2632 -0.8625
vn 0.1405 -0.122 -0.9825
vn -0.102 3.486e-16 -0.9948
vn 0.102 -3.098e-16 0.9948
vn 0.2758 -0.2299 0.9333
vn 0.4522 -0.4788 0.7525
vn 0.5882 -0.6974 0.4095
vn 0.6176 -0.7641 0.1861
vn 0.6131 -0.7887 -0.04575
vn 0.5748 -0.7701 -0.2769
vn 0.5028 -0.7071 -0.4972
vn 0.297 -0.4867 -0.8215
vn 0.08241 -0.2321 -0.9692
vn -0.102 -6.103e-17 -0.9948
vn 0.102 5.984e-16 0.9948
vn 0.1892 -0.3008 0.9348
vn 0.2662 -0.6121 0.7446
vn 0.3085 -0.8616 0.403
vn 0.3086 -0.9316 0.1923
vn 0.2941 -0.9555 -0.02194
vn 0.2657 -0.9348 -0.2359
vn 0.2232 -0.8671 -0.4454
vn 0.1114 -0.6171 -0.779
vn -0.00406 -0.3022 -0.9532
vn -0.102 -2.941e-16 -0.9948
vn 0.102 4.64e-16 0.9948
vn 0.09656 -0.3234 0.9413
vn 0.07725 -0.6534 0.753
vn 0.04254 -0.909 0.4147
vn 0.02139 -0.9778 0.2085
vn 5.752e-17 -1 7.029e-17
vn -0.02139 -0.9778 -0.2085
vn -0.04254 -0.909 -0.4147
vn -0.07725 -0.6534 -0.753
vn -0.09656 -0.3234 -0.9413
vn -0.102 6.713e-17 -0.9948
vn 0.102 8.321e-16 0.9948
vn 0.00406 -0.3022 0.9532
vn -0.1892 -0.3008 -0.9348
vn -0.102 6.67e-19 -0.9948
vn 0.102 9.356e-16 0.9948
vn -0.102 -2.339e-16 -0.9948
vn 0.102 5.966e-16 0.9948
vn -0.102 -2.38e-16 -0.9948
vn 0.102 -1.192e-15 0.9948
vn -0.102 5.783e-17 -0.9948
vn -0.2251 6.426e-16 -0.9743
vn -0.2251 3.159e-09 -0.9743
vn -0.2249 0.07897 -0.9712
vn -0.2243 0.1605 -0.9612
vn -0.2226 0.283 -0.9329
vn -0.2197 0.4036 -0.8881
vn -0.21 0.6327 -0.7453
vn -0.2092 0.6458 -0.7343
vn -0.1982 0.7843 -0.5879
vn -0.1832 0.8952 -0.4062
vn -0.1646 0.9661 -0.1991
vn -0.144 0.9895 0.01074
vn -0.144 0.9895 0.01074
vn -0.1217 0.9677 0.2208
vn -0.09808 0.8982 0.4286
vn -0.07584 0.7879 0.6112
vn -0.05687 0.6494 0.7583
vn -0.0554 0.6363 0.7694
vn -0.03581 0.4062 0.9131
vn -0.02945 0.2849 0.9581
vn -0.02537 0.1616 0.9865
vn -0.02392 0.07952 0.9965
vn -0.02346 -6.132e-16 0.9997
vn -0.02346 6.608e-16 0.9997
vn -0.02392 -0.07952 0.9965
vn -0.02537 -0.1616 0.9865
vn -0.02945 -0.2849 0.9581
vn -0.03581 -0.4062 0.9131
vn -0.0554 -0.6363 0.7694
vn -0.05687 -0.6494 0.7583
vn -0.07584 -0.7879 0.6112
vn -0.09808 -0.8982 0.4286
vn -0.1217 -0.9677 0.2208
vn -0.144 -0.9895 0.01074
vn -0.144 -0.9895 0.01074
vn -0.1646 -0.9661 -0.1991
vn -0.1832 -0.8952 -0.4062
vn -0.1982 -0.7843 -0.5879
vn -0.2092 -0.6458 -0.7343
vn -0.21 -0.6327 -0.7453
vn -0.2197 -0.4036 -0.8881
vn -0.2226 -0.283 -0.9329
vn -0.2243 -0.1605 -0.9612
vn -0.2249 -0.07897 -0.9712
vn -0.2251 -7.331e-16 -0.9743
f 15//4 17//2 1//1
f 13//6 15//4 1//3
f 11//8 13//6 1//5
f 9//10 11//8 1//7
f 7//12 9//10 1//9
f 5//14 7//12 1//11
f 3//16 5//14 1//13
f 2//18 3//16 1//15
f 4//21 2//18 1//17
f 6//23 4//21 1//20
f 8//25 6//23 1//22
f 10//27 8//25 1//24
f 12//29 10//27 1//26
f 14//31 12//29 1//28
f 16//33 14//31 1//30
f 17//35 16//33 1//32
f 57//76 59//77 17//2
f 15//4 55//75 17//2
f 55//75 57//76 17//2
f 15//4 51//73 53//74
f 55//75 15//4 53//74
f 51//73 15//4 13//6
f 48//71 50//72 13//6
f 9//10 41//68 11//8
f 11//8 45//70 13//6
f 7//12 5//14 31//63 34//64
f 9//10 7//12 35//65 38//66
f 5//14 3//16 25//60 27//61
f 3//16 2//18 19//57 21//58
f 51//73 13//6 50//72
f 48//71 13//6 45//70
f 45//70 11//8 43//69
f 38//67 41//68 9//10
f 43//69 11//8 41//68
f 34//64 35//65 7//12
f 29//62 31//63 5//14
f 21//58 24//59 3//16
f 25//60 3//16 24//59
f 29//62 5//14 27//61
f 19//57 2//18 18//19
f 4//21 6//23 28//52 26//53
f 6//23 8//25 33//49 32//50
f 12//29 42//45 10//27
f 46//43 12//29 14//31
f 49//41 47//42 14//31
f 8//25 10//27 37//47 36//48
f 14//31 47//42 46//43
f 58//37 56//38 17//35
f 16//33 17//35 56//38
f 58//37 17//35 59//36
f 49//41 14//31 52//40
f 16//33 56//38 54//39
f 52//40 16//33 54//39
f 16//33 52//40 14//31
f 18//19 2//18 20//56
f 20//56 2//18 22//55
f 26//53 23//54 4//21
f 30//51 28//52 6//23
f 22//55 4//21 23//54
f 6//23 32//50 30//51
f 12//29 46//43 44//44
f 10//27 42//45 37//46
f 36//48 33//49 8//25
f 42//45 12//29 44//44
f 22//55 2//18 4//21
f 80//89 61//85 81//84
f 62//98 40//86 64//97
f 85//100 80//89 81//88
f 93//101 78//90 80//89 85//100
f 102//102 76//91 78//90 93//101
f 106//103 74//92 76//91 102//102
f 104//104 72//93 74//92 106//103
f 100//105 70//94 72//93 104//104
f 98//106 68//95 70//94 100//105
f 89//107 66//96 68//95 98//106
f 83//108 64//97 66//96 89//107
f 62//109 64//97 83//108
f 95//111 85//100 81//99
f 113//112 93//101 85//100 95//111
f 120//113 102//102 93//101 113//112
f 126//114 106//103 102//102 120//113
f 128//115 104//104 106//103 126//114
f 122//116 100//105 104//104 128//115
f 117//117 98//106 100//105 122//116
f 111//118 89//107 98//106 117//117
f 87//119 83//108 89//107 111//118
f 62//120 83//108 87//119
f 108//122 95//111 81//110
f 124//123 113//112 95//111 108//122
f 133//124 120//113 113//112 124//123
f 138//125 126//114 120//113 133//124
f 140//126 128//115 126//114 138//125
f 135//127 122//116 128//115 140//126
f 131//128 117//117 122//116 135//127
f 115//129 111//118 117//117 131//128
f 91//130 87//119 111//118 115//129
f 62//131 87//119 91//130
f 109//133 108//122 81//121
f 129//134 124//123 108//122 109//133
f 141//135 133//124 124//123 129//134
f 143//136 138//125 133//124 141//135
f 144//137 140//126 138//125 143//136
f 142//138 135//127 140//126 144//137
f 136//139 131//128 135//127 142//138
f 118//140 115//129 131//128 136//139
f 96//141 91//130 115//129 118//140
f 62//142 91//130 96//141
f 107//144 109//133 81//132
f 123//145 129//134 109//133 107//144
f 132//146 141//135 129//134 123//145
f 137//147 143//136 141//135 132//146
f 139//148 144//137 143//136 137//147
f 134//149 142//138 144//137 139//148
f 130//150 136//139 142//138 134//149
f 114//151 118//140 136//139 130//150
f 90//152 96//141 118//140 114//151
f 62//153 96//141 90//152
f 94//155 107//144 81//143
f 112//156 123//145 107//144 94//155
f 119//157 132//146 123//145 112//156
f 125//158 137//147 132//146 119//157
f 127//159 139//148 137//147 125//158
f 121//160 134//149 139//148 127//159
f 116//161 130//150 134//149 121//160
f 110//162 114//151 130//150 116//161
f 86//163 90//152 114//151 110//162
f 62//164 90//152 86//163
f 84//166 94//155 81//154
f 92//167 112//156 94//155 84//166
f 101//168 119//157 112//156 92//167
f 105//169 125//158 119//157 101//168
f 103//170 127//159 125//158 105//169
f 99//171 121//160 127//159 103//170
f 97//172 116//161 121//160 99//171
f 88//173 110//162 116//161 97//172
f 82//174 86//163 110//162 88//173
f 62//175 86//163 82//174
f 79//177 84//166 81//165
f 77//178 92//167 84//166 79//177
f 75//179 101//168 92//167 77//178
f 73//180 105//169 101//168 75//179
f 71//181 103//170 105//169 73//180
f 69//182 99//171 103//170 71//181
f 67//183 97//172 99//171 69//182
f 65//184 88//173 97//172 67//183
f 63//185 82//174 88//173 65//184
f 62//186 82//174 63//185
f 60//188 79//177 81//176
f 62//190 63//185 39//189
f 58//218 59//219 81//80
f 81//82 56//217 58//218
f 52//215 54//216 61//85
f 81//84 54//216 56//217
f 80//89 52//215 61//85
f 54//216 81//84 61//85
f 78//90 47//213 49//214
f 46//212 47//213 78//90
f 78//90 49//214 52//215
f 76//91 46//212 78//90
f 78//90 52//215 80//89
f 76//91 42//210 44//211
f 37//209 42//210 74//92
f 76//91 74//92 42//210
f 72//93 37//209 74//92
f 76//91 44//211 46//212
f 62//83 20//199 22//200
f 40//86 23//201 26//202
f 64//97 40//86 26//202
f 62//87 22//200 23//201
f 40//86 62//87 23//201
f 20//199 62//81 18//197
f 36//207 68//95 33//206
f 70//94 37//208 72//93
f 36//207 37//208 70//94
f 70//94 68//95 36//207
f 66//96 30//204 32//205
f 66//96 28//203 30//204
f 32//205 68//95 66//96
f 66//96 64//97 26//202
f 68//95 32//205 33//206
f 28//203 66//96 26//202
f 51//224 50//225 77//178
f 77//178 48//226 45//227
f 77//178 50//225 48//226
f 51//224 77//178 79//177
f 75//179 77//178 45//227
f 41//229 73//180 75//179
f 73//180 41//229 38//230
f 75//179 43//228 41//229
f 43//228 75//179 45//227
f 71//181 73//180 38//230
f 81//193 59//220 57//221
f 79//177 60//188 51//224
f 53//223 51//224 60//188
f 81//187 53//223 60//188
f 81//191 57//221 55//222
f 53//223 81//187 55//222
f 38//231 69//182 71//181
f 67//183 69//182 35//232
f 69//182 38//231 35//232
f 34//233 67//183 35//232
f 31//234 65//184 67//183
f 25//237 63//185 65//184
f 31//234 29//235 65//184
f 29//235 27//236 65//184
f 31//234 67//183 34//233
f 39//189 63//185 25//237
f 62//190 39//189 24//238
f 39//189 25//237 24//238
f 21//239 62//190 24//238
f 19//240 62//192 21//239
f 19//240 18//241 62//194
f 25//237 65//184 27//236
