# Rhino

g ______02
o object_1
v 6.766 1.906 2.733
v 6.766 3.093 2.733
v 7.047 1.906 3.78
v 7.047 3.093 3.78
v 7.122 2.499 1.641
v 7.566 1.044 2.191
v 7.566 3.955 2.191
v 7.911 2.499 4.571
v 7.923 1.637 1.099
v 7.923 3.362 1.099
v 8.021 1.044 3.884
v 8.021 3.955 3.884
v 8.342 0.5107 2.903
v 8.342 4.488 2.903
v 8.882 1.637 4.678
v 8.882 3.362 4.678
v 9.06 0.6773 1.244
v 9.06 4.322 1.244
v 9.37 1.966 0.2676
v 9.37 3.033 0.2676
v 9.729 0.6773 4.129
v 9.729 4.322 4.129
v 9.836 0.1442 2.007
v 9.836 4.855 2.007
v 10.07 0.1442 3.19
v 10.07 4.855 3.19
v 10.32 1.966 4.961
v 10.32 3.033 4.961
v 10.61 1.007 0.4918
v 10.61 3.992 0.4918
v 11.09 1.007 4.499
v 11.09 3.992 4.499
v 11.74 0.1442 1.838
v 11.74 4.855 1.838
v 11.79 0.1442 3.039
v 11.79 4.855 3.039
v 11.8 1.966 0.04892
v 11.8 3.033 0.04892
v 11.92 1.966 4.822
v 11.92 3.033 4.822
v 12.3 0.6773 3.902
v 12.3 4.322 3.902
v 12.35 0.6773 0.9521
v 12.35 4.322 0.9521
v 13.16 1.637 4.292
v 13.16 3.362 4.292
v 13.41 0.5107 2.456
v 13.41 4.488 2.456
v 13.53 1.637 0.6136
v 13.53 3.362 0.6136
v 13.85 1.044 3.365
v 13.85 3.955 3.365
v 14.03 2.499 4.023
v 14.09 1.044 1.631
v 14.09 3.955 1.631
v 14.49 2.499 1.029
v 14.79 1.906 3.137
v 14.79 3.093 3.137
v 14.98 1.906 2.071
v 14.98 3.093 2.071
vn 0.4623 0.6841 0.5641
vn 0.2098 0.7997 0.5626
vn 0.2276 0.4677 0.8541
vn 0.5369 0.7564 -0.3736
vn 0.5291 0.2828 -0.8
vn 0.2013 0.7478 -0.6327
vn 0.4901 -0.791 0.3663
vn 0.3196 -0.4483 0.8348
vn 0.1364 -0.757 0.639
vn 0.65 -0.6828 -0.3337
vn 0.2884 -0.7822 -0.5523
vn 0.4622 -0.3484 -0.8155
vn -0.4551 0.7724 0.4431
vn -0.1927 0.2931 0.9365
vn -0.02506 0.7558 0.6543
vn -0.6704 0.7016 -0.2415
vn -0.3797 0.7848 -0.4899
vn -0.5386 0.4569 -0.7079
vn -0.404 -0.665 0.6282
vn -0.1138 -0.7973 0.5927
vn -0.1301 -0.358 0.9246
vn -0.5625 -0.7714 -0.2974
vn -0.6232 -0.4327 -0.6515
vn -0.3121 -0.7493 -0.5841
vn 0.4588 0.8846 0.08378
vn 0.1769 0.9536 -0.2436
vn 0.07912 0.9553 0.285
vn -0.3743 0.9271 0.02017
vn -0.1238 0.9578 0.2593
vn -0.1278 0.954 -0.2711
vn 0.3729 -0.9265 -0.05121
vn 0.1733 -0.9574 0.2308
vn 0.06758 -0.9546 -0.2902
vn -0.4379 -0.8829 0.1695
vn -0.2221 -0.9532 -0.205
vn -0.01867 -0.9556 0.294
vn 0.4036 0.0603 0.9129
vn 0.7433 -0.3575 0.5654
vn 0.8399 0.4053 0.361
vn 0.7648 -0.08829 -0.6382
vn 0.8619 0.4617 -0.2097
vn 0.9125 -0.4005 -0.08402
vn -0.4472 -0.09068 0.8898
vn -0.6859 0.3524 0.6367
vn -0.7998 -0.4006 0.447
vn -0.7361 0.05907 -0.6743
vn -0.8765 -0.4662 -0.1198
vn -0.9146 0.4041 0.01238
vn 0.1051 0.6443 0.7575
vn 0.05341 0.3043 0.9511
vn 0.1366 0.1499 0.9792
vn 0.05407 -0.6446 0.7626
vn 0.1622 -0.2417 0.9567
vn 0.04912 -0.1499 0.9875
vn -0.1236 0.6439 -0.7551
vn 0.1423 0.3011 -0.9429
vn -0.3541 0.1477 -0.9235
vn -0.05128 -0.6446 -0.7628
vn -0.3871 -0.2368 -0.8911
vn 0.156 -0.148 -0.9766
f 52//1 42//2 46//3
f 55//4 50//5 44//6
f 51//7 45//8 41//9
f 54//10 43//11 49//12
f 12//13 16//14 22//15
f 7//16 18//17 10//18
f 11//19 21//20 15//21
f 6//22 9//23 17//24
f 48//25 34//26 36//27
f 14//28 26//29 24//30
f 47//31 35//32 33//33
f 13//34 23//35 25//36
f 53//37 57//38 58//39
f 56//40 60//41 59//42
f 8//43 4//44 3//45
f 5//46 1//47 2//48
f 32//49 28//50 40//51
f 31//52 39//53 27//54
f 30//55 38//56 20//57
f 29//58 19//59 37//60
f 42//2 52//1 48//25
f 42//2 48//25 36//27
f 53//37 58//39 52//1
f 53//37 52//1 46//3
f 46//3 42//2 32//49
f 46//3 32//49 40//51
f 50//5 55//4 60//41
f 50//5 60//41 56//40
f 34//26 48//25 55//4
f 34//26 55//4 44//6
f 44//6 50//5 38//56
f 44//6 38//56 30//55
f 45//8 51//7 57//38
f 45//8 57//38 53//37
f 35//32 47//31 51//7
f 35//32 51//7 41//9
f 41//9 45//8 39//53
f 41//9 39//53 31//52
f 43//11 54//10 47//31
f 43//11 47//31 33//33
f 56//40 59//42 54//10
f 56//40 54//10 49//12
f 49//12 43//11 29//58
f 49//12 29//58 37//60
f 16//14 12//13 4//44
f 16//14 4//44 8//43
f 26//29 14//28 12//13
f 26//29 12//13 22//15
f 22//15 16//14 28//50
f 22//15 28//50 32//49
f 18//17 7//16 14//28
f 18//17 14//28 24//30
f 5//46 2//48 7//16
f 5//46 7//16 10//18
f 10//18 18//17 30//55
f 10//18 30//55 20//57
f 21//20 11//19 13//34
f 21//20 13//34 25//36
f 8//43 3//45 11//19
f 8//43 11//19 15//21
f 15//21 21//20 31//52
f 15//21 31//52 27//54
f 9//23 6//22 1//47
f 9//23 1//47 5//46
f 23//35 13//34 6//22
f 23//35 6//22 17//24
f 17//24 9//23 19//59
f 17//24 19//59 29//58
f 36//27 34//26 24//30
f 36//27 24//30 26//29
f 33//33 35//32 25//36
f 33//33 25//36 23//35
f 58//39 57//38 59//42
f 58//39 59//42 60//41
f 3//45 4//44 2//48
f 3//45 2//48 1//47
f 40//51 28//50 27//54
f 40//51 27//54 39//53
f 20//57 38//56 37//60
f 20//57 37//60 19//59
f 60//41 55//4 48//25
f 60//41 48//25 58//39
f 58//39 48//25 52//1
f 32//49 42//2 36//27
f 32//49 36//27 22//15
f 22//15 36//27 26//29
f 39//53 45//8 53//37
f 39//53 53//37 40//51
f 40//51 53//37 46//3
f 37//60 38//56 50//5
f 37//60 50//5 49//12
f 49//12 50//5 56//40
f 30//55 18//17 24//30
f 30//55 24//30 44//6
f 44//6 24//30 34//26
f 59//42 57//38 51//7
f 59//42 51//7 54//10
f 54//10 51//7 47//31
f 31//52 21//20 25//36
f 31//52 25//36 41//9
f 41//9 25//36 35//32
f 29//58 43//11 33//33
f 29//58 33//33 17//24
f 17//24 33//33 23//35
f 2//48 4//44 12//13
f 2//48 12//13 7//16
f 7//16 12//13 14//28
f 27//54 28//50 16//14
f 27//54 16//14 15//21
f 15//21 16//14 8//43
f 19//59 9//23 5//46
f 19//59 5//46 20//57
f 20//57 5//46 10//18
f 1//47 6//22 13//34
f 1//47 13//34 3//45
f 3//45 13//34 11//19
o object_2
v 0.003072 2.493 4.967
v 9.703 2.493 0.05838
v 9.858 0.7424 0.7794
v 9.858 4.244 0.7794
v 10.23 0.01706 2.521
v 10.23 2.493 2.521
v 10.23 4.97 2.521
v 10.59 0.7424 4.264
v 10.59 4.244 4.264
v 10.74 2.493 4.986
vn -0.1394 0.9065 0.3985
vn -0.2791 0.9027 -0.3276
vn 0.9863 0 -0.1651
vn -0.1177 0.9106 0.3962
vn -0.01928 0.3819 0.924
vn 0.9871 0 -0.1601
vn -0.01081 0.3825 0.9239
vn -0.01081 -0.3825 0.9239
vn 0.9874 0 -0.1581
vn -0.01928 -0.3818 0.924
vn -0.1177 -0.9106 0.3962
vn 0.9871 0 -0.1601
vn -0.1394 -0.9065 0.3985
vn -0.2791 -0.9027 -0.3276
vn 0.9863 0 -0.1651
vn -0.2999 -0.8984 -0.3208
vn -0.4025 -0.3745 -0.8353
vn 0.9857 0 -0.1687
vn -0.4124 -0.3736 -0.8309
vn -0.4124 0.3736 -0.8309
vn 0.9853 0 -0.1706
vn -0.4024 0.3746 -0.8353
vn -0.2999 0.8984 -0.3208
vn 0.9857 0 -0.1687
vn -0.1172 0.9032 0.4128
vn 0.007527 0.3774 0.926
vn 0.007527 -0.3774 0.926
vn -0.1172 -0.9032 0.4128
vn -0.2945 -0.9062 -0.3033
vn -0.4253 -0.3805 -0.8212
vn -0.4253 0.3805 -0.8212
vn -0.2945 0.9062 -0.3033
vn 0.9863 0 -0.1651
f 69//64 67//61 61//85
f 61//86 70//67 69//65
f 61//87 68//70 70//68
f 61//88 65//73 68//71
f 61//89 63//76 65//74
f 61//90 62//79 63//77
f 61//91 64//82 62//80
f 61//92 67//62 64//83
f 66//93 67//63 69//66
f 66//93 69//66 70//69
f 66//93 70//69 68//72
f 66//93 68//72 65//75
f 66//93 65//75 63//78
f 66//93 63//78 62//81
f 66//93 62//81 64//84
f 64//84 67//63 66//93
