# RokuSuper Output Ver2.0 for Wavefront Obj

v 0.84598200 2.78896600 0.78237700
v 1.43324300 2.78896600 0.78237700
v 1.55486800 2.49533600 0.78237700
v 1.13961200 2.08008000 0.78237700
v 0.84598200 2.20170600 0.78237700
v 1.13961200 3.11942700 0.02195600
v 0.69831400 2.93663500 0.02195600
v 1.58091200 2.93663500 0.02195600
v 0.69831400 2.05403600 0.02195600
v 1.58091200 2.05403600 0.02195600
v 1.76370400 2.49533600 0.02195600
v 0.51552200 2.49533600 0.02195600
v 1.13961200 2.91059200 0.78237700
v 1.13961200 2.98387200 0.62262500
v 1.48506000 2.84078300 0.62262500
v 1.62814900 2.49533600 0.62262500
v 1.43324300 2.20170600 0.78237700
v 1.48506000 2.14988800 0.62262500
v 1.13961200 2.00679900 0.62262500
v 0.79416500 2.14988800 0.62262500
v 0.72435700 2.49533600 0.78237700
v 0.65107600 2.49533600 0.62262500
v 0.79416500 2.84078300 0.62262500
v 1.13961200 1.87124400 0.02195600

vn 0.00000000 0.00000000 1.00000000
vn 0.00000000 0.00000000 1.00000000
vn 0.00000000 0.00000000 1.00000000
vn 0.00000000 0.00000000 1.00000000
vn 0.00000000 0.00000000 1.00000000
vn 0.00000000 0.00000000 1.00000000
vn 0.00000000 0.00000000 1.00000000
vn 0.00000000 0.00000000 -1.00000000
vn 0.00000000 0.00000000 -1.00000000
vn 0.00000000 0.00000000 -1.00000000
vn 0.00000000 0.00000000 -1.00000000
vn 0.00000000 0.00000000 -1.00000000
vn 0.00000000 0.00000000 -1.00000000
vn 0.00000000 0.00000000 -1.00000000
vn 0.00000000 0.00000000 -1.00000000
vn 0.00000000 0.00000000 -1.00000000
vn 0.00000000 0.00000000 -1.00000000
vn 0.00000000 0.00000000 -1.00000000
vn 0.00000000 0.00000000 1.00000000
vn 0.00000000 0.00000000 1.00000000
vn 0.00000000 0.00000000 1.00000000
vn 0.12452033 0.90186035 0.41369385
vn 0.72576049 0.54966112 0.41369597
vn 0.66974991 0.66975043 0.32073263
vn -0.00000061 0.94716993 0.32073215
vn 0.72576049 0.54966112 0.41369597
vn 0.90185868 -0.12452052 0.41369744
vn 0.94716930 0.00000036 0.32073402
vn 0.66974991 0.66975043 0.32073263
vn 0.90185868 -0.12452052 0.41369744
vn 0.54966113 -0.72575930 0.41369806
vn 0.66974977 -0.66974955 0.32073475
vn 0.94716930 0.00000036 0.32073402
vn 0.54966113 -0.72575930 0.41369806
vn -0.12452108 -0.90185807 0.41369859
vn -0.00000047 -0.94716913 0.32073454
vn 0.66974977 -0.66974955 0.32073475
vn -0.12452108 -0.90185807 0.41369859
vn -0.72576028 -0.54965978 0.41369813
vn -0.66975040 -0.66974936 0.32073383
vn -0.00000047 -0.94716913 0.32073454
vn -0.72576028 -0.54965978 0.41369813
vn -0.90185892 0.12452096 0.41369677
vn -0.94716947 0.00000051 0.32073351
vn -0.66975040 -0.66974936 0.32073383
vn -0.90185892 0.12452096 0.41369677
vn -0.54966259 0.72576039 0.41369420
vn -0.66975030 0.66974998 0.32073274
vn -0.94716947 0.00000051 0.32073351
vn -0.54966259 0.72576039 0.41369420
vn 0.12452033 0.90186035 0.41369385
vn -0.00000061 0.94716993 0.32073215
vn -0.66975030 0.66974998 0.32073274
vn 0.00000000 0.00000000 1.00000000
vn 0.00000000 0.00000000 1.00000000
vn 0.00000000 0.00000000 1.00000000
vn 0.00000000 0.00000000 1.00000000
vn 0.00000000 0.00000000 -1.00000000
vn 0.00000000 0.00000000 -1.00000000
vn 0.00000000 0.00000000 -1.00000000
vn -0.66975030 0.66974998 0.32073274
vn -0.00000061 0.94716993 0.32073215
vn -0.13347960 0.96673998 0.21816740
vn -0.77797258 0.58920460 0.21816646
vn -0.00000061 0.94716993 0.32073215
vn 0.66974991 0.66975043 0.32073263
vn 0.58920416 0.77797256 0.21816773
vn -0.13347960 0.96673998 0.21816740
vn 0.66974991 0.66975043 0.32073263
vn 0.94716930 0.00000036 0.32073402
vn 0.96673998 0.13347932 0.21816758
vn 0.58920416 0.77797256 0.21816773
vn 0.94716930 0.00000036 0.32073402
vn 0.66974977 -0.66974955 0.32073475
vn 0.77797241 -0.58920435 0.21816773
vn 0.96673998 0.13347932 0.21816758
vn 0.66974977 -0.66974955 0.32073475
vn -0.00000047 -0.94716913 0.32073454
vn 0.13347822 -0.96674013 0.21816756
vn 0.77797241 -0.58920435 0.21816773
vn -0.00000047 -0.94716913 0.32073454
vn -0.66975040 -0.66974936 0.32073383
vn -0.58920520 -0.77797199 0.21816695
vn 0.13347822 -0.96674013 0.21816756
vn -0.66975040 -0.66974936 0.32073383
vn -0.94716947 0.00000051 0.32073351
vn -0.96674044 -0.13347851 0.21816602
vn -0.58920520 -0.77797199 0.21816695
vn -0.94716947 0.00000051 0.32073351
vn -0.66975030 0.66974998 0.32073274
vn -0.77797258 0.58920460 0.21816646
vn -0.96674044 -0.13347851 0.21816602

g ²ã
f 2//1 1//2 21//3 3//4
f 17//5 5//6 4//7
f 8//8 7//9 6//10
f 10//11 9//12 12//13 11//14
f 8//15 11//16 12//17 7//18
f 1//19 2//20 13//21
f 13//22 2//23 15//24 14//25
f 2//26 3//27 16//28 15//29
f 3//30 17//31 18//32 16//33
f 17//34 4//35 19//36 18//37
f 4//38 5//39 20//40 19//41
f 5//42 21//43 22//44 20//45
f 21//46 1//47 23//48 22//49
f 1//50 13//51 14//52 23//53
f 17//54 3//55 21//56 5//57
f 9//58 10//59 24//60
f 23//61 14//62 6//63 7//64
f 14//65 15//66 8//67 6//68
f 15//69 16//70 11//71 8//72
f 16//73 18//74 10//75 11//76
f 18//77 19//78 24//79 10//80
f 19//81 20//82 9//83 24//84
f 20//85 22//86 12//87 9//88
f 22//89 23//90 7//91 12//92

