# Rhino

o object_1
v 3.332 3.472 2.763
v 3.332 3.472 5.009
v 3.332 6.517 2.763
v 3.332 6.517 5.009
v 3.54 3.472 5.217
v 3.54 6.517 5.217
v 3.654 3.472 2.441
v 3.654 6.517 2.441
v 6.26 3.472 5.217
v 6.26 6.517 5.217
v 6.422 3.472 2.441
v 6.422 6.517 2.441
v 6.672 3.472 2.691
v 6.672 3.472 4.805
v 6.672 6.517 2.691
v 6.672 6.517 4.805
vn -0.7071 0 0.7071
vn -0.7071 0 0.7071
vn -0.7071 0 0.7071
vn -0.7071 0 0.7071
vn -0.7071 0 -0.7071
vn -0.7071 0 -0.7071
vn -0.7071 0 -0.7071
vn -0.7071 0 -0.7071
vn 0.7071 0 -0.7071
vn 0.7071 0 -0.7071
vn 0.7071 0 -0.7071
vn 0.7071 0 -0.7071
vn 0.7071 0 0.7071
vn 0.7071 0 0.7071
vn 0.7071 0 0.7071
vn 0.7071 0 0.7071
vn 1 -9.252e-17 0
vn 1 0 0
vn 1 0 0
vn 1 -3.084e-17 0
vn 0 0 -1
vn 0 0 -1
vn 0 0 -1
vn 0 0 -1
vn 0 -1 0
vn 0 -1 0
vn -1.748e-17 -1 0
vn 0 -1 0
vn 0 -1 0
vn 5.245e-17 -1 0
vn 0 -1 0
vn 0 -1 0
vn 0 1 0
vn 0 1 0
vn 0 1 0
vn 0 1 0
vn 3.496e-17 1 0
vn 0 1 0
vn 0 1 0
vn 0 1 0
vn -1 -3.084e-17 0
vn -1 0 0
vn -1 0 0
vn -1 -4.626e-17 0
vn 0 0 1
vn 0 0 1
vn 0 0 1
vn 0 0 1
f 4//3 2//1 5//2 6//4
f 3//8 8//6 7//5 1//7
f 12//9 15//11 13//12 11//10
f 9//14 14//13 16//15 10//16
f 14//18 13//17 15//20 16//19
f 8//21 12//23 11//22 7//24
f 2//26 1//27 13//30 14//31
f 2//26 9//32 5//25
f 13//30 1//27 7//28
f 14//31 9//32 2//26
f 13//30 7//28 11//29
f 16//40 15//37 3//36 4//33
f 16//40 4//33 10//39
f 12//38 8//35 15//37
f 4//33 6//34 10//39
f 8//35 3//36 15//37
f 4//42 3//41 1//44 2//43
f 6//48 5//45 9//46 10//47
