# Rhino

g ______05
o object_1
v 3.964 8.379 0.3992
v 3.964 8.379 0.5377
v 3.964 8.835 0.3992
v 3.964 8.835 0.5377
v 5.814 8.379 0.3992
v 5.814 8.379 0.5377
v 5.814 8.835 0.3992
v 5.814 8.835 0.5377
vn 0 -1 0
vn 0 -1 0
vn 0 -1 0
vn 0 -1 0
vn 1 0 0
vn 1 0 0
vn 1 0 0
vn 1 0 0
vn 0 1 0
vn 0 1 0
vn 0 1 0
vn 0 1 0
vn -1 0 0
vn -1 0 0
vn -1 0 0
vn -1 0 0
vn 0 0 -1
vn 0 0 -1
vn 0 0 -1
vn 0 0 -1
vn 0 0 1
vn 0 0 1
vn 0 0 1
vn 0 0 1
f 1//1 5//3 6//4 2//2
f 5//5 7//7 8//8 6//6
f 7//9 3//11 4//12 8//10
f 3//13 1//15 2//16 4//14
f 5//18 1//17 3//20
f 3//20 7//19 5//18
f 6//22 4//24 2//21
f 4//24 6//22 8//23
o object_2
v 2.773 1.042 0.002689
v 2.773 1.042 0.3997
v 2.773 8.971 0.002689
v 2.773 8.971 0.3997
v 3.194 0.5804 0.002689
v 3.194 0.5804 0.3997
v 3.205 9.399 0.002689
v 3.205 9.399 0.3997
v 3.656 9.399 0.002689
v 3.656 9.399 0.3997
v 6.725 9.4 0.002689
v 6.725 9.4 0.3997
v 6.725 0.5804 0.002689
v 6.725 0.5804 0.3997
v 7.181 1.03 0.002689
v 7.181 1.03 0.3997
v 7.181 8.934 0.002689
v 7.181 8.934 0.3997
vn -0.7031 0.7111 0
vn -0.7031 0.7111 0
vn -0.7031 0.7111 0
vn -0.7031 0.7111 0
vn -1 0 0
vn -1 0 0
vn -1 0 0
vn -1 0 0
vn -0.7389 -0.6738 0
vn -0.7389 -0.6738 0
vn -0.7389 -0.6738 0
vn -0.7389 -0.6738 0
vn 0 -1 0
vn 0 -1 0
vn 0 -1 0
vn 0 -1 0
vn 0.7024 -0.7118 0
vn 0.7024 -0.7118 0
vn 0.7024 -0.7118 0
vn 0.7024 -0.7118 0
vn 1 0 0
vn 1 0 0
vn 1 0 0
vn 1 0 0
vn 0.7147 0.6994 0
vn 0.7147 0.6994 0
vn 0.7147 0.6994 0
vn 0.7147 0.6994 0
vn -0.0004098 1 0
vn -0.0004098 1 0
vn 0 1 0
vn 0 1 0
vn 0 1 0
vn 0 1 0
vn 0 0 -1
vn 0 0 -1
vn 0 0 -1
vn 0 0 -1
vn 0 0 -1
vn 0 0 -1
vn 0 0 -1
vn 0 0 -1
vn 0 0 -1
vn 0 0 1
vn 0 0 1
vn 0 0 1
vn 0 0 1
vn 0 0 1
vn 0 0 1
vn 0 0 1
vn 0 0 1
vn 0 0 1
f 15//25 11//27 12//28 16//26
f 11//29 9//31 10//32 12//30
f 9//33 13//35 14//36 10//34
f 13//37 21//39 22//40 14//38
f 21//41 23//43 24//44 22//42
f 23//45 25//47 26//48 24//46
f 25//49 19//51 20//52 26//50
f 19//53 17//55 18//56 20//54
f 17//55 15//57 16//58 18//56
f 9//61 11//60 25//65
f 11//60 15//59 17//67
f 21//63 13//62 9//61
f 23//64 9//61 25//65
f 19//66 25//65 17//67
f 25//65 11//60 17//67
f 21//63 9//61 23//64
f 10//70 26//74 12//69
f 12//69 18//76 16//68
f 22//72 10//70 14//71
f 24//73 26//74 10//70
f 20//75 18//76 26//74
f 26//74 18//76 12//69
f 22//72 24//73 10//70
o object_3
v 3.964 1.188 0.3992
v 3.964 1.188 0.5377
v 3.964 1.643 0.3992
v 3.964 1.643 0.5377
v 5.814 1.188 0.3992
v 5.814 1.188 0.5377
v 5.814 1.643 0.3992
v 5.814 1.643 0.5377
vn 0 -1 0
vn 0 -1 0
vn 0 -1 0
vn 0 -1 0
vn 1 0 0
vn 1 0 0
vn 1 0 0
vn 1 0 0
vn 0 1 0
vn 0 1 0
vn 0 1 0
vn 0 1 0
vn -1 0 0
vn -1 0 0
vn -1 0 0
vn -1 0 0
vn 0 0 -1
vn 0 0 -1
vn 0 0 -1
vn 0 0 -1
vn 0 0 1
vn 0 0 1
vn 0 0 1
vn 0 0 1
f 27//77 31//79 32//80 28//78
f 31//81 33//83 34//84 32//82
f 33//85 29//87 30//88 34//86
f 29//89 27//91 28//92 30//90
f 31//94 27//93 29//96
f 29//96 33//95 31//94
f 32//98 30//100 28//97
f 30//100 32//98 34//99
g ______10
o object_4
v 3.788 4.899 0.005422
v 3.788 4.899 5.47
v 4.073 5.772 0.005422
v 4.073 5.772 5.47
v 4.203 4.08 0.005422
v 4.203 4.08 5.47
v 4.892 6.187 0.005422
v 4.892 6.187 5.47
v 5.076 3.795 0.005422
v 5.076 3.795 5.47
v 5.765 5.902 0.005422
v 5.765 5.902 5.47
v 5.895 4.21 0.005422
v 5.895 4.21 5.47
v 6.18 5.083 0.005422
v 6.18 5.083 5.47
vn 0.7593 -0.6508 0
vn 0.7593 -0.6508 0
vn 0.0767 -0.9971 0
vn 0.0767 -0.9971 0
vn -0.6508 -0.7593 0
vn -0.6508 -0.7593 0
vn -0.9971 -0.0767 0
vn -0.9971 -0.0767 0
vn -0.7593 0.6508 0
vn -0.7593 0.6508 0
vn -0.0767 0.9971 0
vn -0.0767 0.9971 0
vn 0.6508 0.7593 0
vn 0.6508 0.7593 0
vn 0.9971 0.0767 0
vn 0.9971 0.0767 0
vn 0.7593 -0.6508 0
vn 0.7593 -0.6508 0
vn 0 0 1
vn 0 0 1
vn 0 0 1
vn 0 0 1
vn 0 0 1
vn 0 0 1
vn 0 0 1
vn 0 0 1
vn 0 0 -1
vn 0 0 -1
vn 0 0 -1
vn 0 0 -1
vn 0 0 -1
vn 0 0 -1
vn 0 0 -1
vn 0 0 -1
f 48//101 44//103 43//104 47//102
f 44//103 40//105 39//106 43//104
f 40//105 36//107 35//108 39//106
f 36//107 38//109 37//110 35//108
f 38//109 42//111 41//112 37//110
f 42//111 46//113 45//114 41//112
f 46//113 50//115 49//116 45//114
f 50//115 48//117 47//118 49//116
f 38//123 46//125 42//124
f 46//125 38//123 36//122
f 36//122 44//120 46//125
f 46//125 44//120 48//119
f 44//120 36//122 40//121
f 48//119 50//126 46//125
f 37//131 41//132 45//133
f 45//133 35//130 37//131
f 35//130 45//133 43//128
f 45//133 47//127 43//128
f 43//128 39//129 35//130
f 47//127 45//133 49//134
