# Rhino

v 21.0993537902832 5 1.557759046554565
v 21.0993537902832 5 1.557759046554565
v 21.0993537902832 5 0.08575300127267838
v 21.0993537902832 5 0.08575300127267838
v 20.0007495880127 9.100047111511231 1.557759046554565
v 20.0007495880127 9.100047111511231 1.557759046554565
v 20.0007495880127 9.100047111511231 0.08575300127267838
v 20.0007495880127 9.100047111511231 0.08575300127267838
v 20.0007495880127 0.8999530076980591 1.557759046554565
v 20.0007495880127 0.8999530076980591 1.557759046554565
v 20.0007495880127 0.8999530076980591 0.08575300127267838
v 20.0007495880127 0.8999530076980591 0.08575300127267838
v 16.99930763244629 12.10148811340332 1.557759046554565
v 16.99930763244629 12.10148811340332 1.557759046554565
v 16.99930763244629 12.10148811340332 0.08575300127267838
v 16.99930763244629 12.10148811340332 0.08575300127267838
v 16.99930763244629 -2.101489067077637 1.557759046554565
v 16.99930763244629 -2.101489067077637 1.557759046554565
v 16.99930763244629 -2.101489067077637 0.08575300127267838
v 16.99930763244629 -2.101489067077637 0.08575300127267838
v 12.89926147460938 13.20009422302246 1.557759046554565
v 12.89926147460938 13.20009422302246 1.557759046554565
v 12.89926147460938 13.20009422302246 0.08575300127267838
v 12.89926147460938 13.20009422302246 0.08575300127267838
v 12.89926147460938 -3.200093984603882 1.557759046554565
v 12.89926147460938 -3.200093984603882 1.557759046554565
v 12.89926147460938 -3.200093984603882 0.08575300127267838
v 12.89926147460938 -3.200093984603882 0.08575300127267838
v 8.799213409423828 12.10148811340332 1.557759046554565
v 8.799213409423828 12.10148811340332 1.557759046554565
v 8.799213409423828 12.10148811340332 0.08575300127267838
v 8.799213409423828 12.10148811340332 0.08575300127267838
v 8.799213409423828 -2.101489067077637 1.557759046554565
v 8.799213409423828 -2.101489067077637 1.557759046554565
v 8.799213409423828 -2.101489067077637 0.08575300127267838
v 8.799213409423828 -2.101489067077637 0.08575300127267838
v 5.797770977020264 9.100047111511231 1.557759046554565
v 5.797770977020264 9.100047111511231 1.557759046554565
v 5.797770977020264 9.100047111511231 0.08575300127267838
v 5.797770977020264 9.100047111511231 0.08575300127267838
v 5.797770977020264 0.8999530076980591 1.557759046554565
v 5.797770977020264 0.8999530076980591 1.557759046554565
v 5.797770977020264 0.8999530076980591 0.08575300127267838
v 5.797770977020264 0.8999530076980591 0.08575300127267838
v 4.699166774749756 5 1.557759046554565
v 4.699166774749756 5 1.557759046554565
v 4.699166774749756 5 0.08575300127267838
v 4.699166774749756 5 0.08575300127267838
vn 1 0 0
vn 0 0 1
vn 1 0 0
vn 0 0 -1
vn 0.8181104063987732 0.5750611424446106 0
vn 0 0 1
vn 0.9070727229118347 0.420973926782608 0
vn 0 0 -1
vn 0.818110466003418 -0.5750610828399658 0
vn 0 0 1
vn 0.9070727825164795 -0.4209738671779633 0
vn 0 0 -1
vn 0.4209741055965424 0.9070726633071899 0
vn 0 0 1
vn 0.5750610828399658 0.818110466003418 0
vn 0 0 -1
vn 0.4209740161895752 -0.9070726633071899 0
vn 0 0 1
vn 0.5750611424446106 -0.818110466003418 0
vn 0 0 -1
vn 0 0 1
vn -0.08896234631538391 0.9960349798202515 0
vn 0.08896242082118988 0.9960349798202515 0
vn 0 0 -1
vn 0 0 1
vn -0.08896227180957794 -0.9960349798202515 0
vn 0.08896233141422272 -0.9960349798202515 0
vn 0 0 -1
vn 0 0 1
vn -0.5750610828399658 0.818110466003418 0
vn 0 0 -1
vn -0.42097407579422 0.9070726633071899 0
vn 0 0 1
vn -0.5750610828399658 -0.818110466003418 0
vn 0 0 -1
vn -0.4209739863872528 -0.9070727229118347 0
vn 0 0 1
vn -0.9070727229118347 0.420973926782608 0
vn 0 0 -1
vn -0.8181104063987732 0.5750611424446106 0
vn 0 0 1
vn -0.9070727825164795 -0.4209738671779633 0
vn 0 0 -1
vn -0.818110466003418 -0.5750610828399658 0
vn 0 0 1
vn -1 0 0
vn 0 0 -1
vn -1 0 0
f 32//32 30//30 22//22 23//23
f 23//23 22//22 13//13 15//15
f 15//15 13//13 5//5 7//7
f 7//7 5//5 1//1 3//3
f 48//48 46//46 38//38 40//40
f 40//40 38//38 30//30 32//32
f 21//21 29//29 37//37 14//14
f 6//6 14//14 37//37 2//2
f 10//10 2//2 37//37 18//18
f 25//25 18//18 37//37 33//33
f 41//41 33//33 37//37 45//45
f 24//24 16//16 8//8 31//31
f 39//39 31//31 8//8 47//47
f 43//43 47//47 8//8 35//35
f 28//28 35//35 8//8 20//20
f 12//12 20//20 8//8 4//4
f 26//26 34//34 36//36 27//27
f 17//17 26//26 27//27 19//19
f 9//9 17//17 19//19 11//11
f 1//1 9//9 11//11 3//3
f 42//42 46//46 48//48 44//44
f 34//34 42//42 44//44 36//36
