# Blender v2.64 (sub 0) OBJ File: '30cm_retake_output_Pitch.blend'
# www.blender.org
mtllib 30cm_retake_output_Pitch.mtl
o Mesh.001_Cylinder.002
v 6.456964 8.664802 2.287398
v 6.456955 8.381043 2.003640
v 6.456964 8.263507 2.287398
v 6.456951 8.664802 1.886104
v 6.456955 8.948559 2.003640
v 6.456964 9.066095 2.287398
v 6.456972 8.948559 2.571157
v 6.456977 8.664802 2.688693
v 6.456972 8.381042 2.571156
v 14.951065 8.332531 2.287310
v 14.951065 8.332531 2.287310
v 14.951059 8.429852 2.052359
v 14.951059 8.429852 2.052359
v 14.951057 8.664803 1.955040
v 14.951057 8.664803 1.955040
v 14.951059 8.899753 2.052360
v 14.951059 8.899753 2.052360
v 14.951065 8.997072 2.287311
v 14.951065 8.997072 2.287311
v 14.951072 8.899753 2.522262
v 14.951072 8.899753 2.522262
v 14.951078 8.664803 2.619582
v 14.951078 8.664803 2.619582
v 14.951072 8.429852 2.522262
v 14.951072 8.429852 2.522262
v 10.146204 8.263507 2.287375
v 10.146192 8.381043 2.003617
v 10.146187 8.664802 1.886081
v 10.146192 8.948559 2.003617
v 10.146204 9.066095 2.287375
v 10.146210 8.948559 2.571133
v 10.146212 8.664802 2.688669
v 10.146210 8.381043 2.571133
v 10.248608 8.369063 2.287374
v 10.248605 8.455683 2.078255
v 10.248602 8.664802 1.991635
v 10.248602 8.873919 2.078255
v 10.248608 8.960540 2.287375
v 10.248613 8.873919 2.496493
v 10.248618 8.664802 2.583112
v 10.248613 8.455683 2.496492
v 14.951065 8.393306 2.287310
v 14.951063 8.472825 2.095334
v 14.951059 8.664803 2.015814
v 14.951063 8.856778 2.095334
v 14.951065 8.936298 2.287311
v 14.951072 8.856778 2.479288
v 14.951075 8.664803 2.558807
v 14.951072 8.472825 2.479288
v 7.580107 8.423157 2.287311
v 7.580112 8.493933 2.458181
v 7.580114 8.664803 2.528956
v 7.580112 8.835671 2.458181
v 7.580107 8.906447 2.287311
v 7.580102 8.835671 2.116442
v 7.580101 8.664803 2.045665
v 7.580102 8.493934 2.116442
v 7.580107 8.664803 2.287311
v 13.867873 8.664802 1.991587
v 13.867886 8.455684 2.496443
v 13.867875 8.873920 2.078206
v 13.867880 8.960540 2.287325
v 13.867880 8.369063 2.287324
v 13.867875 8.455684 2.078206
v 13.867890 8.664802 2.583063
v 13.867886 8.873920 2.496444
v 13.954044 8.664802 1.955054
v 13.954060 8.429851 2.522275
v 13.954044 8.899753 2.052373
v 13.954052 8.997072 2.287324
v 13.954052 8.332531 2.287324
v 13.954048 8.429851 2.052373
v 13.954062 8.664802 2.619595
v 13.954060 8.899753 2.522276
vn -1.000000 0.000000 0.000032
vn -1.000000 -0.000001 0.000033
vn -1.000000 0.000001 0.000033
vn -1.000000 -0.000000 0.000027
vn -1.000000 -0.000004 0.000031
vn -1.000000 0.000004 0.000031
vn 0.000000 0.000000 0.000000
vn -0.000002 -0.923880 -0.382684
vn -0.000006 -0.382683 -0.923880
vn -0.000006 0.382684 -0.923879
vn -0.000002 0.923880 -0.382683
vn 0.000002 0.923879 0.382684
vn 0.000006 0.382684 0.923879
vn 0.000006 -0.382684 0.923879
vn 0.000002 -0.923880 0.382683
vn 0.689614 -0.669045 -0.277148
vn 0.689591 -0.277130 -0.669076
vn 0.689596 0.277133 -0.669070
vn 0.689618 0.669040 -0.277151
vn 0.689632 0.669042 0.277112
vn 0.689630 0.277132 0.669035
vn 0.689631 -0.277132 0.669035
vn 0.689635 -0.669040 0.277110
vn 1.000000 -0.000025 -0.000028
vn 1.000000 -0.000008 -0.000052
vn 1.000000 0.000008 -0.000052
vn 1.000000 0.000025 -0.000028
vn 1.000000 0.000011 -0.000027
vn 1.000000 0.000006 -0.000039
vn 1.000000 -0.000006 -0.000039
vn 1.000000 -0.000011 -0.000027
vn 0.003741 0.923874 -0.382678
vn 0.003741 0.382676 -0.923875
vn 0.003741 -0.382678 -0.923874
vn 0.003741 -0.923873 -0.382681
vn 0.003741 -0.923873 0.382682
vn 0.003741 -0.382683 0.923872
vn 0.003742 0.382681 0.923873
vn 0.003742 0.923873 0.382682
vn 1.000000 0.000000 -0.000028
vn 1.000000 -0.000004 -0.000032
vn 1.000000 0.000004 -0.000032
vn 1.000000 0.000002 -0.000026
vn 1.000000 -0.000002 -0.000026
vn -0.000005 -0.923879 -0.382684
vn -0.000012 -0.382683 -0.923880
vn -0.000013 0.382683 -0.923880
vn -0.000005 0.923880 -0.382683
vn 0.000005 0.923879 0.382684
vn 0.000013 0.382681 0.923880
vn 0.000013 -0.382683 0.923880
vn 0.000005 -0.923879 0.382684
vn -0.364703 -0.860249 -0.356320
vn -0.000012 -0.382680 -0.923881
vn -0.364707 -0.356327 -0.860244
vn -0.000013 0.382682 -0.923880
vn -0.364711 0.356323 -0.860244
vn -0.000005 0.923880 -0.382682
vn -0.364706 0.860250 -0.356315
vn 0.000005 0.923880 0.382682
vn -0.364695 0.860246 0.356335
vn 0.000012 0.382682 0.923880
vn -0.364699 0.356320 0.860251
vn -0.364700 -0.356321 0.860250
vn -0.364699 -0.860244 0.356336
vn 0.000006 -0.923880 0.382683
usemtl _silver
s off
f 1//1 2//1 3//1
f 1//2 4//2 2//2
f 1//3 5//3 4//3
f 1//1 6//1 5//1
f 1//4 7//4 6//4
f 1//5 8//5 7//5
f 1//6 9//6 8//6
f 1//4 3//4 9//4
f 10//7 11//7 12//7 13//7
f 13//7 12//7 14//7 15//7
f 15//7 14//7 16//7 17//7
f 17//7 16//7 18//7 19//7
f 19//7 18//7 20//7 21//7
f 21//7 20//7 22//7 23//7
f 23//7 22//7 24//7 25//7
f 11//7 10//7 25//7 24//7
f 26//8 3//8 2//8 27//8
f 27//9 2//9 4//9 28//9
f 28//10 4//10 5//10 29//10
f 29//11 5//11 6//11 30//11
f 30//12 6//12 7//12 31//12
f 31//13 7//13 8//13 32//13
f 32//14 8//14 9//14 33//14
f 3//15 26//15 33//15 9//15
f 34//16 26//16 27//16 35//16
f 35//17 27//17 28//17 36//17
f 36//18 28//18 29//18 37//18
f 37//19 29//19 30//19 38//19
f 38//20 30//20 31//20 39//20
f 39//21 31//21 32//21 40//21
f 40//22 32//22 33//22 41//22
f 26//23 34//23 41//23 33//23
f 42//24 10//24 13//24 43//24
f 15//25 44//25 43//25 13//25
f 17//26 45//26 44//26 15//26
f 19//27 46//27 45//27 17//27
f 21//28 47//28 46//28 19//28
f 23//29 48//29 47//29 21//29
f 25//30 49//30 48//30 23//30
f 10//31 42//31 49//31 25//31
f 49//32 42//32 50//32 51//32
f 48//33 49//33 51//33 52//33
f 47//34 48//34 52//34 53//34
f 46//35 47//35 53//35 54//35
f 45//36 46//36 54//36 55//36
f 44//37 45//37 55//37 56//37
f 43//38 44//38 56//38 57//38
f 42//39 43//39 57//39 50//39
f 50//40 58//40 51//40
f 51//41 58//41 52//41
f 52//42 58//42 53//42
f 53//40 58//40 54//40
f 54//40 58//40 55//40
f 55//43 58//43 56//43
f 56//44 58//44 57//44
f 57//40 58//40 50//40
f 63//45 34//45 35//45 64//45
f 64//46 35//46 36//46 59//46
f 59//47 36//47 37//47 61//47
f 61//48 37//48 38//48 62//48
f 62//49 38//49 39//49 66//49
f 66//50 39//50 40//50 65//50
f 65//51 40//51 41//51 60//51
f 34//52 63//52 60//52 41//52
f 11//45 71//45 72//45 12//45
f 71//53 63//53 64//53 72//53
f 12//54 72//54 67//54 14//54
f 72//55 64//55 59//55 67//55
f 14//56 67//56 69//56 16//56
f 67//57 59//57 61//57 69//57
f 16//58 69//58 70//58 18//58
f 69//59 61//59 62//59 70//59
f 18//60 70//60 74//60 20//60
f 70//61 62//61 66//61 74//61
f 20//62 74//62 73//62 22//62
f 74//63 66//63 65//63 73//63
f 22//51 73//51 68//51 24//51
f 73//64 65//64 60//64 68//64
f 63//65 71//65 68//65 60//65
f 71//66 11//66 24//66 68//66
o Mesh.000_Cylinder.000
v 6.456964 6.421288 2.287398
v 6.456955 6.137531 2.003640
v 6.456964 6.019994 2.287398
v 6.456951 6.421288 1.886104
v 6.456955 6.705046 2.003640
v 6.456964 6.822582 2.287398
v 6.456972 6.705046 2.571157
v 6.456977 6.421288 2.688693
v 6.456972 6.137529 2.571156
v 14.951065 6.089018 2.287310
v 14.951065 6.089018 2.287310
v 14.951059 6.186338 2.052359
v 14.951059 6.186338 2.052359
v 14.951057 6.421289 1.955040
v 14.951057 6.421289 1.955040
v 14.951059 6.656240 2.052360
v 14.951059 6.656240 2.052360
v 14.951065 6.753560 2.287311
v 14.951065 6.753560 2.287311
v 14.951072 6.656239 2.522262
v 14.951072 6.656239 2.522262
v 14.951078 6.421289 2.619582
v 14.951078 6.421289 2.619582
v 14.951072 6.186338 2.522262
v 14.951072 6.186338 2.522262
v 10.146204 6.019994 2.287375
v 10.146192 6.137531 2.003617
v 10.146187 6.421288 1.886081
v 10.146192 6.705046 2.003617
v 10.146204 6.822582 2.287375
v 10.146210 6.705046 2.571133
v 10.146212 6.421288 2.688669
v 10.146210 6.137531 2.571133
v 10.248608 6.125550 2.287374
v 10.248605 6.212170 2.078255
v 10.248602 6.421288 1.991635
v 10.248602 6.630406 2.078255
v 10.248608 6.717027 2.287375
v 10.248613 6.630406 2.496493
v 10.248618 6.421288 2.583112
v 10.248613 6.212170 2.496492
v 14.951065 6.149793 2.287310
v 14.951063 6.229312 2.095334
v 14.951059 6.421289 2.015814
v 14.951063 6.613266 2.095334
v 14.951065 6.692785 2.287311
v 14.951072 6.613265 2.479288
v 14.951075 6.421289 2.558807
v 14.951072 6.229312 2.479288
v 7.580107 6.179644 2.287311
v 7.580112 6.250420 2.458181
v 7.580114 6.421289 2.528956
v 7.580112 6.592158 2.458181
v 7.580107 6.662935 2.287311
v 7.580102 6.592158 2.116442
v 7.580101 6.421289 2.045665
v 7.580102 6.250420 2.116442
v 7.580107 6.421289 2.287311
v 13.867873 6.421288 1.991587
v 13.867886 6.212170 2.496443
v 13.867875 6.630407 2.078206
v 13.867880 6.717027 2.287325
v 13.867880 6.125550 2.287324
v 13.867875 6.212171 2.078206
v 13.867890 6.421288 2.583063
v 13.867886 6.630407 2.496444
v 13.954044 6.421288 1.955054
v 13.954060 6.186337 2.522275
v 13.954044 6.656240 2.052373
v 13.954052 6.753560 2.287324
v 13.954052 6.089018 2.287324
v 13.954048 6.186337 2.052373
v 13.954062 6.421288 2.619595
v 13.954060 6.656239 2.522276
vn -0.000006 0.382684 -0.923880
vn -0.000002 0.923880 -0.382682
vn 0.000006 0.382683 0.923880
vn 0.000003 -0.923880 0.382682
vn 0.689612 -0.669047 -0.277150
vn 0.689591 -0.277130 -0.669077
vn 0.689596 0.277132 -0.669070
vn 0.689619 0.669039 -0.277150
vn 0.689630 0.277132 0.669036
vn 0.689630 -0.277133 0.669035
vn 0.689632 -0.669042 0.277111
vn 0.003742 0.923874 -0.382679
vn 0.003741 0.382678 -0.923874
vn 0.003741 -0.923873 -0.382682
vn 0.003741 -0.923873 0.382681
vn 0.003741 -0.382681 0.923873
vn 0.003742 0.382682 0.923873
vn -0.000005 -0.923879 -0.382686
vn 0.000005 0.923879 0.382685
vn 0.000013 -0.382684 0.923879
vn -0.364701 -0.860249 -0.356321
vn -0.000012 -0.382681 -0.923881
vn -0.000013 0.382681 -0.923880
vn -0.000005 0.923879 -0.382684
vn -0.364708 0.860249 -0.356316
vn -0.364697 0.860244 0.356337
vn -0.364699 -0.356322 0.860250
vn -0.364695 -0.860245 0.356336
vn 0.000005 -0.923880 0.382683
usemtl _silver
s off
f 75//1 76//1 77//1
f 75//2 78//2 76//2
f 75//3 79//3 78//3
f 75//1 80//1 79//1
f 75//4 81//4 80//4
f 75//5 82//5 81//5
f 75//6 83//6 82//6
f 75//4 77//4 83//4
f 84//7 85//7 86//7 87//7
f 87//7 86//7 88//7 89//7
f 89//7 88//7 90//7 91//7
f 91//7 90//7 92//7 93//7
f 93//7 92//7 94//7 95//7
f 95//7 94//7 96//7 97//7
f 97//7 96//7 98//7 99//7
f 85//7 84//7 99//7 98//7
f 100//8 77//8 76//8 101//8
f 101//9 76//9 78//9 102//9
f 102//67 78//67 79//67 103//67
f 103//68 79//68 80//68 104//68
f 104//12 80//12 81//12 105//12
f 105//69 81//69 82//69 106//69
f 106//14 82//14 83//14 107//14
f 77//70 100//70 107//70 83//70
f 108//71 100//71 101//71 109//71
f 109//72 101//72 102//72 110//72
f 110//73 102//73 103//73 111//73
f 111//74 103//74 104//74 112//74
f 112//20 104//20 105//20 113//20
f 113//75 105//75 106//75 114//75
f 114//76 106//76 107//76 115//76
f 100//77 108//77 115//77 107//77
f 116//24 84//24 87//24 117//24
f 89//25 118//25 117//25 87//25
f 91//26 119//26 118//26 89//26
f 93//27 120//27 119//27 91//27
f 95//28 121//28 120//28 93//28
f 97//29 122//29 121//29 95//29
f 99//30 123//30 122//30 97//30
f 84//31 116//31 123//31 99//31
f 123//78 116//78 124//78 125//78
f 122//79 123//79 125//79 126//79
f 121//34 122//34 126//34 127//34
f 120//80 121//80 127//80 128//80
f 119//81 120//81 128//81 129//81
f 118//82 119//82 129//82 130//82
f 117//83 118//83 130//83 131//83
f 116//39 117//39 131//39 124//39
f 124//40 132//40 125//40
f 125//41 132//41 126//41
f 126//42 132//42 127//42
f 127//40 132//40 128//40
f 128//40 132//40 129//40
f 129//43 132//43 130//43
f 130//44 132//44 131//44
f 131//40 132//40 124//40
f 137//84 108//84 109//84 138//84
f 138//46 109//46 110//46 133//46
f 133//47 110//47 111//47 135//47
f 135//48 111//48 112//48 136//48
f 136//85 112//85 113//85 140//85
f 140//50 113//50 114//50 139//50
f 139//86 114//86 115//86 134//86
f 108//52 137//52 134//52 115//52
f 85//45 145//45 146//45 86//45
f 145//87 137//87 138//87 146//87
f 86//88 146//88 141//88 88//88
f 146//55 138//55 133//55 141//55
f 88//89 141//89 143//89 90//89
f 141//57 133//57 135//57 143//57
f 90//90 143//90 144//90 92//90
f 143//91 135//91 136//91 144//91
f 92//85 144//85 148//85 94//85
f 144//92 136//92 140//92 148//92
f 94//62 148//62 147//62 96//62
f 148//63 140//63 139//63 147//63
f 96//51 147//51 142//51 98//51
f 147//93 139//93 134//93 142//93
f 137//94 145//94 142//94 134//94
f 145//95 85//95 98//95 142//95
