# Blender v2.63 (sub 13) OBJ File: '97shiki_leg_L_output.blend'
# www.blender.org
mtllib 97shiki_leg_L_output.mtl
o Cylinder.008
v 6.217926 6.402977 0.627741
v 6.217926 6.402977 1.021336
v 6.233160 6.439757 0.627741
v 6.233160 6.439757 1.021336
v 6.269940 6.454992 0.627741
v 6.269940 6.454992 1.021336
v 6.306720 6.439757 0.627741
v 6.306720 6.439757 1.021336
v 6.321955 6.402977 0.627741
v 6.321955 6.402977 1.021336
v 6.306720 6.366197 0.627741
v 6.306720 6.366197 1.021336
v 6.269940 6.350962 0.627741
v 6.269940 6.350962 1.021336
v 6.233160 6.366197 0.627741
v 6.233160 6.366197 1.021336
v 6.217926 6.402977 0.683969
v 6.233160 6.439757 0.683969
v 6.269940 6.454992 0.683969
v 6.306720 6.439757 0.683969
v 6.321955 6.402977 0.683969
v 6.306720 6.366197 0.683969
v 6.269940 6.350962 0.683969
v 6.233160 6.366197 0.683969
v 6.233160 6.299496 0.671057
v 6.269940 6.299496 0.671057
v 6.269940 6.299496 0.614829
v 6.306720 6.299496 0.614829
v 6.321955 6.299496 0.614829
v 6.217926 6.299496 0.614829
v 6.306720 6.299496 0.671057
v 6.321955 6.299496 0.671057
v 6.217926 6.299496 0.671057
v 6.233160 6.299496 0.614829
v 6.233160 6.237087 0.671057
v 6.269940 6.237087 0.671057
v 6.269940 6.237087 0.614829
v 6.306720 6.237087 0.614829
v 6.321955 6.237087 0.614829
v 6.217926 6.237087 0.614829
v 6.306720 6.237087 0.671057
v 6.321955 6.237087 0.671057
v 6.217926 6.237087 0.671057
v 6.233160 6.237087 0.614829
v 6.269940 6.299496 0.313542
v 6.306720 6.299496 0.313542
v 6.321955 6.299496 0.313542
v 6.217926 6.299496 0.313542
v 6.233160 6.299496 0.313542
v 6.269940 6.237087 0.313542
v 6.306720 6.237087 0.313542
v 6.321955 6.237087 0.313542
v 6.217926 6.237087 0.313542
v 6.233160 6.237087 0.313542
v 6.327843 6.465770 0.700226
v 6.211453 6.465770 0.700226
v 6.211453 6.479365 0.700226
v 6.327843 6.479365 0.700226
v 6.327843 6.465770 1.087517
v 6.211453 6.465770 1.087517
v 6.211453 6.479365 1.087517
v 6.327843 6.479365 1.087517
v 6.327843 6.502911 0.658442
v 6.211453 6.502911 0.658442
v 6.211453 6.516506 0.658442
v 6.327843 6.516506 0.658442
v 6.327843 6.470412 0.605052
v 6.211453 6.470413 0.605052
v 6.211453 6.484008 0.605052
v 6.327843 6.484008 0.605052
vn -0.923877 0.382688 0.000000
vn -0.382688 0.923877 0.000000
vn 0.382688 0.923877 0.000000
vn 0.923877 0.382688 0.000000
vn 0.923877 -0.382688 0.000000
vn 0.382688 -0.923877 0.000000
vn 0.000000 -0.000000 1.000000
vn -0.923877 -0.382688 0.000000
vn -0.382688 -0.923877 0.000000
vn -0.000000 0.000000 -1.000000
vn -0.923878 0.382688 0.000000
vn -0.382688 0.923878 0.000000
vn 0.382688 0.923878 0.000000
vn 0.923878 0.382688 0.000000
vn 1.000000 0.000000 0.000000
vn -1.000000 0.000000 0.000000
vn 0.178197 -0.147628 0.972858
vn -0.044176 0.213295 -0.975989
vn 0.044176 -0.213295 0.975989
vn 0.000000 1.000000 0.000000
vn -0.178200 -0.147628 0.972857
vn 0.178200 0.147628 -0.972857
vn -0.178197 0.147628 -0.972858
vn -0.044176 -0.213295 0.975989
vn 0.044176 0.213295 -0.975989
vn 0.000000 -1.000000 0.000000
vn 0.000031 1.000000 0.000000
vn 0.000000 -0.747408 -0.664365
vn 0.000000 0.747408 0.664365
vn 0.000000 0.854199 -0.519946
vn -0.000002 -0.854198 0.519949
usemtl 
s off
f 17//1 2//1 4//1 18//1
f 18//2 4//2 6//2 19//2
f 19//3 6//3 8//3 20//3
f 20//4 8//4 10//4 21//4
f 21//5 10//5 12//5 22//5
f 22//6 12//6 14//6 23//6
f 4//7 2//7 16//7
f 4//7 16//7 6//7
f 16//7 14//7 6//7
f 14//7 12//7 6//7
f 12//7 8//7 6//7
f 12//7 10//7 8//7
f 24//8 16//8 2//8 17//8
f 23//9 14//9 16//9 24//9
f 1//10 3//10 15//10
f 3//10 5//10 15//10
f 5//10 13//10 15//10
f 5//10 11//10 13//10
f 5//10 7//10 11//10
f 7//10 9//10 11//10
f 1//11 17//11 18//11 3//11
f 3//12 18//12 19//12 5//12
f 5//13 19//13 20//13 7//13
f 7//14 20//14 21//14 9//14
f 32//15 29//15 9//15 21//15
f 17//16 1//16 30//16 33//16
f 21//17 22//17 31//17 32//17
f 28//18 27//18 13//18 11//18
f 22//19 23//19 26//19 31//19
f 46//20 45//20 27//20 28//20
f 24//21 17//21 33//21 25//21
f 1//22 15//22 34//22 30//22
f 26//7 25//7 35//7 36//7
f 29//23 28//23 11//23 9//23
f 31//7 26//7 36//7 41//7
f 33//16 30//16 40//16 43//16
f 23//24 24//24 25//24 26//24
f 27//25 34//25 15//25 13//25
f 44//26 35//26 43//26 40//26
f 39//26 42//26 41//26 38//26
f 37//26 36//26 35//26 44//26
f 38//26 41//26 36//26 37//26
f 48//16 53//16 40//16 30//16
f 39//26 38//26 51//26 52//26
f 42//15 39//15 29//15 32//15
f 25//7 33//7 43//7 35//7
f 29//15 39//15 52//15 47//15
f 32//7 31//7 41//7 42//7
f 51//10 50//10 45//10 46//10
f 52//10 51//10 46//10 47//10
f 54//10 53//10 48//10 49//10
f 50//10 54//10 49//10 45//10
f 47//27 46//27 28//27 29//27
f 49//20 48//20 30//20 34//20
f 44//26 40//26 53//26 54//26
f 45//20 49//20 34//20 27//20
f 37//26 44//26 54//26 50//26
f 38//26 37//26 50//26 51//26
f 59//26 60//26 56//26 55//26
f 60//16 61//16 57//16 56//16
f 61//20 62//20 58//20 57//20
f 62//15 59//15 55//15 58//15
f 64//28 63//28 55//28 56//28
f 62//7 61//7 60//7 59//7
f 69//16 68//16 64//16 65//16
f 65//16 64//16 56//16 57//16
f 63//15 66//15 58//15 55//15
f 66//29 65//29 57//29 58//29
f 67//10 68//10 69//10 70//10
f 70//30 69//30 65//30 66//30
f 67//15 70//15 66//15 63//15
f 68//31 67//31 63//31 64//31
o Cylinder.007_Cylinder.006
v 5.999772 6.327728 0.308047
v 5.999772 6.478226 0.308047
v 6.035967 6.327728 0.172963
v 6.035967 6.478226 0.172963
v 6.134856 6.327728 0.074074
v 6.134856 6.478226 0.074074
v 6.269940 6.327728 0.037879
v 6.269940 6.478226 0.037879
v 6.405025 6.327728 0.074074
v 6.405025 6.478226 0.074074
v 6.503913 6.327728 0.172963
v 6.503913 6.478226 0.172963
v 6.540109 6.327728 0.308047
v 6.540109 6.478226 0.308047
v 6.503913 6.327728 0.443131
v 6.503913 6.478226 0.443131
v 6.405025 6.327728 0.542020
v 6.405025 6.478226 0.542020
v 6.269940 6.327728 0.578216
v 6.269940 6.478226 0.578216
v 6.134856 6.327728 0.542020
v 6.134856 6.478226 0.542020
v 6.035967 6.327728 0.443132
v 6.035967 6.478226 0.443132
v 6.161916 6.478226 0.245679
v 6.145205 6.478226 0.308047
v 6.207572 6.478226 0.200023
v 6.269940 6.478226 0.183312
v 6.332308 6.478226 0.200023
v 6.377964 6.478226 0.245679
v 6.394676 6.478226 0.308047
v 6.377964 6.478226 0.370415
v 6.332308 6.478226 0.416071
v 6.269940 6.478226 0.432783
v 6.207573 6.478226 0.416071
v 6.161916 6.478226 0.370415
v 6.161916 6.504050 0.245679
v 6.145205 6.504050 0.308047
v 6.207572 6.504050 0.200023
v 6.269940 6.504050 0.183312
v 6.332308 6.504050 0.200023
v 6.377964 6.504050 0.245679
v 6.394676 6.504050 0.308047
v 6.377964 6.504050 0.370415
v 6.332308 6.504050 0.416071
v 6.269940 6.504050 0.432783
v 6.207573 6.504050 0.416071
v 6.161916 6.504050 0.370415
v 6.141653 6.327728 0.308047
v 6.158840 6.327728 0.243903
v 6.205797 6.327728 0.196947
v 6.269940 6.327728 0.179760
v 6.334084 6.327728 0.196947
v 6.381041 6.327728 0.243903
v 6.398228 6.327728 0.308047
v 6.381041 6.327728 0.372191
v 6.334084 6.327728 0.419147
v 6.269940 6.327728 0.436335
v 6.205797 6.327728 0.419147
v 6.158840 6.327728 0.372191
v 6.141653 6.295801 0.308047
v 6.158840 6.295801 0.243903
v 6.205797 6.295801 0.196947
v 6.269940 6.295801 0.179760
v 6.334084 6.295801 0.196947
v 6.381041 6.295801 0.243903
v 6.398228 6.295801 0.308047
v 6.381041 6.295801 0.372191
v 6.334084 6.295801 0.419147
v 6.269940 6.295801 0.436335
v 6.205797 6.295801 0.419147
v 6.158840 6.295801 0.372191
vn -0.965926 0.000000 -0.258819
vn -0.707106 0.000000 -0.707108
vn -0.258819 0.000000 -0.965926
vn 0.258819 0.000000 -0.965926
vn 0.707106 0.000000 -0.707108
vn 0.965926 0.000000 -0.258819
vn 0.965926 0.000000 0.258819
vn 0.707106 0.000000 0.707108
vn 0.258819 0.000000 0.965926
vn -0.258819 0.000000 0.965926
vn -0.707104 0.000000 0.707110
vn -0.965926 0.000000 0.258819
vn -0.707105 0.000000 0.707108
vn 0.965926 0.000000 0.258817
vn 0.707108 0.000000 -0.707106
vn -0.965927 0.000000 0.258816
vn 0.965926 -0.000000 -0.258817
vn -0.965926 0.000000 -0.258817
vn 0.707108 0.000000 0.707106
vn -0.707108 0.000000 -0.707106
vn -0.258818 0.000000 -0.965926
vn -0.258820 0.000000 0.965926
vn 0.707106 0.000000 0.707107
vn -0.707106 -0.000000 -0.707107
vn -0.707106 0.000000 0.707108
vn 0.707106 0.000000 -0.707107
vn -0.965926 0.000000 0.258817
usemtl 
s off
f 71//32 72//32 74//32 73//32
f 73//33 74//33 76//33 75//33
f 75//34 76//34 78//34 77//34
f 77//35 78//35 80//35 79//35
f 79//36 80//36 82//36 81//36
f 81//37 82//37 84//37 83//37
f 83//38 84//38 86//38 85//38
f 85//39 86//39 88//39 87//39
f 87//40 88//40 90//40 89//40
f 89//41 90//41 92//41 91//41
f 106//42 105//42 117//42 118//42
f 72//43 71//43 93//43 94//43
f 91//44 92//44 94//44 93//44
f 125//45 126//45 138//45 137//45
f 96//20 95//20 74//20 72//20
f 95//20 97//20 76//20 74//20
f 97//20 98//20 78//20 76//20
f 98//20 99//20 80//20 78//20
f 99//20 100//20 82//20 80//20
f 100//20 101//20 84//20 82//20
f 101//20 102//20 86//20 84//20
f 102//20 103//20 88//20 86//20
f 103//20 104//20 90//20 88//20
f 104//20 105//20 92//20 90//20
f 105//20 106//20 94//20 92//20
f 106//20 96//20 72//20 94//20
f 107//20 108//20 118//20
f 107//20 118//20 109//20
f 118//20 117//20 109//20
f 117//20 110//20 109//20
f 117//20 116//20 110//20
f 116//20 111//20 110//20
f 116//20 115//20 111//20
f 115//20 112//20 111//20
f 115//20 114//20 112//20
f 114//20 113//20 112//20
f 100//46 99//46 111//46 112//46
f 96//47 106//47 118//47 108//47
f 101//48 100//48 112//48 113//48
f 102//45 101//45 113//45 114//45
f 95//49 96//49 108//49 107//49
f 103//50 102//50 114//50 115//50
f 97//51 95//51 107//51 109//51
f 104//40 103//40 115//40 116//40
f 98//52 97//52 109//52 110//52
f 105//53 104//53 116//53 117//53
f 99//35 98//35 110//35 111//35
f 71//26 73//26 120//26 119//26
f 121//26 120//26 73//26 75//26
f 122//26 121//26 75//26 77//26
f 123//26 122//26 77//26 79//26
f 124//26 123//26 79//26 81//26
f 125//26 124//26 81//26 83//26
f 126//26 125//26 83//26 85//26
f 127//26 126//26 85//26 87//26
f 128//26 127//26 87//26 89//26
f 129//26 128//26 89//26 91//26
f 130//26 129//26 91//26 93//26
f 93//26 71//26 119//26 130//26
f 131//26 132//26 142//26
f 132//26 133//26 142//26
f 133//26 141//26 142//26
f 133//26 134//26 141//26
f 134//26 140//26 141//26
f 134//26 135//26 140//26
f 135//26 139//26 140//26
f 135//26 136//26 139//26
f 136//26 138//26 139//26
f 136//26 137//26 138//26
f 119//49 120//49 132//49 131//49
f 126//54 127//54 139//54 138//54
f 120//55 121//55 133//55 132//55
f 127//40 128//40 140//40 139//40
f 121//34 122//34 134//34 133//34
f 128//41 129//41 141//41 140//41
f 122//35 123//35 135//35 134//35
f 129//56 130//56 142//56 141//56
f 123//57 124//57 136//57 135//57
f 130//58 119//58 131//58 142//58
f 124//48 125//48 137//48 136//48
