# Blender v2.63 (sub 13) OBJ File: '97shiki_leg_R_output.blend'
# www.blender.org
mtllib 97shiki_leg_R_output.mtl
o Cylinder.013_Cylinder.007
v 5.999771 3.701860 0.308047
v 5.999771 3.551362 0.308047
v 6.035967 3.701860 0.172963
v 6.035967 3.551362 0.172963
v 6.134856 3.701860 0.074074
v 6.134856 3.551362 0.074074
v 6.269940 3.701860 0.037879
v 6.269940 3.551362 0.037879
v 6.405024 3.701860 0.074074
v 6.405024 3.551362 0.074074
v 6.503913 3.701860 0.172963
v 6.503913 3.551362 0.172963
v 6.540109 3.701860 0.308047
v 6.540109 3.551362 0.308047
v 6.503913 3.701860 0.443132
v 6.503913 3.551362 0.443132
v 6.405024 3.701860 0.542020
v 6.405024 3.551362 0.542020
v 6.269940 3.701860 0.578216
v 6.269940 3.551362 0.578216
v 6.134856 3.701860 0.542020
v 6.134856 3.551362 0.542020
v 6.035967 3.701860 0.443132
v 6.035967 3.551362 0.443132
v 6.161916 3.551362 0.245680
v 6.145205 3.551362 0.308047
v 6.207572 3.551362 0.200023
v 6.269940 3.551362 0.183312
v 6.332308 3.551362 0.200023
v 6.377964 3.551362 0.245680
v 6.394675 3.551362 0.308047
v 6.377964 3.551362 0.370415
v 6.332308 3.551362 0.416071
v 6.269940 3.551362 0.432783
v 6.207572 3.551362 0.416071
v 6.161916 3.551362 0.370415
v 6.161916 3.525538 0.245680
v 6.145205 3.525538 0.308047
v 6.207572 3.525538 0.200023
v 6.269940 3.525538 0.183312
v 6.332308 3.525538 0.200023
v 6.377964 3.525538 0.245680
v 6.394675 3.525538 0.308047
v 6.377964 3.525538 0.370415
v 6.332308 3.525538 0.416071
v 6.269940 3.525538 0.432783
v 6.207572 3.525538 0.416071
v 6.161916 3.525538 0.370415
v 6.141653 3.701860 0.308047
v 6.158840 3.701860 0.243904
v 6.205796 3.701860 0.196947
v 6.269940 3.701860 0.179760
v 6.334084 3.701860 0.196947
v 6.381040 3.701860 0.243904
v 6.398227 3.701860 0.308047
v 6.381040 3.701860 0.372191
v 6.334084 3.701860 0.419147
v 6.269940 3.701860 0.436335
v 6.205796 3.701860 0.419147
v 6.158840 3.701860 0.372191
v 6.141653 3.733787 0.308047
v 6.158840 3.733787 0.243904
v 6.205796 3.733787 0.196947
v 6.269940 3.733787 0.179760
v 6.334084 3.733787 0.196947
v 6.381040 3.733787 0.243904
v 6.398227 3.733787 0.308047
v 6.381040 3.733787 0.372191
v 6.334084 3.733787 0.419147
v 6.269940 3.733787 0.436335
v 6.205796 3.733787 0.419147
v 6.158840 3.733787 0.372191
v 6.217926 3.626611 0.627741
v 6.217926 3.626611 1.021336
v 6.233160 3.589831 0.627741
v 6.233160 3.589831 1.021336
v 6.269940 3.574596 0.627741
v 6.269940 3.574596 1.021336
v 6.306720 3.589831 0.627741
v 6.306720 3.589831 1.021336
v 6.321955 3.626611 0.627741
v 6.321955 3.626611 1.021336
v 6.306720 3.663391 0.627741
v 6.306720 3.663391 1.021336
v 6.269940 3.678626 0.627741
v 6.269940 3.678626 1.021336
v 6.233160 3.663391 0.627741
v 6.233160 3.663391 1.021336
v 6.217926 3.626611 0.683969
v 6.233160 3.589831 0.683969
v 6.269940 3.574596 0.683968
v 6.306720 3.589831 0.683969
v 6.321955 3.626611 0.683969
v 6.306720 3.663391 0.683969
v 6.269940 3.678626 0.683969
v 6.233160 3.663391 0.683969
v 6.233160 3.730092 0.671056
v 6.269940 3.730092 0.671056
v 6.269940 3.730092 0.614828
v 6.306720 3.730092 0.614828
v 6.321955 3.730092 0.614828
v 6.217926 3.730092 0.614828
v 6.306720 3.730092 0.671056
v 6.321955 3.730092 0.671056
v 6.217926 3.730092 0.671056
v 6.233160 3.730092 0.614828
v 6.233160 3.792502 0.671056
v 6.269940 3.792502 0.671056
v 6.269940 3.792502 0.614828
v 6.306720 3.792502 0.614828
v 6.321955 3.792502 0.614828
v 6.217926 3.792502 0.614828
v 6.306720 3.792502 0.671056
v 6.321955 3.792502 0.671056
v 6.217926 3.792502 0.671056
v 6.233160 3.792502 0.614828
v 6.269940 3.730093 0.313542
v 6.306720 3.730093 0.313542
v 6.321955 3.730093 0.313542
v 6.217926 3.730093 0.313542
v 6.233160 3.730093 0.313542
v 6.269940 3.792502 0.313542
v 6.306720 3.792502 0.313542
v 6.321955 3.792502 0.313542
v 6.217926 3.792502 0.313542
v 6.233160 3.792502 0.313542
v 6.327843 3.563818 0.700226
v 6.211452 3.563818 0.700226
v 6.211452 3.550223 0.700226
v 6.327843 3.550223 0.700226
v 6.327843 3.563818 1.087516
v 6.211452 3.563818 1.087516
v 6.211452 3.550223 1.087516
v 6.327843 3.550223 1.087516
v 6.327843 3.526677 0.658442
v 6.211452 3.526677 0.658442
v 6.211452 3.513082 0.658442
v 6.327843 3.513082 0.658442
v 6.327843 3.559176 0.605052
v 6.211452 3.559176 0.605052
v 6.211452 3.545580 0.605052
v 6.327843 3.545580 0.605052
vn -0.965926 0.000000 -0.258819
vn -0.707106 0.000000 -0.707108
vn -0.258819 0.000000 -0.965926
vn 0.258819 0.000000 -0.965926
vn 0.707106 0.000000 -0.707108
vn 0.965926 0.000000 -0.258819
vn 0.965926 0.000000 0.258819
vn 0.707106 0.000000 0.707108
vn 0.258820 0.000000 0.965926
vn -0.258819 0.000000 0.965926
vn -0.707107 0.000000 0.707106
vn -0.965926 0.000000 0.258819
vn -0.707106 0.000000 0.707108
vn 0.965926 0.000000 0.258817
vn 0.000000 -1.000000 0.000000
vn 0.707108 0.000000 -0.707106
vn -0.965927 0.000000 0.258816
vn 0.965926 0.000000 -0.258817
vn -0.965926 0.000000 -0.258817
vn 0.707108 0.000000 0.707106
vn -0.707108 0.000000 -0.707106
vn -0.258818 0.000000 0.965926
vn 0.000000 1.000000 -0.000000
vn 0.707106 0.000000 0.707107
vn -0.707106 0.000000 -0.707107
vn 0.258821 0.000000 -0.965925
vn -0.707105 0.000000 0.707108
vn -0.965926 0.000000 0.258817
vn -0.923882 -0.382678 0.000000
vn -0.382684 -0.923879 0.000000
vn 0.382688 -0.923878 0.000000
vn 0.923882 -0.382678 0.000000
vn 0.923883 0.382676 0.000000
vn 0.382683 0.923880 0.000000
vn -0.000000 0.000000 1.000000
vn -0.923883 0.382676 0.000000
vn -0.382679 0.923881 0.000000
vn -0.000000 0.000000 -1.000000
vn 1.000000 0.000000 -0.000000
vn -1.000000 0.000000 0.000000
vn 0.178206 0.147628 0.972856
vn -0.044175 -0.213295 -0.975989
vn 0.044175 0.213295 0.975989
vn 0.000000 -1.000000 -0.000001
vn -0.178206 0.147628 0.972856
vn 0.178206 -0.147628 -0.972856
vn -0.178206 -0.147628 -0.972856
vn -0.044174 0.213295 0.975989
vn 0.044174 -0.213295 -0.975989
vn 0.000000 1.000000 0.000001
vn 1.000000 -0.000004 0.000001
vn 1.000000 -0.000018 0.000001
vn 0.000000 0.747410 -0.664363
vn 1.000000 -0.000018 0.000010
vn 0.000000 -0.747412 0.664361
vn 0.000000 0.000004 -1.000000
vn 0.000000 -0.854201 -0.519943
vn 1.000000 -0.000018 -0.000006
vn 0.000000 0.854197 0.519949
usemtl 
s off
f 1//1 3//1 4//1 2//1
f 3//2 5//2 6//2 4//2
f 5//3 7//3 8//3 6//3
f 7//4 9//4 10//4 8//4
f 9//5 11//5 12//5 10//5
f 11//6 13//6 14//6 12//6
f 13//7 15//7 16//7 14//7
f 15//8 17//8 18//8 16//8
f 17//9 19//9 20//9 18//9
f 19//10 21//10 22//10 20//10
f 36//11 48//11 47//11 35//11
f 23//12 1//12 2//12 24//12
f 21//13 23//13 24//13 22//13
f 55//14 67//14 68//14 56//14
f 26//15 2//15 4//15 25//15
f 25//15 4//15 6//15 27//15
f 27//15 6//15 8//15 28//15
f 28//15 8//15 10//15 29//15
f 29//15 10//15 12//15 30//15
f 30//15 12//15 14//15 31//15
f 31//15 14//15 16//15 32//15
f 32//15 16//15 18//15 33//15
f 33//15 18//15 20//15 34//15
f 34//15 20//15 22//15 35//15
f 35//15 22//15 24//15 36//15
f 36//15 24//15 2//15 26//15
f 45//15 46//15 47//15
f 45//15 47//15 48//15
f 44//15 45//15 48//15
f 44//15 48//15 38//15
f 43//15 44//15 38//15
f 42//15 43//15 38//15
f 37//15 42//15 38//15
f 37//15 41//15 42//15
f 37//15 39//15 41//15
f 39//15 40//15 41//15
f 30//16 42//16 41//16 29//16
f 26//17 38//17 48//17 36//17
f 31//18 43//18 42//18 30//18
f 32//14 44//14 43//14 31//14
f 25//19 37//19 38//19 26//19
f 33//20 45//20 44//20 32//20
f 27//21 39//21 37//21 25//21
f 34//9 46//9 45//9 33//9
f 28//3 40//3 39//3 27//3
f 35//22 47//22 46//22 34//22
f 29//4 41//4 40//4 28//4
f 1//23 49//23 50//23 3//23
f 51//23 5//23 3//23 50//23
f 52//23 7//23 5//23 51//23
f 53//23 9//23 7//23 52//23
f 54//23 11//23 9//23 53//23
f 55//23 13//23 11//23 54//23
f 56//23 15//23 13//23 55//23
f 57//23 17//23 15//23 56//23
f 58//23 19//23 17//23 57//23
f 59//23 21//23 19//23 58//23
f 60//23 23//23 21//23 59//23
f 49//23 1//23 23//23 60//23
f 71//23 70//23 69//23
f 72//23 71//23 69//23
f 72//23 69//23 68//23
f 61//23 72//23 68//23
f 61//23 68//23 67//23
f 61//23 67//23 66//23
f 61//23 66//23 62//23
f 66//23 65//23 62//23
f 65//23 63//23 62//23
f 65//23 64//23 63//23
f 49//19 61//19 62//19 50//19
f 56//24 68//24 69//24 57//24
f 50//25 62//25 63//25 51//25
f 57//9 69//9 70//9 58//9
f 51//3 63//3 64//3 52//3
f 58//10 70//10 71//10 59//10
f 52//26 64//26 65//26 53//26
f 59//27 71//27 72//27 60//27
f 53//5 65//5 66//5 54//5
f 60//28 72//28 61//28 49//28
f 54//18 66//18 67//18 55//18
f 89//29 90//29 76//29 74//29
f 90//30 91//30 78//30 76//30
f 91//31 92//31 80//31 78//31
f 92//32 93//32 82//32 80//32
f 93//33 94//33 84//33 82//33
f 94//34 95//34 86//34 84//34
f 76//35 88//35 74//35
f 76//35 78//35 88//35
f 78//35 86//35 88//35
f 78//35 80//35 86//35
f 80//35 84//35 86//35
f 80//35 82//35 84//35
f 96//36 89//36 74//36 88//36
f 95//37 96//37 88//37 86//37
f 73//38 87//38 75//38
f 87//38 77//38 75//38
f 87//38 85//38 77//38
f 85//38 79//38 77//38
f 85//38 83//38 79//38
f 83//38 81//38 79//38
f 73//29 75//29 90//29 89//29
f 75//30 77//30 91//30 90//30
f 77//31 79//31 92//31 91//31
f 79//32 81//32 93//32 92//32
f 104//39 93//39 81//39 101//39
f 89//40 105//40 102//40 73//40
f 93//41 104//41 103//41 94//41
f 100//42 83//42 85//42 99//42
f 94//43 103//43 98//43 95//43
f 118//44 100//44 99//44 117//44
f 96//45 97//45 105//45 89//45
f 106//46 87//46 73//46 102//46
f 98//35 108//35 107//35 97//35
f 101//47 81//47 83//47 100//47
f 103//35 113//35 108//35 98//35
f 105//40 115//40 112//40 102//40
f 95//48 98//48 97//48 96//48
f 99//49 85//49 87//49 106//49
f 116//23 112//23 115//23 107//23
f 111//23 110//23 113//23 114//23
f 109//23 116//23 107//23 108//23
f 110//23 109//23 108//23 113//23
f 120//40 102//40 112//40 125//40
f 111//50 124//50 123//50 110//50
f 114//39 104//39 101//39 111//39
f 97//35 107//35 115//35 105//35
f 101//51 119//51 124//51 111//51
f 104//35 114//35 113//35 103//35
f 123//38 118//38 117//38 122//38
f 124//38 119//38 118//38 123//38
f 126//38 121//38 120//38 125//38
f 122//38 117//38 121//38 126//38
f 119//44 101//44 100//44 118//44
f 121//44 106//44 102//44 120//44
f 116//50 126//50 125//50 112//50
f 117//44 99//44 106//44 121//44
f 109//50 122//50 126//50 116//50
f 110//50 123//50 122//50 109//50
f 131//50 127//50 128//50 132//50
f 132//40 128//40 129//40 133//40
f 133//15 129//15 130//15 134//15
f 134//52 130//52 127//52 131//52
f 136//53 128//53 127//53 135//53
f 134//35 131//35 132//35 133//35
f 141//40 137//40 136//40 140//40
f 137//40 129//40 128//40 136//40
f 135//54 127//54 130//54 138//54
f 138//55 130//55 129//55 137//55
f 139//56 142//56 141//56 140//56
f 142//57 138//57 137//57 141//57
f 139//58 135//58 138//58 142//58
f 140//59 136//59 135//59 139//59
