# Blender v2.63 (sub 13) OBJ File: '97shiki_propeller_output.blend'
# www.blender.org
mtllib 97shiki_propeller_output.mtl
o Cylinder.006_Cylinder.005
v 7.852720 5.077982 1.404696
v 7.858363 5.480993 1.590992
v 7.852721 5.758210 1.746248
v 7.845668 5.884449 1.849157
v 7.842038 5.909232 1.883375
v 7.852721 5.060461 1.435044
v 7.858363 5.452361 1.640584
v 7.852721 5.732141 1.791400
v 7.845668 5.872056 1.870623
v 7.842801 5.905441 1.889482
v 7.816046 5.074589 1.410168
v 7.808993 5.442660 1.651195
v 7.816046 5.712787 1.819482
v 7.821689 5.848351 1.905852
v 7.828742 5.889397 1.916590
v 7.816046 5.057067 1.440516
v 7.808993 5.414028 1.700788
v 7.816046 5.686718 1.864634
v 7.821688 5.835958 1.927318
v 7.830152 5.887152 1.921416
vn 0.670030 -0.358892 0.649813
vn -0.999919 0.011046 0.006389
vn 0.877586 -0.245632 0.411713
vn -0.999842 -0.015380 -0.008874
vn 0.929746 -0.212423 0.300745
vn -0.999039 -0.037953 -0.021912
vn 0.941851 -0.221532 0.252668
vn -0.995747 -0.088789 -0.024580
vn -0.005538 0.866011 0.499994
vn -0.670701 0.390857 -0.630390
vn -0.877485 0.239050 -0.415782
vn -0.929094 0.159278 -0.333789
vn -0.940699 0.111335 -0.320453
vn 0.048358 -0.870349 -0.490054
vn 0.999871 0.013905 0.008022
vn 0.999754 -0.019198 -0.011084
vn 0.999383 -0.030411 -0.017551
vn 0.977622 -0.157117 -0.139889
usemtl 
s off
f 11//1 1//1 2//1 12//1
f 1//2 6//2 7//2 2//2
f 12//3 2//3 3//3 13//3
f 8//4 3//4 2//4 7//4
f 13//5 3//5 4//5 14//5
f 9//6 4//6 3//6 8//6
f 14//7 4//7 5//7 15//7
f 10//8 5//8 4//8 9//8
f 1//9 11//9 16//9 6//9
f 17//10 7//10 6//10 16//10
f 18//11 8//11 7//11 17//11
f 19//12 9//12 8//12 18//12
f 20//13 10//13 9//13 19//13
f 10//14 20//14 15//14 5//14
f 12//15 17//15 16//15 11//15
f 13//16 18//16 17//16 12//16
f 14//17 19//17 18//17 13//17
f 15//18 20//18 19//18 14//18
o Cylinder.005_Cylinder.004
v 7.852720 4.971708 1.439516
v 7.858363 4.608866 1.695386
v 7.852721 4.335802 1.857835
v 7.845668 4.183561 1.915708
v 7.842038 4.141536 1.920061
v 7.852721 4.954186 1.409168
v 7.858363 4.580234 1.645794
v 7.852721 4.309733 1.812684
v 7.845668 4.171167 1.894243
v 7.842801 4.138142 1.913725
v 7.816046 4.968666 1.433841
v 7.808993 4.575894 1.632088
v 7.816046 4.295091 1.781881
v 7.821688 4.152510 1.856098
v 7.828741 4.122688 1.886277
v 7.816046 4.951145 1.403493
v 7.808993 4.547262 1.582495
v 7.816046 4.269023 1.736729
v 7.821688 4.140117 1.834633
v 7.830152 4.119631 1.881920
vn 0.670029 -0.383310 -0.635715
vn -0.999919 -0.011056 0.006371
vn 0.877586 -0.233738 -0.418580
vn -0.999842 0.015375 -0.008882
vn 0.929746 -0.154244 -0.334337
vn -0.999039 0.037953 -0.021912
vn 0.941848 -0.108054 -0.318193
vn -0.995747 0.065680 -0.064606
vn -0.005542 -0.866011 0.499994
vn -0.670700 0.350507 0.653687
vn -0.877485 0.240554 0.414915
vn -0.929094 0.209431 0.304833
vn -0.940699 0.221852 0.256645
vn 0.048485 0.859545 -0.508755
vn 0.999871 -0.013900 0.008031
vn 0.999754 0.019198 -0.011084
vn 0.999383 0.030408 -0.017556
vn 0.977618 0.199732 -0.066105
usemtl 
s off
f 31//19 21//19 22//19 32//19
f 21//20 26//20 27//20 22//20
f 32//21 22//21 23//21 33//21
f 28//22 23//22 22//22 27//22
f 33//23 23//23 24//23 34//23
f 29//24 24//24 23//24 28//24
f 34//25 24//25 25//25 35//25
f 30//26 25//26 24//26 29//26
f 21//27 31//27 36//27 26//27
f 37//28 27//28 26//28 36//28
f 38//29 28//29 27//29 37//29
f 39//30 29//30 28//30 38//30
f 40//31 30//31 29//31 39//31
f 30//32 40//32 35//32 25//32
f 32//33 37//33 36//33 31//33
f 33//34 38//34 37//34 32//34
f 34//35 39//35 38//35 33//35
f 35//36 40//36 39//36 34//36
o Cylinder.004_Cylinder.003
v 7.852720 4.994690 1.330069
v 7.858363 4.954521 0.887904
v 7.852721 4.950369 0.570199
v 7.845668 4.976370 0.409418
v 7.842038 4.993613 0.370847
v 7.852721 5.029733 1.330069
v 7.858363 5.011786 0.887904
v 7.852721 5.002505 0.570199
v 7.845668 5.001157 0.409418
v 7.842801 5.000797 0.371076
v 7.816046 5.001126 1.330273
v 7.808993 5.025825 0.890999
v 7.816046 5.036502 0.572920
v 7.821688 5.043519 0.412332
v 7.828741 5.032295 0.371416
v 7.816046 5.036168 1.330273
v 7.808993 5.083090 0.890999
v 7.816046 5.088639 0.572920
v 7.821688 5.068305 0.412333
v 7.830152 5.037597 0.370947
vn 0.670028 0.742202 -0.014098
vn -0.999919 0.000005 -0.012760
vn 0.877583 0.479375 0.006867
vn -0.999842 -0.000000 0.017756
vn 0.929745 0.366669 0.033591
vn -0.999039 0.000000 0.043824
vn 0.941849 0.329587 0.065514
vn -0.995746 0.023124 0.089193
vn -0.005541 -0.000002 -0.999985
vn -0.670704 -0.741360 -0.023296
vn -0.877486 -0.479602 0.000868
vn -0.929093 -0.368711 0.028954
vn -0.940699 -0.333188 0.063811
vn 0.048389 0.010792 0.998770
vn 0.999871 -0.000010 -0.016055
vn 0.999754 -0.000004 0.022167
vn 0.999383 -0.000000 0.035114
vn 0.977618 -0.042619 0.206026
usemtl 
s off
f 51//37 41//37 42//37 52//37
f 41//38 46//38 47//38 42//38
f 52//39 42//39 43//39 53//39
f 48//40 43//40 42//40 47//40
f 53//41 43//41 44//41 54//41
f 49//42 44//42 43//42 48//42
f 54//43 44//43 45//43 55//43
f 50//44 45//44 44//44 49//44
f 41//45 51//45 56//45 46//45
f 57//46 47//46 46//46 56//46
f 58//47 48//47 47//47 57//47
f 59//48 49//48 48//48 58//48
f 60//49 50//49 49//49 59//49
f 50//50 60//50 55//50 45//50
f 52//51 57//51 56//51 51//51
f 53//52 58//52 57//52 52//52
f 54//53 59//53 58//53 53//53
f 55//54 60//54 59//54 54//54
o Cylinder.003_Cylinder
v 7.780100 5.014793 1.483357
v 7.892437 5.014793 1.483357
v 7.780100 5.079798 1.456432
v 7.892437 5.079798 1.456432
v 7.780100 5.106723 1.391427
v 7.892437 5.106723 1.391427
v 7.780100 5.079798 1.326423
v 7.892437 5.079798 1.326423
v 7.780100 5.014793 1.299497
v 7.892437 5.014793 1.299497
v 7.780100 4.949789 1.326423
v 7.892437 4.949789 1.326423
v 7.780100 4.922863 1.391427
v 7.892437 4.922863 1.391427
v 7.780100 4.949789 1.456432
v 7.892437 4.949789 1.456431
v 7.760385 5.014793 1.428028
v 7.760385 5.040674 1.417308
v 7.760385 5.051394 1.391427
v 7.760385 5.040674 1.365546
v 7.760385 5.014793 1.354826
v 7.760385 4.988913 1.365546
v 7.760385 4.978192 1.391427
v 7.760385 4.988913 1.417308
v 7.555248 5.014793 1.428028
v 7.555248 5.040674 1.417308
v 7.555248 5.051394 1.391427
v 7.555248 5.040674 1.365546
v 7.555248 5.014793 1.354826
v 7.555248 4.988913 1.365546
v 7.555248 4.978192 1.391427
v 7.555248 4.988913 1.417308
v 7.907892 5.014793 1.431556
v 7.907892 5.043169 1.419802
v 7.907892 5.054922 1.391427
v 7.907892 5.043169 1.363052
v 7.907892 5.014793 1.351299
v 7.907892 4.986418 1.363052
v 7.907892 4.974665 1.391427
v 7.907892 4.986418 1.419802
v 7.990790 5.014793 1.431556
v 7.990790 5.043169 1.419802
v 7.990790 5.054922 1.391427
v 7.990790 5.043169 1.363052
v 7.990790 5.014793 1.351299
v 7.990790 4.986418 1.363052
v 7.990790 4.974665 1.391427
v 7.990790 4.986418 1.419802
v 8.003435 5.014793 1.450661
v 8.003435 5.056678 1.433312
v 8.003435 5.074027 1.391427
v 8.003435 5.056678 1.349543
v 8.003435 5.014793 1.332193
v 8.003435 4.972909 1.349543
v 8.003435 4.955560 1.391427
v 8.003435 4.972909 1.433312
v 8.034347 5.014793 1.450661
v 8.034347 5.056678 1.433312
v 8.034347 5.074027 1.391427
v 8.034347 5.056678 1.349543
v 8.034347 5.014793 1.332193
v 8.034347 4.972909 1.349543
v 8.034347 4.955560 1.391427
v 8.034347 4.972909 1.433312
vn 0.000000 0.382683 0.923880
vn 0.000000 0.923880 0.382682
vn 0.000000 0.923880 -0.382682
vn -0.000000 0.382683 -0.923880
vn -0.000001 -0.382683 -0.923880
vn -0.000000 -0.923880 -0.382682
vn 0.951609 0.283918 0.117603
vn 0.000001 -0.382683 0.923880
vn 0.000000 -0.923880 0.382682
vn -0.933013 -0.137706 0.332452
vn 0.000000 0.923879 -0.382684
vn -0.933013 0.332452 0.137706
vn -0.933013 0.332452 -0.137706
vn -0.933013 0.137706 0.332452
vn -0.933013 0.137706 -0.332452
vn -0.933012 -0.137707 -0.332452
vn -0.933013 -0.332452 -0.137706
vn -0.933013 -0.332452 0.137706
vn -1.000000 0.000000 0.000000
vn 0.000000 -0.923879 -0.382684
vn 0.000000 0.923879 0.382684
vn 0.000000 -0.382686 -0.923879
vn 0.000000 -0.382686 0.923879
vn 0.000000 0.382686 0.923879
vn 0.000000 0.382686 -0.923879
vn 0.000000 -0.923879 0.382684
vn 0.000000 -0.382682 -0.923880
vn 0.951609 0.283918 -0.117603
vn 0.951609 0.117602 0.283918
vn 0.951609 0.117602 -0.283917
vn 0.951609 -0.117602 -0.283917
vn 0.951609 -0.283918 -0.117603
vn 0.951609 -0.283918 0.117603
vn 0.951609 -0.117603 0.283918
vn -0.812914 -0.538052 -0.222871
vn 0.000001 -0.382684 0.923880
vn 0.000001 0.382684 0.923880
vn 0.000000 0.382682 -0.923880
vn 0.000000 -0.923877 0.382689
vn 0.000003 0.923880 -0.382682
vn 0.000000 -0.923877 -0.382689
vn 0.000003 0.923880 0.382683
vn 0.000000 -0.923878 0.382686
vn -0.812918 0.538048 0.222866
vn -0.812916 -0.222867 -0.538050
vn -0.812916 -0.222869 0.538049
vn -0.812917 0.222868 0.538048
vn -0.812916 0.222867 -0.538050
vn -0.812914 -0.538052 0.222871
vn -0.812917 0.538049 -0.222866
vn 1.000000 -0.000000 0.000000
vn 0.000000 0.923879 -0.382685
vn 0.000000 -0.923879 -0.382685
vn 0.000001 0.923879 0.382686
vn 0.000000 -0.382684 -0.923879
vn 0.000000 -0.382686 0.923878
vn 0.000002 0.382685 0.923879
vn 0.000000 0.382684 -0.923879
usemtl 
s off
f 61//55 62//55 64//55 63//55
f 63//56 64//56 66//56 65//56
f 65//57 66//57 68//57 67//57
f 67//58 68//58 70//58 69//58
f 69//59 70//59 72//59 71//59
f 71//60 72//60 74//60 73//60
f 66//61 64//61 94//61 95//61
f 62//62 61//62 75//62 76//62
f 73//63 74//63 76//63 75//63
f 75//64 61//64 77//64 84//64
f 79//65 80//65 88//65 87//65
f 63//66 65//66 79//66 78//66
f 65//67 67//67 80//67 79//67
f 61//68 63//68 78//68 77//68
f 67//69 69//69 81//69 80//69
f 69//70 71//70 82//70 81//70
f 71//71 73//71 83//71 82//71
f 73//72 75//72 84//72 83//72
f 85//73 86//73 92//73
f 86//73 87//73 92//73
f 87//73 91//73 92//73
f 87//73 90//73 91//73
f 87//73 88//73 90//73
f 88//73 89//73 90//73
f 82//74 83//74 91//74 90//74
f 78//75 79//75 87//75 86//75
f 81//76 82//76 90//76 89//76
f 84//77 77//77 85//77 92//77
f 77//78 78//78 86//78 85//78
f 80//79 81//79 89//79 88//79
f 83//80 84//80 92//80 91//80
f 98//81 97//81 105//81 106//81
f 68//82 66//82 95//82 96//82
f 64//83 62//83 93//83 94//83
f 70//84 68//84 96//84 97//84
f 72//85 70//85 97//85 98//85
f 74//86 72//86 98//86 99//86
f 76//87 74//87 99//87 100//87
f 62//88 76//88 100//88 93//88
f 107//89 106//89 114//89 115//89
f 93//90 100//90 108//90 101//90
f 94//91 93//91 101//91 102//91
f 97//92 96//92 104//92 105//92
f 100//93 99//93 107//93 108//93
f 96//94 95//94 103//94 104//94
f 99//95 98//95 106//95 107//95
f 95//96 94//96 102//96 103//96
f 116//97 115//97 123//97 124//97
f 103//98 102//98 110//98 111//98
f 106//99 105//99 113//99 114//99
f 101//100 108//100 116//100 109//100
f 102//101 101//101 109//101 110//101
f 105//102 104//102 112//102 113//102
f 108//103 107//103 115//103 116//103
f 104//104 103//104 111//104 112//104
f 118//105 117//105 124//105
f 118//105 124//105 119//105
f 124//105 123//105 119//105
f 123//105 122//105 119//105
f 122//105 120//105 119//105
f 122//105 121//105 120//105
f 112//106 111//106 119//106 120//106
f 115//107 114//107 122//107 123//107
f 111//108 110//108 118//108 119//108
f 114//109 113//109 121//109 122//109
f 109//110 116//110 124//110 117//110
f 110//111 109//111 117//111 118//111
f 113//112 112//112 120//112 121//112
