# Blender v2.63 (sub 13) OBJ File: '99shiki_leg_R_output.blend'
# www.blender.org
mtllib 99shiki_leg_R_output.mtl
o Cylinder.002_Cylinder.001
v 6.854563 3.999400 0.631590
v 6.854563 3.905753 0.631590
v 6.964222 3.999400 0.609777
v 6.964222 3.905753 0.609777
v 7.057187 3.999400 0.547660
v 7.057187 3.905753 0.547660
v 7.119304 3.999400 0.454695
v 7.119304 3.905753 0.454695
v 7.141116 3.999400 0.345036
v 7.141116 3.905753 0.345036
v 7.119304 3.999400 0.235377
v 7.119304 3.905753 0.235377
v 7.057187 3.999400 0.142412
v 7.057187 3.905753 0.142412
v 6.964222 3.999400 0.080295
v 6.964222 3.905753 0.080295
v 6.854563 3.999400 0.058482
v 6.854563 3.905754 0.058482
v 6.744904 3.999400 0.080295
v 6.744904 3.905753 0.080295
v 6.651939 3.999400 0.142412
v 6.651939 3.905753 0.142412
v 6.589822 3.999400 0.235377
v 6.589822 3.905753 0.235377
v 6.568009 3.999400 0.345036
v 6.568009 3.905753 0.345036
v 6.589822 3.999400 0.454695
v 6.589822 3.905753 0.454695
v 6.651939 3.999400 0.547660
v 6.651939 3.905753 0.547660
v 6.744904 3.999400 0.609777
v 6.744904 3.905753 0.609777
vn 0.000000 0.665700 0.746178
vn 0.000000 -0.665700 0.746178
vn 0.285531 -0.665700 0.689383
vn 0.285531 0.665700 0.689383
vn 0.527635 -0.665700 0.527635
vn 0.527635 0.665700 0.527635
vn 0.689383 -0.665700 0.285531
vn 0.689383 0.665700 0.285531
vn 0.746178 -0.665700 0.000000
vn 0.746178 0.665700 0.000000
vn 0.689383 -0.665700 -0.285531
vn 0.689383 0.665700 -0.285531
vn 0.527635 -0.665700 -0.527635
vn 0.527635 0.665700 -0.527635
vn 0.285531 -0.665700 -0.689383
vn 0.285531 0.665700 -0.689383
vn 0.000000 -0.665700 -0.746178
vn 0.000000 0.665700 -0.746178
vn -0.285531 -0.665700 -0.689383
vn -0.285531 0.665700 -0.689383
vn -0.527635 -0.665700 -0.527635
vn -0.527635 0.665700 -0.527635
vn -0.689383 -0.665700 -0.285531
vn -0.689383 0.665700 -0.285531
vn -0.746178 -0.665700 0.000000
vn -0.746178 0.665700 0.000000
vn -0.689383 -0.665700 0.285531
vn -0.689383 0.665700 0.285531
vn -0.527635 -0.665700 0.527635
vn -0.527635 0.665700 0.527635
vn -0.285531 -0.665700 0.689383
vn -0.285531 0.665700 0.689383
usemtl 
s 1
f 1//1 2//2 4//3 3//4
f 3//4 4//3 6//5 5//6
f 5//6 6//5 8//7 7//8
f 7//8 8//7 10//9 9//10
f 9//10 10//9 12//11 11//12
f 11//12 12//11 14//13 13//14
f 13//14 14//13 16//15 15//16
f 15//16 16//15 18//17 17//18
f 17//18 18//17 20//19 19//20
f 19//20 20//19 22//21 21//22
f 21//22 22//21 24//23 23//24
f 23//24 24//23 26//25 25//26
f 25//26 26//25 28//27 27//28
f 27//28 28//27 30//29 29//30
f 4//3 2//2 32//31
f 4//3 32//31 30//29
f 4//3 30//29 6//5
f 30//29 28//27 6//5
f 28//27 8//7 6//5
f 28//27 26//25 8//7
f 26//25 10//9 8//7
f 26//25 24//23 10//9
f 24//23 12//11 10//9
f 24//23 14//13 12//11
f 24//23 22//21 14//13
f 22//21 16//15 14//13
f 22//21 20//19 16//15
f 20//19 18//17 16//15
f 2//2 1//1 31//32 32//31
f 29//30 30//29 32//31 31//32
f 1//1 3//4 31//32
f 3//4 29//30 31//32
f 3//4 5//6 29//30
f 5//6 27//28 29//30
f 5//6 7//8 27//28
f 7//8 25//26 27//28
f 7//8 9//10 25//26
f 9//10 23//24 25//26
f 9//10 11//12 23//24
f 11//12 13//14 23//24
f 13//14 21//22 23//24
f 13//14 15//16 21//22
f 15//16 19//20 21//22
f 15//16 17//18 19//20
o Cylinder.004_Cylinder.006
v 6.905323 4.008071 0.918531
v 6.905323 4.032253 1.097225
v 6.944534 4.004021 0.916202
v 6.962455 4.026362 1.097225
v 6.977775 3.992486 0.914228
v 7.010889 4.009586 1.097225
v 6.999986 3.975224 0.912908
v 7.043251 3.984478 1.097225
v 7.007785 3.954862 0.912445
v 7.054615 3.954862 1.097225
v 6.999986 3.934500 0.912908
v 7.043251 3.925246 1.097225
v 6.977775 3.917238 0.914228
v 7.010889 3.900139 1.097225
v 6.944534 3.905704 0.916202
v 6.962455 3.883363 1.097225
v 6.905323 3.901654 0.918531
v 6.905323 3.877472 1.097225
v 6.866113 3.905704 0.920861
v 6.848192 3.883363 1.097225
v 6.832871 3.917238 0.922835
v 6.799758 3.900139 1.097225
v 6.810660 3.934500 0.924155
v 6.767395 3.925246 1.097225
v 6.802861 3.954862 0.924618
v 6.756032 3.954862 1.097225
v 6.810660 3.975224 0.924155
v 6.767395 3.984478 1.097225
v 6.832871 3.992486 0.922835
v 6.799758 4.009586 1.097225
v 6.866113 4.004021 0.920861
v 6.848192 4.026362 1.097225
v 6.824280 4.008071 0.837235
v 6.903815 4.004021 0.832421
v 6.971241 3.992486 0.828340
v 7.016294 3.975224 0.825613
v 7.029498 3.954862 0.824656
v 7.016294 3.934500 0.825613
v 6.971241 3.917238 0.828340
v 6.903815 3.905704 0.832421
v 6.824280 3.901654 0.837235
v 6.744746 3.905704 0.842049
v 6.677320 3.917238 0.846130
v 6.632267 3.934500 0.848857
v 6.616446 3.954862 0.849815
v 6.632267 3.975224 0.848857
v 6.677320 3.992486 0.846130
v 6.744746 4.004021 0.842049
v 6.727749 4.032724 0.712678
v 6.910654 4.026797 0.709508
v 7.065713 4.009919 0.706819
v 7.167503 3.984659 0.705023
v 7.187531 3.954862 0.704393
v 7.169320 3.925066 0.705023
v 7.065713 3.899806 0.706819
v 6.910654 3.882927 0.709508
v 6.727749 3.877000 0.712678
v 6.544844 3.882927 0.715849
v 6.389785 3.899806 0.718537
v 6.286178 3.925066 0.720334
v 6.249795 3.954862 0.720964
v 6.286178 3.984659 0.720334
v 6.389785 4.009919 0.718537
v 6.544844 4.026797 0.715849
v 6.726256 4.100289 0.632719
v 6.941482 4.089219 0.627661
v 7.123942 4.057695 0.623374
v 7.227686 4.010515 0.620509
v 7.254663 3.954862 0.619503
v 7.233383 3.899210 0.620509
v 7.123942 3.852030 0.623374
v 6.941482 3.820505 0.627661
v 6.726256 3.809435 0.632719
v 6.511031 3.820505 0.637776
v 6.328571 3.852030 0.642064
v 6.206656 3.899210 0.644929
v 6.172241 3.954862 0.645935
v 6.206656 4.010515 0.644929
v 6.328571 4.057695 0.642064
v 6.511031 4.089219 0.637776
v 6.759643 4.119436 0.557985
v 6.956220 4.106908 0.553974
v 7.122870 4.071233 0.550573
v 7.234222 4.017842 0.548301
v 7.267873 3.954862 0.547503
v 7.234222 3.891883 0.548301
v 7.139665 3.838491 0.550573
v 6.942785 3.802816 0.553974
v 6.742848 3.790289 0.557985
v 6.519400 3.802816 0.561996
v 6.349391 3.838491 0.565397
v 6.249932 3.891883 0.567669
v 6.212070 3.954862 0.568467
v 6.285063 4.017842 0.567669
v 6.396415 4.071233 0.565397
v 6.563066 4.106908 0.561996
v 6.859985 4.115701 0.347539
v 7.000756 4.103458 0.344231
v 7.120096 4.068593 0.341427
v 7.199837 4.016413 0.339553
v 7.227838 3.954862 0.338895
v 7.199837 3.893312 0.339553
v 7.104981 3.841132 0.341427
v 6.950373 3.806267 0.344231
v 6.797846 3.794024 0.347539
v 6.673869 3.806267 0.350847
v 6.552849 3.841132 0.353652
v 6.488224 3.893312 0.355525
v 6.492132 3.954862 0.356183
v 6.520133 4.016413 0.355525
v 6.599874 4.068593 0.353652
v 6.719214 4.103458 0.350847
v 6.727259 4.053726 0.671288
v 6.521563 4.046201 0.675435
v 6.347182 3.884955 0.678951
v 6.521563 3.863524 0.675435
v 7.229496 3.954862 0.660450
v 7.202048 3.992696 0.661275
v 6.230665 3.917029 0.681301
v 7.204659 3.917029 0.661275
v 6.189749 3.954862 0.682126
v 7.107336 3.884955 0.663624
v 6.230665 3.992696 0.681301
v 6.932955 3.863524 0.667140
v 6.932955 4.046201 0.667140
v 6.347182 4.024770 0.678951
v 6.727259 3.855999 0.671288
v 7.107336 4.024770 0.663624
v 6.586696 3.905749 0.295382
v 6.650324 3.864112 0.279350
v 6.745551 3.836292 0.266209
v 6.857878 3.826523 0.254484
v 7.129060 4.003976 0.282637
v 7.065432 4.045612 0.258692
v 6.970205 4.073433 0.255479
v 6.857878 4.083202 0.252667
v 6.745551 4.073433 0.262575
v 6.650324 4.045612 0.277533
v 6.586696 4.003976 0.295382
v 6.564353 3.954862 0.295907
v 6.970205 3.836292 0.257296
v 7.065432 3.864112 0.262327
v 7.129060 3.905749 0.282637
v 7.151403 3.954862 0.282112
v 6.905323 4.041943 0.926635
v 6.959126 4.035314 0.923623
v 7.004737 4.016438 0.921071
v 7.035213 3.988187 0.919365
v 7.045915 3.954862 0.918766
v 7.035213 3.921538 0.919365
v 7.004737 3.893287 0.921071
v 6.959126 3.874411 0.923623
v 6.905323 3.867782 0.926635
v 6.851521 3.874411 0.929646
v 6.805910 3.893287 0.932199
v 6.775433 3.921538 0.933905
v 6.764731 3.954862 0.934504
v 6.775433 3.988187 0.933905
v 6.805910 4.016438 0.932199
v 6.851521 4.035314 0.929646
v 6.851514 4.039880 0.946272
v 6.805898 4.019932 0.948639
v 6.775417 3.990078 0.950220
v 6.764714 3.954862 0.950775
v 6.959132 3.869845 0.940688
v 7.004749 3.889793 0.938322
v 7.035229 3.919647 0.936740
v 7.045932 3.954862 0.936185
v 6.775417 3.919647 0.950220
v 6.805898 3.889793 0.948639
v 6.851514 3.869845 0.946272
v 6.905323 3.862840 0.943480
v 7.035229 3.990078 0.936740
v 7.004749 4.019932 0.938322
v 6.959132 4.039880 0.940688
v 6.905323 4.046885 0.943480
vn -0.006104 0.995819 -0.090884
vn 0.001556 0.696860 0.717185
vn 0.173803 0.683279 0.709128
vn 0.240822 0.966826 -0.085086
vn 0.382946 0.619800 0.684927
vn 0.521989 0.850246 -0.067568
vn 0.640156 0.420179 0.643147
vn 0.832362 0.552446 -0.044313
vn 0.790460 0.000000 0.612507
vn 0.999481 0.000000 -0.031831
vn 0.640156 -0.420179 0.643147
vn 0.832362 -0.552416 -0.044313
vn 0.382946 -0.619800 0.684927
vn 0.521989 -0.850246 -0.067568
vn 0.173803 -0.683279 0.709128
vn 0.240822 -0.966826 -0.085116
vn 0.001556 -0.696860 0.717185
vn -0.006104 -0.995819 -0.090884
vn -0.171178 -0.683004 0.710044
vn -0.251198 -0.964263 -0.084140
vn -0.381909 -0.619617 0.685690
vn -0.527421 -0.846950 -0.066591
vn -0.641072 -0.419782 0.642445
vn -0.833064 -0.551317 -0.045289
vn -0.791772 0.000000 0.610797
vn -0.999390 0.000000 -0.034883
vn -0.641072 0.419782 0.642445
vn -0.833064 0.551317 -0.045289
vn -0.381909 0.619617 0.685690
vn -0.527421 0.846950 -0.066591
vn -0.171178 0.683004 0.710044
vn -0.251198 0.964263 -0.084140
vn -0.134129 0.802515 -0.581317
vn -0.017396 0.766137 -0.642415
vn -0.004273 0.993072 0.117344
vn -0.105930 0.957213 0.269234
vn -0.208594 -0.831202 0.515305
vn -0.300790 -0.544725 0.782800
vn -0.299142 -0.628224 0.718192
vn -0.158879 -0.842708 0.514328
vn -0.621937 0.736229 -0.266640
vn -0.304147 0.836573 -0.455611
vn -0.208594 0.831202 0.515305
vn -0.300790 0.544725 0.782800
vn -0.621937 -0.736229 -0.266640
vn -0.990692 0.000000 -0.135960
vn -0.349742 0.000000 0.936827
vn -0.134129 -0.802515 -0.581317
vn -0.304147 -0.836573 -0.455611
vn -0.105930 -0.957213 0.269234
vn 0.095584 -0.741722 -0.663839
vn -0.017396 -0.766137 -0.642415
vn -0.004273 -0.993072 0.117344
vn 0.104465 -0.992004 0.070528
vn 0.516037 -0.548235 -0.658101
vn 0.246620 -0.706046 -0.663778
vn 0.258492 -0.957854 0.125156
vn 0.566210 -0.745476 0.351573
vn 0.516037 0.548235 -0.658101
vn 0.746849 0.000000 -0.664968
vn 0.799921 0.006561 0.600024
vn 0.565813 0.746574 0.349895
vn 0.095584 0.741722 -0.663839
vn 0.246620 0.706046 -0.663778
vn 0.258950 0.957701 0.125309
vn 0.104465 0.992004 0.070528
vn -0.057985 0.787835 0.613117
vn 0.013001 0.787042 0.616749
vn 0.003052 0.857295 0.514786
vn -0.107028 0.887600 0.447981
vn 0.472793 -0.636036 0.609821
vn 0.686209 0.016388 0.727195
vn -0.478744 0.000000 0.877926
vn 0.189703 -0.902402 0.386822
vn -0.299142 0.628224 0.718192
vn 0.077548 -0.943602 0.321787
vn 0.077548 0.943602 0.321787
vn -0.000061 0.944182 0.329386
vn -0.158879 0.842708 0.514328
vn -0.000061 -0.944182 0.329386
vn 0.191504 0.901761 0.387432
vn -0.070925 0.917234 0.391919
vn -0.070925 -0.917234 0.391919
vn 0.469100 0.645375 0.602802
vn -0.284616 0.917447 0.277963
vn -0.143956 0.989563 -0.003998
vn -0.323160 0.921354 -0.215888
vn -0.057985 -0.787835 0.613117
vn -0.163823 -0.783410 0.599475
vn -0.263985 -0.887967 0.376537
vn -0.091250 -0.867031 0.489792
vn 0.522813 0.611866 0.593493
vn 0.773339 0.026612 0.633381
vn 0.932096 0.023103 0.361400
vn 0.645894 0.668722 0.368206
vn -0.413007 -0.649403 0.638478
vn -0.660451 -0.734855 0.154088
vn 0.526719 -0.592395 0.609577
vn 0.670583 -0.639943 0.375164
vn -0.714225 0.000000 0.699881
vn -0.997009 0.040651 0.065462
vn 0.207709 -0.796350 0.568011
vn 0.265664 -0.857418 0.440718
vn -0.413007 0.649403 0.638478
vn -0.625233 0.775414 0.088076
vn 0.084262 -0.796289 0.598987
vn 0.105380 -0.860164 0.498978
vn 0.084262 0.796289 0.598987
vn 0.105594 0.858394 0.501938
vn -0.163823 0.783410 0.599475
vn 0.013001 -0.787042 0.616718
vn 0.007782 -0.854701 0.518998
vn 0.212348 0.795465 0.567522
vn 0.278054 0.859523 0.428755
vn -0.518509 0.705405 -0.483230
vn -0.365520 0.834162 -0.412915
vn -0.540056 0.563891 -0.624744
vn -0.150548 -0.988433 0.017426
vn 0.000366 -0.994598 0.103763
vn 0.716117 0.697684 0.018342
vn 0.335704 0.938322 0.082461
vn -0.001160 0.994720 0.102481
vn -0.362041 -0.914518 -0.180395
vn 0.999756 0.009033 -0.019440
vn -0.633290 -0.621204 -0.461531
vn 0.723045 -0.690695 0.009766
vn -0.776788 0.099796 -0.621784
vn 0.342570 -0.936918 0.069399
vn 0.125523 -0.985931 0.110202
vn 0.139714 0.982391 0.123936
vn -0.237373 0.485427 -0.841395
vn -0.367565 0.322062 -0.872433
vn -0.019532 -0.979705 -0.199316
vn 0.140599 -0.976531 -0.162969
vn 0.406629 0.868129 -0.284494
vn 0.179754 0.966399 -0.183660
vn -0.167241 0.954863 -0.245399
vn -0.176000 -0.934568 -0.309153
vn 0.679281 0.598804 -0.424207
vn 0.006439 0.984252 -0.176550
vn -0.369762 -0.770135 -0.519730
vn 0.871059 0.000000 -0.491104
vn -0.560289 -0.409894 -0.719718
vn 0.673025 -0.606250 -0.423627
vn -0.613697 0.134587 -0.777947
vn 0.365978 -0.891812 -0.265847
vn 0.089633 -0.603412 -0.792352
vn 0.184515 -0.532121 -0.826289
vn -0.319498 -0.211035 -0.923765
vn -0.203619 -0.428510 -0.880276
vn 0.192541 0.490066 -0.850124
vn 0.080935 0.575732 -0.813593
vn -0.111484 -0.542253 -0.832759
vn 0.375561 -0.004212 -0.926756
vn 0.337168 0.322459 -0.884487
vn 0.325846 -0.358898 -0.874630
vn -0.022889 0.586169 -0.809839
vn -0.126530 0.565783 -0.814753
vn -0.404309 0.057497 -0.912778
vn -0.005036 -0.595813 -0.803095
vn -0.036958 0.713034 -0.700125
vn 0.157811 0.705924 -0.690451
vn 0.395001 0.638569 -0.660421
vn 0.661489 0.418195 -0.622486
vn 0.797327 0.000000 -0.603504
vn 0.661489 -0.418195 -0.622486
vn 0.395001 -0.638569 -0.660421
vn 0.157811 -0.705924 -0.690451
vn -0.036958 -0.713034 -0.700125
vn -0.226264 -0.692068 -0.685415
vn -0.448042 -0.617634 -0.646352
vn -0.696463 -0.403272 -0.593493
vn -0.824976 0.000000 -0.565142
vn -0.696463 0.403272 -0.593493
vn -0.448042 0.617634 -0.646321
vn -0.226264 0.692068 -0.685415
usemtl 
s 1
f 208//33 34//34 36//35 207//36
f 207//36 36//35 38//37 206//38
f 206//38 38//37 40//39 205//40
f 205//40 40//39 42//41 200//42
f 200//42 42//41 44//43 199//44
f 199//44 44//43 46//45 198//46
f 198//46 46//45 48//47 197//48
f 197//48 48//47 50//49 204//50
f 204//50 50//49 52//51 203//52
f 203//52 52//51 54//53 202//54
f 202//54 54//53 56//55 201//56
f 201//56 56//55 58//57 196//58
f 196//58 58//57 60//59 195//60
f 195//60 60//59 62//61 194//62
f 36//35 34//34 64//63
f 36//35 64//63 62//61
f 36//35 62//61 38//37
f 62//61 60//59 38//37
f 60//59 40//39 38//37
f 60//59 58//57 40//39
f 58//57 42//41 40//39
f 58//57 56//55 42//41
f 56//55 44//43 42//41
f 56//55 46//45 44//43
f 56//55 54//53 46//45
f 54//53 48//47 46//45
f 54//53 52//51 48//47
f 52//51 50//49 48//47
f 193//64 64//63 34//34 208//33
f 194//62 62//61 64//63 193//64
f 63//65 33//66 65//67 80//68
f 75//69 76//70 92//71 91//72
f 59//73 61//74 79//75 78//76
f 55//77 57//78 77//79 76//70
f 51//80 53//81 75//69 74//82
f 47//83 49//84 73//85 72//86
f 43//87 45//88 71//89 70//90
f 39//91 41//92 69//93 68//94
f 35//95 37//96 67//97 66//98
f 61//74 63//65 80//68 79//75
f 57//78 59//73 78//76 77//79
f 33//66 35//95 66//98 65//67
f 53//81 55//77 76//70 75//69
f 49//84 51//80 74//82 73//85
f 45//88 47//83 72//86 71//89
f 41//92 43//87 70//90 69//93
f 37//96 39//91 68//94 67//97
f 146//99 145//100 97//101 112//102
f 69//93 70//90 86//103 85//104
f 76//70 77//79 93//105 92//71
f 70//90 71//89 87//106 86//103
f 77//79 78//76 94//107 93//105
f 71//89 72//86 88//108 87//106
f 65//67 66//98 82//109 81//110
f 78//76 79//75 95//111 94//107
f 72//86 73//85 89//112 88//108
f 66//98 67//97 83//113 82//109
f 79//75 80//68 96//114 95//111
f 73//85 74//82 90//115 89//112
f 67//97 68//94 84//116 83//113
f 80//68 65//67 81//110 96//114
f 74//82 75//69 91//72 90//115
f 68//94 69//93 85//104 84//116
f 111//117 112//102 128//118 127//119
f 148//120 147//121 107//122 106//123
f 150//124 149//125 101//126 100//127
f 147//121 151//128 108//129 107//122
f 149//125 152//130 102//131 101//126
f 151//128 153//132 109//133 108//129
f 152//130 154//134 103//135 102//131
f 153//132 155//136 110//137 109//133
f 154//134 156//138 104//139 103//135
f 145//100 157//140 98//141 97//101
f 155//136 158//142 111//117 110//137
f 156//138 159//143 105//144 104//139
f 157//140 160//145 99//146 98//141
f 158//142 146//99 112//102 111//117
f 159//143 148//120 106//123 105//144
f 160//145 150//124 100//127 99//146
f 126//147 127//119 143//148 142//149
f 105//144 106//123 122//150 121//151
f 99//146 100//127 116//152 115//153
f 112//102 97//101 113//154 128//118
f 106//123 107//122 123//155 122//150
f 100//127 101//126 117//156 116//152
f 107//122 108//129 124//157 123//155
f 101//126 102//131 118//158 117//156
f 108//129 109//133 125//159 124//157
f 102//131 103//135 119//160 118//158
f 109//133 110//137 126//147 125//159
f 103//135 104//139 120//161 119//160
f 97//101 98//141 114//162 113//154
f 110//137 111//117 127//119 126//147
f 104//139 105//144 121//151 120//161
f 98//141 99//146 115//153 114//162
f 142//149 143//148 170//163 171//164
f 120//161 121//151 137//165 136//166
f 114//162 115//153 131//167 130//168
f 127//119 128//118 144//169 143//148
f 121//151 122//150 138//170 137//165
f 115//153 116//152 132//171 131//167
f 128//118 113//154 129//172 144//169
f 122//150 123//155 139//173 138//170
f 116//152 117//156 133//174 132//171
f 123//155 124//157 140//175 139//173
f 117//156 118//158 134//176 133//174
f 124//157 125//159 141//177 140//175
f 118//158 119//160 135//178 134//176
f 125//159 126//147 142//149 141//177
f 119//160 120//161 136//166 135//178
f 113//154 114//162 130//168 129//172
f 96//114 81//110 145//100 146//99
f 90//115 91//72 147//121 148//120
f 84//116 85//104 149//125 150//124
f 91//72 92//71 151//128 147//121
f 85//104 86//103 152//130 149//125
f 92//71 93//105 153//132 151//128
f 86//103 87//106 154//134 152//130
f 93//105 94//107 155//136 153//132
f 87//106 88//108 156//138 154//134
f 81//110 82//109 157//140 145//100
f 94//107 95//111 158//142 155//136
f 88//108 89//112 159//143 156//138
f 82//109 83//113 160//145 157//140
f 95//111 96//114 146//99 158//142
f 89//112 90//115 148//120 159//143
f 83//113 84//116 150//124 160//145
f 135//178 136//166 173//179 174//180
f 139//173 140//175 161//181 162//182
f 130//168 131//167 166//183 167//184
f 138//170 139//173 162//182 163//185
f 132//171 133//174 176//186 165//187
f 134//176 135//178 174//180 175//188
f 168//189 167//184 169//190
f 167//184 170//163 169//190
f 167//184 166//183 170//163
f 166//183 171//164 170//163
f 166//183 165//187 171//164
f 165//187 172//191 171//164
f 165//187 176//186 172//191
f 176//186 161//181 172//191
f 176//186 175//188 161//181
f 175//188 174//180 161//181
f 174//180 162//182 161//181
f 174//180 173//179 162//182
f 173//179 163//185 162//182
f 173//179 164//192 163//185
f 144//169 129//172 168//189 169//190
f 141//177 142//149 171//164 172//191
f 137//165 138//170 163//185 164//192
f 131//167 132//171 165//187 166//183
f 133//174 134//176 175//188 176//186
f 129//172 130//168 167//184 168//189
f 143//148 144//169 169//190 170//163
f 140//175 141//177 172//191 161//181
f 136//166 137//165 164//192 173//179
f 33//66 177//193 178//194 35//95
f 35//95 178//194 179//195 37//96
f 37//96 179//195 180//196 39//91
f 39//91 180//196 181//197 41//92
f 41//92 181//197 182//198 43//87
f 43//87 182//198 183//199 45//88
f 45//88 183//199 184//200 47//83
f 47//83 184//200 185//201 49//84
f 49//84 185//201 186//202 51//80
f 51//80 186//202 187//203 53//81
f 53//81 187//203 188//204 55//77
f 55//77 188//204 189//205 57//78
f 57//78 189//205 190//206 59//73
f 59//73 190//206 191//207 61//74
f 177//193 33//66 63//65 192//208
f 61//74 191//207 192//208 63//65
f 181//197 200//42 199//44 182//198
f 189//205 196//58 195//60 190//206
f 185//201 204//50 203//52 186//202
f 180//196 205//40 200//42 181//197
f 178//194 207//36 206//38 179//195
f 191//207 194//62 193//64 192//208
f 190//206 195//60 194//62 191//207
f 188//204 201//56 196//58 189//205
f 184//200 197//48 204//50 185//201
f 182//198 199//44 198//46 183//199
f 179//195 206//38 205//40 180//196
f 177//193 208//33 207//36 178//194
f 192//208 193//64 208//33 177//193
f 186//202 203//52 202//54 187//203
f 187//203 202//54 201//56 188//204
f 183//199 198//46 197//48 184//200
