# Blender v2.63 (sub 13) OBJ File: '99shiki_leg_L_output.blend'
# www.blender.org
mtllib 99shiki_leg_L_output.mtl
o Cylinder.002_Cylinder.001
v 6.854563 6.057856 0.631590
v 6.854563 6.151503 0.631590
v 6.964222 6.057856 0.609777
v 6.964222 6.151503 0.609777
v 7.057187 6.057856 0.547660
v 7.057187 6.151503 0.547660
v 7.119304 6.057856 0.454695
v 7.119304 6.151503 0.454695
v 7.141116 6.057856 0.345036
v 7.141116 6.151503 0.345036
v 7.119304 6.057856 0.235377
v 7.119304 6.151503 0.235377
v 7.057187 6.057856 0.142412
v 7.057187 6.151503 0.142412
v 6.964222 6.057856 0.080295
v 6.964222 6.151503 0.080295
v 6.854563 6.057856 0.058482
v 6.854563 6.151502 0.058482
v 6.744904 6.057856 0.080295
v 6.744904 6.151502 0.080295
v 6.651939 6.057856 0.142412
v 6.651939 6.151502 0.142412
v 6.589822 6.057856 0.235377
v 6.589822 6.151503 0.235377
v 6.568009 6.057856 0.345036
v 6.568009 6.151503 0.345036
v 6.589822 6.057856 0.454695
v 6.589822 6.151503 0.454695
v 6.651939 6.057856 0.547660
v 6.651939 6.151503 0.547660
v 6.744904 6.057856 0.609777
v 6.744904 6.151503 0.609777
vn 0.000000 -0.665700 0.746178
vn 0.285531 -0.665700 0.689383
vn 0.285531 0.665700 0.689383
vn 0.000000 0.665700 0.746178
vn 0.527635 -0.665700 0.527635
vn 0.527635 0.665700 0.527635
vn 0.689383 -0.665700 0.285531
vn 0.689383 0.665700 0.285531
vn 0.746178 -0.665700 0.000000
vn 0.746178 0.665700 0.000000
vn 0.689383 -0.665700 -0.285531
vn 0.689383 0.665700 -0.285531
vn 0.527635 -0.665700 -0.527635
vn 0.527635 0.665700 -0.527635
vn 0.285531 -0.665700 -0.689383
vn 0.285531 0.665700 -0.689383
vn 0.000000 -0.665700 -0.746178
vn 0.000000 0.665700 -0.746178
vn -0.285531 -0.665700 -0.689383
vn -0.285531 0.665700 -0.689383
vn -0.527635 -0.665700 -0.527635
vn -0.527635 0.665700 -0.527635
vn -0.689383 -0.665700 -0.285531
vn -0.689383 0.665700 -0.285531
vn -0.746178 -0.665700 0.000000
vn -0.746178 0.665700 0.000000
vn -0.689383 -0.665700 0.285531
vn -0.689383 0.665700 0.285531
vn -0.527635 -0.665700 0.527635
vn -0.527635 0.665700 0.527635
vn -0.285531 0.665700 0.689383
vn -0.285531 -0.665700 0.689383
usemtl 
s 1
f 1//1 3//2 4//3 2//4
f 3//2 5//5 6//6 4//3
f 5//5 7//7 8//8 6//6
f 7//7 9//9 10//10 8//8
f 9//9 11//11 12//12 10//10
f 11//11 13//13 14//14 12//12
f 13//13 15//15 16//16 14//14
f 15//15 17//17 18//18 16//16
f 17//17 19//19 20//20 18//18
f 19//19 21//21 22//22 20//20
f 21//21 23//23 24//24 22//22
f 23//23 25//25 26//26 24//24
f 25//25 27//27 28//28 26//26
f 27//27 29//29 30//30 28//28
f 4//3 32//31 2//4
f 4//3 30//30 32//31
f 4//3 6//6 30//30
f 6//6 28//28 30//30
f 6//6 8//8 28//28
f 8//8 26//26 28//28
f 8//8 10//10 26//26
f 10//10 24//24 26//26
f 10//10 12//12 24//24
f 12//12 14//14 24//24
f 14//14 22//22 24//24
f 14//14 16//16 22//22
f 16//16 20//20 22//22
f 16//16 18//18 20//20
f 31//32 1//1 2//4 32//31
f 29//29 31//32 32//31 30//30
f 1//1 31//32 3//2
f 31//32 29//29 3//2
f 29//29 5//5 3//2
f 29//29 27//27 5//5
f 27//27 7//7 5//5
f 27//27 25//25 7//7
f 25//25 9//9 7//7
f 25//25 23//23 9//9
f 23//23 11//11 9//9
f 23//23 13//13 11//11
f 23//23 21//21 13//13
f 21//21 15//15 13//13
f 21//21 19//19 15//15
f 19//19 17//17 15//15
o Cylinder.004_Cylinder.006
v 6.905323 6.049185 0.918532
v 6.905323 6.025003 1.097225
v 6.944534 6.053236 0.916202
v 6.962455 6.030894 1.097225
v 6.977775 6.064770 0.914228
v 7.010889 6.047670 1.097225
v 6.999986 6.082032 0.912908
v 7.043251 6.072778 1.097225
v 7.007785 6.102394 0.912445
v 7.054615 6.102394 1.097225
v 6.999986 6.122756 0.912908
v 7.043251 6.132010 1.097225
v 6.977775 6.140018 0.914228
v 7.010889 6.157117 1.097225
v 6.944534 6.151552 0.916202
v 6.962455 6.173893 1.097225
v 6.905323 6.155602 0.918532
v 6.905323 6.179784 1.097225
v 6.866113 6.151552 0.920861
v 6.848192 6.173893 1.097225
v 6.832871 6.140018 0.922835
v 6.799758 6.157117 1.097225
v 6.810660 6.122756 0.924155
v 6.767395 6.132010 1.097225
v 6.802861 6.102394 0.924618
v 6.756032 6.102394 1.097225
v 6.810660 6.082032 0.924155
v 6.767395 6.072778 1.097225
v 6.832871 6.064770 0.922835
v 6.799758 6.047670 1.097225
v 6.866113 6.053235 0.920861
v 6.848192 6.030894 1.097225
v 6.824280 6.049185 0.837235
v 6.903815 6.053236 0.832421
v 6.971241 6.064770 0.828340
v 7.016294 6.082032 0.825613
v 7.029498 6.102394 0.824656
v 7.016294 6.122756 0.825613
v 6.971241 6.140018 0.828340
v 6.903815 6.151552 0.832421
v 6.824280 6.155602 0.837235
v 6.744746 6.151552 0.842049
v 6.677320 6.140018 0.846130
v 6.632267 6.122756 0.848857
v 6.616446 6.102394 0.849815
v 6.632267 6.082032 0.848857
v 6.677320 6.064770 0.846130
v 6.744746 6.053235 0.842049
v 6.727749 6.024531 0.712678
v 6.910654 6.030458 0.709508
v 7.065713 6.047337 0.706820
v 7.167503 6.072598 0.705023
v 7.187531 6.102394 0.704393
v 7.169320 6.132190 0.705023
v 7.065713 6.157451 0.706820
v 6.910654 6.174329 0.709508
v 6.727749 6.180256 0.712678
v 6.544844 6.174329 0.715849
v 6.389785 6.157451 0.718537
v 6.286177 6.132190 0.720334
v 6.249795 6.102394 0.720964
v 6.286177 6.072597 0.720334
v 6.389785 6.047337 0.718537
v 6.544844 6.030458 0.715849
v 6.726256 5.956966 0.632719
v 6.941482 5.968037 0.627661
v 7.123942 5.999561 0.623374
v 7.227686 6.046741 0.620509
v 7.254663 6.102394 0.619503
v 7.233383 6.158046 0.620509
v 7.123942 6.205226 0.623374
v 6.941482 6.236751 0.627661
v 6.726256 6.247821 0.632719
v 6.511031 6.236751 0.637776
v 6.328571 6.205226 0.642064
v 6.206655 6.158046 0.644929
v 6.172241 6.102393 0.645935
v 6.206655 6.046741 0.644929
v 6.328571 5.999561 0.642064
v 6.511031 5.968037 0.637776
v 6.759643 5.937820 0.557985
v 6.956220 5.950347 0.553974
v 7.122870 5.986023 0.550573
v 7.234222 6.039414 0.548301
v 7.267873 6.102394 0.547503
v 7.234222 6.165373 0.548301
v 7.139665 6.218765 0.550573
v 6.942784 6.254440 0.553974
v 6.742848 6.266967 0.557985
v 6.519400 6.254440 0.561996
v 6.349391 6.218764 0.565397
v 6.249932 6.165373 0.567669
v 6.212070 6.102393 0.568467
v 6.285063 6.039414 0.567669
v 6.396415 5.986022 0.565397
v 6.563066 5.950347 0.561996
v 6.859985 5.941555 0.347539
v 7.000756 5.953798 0.344231
v 7.120096 5.988664 0.341427
v 7.199837 6.040843 0.339553
v 7.227838 6.102394 0.338895
v 7.199837 6.163944 0.339553
v 7.104981 6.216124 0.341427
v 6.950373 6.250989 0.344231
v 6.797846 6.263232 0.347539
v 6.673869 6.250989 0.350847
v 6.552849 6.216124 0.353652
v 6.488224 6.163944 0.355525
v 6.492132 6.102394 0.356183
v 6.520133 6.040843 0.355525
v 6.599874 5.988664 0.353652
v 6.719214 5.953798 0.350847
v 6.727259 6.003530 0.671288
v 6.521563 6.011055 0.675435
v 6.347182 6.172301 0.678951
v 6.521563 6.193732 0.675435
v 7.229496 6.102394 0.660450
v 7.202048 6.064560 0.661275
v 6.230664 6.140227 0.681301
v 7.204659 6.140227 0.661275
v 6.189749 6.102393 0.682126
v 7.107336 6.172301 0.663624
v 6.230664 6.064560 0.681301
v 6.932955 6.193732 0.667140
v 6.932955 6.011055 0.667140
v 6.347182 6.032486 0.678951
v 6.727259 6.201257 0.671288
v 7.107336 6.032486 0.663624
v 6.586696 6.151507 0.295382
v 6.650324 6.193144 0.279350
v 6.745551 6.220964 0.266209
v 6.857878 6.230733 0.254484
v 7.129060 6.053280 0.282637
v 7.065432 6.011644 0.258693
v 6.970205 5.983823 0.255479
v 6.857878 5.974054 0.252667
v 6.745551 5.983823 0.262575
v 6.650324 6.011643 0.277533
v 6.586696 6.053280 0.295382
v 6.564353 6.102394 0.295907
v 6.970205 6.220964 0.257296
v 7.065432 6.193144 0.262327
v 7.129060 6.151507 0.282637
v 7.151403 6.102394 0.282112
v 6.905323 6.015313 0.926635
v 6.959126 6.021942 0.923624
v 7.004737 6.040819 0.921071
v 7.035213 6.069070 0.919365
v 7.045915 6.102394 0.918766
v 7.035213 6.135718 0.919365
v 7.004737 6.163969 0.921071
v 6.959126 6.182845 0.923624
v 6.905323 6.189474 0.926635
v 6.851521 6.182845 0.929646
v 6.805910 6.163969 0.932199
v 6.775433 6.135718 0.933905
v 6.764731 6.102394 0.934504
v 6.775433 6.069069 0.933905
v 6.805910 6.040819 0.932199
v 6.851521 6.021942 0.929646
v 6.851514 6.017376 0.946272
v 6.805898 6.037324 0.948639
v 6.775417 6.067178 0.950220
v 6.764714 6.102394 0.950775
v 6.959132 6.187411 0.940688
v 7.004749 6.167463 0.938322
v 7.035229 6.137609 0.936740
v 7.045932 6.102394 0.936185
v 6.775417 6.137609 0.950220
v 6.805898 6.167463 0.948639
v 6.851514 6.187411 0.946272
v 6.905323 6.194416 0.943480
v 7.035229 6.067178 0.936740
v 7.004749 6.037324 0.938322
v 6.959132 6.017376 0.940688
v 6.905323 6.010371 0.943480
vn -0.006104 -0.995819 -0.090884
vn 0.240822 -0.966826 -0.085116
vn 0.173803 -0.683279 0.709128
vn 0.001556 -0.696860 0.717185
vn 0.521989 -0.850246 -0.067568
vn 0.382946 -0.619800 0.684927
vn 0.832362 -0.552446 -0.044313
vn 0.640156 -0.420179 0.643147
vn 0.999481 0.000000 -0.031800
vn 0.790460 0.000000 0.612507
vn 0.832362 0.552446 -0.044313
vn 0.640156 0.420179 0.643147
vn 0.521989 0.850246 -0.067568
vn 0.382946 0.619800 0.684927
vn 0.240822 0.966826 -0.085116
vn 0.173803 0.683279 0.709128
vn -0.006104 0.995819 -0.090884
vn 0.001556 0.696860 0.717185
vn -0.251198 0.964263 -0.084140
vn -0.171178 0.683004 0.710044
vn -0.527421 0.846950 -0.066591
vn -0.381909 0.619617 0.685690
vn -0.833064 0.551317 -0.045289
vn -0.641072 0.419782 0.642445
vn -0.999390 0.000000 -0.034883
vn -0.791772 0.000000 0.610797
vn -0.833064 -0.551317 -0.045289
vn -0.641072 -0.419782 0.642445
vn -0.527421 -0.846950 -0.066591
vn -0.381909 -0.619617 0.685690
vn -0.171178 -0.683004 0.710044
vn -0.251198 -0.964263 -0.084140
vn -0.004273 -0.993072 0.117344
vn -0.017396 -0.766137 -0.642415
vn -0.134129 -0.802515 -0.581317
vn -0.105930 -0.957213 0.269265
vn -0.208594 0.831202 0.515305
vn -0.158879 0.842708 0.514328
vn -0.299142 0.628193 0.718192
vn -0.300790 0.544725 0.782800
vn -0.621937 -0.736259 -0.266640
vn -0.300790 -0.544725 0.782800
vn -0.208594 -0.831202 0.515305
vn -0.304178 -0.836573 -0.455611
vn -0.621937 0.736259 -0.266640
vn -0.349742 0.000000 0.936827
vn -0.990692 0.000000 -0.135960
vn -0.134129 0.802515 -0.581317
vn -0.105930 0.957213 0.269265
vn -0.304147 0.836573 -0.455611
vn 0.095584 0.741722 -0.663839
vn 0.104465 0.992004 0.070528
vn -0.004273 0.993072 0.117344
vn -0.017396 0.766137 -0.642415
vn 0.516037 0.548235 -0.658101
vn 0.566210 0.745476 0.351573
vn 0.258492 0.957854 0.125156
vn 0.246620 0.706046 -0.663778
vn 0.516037 -0.548235 -0.658101
vn 0.565813 -0.746574 0.349895
vn 0.799921 -0.006561 0.600024
vn 0.746849 0.000000 -0.664968
vn 0.095584 -0.741722 -0.663839
vn 0.104465 -0.992004 0.070528
vn 0.258950 -0.957701 0.125309
vn 0.246620 -0.706046 -0.663778
vn -0.057985 -0.787835 0.613117
vn -0.107028 -0.887600 0.447981
vn 0.003052 -0.857295 0.514786
vn 0.013001 -0.787042 0.616718
vn 0.686209 -0.016388 0.727195
vn 0.472793 0.636036 0.609821
vn -0.478744 0.000000 0.877926
vn 0.189703 0.902402 0.386822
vn -0.299142 -0.628193 0.718192
vn 0.077548 0.943602 0.321787
vn -0.000061 -0.944182 0.329386
vn 0.077548 -0.943602 0.321787
vn -0.158879 -0.842708 0.514328
vn -0.000061 0.944182 0.329386
vn 0.191504 -0.901761 0.387432
vn -0.070925 -0.917234 0.391919
vn -0.070925 0.917234 0.391919
vn 0.469100 -0.645375 0.602802
vn -0.284616 -0.917447 0.277963
vn -0.323160 -0.921384 -0.215888
vn -0.143956 -0.989563 -0.003998
vn -0.057985 0.787835 0.613117
vn -0.091250 0.867031 0.489792
vn -0.263985 0.887967 0.376537
vn -0.163823 0.783410 0.599475
vn 0.522813 -0.611866 0.593493
vn 0.645894 -0.668722 0.368206
vn 0.932096 -0.023103 0.361400
vn 0.773339 -0.026612 0.633381
vn -0.660451 0.734855 0.154088
vn -0.413038 0.649403 0.638478
vn 0.670583 0.639943 0.375164
vn 0.526719 0.592395 0.609577
vn -0.997009 -0.040651 0.065462
vn -0.714225 0.000000 0.699881
vn 0.265664 0.857418 0.440718
vn 0.207709 0.796350 0.568011
vn -0.625233 -0.775414 0.088076
vn -0.413007 -0.649403 0.638478
vn 0.105380 0.860164 0.498978
vn 0.084262 0.796289 0.598956
vn 0.105594 -0.858394 0.501938
vn 0.084262 -0.796289 0.598956
vn -0.163823 -0.783410 0.599475
vn 0.007782 0.854701 0.518998
vn 0.013001 0.787042 0.616718
vn 0.278054 -0.859523 0.428755
vn 0.212348 -0.795465 0.567522
vn -0.518509 -0.705405 -0.483230
vn -0.540056 -0.563891 -0.624744
vn -0.365520 -0.834162 -0.412915
vn 0.000366 0.994598 0.103763
vn -0.150548 0.988433 0.017426
vn 0.335704 -0.938322 0.082461
vn 0.716117 -0.697684 0.018342
vn -0.001160 -0.994720 0.102481
vn -0.362041 0.914518 -0.180395
vn 0.999756 -0.009033 -0.019440
vn -0.633290 0.621204 -0.461531
vn 0.723045 0.690695 0.009766
vn -0.776788 -0.099796 -0.621784
vn 0.342540 0.936918 0.069399
vn 0.125523 0.985931 0.110202
vn 0.139714 -0.982391 0.123936
vn -0.367595 -0.322062 -0.872433
vn -0.237373 -0.485427 -0.841395
vn 0.140599 0.976531 -0.162969
vn -0.019532 0.979705 -0.199316
vn 0.179754 -0.966399 -0.183660
vn 0.406629 -0.868129 -0.284494
vn -0.167241 -0.954863 -0.245399
vn -0.176000 0.934568 -0.309153
vn 0.679281 -0.598804 -0.424207
vn 0.006439 -0.984252 -0.176550
vn -0.369762 0.770135 -0.519730
vn 0.871059 0.000000 -0.491104
vn -0.560289 0.409894 -0.719718
vn 0.673025 0.606250 -0.423627
vn -0.613697 -0.134587 -0.777947
vn 0.365978 0.891812 -0.265847
vn 0.184515 0.532121 -0.826289
vn 0.089633 0.603412 -0.792352
vn -0.203619 0.428510 -0.880276
vn -0.319498 0.211035 -0.923765
vn 0.080935 -0.575732 -0.813593
vn 0.192541 -0.490066 -0.850124
vn -0.111484 0.542253 -0.832759
vn 0.337168 -0.322459 -0.884487
vn 0.375561 0.004212 -0.926756
vn 0.325846 0.358898 -0.874630
vn -0.005036 0.595813 -0.803095
vn -0.404309 -0.057497 -0.912778
vn -0.126530 -0.565783 -0.814753
vn -0.022889 -0.586169 -0.809839
vn 0.157811 -0.705924 -0.690451
vn -0.036958 -0.713034 -0.700125
vn 0.395001 -0.638569 -0.660421
vn 0.661489 -0.418195 -0.622486
vn 0.797327 0.000000 -0.603504
vn 0.661489 0.418195 -0.622486
vn 0.395001 0.638569 -0.660421
vn 0.157811 0.705924 -0.690451
vn -0.036958 0.713034 -0.700125
vn -0.226264 0.692068 -0.685415
vn -0.448042 0.617634 -0.646352
vn -0.696463 0.403272 -0.593493
vn -0.824976 0.000000 -0.565142
vn -0.696463 -0.403272 -0.593493
vn -0.448042 -0.617634 -0.646352
vn -0.226264 -0.692068 -0.685415
usemtl 
s 1
f 208//33 207//34 36//35 34//36
f 207//34 206//37 38//38 36//35
f 206//37 205//39 40//40 38//38
f 205//39 200//41 42//42 40//40
f 200//41 199//43 44//44 42//42
f 199//43 198//45 46//46 44//44
f 198//45 197//47 48//48 46//46
f 197//47 204//49 50//50 48//48
f 204//49 203//51 52//52 50//50
f 203//51 202//53 54//54 52//52
f 202//53 201//55 56//56 54//54
f 201//55 196//57 58//58 56//56
f 196//57 195//59 60//60 58//58
f 195//59 194//61 62//62 60//60
f 48//48 50//50 52//52
f 48//48 52//52 54//54
f 46//46 48//48 54//54
f 46//46 54//54 56//56
f 44//44 46//46 56//56
f 44//44 56//56 58//58
f 42//42 44//44 58//58
f 42//42 58//58 60//60
f 40//40 42//42 60//60
f 38//38 40//40 60//60
f 38//38 60//60 62//62
f 38//38 62//62 64//63
f 36//35 38//38 64//63
f 36//35 64//63 34//36
f 193//64 208//33 34//36 64//63
f 194//61 193//64 64//63 62//62
f 65//65 33//66 63//67 80//68
f 75//69 91//70 92//71 76//72
f 59//73 78//74 79//75 61//76
f 55//77 76//72 77//78 57//79
f 51//80 74//81 75//69 53//82
f 47//83 72//84 73//85 49//86
f 43//87 70//88 71//89 45//90
f 39//91 68//92 69//93 41//94
f 35//95 66//96 67//97 37//98
f 61//76 79//75 80//68 63//67
f 57//79 77//78 78//74 59//73
f 33//66 65//65 66//96 35//95
f 53//82 75//69 76//72 55//77
f 49//86 73//85 74//81 51//80
f 45//90 71//89 72//84 47//83
f 41//94 69//93 70//88 43//87
f 37//98 67//97 68//92 39//91
f 146//99 112//100 97//101 145//102
f 69//93 85//103 86//104 70//88
f 76//72 92//71 93//105 77//78
f 70//88 86//104 87//106 71//89
f 77//78 93//105 94//107 78//74
f 71//89 87//106 88//108 72//84
f 65//65 81//109 82//110 66//96
f 78//74 94//107 95//111 79//75
f 72//84 88//108 89//112 73//85
f 66//96 82//110 83//113 67//97
f 79//75 95//111 96//114 80//68
f 73//85 89//112 90//115 74//81
f 67//97 83//113 84//116 68//92
f 80//68 96//114 81//109 65//65
f 74//81 90//115 91//70 75//69
f 68//92 84//116 85//103 69//93
f 111//117 127//118 128//119 112//100
f 148//120 106//121 107//122 147//123
f 150//124 100//125 101//126 149//127
f 147//123 107//122 108//128 151//129
f 149//127 101//126 102//130 152//131
f 151//129 108//128 109//132 153//133
f 152//131 102//130 103//134 154//135
f 153//133 109//132 110//136 155//137
f 154//135 103//134 104//138 156//139
f 145//102 97//101 98//140 157//141
f 155//137 110//136 111//117 158//142
f 156//139 104//138 105//143 159//144
f 157//141 98//140 99//145 160//146
f 158//142 111//117 112//100 146//99
f 159//144 105//143 106//121 148//120
f 160//146 99//145 100//125 150//124
f 126//147 142//148 143//149 127//118
f 105//143 121//150 122//151 106//121
f 99//145 115//152 116//153 100//125
f 112//100 128//119 113//154 97//101
f 106//121 122//151 123//155 107//122
f 100//125 116//153 117//156 101//126
f 107//122 123//155 124//157 108//128
f 101//126 117//156 118//158 102//130
f 108//128 124//157 125//159 109//132
f 102//130 118//158 119//160 103//134
f 109//132 125//159 126//147 110//136
f 103//134 119//160 120//161 104//138
f 97//101 113//154 114//162 98//140
f 110//136 126//147 127//118 111//117
f 104//138 120//161 121//150 105//143
f 98//140 114//162 115//152 99//145
f 142//148 171//163 170//164 143//149
f 120//161 136//165 137//166 121//150
f 114//162 130//167 131//168 115//152
f 127//118 143//149 144//169 128//119
f 121//150 137//166 138//170 122//151
f 115//152 131//168 132//171 116//153
f 128//119 144//169 129//172 113//154
f 122//151 138//170 139//173 123//155
f 116//153 132//171 133//174 117//156
f 123//155 139//173 140//175 124//157
f 117//156 133//174 134//176 118//158
f 124//157 140//175 141//177 125//159
f 118//158 134//176 135//178 119//160
f 125//159 141//177 142//148 126//147
f 119//160 135//178 136//165 120//161
f 113//154 129//172 130//167 114//162
f 96//114 146//99 145//102 81//109
f 90//115 148//120 147//123 91//70
f 84//116 150//124 149//127 85//103
f 91//70 147//123 151//129 92//71
f 85//103 149//127 152//131 86//104
f 92//71 151//129 153//133 93//105
f 86//104 152//131 154//135 87//106
f 93//105 153//133 155//137 94//107
f 87//106 154//135 156//139 88//108
f 81//109 145//102 157//141 82//110
f 94//107 155//137 158//142 95//111
f 88//108 156//139 159//144 89//112
f 82//110 157//141 160//146 83//113
f 95//111 158//142 146//99 96//114
f 89//112 159//144 148//120 90//115
f 83//113 160//146 150//124 84//116
f 135//178 174//179 173//180 136//165
f 139//173 162//181 161//182 140//175
f 130//167 167//183 166//184 131//168
f 138//170 163//185 162//181 139//173
f 132//171 165//186 176//187 133//174
f 134//176 175//188 174//179 135//178
f 163//185 164//189 173//180
f 162//181 163//185 173//180
f 162//181 173//180 174//179
f 161//182 162//181 174//179
f 161//182 174//179 175//188
f 172//190 161//182 175//188
f 172//190 175//188 176//187
f 171//163 172//190 176//187
f 171//163 176//187 165//186
f 170//164 171//163 165//186
f 170//164 165//186 166//184
f 170//164 166//184 167//183
f 169//191 170//164 167//183
f 168//192 169//191 167//183
f 144//169 169//191 168//192 129//172
f 141//177 172//190 171//163 142//148
f 137//166 164//189 163//185 138//170
f 131//168 166//184 165//186 132//171
f 133//174 176//187 175//188 134//176
f 129//172 168//192 167//183 130//167
f 143//149 170//164 169//191 144//169
f 140//175 161//182 172//190 141//177
f 136//165 173//180 164//189 137//166
f 33//66 35//95 178//193 177//194
f 35//95 37//98 179//195 178//193
f 37//98 39//91 180//196 179//195
f 39//91 41//94 181//197 180//196
f 41//94 43//87 182//198 181//197
f 43//87 45//90 183//199 182//198
f 45//90 47//83 184//200 183//199
f 47//83 49//86 185//201 184//200
f 49//86 51//80 186//202 185//201
f 51//80 53//82 187//203 186//202
f 53//82 55//77 188//204 187//203
f 55//77 57//79 189//205 188//204
f 57//79 59//73 190//206 189//205
f 59//73 61//76 191//207 190//206
f 63//67 33//66 177//194 192//208
f 61//76 63//67 192//208 191//207
f 181//197 182//198 199//43 200//41
f 189//205 190//206 195//59 196//57
f 185//201 186//202 203//51 204//49
f 180//196 181//197 200//41 205//39
f 178//193 179//195 206//37 207//34
f 191//207 192//208 193//64 194//61
f 190//206 191//207 194//61 195//59
f 188//204 189//205 196//57 201//55
f 184//200 185//201 204//49 197//47
f 182//198 183//199 198//45 199//43
f 179//195 180//196 205//39 206//37
f 177//194 178//193 207//34 208//33
f 192//208 177//194 208//33 193//64
f 186//202 187//203 202//53 203//51
f 187//203 188//204 201//55 202//53
f 183//199 184//200 197//47 198//45
