# Blender v2.63 (sub 13) OBJ File: '99shiki_propeller_output.blend'
# www.blender.org
mtllib 99shiki_propeller_output.mtl
o Circle.002
v 8.294136 5.127606 0.979049
v 8.294136 5.114623 1.252748
v 8.294136 5.079154 1.453109
v 8.294136 5.030702 1.526446
v 8.294136 4.982250 1.453109
v 8.294136 4.946780 1.252748
v 8.294136 4.933797 0.979049
v 8.294136 4.946780 0.705351
v 8.294137 4.982250 0.504990
v 8.294137 5.030702 0.478101
v 8.294137 5.079154 0.504989
v 8.294136 5.114623 0.705350
v 8.313663 5.127606 0.979049
v 8.313663 5.114623 1.252748
v 8.313663 5.079154 1.453109
v 8.313663 5.030702 1.526446
v 8.313663 4.982250 1.453109
v 8.313663 4.946780 1.252748
v 8.313663 4.933797 0.979049
v 8.313663 4.946780 0.705351
v 8.313664 4.982250 0.504990
v 8.313664 5.030702 0.478101
v 8.313664 5.079154 0.504989
v 8.313663 5.114623 0.705350
vn -0.664144 -0.694388 0.276955
vn -0.559038 0.000000 0.829096
vn -0.664144 0.694388 0.276955
vn -0.692984 0.716453 0.080050
vn -0.692984 -0.716453 0.080050
vn -0.696585 0.717460 0.000000
vn -0.696585 -0.717460 0.000000
vn -0.692984 0.716453 -0.080050
vn -0.692984 -0.716453 -0.080050
vn -0.621906 0.637471 -0.454787
vn -0.621906 -0.637471 -0.454787
vn -0.612445 0.000000 -0.790490
vn 0.664144 0.694388 0.276955
vn 0.559038 0.000000 0.829096
vn 0.664144 -0.694388 0.276955
vn 0.692984 -0.716453 0.080050
vn 0.692984 0.716453 0.080050
vn 0.696585 -0.717460 0.000000
vn 0.696585 0.717460 0.000000
vn 0.692984 -0.716453 -0.080050
vn 0.692984 0.716453 -0.080050
vn 0.621906 -0.637471 -0.454787
vn 0.621906 0.637471 -0.454787
vn 0.612445 0.000000 -0.790490
usemtl 
s 1
f 5//1 4//2 3//3
f 5//1 3//3 2//4 6//5
f 1//6 7//7 6//5 2//4
f 7//7 1//6 12//8 8//9
f 11//10 9//11 8//9 12//8
f 11//10 10//12 9//11
f 15//13 16//14 17//15
f 18//16 14//17 15//13 17//15
f 19//18 13//19 14//17 18//16
f 13//19 19//18 20//20 24//21
f 24//21 20//20 21//22 23//23
f 21//22 22//24 23//23
f 6//5 7//7 19//18 18//16
f 12//8 1//6 13//19 24//21
f 11//10 12//8 24//21 23//23
f 9//11 10//12 22//24 21//22
f 2//4 3//3 15//13 14//17
f 8//9 9//11 21//22 20//20
f 10//12 11//10 23//23 22//24
f 5//1 6//5 18//16 17//15
f 7//7 8//9 20//20 19//18
f 3//3 4//2 16//14 15//13
f 4//2 5//1 17//15 16//14
f 1//6 2//4 14//17 13//19
o Circle.001
v 8.294136 4.447184 1.821888
v 8.294136 4.690705 1.696282
v 8.294136 4.881958 1.626819
v 8.294136 4.969696 1.632111
v 8.294136 4.930410 1.710740
v 8.294136 4.774627 1.841638
v 8.294136 4.544088 1.989731
v 8.294136 4.300567 2.115337
v 8.294136 4.109315 2.184800
v 8.294136 4.061802 2.156284
v 8.294136 4.060863 2.100879
v 8.294136 4.216645 1.969981
v 8.313663 4.447184 1.821888
v 8.313663 4.690705 1.696282
v 8.313663 4.881958 1.626819
v 8.313663 4.969696 1.632111
v 8.313663 4.930410 1.710740
v 8.313663 4.774627 1.841638
v 8.313663 4.544088 1.989731
v 8.313663 4.300567 2.115337
v 8.313663 4.109315 2.184800
v 8.313663 4.061802 2.156284
v 8.313663 4.060863 2.100879
v 8.313663 4.216645 1.969981
vn -0.664144 0.587054 0.462874
vn -0.559038 0.718040 -0.414563
vn -0.664144 -0.107334 -0.739830
vn -0.692984 -0.288858 -0.660512
vn -0.692984 0.427564 0.580432
vn -0.696585 -0.358715 -0.621326
vn -0.696585 0.358715 0.621326
vn -0.692984 -0.427564 -0.580432
vn -0.692984 0.288858 0.660512
vn -0.621906 -0.712577 -0.324656
vn -0.621906 -0.075106 0.779443
vn -0.612445 -0.684561 0.395245
vn 0.664144 -0.107334 -0.739830
vn 0.559038 0.718040 -0.414563
vn 0.664144 0.587054 0.462874
vn 0.692984 0.427564 0.580432
vn 0.692984 -0.288858 -0.660512
vn 0.696585 0.358715 0.621326
vn 0.696585 -0.358715 -0.621326
vn 0.692984 0.288858 0.660512
vn 0.692984 -0.427564 -0.580432
vn 0.621906 -0.075106 0.779443
vn 0.621906 -0.712577 -0.324656
vn 0.612445 -0.684561 0.395245
usemtl 
s 1
f 29//25 28//26 27//27
f 29//25 27//27 26//28 30//29
f 25//30 31//31 30//29 26//28
f 31//31 25//30 36//32 32//33
f 35//34 33//35 32//33 36//32
f 35//34 34//36 33//35
f 39//37 40//38 41//39
f 42//40 38//41 39//37 41//39
f 43//42 37//43 38//41 42//40
f 37//43 43//42 44//44 48//45
f 48//45 44//44 45//46 47//47
f 45//46 46//48 47//47
f 30//29 31//31 43//42 42//40
f 36//32 25//30 37//43 48//45
f 35//34 36//32 48//45 47//47
f 33//35 34//36 46//48 45//46
f 26//28 27//27 39//37 38//41
f 32//33 33//35 45//46 44//44
f 34//36 35//34 47//47 46//48
f 29//25 30//29 42//40 41//39
f 31//31 32//33 44//44 43//42
f 27//27 28//26 40//38 39//37
f 28//26 29//25 41//39 40//38
f 25//30 26//28 38//41 37//43
o Circle
v 8.294136 5.517315 1.989731
v 8.294136 5.286777 1.841638
v 8.294136 5.130993 1.710740
v 8.294136 5.091707 1.632111
v 8.294136 5.179445 1.626819
v 8.294136 5.370698 1.696282
v 8.294136 5.614219 1.821888
v 8.294136 5.844758 1.969980
v 8.294136 6.000541 2.100878
v 8.294136 5.999601 2.156283
v 8.294136 5.952089 2.184800
v 8.294136 5.760837 2.115337
v 8.313663 5.517315 1.989731
v 8.313663 5.286777 1.841638
v 8.313663 5.130993 1.710740
v 8.313663 5.091707 1.632111
v 8.313663 5.179445 1.626819
v 8.313663 5.370698 1.696282
v 8.313663 5.614219 1.821888
v 8.313663 5.844758 1.969980
v 8.313663 6.000541 2.100878
v 8.313663 5.999601 2.156283
v 8.313663 5.952089 2.184800
v 8.313663 5.760837 2.115337
vn -0.664144 0.107334 -0.739830
vn -0.559038 -0.718040 -0.414563
vn -0.664144 -0.587054 0.462874
vn -0.692984 -0.427564 0.580432
vn -0.692984 0.288858 -0.660512
vn -0.696585 -0.358715 0.621326
vn -0.696585 0.358715 -0.621326
vn -0.692984 -0.288858 0.660512
vn -0.692984 0.427564 -0.580432
vn -0.621906 0.075106 0.779443
vn -0.621906 0.712577 -0.324656
vn -0.612445 0.684561 0.395245
vn 0.664144 -0.587054 0.462874
vn 0.559038 -0.718040 -0.414563
vn 0.664144 0.107334 -0.739830
vn 0.692984 0.288858 -0.660512
vn 0.692984 -0.427564 0.580432
vn 0.696585 0.358715 -0.621326
vn 0.696585 -0.358715 0.621326
vn 0.692984 0.427564 -0.580432
vn 0.692984 -0.288858 0.660512
vn 0.621906 0.712577 -0.324656
vn 0.621906 0.075106 0.779443
vn 0.612445 0.684561 0.395245
usemtl 
s 1
f 53//49 52//50 51//51
f 53//49 51//51 50//52 54//53
f 49//54 55//55 54//53 50//52
f 55//55 49//54 60//56 56//57
f 59//58 57//59 56//57 60//56
f 59//58 58//60 57//59
f 63//61 64//62 65//63
f 66//64 62//65 63//61 65//63
f 67//66 61//67 62//65 66//64
f 61//67 67//66 68//68 72//69
f 72//69 68//68 69//70 71//71
f 69//70 70//72 71//71
f 54//53 55//55 67//66 66//64
f 60//56 49//54 61//67 72//69
f 59//58 60//56 72//69 71//71
f 57//59 58//60 70//72 69//70
f 50//52 51//51 63//61 62//65
f 56//57 57//59 69//70 68//68
f 58//60 59//58 71//71 70//72
f 53//49 54//53 66//64 65//63
f 55//55 56//57 68//68 67//66
f 51//51 52//50 64//62 63//61
f 52//50 53//49 65//63 64//62
f 49//54 50//52 62//65 61//67
o Cylinder.001_Cylinder.003
v 8.103374 5.127211 1.595629
v 8.367493 5.127211 1.595629
v 8.103374 5.114003 1.546338
v 8.367493 5.114003 1.546338
v 8.103374 5.077919 1.510254
v 8.367493 5.077919 1.510254
v 8.103374 5.028628 1.497046
v 8.367493 5.028628 1.497046
v 8.103374 4.979337 1.510254
v 8.367493 4.979337 1.510254
v 8.103374 4.943253 1.546338
v 8.367493 4.943253 1.546338
v 8.103374 4.930045 1.595629
v 8.367493 4.930045 1.595629
v 8.103374 4.943253 1.644920
v 8.367493 4.943253 1.644920
v 8.103374 4.979337 1.681004
v 8.367493 4.979337 1.681004
v 8.103374 5.028628 1.694212
v 8.367493 5.028628 1.694212
v 8.103374 5.077919 1.681004
v 8.367493 5.077919 1.681004
v 8.103374 5.114003 1.644920
v 8.367493 5.114003 1.644920
v 8.384823 5.079866 1.595629
v 8.384823 5.073001 1.570010
v 8.384823 5.054247 1.551255
v 8.384823 5.028628 1.544391
v 8.384823 5.003009 1.551255
v 8.384823 4.984254 1.570010
v 8.384823 4.977389 1.595629
v 8.384823 4.984254 1.621248
v 8.384823 5.003009 1.640003
v 8.384823 5.028628 1.646867
v 8.384823 5.054247 1.640003
v 8.384823 5.073001 1.621248
v 8.514799 5.079866 1.595629
v 8.514799 5.073001 1.570010
v 8.514799 5.054247 1.551255
v 8.514799 5.028628 1.544391
v 8.514799 5.003009 1.551255
v 8.514799 4.984254 1.570010
v 8.514799 4.977389 1.595629
v 8.514799 4.984254 1.621248
v 8.514799 5.003009 1.640003
v 8.514799 5.028628 1.646867
v 8.514799 5.054247 1.640003
v 8.514799 5.073001 1.621248
vn -0.653218 0.757134 0.000000
vn 0.532304 0.846553 0.000000
vn 0.532304 0.733116 -0.423261
vn -0.653218 0.655721 -0.378582
vn 0.532304 0.423261 -0.733116
vn -0.653218 0.378552 -0.655721
vn 0.532304 0.000000 -0.846553
vn -0.653218 0.000000 -0.757134
vn 0.532304 -0.423261 -0.733116
vn -0.653218 -0.378552 -0.655721
vn 0.532304 -0.733116 -0.423261
vn -0.653218 -0.655721 -0.378582
vn 0.532304 -0.846522 0.000000
vn -0.653218 -0.757134 0.000000
vn 0.532273 -0.733116 0.423261
vn -0.653218 -0.655721 0.378582
vn 0.532304 -0.423261 0.733116
vn -0.653218 -0.378552 0.655721
vn 0.532304 0.000000 0.846553
vn -0.653218 0.000000 0.757134
vn 0.532273 0.423261 0.733116
vn -0.653218 0.378552 0.655721
vn 0.621845 0.783135 0.000000
vn 0.621815 0.678213 -0.391552
vn -0.653218 0.655690 0.378582
vn 0.532304 0.733116 0.423261
vn 0.621845 -0.391552 0.678213
vn 0.621815 -0.678213 0.391552
vn 0.653218 -0.655690 0.378582
vn 0.653218 -0.378552 0.655721
vn 0.621845 0.391552 0.678213
vn 0.621815 0.678213 0.391552
vn 0.621845 0.000000 0.783135
vn 0.621845 -0.783135 0.000000
vn 0.621845 -0.391552 -0.678213
vn 0.621815 -0.678213 -0.391552
vn 0.621845 0.391552 -0.678213
vn 0.621845 0.000000 -0.783135
vn 0.653218 0.655690 -0.378582
vn 0.653218 0.757164 0.000000
vn 0.653218 0.655690 0.378582
vn 0.653218 0.378582 -0.655690
vn 0.653218 0.378582 0.655721
vn 0.653218 0.000000 -0.757134
vn 0.653218 0.000000 0.757134
vn 0.653218 -0.378552 -0.655721
vn 0.653218 -0.655690 -0.378582
vn 0.653218 -0.757134 0.000000
usemtl 
s 1
f 73//73 74//74 76//75 75//76
f 75//76 76//75 78//77 77//78
f 77//78 78//77 80//79 79//80
f 79//80 80//79 82//81 81//82
f 81//82 82//81 84//83 83//84
f 83//84 84//83 86//85 85//86
f 85//86 86//85 88//87 87//88
f 87//88 88//87 90//89 89//90
f 89//90 90//89 92//91 91//92
f 91//92 92//91 94//93 93//94
f 76//75 74//74 97//95 98//96
f 74//74 73//73 95//97 96//98
f 93//94 94//93 96//98 95//97
f 73//73 75//76 95//97
f 75//76 77//78 95//97
f 77//78 93//94 95//97
f 77//78 79//80 93//94
f 79//80 91//92 93//94
f 79//80 81//82 91//92
f 81//82 89//90 91//92
f 81//82 83//84 89//90
f 83//84 87//88 89//90
f 83//84 85//86 87//88
f 105//99 104//100 116//101 117//102
f 96//98 94//93 107//103 108//104
f 92//91 90//89 105//99 106//105
f 88//87 86//85 103//106 104//100
f 84//83 82//81 101//107 102//108
f 80//79 78//77 99//109 100//110
f 74//74 96//98 108//104 97//95
f 94//93 92//91 106//105 107//103
f 90//89 88//87 104//100 105//99
f 86//85 84//83 102//108 103//106
f 82//81 80//79 100//110 101//107
f 78//77 76//75 98//96 99//109
f 110//111 109//112 120//113
f 110//111 120//113 111//114
f 120//113 119//115 111//114
f 119//115 112//116 111//114
f 119//115 118//117 112//116
f 118//117 113//118 112//116
f 118//117 117//102 113//118
f 117//102 114//119 113//118
f 117//102 116//101 114//119
f 116//101 115//120 114//119
f 99//109 98//96 110//111 111//114
f 106//105 105//99 117//102 118//117
f 100//110 99//109 111//114 112//116
f 107//103 106//105 118//117 119//115
f 101//107 100//110 112//116 113//118
f 108//104 107//103 119//115 120//113
f 102//108 101//107 113//118 114//119
f 97//95 108//104 120//113 109//112
f 103//106 102//108 114//119 115//120
f 104//100 103//106 115//120 116//101
f 98//96 97//95 109//112 110//111
