# Blender v2.63 (sub 13) OBJ File: '99shiki_bomb_output.blend'
# www.blender.org
mtllib 99shiki_bomb_output.mtl
o _Bom_Cylinder.002
v 6.330032 5.171343 0.947682
v 6.879281 5.171343 0.947682
v 6.330032 5.159563 0.888457
v 6.879281 5.159563 0.888457
v 6.330032 5.126014 0.838248
v 6.879281 5.126014 0.838248
v 6.330032 5.075806 0.804700
v 6.879281 5.075806 0.804700
v 6.330032 5.016581 0.792920
v 6.879281 5.016581 0.792920
v 6.330032 4.957356 0.804700
v 6.879281 4.957356 0.804700
v 6.330032 4.907148 0.838248
v 6.879281 4.907148 0.838248
v 6.330032 4.873600 0.888457
v 6.879281 4.873600 0.888457
v 6.330032 4.861819 0.947682
v 6.879281 4.861819 0.947682
v 6.330032 4.873600 1.006907
v 6.879281 4.873600 1.006907
v 6.330032 4.907147 1.057115
v 6.879281 4.907147 1.057115
v 6.330032 4.957356 1.090663
v 6.879281 4.957356 1.090663
v 6.330032 5.016581 1.102444
v 6.879281 5.016581 1.102444
v 6.330032 5.075806 1.090663
v 6.879281 5.075806 1.090663
v 6.330032 5.126015 1.057115
v 6.879281 5.126015 1.057115
v 6.330032 5.159563 1.006907
v 6.879281 5.159563 1.006907
v 7.031981 5.133656 0.947682
v 7.031981 5.124744 0.902879
v 7.031981 5.099366 0.864897
v 7.031981 5.061384 0.839519
v 7.031981 5.016581 0.830607
v 7.031981 4.971778 0.839519
v 7.031981 4.933796 0.864897
v 7.031981 4.908418 0.902879
v 7.031981 4.899506 0.947682
v 7.031981 4.908418 0.992484
v 7.031981 4.933796 1.030466
v 7.031981 4.971778 1.055845
v 7.031981 5.016581 1.064757
v 7.031981 5.061384 1.055845
v 7.031981 5.099366 1.030466
v 7.031981 5.124744 0.992484
v 7.122356 5.064589 0.947682
v 7.122356 5.060934 0.929310
v 7.122356 5.050528 0.913735
v 7.122356 5.034953 0.903329
v 7.122356 5.016581 0.899674
v 7.122356 4.998209 0.903329
v 7.122356 4.982635 0.913735
v 7.122356 4.972228 0.929310
v 7.122356 4.968574 0.947682
v 7.122356 4.972228 0.966053
v 7.122356 4.982635 0.981628
v 7.122356 4.998209 0.992035
v 7.122356 5.016581 0.995689
v 7.122356 5.034953 0.992035
v 7.122356 5.050528 0.981628
v 7.122356 5.060934 0.966053
v 6.183563 5.138259 0.947682
v 6.183563 5.128997 0.901117
v 6.183563 5.102621 0.861642
v 6.183563 5.063146 0.835265
v 6.183563 5.016581 0.826003
v 6.183563 4.970016 0.835265
v 6.183563 4.930542 0.861642
v 6.183563 4.904165 0.901117
v 6.183563 4.894903 0.947682
v 6.183563 4.904165 0.994246
v 6.183563 4.930542 1.033721
v 6.183563 4.970016 1.060098
v 6.183563 5.016581 1.069360
v 6.183563 5.063146 1.060098
v 6.183563 5.102621 1.033721
v 6.183563 5.128997 0.994246
v 6.108771 5.102571 0.947682
v 6.108771 5.096025 0.914775
v 6.108771 5.077385 0.886878
v 6.108771 5.049488 0.868237
v 6.108771 5.016581 0.861692
v 6.108771 4.983674 0.868237
v 6.108771 4.955777 0.886878
v 6.108771 4.937137 0.914775
v 6.108771 4.930591 0.947682
v 6.108771 4.937137 0.980589
v 6.108771 4.955777 1.008486
v 6.108771 4.983674 1.027126
v 6.108771 5.016581 1.033672
v 6.108771 5.049488 1.027126
v 6.108771 5.077385 1.008486
v 6.108771 5.096025 0.980589
v 5.987233 5.039100 0.947682
v 5.987233 5.037386 0.939064
v 5.987233 5.032505 0.931758
v 5.987233 5.025198 0.926877
v 5.987233 5.016581 0.925163
v 5.987233 5.007964 0.926877
v 5.987233 5.000658 0.931758
v 5.987233 4.995776 0.939064
v 5.987233 4.994062 0.947682
v 5.987233 4.995776 0.956299
v 5.987233 5.000658 0.963605
v 5.987233 5.007964 0.968486
v 5.987233 5.016581 0.970201
v 5.987233 5.025198 0.968486
v 5.987233 5.032505 0.963605
v 5.987233 5.037386 0.956299
vn -0.109348 0.993988 0.000000
vn 0.118931 0.992889 0.000000
vn 0.118931 0.917295 -0.379955
vn -0.109348 0.918332 -0.380383
vn 0.118931 0.702078 -0.702078
vn -0.109348 0.702841 -0.702841
vn 0.118931 0.379955 -0.917295
vn -0.109348 0.380383 -0.918332
vn 0.118931 0.000000 -0.992889
vn -0.109348 0.000000 -0.993988
vn 0.118931 -0.379955 -0.917295
vn -0.109348 -0.380383 -0.918332
vn 0.118931 -0.702078 -0.702078
vn -0.109348 -0.702841 -0.702841
vn 0.118931 -0.917295 -0.379955
vn -0.109348 -0.918332 -0.380383
vn 0.118931 -0.992889 0.000000
vn -0.109348 -0.993988 0.000000
vn 0.118931 -0.917295 0.379955
vn -0.109348 -0.918332 0.380383
vn 0.118931 -0.702078 0.702078
vn -0.109348 -0.702841 0.702841
vn 0.118931 -0.379955 0.917295
vn -0.109348 -0.380383 0.918332
vn 0.118931 0.000000 0.992889
vn -0.109348 0.000000 0.993988
vn 0.118931 0.379955 0.917295
vn -0.109348 0.380383 0.918332
vn 0.118931 0.702078 0.702078
vn -0.109348 0.702841 0.702841
vn 0.118931 0.917295 0.379955
vn 0.422895 0.640736 0.640736
vn 0.422895 0.837184 0.346751
vn -0.109348 0.918332 0.380383
vn -0.323313 0.874233 0.362102
vn -0.323313 0.669118 0.669118
vn 0.422895 0.346751 0.837184
vn 0.874233 0.185766 0.448500
vn 0.874233 0.343272 0.343272
vn 0.422895 0.000000 0.906156
vn 0.422895 0.906156 0.000000
vn 0.422895 0.837184 -0.346751
vn 0.422895 -0.640736 0.640736
vn 0.422895 -0.346751 0.837184
vn 0.422895 -0.906156 0.000000
vn 0.422895 -0.837184 0.346751
vn 0.422895 -0.640736 -0.640736
vn 0.422895 -0.837184 -0.346751
vn 0.422895 0.000000 -0.906156
vn 0.422895 -0.346751 -0.837184
vn 0.422895 0.640736 -0.640736
vn 0.422895 0.346751 -0.837184
vn 0.874233 0.448500 -0.185766
vn 0.874233 0.485458 0.000000
vn 0.874233 0.448500 0.185766
vn 0.874233 0.343272 -0.343272
vn 0.874233 0.185766 -0.448500
vn 0.874233 0.000000 0.485458
vn 0.874233 0.000000 -0.485458
vn 0.874233 -0.185766 0.448500
vn 0.874233 -0.185766 -0.448500
vn 0.874233 -0.343272 -0.343272
vn 0.874233 -0.343272 0.343272
vn 0.874233 -0.448500 -0.185766
vn 0.874233 -0.448500 0.185766
vn 0.874233 -0.485458 0.000000
vn -0.323313 -0.362102 0.874233
vn -0.323313 0.000000 0.946287
vn -0.445936 0.000000 0.895047
vn -0.445936 -0.342509 0.826899
vn -0.323313 0.362102 0.874233
vn -0.323313 0.874233 -0.362102
vn -0.323313 0.946287 0.000000
vn -0.323313 -0.669118 0.669118
vn -0.323313 -0.874233 0.362102
vn -0.323313 -0.946287 0.000000
vn -0.323313 -0.874233 -0.362102
vn -0.323313 -0.669118 -0.669118
vn -0.323313 -0.362102 -0.874233
vn -0.323313 0.000000 -0.946287
vn -0.323313 0.362102 -0.874233
vn -0.323313 0.669118 -0.669118
vn -0.445936 -0.632893 0.632893
vn -0.826807 -0.215217 0.519639
vn -0.826807 -0.397717 0.397717
vn -0.445936 -0.632893 -0.632893
vn -0.445936 -0.342509 -0.826899
vn -0.445936 0.342509 0.826899
vn -0.445936 -0.826899 -0.342509
vn -0.445936 0.826899 -0.342509
vn -0.445936 0.895047 0.000000
vn -0.445936 0.632893 0.632893
vn -0.445936 -0.895047 0.000000
vn -0.445936 0.632893 -0.632893
vn -0.445936 0.826899 0.342509
vn -0.445936 -0.826899 0.342509
vn -0.445936 0.342509 -0.826899
vn -0.445936 0.000000 -0.895047
vn -0.826807 0.562456 0.000000
vn -0.826807 0.519639 -0.215217
vn -0.826807 0.519639 0.215217
vn -0.826807 0.397687 0.397717
vn -0.826807 0.397687 -0.397717
vn -0.826807 0.215217 0.519639
vn -0.826807 0.215217 -0.519639
vn -0.826807 0.000000 0.562456
vn -0.826807 0.000000 -0.562456
vn -0.826807 -0.215217 -0.519639
vn -0.826807 -0.397717 -0.397717
vn -0.826807 -0.519639 -0.215217
vn -0.826807 -0.519639 0.215217
vn -0.826807 -0.562456 0.000000
usemtl 
s 1
f 1//1 2//2 4//3 3//4
f 3//4 4//3 6//5 5//6
f 5//6 6//5 8//7 7//8
f 7//8 8//7 10//9 9//10
f 9//10 10//9 12//11 11//12
f 11//12 12//11 14//13 13//14
f 13//14 14//13 16//15 15//16
f 15//16 16//15 18//17 17//18
f 17//18 18//17 20//19 19//20
f 19//20 20//19 22//21 21//22
f 21//22 22//21 24//23 23//24
f 23//24 24//23 26//25 25//26
f 25//26 26//25 28//27 27//28
f 27//28 28//27 30//29 29//30
f 32//31 30//29 47//32 48//33
f 2//2 1//1 31//34 32//31
f 29//30 30//29 32//31 31//34
f 29//30 31//34 80//35 79//36
f 47//32 46//37 62//38 63//39
f 28//27 26//25 45//40 46//37
f 4//3 2//2 33//41 34//42
f 24//23 22//21 43//43 44//44
f 20//19 18//17 41//45 42//46
f 16//15 14//13 39//47 40//48
f 12//11 10//9 37//49 38//50
f 8//7 6//5 35//51 36//52
f 2//2 32//31 48//33 33//41
f 30//29 28//27 46//37 47//32
f 26//25 24//23 44//44 45//40
f 22//21 20//19 42//46 43//43
f 18//17 16//15 40//48 41//45
f 14//13 12//11 38//50 39//47
f 10//9 8//7 36//52 37//49
f 6//5 4//3 34//42 35//51
f 50//53 49//54 64//55
f 50//53 64//55 63//39
f 50//53 63//39 51//56
f 63//39 62//38 51//56
f 62//38 52//57 51//56
f 62//38 61//58 52//57
f 61//58 53//59 52//57
f 61//58 60//60 53//59
f 60//60 54//61 53//59
f 60//60 55//62 54//61
f 60//60 59//63 55//62
f 59//63 56//64 55//62
f 59//63 58//65 56//64
f 58//65 57//66 56//64
f 41//45 40//48 56//64 57//66
f 35//51 34//42 50//53 51//56
f 48//33 47//32 63//39 64//55
f 42//46 41//45 57//66 58//65
f 36//52 35//51 51//56 52//57
f 33//41 48//33 64//55 49//54
f 43//43 42//46 58//65 59//63
f 37//49 36//52 52//57 53//59
f 44//44 43//43 59//63 60//60
f 38//50 37//49 53//59 54//61
f 45//40 44//44 60//60 61//58
f 39//47 38//50 54//61 55//62
f 46//37 45//40 61//58 62//38
f 40//48 39//47 55//62 56//64
f 34//42 33//41 49//54 50//53
f 76//67 77//68 93//69 92//70
f 25//26 27//28 78//71 77//68
f 1//1 3//4 66//72 65//73
f 21//22 23//24 76//67 75//74
f 17//18 19//20 74//75 73//76
f 13//14 15//16 72//77 71//78
f 9//10 11//12 70//79 69//80
f 5//6 7//8 68//81 67//82
f 31//34 1//1 65//73 80//35
f 27//28 29//30 79//36 78//71
f 23//24 25//26 77//68 76//67
f 19//20 21//22 75//74 74//75
f 15//16 17//18 73//76 72//77
f 11//12 13//14 71//78 70//79
f 7//8 9//10 69//80 68//81
f 3//4 5//6 67//82 66//72
f 91//83 92//70 108//84 107//85
f 70//79 71//78 87//86 86//87
f 77//68 78//71 94//88 93//69
f 71//78 72//77 88//89 87//86
f 65//73 66//72 82//90 81//91
f 78//71 79//36 95//92 94//88
f 72//77 73//76 89//93 88//89
f 66//72 67//82 83//94 82//90
f 79//36 80//35 96//95 95//92
f 73//76 74//75 90//96 89//93
f 67//82 68//81 84//97 83//94
f 80//35 65//73 81//91 96//95
f 74//75 75//74 91//83 90//96
f 68//81 69//80 85//98 84//97
f 75//74 76//67 92//70 91//83
f 69//80 70//79 86//87 85//98
f 97//99 98//100 112//101
f 98//100 111//102 112//101
f 98//100 99//103 111//102
f 99//103 110//104 111//102
f 99//103 100//105 110//104
f 100//105 109//106 110//104
f 100//105 101//107 109//106
f 101//107 108//84 109//106
f 101//107 102//108 108//84
f 102//108 107//85 108//84
f 102//108 103//109 107//85
f 103//109 104//110 107//85
f 104//110 106//111 107//85
f 104//110 105//112 106//111
f 85//98 86//87 102//108 101//107
f 92//70 93//69 109//106 108//84
f 86//87 87//86 103//109 102//108
f 93//69 94//88 110//104 109//106
f 87//86 88//89 104//110 103//109
f 81//91 82//90 98//100 97//99
f 94//88 95//92 111//102 110//104
f 88//89 89//93 105//112 104//110
f 82//90 83//94 99//103 98//100
f 95//92 96//95 112//101 111//102
f 89//93 90//96 106//111 105//112
f 83//94 84//97 100//105 99//103
f 96//95 81//91 97//99 112//101
f 90//96 91//83 107//85 106//111
f 84//97 85//98 101//107 100//105
o Cube.022_Cube.010
v 5.830779 4.922005 1.003056
v 5.830779 4.934831 1.015882
v 6.084874 4.934831 1.015882
v 6.084874 4.922005 1.003056
v 5.830779 4.844415 1.080647
v 5.830779 4.857240 1.093472
v 6.084874 4.857240 1.093472
v 6.084874 4.844415 1.080647
v 5.830779 4.844414 0.812848
v 5.830779 4.857240 0.800023
v 6.084874 4.857240 0.800023
v 6.084874 4.844414 0.812848
v 5.830779 4.922005 0.890439
v 5.830779 4.934830 0.877614
v 6.084874 4.934830 0.877614
v 6.084874 4.922005 0.890439
v 6.193158 4.978672 0.959970
v 6.193158 4.976219 0.957517
v 6.193158 4.963832 0.974809
v 6.193158 4.961380 0.972356
v 6.193158 4.963832 0.918686
v 6.193158 4.961380 0.921139
v 6.193158 4.978672 0.933526
v 6.193158 4.976219 0.935978
v 5.830779 5.111157 1.003056
v 5.830779 5.098332 1.015882
v 6.084874 5.098332 1.015882
v 6.084874 5.111157 1.003056
v 5.830779 5.188748 1.080647
v 5.830779 5.175923 1.093472
v 6.084874 5.175923 1.093472
v 6.084874 5.188748 1.080647
v 5.830779 5.188748 0.812848
v 5.830779 5.175923 0.800023
v 6.084874 5.175923 0.800023
v 6.084874 5.188748 0.812848
v 5.830779 5.111158 0.890439
v 5.830779 5.098332 0.877614
v 6.084874 5.098332 0.877614
v 6.084874 5.111158 0.890439
v 6.193158 5.054491 0.959970
v 6.193158 5.056944 0.957517
v 6.193158 5.069330 0.974809
v 6.193158 5.071783 0.972356
v 6.193158 5.069330 0.918686
v 6.193158 5.071783 0.921139
v 6.193158 5.054491 0.933525
v 6.193158 5.056944 0.935978
vn -0.577349 0.816492 0.000000
vn -0.577349 0.000000 -0.816492
vn -0.577349 -0.816492 0.000000
vn -0.577349 0.000000 0.816492
vn 0.373150 -0.052705 0.926237
vn -0.138462 0.981536 0.131870
vn 0.371899 -0.926664 -0.054018
vn 0.373150 -0.052705 -0.926237
vn 0.755577 0.279855 -0.592212
vn 0.748314 -0.598865 0.285226
vn -0.149968 -0.129582 -0.980132
vn 0.371899 -0.926664 0.054018
vn -0.138462 0.981536 -0.131901
vn 0.404736 0.139805 -0.903653
vn 0.748314 -0.598865 -0.285195
vn -0.149968 -0.129551 0.980132
vn 0.755577 0.279855 0.592212
vn 0.407666 0.901547 -0.144841
vn 0.407636 0.901547 0.144810
vn 0.404736 0.139805 0.903653
vn -0.138462 -0.981536 0.131870
vn 0.373150 0.052705 0.926237
vn 0.371899 0.926664 -0.054018
vn 0.748314 0.598865 0.285226
vn 0.755577 -0.279855 -0.592242
vn 0.373150 0.052705 -0.926237
vn 0.371899 0.926664 0.053987
vn -0.149968 0.129582 -0.980132
vn -0.138462 -0.981536 -0.131870
vn 0.748314 0.598865 -0.285226
vn 0.404736 -0.139805 -0.903653
vn -0.149968 0.129582 0.980132
vn 0.755577 -0.279855 0.592212
vn 0.407636 -0.901547 -0.144841
vn 0.407666 -0.901547 0.144841
vn 0.404706 -0.139805 0.903653
usemtl 
s 1
f 114//113 113//114 117//115 118//116
f 118//116 119//117 115//118 114//113
f 124//119 123//120 133//121 134//122
f 113//114 116//123 120//124 117//115
f 113//114 114//113 115//118 116//123
f 120//124 119//117 118//116 117//115
f 125//116 126//113 122//114 121//115
f 126//113 127//125 123//120 122//114
f 120//124 116//123 130//126 132//127
f 128//128 125//116 121//115 124//119
f 121//115 122//114 123//120 124//119
f 128//128 127//125 126//113 125//116
f 131//129 132//127 130//126 129//130
f 135//131 136//132 134//122 133//121
f 119//117 120//124 132//127 131//129
f 135//131 133//121 123//120 127//125
f 128//128 124//119 134//122 136//132
f 116//123 115//118 129//130 130//126
f 127//125 128//128 136//132 135//131
f 131//129 129//130 115//118 119//117
f 141//113 137//114 138//115 142//116
f 142//116 138//115 139//133 143//134
f 148//135 158//136 157//137 147//138
f 144//139 140//140 137//114 141//113
f 137//114 140//140 139//133 138//115
f 144//139 141//113 142//116 143//134
f 149//116 145//113 146//114 150//115
f 150//115 146//114 147//138 151//141
f 144//139 156//142 154//143 140//140
f 152//144 148//135 145//113 149//116
f 145//113 148//135 147//138 146//114
f 152//144 149//116 150//115 151//141
f 155//145 153//146 154//143 156//142
f 159//147 157//137 158//136 160//148
f 143//134 155//145 156//142 144//139
f 159//147 151//141 147//138 157//137
f 152//144 160//148 158//136 148//135
f 140//140 154//143 153//146 139//133
f 151//141 159//147 160//148 152//144
f 155//145 143//134 139//133 153//146
