# Blender v2.64 (sub 0) OBJ File: 'AngledDeck_20-4.blend'
# www.blender.org
vt 0 0 0 0
vt 1 1 1 1
mtllib AngledDeck-20x4x1.mtl
o Deck_Cube.051
v 1.626869 -9.855718 5.000000
v -2.295177 9.755954 5.000000
v 97.841812 29.783722 5.000000
v 101.763855 10.172052 5.000000
v 1.626869 -9.855718 6.000000
v -2.295177 9.755954 6.000000
v 97.841812 29.783722 6.000000
v 101.763855 10.172052 6.000000
v -0.334148 -0.049880 6.000000
v -0.334148 -0.049880 5.000000
v 99.802826 19.977886 6.000000
v 99.802826 19.977886 5.000000
vn -0.980583 -0.196103 0.000000
vn -0.196120 0.980580 0.000000
vn 0.980583 0.196103 0.000000
vn 0.196120 -0.980580 0.000000
vn 0.000000 0.000000 -1.000000
vn 0.000000 0.000000 1.000000
vn -0.980584 -0.196102 0.000000
vn 0.980584 0.196101 0.000000
usemtl 
s off
f 9//1 6//1 2//1 10//1
f 6//2 7//2 3//2 2//2
f 11//3 8//3 4//3 12//3
f 1//4 4//4 8//4 5//4
f 10//5 2//5 3//5 12//5
f 11//6 7//6 6//6 9//6
f 10//7 1//7 5//7 9//7
f 7//8 11//8 12//8 3//8
f 1//5 10//5 12//5 4//5
f 8//6 11//6 9//6 5//6
o Cube_Cube.045
v 0.000000 0.000000 0.000000
v 0.000000 20.000000 0.000000
v 100.000000 20.000000 0.000000
v 100.000000 0.000000 0.000000
v 0.000000 0.000000 5.000000
v 0.000000 20.000000 5.000000
v 100.000000 20.000000 5.000000
v 100.000000 0.000000 5.000000
vn -1.000000 0.000000 -0.000000
vn 0.000000 1.000000 -0.000000
vn 1.000000 0.000000 -0.000000
vn 0.000000 -1.000000 -0.000000
usemtl 
s off
f 14//9 13//9 17//9 18//9
f 18//10 19//10 15//10 14//10
f 19//11 20//11 16//11 15//11
f 13//12 16//12 20//12 17//12
f 13//5 14//5 15//5 16//5
f 20//6 19//6 18//6 17//6
o WhiteLine_Cube
v -0.389458 -0.053229 5.400000
v -0.542107 0.732072 5.400000
v 99.711014 20.219315 5.400000
v 99.863663 19.434013 5.400000
v -0.389458 -0.053229 6.200000
v -0.542107 0.732072 6.200000
v 99.711014 20.219315 6.200000
v 99.863663 19.434013 6.200000
vn -0.981627 -0.190811 0.000000
vn -0.190809 0.981627 0.000000
vn 0.981627 0.190811 0.000000
vn 0.190809 -0.981627 0.000000
usemtl 
s off
f 22/2/13 21/2/13 25/2/13 26/2/13
f 26/2/14 27/2/14 23/2/14 22/2/14
f 27/2/15 28/2/15 24/2/15 23/2/15
f 21/2/16 24/2/16 28/2/16 25/2/16
f 21/2/5 22/2/5 23/2/5 24/2/5
f 28/2/6 27/2/6 26/2/6 25/2/6
