# Blender v2.64 (sub 0) OBJ File: 'AngledDeck_edge.blend'
# www.blender.org
vt 0 0 0 0
vt 1 1 1 1
mtllib AngledDeckEdge-2x4x1.mtl
o Deck_Cube.001
v -2.050526 17.541773 5.000000
v 4.784249 8.849258 5.000000
v 4.784249 8.849258 6.000000
v -2.050526 17.541773 6.000000
v 7.992331 19.854321 5.000000
v 7.992331 19.854321 6.000000
v 11.919967 0.218431 6.000000
v 11.919967 0.218431 5.000000
vn -0.786101 -0.618098 0.000000
vn -0.224396 0.974498 0.000000
vn 0.980576 0.196138 0.000000
vn -0.000000 0.000000 -1.000000
vn 0.000000 0.000000 1.000000
vn -0.770703 -0.637195 0.000000
usemtl 
s off
f 1//1 2//1 3//1 4//1
f 5//2 1//2 4//2 6//2
f 7//3 8//3 5//3 6//3
f 2//4 1//4 5//4 8//4
f 4//5 3//5 7//5 6//5
f 7//6 3//6 2//6 8//6
o Block_Cube.003
v 8.007511 20.000000 0.000000
v 8.010721 17.911989 0.000000
v 0.000000 17.951181 5.000000
v 0.000000 20.000000 5.000000
v 10.000000 20.000000 5.000000
v 10.000000 20.000000 0.000000
v 10.000000 4.897308 5.000000
v 10.000000 5.633609 0.000000
vn -0.529566 -0.000411 -0.848269
vn 0.000000 1.000000 0.000000
vn 1.000000 0.000000 -0.000000
vn -0.721752 -0.341592 -0.601988
usemtl 
s off
f 9//7 10//7 11//7 12//7
f 14//8 9//8 12//8 13//8
f 13//9 15//9 16//9 14//9
f 10//10 16//10 15//10 11//10
f 10//4 9//4 14//4 16//4
f 15//5 13//5 12//5 11//5
o WhiteLine_Cube
v 4.730512 8.906599 5.400000
v 4.182088 9.597633 5.400000
v 9.828392 10.695163 5.400000
v 9.981039 9.909861 5.400000
v 4.730512 8.906599 6.200000
v 4.182088 9.597633 6.200000
v 9.828392 10.695163 6.200000
v 9.981039 9.909861 6.200000
vn -0.783298 -0.621646 0.000000
vn -0.190809 0.981627 0.000000
vn 0.981627 0.190809 0.000000
vn 0.187683 -0.982230 0.000000
usemtl 
s off
f 18/2/11 17/2/11 21/2/11 22/2/11
f 22/2/12 23/2/12 19/2/12 18/2/12
f 23/2/13 24/2/13 20/2/13 19/2/13
f 17/2/14 20/2/14 24/2/14 21/2/14
f 17/2/4 18/2/4 19/2/4 20/2/4
f 24/2/5 23/2/5 22/2/5 21/2/5
