# Blender v2.64 (sub 0) OBJ File: 'AngledDeck_5-4.blend'
# www.blender.org
vt 0 0 0 0
vt 1 1 1 1
mtllib AngledDeck-5x4x1.mtl
o WhiteLine_Cube
v 0.010136 4.967500 5.400000
v -0.142511 5.752802 5.400000
v 24.893476 10.619308 5.400000
v 25.046124 9.834005 5.400000
v 0.010136 4.967500 6.200000
v -0.142511 5.752802 6.200000
v 24.893476 10.619308 6.200000
v 25.046124 9.834005 6.200000
vn -0.981627 -0.190809 0.000000
vn -0.190809 0.981627 0.000000
vn 0.981627 0.190809 0.000000
vn 0.190809 -0.981627 0.000000
vn 0.000000 0.000000 -1.000000
vn 0.000000 0.000000 1.000000
usemtl
s off
f 2/2/1 1/2/1 5/2/1 6/2/1
f 6/2/2 7/2/2 3/2/2 2/2/2
f 7/2/3 8/2/3 4/2/3 3/2/3
f 1/2/4 4/2/4 8/2/4 5/2/4
f 1/2/5 2/2/5 3/2/5 4/2/5
f 8/2/6 7/2/6 6/2/6 5/2/6
o Block_Cube.054
v 0.000000 0.000000 0.000000
v 0.000000 20.000000 0.000000
v 25.000000 20.000000 0.000000
v 25.000000 0.000000 0.000000
v 0.000000 0.000000 5.000000
v 0.000000 20.000000 5.000000
v 25.000000 20.000000 5.000000
v 25.000000 0.000000 5.000000
vn -1.000000 0.000000 -0.000000
vn 0.000000 1.000000 -0.000000
vn 1.000000 0.000000 -0.000000
vn 0.000000 -1.000000 -0.000000
usemtl 
s off
f 10//7 9//7 13//7 14//7
f 14//8 15//8 11//8 10//8
f 15//9 16//9 12//9 11//9
f 9//10 12//10 16//10 13//10
f 9//5 10//5 11//5 12//5
f 16//6 15//6 14//6 13//6
o Deck_Cube.053
v 1.927211 -4.762218 5.000000
v -1.994835 14.849454 5.000000
v 1.927211 -4.762218 6.000000
v -1.994835 14.849454 6.000000
v -0.033803 5.043620 6.000000
v -0.033803 5.043620 5.000000
v 23.005074 19.849722 5.000000
v 26.927120 0.238050 6.000000
v 24.966103 10.043887 6.000000
v 23.005077 19.849722 6.000000
v 26.927122 0.238050 5.000000
v 24.966103 10.043887 5.000000
vn -0.980583 -0.196103 0.000000
vn 0.196127 -0.980578 0.000000
vn -0.980584 -0.196101 0.000000
vn -0.196127 0.980578 0.000000
usemtl 
s off
f 21//11 20//11 18//11 22//11
f 17//12 27//12 24//12 19//12
f 25//6 26//6 20//6 21//6
f 22//13 17//13 19//13 21//13
f 24//6 25//6 21//6 19//6
f 20//14 26//14 23//14 18//14
f 22//5 18//5 23//5 28//5
f 17//5 22//5 28//5 27//5
