# RokuSuper Output Ver2.0 for Wavefront Obj

v 10.78917700 7.48037400 1.35952000
v 11.66463000 7.48037400 1.05053600
v 11.65156600 7.48037400 1.01352300
v 10.77611400 7.48037400 1.32250600
v 11.66463000 7.51962600 1.05053600
v 10.78917700 7.51962600 1.35952000
v 10.77611400 7.51962600 1.32250600
v 11.65156600 7.51962600 1.01352300
v 11.71804100 7.40817700 0.39862300
v 11.76990000 7.40817700 0.42856400
v 11.82175900 7.40817700 0.39862300
v 11.82175900 7.40817700 0.33874100
v 11.76990000 7.40817700 0.30880000
v 11.71804100 7.40817700 0.33874100
v 11.71804100 7.52793900 0.39862300
v 11.76990000 7.52793900 0.42856400
v 11.82175900 7.52793900 0.39862300
v 11.82175900 7.52793900 0.33874100
v 11.76990000 7.52793900 0.30880000
v 11.71804100 7.52793900 0.33874100
v 11.55715200 7.44668400 0.59527900
v 11.77167800 7.44668400 0.68413900
v 11.98620500 7.44668400 0.59527900
v 12.07506500 7.44668400 0.38075200
v 11.98620500 7.44668400 0.16622500
v 11.77167800 7.44668400 0.07736600
v 11.55715200 7.44668400 0.16622500
v 11.46829100 7.44668400 0.38075200
v 11.77167800 7.61254900 0.68413900
v 11.55715200 7.61254900 0.59527900
v 11.98620500 7.61254900 0.59527900
v 12.07506500 7.61254900 0.38075200
v 11.98620500 7.61254900 0.16622500
v 11.55715200 7.61254900 0.16622500
v 11.77167800 7.61254900 0.07736600
v 11.46829100 7.61254900 0.38075200
v 11.76133300 7.42058800 0.35770900
v 11.72494800 7.40323400 0.35770900
v 11.70434000 7.38713000 0.81589500
v 11.78105500 7.42147400 0.81589500
v 11.75316000 7.43033900 0.35770900
v 11.76382400 7.44741200 0.81589500
v 11.72494800 7.42277200 0.35770900
v 11.70434100 7.42365700 0.81589500
v 11.69673500 7.43033900 0.35770900
v 11.64485700 7.44741200 0.81589500
v 11.68856300 7.42058800 0.35770900
v 11.62762600 7.42147400 0.81589500
v 11.78105500 7.42147400 0.87778300
v 11.62762600 7.42147400 0.87778300
v 11.64485700 7.44741200 0.87778300
v 11.70434000 7.38713000 0.87778300
v 11.70434100 7.42365700 0.87778300
v 11.76382400 7.44741200 0.87778300
v 11.70434100 7.56868600 0.81589500
v 11.76382400 7.53434200 0.81589500
v 11.76382400 7.53434200 0.87778300
v 11.70434100 7.56868600 0.87778300
v 11.64485700 7.53434200 0.81589500
v 11.64485700 7.53434200 0.87778300
v 11.74536300 7.52368500 0.87778300
v 11.70434100 7.54736900 0.87778300
v 11.66331800 7.52368500 0.87778300
v 11.66331800 7.47631500 0.87778300
v 11.70434100 7.45263100 0.87778300
v 11.74536300 7.47631500 0.87778300
v 11.74536300 7.52368500 0.95842500
v 11.70434100 7.54736900 0.95842500
v 11.66331800 7.52368500 0.95842500
v 11.66331800 7.47631500 0.95842500
v 11.70434100 7.45263100 0.95842500
v 11.74536300 7.47631500 0.95842500
v 11.77413400 7.54029600 0.95842500
v 11.70434100 7.58059100 0.95842500
v 11.63454700 7.54029600 0.95842500
v 11.63454700 7.45970400 0.95842500
v 11.70434100 7.41940900 0.95842500
v 11.77413400 7.45970400 0.95842500
v 11.77413400 7.54029600 1.15134700
v 11.70434100 7.58059100 1.15134700
v 11.63454700 7.54029600 1.15134700
v 11.63454700 7.45970400 1.15134700
v 11.70434100 7.41940900 1.15134700
v 11.77413400 7.45970400 1.15134700
v 11.78047800 7.54395900 1.15134700
v 11.70434100 7.58791700 1.15134700
v 11.62820200 7.54395900 1.15134700
v 11.62820200 7.45604100 1.15134700
v 11.70434100 7.41208300 1.15134700
v 11.78047800 7.45604100 1.15134700
v 11.70434100 7.58791700 1.32718200
v 11.62820200 7.54395900 1.32718200
v 11.78047800 7.54395900 1.32718200
v 11.78047800 7.45604100 1.32718200
v 11.70434100 7.41208300 1.32718200
v 11.62820200 7.45604100 1.32718200

vn 0.00000000 -1.00000000 0.00000000
vn 0.00000000 -1.00000000 0.00000000
vn 0.00000000 -1.00000000 0.00000000
vn 0.00000000 -1.00000000 0.00000000
vn 0.00000000 1.00000000 0.00000000
vn 0.00000000 1.00000000 0.00000000
vn 0.00000000 1.00000000 0.00000000
vn 0.00000000 1.00000000 0.00000000
vn -0.33282006 0.00000000 -0.94299035
vn -0.33282006 0.00000000 -0.94299035
vn -0.33282006 0.00000000 -0.94299035
vn -0.33282006 0.00000000 -0.94299035
vn 0.33282068 0.00000000 0.94299013
vn 0.33282068 0.00000000 0.94299013
vn 0.33282068 0.00000000 0.94299013
vn 0.33282068 0.00000000 0.94299013
vn 0.00000000 -1.00000000 0.00000000
vn 0.00000000 -1.00000000 0.00000000
vn 0.00000000 -1.00000000 0.00000000
vn 0.00000000 -1.00000000 0.00000000
vn 0.00000000 -1.00000000 0.00000000
vn 0.00000000 -1.00000000 0.00000000
vn 0.00000000 -1.00000000 0.00000000
vn 0.00000000 -1.00000000 0.00000000
vn 0.00000000 -1.00000000 0.00000000
vn 0.00000000 -1.00000000 0.00000000
vn 0.00000000 -1.00000000 0.00000000
vn 0.00000000 -1.00000000 0.00000000
vn -0.75593025 0.00000000 0.65465217
vn -0.50000241 0.00000000 0.86602401
vn -0.50000241 0.00000000 0.86602401
vn -0.94491144 0.00000000 0.32732608
vn 0.50000241 0.00000000 0.86602401
vn 0.94491144 0.00000000 0.32732608
vn 0.75593025 0.00000000 0.65465217
vn 0.50000241 0.00000000 0.86602401
vn 0.94491144 0.00000000 0.32732608
vn 0.75593025 0.00000000 -0.65465217
vn 0.94491144 0.00000000 -0.32732608
vn 0.75593025 0.00000000 0.65465217
vn 0.75593025 0.00000000 -0.65465217
vn 0.50000241 0.00000000 -0.86602401
vn 0.50000241 0.00000000 -0.86602401
vn 0.94491144 0.00000000 -0.32732608
vn -0.50000241 0.00000000 -0.86602401
vn -0.94491144 0.00000000 -0.32732608
vn -0.75593025 0.00000000 -0.65465217
vn -0.50000241 0.00000000 -0.86602401
vn -0.94491144 0.00000000 -0.32732608
vn -0.75593025 0.00000000 0.65465217
vn -0.94491144 0.00000000 0.32732608
vn -0.75593025 0.00000000 -0.65465217
vn 0.00000000 -1.00000000 0.00000000
vn 0.00000000 -1.00000000 0.00000000
vn 0.00000000 -1.00000000 0.00000000
vn 0.00000000 -1.00000000 0.00000000
vn 0.00000000 -1.00000000 0.00000000
vn 0.00000000 -1.00000000 0.00000000
vn 0.00000000 -1.00000000 0.00000000
vn 0.00000000 -1.00000000 0.00000000
vn 0.00000000 -1.00000000 0.00000000
vn 0.00000000 -1.00000000 0.00000000
vn 0.00000000 -1.00000000 0.00000000
vn 0.00000000 -1.00000000 0.00000000
vn 0.00000000 -1.00000000 0.00000000
vn 0.00000000 -1.00000000 0.00000000
vn 0.00000000 -1.00000000 0.00000000
vn 0.00000000 -1.00000000 0.00000000
vn 0.00000000 -1.00000000 0.00000000
vn 0.00000000 -1.00000000 0.00000000
vn 0.00000000 1.00000000 0.00000000
vn 0.00000000 1.00000000 0.00000000
vn 0.00000000 1.00000000 0.00000000
vn 0.00000000 1.00000000 0.00000000
vn 0.00000000 1.00000000 0.00000000
vn 0.00000000 1.00000000 0.00000000
vn 0.00000000 1.00000000 0.00000000
vn 0.00000000 1.00000000 0.00000000
vn 0.00000000 1.00000000 0.00000000
vn 0.00000000 1.00000000 0.00000000
vn 0.00000000 1.00000000 0.00000000
vn 0.00000000 1.00000000 0.00000000
vn 0.00000000 1.00000000 0.00000000
vn 0.00000000 1.00000000 0.00000000
vn 0.00000000 1.00000000 0.00000000
vn 0.00000000 1.00000000 0.00000000
vn 0.00000000 1.00000000 0.00000000
vn 0.00000000 1.00000000 0.00000000
vn -0.60374799 0.00000000 0.79717524
vn 0.13677315 0.00000000 0.99060240
vn -0.13677478 0.00000000 0.99060217
vn -0.79717383 0.00000000 0.60374985
vn 0.13677315 0.00000000 0.99060240
vn 0.79717518 0.00000000 0.60374806
vn 0.60374806 0.00000000 0.79717518
vn -0.13677478 0.00000000 0.99060217
vn 0.79717518 0.00000000 0.60374806
vn 0.99060233 0.00000000 -0.13677365
vn 0.99060233 0.00000000 0.13677365
vn 0.60374806 0.00000000 0.79717518
vn 0.99060233 0.00000000 -0.13677365
vn 0.60374587 0.00000000 -0.79717685
vn 0.79717444 0.00000000 -0.60374904
vn 0.99060233 0.00000000 0.13677365
vn 0.60374587 0.00000000 -0.79717685
vn -0.13677327 0.00000000 -0.99060238
vn 0.13677164 0.00000000 -0.99060260
vn 0.79717444 0.00000000 -0.60374904
vn -0.13677327 0.00000000 -0.99060238
vn -0.79717309 0.00000000 -0.60375083
vn -0.60374580 0.00000000 -0.79717690
vn 0.13677164 0.00000000 -0.99060260
vn -0.79717309 0.00000000 -0.60375083
vn -0.99060212 0.00000000 0.13677516
vn -0.99060212 0.00000000 -0.13677516
vn -0.60374580 0.00000000 -0.79717690
vn -0.99060212 0.00000000 0.13677516
vn -0.60374799 0.00000000 0.79717524
vn -0.79717383 0.00000000 0.60374985
vn -0.99060212 0.00000000 -0.13677516
vn 0.14884125 -0.98841634 -0.02965502
vn 0.43043522 -0.90246544 -0.01678240
vn 0.41590707 -0.90935034 -0.01016174
vn -0.00286088 -0.99983463 -0.01795926
vn 0.80029403 0.59831329 -0.03937852
vn 0.76572717 0.64180988 -0.04173706
vn 0.91617029 0.40055548 -0.01368599
vn 0.83281148 0.55324908 -0.01845225
vn -0.31544892 0.94873650 -0.01977460
vn 0.12857881 0.99169760 -0.00183412
vn -0.09135416 0.99578067 -0.00867652
vn -0.37075145 0.92836912 -0.02596402
vn 0.12857881 0.99169760 -0.00183412
vn 0.25904805 0.96584148 -0.00665869
vn 0.31550538 0.94891484 0.00412034
vn -0.09135416 0.99578067 -0.00867652
vn -0.79617455 0.59524643 -0.10857156
vn -0.76238660 0.63893173 -0.10263004
vn -0.81609915 0.57535101 -0.05434516
vn -0.92302313 0.38269977 -0.03961309
vn -0.41902111 -0.90649960 -0.05176668
vn 0.14884125 -0.98841634 -0.02965502
vn -0.00286088 -0.99983463 -0.01795926
vn -0.40846878 -0.91239441 -0.02626211
vn 0.40860527 -0.91271120 0.00000000
vn -0.00000243 -1.00000000 0.00000000
vn -0.00286088 -0.99983463 -0.01795926
vn 0.41590707 -0.90935034 -0.01016174
vn -0.81609915 0.57535101 -0.05434516
vn -0.83295330 0.55334329 0.00000000
vn -0.95732787 0.28900407 0.00000000
vn -0.92302313 0.38269977 -0.03961309
vn 0.00000000 0.00000000 1.00000000
vn 0.00000000 0.00000000 1.00000000
vn 0.00000000 0.00000000 1.00000000
vn 0.00000000 0.00000000 1.00000000
vn 0.00000000 0.00000000 1.00000000
vn 0.00000000 0.00000000 1.00000000
vn 0.00000000 0.00000000 1.00000000
vn 0.00000000 0.00000000 1.00000000
vn 0.83295330 0.55334329 0.00000000
vn 0.83281148 0.55324908 -0.01845225
vn 0.91617029 0.40055548 -0.01368599
vn 0.95732787 0.28900407 0.00000000
vn 0.75593764 0.65464364 0.00000000
vn 0.50001609 0.86601611 0.00000000
vn 0.50001609 0.86601611 0.00000000
vn 0.94491292 0.32732182 0.00000000
vn -0.50000979 0.86601975 0.00000000
vn -0.94491224 0.32732378 0.00000000
vn -0.75593423 0.65464757 0.00000000
vn -0.50000979 0.86601975 0.00000000
vn -0.94491224 0.32732378 0.00000000
vn -0.92302313 0.38269977 -0.03961309
vn -0.95732787 0.28900407 0.00000000
vn -0.75593423 0.65464757 0.00000000
vn -0.40860971 -0.91270921 0.00000000
vn -0.40846878 -0.91239441 -0.02626211
vn -0.00286088 -0.99983463 -0.01795926
vn -0.00000243 -1.00000000 0.00000000
vn 0.91617029 0.40055548 -0.01368599
vn 0.75593764 0.65464364 0.00000000
vn 0.94491292 0.32732182 0.00000000
vn 0.95732787 0.28900407 0.00000000
vn 0.00000000 0.00000000 1.00000000
vn 0.00000000 0.00000000 1.00000000
vn 0.00000000 0.00000000 1.00000000
vn 0.00000000 0.00000000 1.00000000
vn 0.00000000 0.00000000 1.00000000
vn 0.00000000 0.00000000 1.00000000
vn 0.00000000 0.00000000 1.00000000
vn 0.00000000 0.00000000 1.00000000
vn 0.00000000 0.00000000 1.00000000
vn 0.00000000 0.00000000 1.00000000
vn 0.00000000 0.00000000 1.00000000
vn 0.00000000 0.00000000 1.00000000
vn 0.00000000 0.00000000 1.00000000
vn 0.00000000 0.00000000 1.00000000
vn 0.00000000 0.00000000 1.00000000
vn 0.00000000 0.00000000 1.00000000
vn 0.00000000 0.00000000 1.00000000
vn 0.00000000 0.00000000 1.00000000
vn 0.00000000 0.00000000 1.00000000
vn 0.00000000 0.00000000 1.00000000
vn 0.00000000 0.00000000 1.00000000
vn 0.00000000 0.00000000 1.00000000
vn 0.00000000 0.00000000 1.00000000
vn 0.00000000 0.00000000 1.00000000
vn 0.49999901 0.86602598 0.00000000
vn -0.18897435 0.98198202 0.00000000
vn 0.18898472 0.98198003 0.00000000
vn 0.49999901 0.86602598 0.00000000
vn -0.18897435 0.98198202 0.00000000
vn -0.49998987 0.86603125 0.00000000
vn -0.49998987 0.86603125 0.00000000
vn 0.18898472 0.98198003 0.00000000
vn -1.00000000 0.00000000 0.00000000
vn -1.00000000 0.00000000 0.00000000
vn -1.00000000 0.00000000 0.00000000
vn -1.00000000 0.00000000 0.00000000
vn -0.49998987 -0.86603125 0.00000000
vn 0.18898472 -0.98198003 0.00000000
vn -0.18897435 -0.98198202 0.00000000
vn -0.49998987 -0.86603125 0.00000000
vn 0.18898472 -0.98198003 0.00000000
vn 0.49999901 -0.86602598 0.00000000
vn 0.49999901 -0.86602598 0.00000000
vn -0.18897435 -0.98198202 0.00000000
vn 1.00000000 0.00000000 0.00000000
vn 1.00000000 0.00000000 0.00000000
vn 1.00000000 0.00000000 0.00000000
vn 1.00000000 0.00000000 0.00000000
vn 0.00000000 0.00000000 -1.00000000
vn 0.00000000 0.00000000 -1.00000000
vn 0.00000000 0.00000000 -1.00000000
vn 0.00000000 0.00000000 -1.00000000
vn 0.00000000 0.00000000 -1.00000000
vn 0.00000000 0.00000000 -1.00000000
vn 0.00000000 0.00000000 -1.00000000
vn 0.00000000 0.00000000 -1.00000000
vn 0.00000000 0.00000000 -1.00000000
vn 0.00000000 0.00000000 -1.00000000
vn 0.00000000 0.00000000 -1.00000000
vn 0.00000000 0.00000000 -1.00000000
vn 0.00000000 0.00000000 -1.00000000
vn 0.00000000 0.00000000 -1.00000000
vn 0.00000000 0.00000000 -1.00000000
vn 0.00000000 0.00000000 -1.00000000
vn 0.00000000 0.00000000 -1.00000000
vn 0.00000000 0.00000000 -1.00000000
vn 0.00000000 0.00000000 -1.00000000
vn 0.00000000 0.00000000 -1.00000000
vn 0.00000000 0.00000000 -1.00000000
vn 0.00000000 0.00000000 -1.00000000
vn 0.00000000 0.00000000 -1.00000000
vn 0.00000000 0.00000000 -1.00000000
vn 0.49999993 0.86602544 0.00000000
vn -0.18897785 0.98198135 0.00000000
vn 0.18898394 0.98198018 0.00000000
vn 0.49999993 0.86602544 0.00000000
vn -0.18897785 0.98198135 0.00000000
vn -0.49999456 0.86602855 0.00000000
vn -0.49999456 0.86602855 0.00000000
vn 0.18898394 0.98198018 0.00000000
vn -1.00000000 0.00000000 0.00000000
vn -1.00000000 0.00000000 0.00000000
vn -1.00000000 0.00000000 0.00000000
vn -1.00000000 0.00000000 0.00000000
vn -0.49999456 -0.86602855 0.00000000
vn 0.18898394 -0.98198018 0.00000000
vn -0.18897785 -0.98198135 0.00000000
vn -0.49999456 -0.86602855 0.00000000
vn 0.18898394 -0.98198018 0.00000000
vn 0.49999993 -0.86602544 0.00000000
vn 0.49999993 -0.86602544 0.00000000
vn -0.18897785 -0.98198135 0.00000000
vn 1.00000000 0.00000000 0.00000000
vn 1.00000000 0.00000000 0.00000000
vn 1.00000000 0.00000000 0.00000000
vn 1.00000000 0.00000000 0.00000000
vn 0.00000000 0.00000000 -1.00000000
vn 0.00000000 0.00000000 -1.00000000
vn 0.00000000 0.00000000 -1.00000000
vn 0.00000000 0.00000000 -1.00000000
vn 0.00000000 0.00000000 -1.00000000
vn 0.00000000 0.00000000 -1.00000000
vn 0.00000000 0.00000000 -1.00000000
vn 0.00000000 0.00000000 -1.00000000
vn 0.00000000 0.00000000 -1.00000000
vn 0.00000000 0.00000000 -1.00000000
vn 0.00000000 0.00000000 -1.00000000
vn 0.00000000 0.00000000 -1.00000000
vn 0.00000000 0.00000000 -1.00000000
vn 0.00000000 0.00000000 -1.00000000
vn 0.00000000 0.00000000 -1.00000000
vn 0.00000000 0.00000000 -1.00000000
vn 0.00000000 0.00000000 -1.00000000
vn 0.00000000 0.00000000 -1.00000000
vn 0.00000000 0.00000000 -1.00000000
vn 0.00000000 0.00000000 -1.00000000
vn 0.00000000 0.00000000 -1.00000000
vn 0.00000000 0.00000000 -1.00000000
vn 0.00000000 0.00000000 -1.00000000
vn 0.00000000 0.00000000 -1.00000000
vn -0.49999256 0.86602970 0.00000000
vn 0.18898660 0.98197967 0.00000000
vn -0.18897543 0.98198182 0.00000000
vn -0.49999256 0.86602970 0.00000000
vn 0.18898660 0.98197967 0.00000000
vn 0.94491144 0.32732608 0.00000000
vn 0.75593025 0.65465217 0.00000000
vn -0.18897543 0.98198182 0.00000000
vn 0.94491144 0.32732608 0.00000000
vn 0.75593025 -0.65465217 0.00000000
vn 0.94491144 -0.32732608 0.00000000
vn 0.75593025 0.65465217 0.00000000
vn 0.75593025 -0.65465217 0.00000000
vn -0.18897543 -0.98198182 0.00000000
vn 0.18898660 -0.98197967 0.00000000
vn 0.94491144 -0.32732608 0.00000000
vn -0.18897543 -0.98198182 0.00000000
vn -0.49999256 -0.86602970 0.00000000
vn -0.49999256 -0.86602970 0.00000000
vn 0.18898660 -0.98197967 0.00000000
vn -1.00000000 0.00000000 0.00000000
vn -1.00000000 0.00000000 0.00000000
vn -1.00000000 0.00000000 0.00000000
vn -1.00000000 0.00000000 0.00000000

g ²ã
f 2//1 1//2 4//3 3//4
f 6//5 5//6 8//7 7//8
f 8//9 3//10 4//11 7//12
f 6//13 1//14 2//15 5//16
f 11//17 10//18 9//19
f 12//20 11//21 9//22
f 13//23 12//24 9//25
f 14//26 13//27 9//28
f 9//29 10//30 16//31 15//32
f 10//33 11//34 17//35 16//36
f 11//37 12//38 18//39 17//40
f 12//41 13//42 19//43 18//44
f 13//45 14//46 20//47 19//48
f 14//49 9//50 15//51 20//52
f 22//53 21//54 25//55
f 23//56 22//57 25//58
f 24//59 23//60 25//61
f 27//62 26//63 25//64
f 28//65 27//66 25//67
f 21//68 28//69 25//70
f 30//71 29//72 33//73
f 29//74 31//75 33//76
f 31//77 32//78 33//79
f 35//80 34//81 33//82
f 34//83 36//84 33//85
f 36//86 30//87 33//88
f 21//89 22//90 29//91 30//92
f 22//93 23//94 31//95 29//96
f 23//97 24//98 32//99 31//100
f 24//101 25//102 33//103 32//104
f 25//105 26//106 35//107 33//108
f 26//109 27//110 34//111 35//112
f 27//113 28//114 36//115 34//116
f 28//117 21//118 30//119 36//120
f 38//121 37//122 40//123 39//124
f 37//125 41//126 42//127 40//128
f 41//129 43//130 44//131 42//132
f 43//133 45//134 46//135 44//136
f 45//137 47//138 48//139 46//140
f 47//141 38//142 39//143 48//144
f 49//145 52//146 39//147 40//148
f 48//149 50//150 51//151 46//152
f 50//153 52//154 53//155 51//156
f 52//157 49//158 54//159 53//160
f 49//161 40//162 42//163 54//164
f 56//165 55//166 58//167 57//168
f 55//169 59//170 60//171 58//172
f 59//173 46//174 51//175 60//176
f 50//177 48//178 39//179 52//180
f 42//181 56//182 57//183 54//184
f 57//185 58//186 62//187 61//188
f 58//189 60//190 63//191 62//192
f 60//193 51//194 64//195 63//196
f 51//197 53//198 65//199 64//200
f 53//201 54//202 66//203 65//204
f 54//205 57//206 61//207 66//208
f 61//209 62//210 68//211 67//212
f 62//213 63//214 69//215 68//216
f 63//217 64//218 70//219 69//220
f 64//221 65//222 71//223 70//224
f 65//225 66//226 72//227 71//228
f 66//229 61//230 67//231 72//232
f 67//233 68//234 74//235 73//236
f 68//237 69//238 75//239 74//240
f 69//241 70//242 76//243 75//244
f 70//245 71//246 77//247 76//248
f 71//249 72//250 78//251 77//252
f 72//253 67//254 73//255 78//256
f 73//257 74//258 80//259 79//260
f 74//261 75//262 81//263 80//264
f 75//265 76//266 82//267 81//268
f 76//269 77//270 83//271 82//272
f 77//273 78//274 84//275 83//276
f 78//277 73//278 79//279 84//280
f 79//281 80//282 86//283 85//284
f 80//285 81//286 87//287 86//288
f 81//289 82//290 88//291 87//292
f 82//293 83//294 89//295 88//296
f 83//297 84//298 90//299 89//300
f 84//301 79//302 85//303 90//304
f 92//305 91//306 86//307 87//308
f 91//309 93//310 85//311 86//312
f 93//313 94//314 90//315 85//316
f 94//317 95//318 89//319 90//320
f 95//321 96//322 88//323 89//324
f 96//325 92//326 87//327 88//328

