# RokuSuper Output Ver2.0 for Wavefront Obj

v 7.82587100 9.56000100 0.84034800
v 8.14725000 9.56000100 0.97346800
v 8.46863000 9.56000100 0.84034800
v 8.60174900 9.56000100 0.51896900
v 8.46863000 9.56000100 0.19758900
v 8.14725000 9.56000100 0.06447000
v 7.82587100 9.56000100 0.19758900
v 7.69275100 9.56000100 0.51896900
v 8.14725000 9.82148000 0.97346800
v 7.82587100 9.82148000 0.84034800
v 8.46863000 9.82148000 0.84034800
v 8.60174900 9.82148000 0.51896900
v 8.46863000 9.82148000 0.19758900
v 7.82587100 9.82148000 0.19758900
v 8.14725000 9.82148000 0.06447000
v 7.69275100 9.82148000 0.51896900
v 8.07154800 9.40483200 0.56095400
v 8.14322900 9.40483200 0.60234000
v 8.21491100 9.40483200 0.56095400
v 8.21491100 9.40483200 0.47818300
v 8.14322900 9.40483200 0.43679700
v 8.07154800 9.40483200 0.47818300
v 8.07154800 9.57037400 0.56095400
v 8.14322900 9.57037400 0.60234000
v 8.21491100 9.57037400 0.56095400
v 8.21491100 9.57037400 0.47818300
v 8.14322900 9.57037400 0.43679700
v 8.07154800 9.57037400 0.47818300
v 8.17266500 9.53933500 0.52466900
v 8.22211000 9.51078900 0.52466900
v 8.22212900 9.51078900 1.26417500
v 8.17268600 9.53933500 1.26417500
v 8.12322000 9.51078900 0.52466900
v 8.12324100 9.51078900 1.26417500
v 8.12322000 9.45369500 0.52466900
v 8.12324100 9.45369500 1.26417500
v 8.17266500 9.42514900 0.52466900
v 8.17268600 9.42514900 1.26417500
v 8.22211000 9.45369500 0.52466900
v 8.22212900 9.45369500 1.26417500
v 8.23727100 9.51953000 1.26417500
v 8.17268600 9.55681900 1.26417500
v 8.10809900 9.51953000 1.26417500
v 8.10809900 9.44495400 1.26417500
v 8.17268600 9.40766500 1.26417500
v 8.23727100 9.44495300 1.26417500
v 8.17269000 9.55681900 1.53011200
v 8.10810400 9.51953000 1.53011200
v 8.23727600 9.51953000 1.53011200
v 8.23727600 9.44495300 1.53011200
v 8.17269000 9.40766500 1.53011200
v 8.10810400 9.44495400 1.53011200

vn 0.00000000 -1.00000000 0.00000000
vn 0.00000000 -1.00000000 0.00000000
vn 0.00000000 -1.00000000 0.00000000
vn 0.00000000 -1.00000000 0.00000000
vn 0.00000000 -1.00000000 0.00000000
vn 0.00000000 -1.00000000 0.00000000
vn 0.00000000 -1.00000000 0.00000000
vn 0.00000000 -1.00000000 0.00000000
vn 0.00000000 -1.00000000 0.00000000
vn 0.00000000 -1.00000000 0.00000000
vn 0.00000000 -1.00000000 0.00000000
vn 0.00000000 -1.00000000 0.00000000
vn 0.00000000 -1.00000000 0.00000000
vn 0.00000000 -1.00000000 0.00000000
vn 0.00000000 -1.00000000 0.00000000
vn 0.00000000 -1.00000000 0.00000000
vn 0.00000000 -1.00000000 0.00000000
vn 0.00000000 -1.00000000 0.00000000
vn 0.00000000 1.00000000 0.00000000
vn 0.00000000 1.00000000 0.00000000
vn 0.00000000 1.00000000 0.00000000
vn 0.00000000 1.00000000 0.00000000
vn 0.00000000 1.00000000 0.00000000
vn 0.00000000 1.00000000 0.00000000
vn 0.00000000 1.00000000 0.00000000
vn 0.00000000 1.00000000 0.00000000
vn 0.00000000 1.00000000 0.00000000
vn 0.00000000 1.00000000 0.00000000
vn 0.00000000 1.00000000 0.00000000
vn 0.00000000 1.00000000 0.00000000
vn 0.00000000 1.00000000 0.00000000
vn 0.00000000 1.00000000 0.00000000
vn 0.00000000 1.00000000 0.00000000
vn 0.00000000 1.00000000 0.00000000
vn 0.00000000 1.00000000 0.00000000
vn 0.00000000 1.00000000 0.00000000
vn -0.60374843 0.00000000 0.79717491
vn 0.13677335 0.00000000 0.99060237
vn -0.13677444 0.00000000 0.99060222
vn -0.79717491 0.00000000 0.60374843
vn 0.13677335 0.00000000 0.99060237
vn 0.79717581 0.00000000 0.60374723
vn 0.60374847 0.00000000 0.79717487
vn -0.13677444 0.00000000 0.99060222
vn 0.79717581 0.00000000 0.60374723
vn 0.99060251 0.00000000 -0.13677234
vn 0.99060236 0.00000000 0.13677343
vn 0.60374847 0.00000000 0.79717487
vn 0.99060251 0.00000000 -0.13677234
vn 0.60374728 0.00000000 -0.79717578
vn 0.79717578 0.00000000 -0.60374728
vn 0.99060236 0.00000000 0.13677343
vn 0.60374728 0.00000000 -0.79717578
vn -0.13677343 0.00000000 -0.99060236
vn 0.13677234 0.00000000 -0.99060251
vn 0.79717578 0.00000000 -0.60374728
vn -0.13677343 0.00000000 -0.99060236
vn -0.79717487 0.00000000 -0.60374847
vn -0.60374723 0.00000000 -0.79717581
vn 0.13677234 0.00000000 -0.99060251
vn -0.79717487 0.00000000 -0.60374847
vn -0.99060222 0.00000000 0.13677444
vn -0.99060237 0.00000000 -0.13677335
vn -0.60374723 0.00000000 -0.79717581
vn -0.99060222 0.00000000 0.13677444
vn -0.60374843 0.00000000 0.79717491
vn -0.79717491 0.00000000 0.60374843
vn -0.99060237 0.00000000 -0.13677335
vn 0.00000000 -1.00000000 0.00000000
vn 0.00000000 -1.00000000 0.00000000
vn 0.00000000 -1.00000000 0.00000000
vn 0.00000000 -1.00000000 0.00000000
vn 0.00000000 -1.00000000 0.00000000
vn 0.00000000 -1.00000000 0.00000000
vn 0.00000000 -1.00000000 0.00000000
vn 0.00000000 -1.00000000 0.00000000
vn 0.00000000 -1.00000000 0.00000000
vn 0.00000000 -1.00000000 0.00000000
vn 0.00000000 -1.00000000 0.00000000
vn 0.00000000 -1.00000000 0.00000000
vn -0.75593362 0.00000000 0.65464827
vn -0.50000866 0.00000000 0.86602041
vn -0.50000866 0.00000000 0.86602041
vn -0.94491212 0.00000000 0.32732414
vn 0.50000343 0.00000000 0.86602343
vn 0.94491155 0.00000000 0.32732577
vn 0.75593080 0.00000000 0.65465154
vn 0.50000343 0.00000000 0.86602343
vn 0.94491155 0.00000000 0.32732577
vn 0.75593080 0.00000000 -0.65465154
vn 0.94491155 0.00000000 -0.32732577
vn 0.75593080 0.00000000 0.65465154
vn 0.75593080 0.00000000 -0.65465154
vn 0.50000343 0.00000000 -0.86602343
vn 0.50000343 0.00000000 -0.86602343
vn 0.94491155 0.00000000 -0.32732577
vn -0.50000866 0.00000000 -0.86602041
vn -0.94491212 0.00000000 -0.32732414
vn -0.75593362 0.00000000 -0.65464827
vn -0.50000866 0.00000000 -0.86602041
vn -0.94491212 0.00000000 -0.32732414
vn -0.75593362 0.00000000 0.65464827
vn -0.94491212 0.00000000 0.32732414
vn -0.75593362 0.00000000 -0.65464827
vn 0.75592535 0.65465782 -0.00001993
vn -0.18897532 0.98198184 0.00000537
vn 0.18898146 0.98198066 -0.00000486
vn 0.94491128 0.32732655 -0.00002428
vn -0.18897532 0.98198184 0.00000537
vn -0.49998576 0.86603363 0.00001420
vn -0.49998576 0.86603363 0.00001420
vn 0.18898146 0.98198066 -0.00000486
vn -1.00000000 0.00000000 0.00002840
vn -1.00000000 0.00000000 0.00002840
vn -1.00000000 0.00000000 0.00002840
vn -1.00000000 0.00000000 0.00002840
vn -0.49998576 -0.86603363 0.00001420
vn 0.18898146 -0.98198066 -0.00000486
vn -0.18897040 -0.98198278 0.00000537
vn -0.49998576 -0.86603363 0.00001420
vn 0.18898146 -0.98198066 -0.00000486
vn 0.49998576 -0.86603363 -0.00001285
vn 0.49999334 -0.86602925 -0.00001352
vn -0.18897040 -0.98198278 0.00000537
vn 1.00000000 0.00000000 -0.00002569
vn 0.75592535 0.65465782 -0.00001993
vn 0.94491128 0.32732655 -0.00002428
vn 1.00000000 0.00000000 -0.00002569
vn 0.00000000 0.00000000 -1.00000000
vn 0.00000000 0.00000000 -1.00000000
vn 0.00000000 0.00000000 -1.00000000
vn 0.00000000 0.00000000 -1.00000000
vn 0.00000000 0.00000000 -1.00000000
vn 0.00000000 0.00000000 -1.00000000
vn 0.00000000 0.00000000 -1.00000000
vn 0.00000000 0.00000000 -1.00000000
vn 0.00000000 0.00000000 -1.00000000
vn 0.00000000 0.00000000 -1.00000000
vn 0.00000000 0.00000000 -1.00000000
vn 0.00000000 0.00000000 -1.00000000
vn 0.00000000 0.00000000 -1.00000000
vn 0.00000000 0.00000000 -1.00000000
vn 0.00000000 0.00000000 -1.00000000
vn 0.00000000 0.00000000 -1.00000000
vn 0.00000000 0.00000000 -1.00000000
vn 0.00000000 0.00000000 -1.00000000
vn 0.00000000 0.00000000 -1.00000000
vn 0.00000000 0.00000000 -1.00000000
vn 0.00000000 0.00000000 -1.00000000
vn 0.00000000 0.00000000 -1.00000000
vn 0.00000000 0.00000000 -1.00000000
vn 0.00000000 0.00000000 -1.00000000
vn -0.49999967 0.86602560 0.00000846
vn -0.50000257 0.86602392 0.00000752
vn -0.49999967 0.86602560 0.00000846
vn -0.49999676 0.86602727 0.00000940
vn 0.50000547 0.86602224 -0.00000846
vn 0.94491146 0.32732603 -0.00001777
vn 0.75593190 0.65465026 -0.00001350
vn 0.50000838 0.86602057 -0.00000752
vn 0.94491146 0.32732603 -0.00001777
vn 1.00000000 0.00000000 -0.00001880
vn 1.00000000 0.00000000 -0.00001880
vn 0.75593190 0.65465026 -0.00001350
vn 0.49999542 -0.86602805 -0.00000846
vn -0.18898439 -0.98198009 0.00000355
vn 0.18897957 -0.98198102 -0.00000355
vn 0.49999832 -0.86602637 -0.00000940
vn -0.18898439 -0.98198009 0.00000355
vn -0.94491146 -0.32732603 0.00001777
vn -0.75592877 -0.65465388 0.00001350
vn 0.18897957 -0.98198102 -0.00000355
vn -0.94491146 -0.32732603 0.00001777
vn -1.00000000 0.00000000 0.00001880
vn -1.00000000 0.00000000 0.00001880
vn -0.75592877 -0.65465388 0.00001350

g ²ã
f 2//1 1//2 5//3
f 3//4 2//5 5//6
f 4//7 3//8 5//9
f 7//10 6//11 5//12
f 8//13 7//14 5//15
f 1//16 8//17 5//18
f 10//19 9//20 13//21
f 9//22 11//23 13//24
f 11//25 12//26 13//27
f 15//28 14//29 13//30
f 14//31 16//32 13//33
f 16//34 10//35 13//36
f 1//37 2//38 9//39 10//40
f 2//41 3//42 11//43 9//44
f 3//45 4//46 12//47 11//48
f 4//49 5//50 13//51 12//52
f 5//53 6//54 15//55 13//56
f 6//57 7//58 14//59 15//60
f 7//61 8//62 16//63 14//64
f 8//65 1//66 10//67 16//68
f 19//69 18//70 17//71
f 20//72 19//73 17//74
f 21//75 20//76 17//77
f 22//78 21//79 17//80
f 17//81 18//82 24//83 23//84
f 18//85 19//86 25//87 24//88
f 19//89 20//90 26//91 25//92
f 20//93 21//94 27//95 26//96
f 21//97 22//98 28//99 27//100
f 22//101 17//102 23//103 28//104
f 30//105 29//106 32//107 31//108
f 29//109 33//110 34//111 32//112
f 33//113 35//114 36//115 34//116
f 35//117 37//118 38//119 36//120
f 37//121 39//122 40//123 38//124
f 39//125 30//126 31//127 40//128
f 31//129 32//130 42//131 41//132
f 32//133 34//134 43//135 42//136
f 34//137 36//138 44//139 43//140
f 36//141 38//142 45//143 44//144
f 38//145 40//146 46//147 45//148
f 40//149 31//150 41//151 46//152
f 48//153 47//154 42//155 43//156
f 47//157 49//158 41//159 42//160
f 49//161 50//162 46//163 41//164
f 50//165 51//166 45//167 46//168
f 51//169 52//170 44//171 45//172
f 52//173 48//174 43//175 44//176

