# Rhino

o object_1
v 7.921 10.28 0.6259
v 7.921 10.63 0.6259
v 8.1 10.28 0.192
v 8.1 10.28 1.06
v 8.1 10.63 0.192
v 8.1 10.63 1.06
v 8.432 10.07 0.5708
v 8.432 10.07 0.6826
v 8.432 10.29 0.5708
v 8.432 10.29 0.6826
v 8.481 10.12 1.632
v 8.481 10.22 1.632
v 8.481 10.12 1.991
v 8.481 10.22 1.991
v 8.502 10.13 0.6336
v 8.502 10.21 0.6336
v 8.502 10.13 1.632
v 8.502 10.21 1.632
v 8.529 10.07 0.5149
v 8.529 10.07 0.7384
v 8.529 10.29 0.5149
v 8.529 10.29 0.7384
v 8.534 10.28 0.0123
v 8.534 10.28 1.239
v 8.534 10.63 0.0123
v 8.534 10.63 1.239
v 8.569 10.09 0.6336
v 8.569 10.25 0.6336
v 8.569 10.07 1.632
v 8.569 10.09 1.632
v 8.569 10.25 1.632
v 8.569 10.27 1.632
v 8.569 10.07 1.991
v 8.569 10.27 1.991
v 8.626 10.07 0.5708
v 8.626 10.07 0.6826
v 8.626 10.29 0.5708
v 8.626 10.29 0.6826
v 8.635 10.13 0.6336
v 8.635 10.21 0.6336
v 8.635 10.13 1.632
v 8.635 10.21 1.632
v 8.656 10.12 1.632
v 8.656 10.22 1.632
v 8.656 10.12 1.991
v 8.656 10.22 1.991
v 8.968 10.28 0.192
v 8.968 10.28 1.06
v 8.968 10.63 0.192
v 8.968 10.63 1.06
v 9.148 10.28 0.6259
v 9.148 10.63 0.6259
vn 0 -1 0
vn 0 -1 0
vn -0.6037 0 0.7972
vn -0.6037 0 0.7972
vn 0 -1 0
vn 0 -1 0
vn 0.1368 0 0.9906
vn 0.1368 0 0.9906
vn 0 -1 0
vn 0 -1 0
vn 0.7972 0 0.6037
vn 0.7972 0 0.6037
vn 0 -1 0
vn 0.9906 0 -0.1368
vn 0.9906 0 -0.1368
vn 0 -1 0
vn 0 -1 0
vn 0 -1 0
vn 0 -1 0
vn 0 -1 0
vn 0 -1 0
vn 0.6037 0 -0.7972
vn 0.6037 0 -0.7972
vn 0 -1 0
vn -0.1368 0 -0.9906
vn -0.1368 0 -0.9906
vn 0 -1 0
vn 0 -1 0
vn -0.7972 0 -0.6037
vn -0.7972 0 -0.6037
vn 0 -1 0
vn 0 -1 0
vn -0.9906 0 0.1368
vn -0.9906 0 0.1368
vn 0 1 0
vn 0 1 0
vn -0.1368 0 0.9906
vn -0.1368 0 0.9906
vn 0 1 0
vn 0 1 0
vn -0.7972 0 0.6037
vn -0.7972 0 0.6037
vn 0 1 0
vn 0 1 0
vn 0.6037 0 0.7972
vn 0.6037 0 0.7972
vn 0 1 0
vn 0.9906 0 0.1368
vn 0.9906 0 0.1368
vn 0 1 0
vn 0 1 0
vn 0 1 0
vn 0 1 0
vn 0 1 0
vn 0 1 0
vn 0.7972 0 -0.6037
vn 0.7972 0 -0.6037
vn 0 1 0
vn 0 1 0
vn -0.6037 0 -0.7972
vn -0.6037 0 -0.7972
vn 0 1 0
vn 0.1368 0 -0.9906
vn 0.1368 0 -0.9906
vn 0 1 0
vn 0 1 0
vn -0.9906 0 -0.1368
vn -0.9906 0 -0.1368
vn 0 -1 0
vn 0 -1 0
vn 0 -1 0
vn 0 -1 0
vn -0.7559 0 0.6546
vn -0.7559 0 0.6546
vn 0 -1 0
vn -0.5 0 0.866
vn 0.5 0 0.866
vn 0 -1 0
vn 0 -1 0
vn 0.9449 0 0.3273
vn 0.9449 0 0.3273
vn 0 -1 0
vn 0 -1 0
vn 0.7559 0 -0.6547
vn 0.7559 0 -0.6547
vn 0 -1 0
vn 0 -1 0
vn 0.5 0 -0.866
vn -0.5 0 -0.866
vn 0 -1 0
vn -0.9449 0 -0.3273
vn -0.9449 0 -0.3273
vn -0.9449 0 0.3273
vn -0.9449 0 0.3273
vn -0.5 0 0.866
vn 0.5 0 0.866
vn 0.7559 0 0.6547
vn 0.7559 0 0.6547
vn 0.9449 0 -0.3273
vn 0.9449 0 -0.3273
vn 0.5 0 -0.866
vn -0.5 0 -0.866
vn -0.7559 0 -0.6546
vn -0.7559 0 -0.6546
vn -0.189 0.982 5.37e-06
vn -0.189 0.982 5.37e-06
vn 0.7559 0.6547 -1.993e-05
vn 0.7559 0.6547 -1.993e-05
vn 0.9449 0.3273 -2.428e-05
vn 0.9449 0.3273 -2.428e-05
vn 0 0 -1
vn 0 0 -1
vn 0.189 0.982 -4.86e-06
vn 0.189 0.982 -4.86e-06
vn 0 0 -1
vn 0 0 -1
vn -0.5 0.866 1.42e-05
vn -1 0 2.84e-05
vn -0.5 0.866 1.42e-05
vn -1 0 2.84e-05
vn 0 0 -1
vn 0 0 -1
vn -1 0 2.84e-05
vn -0.5 -0.866 1.42e-05
vn -1 0 2.84e-05
vn -0.5 -0.866 1.42e-05
vn 0 0 -1
vn 0 0 -1
vn 0.189 -0.982 -4.86e-06
vn 0.189 -0.982 -4.86e-06
vn -0.189 -0.982 5.37e-06
vn -0.189 -0.982 5.37e-06
vn 0 0 -1
vn 0 0 -1
vn 0.5 -0.866 -1.285e-05
vn 1 0 -2.569e-05
vn 0.5 -0.866 -1.352e-05
vn 1 0 -2.569e-05
vn 0 0 -1
vn 0 0 -1
vn 0 0 -1
vn 0 0 -1
vn 0.7559 0.6547 -1.35e-05
vn 0.7559 0.6547 -1.35e-05
vn 0 0 -1
vn 0 0 -1
vn -0.5 0.866 8.46e-06
vn 0.5 0.866 -7.52e-06
vn 0 0 -1
vn 0 0 -1
vn -0.5 0.866 9.4e-06
vn -1 0 1.88e-05
vn 0 0 -1
vn 0 0 -1
vn -0.7559 -0.6547 1.35e-05
vn -0.7559 -0.6547 1.35e-05
vn 0 0 -1
vn 0 0 -1
vn 0.189 -0.982 -3.55e-06
vn 0.189 -0.982 -3.55e-06
vn 0 0 -1
vn 0 0 -1
vn 1 0 -1.88e-05
vn 0.5 -0.866 -9.4e-06
vn -0.5 0.866 7.52e-06
vn 0.5 0.866 -8.46e-06
vn -0.5 0.866 8.46e-06
vn -1 0 1.88e-05
vn 0.9449 0.3273 -1.777e-05
vn 0.9449 0.3273 -1.777e-05
vn 1 0 -1.88e-05
vn 0.5 -0.866 -8.46e-06
vn -0.189 -0.982 3.55e-06
vn -0.189 -0.982 3.55e-06
vn -0.9449 -0.3273 1.777e-05
vn -0.9449 -0.3273 1.777e-05
f 24//5 4//1 47//16
f 48//9 24//6 47//17
f 51//13 48//10 47//18
f 3//27 23//24 47//19
f 1//31 3//28 47//20
f 4//2 1//32 47//21
f 6//39 26//35 49//50
f 26//36 50//43 49//51
f 50//44 52//47 49//52
f 25//62 5//58 49//53
f 5//59 2//65 49//54
f 2//66 6//40 49//55
f 4//3 24//7 26//37 6//41
f 24//8 48//11 50//45 26//38
f 48//12 51//14 52//48 50//46
f 51//15 47//22 49//56 52//49
f 47//23 23//25 25//63 49//57
f 23//26 3//29 5//60 25//64
f 3//30 1//33 2//67 5//61
f 1//34 4//4 6//42 2//68
f 36//78 20//75 8//69
f 35//82 36//79 8//70
f 19//86 35//83 8//71
f 7//90 19//87 8//72
f 8//73 20//76 22//95 10//93
f 20//77 36//80 38//97 22//96
f 36//81 35//84 37//99 38//98
f 35//85 19//88 21//101 37//100
f 19//89 7//91 9//103 21//102
f 7//92 8//74 10//94 9//104
f 40//107 28//105 31//113 42//109
f 28//106 16//117 18//119 31//114
f 16//118 15//123 17//125 18//120
f 15//124 27//129 30//131 17//126
f 27//130 39//135 41//137 30//132
f 39//136 40//108 42//110 41//138
f 42//111 31//115 32//145 44//141
f 31//116 18//121 12//149 32//146
f 18//122 17//127 11//153 12//150
f 17//128 30//133 29//157 11//154
f 30//134 41//139 43//161 29//158
f 41//140 42//112 44//142 43//162
f 14//167 34//165 32//147 12//151
f 34//166 46//169 44//143 32//148
f 46//170 45//171 43//163 44//144
f 45//172 33//173 29//159 43//164
f 33//174 13//175 11//155 29//160
f 13//176 14//168 12//152 11//156
