# RokuSuper Output Ver2.0 for Wavefront Obj

v 7.82587100 5.43999900 0.84034800
v 8.14725000 5.43999900 0.97346800
v 8.46863000 5.43999900 0.84034800
v 8.60174900 5.43999900 0.51896900
v 8.14725000 5.43999900 0.06447000
v 8.46863000 5.43999900 0.19758900
v 7.82587100 5.43999900 0.19758900
v 7.69275100 5.43999900 0.51896900
v 8.14725000 5.17852000 0.97346800
v 7.82587100 5.17852000 0.84034800
v 8.46863000 5.17852000 0.84034800
v 8.60174900 5.17852000 0.51896900
v 7.82587100 5.17852000 0.19758900
v 8.46863000 5.17852000 0.19758900
v 8.14725000 5.17852000 0.06447000
v 7.69275100 5.17852000 0.51896900
v 8.14322900 5.59516900 0.60234000
v 8.07154800 5.59516900 0.56095400
v 8.21491100 5.59516900 0.56095400
v 8.21491100 5.59516900 0.47818300
v 8.14322900 5.59516900 0.43679700
v 8.07154800 5.59516900 0.47818300
v 8.07154800 5.42962600 0.56095400
v 8.14322900 5.42962600 0.60234000
v 8.21491100 5.42962600 0.56095400
v 8.21491100 5.42962600 0.47818300
v 8.14322900 5.42962600 0.43679700
v 8.07154800 5.42962600 0.47818300
v 8.22212900 5.48921200 1.26417500
v 8.22211000 5.48921300 0.52466900
v 8.17266500 5.46066500 0.52466900
v 8.17268600 5.46066500 1.26417500
v 8.12322000 5.48921200 0.52466900
v 8.12324100 5.48921200 1.26417500
v 8.12322000 5.54630500 0.52466900
v 8.12324100 5.54630500 1.26417500
v 8.17266500 5.57485100 0.52466900
v 8.17268600 5.57485100 1.26417500
v 8.22211000 5.54630500 0.52466900
v 8.22212900 5.54630500 1.26417500
v 8.23727100 5.48047000 1.26417500
v 8.17268600 5.44318100 1.26417500
v 8.10809900 5.48047000 1.26417500
v 8.10809900 5.55504600 1.26417500
v 8.17268600 5.59233500 1.26417500
v 8.23727100 5.55504700 1.26417500
v 8.10810400 5.48047000 1.53011300
v 8.17269000 5.44318100 1.53011200
v 8.23727600 5.48047000 1.53011200
v 8.23727600 5.55504700 1.53011200
v 8.17269000 5.59233500 1.53011200
v 8.10810400 5.55504700 1.53011200

vn 0.00000000 1.00000000 0.00000000
vn 0.00000000 1.00000000 0.00000000
vn 0.00000000 1.00000000 0.00000000
vn 0.00000000 1.00000000 0.00000000
vn 0.00000000 1.00000000 0.00000000
vn 0.00000000 1.00000000 0.00000000
vn 0.00000000 1.00000000 0.00000000
vn 0.00000000 1.00000000 0.00000000
vn 0.00000000 1.00000000 0.00000000
vn 0.00000000 1.00000000 0.00000000
vn 0.00000000 1.00000000 0.00000000
vn 0.00000000 1.00000000 0.00000000
vn 0.00000000 1.00000000 0.00000000
vn 0.00000000 1.00000000 0.00000000
vn 0.00000000 1.00000000 0.00000000
vn 0.00000000 1.00000000 0.00000000
vn 0.00000000 1.00000000 0.00000000
vn 0.00000000 1.00000000 0.00000000
vn 0.00000000 -1.00000000 0.00000000
vn 0.00000000 -1.00000000 0.00000000
vn 0.00000000 -1.00000000 0.00000000
vn 0.00000000 -1.00000000 0.00000000
vn 0.00000000 -1.00000000 0.00000000
vn 0.00000000 -1.00000000 0.00000000
vn 0.00000000 -1.00000000 0.00000000
vn 0.00000000 -1.00000000 0.00000000
vn 0.00000000 -1.00000000 0.00000000
vn 0.00000000 -1.00000000 0.00000000
vn 0.00000000 -1.00000000 0.00000000
vn 0.00000000 -1.00000000 0.00000000
vn 0.00000000 -1.00000000 0.00000000
vn 0.00000000 -1.00000000 0.00000000
vn 0.00000000 -1.00000000 0.00000000
vn 0.00000000 -1.00000000 0.00000000
vn 0.00000000 -1.00000000 0.00000000
vn 0.00000000 -1.00000000 0.00000000
vn -0.60374843 0.00000000 0.79717491
vn -0.79717491 0.00000000 0.60374843
vn -0.13677444 0.00000000 0.99060222
vn 0.13677335 0.00000000 0.99060237
vn 0.13677335 0.00000000 0.99060237
vn -0.13677444 0.00000000 0.99060222
vn 0.60374847 0.00000000 0.79717487
vn 0.79717581 0.00000000 0.60374723
vn 0.79717581 0.00000000 0.60374723
vn 0.60374847 0.00000000 0.79717487
vn 0.99060236 0.00000000 0.13677343
vn 0.99060251 0.00000000 -0.13677234
vn 0.99060251 0.00000000 -0.13677234
vn 0.99060236 0.00000000 0.13677343
vn 0.79717578 0.00000000 -0.60374728
vn 0.60374728 0.00000000 -0.79717578
vn 0.60374728 0.00000000 -0.79717578
vn 0.79717578 0.00000000 -0.60374728
vn 0.13677234 0.00000000 -0.99060251
vn -0.13677343 0.00000000 -0.99060236
vn -0.13677343 0.00000000 -0.99060236
vn 0.13677234 0.00000000 -0.99060251
vn -0.60374723 0.00000000 -0.79717581
vn -0.79717487 0.00000000 -0.60374847
vn -0.79717487 0.00000000 -0.60374847
vn -0.60374723 0.00000000 -0.79717581
vn -0.99060237 0.00000000 -0.13677335
vn -0.99060222 0.00000000 0.13677444
vn -0.99060222 0.00000000 0.13677444
vn -0.99060237 0.00000000 -0.13677335
vn -0.79717491 0.00000000 0.60374843
vn -0.60374843 0.00000000 0.79717491
vn 0.00000000 1.00000000 0.00000000
vn 0.00000000 1.00000000 0.00000000
vn 0.00000000 1.00000000 0.00000000
vn 0.00000000 1.00000000 0.00000000
vn 0.00000000 1.00000000 0.00000000
vn 0.00000000 1.00000000 0.00000000
vn 0.00000000 1.00000000 0.00000000
vn 0.00000000 1.00000000 0.00000000
vn 0.00000000 1.00000000 0.00000000
vn 0.00000000 1.00000000 0.00000000
vn 0.00000000 1.00000000 0.00000000
vn 0.00000000 1.00000000 0.00000000
vn -0.75593362 0.00000000 0.65464827
vn -0.94491212 0.00000000 0.32732414
vn -0.50000866 0.00000000 0.86602041
vn -0.50000866 0.00000000 0.86602041
vn 0.50000343 0.00000000 0.86602343
vn 0.50000343 0.00000000 0.86602343
vn 0.75593080 0.00000000 0.65465154
vn 0.94491155 0.00000000 0.32732577
vn 0.94491155 0.00000000 0.32732577
vn 0.75593080 0.00000000 0.65465154
vn 0.94491155 0.00000000 -0.32732577
vn 0.75593080 0.00000000 -0.65465154
vn 0.75593080 0.00000000 -0.65465154
vn 0.94491155 0.00000000 -0.32732577
vn 0.50000343 0.00000000 -0.86602343
vn 0.50000343 0.00000000 -0.86602343
vn -0.50000866 0.00000000 -0.86602041
vn -0.50000866 0.00000000 -0.86602041
vn -0.75593362 0.00000000 -0.65464827
vn -0.94491212 0.00000000 -0.32732414
vn -0.94491212 0.00000000 -0.32732414
vn -0.75593362 0.00000000 -0.65464827
vn -0.94491212 0.00000000 0.32732414
vn -0.75593362 0.00000000 0.65464827
vn 0.75593599 -0.65464554 -0.00002038
vn 0.94491270 -0.32732245 -0.00002472
vn 0.50001305 -0.86601787 -0.00001411
vn 0.50001203 -0.86601846 -0.00001420
vn -0.49999890 -0.86602604 0.00001420
vn -0.49999890 -0.86602604 0.00001420
vn -0.49999890 -0.86602604 0.00001420
vn -0.49999890 -0.86602604 0.00001420
vn -1.00000000 0.00000000 0.00002840
vn -1.00000000 0.00000000 0.00002840
vn -1.00000000 0.00000000 0.00002840
vn -1.00000000 0.00000000 0.00002840
vn -0.49998576 0.86603363 0.00001420
vn -0.49998576 0.86603363 0.00001420
vn -0.18897040 0.98198278 0.00000537
vn 0.18898146 0.98198066 -0.00000486
vn 0.18898146 0.98198066 -0.00000486
vn -0.18897040 0.98198278 0.00000537
vn 0.49999334 0.86602925 -0.00001352
vn 0.49998576 0.86603363 -0.00001285
vn 1.00000000 0.00000000 -0.00002569
vn 1.00000000 0.00000000 -0.00002569
vn 0.94491270 -0.32732245 -0.00002472
vn 0.75593599 -0.65464554 -0.00002038
vn 0.00000000 0.00000000 -1.00000000
vn 0.00000000 0.00000000 -1.00000000
vn 0.00000000 0.00000000 -1.00000000
vn 0.00000000 0.00000000 -1.00000000
vn 0.00000000 0.00000000 -1.00000000
vn 0.00000000 0.00000000 -1.00000000
vn 0.00000000 0.00000000 -1.00000000
vn 0.00000000 0.00000000 -1.00000000
vn 0.00000000 0.00000000 -1.00000000
vn 0.00000000 0.00000000 -1.00000000
vn 0.00000000 0.00000000 -1.00000000
vn 0.00000000 0.00000000 -1.00000000
vn 0.00000000 0.00000000 -1.00000000
vn 0.00000000 0.00000000 -1.00000000
vn 0.00000000 0.00000000 -1.00000000
vn 0.00000000 0.00000000 -1.00000000
vn 0.00000000 0.00000000 -1.00000000
vn 0.00000000 0.00000000 -1.00000000
vn 0.00000000 0.00000000 -1.00000000
vn 0.00000000 0.00000000 -1.00000000
vn 0.00000000 0.00000000 -1.00000000
vn 0.00000000 0.00000000 -1.00000000
vn 0.00000000 0.00000000 -1.00000000
vn 0.00000000 0.00000000 -1.00000000
vn -0.49999967 -0.86602560 0.00000846
vn -0.49999676 -0.86602727 0.00000940
vn -0.49999967 -0.86602560 0.00000846
vn -0.50000257 -0.86602392 0.00000752
vn 0.50000547 -0.86602224 -0.00000846
vn 0.50000838 -0.86602057 -0.00000752
vn 0.75593190 -0.65465026 -0.00001350
vn 0.94491146 -0.32732603 -0.00001777
vn 0.94491146 -0.32732603 -0.00001777
vn 0.75593190 -0.65465026 -0.00001350
vn 1.00000000 0.00000000 -0.00001880
vn 1.00000000 0.00000000 -0.00001880
vn 0.49999542 0.86602805 -0.00000846
vn 0.49999832 0.86602637 -0.00000940
vn 0.18897957 0.98198102 -0.00000355
vn -0.18898032 0.98198087 0.00000232
vn -0.18898032 0.98198087 0.00000232
vn 0.18897957 0.98198102 -0.00000355
vn -0.49999464 0.86602850 0.00000683
vn -0.49999251 0.86602973 0.00000614
vn -1.00000000 0.00000000 0.00001880
vn -1.00000000 0.00000000 0.00001880
vn -1.00000000 0.00000000 0.00001880
vn -1.00000000 0.00000000 0.00001880

g ²ã
f 2//1 6//2 1//3
f 3//4 6//5 2//6
f 4//7 6//8 3//9
f 7//10 6//11 5//12
f 8//13 6//14 7//15
f 1//16 6//17 8//18
f 10//19 14//20 9//21
f 9//22 14//23 11//24
f 11//25 14//26 12//27
f 15//28 14//29 13//30
f 13//31 14//32 16//33
f 16//34 14//35 10//36
f 1//37 10//38 9//39 2//40
f 2//41 9//42 11//43 3//44
f 3//45 11//46 12//47 4//48
f 4//49 12//50 14//51 6//52
f 6//53 14//54 15//55 5//56
f 5//57 15//58 13//59 7//60
f 7//61 13//62 16//63 8//64
f 8//65 16//66 10//67 1//68
f 19//69 18//70 17//71
f 20//72 18//73 19//74
f 21//75 18//76 20//77
f 22//78 18//79 21//80
f 18//81 23//82 24//83 17//84
f 17//85 24//86 25//87 19//88
f 19//89 25//90 26//91 20//92
f 20//93 26//94 27//95 21//96
f 21//97 27//98 28//99 22//100
f 22//101 28//102 23//103 18//104
f 30//105 29//106 32//107 31//108
f 31//109 32//110 34//111 33//112
f 33//113 34//114 36//115 35//116
f 35//117 36//118 38//119 37//120
f 37//121 38//122 40//123 39//124
f 39//125 40//126 29//127 30//128
f 29//129 41//130 42//131 32//132
f 32//133 42//134 43//135 34//136
f 34//137 43//138 44//139 36//140
f 36//141 44//142 45//143 38//144
f 38//145 45//146 46//147 40//148
f 40//149 46//150 41//151 29//152
f 47//153 43//154 42//155 48//156
f 48//157 42//158 41//159 49//160
f 49//161 41//162 46//163 50//164
f 50//165 46//166 45//167 51//168
f 51//169 45//170 44//171 52//172
f 52//173 44//174 43//175 47//176

