# Blender v2.64 (sub 0) OBJ File: 'Bf109_Leg_R.blend'
# www.blender.org
mtllib Bf109_Leg_R.mtl
o Cylinder.001_Cylinder.007
v 6.450240 4.290495 0.304250
v 6.450240 4.166654 0.339015
v 6.487621 4.252789 0.169932
v 6.487621 4.128948 0.204697
v 6.589749 4.225186 0.071605
v 6.589749 4.101345 0.106370
v 6.729259 4.215083 0.035614
v 6.729259 4.091242 0.070379
v 6.868770 4.225186 0.071605
v 6.868770 4.101345 0.106370
v 6.970899 4.252789 0.169932
v 6.970899 4.128948 0.204697
v 7.008280 4.290495 0.304250
v 7.008280 4.166654 0.339015
v 6.970899 4.328201 0.438568
v 6.970899 4.204360 0.473333
v 6.868770 4.355804 0.536896
v 6.868770 4.231963 0.571661
v 6.729260 4.365907 0.572886
v 6.729260 4.242066 0.607651
v 6.589750 4.355804 0.536896
v 6.589750 4.231963 0.571661
v 6.487621 4.328201 0.438568
v 6.487621 4.204360 0.473334
v 6.578097 4.143066 0.254990
v 6.554713 4.166654 0.339015
v 6.641986 4.125798 0.193479
v 6.729259 4.119478 0.170964
v 6.816533 4.125798 0.193479
v 6.880422 4.143066 0.254990
v 6.903807 4.166654 0.339015
v 6.880422 4.190241 0.423041
v 6.816534 4.207509 0.484552
v 6.729260 4.213830 0.507066
v 6.641986 4.207509 0.484552
v 6.578098 4.190242 0.423041
v 6.578098 4.124444 0.260217
v 6.554713 4.148032 0.344243
v 6.641986 4.107177 0.198707
v 6.729259 4.100856 0.176192
v 6.816533 4.107177 0.198706
v 6.880422 4.124444 0.260217
v 6.903807 4.148032 0.344243
v 6.880422 4.171620 0.428268
v 6.816534 4.188887 0.489779
v 6.729260 4.195208 0.512294
v 6.641986 4.188887 0.489779
v 6.578098 4.171620 0.428269
v 6.539025 4.478826 0.778033
v 6.356294 4.600000 1.180138
v 6.556328 4.438731 0.797979
v 6.373596 4.559906 1.200083
v 6.600034 4.438731 0.817841
v 6.417303 4.559906 1.219945
v 6.626439 4.478826 0.817757
v 6.443707 4.600000 1.219862
v 6.609137 4.518920 0.797812
v 6.426405 4.640095 1.199917
v 6.565430 4.518920 0.777950
v 6.382698 4.640095 1.180055
v 6.532807 4.476434 0.765631
v 6.553999 4.427326 0.790060
v 6.607531 4.427326 0.814387
v 6.639871 4.476434 0.814285
v 6.618679 4.525542 0.789856
v 6.565147 4.525542 0.765529
v 6.544349 4.468780 0.740232
v 6.565541 4.419672 0.764662
v 6.619073 4.419672 0.788989
v 6.651413 4.468780 0.788886
v 6.630221 4.517888 0.764457
v 6.576689 4.517888 0.740130
v 6.563589 4.466388 0.739400
v 6.578593 4.431622 0.756695
v 6.616491 4.431622 0.773917
v 6.639387 4.466388 0.773845
v 6.624384 4.501155 0.756550
v 6.586485 4.501155 0.739327
v 6.805607 4.305899 0.206834
v 6.820611 4.271132 0.224129
v 6.858509 4.271132 0.241351
v 6.881405 4.305899 0.241279
v 6.866402 4.340665 0.223984
v 6.828503 4.340665 0.206761
vn 0.655721 -0.731223 -0.187933
vn 0.757134 -0.628895 0.176519
vn 0.655721 -0.526566 0.541032
vn 0.378552 -0.451674 0.807855
vn 0.378552 -0.806116 -0.454756
vn 0.000000 -0.424268 0.905515
vn 0.000000 -0.833552 -0.552416
vn -0.378552 -0.451674 0.807855
vn -0.378582 -0.806116 -0.454756
vn -0.655721 -0.526566 0.541032
vn -0.655690 -0.731223 -0.187933
vn -0.757134 -0.628895 0.176550
vn -0.989624 0.128391 0.064425
vn -0.674520 -0.601733 0.427656
vn -0.679189 -0.500381 0.536912
vn -0.964782 0.161382 0.207709
vn 0.121433 -0.601733 0.789392
vn 0.042207 -0.500381 0.864742
vn 0.602283 0.128422 0.787866
vn 0.478011 0.161382 0.863369
vn 0.287179 0.858577 0.424635
vn 0.192419 0.823176 0.534165
vn -0.528947 0.823176 0.206336
vn -0.508744 0.858577 0.062899
vn 0.182531 -0.672842 0.716880
vn 0.691580 0.100131 0.715293
vn 0.502457 -0.864071 -0.029420
vn 0.992218 -0.120334 -0.030976
vn -0.993683 0.100131 -0.050569
vn -0.660085 -0.672842 0.333964
vn 0.358013 0.873165 0.330729
vn -0.484603 0.873165 -0.052156
vn -0.308267 -0.864071 -0.397839
vn -0.195318 -0.824488 -0.531053
vn 0.528520 -0.824488 -0.202124
vn -0.139439 0.623371 -0.769372
vn -0.629200 -0.120334 -0.767815
vn 0.671285 0.623371 -0.400952
vn 0.528947 -0.823176 -0.206336
vn 0.964782 -0.161382 -0.207709
vn 0.965819 -0.160436 -0.203497
vn 0.679250 0.503555 -0.533830
vn -0.044588 0.503586 -0.862789
vn -0.481887 -0.160436 -0.861385
vn 0.679189 0.500381 -0.536912
vn -0.042207 0.500381 -0.864742
vn -0.192419 -0.823176 -0.534165
vn -0.478011 -0.161382 -0.863369
vn -0.757134 0.628895 -0.176519
vn -0.655721 0.526566 -0.541032
vn -0.655721 -0.731223 -0.187933
vn -0.378552 0.451674 -0.807855
vn -0.378552 -0.806116 -0.454756
vn 0.000000 0.424268 -0.905515
vn 0.378552 0.451674 -0.807855
vn 0.655721 0.526566 -0.541032
vn 0.757134 0.628895 -0.176550
vn 0.757134 -0.628895 0.176550
vn 0.655721 0.731223 0.187933
vn 0.378552 0.806116 0.454756
vn 0.000000 0.833552 0.552416
vn -0.378552 0.806116 0.454756
vn 0.000000 -0.569231 0.822169
vn 0.318857 -0.592303 0.739891
vn -0.655721 0.731223 0.187933
vn -0.637715 -0.741569 0.208167
vn -0.552263 -0.827754 -0.098788
vn -0.318857 -0.890835 -0.323527
vn 0.000000 -0.913938 -0.405805
vn 0.318857 -0.890835 -0.323527
vn 0.552263 -0.827754 -0.098788
vn 0.637715 -0.741569 0.208167
vn 0.552263 -0.655385 0.515152
vn -0.318857 -0.592303 0.739891
vn -0.552263 -0.655385 0.515152
usemtl _metal
s 1
f 42//1 43//2 44//3
f 42//1 44//3 45//4
f 41//5 42//1 45//4
f 41//5 45//4 46//6
f 40//7 41//5 46//6
f 40//7 46//6 47//8
f 39//9 40//7 47//8
f 39//9 47//8 48//10
f 37//11 39//9 48//10
f 37//11 48//10 38//12
f 49//13 51//14 52//15 50//16
f 51//14 53//17 54//18 52//15
f 53//17 55//19 56//20 54//18
f 55//19 57//21 58//22 56//20
f 54//18 56//20 58//22
f 54//18 58//22 60//23
f 52//15 54//18 60//23
f 52//15 60//23 50//16
f 59//24 49//13 50//16 60//23
f 57//21 59//24 60//23 58//22
f 53//17 63//25 64//26 55//19
f 63//25 69//27 70//28 64//26
f 49//13 61//29 62//30 51//14
f 55//19 64//26 65//31 57//21
f 57//21 65//31 66//32 59//24
f 59//24 66//32 61//29 49//13
f 51//14 62//30 63//25 53//17
f 68//33 74//34 75//35 69//27
f 66//32 72//36 67//37 61//29
f 62//30 68//33 69//27 63//25
f 65//31 71//38 72//36 66//32
f 61//29 67//37 68//33 62//30
f 64//26 70//28 71//38 65//31
f 75//35 81//39 82//40 76//41
f 71//38 77//42 78//43 72//36
f 67//37 73//44 74//34 68//33
f 70//28 76//41 77//42 71//38
f 69//27 75//35 76//41 70//28
f 72//36 78//43 73//44 67//37
f 83//45 82//40 81//39
f 84//46 83//45 81//39
f 84//46 81//39 80//47
f 79//48 84//46 80//47
f 78//43 84//46 79//48 73//44
f 74//34 80//47 81//39 75//35
f 77//42 83//45 84//46 78//43
f 73//44 79//48 80//47 74//34
f 76//41 82//40 83//45 77//42
usemtl BlackMetal
f 1//49 3//50 4//51 2//12
f 3//50 5//52 6//53 4//51
f 5//52 7//54 8//7 6//53
f 7//54 9//55 10//5 8//7
f 9//55 11//56 12//1 10//5
f 11//56 13//57 14//58 12//1
f 13//57 15//59 16//3 14//58
f 15//59 17//60 18//4 16//3
f 17//60 19//61 20//6 18//4
f 19//61 21//62 22//8 20//6
f 34//63 46//6 45//4 33//64
f 23//65 1//49 2//12 24//10
f 21//62 23//65 24//10 22//8
f 15//59 13//57 11//56
f 15//59 11//56 9//55
f 17//60 15//59 9//55
f 19//61 17//60 9//55
f 19//61 9//55 7//54
f 21//62 19//61 7//54
f 21//62 7//54 5//52
f 23//65 21//62 5//52
f 23//65 5//52 3//50
f 1//49 23//65 3//50
f 26//66 2//12 4//51 25//67
f 25//67 4//51 6//53 27//68
f 27//68 6//53 8//7 28//69
f 28//69 8//7 10//5 29//70
f 29//70 10//5 12//1 30//71
f 30//71 12//1 14//58 31//72
f 31//72 14//58 16//3 32//73
f 32//73 16//3 18//4 33//64
f 33//64 18//4 20//6 34//63
f 34//63 20//6 22//8 35//74
f 35//74 22//8 24//10 36//75
f 36//75 24//10 2//12 26//66
f 28//69 40//7 39//9 27//68
f 35//74 47//8 46//6 34//63
f 29//70 41//5 40//7 28//69
f 36//75 48//10 47//8 35//74
f 30//71 42//1 41//5 29//70
f 26//66 38//12 48//10 36//75
f 31//72 43//2 42//1 30//71
f 32//73 44//3 43//2 31//72
f 25//67 37//11 38//12 26//66
f 33//64 45//4 44//3 32//73
f 27//68 39//9 37//11 25//67
