# Rhino

o object_1
v 14.97 9.941 1.363
v 14.97 9.984 1.363
v 14.98 9.941 1.403
v 14.98 9.984 1.403
v 15.72 9.905 0.3463
v 15.72 10.08 0.3463
v 15.81 9.905 0.1146
v 15.81 9.905 0.578
v 15.81 10.08 0.1146
v 15.81 10.08 0.578
v 15.89 9.878 0.8163
v 15.89 9.878 0.8831
v 15.89 9.915 1.179
v 15.89 9.915 1.368
v 15.89 10.01 1.179
v 15.89 10.01 1.368
v 15.9 9.919 0.9702
v 15.9 9.919 1.179
v 15.9 10.01 0.9702
v 15.9 10.01 1.179
v 15.91 9.906 0.8163
v 15.91 9.906 0.8831
v 15.91 9.999 0.8163
v 15.91 9.999 0.8831
v 15.91 9.941 1.03
v 15.91 9.984 1.03
v 15.93 9.937 0.8831
v 15.93 9.937 0.9702
v 15.93 9.988 0.8831
v 15.93 9.988 0.9702
v 15.93 9.941 1.07
v 15.93 9.984 1.07
v 15.95 9.877 0.3214
v 15.96 9.887 0.3214
v 15.97 9.84 0.8163
v 15.97 9.84 0.8831
v 15.97 9.867 1.179
v 15.97 9.867 1.368
v 15.97 9.875 0.9702
v 15.97 9.875 1.179
v 15.97 9.88 0.8163
v 15.97 9.88 0.8831
v 15.97 9.911 0.8831
v 15.97 9.911 0.9702
v 15.97 10.01 0.8831
v 15.97 10.01 0.9702
v 15.97 10.04 0.8163
v 15.97 10.04 0.8831
v 15.97 10.05 0.9702
v 15.97 10.05 1.179
v 15.97 10.06 1.179
v 15.97 10.06 1.368
v 15.99 9.863 0.3009
v 15.99 9.863 0.3656
v 15.99 9.993 0.3009
v 15.99 9.993 0.3656
v 15.99 9.858 0.3214
v 15.99 9.879 0.3214
v 16.02 9.937 0.8831
v 16.02 9.937 0.9702
v 16.02 9.988 0.8831
v 16.02 9.988 0.9702
v 16.02 9.887 0.3214
v 16.03 9.877 0.3214
v 16.04 9.906 0.8163
v 16.04 9.906 0.8831
v 16.04 9.999 0.8163
v 16.04 9.999 0.8831
v 16.04 9.863 0.2686
v 16.04 9.863 0.398
v 16.04 9.993 0.2686
v 16.04 9.993 0.398
v 16.04 9.905 0.01866
v 16.04 9.905 0.674
v 16.04 10.08 0.01866
v 16.04 10.08 0.674
v 16.05 9.919 0.9702
v 16.05 9.919 1.179
v 16.05 10.01 0.9702
v 16.05 10.01 1.179
v 16.05 9.915 1.179
v 16.05 9.915 1.368
v 16.05 10.01 1.179
v 16.05 10.01 1.368
v 16.05 9.878 0.8163
v 16.05 9.878 0.8831
v 16.1 9.863 0.3009
v 16.1 9.863 0.3656
v 16.1 9.993 0.3009
v 16.1 9.993 0.3656
v 16.28 9.905 0.1146
v 16.28 9.905 0.578
v 16.28 10.08 0.1146
v 16.28 10.08 0.578
v 16.37 9.905 0.3463
v 16.37 10.08 0.3463
vn 0 -1 0
vn 0.3328 0 0.943
vn 0 -1 0
vn 0.3328 0 0.943
vn 0 -1 0
vn -0.3328 0 -0.943
vn 0 -1 0
vn -0.3328 0 -0.943
vn 0 1 0
vn 0.3328 0 0.943
vn 0 1 0
vn 0.3328 0 0.943
vn 0 1 0
vn -0.3328 0 -0.943
vn 0 1 0
vn -0.3328 0 -0.943
vn 0 -1 0
vn 0 -1 0
vn 0 -1 0
vn 0 -1 0
vn -0.7559 0 0.6547
vn -0.7559 0 0.6547
vn 0 -1 0
vn -0.5 0 0.866
vn 0.5 0 0.866
vn 0 -1 0
vn 0 -1 0
vn 0.9449 0 0.3273
vn 0.9449 0 0.3273
vn 0 -1 0
vn 0 -1 0
vn 0.7559 0 -0.6547
vn 0.7559 0 -0.6547
vn 0 -1 0
vn 0 -1 0
vn 0.5 0 -0.866
vn -0.5 0 -0.866
vn 0 -1 0
vn -0.9449 0 -0.3273
vn -0.9449 0 -0.3273
vn -0.9449 0 0.3273
vn -0.9449 0 0.3273
vn -0.5 0 0.866
vn 0.5 0 0.866
vn 0.7559 0 0.6547
vn 0.7559 0 0.6547
vn 0.9449 0 -0.3273
vn 0.9449 0 -0.3273
vn 0.5 0 -0.866
vn -0.5 0 -0.866
vn -0.7559 0 -0.6547
vn -0.7559 0 -0.6547
vn 0 -1 0
vn 0 -1 0
vn -0.6037 0 0.7972
vn -0.6037 0 0.7972
vn 0 -1 0
vn 0 -1 0
vn 0.1368 0 0.9906
vn 0.1368 0 0.9906
vn 0 -1 0
vn 0 -1 0
vn 0.7972 0 0.6037
vn 0.7972 0 0.6037
vn 0 -1 0
vn 0.9906 0 -0.1368
vn 0.9906 0 -0.1368
vn 0 -1 0
vn 0 -1 0
vn 0 -1 0
vn 0 -1 0
vn 0 -1 0
vn 0 -1 0
vn 0.6037 0 -0.7972
vn 0.6037 0 -0.7972
vn 0 -1 0
vn -0.1368 0 -0.9906
vn -0.1368 0 -0.9906
vn 0 -1 0
vn 0 -1 0
vn -0.7972 0 -0.6038
vn -0.7972 0 -0.6038
vn 0 -1 0
vn 0 -1 0
vn -0.9906 0 0.1368
vn -0.9906 0 0.1368
vn 0 1 0
vn 0 1 0
vn -0.1368 0 0.9906
vn -0.1368 0 0.9906
vn 0 1 0
vn 0 1 0
vn -0.7972 0 0.6037
vn -0.7972 0 0.6037
vn 0 1 0
vn 0 1 0
vn 0.6037 0 0.7972
vn 0.6037 0 0.7972
vn 0 1 0
vn 0.9906 0 0.1368
vn 0.9906 0 0.1368
vn 0 1 0
vn 0 1 0
vn 0 1 0
vn 0 1 0
vn 0 1 0
vn 0 1 0
vn 0.7972 0 -0.6037
vn 0.7972 0 -0.6037
vn 0 1 0
vn 0 1 0
vn -0.6037 0 -0.7972
vn -0.6037 0 -0.7972
vn 0 1 0
vn 0.1368 0 -0.9906
vn 0.1368 0 -0.9906
vn 0 1 0
vn 0 1 0
vn -0.9906 0 -0.1368
vn -0.9906 0 -0.1368
vn 0.4304 -0.9025 -0.01678
vn 0.8003 0.5983 -0.03938
vn 0.1488 -0.9884 -0.02966
vn 0.1488 -0.9884 -0.02966
vn -0.002861 -0.9998 -0.01796
vn -0.002861 -0.9998 -0.01796
vn -0.002861 -0.9998 -0.01796
vn -0.002861 -0.9998 -0.01796
vn 0.4159 -0.9094 -0.01016
vn 0.8328 0.5532 -0.01845
vn 0.4159 -0.9094 -0.01016
vn 0.8328 0.5532 -0.01845
vn 0.7657 0.6418 -0.04174
vn -0.3154 0.9487 -0.01977
vn 0.9162 0.4006 -0.01369
vn -0.3708 0.9284 -0.02596
vn 0.9162 0.4006 -0.01369
vn 0.9162 0.4006 -0.01369
vn 0.1286 0.9917 -0.001834
vn 0.1286 0.9917 -0.001834
vn -0.09135 0.9958 -0.008677
vn -0.09135 0.9958 -0.008677
vn 0.259 0.9658 -0.006659
vn -0.7962 0.5952 -0.1086
vn 0.3155 0.9489 0.00412
vn -0.923 0.3827 -0.03961
vn -0.923 0.3827 -0.03961
vn -0.923 0.3827 -0.03961
vn -0.7624 0.6389 -0.1026
vn -0.419 -0.9065 -0.05177
vn -0.8161 0.5754 -0.05435
vn -0.4085 -0.9124 -0.02626
vn -0.8161 0.5754 -0.05435
vn -0.4085 -0.9124 -0.02626
vn 0.4086 -0.9127 0
vn 0 0 1
vn 0.833 0.5533 0
vn -0.833 0.5533 0
vn 0 0 1
vn -0.4086 -0.9127 0
vn -0.9573 0.289 0
vn 0 0 1
vn -0.9573 0.289 0
vn 0 0 1
vn 0 0 1
vn -2.43e-06 -1 0
vn 0 0 1
vn 0 0 1
vn -2.43e-06 -1 0
vn 0 0 1
vn 0 0 1
vn 0 0 1
vn 0 0 1
vn 0 0 1
vn 0.9573 0.289 0
vn 0.9573 0.289 0
vn 0 0 1
vn 0 0 1
vn 0.5 0.866 0
vn -0.5 0.866 0
vn 0.7559 0.6546 0
vn 0.7559 0.6546 0
vn 0.9449 0.3273 0
vn 0.9449 0.3273 0
vn 0 0 1
vn 0 0 1
vn 0.5 0.866 0
vn -0.5 0.866 0
vn 0 0 1
vn 0 0 1
vn -0.9449 0.3273 0
vn -0.9449 0.3273 0
vn -0.7559 0.6546 0
vn -0.7559 0.6546 0
vn 0 0 1
vn 0 0 1
vn 0 0 1
vn 0 0 1
vn 0.5 0.866 0
vn 1 0 0
vn 0 0 1
vn 0 0 1
vn -0.189 0.982 0
vn -0.189 0.982 0
vn 0 0 1
vn 0 0 1
vn -0.5 0.866 0
vn -1 0 0
vn 0 0 1
vn 0 0 1
vn -1 0 0
vn -0.5 -0.866 0
vn 0 0 1
vn 0 0 1
vn 0.189 -0.982 0
vn 0.189 -0.982 0
vn 0 0 1
vn 0 0 1
vn 0.5 -0.866 0
vn 1 0 0
vn 0.5 0.866 0
vn 1 0 0
vn 0 0 -1
vn 0 0 -1
vn 0.189 0.982 0
vn 0.189 0.982 0
vn 0 0 -1
vn 0 0 -1
vn -0.5 0.866 0
vn -1 0 0
vn 0 0 -1
vn 0 0 -1
vn -1 0 0
vn -0.5 -0.866 0
vn 0 0 -1
vn 0 0 -1
vn -0.189 -0.982 0
vn -0.189 -0.982 0
vn 0 0 -1
vn 0 0 -1
vn 0.5 -0.866 0
vn 1 0 0
vn 0 0 -1
vn 0 0 -1
vn 0 0 -1
vn 0 0 -1
vn 0.5 0.866 0
vn 1 0 0
vn 0 0 -1
vn 0 0 -1
vn -0.189 0.982 0
vn -0.189 0.982 0
vn 0 0 -1
vn 0 0 -1
vn -0.5 0.866 0
vn -1 0 0
vn 0 0 -1
vn 0 0 -1
vn -1 0 0
vn -0.5 -0.866 0
vn 0 0 -1
vn 0 0 -1
vn 0.189 -0.982 0
vn 0.189 -0.982 0
vn 0 0 -1
vn 0 0 -1
vn 0.5 -0.866 0
vn 1 0 0
vn 0.5 0.866 0
vn 1 0 0
vn 0 0 -1
vn 0 0 -1
vn 0.189 0.982 0
vn 0.189 0.982 0
vn 0 0 -1
vn 0 0 -1
vn -0.5 0.866 0
vn -1 0 0
vn 0 0 -1
vn 0 0 -1
vn -1 0 0
vn -0.5 -0.866 0
vn 0 0 -1
vn 0 0 -1
vn -0.189 -0.982 0
vn -0.189 -0.982 0
vn 0 0 -1
vn 0 0 -1
vn 0.5 -0.866 0
vn 1 0 0
vn 0 0 -1
vn 0 0 -1
vn 0 0 -1
vn 0 0 -1
vn 0.7559 0.6547 0
vn 0.7559 0.6547 0
vn 0 0 -1
vn 0 0 -1
vn -0.189 0.982 0
vn -0.189 0.982 0
vn 0 0 -1
vn 0 0 -1
vn -0.5 0.866 0
vn -1 0 0
vn 0 0 -1
vn 0 0 -1
vn -0.5 -0.866 0
vn -1 0 0
vn 0 0 -1
vn 0 0 -1
vn 0.189 -0.982 0
vn 0.189 -0.982 0
vn 0 0 -1
vn 0 0 -1
vn 0.9449 -0.3273 0
vn 0.9449 -0.3273 0
vn 0.189 0.982 0
vn 0.189 0.982 0
vn -0.5 0.866 0
vn -1 0 0
vn 0.9449 0.3273 0
vn 0.9449 0.3273 0
vn 0.7559 -0.6547 0
vn 0.7559 -0.6547 0
vn -0.189 -0.982 0
vn -0.189 -0.982 0
vn -0.5 -0.866 0
vn -1 0 0
f 31//3 3//1 1//7 25//5
f 4//11 32//9 26//15 2//13
f 26//16 25//6 1//8 2//14
f 4//12 3//2 31//4 32//10
f 88//26 70//23 54//17
f 87//30 88//27 54//18
f 69//34 87//31 54//19
f 53//38 69//35 54//20
f 54//21 70//24 72//43 56//41
f 70//25 88//28 90//45 72//44
f 88//29 87//32 89//47 90//46
f 87//33 69//36 71//49 89//48
f 69//37 53//39 55//51 71//50
f 53//40 54//22 56//42 55//52
f 74//57 8//53 91//68
f 92//61 74//58 91//69
f 95//65 92//62 91//70
f 7//79 73//76 91//71
f 5//83 7//80 91//72
f 8//54 5//84 91//73
f 10//91 76//87 93//102
f 76//88 94//95 93//103
f 94//96 96//99 93//104
f 75//114 9//110 93//105
f 9//111 6//117 93//106
f 6//118 10//92 93//107
f 8//55 74//59 76//89 10//93
f 74//60 92//63 94//97 76//90
f 92//64 95//66 96//100 94//98
f 95//67 91//74 93//108 96//101
f 91//75 73//77 75//115 93//109
f 73//78 7//81 9//112 75//116
f 7//82 5//85 6//119 9//113
f 5//86 8//56 10//94 6//120
f 57//123 64//121 85//129 35//125
f 64//122 63//133 65//135 85//130
f 63//134 58//139 41//141 65//136
f 58//140 34//143 21//145 41//142
f 34//144 33//149 11//151 21//146
f 33//150 57//124 35//126 11//152
f 86//155 36//166 35//127 85//131
f 11//153 12//158 22//161 21//147
f 12//159 36//167 42//170 22//162
f 36//168 86//156 66//174 42//171
f 86//157 85//132 65//137 66//175
f 67//181 47//179 48//187 68//183
f 47//180 23//191 24//193 48//188
f 23//192 21//148 22//163 24//194
f 12//160 11//154 35//128 36//169
f 65//138 67//182 68//184 66//176
f 68//185 48//189 45//201 61//197
f 48//190 24//195 29//205 45//202
f 24//196 22//164 27//209 29//206
f 22//165 42//172 43//213 27//210
f 42//173 66//177 59//217 43//214
f 66//178 68//186 61//198 59//218
f 61//199 45//203 46//225 62//221
f 45//204 29//207 30//229 46//226
f 29//208 27//211 28//233 30//230
f 27//212 43//215 44//237 28//234
f 43//216 59//219 60//241 44//238
f 59//220 61//200 62//222 60//242
f 62//223 46//227 49//249 79//245
f 46//228 30//231 19//253 49//250
f 30//232 28//235 17//257 19//254
f 28//236 44//239 39//261 17//258
f 44//240 60//243 77//265 39//262
f 60//244 62//224 79//246 77//266
f 79//247 49//251 50//273 80//269
f 49//252 19//255 20//277 50//274
f 19//256 17//259 18//281 20//278
f 17//260 39//263 40//285 18//282
f 39//264 77//267 78//289 40//286
f 77//268 79//248 80//270 78//290
f 80//271 50//275 51//297 83//293
f 50//276 20//279 15//301 51//298
f 20//280 18//283 13//305 15//302
f 18//284 40//287 37//309 13//306
f 40//288 78//291 81//313 37//310
f 78//292 80//272 83//294 81//314
f 16//319 52//317 51//299 15//303
f 52//318 84//321 83//295 51//300
f 84//322 82//323 81//315 83//296
f 82//324 38//325 37//311 81//316
f 38//326 14//327 13//307 37//312
f 14//328 16//320 15//304 13//308
