# Blender v2.67 (sub 0) OBJ File: 'F4U_Leg_L.blend'
# www.blender.org
mtllib F4U_leg_L_output.mtl
o F4U_Leg_R_Cylinder.006
v 5.680121 6.380758 0.381319
v 5.680121 6.523722 0.381319
v 5.726319 6.380758 0.208905
v 5.726319 6.523722 0.208905
v 5.852535 6.380758 0.082689
v 5.852535 6.523722 0.082689
v 6.024950 6.380758 0.036491
v 6.024950 6.523722 0.036491
v 6.197364 6.380758 0.082689
v 6.197364 6.523722 0.082689
v 6.323580 6.380758 0.208905
v 6.323580 6.523722 0.208905
v 6.369778 6.380758 0.381319
v 6.369778 6.523722 0.381319
v 6.323580 6.380758 0.553733
v 6.323580 6.523722 0.553733
v 6.197364 6.380758 0.679949
v 6.197364 6.523722 0.679949
v 6.024950 6.380758 0.726147
v 6.024950 6.523722 0.726147
v 5.852535 6.380758 0.679949
v 5.852535 6.523722 0.679949
v 5.726319 6.380758 0.553733
v 5.726319 6.523722 0.553733
v 5.858549 6.380262 0.381319
v 5.880843 6.380262 0.298119
v 5.880843 6.524217 0.298119
v 5.858549 6.524217 0.381319
v 5.941749 6.380262 0.237212
v 5.941749 6.524217 0.237212
v 6.024950 6.380262 0.214919
v 6.024950 6.524217 0.214919
v 6.108150 6.380262 0.237212
v 6.108150 6.524217 0.237212
v 6.169056 6.380262 0.298119
v 6.169056 6.524217 0.298119
v 6.191350 6.380262 0.381319
v 6.191350 6.524217 0.381319
v 6.169056 6.380262 0.464519
v 6.169056 6.524217 0.464519
v 6.108150 6.380262 0.525426
v 6.108150 6.524217 0.525426
v 6.024950 6.380262 0.547720
v 6.024950 6.524217 0.547720
v 5.941750 6.380262 0.525426
v 5.941750 6.524217 0.525426
v 5.880843 6.380262 0.464519
v 5.880843 6.524217 0.464519
v 5.880843 6.563775 0.298119
v 5.858549 6.563775 0.381319
v 5.880843 6.563775 0.464520
v 5.941750 6.563775 0.525426
v 6.024950 6.563775 0.547720
v 6.108150 6.563775 0.525426
v 6.169056 6.563775 0.464519
v 6.191350 6.563775 0.381319
v 6.169056 6.563775 0.298119
v 6.108150 6.563775 0.237212
v 6.024950 6.563775 0.214919
v 5.941749 6.563775 0.237212
v 5.858549 6.340705 0.381319
v 5.880843 6.340705 0.298119
v 5.941749 6.340705 0.237212
v 6.024950 6.340705 0.214919
v 6.108150 6.340705 0.237212
v 6.169056 6.340705 0.298119
v 6.191350 6.340705 0.381319
v 6.169056 6.340705 0.464519
v 6.108150 6.340705 0.525426
v 6.024950 6.340705 0.547719
v 5.941750 6.340705 0.525426
v 5.880843 6.340705 0.464519
v 5.951913 6.300001 0.600175
v 5.951913 6.300001 1.150000
v 5.975956 6.341645 0.600175
v 5.975956 6.341645 1.150000
v 6.024044 6.341645 0.600175
v 6.024044 6.341645 1.150000
v 6.048087 6.300001 0.600175
v 6.048087 6.300001 1.150000
v 6.024044 6.258357 0.600175
v 6.024044 6.258357 1.150000
v 5.975956 6.258357 0.600175
v 5.975956 6.258357 1.150000
v 5.970763 6.300001 0.568547
v 5.985382 6.325321 0.568547
v 6.014618 6.325321 0.568547
v 6.029237 6.300001 0.568547
v 6.014618 6.274681 0.568547
v 5.985382 6.274681 0.568547
v 5.970763 6.300001 0.321847
v 5.985382 6.325321 0.321847
v 6.014618 6.325321 0.321847
v 6.029237 6.300001 0.321847
v 6.014618 6.274681 0.321847
v 5.985382 6.274681 0.321847
v 6.014618 6.325321 0.432545
v 5.985382 6.325321 0.432545
v 5.985382 6.274681 0.432545
v 6.014618 6.274681 0.432545
v 5.970763 6.300001 0.432545
v 6.029237 6.300001 0.432545
v 5.985382 6.391740 0.321847
v 6.014618 6.391740 0.321847
v 6.014618 6.391740 0.432546
v 5.985382 6.391740 0.432546
vn -0.866027 0.499998 0.000000
vn 0.000000 1.000000 0.000000
vn 0.866027 0.499998 0.000000
vn 0.866029 -0.499993 0.000000
vn 0.000001 0.000000 1.000000
vn -0.866029 -0.499993 0.000000
vn 0.000000 -1.000000 0.000000
vn -0.769570 -0.444307 -0.458643
vn 0.000000 0.000001 -1.000000
vn 0.000000 0.888623 -0.458639
vn 0.769567 0.444312 -0.458643
vn -0.769567 0.444312 -0.458643
vn 0.769570 -0.444307 -0.458643
vn 0.000000 -0.888623 -0.458639
vn 0.000000 0.000000 -1.000000
vn -0.866021 0.500009 0.000000
vn 0.866021 -0.500009 0.000000
vn 0.866021 0.500009 0.000000
vn -0.866021 -0.500009 0.000000
vn 0.000000 -1.000000 -0.000004
vn -0.866020 0.500009 0.000000
vn 0.866023 -0.500005 -0.000001
vn 0.866020 0.500009 0.000000
vn -0.866023 -0.500005 -0.000001
vn -1.000000 -0.000000 0.000000
vn 1.000000 0.000000 0.000000
vn 0.000000 -0.000001 1.000000
vn -0.757927 -0.652303 0.000000
vn -0.757927 0.652303 0.000000
vn -0.656362 0.652303 -0.378948
vn -0.656392 -0.652303 -0.378948
vn -0.378948 0.652303 -0.656362
vn -0.378948 -0.652303 -0.656392
vn 0.000000 0.652303 -0.757927
vn 0.000000 -0.652303 -0.757927
vn 0.378948 0.652303 -0.656362
vn 0.378948 -0.652303 -0.656392
vn 0.656392 0.652303 -0.378948
vn 0.656392 -0.652303 -0.378948
vn 0.757927 0.652303 0.000000
vn 0.757927 -0.652303 0.000000
vn 0.656392 0.652303 0.378948
vn 0.656392 -0.652303 0.378948
vn 0.378948 0.652303 0.656362
vn 0.378948 -0.652303 0.656392
vn 0.000000 0.652303 0.757927
vn 0.000000 -0.652303 0.757927
vn -0.378948 0.652303 0.656362
vn -0.378948 -0.652303 0.656392
vn -0.656392 -0.652303 0.378948
vn -0.656362 0.652303 0.378948
vn -0.553362 -0.769189 -0.319498
vn -0.638997 -0.769189 0.000000
vn -0.638966 0.769189 0.000000
vn -0.553362 0.769189 -0.319468
vn -0.319498 -0.769189 -0.553362
vn -0.319468 0.769189 -0.553362
vn 0.000000 -0.769189 -0.638997
vn 0.000000 0.769189 -0.638966
vn 0.319498 -0.769189 -0.553362
vn 0.319498 0.769189 -0.553362
vn 0.553362 -0.769189 -0.319498
vn 0.553362 0.769189 -0.319468
vn 0.638997 -0.769189 0.000000
vn 0.638966 0.769189 0.000000
vn 0.553362 -0.769189 0.319498
vn 0.553362 0.769189 0.319468
vn 0.319498 -0.769189 0.553362
vn 0.319498 0.769189 0.553362
vn 0.000000 -0.769189 0.638966
vn 0.000000 0.769189 0.638966
vn -0.319468 -0.769189 0.553362
vn -0.319498 0.769189 0.553362
vn -0.553362 -0.769189 0.319498
vn -0.553362 0.769189 0.319498
vn -0.655721 0.653218 -0.378552
vn -0.757134 0.653218 0.000000
vn -0.655721 0.653218 0.378582
vn -0.378552 0.653218 0.655721
vn 0.000000 0.653218 0.757134
vn 0.378582 0.653218 0.655721
vn 0.655721 0.653218 0.378552
vn 0.757134 0.653218 0.000000
vn 0.655721 0.653218 -0.378552
vn 0.378582 0.653218 -0.655721
vn 0.000000 0.653218 -0.757134
vn -0.378582 0.653218 -0.655721
vn -0.757134 -0.653218 0.000000
vn -0.655721 -0.653218 -0.378552
vn -0.378582 -0.653218 -0.655721
vn 0.000000 -0.653218 -0.757134
vn 0.378582 -0.653218 -0.655721
vn 0.655721 -0.653218 -0.378552
vn 0.757134 -0.653218 0.000000
vn 0.655721 -0.653218 0.378552
vn 0.378552 -0.653218 0.655721
vn 0.000000 -0.653218 0.757134
vn -0.378552 -0.653218 0.655721
vn -0.655721 -0.653218 0.378552
usemtl None
s off
f 73//1 74//1 76//1 75//1
f 75//2 76//2 78//2 77//2
f 77//3 78//3 80//3 79//3
f 79//4 80//4 82//4 81//4
f 76//5 74//5 84//5 82//5 80//5 78//5
f 83//6 84//6 74//6 73//6
f 81//7 82//7 84//7 83//7
f 83//8 73//8 85//8 90//8
f 93//9 92//9 103//9 104//9
f 75//10 77//10 87//10 86//10
f 77//11 79//11 88//11 87//11
f 73//12 75//12 86//12 85//12
f 79//13 81//13 89//13 88//13
f 81//14 83//14 90//14 89//14
f 91//15 92//15 93//15 94//15 95//15 96//15
f 100//7 99//7 96//7 95//7
f 101//16 98//16 92//16 91//16
f 102//17 100//17 95//17 94//17
f 97//18 102//18 94//18 93//18
f 99//19 101//19 91//19 96//19
f 86//2 87//2 97//2 98//2
f 89//20 90//20 99//20 100//20
f 85//21 86//21 98//21 101//21
f 88//22 89//22 100//22 102//22
f 87//23 88//23 102//23 97//23
f 90//24 85//24 101//24 99//24
f 106//2 105//2 104//2 103//2
f 92//25 98//25 106//25 103//25
f 97//26 93//26 104//26 105//26
f 98//27 97//27 105//27 106//27
s 1
f 1//28 2//29 4//30 3//31
f 3//31 4//30 6//32 5//33
f 5//33 6//32 8//34 7//35
f 7//35 8//34 10//36 9//37
f 9//37 10//36 12//38 11//39
f 11//39 12//38 14//40 13//41
f 13//41 14//40 16//42 15//43
f 15//43 16//42 18//44 17//45
f 17//45 18//44 20//46 19//47
f 19//47 20//46 22//48 21//49
f 23//50 24//51 2//29 1//28
f 21//49 22//48 24//51 23//50
f 26//52 25//53 1//28 3//31
f 28//54 27//55 4//30 2//29
f 29//56 26//52 3//31 5//33
f 27//55 30//57 6//32 4//30
f 31//58 29//56 5//33 7//35
f 30//57 32//59 8//34 6//32
f 33//60 31//58 7//35 9//37
f 32//59 34//61 10//36 8//34
f 35//62 33//60 9//37 11//39
f 34//61 36//63 12//38 10//36
f 37//64 35//62 11//39 13//41
f 36//63 38//65 14//40 12//38
f 39//66 37//64 13//41 15//43
f 38//65 40//67 16//42 14//40
f 41//68 39//66 15//43 17//45
f 40//67 42//69 18//44 16//42
f 43//70 41//68 17//45 19//47
f 42//69 44//71 20//46 18//44
f 45//72 43//70 19//47 21//49
f 44//71 46//73 22//48 20//46
f 47//74 45//72 21//49 23//50
f 46//73 48//75 24//51 22//48
f 25//53 47//74 23//50 1//28
f 48//75 28//54 2//29 24//51
f 49//76 50//77 51//78 52//79 53//80 54//81 55//82 56//83 57//84 58//85 59//86 60//87
f 28//54 50//77 49//76 27//55
f 48//75 51//78 50//77 28//54
f 46//73 52//79 51//78 48//75
f 44//71 53//80 52//79 46//73
f 42//69 54//81 53//80 44//71
f 40//67 55//82 54//81 42//69
f 38//65 56//83 55//82 40//67
f 36//63 57//84 56//83 38//65
f 34//61 58//85 57//84 36//63
f 32//59 59//86 58//85 34//61
f 30//57 60//87 59//86 32//59
f 27//55 49//76 60//87 30//57
f 61//88 62//89 63//90 64//91 65//92 66//93 67//94 68//95 69//96 70//97 71//98 72//99
f 26//52 62//89 61//88 25//53
f 29//56 63//90 62//89 26//52
f 31//58 64//91 63//90 29//56
f 33//60 65//92 64//91 31//58
f 35//62 66//93 65//92 33//60
f 37//64 67//94 66//93 35//62
f 39//66 68//95 67//94 37//64
f 41//68 69//96 68//95 39//66
f 43//70 70//97 69//96 41//68
f 45//72 71//98 70//97 43//70
f 47//74 72//99 71//98 45//72
f 25//53 61//88 72//99 47//74
