# Blender v2.67 (sub 0) OBJ File: 'F4U_Propeller.blend'
# www.blender.org
mtllib F4U_propeller_output.mtl
o Cylinder.008
v 7.817170 4.951533 0.548295
v 7.817170 5.001983 0.544621
v 7.867319 5.002400 0.285524
v 7.867319 4.940615 0.290024
v 7.817170 5.048394 0.626537
v 7.867319 5.059238 0.385844
v 7.817170 4.914248 0.634526
v 7.867319 4.894956 0.395626
v 7.817169 4.891590 0.869489
v 7.867317 4.867208 0.683373
v 7.817169 4.888707 1.184770
v 7.867317 4.863677 1.069482
v 7.867317 4.946445 1.697801
v 7.817169 4.956291 1.697829
v 7.867319 5.043344 1.676117
v 7.817170 5.035416 1.680124
v 7.817170 5.085995 1.158116
v 7.867319 5.105286 1.036840
v 7.817170 5.074557 0.867639
v 7.867319 5.091280 0.681108
v 7.753530 4.974162 1.733963
v 7.397097 4.974162 1.733963
v 7.397098 5.000001 1.728522
v 7.753530 5.000001 1.728523
v 7.753528 4.950974 1.749458
v 7.397097 4.950974 1.749458
v 7.753528 4.935479 1.772647
v 7.397097 4.935479 1.772647
v 7.753528 4.930037 1.800000
v 7.397097 4.930038 1.800000
v 7.753528 4.935479 1.827354
v 7.397097 4.935479 1.827354
v 7.753528 4.950974 1.850542
v 7.397097 4.950974 1.850542
v 7.753528 4.974162 1.866037
v 7.397097 4.974162 1.866037
v 7.753530 5.000001 1.871478
v 7.397098 5.000001 1.871478
v 7.789005 4.903284 1.898230
v 7.789005 4.948353 1.928343
v 7.789005 4.862597 1.800000
v 7.789005 4.873171 1.853162
v 7.789005 4.903284 1.701770
v 7.789005 4.873171 1.746839
v 7.789007 5.000001 1.661082
v 7.789005 4.948353 1.671657
v 7.789007 5.000001 1.938918
v 7.922045 4.873171 1.746839
v 7.922045 4.903284 1.701770
v 7.942739 4.882656 1.681140
v 7.942739 4.846217 1.735674
v 7.922045 4.862597 1.800000
v 7.922045 4.873171 1.853162
v 7.922045 4.903284 1.898230
v 7.922045 4.948353 1.928343
v 7.922045 5.000001 1.661082
v 7.922045 4.948353 1.671657
v 7.922045 5.000001 1.938918
v 7.942739 5.000001 1.968093
v 7.942739 4.937188 1.955299
v 8.075778 4.959280 1.901964
v 8.075778 5.000001 1.910365
v 7.942739 4.833421 1.800000
v 7.942739 4.846217 1.864326
v 7.942739 4.882656 1.918860
v 7.942739 5.000001 1.631907
v 7.942739 4.937188 1.644702
v 8.075778 4.923475 1.878040
v 8.202905 4.986125 1.815390
v 8.202905 4.993186 1.820109
v 8.075778 4.959280 1.698037
v 8.075778 4.923475 1.721961
v 8.075778 4.899551 1.757765
v 8.075778 4.891150 1.800000
v 8.075778 4.899551 1.842235
v 8.075778 5.000001 1.689636
v 8.202905 5.000001 1.778235
v 8.202905 4.993186 1.779891
v 8.202905 5.000001 1.821765
v 8.202905 4.986125 1.784610
v 8.202905 4.981407 1.791672
v 8.202905 4.979749 1.800000
v 8.202905 4.981407 1.808330
v 7.397097 5.025839 1.733963
v 7.753530 5.025839 1.733963
v 7.397097 5.049029 1.749458
v 7.753530 5.049029 1.749458
v 7.397097 5.064523 1.772647
v 7.753530 5.064523 1.772647
v 7.397097 5.069964 1.800000
v 7.753530 5.069964 1.800000
v 7.397097 5.064523 1.827354
v 7.753530 5.064523 1.827354
v 7.397097 5.049029 1.850542
v 7.753530 5.049029 1.850542
v 7.397097 5.025839 1.866037
v 7.753530 5.025839 1.866037
v 7.789007 5.051647 1.928343
v 7.789007 5.096716 1.898230
v 7.789007 5.126830 1.853162
v 7.789007 5.137405 1.800000
v 7.789007 5.126830 1.746839
v 7.789007 5.096716 1.701770
v 7.789007 5.051647 1.671657
v 7.922045 5.126830 1.746839
v 7.942739 5.153784 1.735674
v 7.942739 5.117346 1.681140
v 7.922045 5.096716 1.701770
v 7.922045 5.126830 1.853162
v 7.922045 5.137405 1.800000
v 7.922045 5.096716 1.898230
v 7.922045 5.051647 1.928343
v 7.922045 5.051647 1.671657
v 8.075779 5.040721 1.901964
v 7.942739 5.062812 1.955299
v 7.942739 5.166579 1.800000
v 7.942739 5.153784 1.864326
v 7.942739 5.117346 1.918860
v 7.942739 5.062812 1.644702
v 8.202905 5.006815 1.820109
v 8.202905 5.013876 1.815390
v 8.075779 5.076525 1.878040
v 8.075779 5.076525 1.721961
v 8.075779 5.040721 1.698037
v 8.075779 5.100449 1.757765
v 8.075779 5.108850 1.800000
v 8.075779 5.100449 1.842235
v 8.202905 5.006815 1.779891
v 8.202905 5.013876 1.784610
v 8.202905 5.018593 1.791672
v 8.202905 5.020251 1.800000
v 8.202905 5.018593 1.808330
v 7.817170 6.126161 2.404925
v 7.817170 6.104117 2.450454
v 7.867320 6.328293 2.580363
v 7.867320 6.355289 2.524607
v 7.817170 6.009970 2.449688
v 7.867320 6.212995 2.579427
v 7.817170 6.070125 2.329521
v 7.867320 6.286665 2.432262
v 7.817169 5.877970 2.192417
v 7.867317 6.051342 2.264359
v 7.817169 5.606371 2.032279
v 7.867317 5.718728 2.068246
v 7.867317 5.133204 1.825764
v 7.817169 5.128256 1.834279
v 7.867319 5.103533 1.920524
v 7.817170 5.104029 1.911655
v 7.817170 5.530809 2.216463
v 7.867319 5.626191 2.293807
v 7.817170 5.788087 2.351796
v 7.867320 5.941269 2.459543
v 7.817170 3.930959 2.493865
v 7.817170 3.902551 2.452011
v 7.867319 3.677958 2.581199
v 7.867319 3.712748 2.632455
v 7.817170 3.950288 2.370859
v 7.867319 3.736418 2.481816
v 7.817170 4.024278 2.483040
v 7.867319 3.827032 2.619198
v 7.817169 4.239092 2.385181
v 7.867317 4.090102 2.499354
v 7.817169 4.513574 2.230038
v 7.867317 4.426248 2.309358
v 7.867317 4.929006 1.923521
v 7.817169 4.924106 1.914978
v 7.867319 4.861776 1.850446
v 7.817170 4.869210 1.855308
v 7.817170 4.391847 2.072508
v 7.867319 4.277175 2.116440
v 7.817170 4.146006 2.227651
v 7.867319 3.976105 2.306436
vn -0.979095 -0.165624 -0.117985
vn -0.983337 0.130161 -0.126682
vn 0.078799 0.370067 -0.925626
vn 0.081668 -0.468764 -0.879513
vn -0.892117 0.447188 -0.063906
vn 0.184210 0.888150 -0.420972
vn -0.906430 -0.419080 -0.052034
vn 0.207099 -0.916379 -0.342509
vn -0.854671 -0.519059 -0.009003
vn 0.422010 -0.903165 -0.078463
vn -0.771111 -0.632649 0.071535
vn 0.518021 -0.855312 0.009461
vn 0.527024 -0.533677 0.661367
vn -0.608539 -0.400708 0.684896
vn 0.567339 0.647938 0.508164
vn -0.616016 0.556383 0.557573
vn -0.757103 0.651204 0.051912
vn 0.531938 0.846553 -0.017548
vn -0.846156 0.532365 -0.024354
vn 0.451949 0.887478 -0.089908
vn -0.546434 -0.324442 -0.772057
vn -0.666799 -0.289010 -0.686880
vn -0.663503 0.000000 -0.748131
vn -0.549699 0.000000 -0.835353
vn -0.547502 -0.591693 -0.591693
vn -0.665700 -0.527635 -0.527635
vn -0.547502 -0.773064 -0.320200
vn -0.665700 -0.689383 -0.285531
vn -0.547533 -0.836756 0.000000
vn -0.665700 -0.746178 0.000000
vn -0.547533 -0.773064 0.320200
vn -0.665700 -0.689383 0.285562
vn -0.547502 -0.591662 0.591693
vn -0.665700 -0.527635 0.527635
vn -0.546434 -0.324442 0.772088
vn -0.666799 -0.289010 0.686880
vn -0.549699 0.000000 0.835322
vn -0.663503 0.000000 0.748131
vn -0.490371 -0.616230 0.616230
vn -0.490616 -0.335826 0.804041
vn -0.490371 -0.871487 0.000000
vn -0.490371 -0.805170 0.333476
vn -0.490371 -0.616230 -0.616230
vn -0.490371 -0.805170 -0.333476
vn -0.489883 0.000000 -0.871761
vn -0.490616 -0.335826 -0.804041
vn -0.489883 0.000000 0.871761
vn -0.483993 -0.808435 -0.334849
vn -0.483993 -0.618763 -0.618732
vn -0.250557 -0.684530 -0.684530
vn -0.250557 -0.894406 -0.370464
vn -0.483993 -0.875057 0.000000
vn -0.483993 -0.808435 0.334849
vn -0.483993 -0.618732 0.618763
vn -0.483505 -0.337230 0.807764
vn -0.485000 0.000000 -0.874508
vn -0.483505 -0.337230 -0.807764
vn -0.485000 0.000000 0.874508
vn -0.250252 0.000000 0.968169
vn -0.250710 -0.372692 0.893429
vn 0.481918 -0.338725 0.808069
vn 0.482559 0.000000 0.875851
vn -0.250557 -0.968078 0.000000
vn -0.250557 -0.894406 0.370464
vn -0.250557 -0.684530 0.684530
vn -0.250252 0.000000 -0.968169
vn -0.250710 -0.372692 -0.893429
vn 0.482131 -0.619465 0.619465
vn 0.571764 -0.580096 0.580096
vn 0.571276 -0.319712 0.755882
vn 0.481918 -0.338725 -0.808069
vn 0.482131 -0.619465 -0.619465
vn 0.482131 -0.809381 -0.335246
vn 0.482131 -0.876064 0.000000
vn 0.482131 -0.809381 0.335246
vn 0.482559 0.000000 -0.875851
vn 0.572680 0.000000 -0.819758
vn 0.571276 -0.319712 -0.755882
vn 0.572680 0.000000 0.819758
vn 0.571764 -0.580126 -0.580096
vn 0.571764 -0.757958 -0.313944
vn 0.571764 -0.820399 0.000000
vn 0.571764 -0.757958 0.313944
vn -0.666799 0.288980 -0.686880
vn -0.546434 0.324442 -0.772088
vn -0.665700 0.527635 -0.527635
vn -0.547533 0.591693 -0.591693
vn -0.665700 0.689383 -0.285531
vn -0.547502 0.773064 -0.320200
vn -0.665700 0.746178 0.000000
vn -0.547502 0.836756 0.000000
vn -0.665700 0.689383 0.285531
vn -0.547533 0.773064 0.320200
vn -0.665700 0.527635 0.527635
vn -0.547502 0.591662 0.591693
vn -0.666799 0.289010 0.686880
vn -0.546434 0.324442 0.772088
vn -0.490585 0.335826 0.804041
vn -0.490371 0.616230 0.616230
vn -0.490371 0.805139 0.333506
vn -0.490371 0.871487 0.000000
vn -0.490371 0.805170 -0.333506
vn -0.490371 0.616230 -0.616230
vn -0.490585 0.335826 -0.804041
vn -0.483993 0.808435 -0.334849
vn -0.250557 0.894406 -0.370464
vn -0.250557 0.684530 -0.684530
vn -0.483993 0.618732 -0.618732
vn -0.483993 0.808435 0.334849
vn -0.483993 0.875057 0.000000
vn -0.483993 0.618732 0.618763
vn -0.483505 0.337230 0.807733
vn -0.483505 0.337230 -0.807764
vn 0.481918 0.338725 0.808069
vn -0.250710 0.372692 0.893429
vn -0.250557 0.968078 0.000000
vn -0.250557 0.894406 0.370464
vn -0.250557 0.684530 0.684530
vn -0.250710 0.372692 -0.893429
vn 0.571306 0.319712 0.755882
vn 0.571764 0.580126 0.580096
vn 0.482131 0.619495 0.619465
vn 0.482131 0.619465 -0.619465
vn 0.481918 0.338725 -0.808069
vn 0.482131 0.809381 -0.335246
vn 0.482131 0.876064 0.000000
vn 0.482131 0.809381 0.335246
vn 0.571276 0.319712 -0.755882
vn 0.571764 0.580126 -0.580096
vn 0.571764 0.757927 -0.313944
vn 0.571764 0.820399 0.000000
vn 0.571764 0.757927 0.313944
vn -0.979095 0.185003 -0.084445
vn -0.983337 0.044618 0.176061
vn 0.078799 0.616596 0.783288
vn 0.081668 0.996063 0.033753
vn -0.892117 -0.168218 0.419263
vn 0.184210 -0.079501 0.979644
vn -0.906430 0.254616 -0.336924
vn 0.207099 0.754814 -0.622333
vn -0.854671 0.267312 -0.445021
vn 0.422010 0.519547 -0.742943
vn -0.771111 0.254341 -0.583667
vn 0.518021 0.419446 -0.745445
vn 0.526994 -0.305918 -0.792871
vn -0.608539 -0.392773 -0.689474
vn 0.567339 -0.764061 0.307047
vn -0.616016 -0.761071 0.203040
vn -0.757103 -0.370556 0.538011
vn 0.531968 -0.408063 0.741935
vn -0.846126 -0.245064 0.473220
vn 0.451949 -0.365856 0.813532
vn -0.979095 -0.019349 0.202429
vn -0.983337 -0.174810 -0.049379
vn 0.078799 -0.986663 0.142338
vn 0.081668 -0.527268 0.845729
vn -0.892117 -0.278970 -0.355327
vn 0.184210 -0.808649 -0.558672
vn -0.906430 0.164464 0.388958
vn 0.207099 0.161534 0.964873
vn -0.854671 0.251717 0.454024
vn 0.422010 0.383618 0.821406
vn -0.771111 0.378277 0.512101
vn 0.518021 0.435835 0.735984
vn 0.527024 0.839595 0.131504
vn -0.608509 0.793481 0.004547
vn 0.567339 0.116092 -0.815210
vn -0.616016 0.204688 -0.760643
vn -0.757073 -0.280618 -0.589923
vn 0.531968 -0.438490 -0.724357
vn -0.846156 -0.287271 -0.448866
vn 0.451949 -0.521592 -0.723624
usemtl None
s 1
f 1//1 2//2 3//3 4//4
f 2//2 5//5 6//6 3//3
f 7//7 1//1 4//4 8//8
f 9//9 7//7 8//8 10//10
f 11//11 9//9 10//10 12//12
f 12//12 13//13 14//14 11//11
f 13//13 15//15 16//16 14//14
f 17//17 16//16 15//15 18//18
f 19//19 17//17 18//18 20//20
f 5//5 19//19 20//20 6//6
f 1//1 7//7 5//5 2//2
f 19//19 5//5 7//7 9//9
f 17//17 19//19 9//9 11//11
f 16//16 17//17 11//11 14//14
f 13//13 12//12 18//18 15//15
f 12//12 10//10 20//20 18//18
f 10//10 8//8 6//6 20//20
f 8//8 4//4 3//3 6//6
f 21//21 22//22 23//23 24//24
f 22//22 21//21 25//25 26//26
f 26//26 25//25 27//27 28//28
f 28//28 27//27 29//29 30//30
f 30//30 29//29 31//31 32//32
f 32//32 31//31 33//33 34//34
f 34//34 33//33 35//35 36//36
f 36//36 35//35 37//37 38//38
f 35//35 33//33 39//39 40//40
f 31//31 29//29 41//41 42//42
f 27//27 25//25 43//43 44//44
f 21//21 24//24 45//45 46//46
f 37//37 35//35 40//40 47//47
f 33//33 31//31 42//42 39//39
f 29//29 27//27 44//44 41//41
f 25//25 21//21 46//46 43//43
f 48//48 49//49 50//50 51//51
f 42//42 41//41 52//52 53//53
f 39//39 42//42 53//53 54//54
f 40//40 39//39 54//54 55//55
f 46//46 45//45 56//56 57//57
f 47//47 40//40 55//55 58//58
f 43//43 46//46 57//57 49//49
f 44//44 43//43 49//49 48//48
f 41//41 44//44 48//48 52//52
f 59//59 60//60 61//61 62//62
f 52//52 48//48 51//51 63//63
f 53//53 52//52 63//63 64//64
f 54//54 53//53 64//64 65//65
f 55//55 54//54 65//65 60//60
f 57//57 56//56 66//66 67//67
f 58//58 55//55 60//60 59//59
f 49//49 57//57 67//67 50//50
f 61//61 68//68 69//69 70//70
f 50//50 67//67 71//71 72//72
f 51//51 50//50 72//72 73//73
f 63//63 51//51 73//73 74//74
f 64//64 63//63 74//74 75//75
f 65//65 64//64 75//75 68//68
f 60//60 65//65 68//68 61//61
f 67//67 66//66 76//76 71//71
f 71//71 76//76 77//77 78//78
f 62//62 61//61 70//70 79//79
f 72//72 71//71 78//78 80//80
f 73//73 72//72 80//80 81//81
f 74//74 73//73 81//81 82//82
f 75//75 74//74 82//82 83//83
f 68//68 75//75 83//83 69//69
f 23//23 84//84 85//85 24//24
f 84//84 86//86 87//87 85//85
f 86//86 88//88 89//89 87//87
f 88//88 90//90 91//91 89//89
f 90//90 92//92 93//93 91//91
f 92//92 94//94 95//95 93//93
f 94//94 96//96 97//97 95//95
f 96//96 38//38 37//37 97//97
f 97//97 98//98 99//99 95//95
f 93//93 100//100 101//101 91//91
f 89//89 102//102 103//103 87//87
f 85//85 104//104 45//45 24//24
f 37//37 47//47 98//98 97//97
f 95//95 99//99 100//100 93//93
f 91//91 101//101 102//102 89//89
f 87//87 103//103 104//104 85//85
f 105//105 106//106 107//107 108//108
f 100//100 109//109 110//110 101//101
f 99//99 111//111 109//109 100//100
f 98//98 112//112 111//111 99//99
f 104//104 113//113 56//56 45//45
f 47//47 58//58 112//112 98//98
f 103//103 108//108 113//113 104//104
f 102//102 105//105 108//108 103//103
f 101//101 110//110 105//105 102//102
f 59//59 62//62 114//114 115//115
f 110//110 116//116 106//106 105//105
f 109//109 117//117 116//116 110//110
f 111//111 118//118 117//117 109//109
f 112//112 115//115 118//118 111//111
f 113//113 119//119 66//66 56//56
f 58//58 59//59 115//115 112//112
f 108//108 107//107 119//119 113//113
f 114//114 120//120 121//121 122//122
f 107//107 123//123 124//124 119//119
f 106//106 125//125 123//123 107//107
f 116//116 126//126 125//125 106//106
f 117//117 127//127 126//126 116//116
f 118//118 122//122 127//127 117//117
f 115//115 114//114 122//122 118//118
f 119//119 124//124 76//76 66//66
f 124//124 128//128 77//77 76//76
f 62//62 79//79 120//120 114//114
f 123//123 129//129 128//128 124//124
f 125//125 130//130 129//129 123//123
f 126//126 131//131 130//130 125//125
f 127//127 132//132 131//131 126//126
f 122//122 121//121 132//132 127//127
f 92//92 90//90 88//88
f 94//94 92//92 88//88
f 94//94 88//88 86//86
f 96//96 94//94 86//86
f 84//84 96//96 86//86
f 84//84 38//38 96//96
f 84//84 23//23 38//38
f 23//23 36//36 38//38
f 23//23 22//22 36//36
f 22//22 26//26 36//36
f 26//26 34//34 36//36
f 26//26 28//28 34//34
f 28//28 32//32 34//34
f 28//28 30//30 32//32
f 133//133 134//134 135//135 136//136
f 134//134 137//137 138//138 135//135
f 139//139 133//133 136//136 140//140
f 141//141 139//139 140//140 142//142
f 143//143 141//141 142//142 144//144
f 144//144 145//145 146//146 143//143
f 145//145 147//147 148//148 146//146
f 149//149 148//148 147//147 150//150
f 151//151 149//149 150//150 152//152
f 137//137 151//151 152//152 138//138
f 133//133 139//139 137//137 134//134
f 151//151 137//137 139//139 141//141
f 149//149 151//151 141//141 143//143
f 148//148 149//149 143//143 146//146
f 145//145 144//144 150//150 147//147
f 144//144 142//142 152//152 150//150
f 142//142 140//140 138//138 152//152
f 140//140 136//136 135//135 138//138
f 153//153 154//154 155//155 156//156
f 154//154 157//157 158//158 155//155
f 159//159 153//153 156//156 160//160
f 161//161 159//159 160//160 162//162
f 163//163 161//161 162//162 164//164
f 164//164 165//165 166//166 163//163
f 165//165 167//167 168//168 166//166
f 169//169 168//168 167//167 170//170
f 171//171 169//169 170//170 172//172
f 157//157 171//171 172//172 158//158
f 153//153 159//159 157//157 154//154
f 171//171 157//157 159//159 161//161
f 169//169 171//171 161//161 163//163
f 168//168 169//169 163//163 166//166
f 165//165 164//164 170//170 167//167
f 164//164 162//162 172//172 170//170
f 162//162 160//160 158//158 172//172
f 160//160 156//156 155//155 158//158
