# Blender v2.64 (sub 0) OBJ File: 'F:A-18E_Super Hornet_AGM84Harpoon.blend'
# www.blender.org
mtllib F:A-18E_Super Hornet_AGM84_R.mtl
o Right_Cylinder.004
v 1.3088 -0.0991589999999998 -0.115561
v 1.590347 -0.323934 -0.33428
v 1.999243 -0.323934 -0.33428
v 2.287104 -0.0991599999999999 -0.115562
v 1.3088 -0.114314 -0.100406
v 1.590347 -0.333033 -0.325181
v 1.999243 -0.333033 -0.325181
v 2.287104 -0.114314 -0.100407
v 1.3088 0.116809 0.100407
v 1.590347 0.335528 0.325182
v 1.999244 0.335528 0.325182
v 2.287104 0.116809 0.100407
v 1.3088 0.101654 0.115563
v 1.590347 0.326429 0.334281
v 1.999244 0.326429 0.334281
v 2.287104 0.101654 0.115562
v 1.3088 -0.116809 0.100407
v 1.590347 -0.335528 0.325182
v 1.999244 -0.335528 0.325182
v 2.287104 -0.116809 0.100407
v 1.3088 -0.101654 0.115562
v 1.590347 -0.326429 0.334281
v 1.999244 -0.326429 0.334281
v 2.287104 -0.101654 0.115562
v 1.3088 0.0991599999999999 -0.115561
v 1.590347 0.323935 -0.33428
v 1.999243 0.323935 -0.33428
v 2.287104 0.0991599999999999 -0.115562
v 1.3088 0.114315 -0.100406
v 1.590347 0.333034 -0.325181
v 1.999243 0.333034 -0.325181
v 2.287104 0.114315 -0.100407
v 0 0.159083 0.00124899999999983
v 3.5572 0.137408 0.00124599999999986
v 0 0.112489 -0.11124
v 3.5572 0.097162 -0.0959150000000002
v 0 0 -0.157834
v 3.5572 0 -0.136161
v 0 -0.112488 -0.11124
v 3.5572 -0.097162 -0.0959150000000002
v 0 -0.159083 0.00124899999999983
v 3.5572 -0.137407 0.00124599999999986
v 0 -0.112488 0.113738
v 3.557201 -0.097162 0.0984079999999998
v 0 0 0.160332
v 3.557201 0 0.138654
v 0 0.112489 0.113738
v 3.557201 0.097162 0.0984079999999998
v 4.023364 0.159083 0.00124599999999986
v 4.023363 0.112489 -0.111243
v 4.023363 0 -0.157837
v 4.023363 -0.112488 -0.111243
v 4.023364 -0.159083 0.00124599999999986
v 4.023364 -0.112488 0.113735
v 4.023364 0 0.160329
v 4.023364 0.112489 0.113735
v 4.289239 0.104631 0.00124599999999986
v 4.289239 0.073985 -0.0727390000000001
v 4.289239 0 -0.103385
v 4.289239 -0.073985 -0.0727390000000001
v 4.289239 -0.104631 0.00124599999999986
v 4.289239 -0.073985 0.0752309999999998
v 4.289239 0 0.105877
v 4.289239 0.073985 0.0752309999999998
v 4.388169 0.0601910000000001 0.00124599999999986
v 4.388169 0.0425620000000002 -0.0413160000000001
v 4.388169 0 -0.058945
v 4.388169 -0.0425610000000001 -0.0413160000000001
v 4.388169 -0.0601910000000001 0.00124599999999986
v 4.388169 -0.0425610000000001 0.0438069999999999
v 4.388169 0 0.061437
v 4.388169 0.0425620000000002 0.0438069999999999
v 4.45 0.0164180000000003 0.00124599999999986
v 4.45 0.011609 -0.0103630000000001
v 4.45 0 -0.0151720000000002
v 4.45 -0.011609 -0.0103630000000001
v 4.45 -0.0164170000000001 0.00124599999999986
v 4.45 -0.011609 0.0128549999999998
v 4.45 0 0.017663
v 4.45 0.011609 0.0128549999999998
v 3.561486 -0.112488 0.113735
v 3.561486 0 0.160329
v 3.561486 0.112489 0.113735
v 3.561485 0.159083 0.00124599999999986
v 3.561485 0.112489 -0.111242
v 3.561485 0 -0.157837
v 3.561485 -0.112488 -0.111242
v 3.561485 -0.159083 0.00124599999999986
v 3.526051 0.159083 0.00124599999999986
v 3.526051 0.112489 -0.111242
v 3.526051 0 -0.157837
v 3.526051 -0.112488 -0.111242
v 3.526051 -0.159083 0.00124599999999986
v 3.526051 -0.112488 0.113735
v 3.526051 0 0.160329
v 3.526051 0.112489 0.113735
v 3.53335 -0.097162 -0.0959150000000002
v 3.53335 0 -0.136161
v 3.53335 0.097162 -0.0959150000000002
v 3.53335 0.137408 0.00124599999999986
v 3.53335 0.097162 0.0984079999999998
v 3.53335 0 0.138654
v 3.53335 -0.097162 0.0984079999999998
v 3.53335 -0.137407 0.00124599999999986
v 0.090236 -0.0415329999999998 0.0510629999999999
v 0.0900340000000002 -0.270606 0.280136
v 0.304886 -0.268046 0.277576
v 0.510717 -0.0440929999999997 0.0536219999999998
v 0.090236 -0.0460799999999999 0.0465149999999999
v 0.0900340000000002 -0.275153 0.275588
v 0.304886 -0.272593 0.273028
v 0.510717 -0.0486399999999998 0.049075
v 0.090236 0.0498150000000002 -0.0402850000000001
v 0.0900340000000002 0.278887 -0.269357
v 0.304886 0.276328 -0.266798
v 0.510717 0.0523739999999999 -0.042845
v 0.090236 0.0452669999999999 -0.0448320000000002
v 0.0900340000000002 0.27434 -0.273905
v 0.304886 0.27178 -0.271345
v 0.510717 0.0478270000000003 -0.0473920000000001
v 0.084352 0.0491640000000002 0.0553409999999999
v 0.084149 0.278237 0.284414
v 0.299002 0.275677 0.281854
v 0.504832 0.0517240000000001 0.0578999999999998
v 0.084352 0.0432809999999999 0.0612239999999999
v 0.084149 0.272354 0.290297
v 0.299002 0.269794 0.287737
v 0.504832 0.0458400000000001 0.0637829999999999
v 0.0843510000000003 -0.0540919999999998 -0.0479150000000002
v 0.084149 -0.283165 -0.276988
v 0.299001 -0.280605 -0.274428
v 0.504832 -0.0566520000000001 -0.050475
v 0.0843510000000003 -0.0599750000000001 -0.0420320000000001
v 0.084149 -0.289048 -0.271105
v 0.299001 -0.286488 -0.268545
v 0.504832 -0.062535 -0.0445920000000002
vn -0.762444 -0.149663 0.629475
vn -0.762444 0.629475 -0.149663
vn -0.31724 -0.067934 -0.945891
vn -0.31724 -0.945891 -0.067934
vn 0.312998 -0.068056 -0.947295
vn 0.312998 -0.947295 -0.068056
vn 0.764489 0.626331 -0.152348
vn 0.764489 -0.152348 0.626331
vn -0.762444 -0.629475 0.149663
vn -0.31724 0.067934 0.945891
vn -0.31724 0.945891 0.067904
vn -0.762444 0.149663 -0.629475
vn 0.312998 0.068056 0.947295
vn 0.312998 0.947295 0.068056
vn 0.764489 -0.626331 0.152348
vn 0.764489 0.152348 -0.626331
vn -0.762444 0.629475 0.149663
vn -0.762444 -0.149663 -0.629475
vn -0.31724 -0.945891 0.067904
vn -0.31724 -0.067934 0.945891
vn 0.312998 -0.947295 0.068056
vn 0.312998 -0.068056 0.947295
vn 0.764489 -0.152348 -0.626331
vn 0.764489 0.626331 0.152348
vn -0.762444 0.149663 0.629475
vn -0.31724 0.945891 -0.067934
vn -0.31724 0.067934 -0.945891
vn -0.762444 -0.629475 -0.149663
vn 0.312998 0.947295 -0.068056
vn 0.312998 0.068056 -0.947295
vn 0.764489 0.152348 0.626331
vn 0.764489 -0.626331 -0.152348
vn 0.661977 0.749474 0
vn -0.722617 0.691214 0
vn -0.722617 0.488754 -0.488754
vn 0.662008 0.529954 -0.529954
vn -0.722617 0 -0.691214
vn 0.662008 0 -0.749474
vn -0.722617 -0.488754 -0.488754
vn 0.662008 -0.529954 -0.529954
vn -0.722617 -0.691214 0
vn 0.661977 -0.749474 0
vn -0.722617 -0.488754 0.488754
vn 0.661977 -0.529954 0.529954
vn -0.722617 0 0.691214
vn 0.661977 0 0.749474
vn -0.567949 0 0.823023
vn -0.567949 -0.581957 0.581957
vn 0.098453 -0.703665 0.703665
vn 0.098453 0 0.995117
vn 0.661977 0.529954 0.529954
vn -0.722617 0.488754 0.488754
vn 0.098422 0.703665 -0.703665
vn 0.098453 0.995117 0
vn 0.299478 0.95407 0
vn 0.299478 0.674642 -0.674642
vn -0.567949 0.581957 0.581957
vn 0.098453 0.703665 0.703665
vn -0.567949 0.823023 0
vn -0.56798 0 -0.823023
vn -0.567949 0.581957 -0.581957
vn 0.098422 0 -0.995117
vn -0.567949 -0.581957 -0.581957
vn 0.098422 -0.703665 -0.703665
vn -0.567949 -0.823023 0
vn 0.098453 -0.995117 0
vn 0.299478 0 -0.95407
vn 0.48616 0.617908 -0.617908
vn 0.48616 0 -0.873836
vn 0.299478 -0.674642 -0.674642
vn 0.299478 -0.95407 0
vn 0.299478 0 0.95407
vn 0.299478 0.674642 0.674642
vn 0.299478 -0.674642 0.674642
vn 0.48616 -0.617908 -0.617908
vn 0.841456 0 -0.5403
vn 0.841456 -0.382031 -0.382031
vn 0.48616 -0.873836 0
vn 0.48616 -0.617908 0.617908
vn 0.48616 0.617908 0.617908
vn 0.48616 0.873836 0
vn 0.48616 0 0.873836
vn 0.841456 0.382031 -0.382031
vn 0.841456 0.5403 0
vn 0.841456 0.382031 0.382031
vn 0.841456 0 0.5403
vn 0.841456 -0.382031 0.382031
vn 0.841456 -0.5403 0
vn -0.630238 0.548967 0.548967
vn -0.630238 0.77636 0
vn -0.630238 0.548967 -0.548967
vn -0.630238 0 -0.77636
vn -0.630238 0 0.77636
vn -0.630238 -0.548967 0.548967
vn -0.630238 -0.548967 -0.548967
vn -0.630238 -0.77636 0
vn 0.524247 0.851558 0
vn 0.524247 0.60213 -0.60213
vn 0.524247 0 -0.851527
vn 0.524247 -0.60213 -0.60213
vn 0.524247 -0.851558 0
vn 0.524247 -0.60213 0.60213
vn 0.524247 0 0.851558
vn 0.524247 0.60213 0.60213
vn -0.574877 0.002319 -0.818201
vn -0.573077 -0.819453 0.004242
vn -0.573077 -0.004273 0.819453
vn -0.574877 0.818201 -0.002319
vn 0.381909 -0.922666 0.052767
vn 0.381909 -0.052767 0.922666
vn 0.733848 -0.11243 -0.669912
vn 0.733848 0.669912 0.11243
vn -0.574877 -0.818201 0.002319
vn -0.574877 -0.002319 0.818201
vn -0.573077 0.819453 -0.004242
vn -0.573077 0.004242 -0.819453
vn 0.381909 0.922666 -0.052767
vn 0.381909 0.052767 -0.922666
vn 0.733848 0.11243 0.669912
vn 0.733848 -0.669912 -0.11243
vn -0.574877 -0.818201 -0.002319
vn -0.573077 0.004242 0.819453
vn -0.573077 0.819453 0.004242
vn -0.574877 -0.002319 -0.818201
vn 0.381909 0.052767 0.922666
vn 0.381909 0.922666 0.052767
vn 0.733848 -0.669912 0.11243
vn 0.733848 0.11243 -0.669912
vn -0.574877 0.002319 0.818201
vn -0.574877 0.818232 0.002319
vn -0.573077 -0.004242 -0.819453
vn -0.573077 -0.819453 -0.004242
vn 0.381909 -0.052767 -0.922666
vn 0.381909 -0.922666 -0.052767
vn 0.733848 0.669912 -0.11243
vn 0.733818 -0.11243 0.669942
usemtl Material.003
s 1
f 5//1 1//2 2//3 6//4
f 6//4 2//3 3//5 7//6
f 7//6 3//5 4//7 8//8
f 1//2 5//1 8//8 4//7
f 1//2 4//7 3//5 2//3
f 8//8 5//1 6//4 7//6
f 13//9 14//10 10//11 9//12
f 14//10 15//13 11//14 10//11
f 15//13 16//15 12//16 11//14
f 16//15 13//9 9//12 12//16
f 9//12 10//11 11//14 12//16
f 16//15 15//13 14//10 13//9
f 21//17 17//18 18//19 22//20
f 22//20 18//19 19//21 23//22
f 23//22 19//21 20//23 24//24
f 24//24 20//23 17//18 21//17
f 17//18 20//23 19//21 18//19
f 24//24 21//17 22//20 23//22
f 29//25 30//26 26//27 25//28
f 30//26 31//29 27//30 26//27
f 31//29 32//31 28//32 27//30
f 32//31 29//25 25//28 28//32
f 25//28 26//27 27//30 28//32
f 32//31 31//29 30//26 29//25
f 100//33 34//34 36//35 99//36
f 99//36 36//35 38//37 98//38
f 98//38 38//37 40//39 97//40
f 97//40 40//39 42//41 104//42
f 104//42 42//41 44//43 103//44
f 103//44 44//43 46//45 102//46
f 82//47 81//48 54//49 55//50
f 101//51 48//52 34//34 100//33
f 102//46 46//45 48//52 101//51
f 50//53 49//54 57//55 58//56
f 83//57 82//47 55//50 56//58
f 84//59 83//57 56//58 49//54
f 86//60 85//61 50//53 51//62
f 87//63 86//60 51//62 52//64
f 85//61 84//59 49//54 50//53
f 88//65 87//63 52//64 53//66
f 81//48 88//65 53//66 54//49
f 59//67 58//56 66//68 67//69
f 53//66 52//64 60//70 61//71
f 56//58 55//50 63//72 64//73
f 52//64 51//62 59//67 60//70
f 55//50 54//49 62//74 63//72
f 51//62 50//53 58//56 59//67
f 54//49 53//66 61//71 62//74
f 49//54 56//58 64//73 57//55
f 68//75 67//69 75//76 76//77
f 62//74 61//71 69//78 70//79
f 57//55 64//73 72//80 65//81
f 58//56 57//55 65//81 66//68
f 61//71 60//70 68//75 69//78
f 64//73 63//72 71//82 72//80
f 60//70 59//67 67//69 68//75
f 63//72 62//74 70//79 71//82
f 74//83 73//84 80//85
f 74//83 80//85 75//76
f 80//85 79//86 75//76
f 79//86 78//87 75//76
f 78//87 76//77 75//76
f 78//87 77//88 76//77
f 71//82 70//79 78//87 79//86
f 67//69 66//68 74//83 75//76
f 70//79 69//78 77//88 78//87
f 65//81 72//80 80//85 73//84
f 66//68 65//81 73//84 74//83
f 69//78 68//75 76//77 77//88
f 72//80 71//82 79//86 80//85
f 47//89 33//90 35//91
f 47//89 35//91 37//92
f 47//89 37//92 45//93
f 37//92 43//94 45//93
f 37//92 39//95 43//94
f 39//95 41//96 43//94
f 46//45 44//43 81//48 82//47
f 48//52 46//45 82//47 83//57
f 34//34 48//52 83//57 84//59
f 38//37 36//35 85//61 86//60
f 40//39 38//37 86//60 87//63
f 36//35 34//34 84//59 85//61
f 42//41 40//39 87//63 88//65
f 44//43 42//41 88//65 81//48
f 33//90 89//97 90//98 35//91
f 35//91 90//98 91//99 37//92
f 37//92 91//99 92//100 39//95
f 39//95 92//100 93//101 41//96
f 41//96 93//101 94//102 43//94
f 43//94 94//102 95//103 45//93
f 47//89 96//104 89//97 33//90
f 45//93 95//103 96//104 47//89
f 93//101 104//42 103//44 94//102
f 96//104 101//51 100//33 89//97
f 91//99 98//38 97//40 92//100
f 94//102 103//44 102//46 95//103
f 89//97 100//33 99//36 90//98
f 92//100 97//40 104//42 93//101
f 90//98 99//36 98//38 91//99
f 95//103 102//46 101//51 96//104
f 109//105 110//106 106//107 105//108
f 110//106 111//109 107//110 106//107
f 111//109 112//111 108//112 107//110
f 112//111 109//105 105//108 108//112
f 105//108 106//107 107//110 108//112
f 112//111 111//109 110//106 109//105
f 117//113 113//114 114//115 118//116
f 118//116 114//115 115//117 119//118
f 119//118 115//117 116//119 120//120
f 120//120 116//119 113//114 117//113
f 113//114 116//119 115//117 114//115
f 120//120 117//113 118//116 119//118
f 125//121 126//122 122//123 121//124
f 126//122 127//125 123//126 122//123
f 127//125 128//127 124//128 123//126
f 128//127 125//121 121//124 124//128
f 121//124 122//123 123//126 124//128
f 128//127 127//125 126//122 125//121
f 133//129 129//130 130//131 134//132
f 134//132 130//131 131//133 135//134
f 135//134 131//133 132//135 136//136
f 136//136 132//135 129//130 133//129
f 129//130 132//135 131//133 130//131
f 136//136 133//129 134//132 135//134
