# RokuSuper Output Ver2.0 for Wavefront Obj

v 5.75243900 6.34293100 0.55932400
v 5.75487400 6.20799200 0.55703500
v 5.86478100 6.20799200 0.41056900
v 5.86002100 6.34293100 0.41240900
v 5.75487400 6.47787000 0.55703500
v 5.86478100 6.47787000 0.41056900
v 4.93706500 6.33494100 1.53916900
v 5.35818200 6.33313800 0.67216100
v 5.35818200 6.34293100 0.67216100
v 4.93706500 6.34293100 1.53916900
v 5.70911400 6.41192300 0.61849000
v 5.70911400 6.34293100 0.61849000
v 5.98225400 6.34293100 0.24548600
v 5.98225400 6.20799200 0.24548600
v 6.24099500 6.20799200 0.24548600
v 6.32083600 6.34293100 0.24548600
v 5.66031800 6.28236900 1.53504000
v 5.31689600 6.29306400 1.53504000
v 5.31689600 6.34293100 1.53504000
v 5.03615100 6.34293100 1.53916900
v 5.03615100 6.32415200 1.53916900
v 5.45726900 6.31991100 0.63087500
v 5.45726900 6.34293100 0.63087500
v 5.35818200 6.35272400 0.67216100
v 5.45726900 6.36595100 0.63087500
v 4.93706500 6.35092000 1.53916900
v 5.03615100 6.36170900 1.53916900
v 5.70911400 6.27393800 0.61849000
v 5.31689600 6.39279700 1.53504000
v 5.74227400 6.34293100 1.53504000
v 5.66031800 6.40349200 1.53504000
v 6.00712100 6.45131500 0.67216200
v 6.08494900 6.34293100 0.68867600
v 6.00712100 6.23454700 0.67216200
v 6.08670700 6.47787000 0.61070700
v 6.17889100 6.34293100 0.61070700
v 6.08670700 6.20799200 0.61070700
v 6.23588100 6.47787000 0.41056900
v 6.32083600 6.34293100 0.41056900
v 6.23588100 6.20799200 0.41056900
v 5.98225400 6.47787000 0.24548600
v 6.24099500 6.47787000 0.24548600
v 5.98286500 6.27553900 0.32165100
v 5.81780900 6.27553900 0.54883200
v 5.98286500 6.27553900 0.60246200
v 6.14792200 6.27553900 0.54883200
v 6.24993300 6.27553900 0.40842600
v 6.24993300 6.27553900 0.23487600
v 6.14792200 6.27553900 0.09447000
v 5.98286500 6.27553900 0.04084000
v 5.81780900 6.27553900 0.09447000
v 5.71579800 6.27553900 0.23487600
v 5.71579800 6.27553900 0.40842600
v 5.98286500 6.40832100 0.32165100
v 5.98286500 6.40832100 0.60246200
v 5.81780900 6.40832100 0.54883200
v 6.14792200 6.40832100 0.54883200
v 6.24993300 6.40832100 0.40842600
v 6.24993300 6.40832100 0.23487600
v 6.14792200 6.40832100 0.09447000
v 5.98286500 6.40832100 0.04084000
v 5.81780900 6.40832100 0.09447000
v 5.71579800 6.40832100 0.23487600
v 5.71579800 6.40832100 0.40842600

vn -0.80364086 -0.00966678 -0.59503606
vn -0.80563889 0.00252721 -0.59240154
vn -0.80694461 0.00452652 -0.59060977
vn -0.80720422 -0.02043028 -0.58991860
vn -0.80563889 0.00252721 -0.59240154
vn -0.80291836 0.00292980 -0.59608181
vn -0.80704175 0.01126401 -0.59038694
vn -0.80694461 0.00452652 -0.59060977
vn -0.68653756 0.00000000 -0.72709434
vn -0.89950864 0.00000000 -0.43690298
vn -0.89950864 0.00000000 -0.43690298
vn -0.68653756 0.00000000 -0.72709434
vn -0.47321798 0.00062799 -0.88094514
vn -0.32779340 0.00000000 -0.94474943
vn -0.80291836 0.00292980 -0.59608181
vn -0.80563889 0.00252721 -0.59240154
vn -0.60522579 -0.00161692 -0.79605222
vn -0.47321798 0.00062799 -0.88094514
vn -0.80563889 0.00252721 -0.59240154
vn -0.80364086 -0.00966678 -0.59503606
vn -0.80694461 0.00452652 -0.59060977
vn -0.45382049 0.00286179 -0.89108853
vn -0.45531297 -0.00584955 -0.89031224
vn -0.80720422 -0.02043028 -0.58991860
vn 0.00000000 0.00000000 -1.00000000
vn 0.00000000 0.00000000 -1.00000000
vn -0.45531297 -0.00584955 -0.89031224
vn -0.45382049 0.00286179 -0.89108853
vn 0.00735305 0.00000000 0.99997297
vn 0.00000000 0.00000000 1.00000000
vn 0.00000000 0.00000000 1.00000000
vn 0.00735305 0.00000000 0.99997297
vn 0.00000000 0.00000000 1.00000000
vn 0.00000000 0.00000000 1.00000000
vn 0.00490202 0.00000000 0.99998799
vn 0.00735305 0.00000000 0.99997297
vn -0.13590198 -0.98881334 -0.06147227
vn -0.16352867 -0.98349900 -0.07738274
vn -0.15158903 -0.98612028 -0.06773145
vn -0.13390129 -0.98969300 -0.05077600
vn -0.68653756 0.00000000 -0.72709434
vn -0.68653756 0.00000000 -0.72709434
vn -0.22014511 0.00000000 -0.97546713
vn -0.16310767 0.00000000 -0.98660828
vn -0.68653756 0.00000000 -0.72709434
vn -0.77217318 0.00000000 -0.63541213
vn -0.27643904 0.00000000 -0.96103146
vn -0.22014511 0.00000000 -0.97546713
vn -0.13436809 0.98910373 -0.06015837
vn -0.10810762 0.99285860 -0.05044341
vn -0.12646035 0.99040892 -0.05565926
vn -0.15112576 0.98681220 -0.05798875
vn 0.00000000 0.00000000 1.00000000
vn 0.00000000 0.00000000 1.00000000
vn 0.00735305 0.00000000 0.99997297
vn 0.00980404 0.00000000 0.99995194
vn 0.00735305 0.00000000 0.99997297
vn 0.00490202 0.00000000 0.99998799
vn 0.00735305 0.00000000 0.99997297
vn 0.00735305 0.00000000 0.99997297
vn -0.13390129 -0.98969300 -0.05077600
vn -0.15158903 -0.98612028 -0.06773145
vn -0.13974721 -0.98373407 0.11286276
vn -0.07083337 -0.99744295 -0.00949760
vn -0.16310767 0.00000000 -0.98660828
vn -0.22014511 0.00000000 -0.97546713
vn -0.47321798 0.00062799 -0.88094514
vn -0.60522579 -0.00161692 -0.79605222
vn -0.22014511 0.00000000 -0.97546713
vn -0.27643904 0.00000000 -0.96103146
vn -0.32779340 0.00000000 -0.94474943
vn -0.47321798 0.00062799 -0.88094514
vn -0.15112576 0.98681220 -0.05798875
vn -0.12646035 0.99040892 -0.05565926
vn -0.11247281 0.99337519 -0.02357111
vn -0.15382944 0.96518626 0.21154665
vn 0.00980404 0.00000000 0.99995194
vn 0.00735305 0.00000000 0.99997297
vn 0.00735305 0.00000000 0.99997297
vn 0.00735305 0.00000000 0.99997297
vn 0.46695433 0.85646172 0.22006130
vn 0.57780362 0.78193018 0.23394054
vn 0.76857284 0.09161443 0.63316869
vn 0.29280498 0.86922536 0.39838738
vn 0.66724451 -0.68567253 0.29092599
vn 0.14569083 -0.98421049 0.10051816
vn 0.24622833 -0.85796583 0.45085058
vn 0.76857284 0.09161443 0.63316869
vn 0.14569083 -0.98421049 0.10051816
vn -0.07083337 -0.99744295 -0.00949760
vn -0.13974721 -0.98373407 0.11286276
vn 0.24622833 -0.85796583 0.45085058
vn -0.77217318 0.00000000 -0.63541213
vn -0.68653756 0.00000000 -0.72709434
vn -0.89950864 0.00000000 -0.43690298
vn -0.89950864 0.00000000 -0.43690298
vn -0.11247281 0.99337519 -0.02357111
vn 0.46695433 0.85646172 0.22006130
vn 0.29280498 0.86922536 0.39838738
vn -0.15382944 0.96518626 0.21154665
vn 0.29280498 0.86922536 0.39838738
vn 0.76857284 0.09161443 0.63316869
vn 0.71799939 0.01093033 0.69595790
vn 0.65307044 0.43316233 0.62118386
vn 0.76857284 0.09161443 0.63316869
vn 0.24622833 -0.85796583 0.45085058
vn 0.38701701 -0.74921748 0.53748581
vn 0.71799939 0.01093033 0.69595790
vn 0.24622833 -0.85796583 0.45085058
vn -0.13974721 -0.98373407 0.11286276
vn -0.06994706 -0.96444533 0.25485803
vn 0.38701701 -0.74921748 0.53748581
vn -0.15382944 0.96518626 0.21154665
vn 0.29280498 0.86922536 0.39838738
vn -0.07252119 0.96936441 0.23467707
vn -0.05998516 0.92674759 0.37086479
vn 0.00000000 1.00000000 0.00000000
vn -0.05998516 0.92674759 0.37086479
vn -0.07252119 0.96936441 0.23467707
vn 0.47177253 0.87494527 0.10909384
vn 0.65307044 0.43316233 0.62118386
vn 0.71799939 0.01093033 0.69595790
vn 0.94801564 -0.00573386 0.31817206
vn 0.47177253 0.87494527 0.10909384
vn 0.71799939 0.01093033 0.69595790
vn 0.38701701 -0.74921748 0.53748581
vn 0.37793392 -0.90876834 0.17693518
vn 0.94801564 -0.00573386 0.31817206
vn 0.37793392 -0.90876834 0.17693518
vn 0.38701701 -0.74921748 0.53748581
vn -0.06994706 -0.96444533 0.25485803
vn 0.00000000 -1.00000000 0.00000000
vn 0.00000000 -1.00000000 0.00000000
vn 0.64127847 -0.76724504 0.00984747
vn 0.37793392 -0.90876834 0.17693518
vn 0.00000000 -1.00000000 0.00000000
vn 0.00000000 1.00000000 0.00000000
vn 0.00000000 1.00000000 0.00000000
vn 0.47177253 0.87494527 0.10909384
vn 0.49522107 0.86863154 0.01534113
vn 0.00000000 0.00000000 -1.00000000
vn 0.00000000 0.00000000 -1.00000000
vn -0.45382049 0.00286179 -0.89108853
vn -0.45837315 0.00000000 -0.88875984
vn -0.80704175 0.01126401 -0.59038694
vn -0.45837315 0.00000000 -0.88875984
vn -0.45382049 0.00286179 -0.89108853
vn -0.80694461 0.00452652 -0.59060977
vn 0.00735305 0.00000000 0.99997297
vn 0.00000000 0.00000000 1.00000000
vn 0.00000000 0.00000000 1.00000000
vn 0.00735305 0.00000000 0.99997297
vn 0.47177253 0.87494527 0.10909384
vn 0.94801564 -0.00573386 0.31817206
vn 0.85344744 0.52100846 0.01332825
vn 0.49522107 0.86863154 0.01534113
vn 0.94801564 -0.00573386 0.31817206
vn 0.37793392 -0.90876834 0.17693518
vn 0.64127847 -0.76724504 0.00984747
vn 0.86063498 -0.50922237 0.00000000
vn 0.00000000 -1.00000000 0.00000000
vn 0.00000000 -1.00000000 0.00000000
vn 0.00000000 -1.00000000 0.00000000
vn 0.00000000 -1.00000000 0.00000000
vn 0.00000000 -1.00000000 0.00000000
vn 0.00000000 -1.00000000 0.00000000
vn 0.00000000 -1.00000000 0.00000000
vn 0.00000000 -1.00000000 0.00000000
vn 0.00000000 -1.00000000 0.00000000
vn 0.00000000 -1.00000000 0.00000000
vn 0.00000000 -1.00000000 0.00000000
vn 0.00000000 -1.00000000 0.00000000
vn 0.00000000 -1.00000000 0.00000000
vn 0.00000000 -1.00000000 0.00000000
vn 0.00000000 -1.00000000 0.00000000
vn 0.00000000 -1.00000000 0.00000000
vn 0.00000000 -1.00000000 0.00000000
vn 0.00000000 -1.00000000 0.00000000
vn 0.00000000 -1.00000000 0.00000000
vn 0.00000000 -1.00000000 0.00000000
vn 0.00000000 -1.00000000 0.00000000
vn 0.00000000 -1.00000000 0.00000000
vn 0.00000000 -1.00000000 0.00000000
vn 0.00000000 -1.00000000 0.00000000
vn 0.00000000 -1.00000000 0.00000000
vn 0.00000000 -1.00000000 0.00000000
vn 0.00000000 -1.00000000 0.00000000
vn 0.00000000 -1.00000000 0.00000000
vn 0.00000000 -1.00000000 0.00000000
vn 0.00000000 -1.00000000 0.00000000
vn 0.00000000 1.00000000 0.00000000
vn 0.00000000 1.00000000 0.00000000
vn 0.00000000 1.00000000 0.00000000
vn 0.00000000 1.00000000 0.00000000
vn 0.00000000 1.00000000 0.00000000
vn 0.00000000 1.00000000 0.00000000
vn 0.00000000 1.00000000 0.00000000
vn 0.00000000 1.00000000 0.00000000
vn 0.00000000 1.00000000 0.00000000
vn 0.00000000 1.00000000 0.00000000
vn 0.00000000 1.00000000 0.00000000
vn 0.00000000 1.00000000 0.00000000
vn 0.00000000 1.00000000 0.00000000
vn 0.00000000 1.00000000 0.00000000
vn 0.00000000 1.00000000 0.00000000
vn 0.00000000 1.00000000 0.00000000
vn 0.00000000 1.00000000 0.00000000
vn 0.00000000 1.00000000 0.00000000
vn 0.00000000 1.00000000 0.00000000
vn 0.00000000 1.00000000 0.00000000
vn 0.00000000 1.00000000 0.00000000
vn 0.00000000 1.00000000 0.00000000
vn 0.00000000 1.00000000 0.00000000
vn 0.00000000 1.00000000 0.00000000
vn 0.00000000 1.00000000 0.00000000
vn 0.00000000 1.00000000 0.00000000
vn 0.00000000 1.00000000 0.00000000
vn 0.00000000 1.00000000 0.00000000
vn 0.00000000 1.00000000 0.00000000
vn 0.00000000 1.00000000 0.00000000
vn -0.49725551 0.00000000 0.86760415
vn 0.10767577 0.00000000 0.99418606
vn -0.10767754 0.00000000 0.99418587
vn -0.67148016 0.00000000 0.74102254
vn 0.10767577 0.00000000 0.99418606
vn 0.67147974 0.00000000 0.74102292
vn 0.49725446 0.00000000 0.86760475
vn -0.10767754 0.00000000 0.99418587
vn 0.67147974 0.00000000 0.74102292
vn 0.97880098 0.00000000 0.20481367
vn 0.91225295 0.00000000 0.40962734
vn 0.49725446 0.00000000 0.86760475
vn 0.97880098 0.00000000 0.20481367
vn 0.91225295 0.00000000 -0.40962734
vn 0.97880098 0.00000000 -0.20481367
vn 0.91225295 0.00000000 0.40962734
vn 0.91225295 0.00000000 -0.40962734
vn 0.49725446 0.00000000 -0.86760475
vn 0.67147974 0.00000000 -0.74102292
vn 0.97880098 0.00000000 -0.20481367
vn 0.49725446 0.00000000 -0.86760475
vn -0.10767754 0.00000000 -0.99418587
vn 0.10767577 0.00000000 -0.99418606
vn 0.67147974 0.00000000 -0.74102292
vn -0.10767754 0.00000000 -0.99418587
vn -0.67148016 0.00000000 -0.74102254
vn -0.49725551 0.00000000 -0.86760415
vn 0.10767577 0.00000000 -0.99418606
vn -0.67148016 0.00000000 -0.74102254
vn -0.97880098 0.00000000 -0.20481367
vn -0.91225295 0.00000000 -0.40962734
vn -0.49725551 0.00000000 -0.86760415
vn -0.97880098 0.00000000 -0.20481367
vn -0.91225295 0.00000000 0.40962734
vn -0.97880098 0.00000000 0.20481367
vn -0.91225295 0.00000000 -0.40962734
vn -0.91225295 0.00000000 0.40962734
vn -0.49725551 0.00000000 0.86760415
vn -0.67148016 0.00000000 0.74102254
vn -0.97880098 0.00000000 0.20481367

g ²ã
f 2//1 1//2 4//3 3//4
f 1//5 5//6 6//7 4//8
f 8//9 7//10 10//11 9//12
f 12//13 11//14 5//15 1//16
f 28//17 12//18 1//19 2//20
f 4//21 13//22 14//23 3//24
f 16//25 15//26 14//27 13//28
f 18//29 17//30 30//31 19//32
f 10//33 7//34 21//35 20//36
f 7//37 8//38 22//39 21//40
f 8//41 9//42 23//43 22//44
f 9//45 24//46 25//47 23//48
f 24//49 26//50 27//51 25//52
f 26//53 10//54 20//55 27//56
f 20//57 21//58 18//59 19//60
f 21//61 22//62 28//63 18//64
f 22//65 23//66 12//67 28//68
f 23//69 25//70 11//71 12//72
f 25//73 27//74 29//75 11//76
f 27//77 20//78 19//79 29//80
f 31//81 30//82 33//83 32//84
f 30//85 17//86 34//87 33//88
f 17//89 18//90 28//91 34//92
f 24//93 9//94 10//95 26//96
f 29//97 31//98 32//99 11//100
f 32//101 33//102 36//103 35//104
f 33//105 34//106 37//107 36//108
f 34//109 28//110 2//111 37//112
f 11//113 32//114 35//115 5//116
f 6//117 5//118 35//119 38//120
f 35//121 36//122 39//123 38//124
f 36//125 37//126 40//127 39//128
f 40//129 37//130 2//131 3//132
f 14//133 15//134 40//135 3//136
f 41//137 6//138 38//139 42//140
f 42//141 16//142 13//143 41//144
f 6//145 41//146 13//147 4//148
f 19//149 30//150 31//151 29//152
f 38//153 39//154 16//155 42//156
f 39//157 40//158 15//159 16//160
f 45//161 44//162 43//163
f 46//164 45//165 43//166
f 47//167 46//168 43//169
f 48//170 47//171 43//172
f 49//173 48//174 43//175
f 50//176 49//177 43//178
f 51//179 50//180 43//181
f 52//182 51//183 43//184
f 53//185 52//186 43//187
f 44//188 53//189 43//190
f 56//191 55//192 54//193
f 55//194 57//195 54//196
f 57//197 58//198 54//199
f 58//200 59//201 54//202
f 59//203 60//204 54//205
f 60//206 61//207 54//208
f 61//209 62//210 54//211
f 62//212 63//213 54//214
f 63//215 64//216 54//217
f 64//218 56//219 54//220
f 44//221 45//222 55//223 56//224
f 45//225 46//226 57//227 55//228
f 46//229 47//230 58//231 57//232
f 47//233 48//234 59//235 58//236
f 48//237 49//238 60//239 59//240
f 49//241 50//242 61//243 60//244
f 50//245 51//246 62//247 61//248
f 51//249 52//250 63//251 62//252
f 52//253 53//254 64//255 63//256
f 53//257 44//258 56//259 64//260

