# RokuSuper Output Ver2.0 for Wavefront Obj

v 7.64911700 6.84136400 0.19533300
v 7.75046300 6.85045800 0.41337500
v 7.02994800 6.84611600 0.33104600
v 7.05635800 6.83004200 0.25580300
v 7.04539100 6.81749800 0.25731500
v 7.02150100 6.83290300 0.33086400
v 7.03010500 6.82009100 0.33391300
v 7.05706400 6.80652500 0.25864300
v 7.75062100 6.82443300 0.41624200
v 7.64982400 6.81645200 0.19810100
v 7.68741500 6.86906500 0.56938400
v 7.03556300 6.86752700 0.43210900
v 7.69171000 6.85578800 0.57315400
v 7.75603800 6.83721500 0.41733600
v 7.52344300 6.89099800 0.69158900
v 7.52659600 6.87784100 0.69432400
v 7.02788500 6.85429000 0.43150600
v 7.04791800 6.88935700 0.55631100
v 7.04192000 6.87618300 0.55584100
v 7.03528800 6.84146100 0.43490700
v 7.68714100 6.84299900 0.57218200
v 7.04748200 6.86336300 0.55903500
v 7.52300900 6.86500400 0.69431200
v 7.28662600 6.92444000 0.82356400
v 7.05795600 6.91816000 0.77921500
v 7.28846200 6.91162400 0.82530300
v 7.05452700 6.90522000 0.77982300
v 7.05785100 6.89245600 0.78193400
v 7.28652100 6.89873600 0.82628200
v 7.25763200 6.93128000 0.85522900
v 7.04323000 6.92468200 0.81711700
v 7.25954500 6.91852900 0.85691400
v 7.23781300 6.94245200 0.92412600
v 7.23992100 6.92970700 0.92586700
v 7.03984900 6.91179400 0.81789700
v 6.96915700 6.92400500 0.79984600
v 6.96568700 6.91112900 0.80057400
v 7.04329300 6.89903800 0.81985500
v 7.25769400 6.90563600 0.85796700
v 6.96931300 6.89836900 0.80259800
v 7.23796800 6.91681700 0.92687900
v 6.84605900 7.05239800 1.67797100
v 6.84740000 7.06521200 1.67974100
v 6.84726300 7.04055100 1.68229800
v 6.95200500 7.04730500 1.71137900
v 6.95214100 7.07196600 1.70882200
v 6.95454800 7.05934900 1.70825900
v 7.17110300 6.53169200 0.58057200
v 7.39962300 6.53169200 0.67522800
v 7.62814300 6.53169200 0.58057200
v 7.72279900 6.53169200 0.35205200
v 7.62814300 6.53169200 0.12353200
v 7.39962300 6.53169200 0.02887600
v 7.17110300 6.53169200 0.12353200
v 7.07644700 6.53169200 0.35205200
v 7.39962300 6.70585800 0.67522800
v 7.17110300 6.70585800 0.58057200
v 7.62814300 6.70585800 0.58057200
v 7.72279900 6.70585800 0.35205200
v 7.62814300 6.70585800 0.12353200
v 7.17110300 6.70585800 0.12353200
v 7.39962300 6.70585800 0.02887600
v 7.07644700 6.70585800 0.35205200
v 6.82036400 6.94662600 1.68537600
v 6.89531700 6.94662600 1.71036600
v 7.35991200 6.74394100 0.37276700
v 7.28495900 6.74394100 0.34777700
v 6.89936600 7.02459100 1.69822200
v 6.82441300 7.02459100 1.67323300
v 7.28900800 6.82190500 0.33563300
v 7.36396000 6.82190600 0.36062300

vn 0.00846350 0.99031744 -0.13856312
vn -0.02228152 0.99926101 -0.03132028
vn -0.42356257 0.86353498 -0.27368245
vn -0.45252345 0.85727262 -0.24557318
vn -0.42356257 0.86353498 -0.27368245
vn -0.72377019 0.58955824 -0.35857747
vn -0.99195379 -0.02550477 -0.12400475
vn -0.45252345 0.85727262 -0.24557318
vn -0.53211817 -0.84639011 -0.02177238
vn -0.46864191 -0.88053810 0.07090433
vn -0.99195379 -0.02550477 -0.12400475
vn -0.67926497 -0.73077546 -0.06757460
vn -0.46864191 -0.88053810 0.07090433
vn -0.53211817 -0.84639011 -0.02177238
vn 0.01893532 -0.99341216 0.11302095
vn -0.00262471 -0.99713786 0.07555928
vn 0.00846350 0.99031744 -0.13856312
vn -0.45252345 0.85727262 -0.24557318
vn -0.49259868 0.86369107 -0.10669710
vn 0.02409516 0.99179743 -0.12552804
vn 0.74942007 0.38939696 0.53548068
vn 0.78850751 0.04697408 0.61322862
vn 0.92625166 0.02506095 0.37607156
vn 0.84803441 0.44368242 0.28979915
vn 0.74942007 0.38939696 0.53548068
vn 0.54732640 0.29404610 0.78356283
vn 0.54586710 0.07825240 0.83420961
vn 0.78850751 0.04697408 0.61322862
vn -0.49259868 0.86369107 -0.10669710
vn -0.45252345 0.85727262 -0.24557318
vn -0.99195379 -0.02550477 -0.12400475
vn -0.99623945 0.02451936 0.08310094
vn 0.03091252 0.98549477 -0.16686664
vn 0.02409516 0.99179743 -0.12552804
vn -0.49259868 0.86369107 -0.10669710
vn 0.04027741 0.98731832 -0.15355864
vn -0.49259868 0.86369107 -0.10669710
vn -0.99623945 0.02451936 0.08310094
vn -0.99701884 0.02115700 0.07420122
vn -0.91014272 0.41428669 0.00260244
vn -0.46864191 -0.88053810 0.07090433
vn -0.00262471 -0.99713786 0.07555928
vn -0.02954452 -0.98691126 0.15853482
vn -0.67579109 -0.71114569 0.19385101
vn -0.67579109 -0.71114569 0.19385101
vn -0.99623945 0.02451936 0.08310094
vn -0.99195379 -0.02550477 -0.12400475
vn -0.46864191 -0.88053810 0.07090433
vn -0.67579109 -0.71114569 0.19385101
vn -0.92123622 -0.36901074 0.12310525
vn -0.99701884 0.02115700 0.07420122
vn -0.99623945 0.02451936 0.08310094
vn 0.73002408 -0.29581938 0.61608095
vn 0.83671699 -0.38770319 0.38676986
vn 0.92625166 0.02506095 0.37607156
vn 0.78850751 0.04697408 0.61322862
vn -0.02806465 -0.98791772 0.15241704
vn -0.67579109 -0.71114569 0.19385101
vn -0.02954452 -0.98691126 0.15853482
vn -0.03971502 -0.98764567 0.15158742
vn 0.73002408 -0.29581938 0.61608095
vn 0.78850751 0.04697408 0.61322862
vn 0.54586710 0.07825240 0.83420961
vn 0.52301541 -0.14692927 0.83956338
vn 0.03091252 0.98549477 -0.16686664
vn 0.04027741 0.98731832 -0.15355864
vn 0.01819613 0.98489726 -0.17218099
vn 0.00917766 0.98027590 -0.19742071
vn 0.54586710 0.07825240 0.83420961
vn 0.54732640 0.29404610 0.78356283
vn 0.58540421 0.22562409 0.77871412
vn 0.62501083 0.08178214 0.77632026
vn -0.99701884 0.02115700 0.07420122
vn -0.98817152 -0.01421149 -0.15269273
vn -0.94412901 0.30347183 -0.12855059
vn -0.91014272 0.41428669 0.00260244
vn -0.02806465 -0.98791772 0.15241704
vn -0.03971502 -0.98764567 0.15158742
vn -0.01844516 -0.98570537 0.16746549
vn -0.00340753 -0.98585915 0.16754144
vn -0.99701884 0.02115700 0.07420122
vn -0.92123622 -0.36901074 0.12310525
vn -0.95105064 -0.30623090 -0.04153701
vn -0.98817152 -0.01421149 -0.15269273
vn 0.54586710 0.07825240 0.83420961
vn 0.62501083 0.08178214 0.77632026
vn 0.56806284 -0.06631703 0.82030888
vn 0.52301541 -0.14692927 0.83956338
vn 0.00917766 0.98027590 -0.19742071
vn 0.01819613 0.98489726 -0.17218099
vn 0.01492530 0.98043327 -0.19628509
vn 0.00229378 0.98309199 -0.18309802
vn 0.87053759 0.19370159 0.45237595
vn 0.87593798 0.05412691 0.47937766
vn 0.62501083 0.08178214 0.77632026
vn 0.58540421 0.22562409 0.77871412
vn 0.87053759 0.19370159 0.45237595
vn 0.93985099 0.18375887 0.28794580
vn 0.95221650 0.03784278 0.30307038
vn 0.87593798 0.05412691 0.47937766
vn -0.89747805 0.21596860 -0.38456563
vn -0.94412901 0.30347183 -0.12855059
vn -0.98817152 -0.01421149 -0.15269273
vn -0.93463018 -0.04069342 -0.35328527
vn 0.00908191 0.98275837 -0.18467137
vn 0.00229378 0.98309199 -0.18309802
vn 0.01492530 0.98043327 -0.19628509
vn 0.02744692 0.97846771 -0.20456688
vn 0.22671142 -0.11687949 -0.96692353
vn 0.22712974 -0.10277295 -0.96842646
vn 0.22696831 -0.10265271 -0.96847706
vn 0.22654853 -0.11573252 -0.96709966
vn -0.00340753 -0.98585915 0.16754144
vn -0.01844516 -0.98570537 0.16746549
vn -0.00618545 -0.98242469 0.18655685
vn -0.00007379 -0.98527330 0.17098691
vn -0.90921246 -0.28891826 -0.29976482
vn -0.93463018 -0.04069342 -0.35328527
vn -0.98817152 -0.01421149 -0.15269273
vn -0.95105064 -0.30623090 -0.04153701
vn 0.22717870 -0.08840490 -0.96983216
vn 0.22702524 -0.08931433 -0.96978477
vn 0.22696831 -0.10265271 -0.96847706
vn 0.22712974 -0.10277295 -0.96842646
vn 0.86300177 -0.08775229 0.49752134
vn 0.56806284 -0.06631703 0.82030888
vn 0.62501083 0.08178214 0.77632026
vn 0.87593798 0.05412691 0.47937766
vn -0.03946920 -0.92269885 0.38349577
vn -0.09305642 0.92713604 0.36298659
vn -0.18461590 -0.11266899 0.97633123
vn -0.00628078 -0.98708128 0.16009718
vn 0.86300177 -0.08775229 0.49752134
vn 0.87593798 0.05412691 0.47937766
vn 0.95221650 0.03784278 0.30307038
vn 0.93553446 -0.11250184 0.33484116
vn -0.99090208 -0.01396496 -0.13385829
vn -0.99097947 -0.00851827 -0.13374279
vn -0.96895640 0.18592904 -0.16295363
vn -0.95361754 0.24728923 -0.17164387
vn -0.03946920 -0.92269885 0.38349577
vn -0.00628078 -0.98708128 0.16009718
vn 0.00581910 -0.98680097 0.16183317
vn 0.01862772 -0.98660747 0.16204540
vn -0.99090208 -0.01396496 -0.13385829
vn -0.95463284 -0.28497996 -0.08638617
vn -0.97190751 -0.21343269 -0.09920824
vn -0.99097947 -0.00851827 -0.13374279
vn 0.00908191 0.98275837 -0.18467137
vn 0.02744692 0.97846771 -0.20456688
vn -0.00576324 0.98656641 -0.16325898
vn -0.01669919 0.98551925 -0.16873927
vn 0.94081746 0.03640018 0.33695332
vn 0.95221650 0.03784278 0.30307038
vn 0.93985099 0.18375887 0.28794580
vn 0.93528946 0.16444664 0.31335430
vn 0.94081746 0.03640018 0.33695332
vn 0.92875418 -0.10392126 0.35583149
vn 0.93553446 -0.11250184 0.33484116
vn 0.95221650 0.03784278 0.30307038
vn 0.00000000 -1.00000000 0.00000000
vn 0.00000000 -1.00000000 0.00000000
vn 0.00000000 -1.00000000 0.00000000
vn 0.00000000 -1.00000000 0.00000000
vn 0.00000000 -1.00000000 0.00000000
vn 0.00000000 -1.00000000 0.00000000
vn 0.00000000 -1.00000000 0.00000000
vn 0.00000000 -1.00000000 0.00000000
vn 0.00000000 -1.00000000 0.00000000
vn 0.00000000 -1.00000000 0.00000000
vn 0.00000000 -1.00000000 0.00000000
vn 0.00000000 -1.00000000 0.00000000
vn 0.00000000 -1.00000000 0.00000000
vn 0.00000000 -1.00000000 0.00000000
vn 0.00000000 -1.00000000 0.00000000
vn 0.00000000 -1.00000000 0.00000000
vn 0.00000000 -1.00000000 0.00000000
vn 0.00000000 -1.00000000 0.00000000
vn 0.00000000 1.00000000 0.00000000
vn 0.00000000 1.00000000 0.00000000
vn 0.00000000 1.00000000 0.00000000
vn 0.00000000 1.00000000 0.00000000
vn 0.00000000 1.00000000 0.00000000
vn 0.00000000 1.00000000 0.00000000
vn 0.00000000 1.00000000 0.00000000
vn 0.00000000 1.00000000 0.00000000
vn 0.00000000 1.00000000 0.00000000
vn 0.00000000 1.00000000 0.00000000
vn 0.00000000 1.00000000 0.00000000
vn 0.00000000 1.00000000 0.00000000
vn 0.00000000 1.00000000 0.00000000
vn 0.00000000 1.00000000 0.00000000
vn 0.00000000 1.00000000 0.00000000
vn 0.00000000 1.00000000 0.00000000
vn 0.00000000 1.00000000 0.00000000
vn 0.00000000 1.00000000 0.00000000
vn -0.60374796 0.00000000 0.79717526
vn 0.13677352 0.00000000 0.99060234
vn -0.13677352 0.00000000 0.99060234
vn -0.79717526 0.00000000 0.60374796
vn 0.13677352 0.00000000 0.99060234
vn 0.79717526 0.00000000 0.60374796
vn 0.60374796 0.00000000 0.79717526
vn -0.13677352 0.00000000 0.99060234
vn 0.79717526 0.00000000 0.60374796
vn 0.99060234 0.00000000 -0.13677352
vn 0.99060234 0.00000000 0.13677352
vn 0.60374796 0.00000000 0.79717526
vn 0.99060234 0.00000000 -0.13677352
vn 0.60374796 0.00000000 -0.79717526
vn 0.79717526 0.00000000 -0.60374796
vn 0.99060234 0.00000000 0.13677352
vn 0.60374796 0.00000000 -0.79717526
vn -0.13677352 0.00000000 -0.99060234
vn 0.13677352 0.00000000 -0.99060234
vn 0.79717526 0.00000000 -0.60374796
vn -0.13677352 0.00000000 -0.99060234
vn -0.79717526 0.00000000 -0.60374796
vn -0.60374796 0.00000000 -0.79717526
vn 0.13677352 0.00000000 -0.99060234
vn -0.79717526 0.00000000 -0.60374796
vn -0.99060234 0.00000000 0.13677352
vn -0.99060234 0.00000000 -0.13677352
vn -0.60374796 0.00000000 -0.79717526
vn -0.99060234 0.00000000 0.13677352
vn -0.60374796 0.00000000 0.79717526
vn -0.79717526 0.00000000 0.60374796
vn -0.99060234 0.00000000 -0.13677352
vn -0.04482083 -0.98990865 0.13443199
vn -0.04482083 -0.98990865 0.13443199
vn -0.04482083 -0.98990865 0.13443199
vn -0.04482083 -0.98990865 0.13443199
vn 0.04481447 0.98990859 -0.13443453
vn 0.04481923 0.98990864 -0.13443258
vn 0.04481447 0.98990859 -0.13443453
vn 0.04480971 0.98990854 -0.13443648
vn 0.31211607 -0.16202144 -0.93612639
vn 0.31211337 -0.16201848 -0.93612780
vn 0.31211607 -0.16202144 -0.93612639
vn 0.31211876 -0.16202440 -0.93612498
vn -0.94473263 -0.00199899 -0.32783572
vn -0.94473269 -0.00200108 -0.32783554
vn -0.94473263 -0.00199899 -0.32783572
vn -0.94473258 -0.00199691 -0.32783589
vn -0.31210785 0.16201653 0.93612997
vn -0.31211378 0.16201069 0.93612901
vn -0.31210785 0.16201653 0.93612997
vn -0.31210193 0.16202238 0.93613094
vn 0.94473306 0.00200692 0.32783443
vn 0.94473269 0.00200105 0.32783555
vn 0.94473306 0.00200692 0.32783443
vn 0.94473343 0.00201279 0.32783332

g ²ã
f 2//1 1//2 4//3 3//4
f 4//5 5//6 6//7 3//8
f 8//9 7//10 6//11 5//12
f 7//13 8//14 10//15 9//16
f 2//17 3//18 12//19 11//20
f 11//21 13//22 14//23 2//24
f 11//25 15//26 16//27 13//28
f 12//29 3//30 6//31 17//32
f 15//33 11//34 12//35 18//36
f 12//37 17//38 19//39 18//40
f 7//41 9//42 21//43 20//44
f 20//45 17//46 6//47 7//48
f 20//49 22//50 19//51 17//52
f 21//53 9//54 14//55 13//56
f 22//57 20//58 21//59 23//60
f 21//61 13//62 16//63 23//64
f 15//65 18//66 25//67 24//68
f 16//69 15//70 24//71 26//72
f 19//73 27//74 25//75 18//76
f 22//77 23//78 29//79 28//80
f 19//81 22//82 28//83 27//84
f 16//85 26//86 29//87 23//88
f 24//89 25//90 31//91 30//92
f 30//93 32//94 26//95 24//96
f 30//97 33//98 34//99 32//100
f 31//101 25//102 27//103 35//104
f 33//105 30//106 31//107 36//108
f 31//109 35//110 37//111 36//112
f 28//113 29//114 39//115 38//116
f 38//117 35//118 27//119 28//120
f 38//121 40//122 37//123 35//124
f 39//125 29//126 26//127 32//128
f 40//129 38//130 39//131 41//132
f 39//133 32//134 34//135 41//136
f 37//137 42//138 43//139 36//140
f 40//141 41//142 45//143 44//144
f 37//145 40//146 44//147 42//148
f 33//149 36//150 43//151 46//152
f 47//153 34//154 33//155 46//156
f 47//157 45//158 41//159 34//160
f 49//161 48//162 52//163
f 50//164 49//165 52//166
f 51//167 50//168 52//169
f 54//170 53//171 52//172
f 55//173 54//174 52//175
f 48//176 55//177 52//178
f 57//179 56//180 60//181
f 56//182 58//183 60//184
f 58//185 59//186 60//187
f 62//188 61//189 60//190
f 61//191 63//192 60//193
f 63//194 57//195 60//196
f 48//197 49//198 56//199 57//200
f 49//201 50//202 58//203 56//204
f 50//205 51//206 59//207 58//208
f 51//209 52//210 60//211 59//212
f 52//213 53//214 62//215 60//216
f 53//217 54//218 61//219 62//220
f 54//221 55//222 63//223 61//224
f 55//225 48//226 57//227 63//228
f 65//229 64//230 67//231 66//232
f 69//233 68//234 71//235 70//236
f 71//237 66//238 67//239 70//240
f 70//241 67//242 64//243 69//244
f 69//245 64//246 65//247 68//248
f 68//249 65//250 66//251 71//252

