# RokuSuper Output Ver2.0 for Wavefront Obj

v 3.79329000 4.84873400 0.34010300
v 3.79329000 4.88543600 0.34010300
v 4.03582600 4.90026500 0.58013000
v 4.03582600 4.86831500 0.58013000
v 3.83052300 4.84873400 0.28806400
v 4.13295400 4.86831500 0.44437700
v 3.83052300 4.88543600 0.28806400
v 4.13295400 4.90026500 0.44437700
v 3.83052300 5.15126600 0.28806400
v 3.83052300 5.11456400 0.28806400
v 4.13295400 5.09973500 0.44437700
v 4.13295400 5.13168500 0.44437700
v 3.79329000 5.15126600 0.34010300
v 4.03582600 5.13168500 0.58013000
v 3.79329000 5.11456400 0.34010300
v 4.03582600 5.09973500 0.58013000
v 4.10258800 4.86831500 0.62789700
v 4.10258800 4.90026500 0.62789700
v 4.19971700 4.86831500 0.49214300
v 4.19971700 4.90026500 0.49214300
v 4.19971700 5.13168500 0.49214300
v 4.19971700 5.09973500 0.49214300
v 4.10258800 5.13168500 0.62789700
v 4.10258800 5.09973500 0.62789700
v 4.03582600 4.95334000 0.58013000
v 4.10258800 4.95334000 0.62789700
v 4.19971700 4.95334000 0.49214300
v 4.13295400 4.95334000 0.44437700
v 4.13295400 5.04666000 0.44437700
v 4.19971700 5.04666000 0.49214300
v 4.10258800 5.04666000 0.62789700
v 4.03582600 5.04666000 0.58013000
v 4.09922300 5.05331100 0.54273000
v 4.14539100 5.02665600 0.54273000
v 4.14539100 5.02665600 0.81796600
v 4.09922300 5.05331100 0.81796600
v 4.05305400 5.02665600 0.54273000
v 4.05305400 5.02665600 0.81796600
v 4.05305300 4.97334400 0.54273000
v 4.05305300 4.97334400 0.81796600
v 4.09922300 4.94668900 0.54273000
v 4.09922300 4.94668900 0.81796600
v 4.14539100 4.97334400 0.54273000
v 4.14539100 4.97334400 0.81796600
v 4.15462500 5.03198700 0.81796600
v 4.09922300 5.06397400 0.81796600
v 4.04382000 5.03198700 0.81796600
v 4.04382000 4.96801300 0.81796600
v 4.09922300 4.93602600 0.81796600
v 4.15462500 4.96801300 0.81796600
v 4.09922300 5.06397400 1.06976900
v 4.04382000 5.03198700 1.06976900
v 4.15462500 5.03198700 1.06976900
v 4.15462500 4.96801300 1.06976900
v 4.09922300 4.93602600 1.06976900
v 4.04382000 4.96801300 1.06976900
v 3.60984900 4.91749000 0.55926100
v 3.82563900 4.91749000 0.64864400
v 4.04142800 4.91749000 0.55926100
v 4.13081100 4.91749000 0.34347200
v 4.04142800 4.91749000 0.12768300
v 3.82563900 4.91749000 0.03830000
v 3.60984900 4.91749000 0.12768300
v 3.52046700 4.91749000 0.34347200
v 3.82563900 5.08251000 0.64864400
v 3.60984900 5.08251000 0.55926100
v 4.04142800 5.08251000 0.55926100
v 4.13081100 5.08251000 0.34347200
v 4.04142800 5.08251000 0.12768300
v 3.60984900 5.08251000 0.12768300
v 3.82563900 5.08251000 0.03830000
v 3.52046700 5.08251000 0.34347200

vn -0.70342080 0.00000000 0.71077365
vn -0.70342080 0.00000000 0.71077365
vn -0.64469175 0.00000000 0.76444263
vn -0.61372294 0.00000000 0.78952147
vn 0.04718666 -0.99831539 0.03376108
vn 0.04718662 -0.99831538 0.03376121
vn 0.03146956 -0.99925107 0.02251582
vn 0.01573479 -0.99981282 0.01125786
vn 0.45915216 0.00000000 -0.88835764
vn 0.45915216 0.00000000 -0.88835764
vn 0.53410996 0.00000000 -0.84541502
vn 0.52186202 0.00000000 -0.85302991
vn -0.03576086 0.99903279 -0.02558615
vn -0.03576077 0.99903279 -0.02558621
vn -0.03576086 0.99903279 -0.02558615
vn -0.03576094 0.99903279 -0.02558609
vn 0.45915216 0.00000000 -0.88835764
vn 0.45915216 0.00000000 -0.88835764
vn 0.52186202 0.00000000 -0.85302991
vn 0.55226183 0.00000000 -0.83367072
vn 0.04718663 0.99831539 0.03376106
vn 0.04718652 0.99831539 0.03376113
vn 0.03146954 0.99925107 0.02251580
vn 0.01573481 0.99981282 0.01125787
vn -0.70342080 0.00000000 0.71077365
vn -0.70342080 0.00000000 0.71077365
vn -0.63241887 0.00000000 0.77462660
vn -0.64469175 0.00000000 0.76444263
vn -0.03576088 -0.99903279 -0.02558617
vn -0.03576085 -0.99903278 -0.02558627
vn -0.03576088 -0.99903279 -0.02558617
vn -0.03576091 -0.99903279 -0.02558607
vn -0.64469175 0.00000000 0.76444263
vn -0.58188216 0.00000000 0.81327311
vn -0.58188216 0.00000000 0.81327311
vn -0.61372294 0.00000000 0.78952147
vn 0.81327460 0.00000000 0.58188008
vn 0.81327460 0.00000000 0.58188008
vn 0.81327460 0.00000000 0.58188008
vn 0.81327460 0.00000000 0.58188008
vn 0.58186834 0.00000000 -0.81328300
vn 0.52186202 0.00000000 -0.85302991
vn 0.53410996 0.00000000 -0.84541502
vn 0.58186834 0.00000000 -0.81328300
vn -0.81327282 0.00000000 -0.58188257
vn -0.81327282 0.00000000 -0.58188257
vn -0.81327282 0.00000000 -0.58188257
vn -0.81327282 0.00000000 -0.58188257
vn 0.52186202 0.00000000 -0.85302991
vn 0.58186834 0.00000000 -0.81328300
vn 0.58186834 0.00000000 -0.81328300
vn 0.55226183 0.00000000 -0.83367072
vn 0.81327460 0.00000000 0.58188008
vn 0.81327460 0.00000000 0.58188008
vn 0.81327460 0.00000000 0.58188008
vn 0.81327460 0.00000000 0.58188008
vn -0.58188216 0.00000000 0.81327311
vn -0.64469175 0.00000000 0.76444263
vn -0.63241887 0.00000000 0.77462660
vn -0.58188216 0.00000000 0.81327311
vn -0.81327282 0.00000000 -0.58188257
vn -0.81327282 0.00000000 -0.58188257
vn -0.81327282 0.00000000 -0.58188257
vn -0.81327282 0.00000000 -0.58188257
vn -0.61372294 0.00000000 0.78952147
vn -0.58188216 0.00000000 0.81327311
vn -0.58188216 0.00000000 0.81327311
vn -0.58188216 0.00000000 0.81327311
vn 0.81327460 0.00000000 0.58188008
vn 0.81327460 0.00000000 0.58188008
vn 0.81327460 0.00000000 0.58188008
vn 0.81327460 0.00000000 0.58188008
vn 0.58186834 0.00000000 -0.81328300
vn 0.53410996 0.00000000 -0.84541502
vn 0.58186834 0.00000000 -0.81328300
vn 0.58186834 0.00000000 -0.81328300
vn -0.81327540 0.00000000 -0.58187895
vn -0.81327540 0.00000000 -0.58187895
vn -0.81327540 0.00000000 -0.58187895
vn -0.81327540 0.00000000 -0.58187895
vn 0.55226183 0.00000000 -0.83367072
vn 0.58186834 0.00000000 -0.81328300
vn 0.58186834 0.00000000 -0.81328300
vn 0.58186834 0.00000000 -0.81328300
vn 0.81327460 0.00000000 0.58188008
vn 0.81327460 0.00000000 0.58188008
vn 0.81327460 0.00000000 0.58188008
vn 0.81327460 0.00000000 0.58188008
vn -0.58188216 0.00000000 0.81327311
vn -0.63241887 0.00000000 0.77462660
vn -0.58188216 0.00000000 0.81327311
vn -0.58188216 0.00000000 0.81327311
vn -0.81327540 0.00000000 -0.58187895
vn -0.81327540 0.00000000 -0.58187895
vn -0.81327540 0.00000000 -0.58187895
vn -0.81327540 0.00000000 -0.58187895
vn 0.00000000 -1.00000000 0.00000000
vn 0.00000000 -1.00000000 0.00000000
vn 0.01573479 -0.99981282 0.01125786
vn 0.03146956 -0.99925107 0.02251582
vn 0.00000000 1.00000000 0.00000000
vn 0.00000000 1.00000000 0.00000000
vn 0.01573481 0.99981282 0.01125787
vn 0.03146954 0.99925107 0.02251580
vn -0.81327540 0.00000000 -0.58187895
vn -0.81327540 0.00000000 -0.58187895
vn -0.81327540 0.00000000 -0.58187895
vn -0.81327540 0.00000000 -0.58187895
vn -0.58188216 0.00000000 0.81327311
vn -0.58188216 0.00000000 0.81327311
vn -0.58188216 0.00000000 0.81327311
vn -0.58188216 0.00000000 0.81327311
vn 0.81327460 0.00000000 0.58188008
vn 0.81327460 0.00000000 0.58188008
vn 0.81327460 0.00000000 0.58188008
vn 0.81327460 0.00000000 0.58188008
vn 0.58186834 0.00000000 -0.81328300
vn 0.58186834 0.00000000 -0.81328300
vn 0.58186834 0.00000000 -0.81328300
vn 0.58186834 0.00000000 -0.81328300
vn 0.49999849 0.86602627 0.00000000
vn -0.18897492 0.98198191 0.00000000
vn 0.18898413 0.98198014 0.00000000
vn 0.49999849 0.86602627 0.00000000
vn -0.18897492 0.98198191 0.00000000
vn -0.94490576 0.32734250 0.00000000
vn -0.75592024 0.65466373 0.00000000
vn 0.18898413 0.98198014 0.00000000
vn -0.94490576 0.32734250 0.00000000
vn -1.00000000 0.00001876 0.00000000
vn -1.00000000 0.00001876 0.00000000
vn -0.75592024 0.65466373 0.00000000
vn -0.49998225 -0.86603565 0.00000000
vn 0.18898677 -0.98197963 0.00000000
vn -0.18896835 -0.98198318 0.00000000
vn -0.49998225 -0.86603565 0.00000000
vn 0.18898677 -0.98197963 0.00000000
vn 0.49999849 -0.86602627 0.00000000
vn 0.49999849 -0.86602627 0.00000000
vn -0.18896835 -0.98198318 0.00000000
vn 1.00000000 0.00000000 0.00000000
vn 1.00000000 0.00000000 0.00000000
vn 1.00000000 0.00000000 0.00000000
vn 1.00000000 0.00000000 0.00000000
vn 0.00000000 0.00000000 -1.00000000
vn 0.00000000 0.00000000 -1.00000000
vn 0.00000000 0.00000000 -1.00000000
vn 0.00000000 0.00000000 -1.00000000
vn 0.00000000 0.00000000 -1.00000000
vn 0.00000000 0.00000000 -1.00000000
vn 0.00000000 0.00000000 -1.00000000
vn 0.00000000 0.00000000 -1.00000000
vn 0.00000000 0.00000000 -1.00000000
vn 0.00000000 0.00000000 -1.00000000
vn 0.00000000 0.00000000 -1.00000000
vn 0.00000000 0.00000000 -1.00000000
vn 0.00000000 0.00000000 -1.00000000
vn 0.00000000 0.00000000 -1.00000000
vn 0.00000000 0.00000000 -1.00000000
vn 0.00000000 0.00000000 -1.00000000
vn 0.00000000 0.00000000 -1.00000000
vn 0.00000000 0.00000000 -1.00000000
vn 0.00000000 0.00000000 -1.00000000
vn 0.00000000 0.00000000 -1.00000000
vn 0.00000000 0.00000000 -1.00000000
vn 0.00000000 0.00000000 -1.00000000
vn 0.00000000 0.00000000 -1.00000000
vn 0.00000000 0.00000000 -1.00000000
vn -0.75592935 0.65465321 0.00000000
vn -0.50000074 0.86602498 0.00000000
vn -0.50000074 0.86602498 0.00000000
vn -0.94491126 0.32732660 0.00000000
vn 0.50000751 0.86602107 0.00000000
vn 0.94491199 0.32732449 0.00000000
vn 0.75593300 0.65464899 0.00000000
vn 0.50000751 0.86602107 0.00000000
vn 0.94491199 0.32732449 0.00000000
vn 0.75593300 -0.65464899 0.00000000
vn 0.94491199 -0.32732449 0.00000000
vn 0.75593300 0.65464899 0.00000000
vn 0.75593300 -0.65464899 0.00000000
vn 0.50000751 -0.86602107 0.00000000
vn 0.50000751 -0.86602107 0.00000000
vn 0.94491199 -0.32732449 0.00000000
vn -0.50000074 -0.86602498 0.00000000
vn -0.94491126 -0.32732660 0.00000000
vn -0.75592935 -0.65465321 0.00000000
vn -0.50000074 -0.86602498 0.00000000
vn -0.94491126 -0.32732660 0.00000000
vn -0.75592935 0.65465321 0.00000000
vn -0.94491126 0.32732660 0.00000000
vn -0.75592935 -0.65465321 0.00000000
vn 0.00000000 -1.00000000 0.00000000
vn 0.00000000 -1.00000000 0.00000000
vn 0.00000000 -1.00000000 0.00000000
vn 0.00000000 -1.00000000 0.00000000
vn 0.00000000 -1.00000000 0.00000000
vn 0.00000000 -1.00000000 0.00000000
vn 0.00000000 -1.00000000 0.00000000
vn 0.00000000 -1.00000000 0.00000000
vn 0.00000000 -1.00000000 0.00000000
vn 0.00000000 -1.00000000 0.00000000
vn 0.00000000 -1.00000000 0.00000000
vn 0.00000000 -1.00000000 0.00000000
vn 0.00000000 -1.00000000 0.00000000
vn 0.00000000 -1.00000000 0.00000000
vn 0.00000000 -1.00000000 0.00000000
vn 0.00000000 -1.00000000 0.00000000
vn 0.00000000 -1.00000000 0.00000000
vn 0.00000000 -1.00000000 0.00000000
vn 0.00000000 1.00000000 0.00000000
vn 0.00000000 1.00000000 0.00000000
vn 0.00000000 1.00000000 0.00000000
vn 0.00000000 1.00000000 0.00000000
vn 0.00000000 1.00000000 0.00000000
vn 0.00000000 1.00000000 0.00000000
vn 0.00000000 1.00000000 0.00000000
vn 0.00000000 1.00000000 0.00000000
vn 0.00000000 1.00000000 0.00000000
vn 0.00000000 1.00000000 0.00000000
vn 0.00000000 1.00000000 0.00000000
vn 0.00000000 1.00000000 0.00000000
vn 0.00000000 1.00000000 0.00000000
vn 0.00000000 1.00000000 0.00000000
vn 0.00000000 1.00000000 0.00000000
vn 0.00000000 1.00000000 0.00000000
vn 0.00000000 1.00000000 0.00000000
vn 0.00000000 1.00000000 0.00000000
vn -0.60374845 0.00000000 0.79717489
vn 0.13677455 0.00000000 0.99060220
vn -0.13677292 0.00000000 0.99060243
vn -0.79717629 0.00000000 0.60374660
vn 0.13677455 0.00000000 0.99060220
vn 0.79717494 0.00000000 0.60374838
vn 0.60374838 0.00000000 0.79717494
vn -0.13677292 0.00000000 0.99060243
vn 0.79717494 0.00000000 0.60374838
vn 0.99060227 0.00000000 -0.13677404
vn 0.99060227 0.00000000 0.13677404
vn 0.60374838 0.00000000 0.79717494
vn 0.99060227 0.00000000 -0.13677404
vn 0.60374838 0.00000000 -0.79717494
vn 0.79717494 0.00000000 -0.60374838
vn 0.99060227 0.00000000 0.13677404
vn 0.60374838 0.00000000 -0.79717494
vn -0.13677292 0.00000000 -0.99060243
vn 0.13677455 0.00000000 -0.99060220
vn 0.79717494 0.00000000 -0.60374838
vn -0.13677292 0.00000000 -0.99060243
vn -0.79717629 0.00000000 -0.60374660
vn -0.60374845 0.00000000 -0.79717489
vn 0.13677455 0.00000000 -0.99060220
vn -0.79717629 0.00000000 -0.60374660
vn -0.99060248 0.00000000 0.13677254
vn -0.99060248 0.00000000 -0.13677254
vn -0.60374845 0.00000000 -0.79717489
vn -0.99060248 0.00000000 0.13677254
vn -0.60374845 0.00000000 0.79717489
vn -0.79717629 0.00000000 0.60374660
vn -0.99060248 0.00000000 -0.13677254

g ²ã
f 2//1 1//2 4//3 3//4
f 1//5 5//6 6//7 4//8
f 5//9 7//10 8//11 6//12
f 7//13 2//14 3//15 8//16
f 10//17 9//18 12//19 11//20
f 9//21 13//22 14//23 12//24
f 13//25 15//26 16//27 14//28
f 15//29 10//30 11//31 16//32
f 4//33 17//34 18//35 3//36
f 17//37 19//38 20//39 18//40
f 19//41 6//42 8//43 20//44
f 5//45 1//46 2//47 7//48
f 12//49 21//50 22//51 11//52
f 21//53 23//54 24//55 22//56
f 23//57 14//58 16//59 24//60
f 13//61 9//62 10//63 15//64
f 3//65 18//66 26//67 25//68
f 18//69 20//70 27//71 26//72
f 20//73 8//74 28//75 27//76
f 8//77 3//78 25//79 28//80
f 11//81 22//82 30//83 29//84
f 22//85 24//86 31//87 30//88
f 24//89 16//90 32//91 31//92
f 16//93 11//94 29//95 32//96
f 19//97 17//98 4//99 6//100
f 23//101 21//102 12//103 14//104
f 29//105 28//106 25//107 32//108
f 32//109 25//110 26//111 31//112
f 31//113 26//114 27//115 30//116
f 30//117 27//118 28//119 29//120
f 34//121 33//122 36//123 35//124
f 33//125 37//126 38//127 36//128
f 37//129 39//130 40//131 38//132
f 39//133 41//134 42//135 40//136
f 41//137 43//138 44//139 42//140
f 43//141 34//142 35//143 44//144
f 35//145 36//146 46//147 45//148
f 36//149 38//150 47//151 46//152
f 38//153 40//154 48//155 47//156
f 40//157 42//158 49//159 48//160
f 42//161 44//162 50//163 49//164
f 44//165 35//166 45//167 50//168
f 52//169 51//170 46//171 47//172
f 51//173 53//174 45//175 46//176
f 53//177 54//178 50//179 45//180
f 54//181 55//182 49//183 50//184
f 55//185 56//186 48//187 49//188
f 56//189 52//190 47//191 48//192
f 58//193 57//194 61//195
f 59//196 58//197 61//198
f 60//199 59//200 61//201
f 63//202 62//203 61//204
f 64//205 63//206 61//207
f 57//208 64//209 61//210
f 66//211 65//212 69//213
f 65//214 67//215 69//216
f 67//217 68//218 69//219
f 71//220 70//221 69//222
f 70//223 72//224 69//225
f 72//226 66//227 69//228
f 57//229 58//230 65//231 66//232
f 58//233 59//234 67//235 65//236
f 59//237 60//238 68//239 67//240
f 60//241 61//242 69//243 68//244
f 61//245 62//246 71//247 69//248
f 62//249 63//250 70//251 71//252
f 63//253 64//254 72//255 70//256
f 64//257 57//258 66//259 72//260

