# RokuSuper Output Ver2.0 for Wavefront Obj

v 4.90825800 5.69466800 0.40653100
v 4.93943800 5.74192900 0.17445500
v 5.12895800 5.77094700 0.03195600
v 5.36579800 5.76472500 0.06251000
v 5.48004000 5.67964600 0.48029400
v 5.51122100 5.72690700 0.24821800
v 5.29052100 5.65062800 0.62279200
v 5.05368100 5.65685000 0.59223900
v 4.93943800 5.90598200 0.20786300
v 4.90825800 5.85872200 0.43994000
v 5.12895800 5.93500100 0.06536500
v 5.36579800 5.92878000 0.09591900
v 5.29052100 5.81468100 0.65620100
v 5.51122100 5.89096100 0.28162600
v 5.48004000 5.84370000 0.51370300
v 5.05368100 5.82090400 0.62564800
v 5.14744400 5.60491000 0.38496500
v 5.28129600 5.60491000 0.38496500
v 5.28129600 5.60491000 0.25111300
v 5.14744400 5.60491000 0.25111300
v 5.28129600 5.73876200 0.38496500
v 5.14744400 5.73876200 0.38496500
v 5.14744400 5.73876200 0.25111300
v 5.28129600 5.73876200 0.25111300
v 5.21932600 5.66440000 0.34868800
v 5.24131100 5.65213000 0.34544000
v 5.24131100 5.56366600 0.68654900
v 5.21932600 5.57593600 0.68979700
v 5.19734200 5.65213000 0.34544000
v 5.19734200 5.56366500 0.68654900
v 5.19734200 5.62759000 0.33894300
v 5.19734200 5.53912500 0.68005200
v 5.21932600 5.61531900 0.33569500
v 5.21932600 5.52685500 0.67680300
v 5.24131100 5.62759000 0.33894300
v 5.24131100 5.53912500 0.68005200
v 5.26126900 5.57480500 0.68949800
v 5.21932600 5.59821400 0.69569500
v 5.17738400 5.57480500 0.68949800
v 5.17738400 5.52798700 0.67710300
v 5.21932600 5.50457800 0.67090600
v 5.26126900 5.52798700 0.67710300
v 5.21932600 5.50219500 1.05142700
v 5.17738400 5.47878600 1.04523000
v 5.26126900 5.47878600 1.04523000
v 5.26126900 5.43196900 1.03283500
v 5.21932600 5.40855900 1.02663800
v 5.17738400 5.43196900 1.03283500

vn -0.00000133 -0.97988843 -0.19954617
vn -0.00000140 -0.97988826 -0.19954699
vn -0.00000063 -0.97988812 -0.19954768
vn -0.00000065 -0.97988862 -0.19954521
vn -0.00000140 -0.97988826 -0.19954699
vn -0.00000133 -0.97988843 -0.19954617
vn 0.00000040 -0.97988826 -0.19954699
vn -0.00000140 -0.97988826 -0.19954699
vn -0.00000065 -0.97988862 -0.19954521
vn -0.00000293 -0.97988803 -0.19954809
vn -0.00000140 -0.97988826 -0.19954699
vn -0.00000537 -0.97988775 -0.19954947
vn -0.00000039 -0.97988834 -0.19954659
vn -0.00000140 -0.97988826 -0.19954699
vn -0.00000293 -0.97988803 -0.19954809
vn -0.00000063 -0.97988812 -0.19954768
vn -0.00000140 -0.97988826 -0.19954699
vn -0.00000039 -0.97988834 -0.19954659
vn 0.00000025 0.97988865 0.19954507
vn -0.00000052 0.97988784 0.19954905
vn -0.00000038 0.97988844 0.19954612
vn -0.00000038 0.97988844 0.19954612
vn -0.00000052 0.97988784 0.19954905
vn -0.00000329 0.97988708 0.19955279
vn -0.00000329 0.97988708 0.19955279
vn -0.00000052 0.97988784 0.19954905
vn -0.00000591 0.97988617 0.19955723
vn -0.00000110 0.97988809 0.19954781
vn -0.00000052 0.97988784 0.19954905
vn 0.00000149 0.97988779 0.19954927
vn 0.00000149 0.97988779 0.19954927
vn -0.00000052 0.97988784 0.19954905
vn 0.00000233 0.97988795 0.19954850
vn 0.00000233 0.97988795 0.19954850
vn -0.00000052 0.97988784 0.19954905
vn 0.00000025 0.97988865 0.19954507
vn -0.99224786 -0.02479928 0.12177511
vn -0.92144887 -0.07752531 0.38068596
vn -0.92627379 0.07519936 -0.36927216
vn -0.78949943 0.12247289 -0.60140755
vn -0.78949943 0.12247289 -0.60140755
vn -0.92627379 0.07519936 -0.36927216
vn -0.38849820 0.18387444 -0.90291713
vn -0.12427213 0.19800324 -0.97229170
vn -0.12427213 0.19800324 -0.97229170
vn -0.38849820 0.18387444 -0.90291713
vn 0.37685269 0.18483764 -0.90764371
vn 0.61375144 0.15754309 -0.77362093
vn 0.61375144 0.15754309 -0.77362093
vn 0.37685269 0.18483764 -0.90764371
vn 0.92144909 0.07752397 -0.38068571
vn 0.99224821 0.02479753 -0.12177260
vn 0.99224821 0.02479753 -0.12177260
vn 0.92144909 0.07752397 -0.38068571
vn 0.92627301 -0.07520098 0.36927377
vn 0.78949904 -0.12247483 0.60140767
vn 0.78949904 -0.12247483 0.60140767
vn 0.92627301 -0.07520098 0.36927377
vn 0.38849947 -0.18387637 0.90291619
vn 0.12427413 -0.19800434 0.97229122
vn 0.12427413 -0.19800434 0.97229122
vn 0.38849947 -0.18387637 0.90291619
vn -0.37685118 -0.18483885 0.90764409
vn -0.61375099 -0.15754508 0.77362088
vn -0.61375099 -0.15754508 0.77362088
vn -0.37685118 -0.18483885 0.90764409
vn -0.92144887 -0.07752531 0.38068596
vn -0.99224786 -0.02479928 0.12177511
vn 0.00000000 -1.00000000 0.00000000
vn 0.00000000 -1.00000000 0.00000000
vn 0.00000000 -1.00000000 0.00000000
vn 0.00000000 -1.00000000 0.00000000
vn 0.00000000 1.00000000 0.00000000
vn 0.00000000 1.00000000 0.00000000
vn 0.00000000 1.00000000 0.00000000
vn 0.00000000 1.00000000 0.00000000
vn 0.00000000 0.00000000 -1.00000000
vn 0.00000000 0.00000000 -1.00000000
vn 0.00000000 0.00000000 -1.00000000
vn 0.00000000 0.00000000 -1.00000000
vn -1.00000000 0.00000000 0.00000000
vn -1.00000000 0.00000000 0.00000000
vn -1.00000000 0.00000000 0.00000000
vn -1.00000000 0.00000000 0.00000000
vn 0.00000000 0.00000000 1.00000000
vn 0.00000000 0.00000000 1.00000000
vn 0.00000000 0.00000000 1.00000000
vn 0.00000000 0.00000000 1.00000000
vn 1.00000000 0.00000000 0.00000000
vn 1.00000000 0.00000000 0.00000000
vn 1.00000000 0.00000000 0.00000000
vn 1.00000000 0.00000000 0.00000000
vn 0.49998246 0.83830279 0.21740739
vn 0.49998246 0.83830279 0.21740739
vn 0.49998246 0.83830279 0.21740739
vn 0.49998246 0.83830279 0.21740739
vn -0.50001382 0.83828496 0.21740400
vn -0.49999952 0.83829266 0.21740722
vn -0.50001382 0.83828496 0.21740400
vn -0.50002812 0.83827727 0.21740077
vn -1.00000000 0.00000000 0.00000000
vn -0.75593841 -0.63367907 -0.16434097
vn -0.94491193 -0.31684265 -0.08217164
vn -1.00000000 0.00000000 0.00000000
vn -0.75593841 -0.63367907 -0.16434097
vn -0.50002812 -0.83827712 -0.21740137
vn -0.50001753 -0.83828281 -0.21740376
vn -0.94491193 -0.31684265 -0.08217164
vn 0.50000047 -0.83829235 -0.21740623
vn 0.94491238 -0.31684140 -0.08217131
vn 0.75592920 -0.63368936 -0.16434364
vn 0.49998988 -0.83829849 -0.21740691
vn 0.94491238 -0.31684140 -0.08217131
vn 1.00000000 0.00000000 0.00000000
vn 1.00000000 0.00000000 0.00000000
vn 0.75592920 -0.63368936 -0.16434364
vn 0.00000877 0.25592413 -0.96669687
vn 0.00000005 0.25591627 -0.96669895
vn 0.00000462 0.25592559 -0.96669648
vn -0.00000120 0.25592507 -0.96669662
vn 0.00000005 0.25591627 -0.96669895
vn 0.00000511 0.25591900 -0.96669823
vn -0.00000138 0.25591721 -0.96669870
vn 0.00000462 0.25592559 -0.96669648
vn 0.00000511 0.25591900 -0.96669823
vn -0.00000735 0.25592102 -0.96669769
vn 0.00001182 0.25593190 -0.96669481
vn -0.00000138 0.25591721 -0.96669870
vn -0.00000735 0.25592102 -0.96669769
vn -0.00000962 0.25591907 -0.96669821
vn -0.00000790 0.25590929 -0.96670080
vn 0.00001182 0.25593190 -0.96669481
vn -0.00000962 0.25591907 -0.96669821
vn -0.00000078 0.25593843 -0.96669309
vn 0.00000100 0.25592995 -0.96669533
vn -0.00000790 0.25590929 -0.96670080
vn -0.00000078 0.25593843 -0.96669309
vn 0.00000877 0.25592413 -0.96669687
vn -0.00000120 0.25592507 -0.96669662
vn 0.00000100 0.25592995 -0.96669533
vn -0.49999783 0.83610426 0.22568084
vn 0.18897394 0.94805329 0.25589806
vn -0.18898408 0.94805140 0.25589755
vn -0.49999783 0.83610426 0.22568084
vn 0.18897394 0.94805329 0.25589806
vn 0.49998888 0.83610924 0.22568218
vn 0.49998888 0.83610924 0.22568218
vn -0.18898408 0.94805140 0.25589755
vn 1.00000000 0.00000000 0.00000000
vn 1.00000000 0.00000000 0.00000000
vn 1.00000000 0.00000000 0.00000000
vn 1.00000000 0.00000000 0.00000000
vn 0.49999636 -0.83610537 -0.22567996
vn 0.50000384 -0.83610091 -0.22567993
vn 0.49999636 -0.83610537 -0.22567996
vn 0.49998889 -0.83610983 -0.22567999
vn -0.50000530 -0.83610039 -0.22567862
vn -0.94491256 -0.31601363 -0.08529735
vn -0.75593181 -0.63203153 -0.17059674
vn -0.49999783 -0.83610426 -0.22568084
vn -0.94491256 -0.31601363 -0.08529735
vn -1.00000000 0.00000000 0.00000000
vn -1.00000000 0.00000000 0.00000000
vn -0.75593181 -0.63203153 -0.17059674

g ²ã
f 2//1 6//2 1//3
f 3//4 6//5 2//6
f 4//7 6//8 3//9
f 7//10 6//11 5//12
f 8//13 6//14 7//15
f 1//16 6//17 8//18
f 10//19 14//20 9//21
f 9//22 14//23 11//24
f 11//25 14//26 12//27
f 15//28 14//29 13//30
f 13//31 14//32 16//33
f 16//34 14//35 10//36
f 1//37 10//38 9//39 2//40
f 2//41 9//42 11//43 3//44
f 3//45 11//46 12//47 4//48
f 4//49 12//50 14//51 6//52
f 6//53 14//54 15//55 5//56
f 5//57 15//58 13//59 7//60
f 7//61 13//62 16//63 8//64
f 8//65 16//66 10//67 1//68
f 18//69 17//70 20//71 19//72
f 22//73 21//74 24//75 23//76
f 24//77 19//78 20//79 23//80
f 23//81 20//82 17//83 22//84
f 22//85 17//86 18//87 21//88
f 21//89 18//90 19//91 24//92
f 26//93 25//94 28//95 27//96
f 25//97 29//98 30//99 28//100
f 29//101 31//102 32//103 30//104
f 31//105 33//106 34//107 32//108
f 33//109 35//110 36//111 34//112
f 35//113 26//114 27//115 36//116
f 27//117 28//118 38//119 37//120
f 28//121 30//122 39//123 38//124
f 30//125 32//126 40//127 39//128
f 32//129 34//130 41//131 40//132
f 34//133 36//134 42//135 41//136
f 36//137 27//138 37//139 42//140
f 44//141 43//142 38//143 39//144
f 43//145 45//146 37//147 38//148
f 45//149 46//150 42//151 37//152
f 46//153 47//154 41//155 42//156
f 47//157 48//158 40//159 41//160
f 48//161 44//162 39//163 40//164

