# Rhino

o object_1
v 0.06778 7.604 0.0002848
v 0.06778 7.604 0.108
v 0.1896 6.155 0.0002848
v 0.1896 6.155 0.108
v 0.231 9.049 0.0002848
v 0.231 9.049 0.108
v 0.5918 4.757 0.0002848
v 0.5918 4.757 0.108
v 0.6729 10.43 0.0002848
v 0.6729 10.43 0.108
v 0.8094 7.593 0.0002848
v 0.8094 7.593 0.108
v 0.919 6.289 0.0002848
v 0.919 6.289 0.108
v 0.9562 8.894 0.0002848
v 0.9562 8.894 0.108
v 1.259 3.465 0.0002848
v 1.259 3.465 0.108
v 1.281 5.031 0.0002848
v 1.281 5.031 0.108
v 1.354 10.14 0.0002848
v 1.354 10.14 0.108
v 1.377 11.71 0.0002848
v 1.377 11.71 0.108
v 1.881 3.868 0.0002848
v 1.881 3.868 0.108
v 1.987 11.29 0.0002848
v 1.987 11.29 0.108
v 2.165 2.328 0.0002848
v 2.165 2.328 0.108
v 2.315 12.82 0.0002848
v 2.315 12.82 0.108
v 2.697 2.845 0.0002848
v 2.697 2.845 0.108
v 2.832 12.29 0.0002848
v 2.832 12.29 0.108
v 3.276 1.39 0.0002848
v 3.276 1.39 0.108
v 3.452 13.72 0.0002848
v 3.452 13.72 0.108
v 3.697 2 0.0002848
v 3.697 2 0.108
v 3.856 13.1 0.0002848
v 3.856 13.1 0.108
v 4.549 0.6858 0.0002848
v 4.549 0.6858 0.108
v 4.745 14.39 0.0002848
v 4.745 14.39 0.108
v 4.842 1.367 0.0002848
v 4.842 1.367 0.108
v 5.019 13.7 0.0002848
v 5.019 13.7 0.108
v 5.934 0.2438 0.0002848
v 5.934 0.2438 0.108
v 6.089 0.969 0.0002848
v 6.089 0.969 0.108
v 6.142 14.79 0.0002848
v 6.142 14.79 0.108
v 6.276 14.06 0.0002848
v 6.276 14.06 0.108
v 7.379 0.0806 0.0002848
v 7.379 0.0806 0.108
v 7.39 0.8222 0.0002848
v 7.39 0.8222 0.108
v 7.58 14.17 0.0002848
v 7.58 14.17 0.108
v 7.591 14.92 0.0002848
v 7.591 14.92 0.108
v 8.694 0.9318 0.0002848
v 8.694 0.9318 0.108
v 8.828 0.2024 0.0002848
v 8.828 0.2024 0.108
v 8.881 14.03 0.0002848
v 8.881 14.03 0.108
v 9.036 14.75 0.0002848
v 9.036 14.75 0.108
v 9.952 1.294 0.0002848
v 9.952 1.294 0.108
v 10.13 13.63 0.0002848
v 10.13 13.63 0.108
v 10.23 0.6047 0.0002848
v 10.23 0.6047 0.108
v 10.42 14.31 0.0002848
v 10.42 14.31 0.108
v 11.11 1.894 0.0002848
v 11.11 1.894 0.108
v 11.27 13 0.0002848
v 11.27 13 0.108
v 11.52 1.272 0.0002848
v 11.52 1.272 0.108
v 11.69 13.61 0.0002848
v 11.69 13.61 0.108
v 12.14 2.71 0.0002848
v 12.14 2.71 0.108
v 12.27 12.15 0.0002848
v 12.27 12.15 0.108
v 12.65 2.178 0.0002848
v 12.65 2.178 0.108
v 12.8 12.67 0.0002848
v 12.8 12.67 0.108
v 12.98 3.71 0.0002848
v 12.98 3.71 0.108
v 13.09 11.13 0.0002848
v 13.09 11.13 0.108
v 13.59 3.289 0.0002848
v 13.59 3.289 0.108
v 13.62 4.855 0.0002848
v 13.62 4.855 0.108
v 13.69 9.964 0.0002848
v 13.69 9.964 0.108
v 13.71 11.53 0.0002848
v 13.71 11.53 0.108
v 14.01 6.102 0.0002848
v 14.01 6.102 0.108
v 14.05 8.707 0.0002848
v 14.05 8.707 0.108
v 14.16 7.403 0.0002848
v 14.16 7.403 0.108
v 14.3 4.562 0.0002848
v 14.3 4.562 0.108
v 14.38 10.24 0.0002848
v 14.38 10.24 0.108
v 14.74 5.947 0.0002848
v 14.74 5.947 0.108
v 14.78 8.841 0.0002848
v 14.78 8.841 0.108
v 14.9 7.392 0.0002848
v 14.9 7.392 0.108
vn 0.6969 -0.7171 0
vn 0.6969 -0.7171 0
vn 0.5436 -0.8393 0
vn 0.5436 -0.8393 0
vn 0.3694 -0.9293 0
vn 0.3694 -0.9293 0
vn 0.1811 -0.9835 0
vn 0.1811 -0.9835 0
vn -0.01428 -0.9999 0
vn -0.01428 -0.9999 0
vn -0.2091 -0.9779 0
vn -0.2091 -0.9779 0
vn -0.3958 -0.9183 0
vn -0.3958 -0.9183 0
vn -0.5674 -0.8234 0
vn -0.5674 -0.8234 0
vn -0.7171 -0.6969 0
vn -0.7171 -0.6969 0
vn -0.8393 -0.5436 0
vn -0.8393 -0.5436 0
vn -0.9293 -0.3694 0
vn -0.9293 -0.3694 0
vn -0.9835 -0.1811 0
vn -0.9835 -0.1811 0
vn -0.9999 0.01428 0
vn -0.9999 0.01428 0
vn -0.9779 0.2091 0
vn -0.9779 0.2091 0
vn -0.9183 0.3958 0
vn -0.9183 0.3958 0
vn -0.8234 0.5674 0
vn -0.8234 0.5674 0
vn -0.6969 0.7171 0
vn -0.6969 0.7171 0
vn -0.5436 0.8393 0
vn -0.5436 0.8393 0
vn -0.3694 0.9293 0
vn -0.3694 0.9293 0
vn -0.1811 0.9835 0
vn -0.1811 0.9835 0
vn 0.01428 0.9999 0
vn 0.01428 0.9999 0
vn 0.2091 0.9779 0
vn 0.2091 0.9779 0
vn 0.3958 0.9183 0
vn 0.3958 0.9183 0
vn 0.5674 0.8234 0
vn 0.5674 0.8234 0
vn 0.7171 0.6969 0
vn 0.7171 0.6969 0
vn 0.8393 0.5436 0
vn 0.8393 0.5436 0
vn 0.9293 0.3694 0
vn 0.9293 0.3694 0
vn 0.9835 0.1811 0
vn 0.9835 0.1811 0
vn 0.9999 -0.01428 0
vn 0.9999 -0.01428 0
vn 0.9779 -0.2091 0
vn 0.9779 -0.2091 0
vn 0.9183 -0.3958 0
vn 0.9183 -0.3958 0
vn 0.8234 -0.5674 0
vn 0.8234 -0.5674 0
vn 0.6969 -0.7171 0
vn 0.6969 -0.7171 0
vn -0.6969 0.7171 0
vn -0.6969 0.7171 0
vn -0.8234 0.5674 0
vn -0.8234 0.5674 0
vn -0.9183 0.3958 0
vn -0.9183 0.3958 0
vn -0.9779 0.2091 0
vn -0.9779 0.2091 0
vn -0.9999 0.01428 0
vn -0.9999 0.01428 0
vn -0.9835 -0.1811 0
vn -0.9835 -0.1811 0
vn -0.9293 -0.3694 0
vn -0.9293 -0.3694 0
vn -0.8393 -0.5436 0
vn -0.8393 -0.5436 0
vn -0.7171 -0.6969 0
vn -0.7171 -0.6969 0
vn -0.5674 -0.8234 0
vn -0.5674 -0.8234 0
vn -0.3958 -0.9183 0
vn -0.3958 -0.9183 0
vn -0.2091 -0.9779 0
vn -0.2091 -0.9779 0
vn -0.01428 -0.9999 0
vn -0.01428 -0.9999 0
vn 0.1811 -0.9835 0
vn 0.1811 -0.9835 0
vn 0.3694 -0.9293 0
vn 0.3694 -0.9293 0
vn 0.5436 -0.8393 0
vn 0.5436 -0.8393 0
vn 0.6969 -0.7171 0
vn 0.6969 -0.7171 0
vn 0.8234 -0.5674 0
vn 0.8234 -0.5674 0
vn 0.9183 -0.3958 0
vn 0.9183 -0.3958 0
vn 0.9779 -0.2091 0
vn 0.9779 -0.2091 0
vn 0.9999 -0.01428 0
vn 0.9999 -0.01428 0
vn 0.9835 0.1811 0
vn 0.9835 0.1811 0
vn 0.9293 0.3694 0
vn 0.9293 0.3694 0
vn 0.8393 0.5436 0
vn 0.8393 0.5436 0
vn 0.7171 0.6969 0
vn 0.7171 0.6969 0
vn 0.5674 0.8234 0
vn 0.5674 0.8234 0
vn 0.3958 0.9183 0
vn 0.3958 0.9183 0
vn 0.2091 0.9779 0
vn 0.2091 0.9779 0
vn 0.01428 0.9999 0
vn 0.01428 0.9999 0
vn -0.1811 0.9835 0
vn -0.1811 0.9835 0
vn -0.3694 0.9293 0
vn -0.3694 0.9293 0
vn -0.5436 0.8393 0
vn -0.5436 0.8393 0
vn -0.6969 0.7171 0
vn -0.6969 0.7171 0
vn 0 0 1
vn 0 0 1
vn 0 0 1
vn 0 0 1
vn 0 0 1
vn 0 0 1
vn 0 0 1
vn 0 0 1
vn 0 0 1
vn 0 0 1
vn 0 0 1
vn 0 0 1
vn 0 0 1
vn 0 0 1
vn 0 0 1
vn 0 0 1
vn 0 0 1
vn 0 0 1
vn 0 0 1
vn 0 0 1
vn 0 0 1
vn 0 0 1
vn 0 0 1
vn 0 0 1
vn 0 0 1
vn 0 0 1
vn 0 0 1
vn 0 0 1
vn 0 0 1
vn 0 0 1
vn 0 0 1
vn 0 0 1
vn 0 0 1
vn 0 0 1
vn 0 0 1
vn 0 0 1
vn 0 0 1
vn 0 0 1
vn 0 0 1
vn 0 0 1
vn 0 0 1
vn 0 0 1
vn 0 0 1
vn 0 0 1
vn 0 0 1
vn 0 0 1
vn 0 0 1
vn 0 0 1
vn 0 0 1
vn 0 0 1
vn 0 0 1
vn 0 0 1
vn 0 0 1
vn 0 0 1
vn 0 0 1
vn 0 0 1
vn 0 0 1
vn 0 0 1
vn 0 0 1
vn 0 0 1
vn 0 0 1
vn 0 0 1
vn 0 0 1
vn 0 0 1
vn 0 0 -1
vn 0 0 -1
vn 0 0 -1
vn 0 0 -1
vn 0 0 -1
vn 0 0 -1
vn 0 0 -1
vn 0 0 -1
vn 0 0 -1
vn 0 0 -1
vn 0 0 -1
vn 0 0 -1
vn 0 0 -1
vn 0 0 -1
vn 0 0 -1
vn 0 0 -1
vn 0 0 -1
vn 0 0 -1
vn 0 0 -1
vn 0 0 -1
vn 0 0 -1
vn 0 0 -1
vn 0 0 -1
vn 0 0 -1
vn 0 0 -1
vn 0 0 -1
vn 0 0 -1
vn 0 0 -1
vn 0 0 -1
vn 0 0 -1
vn 0 0 -1
vn 0 0 -1
vn 0 0 -1
vn 0 0 -1
vn 0 0 -1
vn 0 0 -1
vn 0 0 -1
vn 0 0 -1
vn 0 0 -1
vn 0 0 -1
vn 0 0 -1
vn 0 0 -1
vn 0 0 -1
vn 0 0 -1
vn 0 0 -1
vn 0 0 -1
vn 0 0 -1
vn 0 0 -1
vn 0 0 -1
vn 0 0 -1
vn 0 0 -1
vn 0 0 -1
vn 0 0 -1
vn 0 0 -1
vn 0 0 -1
vn 0 0 -1
vn 0 0 -1
vn 0 0 -1
vn 0 0 -1
vn 0 0 -1
vn 0 0 -1
vn 0 0 -1
vn 0 0 -1
vn 0 0 -1
f 98//1 90//3 89//4 97//2
f 90//3 82//5 81//6 89//4
f 82//5 72//7 71//8 81//6
f 72//7 62//9 61//10 71//8
f 62//9 54//11 53//12 61//10
f 54//11 46//13 45//14 53//12
f 46//13 38//15 37//16 45//14
f 38//15 30//17 29//18 37//16
f 30//17 18//19 17//20 29//18
f 18//19 8//21 7//22 17//20
f 8//21 4//23 3//24 7//22
f 4//23 2//25 1//26 3//24
f 2//25 6//27 5//28 1//26
f 6//27 10//29 9//30 5//28
f 10//29 24//31 23//32 9//30
f 24//31 32//33 31//34 23//32
f 32//33 40//35 39//36 31//34
f 40//35 48//37 47//38 39//36
f 48//37 58//39 57//40 47//38
f 58//39 68//41 67//42 57//40
f 68//41 76//43 75//44 67//42
f 76//43 84//45 83//46 75//44
f 84//45 92//47 91//48 83//46
f 92//47 100//49 99//50 91//48
f 100//49 112//51 111//52 99//50
f 112//51 122//53 121//54 111//52
f 122//53 126//55 125//56 121//54
f 126//55 128//57 127//58 125//56
f 128//57 124//59 123//60 127//58
f 124//59 120//61 119//62 123//60
f 120//61 106//63 105//64 119//62
f 106//63 98//65 97//66 105//64
f 94//67 102//69 101//70 93//68
f 102//69 108//71 107//72 101//70
f 108//71 114//73 113//74 107//72
f 114//73 118//75 117//76 113//74
f 118//75 116//77 115//78 117//76
f 116//77 110//79 109//80 115//78
f 110//79 104//81 103//82 109//80
f 104//81 96//83 95//84 103//82
f 96//83 88//85 87//86 95//84
f 88//85 80//87 79//88 87//86
f 80//87 74//89 73//90 79//88
f 74//89 66//91 65//92 73//90
f 66//91 60//93 59//94 65//92
f 60//93 52//95 51//96 59//94
f 52//95 44//97 43//98 51//96
f 44//97 36//99 35//100 43//98
f 36//99 28//101 27//102 35//100
f 28//101 22//103 21//104 27//102
f 22//103 16//105 15//106 21//104
f 16//105 12//107 11//108 15//106
f 12//107 14//109 13//110 11//108
f 14//109 20//111 19//112 13//110
f 20//111 26//113 25//114 19//112
f 26//113 34//115 33//116 25//114
f 34//115 42//117 41//118 33//116
f 42//117 50//119 49//120 41//118
f 50//119 56//121 55//122 49//120
f 56//121 64//123 63//124 55//122
f 64//123 70//125 69//126 63//124
f 70//125 78//127 77//128 69//126
f 78//127 86//129 85//130 77//128
f 86//129 94//131 93//132 85//130
f 52//179 60//178 58//152
f 68//153 58//152 60//178
f 60//178 66//177 68//153
f 76//154 68//153 66//177
f 44//180 48//151 40//150
f 48//151 44//180 52//179
f 52//179 58//152 48//151
f 36//181 44//180 40//150
f 92//156 84//155 80//175
f 88//174 100//157 92//156
f 112//158 100//157 96//173
f 100//157 88//174 96//173
f 66//177 74//176 76//154
f 74//176 84//155 76//154
f 80//175 84//155 74//176
f 80//175 88//174 92//156
f 28//182 32//149 24//148
f 32//149 28//182 36//181
f 36//181 40//150 32//149
f 10//147 28//182 24//148
f 16//184 22//183 10//147
f 28//182 10//147 22//183
f 12//185 16//184 6//146
f 10//147 6//146 16//184
f 4//144 12//185 2//145
f 6//146 2//145 12//185
f 8//143 14//186 4//144
f 12//185 4//144 14//186
f 26//188 20//187 8//143
f 14//186 8//143 20//187
f 30//141 26//188 18//142
f 8//143 18//142 26//188
f 122//159 112//158 104//172
f 96//173 104//172 112//158
f 116//170 122//159 110//171
f 104//172 110//171 122//159
f 118//169 126//160 116//170
f 122//159 116//170 126//160
f 124//162 128//161 118//169
f 126//160 118//169 128//161
f 120//163 124//162 114//168
f 118//169 114//168 124//162
f 106//164 120//163 108//167
f 114//168 108//167 120//163
f 106//164 102//166 94//165
f 94//165 98//133 106//164
f 106//164 108//167 102//166
f 90//134 98//133 94//165
f 50//191 42//190 38//140
f 50//191 54//138 56//192
f 62//137 56//192 54//138
f 54//138 50//191 46//139
f 26//188 30//141 34//189
f 38//140 34//189 30//141
f 42//190 34//189 38//140
f 38//140 46//139 50//191
f 82//135 86//196 78//195
f 86//196 82//135 90//134
f 90//134 94//165 86//196
f 72//136 82//135 78//195
f 56//192 62//137 64//193
f 72//136 64//193 62//137
f 64//193 72//136 70//194
f 78//195 70//194 72//136
f 51//243 57//216 59//242
f 67//217 59//242 57//216
f 59//242 67//217 65//241
f 75//218 65//241 67//217
f 43//244 39//214 47//215
f 47//215 51//243 43//244
f 51//243 47//215 57//216
f 35//245 39//214 43//244
f 91//220 79//239 83//219
f 87//238 91//220 99//221
f 111//222 95//237 99//221
f 99//221 95//237 87//238
f 65//241 75//218 73//240
f 73//240 75//218 83//219
f 79//239 73//240 83//219
f 79//239 91//220 87//238
f 27//246 23//212 31//213
f 31//213 35//245 27//246
f 35//245 31//213 39//214
f 9//211 23//212 27//246
f 15//248 9//211 21//247
f 27//246 21//247 9//211
f 11//249 5//210 15//248
f 9//211 15//248 5//210
f 3//208 1//209 11//249
f 5//210 11//249 1//209
f 7//207 3//208 13//250
f 11//249 13//250 3//208
f 25//252 7//207 19//251
f 13//250 19//251 7//207
f 29//205 17//206 25//252
f 7//207 25//252 17//206
f 121//223 103//236 111//222
f 95//237 111//222 103//236
f 115//234 109//235 121//223
f 103//236 121//223 109//235
f 117//233 115//234 125//224
f 121//223 125//224 115//234
f 123//226 117//233 127//225
f 125//224 127//225 117//233
f 119//227 113//232 123//226
f 117//233 123//226 113//232
f 105//228 107//231 119//227
f 113//232 119//227 107//231
f 105//228 93//229 101//230
f 93//229 105//228 97//197
f 105//228 101//230 107//231
f 89//198 93//229 97//197
f 49//255 37//204 41//254
f 49//255 55//256 53//202
f 61//201 53//202 55//256
f 53//202 45//203 49//255
f 25//252 33//253 29//205
f 37//204 29//205 33//253
f 41//254 37//204 33//253
f 37//204 49//255 45//203
f 81//199 77//259 85//260
f 85//260 89//198 81//199
f 89//198 85//260 93//229
f 71//200 77//259 81//199
f 55//256 63//257 61//201
f 71//200 61//201 63//257
f 63//257 69//258 71//200
f 77//259 71//200 69//258
