# Rhino

v 5.773527145385742 2.416418075561523 1.121245980262756
v 5.773527145385742 2.411608934402466 1.13285505771637
v 5.773527145385742 2.411608934402466 1.109637022018433
v 5.773527145385742 2.400000095367432 1.137663006782532
v 5.773527145385742 2.400000095367432 1.104828000068665
v 5.773527145385742 2.388391017913818 1.13285505771637
v 5.773527145385742 2.388391017913818 1.109637022018433
v 5.773527145385742 2.383583068847656 1.121245980262756
v 5.711696147918701 2.460191011428833 1.121245980262756
v 5.711696147918701 2.442562103271484 1.163807034492493
v 5.711696147918701 2.442562103271484 1.078683972358704
v 5.711696147918701 2.400000095367432 1.181437015533447
v 5.711696147918701 2.400000095367432 1.061054944992065
v 5.711696147918701 2.357439041137695 1.163807034492493
v 5.711696147918701 2.357439041137695 1.078683972358704
v 5.711696147918701 2.339808940887451 1.121245980262756
v 5.612767219543457 2.504631042480469 1.121245980262756
v 5.612767219543457 2.473984956741333 1.195230960845947
v 5.612767219543457 2.473984956741333 1.047260999679565
v 5.612767219543457 2.400000095367432 1.225877046585083
v 5.612767219543457 2.400000095367432 1.016615033149719
v 5.612767219543457 2.326014995574951 1.195230960845947
v 5.612767219543457 2.326014995574951 1.047260999679565
v 5.612767219543457 2.295368909835815 1.121245980262756
v 5.3468918800354 2.559082984924316 1.121245980262756
v 5.3468918800354 2.512489080429077 1.233734965324402
v 5.3468918800354 2.400000095367432 1.280328989028931
v 5.3468918800354 2.287512063980103 1.233734965324402
v 5.3468918800354 2.240916967391968 1.121245980262756
v 5.346890926361084 2.512489080429077 1.008756995201111
v 5.346890926361084 2.400000095367432 0.962162971496582
v 5.346890926361084 2.287512063980103 1.008756995201111
v 4.885013103485107 2.512489080429077 1.233734965324402
v 4.885013103485107 2.400000095367432 1.280328989028931
v 4.885013103485107 2.287512063980103 1.233734965324402
v 4.885012149810791 2.559082984924316 1.121245980262756
v 4.885012149810791 2.512489080429077 1.008757948875427
v 4.885012149810791 2.400000095367432 0.962162971496582
v 4.885012149810791 2.287512063980103 1.008757948875427
v 4.885012149810791 2.240916967391968 1.121245980262756
v 4.880729198455811 2.497162103652954 1.218407988548279
v 4.880729198455811 2.400000095367432 1.258653998374939
v 4.880729198455811 2.302838087081909 1.218407988548279
v 4.880727767944336 2.537408113479614 1.121245980262756
v 4.880727767944336 2.497162103652954 1.02408504486084
v 4.880727767944336 2.400000095367432 0.9838389754295349
v 4.880727767944336 2.302838087081909 1.02408504486084
v 4.880727767944336 2.262593030929565 1.121245980262756
v 4.85687780380249 2.537408113479614 1.121245980262756
v 4.85687780380249 2.497162103652954 1.218407988548279
v 4.85687780380249 2.497162103652954 1.02408504486084
v 4.85687780380249 2.400000095367432 1.258653998374939
v 4.85687780380249 2.400000095367432 0.9838389754295349
v 4.85687780380249 2.302838087081909 1.218407988548279
v 4.85687780380249 2.302838087081909 1.02408504486084
v 4.85687780380249 2.262593030929565 1.121245980262756
v 4.849578857421875 2.559082984924316 1.121245980262756
v 4.849578857421875 2.512489080429077 1.233734965324402
v 4.849578857421875 2.512489080429077 1.008757948875427
v 4.849578857421875 2.400000095367432 1.280328989028931
v 4.849578857421875 2.400000095367432 0.962162971496582
v 4.849578857421875 2.287512063980103 1.233734965324402
v 4.849578857421875 2.287512063980103 1.008757948875427
v 4.849578857421875 2.240916967391968 1.121245980262756
v 3.610631942749023 2.516808986663818 1.220407009124756
v 3.610631942749023 2.514314889907837 1.019593000411987
v 3.610631942749023 2.501653909683228 1.235561966896057
v 3.610631942749023 2.499160051345825 1.004438042640686
v 3.610631942749023 2.300839900970459 1.004438042640686
v 3.610631942749023 2.298346042633057 1.235561966896057
v 3.610631942749023 2.285686016082764 1.019593000411987
v 3.610631942749023 2.283190965652466 1.220407009124756
v 3.322771072387695 2.735527992248535 1.445181965827942
v 3.322771072387695 2.726428985595703 1.454280972480774
v 3.322771072387695 2.073570966720581 1.454280972480774
v 3.322771072387695 2.064471960067749 1.445181965827942
v 3.322770118713379 2.733033895492554 0.7948189973831177
v 3.322770118713379 2.723934888839722 0.7857199907302856
v 3.322770118713379 2.076066017150879 0.7857199907302856
v 3.322770118713379 2.066967010498047 0.7948189973831177
v 2.913873910903931 2.735527992248535 1.445181965827942
v 2.913873910903931 2.733033895492554 0.7948189973831177
v 2.913873910903931 2.726428985595703 1.454280972480774
v 2.913873910903931 2.723934888839722 0.7857199907302856
v 2.913873910903931 2.076066017150879 0.7857199907302856
v 2.913873910903931 2.073570966720581 1.454280972480774
v 2.913873910903931 2.066967010498047 0.7948189973831177
v 2.913873910903931 2.064471960067749 1.445181965827942
v 2.632327079772949 2.516808986663818 1.220407009124756
v 2.632327079772949 2.514314889907837 1.019593954086304
v 2.632327079772949 2.501653909683228 1.235563039779663
v 2.632327079772949 2.499160051345825 1.004438996315002
v 2.632327079772949 2.300841093063355 1.004438996315002
v 2.632327079772949 2.298346042633057 1.235561966896057
v 2.632327079772949 2.285686016082764 1.019593954086304
v 2.632327079772949 2.283190965652466 1.220407009124756
v 1.834244966506958 2.45237398147583 1.077154994010925
v 1.834244966506958 2.447827100753784 1.07260799407959
v 1.834244966506958 2.355906963348389 1.173622012138367
v 1.834244966506958 2.351360082626343 1.169075012207031
v 1.828359007835388 2.451724052429199 1.177899956703186
v 1.828359007835388 2.445839881896973 1.183783054351807
v 1.828359007835388 2.343348026275635 1.069525003433228
v 1.828359007835388 2.337465047836304 1.075407981872559
v 1.628412961959839 2.67632794380188 0.8532019853591919
v 1.628412961959839 2.671780109405518 0.8486549854278565
v 1.628412961959839 2.131953954696655 1.397575974464417
v 1.628412961959839 2.127407073974609 1.393028020858765
v 1.622529983520508 2.675677061080933 1.401854038238525
v 1.622529983520508 2.669794082641602 1.407737016677856
v 1.622529029846191 2.119395017623901 0.8455719947814941
v 1.622529029846191 2.11351203918457 0.8514549732208252
v 1.413763999938965 2.449815034866333 1.079715013504028
v 1.413763999938965 2.445266962051392 1.075168013572693
v 1.413763999938965 2.358467102050781 1.17106294631958
v 1.413763999938965 2.353919982910156 1.166514992713928
v 1.413562059402466 2.678886890411377 0.8506429791450501
v 1.413562059402466 2.674340009689331 0.8460950255393982
v 1.413562059402466 2.129394054412842 1.40013599395752
v 1.413562059402466 2.124846935272217 1.395588040351868
v 1.407879948616028 2.449163913726807 1.175341010093689
v 1.407879948616028 2.443280935287476 1.18122398853302
v 1.407878041267395 2.345907926559448 1.072085022926331
v 1.407878041267395 2.340024948120117 1.077968001365662
v 1.407677054405212 2.678236961364746 1.404414057731628
v 1.407677054405212 2.672353982925415 1.41029703617096
v 1.407677054405212 2.116835117340088 0.8430119752883911
v 1.407677054405212 2.110951900482178 0.8488950133323669
v 1.323528051376343 2.559082984924316 1.121248960494995
v 1.323528051376343 2.512489080429077 1.233737945556641
v 1.323528051376343 2.512489080429077 1.00875997543335
v 1.323528051376343 2.400000095367432 1.280331969261169
v 1.323528051376343 2.400000095367432 0.9621660113334656
v 1.323528051376343 2.287512063980103 1.233737945556641
v 1.323528051376343 2.287512063980103 1.00875997543335
v 1.323528051376343 2.240916967391968 1.121248960494995
vn 0.8414679765701294 0.5403069853782654 0
vn 0.8414796590805054 0.3820418417453766 0.3820418417453766
vn 0.8414796590805054 0.3820418417453766 -0.3820418417453766
vn 0.8414679765701294 0 0.5403069853782654
vn 0.8414679765701294 0 -0.5403069853782654
vn 0.8414796590805054 -0.3820418417453766 0.3820418417453766
vn 0.8414796590805054 -0.3820418417453766 -0.3820418417453766
vn 0.8414679765701294 -0.5403069853782654 0
vn 0.4861739873886108 0.8738620281219482 0
vn 0.4861667156219482 0.6179166436195374 0.6179166436195374
vn 0.4861667156219482 0.6179166436195374 -0.6179166436195374
vn 0.4861739873886108 0 0.8738620281219482
vn 0.4861739873886108 0 -0.8738620281219482
vn 0.4861667156219482 -0.6179166436195374 0.6179166436195374
vn 0.4861667156219482 -0.6179166436195374 -0.6179166436195374
vn 0.4861739873886108 -0.8738620281219482 0
vn 0.2994880080223084 0.9541000723838806 0
vn 0.299481987953186 0.6746519804000855 0.6746519804000855
vn 0.299481987953186 0.6746519804000855 -0.6746519804000855
vn 0.2994880080223084 0 0.9541000723838806
vn 0.2994880080223084 0 -0.9541000723838806
vn 0.299481987953186 -0.6746519804000855 0.6746519804000855
vn 0.299481987953186 -0.6746519804000855 -0.6746519804000855
vn 0.2994880080223084 -0.9541000723838806 0
vn 0.0984550416469574 0.9951415061950684 0
vn 0.09845405071973801 0.703671395778656 0.703671395778656
vn 0.0984550416469574 0 0.9951415061950684
vn 0.09845405071973801 -0.703671395778656 0.703671395778656
vn 0.0984550416469574 -0.9951415061950684 0
vn 0.09842292964458466 0.7036735415458679 -0.7036735415458679
vn 0.09842504560947418 0 -0.9951444864273071
vn 0.09842292964458466 -0.7036735415458679 -0.7036735415458679
vn -0.5679731369018555 0.5819821953773499 0.5819821953773499
vn -0.5679678320884705 0 0.8230507373809815
vn -0.5679731369018555 -0.5819821953773499 0.5819821953773499
vn -0.5679678320884705 0.8230507373809815 0
vn -0.5679731369018555 0.5819821953773499 -0.5819821953773499
vn -0.5679890513420105 0 -0.8230361342430115
vn -0.5679731369018555 -0.5819821953773499 -0.5819821953773499
vn -0.5679678320884705 -0.8230507373809815 0
vn -0.7226396799087524 0.4887698292732239 0.4887698292732239
vn -0.722633957862854 0 0.6912309527397156
vn -0.7226396799087524 -0.4887698292732239 0.4887698292732239
vn -0.722633957862854 0.6912309527397156 0
vn -0.7226396799087524 0.4887698292732239 -0.4887698292732239
vn -0.722633957862854 0 -0.6912309527397156
vn -0.7226396799087524 -0.4887698292732239 -0.4887698292732239
vn -0.722633957862854 -0.6912309527397156 0
vn 0.6620020270347595 0.7495020031929016 0
vn 0.6620050668716431 0.5299760699272156 0.5299760699272156
vn 0.6620223522186279 0.5299652814865112 -0.5299652814865112
vn 0.6620020270347595 0 0.7495020031929016
vn 0.6620190143585205 0 -0.749487042427063
vn 0.6620050668716431 -0.5299760699272156 0.5299760699272156
vn 0.6620223522186279 -0.5299652814865112 -0.5299652814865112
vn 0.6620020270347595 -0.7495020031929016 0
vn 0.5242509245872498 0.8515638709068298 0
vn 0.5242590308189392 0.6021430492401123 0.6021430492401123
vn 0.5242590308189392 0.6021430492401123 -0.6021430492401123
vn 0.5242509245872498 0 0.8515638709068298
vn 0.5242650508880615 0 -0.8515551090240479
vn 0.5242590308189392 -0.6021430492401123 0.6021430492401123
vn 0.5242590308189392 -0.6021430492401123 -0.6021430492401123
vn 0.5242509245872498 -0.8515638709068298 0
vn 0.7645100951194763 0.1523520350456238 -0.6263490915298462
vn 0.7645100951194763 0.1523520350456238 0.6263490915298462
vn 0.7645100951194763 -0.6263490915298462 0.1523520350456238
vn 0.7645100951194763 -0.6263490915298462 -0.1523520350456238
vn 0.7645100951194763 0.6263490915298462 -0.1523520350456238
vn 0.7645100951194763 0.6263490915298462 0.1523520350456238
vn 0.7645100951194763 -0.1523520350456238 0.6263490915298462
vn 0.7645100951194763 -0.1523520350456238 -0.6263490915298462
vn 0.31300288438797 0.9473106265068054 0.06805697828531265
vn 0.31300288438797 0.06805697828531265 0.9473106265068054
vn 0.31300288438797 -0.06805697828531265 0.9473106265068054
vn 0.31300288438797 -0.9473106265068054 0.06805697828531265
vn 0.31300288438797 0.9473106265068054 -0.06805697828531265
vn 0.31300288438797 0.06805697828531265 -0.9473106265068054
vn 0.31300288438797 -0.06805697828531265 -0.9473106265068054
vn 0.31300288438797 -0.9473106265068054 -0.06805697828531265
vn -0.3172459900379181 0.9459090232849121 0.0679050013422966
vn -0.3172450661659241 0.9459071755409241 -0.06793501228094101
vn -0.3172450661659241 0.06793501228094101 0.9459071755409241
vn -0.3172450661659241 0.06793501228094101 -0.9459071755409241
vn -0.3172450661659241 -0.06793501228094101 -0.9459071755409241
vn -0.3172450661659241 -0.06793501228094101 0.9459071755409241
vn -0.3172450661659241 -0.9459071755409241 -0.06793501228094101
vn -0.3172459900379181 -0.9459090232849121 0.0679050013422966
vn -0.7624598741531372 0.1496659815311432 -0.629487931728363
vn -0.7624598741531372 0.1496659815311432 0.629487931728363
vn -0.7624598741531372 -0.629487931728363 0.1496659815311432
vn -0.7624598741531372 -0.629487931728363 -0.1496659815311432
vn -0.7624598741531372 0.629487931728363 -0.1496659815311432
vn -0.7624598741531372 0.629487931728363 0.1496659815311432
vn -0.7624598741531372 -0.1496659815311432 0.629487931728363
vn -0.7624598741531372 -0.1496659815311432 -0.629487931728363
vn 0.7338641285896301 0.1124330163002014 0.6699270606040955
vn 0.7338641285896301 -0.6699270606040955 -0.1124330163002014
vn 0.7338641285896301 0.6699270606040955 0.1124330163002014
vn 0.7338641285896301 -0.1124330163002014 -0.6699270606040955
vn 0.7338641285896301 0.1124330163002014 -0.6699270606040955
vn 0.7338641285896301 -0.6699270606040955 0.1124330163002014
vn 0.7338641285896301 0.6699270606040955 -0.1124330163002014
vn 0.7338359355926514 -0.1124329939484596 0.6699579358100891
vn 0.38191819190979 0.9226884841918945 -0.05276802554726601
vn 0.38191819190979 0.05276802554726601 -0.9226884841918945
vn 0.38191819190979 -0.05276802554726601 0.9226884841918945
vn 0.38191819190979 -0.9226884841918945 0.05276802554726601
vn 0.38191819190979 0.9226884841918945 0.05276802554726601
vn 0.38191819190979 0.05276802554726601 0.9226884841918945
vn 0.38191819190979 -0.05276802554726601 -0.9226884841918945
vn 0.38191819190979 -0.9226884841918945 -0.05276802554726601
vn -0.5748938322067261 -0.002318999264389277 0.8182247281074524
vn -0.5748938322067261 -0.8182247281074524 0.002318999264389277
vn -0.5748938322067261 0.8182247281074524 -0.002318999264389277
vn -0.5748938322067261 0.002318999264389277 -0.8182247281074524
vn -0.5730950236320496 0.8194779753684998 -0.004242000170052052
vn -0.5730950236320496 0.004242000170052052 -0.8194779753684998
vn -0.57309490442276 -0.004272999707609415 0.8194778561592102
vn -0.5730950236320496 -0.8194779753684998 0.004242000170052052
vn -0.5748938322067261 -0.002318999264389277 -0.8182247281074524
vn -0.5748938322067261 -0.8182247281074524 -0.002318999264389277
vn -0.5748790502548218 0.8182350993156433 0.002319000195711851
vn -0.5748938322067261 0.002318999264389277 0.8182247281074524
vn -0.5730950236320496 0.8194779753684998 0.004242000170052052
vn -0.5730950236320496 0.004242000170052052 0.8194779753684998
vn -0.5730950236320496 -0.004242000170052052 -0.8194779753684998
vn -0.5730950236320496 -0.8194779753684998 -0.004242000170052052
vn -0.6302589774131775 0.7763850092887878 0
vn -0.6302603483200073 0.5489863157272339 0.5489863157272339
vn -0.6302603483200073 0.5489863157272339 -0.5489863157272339
vn -0.6302589774131775 0 0.7763850092887878
vn -0.6302589774131775 0 -0.7763850092887878
vn -0.6302603483200073 -0.5489863157272339 0.5489863157272339
vn -0.6302603483200073 -0.5489863157272339 -0.5489863157272339
vn -0.6302589774131775 -0.7763850092887878 0
f 95//95 93//93 85//85 87//87
f 87//87 85//85 79//79 80//80
f 80//80 79//79 69//69 71//71
f 93//93 95//95 71//71 69//69
f 93//93 69//69 79//79 85//85
f 71//71 95//95 87//87 80//80
f 91//91 83//83 81//81 89//89
f 83//83 74//74 73//73 81//81
f 74//74 67//67 65//65 73//73
f 67//67 91//91 89//89 65//65
f 89//89 81//81 73//73 65//65
f 67//67 74//74 83//83 91//91
f 94//94 96//96 88//88 86//86
f 86//86 88//88 76//76 75//75
f 75//75 76//76 72//72 70//70
f 70//70 72//72 96//96 94//94
f 96//96 72//72 76//76 88//88
f 70//70 94//94 86//86 75//75
f 90//90 82//82 84//84 92//92
f 82//82 77//77 78//78 84//84
f 77//77 66//66 68//68 78//78
f 66//66 90//90 92//92 68//68
f 92//92 84//84 78//78 68//68
f 66//66 77//77 82//82 90//90
f 49//49 44//44 45//45 51//51
f 51//51 45//45 46//46 53//53
f 53//53 46//46 47//47 55//55
f 55//55 47//47 48//48 56//56
f 56//56 48//48 43//43 54//54
f 54//54 43//43 42//42 52//52
f 34//34 35//35 28//28 27//27
f 50//50 41//41 44//44 49//49
f 52//52 42//42 41//41 50//50
f 30//30 25//25 17//17 19//19
f 33//33 34//34 27//27 26//26
f 36//36 33//33 26//26 25//25
f 38//38 37//37 30//30 31//31
f 39//39 38//38 31//31 32//32
f 37//37 36//36 25//25 30//30
f 40//40 39//39 32//32 29//29
f 35//35 40//40 29//29 28//28
f 21//21 19//19 11//11 13//13
f 29//29 32//32 23//23 24//24
f 26//26 27//27 20//20 18//18
f 32//32 31//31 21//21 23//23
f 27//27 28//28 22//22 20//20
f 31//31 30//30 19//19 21//21
f 28//28 29//29 24//24 22//22
f 25//25 26//26 18//18 17//17
f 15//15 13//13 5//5 7//7
f 22//22 24//24 16//16 14//14
f 17//17 18//18 10//10 9//9
f 19//19 17//17 9//9 11//11
f 24//24 23//23 15//15 16//16
f 18//18 20//20 12//12 10//10
f 23//23 21//21 13//13 15//15
f 20//20 22//22 14//14 12//12
f 3//3 1//1 2//2
f 3//3 2//2 5//5
f 2//2 4//4 5//5
f 4//4 6//6 5//5
f 6//6 7//7 5//5
f 6//6 8//8 7//7
f 12//12 14//14 6//6 4//4
f 13//13 11//11 3//3 5//5
f 14//14 16//16 8//8 6//6
f 9//9 10//10 2//2 1//1
f 11//11 9//9 1//1 3//3
f 16//16 15//15 7//7 8//8
f 10//10 12//12 4//4 2//2
f 130//130 129//129 131//131
f 130//130 131//131 133//133
f 130//130 133//133 132//132
f 133//133 134//134 132//132
f 133//133 135//135 134//134
f 135//135 136//136 134//134
f 42//42 43//43 35//35 34//34
f 41//41 42//42 34//34 33//33
f 44//44 41//41 33//33 36//36
f 46//46 45//45 37//37 38//38
f 47//47 46//46 38//38 39//39
f 45//45 44//44 36//36 37//37
f 48//48 47//47 39//39 40//40
f 43//43 48//48 40//40 35//35
f 129//129 57//57 59//59 131//131
f 131//131 59//59 61//61 133//133
f 133//133 61//61 63//63 135//135
f 135//135 63//63 64//64 136//136
f 136//136 64//64 62//62 134//134
f 134//134 62//62 60//60 132//132
f 130//130 58//58 57//57 129//129
f 132//132 60//60 58//58 130//130
f 64//64 56//56 54//54 62//62
f 58//58 50//50 49//49 57//57
f 61//61 53//53 55//55 63//63
f 62//62 54//54 52//52 60//60
f 57//57 49//49 51//51 59//59
f 63//63 55//55 56//56 64//64
f 59//59 51//51 53//53 61//61
f 60//60 52//52 50//50 58//58
f 116//116 120//120 119//119 115//115
f 120//120 108//108 107//107 119//119
f 108//108 100//100 99//99 107//107
f 100//100 116//116 115//115 99//99
f 115//115 119//119 107//107 99//99
f 100//100 108//108 120//120 116//116
f 114//114 113//113 117//117 118//118
f 118//118 117//117 105//105 106//106
f 106//106 105//105 97//97 98//98
f 98//98 97//97 113//113 114//114
f 113//113 97//97 105//105 117//117
f 98//98 114//114 118//118 106//106
f 122//122 126//126 125//125 121//121
f 126//126 110//110 109//109 125//125
f 110//110 102//102 101//101 109//109
f 102//102 122//122 121//121 101//101
f 121//121 125//125 109//109 101//101
f 102//102 110//110 126//126 122//122
f 124//124 123//123 127//127 128//128
f 128//128 127//127 111//111 112//112
f 112//112 111//111 103//103 104//104
f 104//104 103//103 123//123 124//124
f 123//123 103//103 111//111 127//127
f 104//104 124//124 128//128 112//112
