# RokuSuper Output Ver2.0 for Wavefront Obj

v 5.55929900 6.21413400 0.75492400
v 5.54964200 6.21413400 1.15008000
v 5.27467800 6.21413400 1.15101000
v 5.28433500 6.21413400 0.75585500
v 5.27467800 6.17326900 1.15101000
v 5.28433500 6.17326900 0.75585500
v 5.54964200 6.17326900 1.15008000
v 5.55929900 6.17326900 0.75492400
v 5.64546100 6.21413400 0.61813800
v 5.26879700 6.21413400 0.61658200
v 5.26879700 6.17326900 0.61658200
v 5.64546100 6.17326900 0.61813800
v 5.77242300 6.21413400 0.47986800
v 5.14298200 6.21413400 0.47726900
v 5.14298200 6.17326900 0.47726900
v 5.77242300 6.17326900 0.47986900
v 5.81549600 6.21413400 0.28668400
v 5.10571700 6.21413400 0.32814400
v 5.10571700 6.17326900 0.32814400
v 5.81549600 6.17326900 0.28668400
v 5.37791000 6.08716900 0.41344200
v 5.37791000 5.93871300 0.41344200
v 5.38005300 5.93871300 0.32574400
v 5.38005300 6.08716900 0.32574400
v 5.51118100 5.93871300 0.32894900
v 5.51118100 6.08716900 0.32894800
v 5.50903800 5.93871300 0.41664700
v 5.50903800 6.08716900 0.41664700
v 5.37791000 6.17792300 0.41344200
v 5.38005300 6.17792300 0.32574400
v 5.51118100 6.17792300 0.32894800
v 5.50903800 6.17792300 0.41664700
v 5.49125900 6.17792300 1.14413100
v 5.36013000 6.17792300 1.14092700
v 5.36013000 6.08716900 1.14092700
v 5.49125900 6.08716900 1.14413100
v 5.43780700 6.02205100 0.64692700
v 5.17977400 6.02205100 0.48942400
v 5.70322600 6.02205100 0.50221600
v 5.71061100 6.02205100 0.20000200
v 5.45257900 6.02205100 0.04249800
v 5.18716000 6.02205100 0.18720900
v 5.70322600 5.82235200 0.50221600
v 5.17977400 5.82235200 0.48942400
v 5.43780700 5.82235200 0.64692700
v 5.71061100 5.82235200 0.20000200
v 5.45257900 5.82235200 0.04249900
v 5.18716000 5.82235200 0.18720900

vn 0.00000000 1.00000000 0.00000000
vn 0.00000000 1.00000000 0.00000000
vn 0.00000000 1.00000000 0.00000000
vn 0.00000000 1.00000000 0.00000000
vn -0.99970151 0.00000000 -0.02443122
vn -0.99782565 0.00000000 0.06590883
vn -0.99978545 0.00000000 0.02071383
vn -0.99970151 0.00000000 -0.02443122
vn 0.00000000 -1.00000000 0.00000000
vn 0.00000000 -1.00000000 0.00000000
vn 0.00000000 -1.00000000 0.00000000
vn 0.00000000 -1.00000000 0.00000000
vn 0.99970151 0.00000000 0.02443116
vn 0.92685247 0.00000000 0.37542576
vn 0.97972837 0.00000000 0.20033051
vn 0.99970151 0.00000000 0.02443116
vn 0.00000000 1.00000000 0.00000000
vn 0.00000000 1.00000000 0.00000000
vn 0.00000000 1.00000000 0.00000000
vn 0.00000000 1.00000000 0.00000000
vn -0.99782565 0.00000000 0.06590883
vn -0.86290125 0.00000000 0.50537256
vn -0.95054115 0.00000000 0.31059865
vn -0.99978545 0.00000000 0.02071383
vn 0.00000000 -1.00000000 0.00000000
vn 0.00000000 -1.00000000 0.00000000
vn 0.00000000 -1.00000000 0.00000000
vn 0.00000000 -1.00000000 0.00000000
vn 0.92685247 0.00000000 0.37542576
vn 0.77591008 0.00000554 0.63084352
vn 0.81255817 0.00000000 0.58288011
vn 0.97972837 0.00000000 0.20033051
vn 0.00000000 1.00000000 0.00000000
vn 0.00000000 1.00000000 0.00000000
vn 0.00000000 1.00000000 0.00000000
vn 0.00000000 1.00000000 0.00000000
vn -0.86290125 0.00000000 0.50537256
vn -0.91846468 0.00000000 0.39550301
vn -0.84039133 0.00000000 0.54198009
vn -0.95054115 0.00000000 0.31059865
vn 0.00000000 -1.00000000 0.00000000
vn 0.00000000 -1.00000000 0.00000000
vn 0.00000000 -1.00000000 0.00000000
vn 0.00000000 -1.00000000 0.00000000
vn 0.77591008 0.00000554 0.63084352
vn 0.92413311 0.00000752 0.38207067
vn 0.84183027 0.00000752 0.53974234
vn 0.81255817 0.00000000 0.58288011
vn 0.00000000 1.00000000 0.00000000
vn 0.00000000 1.00000000 0.00000000
vn 0.00000000 1.00000000 0.00000000
vn 0.00000000 1.00000000 0.00000000
vn 0.00000000 -1.00000000 0.00000000
vn 0.00000000 -1.00000000 0.00000000
vn 0.00000000 -1.00000000 0.00000000
vn 0.00000000 -1.00000000 0.00000000
vn -0.05831315 0.00000000 -0.99829834
vn -0.05831315 0.00000000 -0.99829834
vn -0.05831315 0.00000000 -0.99829834
vn -0.05831315 0.00000000 -0.99829834
vn -0.97016737 0.00000000 0.24243612
vn -0.84039133 0.00000000 0.54198009
vn -0.91846468 0.00000000 0.39550301
vn -0.97016737 0.00000000 0.24243612
vn 0.00338224 0.00000000 0.99999428
vn 0.00338224 0.00000000 0.99999428
vn 0.00338224 0.00000000 0.99999428
vn 0.00338224 0.00000000 0.99999428
vn 0.92413311 0.00000752 0.38207067
vn 0.97603382 0.00000000 0.21761889
vn 0.97603370 0.00000266 0.21761942
vn 0.84183027 0.00000752 0.53974234
vn -0.99970157 0.00000000 -0.02442884
vn -0.99970152 0.00000000 -0.02443096
vn -0.99970157 0.00000000 -0.02442884
vn -0.99970157 0.00000000 -0.02442884
vn 0.02443066 -0.00000337 -0.99970153
vn 0.02442685 0.00000000 -0.99970162
vn 0.02442875 -0.00000168 -0.99970157
vn 0.02443447 -0.00000673 -0.99970143
vn 0.99970157 0.00000008 0.02442870
vn 0.99970158 0.00000008 0.02442856
vn 0.99970156 0.00000003 0.02442925
vn 0.99970157 0.00000000 0.02442884
vn -0.02443447 0.00000000 0.99970143
vn -0.02443447 0.00000000 0.99970143
vn -0.02443447 0.00000000 0.99970143
vn -0.02443447 0.00000000 0.99970143
vn 0.00000000 1.00000000 0.00000000
vn 0.00000000 1.00000000 0.00000000
vn 0.00000000 1.00000000 0.00000000
vn 0.00000000 1.00000000 0.00000000
vn 0.99970158 0.00000000 0.02442856
vn 0.99970153 0.00000000 0.02443067
vn 0.99970156 0.00000003 0.02442925
vn 0.99970158 0.00000008 0.02442856
vn 0.00000000 -1.00000000 0.00000000
vn 0.00000000 -1.00000000 0.00000000
vn 0.00000000 -1.00000000 0.00000000
vn 0.00000000 -1.00000000 0.00000000
vn -0.99970157 0.00000000 -0.02442884
vn -0.99970152 0.00000000 -0.02443096
vn -0.99970154 0.00000000 -0.02443025
vn -0.99970157 0.00000000 -0.02442884
vn 0.00000000 1.00000000 0.00000000
vn 0.00000000 1.00000000 0.00000000
vn 0.00000000 1.00000000 0.00000000
vn 0.00000000 1.00000000 0.00000000
vn 0.00000000 -1.00000000 0.00000000
vn 0.00000000 -1.00000000 0.00000000
vn 0.00000000 -1.00000000 0.00000000
vn 0.00000000 -1.00000000 0.00000000
vn 0.02442875 -0.00000168 -0.99970157
vn 0.02442685 0.00000000 -0.99970162
vn 0.02442685 0.00000000 -0.99970162
vn 0.02442685 0.00000000 -0.99970162
vn -0.99970152 0.00000000 -0.02443096
vn -0.99970147 0.00000000 -0.02443307
vn -0.99970147 0.00000000 -0.02443307
vn -0.99970154 0.00000000 -0.02443025
vn -0.02442666 0.00000000 0.99970162
vn -0.02442666 0.00000000 0.99970162
vn -0.02442666 0.00000000 0.99970162
vn -0.02442666 0.00000000 0.99970162
vn 0.99970150 0.00000000 0.02443173
vn 0.99970156 0.00000003 0.02442925
vn 0.99970153 0.00000000 0.02443067
vn 0.99970150 0.00000000 0.02443173
vn 0.00000000 1.00000000 0.00000000
vn 0.00000000 1.00000000 0.00000000
vn 0.00000000 1.00000000 0.00000000
vn 0.00000000 1.00000000 0.00000000
vn 0.00000000 1.00000000 0.00000000
vn 0.00000000 1.00000000 0.00000000
vn 0.00000000 1.00000000 0.00000000
vn 0.00000000 1.00000000 0.00000000
vn 0.00000000 1.00000000 0.00000000
vn 0.00000000 1.00000000 0.00000000
vn 0.00000000 1.00000000 0.00000000
vn 0.00000000 1.00000000 0.00000000
vn 0.00000000 -1.00000000 0.00000000
vn 0.00000000 -1.00000000 0.00000000
vn 0.00000000 -1.00000000 0.00000000
vn 0.00000000 -1.00000000 0.00000000
vn 0.00000000 -1.00000000 0.00000000
vn 0.00000000 -1.00000000 0.00000000
vn 0.00000000 -1.00000000 0.00000000
vn 0.00000000 -1.00000000 0.00000000
vn 0.00000000 -1.00000000 0.00000000
vn 0.00000000 -1.00000000 0.00000000
vn 0.00000000 -1.00000000 0.00000000
vn 0.00000000 -1.00000000 0.00000000
vn -0.52100718 0.00000000 0.85355229
vn -0.52100718 0.00000000 0.85355229
vn -0.21291585 0.00000000 0.97707054
vn 0.16493443 0.00000000 0.98630453
vn 0.16493443 0.00000000 0.98630453
vn -0.21291585 0.00000000 0.97707054
vn 0.47869151 0.00000000 0.87798317
vn 0.47869151 0.00000000 0.87798317
vn 0.99970157 0.00000000 0.02442903
vn 0.99970157 0.00000000 0.02442903
vn 0.95262564 0.00000000 -0.30414534
vn 0.77169746 -0.00000162 -0.63598981
vn 0.77169746 -0.00000162 -0.63598981
vn 0.95262564 0.00000000 -0.30414534
vn 0.21291885 -0.00000328 -0.97706989
vn -0.16493213 -0.00000328 -0.98630492
vn -0.16493213 -0.00000328 -0.98630492
vn 0.21291885 -0.00000328 -0.97706989
vn -0.47869023 -0.00000220 -0.87798386
vn -0.47869151 0.00000000 -0.87798317
vn -0.99970149 0.00000000 -0.02443226
vn -0.99970149 0.00000000 -0.02443226
vn -0.99970149 0.00000000 -0.02443226
vn -0.99970149 0.00000000 -0.02443226

g ²ã
f 2//1 1//2 4//3 3//4
f 3//5 4//6 6//7 5//8
f 5//9 6//10 8//11 7//12
f 7//13 8//14 1//15 2//16
f 1//17 9//18 10//19 4//20
f 4//21 10//22 11//23 6//24
f 6//25 11//26 12//27 8//28
f 8//29 12//30 9//31 1//32
f 9//33 13//34 14//35 10//36
f 10//37 14//38 15//39 11//40
f 11//41 15//42 16//43 12//44
f 12//45 16//46 13//47 9//48
f 13//49 17//50 18//51 14//52
f 15//53 19//54 20//55 16//56
f 20//57 19//58 18//59 17//60
f 19//61 15//62 14//63 18//64
f 5//65 7//66 2//67 3//68
f 16//69 20//70 17//71 13//72
f 22//73 21//74 24//75 23//76
f 23//77 24//78 26//79 25//80
f 25//81 26//82 28//83 27//84
f 27//85 28//86 21//87 22//88
f 30//89 29//90 32//91 31//92
f 31//93 32//94 28//95 26//96
f 25//97 27//98 22//99 23//100
f 24//101 21//102 29//103 30//104
f 33//105 32//106 29//107 34//108
f 35//109 21//110 28//111 36//112
f 26//113 24//114 30//115 31//116
f 21//117 35//118 34//119 29//120
f 35//121 36//122 33//123 34//124
f 36//125 28//126 32//127 33//128
f 39//129 38//130 37//131
f 40//132 38//133 39//134
f 41//135 38//136 40//137
f 42//138 38//139 41//140
f 45//141 44//142 43//143
f 43//144 44//145 46//146
f 46//147 44//148 47//149
f 47//150 44//151 48//152
f 38//153 44//154 45//155 37//156
f 37//157 45//158 43//159 39//160
f 39//161 43//162 46//163 40//164
f 40//165 46//166 47//167 41//168
f 41//169 47//170 48//171 42//172
f 42//173 48//174 44//175 38//176

