# RokuSuper Output Ver2.0 for Wavefront Obj

v 5.27467800 3.78586700 1.15101000
v 5.54964200 3.78586700 1.15008000
v 5.55929900 3.78586700 0.75492400
v 5.28433500 3.78586700 0.75585500
v 5.27467800 3.82673300 1.15101000
v 5.28433500 3.82673300 0.75585500
v 5.54964200 3.82673300 1.15008000
v 5.55929900 3.82673300 0.75492400
v 5.64546100 3.78586700 0.61813800
v 5.26879700 3.78586700 0.61658200
v 5.26879700 3.82673300 0.61658200
v 5.64546100 3.82673300 0.61813800
v 5.77242300 3.78586700 0.47986800
v 5.14298200 3.78586700 0.47726900
v 5.14298200 3.82673300 0.47726900
v 5.77242300 3.82673300 0.47986800
v 5.81549600 3.78586700 0.28668400
v 5.10571700 3.78586700 0.32814400
v 5.10571700 3.82673300 0.32814400
v 5.81549600 3.82673300 0.28668400
v 5.38005300 4.06128700 0.32574400
v 5.37791000 4.06128700 0.41344200
v 5.37791000 3.91283200 0.41344200
v 5.38005300 3.91283200 0.32574400
v 5.51118100 4.06128700 0.32894900
v 5.51118100 3.91283200 0.32894800
v 5.50903800 4.06128700 0.41664700
v 5.50903800 3.91283200 0.41664700
v 5.51118100 3.82207800 0.32894800
v 5.38005300 3.82207800 0.32574400
v 5.37791000 3.82207800 0.41344200
v 5.50903800 3.82207800 0.41664700
v 5.36013000 3.82207800 1.14092700
v 5.49125900 3.82207800 1.14413100
v 5.49125900 3.91283200 1.14413100
v 5.36013000 3.91283200 1.14092700
v 5.17977400 3.97795000 0.48942400
v 5.43780700 3.97795000 0.64692700
v 5.70322600 3.97795000 0.50221600
v 5.71061100 3.97795000 0.20000200
v 5.45257900 3.97795000 0.04249900
v 5.18716000 3.97795000 0.18720900
v 5.17977400 4.17764900 0.48942400
v 5.70322600 4.17764900 0.50221600
v 5.43780700 4.17764900 0.64692700
v 5.71061100 4.17764900 0.20000200
v 5.45257900 4.17764900 0.04249900
v 5.18716000 4.17764900 0.18720900

vn 0.00000000 -1.00000000 0.00000000
vn 0.00000000 -1.00000000 0.00000000
vn 0.00000000 -1.00000000 0.00000000
vn 0.00000000 -1.00000000 0.00000000
vn -0.99970151 0.00000000 -0.02443122
vn -0.99970151 0.00000000 -0.02443122
vn -0.99978545 0.00000000 0.02071383
vn -0.99782565 0.00000000 0.06590883
vn 0.00000000 1.00000000 0.00000000
vn 0.00000000 1.00000000 0.00000000
vn 0.00000000 1.00000000 0.00000000
vn 0.00000000 1.00000000 0.00000000
vn 0.99970151 0.00000000 0.02443116
vn 0.99970151 0.00000000 0.02443116
vn 0.97972837 0.00000000 0.20033051
vn 0.92685247 0.00000000 0.37542576
vn 0.00000000 -1.00000000 0.00000000
vn 0.00000000 -1.00000000 0.00000000
vn 0.00000000 -1.00000000 0.00000000
vn 0.00000000 -1.00000000 0.00000000
vn -0.99782565 0.00000000 0.06590883
vn -0.99978545 0.00000000 0.02071383
vn -0.95054115 0.00000000 0.31059865
vn -0.86290125 0.00000000 0.50537256
vn 0.00000000 1.00000000 0.00000000
vn 0.00000000 1.00000000 0.00000000
vn 0.00000000 1.00000000 0.00000000
vn 0.00000000 1.00000000 0.00000000
vn 0.92685247 0.00000000 0.37542576
vn 0.97972837 0.00000000 0.20033051
vn 0.81255817 0.00000000 0.58288011
vn 0.77591084 0.00000000 0.63084258
vn 0.00000000 -1.00000000 0.00000000
vn 0.00000000 -1.00000000 0.00000000
vn 0.00000000 -1.00000000 0.00000000
vn 0.00000000 -1.00000000 0.00000000
vn -0.86290125 0.00000000 0.50537256
vn -0.95054115 0.00000000 0.31059865
vn -0.84039133 0.00000000 0.54198009
vn -0.91846468 0.00000000 0.39550301
vn 0.00000000 1.00000000 0.00000000
vn 0.00000000 1.00000000 0.00000000
vn 0.00000000 1.00000000 0.00000000
vn 0.00000000 1.00000000 0.00000000
vn 0.77591084 0.00000000 0.63084258
vn 0.81255817 0.00000000 0.58288011
vn 0.84183093 0.00000000 0.53974131
vn 0.92413341 0.00000000 0.38206994
vn 0.00000000 -1.00000000 0.00000000
vn 0.00000000 -1.00000000 0.00000000
vn 0.00000000 -1.00000000 0.00000000
vn 0.00000000 -1.00000000 0.00000000
vn 0.00000000 1.00000000 0.00000000
vn 0.00000000 1.00000000 0.00000000
vn 0.00000000 1.00000000 0.00000000
vn 0.00000000 1.00000000 0.00000000
vn -0.05831315 0.00000000 -0.99829834
vn -0.05831315 0.00000000 -0.99829834
vn -0.05831315 0.00000000 -0.99829834
vn -0.05831315 0.00000000 -0.99829834
vn -0.97016737 0.00000000 0.24243612
vn -0.97016737 0.00000000 0.24243612
vn -0.91846468 0.00000000 0.39550301
vn -0.84039133 0.00000000 0.54198009
vn 0.00338224 0.00000000 0.99999428
vn 0.00338224 0.00000000 0.99999428
vn 0.00338224 0.00000000 0.99999428
vn 0.00338224 0.00000000 0.99999428
vn 0.92413341 0.00000000 0.38206994
vn 0.84183093 0.00000000 0.53974131
vn 0.97603358 0.00000000 0.21761996
vn 0.97603358 0.00000000 0.21761996
vn -0.99970157 0.00000000 -0.02442884
vn -0.99970157 0.00000000 -0.02442884
vn -0.99970157 0.00000000 -0.02442884
vn -0.99970152 0.00000000 -0.02443096
vn 0.02443066 0.00000337 -0.99970153
vn 0.02443447 0.00000673 -0.99970143
vn 0.02442875 0.00000168 -0.99970157
vn 0.02442685 0.00000000 -0.99970162
vn 0.99970157 -0.00000008 0.02442870
vn 0.99970157 0.00000000 0.02442884
vn 0.99970156 -0.00000003 0.02442925
vn 0.99970158 -0.00000008 0.02442856
vn -0.02443447 0.00000000 0.99970143
vn -0.02443447 0.00000000 0.99970143
vn -0.02443447 0.00000000 0.99970143
vn -0.02443447 0.00000000 0.99970143
vn 0.00000000 -1.00000000 0.00000000
vn 0.00000000 -1.00000000 0.00000000
vn 0.00000000 -1.00000000 0.00000000
vn 0.00000000 -1.00000000 0.00000000
vn 0.99970158 0.00000000 0.02442856
vn 0.99970158 -0.00000008 0.02442856
vn 0.99970156 -0.00000003 0.02442925
vn 0.99970153 0.00000000 0.02443067
vn 0.00000000 1.00000000 0.00000000
vn 0.00000000 1.00000000 0.00000000
vn 0.00000000 1.00000000 0.00000000
vn 0.00000000 1.00000000 0.00000000
vn -0.99970157 0.00000000 -0.02442884
vn -0.99970157 0.00000000 -0.02442884
vn -0.99970154 0.00000000 -0.02443025
vn -0.99970152 0.00000000 -0.02443096
vn 0.00000000 -1.00000000 0.00000000
vn 0.00000000 -1.00000000 0.00000000
vn 0.00000000 -1.00000000 0.00000000
vn 0.00000000 -1.00000000 0.00000000
vn 0.00000000 1.00000000 0.00000000
vn 0.00000000 1.00000000 0.00000000
vn 0.00000000 1.00000000 0.00000000
vn 0.00000000 1.00000000 0.00000000
vn 0.02442875 0.00000168 -0.99970157
vn 0.02442685 0.00000000 -0.99970162
vn 0.02442685 0.00000000 -0.99970162
vn 0.02442685 0.00000000 -0.99970162
vn -0.99970152 0.00000000 -0.02443096
vn -0.99970154 0.00000000 -0.02443025
vn -0.99970147 0.00000000 -0.02443307
vn -0.99970147 0.00000000 -0.02443307
vn -0.02442666 0.00000000 0.99970162
vn -0.02442666 0.00000000 0.99970162
vn -0.02442666 0.00000000 0.99970162
vn -0.02442666 0.00000000 0.99970162
vn 0.99970150 0.00000000 0.02443173
vn 0.99970150 0.00000000 0.02443173
vn 0.99970153 0.00000000 0.02443067
vn 0.99970156 -0.00000003 0.02442925
vn 0.00000000 -1.00000000 0.00000000
vn 0.00000000 -1.00000000 0.00000000
vn 0.00000000 -1.00000000 0.00000000
vn 0.00000000 -1.00000000 0.00000000
vn 0.00000000 -1.00000000 0.00000000
vn 0.00000000 -1.00000000 0.00000000
vn 0.00000000 -1.00000000 0.00000000
vn 0.00000000 -1.00000000 0.00000000
vn 0.00000000 -1.00000000 0.00000000
vn 0.00000000 -1.00000000 0.00000000
vn 0.00000000 -1.00000000 0.00000000
vn 0.00000000 -1.00000000 0.00000000
vn 0.00000000 1.00000000 0.00000000
vn 0.00000000 1.00000000 0.00000000
vn 0.00000000 1.00000000 0.00000000
vn 0.00000000 1.00000000 0.00000000
vn 0.00000000 1.00000000 0.00000000
vn 0.00000000 1.00000000 0.00000000
vn 0.00000000 1.00000000 0.00000000
vn 0.00000000 1.00000000 0.00000000
vn 0.00000000 1.00000000 0.00000000
vn 0.00000000 1.00000000 0.00000000
vn 0.00000000 1.00000000 0.00000000
vn 0.00000000 1.00000000 0.00000000
vn -0.52100718 0.00000000 0.85355229
vn 0.16493443 0.00000000 0.98630453
vn -0.21291585 0.00000000 0.97707054
vn -0.52100718 0.00000000 0.85355229
vn 0.16493443 0.00000000 0.98630453
vn 0.47869151 0.00000000 0.87798317
vn 0.47869151 0.00000000 0.87798317
vn -0.21291585 0.00000000 0.97707054
vn 0.99970157 0.00000000 0.02442903
vn 0.77169682 0.00000000 -0.63599058
vn 0.95262564 0.00000000 -0.30414534
vn 0.99970157 0.00000000 0.02442903
vn 0.77169682 0.00000000 -0.63599058
vn -0.16493190 0.00000000 -0.98630496
vn 0.21291787 0.00000000 -0.97707010
vn 0.95262564 0.00000000 -0.30414534
vn -0.16493190 0.00000000 -0.98630496
vn -0.47868896 0.00000000 -0.87798456
vn -0.47868896 0.00000000 -0.87798456
vn 0.21291787 0.00000000 -0.97707010
vn -0.99970149 0.00000000 -0.02443226
vn -0.99970149 0.00000000 -0.02443226
vn -0.99970149 0.00000000 -0.02443226
vn -0.99970149 0.00000000 -0.02443226

g ²ã
f 2//1 1//2 4//3 3//4
f 1//5 5//6 6//7 4//8
f 5//9 7//10 8//11 6//12
f 7//13 2//14 3//15 8//16
f 3//17 4//18 10//19 9//20
f 4//21 6//22 11//23 10//24
f 6//25 8//26 12//27 11//28
f 8//29 3//30 9//31 12//32
f 9//33 10//34 14//35 13//36
f 10//37 11//38 15//39 14//40
f 11//41 12//42 16//43 15//44
f 12//45 9//46 13//47 16//48
f 13//49 14//50 18//51 17//52
f 15//53 16//54 20//55 19//56
f 20//57 17//58 18//59 19//60
f 19//61 18//62 14//63 15//64
f 5//65 1//66 2//67 7//68
f 16//69 13//70 17//71 20//72
f 22//73 21//74 24//75 23//76
f 21//77 25//78 26//79 24//80
f 25//81 27//82 28//83 26//84
f 27//85 22//86 23//87 28//88
f 30//89 29//90 32//91 31//92
f 29//93 26//94 28//95 32//96
f 25//97 21//98 22//99 27//100
f 24//101 30//102 31//103 23//104
f 34//105 33//106 31//107 32//108
f 36//109 35//110 28//111 23//112
f 26//113 29//114 30//115 24//116
f 23//117 31//118 33//119 36//120
f 36//121 33//122 34//123 35//124
f 35//125 34//126 32//127 28//128
f 39//129 38//130 37//131
f 40//132 39//133 37//134
f 41//135 40//136 37//137
f 42//138 41//139 37//140
f 45//141 44//142 43//143
f 44//144 46//145 43//146
f 46//147 47//148 43//149
f 47//150 48//151 43//152
f 37//153 38//154 45//155 43//156
f 38//157 39//158 44//159 45//160
f 39//161 40//162 46//163 44//164
f 40//165 41//166 47//167 46//168
f 41//169 42//170 48//171 47//172
f 42//173 37//174 43//175 48//176

