# Blender v2.63 (sub 13) OBJ File: 'runway_1block_edit.blend'
# www.blender.org
mtllib runway_1block_edit.mtl
vt 0 0 0 0
vt 0.5 0.4 0.2 0.5
vt 1 1 1 1
o line_Cube.001
v 2.013613 4.763061 4.925900
v 2.013613 5.231063 4.925900
v 8.062362 5.231063 4.925900
v 8.062362 4.763061 4.925900
v 2.013613 4.763061 5.144220
v 2.013613 5.231063 5.144220
v 8.062362 5.231063 5.144220
v 8.062362 4.763061 5.144220
vn -1.000000 0.000000 -0.000000
vn 0.000000 1.000000 -0.000000
vn 1.000000 0.000000 -0.000000
vn 0.000000 -1.000000 -0.000000
vn -0.000000 0.000000 -1.000000
vn -0.000000 0.000000 1.000000
usemtl Material
s off
f 2/3/1 1/3/1 5/3/1 6/3/1
f 6/3/2 7/3/2 3/3/2 2/3/2
f 7/3/3 8/3/3 4/3/3 3/3/3
f 1/3/4 4/3/4 8/3/4 5/3/4
f 1/3/5 2/3/5 3/3/5 4/3/5
f 8/3/6 7/3/6 6/3/6 5/3/6
o _runway_Cube
v 0 0 0
v 0 10 0
v 10 10 0
v 10 0 0
v 0 0 5
v 0 10 5
v 10 10 5
v 10 0 5
usemtl Material.001
s off
f 10//1 9//1 13//1 14//1
f 14//2 15//2 11//2 10//2
f 15//3 16//3 12//3 11//3
f 9//4 12//4 16//4 13//4
f 9//5 10//5 11//5 12//5
usemtl Material.002
f 16/2/6 15/2/6 14/2/6 13/2/6
