# Shade 12 - Wavefront OBJ Exporter

vt 1 1 1 1
vt 0 0 0 0
vt 0 0 0 0

o Deck
v 0.000000e+00 0.000000e+00 0.000000e+00
v 1.000000e+02 0.000000e+00 0.000000e+00
v 1.000000e+02 1.000000e+01 0.000000e+00
v 0.000000e+00 1.000000e+01 0.000000e+00
# 4 vertices

vn 0.000000 0.000000 1.000000
vn 0.000000 0.000000 1.000000
vn 0.000000 0.000000 1.000000
vn 0.000000 0.000000 1.000000
# 4 vertex normals

s 1
g Deck
f 4/2/1 3/2/2 2/2/3 1/2/4
# 1 faces

o Deck
v 0.000000e+00 0.000000e+00 5.000000e+00
v 1.000000e+02 0.000000e+00 5.000000e+00
v 1.000000e+02 1.000000e+01 5.000000e+00
v 0.000000e+00 1.000000e+01 5.000000e+00
# 4 vertices

vn 0.000000 0.000000 1.000000
vn 0.000000 0.000000 1.000000
vn 0.000000 0.000000 1.000000
vn 0.000000 0.000000 1.000000
# 4 vertex normals

s 1
g Deck
f 5/3/8 6/3/7 7/3/6 8/3/5
# 1 faces

o Deck
v 0.000000e+00 1.000000e+01 5.000000e+00
v 0.000000e+00 1.000000e+01 0.000000e+00
v 1.000000e+02 1.000000e+01 5.000000e+00
v 1.000000e+02 1.000000e+01 0.000000e+00
v 1.000000e+02 1.000000e+01 5.000000e+00
v 1.000000e+02 1.000000e+01 0.000000e+00
v 1.000000e+02 0.000000e+00 5.000000e+00
v 1.000000e+02 0.000000e+00 0.000000e+00
v 1.000000e+02 0.000000e+00 5.000000e+00
v 1.000000e+02 0.000000e+00 0.000000e+00
v 0.000000e+00 0.000000e+00 5.000000e+00
v 0.000000e+00 0.000000e+00 0.000000e+00
v 0.000000e+00 0.000000e+00 5.000000e+00
v 0.000000e+00 0.000000e+00 0.000000e+00
v 0.000000e+00 1.000000e+01 5.000000e+00
v 0.000000e+00 1.000000e+01 0.000000e+00
# 16 vertices

vn 0.000000 -1.000000 0.000000
vn 0.000000 -1.000000 0.000000
vn 0.000000 -1.000000 0.000000
vn 0.000000 -1.000000 0.000000
vn -1.000000 0.000000 0.000000
vn -1.000000 0.000000 0.000000
vn -1.000000 0.000000 0.000000
vn -1.000000 0.000000 0.000000
vn 0.000000 1.000000 -0.000000
vn 0.000000 1.000000 -0.000000
vn 0.000000 1.000000 -0.000000
vn 0.000000 1.000000 -0.000000
vn 1.000000 0.000000 0.000000
vn 1.000000 0.000000 0.000000
vn 1.000000 0.000000 0.000000
vn 1.000000 0.000000 0.000000
# 16 vertex normals

s 1
g Deck
f 11/2/9 12/2/10 10/2/11 9/2/12
f 15/2/13 16/2/14 14/2/15 13/2/16
f 19/2/17 20/2/18 18/2/19 17/2/20
f 23/2/21 24/2/22 22/2/23 21/2/24
# 4 faces

o Line
v 1.199405e+01 4.763061e+00 5.144217e+00
v 1.199405e+01 5.231064e+00 5.144217e+00
v 1.199405e+01 5.231064e+00 4.925898e+00
v 1.199405e+01 4.763061e+00 4.925898e+00
v 1.804280e+01 5.231064e+00 5.144217e+00
v 1.804280e+01 5.231064e+00 4.925898e+00
v 1.804280e+01 4.763061e+00 5.144217e+00
v 1.804280e+01 4.763061e+00 4.925898e+00
v 2.197449e+01 4.763061e+00 5.144217e+00
v 2.197449e+01 5.231064e+00 5.144217e+00
v 2.197449e+01 5.231064e+00 4.925898e+00
v 2.197449e+01 4.763061e+00 4.925898e+00
v 2.802323e+01 5.231064e+00 5.144217e+00
v 2.802323e+01 5.231064e+00 4.925898e+00
v 2.802323e+01 4.763061e+00 5.144217e+00
v 2.802323e+01 4.763061e+00 4.925898e+00
v 3.195492e+01 4.763061e+00 5.144217e+00
v 3.195492e+01 5.231064e+00 5.144217e+00
v 3.195492e+01 5.231064e+00 4.925898e+00
v 3.195492e+01 4.763061e+00 4.925898e+00
v 3.800367e+01 5.231064e+00 5.144217e+00
v 3.800367e+01 5.231064e+00 4.925898e+00
v 3.800367e+01 4.763061e+00 5.144217e+00
v 3.800367e+01 4.763061e+00 4.925898e+00
v 4.193536e+01 4.763061e+00 5.144217e+00
v 4.193536e+01 5.231064e+00 5.144217e+00
v 4.193536e+01 5.231064e+00 4.925898e+00
v 4.193536e+01 4.763061e+00 4.925898e+00
v 4.798411e+01 5.231064e+00 5.144217e+00
v 4.798411e+01 5.231064e+00 4.925898e+00
v 4.798411e+01 4.763061e+00 5.144217e+00
v 4.798411e+01 4.763061e+00 4.925898e+00
v 5.191579e+01 4.763061e+00 5.144217e+00
v 5.191579e+01 5.231064e+00 5.144217e+00
v 5.191579e+01 5.231064e+00 4.925898e+00
v 5.191579e+01 4.763061e+00 4.925898e+00
v 5.796455e+01 5.231064e+00 5.144217e+00
v 5.796455e+01 5.231064e+00 4.925898e+00
v 5.796455e+01 4.763061e+00 5.144217e+00
v 5.796455e+01 4.763061e+00 4.925898e+00
v 6.189624e+01 4.763061e+00 5.144217e+00
v 6.189624e+01 5.231064e+00 5.144217e+00
v 6.189624e+01 5.231064e+00 4.925898e+00
v 6.189624e+01 4.763061e+00 4.925898e+00
v 6.794499e+01 5.231064e+00 5.144217e+00
v 6.794499e+01 5.231064e+00 4.925898e+00
v 6.794499e+01 4.763061e+00 5.144217e+00
v 6.794499e+01 4.763061e+00 4.925898e+00
v 7.187667e+01 4.763061e+00 5.144217e+00
v 7.187667e+01 5.231064e+00 5.144217e+00
v 7.187667e+01 5.231064e+00 4.925898e+00
v 7.187667e+01 4.763061e+00 4.925898e+00
v 7.792541e+01 5.231064e+00 5.144217e+00
v 7.792541e+01 5.231064e+00 4.925898e+00
v 7.792541e+01 4.763061e+00 5.144217e+00
v 7.792541e+01 4.763061e+00 4.925898e+00
v 8.185711e+01 4.763061e+00 5.144217e+00
v 8.185711e+01 5.231064e+00 5.144217e+00
v 8.185711e+01 5.231064e+00 4.925898e+00
v 8.185711e+01 4.763061e+00 4.925898e+00
v 8.790586e+01 5.231064e+00 5.144217e+00
v 8.790586e+01 5.231064e+00 4.925898e+00
v 8.790586e+01 4.763061e+00 5.144217e+00
v 8.790586e+01 4.763061e+00 4.925898e+00
v 9.183755e+01 3.011394e+00 5.144217e+00
v 9.183755e+01 6.982731e+00 5.144217e+00
v 9.183755e+01 6.982731e+00 4.925898e+00
v 9.183755e+01 3.011394e+00 4.925898e+00
v 9.788628e+01 4.997063e+00 5.144217e+00
v 9.788628e+01 4.997063e+00 4.925898e+00
v 9.788628e+01 4.997063e+00 5.144217e+00
v 9.788628e+01 4.997063e+00 4.925898e+00
# 72 vertices

vn -1.000000 0.000000 0.000000
vn -1.000000 0.000000 0.000000
vn -1.000000 0.000000 0.000000
vn -1.000000 0.000000 0.000000
vn 0.000000 1.000000 0.000000
vn 0.000000 1.000000 0.000000
vn 0.000000 1.000000 0.000000
vn 0.000000 1.000000 0.000000
vn 1.000000 0.000000 0.000000
vn 1.000000 0.000000 0.000000
vn 1.000000 0.000000 0.000000
vn 1.000000 0.000000 0.000000
vn 0.000000 -1.000000 0.000000
vn 0.000000 -1.000000 0.000000
vn 0.000000 -1.000000 0.000000
vn 0.000000 -1.000000 0.000000
vn 0.000000 0.000000 -1.000000
vn 0.000000 0.000000 -1.000000
vn 0.000000 0.000000 -1.000000
vn 0.000000 0.000000 -1.000000
vn 0.000000 0.000000 1.000000
vn 0.000000 0.000000 1.000000
vn 0.000000 0.000000 1.000000
vn 0.000000 0.000000 1.000000
vn -1.000000 0.000000 0.000000
vn -1.000000 0.000000 0.000000
vn -1.000000 0.000000 0.000000
vn -1.000000 0.000000 0.000000
vn 0.000000 1.000000 0.000000
vn 0.000000 1.000000 0.000000
vn 0.000000 1.000000 0.000000
vn 0.000000 1.000000 0.000000
vn 1.000000 0.000000 0.000000
vn 1.000000 0.000000 0.000000
vn 1.000000 0.000000 0.000000
vn 1.000000 0.000000 0.000000
vn 0.000000 -1.000000 0.000000
vn 0.000000 -1.000000 0.000000
vn 0.000000 -1.000000 0.000000
vn 0.000000 -1.000000 0.000000
vn 0.000000 0.000000 -1.000000
vn 0.000000 0.000000 -1.000000
vn 0.000000 0.000000 -1.000000
vn 0.000000 0.000000 -1.000000
vn 0.000000 0.000000 1.000000
vn 0.000000 0.000000 1.000000
vn 0.000000 0.000000 1.000000
vn 0.000000 0.000000 1.000000
vn -1.000000 0.000000 0.000000
vn -1.000000 0.000000 0.000000
vn -1.000000 0.000000 0.000000
vn -1.000000 0.000000 0.000000
vn 0.000000 1.000000 0.000000
vn 0.000000 1.000000 0.000000
vn 0.000000 1.000000 0.000000
vn 0.000000 1.000000 0.000000
vn 1.000000 0.000000 0.000000
vn 1.000000 0.000000 0.000000
vn 1.000000 0.000000 0.000000
vn 1.000000 0.000000 0.000000
vn 0.000000 -1.000000 0.000000
vn 0.000000 -1.000000 0.000000
vn 0.000000 -1.000000 0.000000
vn 0.000000 -1.000000 0.000000
vn 0.000000 0.000000 -1.000000
vn 0.000000 0.000000 -1.000000
vn 0.000000 0.000000 -1.000000
vn 0.000000 0.000000 -1.000000
vn 0.000000 0.000000 1.000000
vn 0.000000 0.000000 1.000000
vn 0.000000 0.000000 1.000000
vn 0.000000 0.000000 1.000000
vn -1.000000 0.000000 0.000000
vn -1.000000 0.000000 0.000000
vn -1.000000 0.000000 0.000000
vn -1.000000 0.000000 0.000000
vn 0.000000 1.000000 0.000000
vn 0.000000 1.000000 0.000000
vn 0.000000 1.000000 0.000000
vn 0.000000 1.000000 0.000000
vn 1.000000 0.000000 0.000000
vn 1.000000 0.000000 0.000000
vn 1.000000 0.000000 0.000000
vn 1.000000 0.000000 0.000000
vn 0.000000 -1.000000 0.000000
vn 0.000000 -1.000000 0.000000
vn 0.000000 -1.000000 0.000000
vn 0.000000 -1.000000 0.000000
vn 0.000000 0.000000 -1.000000
vn 0.000000 0.000000 -1.000000
vn 0.000000 0.000000 -1.000000
vn 0.000000 0.000000 -1.000000
vn 0.000000 0.000000 1.000000
vn 0.000000 0.000000 1.000000
vn 0.000000 0.000000 1.000000
vn 0.000000 0.000000 1.000000
vn -1.000000 0.000000 0.000000
vn -1.000000 0.000000 0.000000
vn -1.000000 0.000000 0.000000
vn -1.000000 0.000000 0.000000
vn 0.000000 1.000000 0.000000
vn 0.000000 1.000000 0.000000
vn 0.000000 1.000000 0.000000
vn 0.000000 1.000000 0.000000
vn 1.000000 0.000000 0.000000
vn 1.000000 0.000000 0.000000
vn 1.000000 0.000000 0.000000
vn 1.000000 0.000000 0.000000
vn 0.000000 -1.000000 0.000000
vn 0.000000 -1.000000 0.000000
vn 0.000000 -1.000000 0.000000
vn 0.000000 -1.000000 0.000000
vn 0.000000 0.000000 -1.000000
vn 0.000000 0.000000 -1.000000
vn 0.000000 0.000000 -1.000000
vn 0.000000 0.000000 -1.000000
vn 0.000000 0.000000 1.000000
vn 0.000000 0.000000 1.000000
vn 0.000000 0.000000 1.000000
vn 0.000000 0.000000 1.000000
vn -1.000000 0.000000 0.000000
vn -1.000000 0.000000 0.000000
vn -1.000000 0.000000 0.000000
vn -1.000000 0.000000 0.000000
vn 0.000000 1.000000 0.000000
vn 0.000000 1.000000 0.000000
vn 0.000000 1.000000 0.000000
vn 0.000000 1.000000 0.000000
vn 1.000000 0.000000 0.000000
vn 1.000000 0.000000 0.000000
vn 1.000000 0.000000 0.000000
vn 1.000000 0.000000 0.000000
vn 0.000000 -1.000000 0.000000
vn 0.000000 -1.000000 0.000000
vn 0.000000 -1.000000 0.000000
vn 0.000000 -1.000000 0.000000
vn 0.000000 0.000000 -1.000000
vn 0.000000 0.000000 -1.000000
vn 0.000000 0.000000 -1.000000
vn 0.000000 0.000000 -1.000000
vn 0.000000 0.000000 1.000000
vn 0.000000 0.000000 1.000000
vn 0.000000 0.000000 1.000000
vn 0.000000 0.000000 1.000000
vn -1.000000 0.000000 0.000000
vn -1.000000 0.000000 0.000000
vn -1.000000 0.000000 0.000000
vn -1.000000 0.000000 0.000000
vn 0.000000 1.000000 0.000000
vn 0.000000 1.000000 0.000000
vn 0.000000 1.000000 0.000000
vn 0.000000 1.000000 0.000000
vn 1.000000 0.000000 0.000000
vn 1.000000 0.000000 0.000000
vn 1.000000 0.000000 0.000000
vn 1.000000 0.000000 0.000000
vn 0.000000 -1.000000 0.000000
vn 0.000000 -1.000000 0.000000
vn 0.000000 -1.000000 0.000000
vn 0.000000 -1.000000 0.000000
vn 0.000000 0.000000 -1.000000
vn 0.000000 0.000000 -1.000000
vn 0.000000 0.000000 -1.000000
vn 0.000000 0.000000 -1.000000
vn 0.000000 0.000000 1.000000
vn 0.000000 0.000000 1.000000
vn 0.000000 0.000000 1.000000
vn 0.000000 0.000000 1.000000
vn -1.000000 0.000000 0.000000
vn -1.000000 0.000000 0.000000
vn -1.000000 0.000000 0.000000
vn -1.000000 0.000000 0.000000
vn 0.000000 1.000000 0.000000
vn 0.000000 1.000000 0.000000
vn 0.000000 1.000000 0.000000
vn 0.000000 1.000000 0.000000
vn 1.000000 0.000000 0.000000
vn 1.000000 0.000000 0.000000
vn 1.000000 0.000000 0.000000
vn 1.000000 0.000000 0.000000
vn 0.000000 -1.000000 0.000000
vn 0.000000 -1.000000 0.000000
vn 0.000000 -1.000000 0.000000
vn 0.000000 -1.000000 0.000000
vn 0.000000 0.000000 -1.000000
vn 0.000000 0.000000 -1.000000
vn 0.000000 0.000000 -1.000000
vn 0.000000 0.000000 -1.000000
vn 0.000000 0.000000 1.000000
vn 0.000000 0.000000 1.000000
vn 0.000000 0.000000 1.000000
vn 0.000000 0.000000 1.000000
vn -1.000000 0.000000 0.000000
vn -1.000000 0.000000 0.000000
vn -1.000000 0.000000 0.000000
vn -1.000000 0.000000 0.000000
vn 0.311902 0.950114 0.000000
vn 0.311902 0.950114 0.000000
vn 0.311902 0.950114 0.000000
vn 0.311902 0.950114 0.000000
vn 0.000000 0.000000 0.000000
vn 0.000000 0.000000 0.000000
vn 0.000000 0.000000 0.000000
vn 0.000000 0.000000 0.000000
vn 0.311902 -0.950114 0.000000
vn 0.311902 -0.950114 0.000000
vn 0.311902 -0.950114 0.000000
vn 0.311902 -0.950114 0.000000
vn 0.000000 0.000000 -1.000000
vn 0.000000 0.000000 -1.000000
vn 0.000000 0.000000 -1.000000
vn 0.000000 0.000000 -1.000000
vn 0.000000 0.000000 1.000000
vn 0.000000 0.000000 1.000000
vn 0.000000 0.000000 1.000000
vn 0.000000 0.000000 1.000000
# 216 vertex normals

s 1
g Line
f 25/1/28 26/1/27 27/1/26 28/1/25
f 26/1/32 29/1/31 30/1/30 27/1/29
f 29/1/36 31/1/35 32/1/34 30/1/33
f 31/1/40 25/1/39 28/1/38 32/1/37
f 28/1/44 27/1/43 30/1/42 32/1/41
f 31/1/48 29/1/47 26/1/46 25/1/45
f 33/1/52 34/1/51 35/1/50 36/1/49
f 34/1/56 37/1/55 38/1/54 35/1/53
f 37/1/60 39/1/59 40/1/58 38/1/57
f 39/1/64 33/1/63 36/1/62 40/1/61
f 36/1/68 35/1/67 38/1/66 40/1/65
f 39/1/72 37/1/71 34/1/70 33/1/69
f 41/1/76 42/1/75 43/1/74 44/1/73
f 42/1/80 45/1/79 46/1/78 43/1/77
f 45/1/84 47/1/83 48/1/82 46/1/81
f 47/1/88 41/1/87 44/1/86 48/1/85
f 44/1/92 43/1/91 46/1/90 48/1/89
f 47/1/96 45/1/95 42/1/94 41/1/93
f 49/1/100 50/1/99 51/1/98 52/1/97
f 50/1/104 53/1/103 54/1/102 51/1/101
f 53/1/108 55/1/107 56/1/106 54/1/105
f 55/1/112 49/1/111 52/1/110 56/1/109
f 52/1/116 51/1/115 54/1/114 56/1/113
f 55/1/120 53/1/119 50/1/118 49/1/117
f 57/1/124 58/1/123 59/1/122 60/1/121
f 58/1/128 61/1/127 62/1/126 59/1/125
f 61/1/132 63/1/131 64/1/130 62/1/129
f 63/1/136 57/1/135 60/1/134 64/1/133
f 60/1/140 59/1/139 62/1/138 64/1/137
f 63/1/144 61/1/143 58/1/142 57/1/141
f 65/1/148 66/1/147 67/1/146 68/1/145
f 66/1/152 69/1/151 70/1/150 67/1/149
f 69/1/156 71/1/155 72/1/154 70/1/153
f 71/1/160 65/1/159 68/1/158 72/1/157
f 68/1/164 67/1/163 70/1/162 72/1/161
f 71/1/168 69/1/167 66/1/166 65/1/165
f 73/1/172 74/1/171 75/1/170 76/1/169
f 74/1/176 77/1/175 78/1/174 75/1/173
f 77/1/180 79/1/179 80/1/178 78/1/177
f 79/1/184 73/1/183 76/1/182 80/1/181
f 76/1/188 75/1/187 78/1/186 80/1/185
f 79/1/192 77/1/191 74/1/190 73/1/189
f 81/1/196 82/1/195 83/1/194 84/1/193
f 82/1/200 85/1/199 86/1/198 83/1/197
f 85/1/204 87/1/203 88/1/202 86/1/201
f 87/1/208 81/1/207 84/1/206 88/1/205
f 84/1/212 83/1/211 86/1/210 88/1/209
f 87/1/216 85/1/215 82/1/214 81/1/213
f 89/1/220 90/1/219 91/1/218 92/1/217
f 90/1/224 93/1/223 94/1/222 91/1/221
f 93/1/228 95/1/227 96/1/226 94/1/225
f 95/1/232 89/1/231 92/1/230 96/1/229
f 92/1/236 91/1/235 94/1/234 96/1/233
f 95/1/240 93/1/239 90/1/238 89/1/237
# 54 faces

o Line
v 1.994049e+00 4.763061e+00 5.144217e+00
v 1.994049e+00 5.231064e+00 5.144217e+00
v 1.994049e+00 5.231064e+00 4.925898e+00
v 1.994049e+00 4.763061e+00 4.925898e+00
v 8.042795e+00 5.231064e+00 5.144217e+00
v 8.042795e+00 5.231064e+00 4.925898e+00
v 8.042795e+00 4.763061e+00 5.144217e+00
v 8.042795e+00 4.763061e+00 4.925898e+00
v 4.828613e-01 -4.355762e-02 5.144217e+00
v 1.485840e-02 -4.355762e-02 5.144217e+00
v 1.485840e-02 -4.355762e-02 4.925898e+00
v 4.828613e-01 -4.355762e-02 4.925898e+00
v 1.485840e-02 1.003768e+01 5.144217e+00
v 1.485840e-02 1.003768e+01 4.925898e+00
v 4.828613e-01 1.003768e+01 5.144217e+00
v 4.828613e-01 1.003768e+01 4.925898e+00
# 16 vertices

vn -1.000000 0.000000 0.000000
vn -1.000000 0.000000 0.000000
vn -1.000000 0.000000 0.000000
vn -1.000000 0.000000 0.000000
vn 0.000000 1.000000 0.000000
vn 0.000000 1.000000 0.000000
vn 0.000000 1.000000 0.000000
vn 0.000000 1.000000 0.000000
vn 1.000000 0.000000 0.000000
vn 1.000000 0.000000 0.000000
vn 1.000000 0.000000 0.000000
vn 1.000000 0.000000 0.000000
vn 0.000000 -1.000000 0.000000
vn 0.000000 -1.000000 0.000000
vn 0.000000 -1.000000 0.000000
vn 0.000000 -1.000000 0.000000
vn 0.000000 0.000000 -1.000000
vn 0.000000 0.000000 -1.000000
vn 0.000000 0.000000 -1.000000
vn 0.000000 0.000000 -1.000000
vn 0.000000 0.000000 1.000000
vn 0.000000 0.000000 1.000000
vn 0.000000 0.000000 1.000000
vn 0.000000 0.000000 1.000000
vn 0.000000 -1.000000 0.000000
vn 0.000000 -1.000000 0.000000
vn 0.000000 -1.000000 0.000000
vn 0.000000 -1.000000 0.000000
vn -1.000000 0.000000 0.000000
vn -1.000000 0.000000 0.000000
vn -1.000000 0.000000 0.000000
vn -1.000000 0.000000 0.000000
vn 0.000000 1.000000 0.000000
vn 0.000000 1.000000 0.000000
vn 0.000000 1.000000 0.000000
vn 0.000000 1.000000 0.000000
vn 1.000000 0.000000 0.000000
vn 1.000000 0.000000 0.000000
vn 1.000000 0.000000 0.000000
vn 1.000000 0.000000 0.000000
vn 0.000000 0.000000 -1.000000
vn 0.000000 0.000000 -1.000000
vn 0.000000 0.000000 -1.000000
vn 0.000000 0.000000 -1.000000
vn 0.000000 0.000000 1.000000
vn 0.000000 0.000000 1.000000
vn 0.000000 0.000000 1.000000
vn 0.000000 0.000000 1.000000
# 48 vertex normals

s 1
g Line
f 97/1/244 98/1/243 99/1/242 100/1/241
f 98/1/248 101/1/247 102/1/246 99/1/245
f 101/1/252 103/1/251 104/1/250 102/1/249
f 103/1/256 97/1/255 100/1/254 104/1/253
f 100/1/260 99/1/259 102/1/258 104/1/257
f 103/1/264 101/1/263 98/1/262 97/1/261
f 105/1/268 106/1/267 107/1/266 108/1/265
f 106/1/272 109/1/271 110/1/270 107/1/269
f 109/1/276 111/1/275 112/1/274 110/1/273
f 111/1/280 105/1/279 108/1/278 112/1/277
f 108/1/284 107/1/283 110/1/282 112/1/281
f 111/1/288 109/1/287 106/1/286 105/1/285
# 12 faces

