# Blender v2.63 (sub 13) OBJ File: 'runway_output.blend'
# www.blender.org
mtllib runway_output.mtl
o line_Cube.001
v 2.013613 4.526122 4.92
v 2.013613 5.462127 4.92
v 8.062362 5.462127 4.92
v 8.062362 4.526122 4.92
v 2.013613 4.526122 5.14
v 2.013613 5.462127 5.14
v 8.062362 5.462127 5.14
v 8.062362 4.526122 5.14
v 11.994049 4.526122 4.92
v 11.994049 5.462127 4.92
v 18.042797 5.462127 4.92
v 18.042797 4.526122 4.92
v 11.994049 4.526122 5.14
v 11.994049 5.462127 5.14
v 18.042797 5.462127 5.14
v 18.042797 4.526122 5.14
v 21.974487 4.526122 4.92
v 21.974487 5.462127 4.92
v 28.023235 5.462127 4.92
v 28.023235 4.526122 4.92
v 21.974487 4.526122 5.14
v 21.974487 5.462127 5.14
v 28.023235 5.462127 5.14
v 28.023235 4.526122 5.14
v 31.954922 4.526122 4.92
v 31.954922 5.462127 4.92
v 38.003670 5.462127 4.92
v 38.003670 4.526122 4.92
v 31.954922 4.526122 5.14
v 31.954922 5.462127 5.14
v 38.003670 5.462127 5.14
v 38.003670 4.526122 5.14
v 41.935360 4.526122 4.92
v 41.935360 5.462127 4.92
v 47.984108 5.462127 4.92
v 47.984108 4.526122 4.92
v 41.935360 4.526122 5.14
v 41.935360 5.462127 5.14
v 47.984108 5.462127 5.14
v 47.984108 4.526122 5.14
v 51.915794 4.526122 4.92
v 51.915794 5.462127 4.92
v 57.964542 5.462127 4.92
v 57.964542 4.526122 4.92
v 51.915794 4.526122 5.14
v 51.915794 5.462127 5.14
v 57.964542 5.462127 5.14
v 57.964542 4.526122 5.14
v 61.896233 4.526122 4.92
v 61.896233 5.462127 4.92
v 67.944984 5.462127 4.92
v 67.944984 4.526122 4.92
v 61.896233 4.526122 5.14
v 61.896233 5.462127 5.14
v 67.944984 5.462127 5.14
v 67.944984 4.526122 5.14
v 71.876671 4.526122 4.92
v 71.876671 5.462127 4.92
v 77.925415 5.462127 4.92
v 77.925415 4.526122 4.92
v 71.876671 4.526122 5.14
v 71.876671 5.462127 5.14
v 77.925415 5.462127 5.14
v 77.925415 4.526122 5.14
v 81.857109 4.526122 4.92
v 81.857109 5.462127 4.92
v 87.905853 5.462127 4.92
v 87.905853 4.526122 4.92
v 81.857109 4.526122 5.14
v 81.857109 5.462127 5.14
v 87.905853 5.462127 5.14
v 87.905853 4.526122 5.14
v 91.837547 4.526122 4.92
v 91.837547 5.462127 4.92
v 97.886284 5.462127 4.92
v 97.886284 4.526122 4.92
v 91.837547 4.526122 5.14
v 91.837547 5.462127 5.14
v 97.886284 5.462127 5.14
v 97.886284 4.526122 5.14
v 101.817978 4.526122 4.92
v 101.817978 5.462127 4.92
v 107.866714 5.462127 4.92
v 107.866714 4.526122 4.92
v 101.817978 4.526122 5.14
v 101.817978 5.462127 5.14
v 107.866714 5.462127 5.14
v 107.866714 4.526122 5.14
v 111.798409 4.526122 4.92
v 111.798409 5.462127 4.92
v 117.847145 5.462127 4.92
v 117.847145 4.526122 4.92
v 111.798409 4.526122 5.14
v 111.798409 5.462127 5.14
v 117.847145 5.462127 5.14
v 117.847145 4.526122 5.14
v 121.778839 4.526122 4.92
v 121.778839 5.462127 4.92
v 127.827576 5.462127 4.92
v 127.827576 4.526122 4.92
v 121.778839 4.526122 5.14
v 121.778839 5.462127 5.14
v 127.827576 5.462127 5.14
v 127.827576 4.526122 5.14
v 131.759277 4.526122 4.92
v 131.759277 5.462127 4.92
v 137.808014 5.462127 4.92
v 137.808014 4.526122 4.92
v 131.759277 4.526122 5.14
v 131.759277 5.462127 5.14
v 137.808014 5.462127 5.14
v 137.808014 4.526122 5.14
v 141.739700 4.526122 4.92
v 141.739700 5.462127 4.92
v 147.788437 5.462127 4.92
v 147.788437 4.526122 4.92
v 141.739700 4.526122 5.14
v 141.739700 5.462127 5.14
v 147.788437 5.462127 5.14
v 147.788437 4.526122 5.14
vn -1.000000 0.000000 -0.000000
vn 0.000000 1.000000 -0.000000
vn 1.000000 0.000000 -0.000000
vn 0.000000 -1.000000 -0.000000
vn -0.000000 0.000000 -1.000000
vn -0.000000 0.000000 1.000000
vt 0 0 0 0
vt 0.5 0.4 0.2 0.5
vt 1 1 1 1
usemtl Material
s off
f 2/3/1 1/3/1 5/3/1 6/3/1
f 6/3/2 7/3/2 3/3/2 2/3/2
f 7/3/3 8/3/3 4/3/3 3/3/3
f 1/3/4 4/3/4 8/3/4 5/3/4
f 1/3/5 2/3/5 3/3/5 4/3/5
f 8/3/6 7/3/6 6/3/6 5/3/6
f 13/3/1 14/3/1 10/3/1 9/3/1
f 14/3/2 15/3/2 11/3/2 10/3/2
f 15/3/3 16/3/3 12/3/3 11/3/3
f 16/3/4 13/3/4 9/3/4 12/3/4
f 9/3/5 10/3/5 11/3/5 12/3/5
f 16/3/6 15/3/6 14/3/6 13/3/6
f 21/3/1 22/3/1 18/3/1 17/3/1
f 22/3/2 23/3/2 19/3/2 18/3/2
f 23/3/3 24/3/3 20/3/3 19/3/3
f 24/3/4 21/3/4 17/3/4 20/3/4
f 17/3/5 18/3/5 19/3/5 20/3/5
f 24/3/6 23/3/6 22/3/6 21/3/6
f 29/3/1 30/3/1 26/3/1 25/3/1
f 30/3/2 31/3/2 27/3/2 26/3/2
f 31/3/3 32/3/3 28/3/3 27/3/3
f 32/3/4 29/3/4 25/3/4 28/3/4
f 25/3/5 26/3/5 27/3/5 28/3/5
f 32/3/6 31/3/6 30/3/6 29/3/6
f 37/3/1 38/3/1 34/3/1 33/3/1
f 38/3/2 39/3/2 35/3/2 34/3/2
f 39/3/3 40/3/3 36/3/3 35/3/3
f 40/3/4 37/3/4 33/3/4 36/3/4
f 33/3/5 34/3/5 35/3/5 36/3/5
f 40/3/6 39/3/6 38/3/6 37/3/6
f 45/3/1 46/3/1 42/3/1 41/3/1
f 46/3/2 47/3/2 43/3/2 42/3/2
f 47/3/3 48/3/3 44/3/3 43/3/3
f 48/3/4 45/3/4 41/3/4 44/3/4
f 41/3/5 42/3/5 43/3/5 44/3/5
f 48/3/6 47/3/6 46/3/6 45/3/6
f 53/3/1 54/3/1 50/3/1 49/3/1
f 54/3/2 55/3/2 51/3/2 50/3/2
f 55/3/3 56/3/3 52/3/3 51/3/3
f 56/3/4 53/3/4 49/3/4 52/3/4
f 49/3/5 50/3/5 51/3/5 52/3/5
f 56/3/6 55/3/6 54/3/6 53/3/6
f 61/3/1 62/3/1 58/3/1 57/3/1
f 62/3/2 63/3/2 59/3/2 58/3/2
f 63/3/3 64/3/3 60/3/3 59/3/3
f 64/3/4 61/3/4 57/3/4 60/3/4
f 57/3/5 58/3/5 59/3/5 60/3/5
f 64/3/6 63/3/6 62/3/6 61/3/6
f 69/3/1 70/3/1 66/3/1 65/3/1
f 70/3/2 71/3/2 67/3/2 66/3/2
f 71/3/3 72/3/3 68/3/3 67/3/3
f 72/3/4 69/3/4 65/3/4 68/3/4
f 65/3/5 66/3/5 67/3/5 68/3/5
f 72/3/6 71/3/6 70/3/6 69/3/6
f 77/3/1 78/3/1 74/3/1 73/3/1
f 78/3/2 79/3/2 75/3/2 74/3/2
f 79/3/3 80/3/3 76/3/3 75/3/3
f 80/3/4 77/3/4 73/3/4 76/3/4
f 73/3/5 74/3/5 75/3/5 76/3/5
f 80/3/6 79/3/6 78/3/6 77/3/6
f 85/3/1 86/3/1 82/3/1 81/3/1
f 86/3/2 87/3/2 83/3/2 82/3/2
f 87/3/3 88/3/3 84/3/3 83/3/3
f 88/3/4 85/3/4 81/3/4 84/3/4
f 81/3/5 82/3/5 83/3/5 84/3/5
f 88/3/6 87/3/6 86/3/6 85/3/6
f 93/3/1 94/3/1 90/3/1 89/3/1
f 94/3/2 95/3/2 91/3/2 90/3/2
f 95/3/3 96/3/3 92/3/3 91/3/3
f 96/3/4 93/3/4 89/3/4 92/3/4
f 89/3/5 90/3/5 91/3/5 92/3/5
f 96/3/6 95/3/6 94/3/6 93/3/6
f 101/3/1 102/3/1 98/3/1 97/3/1
f 102/3/2 103/3/2 99/3/2 98/3/2
f 103/3/3 104/3/3 100/3/3 99/3/3
f 104/3/4 101/3/4 97/3/4 100/3/4
f 97/3/5 98/3/5 99/3/5 100/3/5
f 104/3/6 103/3/6 102/3/6 101/3/6
f 109/3/1 110/3/1 106/3/1 105/3/1
f 110/3/2 111/3/2 107/3/2 106/3/2
f 111/3/3 112/3/3 108/3/3 107/3/3
f 112/3/4 109/3/4 105/3/4 108/3/4
f 105/3/5 106/3/5 107/3/5 108/3/5
f 112/3/6 111/3/6 110/3/6 109/3/6
f 117/3/1 118/3/1 114/3/1 113/3/1
f 118/3/2 119/3/2 115/3/2 114/3/2
f 119/3/3 120/3/3 116/3/3 115/3/3
f 120/3/4 117/3/4 113/3/4 116/3/4
f 113/3/5 114/3/5 115/3/5 116/3/5
f 120/3/6 119/3/6 118/3/6 117/3/6
o runway_Cube
v 0 0 0
v 0 10 0
v 10 10 0
v 10 0 0
v 0 0 5
v 0 10 5
v 10 10 5
v 10 0 5
v 10 0 0
v 10 10 0
v 20 10 0
v 20 0 0
v 10 0 5
v 10 10 5
v 20 10 5
v 20 0 5
v 20 0 0
v 20 10 0
v 30 10 0
v 30 0 0
v 20 0 5
v 20 10 5
v 30 10 5
v 30 0 5
v 30 0 0
v 30 10 0
v 40 10 0
v 40 0 0
v 30 0 5
v 30 10 5
v 40 10 5
v 40 0 5
v 40 0 0
v 40 10 0
v 50 10 0
v 50 0 0
v 40 0 5
v 40 10 5
v 50 10 5
v 50 0 5
v 50 0 0
v 50 10 0
v 60 10 0
v 60 0 0
v 50 0 5
v 50 10 5
v 60 10 5
v 60 0 5
v 60 0 0
v 60 10 0
v 70 10 0
v 70 0 0
v 60 0 5
v 60 10 5
v 70 10 5
v 70 0 5
v 70 0 0
v 70 10 0
v 80 10 0
v 80 0 0
v 70 0 5
v 70 10 5
v 80 10 5
v 80 0 5
v 80 0 0
v 80 10 0
v 90 10 0
v 90 0 0
v 80 0 5
v 80 10 5
v 90 10 5
v 90 0 5
v 90 0 0
v 90 10 0
v 100 10 0
v 100 0 0
v 90 0 5
v 90 10 5
v 100 10 5
v 100 0 5
v 100 0 0
v 100 10 0
v 110 10 0
v 110 0 0
v 100 0 5
v 100 10 5
v 110 10 5
v 110 0 5
v 110 0 0
v 110 10 0
v 120 10 0
v 120 0 0
v 110 0 5
v 110 10 5
v 120 10 5
v 120 0 5
v 120 0 0
v 120 10 0
v 130 10 0
v 130 0 0
v 120 0 5
v 120 10 5
v 130 10 5
v 130 0 5
v 130 0 0
v 130 10 0
v 140 10 0
v 140 0 0
v 130 0 5
v 130 10 5
v 140 10 5
v 140 0 5
v 140 0 0
v 140 10 0
v 150 10 0
v 150 0 0
v 140 0 5
v 140 10 5
v 150 10 5
v 150 0 5
usemtl Material.001
s off
f 122//1 121//1 125//1 126//1
f 126//2 127//2 123//2 122//2
f 127//3 128//3 124//3 123//3
f 121//4 124//4 128//4 125//4
f 121//5 122//5 123//5 124//5
f 133//1 134//1 130//1 129//1
f 134//2 135//2 131//2 130//2
f 135//3 136//3 132//3 131//3
f 136//4 133//4 129//4 132//4
f 129//5 130//5 131//5 132//5
f 141//1 142//1 138//1 137//1
f 142//2 143//2 139//2 138//2
f 143//3 144//3 140//3 139//3
f 144//4 141//4 137//4 140//4
f 137//5 138//5 139//5 140//5
f 149//1 150//1 146//1 145//1
f 150//2 151//2 147//2 146//2
f 151//3 152//3 148//3 147//3
f 152//4 149//4 145//4 148//4
f 145//5 146//5 147//5 148//5
f 157//1 158//1 154//1 153//1
f 158//2 159//2 155//2 154//2
f 159//3 160//3 156//3 155//3
f 160//4 157//4 153//4 156//4
f 153//5 154//5 155//5 156//5
f 165//1 166//1 162//1 161//1
f 166//2 167//2 163//2 162//2
f 167//3 168//3 164//3 163//3
f 168//4 165//4 161//4 164//4
f 161//5 162//5 163//5 164//5
f 173//1 174//1 170//1 169//1
f 174//2 175//2 171//2 170//2
f 175//3 176//3 172//3 171//3
f 176//4 173//4 169//4 172//4
f 169//5 170//5 171//5 172//5
f 181//1 182//1 178//1 177//1
f 182//2 183//2 179//2 178//2
f 183//3 184//3 180//3 179//3
f 184//4 181//4 177//4 180//4
f 177//5 178//5 179//5 180//5
f 189//1 190//1 186//1 185//1
f 190//2 191//2 187//2 186//2
f 191//3 192//3 188//3 187//3
f 192//4 189//4 185//4 188//4
f 185//5 186//5 187//5 188//5
f 197//1 198//1 194//1 193//1
f 198//2 199//2 195//2 194//2
f 199//3 200//3 196//3 195//3
f 200//4 197//4 193//4 196//4
f 193//5 194//5 195//5 196//5
f 205//1 206//1 202//1 201//1
f 206//2 207//2 203//2 202//2
f 207//3 208//3 204//3 203//3
f 208//4 205//4 201//4 204//4
f 201//5 202//5 203//5 204//5
f 213//1 214//1 210//1 209//1
f 214//2 215//2 211//2 210//2
f 215//3 216//3 212//3 211//3
f 216//4 213//4 209//4 212//4
f 209//5 210//5 211//5 212//5
f 221//1 222//1 218//1 217//1
f 222//2 223//2 219//2 218//2
f 223//3 224//3 220//3 219//3
f 224//4 221//4 217//4 220//4
f 217//5 218//5 219//5 220//5
f 229//1 230//1 226//1 225//1
f 230//2 231//2 227//2 226//2
f 231//3 232//3 228//3 227//3
f 232//4 229//4 225//4 228//4
f 225//5 226//5 227//5 228//5
f 237//1 238//1 234//1 233//1
f 238//2 239//2 235//2 234//2
f 239//3 240//3 236//3 235//3
f 240//4 237//4 233//4 236//4
f 233//5 234//5 235//5 236//5
usemtl Material.002
f 128/2/6 127/2/6 126/2/6 125/2/6
f 136/2/6 135/2/6 134/2/6 133/2/6
f 144/2/6 143/2/6 142/2/6 141/2/6
f 152/2/6 151/2/6 150/2/6 149/2/6
f 160/2/6 159/2/6 158/2/6 157/2/6
f 168/2/6 167/2/6 166/2/6 165/2/6
f 176/2/6 175/2/6 174/2/6 173/2/6
f 184/2/6 183/2/6 182/2/6 181/2/6
f 192/2/6 191/2/6 190/2/6 189/2/6
f 200/2/6 199/2/6 198/2/6 197/2/6
f 208/2/6 207/2/6 206/2/6 205/2/6
f 216/2/6 215/2/6 214/2/6 213/2/6
f 224/2/6 223/2/6 222/2/6 221/2/6
f 232/2/6 231/2/6 230/2/6 229/2/6
f 240/2/6 239/2/6 238/2/6 237/2/6
