# Blender v2.63 (sub 13) OBJ File: 'runway_edit_10.blend'
# www.blender.org
mtllib runway_halfsize.mtl

vt 1 1 1 1
vt 0 0 0 0
vt 0 0 0 0

o Cube.001
v 2.013613 4.763061 4.92
v 2.013613 5.2310635 4.92
v 8.062362 5.2310635 4.92
v 8.062362 4.763061 4.92
v 2.013613 4.763061 5.14
v 2.013613 5.2310635 5.14
v 8.062362 5.2310635 5.14
v 8.062362 4.763061 5.14
v 11.994049 4.763061 4.92
v 11.994049 5.2310635 4.92
v 18.042797 5.2310635 4.92
v 18.042797 4.763061 4.92
v 11.994049 4.763061 5.14
v 11.994049 5.2310635 5.14
v 18.042797 5.2310635 5.14
v 18.042797 4.763061 5.14
v 21.974487 4.763061 4.92
v 21.974487 5.2310635 4.92
v 28.023235 5.2310635 4.92
v 28.023235 4.763061 4.92
v 21.974487 4.763061 5.14
v 21.974487 5.2310635 5.14
v 28.023235 5.2310635 5.14
v 28.023235 4.763061 5.14
v 31.954922 4.763061 4.92
v 31.954922 5.2310635 4.92
v 38.003670 5.2310635 4.92
v 38.003670 4.763061 4.92
v 31.954922 4.763061 5.14
v 31.954922 5.2310635 5.14
v 38.003670 5.2310635 5.14
v 38.003670 4.763061 5.14
v 41.935360 4.763061 4.92
v 41.935360 5.2310635 4.92
v 47.984108 5.2310635 4.92
v 47.984108 4.763061 4.92
v 41.935360 4.763061 5.14
v 41.935360 5.2310635 5.14
v 47.984108 5.2310635 5.14
v 47.984108 4.763061 5.14
vn -1.000000 0.000000 -0.000000
vn 0.000000 1.000000 -0.000000
vn 1.000000 0.000000 -0.000000
vn 0.000000 -1.000000 -0.000000
vn -0.000000 0.000000 -1.000000
vn -0.000000 0.000000 1.000000
usemtl Material
s off
f 2/1/1 1/1/1 5/1/1 6/1/1
f 6/1/2 7/1/2 3/1/2 2/1/2
f 7/1/3 8/1/3 4/1/3 3/1/3
f 1/1/4 4/1/4 8/1/4 5/1/4
f 1/1/5 2/1/5 3/1/5 4/1/5
f 8/1/6 7/1/6 6/1/6 5/1/6
f 13/1/1 14/1/1 10/1/1 9/1/1
f 14/1/2 15/1/2 11/1/2 10/1/2
f 15/1/3 16/1/3 12/1/3 11/1/3
f 16/1/4 13/1/4 9/1/4 12/1/4
f 9/1/5 10/1/5 11/1/5 12/1/5
f 16/1/6 15/1/6 14/1/6 13/1/6
f 21/1/1 22/1/1 18/1/1 17/1/1
f 22/1/2 23/1/2 19/1/2 18/1/2
f 23/1/3 24/1/3 20/1/3 19/1/3
f 24/1/4 21/1/4 17/1/4 20/1/4
f 17/1/5 18/1/5 19/1/5 20/1/5
f 24/1/6 23/1/6 22/1/6 21/1/6
f 29/1/1 30/1/1 26/1/1 25/1/1
f 30/1/2 31/1/2 27/1/2 26/1/2
f 31/1/3 32/1/3 28/1/3 27/1/3
f 32/1/4 29/1/4 25/1/4 28/1/4
f 25/1/5 26/1/5 27/1/5 28/1/5
f 32/1/6 31/1/6 30/1/6 29/1/6
f 37/1/1 38/1/1 34/1/1 33/1/1
f 38/1/2 39/1/2 35/1/2 34/1/2
f 39/1/3 40/1/3 36/1/3 35/1/3
f 40/1/4 37/1/4 33/1/4 36/1/4
f 33/1/5 34/1/5 35/1/5 36/1/5
f 40/1/6 39/1/6 38/1/6 37/1/6
o Cube
v 0 0 0
v 0 10 0
v 10 10 0
v 10 0 0
v 0 0 5
v 0 10 5
v 10 10 5
v 10 0 5
v 10 0 0
v 10 10 0
v 20 10 0
v 20 0 0
v 10 0 5
v 10 10 5
v 20 10 5
v 20 0 5
v 20 0 0
v 20 10 0
v 30 10 0
v 30 0 0
v 20 0 5
v 20 10 5
v 30 10 5
v 30 0 5
v 30 0 0
v 30 10 0
v 40 10 0
v 40 0 0
v 30 0 5
v 30 10 5
v 40 10 5
v 40 0 5
v 40 0 0
v 40 10 0
v 50 10 0
v 50 0 0
v 40 0 5
v 40 10 5
v 50 10 5
v 50 0 5
usemtl Material.001
s off
f 42/2/1 41/2/1 45/2/1 46/2/1
f 46/2/2 47/2/2 43/2/2 42/2/2
f 47/2/3 48/2/3 44/2/3 43/2/3
f 41/2/4 44/2/4 48/2/4 45/2/4
f 41/2/5 42/2/5 43/2/5 44/2/5
f 53/2/1 54/2/1 50/2/1 49/2/1
f 54/2/2 55/2/2 51/2/2 50/2/2
f 55/2/3 56/2/3 52/2/3 51/2/3
f 56/2/4 53/2/4 49/2/4 52/2/4
f 49/2/5 50/2/5 51/2/5 52/2/5
f 61/2/1 62/2/1 58/2/1 57/2/1
f 62/2/2 63/2/2 59/2/2 58/2/2
f 63/2/3 64/2/3 60/2/3 59/2/3
f 64/2/4 61/2/4 57/2/4 60/2/4
f 57/2/5 58/2/5 59/2/5 60/2/5
f 69/2/1 70/2/1 66/2/1 65/2/1
f 70/2/2 71/2/2 67/2/2 66/2/2
f 71/2/3 72/2/3 68/2/3 67/2/3
f 72/2/4 69/2/4 65/2/4 68/2/4
f 65/2/5 66/2/5 67/2/5 68/2/5
f 77/2/1 78/2/1 74/2/1 73/2/1
f 78/2/2 79/2/2 75/2/2 74/2/2
f 79/2/3 80/2/3 76/2/3 75/2/3
f 80/2/4 77/2/4 73/2/4 76/2/4
f 73/2/5 74/2/5 75/2/5 76/2/5
usemtl Material.002
f 48/3/6 47/3/6 46/3/6 45/3/6
f 56/3/6 55/3/6 54/3/6 53/3/6
f 64/3/6 63/3/6 62/3/6 61/3/6
f 72/3/6 71/3/6 70/3/6 69/3/6
f 80/3/6 79/3/6 78/3/6 77/3/6
