# RokuSuper Output Ver2.0 for Wavefront Obj

v 133.93408042 9.98197347 11.31188382
v 133.16233991 9.98197347 13.28051801
v 129.11070219 9.98197347 13.11646516
v 131.42592374 9.98197347 8.79640681
v 133.16233991 -0.14085130 13.28051801
v 129.11070219 -0.14085130 13.11646516
v 131.42592374 -0.14085130 8.79640681
v 133.93408042 -0.14085130 11.31188382
v 131.63421690 9.97998720 8.77721300
v 129.17331028 10.00445019 13.08242329
v 114.83222488 10.00445019 7.24098300
v 117.17662096 10.00445019 2.96148518
v 129.17331028 -0.14085130 13.08242329
v 114.83222488 -0.14085130 7.24098300
v 117.17662096 -0.14085130 2.96148518
v 131.63421690 -0.16531429 8.77721300
v 117.76546161 10.02292274 2.87312118
v 114.89866612 10.01145114 7.22468636
v 100.36336789 10.01145114 5.13726778
v 100.34636215 10.01147841 0.04692156
v 114.89866612 -0.14085130 7.22468636
v 100.36336789 -0.14085130 5.13726778
v 100.34636215 -0.14082403 0.04692156
v 117.76546161 -0.12937969 2.87312118
v 0.00724765 -0.09013716 5.09575591
v 0.00724765 9.90763421 5.09575591
v 100.34675783 9.90763421 5.09575591
v 100.34675783 -0.09013716 5.09575591
v 100.34675783 9.90763421 0.01743593
v 0.00724765 9.90763421 0.01743593
v 0.00724765 -0.09013716 0.01743593
v 100.34675783 -0.09013716 0.01743593
v 0.00585302 9.82732553 5.32834319
v 0.37410541 9.82732553 5.32834319
v 0.37410541 -0.11548822 5.32834319
v 0.00585302 -0.11548822 5.32834319
v 1.92076544 5.11369531 5.31670733
v 8.03375510 5.11369531 5.31670733
v 8.03375510 4.67179247 5.31670733
v 1.92076544 4.67179247 5.31670733
v 11.85630930 5.12455280 5.35828738
v 18.10933181 5.12455280 5.35828738
v 18.10933181 4.59948986 5.35828738
v 11.85630930 4.59948986 5.35828738
v 21.83250552 5.17228580 5.42988687
v 28.03779504 5.17228580 5.42988687
v 28.03779504 4.50402387 5.42988687
v 21.83250552 4.50402387 5.42988687
v 31.85643474 5.12455280 5.38215388
v 37.96625827 5.12455280 5.38215388
v 37.96625827 4.55175686 5.38215388
v 31.85643474 4.55175686 5.38215388
v 41.83263096 5.07681981 5.33442088
v 47.94245449 5.07681981 5.33442088
v 47.94245449 4.59948986 5.33442088
v 41.83263096 4.59948986 5.33442088
v 51.80882719 5.17228580 5.38215388
v 57.87091772 5.17228580 5.38215388
v 57.87091772 4.59948986 5.38215388
v 51.80882719 4.59948986 5.38215388
v 61.73729041 5.12455280 5.35828738
v 67.89484694 5.12455280 5.35828738
v 67.89484694 4.59948986 5.35828738
v 61.73729041 4.59948986 5.35828738
v 71.71348664 5.07681981 5.33442088
v 77.87104316 5.07681981 5.33442088
v 77.87104316 4.59948986 5.33442088
v 71.71348664 4.59948986 5.33442088
v 81.68968286 5.07681981 5.35828738
v 87.84723938 5.07681981 5.35828738
v 87.84723938 4.55175686 5.35828738
v 81.68968286 4.55175686 5.35828738
v 91.23628212 5.12455280 5.40602038
v 97.29837265 5.12455280 5.40602038
v 97.29837265 4.50402387 5.40602038
v 91.23628212 4.50402387 5.40602038
v 104.27116492 5.12455280 5.72256625
v 110.95456038 5.12455280 6.78448591
v 110.95456038 4.47472242 6.78448591
v 104.27116492 4.47472242 5.72256625
v 107.17910288 4.74268884 6.18460632
v 107.17910288 4.74268884 6.18460632
v 107.17910288 4.74268884 6.18460632
v 107.17910288 4.74268884 6.18460632
v 118.59313569 5.17228580 8.88818890
v 125.45499375 5.17228580 11.78007303
v 125.45499375 4.50402387 11.78007303
v 118.59313569 4.50402387 8.88818890
v 129.14739406 9.98300240 13.22056538
v 133.14382092 9.98300240 13.31897982
v 133.14382092 8.38394707 13.31897982
v 129.14739406 8.38394707 13.22056538
v 129.14739406 8.40781357 13.22056538
v 133.14382092 8.40781357 13.31897982
v 133.14382092 6.80875824 13.31897982
v 129.14739406 6.80875824 13.22056538
v 129.14739406 6.78489174 13.22056538
v 133.14382092 6.78489174 13.31897982
v 133.14382092 5.18583641 13.31897982
v 129.14739406 5.18583641 13.22056538
v 129.14739406 5.12617016 13.22056538
v 133.14382092 5.12617016 13.31897982
v 133.14382092 3.32424960 13.31897982
v 129.14739406 3.32424960 13.22056538
v 129.09966106 3.31231636 13.22056538
v 133.09608792 3.31231636 13.31897982
v 133.09608792 1.55812879 13.31897982
v 129.09966106 1.55812879 13.22056538
v 129.14739406 1.54619554 13.22056538
v 133.14382092 1.54619554 13.31897982
v 133.14382092 -0.16025903 13.31897982
v 129.14739406 -0.16025903 13.22056538


vn 0.00000000 1.00000000 0.00000000
vn 0.00000000 1.00000000 0.00000000
vn 0.00000000 1.00000000 0.00000000
vn 0.00000000 1.00000000 0.00000000
vn -0.04045735 0.00000000 0.99918127
vn -0.04045735 0.00000000 0.99918127
vn -0.04045735 0.00000000 0.99918127
vn -0.04045735 0.00000000 0.99918127
vn -0.88140314 0.00000000 -0.47236481
vn -0.88140314 0.00000000 -0.47236481
vn -0.88140314 0.00000000 -0.47236481
vn -0.88140314 0.00000000 -0.47236481
vn 0.70813641 0.00000000 -0.70607565
vn 0.70813641 0.00000000 -0.70607565
vn 0.70813641 0.00000000 -0.70607565
vn 0.70813641 0.00000000 -0.70607565
vn 0.93101706 0.00000000 0.36497567
vn 0.93101706 0.00000000 0.36497567
vn 0.93101706 0.00000000 0.36497567
vn 0.93101706 0.00000000 0.36497567
vn 0.00000000 -1.00000000 0.00000000
vn 0.00000000 -1.00000000 0.00000000
vn 0.00000000 -1.00000000 0.00000000
vn 0.00000000 -1.00000000 0.00000000
vn 0.00161705 0.99999686 -0.00191674
vn 0.00323409 0.99998742 -0.00383347
vn 0.00161705 0.99999686 -0.00191674
vn 0.00000000 1.00000000 0.00000000
vn -0.37722909 0.00000000 0.92611998
vn -0.37722909 0.00000000 0.92611998
vn -0.37722909 0.00000000 0.92611998
vn -0.37722909 0.00000000 0.92611998
vn 0.37319833 0.00000000 -0.92775159
vn 0.37319833 0.00000000 -0.92775159
vn 0.37319833 0.00000000 -0.92775159
vn 0.37319833 0.00000000 -0.92775159
vn -0.00161705 -0.99999686 0.00191674
vn -0.00323409 -0.99998742 0.00383347
vn -0.00161705 -0.99999686 0.00191674
vn 0.00000000 -1.00000000 0.00000000
vn -0.00049037 0.99999938 0.00099798
vn -0.00097997 0.99999754 0.00199060
vn -0.00049037 0.99999938 0.00099798
vn -0.00000077 1.00000000 0.00000536
vn -0.14215192 0.00000000 0.98984485
vn -0.14215192 0.00000000 0.98984485
vn -0.14215192 0.00000000 0.98984485
vn -0.14215192 0.00000000 0.98984485
vn 0.16015292 0.00000000 -0.98709222
vn 0.16015292 0.00000000 -0.98709222
vn 0.16015292 0.00000000 -0.98709222
vn 0.16015292 0.00000000 -0.98709222
vn 0.00049037 -0.99999938 -0.00099798
vn 0.00097997 -0.99999754 -0.00199060
vn 0.00049037 -0.99999938 -0.00099798
vn 0.00000077 -1.00000000 -0.00000536
vn 0.00000000 0.00000000 1.00000000
vn 0.00000000 0.00000000 1.00000000
vn 0.00000000 0.00000000 1.00000000
vn 0.00000000 0.00000000 1.00000000
vn 0.00000000 1.00000000 0.00000000
vn 0.00000000 1.00000000 0.00000000
vn 0.00000000 1.00000000 0.00000000
vn 0.00000000 1.00000000 0.00000000
vn -1.00000000 0.00000000 0.00000000
vn -1.00000000 0.00000000 0.00000000
vn -1.00000000 0.00000000 0.00000000
vn -1.00000000 0.00000000 0.00000000
vn 0.00000000 -1.00000000 0.00000000
vn 0.00000000 -1.00000000 0.00000000
vn 0.00000000 -1.00000000 0.00000000
vn 0.00000000 -1.00000000 0.00000000
vn 0.00000000 0.00000000 -1.00000000
vn 0.00000000 0.00000000 -1.00000000
vn 0.00000000 0.00000000 -1.00000000
vn 0.00000000 0.00000000 -1.00000000
vn 0.00000000 -0.00000000 1.00000000
vn 0.00000000 -0.00000000 1.00000000
vn 0.00000000 -0.00000000 1.00000000
vn 0.00000000 -0.00000000 1.00000000
vn 0.00000000 -0.00000000 1.00000000
vn 0.00000000 -0.00000000 1.00000000
vn 0.00000000 -0.00000000 1.00000000
vn 0.00000000 -0.00000000 1.00000000
vn 0.00000000 -0.00000000 1.00000000
vn 0.00000000 -0.00000000 1.00000000
vn 0.00000000 -0.00000000 1.00000000
vn 0.00000000 -0.00000000 1.00000000
vn 0.00000000 -0.00000000 1.00000000
vn 0.00000000 -0.00000000 1.00000000
vn 0.00000000 -0.00000000 1.00000000
vn 0.00000000 -0.00000000 1.00000000
vn 0.00000000 -0.00000000 1.00000000
vn 0.00000000 -0.00000000 1.00000000
vn 0.00000000 -0.00000000 1.00000000
vn 0.00000000 -0.00000000 1.00000000
vn 0.00000000 -0.00000000 1.00000000
vn 0.00000000 -0.00000000 1.00000000
vn 0.00000000 -0.00000000 1.00000000
vn 0.00000000 -0.00000000 1.00000000
vn 0.00000000 -0.00000000 1.00000000
vn 0.00000000 -0.00000000 1.00000000
vn 0.00000000 -0.00000000 1.00000000
vn 0.00000000 -0.00000000 1.00000000
vn 0.00000000 -0.00000000 1.00000000
vn 0.00000000 -0.00000000 1.00000000
vn 0.00000000 -0.00000000 1.00000000
vn 0.00000000 -0.00000000 1.00000000
vn 0.00000000 -0.00000000 1.00000000
vn 0.00000000 -0.00000000 1.00000000
vn 0.00000000 -0.00000000 1.00000000
vn 0.00000000 -0.00000000 1.00000000
vn 0.00000000 -0.00000000 1.00000000
vn 0.00000000 -0.00000000 1.00000000
vn 0.00000000 -0.00000000 1.00000000
vn 0.00000000 -0.00000000 1.00000000
vn 0.00000000 -0.00000000 1.00000000
vn 0.00000000 -0.00000000 1.00000000
vn 0.00000000 -0.00000000 1.00000000
vn 0.00000000 -0.00000000 1.00000000
vn -0.15692080 0.00000000 0.98761119
vn -0.15692080 -0.00000000 0.98761119
vn -0.15692080 0.00000000 0.98761119
vn -0.15692080 0.00000000 0.98761119
vn 0.00000000 1.00000000 0.00000000
vn 0.00000000 1.00000000 0.00000000
vn 0.00000000 1.00000000 0.00000000
vn 0.00000000 1.00000000 0.00000000
vn -0.38836277 0.00000000 0.92150657
vn -0.38836277 0.00000000 0.92150657
vn -0.38836277 0.00000000 0.92150657
vn -0.38836277 0.00000000 0.92150657
vn -0.02461814 0.00000000 0.99969693
vn -0.02461814 0.00000000 0.99969693
vn -0.02461814 0.00000000 0.99969693
vn -0.02461814 0.00000000 0.99969693
vn -0.02461814 0.00000000 0.99969693
vn -0.02461814 0.00000000 0.99969693
vn -0.02461814 0.00000000 0.99969693
vn -0.02461814 0.00000000 0.99969693
vn -0.02461814 0.00000000 0.99969693
vn -0.02461814 0.00000000 0.99969693
vn -0.02461814 0.00000000 0.99969693
vn -0.02461814 0.00000000 0.99969693
vn -0.02461814 0.00000000 0.99969693
vn -0.02461814 0.00000000 0.99969693
vn -0.02461814 0.00000000 0.99969693
vn -0.02461814 0.00000000 0.99969693
vn -0.02461814 0.00000000 0.99969693
vn -0.02461814 0.00000000 0.99969693
vn -0.02461814 0.00000000 0.99969693
vn -0.02461814 0.00000000 0.99969693
vn -0.02461814 -0.00000000 0.99969693
vn -0.02461814 -0.00000000 0.99969693
vn -0.02461814 -0.00000000 0.99969693
vn -0.02461814 -0.00000000 0.99969693

g ²ã
f 2//1 1//2 4//3 3//4
f 6//5 5//6 2//7 3//8
f 7//9 6//10 3//11 4//12
f 8//13 7//14 4//15 1//16
f 8//17 1//18 2//19 5//20
f 7//21 8//22 5//23 6//24
f 10//25 9//26 12//27 11//28
f 14//29 13//30 10//31 11//32
f 16//33 15//34 12//35 9//36
f 15//37 16//38 13//39 14//40
f 18//41 17//42 20//43 19//44
f 22//45 21//46 18//47 19//48
f 24//49 23//50 20//51 17//52
f 23//53 24//54 21//55 22//56
f 26//57 25//58 28//59 27//60
f 27//61 29//62 30//63 26//64
f 26//65 30//66 31//67 25//68
f 28//69 25//70 31//71 32//72
f 32//73 31//74 30//75 29//76
f 34//77 33//78 36//79 35//80
f 38//81 37//82 40//83 39//84
f 42//85 41//86 44//87 43//88
f 46//89 45//90 48//91 47//92
f 50//93 49//94 52//95 51//96
f 54//97 53//98 56//99 55//100
f 58//101 57//102 60//103 59//104
f 62//105 61//106 64//107 63//108
f 66//109 65//110 68//111 67//112
f 70//113 69//114 72//115 71//116
f 74//117 73//118 76//119 75//120
f 78//121 77//122 80//123 79//124
f 82//125 81//126 84//127 83//128
f 86//129 85//130 88//131 87//132
f 90//133 89//134 92//135 91//136
f 94//137 93//138 96//139 95//140
f 98//141 97//142 100//143 99//144
f 102//145 101//146 104//147 103//148
f 106//149 105//150 108//151 107//152
f 110//153 109//154 112//155 111//156

