# Blender v2.63 (sub 13) OBJ File: 'sbd_leg_L_output.blend'
# www.blender.org
mtllib sbd_leg_L_output.mtl
o Cylinder.002_Cylinder.009
v 6.985257 6.360416 0.563053
v 6.985257 6.202205 0.563053
v 7.120279 6.360416 0.526874
v 7.120279 6.202205 0.526874
v 7.219122 6.360416 0.428031
v 7.219122 6.202205 0.428031
v 7.255301 6.360416 0.293009
v 7.255301 6.202205 0.293009
v 7.219122 6.360416 0.157987
v 7.219122 6.202205 0.157987
v 7.120279 6.360416 0.059144
v 7.120279 6.202205 0.059144
v 6.985257 6.360416 0.022965
v 6.985257 6.202205 0.022965
v 6.850235 6.360416 0.059144
v 6.850235 6.202205 0.059144
v 6.751392 6.360416 0.157987
v 6.751392 6.202205 0.157987
v 6.715213 6.360416 0.293009
v 6.715213 6.202205 0.293009
v 6.751392 6.360416 0.428031
v 6.751392 6.202205 0.428031
v 6.850235 6.360416 0.526873
v 6.850235 6.202205 0.526873
v 6.978548 6.149736 0.478559
v 6.978548 6.182117 1.093229
v 6.994902 6.142972 0.478916
v 6.994902 6.175352 1.093585
v 7.001676 6.126640 0.479776
v 7.001676 6.159020 1.094446
v 6.994902 6.110309 0.480636
v 6.994902 6.142689 1.095306
v 6.978548 6.103544 0.480993
v 6.978548 6.135924 1.095662
v 6.962194 6.110309 0.480636
v 6.962194 6.142689 1.095306
v 6.955420 6.126640 0.479776
v 6.955420 6.159020 1.094446
v 6.962194 6.142972 0.478916
v 6.962194 6.175352 1.093585
v 6.978548 6.181551 0.447777
v 7.018512 6.165020 0.448648
v 7.035065 6.125112 0.450750
v 7.018512 6.085203 0.452852
v 6.978548 6.068673 0.453723
v 6.938584 6.085203 0.452852
v 6.922031 6.125112 0.450750
v 6.938584 6.165020 0.448648
v 6.978548 6.179352 0.406061
v 7.018512 6.162822 0.406932
v 7.035065 6.122914 0.409034
v 7.018512 6.083005 0.411136
v 6.978548 6.066475 0.412007
v 6.938584 6.083005 0.411136
v 6.922031 6.122914 0.409034
v 6.938584 6.162822 0.406932
v 6.978548 6.150064 0.386131
v 6.998571 6.141782 0.386567
v 7.006866 6.121786 0.387621
v 6.998571 6.101790 0.388674
v 6.978548 6.093507 0.389110
v 6.958524 6.101790 0.388674
v 6.950231 6.121786 0.387621
v 6.958524 6.141782 0.386567
v 6.978548 6.147516 0.337753
v 6.998571 6.139233 0.338189
v 7.006866 6.119237 0.339242
v 6.998571 6.099241 0.340296
v 6.978548 6.090959 0.340732
v 6.958524 6.099241 0.340296
v 6.950231 6.119237 0.339242
v 6.958524 6.139233 0.338189
v 6.971945 6.149135 0.322352
v 6.991969 6.141575 0.318942
v 7.000263 6.123322 0.310709
v 6.991969 6.105070 0.302475
v 6.971945 6.097509 0.299065
v 6.951921 6.105070 0.302475
v 6.943627 6.123322 0.310709
v 6.951921 6.141575 0.318942
v 6.997036 6.161425 0.315089
v 7.017059 6.161350 0.306795
v 7.025353 6.161168 0.286772
v 7.017059 6.160986 0.266750
v 6.997036 6.160911 0.258456
v 6.977012 6.160986 0.266750
v 6.968718 6.161168 0.286772
v 6.977012 6.161350 0.306795
v 6.997036 6.209610 0.314652
v 7.017059 6.209535 0.306358
v 7.025353 6.209353 0.286335
v 7.017059 6.209171 0.266312
v 6.997036 6.209096 0.258019
v 6.977012 6.209171 0.266313
v 6.968718 6.209353 0.286335
v 6.977012 6.209535 0.306358
vn 0.000000 0.653218 0.757134
vn 0.000000 -0.653218 0.757134
vn 0.378552 -0.653218 0.655721
vn 0.378552 0.653218 0.655721
vn 0.655721 -0.653218 0.378552
vn 0.655721 0.653218 0.378552
vn 0.757134 -0.653218 0.000000
vn 0.757134 0.653218 0.000000
vn 0.655721 -0.653218 -0.378552
vn 0.655721 0.653218 -0.378552
vn 0.378552 -0.653218 -0.655721
vn 0.378552 0.653218 -0.655721
vn 0.000000 -0.653218 -0.757134
vn 0.000000 0.653218 -0.757134
vn -0.378552 -0.653218 -0.655721
vn -0.378552 0.653218 -0.655721
vn -0.655721 -0.653218 -0.378552
vn -0.655721 0.653218 -0.378552
vn -0.757134 -0.653218 0.000000
vn -0.757134 0.653218 0.000000
vn -0.655721 -0.653218 0.378552
vn -0.655721 0.653218 0.378552
vn -0.378552 -0.653218 0.655721
vn -0.378552 0.653218 0.655721
vn 0.000000 0.911771 0.410688
vn 0.000000 0.808435 0.588519
vn 0.548967 0.581347 0.600482
vn 0.628529 0.651753 0.424360
vn 0.776360 0.033143 0.629383
vn 0.888882 0.024079 0.457442
vn 0.548967 -0.515061 0.658254
vn 0.628529 -0.603565 0.490493
vn 0.000000 -0.742149 0.670217
vn 0.000000 -0.863582 0.504196
vn -0.548967 -0.515061 0.658254
vn -0.628529 -0.603565 0.490493
vn -0.776360 0.033143 0.629383
vn -0.888882 0.024079 0.457442
vn -0.548967 0.581347 0.600482
vn -0.628529 0.651753 0.424360
vn -0.924772 0.019990 0.379925
vn -0.653920 -0.632984 0.414319
vn 0.924772 0.019990 0.379925
vn 0.653920 -0.632984 0.414319
vn 0.646168 -0.666646 -0.371471
vn 0.913846 -0.021332 -0.405469
vn -0.653920 0.673025 0.345500
vn 0.000000 0.943510 0.331248
vn 0.653920 0.673025 0.345500
vn 0.000000 -0.903500 0.428571
vn 0.000000 -0.933927 -0.357402
vn 0.000000 -0.894223 -0.447584
vn 0.614795 -0.639912 -0.460982
vn -0.913846 -0.021332 -0.405469
vn -0.646168 -0.666646 -0.371471
vn 0.646168 0.623920 -0.439467
vn 0.000000 0.891201 -0.453536
vn -0.646168 0.623920 -0.439467
vn -0.614795 -0.639912 -0.460982
vn -0.675924 -0.736656 0.019807
vn 0.019349 -0.998474 -0.051485
vn -0.614795 0.587939 -0.525651
vn -0.869442 -0.025971 -0.493301
vn 0.869442 -0.025971 -0.493301
vn 0.614795 0.587939 -0.525651
vn 0.000000 0.842250 -0.539048
vn -0.992950 -0.044527 0.109592
vn -0.991791 0.092257 -0.088321
vn -0.732536 -0.541734 -0.412152
vn 0.044618 0.998871 0.015046
vn -0.697012 0.704337 0.134312
vn 0.720634 0.687857 -0.086581
vn 0.705466 -0.702231 -0.095645
vn 0.993561 -0.005493 -0.112980
vn -0.726585 0.653035 0.213446
vn -0.678549 0.483108 0.553270
vn -0.962127 0.182318 -0.202521
vn 0.962340 -0.269234 -0.037049
vn 0.762596 0.407971 0.501938
vn -0.063356 -0.838191 -0.541642
vn -0.145940 0.885525 0.441054
vn 0.587848 -0.692496 -0.418134
vn 0.094028 0.157598 0.983001
vn 0.000000 0.637257 0.770623
vn -0.548967 0.635212 0.543229
vn 0.701132 -0.305063 -0.644459
vn 0.971160 -0.231147 0.058016
vn -0.621265 -0.139836 -0.770989
vn 0.694540 -0.090121 0.713767
vn 0.037996 -0.280160 -0.959166
vn 0.548967 0.635212 0.543229
vn 0.776360 0.630207 -0.005707
vn -0.776360 0.630207 -0.005707
vn -0.548967 0.625233 -0.554674
vn 0.548967 0.625233 -0.554674
vn 0.000000 0.623188 -0.782037
usemtl 
s 1
f 1//1 2//2 4//3 3//4
f 3//4 4//3 6//5 5//6
f 5//6 6//5 8//7 7//8
f 7//8 8//7 10//9 9//10
f 9//10 10//9 12//11 11//12
f 11//12 12//11 14//13 13//14
f 13//14 14//13 16//15 15//16
f 15//16 16//15 18//17 17//18
f 17//18 18//17 20//19 19//20
f 19//20 20//19 22//21 21//22
f 4//3 2//2 24//23
f 4//3 24//23 6//5
f 24//23 22//21 6//5
f 22//21 8//7 6//5
f 22//21 20//19 8//7
f 20//19 10//9 8//7
f 20//19 18//17 10//9
f 18//17 12//11 10//9
f 18//17 16//15 12//11
f 16//15 14//13 12//11
f 2//2 1//1 23//24 24//23
f 21//22 22//21 24//23 23//24
f 1//1 3//4 23//24
f 3//4 5//6 23//24
f 5//6 21//22 23//24
f 5//6 7//8 21//22
f 7//8 19//20 21//22
f 7//8 9//10 19//20
f 9//10 17//18 19//20
f 9//10 11//12 17//18
f 11//12 15//16 17//18
f 11//12 13//14 15//16
f 25//25 26//26 28//27 27//28
f 27//28 28//27 30//29 29//30
f 29//30 30//29 32//31 31//32
f 31//32 32//31 34//33 33//34
f 33//34 34//33 36//35 35//36
f 35//36 36//35 38//37 37//38
f 28//27 26//26 40//39
f 28//27 40//39 30//29
f 40//39 38//37 30//29
f 38//37 36//35 30//29
f 36//35 32//31 30//29
f 36//35 34//33 32//31
f 39//40 40//39 26//26 25//25
f 37//38 38//37 40//39 39//40
f 35//36 37//38 47//41 46//42
f 43//43 44//44 52//45 51//46
f 37//38 39//40 48//47 47//41
f 39//40 25//25 41//48 48//47
f 27//28 29//30 43//43 42//49
f 29//30 31//32 44//44 43//43
f 25//25 27//28 42//49 41//48
f 31//32 33//34 45//50 44//44
f 33//34 35//36 46//42 45//50
f 52//45 53//51 61//52 60//53
f 46//42 47//41 55//54 54//55
f 42//49 43//43 51//46 50//56
f 45//50 46//42 54//55 53//51
f 48//47 41//48 49//57 56//58
f 41//48 42//49 50//56 49//57
f 44//44 45//50 53//51 52//45
f 47//41 48//47 56//58 55//54
f 61//52 62//59 70//60 69//61
f 55//54 56//58 64//62 63//63
f 51//46 52//45 60//53 59//64
f 54//55 55//54 63//63 62//59
f 50//56 51//46 59//64 58//65
f 53//51 54//55 62//59 61//52
f 56//58 49//57 57//66 64//62
f 49//57 50//56 58//65 57//66
f 70//60 71//67 79//68 78//69
f 64//62 57//66 65//70 72//71
f 57//66 58//65 66//72 65//70
f 60//53 61//52 69//61 68//73
f 63//63 64//62 72//71 71//67
f 59//64 60//53 68//73 67//74
f 62//59 63//63 71//67 70//60
f 58//65 59//64 67//74 66//72
f 79//68 80//75 88//76 87//77
f 66//72 67//74 75//78 74//79
f 69//61 70//60 78//69 77//80
f 72//71 65//70 73//81 80//75
f 65//70 66//72 74//79 73//81
f 68//73 69//61 77//80 76//82
f 71//67 72//71 80//75 79//68
f 67//74 68//73 76//82 75//78
f 88//76 81//83 89//84 96//85
f 75//78 76//82 84//86 83//87
f 78//69 79//68 87//77 86//88
f 74//79 75//78 83//87 82//89
f 77//80 78//69 86//88 85//90
f 80//75 73//81 81//83 88//76
f 73//81 74//79 82//89 81//83
f 76//82 77//80 85//90 84//86
f 89//84 90//91 96//85
f 90//91 91//92 96//85
f 91//92 95//93 96//85
f 91//92 94//94 95//93
f 91//92 92//95 94//94
f 92//95 93//96 94//94
f 81//83 82//89 90//91 89//84
f 84//86 85//90 93//96 92//95
f 87//77 88//76 96//85 95//93
f 83//87 84//86 92//95 91//92
f 86//88 87//77 95//93 94//94
f 82//89 83//87 91//92 90//91
f 85//90 86//88 94//94 93//96
