# Blender v2.63 (sub 13) OBJ File: 'sbd_propeller_output.blend'
# www.blender.org
mtllib sbd_propeller_output.mtl
o Cube.008
v 8.541851 4.979000 1.480523
v 8.541851 4.911839 0.970679
v 8.541851 4.914704 0.657374
v 8.541853 4.937220 0.423884
v 8.541853 4.974270 0.338194
v 8.541853 5.024405 0.334543
v 8.541853 5.070525 0.415946
v 8.541853 5.096525 0.655536
v 8.541853 5.107890 0.944192
v 8.541853 5.057628 1.462928
v 8.501159 4.986990 1.480546
v 8.501159 4.932149 1.064228
v 8.501159 4.934489 0.808396
v 8.501160 4.952874 0.617737
v 8.501160 4.983129 0.547766
v 8.501160 5.024066 0.544785
v 8.501160 5.061726 0.611255
v 8.501160 5.082956 0.806895
v 8.501160 5.092237 1.042600
v 8.501160 5.051195 1.466179
vn -0.979095 -0.165624 -0.117985
vn -0.983337 0.130161 -0.126682
vn 0.078799 0.370037 -0.925626
vn 0.081668 -0.468795 -0.879513
vn -0.892117 0.447218 -0.063906
vn 0.184210 0.888150 -0.420972
vn -0.906430 -0.419080 -0.052034
vn 0.207099 -0.916379 -0.342509
vn -0.854671 -0.519059 -0.009003
vn 0.422010 -0.903165 -0.078463
vn -0.771111 -0.632649 0.071535
vn 0.517991 -0.855312 0.009461
vn 0.527024 -0.533677 0.661367
vn -0.608539 -0.400708 0.684896
vn 0.567339 0.647938 0.508164
vn -0.616016 0.556383 0.557573
vn -0.757103 0.651204 0.051912
vn 0.531968 0.846553 -0.017548
vn -0.846156 0.532365 -0.024354
vn 0.451949 0.887478 -0.089908
usemtl 
s 1
f 15//1 16//2 6//3 5//4
f 16//2 17//5 7//6 6//3
f 14//7 15//1 5//4 4//8
f 13//9 14//7 4//8 3//10
f 12//11 13//9 3//10 2//12
f 2//12 1//13 11//14 12//11
f 1//13 10//15 20//16 11//14
f 19//17 20//16 10//15 9//18
f 18//19 19//17 9//18 8//20
f 17//5 18//19 8//20 7//6
f 17//5 16//2 15//1 14//7
f 18//19 17//5 14//7 13//9
f 19//17 18//19 13//9 12//11
f 20//16 19//17 12//11 11//14
f 1//13 2//12 9//18 10//15
f 2//12 3//10 8//20 9//18
f 3//10 4//8 7//6 8//20
f 4//8 5//4 6//3 7//6
o Cube.007
v 8.541851 5.130544 1.584358
v 8.541851 5.605663 1.781118
v 8.541851 5.875560 1.940252
v 8.541853 6.066511 2.076496
v 8.541853 6.122195 2.151428
v 8.541853 6.100290 2.196671
v 8.541853 6.006732 2.195911
v 8.541853 5.786242 2.098632
v 8.541853 5.530575 1.964147
v 8.541853 5.106468 1.661250
v 8.501159 5.126529 1.591267
v 8.501159 5.514492 1.751933
v 8.501159 5.734879 1.881875
v 8.501160 5.890801 1.993127
v 8.501160 5.936271 2.054313
v 8.501160 5.918384 2.091257
v 8.501160 5.841989 2.090636
v 8.501160 5.661944 2.011202
v 8.501160 5.453178 1.901387
v 8.501160 5.106870 1.654053
vn -0.979095 0.185003 -0.084445
vn -0.983337 0.044618 0.176061
vn 0.078799 0.616596 0.783288
vn 0.081668 0.996063 0.033753
vn -0.892117 -0.168218 0.419263
vn 0.184210 -0.079501 0.979644
vn -0.906430 0.254616 -0.336924
vn 0.207099 0.754814 -0.622333
vn -0.854671 0.267312 -0.445021
vn 0.422010 0.519547 -0.742943
vn -0.771111 0.254341 -0.583667
vn 0.517991 0.419446 -0.745445
vn 0.527024 -0.305918 -0.792871
vn -0.608539 -0.392773 -0.689474
vn 0.567339 -0.764061 0.307047
vn -0.616016 -0.761071 0.203040
vn -0.757103 -0.370556 0.538011
vn 0.531968 -0.408063 0.741935
vn -0.846156 -0.245064 0.473220
vn 0.451949 -0.365856 0.813532
usemtl 
s 1
f 35//21 36//22 26//23 25//24
f 36//22 37//25 27//26 26//23
f 34//27 35//21 25//24 24//28
f 33//29 34//27 24//28 23//30
f 32//31 33//29 23//30 22//32
f 22//32 21//33 31//34 32//31
f 21//33 30//35 40//36 31//34
f 39//37 40//36 30//35 29//38
f 38//39 39//37 29//38 28//40
f 37//25 38//39 28//40 27//26
f 37//25 36//22 35//21 34//27
f 38//39 37//25 34//27 33//29
f 39//37 38//39 33//29 32//31
f 40//36 39//37 32//31 31//34
f 21//33 22//32 29//38 30//35
f 22//32 23//30 28//40 29//38
f 23//30 24//28 27//26 28//40
f 24//28 25//24 26//23 27//26
o Cube.006
v 8.541851 4.964849 1.663682
v 8.541851 4.556890 1.976766
v 8.541851 4.284127 2.130937
v 8.541853 4.070661 2.228183
v 8.541853 3.977926 2.238941
v 8.541853 3.949696 2.197349
v 8.541853 3.997133 2.116706
v 8.541853 4.191625 1.974395
v 8.541853 4.435926 1.820224
v 8.541853 4.910296 1.604386
v 8.501159 4.960873 1.656750
v 8.501159 4.627750 1.912403
v 8.501159 4.405024 2.038292
v 8.501160 4.230715 2.117699
v 8.501160 4.154992 2.126483
v 8.501160 4.131941 2.092521
v 8.501160 4.170676 2.026671
v 8.501160 4.329490 1.910466
v 8.501160 4.528976 1.784576
v 8.501160 4.916328 1.608331
vn -0.979095 -0.019349 0.202429
vn -0.983337 -0.174810 -0.049379
vn 0.078799 -0.986663 0.142308
vn 0.081668 -0.527268 0.845729
vn -0.892117 -0.278970 -0.355327
vn 0.184210 -0.808649 -0.558672
vn -0.906430 0.164464 0.388958
vn 0.207099 0.161534 0.964873
vn -0.854671 0.251717 0.454024
vn 0.422010 0.383618 0.821406
vn -0.771111 0.378277 0.512101
vn 0.517991 0.435835 0.735984
vn 0.526994 0.839595 0.131504
vn -0.608539 0.793481 0.004547
vn 0.567339 0.116092 -0.815241
vn -0.616016 0.204688 -0.760643
vn -0.757073 -0.280618 -0.589923
vn 0.531968 -0.438490 -0.724357
vn -0.846156 -0.287271 -0.448866
vn 0.451949 -0.521592 -0.723624
usemtl 
s 1
f 55//41 56//42 46//43 45//44
f 56//42 57//45 47//46 46//43
f 54//47 55//41 45//44 44//48
f 53//49 54//47 44//48 43//50
f 52//51 53//49 43//50 42//52
f 42//52 41//53 51//54 52//51
f 41//53 50//55 60//56 51//54
f 59//57 60//56 50//55 49//58
f 58//59 59//57 49//58 48//60
f 57//45 58//59 48//60 47//46
f 57//45 56//42 55//41 54//47
f 58//59 57//45 54//47 53//49
f 59//57 58//59 53//49 52//51
f 60//56 59//57 52//51 51//54
f 41//53 42//52 49//58 50//55
f 42//52 43//50 48//60 49//58
f 43//50 44//48 47//46 48//60
f 44//48 45//44 46//43 47//46
o Cylinder.001
v 8.150351 5.003382 1.522448
v 8.439575 5.003382 1.522448
v 8.150351 4.984566 1.535021
v 8.439574 4.984566 1.535021
v 8.150351 4.971993 1.553838
v 8.439574 4.971993 1.553838
v 8.150351 4.967578 1.576033
v 8.439574 4.967578 1.576033
v 8.150351 4.971993 1.598229
v 8.439574 4.971993 1.598229
v 8.150351 4.984566 1.617045
v 8.439574 4.984566 1.617045
v 8.150351 5.003382 1.629618
v 8.439574 5.003382 1.629618
v 8.468362 4.982440 1.471890
v 8.468362 4.945869 1.496325
v 8.468362 4.921434 1.532896
v 8.468362 4.912854 1.576033
v 8.468362 4.921434 1.619171
v 8.468362 4.945869 1.655741
v 8.468362 4.982440 1.680176
v 8.576316 4.982440 1.471890
v 8.576316 4.945869 1.496325
v 8.576316 4.921434 1.532896
v 8.576316 4.912854 1.576033
v 8.576316 4.921434 1.619171
v 8.576316 4.945869 1.655741
v 8.576316 4.982440 1.680176
v 8.593108 4.973380 1.450018
v 8.593108 4.929130 1.479585
v 8.593108 4.899562 1.523836
v 8.593108 4.889179 1.576033
v 8.593108 4.899562 1.628230
v 8.593108 4.929130 1.672481
v 8.593108 4.973380 1.702049
v 8.701061 4.991307 1.493296
v 8.701061 4.962253 1.512709
v 8.701061 4.942840 1.541762
v 8.701061 4.936023 1.576033
v 8.701061 4.942840 1.610304
v 8.701061 4.962253 1.639358
v 8.701061 4.991307 1.658771
v 8.804217 5.018819 1.559716
v 8.804217 5.013089 1.563545
v 8.804217 5.009261 1.569275
v 8.804217 5.007916 1.576033
v 8.804217 5.009261 1.582792
v 8.804217 5.013089 1.588521
v 8.804217 5.018819 1.592350
v 8.150352 5.024349 1.518033
v 8.439575 5.024349 1.518034
v 8.150351 5.045315 1.522448
v 8.439575 5.045315 1.522448
v 8.150351 5.064132 1.535021
v 8.439575 5.064132 1.535021
v 8.150351 5.076705 1.553838
v 8.439575 5.076705 1.553838
v 8.150351 5.081120 1.576033
v 8.439575 5.081120 1.576033
v 8.150351 5.076705 1.598229
v 8.439575 5.076705 1.598229
v 8.150351 5.064132 1.617045
v 8.439575 5.064132 1.617045
v 8.150351 5.045315 1.629618
v 8.439575 5.045315 1.629618
v 8.150352 5.024349 1.634033
v 8.439575 5.024349 1.634033
v 8.468363 5.024349 1.463309
v 8.468363 5.066257 1.471890
v 8.468363 5.102828 1.496325
v 8.468363 5.127263 1.532896
v 8.468363 5.135844 1.576033
v 8.468363 5.127263 1.619171
v 8.468363 5.102828 1.655741
v 8.468363 5.066257 1.680176
v 8.468363 5.024349 1.688757
v 8.576316 5.024349 1.463309
v 8.576316 5.066257 1.471890
v 8.576316 5.102828 1.496325
v 8.576316 5.127263 1.532896
v 8.576316 5.135844 1.576033
v 8.576316 5.127263 1.619171
v 8.576316 5.102828 1.655741
v 8.576316 5.066257 1.680176
v 8.576316 5.024349 1.688757
v 8.593108 5.024349 1.439635
v 8.593108 5.075317 1.450018
v 8.593108 5.119568 1.479585
v 8.593108 5.149135 1.523836
v 8.593108 5.159518 1.576033
v 8.593108 5.149135 1.628230
v 8.593108 5.119568 1.672481
v 8.593108 5.075317 1.702049
v 8.593108 5.024349 1.712431
v 8.701061 5.024349 1.486479
v 8.701062 5.057391 1.493296
v 8.701062 5.086444 1.512709
v 8.701062 5.105857 1.541762
v 8.701062 5.112674 1.576033
v 8.701062 5.105857 1.610304
v 8.701062 5.086444 1.639358
v 8.701062 5.057391 1.658771
v 8.701061 5.024349 1.665588
v 8.804217 5.024349 1.558372
v 8.804217 5.029878 1.559716
v 8.804217 5.035608 1.563545
v 8.804217 5.039436 1.569275
v 8.804217 5.040781 1.576033
v 8.804217 5.039436 1.582792
v 8.804217 5.035608 1.588521
v 8.804217 5.029878 1.592350
v 8.804217 5.024349 1.593694
vn -0.546434 -0.324442 -0.772057
vn -0.666799 -0.289010 -0.686880
vn -0.663503 0.000000 -0.748131
vn -0.549699 0.000000 -0.835322
vn -0.547502 -0.591693 -0.591693
vn -0.665700 -0.527635 -0.527635
vn -0.547533 -0.773064 -0.320200
vn -0.665700 -0.689383 -0.285531
vn -0.547533 -0.836756 0.000000
vn -0.665700 -0.746178 0.000000
vn -0.547533 -0.773064 0.320200
vn -0.665700 -0.689383 0.285531
vn -0.547533 -0.591693 0.591693
vn -0.665700 -0.527635 0.527635
vn -0.546434 -0.324442 0.772088
vn -0.666799 -0.289010 0.686880
vn -0.549699 0.000000 0.835322
vn -0.663503 0.000000 0.748131
vn -0.490371 -0.616230 0.616230
vn -0.490616 -0.335826 0.804041
vn -0.490371 -0.871487 0.000000
vn -0.490371 -0.805170 0.333506
vn -0.490371 -0.616230 -0.616230
vn -0.490371 -0.805170 -0.333506
vn -0.489883 0.000000 -0.871761
vn -0.490616 -0.335826 -0.804041
vn -0.489883 0.000000 0.871761
vn -0.483993 -0.808435 -0.334849
vn -0.483993 -0.618732 -0.618763
vn -0.250557 -0.684530 -0.684530
vn -0.250557 -0.894406 -0.370464
vn -0.483993 -0.875057 0.000000
vn -0.483993 -0.808435 0.334849
vn -0.483993 -0.618732 0.618763
vn -0.483505 -0.337230 0.807764
vn -0.485000 0.000000 -0.874508
vn -0.483505 -0.337230 -0.807764
vn -0.485000 0.000000 0.874508
vn -0.250252 0.000000 0.968169
vn -0.250710 -0.372692 0.893429
vn 0.481918 -0.338725 0.808069
vn 0.482559 0.000000 0.875851
vn -0.250557 -0.968078 0.000000
vn -0.250557 -0.894406 0.370464
vn -0.250557 -0.684530 0.684530
vn -0.250252 0.000000 -0.968169
vn -0.250710 -0.372692 -0.893429
vn 0.482131 -0.619465 0.619465
vn 0.571764 -0.580096 0.580096
vn 0.571276 -0.319712 0.755882
vn 0.481918 -0.338725 -0.808069
vn 0.482131 -0.619465 -0.619465
vn 0.482131 -0.809381 -0.335246
vn 0.482131 -0.876064 0.000000
vn 0.482131 -0.809381 0.335246
vn 0.482559 0.000000 -0.875851
vn 0.572680 0.000000 -0.819758
vn 0.571276 -0.319712 -0.755882
vn 0.572680 0.000000 0.819758
vn 0.571764 -0.580096 -0.580096
vn 0.571764 -0.757958 -0.313944
vn 0.571764 -0.820399 0.000000
vn 0.571764 -0.757958 0.313944
vn -0.666799 0.289010 -0.686880
vn -0.546434 0.324473 -0.772057
vn -0.665700 0.527635 -0.527635
vn -0.547502 0.591693 -0.591693
vn -0.665700 0.689383 -0.285531
vn -0.547502 0.773064 -0.320200
vn -0.665700 0.746178 0.000000
vn -0.547533 0.836756 0.000000
vn -0.665700 0.689383 0.285531
vn -0.547502 0.773064 0.320200
vn -0.665700 0.527635 0.527635
vn -0.547502 0.591693 0.591693
vn -0.666799 0.289010 0.686880
vn -0.546434 0.324473 0.772057
vn -0.490585 0.335856 0.804041
vn -0.490371 0.616230 0.616230
vn -0.490371 0.805139 0.333506
vn -0.490371 0.871487 0.000000
vn -0.490371 0.805139 -0.333506
vn -0.490371 0.616230 -0.616230
vn -0.490585 0.335856 -0.804041
vn -0.483993 0.808435 -0.334849
vn -0.250557 0.894406 -0.370464
vn -0.250557 0.684530 -0.684530
vn -0.483993 0.618732 -0.618732
vn -0.483993 0.808435 0.334849
vn -0.483993 0.875057 0.000000
vn -0.483993 0.618732 0.618732
vn -0.483505 0.337230 0.807733
vn -0.483505 0.337230 -0.807733
vn 0.481918 0.338725 0.808069
vn -0.250710 0.372692 0.893429
vn -0.250557 0.968078 0.000000
vn -0.250557 0.894406 0.370464
vn -0.250557 0.684530 0.684530
vn -0.250710 0.372692 -0.893429
vn 0.571276 0.319712 0.755882
vn 0.571764 0.580096 0.580096
vn 0.482131 0.619465 0.619465
vn 0.482131 0.619465 -0.619465
vn 0.481918 0.338725 -0.808069
vn 0.482131 0.809381 -0.335246
vn 0.482131 0.876064 0.000000
vn 0.482131 0.809381 0.335246
vn 0.571276 0.319712 -0.755882
vn 0.571764 0.580096 -0.580096
vn 0.571764 0.757958 -0.313944
vn 0.571764 0.820399 0.000000
vn 0.571764 0.757958 0.313944
usemtl 
s 1
f 62//61 61//62 110//63 111//64
f 61//62 62//61 64//65 63//66
f 63//66 64//65 66//67 65//68
f 65//68 66//67 68//69 67//70
f 67//70 68//69 70//71 69//72
f 69//72 70//71 72//73 71//74
f 71//74 72//73 74//75 73//76
f 73//76 74//75 127//77 126//78
f 74//75 72//73 80//79 81//80
f 70//71 68//69 78//81 79//82
f 66//67 64//65 76//83 77//84
f 62//61 111//64 128//85 75//86
f 127//77 74//75 81//80 136//87
f 72//73 70//71 79//82 80//79
f 68//69 66//67 77//84 78//81
f 64//65 62//61 75//86 76//83
f 84//88 83//89 90//90 91//91
f 79//82 78//81 85//92 86//93
f 80//79 79//82 86//93 87//94
f 81//80 80//79 87//94 88//95
f 75//86 128//85 137//96 82//97
f 136//87 81//80 88//95 145//98
f 76//83 75//86 82//97 83//89
f 77//84 76//83 83//89 84//88
f 78//81 77//84 84//88 85//92
f 154//99 95//100 102//101 163//102
f 85//92 84//88 91//91 92//103
f 86//93 85//92 92//103 93//104
f 87//94 86//93 93//104 94//105
f 88//95 87//94 94//105 95//100
f 82//97 137//96 146//106 89//107
f 145//98 88//95 95//100 154//99
f 83//89 82//97 89//107 90//90
f 102//101 101//108 108//109 109//110
f 90//90 89//107 96//111 97//112
f 91//91 90//90 97//112 98//113
f 92//103 91//91 98//113 99//114
f 93//104 92//103 99//114 100//115
f 94//105 93//104 100//115 101//108
f 95//100 94//105 101//108 102//101
f 89//107 146//106 155//116 96//111
f 96//111 155//116 164//117 103//118
f 163//102 102//101 109//110 172//119
f 97//112 96//111 103//118 104//120
f 98//113 97//112 104//120 105//121
f 99//114 98//113 105//121 106//122
f 100//115 99//114 106//122 107//123
f 101//108 100//115 107//123 108//109
f 110//63 112//124 113//125 111//64
f 112//124 114//126 115//127 113//125
f 114//126 116//128 117//129 115//127
f 116//128 118//130 119//131 117//129
f 118//130 120//132 121//133 119//131
f 120//132 122//134 123//135 121//133
f 122//134 124//136 125//137 123//135
f 124//136 126//78 127//77 125//137
f 125//137 135//138 134//139 123//135
f 121//133 133//140 132//141 119//131
f 117//129 131//142 130//143 115//127
f 113//125 129//144 128//85 111//64
f 127//77 136//87 135//138 125//137
f 123//135 134//139 133//140 121//133
f 119//131 132//141 131//142 117//129
f 115//127 130//143 129//144 113//125
f 140//145 149//146 148//147 139//148
f 133//140 142//149 141//150 132//141
f 134//139 143//151 142//149 133//140
f 135//138 144//152 143//151 134//139
f 129//144 138//153 137//96 128//85
f 136//87 145//98 144//152 135//138
f 130//143 139//148 138//153 129//144
f 131//142 140//145 139//148 130//143
f 132//141 141//150 140//145 131//142
f 154//99 163//102 162//154 153//155
f 141//150 150//156 149//146 140//145
f 142//149 151//157 150//156 141//150
f 143//151 152//158 151//157 142//149
f 144//152 153//155 152//158 143//151
f 138//153 147//159 146//106 137//96
f 145//98 154//99 153//155 144//152
f 139//148 148//147 147//159 138//153
f 162//154 171//160 170//161 161//162
f 148//147 157//163 156//164 147//159
f 149//146 158//165 157//163 148//147
f 150//156 159//166 158//165 149//146
f 151//157 160//167 159//166 150//156
f 152//158 161//162 160//167 151//157
f 153//155 162//154 161//162 152//158
f 147//159 156//164 155//116 146//106
f 156//164 165//168 164//117 155//116
f 163//102 172//119 171//160 162//154
f 157//163 166//169 165//168 156//164
f 158//165 167//170 166//169 157//163
f 159//166 168//171 167//170 158//165
f 160//167 169//172 168//171 159//166
f 161//162 170//161 169//172 160//167
f 120//132 118//130 116//128
f 122//134 120//132 116//128
f 122//134 116//128 114//126
f 124//136 122//134 114//126
f 112//124 124//136 114//126
f 112//124 126//78 124//136
f 112//124 110//63 126//78
f 110//63 73//76 126//78
f 110//63 61//62 73//76
f 61//62 63//66 73//76
f 63//66 71//74 73//76
f 63//66 65//68 71//74
f 65//68 69//72 71//74
f 65//68 67//70 69//72
