# Blender v2.63 (sub 13) OBJ File: 'sbd_leg_R_output.blend'
# www.blender.org
mtllib sbd_leg_R_output.mtl
o Cylinder.002_Cylinder.009
v 6.985257 3.688280 0.563053
v 6.985257 3.846492 0.563053
v 7.120279 3.688280 0.526874
v 7.120279 3.846492 0.526874
v 7.219122 3.688280 0.428031
v 7.219122 3.846492 0.428031
v 7.255301 3.688280 0.293009
v 7.255301 3.846492 0.293009
v 7.219122 3.688280 0.157987
v 7.219122 3.846492 0.157987
v 7.120279 3.688280 0.059144
v 7.120279 3.846492 0.059144
v 6.985257 3.688280 0.022965
v 6.985257 3.846492 0.022965
v 6.850235 3.688281 0.059144
v 6.850235 3.846492 0.059144
v 6.751392 3.688281 0.157987
v 6.751392 3.846492 0.157987
v 6.715213 3.688280 0.293009
v 6.715213 3.846492 0.293009
v 6.751392 3.688280 0.428030
v 6.751392 3.846492 0.428030
v 6.850235 3.688280 0.526873
v 6.850235 3.846492 0.526873
v 6.978548 3.898960 0.478559
v 6.978548 3.866580 1.093229
v 6.994902 3.905725 0.478916
v 6.994902 3.873345 1.093585
v 7.001676 3.922056 0.479776
v 7.001676 3.889676 1.094446
v 6.994902 3.938388 0.480636
v 6.994902 3.906008 1.095306
v 6.978548 3.945152 0.480993
v 6.978548 3.912772 1.095662
v 6.962194 3.938388 0.480636
v 6.962194 3.906008 1.095306
v 6.955420 3.922056 0.479776
v 6.955420 3.889676 1.094446
v 6.962194 3.905725 0.478916
v 6.962194 3.873345 1.093585
v 6.978548 3.867146 0.447777
v 7.018512 3.883677 0.448648
v 7.035065 3.923585 0.450750
v 7.018512 3.963493 0.452852
v 6.978548 3.980024 0.453723
v 6.938584 3.963493 0.452852
v 6.922031 3.923585 0.450750
v 6.938584 3.883677 0.448648
v 6.978548 3.869344 0.406061
v 7.018512 3.885875 0.406932
v 7.035065 3.925783 0.409034
v 7.018512 3.965691 0.411136
v 6.978548 3.982222 0.412007
v 6.938584 3.965691 0.411136
v 6.922031 3.925783 0.409034
v 6.938584 3.885875 0.406932
v 6.978548 3.898632 0.386131
v 6.998571 3.906915 0.386567
v 7.006866 3.926911 0.387621
v 6.998571 3.946907 0.388674
v 6.978548 3.955189 0.389110
v 6.958524 3.946907 0.388674
v 6.950231 3.926911 0.387621
v 6.958524 3.906915 0.386567
v 6.978548 3.901181 0.337753
v 6.998571 3.909463 0.338189
v 7.006866 3.929459 0.339242
v 6.998571 3.949455 0.340296
v 6.978548 3.957738 0.340732
v 6.958524 3.949455 0.340296
v 6.950231 3.929459 0.339242
v 6.958524 3.909463 0.338189
v 6.971945 3.899561 0.322352
v 6.991969 3.907122 0.318942
v 7.000263 3.925375 0.310709
v 6.991969 3.943627 0.302475
v 6.971945 3.951188 0.299065
v 6.951921 3.943627 0.302475
v 6.943627 3.925375 0.310709
v 6.951921 3.907122 0.318942
v 6.997036 3.887272 0.315089
v 7.017059 3.887347 0.306795
v 7.025353 3.887529 0.286772
v 7.017059 3.887710 0.266750
v 6.997036 3.887785 0.258456
v 6.977012 3.887710 0.266750
v 6.968718 3.887529 0.286772
v 6.977012 3.887347 0.306795
v 6.997036 3.839087 0.314652
v 7.017059 3.839162 0.306358
v 7.025353 3.839344 0.286335
v 7.017059 3.839525 0.266312
v 6.997036 3.839601 0.258019
v 6.977012 3.839525 0.266312
v 6.968718 3.839344 0.286335
v 6.977012 3.839162 0.306358
vn 0.000000 -0.653218 0.757134
vn 0.378552 -0.653218 0.655721
vn 0.378552 0.653218 0.655721
vn 0.000000 0.653218 0.757134
vn 0.655721 -0.653218 0.378552
vn 0.655721 0.653218 0.378552
vn 0.757134 -0.653218 0.000000
vn 0.757134 0.653218 0.000000
vn 0.655721 -0.653218 -0.378552
vn 0.655721 0.653218 -0.378552
vn 0.378552 -0.653218 -0.655721
vn 0.378552 0.653218 -0.655721
vn 0.000000 -0.653218 -0.757134
vn 0.000000 0.653218 -0.757134
vn -0.378552 -0.653218 -0.655721
vn -0.378552 0.653218 -0.655721
vn -0.655721 -0.653218 -0.378552
vn -0.655721 0.653218 -0.378552
vn -0.757134 -0.653218 0.000000
vn -0.757134 0.653218 0.000000
vn -0.655721 -0.653218 0.378552
vn -0.655721 0.653218 0.378552
vn -0.378552 0.653218 0.655721
vn -0.378552 -0.653218 0.655721
vn 0.000000 -0.911771 0.410688
vn 0.628529 -0.651753 0.424360
vn 0.548967 -0.581378 0.600482
vn 0.000000 -0.808435 0.588549
vn 0.888882 -0.024079 0.457442
vn 0.776360 -0.033143 0.629383
vn 0.628529 0.603565 0.490493
vn 0.548967 0.515061 0.658254
vn 0.000000 0.863552 0.504196
vn 0.000000 0.742149 0.670217
vn -0.628529 0.603565 0.490493
vn -0.548967 0.515061 0.658254
vn -0.888882 -0.024079 0.457442
vn -0.776360 -0.033143 0.629383
vn -0.548967 -0.581378 0.600482
vn -0.628529 -0.651753 0.424360
vn -0.653920 0.632984 0.414319
vn -0.924772 -0.019990 0.379925
vn 0.924772 -0.019990 0.379925
vn 0.913846 0.021332 -0.405469
vn 0.646168 0.666646 -0.371471
vn 0.653920 0.632984 0.414319
vn -0.653920 -0.673025 0.345500
vn 0.000000 -0.943510 0.331248
vn 0.653920 -0.673025 0.345500
vn 0.000000 0.903500 0.428571
vn 0.614795 0.639912 -0.460982
vn 0.000000 0.894223 -0.447584
vn 0.000000 0.933927 -0.357402
vn -0.646168 0.666646 -0.371471
vn -0.913846 0.021332 -0.405469
vn 0.646168 -0.623920 -0.439467
vn -0.646168 -0.623920 -0.439467
vn 0.000000 -0.891201 -0.453536
vn 0.019349 0.998474 -0.051485
vn -0.675924 0.736656 0.019807
vn -0.614795 0.639912 -0.460982
vn -0.869442 0.025971 -0.493301
vn -0.614795 -0.587939 -0.525651
vn 0.869442 0.025971 -0.493301
vn 0.614795 -0.587939 -0.525651
vn 0.000000 -0.842250 -0.539048
vn -0.732536 0.541734 -0.412152
vn -0.991791 -0.092288 -0.088321
vn -0.992950 0.044527 0.109592
vn -0.697012 -0.704337 0.134312
vn 0.044618 -0.998871 0.015046
vn 0.720634 -0.687857 -0.086581
vn 0.705466 0.702231 -0.095645
vn 0.993561 0.005493 -0.112980
vn -0.962127 -0.182318 -0.202521
vn -0.678579 -0.483139 0.553240
vn -0.726585 -0.653035 0.213446
vn 0.762596 -0.407971 0.501938
vn 0.962340 0.269234 -0.037049
vn -0.063356 0.838191 -0.541642
vn -0.145940 -0.885525 0.441054
vn 0.587848 0.692496 -0.418134
vn -0.548967 -0.635212 0.543229
vn 0.000000 -0.637257 0.770623
vn 0.094028 -0.157598 0.983001
vn 0.971160 0.231147 0.058016
vn 0.701132 0.305063 -0.644459
vn -0.621265 0.139836 -0.770989
vn 0.694540 0.090121 0.713767
vn 0.037996 0.280160 -0.959166
vn 0.548967 -0.635212 0.543229
vn -0.776360 -0.630207 -0.005707
vn 0.776360 -0.630207 -0.005707
vn -0.548967 -0.625233 -0.554674
vn 0.548967 -0.625233 -0.554674
vn 0.000000 -0.623188 -0.782067
usemtl 
s 1
f 1//1 3//2 4//3 2//4
f 3//2 5//5 6//6 4//3
f 5//5 7//7 8//8 6//6
f 7//7 9//9 10//10 8//8
f 9//9 11//11 12//12 10//10
f 11//11 13//13 14//14 12//12
f 13//13 15//15 16//16 14//14
f 15//15 17//17 18//18 16//16
f 17//17 19//19 20//20 18//18
f 19//19 21//21 22//22 20//20
f 4//3 24//23 2//4
f 4//3 6//6 24//23
f 6//6 22//22 24//23
f 6//6 8//8 22//22
f 8//8 20//20 22//22
f 8//8 10//10 20//20
f 10//10 18//18 20//20
f 10//10 12//12 18//18
f 12//12 16//16 18//18
f 12//12 14//14 16//16
f 23//24 1//1 2//4 24//23
f 21//21 23//24 24//23 22//22
f 1//1 23//24 3//2
f 23//24 5//5 3//2
f 23//24 21//21 5//5
f 21//21 7//7 5//5
f 21//21 19//19 7//7
f 19//19 9//9 7//7
f 19//19 17//17 9//9
f 17//17 11//11 9//9
f 17//17 15//15 11//11
f 15//15 13//13 11//11
f 25//25 27//26 28//27 26//28
f 27//26 29//29 30//30 28//27
f 29//29 31//31 32//32 30//30
f 31//31 33//33 34//34 32//32
f 33//33 35//35 36//36 34//34
f 35//35 37//37 38//38 36//36
f 32//32 34//34 36//36
f 32//32 36//36 38//38
f 30//30 32//32 38//38
f 30//30 38//38 40//39
f 28//27 30//30 40//39
f 28//27 40//39 26//28
f 39//40 25//25 26//28 40//39
f 37//37 39//40 40//39 38//38
f 35//35 46//41 47//42 37//37
f 43//43 51//44 52//45 44//46
f 37//37 47//42 48//47 39//40
f 39//40 48//47 41//48 25//25
f 27//26 42//49 43//43 29//29
f 29//29 43//43 44//46 31//31
f 25//25 41//48 42//49 27//26
f 31//31 44//46 45//50 33//33
f 33//33 45//50 46//41 35//35
f 52//45 60//51 61//52 53//53
f 46//41 54//54 55//55 47//42
f 42//49 50//56 51//44 43//43
f 45//50 53//53 54//54 46//41
f 48//47 56//57 49//58 41//48
f 41//48 49//58 50//56 42//49
f 44//46 52//45 53//53 45//50
f 47//42 55//55 56//57 48//47
f 61//52 69//59 70//60 62//61
f 55//55 63//62 64//63 56//57
f 51//44 59//64 60//51 52//45
f 54//54 62//61 63//62 55//55
f 50//56 58//65 59//64 51//44
f 53//53 61//52 62//61 54//54
f 56//57 64//63 57//66 49//58
f 49//58 57//66 58//65 50//56
f 70//60 78//67 79//68 71//69
f 64//63 72//70 65//71 57//66
f 57//66 65//71 66//72 58//65
f 60//51 68//73 69//59 61//52
f 63//62 71//69 72//70 64//63
f 59//64 67//74 68//73 60//51
f 62//61 70//60 71//69 63//62
f 58//65 66//72 67//74 59//64
f 79//68 87//75 88//76 80//77
f 66//72 74//78 75//79 67//74
f 69//59 77//80 78//67 70//60
f 72//70 80//77 73//81 65//71
f 65//71 73//81 74//78 66//72
f 68//73 76//82 77//80 69//59
f 71//69 79//68 80//77 72//70
f 67//74 75//79 76//82 68//73
f 88//76 96//83 89//84 81//85
f 75//79 83//86 84//87 76//82
f 78//67 86//88 87//75 79//68
f 74//78 82//89 83//86 75//79
f 77//80 85//90 86//88 78//67
f 80//77 88//76 81//85 73//81
f 73//81 81//85 82//89 74//78
f 76//82 84//87 85//90 77//80
f 89//84 96//83 90//91
f 96//83 95//92 90//91
f 95//92 91//93 90//91
f 95//92 94//94 91//93
f 94//94 92//95 91//93
f 94//94 93//96 92//95
f 81//85 89//84 90//91 82//89
f 84//87 92//95 93//96 85//90
f 87//75 95//92 96//83 88//76
f 83//86 91//93 92//95 84//87
f 86//88 94//94 95//92 87//75
f 82//89 90//91 91//93 83//86
f 85//90 93//96 94//94 86//88
