# RokuSuper Output Ver2.0 for Wavefront Obj

v 6.72953700 4.16273900 0.52033300
v 6.72953700 4.00437200 0.49319200
v 6.82158600 4.00437100 0.49319200
v 6.82158600 4.16273900 0.52033300
v 6.82158600 3.98279300 0.55762800
v 6.82158600 4.11046200 0.56374800
v 6.72953700 3.98279300 0.55762800
v 6.72953700 4.11046200 0.56374800
v 6.72953700 4.21378900 0.59717100
v 6.82158600 4.21378900 0.59717100
v 6.82158600 4.15253900 0.62660200
v 6.72953700 4.15254000 0.62660200
v 6.66443500 4.23258100 0.62056400
v 6.88668800 4.23258100 0.62056400
v 6.88668800 4.15906100 0.65589100
v 6.66443500 4.15906100 0.65589100
v 6.66443500 4.53243000 1.38409000
v 6.88668700 4.53243000 1.38409000
v 6.88668700 4.45891000 1.41941700
v 6.66443500 4.45891000 1.41941700
v 6.93938000 4.64440400 1.67352200
v 6.61174200 4.64440400 1.67352200
v 6.60000400 4.51982200 1.80689300
v 6.92764100 4.51982200 1.80689300
v 6.82288400 3.79176200 0.39241700
v 6.76932600 3.79490800 0.37045700
v 6.71576800 3.79176200 0.39241700
v 6.71576800 3.77657400 0.49845100
v 6.76932600 3.77342800 0.52041100
v 6.82288400 3.77657400 0.49845100
v 6.84506800 3.78416800 0.44543400
v 6.64573100 3.82455300 0.32636300
v 6.76932600 3.83181200 0.27568500
v 6.89292100 3.82455300 0.32636300
v 6.94411600 3.80702800 0.44870800
v 6.89292000 3.78950300 0.57105500
v 6.76932600 3.78224400 0.62173200
v 6.64573100 3.78950300 0.57105500
v 6.69358300 3.78416800 0.44543400
v 6.59453700 3.80702800 0.44870800
v 6.57417600 3.88088800 0.26214700
v 6.76932600 3.89234900 0.18213000
v 6.96447600 3.88088800 0.26214700
v 7.04530900 3.85321700 0.45532500
v 6.96447600 3.82554600 0.64850300
v 6.76932600 3.81408500 0.72852000
v 6.57417600 3.82554600 0.64850300
v 6.49334300 3.85321800 0.45532500
v 6.48374100 3.89371100 0.17262500
v 6.76932600 3.91048400 0.05552700
v 7.05491100 3.89371100 0.17262500
v 7.17320400 3.85321700 0.45532500
v 7.05491100 3.81272300 0.73802400
v 6.76932600 3.79595000 0.85512200
v 6.48374100 3.81272300 0.73802400
v 6.36544800 3.85321700 0.45532500
v 6.48374100 3.97186500 0.76082000
v 6.36544800 4.01235900 0.47812000
v 6.48374100 4.05285300 0.19542000
v 7.17320400 4.01235900 0.47812000
v 6.76932600 4.06962600 0.07832200
v 7.05491100 4.05285300 0.19542000
v 7.05491100 3.97186500 0.76082000
v 6.76932600 3.95509200 0.87791800

vn 0.00000092 0.16891717 -0.98563025
vn 0.00000000 0.65930260 -0.75187771
vn 0.00000066 0.42069876 -0.90720039
vn 0.00000184 0.16891666 -0.98563034
vn 1.00000000 0.00000000 0.00000000
vn 1.00000000 0.00000000 0.00000000
vn 1.00000000 0.00000000 0.00000000
vn 1.00000000 0.00000000 0.00000000
vn 0.00000000 -0.04788148 0.99885302
vn -0.00000332 -0.62932603 0.77714139
vn 0.00000000 -0.34109638 0.94002833
vn 0.00000000 -0.04788148 0.99885302
vn -1.00000000 0.00000000 0.00000000
vn -1.00000000 0.00000000 0.00000000
vn -1.00000000 0.00000000 0.00000000
vn -1.00000000 0.00000000 0.00000000
vn 0.00000000 0.65930260 -0.75187771
vn 0.00000000 0.79810283 -0.60252126
vn 0.00000000 0.81589255 -0.57820355
vn 0.00000066 0.42069876 -0.90720039
vn 1.00000000 0.00000000 0.00000000
vn 1.00000000 0.00000000 0.00000000
vn 1.00000000 0.00000000 0.00000000
vn 1.00000000 0.00000000 0.00000000
vn -0.00000332 -0.62932603 0.77714139
vn -0.00000665 -0.94206798 0.33542200
vn -0.00000665 -0.89295142 0.45015305
vn 0.00000000 -0.34109638 0.94002833
vn -1.00000000 0.00000000 0.00000000
vn -1.00000000 0.00000000 0.00000000
vn -1.00000000 0.00000000 0.00000000
vn -1.00000000 0.00000000 0.00000000
vn 0.00000000 0.79810283 -0.60252126
vn 0.00000000 0.88942230 -0.45708639
vn 0.00000000 0.83850898 -0.54488778
vn 0.00000000 0.81589255 -0.57820355
vn 0.40952785 -0.39511860 -0.82229449
vn 0.40952693 -0.39511964 -0.82229445
vn 0.40952785 -0.39511860 -0.82229449
vn 0.40952876 -0.39511756 -0.82229454
vn -0.00000665 -0.94206798 0.33542200
vn 0.00000000 -0.94842869 0.31699056
vn -0.00000354 -0.96357300 0.26744546
vn -0.00000665 -0.89295142 0.45015305
vn -0.40952541 -0.39512170 -0.82229422
vn -0.40952354 -0.39512030 -0.82229582
vn -0.40952541 -0.39512170 -0.82229422
vn -0.40952727 -0.39512309 -0.82229262
vn 0.00000000 0.88942230 -0.45708639
vn 0.00000000 0.93202652 -0.36239007
vn 0.00000000 0.93141266 -0.36396490
vn 0.00000000 0.83850898 -0.54488778
vn 1.00000000 0.00000053 0.00000110
vn 0.99438314 -0.08247307 -0.06633529
vn 0.99934547 -0.01566750 -0.03260607
vn 1.00000000 0.00000053 0.00000110
vn 0.00000000 -0.94842869 0.31699056
vn 0.00000000 -0.97399393 0.22657409
vn 0.00000000 -0.95486881 0.29702788
vn -0.00000354 -0.96357300 0.26744546
vn -1.00000000 0.00000000 0.00000000
vn -0.99365838 -0.04795887 -0.10170044
vn -0.99842262 -0.02431668 -0.05060612
vn -1.00000000 0.00000000 0.00000000
vn 0.00000000 0.93263772 -0.36081420
vn 0.00000000 0.93141266 -0.36396490
vn 0.00000000 0.93202652 -0.36239007
vn 0.00000000 0.93263772 -0.36081420
vn 0.00000000 -0.98786816 0.15529485
vn 0.00000000 -0.95486881 0.29702788
vn 0.00000000 -0.97399393 0.22657409
vn 0.00000000 -0.98786816 0.15529485
vn -0.99365838 -0.04795887 -0.10170044
vn -0.98572550 -0.07070116 -0.15279587
vn -0.98576525 -0.07171040 -0.15206737
vn -0.99842262 -0.02431668 -0.05060612
vn 0.98736371 -0.12348346 -0.09932137
vn 0.99934547 -0.01566750 -0.03260607
vn 0.99438314 -0.08247307 -0.06633529
vn 0.97478633 -0.19929555 -0.10036380
vn 0.10750724 -0.96314267 -0.24657331
vn 0.09115860 -0.98577516 -0.14120003
vn -0.08063138 -0.97200625 -0.22068626
vn 0.00000272 -0.95682757 -0.29065615
vn 0.00000304 -0.99994634 0.01035938
vn -0.08063329 -0.99487216 -0.06105450
vn 0.09115860 -0.98577516 -0.14120003
vn 0.10751352 -0.99363166 -0.03371908
vn -0.08063138 -0.97200625 -0.22068626
vn -0.22915052 -0.90398383 -0.36097545
vn 0.00000108 -0.89052672 -0.45493094
vn 0.00000272 -0.95682757 -0.29065615
vn 0.00000272 -0.95682757 -0.29065615
vn 0.00000108 -0.89052672 -0.45493094
vn 0.22914985 -0.90398342 -0.36097690
vn 0.10750724 -0.96314267 -0.24657331
vn 0.10750724 -0.96314267 -0.24657331
vn 0.22914985 -0.90398342 -0.36097690
vn 0.32406583 -0.93647596 -0.13414218
vn 0.09115860 -0.98577516 -0.14120003
vn 0.09115860 -0.98577516 -0.14120003
vn 0.32406583 -0.93647596 -0.13414218
vn 0.22914665 -0.96896843 0.09269300
vn 0.10751352 -0.99363166 -0.03371908
vn 0.10751352 -0.99363166 -0.03371908
vn 0.22914665 -0.96896843 0.09269300
vn 0.00000159 -0.98242605 0.18665223
vn 0.00000304 -0.99994634 0.01035938
vn 0.00000304 -0.99994634 0.01035938
vn 0.00000159 -0.98242605 0.18665223
vn -0.22915028 -0.96896778 0.09269089
vn -0.08063329 -0.99487216 -0.06105450
vn -0.08063329 -0.99487216 -0.06105450
vn -0.22915028 -0.96896778 0.09269089
vn -0.32406881 -0.93647508 -0.13414105
vn -0.15204235 -0.97838814 -0.14014200
vn -0.15204235 -0.97838814 -0.14014200
vn -0.32406881 -0.93647508 -0.13414105
vn -0.22915052 -0.90398383 -0.36097545
vn -0.08063138 -0.97200625 -0.22068626
vn -0.22915052 -0.90398383 -0.36097545
vn -0.15044514 -0.94590092 -0.28746777
vn -0.00000070 -0.93706522 -0.34915437
vn 0.00000108 -0.89052672 -0.45493094
vn 0.00000108 -0.89052672 -0.45493094
vn -0.00000070 -0.93706522 -0.34915437
vn 0.15044338 -0.94590126 -0.28746756
vn 0.22914985 -0.90398342 -0.36097690
vn 0.22914985 -0.90398342 -0.36097690
vn 0.15044338 -0.94590126 -0.28746756
vn 0.21275957 -0.96723207 -0.13854781
vn 0.32406583 -0.93647596 -0.13414218
vn 0.32406583 -0.93647596 -0.13414218
vn 0.21275957 -0.96723207 -0.13854781
vn 0.15044101 -0.98856454 0.01037561
vn 0.22914665 -0.96896843 0.09269300
vn 0.22914665 -0.96896843 0.09269300
vn 0.15044101 -0.98856454 0.01037561
vn -0.00000047 -0.99740014 0.07206226
vn 0.00000159 -0.98242605 0.18665223
vn 0.00000159 -0.98242605 0.18665223
vn -0.00000047 -0.99740014 0.07206226
vn -0.15044188 -0.98856442 0.01037482
vn -0.22915028 -0.96896778 0.09269089
vn -0.22915028 -0.96896778 0.09269089
vn -0.15044188 -0.98856442 0.01037482
vn -0.21275930 -0.96723205 -0.13854834
vn -0.32406881 -0.93647508 -0.13414105
vn -0.32406881 -0.93647508 -0.13414105
vn -0.21275930 -0.96723205 -0.13854834
vn -0.15044514 -0.94590092 -0.28746777
vn -0.22915052 -0.90398383 -0.36097545
vn -0.15044514 -0.94590092 -0.28746777
vn 0.00000199 -0.98989673 -0.14179022
vn -0.00000089 -0.98989614 -0.14179430
vn -0.00000070 -0.93706522 -0.34915437
vn -0.00000070 -0.93706522 -0.34915437
vn -0.00000089 -0.98989614 -0.14179430
vn 0.00000079 -0.98989639 -0.14179256
vn 0.15044338 -0.94590126 -0.28746756
vn 0.15044338 -0.94590126 -0.28746756
vn 0.00000079 -0.98989639 -0.14179256
vn -0.00000038 -0.98989630 -0.14179319
vn 0.21275957 -0.96723207 -0.13854781
vn 0.21275957 -0.96723207 -0.13854781
vn -0.00000038 -0.98989630 -0.14179319
vn 0.00000008 -0.98989631 -0.14179314
vn 0.15044101 -0.98856454 0.01037561
vn 0.15044101 -0.98856454 0.01037561
vn 0.00000008 -0.98989631 -0.14179314
vn -0.00000105 -0.98989599 -0.14179540
vn -0.00000047 -0.99740014 0.07206226
vn -0.00000047 -0.99740014 0.07206226
vn -0.00000105 -0.98989599 -0.14179540
vn 0.00000135 -0.98989625 -0.14179356
vn -0.15044188 -0.98856442 0.01037482
vn -0.15044188 -0.98856442 0.01037482
vn 0.00000135 -0.98989625 -0.14179356
vn 0.00000503 -0.98989605 -0.14179497
vn -0.21275930 -0.96723205 -0.13854834
vn -0.21275930 -0.96723205 -0.13854834
vn 0.00000503 -0.98989605 -0.14179497
vn 0.00000199 -0.98989673 -0.14179022
vn -0.15044514 -0.94590092 -0.28746777
vn 0.00000000 0.98989634 0.14179293
vn -0.00000012 0.98989638 0.14179265
vn 0.00000000 0.98989636 0.14179282
vn 0.00000012 0.98989638 0.14179265
vn -0.00000017 0.98989636 0.14179277
vn 0.00000012 0.98989638 0.14179265
vn 0.00000000 0.98989636 0.14179282
vn -0.00000058 0.98989631 0.14179317
vn 0.00000000 0.98989636 0.14179282
vn -0.00000012 0.98989638 0.14179265
vn 0.00000017 0.98989636 0.14179277
vn 0.00000058 0.98989631 0.14179317
vn -0.08063329 -0.99487216 -0.06105450
vn -0.15204235 -0.97838814 -0.14014200
vn -0.08063138 -0.97200625 -0.22068626
vn 0.09115860 -0.98577516 -0.14120003
vn -0.60374832 -0.11303607 0.78912028
vn -0.79717539 -0.08560807 0.59764760
vn -0.13677363 -0.14046325 0.98059321
vn 0.13677363 -0.14046325 0.98059321
vn 0.13677363 -0.14046325 0.98059321
vn -0.13677363 -0.14046325 0.98059321
vn 0.60374802 -0.11303610 0.78912051
vn 0.79717539 -0.08560807 0.59764760
vn 0.79717539 -0.08560807 0.59764760
vn 0.60374802 -0.11303610 0.78912051
vn 0.99060233 -0.01939393 0.13539167
vn 0.99060239 0.01939303 -0.13539137
vn 0.99060239 0.01939303 -0.13539137
vn 0.99060233 -0.01939393 0.13539167
vn 0.79717565 0.08560517 -0.59764767
vn 0.60374832 0.11303121 -0.78912098
vn 0.60374832 0.11303121 -0.78912098
vn 0.79717565 0.08560517 -0.59764767
vn 0.13677363 0.14045721 -0.98059408
vn -0.13677363 0.14045721 -0.98059408
vn -0.13677363 0.14045721 -0.98059408
vn 0.13677363 0.14045721 -0.98059408
vn -0.60374832 0.11303121 -0.78912098
vn -0.79717565 0.08560517 -0.59764767
vn -0.79717565 0.08560517 -0.59764767
vn -0.60374832 0.11303121 -0.78912098
vn -0.99060244 0.01939298 -0.13539100
vn -0.99060233 -0.01939393 0.13539167
vn -0.99060233 -0.01939393 0.13539167
vn -0.99060244 0.01939298 -0.13539100
vn -0.79717539 -0.08560807 0.59764760
vn -0.60374832 -0.11303607 0.78912028

g ²ã
f 2//1 1//2 4//3 3//4
f 3//5 4//6 6//7 5//8
f 5//9 6//10 8//11 7//12
f 7//13 8//14 1//15 2//16
f 1//17 9//18 10//19 4//20
f 4//21 10//22 11//23 6//24
f 6//25 11//26 12//27 8//28
f 8//29 12//30 9//31 1//32
f 9//33 13//34 14//35 10//36
f 10//37 14//38 15//39 11//40
f 11//41 15//42 16//43 12//44
f 12//45 16//46 13//47 9//48
f 13//49 17//50 18//51 14//52
f 14//53 18//54 19//55 15//56
f 15//57 19//58 20//59 16//60
f 16//61 20//62 17//63 13//64
f 21//65 18//66 17//67 22//68
f 23//69 20//70 19//71 24//72
f 20//73 23//74 22//75 17//76
f 24//77 19//78 18//79 21//80
f 25//81 31//82 27//83 26//84
f 29//85 28//86 31//87 30//88
f 27//89 32//90 33//91 26//92
f 26//93 33//94 34//95 25//96
f 25//97 34//98 35//99 31//100
f 31//101 35//102 36//103 30//104
f 30//105 36//106 37//107 29//108
f 29//109 37//110 38//111 28//112
f 28//113 38//114 40//115 39//116
f 39//117 40//118 32//119 27//120
f 32//121 41//122 42//123 33//124
f 33//125 42//126 43//127 34//128
f 34//129 43//130 44//131 35//132
f 35//133 44//134 45//135 36//136
f 36//137 45//138 46//139 37//140
f 37//141 46//142 47//143 38//144
f 38//145 47//146 48//147 40//148
f 40//149 48//150 41//151 32//152
f 41//153 49//154 50//155 42//156
f 42//157 50//158 51//159 43//160
f 43//161 51//162 52//163 44//164
f 44//165 52//166 53//167 45//168
f 45//169 53//170 54//171 46//172
f 46//173 54//174 55//175 47//176
f 47//177 55//178 56//179 48//180
f 48//181 56//182 49//183 41//184
f 58//185 57//186 60//187 59//188
f 61//189 59//190 60//191 62//192
f 60//193 57//194 64//195 63//196
f 28//197 39//198 27//199 31//200
f 57//201 55//202 54//203 64//204
f 64//205 54//206 53//207 63//208
f 63//209 53//210 52//211 60//212
f 60//213 52//214 51//215 62//216
f 62//217 51//218 50//219 61//220
f 61//221 50//222 49//223 59//224
f 59//225 49//226 56//227 58//228
f 58//229 56//230 55//231 57//232

