# Blender v2.64 (sub 0) OBJ File: 'spitfire_output_Propeller.blend'
# www.blender.org
mtllib spitfire_output_Propeller.mtl
o _Propeller_Cube.001
v 8.597152 4.135518 1.999064
v 8.597152 4.112504 1.965159
v 8.637779 3.930558 2.069815
v 8.637779 3.958742 2.111338
v 8.597152 4.151176 1.899416
v 8.637779 3.977917 1.989304
v 8.597152 4.211116 1.990295
v 8.637779 4.051324 2.100598
v 8.597152 4.385139 1.911018
v 8.637777 4.264441 2.003512
v 8.597152 4.607501 1.785336
v 8.637777 4.536757 1.849593
v 8.637777 4.944048 1.537022
v 8.597152 4.940077 1.530101
v 8.637779 4.889585 1.477823
v 8.597152 4.895606 1.481762
v 8.597152 4.508889 1.657718
v 8.637779 4.415992 1.693308
v 8.597152 4.309730 1.783402
v 8.637779 4.172091 1.847226
v 8.597152 5.913878 1.927013
v 8.597152 5.896020 1.963897
v 8.637779 6.077628 2.069138
v 8.637779 6.099497 2.023969
v 8.597152 5.819751 1.963277
v 8.637779 5.984223 2.068378
v 8.597152 5.868483 1.865927
v 8.637779 6.043904 1.949160
v 8.597152 5.712816 1.754858
v 8.637777 5.853266 1.813139
v 8.597152 5.492790 1.625128
v 8.637777 5.583811 1.654265
v 8.637777 5.109471 1.457828
v 8.597152 5.105463 1.464725
v 8.637779 5.085435 1.534594
v 8.597152 5.085836 1.527409
v 8.597152 5.431576 1.774337
v 8.637779 5.508847 1.836995
v 8.597152 5.640000 1.883972
v 8.637779 5.764094 1.971260
v 8.597152 4.962297 0.422935
v 8.597152 5.003168 0.419958
v 8.637779 5.003507 0.210061
v 8.637779 4.953453 0.213706
v 8.597152 5.040767 0.486319
v 8.637779 5.049551 0.291331
v 8.597152 4.932092 0.492791
v 8.637779 4.916464 0.299256
v 8.597152 4.913737 0.683137
v 8.637777 4.893985 0.532363
v 8.597152 4.911401 0.938550
v 8.637777 4.891124 0.845154
v 8.637777 4.958176 1.354163
v 8.597152 4.966152 1.354186
v 8.637779 5.036674 1.336597
v 8.597152 5.030252 1.339843
v 8.597152 5.071227 0.916958
v 8.637779 5.086854 0.818711
v 8.597152 5.061961 0.681638
v 8.637779 5.075508 0.530528
v 8.492403 5.131464 1.677704
v 8.492403 5.227704 1.581465
v 8.492403 5.262929 1.450000
v 8.492403 5.227704 1.318535
v 8.492403 5.131464 1.222296
v 8.492403 4.868534 1.222296
v 8.492403 4.772295 1.318535
v 8.492403 4.737069 1.450000
v 8.492403 4.772295 1.581465
v 8.492403 4.868534 1.677704
v 8.617019 5.020910 1.708852
v 9.000000 5.013465 1.500258
v 8.617019 5.111316 1.684628
v 8.617019 4.888682 1.684628
v 9.000000 4.986533 1.500258
v 8.617019 4.979088 1.708852
v 8.617019 5.147534 1.663717
v 9.000000 5.036790 1.486791
v 8.617019 5.213716 1.597535
v 8.617019 5.234627 1.561317
v 9.000000 5.050257 1.463467
v 8.617019 5.258851 1.470911
v 8.617018 4.786282 1.597535
v 9.000000 4.963208 1.486791
v 8.617019 4.852464 1.663717
v 8.617018 4.741147 1.470911
v 9.000000 4.949741 1.463467
v 8.617018 4.765371 1.561317
v 8.617018 4.765371 1.338683
v 9.000000 4.949741 1.436533
v 8.617018 4.741147 1.429089
v 8.617019 4.852464 1.236283
v 9.000000 4.963208 1.413209
v 8.617018 4.786282 1.302465
v 8.617019 4.979088 1.191148
v 9.000000 4.986533 1.399742
v 8.617019 4.888682 1.215372
v 8.617019 5.111316 1.215372
v 9.000000 5.013465 1.399742
v 8.617019 5.020910 1.191148
v 8.617019 5.213716 1.302465
v 9.000000 5.036790 1.413209
v 8.617019 5.147534 1.236283
v 8.617019 5.258851 1.429089
v 9.000000 5.050257 1.436533
v 8.617019 5.234627 1.338683
v 8.597152 5.864481 1.999064
v 8.597152 5.887495 1.965159
v 8.637779 6.069441 2.069815
v 8.637779 6.041257 2.111338
v 8.597152 5.848823 1.899416
v 8.637779 6.022081 1.989304
v 8.597152 5.788883 1.990295
v 8.637779 5.948675 2.100598
v 8.597152 5.614860 1.911018
v 8.637777 5.735558 2.003512
v 8.597152 5.392498 1.785336
v 8.637777 5.463242 1.849593
v 8.637777 5.055951 1.537022
v 8.597152 5.059921 1.530101
v 8.637779 5.110415 1.477823
v 8.597152 5.104393 1.481762
v 8.597152 5.491110 1.657718
v 8.637779 5.584007 1.693308
v 8.597152 5.690269 1.783402
v 8.637779 5.827908 1.847226
v 8.597152 4.086121 1.927013
v 8.597152 4.103979 1.963897
v 8.637779 3.922371 2.069138
v 8.637779 3.900502 2.023969
v 8.597152 4.180248 1.963277
v 8.637779 4.015775 2.068378
v 8.597152 4.131516 1.865927
v 8.637779 3.956095 1.949160
v 8.597152 4.287183 1.754858
v 8.637777 4.146733 1.813139
v 8.597152 4.507209 1.625128
v 8.637777 4.416188 1.654265
v 8.637777 4.890528 1.457828
v 8.597152 4.894536 1.464725
v 8.637779 4.914564 1.534594
v 8.597152 4.914163 1.527409
v 8.597152 4.568423 1.774337
v 8.637779 4.491152 1.836995
v 8.597152 4.359999 1.883972
v 8.637779 4.235905 1.971260
v 8.597152 5.037701 0.422935
v 8.597152 4.996831 0.419958
v 8.637779 4.996492 0.210061
v 8.637779 5.046546 0.213706
v 8.597152 4.959232 0.486319
v 8.637779 4.950448 0.291331
v 8.597152 5.067907 0.492791
v 8.637779 5.083535 0.299256
v 8.597152 5.086262 0.683137
v 8.637777 5.106014 0.532363
v 8.597152 5.088598 0.938550
v 8.637777 5.108874 0.845154
v 8.637777 5.041823 1.354163
v 8.597152 5.033847 1.354186
v 8.637779 4.963325 1.336597
v 8.597152 4.969746 1.339843
v 8.597152 4.928772 0.916958
v 8.637779 4.913145 0.818711
v 8.597152 4.938038 0.681638
v 8.637779 4.924491 0.530528
v 8.492403 5.000000 1.712930
v 8.492403 4.868535 1.677704
v 8.492403 4.772295 1.581465
v 8.492403 4.737070 1.450000
v 8.492403 4.772295 1.318535
v 8.492403 4.868535 1.222296
v 8.492403 5.000000 1.187070
v 8.492403 5.131465 1.222296
v 8.492403 5.227704 1.318535
v 8.492403 5.262930 1.450000
v 8.492403 5.227705 1.581465
v 8.492403 5.131465 1.677704
v 8.617019 4.979089 1.708852
v 9.000000 4.986533 1.500258
v 8.617019 4.888683 1.684628
v 8.617019 5.111317 1.684628
v 9.000000 5.013466 1.500258
v 8.617019 5.020910 1.708852
v 8.617019 4.852465 1.663717
v 9.000000 4.963209 1.486791
v 8.617018 4.786283 1.597535
v 8.617018 4.765372 1.561317
v 9.000000 4.949742 1.463467
v 8.617018 4.741148 1.470911
v 8.617019 5.213717 1.597535
v 9.000000 5.036791 1.486791
v 8.617019 5.147535 1.663717
v 8.617019 5.258852 1.470911
v 9.000000 5.050258 1.463467
v 8.617019 5.234628 1.561317
v 8.617019 5.234628 1.338683
v 9.000000 5.050258 1.436533
v 8.617019 5.258852 1.429089
v 8.617019 5.147535 1.236283
v 9.000000 5.036791 1.413209
v 8.617019 5.213717 1.302465
v 8.617019 5.020910 1.191148
v 9.000000 5.013466 1.399742
v 8.617019 5.111317 1.215372
v 8.617019 4.888683 1.215372
v 9.000000 4.986533 1.399742
v 8.617019 4.979089 1.191148
v 8.617018 4.786283 1.302465
v 9.000000 4.963209 1.413209
v 8.617019 4.852465 1.236283
v 8.617018 4.741148 1.429089
v 9.000000 4.949742 1.436533
v 8.617018 4.765372 1.338683
vn -0.979095 -0.019349 0.202429
vn -0.983337 -0.174810 -0.049379
vn 0.078829 -0.986663 0.142338
vn 0.081668 -0.527268 0.845759
vn -0.892117 -0.278970 -0.355327
vn 0.184210 -0.808649 -0.558672
vn -0.906430 0.164464 0.388958
vn 0.207099 0.161534 0.964873
vn -0.854671 0.251717 0.454024
vn 0.422010 0.383618 0.821406
vn -0.771111 0.378277 0.512101
vn 0.518021 0.435835 0.735984
vn 0.526994 0.839595 0.131504
vn -0.608539 0.793481 0.004547
vn 0.567339 0.116092 -0.815210
vn -0.616016 0.204688 -0.760643
vn -0.757073 -0.280618 -0.589923
vn 0.531968 -0.438490 -0.724357
vn -0.846126 -0.287271 -0.448866
vn 0.451949 -0.521592 -0.723624
vn -0.979095 0.185003 -0.084445
vn -0.983337 0.044618 0.176092
vn 0.078829 0.616596 0.783288
vn 0.081668 0.996063 0.033753
vn -0.892117 -0.168218 0.419263
vn 0.184210 -0.079501 0.979644
vn -0.906430 0.254616 -0.336924
vn 0.207099 0.754814 -0.622333
vn -0.854671 0.267312 -0.445021
vn 0.422010 0.519517 -0.742943
vn -0.771111 0.254341 -0.583667
vn 0.518021 0.419446 -0.745445
vn 0.527024 -0.305918 -0.792871
vn -0.608539 -0.392773 -0.689474
vn 0.567339 -0.764061 0.307047
vn -0.616016 -0.761071 0.203040
vn -0.757103 -0.370556 0.538011
vn 0.531968 -0.408063 0.741935
vn -0.846126 -0.245064 0.473220
vn 0.451949 -0.365856 0.813532
vn -0.979095 -0.165654 -0.117985
vn -0.983337 0.130161 -0.126682
vn 0.078829 0.370037 -0.925626
vn 0.081668 -0.468795 -0.879513
vn -0.892117 0.447218 -0.063906
vn 0.184210 0.888150 -0.420942
vn -0.906430 -0.419111 -0.052034
vn 0.207129 -0.916379 -0.342509
vn -0.854671 -0.519059 -0.009003
vn 0.422010 -0.903165 -0.078463
vn -0.771111 -0.632649 0.071535
vn 0.518021 -0.855312 0.009461
vn 0.527024 -0.533677 0.661367
vn -0.608509 -0.400708 0.684896
vn 0.567339 0.647938 0.508164
vn -0.616016 0.556383 0.557573
vn -0.757103 0.651204 0.051912
vn 0.531968 0.846553 -0.017548
vn -0.846156 0.532365 -0.024354
vn 0.451949 0.887478 -0.089908
vn -0.655690 0.000000 0.754997
vn -0.655690 0.377483 0.653859
vn -0.655690 -0.377483 0.653859
vn -0.655690 0.653859 0.377483
vn -0.655690 -0.653859 0.377483
vn -0.655690 0.754997 0.000000
vn -0.655690 -0.754997 0.000000
vn -0.655690 0.653859 -0.377483
vn -0.655690 -0.653859 -0.377483
vn -0.655690 0.377483 -0.653859
vn -0.655690 -0.377483 -0.653859
vn -0.655690 0.000000 -0.754997
vn 0.245247 0.132267 0.960356
vn 0.826716 0.145604 0.543382
vn 0.245247 0.365612 0.897855
vn 0.245247 -0.365612 0.897855
vn 0.826716 -0.145604 0.543382
vn 0.245247 -0.132267 0.960356
vn 0.245247 0.594745 0.765557
vn 0.826716 0.397778 0.397778
vn 0.245247 0.765557 0.594745
vn 0.245247 0.897855 0.365612
vn 0.826716 0.543382 0.145604
vn 0.245247 0.960356 0.132267
vn 0.245247 -0.765557 0.594745
vn 0.826716 -0.397778 0.397778
vn 0.245247 -0.594745 0.765557
vn 0.245247 -0.960356 0.132267
vn 0.826716 -0.543382 0.145604
vn 0.245247 -0.897855 0.365612
vn 0.245247 -0.897855 -0.365612
vn 0.826716 -0.543382 -0.145604
vn 0.245247 -0.960356 -0.132267
vn 0.245247 -0.594745 -0.765557
vn 0.826716 -0.397778 -0.397778
vn 0.245247 -0.765557 -0.594745
vn 0.245247 -0.132267 -0.960356
vn 0.826716 -0.145604 -0.543382
vn 0.245247 -0.365612 -0.897855
vn 0.245247 0.365612 -0.897855
vn 0.826716 0.145604 -0.543382
vn 0.245247 0.132267 -0.960356
vn 0.245247 0.765557 -0.594745
vn 0.826716 0.397778 -0.397778
vn 0.245247 0.594745 -0.765557
vn 0.245247 0.960356 -0.132267
vn 0.826716 0.543382 -0.145604
vn 0.245247 0.897855 -0.365612
vn -0.979095 0.019349 0.202429
vn 0.081668 0.527268 0.845759
vn 0.078799 0.986663 0.142338
vn -0.983337 0.174810 -0.049379
vn 0.184210 0.808649 -0.558672
vn -0.892117 0.278970 -0.355327
vn -0.906430 -0.164464 0.388958
vn 0.207099 -0.161534 0.964873
vn -0.854671 -0.251717 0.454024
vn 0.422010 -0.383618 0.821406
vn -0.771111 -0.378277 0.512101
vn 0.518021 -0.435835 0.735984
vn -0.608539 -0.793481 0.004547
vn 0.527024 -0.839595 0.131504
vn -0.616016 -0.204657 -0.760643
vn 0.567339 -0.116092 -0.815210
vn -0.757073 0.280618 -0.589923
vn 0.531968 0.438490 -0.724357
vn -0.846156 0.287271 -0.448866
vn 0.451949 0.521592 -0.723624
vn -0.979095 -0.185003 -0.084445
vn 0.081668 -0.996063 0.033753
vn 0.078829 -0.616596 0.783288
vn -0.983337 -0.044618 0.176092
vn 0.184210 0.079501 0.979644
vn -0.892117 0.168218 0.419263
vn -0.906430 -0.254616 -0.336924
vn 0.207129 -0.754814 -0.622333
vn -0.854671 -0.267312 -0.445021
vn 0.422010 -0.519547 -0.742943
vn -0.771111 -0.254341 -0.583667
vn 0.518021 -0.419446 -0.745445
vn -0.608539 0.392773 -0.689474
vn 0.527024 0.305918 -0.792871
vn -0.616016 0.761071 0.203040
vn 0.567339 0.764061 0.307047
vn -0.757103 0.370556 0.538011
vn 0.531968 0.408063 0.741935
vn -0.846126 0.245064 0.473220
vn 0.451949 0.365856 0.813532
vn -0.979095 0.165624 -0.117985
vn 0.081668 0.468795 -0.879513
vn 0.078829 -0.370037 -0.925626
vn -0.983337 -0.130161 -0.126682
vn 0.184210 -0.888150 -0.420942
vn -0.892117 -0.447218 -0.063906
vn -0.906430 0.419111 -0.052034
vn 0.207099 0.916379 -0.342509
vn -0.854671 0.519059 -0.009003
vn 0.422010 0.903165 -0.078463
vn -0.771111 0.632649 0.071535
vn 0.518021 0.855312 0.009461
vn -0.608509 0.400708 0.684896
vn 0.527024 0.533677 0.661367
vn -0.616016 -0.556383 0.557573
vn 0.567339 -0.647938 0.508164
vn -0.757103 -0.651204 0.051912
vn 0.531968 -0.846553 -0.017548
vn -0.846156 -0.532365 -0.024354
vn 0.451949 -0.887478 -0.089908
usemtl _metal
s 1
f 1//1 2//2 3//3 4//4
f 2//2 5//5 6//6 3//3
f 7//7 1//1 4//4 8//8
f 9//9 7//7 8//8 10//10
f 11//11 9//9 10//10 12//12
f 12//12 13//13 14//14 11//11
f 13//13 15//15 16//16 14//14
f 17//17 16//16 15//15 18//18
f 19//19 17//17 18//18 20//20
f 5//5 19//19 20//20 6//6
f 1//1 7//7 5//5 2//2
f 19//19 5//5 7//7 9//9
f 17//17 19//19 9//9 11//11
f 16//16 17//17 11//11 14//14
f 13//13 12//12 18//18 15//15
f 12//12 10//10 20//20 18//18
f 10//10 8//8 6//6 20//20
f 8//8 4//4 3//3 6//6
f 21//21 22//22 23//23 24//24
f 22//22 25//25 26//26 23//23
f 27//27 21//21 24//24 28//28
f 29//29 27//27 28//28 30//30
f 31//31 29//29 30//30 32//32
f 32//32 33//33 34//34 31//31
f 33//33 35//35 36//36 34//34
f 37//37 36//36 35//35 38//38
f 39//39 37//37 38//38 40//40
f 25//25 39//39 40//40 26//26
f 21//21 27//27 25//25 22//22
f 39//39 25//25 27//27 29//29
f 37//37 39//39 29//29 31//31
f 36//36 37//37 31//31 34//34
f 33//33 32//32 38//38 35//35
f 32//32 30//30 40//40 38//38
f 30//30 28//28 26//26 40//40
f 28//28 24//24 23//23 26//26
f 41//41 42//42 43//43 44//44
f 42//42 45//45 46//46 43//43
f 47//47 41//41 44//44 48//48
f 49//49 47//47 48//48 50//50
f 51//51 49//49 50//50 52//52
f 52//52 53//53 54//54 51//51
f 53//53 55//55 56//56 54//54
f 57//57 56//56 55//55 58//58
f 59//59 57//57 58//58 60//60
f 45//45 59//59 60//60 46//46
f 41//41 47//47 45//45 42//42
f 59//59 45//45 47//47 49//49
f 57//57 59//59 49//49 51//51
f 56//56 57//57 51//51 54//54
f 53//53 52//52 58//58 55//55
f 52//52 50//50 60//60 58//58
f 50//50 48//48 46//46 60//60
f 48//48 44//44 43//43 46//46
f 167//61 61//62 70//63
f 61//62 62//64 70//63
f 62//64 69//65 70//63
f 62//64 63//66 69//65
f 63//66 68//67 69//65
f 63//66 64//68 68//67
f 64//68 67//69 68//67
f 64//68 65//70 67//69
f 65//70 66//71 67//69
f 65//70 173//72 66//71
f 71//73 72//74 73//75
f 74//76 75//77 76//78
f 77//79 78//80 79//81
f 80//82 81//83 82//84
f 83//85 84//86 85//87
f 86//88 87//89 88//90
f 89//91 90//92 91//93
f 92//94 93//95 94//96
f 95//97 96//98 97//99
f 98//100 99//101 100//102
f 101//103 102//104 103//105
f 104//106 105//107 106//108
f 71//73 73//75 61//62 167//61
f 77//79 79//81 62//64 61//62
f 80//82 82//84 63//66 62//64
f 104//106 106//108 64//68 63//66
f 101//103 103//105 65//70 64//68
f 98//100 100//102 173//72 65//70
f 95//97 97//99 66//71 173//72
f 92//94 94//96 67//69 66//71
f 89//91 91//93 68//67 67//69
f 86//88 88//90 69//65 68//67
f 83//85 85//87 70//63 69//65
f 74//76 76//78 167//61 70//63
f 76//78 75//77 72//74 71//73
f 78//80 77//79 73//75 72//74
f 85//87 84//86 75//77 74//76
f 81//83 80//82 79//81 78//80
f 105//107 104//106 82//84 81//83
f 88//90 87//89 84//86 83//85
f 91//93 90//92 87//89 86//88
f 94//96 93//95 90//92 89//91
f 97//99 96//98 93//95 92//94
f 100//102 99//101 96//98 95//97
f 103//105 102//104 99//101 98//100
f 106//108 105//107 102//104 101//103
f 76//78 71//73 167//61
f 77//79 61//62 73//75
f 79//81 80//82 62//64
f 104//106 63//66 82//84
f 72//74 75//77 78//80
f 75//77 84//86 78//80
f 84//86 81//83 78//80
f 84//86 87//89 81//83
f 87//89 90//92 81//83
f 90//92 105//107 81//83
f 90//92 93//95 105//107
f 93//95 102//104 105//107
f 93//95 99//101 102//104
f 93//95 96//98 99//101
f 101//103 64//68 106//108
f 98//100 65//70 103//105
f 95//97 173//72 100//102
f 92//94 66//71 97//99
f 89//91 67//69 94//96
f 86//88 68//67 91//93
f 83//85 69//65 88//90
f 85//87 74//76 70//63
f 107//109 110//110 109//111 108//112
f 108//112 109//111 112//113 111//114
f 113//115 114//116 110//110 107//109
f 115//117 116//118 114//116 113//115
f 117//119 118//120 116//118 115//117
f 118//120 117//119 120//121 119//122
f 119//122 120//121 122//123 121//124
f 123//125 124//126 121//124 122//123
f 125//127 126//128 124//126 123//125
f 111//114 112//113 126//128 125//127
f 107//109 108//112 111//114 113//115
f 125//127 115//117 113//115 111//114
f 123//125 117//119 115//117 125//127
f 122//123 120//121 117//119 123//125
f 119//122 121//124 124//126 118//120
f 118//120 124//126 126//128 116//118
f 116//118 126//128 112//113 114//116
f 114//116 112//113 109//111 110//110
f 127//129 130//130 129//131 128//132
f 128//132 129//131 132//133 131//134
f 133//135 134//136 130//130 127//129
f 135//137 136//138 134//136 133//135
f 137//139 138//140 136//138 135//137
f 138//140 137//139 140//141 139//142
f 139//142 140//141 142//143 141//144
f 143//145 144//146 141//144 142//143
f 145//147 146//148 144//146 143//145
f 131//134 132//133 146//148 145//147
f 127//129 128//132 131//134 133//135
f 145//147 135//137 133//135 131//134
f 143//145 137//139 135//137 145//147
f 142//143 140//141 137//139 143//145
f 139//142 141//144 144//146 138//140
f 138//140 144//146 146//148 136//138
f 136//138 146//148 132//133 134//136
f 134//136 132//133 129//131 130//130
f 147//149 150//150 149//151 148//152
f 148//152 149//151 152//153 151//154
f 153//155 154//156 150//150 147//149
f 155//157 156//158 154//156 153//155
f 157//159 158//160 156//158 155//157
f 158//160 157//159 160//161 159//162
f 159//162 160//161 162//163 161//164
f 163//165 164//166 161//164 162//163
f 165//167 166//168 164//166 163//165
f 151//154 152//153 166//168 165//167
f 147//149 148//152 151//154 153//155
f 165//167 155//157 153//155 151//154
f 163//165 157//159 155//157 165//167
f 162//163 160//161 157//159 163//165
f 159//162 161//164 164//166 158//160
f 158//160 164//166 166//168 156//158
f 156//158 166//168 152//153 154//156
f 154//156 152//153 149//151 150//150
f 167//61 178//62 168//63
f 178//62 169//65 168//63
f 178//62 177//64 169//65
f 177//64 170//67 169//65
f 177//64 176//66 170//67
f 176//66 171//69 170//67
f 176//66 175//68 171//69
f 175//68 172//71 171//69
f 175//68 174//70 172//71
f 174//70 173//72 172//71
f 179//78 181//76 180//77
f 182//75 184//73 183//74
f 185//87 187//85 186//86
f 188//90 190//88 189//89
f 191//81 193//79 192//80
f 194//84 196//82 195//83
f 197//108 199//106 198//107
f 200//105 202//103 201//104
f 203//102 205//100 204//101
f 206//99 208//97 207//98
f 209//96 211//94 210//95
f 212//93 214//91 213//92
f 179//78 167//61 168//63 181//76
f 185//87 168//63 169//65 187//85
f 188//90 169//65 170//67 190//88
f 212//93 170//67 171//69 214//91
f 209//96 171//69 172//71 211//94
f 206//99 172//71 173//72 208//97
f 203//102 173//72 174//70 205//100
f 200//105 174//70 175//68 202//103
f 197//108 175//68 176//66 199//106
f 194//84 176//66 177//64 196//82
f 191//81 177//64 178//62 193//79
f 182//75 178//62 167//61 184//73
f 184//73 179//78 180//77 183//74
f 186//86 180//77 181//76 185//87
f 193//79 182//75 183//74 192//80
f 189//89 186//86 187//85 188//90
f 213//92 189//89 190//88 212//93
f 196//82 191//81 192//80 195//83
f 199//106 194//84 195//83 198//107
f 202//103 197//108 198//107 201//104
f 205//100 200//105 201//104 204//101
f 208//97 203//102 204//101 207//98
f 211//94 206//99 207//98 210//95
f 214//91 209//96 210//95 213//92
f 184//73 167//61 179//78
f 185//87 181//76 168//63
f 187//85 169//65 188//90
f 212//93 190//88 170//67
f 180//77 186//86 183//74
f 186//86 192//80 183//74
f 186//86 189//89 192//80
f 189//89 195//83 192//80
f 189//89 213//92 195//83
f 213//92 198//107 195//83
f 213//92 210//95 198//107
f 210//95 201//104 198//107
f 210//95 207//98 201//104
f 207//98 204//101 201//104
f 209//96 214//91 171//69
f 206//99 211//94 172//71
f 203//102 208//97 173//72
f 200//105 205//100 174//70
f 197//108 202//103 175//68
f 194//84 199//106 176//66
f 191//81 196//82 177//64
f 193//79 178//62 182//75
