# Blender v2.64 (sub 0) OBJ File: 'spitfire_output_Leg_L.blend'
# www.blender.org
mtllib spitfire_output_Leg_L.mtl
o L_Cube.002
v 6.814135 5.500460 0.321869
v 6.793124 5.491768 0.322167
v 6.793124 5.531475 0.798923
v 6.814135 5.540167 0.798626
v 6.784421 5.470785 0.322885
v 6.784421 5.510491 0.799641
v 6.793124 5.449800 0.323602
v 6.793124 5.489507 0.800359
v 6.814135 5.441110 0.323900
v 6.814135 5.480816 0.800656
v 6.835145 5.449800 0.323602
v 6.835145 5.489507 0.800359
v 6.843847 5.470785 0.322885
v 6.843848 5.510491 0.799641
v 6.835145 5.531475 0.798923
v 6.835145 5.491768 0.322167
v 6.843272 5.448623 0.317558
v 6.855340 5.477720 0.316026
v 6.772928 5.477720 0.316026
v 6.772928 5.476117 0.285611
v 6.784997 5.447021 0.287144
v 6.784997 5.448623 0.317558
v 6.843272 5.506816 0.314493
v 6.814135 5.518868 0.313858
v 6.784997 5.506816 0.314493
v 6.814135 5.436570 0.318193
v 6.799536 5.460716 0.270767
v 6.814135 5.454678 0.271085
v 6.814135 5.434968 0.287779
v 6.843272 5.447021 0.287144
v 6.855340 5.476117 0.285611
v 6.784997 5.505213 0.284078
v 6.843272 5.505213 0.284078
v 6.814135 5.517266 0.283443
v 6.814135 5.452819 0.235813
v 6.828733 5.458858 0.235495
v 6.828733 5.460716 0.270767
v 6.834780 5.475295 0.269999
v 6.828733 5.489873 0.269230
v 6.793488 5.475295 0.269999
v 6.799536 5.489873 0.269230
v 6.814135 5.495913 0.268913
v 6.833548 5.463107 0.207920
v 6.839595 5.476414 0.213923
v 6.834780 5.473437 0.234726
v 6.828733 5.488016 0.233959
v 6.814135 5.494054 0.233641
v 6.799536 5.488016 0.233959
v 6.799536 5.458858 0.235495
v 6.793488 5.473437 0.234726
v 6.821301 5.504008 0.196471
v 6.815254 5.504140 0.211070
v 6.833548 5.489723 0.219926
v 6.804349 5.489723 0.219926
v 6.798302 5.476415 0.213923
v 6.818949 5.457594 0.205434
v 6.818949 5.495235 0.222412
v 6.804349 5.463107 0.207920
v 6.815254 5.539271 0.210751
v 6.800655 5.539326 0.216798
v 6.800655 5.504195 0.217117
v 6.780009 5.504008 0.196471
v 6.786057 5.503876 0.181873
v 6.815254 5.503876 0.181873
v 6.786057 5.504140 0.211070
v 6.800655 5.503821 0.175826
v 6.786057 5.539271 0.210751
v 6.821301 5.539139 0.196152
v 6.780010 5.539139 0.196152
v 6.815254 5.539007 0.181554
v 6.786057 5.539007 0.181554
v 6.800655 5.538951 0.175507
v 6.809244 5.649279 0.397905
v 6.907686 5.649279 0.371527
v 6.907686 5.533928 0.371527
v 6.809244 5.533928 0.397905
v 6.979752 5.649279 0.299461
v 6.979752 5.533928 0.299461
v 7.006130 5.649279 0.201018
v 7.006130 5.533928 0.201018
v 6.979752 5.649279 0.102575
v 6.979752 5.533928 0.102575
v 6.907686 5.649279 0.030510
v 6.907686 5.533928 0.030510
v 6.809244 5.649279 0.004132
v 6.809244 5.533928 0.004132
v 6.710800 5.649278 0.030510
v 6.710800 5.533928 0.030510
v 6.638735 5.649278 0.102575
v 6.638735 5.533928 0.102575
v 6.612357 5.649279 0.201018
v 6.612357 5.533928 0.201018
v 6.638735 5.649279 0.299461
v 6.638735 5.533928 0.299461
v 6.710800 5.533928 0.371526
v 6.710800 5.649279 0.371526
v 6.804352 5.500461 0.321869
v 6.825363 5.491769 0.322167
v 6.825362 5.531476 0.798923
v 6.804352 5.540168 0.798626
v 6.834065 5.470786 0.322885
v 6.834065 5.510492 0.799641
v 6.825363 5.449801 0.323602
v 6.825362 5.489508 0.800359
v 6.804352 5.441111 0.323900
v 6.804352 5.480817 0.800656
v 6.783341 5.449801 0.323602
v 6.783341 5.489508 0.800359
v 6.774639 5.470786 0.322885
v 6.774639 5.510492 0.799641
v 6.783341 5.531476 0.798923
v 6.783341 5.491769 0.322167
v 6.775215 5.448624 0.317558
v 6.763146 5.477720 0.316026
v 6.845558 5.477720 0.316026
v 6.845558 5.476118 0.285611
v 6.833489 5.447021 0.287144
v 6.833489 5.448624 0.317558
v 6.775215 5.506817 0.314493
v 6.804352 5.518869 0.313858
v 6.833489 5.506817 0.314493
v 6.804352 5.436571 0.318193
v 6.818951 5.460716 0.270767
v 6.804352 5.454678 0.271085
v 6.804352 5.434968 0.287779
v 6.775215 5.447021 0.287144
v 6.763146 5.476118 0.285611
v 6.833489 5.505214 0.284078
v 6.775215 5.505214 0.284078
v 6.804352 5.517267 0.283443
v 6.804352 5.452820 0.235813
v 6.789753 5.458859 0.235495
v 6.789753 5.460716 0.270767
v 6.783707 5.475295 0.269999
v 6.789753 5.489874 0.269230
v 6.824998 5.475295 0.269999
v 6.818951 5.489874 0.269230
v 6.804352 5.495913 0.268913
v 6.784938 5.463108 0.207920
v 6.778891 5.476415 0.213923
v 6.783707 5.473438 0.234726
v 6.789753 5.488017 0.233959
v 6.804352 5.494055 0.233641
v 6.818951 5.488017 0.233959
v 6.818951 5.458859 0.235495
v 6.824998 5.473438 0.234726
v 6.797185 5.504008 0.196471
v 6.803232 5.504141 0.211070
v 6.784939 5.489723 0.219926
v 6.814137 5.489723 0.219926
v 6.820184 5.476415 0.213923
v 6.799538 5.457595 0.205434
v 6.799538 5.495236 0.222412
v 6.814137 5.463108 0.207920
v 6.803232 5.539272 0.210751
v 6.817832 5.539327 0.216798
v 6.817832 5.504196 0.217117
v 6.838477 5.504008 0.196471
v 6.832430 5.503876 0.181873
v 6.803232 5.503876 0.181873
v 6.832430 5.504141 0.211070
v 6.817832 5.503822 0.175826
v 6.832430 5.539272 0.210751
v 6.797185 5.539140 0.196152
v 6.838477 5.539140 0.196152
v 6.803232 5.539008 0.181554
v 6.832430 5.539008 0.181554
v 6.817832 5.538952 0.175507
vn 0.000000 0.804956 0.593310
vn -0.579638 0.565447 0.586718
vn -0.551592 0.581896 0.597552
vn 0.000000 0.811396 0.584460
vn -0.839686 -0.038087 0.541673
vn -0.776543 0.030793 0.629292
vn -0.591510 -0.679067 0.434614
vn -0.545946 -0.514695 0.661061
vn 0.000000 -0.921262 0.388897
vn 0.000000 -0.738517 0.674184
vn 0.591510 -0.679067 0.434645
vn 0.545946 -0.514695 0.661061
vn 0.839686 -0.038087 0.541673
vn 0.776543 0.030793 0.629292
vn 0.551622 0.581896 0.597552
vn 0.579638 0.565447 0.586718
vn 0.680288 -0.611225 0.404401
vn 0.885891 0.047090 0.461470
vn -0.885891 0.047090 0.461470
vn -0.913846 -0.021332 -0.405469
vn -0.646168 -0.666646 -0.371471
vn -0.680319 -0.611225 0.404401
vn 0.604175 0.643300 0.470199
vn 0.000000 0.883450 0.468490
vn -0.604175 0.643300 0.470199
vn 0.000000 -0.943358 0.331675
vn -0.614765 -0.639943 -0.460982
vn 0.000000 -0.894223 -0.447554
vn 0.000000 -0.933927 -0.357402
vn 0.646168 -0.666646 -0.371471
vn 0.913846 -0.021332 -0.405469
vn -0.646168 0.623920 -0.439467
vn 0.646199 0.623920 -0.439467
vn 0.000000 0.891201 -0.453536
vn -0.019349 -0.998474 -0.051454
vn 0.675954 -0.736656 0.019807
vn 0.614795 -0.639912 -0.460982
vn 0.869442 -0.025971 -0.493301
vn 0.614795 0.587939 -0.525651
vn -0.869442 -0.025971 -0.493332
vn -0.614795 0.587970 -0.525651
vn 0.000000 0.842250 -0.539048
vn 0.732536 -0.541704 -0.412152
vn 0.991791 0.092257 -0.088290
vn 0.992950 -0.044527 0.109592
vn 0.697012 0.704337 0.134342
vn -0.044618 0.998871 0.015046
vn -0.720603 0.687887 -0.086581
vn -0.705466 -0.702231 -0.095645
vn -0.993561 -0.005493 -0.112980
vn 0.962127 0.182318 -0.202521
vn 0.678579 0.483139 0.553240
vn 0.726585 0.653035 0.213446
vn -0.762596 0.407971 0.501938
vn -0.962340 -0.269234 -0.037049
vn 0.063356 -0.838191 -0.541642
vn 0.145940 0.885495 0.441054
vn -0.587848 -0.692496 -0.418134
vn 0.548967 0.635212 0.543229
vn 0.000000 0.637257 0.770623
vn -0.094058 0.157598 0.983001
vn -0.971160 -0.231117 0.058016
vn -0.701132 -0.305063 -0.644459
vn 0.621265 -0.139836 -0.770989
vn -0.694540 -0.090121 0.713736
vn -0.037996 -0.280160 -0.959166
vn -0.548967 0.635212 0.543229
vn 0.776360 0.630207 -0.005707
vn -0.776360 0.630238 -0.005707
vn 0.548967 0.625233 -0.554674
vn -0.548967 0.625233 -0.554674
vn 0.000000 0.623157 -0.782067
vn 0.000000 0.653218 0.757134
vn 0.000000 -0.653218 0.757134
vn 0.378552 -0.653218 0.655721
vn 0.378552 0.653218 0.655721
vn 0.655721 -0.653218 0.378582
vn 0.655721 0.653218 0.378582
vn 0.757134 -0.653218 0.000000
vn 0.757134 0.653218 0.000000
vn 0.655721 -0.653218 -0.378552
vn 0.655721 0.653218 -0.378552
vn 0.378552 -0.653218 -0.655721
vn 0.378552 0.653218 -0.655721
vn 0.000000 -0.653218 -0.757134
vn 0.000000 0.653218 -0.757134
vn -0.378552 -0.653218 -0.655721
vn -0.378582 0.653218 -0.655721
vn -0.655721 -0.653218 -0.378552
vn -0.655721 0.653218 -0.378582
vn -0.757134 -0.653218 0.000000
vn -0.757134 0.653218 0.000000
vn -0.655721 -0.653218 0.378552
vn -0.655721 0.653218 0.378552
vn -0.378582 -0.653218 0.655690
vn -0.378582 0.653218 0.655690
vn 0.591510 -0.679098 0.434614
vn -0.591510 -0.679098 0.434614
vn -0.551622 0.581896 0.597552
vn 0.913846 -0.021363 -0.405469
vn 0.000000 -0.933927 -0.357372
vn 0.000000 -0.894223 -0.447584
vn 0.614765 -0.639943 -0.460982
vn 0.646168 0.623920 -0.439467
vn -0.646199 0.623920 -0.439467
vn -0.614795 -0.639912 -0.460982
vn -0.675954 -0.736656 0.019807
vn 0.019349 -0.998474 -0.051485
vn -0.614795 0.587939 -0.525651
vn -0.869442 -0.025971 -0.493301
vn 0.869442 -0.025971 -0.493332
vn 0.614765 0.587970 -0.525651
vn -0.992950 -0.044527 0.109622
vn -0.991791 0.092257 -0.088290
vn -0.732536 -0.541704 -0.412152
vn 0.044618 0.998871 0.015046
vn -0.697012 0.704337 0.134342
vn 0.720603 0.687887 -0.086581
vn 0.705466 -0.702231 -0.095645
vn 0.993561 -0.005493 -0.112980
vn -0.726585 0.653035 0.213446
vn -0.678549 0.483139 0.553240
vn -0.962127 0.182318 -0.202521
vn 0.962340 -0.269234 -0.037080
vn 0.762596 0.407971 0.501938
vn -0.063356 -0.838191 -0.541642
vn -0.145940 0.885525 0.441023
vn 0.587848 -0.692496 -0.418134
vn 0.094058 0.157567 0.983001
vn 0.701132 -0.305063 -0.644429
vn 0.971160 -0.231147 0.058016
vn -0.621265 -0.139836 -0.770989
vn 0.694571 -0.090121 0.713736
vn 0.037996 -0.280160 -0.959166
vn 0.548997 0.635212 0.543199
vn -0.776360 0.630207 -0.005707
vn 0.548967 0.625233 -0.554643
usemtl _metal
s 1
f 1//1 2//2 3//3 4//4
f 2//2 5//5 6//6 3//3
f 5//5 7//7 8//8 6//6
f 7//7 9//9 10//10 8//8
f 9//9 11//11 12//12 10//10
f 11//11 13//13 14//14 12//12
f 8//8 10//10 12//12
f 8//8 12//12 14//14
f 6//6 8//8 14//14
f 6//6 14//14 15//15
f 3//3 6//6 15//15
f 3//3 15//15 4//4
f 16//16 1//1 4//4 15//15
f 13//13 16//16 15//15 14//14
f 11//11 17//17 18//18 13//13
f 19//19 20//20 21//21 22//22
f 13//13 18//18 23//23 16//16
f 24//24 1//1 16//16 23//23
f 2//2 25//25 19//19 5//5
f 5//5 19//19 22//22 7//7
f 1//1 24//24 25//25 2//2
f 7//7 22//22 26//26 9//9
f 9//9 26//26 17//17 11//11
f 21//21 27//27 28//28 29//29
f 17//17 30//30 31//31 18//18
f 25//25 32//32 20//20 19//19
f 26//26 29//29 30//30 17//17
f 23//23 33//33 34//34 24//24
f 24//24 34//34 32//32 25//25
f 22//22 21//21 29//29 26//26
f 18//18 31//31 33//33 23//23
f 28//28 35//35 36//36 37//37
f 31//31 38//38 39//39 33//33
f 20//20 40//40 27//27 21//21
f 30//30 37//37 38//38 31//31
f 32//32 41//41 40//40 20//20
f 29//29 28//28 37//37 30//30
f 33//33 39//39 42//42 34//34
f 34//34 42//42 41//41 32//32
f 36//36 43//43 44//44 45//45
f 39//39 46//46 47//47 42//42
f 42//42 47//47 48//48 41//41
f 27//27 49//49 35//35 28//28
f 38//38 45//45 46//46 39//39
f 40//40 50//50 49//49 27//27
f 37//37 36//36 45//45 38//38
f 41//41 48//48 50//50 40//40
f 44//44 51//51 52//52 53//53
f 48//48 54//54 55//55 50//50
f 35//35 56//56 43//43 36//36
f 46//46 53//53 57//57 47//47
f 47//47 57//57 54//54 48//48
f 49//49 58//58 56//56 35//35
f 45//45 44//44 53//53 46//46
f 50//50 55//55 58//58 49//49
f 52//52 59//59 60//60 61//61
f 55//55 62//62 63//63 58//58
f 43//43 64//64 51//51 44//44
f 54//54 65//65 62//62 55//55
f 56//56 66//66 64//64 43//43
f 53//53 52//52 61//61 57//57
f 57//57 61//61 65//65 54//54
f 58//58 63//63 66//66 56//56
f 60//60 59//59 67//67
f 59//59 68//68 67//67
f 68//68 69//69 67//67
f 68//68 70//70 69//69
f 70//70 71//71 69//69
f 70//70 72//72 71//71
f 61//61 60//60 67//67 65//65
f 63//63 71//71 72//72 66//66
f 51//51 68//68 59//59 52//52
f 62//62 69//69 71//71 63//63
f 64//64 70//70 68//68 51//51
f 65//65 67//67 69//69 62//62
f 66//66 72//72 70//70 64//64
f 73//73 76//74 75//75 74//76
f 74//76 75//75 78//77 77//78
f 77//78 78//77 80//79 79//80
f 79//80 80//79 82//81 81//82
f 81//82 82//81 84//83 83//84
f 83//84 84//83 86//85 85//86
f 85//86 86//85 88//87 87//88
f 87//88 88//87 90//89 89//90
f 89//90 90//89 92//91 91//92
f 91//92 92//91 94//93 93//94
f 75//75 76//74 95//95
f 75//75 95//95 78//77
f 78//77 95//95 94//93
f 78//77 94//93 80//79
f 80//79 94//93 92//91
f 80//79 92//91 82//81
f 82//81 92//91 90//89
f 82//81 90//89 84//83
f 84//83 90//89 88//87
f 84//83 88//87 86//85
f 96//96 95//95 76//74 73//73
f 93//94 94//93 95//95 96//96
f 73//73 74//76 96//96
f 96//96 74//76 77//78
f 96//96 77//78 93//94
f 93//94 77//78 79//80
f 93//94 79//80 91//92
f 91//92 79//80 81//82
f 91//92 81//82 89//90
f 89//90 81//82 83//84
f 89//90 83//84 87//88
f 87//88 83//84 85//86
f 97//1 100//4 99//15 98//16
f 98//16 99//15 102//14 101//13
f 101//13 102//14 104//12 103//97
f 103//97 104//12 106//10 105//9
f 105//9 106//10 108//8 107//98
f 107//98 108//8 110//6 109//5
f 104//12 108//8 106//10
f 104//12 110//6 108//8
f 102//14 110//6 104//12
f 102//14 111//99 110//6
f 99//15 111//99 102//14
f 99//15 100//4 111//99
f 112//2 111//99 100//4 97//1
f 109//5 110//6 111//99 112//2
f 107//98 109//5 114//19 113//22
f 115//18 118//17 117//30 116//100
f 109//5 112//2 119//25 114//19
f 112//2 97//1 120//24 119//25
f 98//16 101//13 115//18 121//23
f 101//13 103//97 118//17 115//18
f 97//1 98//16 121//23 120//24
f 103//97 105//9 122//26 118//17
f 105//9 107//98 113//22 122//26
f 117//30 125//101 124//102 123//103
f 113//22 114//19 127//20 126//21
f 121//23 115//18 116//100 128//104
f 122//26 113//22 126//21 125//101
f 119//25 120//24 130//34 129//105
f 120//24 121//23 128//104 130//34
f 118//17 122//26 125//101 117//30
f 114//19 119//25 129//105 127//20
f 124//102 133//106 132//107 131//108
f 127//20 129//105 135//109 134//110
f 116//100 117//30 123//103 136//111
f 126//21 127//20 134//110 133//106
f 128//104 116//100 136//111 137//112
f 125//101 126//21 133//106 124//102
f 129//105 130//34 138//42 135//109
f 130//34 128//104 137//112 138//42
f 132//107 141//113 140//114 139//115
f 135//109 138//42 143//116 142//117
f 138//42 137//112 144//118 143//116
f 123//103 124//102 131//108 145//119
f 134//110 135//109 142//117 141//113
f 136//111 123//103 145//119 146//120
f 133//106 134//110 141//113 132//107
f 137//112 136//111 146//120 144//118
f 140//114 149//121 148//122 147//123
f 144//118 146//120 151//124 150//125
f 131//108 132//107 139//115 152//126
f 142//117 143//116 153//127 149//121
f 143//116 144//118 150//125 153//127
f 145//119 131//108 152//126 154//128
f 141//113 142//117 149//121 140//114
f 146//120 145//119 154//128 151//124
f 148//122 157//129 156//60 155//67
f 151//124 154//128 159//130 158//131
f 139//115 140//114 147//123 160//132
f 150//125 151//124 158//131 161//133
f 152//126 139//115 160//132 162//134
f 149//121 153//127 157//129 148//122
f 153//127 150//125 161//133 157//129
f 154//128 152//126 162//134 159//130
f 156//60 163//135 155//67
f 155//67 163//135 164//136
f 164//136 163//135 165//68
f 164//136 165//68 166//71
f 166//71 165//68 167//137
f 166//71 167//137 168//72
f 157//129 161//133 163//135 156//60
f 159//130 162//134 168//72 167//137
f 147//123 148//122 155//67 164//136
f 158//131 159//130 167//137 165//68
f 160//132 147//123 164//136 166//71
f 161//133 158//131 165//68 163//135
f 162//134 160//132 166//71 168//72
