# RokuSuper Output Ver2.0 for Wavefront Obj

v 6.94222500 6.03697400 0.68352000
v 6.80503700 6.03697400 0.68352000
v 6.80265400 6.01715200 0.45409300
v 6.49198500 5.95507300 0.68352000
v 6.62916600 5.95507300 0.68352000
v 6.57750400 5.93525100 0.45409300
v 6.33483200 5.89609700 1.30847600
v 6.41247600 5.89609700 1.30847600
v 6.52173200 5.89785500 1.15313900
v 6.37145400 5.89785500 1.15313900
v 6.33593900 5.93206500 1.30847600
v 6.37359700 5.96747100 1.15313900
v 6.41206900 5.93206500 1.30847600
v 6.52094400 5.96747100 1.15313900
v 7.28411700 5.17941000 1.43607400
v 7.42037900 5.17941000 1.43607500
v 6.94222500 5.95507300 0.68352000
v 6.80596400 5.95507300 0.68352000
v 7.28318900 5.26131100 1.43607400
v 7.42037900 5.26131100 1.43607500
v 6.24667200 5.18011100 1.43500200
v 6.38385200 5.18011100 1.43500200
v 6.24667200 5.26201200 1.43500200
v 6.49198500 6.03697400 0.68352000
v 6.38637300 5.26201200 1.43500200
v 6.63168600 6.03697400 0.68352000
v 6.80265400 5.93525100 0.45409300
v 6.57750400 6.01715200 0.45409300
v 6.58474600 5.89565600 0.30053900
v 6.54542100 5.91055700 0.39430100
v 6.58474600 5.92545700 0.48806300
v 6.77462300 5.89565600 0.30053900
v 6.67968400 5.88948400 0.26170100
v 6.77462300 5.92545700 0.48806300
v 6.67968400 5.93163000 0.52690000
v 6.67968400 6.04439200 0.50898000
v 6.77462300 6.03821900 0.47014200
v 6.81394800 5.91055700 0.39430100
v 6.81394800 6.02331900 0.37638000
v 6.77462300 6.00841900 0.28261800
v 6.67968400 6.00224600 0.24378100
v 6.58474600 6.00841900 0.28261800
v 6.54542100 6.02331900 0.37638000
v 6.58474600 6.03821900 0.47014200
v 6.67968400 6.07014700 0.67104500
v 6.89065900 6.05643100 0.58474000
v 6.97804700 6.02331900 0.37638000
v 6.89065900 5.99020700 0.16802100
v 6.67968400 5.97649100 0.08171500
v 6.46871000 5.99020700 0.16802100
v 6.38132200 6.02331900 0.37638000
v 6.46871000 6.05643100 0.58474000
v 6.67968400 6.19758400 0.04657900
v 6.89065900 6.21129900 0.13288500
v 6.46871000 6.21129900 0.13288500
v 6.67968400 6.29124000 0.63591000
v 6.46871000 6.27752400 0.54960400
v 6.97804700 6.24441200 0.34124400
v 6.89065900 6.27752400 0.54960400
v 6.38132200 6.24441200 0.34124400

vn 0.00000000 0.98424775 0.17679468
vn -0.00000191 0.87070664 0.49180276
vn 0.00000000 0.99628847 -0.08607718
vn 0.00000000 0.97092969 0.23936486
vn 0.00000000 -0.98609720 -0.16616954
vn 0.00000000 -0.87061730 -0.49196089
vn 0.00000000 -0.99628847 0.08607718
vn 0.00000115 -0.95347441 -0.30147398
vn 0.00000000 -0.99993597 -0.01131660
vn 0.00000000 -0.99993597 -0.01131660
vn 0.00000000 -0.99885100 -0.04792366
vn 0.00000000 -0.99642216 -0.08451550
vn -0.97295512 0.02994781 -0.22904466
vn -0.97295492 0.02994498 -0.22904591
vn -0.94875602 0.02920381 -0.31465719
vn -0.91676223 0.02821662 -0.39843548
vn 0.00000000 0.97499412 0.22223065
vn 0.00000000 0.97499412 0.22223065
vn 0.00000000 0.98038631 0.19708548
vn 0.00000000 0.98513304 0.17179320
vn 0.60534938 0.00685100 0.79593039
vn 0.30267462 0.00342495 0.95308780
vn 0.83064543 0.00940128 0.55672236
vn 0.84301417 0.00954208 0.53780671
vn 0.00000000 -0.99642216 -0.08451550
vn 0.00000000 -0.99885100 -0.04792366
vn 0.00000000 -0.98609720 -0.16616954
vn 0.00000115 -0.95347441 -0.30147398
vn -0.91676223 0.02821662 -0.39843548
vn -0.94875602 0.02920381 -0.31465719
vn -0.87773650 0.02701322 -0.47838157
vn -0.87773587 0.02700693 -0.47838308
vn 0.00000000 0.98513304 0.17179320
vn 0.00000000 0.98038631 0.19708548
vn 0.00000000 0.98424775 0.17679468
vn 0.00000000 0.97092969 0.23936486
vn 0.84301417 0.00954208 0.53780671
vn 0.83064543 0.00940128 0.55672236
vn 0.85494622 0.00967704 0.51862637
vn 0.85494622 0.00967675 0.51862638
vn 0.00000263 -0.69633403 -0.71771786
vn 0.00000527 -0.69633295 -0.71771890
vn 0.00000115 -0.95347441 -0.30147398
vn 0.00000000 -0.98003158 -0.19884192
vn -0.63609128 -0.00720351 0.77158019
vn -0.19806657 0.32285720 0.92549061
vn -0.84845428 -0.00960845 0.52918145
vn -0.84845167 -0.00960324 0.52918573
vn -0.19806657 0.32285720 0.92549061
vn -0.00000676 0.37568709 0.92674657
vn -0.00000191 0.87070664 0.49180276
vn 0.00000000 0.98424775 0.17679468
vn 0.84403956 0.00000000 -0.53628092
vn 0.84403956 0.00000000 -0.53628092
vn 0.84750588 0.00000000 -0.53078601
vn 0.85093657 0.00000000 -0.52526846
vn 0.00000000 -0.69614760 -0.71789868
vn 0.00000000 -0.69614760 -0.71789868
vn 0.00000000 -0.87061730 -0.49196089
vn 0.00000000 -0.98609720 -0.16616954
vn -0.95063116 0.00000000 -0.31032304
vn -0.95063116 0.00000000 -0.31032304
vn -0.94627325 0.00000000 -0.32336810
vn -0.94173547 0.00000000 -0.33635444
vn 0.00000000 0.37556712 0.92679520
vn 0.00000000 0.37556712 0.92679520
vn 0.00000000 0.97092969 0.23936486
vn 0.00000000 0.93684538 0.34974382
vn 0.95879568 -0.02950690 0.28256006
vn 0.95879698 -0.02951279 0.28255504
vn 0.95879568 -0.02950690 0.28256006
vn 0.95879438 -0.02950101 0.28256508
vn 0.00000000 0.00000000 1.00000000
vn 0.00000000 0.00000000 1.00000000
vn 0.30267462 0.00342495 0.95308780
vn 0.60534938 0.00685100 0.79593039
vn -0.19806657 0.32285720 0.92549061
vn -0.63609128 -0.00720351 0.77158019
vn -0.00000731 -0.00000004 1.00000000
vn -0.00000676 0.37568709 0.92674657
vn 0.00000000 -0.98003158 -0.19884192
vn 0.00000115 -0.95347441 -0.30147398
vn 0.00000000 -0.99628847 0.08607718
vn 0.00000000 -0.99628847 0.08607718
vn 0.00000000 0.97092969 0.23936486
vn 0.00000000 0.99628847 -0.08607718
vn 0.00000000 0.99628847 -0.08607718
vn 0.00000000 0.93684538 0.34974382
vn 0.32110191 0.00000000 -0.94704465
vn 0.64220382 0.00000000 -0.76653392
vn 0.00000000 0.00000000 -1.00000000
vn 0.00000000 0.00000000 -1.00000000
vn -0.93702038 0.00000000 -0.34927470
vn -0.93702038 0.00000000 -0.34927470
vn -0.94173547 0.00000000 -0.33635444
vn -0.94627325 0.00000000 -0.32336810
vn 0.00000000 0.37556712 0.92679520
vn 0.00000000 0.00000000 1.00000000
vn 0.00000000 0.00000000 1.00000000
vn 0.00000000 0.37556712 0.92679520
vn 0.85093657 0.00000000 -0.52526846
vn 0.84750588 0.00000000 -0.53078601
vn 0.64220382 0.00000000 -0.76653392
vn 0.32110191 0.00000000 -0.94704465
vn 0.00000000 -0.98760674 0.15694881
vn 0.00000072 -0.98760620 0.15695223
vn -0.00000193 -0.98760654 0.15695004
vn 0.00000337 -0.98760628 0.15695171
vn -0.00000102 -0.98760608 0.15695294
vn -0.00000348 -0.98760570 0.15695537
vn -0.00000193 -0.98760654 0.15695004
vn 0.00000072 -0.98760620 0.15695223
vn 0.13677386 0.15547711 0.97832499
vn 0.79717370 0.09476327 0.59626673
vn 0.60374767 0.12512009 0.78729519
vn -0.13677484 0.15547709 0.97832485
vn 0.79717370 0.09476327 0.59626673
vn 0.99060227 -0.02146757 -0.13507880
vn 0.99060224 0.02146778 0.13507897
vn 0.60374767 0.12512009 0.78729519
vn 0.99060227 -0.02146757 -0.13507880
vn 0.60374742 -0.12511948 -0.78729548
vn 0.79717382 -0.09476261 -0.59626667
vn 0.99060224 0.02146778 0.13507897
vn 0.60374742 -0.12511948 -0.78729548
vn -0.13677478 -0.15547664 -0.97832493
vn 0.13677338 -0.15547667 -0.97832512
vn 0.79717382 -0.09476261 -0.59626667
vn -0.13677478 -0.15547664 -0.97832493
vn -0.79717591 -0.09476218 -0.59626396
vn -0.60374933 -0.12511925 -0.78729405
vn 0.13677338 -0.15547667 -0.97832512
vn -0.79717591 -0.09476218 -0.59626396
vn -0.99060222 0.02146781 0.13507915
vn -0.99060227 -0.02146757 -0.13507880
vn -0.60374933 -0.12511925 -0.78729405
vn -0.99060222 0.02146781 0.13507915
vn -0.60374972 0.12511984 0.78729366
vn -0.79717605 0.09476279 0.59626367
vn -0.99060227 -0.02146757 -0.13507880
vn -0.60374972 0.12511984 0.78729366
vn 0.13677386 0.15547711 0.97832499
vn -0.13677484 0.15547709 0.97832485
vn -0.79717605 0.09476279 0.59626367
vn 0.00000031 -0.98760636 0.15695122
vn -0.00000125 -0.98760657 0.15694988
vn -0.00000219 -0.98760633 0.15695140
vn 0.00000274 -0.98760662 0.15694957
vn -0.00000125 -0.98760657 0.15694988
vn -0.00000210 -0.98760716 0.15694615
vn 0.00000080 -0.98760703 0.15694698
vn -0.00000219 -0.98760633 0.15695140
vn -0.00000210 -0.98760716 0.15694615
vn 0.00000196 -0.98760675 0.15694874
vn -0.00000203 -0.98760668 0.15694915
vn 0.00000080 -0.98760703 0.15694698
vn 0.00000196 -0.98760675 0.15694874
vn 0.00000085 -0.98760634 0.15695129
vn 0.00000323 -0.98760670 0.15694909
vn -0.00000203 -0.98760668 0.15694915
vn 0.00000085 -0.98760634 0.15695129
vn -0.00000136 -0.98760641 0.15695089
vn -0.00000219 -0.98760622 0.15695209
vn 0.00000323 -0.98760670 0.15694909
vn -0.00000136 -0.98760641 0.15695089
vn -0.00000178 -0.98760722 0.15694577
vn 0.00000095 -0.98760702 0.15694704
vn -0.00000219 -0.98760622 0.15695209
vn -0.00000178 -0.98760722 0.15694577
vn 0.00000190 -0.98760674 0.15694879
vn -0.00000140 -0.98760677 0.15694864
vn 0.00000095 -0.98760702 0.15694704
vn 0.00000190 -0.98760674 0.15694879
vn 0.00000031 -0.98760636 0.15695122
vn 0.00000274 -0.98760662 0.15694957
vn -0.00000140 -0.98760677 0.15694864
vn 0.00000000 0.98760693 -0.15694760
vn 0.00000000 0.98760781 -0.15694206
vn 0.00000136 0.98760670 -0.15694903
vn -0.00000037 0.98760648 -0.15695046
vn 0.00000136 0.98760647 -0.15695048
vn 0.00000000 0.98760604 -0.15695322
vn 0.00000000 0.98760647 -0.15695050
vn -0.00000037 0.98760648 -0.15695046
vn -0.00000193 -0.98760654 0.15695004
vn -0.00001628 -0.98760861 0.15693701
vn -0.00000477 -0.98760681 0.15694838
vn 0.00000337 -0.98760628 0.15695171
vn 0.00000136 0.98760670 -0.15694903
vn 0.00000655 0.98760648 -0.15695046
vn 0.00000136 0.98760647 -0.15695048
vn -0.00000037 0.98760648 -0.15695046
vn -0.60374930 0.12511505 0.78729474
vn 0.13677358 0.15547215 0.97832581
vn -0.13677402 0.15547214 0.97832575
vn -0.79717673 0.09475793 0.59626353
vn 0.13677358 0.15547215 0.97832581
vn 0.79717568 0.09475815 0.59626490
vn 0.60374838 0.12511516 0.78729543
vn -0.13677402 0.15547214 0.97832575
vn 0.79717568 0.09475815 0.59626490
vn 0.99060230 -0.02146675 -0.13507872
vn 0.99060250 0.02146642 0.13507728
vn 0.60374838 0.12511516 0.78729543
vn 0.99060230 -0.02146675 -0.13507872
vn 0.60374889 -0.12511686 -0.78729476
vn 0.79717567 -0.09475848 -0.59626487
vn 0.99060250 0.02146642 0.13507728
vn 0.60374889 -0.12511686 -0.78729476
vn -0.13677517 -0.15547522 -0.97832510
vn 0.13677370 -0.15547525 -0.97832530
vn 0.79717567 -0.09475848 -0.59626487
vn -0.13677517 -0.15547522 -0.97832510
vn -0.79717610 -0.09475839 -0.59626430
vn -0.60374988 -0.12511674 -0.78729402
vn 0.13677370 -0.15547525 -0.97832530
vn -0.79717610 -0.09475839 -0.59626430
vn -0.99060251 0.02146641 0.13507720
vn -0.99060230 -0.02146675 -0.13507872
vn -0.60374988 -0.12511674 -0.78729402
vn -0.99060251 0.02146641 0.13507720
vn -0.60374930 0.12511505 0.78729474
vn -0.79717673 0.09475793 0.59626353
vn -0.99060230 -0.02146675 -0.13507872

g ²ã
f 2//1 1//2 3//3 26//4
f 5//5 4//6 6//7 18//8
f 8//9 7//10 10//11 9//12
f 7//13 11//14 12//15 10//16
f 11//17 13//18 14//19 12//20
f 13//21 8//22 9//23 14//24
f 9//25 10//26 5//27 18//28
f 10//29 12//30 26//31 5//32
f 12//33 14//34 2//35 26//36
f 14//37 9//38 18//39 2//40
f 16//41 15//42 18//43 17//44
f 15//45 19//46 2//47 18//48
f 19//49 20//50 1//51 2//52
f 20//53 16//54 17//55 1//56
f 22//57 21//58 4//59 5//60
f 21//61 23//62 24//63 4//64
f 23//65 25//66 26//67 24//68
f 25//69 22//70 5//71 26//72
f 11//73 7//74 8//75 13//76
f 19//77 15//78 16//79 20//80
f 17//81 18//82 6//83 27//84
f 26//85 3//86 28//87 24//88
f 3//89 27//90 6//91 28//92
f 28//93 6//94 4//95 24//96
f 23//97 21//98 22//99 25//100
f 1//101 17//102 27//103 3//104
f 30//105 29//106 38//107 31//108
f 33//109 32//110 38//111 29//112
f 35//113 34//114 37//115 36//116
f 34//117 38//118 39//119 37//120
f 38//121 32//122 40//123 39//124
f 32//125 33//126 41//127 40//128
f 33//129 29//130 42//131 41//132
f 29//133 30//134 43//135 42//136
f 30//137 31//138 44//139 43//140
f 31//141 35//142 36//143 44//144
f 36//145 37//146 46//147 45//148
f 37//149 39//150 47//151 46//152
f 39//153 40//154 48//155 47//156
f 40//157 41//158 49//159 48//160
f 41//161 42//162 50//163 49//164
f 42//165 43//166 51//167 50//168
f 43//169 44//170 52//171 51//172
f 44//173 36//174 45//175 52//176
f 54//177 53//178 55//179 58//180
f 57//181 56//182 59//183 58//184
f 38//185 34//186 35//187 31//188
f 55//189 60//190 57//191 58//192
f 52//193 45//194 56//195 57//196
f 45//197 46//198 59//199 56//200
f 46//201 47//202 58//203 59//204
f 47//205 48//206 54//207 58//208
f 48//209 49//210 53//211 54//212
f 49//213 50//214 55//215 53//216
f 50//217 51//218 60//219 55//220
f 51//221 52//222 57//223 60//224

