# Blender v2.63 (sub 13) OBJ File: 'TBF_leg_L_output.blend'
# www.blender.org
mtllib TBF_leg_L_output.mtl
o Cylinder_Cylinder.005
v 5.707935 5.942194 0.292059
v 5.707935 6.059184 0.292059
v 5.788205 5.942194 0.098270
v 5.788205 6.059184 0.098270
v 5.981994 5.942194 0.018000
v 5.981994 6.059184 0.018000
v 6.175783 5.942194 0.098270
v 6.175783 6.059184 0.098270
v 6.256053 5.942194 0.292059
v 6.256053 6.059184 0.292059
v 6.175783 5.942194 0.485848
v 6.175783 6.059184 0.485848
v 5.981994 5.942194 0.566118
v 5.981994 6.059184 0.566118
v 5.788205 5.942194 0.485848
v 5.788205 6.059184 0.485848
v 5.893083 6.059184 0.203148
v 5.856255 6.059184 0.292059
v 5.981994 6.059184 0.166319
v 6.070905 6.059184 0.203148
v 6.107733 6.059184 0.292059
v 6.070905 6.059184 0.380970
v 5.981994 6.059184 0.417798
v 5.893083 6.059184 0.380970
v 5.893083 6.086839 0.203148
v 5.856255 6.086839 0.292059
v 5.981994 6.086839 0.166319
v 6.070905 6.086839 0.203148
v 6.107733 6.086839 0.292059
v 6.070905 6.086839 0.380970
v 5.981994 6.086839 0.417798
v 5.893083 6.086839 0.380970
v 5.856255 5.942194 0.292059
v 5.893083 5.942194 0.203148
v 5.981994 5.942194 0.166319
v 6.070905 5.942194 0.203148
v 6.107733 5.942194 0.292059
v 6.070905 5.942194 0.380970
v 5.981994 5.942194 0.417798
v 5.893083 5.942194 0.380970
v 5.856255 5.914538 0.292059
v 5.893083 5.914538 0.203148
v 5.981994 5.914538 0.166319
v 6.070905 5.914538 0.203148
v 6.107733 5.914538 0.292059
v 6.070905 5.914538 0.380970
v 5.981994 5.914538 0.417798
v 5.893083 5.914538 0.380970
v 6.052902 5.865097 0.457142
v 5.911087 5.865097 0.457142
v 5.911087 5.904983 0.464188
v 6.052902 5.904983 0.464188
v 6.052902 5.781423 0.930819
v 5.911087 5.781423 0.930819
v 5.911087 5.821310 0.937865
v 6.052902 5.821310 0.937865
v 6.044976 5.745639 1.020996
v 5.785353 5.745639 1.020996
v 5.785353 5.785526 1.028042
v 6.044976 5.785526 1.028042
v 6.044976 5.676954 1.409826
v 5.785353 5.676954 1.409826
v 5.785353 5.716840 1.416872
v 6.044976 5.716840 1.416872
v 5.939148 5.989535 0.284242
v 5.951501 5.788627 1.424356
v 5.951697 6.019375 0.289488
v 5.960433 5.809864 1.428089
v 5.981995 6.031735 0.291661
v 5.981995 5.818660 1.429635
v 6.012291 6.019375 0.289488
v 6.003557 5.809864 1.428089
v 6.024841 5.989535 0.284242
v 6.012488 5.788627 1.424356
v 6.012291 5.959696 0.278997
v 6.003557 5.767391 1.420622
v 5.981995 5.947336 0.276824
v 5.981995 5.758594 1.419076
v 5.951697 5.959696 0.278997
v 5.960433 5.767391 1.420622
v 5.951501 5.848157 1.056863
v 5.960433 5.869393 1.060597
v 5.981995 5.878190 1.062143
v 6.003557 5.869393 1.060597
v 6.012488 5.848157 1.056863
v 6.003557 5.826921 1.053130
v 5.981995 5.818124 1.051584
v 5.960433 5.826921 1.053130
v 6.024841 5.852180 1.036714
v 6.012291 5.882020 1.041960
v 5.981995 5.894379 1.044132
v 5.951697 5.882020 1.041960
v 5.939148 5.852180 1.036714
v 5.951697 5.822340 1.031468
v 5.981995 5.809981 1.029295
v 6.012291 5.822340 1.031468
vn -0.923878 0.000000 0.382686
vn 0.382684 0.000000 -0.923879
vn 0.000000 1.000000 0.000000
vn 0.000005 1.000000 0.000000
vn -0.923878 0.000000 -0.382686
vn 0.923880 0.000000 -0.382682
vn -0.382684 0.000000 0.923879
vn 0.382684 0.000000 0.923879
vn -0.382684 0.000000 -0.923879
vn 0.923880 0.000000 0.382682
vn -0.000000 -1.000000 -0.000000
vn 0.000000 -0.984754 -0.173954
vn -1.000000 0.000000 0.000000
vn -0.000000 0.984754 0.173954
vn 1.000000 0.000000 0.000000
vn 0.000000 0.173952 -0.984754
vn 0.996540 -0.014459 0.081852
vn -0.000000 0.929493 0.368839
vn 0.000000 -0.929493 -0.368839
vn -0.602946 0.138776 -0.785619
vn -0.000000 -0.173953 0.984754
vn -0.923862 0.377800 0.061200
vn -0.382654 0.912003 0.147735
vn 0.382654 0.912003 0.147735
vn 0.923870 0.377783 0.061197
vn 0.923870 -0.377783 -0.061197
vn 0.382655 -0.912003 -0.147735
vn 0.000000 -0.173133 0.984899
vn 0.000000 -0.173141 0.984897
vn -0.000002 -0.173146 0.984896
vn 0.000000 -0.173137 0.984898
vn -0.923862 -0.377800 -0.061200
vn -0.382655 -0.912003 -0.147735
vn 0.000000 0.173139 -0.984897
vn 0.000000 0.173138 -0.984898
vn 0.000000 0.173146 -0.984896
vn 0.000000 0.173134 -0.984898
vn -0.804571 0.243132 0.541805
vn -0.331477 0.701663 0.630708
vn 0.804578 0.243126 0.541796
vn 0.810627 -0.413760 0.414351
vn 0.337523 -0.884152 0.323038
vn -0.810620 -0.413767 0.414357
vn -0.337520 -0.884152 0.323041
vn -0.923876 -0.376470 -0.068721
vn 0.923876 -0.376470 -0.068721
vn -0.923877 0.376468 0.068720
vn 0.382677 0.908864 0.165903
vn 0.382677 -0.908864 -0.165903
vn 0.923877 0.376468 0.068720
vn -0.382672 0.908866 0.165904
vn -0.382672 -0.908866 -0.165904
vn 0.331480 0.701664 0.630705
vn -0.923879 0.000000 -0.382684
vn -0.382684 0.000000 -0.923880
vn 0.382684 0.000000 -0.923880
vn 0.923880 0.000000 0.382683
vn 0.382684 0.000000 0.923880
vn -0.923879 0.000000 0.382684
vn -0.382684 0.000000 0.923880
usemtl _metal
s off
f 18//1 24//1 32//1 26//1
f 35//2 36//2 44//2 43//2
f 25//3 26//3 32//3
f 25//3 32//3 27//3
f 32//3 31//3 27//3
f 31//4 30//4 27//4
f 30//4 28//4 27//4
f 30//3 29//3 28//3
f 17//5 18//5 26//5 25//5
f 21//6 20//6 28//6 29//6
f 24//7 23//7 31//7 32//7
f 20//2 19//2 27//2 28//2
f 23//8 22//8 30//8 31//8
f 19//9 17//9 25//9 27//9
f 22//10 21//10 29//10 30//10
f 41//11 42//11 48//11
f 42//11 43//11 48//11
f 43//11 47//11 48//11
f 43//11 46//11 47//11
f 43//11 44//11 46//11
f 44//11 45//11 46//11
f 38//8 39//8 47//8 46//8
f 34//9 35//9 43//9 42//9
f 37//10 38//10 46//10 45//10
f 40//1 33//1 41//1 48//1
f 33//5 34//5 42//5 41//5
f 36//6 37//6 45//6 44//6
f 39//7 40//7 48//7 47//7
f 53//12 54//12 50//12 49//12
f 54//13 55//13 51//13 50//13
f 55//14 56//14 52//14 51//14
f 56//15 53//15 49//15 52//15
f 49//16 50//16 51//16 52//16
f 60//17 57//17 53//17 56//17
f 63//14 64//14 60//14 59//14
f 59//18 60//18 56//18 55//18
f 57//19 58//19 54//19 53//19
f 58//20 59//20 55//20 54//20
f 64//21 63//21 62//21 61//21
f 64//15 61//15 57//15 60//15
f 61//12 62//12 58//12 57//12
f 62//13 63//13 59//13 58//13
f 81//22 66//22 68//22 82//22
f 82//23 68//23 70//23 83//23
f 83//24 70//24 72//24 84//24
f 84//25 72//25 74//25 85//25
f 85//26 74//26 76//26 86//26
f 86//27 76//27 78//27 87//27
f 68//28 72//28 70//28
f 68//29 74//29 72//29
f 68//30 66//30 74//30
f 66//30 76//30 74//30
f 66//29 80//29 76//29
f 80//31 78//31 76//31
f 88//32 80//32 66//32 81//32
f 87//33 78//33 80//33 88//33
f 67//34 69//34 71//34
f 67//35 71//35 73//35
f 65//35 67//35 73//35
f 65//36 73//36 75//36
f 65//36 75//36 79//36
f 75//37 77//37 79//37
f 93//38 81//38 82//38 92//38
f 92//39 82//39 83//39 91//39
f 90//40 84//40 85//40 89//40
f 89//41 85//41 86//41 96//41
f 96//42 86//42 87//42 95//42
f 94//43 88//43 81//43 93//43
f 95//44 87//44 88//44 94//44
f 79//45 94//45 93//45 65//45
f 73//46 89//46 96//46 75//46
f 65//47 93//47 92//47 67//47
f 69//48 91//48 90//48 71//48
f 75//49 96//49 95//49 77//49
f 71//50 90//50 89//50 73//50
f 67//51 92//51 91//51 69//51
f 77//52 95//52 94//52 79//52
f 91//53 83//53 84//53 90//53
usemtl Material.001
f 1//54 2//54 4//54 3//54
f 3//55 4//55 6//55 5//55
f 5//56 6//56 8//56 7//56
f 7//6 8//6 10//6 9//6
f 9//57 10//57 12//57 11//57
f 11//58 12//58 14//58 13//58
f 2//59 1//59 15//59 16//59
f 13//60 14//60 16//60 15//60
f 18//3 17//3 4//3 2//3
f 17//3 19//3 6//3 4//3
f 19//3 20//3 8//3 6//3
f 20//3 21//3 10//3 8//3
f 21//3 22//3 12//3 10//3
f 22//3 23//3 14//3 12//3
f 23//3 24//3 16//3 14//3
f 24//3 18//3 2//3 16//3
f 1//11 3//11 34//11 33//11
f 35//11 34//11 3//11 5//11
f 36//11 35//11 5//11 7//11
f 37//11 36//11 7//11 9//11
f 38//11 37//11 9//11 11//11
f 39//11 38//11 11//11 13//11
f 40//11 39//11 13//11 15//11
f 15//11 1//11 33//11 40//11
