# Blender v2.63 (sub 13) OBJ File: 'TBF_propeller_output.blend'
# www.blender.org
mtllib TBF_propeller_output.mtl
o Cylinder.004
v 8.163918 4.217873 1.929740
v 8.163918 4.196131 1.897708
v 8.202300 4.024239 1.996581
v 8.202300 4.050865 2.035810
v 8.163918 4.232666 1.835598
v 8.202300 4.068981 1.920519
v 8.163918 4.289294 1.921455
v 8.202300 4.138332 2.025663
v 8.163918 4.453701 1.846559
v 8.202298 4.339672 1.933942
v 8.163918 4.663775 1.727822
v 8.202298 4.596940 1.788528
v 8.202298 4.981725 1.493230
v 8.163918 4.977974 1.486691
v 8.202300 4.930271 1.437302
v 8.163918 4.935960 1.441023
v 8.163918 4.570612 1.607256
v 8.202300 4.482848 1.640879
v 8.163918 4.382458 1.725995
v 8.202300 4.252425 1.786292
v 8.163918 5.897964 1.861670
v 8.163918 5.881093 1.896516
v 8.202300 6.052665 1.995941
v 8.202300 6.073326 1.953269
v 8.163918 5.809038 1.895930
v 8.202300 5.964422 1.995224
v 8.163918 5.855077 1.803960
v 8.202300 6.020805 1.882593
v 8.163918 5.708012 1.699028
v 8.202298 5.840701 1.754089
v 8.163918 5.500144 1.576467
v 8.202298 5.586136 1.603994
v 8.202298 5.138007 1.418412
v 8.163918 5.134220 1.424928
v 8.202300 5.115299 1.490936
v 8.163918 5.115678 1.484148
v 8.163918 5.442313 1.717431
v 8.202300 5.515314 1.776626
v 8.163918 5.639220 1.821008
v 8.202300 5.756457 1.903472
v 8.105832 5.018069 1.360018
v 7.833038 5.018069 1.360018
v 7.833039 5.037845 1.355854
v 8.105832 5.037845 1.355855
v 8.105831 5.000322 1.371877
v 7.833038 5.000322 1.371877
v 8.105831 4.988463 1.389625
v 7.833038 4.988463 1.389625
v 8.105831 4.984299 1.410560
v 7.833038 4.984299 1.410560
v 8.105831 4.988463 1.431495
v 7.833038 4.988463 1.431495
v 8.105831 5.000322 1.449242
v 7.833038 5.000322 1.449242
v 8.105832 5.018069 1.461101
v 7.833038 5.018069 1.461101
v 8.105832 5.037845 1.465265
v 7.833039 5.037845 1.465265
v 8.132984 4.963823 1.485740
v 8.132984 4.998316 1.508787
v 8.132984 4.932683 1.410560
v 8.132984 4.940776 1.451247
v 8.132984 4.963823 1.335379
v 8.132984 4.940776 1.369873
v 8.132985 5.037845 1.304239
v 8.132984 4.998316 1.312333
v 8.132985 5.037845 1.516880
v 8.234805 4.940776 1.369873
v 8.234805 4.963823 1.335379
v 8.250644 4.948035 1.319590
v 8.250644 4.920146 1.361328
v 8.234805 4.932683 1.410560
v 8.234805 4.940776 1.451247
v 8.234805 4.963823 1.485740
v 8.234805 4.998316 1.508787
v 8.234805 5.037845 1.304239
v 8.234805 4.998316 1.312333
v 8.234805 5.037845 1.516880
v 8.250644 5.037845 1.539209
v 8.250644 4.989771 1.529417
v 8.352465 5.006680 1.488598
v 8.352465 5.037845 1.495027
v 8.250644 4.910353 1.410560
v 8.250644 4.920146 1.459791
v 8.250644 4.948035 1.501529
v 8.250644 5.037845 1.281910
v 8.250644 4.989771 1.291703
v 8.352465 4.979276 1.470287
v 8.449760 5.027225 1.422338
v 8.449760 5.032629 1.425950
v 8.352465 5.006680 1.332523
v 8.352465 4.979276 1.350833
v 8.352465 4.960966 1.378235
v 8.352465 4.954536 1.410560
v 8.352465 4.960966 1.442884
v 8.352465 5.037845 1.326093
v 8.449760 5.037845 1.393902
v 8.449760 5.032629 1.395169
v 8.449760 5.037845 1.427217
v 8.449760 5.027225 1.398781
v 8.449760 5.023614 1.404186
v 8.449760 5.022345 1.410560
v 8.449760 5.023614 1.416935
v 7.833038 5.057620 1.360018
v 8.105832 5.057620 1.360018
v 7.833038 5.075368 1.371877
v 8.105832 5.075368 1.371877
v 7.833038 5.087226 1.389625
v 8.105832 5.087226 1.389625
v 7.833038 5.091391 1.410560
v 8.105832 5.091391 1.410560
v 7.833038 5.087226 1.431495
v 8.105832 5.087226 1.431495
v 7.833038 5.075368 1.449242
v 8.105832 5.075368 1.449242
v 7.833038 5.057620 1.461101
v 8.105832 5.057620 1.461101
v 8.132985 5.077372 1.508787
v 8.132985 5.111866 1.485740
v 8.132985 5.134912 1.451247
v 8.132985 5.143006 1.410560
v 8.132985 5.134912 1.369873
v 8.132985 5.111866 1.335379
v 8.132985 5.077372 1.312333
v 8.234805 5.134912 1.369873
v 8.250644 5.155542 1.361328
v 8.250644 5.127655 1.319590
v 8.234805 5.111866 1.335379
v 8.234805 5.134912 1.451247
v 8.234805 5.143006 1.410560
v 8.234805 5.111866 1.485740
v 8.234805 5.077372 1.508787
v 8.234805 5.077372 1.312333
v 8.352466 5.069010 1.488598
v 8.250644 5.085917 1.529417
v 8.250644 5.165335 1.410560
v 8.250644 5.155542 1.459791
v 8.250644 5.127655 1.501529
v 8.250644 5.085917 1.291703
v 8.449760 5.043060 1.425950
v 8.449760 5.048464 1.422338
v 8.352466 5.096412 1.470287
v 8.352466 5.096412 1.350833
v 8.352466 5.069010 1.332523
v 8.352466 5.114722 1.378235
v 8.352466 5.121152 1.410560
v 8.352466 5.114722 1.442884
v 8.449760 5.043060 1.395169
v 8.449760 5.048464 1.398781
v 8.449760 5.052074 1.404186
v 8.449760 5.053343 1.410560
v 8.449760 5.052074 1.416935
v 8.163918 4.998966 0.440705
v 8.163918 5.037578 0.437893
v 8.202300 5.037898 0.239594
v 8.202300 4.990610 0.243038
v 8.163918 5.073099 0.500587
v 8.202300 5.081398 0.316373
v 8.163918 4.970430 0.506701
v 8.202300 4.955665 0.323860
v 8.163918 4.953089 0.686529
v 8.202298 4.934428 0.544086
v 8.163918 4.950882 0.927828
v 8.202298 4.931726 0.839593
v 8.202298 4.995072 1.320475
v 8.163918 5.002608 1.320497
v 8.202300 5.069233 1.303880
v 8.163918 5.063166 1.306946
v 8.163918 5.101876 0.907429
v 8.202300 5.116640 0.814611
v 8.163918 5.093122 0.685113
v 8.202300 5.105921 0.542353
vn -0.979095 -0.019349 0.202429
vn -0.983337 -0.174810 -0.049379
vn 0.078799 -0.986663 0.142338
vn 0.081668 -0.527268 0.845729
vn -0.892117 -0.278970 -0.355327
vn 0.184210 -0.808649 -0.558672
vn -0.906430 0.164464 0.388958
vn 0.207099 0.161534 0.964873
vn -0.854671 0.251717 0.454024
vn 0.422010 0.383618 0.821406
vn -0.771111 0.378277 0.512101
vn 0.518021 0.435835 0.735984
vn 0.527024 0.839595 0.131504
vn -0.608539 0.793481 0.004547
vn 0.567339 0.116092 -0.815241
vn -0.616016 0.204688 -0.760643
vn -0.757073 -0.280618 -0.589923
vn 0.531968 -0.438490 -0.724357
vn -0.846156 -0.287271 -0.448866
vn 0.451949 -0.521592 -0.723624
vn -0.979095 0.185003 -0.084445
vn -0.983337 0.044618 0.176061
vn 0.078799 0.616596 0.783288
vn 0.081668 0.996063 0.033753
vn -0.892117 -0.168218 0.419263
vn 0.184210 -0.079501 0.979644
vn -0.906430 0.254616 -0.336924
vn 0.207099 0.754814 -0.622333
vn -0.854671 0.267312 -0.445021
vn 0.422010 0.519547 -0.742943
vn -0.771111 0.254341 -0.583667
vn 0.518021 0.419446 -0.745445
vn 0.526994 -0.305918 -0.792871
vn -0.608539 -0.392773 -0.689474
vn 0.567339 -0.764061 0.307047
vn -0.616016 -0.761071 0.203040
vn -0.757103 -0.370556 0.538011
vn 0.531968 -0.408063 0.741935
vn -0.846126 -0.245064 0.473220
vn 0.451949 -0.365856 0.813532
vn -0.546434 -0.324442 -0.772057
vn -0.666799 -0.289010 -0.686880
vn -0.663503 0.000000 -0.748131
vn -0.549699 0.000000 -0.835353
vn -0.547502 -0.591693 -0.591693
vn -0.665700 -0.527635 -0.527635
vn -0.547502 -0.773064 -0.320200
vn -0.665700 -0.689383 -0.285531
vn -0.547502 -0.836787 0.000000
vn -0.665700 -0.746178 0.000000
vn -0.547502 -0.773064 0.320200
vn -0.665700 -0.689383 0.285562
vn -0.547502 -0.591693 0.591693
vn -0.665700 -0.527635 0.527635
vn -0.546434 -0.324442 0.772057
vn -0.666799 -0.289010 0.686880
vn -0.549699 0.000000 0.835353
vn -0.663503 0.000000 0.748131
vn -0.490371 -0.616230 0.616230
vn -0.490585 -0.335826 0.804041
vn -0.490371 -0.871487 0.000000
vn -0.490371 -0.805170 0.333476
vn -0.490371 -0.616230 -0.616230
vn -0.490371 -0.805170 -0.333476
vn -0.489883 0.000000 -0.871761
vn -0.490585 -0.335826 -0.804041
vn -0.489883 0.000000 0.871761
vn -0.483993 -0.808435 -0.334849
vn -0.483993 -0.618763 -0.618763
vn -0.250557 -0.684530 -0.684530
vn -0.250557 -0.894406 -0.370464
vn -0.483993 -0.875057 0.000000
vn -0.483993 -0.808435 0.334849
vn -0.483993 -0.618732 0.618763
vn -0.483505 -0.337230 0.807764
vn -0.484970 0.000000 -0.874508
vn -0.483505 -0.337230 -0.807764
vn -0.485000 0.000000 0.874508
vn -0.250252 0.000000 0.968169
vn -0.250710 -0.372692 0.893429
vn 0.481918 -0.338725 0.808069
vn 0.482559 0.000000 0.875851
vn -0.250557 -0.968078 0.000000
vn -0.250557 -0.894406 0.370464
vn -0.250557 -0.684530 0.684530
vn -0.250252 0.000000 -0.968169
vn -0.250710 -0.372692 -0.893429
vn 0.482131 -0.619465 0.619465
vn 0.571764 -0.580096 0.580096
vn 0.571276 -0.319712 0.755882
vn 0.481918 -0.338725 -0.808069
vn 0.482131 -0.619465 -0.619465
vn 0.482131 -0.809381 -0.335246
vn 0.482131 -0.876064 0.000000
vn 0.482131 -0.809381 0.335246
vn 0.482559 0.000000 -0.875851
vn 0.572680 0.000000 -0.819758
vn 0.571276 -0.319712 -0.755882
vn 0.572710 0.000000 0.819727
vn 0.571764 -0.580096 -0.580096
vn 0.571764 -0.757927 -0.313944
vn 0.571764 -0.820399 0.000000
vn 0.571764 -0.757927 0.313944
vn -0.666829 0.288980 -0.686880
vn -0.546434 0.324442 -0.772088
vn -0.665700 0.527635 -0.527635
vn -0.547502 0.591693 -0.591693
vn -0.665700 0.689383 -0.285531
vn -0.547502 0.773095 -0.320200
vn -0.665700 0.746178 0.000000
vn -0.547502 0.836787 0.000000
vn -0.665700 0.689383 0.285531
vn -0.547502 0.773064 0.320200
vn -0.665700 0.527635 0.527635
vn -0.547502 0.591662 0.591693
vn -0.666829 0.288980 0.686880
vn -0.546434 0.324442 0.772088
vn -0.490585 0.335826 0.804041
vn -0.490371 0.616230 0.616230
vn -0.490371 0.805170 0.333506
vn -0.490371 0.871487 0.000000
vn -0.490371 0.805170 -0.333506
vn -0.490341 0.616230 -0.616230
vn -0.490585 0.335826 -0.804041
vn -0.483993 0.808435 -0.334849
vn -0.250557 0.894406 -0.370464
vn -0.250557 0.684530 -0.684530
vn -0.483993 0.618763 -0.618763
vn -0.483993 0.808435 0.334849
vn -0.483993 0.875057 0.000000
vn -0.483993 0.618732 0.618763
vn -0.483505 0.337230 0.807764
vn -0.483505 0.337230 -0.807764
vn 0.481918 0.338725 0.808069
vn -0.250710 0.372692 0.893429
vn -0.250557 0.968078 0.000000
vn -0.250557 0.894406 0.370464
vn -0.250557 0.684530 0.684530
vn -0.250710 0.372692 -0.893429
vn 0.571306 0.319712 0.755882
vn 0.571764 0.580096 0.580096
vn 0.482131 0.619495 0.619465
vn 0.482131 0.619465 -0.619465
vn 0.481918 0.338725 -0.808069
vn 0.482131 0.809381 -0.335246
vn 0.482131 0.876064 0.000000
vn 0.482131 0.809381 0.335246
vn 0.571276 0.319712 -0.755882
vn 0.571764 0.580126 -0.580096
vn 0.571764 0.757927 -0.313944
vn 0.571764 0.820399 0.000000
vn 0.571764 0.757927 0.313944
vn -0.979095 -0.165624 -0.117985
vn -0.983337 0.130161 -0.126682
vn 0.078799 0.370067 -0.925626
vn 0.081668 -0.468795 -0.879513
vn -0.892117 0.447188 -0.063906
vn 0.184210 0.888150 -0.420972
vn -0.906430 -0.419080 -0.052034
vn 0.207099 -0.916379 -0.342509
vn -0.854671 -0.519059 -0.009003
vn 0.422010 -0.903165 -0.078463
vn -0.771111 -0.632649 0.071535
vn 0.518021 -0.855312 0.009461
vn 0.527024 -0.533677 0.661367
vn -0.608539 -0.400708 0.684896
vn 0.567339 0.647938 0.508164
vn -0.616016 0.556383 0.557573
vn -0.757103 0.651204 0.051912
vn 0.531968 0.846553 -0.017548
vn -0.846156 0.532365 -0.024354
vn 0.451949 0.887478 -0.089908
usemtl _metal
s 1
f 1//1 2//2 3//3 4//4
f 2//2 5//5 6//6 3//3
f 7//7 1//1 4//4 8//8
f 9//9 7//7 8//8 10//10
f 11//11 9//9 10//10 12//12
f 12//12 13//13 14//14 11//11
f 13//13 15//15 16//16 14//14
f 17//17 16//16 15//15 18//18
f 19//19 17//17 18//18 20//20
f 5//5 19//19 20//20 6//6
f 1//1 7//7 5//5 2//2
f 19//19 5//5 7//7 9//9
f 17//17 19//19 9//9 11//11
f 16//16 17//17 11//11 14//14
f 13//13 12//12 18//18 15//15
f 12//12 10//10 20//20 18//18
f 10//10 8//8 6//6 20//20
f 8//8 4//4 3//3 6//6
f 21//21 22//22 23//23 24//24
f 22//22 25//25 26//26 23//23
f 27//27 21//21 24//24 28//28
f 29//29 27//27 28//28 30//30
f 31//31 29//29 30//30 32//32
f 32//32 33//33 34//34 31//31
f 33//33 35//35 36//36 34//34
f 37//37 36//36 35//35 38//38
f 39//39 37//37 38//38 40//40
f 25//25 39//39 40//40 26//26
f 21//21 27//27 25//25 22//22
f 39//39 25//25 27//27 29//29
f 37//37 39//39 29//29 31//31
f 36//36 37//37 31//31 34//34
f 33//33 32//32 38//38 35//35
f 32//32 30//30 40//40 38//38
f 30//30 28//28 26//26 40//40
f 28//28 24//24 23//23 26//26
f 41//41 42//42 43//43 44//44
f 42//42 41//41 45//45 46//46
f 46//46 45//45 47//47 48//48
f 48//48 47//47 49//49 50//50
f 50//50 49//49 51//51 52//52
f 52//52 51//51 53//53 54//54
f 54//54 53//53 55//55 56//56
f 56//56 55//55 57//57 58//58
f 55//55 53//53 59//59 60//60
f 51//51 49//49 61//61 62//62
f 47//47 45//45 63//63 64//64
f 41//41 44//44 65//65 66//66
f 57//57 55//55 60//60 67//67
f 53//53 51//51 62//62 59//59
f 49//49 47//47 64//64 61//61
f 45//45 41//41 66//66 63//63
f 68//68 69//69 70//70 71//71
f 62//62 61//61 72//72 73//73
f 59//59 62//62 73//73 74//74
f 60//60 59//59 74//74 75//75
f 66//66 65//65 76//76 77//77
f 67//67 60//60 75//75 78//78
f 63//63 66//66 77//77 69//69
f 64//64 63//63 69//69 68//68
f 61//61 64//64 68//68 72//72
f 79//79 80//80 81//81 82//82
f 72//72 68//68 71//71 83//83
f 73//73 72//72 83//83 84//84
f 74//74 73//73 84//84 85//85
f 75//75 74//74 85//85 80//80
f 77//77 76//76 86//86 87//87
f 78//78 75//75 80//80 79//79
f 69//69 77//77 87//87 70//70
f 81//81 88//88 89//89 90//90
f 70//70 87//87 91//91 92//92
f 71//71 70//70 92//92 93//93
f 83//83 71//71 93//93 94//94
f 84//84 83//83 94//94 95//95
f 85//85 84//84 95//95 88//88
f 80//80 85//85 88//88 81//81
f 87//87 86//86 96//96 91//91
f 91//91 96//96 97//97 98//98
f 82//82 81//81 90//90 99//99
f 92//92 91//91 98//98 100//100
f 93//93 92//92 100//100 101//101
f 94//94 93//93 101//101 102//102
f 95//95 94//94 102//102 103//103
f 88//88 95//95 103//103 89//89
f 43//43 104//104 105//105 44//44
f 104//104 106//106 107//107 105//105
f 106//106 108//108 109//109 107//107
f 108//108 110//110 111//111 109//109
f 110//110 112//112 113//113 111//111
f 112//112 114//114 115//115 113//113
f 114//114 116//116 117//117 115//115
f 116//116 58//58 57//57 117//117
f 117//117 118//118 119//119 115//115
f 113//113 120//120 121//121 111//111
f 109//109 122//122 123//123 107//107
f 105//105 124//124 65//65 44//44
f 57//57 67//67 118//118 117//117
f 115//115 119//119 120//120 113//113
f 111//111 121//121 122//122 109//109
f 107//107 123//123 124//124 105//105
f 125//125 126//126 127//127 128//128
f 120//120 129//129 130//130 121//121
f 119//119 131//131 129//129 120//120
f 118//118 132//132 131//131 119//119
f 124//124 133//133 76//76 65//65
f 67//67 78//78 132//132 118//118
f 123//123 128//128 133//133 124//124
f 122//122 125//125 128//128 123//123
f 121//121 130//130 125//125 122//122
f 79//79 82//82 134//134 135//135
f 130//130 136//136 126//126 125//125
f 129//129 137//137 136//136 130//130
f 131//131 138//138 137//137 129//129
f 132//132 135//135 138//138 131//131
f 133//133 139//139 86//86 76//76
f 78//78 79//79 135//135 132//132
f 128//128 127//127 139//139 133//133
f 134//134 140//140 141//141 142//142
f 127//127 143//143 144//144 139//139
f 126//126 145//145 143//143 127//127
f 136//136 146//146 145//145 126//126
f 137//137 147//147 146//146 136//136
f 138//138 142//142 147//147 137//137
f 135//135 134//134 142//142 138//138
f 139//139 144//144 96//96 86//86
f 144//144 148//148 97//97 96//96
f 82//82 99//99 140//140 134//134
f 143//143 149//149 148//148 144//144
f 145//145 150//150 149//149 143//143
f 146//146 151//151 150//150 145//145
f 147//147 152//152 151//151 146//146
f 142//142 141//141 152//152 147//147
f 112//112 110//110 108//108
f 114//114 112//112 108//108
f 114//114 108//108 106//106
f 116//116 114//114 106//106
f 104//104 116//116 106//106
f 104//104 58//58 116//116
f 104//104 43//43 58//58
f 43//43 56//56 58//58
f 43//43 42//42 56//56
f 42//42 46//46 56//56
f 46//46 54//54 56//56
f 46//46 48//48 54//54
f 48//48 52//52 54//54
f 48//48 50//50 52//52
f 153//153 154//154 155//155 156//156
f 154//154 157//157 158//158 155//155
f 159//159 153//153 156//156 160//160
f 161//161 159//159 160//160 162//162
f 163//163 161//161 162//162 164//164
f 164//164 165//165 166//166 163//163
f 165//165 167//167 168//168 166//166
f 169//169 168//168 167//167 170//170
f 171//171 169//169 170//170 172//172
f 157//157 171//171 172//172 158//158
f 153//153 159//159 157//157 154//154
f 171//171 157//157 159//159 161//161
f 169//169 171//171 161//161 163//163
f 168//168 169//169 163//163 166//166
f 165//165 164//164 170//170 167//167
f 164//164 162//162 172//172 170//170
f 162//162 160//160 158//158 172//172
f 160//160 156//156 155//155 158//158
