# Rhino

o object_1
v 10.21 5.776 0.4006
v 10.21 6.001 0.4006
v 10.33 5.776 0.1229
v 10.33 5.776 0.6782
v 10.33 6.001 0.1229
v 10.33 6.001 0.6782
v 10.54 5.993 0.3653
v 10.54 5.993 0.4368
v 10.54 6.136 0.3653
v 10.54 6.136 0.4368
v 10.57 6.036 1.044
v 10.57 6.101 1.044
v 10.57 6.036 1.274
v 10.57 6.101 1.274
v 10.58 6.044 0.4055
v 10.58 6.093 0.4055
v 10.58 6.044 1.044
v 10.58 6.093 1.044
v 10.6 5.993 0.3296
v 10.6 5.993 0.4726
v 10.6 6.136 0.3296
v 10.6 6.136 0.4726
v 10.6 5.776 0.007871
v 10.6 5.776 0.7932
v 10.6 6.001 0.007871
v 10.6 6.001 0.7932
v 10.63 6.019 0.4055
v 10.63 6.118 0.4055
v 10.63 6.004 1.044
v 10.63 6.019 1.044
v 10.63 6.118 1.044
v 10.63 6.133 1.044
v 10.63 6.004 1.274
v 10.63 6.133 1.274
v 10.66 5.993 0.3653
v 10.66 5.993 0.4368
v 10.66 6.136 0.3653
v 10.66 6.136 0.4368
v 10.67 6.044 0.4055
v 10.67 6.093 0.4055
v 10.67 6.044 1.044
v 10.67 6.093 1.044
v 10.68 6.036 1.044
v 10.68 6.101 1.044
v 10.68 6.036 1.274
v 10.68 6.101 1.274
v 10.88 5.776 0.1229
v 10.88 5.776 0.6782
v 10.88 6.001 0.1229
v 10.88 6.001 0.6782
v 11 5.776 0.4006
v 11 6.001 0.4006
vn 0 1 0
vn 0 1 0
vn -0.6037 0 0.7972
vn -0.6037 0 0.7972
vn 0 1 0
vn 0 1 0
vn 0.1368 0 0.9906
vn 0.1368 0 0.9906
vn 0 1 0
vn 0 1 0
vn 0.7972 0 0.6037
vn 0.7972 0 0.6037
vn 0 1 0
vn 0.9906 0 -0.1368
vn 0.9906 0 -0.1368
vn 0 1 0
vn -0.1368 0 -0.9906
vn -0.1368 0 -0.9906
vn 0 1 0
vn 0 1 0
vn 0 1 0
vn 0 1 0
vn 0 1 0
vn 0 1 0
vn 0.6037 0 -0.7972
vn 0.6037 0 -0.7972
vn 0 1 0
vn 0 1 0
vn -0.7972 0 -0.6037
vn -0.7972 0 -0.6037
vn 0 1 0
vn 0 1 0
vn -0.9906 0 0.1368
vn -0.9906 0 0.1368
vn 0 -1 0
vn 0 -1 0
vn -0.1368 0 0.9906
vn -0.1368 0 0.9906
vn 0 -1 0
vn 0 -1 0
vn -0.7972 0 0.6037
vn -0.7972 0 0.6037
vn 0 -1 0
vn 0 -1 0
vn 0.6037 0 0.7972
vn 0.6037 0 0.7972
vn 0 -1 0
vn 0.9906 0 0.1368
vn 0.9906 0 0.1368
vn 0 -1 0
vn 0 -1 0
vn -0.6037 0 -0.7972
vn -0.6037 0 -0.7972
vn 0 -1 0
vn 0 -1 0
vn 0 -1 0
vn 0 -1 0
vn 0 -1 0
vn 0 -1 0
vn 0.7972 0 -0.6037
vn 0.7972 0 -0.6037
vn 0 -1 0
vn 0.1368 0 -0.9906
vn 0.1368 0 -0.9906
vn 0 -1 0
vn 0 -1 0
vn -0.9906 0 -0.1368
vn -0.9906 0 -0.1368
vn 0 1 0
vn -0.5 0 0.866
vn 0.5 0 0.866
vn 0 1 0
vn 0 1 0
vn 0 1 0
vn 0 1 0
vn -0.7559 0 0.6546
vn -0.7559 0 0.6546
vn 0 1 0
vn 0 1 0
vn 0.9449 0 0.3273
vn 0.9449 0 0.3273
vn 0 1 0
vn 0 1 0
vn 0.7559 0 -0.6547
vn 0.7559 0 -0.6547
vn 0 1 0
vn 0 1 0
vn 0.5 0 -0.866
vn -0.5 0 -0.866
vn 0 1 0
vn -0.9449 0 -0.3273
vn -0.9449 0 -0.3273
vn -0.9449 0 0.3273
vn -0.9449 0 0.3273
vn -0.5 0 0.866
vn 0.5 0 0.866
vn 0.7559 0 0.6547
vn 0.7559 0 0.6547
vn 0.9449 0 -0.3273
vn 0.9449 0 -0.3273
vn 0.5 0 -0.866
vn -0.5 0 -0.866
vn -0.7559 0 -0.6546
vn -0.7559 0 -0.6546
vn 0.9449 -0.3273 -2.472e-05
vn 0.9449 -0.3273 -2.472e-05
vn 0 0 -1
vn 0 0 -1
vn 0.7559 -0.6546 -2.038e-05
vn 0.7559 -0.6546 -2.038e-05
vn 0.5 -0.866 -1.42e-05
vn -0.5 -0.866 1.42e-05
vn 0.5 -0.866 -1.411e-05
vn -0.5 -0.866 1.42e-05
vn 0 0 -1
vn 0 0 -1
vn -0.5 -0.866 1.42e-05
vn -1 0 2.84e-05
vn -0.5 -0.866 1.42e-05
vn -1 0 2.84e-05
vn 0 0 -1
vn 0 0 -1
vn -1 0 2.84e-05
vn -0.5 0.866 1.42e-05
vn -1 0 2.84e-05
vn -0.5 0.866 1.42e-05
vn 0 0 -1
vn 0 0 -1
vn 0.189 0.982 -4.86e-06
vn 0.189 0.982 -4.86e-06
vn -0.189 0.982 5.37e-06
vn -0.189 0.982 5.37e-06
vn 0 0 -1
vn 0 0 -1
vn 0.5 0.866 -1.285e-05
vn 1 0 -2.569e-05
vn 0.5 0.866 -1.352e-05
vn 1 0 -2.569e-05
vn 0 0 -1
vn 0 0 -1
vn 0 0 -1
vn 0 0 -1
vn 0.7559 -0.6547 -1.35e-05
vn 0.7559 -0.6547 -1.35e-05
vn 0 0 -1
vn 0 0 -1
vn -0.5 -0.866 8.46e-06
vn 0.5 -0.866 -7.52e-06
vn 0 0 -1
vn 0 0 -1
vn -0.5 -0.866 9.4e-06
vn -1 0 1.88e-05
vn 0 0 -1
vn 0 0 -1
vn -0.5 0.866 6.83e-06
vn -1 0 1.88e-05
vn 0 0 -1
vn 0 0 -1
vn 0.189 0.982 -3.55e-06
vn 0.189 0.982 -3.55e-06
vn 0 0 -1
vn 0 0 -1
vn 1 0 -1.88e-05
vn 0.5 0.866 -9.4e-06
vn -0.5 -0.866 8.46e-06
vn -1 0 1.88e-05
vn -0.5 -0.866 7.52e-06
vn 0.5 -0.866 -8.46e-06
vn 0.9449 -0.3273 -1.777e-05
vn 0.9449 -0.3273 -1.777e-05
vn 1 0 -1.88e-05
vn 0.5 0.866 -8.46e-06
vn -0.189 0.982 2.32e-06
vn -0.189 0.982 2.32e-06
vn -0.5 0.866 6.14e-06
vn -1 0 1.88e-05
f 26//5 49//19 6//1
f 50//9 49//20 26//6
f 52//13 49//21 50//10
f 5//27 49//22 25//16
f 2//31 49//23 5//28
f 6//2 49//24 2//32
f 4//39 47//54 24//35
f 24//36 47//55 48//43
f 48//44 47//56 51//47
f 23//62 47//57 3//50
f 3//51 47//58 1//65
f 1//66 47//59 4//40
f 6//3 4//41 24//37 26//7
f 26//8 24//38 48//45 50//11
f 50//12 48//46 51//48 52//14
f 52//15 51//49 47//60 49//25
f 49//26 47//61 23//63 25//17
f 25//18 23//64 3//52 5//29
f 5//30 3//53 1//67 2//33
f 2//34 1//68 4//42 6//4
f 38//78 10//72 22//69
f 37//82 10//73 38//79
f 21//86 10//74 37//83
f 9//90 10//75 21//87
f 10//76 8//93 20//95 22//70
f 22//71 20//96 36//97 38//80
f 38//81 36//98 35//99 37//84
f 37//85 35//100 19//101 21//88
f 21//89 19//102 7//103 9//91
f 9//92 7//104 8//94 10//77
f 39//109 41//105 30//113 27//111
f 27//112 30//114 17//119 15//117
f 15//118 17//120 18//125 16//123
f 16//124 18//126 31//131 28//129
f 28//130 31//132 42//137 40//135
f 40//136 42//138 41//106 39//110
f 41//107 43//141 29//145 30//115
f 30//116 29//146 11//149 17//121
f 17//122 11//150 12//153 18//127
f 18//128 12//154 32//157 31//133
f 31//134 32//158 44//161 42//139
f 42//140 44//162 43//142 41//108
f 13//165 11//151 29//147 33//167
f 33//168 29//148 43//143 45//169
f 45//170 43//144 44//163 46//171
f 46//172 44//164 32//159 34//173
f 34//174 32//160 12//155 14//175
f 14//176 12//156 11//152 13//166
