# Blender v2.63 (sub 13) OBJ File: 'zeroshiki_21gata_leg_R_output.blend'
# www.blender.org
mtllib zeroshiki_21gata_leg_R_output.mtl
o Cube.000_Cube.002
v 6.679505 3.635702 0.457092
v 6.592014 3.635702 0.457092
v 6.592014 3.462147 0.457092
v 6.679505 3.462147 0.457092
v 6.679505 3.635702 0.572114
v 6.592014 3.635702 0.572114
v 6.592014 3.462147 0.572114
v 6.679505 3.462147 0.572114
v 6.592014 3.575561 0.572114
v 6.592014 3.522289 0.572114
v 6.592014 3.481629 0.457092
v 6.592014 3.616220 0.457092
v 6.679505 3.522289 0.572114
v 6.679505 3.575561 0.572114
v 6.679505 3.616220 0.457092
v 6.679505 3.481629 0.457092
v 6.679505 3.635702 0.273721
v 6.592014 3.635702 0.273721
v 6.592014 3.462147 0.273721
v 6.679505 3.462147 0.273721
v 6.592014 3.481629 0.273721
v 6.592014 3.616220 0.273721
v 6.679505 3.616220 0.273721
v 6.679505 3.481629 0.273721
v 6.568128 3.609503 1.207365
v 6.568128 3.488346 1.207365
v 6.703391 3.488346 1.207365
v 6.703391 3.609503 1.207365
v 6.679505 3.522289 0.624311
v 6.592014 3.522289 0.624311
v 6.679505 3.575561 0.624311
v 6.592014 3.575561 0.624311
v 6.568128 3.609503 0.656096
v 6.703391 3.488346 0.656096
v 6.703391 3.609503 0.656096
v 6.568128 3.488346 0.656096
v 6.688915 3.467397 0.504425
v 6.586926 3.467397 0.504425
v 6.586926 3.446453 0.504425
v 6.688915 3.446453 0.504425
v 6.688915 3.467397 1.203589
v 6.586926 3.467397 1.203589
v 6.586926 3.446453 1.203589
v 6.688915 3.446453 1.203589
v 6.768753 3.483792 0.456839
v 6.507088 3.483792 0.456839
v 6.507088 3.430058 0.456839
v 6.768753 3.430058 0.456839
v 6.855348 3.483792 0.390218
v 6.420493 3.483792 0.390218
v 6.420493 3.430058 0.390218
v 6.855348 3.430058 0.390218
v 6.903599 3.483792 0.196702
v 6.372242 3.483792 0.196702
v 6.372242 3.430058 0.196702
v 6.903599 3.430058 0.196702
v 6.637920 3.467397 1.203589
v 6.637920 3.467397 0.504425
v 6.637920 3.446453 1.203589
v 6.637920 3.446453 0.504425
v 6.637920 3.483792 0.456839
v 6.637920 3.430058 0.456839
v 6.637920 3.483792 0.390218
v 6.637920 3.430058 0.390218
v 6.637920 3.483792 0.133254
v 6.637920 3.430058 0.133254
v 6.635759 3.615225 0.497417
v 6.635759 3.518726 0.497417
v 6.546901 3.615225 0.479742
v 6.546901 3.518726 0.479742
v 6.471570 3.615225 0.429407
v 6.471570 3.518726 0.429407
v 6.421236 3.615225 0.354077
v 6.421236 3.518726 0.354077
v 6.403561 3.615225 0.265218
v 6.403561 3.518726 0.265218
v 6.421236 3.615225 0.176360
v 6.421236 3.518726 0.176360
v 6.471570 3.615225 0.101030
v 6.471570 3.518726 0.101030
v 6.546901 3.615225 0.050695
v 6.546901 3.518726 0.050695
v 6.635759 3.615225 0.033020
v 6.635759 3.518726 0.033020
v 6.724617 3.615225 0.050695
v 6.724617 3.518726 0.050695
v 6.799948 3.615225 0.101030
v 6.799948 3.518726 0.101030
v 6.850282 3.615225 0.176360
v 6.850282 3.518726 0.176360
v 6.867958 3.615225 0.265218
v 6.867958 3.518726 0.265218
v 6.850282 3.615225 0.354077
v 6.850282 3.518726 0.354077
v 6.799948 3.615225 0.429407
v 6.799948 3.518726 0.429407
v 6.724617 3.615225 0.479742
v 6.724617 3.518726 0.479742
v 6.567491 3.518726 0.430032
v 6.635759 3.518726 0.443612
v 6.509616 3.518726 0.391361
v 6.470946 3.518726 0.333487
v 6.457366 3.518726 0.265218
v 6.470946 3.518726 0.196950
v 6.509616 3.518726 0.139076
v 6.567491 3.518726 0.100405
v 6.635759 3.518726 0.086825
v 6.704027 3.518726 0.100405
v 6.761902 3.518726 0.139076
v 6.800573 3.518726 0.196950
v 6.814152 3.518726 0.265218
v 6.800573 3.518726 0.333487
v 6.761902 3.518726 0.391361
v 6.704027 3.518726 0.430032
v 6.567491 3.481781 0.430032
v 6.635759 3.481781 0.443612
v 6.509616 3.481780 0.391361
v 6.470946 3.481780 0.333487
v 6.457366 3.481780 0.265218
v 6.470946 3.481780 0.196950
v 6.509616 3.481781 0.139076
v 6.567491 3.481781 0.100405
v 6.635759 3.481781 0.086825
v 6.704027 3.481781 0.100405
v 6.761902 3.481781 0.139076
v 6.800573 3.481781 0.196950
v 6.814152 3.481781 0.265218
v 6.800573 3.481781 0.333487
v 6.761902 3.481781 0.391361
v 6.704027 3.481781 0.430032
vn 0.577349 0.577349 0.577349
vn 0.707083 0.707083 0.000000
vn -0.707083 0.707083 0.000000
vn -0.577349 0.577349 0.577349
vn -0.904508 -0.301492 0.301492
vn -0.904508 0.301492 -0.301492
vn -0.707083 -0.707083 0.000000
vn -0.577349 -0.577349 0.577349
vn 0.707083 -0.707083 0.000000
vn 0.577349 -0.577349 0.577349
vn 0.904508 0.301492 0.301492
vn 0.904508 -0.301492 -0.301492
vn 0.577349 0.577349 -0.577349
vn 0.577349 -0.577349 -0.577349
vn -0.904508 0.301492 0.301492
vn -0.904508 -0.301492 -0.301492
vn 0.904508 0.301492 -0.301492
vn 0.904508 -0.301492 0.301492
vn -0.577349 0.577349 -0.577349
vn -0.635243 -0.556078 -0.535905
vn 0.635243 -0.556078 -0.535905
vn -0.577349 -0.577349 -0.577349
vn -0.646474 0.663198 -0.377117
vn 0.646474 0.663198 -0.377117
vn -0.646474 -0.663198 -0.377117
vn 0.646474 -0.663198 -0.377117
vn -0.635243 0.556078 -0.535905
vn 0.635243 0.556078 -0.535905
vn 0.000000 0.707083 0.707083
vn 0.000000 0.986267 0.165136
vn -0.468917 0.762841 0.445112
vn -0.468917 -0.762841 0.445112
vn 0.000000 -0.707083 0.707083
vn 0.000000 -0.986267 0.165136
vn 0.468917 -0.762841 0.445112
vn 0.468917 0.762841 0.445112
vn -0.385662 -0.695791 0.605853
vn 0.642842 0.639973 0.420881
vn 0.385662 0.695791 0.605853
vn 0.385662 -0.695791 0.605853
vn 0.642842 -0.639973 0.420881
vn -0.385662 0.695791 0.605853
vn 0.698080 0.576800 -0.424177
vn 0.698080 -0.576800 -0.424177
vn 0.000000 1.000000 0.000000
vn -0.642842 -0.639973 0.420881
vn -0.642842 0.639973 0.420881
vn 0.000000 -1.000000 0.000000
vn 0.000000 0.658345 -0.752678
vn 0.000000 -0.658345 -0.752678
vn -0.698080 -0.576800 -0.424177
vn -0.698080 0.576800 -0.424177
vn 0.000000 0.665700 0.746178
vn -0.285531 0.665700 0.689383
vn -0.285531 -0.665700 0.689383
vn 0.000000 -0.665700 0.746178
vn -0.527635 0.665700 0.527635
vn -0.527635 -0.665700 0.527635
vn -0.689383 0.665700 0.285531
vn -0.689383 -0.665700 0.285531
vn -0.746178 0.665700 0.000000
vn -0.746178 -0.665700 0.000000
vn -0.689383 0.665700 -0.285531
vn -0.689383 -0.665700 -0.285531
vn -0.527635 0.665700 -0.527635
vn -0.527635 -0.665700 -0.527635
vn -0.285531 0.665700 -0.689383
vn -0.285531 -0.665700 -0.689383
vn 0.000000 0.665700 -0.746178
vn 0.000000 -0.665700 -0.746178
vn 0.285531 0.665700 -0.689383
vn 0.285531 -0.665700 -0.689383
vn 0.527635 0.665700 -0.527635
vn 0.527635 -0.665700 -0.527635
vn 0.689383 0.665700 -0.285531
vn 0.689383 -0.665700 -0.285531
vn 0.746178 0.665700 0.000000
vn 0.746178 -0.665700 0.000000
vn 0.689383 0.665700 0.285531
vn 0.689383 -0.665700 0.285531
vn 0.527635 0.665700 0.527635
vn 0.527635 -0.665700 0.527635
vn 0.607105 -0.753746 -0.251473
vn 0.464644 -0.753746 -0.464644
vn 0.285531 0.665700 0.689383
vn 0.285531 -0.665700 0.689383
vn 0.000000 -0.753746 0.657125
vn -0.251473 -0.753746 0.607105
vn -0.464644 -0.753746 0.464644
vn -0.607105 -0.753746 0.251473
vn -0.657125 -0.753746 0.000000
vn -0.607105 -0.753746 -0.251473
vn -0.464644 -0.753746 -0.464644
vn -0.251473 -0.753746 -0.607105
vn 0.000000 -0.753746 -0.657125
vn 0.251473 -0.753746 -0.607105
vn 0.657125 -0.753746 0.000000
vn 0.607105 -0.753746 0.251473
vn 0.464644 -0.753746 0.464644
vn 0.251473 -0.753746 0.607105
usemtl 
s 1
f 5//1 1//2 2//3 6//4
f 10//5 11//6 3//7 7//8
f 7//8 3//7 4//9 8//10
f 1//2 5//1 14//11 15//12
f 17//13 1//2 15//12 23//14
f 14//11 5//1 6//4 9//15
f 6//4 2//3 12//16 9//15
f 9//15 12//16 11//6 10//5
f 8//10 4//9 16//17 13//18
f 13//18 16//17 15//12 14//11
f 21//19 11//6 16//17 24//13
f 15//12 16//17 11//6 12//16
f 8//10 13//18 10//5 7//8
f 30//20 10//5 13//18 29//21
f 24//13 20//14 19//22 21//19
f 17//13 23//14 22//22 18//19
f 24//13 16//17 4//9 20//14
f 11//6 21//19 19//22 3//7
f 12//16 22//22 23//14 15//12
f 22//22 12//16 2//3 18//19
f 20//14 4//9 3//7 19//22
f 1//2 17//13 18//19 2//3
f 27//10 28//1 25//4 26//8
f 33//23 25//4 28//1 35//24
f 36//25 26//8 25//4 33//23
f 35//24 28//1 27//10 34//26
f 36//25 30//20 29//21 34//26
f 9//15 32//27 31//28 14//11
f 10//5 30//20 32//27 9//15
f 14//11 31//28 29//21 13//18
f 26//8 36//25 34//26 27//10
f 30//20 36//25 33//23 32//27
f 32//27 33//23 35//24 31//28
f 31//28 35//24 34//26 29//21
f 57//29 58//30 38//31 42//4
f 42//4 38//31 39//32 43//8
f 59//33 60//34 40//35 44//10
f 44//10 40//35 37//36 41//1
f 62//34 60//34 39//32 47//37
f 59//33 57//29 42//4 43//8
f 49//38 45//39 48//40 52//41
f 61//30 58//30 37//36 45//39
f 47//37 39//32 38//31 46//42
f 45//39 37//36 40//35 48//40
f 53//43 49//38 52//41 56//44
f 63//45 61//30 45//39 49//38
f 51//46 47//37 46//42 50//47
f 64//48 62//34 47//37 51//46
f 65//49 66//50 55//51 54//52
f 65//49 63//45 49//38 53//43
f 55//51 51//46 50//47 54//52
f 66//50 64//48 51//46 55//51
f 41//1 37//36 58//30 57//29
f 43//8 39//32 60//34 59//33
f 48//40 40//35 60//34 62//34
f 44//10 41//1 57//29 59//33
f 46//42 38//31 58//30 61//30
f 50//47 46//42 61//30 63//45
f 52//41 48//40 62//34 64//48
f 53//43 56//44 66//50 65//49
f 54//52 50//47 63//45 65//49
f 56//44 52//41 64//48 66//50
f 67//53 69//54 70//55 68//56
f 69//54 71//57 72//58 70//55
f 71//57 73//59 74//60 72//58
f 73//59 75//61 76//62 74//60
f 75//61 77//63 78//64 76//62
f 77//63 79//65 80//66 78//64
f 79//65 81//67 82//68 80//66
f 81//67 83//69 84//70 82//68
f 83//69 85//71 86//72 84//70
f 85//71 87//73 88//74 86//72
f 87//73 89//75 90//76 88//74
f 89//75 91//77 92//78 90//76
f 91//77 93//79 94//80 92//78
f 93//79 95//81 96//82 94//80
f 110//83 126//76 125//74 109//84
f 97//85 67//53 68//56 98//86
f 95//81 97//85 98//86 96//82
f 67//53 97//85 69//54
f 97//85 95//81 69//54
f 95//81 71//57 69//54
f 95//81 93//79 71//57
f 93//79 73//59 71//57
f 93//79 91//77 73//59
f 91//77 75//61 73//59
f 91//77 89//75 75//61
f 89//75 77//63 75//61
f 89//75 87//73 77//63
f 87//73 79//65 77//63
f 87//73 85//71 79//65
f 85//71 81//67 79//65
f 85//71 83//69 81//67
f 100//87 68//56 70//55 99//88
f 99//88 70//55 72//58 101//89
f 101//89 72//58 74//60 102//90
f 102//90 74//60 76//62 103//91
f 103//91 76//62 78//64 104//92
f 104//92 78//64 80//66 105//93
f 105//93 80//66 82//68 106//94
f 106//94 82//68 84//70 107//95
f 107//95 84//70 86//72 108//96
f 108//96 86//72 88//74 109//84
f 109//84 88//74 90//76 110//83
f 110//83 90//76 92//78 111//97
f 111//97 92//78 94//80 112//98
f 112//98 94//80 96//82 113//99
f 113//99 96//82 98//86 114//100
f 114//100 98//86 68//56 100//87
f 115//55 130//86 116//56
f 115//55 129//82 130//86
f 115//55 117//58 129//82
f 117//58 128//80 129//82
f 117//58 118//60 128//80
f 118//60 127//78 128//80
f 118//60 119//62 127//78
f 119//62 126//76 127//78
f 119//62 120//64 126//76
f 120//64 125//74 126//76
f 120//64 121//66 125//74
f 121//66 124//72 125//74
f 121//66 122//68 124//72
f 122//68 123//70 124//72
f 104//92 120//64 119//62 103//91
f 111//97 127//78 126//76 110//83
f 105//93 121//66 120//64 104//92
f 112//98 128//80 127//78 111//97
f 106//94 122//68 121//66 105//93
f 99//88 115//55 116//56 100//87
f 113//99 129//82 128//80 112//98
f 107//95 123//70 122//68 106//94
f 101//89 117//58 115//55 99//88
f 114//100 130//86 129//82 113//99
f 108//96 124//72 123//70 107//95
f 102//90 118//60 117//58 101//89
f 100//87 116//56 130//86 114//100
f 109//84 125//74 124//72 108//96
f 103//91 119//62 118//60 102//90
