# Blender v2.63 (sub 13) OBJ File: 'zeroshiki_21gata_leg_L_output.blend'
# www.blender.org
mtllib zeroshiki_21gata_leg_L_output.mtl
o Cube.004_Cube.001
v 6.679505 6.383190 0.457091
v 6.592014 6.383190 0.457091
v 6.592014 6.556745 0.457091
v 6.679505 6.556745 0.457091
v 6.679505 6.383190 0.572114
v 6.592014 6.383190 0.572114
v 6.592014 6.556745 0.572114
v 6.679505 6.556745 0.572114
v 6.592014 6.443331 0.572114
v 6.592014 6.496603 0.572114
v 6.592014 6.537263 0.457091
v 6.592014 6.402672 0.457091
v 6.679505 6.496603 0.572114
v 6.679505 6.443331 0.572114
v 6.679505 6.402672 0.457091
v 6.679505 6.537263 0.457091
v 6.679505 6.383190 0.273721
v 6.592014 6.383190 0.273721
v 6.592014 6.556745 0.273721
v 6.679505 6.556745 0.273721
v 6.592014 6.537263 0.273721
v 6.592014 6.402672 0.273721
v 6.679505 6.402672 0.273721
v 6.679505 6.537263 0.273721
v 6.568128 6.409389 1.207365
v 6.568128 6.530546 1.207365
v 6.703391 6.530546 1.207365
v 6.703391 6.409389 1.207365
v 6.679505 6.496603 0.624311
v 6.592014 6.496603 0.624311
v 6.679505 6.443331 0.624311
v 6.592014 6.443331 0.624311
v 6.568128 6.409389 0.656096
v 6.703391 6.530546 0.656096
v 6.703391 6.409389 0.656096
v 6.568128 6.530546 0.656096
v 6.688915 6.551495 0.504425
v 6.586926 6.551495 0.504425
v 6.586926 6.572439 0.504425
v 6.688915 6.572439 0.504425
v 6.688915 6.551495 1.203589
v 6.586926 6.551495 1.203589
v 6.586926 6.572439 1.203589
v 6.688915 6.572439 1.203589
v 6.768753 6.535100 0.456839
v 6.507088 6.535100 0.456839
v 6.507088 6.588834 0.456839
v 6.768753 6.588834 0.456839
v 6.855348 6.535100 0.390218
v 6.420493 6.535100 0.390218
v 6.420493 6.588834 0.390218
v 6.855348 6.588834 0.390218
v 6.903599 6.535100 0.196702
v 6.372242 6.535100 0.196702
v 6.372242 6.588834 0.196702
v 6.903599 6.588834 0.196702
v 6.637920 6.551495 1.203589
v 6.637920 6.551495 0.504425
v 6.637920 6.572439 1.203589
v 6.637920 6.572439 0.504425
v 6.637920 6.535100 0.456839
v 6.637920 6.588834 0.456839
v 6.637920 6.535100 0.390218
v 6.637920 6.588834 0.390218
v 6.637920 6.535100 0.133254
v 6.637920 6.588834 0.133254
v 6.635759 6.403667 0.497417
v 6.635759 6.500166 0.497417
v 6.546901 6.403667 0.479742
v 6.546901 6.500166 0.479742
v 6.471570 6.403667 0.429407
v 6.471570 6.500166 0.429407
v 6.421236 6.403667 0.354077
v 6.421236 6.500166 0.354077
v 6.403561 6.403667 0.265218
v 6.403561 6.500166 0.265218
v 6.421236 6.403667 0.176360
v 6.421236 6.500166 0.176360
v 6.471570 6.403667 0.101030
v 6.471570 6.500166 0.101030
v 6.546901 6.403667 0.050695
v 6.546901 6.500166 0.050695
v 6.635759 6.403667 0.033020
v 6.635759 6.500166 0.033020
v 6.724617 6.403667 0.050695
v 6.724617 6.500166 0.050695
v 6.799948 6.403667 0.101030
v 6.799948 6.500166 0.101030
v 6.850282 6.403667 0.176360
v 6.850282 6.500166 0.176360
v 6.867957 6.403667 0.265218
v 6.867957 6.500166 0.265218
v 6.850282 6.403667 0.354077
v 6.850282 6.500166 0.354077
v 6.799948 6.403667 0.429407
v 6.799948 6.500166 0.429407
v 6.724617 6.403667 0.479742
v 6.724617 6.500166 0.479742
v 6.567491 6.500166 0.430032
v 6.635759 6.500166 0.443611
v 6.509616 6.500166 0.391361
v 6.470946 6.500166 0.333486
v 6.457366 6.500166 0.265218
v 6.470946 6.500166 0.196950
v 6.509616 6.500166 0.139076
v 6.567491 6.500166 0.100405
v 6.635759 6.500166 0.086825
v 6.704027 6.500166 0.100405
v 6.761902 6.500166 0.139076
v 6.800573 6.500166 0.196950
v 6.814152 6.500166 0.265218
v 6.800573 6.500166 0.333486
v 6.761902 6.500166 0.391361
v 6.704027 6.500166 0.430032
v 6.567491 6.537111 0.430032
v 6.635759 6.537111 0.443611
v 6.509616 6.537111 0.391361
v 6.470946 6.537111 0.333486
v 6.457366 6.537111 0.265218
v 6.470946 6.537111 0.196950
v 6.509616 6.537111 0.139076
v 6.567491 6.537111 0.100405
v 6.635759 6.537111 0.086825
v 6.704027 6.537111 0.100405
v 6.761902 6.537111 0.139076
v 6.800573 6.537111 0.196950
v 6.814152 6.537111 0.265218
v 6.800573 6.537111 0.333486
v 6.761902 6.537111 0.391361
v 6.704027 6.537111 0.430032
vn -0.707083 -0.707083 0.000000
vn 0.707083 -0.707083 0.000000
vn 0.577349 -0.577349 0.577349
vn -0.577349 -0.577349 0.577349
vn -0.904508 0.301492 0.301492
vn -0.577349 0.577349 0.577349
vn -0.707083 0.707083 0.000000
vn -0.904508 -0.301492 -0.301492
vn 0.577349 0.577349 0.577349
vn 0.707083 0.707083 0.000000
vn 0.904508 0.301492 -0.301492
vn 0.904508 -0.301492 0.301492
vn 0.577349 -0.577349 -0.577349
vn 0.577349 0.577349 -0.577349
vn -0.904508 -0.301492 0.301492
vn -0.904508 0.301492 -0.301492
vn 0.904508 0.301492 0.301492
vn 0.904508 -0.301492 -0.301492
vn -0.577349 -0.577349 -0.577349
vn -0.635243 0.556078 -0.535905
vn 0.635243 0.556078 -0.535905
vn -0.577349 0.577349 -0.577349
vn -0.646474 -0.663198 -0.377117
vn 0.646474 -0.663198 -0.377117
vn -0.646474 0.663198 -0.377117
vn 0.646474 0.663198 -0.377117
vn 0.635243 -0.556078 -0.535905
vn -0.635243 -0.556078 -0.535905
vn 0.000000 -0.707083 0.707083
vn -0.468917 -0.762841 0.445112
vn 0.000000 -0.986267 0.165136
vn -0.468917 0.762841 0.445112
vn 0.000000 0.707083 0.707083
vn 0.468917 0.762841 0.445112
vn 0.000000 0.986267 0.165136
vn 0.468917 -0.762841 0.445112
vn -0.385662 0.695791 0.605853
vn 0.642842 -0.639973 0.420881
vn 0.642842 0.639973 0.420881
vn 0.385662 0.695791 0.605853
vn 0.385662 -0.695791 0.605853
vn -0.385662 -0.695791 0.605853
vn 0.698080 -0.576800 -0.424177
vn 0.698080 0.576800 -0.424177
vn 0.000000 -1.000000 0.000000
vn -0.642842 0.639973 0.420881
vn -0.642842 -0.639973 0.420881
vn 0.000000 1.000000 0.000000
vn 0.000000 -0.658345 -0.752678
vn -0.698080 -0.576800 -0.424177
vn -0.698080 0.576800 -0.424177
vn 0.000000 0.658345 -0.752678
vn 0.000000 -0.665700 0.746178
vn 0.000000 0.665700 0.746178
vn -0.285531 0.665700 0.689383
vn -0.285531 -0.665700 0.689383
vn -0.527635 0.665700 0.527635
vn -0.527635 -0.665700 0.527635
vn -0.689383 0.665700 0.285531
vn -0.689383 -0.665700 0.285531
vn -0.746178 0.665700 0.000000
vn -0.746178 -0.665700 0.000000
vn -0.689383 0.665700 -0.285531
vn -0.689383 -0.665700 -0.285531
vn -0.527635 0.665700 -0.527635
vn -0.527635 -0.665700 -0.527635
vn -0.285531 0.665700 -0.689383
vn -0.285531 -0.665700 -0.689383
vn 0.000000 0.665700 -0.746178
vn 0.000000 -0.665700 -0.746178
vn 0.285531 0.665700 -0.689383
vn 0.285531 -0.665700 -0.689383
vn 0.527635 0.665700 -0.527635
vn 0.527635 -0.665700 -0.527635
vn 0.689383 0.665700 -0.285531
vn 0.689383 -0.665700 -0.285531
vn 0.746178 0.665700 0.000000
vn 0.746178 -0.665700 0.000000
vn 0.689383 0.665700 0.285531
vn 0.689383 -0.665700 0.285531
vn 0.527635 0.665700 0.527635
vn 0.527635 -0.665700 0.527635
vn 0.607105 0.753746 -0.251473
vn 0.464644 0.753746 -0.464644
vn 0.285531 -0.665700 0.689383
vn 0.285531 0.665700 0.689383
vn 0.000000 0.753746 0.657125
vn -0.251473 0.753746 0.607105
vn -0.464644 0.753746 0.464644
vn -0.607105 0.753746 0.251473
vn -0.657125 0.753746 0.000000
vn -0.607105 0.753746 -0.251473
vn -0.464644 0.753746 -0.464644
vn -0.251473 0.753746 -0.607105
vn 0.000000 0.753746 -0.657125
vn 0.251473 0.753746 -0.607105
vn 0.657125 0.753746 0.000000
vn 0.607105 0.753746 0.251473
vn 0.464644 0.753746 0.464644
vn 0.251473 0.753746 0.607105
usemtl 
s 1
f 2//1 1//2 5//3 6//4
f 10//5 7//6 3//7 11//8
f 7//6 8//9 4//10 3//7
f 1//2 15//11 14//12 5//3
f 15//11 1//2 17//13 23//14
f 14//12 9//15 6//4 5//3
f 6//4 9//15 12//16 2//1
f 9//15 10//5 11//8 12//16
f 8//9 13//17 16//18 4//10
f 13//17 14//12 15//11 16//18
f 21//19 24//13 16//18 11//8
f 15//11 12//16 11//8 16//18
f 8//9 7//6 10//5 13//17
f 30//20 29//21 13//17 10//5
f 24//13 21//19 19//22 20//14
f 17//13 18//19 22//22 23//14
f 24//13 20//14 4//10 16//18
f 11//8 3//7 19//22 21//19
f 12//16 15//11 23//14 22//22
f 22//22 18//19 2//1 12//16
f 20//14 19//22 3//7 4//10
f 1//2 2//1 18//19 17//13
f 27//9 26//6 25//4 28//3
f 33//23 35//24 28//3 25//4
f 36//25 33//23 25//4 26//6
f 35//24 34//26 27//9 28//3
f 36//25 34//26 29//21 30//20
f 9//15 14//12 31//27 32//28
f 10//5 9//15 32//28 30//20
f 14//12 13//17 29//21 31//27
f 26//6 27//9 34//26 36//25
f 30//20 32//28 33//23 36//25
f 32//28 31//27 35//24 33//23
f 31//27 29//21 34//26 35//24
f 57//29 42//4 38//30 58//31
f 42//4 43//6 39//32 38//30
f 59//33 44//9 40//34 60//35
f 44//9 41//3 37//36 40//34
f 62//35 47//37 39//32 60//35
f 59//33 43//6 42//4 57//29
f 49//38 52//39 48//40 45//41
f 61//31 45//41 37//36 58//31
f 47//37 46//42 38//30 39//32
f 45//41 48//40 40//34 37//36
f 53//43 56//44 52//39 49//38
f 63//45 49//38 45//41 61//31
f 51//46 50//47 46//42 47//37
f 64//48 51//46 47//37 62//35
f 65//49 54//50 55//51 66//52
f 65//49 53//43 49//38 63//45
f 55//51 54//50 50//47 51//46
f 66//52 55//51 51//46 64//48
f 41//3 57//29 58//31 37//36
f 43//6 59//33 60//35 39//32
f 48//40 62//35 60//35 40//34
f 44//9 59//33 57//29 41//3
f 46//42 61//31 58//31 38//30
f 50//47 63//45 61//31 46//42
f 52//39 64//48 62//35 48//40
f 53//43 65//49 66//52 56//44
f 54//50 65//49 63//45 50//47
f 56//44 66//52 64//48 52//39
f 67//53 68//54 70//55 69//56
f 69//56 70//55 72//57 71//58
f 71//58 72//57 74//59 73//60
f 73//60 74//59 76//61 75//62
f 75//62 76//61 78//63 77//64
f 77//64 78//63 80//65 79//66
f 79//66 80//65 82//67 81//68
f 81//68 82//67 84//69 83//70
f 83//70 84//69 86//71 85//72
f 85//72 86//71 88//73 87//74
f 87//74 88//73 90//75 89//76
f 89//76 90//75 92//77 91//78
f 91//78 92//77 94//79 93//80
f 93//80 94//79 96//81 95//82
f 110//83 109//84 125//73 126//75
f 97//85 98//86 68//54 67//53
f 95//82 96//81 98//86 97//85
f 67//53 69//56 97//85
f 69//56 95//82 97//85
f 69//56 71//58 95//82
f 71//58 93//80 95//82
f 71//58 73//60 93//80
f 73//60 91//78 93//80
f 73//60 75//62 91//78
f 75//62 89//76 91//78
f 75//62 77//64 89//76
f 77//64 87//74 89//76
f 77//64 79//66 87//74
f 79//66 85//72 87//74
f 79//66 81//68 85//72
f 81//68 83//70 85//72
f 100//87 99//88 70//55 68//54
f 99//88 101//89 72//57 70//55
f 101//89 102//90 74//59 72//57
f 102//90 103//91 76//61 74//59
f 103//91 104//92 78//63 76//61
f 104//92 105//93 80//65 78//63
f 105//93 106//94 82//67 80//65
f 106//94 107//95 84//69 82//67
f 107//95 108//96 86//71 84//69
f 108//96 109//84 88//73 86//71
f 109//84 110//83 90//75 88//73
f 110//83 111//97 92//77 90//75
f 111//97 112//98 94//79 92//77
f 112//98 113//99 96//81 94//79
f 113//99 114//100 98//86 96//81
f 114//100 100//87 68//54 98//86
f 115//55 116//54 130//86
f 115//55 130//86 129//81
f 115//55 129//81 117//57
f 129//81 128//79 117//57
f 128//79 118//59 117//57
f 128//79 127//77 118//59
f 127//77 119//61 118//59
f 127//77 126//75 119//61
f 126//75 120//63 119//61
f 126//75 125//73 120//63
f 125//73 121//65 120//63
f 125//73 124//71 121//65
f 124//71 122//67 121//65
f 124//71 123//69 122//67
f 104//92 103//91 119//61 120//63
f 111//97 110//83 126//75 127//77
f 105//93 104//92 120//63 121//65
f 112//98 111//97 127//77 128//79
f 106//94 105//93 121//65 122//67
f 99//88 100//87 116//54 115//55
f 113//99 112//98 128//79 129//81
f 107//95 106//94 122//67 123//69
f 101//89 99//88 115//55 117//57
f 114//100 113//99 129//81 130//86
f 108//96 107//95 123//69 124//71
f 102//90 101//89 117//57 118//59
f 100//87 114//100 130//86 116//54
f 109//84 108//96 124//71 125//73
f 103//91 102//90 118//59 119//61
