# Rhino

g ______01
o object_1
v 5.928 6.799 0.3911
v 6.593 6.412 0.3911
v 7.258 6.025 0.3911
v 5.291 6.434 0.02719
v 7.255 5.291 0.02719
v 5.946 6.053 0.02719
v 6.601 5.672 0.02719
v 6.433 6.137 0.2092
v 7.258 6.025 0.3911
v 7.925 6.408 0.3911
v 8.593 6.79 0.3911
v 7.255 5.291 0.02719
v 9.228 6.421 0.02719
v 7.913 5.668 0.02719
v 8.57 6.044 0.02719
v 8.593 6.79 0.3911
v 8.596 7.559 0.3911
v 8.598 8.329 0.3911
v 9.228 6.421 0.02719
v 9.236 8.694 0.02719
v 9.23 7.178 0.02719
v 9.233 7.936 0.02719
v 8.914 7.558 0.2092
v 8.598 8.329 0.3911
v 7.933 8.716 0.3911
v 7.269 9.102 0.3911
v 9.236 8.694 0.02719
v 7.271 9.837 0.02719
v 8.581 9.075 0.02719
v 7.926 9.456 0.02719
v 8.093 8.99 0.2092
v 7.269 9.102 0.3911
v 5.933 8.338 0.3911
v 7.271 9.837 0.02719
v 5.299 8.707 0.02719
v 6.285 9.272 0.02719
v 5.933 8.338 0.3911
v 5.931 7.568 0.3911
v 5.928 6.799 0.3911
v 5.299 8.707 0.02719
v 5.291 6.434 0.02719
v 5.296 7.95 0.02719
v 5.294 7.192 0.02719
v 5.291 6.434 0.02719
v 5.946 6.053 0.02719
v 6.601 5.672 0.02719
v 7.255 5.291 0.02719
v 7.913 5.668 0.02719
v 8.57 6.044 0.02719
v 9.228 6.421 0.02719
v 9.23 7.178 0.02719
v 9.233 7.936 0.02719
v 9.236 8.694 0.02719
v 8.581 9.075 0.02719
v 7.926 9.456 0.02719
v 7.271 9.837 0.02719
v 6.285 9.272 0.02719
v 5.299 8.707 0.02719
v 5.296 7.95 0.02719
v 5.294 7.192 0.02719
v 5.928 6.799 0.3911
v 6.593 6.412 0.3911
v 7.258 6.025 0.3911
v 7.925 6.408 0.3911
v 8.593 6.79 0.3911
v 8.596 7.559 0.3911
v 8.598 8.329 0.3911
v 7.933 8.716 0.3911
v 7.269 9.102 0.3911
v 5.933 8.338 0.3911
v 5.931 7.568 0.3911
vn -0.2498 -0.4293 0.8679
vn -0.2498 -0.4293 0.8679
vn -0.2498 -0.4293 0.8679
vn -0.2498 -0.4293 0.8679
vn -0.2498 -0.4293 0.8679
vn -0.2498 -0.4293 0.8679
vn -0.2498 -0.4293 0.8679
vn -0.2498 -0.4293 0.8679
vn 0.2469 -0.431 0.8679
vn 0.2469 -0.431 0.8679
vn 0.2469 -0.431 0.8679
vn 0.2469 -0.431 0.8679
vn 0.2469 -0.431 0.8679
vn 0.2469 -0.431 0.8679
vn 0.2469 -0.431 0.8679
vn 0.4967 -0.001717 0.8679
vn 0.4967 -0.001717 0.8679
vn 0.4967 -0.001717 0.8679
vn 0.4967 -0.001717 0.8679
vn 0.4967 -0.001717 0.8679
vn 0.4967 -0.001717 0.8679
vn 0.4967 -0.001717 0.8679
vn 0.4967 -0.001717 0.8679
vn 0.2498 0.4293 0.8679
vn 0.2498 0.4293 0.8679
vn 0.2498 0.4293 0.8679
vn 0.2498 0.4293 0.8679
vn 0.2498 0.4293 0.8679
vn 0.2498 0.4293 0.8679
vn 0.2498 0.4293 0.8679
vn 0.2498 0.4293 0.8679
vn -0.2469 0.431 0.8679
vn -0.2469 0.431 0.8679
vn -0.2469 0.431 0.8679
vn -0.2469 0.431 0.8679
vn -0.2469 0.431 0.8679
vn -0.4967 0.001717 0.8679
vn -0.4967 0.001717 0.8679
vn -0.4967 0.001717 0.8679
vn -0.4967 0.001717 0.8679
vn -0.4967 0.001717 0.8679
vn -0.4967 0.001717 0.8679
vn -0.4967 0.001717 0.8679
vn 0 0 -1
vn 0 0 -1
vn 0 0 -1
vn 0 0 -1
vn 0 0 -1
vn 0 0 -1
vn 0 0 -1
vn 0 0 -1
vn 0 0 -1
vn 0 0 -1
vn 0 0 -1
vn 0 0 -1
vn 0 0 -1
vn 0 0 -1
vn 0 0 -1
vn 0 0 -1
vn 0 0 -1
vn 0 0 1
vn 0 0 1
vn 0 0 1
vn 0 0 1
vn 0 0 1
vn 0 0 1
vn 0 0 1
vn 0 0 1
vn 0 0 1
vn 0 0 1
vn 0 0 1
f 8//8 2//2 1//1
f 5//5 3//3 8//8
f 2//2 8//8 3//3
f 8//8 1//1 4//4
f 8//8 4//4 6//6
f 8//8 7//7 5//5
f 8//8 6//6 7//7
f 10//10 9//9 12//12 14//14
f 11//11 10//10 15//15 13//13
f 10//10 14//14 15//15
f 23//23 17//17 16//16
f 20//20 18//18 23//23
f 17//17 23//23 18//18
f 23//23 16//16 19//19
f 23//23 19//19 21//21
f 23//23 22//22 20//20
f 23//23 21//21 22//22
f 31//31 25//25 24//24
f 28//28 26//26 31//31
f 25//25 31//31 26//26
f 31//31 24//24 27//27
f 31//31 27//27 29//29
f 31//31 30//30 28//28
f 31//31 29//29 30//30
f 36//36 33//33 32//32
f 32//32 34//34 36//36
f 33//33 36//36 35//35
f 38//38 37//37 40//40 42//42
f 39//39 38//38 43//43 41//41
f 38//38 42//42 43//43
f 60//60 59//59 48//48
f 60//60 45//45 44//44
f 51//51 59//59 57//57
f 57//57 59//59 58//58
f 57//57 56//56 55//55
f 55//55 54//54 57//57
f 60//60 48//48 45//45
f 48//48 47//47 46//46
f 48//48 59//59 49//49
f 59//59 51//51 49//49
f 52//52 54//54 53//53
f 54//54 52//52 57//57
f 57//57 52//52 51//51
f 51//51 50//50 49//49
f 45//45 48//48 46//46
f 69//69 71//71 61//61
f 70//70 71//71 69//69
f 68//68 69//69 61//61 62//62
f 64//64 62//62 63//63
f 67//67 62//62 64//64
f 67//67 64//64 66//66
f 65//65 66//66 64//64
f 68//68 62//62 67//67
o object_2
v 2.275 8.442 0.3921
v 2.264 6.778 0.3921
v 1.871 8.553 0.01065
v 1.859 6.672 0.01065
v 1.867 7.926 0.01065
v 1.863 7.299 0.01065
v 2.268 7.333 0.3921
v 2.271 7.887 0.3921
v 2.264 6.778 0.3921
v 3.087 5.332 0.3921
v 1.859 6.672 0.01065
v 2.789 5.038 0.01065
v 2.324 5.855 0.01065
v 2.675 6.055 0.3921
v 3.087 5.332 0.3921
v 4.522 4.491 0.3921
v 2.789 5.038 0.01065
v 4.412 4.087 0.01065
v 3.6 4.563 0.01065
v 3.805 4.911 0.3921
v 4.522 4.491 0.3921
v 6.186 4.48 0.3921
v 4.412 4.087 0.01065
v 6.292 4.076 0.01065
v 5.038 4.084 0.01065
v 5.665 4.08 0.01065
v 5.632 4.484 0.3921
v 5.077 4.487 0.3921
v 6.186 4.48 0.3921
v 7.632 5.303 0.3921
v 6.292 4.076 0.01065
v 7.926 5.006 0.01065
v 7.109 4.541 0.01065
v 6.909 4.892 0.3921
v 7.632 5.303 0.3921
v 8.473 6.739 0.3921
v 7.926 5.006 0.01065
v 8.877 6.628 0.01065
v 8.243 5.546 0.01065
v 8.56 6.087 0.01065
v 8.193 6.26 0.3921
v 7.913 5.782 0.3921
v 8.473 6.739 0.3921
v 8.484 8.403 0.3921
v 8.877 6.628 0.01065
v 8.889 8.508 0.01065
v 8.881 7.255 0.01065
v 8.885 7.882 0.01065
v 8.48 7.848 0.3921
v 8.477 7.293 0.3921
v 8.484 8.403 0.3921
v 7.661 9.849 0.3921
v 8.889 8.508 0.01065
v 7.959 10.14 0.01065
v 8.579 9.053 0.01065
v 8.269 9.598 0.01065
v 7.935 9.367 0.3921
v 8.21 8.885 0.3921
v 7.661 9.849 0.3921
v 6.225 10.69 0.3921
v 7.959 10.14 0.01065
v 6.336 11.09 0.01065
v 7.148 10.62 0.01065
v 6.943 10.27 0.3921
v 6.225 10.69 0.3921
v 4.562 10.7 0.3921
v 6.336 11.09 0.01065
v 4.456 11.11 0.01065
v 5.709 11.1 0.01065
v 5.083 11.1 0.01065
v 5.116 10.7 0.3921
v 5.671 10.69 0.3921
v 4.562 10.7 0.3921
v 3.116 9.877 0.3921
v 4.456 11.11 0.01065
v 2.822 10.18 0.01065
v 3.911 10.8 0.01065
v 3.366 10.49 0.01065
v 3.598 10.15 0.3921
v 4.08 10.43 0.3921
v 3.116 9.877 0.3921
v 2.275 8.442 0.3921
v 2.822 10.18 0.01065
v 1.871 8.553 0.01065
v 2.346 9.364 0.01065
v 2.695 9.16 0.3921
v 1.871 8.553 0.01065
v 1.867 7.926 0.01065
v 1.863 7.299 0.01065
v 1.859 6.672 0.01065
v 2.324 5.855 0.01065
v 2.789 5.038 0.01065
v 3.6 4.563 0.01065
v 4.412 4.087 0.01065
v 5.038 4.084 0.01065
v 5.665 4.08 0.01065
v 6.292 4.076 0.01065
v 7.109 4.541 0.01065
v 7.926 5.006 0.01065
v 8.243 5.546 0.01065
v 8.56 6.087 0.01065
v 8.877 6.628 0.01065
v 8.881 7.255 0.01065
v 8.885 7.882 0.01065
v 8.889 8.508 0.01065
v 8.579 9.053 0.01065
v 8.269 9.598 0.01065
v 7.959 10.14 0.01065
v 7.148 10.62 0.01065
v 6.336 11.09 0.01065
v 5.709 11.1 0.01065
v 5.083 11.1 0.01065
v 4.456 11.11 0.01065
v 3.911 10.8 0.01065
v 3.366 10.49 0.01065
v 2.822 10.18 0.01065
v 2.346 9.364 0.01065
v 2.275 8.442 0.3921
v 2.271 7.887 0.3921
v 2.268 7.333 0.3921
v 2.264 6.778 0.3921
v 2.675 6.055 0.3921
v 3.087 5.332 0.3921
v 3.805 4.911 0.3921
v 4.522 4.491 0.3921
v 5.077 4.487 0.3921
v 5.632 4.484 0.3921
v 6.186 4.48 0.3921
v 6.909 4.892 0.3921
v 7.632 5.303 0.3921
v 7.913 5.782 0.3921
v 8.193 6.26 0.3921
v 8.473 6.739 0.3921
v 8.477 7.293 0.3921
v 8.48 7.848 0.3921
v 8.484 8.403 0.3921
v 8.21 8.885 0.3921
v 7.935 9.367 0.3921
v 7.661 9.849 0.3921
v 6.943 10.27 0.3921
v 6.225 10.69 0.3921
v 5.671 10.69 0.3921
v 5.116 10.7 0.3921
v 4.562 10.7 0.3921
v 4.08 10.43 0.3921
v 3.598 10.15 0.3921
v 3.116 9.877 0.3921
v 2.695 9.16 0.3921
vn -0.6864 0.004332 0.7272
vn -0.6864 0.004332 0.7272
vn -0.6864 0.004332 0.7272
vn -0.6864 0.004332 0.7272
vn -0.6864 0.004332 0.7272
vn -0.6864 0.004332 0.7272
vn -0.6864 0.004332 0.7272
vn -0.6864 0.004332 0.7272
vn -0.5966 -0.3395 0.7272
vn -0.5966 -0.3395 0.7272
vn -0.5966 -0.3395 0.7272
vn -0.5966 -0.3395 0.7272
vn -0.5966 -0.3395 0.7272
vn -0.5966 -0.3395 0.7272
vn -0.347 -0.5923 0.7272
vn -0.347 -0.5923 0.7272
vn -0.347 -0.5923 0.7272
vn -0.347 -0.5923 0.7272
vn -0.347 -0.5923 0.7272
vn -0.347 -0.5923 0.7272
vn -0.004332 -0.6864 0.7272
vn -0.004332 -0.6864 0.7272
vn -0.004332 -0.6864 0.7272
vn -0.004332 -0.6864 0.7272
vn -0.004332 -0.6864 0.7272
vn -0.004332 -0.6864 0.7272
vn -0.004332 -0.6864 0.7272
vn -0.004332 -0.6864 0.7272
vn 0.3395 -0.5966 0.7272
vn 0.3395 -0.5966 0.7272
vn 0.3395 -0.5966 0.7272
vn 0.3395 -0.5966 0.7272
vn 0.3395 -0.5966 0.7272
vn 0.3395 -0.5966 0.7272
vn 0.5923 -0.347 0.7272
vn 0.5923 -0.347 0.7272
vn 0.5923 -0.347 0.7272
vn 0.5923 -0.347 0.7272
vn 0.5923 -0.347 0.7272
vn 0.5923 -0.347 0.7272
vn 0.5923 -0.347 0.7272
vn 0.5923 -0.347 0.7272
vn 0.6864 -0.004332 0.7272
vn 0.6864 -0.004332 0.7272
vn 0.6864 -0.004332 0.7272
vn 0.6864 -0.004332 0.7272
vn 0.6864 -0.004332 0.7272
vn 0.6864 -0.004332 0.7272
vn 0.6864 -0.004332 0.7272
vn 0.6864 -0.004332 0.7272
vn 0.5966 0.3395 0.7272
vn 0.5966 0.3395 0.7272
vn 0.5966 0.3395 0.7272
vn 0.5966 0.3395 0.7272
vn 0.5966 0.3395 0.7272
vn 0.5966 0.3395 0.7272
vn 0.5966 0.3395 0.7272
vn 0.5966 0.3395 0.7272
vn 0.347 0.5923 0.7272
vn 0.347 0.5923 0.7272
vn 0.347 0.5923 0.7272
vn 0.347 0.5923 0.7272
vn 0.347 0.5923 0.7272
vn 0.347 0.5923 0.7272
vn 0.004332 0.6864 0.7272
vn 0.004332 0.6864 0.7272
vn 0.004332 0.6864 0.7272
vn 0.004332 0.6864 0.7272
vn 0.004332 0.6864 0.7272
vn 0.004332 0.6864 0.7272
vn 0.004332 0.6864 0.7272
vn 0.004332 0.6864 0.7272
vn -0.3395 0.5966 0.7272
vn -0.3395 0.5966 0.7272
vn -0.3395 0.5966 0.7272
vn -0.3395 0.5966 0.7272
vn -0.3395 0.5966 0.7272
vn -0.3395 0.5966 0.7272
vn -0.3395 0.5966 0.7272
vn -0.3395 0.5966 0.7272
vn -0.5923 0.347 0.7272
vn -0.5923 0.347 0.7272
vn -0.5923 0.347 0.7272
vn -0.5923 0.347 0.7272
vn -0.5923 0.347 0.7272
vn -0.5923 0.347 0.7272
vn 0 0 -1
vn 0 0 -1
vn 0 0 -1
vn 0 0 -1
vn 0 0 -1
vn 0 0 -1
vn 0 0 -1
vn 0 0 -1
vn 0 0 -1
vn 0 0 -1
vn 0 0 -1
vn 0 0 -1
vn 0 0 -1
vn 0 0 -1
vn 0 0 -1
vn 0 0 -1
vn 0 0 -1
vn 0 0 -1
vn 0 0 -1
vn 0 0 -1
vn 0 0 -1
vn 0 0 -1
vn 0 0 -1
vn 0 0 -1
vn 0 0 -1
vn 0 0 -1
vn 0 0 -1
vn 0 0 -1
vn 0 0 -1
vn 0 0 -1
vn 0 0 -1
vn 0 0 1
vn 0 0 1
vn 0 0 1
vn 0 0 1
vn 0 0 1
vn 0 0 1
vn 0 0 1
vn 0 0 1
vn 0 0 1
vn 0 0 1
vn 0 0 1
vn 0 0 1
vn 0 0 1
vn 0 0 1
vn 0 0 1
vn 0 0 1
vn 0 0 1
vn 0 0 1
vn 0 0 1
vn 0 0 1
vn 0 0 1
vn 0 0 1
vn 0 0 1
vn 0 0 1
vn 0 0 1
vn 0 0 1
vn 0 0 1
vn 0 0 1
vn 0 0 1
vn 0 0 1
vn 0 0 1
f 79//79 72//72 74//74 76//76
f 73//73 78//78 77//77 75//75
f 78//78 79//79 76//76 77//77
f 85//85 80//80 82//82 84//84
f 81//81 85//85 84//84 83//83
f 91//91 86//86 88//88 90//90
f 87//87 91//91 90//90 89//89
f 99//99 92//92 94//94 96//96
f 93//93 98//98 97//97 95//95
f 98//98 99//99 96//96 97//97
f 105//105 100//100 102//102 104//104
f 101//101 105//105 104//104 103//103
f 113//113 106//106 108//108 110//110
f 107//107 112//112 111//111 109//109
f 112//112 113//113 110//110 111//111
f 121//121 114//114 116//116 118//118
f 115//115 120//120 119//119 117//117
f 120//120 121//121 118//118 119//119
f 129//129 122//122 124//124 126//126
f 123//123 128//128 127//127 125//125
f 128//128 129//129 126//126 127//127
f 135//135 130//130 132//132 134//134
f 131//131 135//135 134//134 133//133
f 143//143 136//136 138//138 140//140
f 137//137 142//142 141//141 139//139
f 142//142 143//143 140//140 141//141
f 151//151 144//144 146//146 148//148
f 145//145 150//150 149//149 147//147
f 150//150 151//151 148//148 149//149
f 157//157 152//152 154//154 156//156
f 153//153 157//157 156//156 155//155
f 184//184 183//183 185//185
f 186//186 185//185 188//188
f 188//188 159//159 158//158
f 180//180 188//188 185//185
f 188//188 187//187 186//186
f 164//164 188//188 180//180
f 180//180 183//183 182//182
f 182//182 181//181 180//180
f 183//183 180//180 185//185
f 178//178 180//180 179//179
f 177//177 180//180 178//178
f 180//180 177//177 175//175
f 176//176 175//175 177//177
f 159//159 188//188 160//160
f 162//162 161//161 160//160
f 162//162 188//188 164//164
f 163//163 162//162 164//164
f 166//166 165//165 164//164
f 164//164 167//167 166//166
f 180//180 169//169 164//164
f 164//164 169//169 167//167
f 172//172 169//169 174//174
f 175//175 174//174 169//169
f 172//172 174//174 173//173
f 172//172 171//171 169//169
f 169//169 171//171 170//170
f 175//175 169//169 180//180
f 169//169 168//168 167//167
f 160//160 188//188 162//162
f 214//214 215//215 216//216
f 216//216 211//211 214//214
f 211//211 216//216 219//219
f 219//219 217//217 218//218
f 219//219 216//216 217//217
f 211//211 219//219 195//195
f 211//211 212//212 213//213
f 211//211 209//209 210//210
f 211//211 213//213 214//214
f 208//208 209//209 211//211
f 208//208 206//206 207//207
f 208//208 211//211 206//206
f 206//206 211//211 205//205
f 190//190 219//219 189//189
f 193//193 190//190 191//191
f 191//191 192//192 193//193
f 193//193 195//195 219//219
f 200//200 211//211 195//195
f 195//195 196//196 197//197
f 194//194 195//195 193//193
f 197//197 198//198 195//195
f 203//203 200//200 202//202
f 203//203 204//204 205//205
f 205//205 200//200 203//203
f 200//200 198//198 199//199
f 200//200 201//201 202//202
f 205//205 211//211 200//200
f 200//200 195//195 198//198
f 190//190 193//193 219//219
o object_3
v 4.102 8.257 0.8054
v 4.102 6.954 0.8054
v 3.659 8.477 0.3855
v 3.659 6.733 0.3855
v 3.88 8.368 0.5954
v 3.659 8.046 0.3855
v 3.659 7.607 0.3855
v 3.659 7.167 0.3855
v 3.88 6.843 0.5954
v 4.102 7.607 0.8054
v 4.102 6.954 0.8054
v 4.855 6.072 0.8054
v 3.659 6.733 0.3855
v 4.671 5.601 0.3855
v 3.88 6.843 0.5954
v 3.912 6.433 0.3855
v 4.165 6.143 0.3855
v 4.418 5.865 0.3855
v 4.763 5.831 0.5954
v 4.666 6.285 0.8054
v 4.478 6.504 0.8054
v 4.29 6.727 0.8054
v 4.855 6.072 0.8054
v 5.92 6.072 0.8054
v 4.671 5.601 0.3855
v 6.103 5.6 0.3855
v 4.763 5.831 0.5954
v 5.029 5.601 0.3855
v 5.387 5.601 0.3855
v 5.745 5.601 0.3855
v 6.011 5.831 0.5954
v 5.387 6.072 0.8054
v 5.92 6.072 0.8054
v 6.673 6.954 0.8054
v 6.103 5.6 0.3855
v 7.116 6.732 0.3855
v 6.011 5.831 0.5954
v 6.609 6.143 0.3855
v 6.296 6.503 0.8054
v 6.673 6.954 0.8054
v 6.673 8.257 0.8054
v 7.116 6.732 0.3855
v 7.116 8.476 0.3855
v 7.116 7.166 0.3855
v 7.116 7.607 0.3855
v 7.116 8.046 0.3855
v 6.894 8.367 0.5954
v 6.673 7.607 0.8054
v 6.673 8.257 0.8054
v 5.92 9.127 0.8054
v 7.116 8.476 0.3855
v 6.104 9.588 0.3855
v 6.894 8.367 0.5954
v 6.863 8.772 0.3855
v 6.61 9.057 0.3855
v 6.357 9.33 0.3855
v 6.058 9.477 0.4905
v 6.012 9.363 0.5954
v 6.108 8.918 0.8054
v 6.296 8.703 0.8054
v 6.485 8.482 0.8054
v 5.92 9.127 0.8054
v 4.855 9.127 0.8054
v 6.012 9.363 0.5954
v 6.058 9.477 0.4905
v 6.104 9.588 0.3855
v 4.672 9.588 0.3855
v 5.388 9.588 0.3855
v 4.763 9.363 0.5954
v 4.855 9.127 0.8054
v 4.102 8.257 0.8054
v 4.763 9.363 0.5954
v 3.88 8.368 0.5954
v 4.672 9.588 0.3855
v 3.659 8.477 0.3855
v 4.418 9.33 0.3855
v 4.165 9.058 0.3855
v 3.912 8.772 0.3855
v 4.29 8.482 0.8054
v 4.478 8.703 0.8054
v 4.667 8.918 0.8054
v 3.659 8.477 0.3855
v 3.659 8.046 0.3855
v 3.659 7.607 0.3855
v 3.659 7.167 0.3855
v 3.659 6.733 0.3855
v 3.912 6.433 0.3855
v 4.165 6.143 0.3855
v 4.418 5.865 0.3855
v 4.671 5.601 0.3855
v 5.029 5.601 0.3855
v 5.387 5.601 0.3855
v 5.745 5.601 0.3855
v 6.103 5.6 0.3855
v 6.609 6.143 0.3855
v 7.116 6.732 0.3855
v 7.116 7.166 0.3855
v 7.116 7.607 0.3855
v 7.116 8.046 0.3855
v 7.116 8.476 0.3855
v 6.863 8.772 0.3855
v 6.61 9.057 0.3855
v 6.357 9.33 0.3855
v 6.104 9.588 0.3855
v 5.388 9.588 0.3855
v 4.672 9.588 0.3855
v 4.418 9.33 0.3855
v 4.165 9.058 0.3855
v 3.912 8.772 0.3855
v 4.102 8.257 0.8054
v 4.102 7.607 0.8054
v 4.102 6.954 0.8054
v 4.29 6.727 0.8054
v 4.478 6.504 0.8054
v 4.666 6.285 0.8054
v 4.855 6.072 0.8054
v 5.387 6.072 0.8054
v 5.92 6.072 0.8054
v 6.296 6.503 0.8054
v 6.673 6.954 0.8054
v 6.673 7.607 0.8054
v 6.673 8.257 0.8054
v 6.485 8.482 0.8054
v 6.296 8.703 0.8054
v 6.108 8.918 0.8054
v 5.92 9.127 0.8054
v 4.855 9.127 0.8054
v 4.667 8.918 0.8054
v 4.478 8.703 0.8054
v 4.29 8.482 0.8054
vn -0.6879 6.956e-05 0.7258
vn -0.6879 6.904e-05 0.7258
vn -0.6879 7.071e-05 0.7258
vn -0.6879 6.998e-05 0.7258
vn -0.6879 7.01e-05 0.7258
vn -0.6879 6.878e-05 0.7258
vn -0.6879 6.805e-05 0.7258
vn -0.6879 6.843e-05 0.7258
vn -0.6879 6.947e-05 0.7258
vn -0.6879 6.805e-05 0.7258
vn -0.5061 -0.4169 0.755
vn -0.498 -0.4474 0.7429
vn -0.5049 -0.4216 0.7532
vn -0.4878 -0.4821 0.7277
vn -0.5056 -0.419 0.7542
vn -0.5025 -0.4308 0.7496
vn -0.499 -0.4436 0.7444
vn -0.4943 -0.4605 0.7373
vn -0.4936 -0.4629 0.7363
vn -0.5009 -0.4368 0.7472
vn -0.5031 -0.4283 0.7506
vn -0.5049 -0.4217 0.7532
vn -8.789e-05 -0.6485 0.7612
vn -8.788e-05 -0.6485 0.7612
vn -8.425e-05 -0.6837 0.7297
vn -8.425e-05 -0.6837 0.7297
vn -8.628e-05 -0.6645 0.7473
vn -8.425e-05 -0.6837 0.7297
vn -8.425e-05 -0.6837 0.7297
vn -8.425e-05 -0.6837 0.7297
vn -8.628e-05 -0.6645 0.7473
vn -8.789e-05 -0.6485 0.7612
vn 0.4978 -0.4475 0.7429
vn 0.506 -0.417 0.755
vn 0.4877 -0.4822 0.7277
vn 0.5048 -0.4217 0.7532
vn 0.4934 -0.463 0.7363
vn 0.4989 -0.4437 0.7444
vn 0.503 -0.4285 0.7506
vn 0.6879 -6.904e-05 0.7258
vn 0.6879 -6.956e-05 0.7258
vn 0.6879 -6.998e-05 0.7258
vn 0.6879 -7.071e-05 0.7258
vn 0.6879 -6.843e-05 0.7258
vn 0.6879 -6.805e-05 0.7258
vn 0.6879 -6.878e-05 0.7258
vn 0.6879 -7.009e-05 0.7258
vn 0.6879 -6.805e-05 0.7258
vn 0.5054 0.4195 0.754
vn 0.4957 0.4544 0.7401
vn 0.504 0.4252 0.7518
vn 0.4864 0.4897 0.7236
vn 0.5048 0.4221 0.753
vn 0.5011 0.4359 0.7476
vn 0.4972 0.4503 0.7417
vn 0.4914 0.4694 0.7336
vn 0.4878 0.4813 0.7283
vn 0.4907 0.4721 0.7324
vn 0.4993 0.4427 0.7448
vn 0.5019 0.433 0.7487
vn 0.5039 0.4254 0.7517
vn 8.713e-05 0.656 0.7548
vn 8.713e-05 0.656 0.7548
vn 8.529e-05 0.6735 0.7392
vn 8.43e-05 0.684 0.7295
vn 8.374e-05 0.6875 0.7262
vn 8.373e-05 0.6875 0.7262
vn 8.373e-05 0.6875 0.7262
vn 8.529e-05 0.6735 0.7392
vn -0.4959 0.4549 0.7397
vn -0.5053 0.4196 0.754
vn -0.491 0.4722 0.7321
vn -0.5046 0.4223 0.753
vn -0.4836 0.4899 0.7254
vn -0.5038 0.4254 0.7518
vn -0.4921 0.4696 0.7331
vn -0.4969 0.4506 0.7416
vn -0.501 0.436 0.7476
vn -0.5038 0.4255 0.7518
vn -0.5018 0.4332 0.7487
vn -0.4991 0.4429 0.7448
vn 3.704e-17 9.754e-17 -1
vn 5.241e-17 1.568e-16 -1
vn 6.165e-17 1.001e-16 -1
vn 8.705e-17 -5.035e-17 -1
vn 1.048e-16 -1.236e-16 -1
vn 5.034e-17 -1.692e-16 -1
vn 4.699e-17 -4.642e-17 -1
vn 1.85e-17 8.471e-17 -1
vn 1.236e-17 2.559e-16 -1
vn -1.23e-17 2.254e-16 -1
vn -2.463e-17 1.706e-16 -1
vn -2.461e-17 3.899e-16 -1
vn -2.461e-17 3.412e-16 -1
vn -6.006e-21 -4.385e-17 -1
vn -2.402e-20 -1.647e-16 -1
vn -1.276e-20 -8.558e-17 -1
vn 1.202e-20 8.008e-17 -1
vn 2.33e-20 1.568e-16 -1
vn 1.409e-20 9.754e-17 -1
vn 1.85e-17 5.365e-17 -1
vn 1.152e-17 -2.402e-16 -1
vn -3.707e-17 6.905e-17 -1
vn -2.464e-17 1.001e-16 -1
vn -2.465e-17 3.048e-21 -1
vn 1.232e-17 -2.503e-17 -1
vn 2.417e-17 -2.009e-17 -1
vn 2.861e-18 -3.384e-17 -1
vn 5.169e-17 -1.119e-17 -1
vn 7.119e-16 -2.048e-16 1
vn 6.903e-16 -3.204e-16 1
vn 6.903e-16 -8.132e-17 1
vn 6.491e-16 2.517e-16 1
vn 4.978e-16 3.972e-16 1
vn 2.158e-16 6.56e-16 1
vn 1.727e-16 9.057e-16 1
vn -1.478e-16 9.528e-16 1
vn -2.957e-16 8.42e-16 1
vn -3.451e-16 2.1e-16 1
vn -1.972e-16 -8.123e-17 1
vn -2.712e-16 -3.203e-16 1
vn -3.02e-16 -2.047e-16 1
vn -4.099e-16 -1.665e-16 1
vn -4.08e-16 -5.315e-17 1
vn -3.499e-16 1.463e-16 1
vn -2.958e-16 4.07e-16 1
vn 1.357e-16 4.296e-16 1
vn 1.938e-16 2.514e-16 1
vn 4.047e-16 9.81e-17 1
vn 5.38e-16 -2.156e-16 1
f 229//229 220//220 224//224
f 221//221 229//229 228//228
f 224//224 228//228 229//229
f 228//228 224//224 226//226
f 224//224 222//222 225//225
f 228//228 226//226 227//227
f 228//228 227//227 223//223
f 224//224 225//225 226//226
f 241//241 234//234 240//240
f 234//234 238//238 240//240
f 231//231 239//239 238//238
f 240//240 238//238 239//239
f 234//234 241//241 230//230
f 235//235 234//234 232//232
f 236//236 234//234 235//235
f 236//236 237//237 238//238
f 237//237 233//233 238//238
f 236//236 238//238 234//234
f 251//251 242//242 246//246
f 243//243 251//251 250//250
f 251//251 249//249 250//250
f 247//247 251//251 246//246
f 246//246 244//244 247//247
f 251//251 248//248 249//249
f 250//250 249//249 245//245
f 251//251 247//247 248//248
f 256//256 258//258 252//252
f 256//256 253//253 258//258
f 257//257 256//256 254//254
f 256//256 257//257 255//255
f 253//253 256//256 255//255
f 264//264 266//266 267//267
f 267//267 266//266 260//260
f 267//267 259//259 263//263 264//264
f 259//259 261//261 263//263
f 266//266 264//264 265//265
f 266//266 265//265 262//262
f 280//280 268//268 272//272
f 279//279 280//280 273//273 274//274
f 278//278 279//279 274//274 275//275
f 278//278 277//277 269//269
f 280//280 272//272 273//273
f 275//275 276//276 277//277
f 276//276 275//275 271//271
f 277//277 278//278 275//275
f 270//270 273//273 272//272
f 281//281 283//283 288//288 282//282
f 288//288 283//283 284//284
f 287//287 284//284 285//285
f 284//284 287//287 286//286
f 288//288 284//284 286//286
f 300//300 289//289 291//291
f 299//299 300//300 291//291
f 299//299 292//292 298//298
f 298//298 292//292 290//290
f 291//291 292//292 299//299
f 295//295 296//296 291//291
f 291//291 296//296 292//292
f 294//294 292//292 297//297
f 296//296 297//297 292//292
f 293//293 295//295 291//291
f 327//327 326//326 324//324
f 326//326 325//325 324//324
f 328//328 302//302 301//301
f 327//327 320//320 328//328
f 328//328 320//320 302//302
f 302//302 318//318 317//317 303//303
f 323//323 322//322 324//324
f 321//321 324//324 322//322
f 320//320 327//327 321//321
f 320//320 319//319 318//318
f 321//321 327//327 324//324
f 302//302 320//320 318//318
f 306//306 305//305 304//304
f 306//306 304//304 316//316
f 308//308 307//307 311//311
f 308//308 310//310 309//309
f 307//307 306//306 314//314
f 308//308 311//311 310//310
f 316//316 304//304 303//303 317//317
f 314//314 316//316 315//315
f 314//314 312//312 311//311
f 312//312 314//314 313//313
f 306//306 316//316 314//314
f 307//307 314//314 311//311
f 344//344 346//346 347//347
f 348//348 333//333 343//343
f 344//344 347//347 348//348
f 349//349 330//330 348//348
f 346//346 344//344 345//345
f 342//342 343//343 340//340
f 340//340 341//341 342//342
f 343//343 344//344 348//348
f 330//330 349//349 329//329
f 332//332 330//330 331//331
f 343//343 333//333 338//338
f 330//330 332//332 333//333
f 334//334 336//336 333//333
f 339//339 340//340 338//338
f 340//340 343//343 338//338
f 336//336 338//338 333//333
f 338//338 336//336 337//337
f 336//336 334//334 335//335
f 333//333 348//348 330//330
o object_4
v 7.16 6.181 0.8068
v 7.16 6.181 0.9209
v 7.635 7.257 0.8068
v 7.635 7.257 0.9209
v 7.508 8.426 0.8068
v 7.508 8.426 0.9209
v 6.814 9.376 0.8068
v 6.814 9.376 0.9209
v 5.738 9.85 0.8068
v 5.738 9.85 0.9209
v 4.568 9.724 0.8068
v 4.568 9.724 0.9209
v 3.619 9.029 0.8068
v 3.619 9.029 0.9209
v 3.144 7.953 0.8068
v 3.144 7.953 0.9209
v 3.271 6.784 0.8068
v 3.271 6.784 0.9209
v 3.965 5.834 0.8068
v 3.965 5.834 0.9209
v 5.041 5.359 0.8068
v 5.041 5.359 0.9209
v 6.211 5.486 0.8068
v 6.211 5.486 0.9209
v 7.16 6.181 0.8068
v 7.16 6.181 0.9209
v 7.16 6.181 0.8068
v 7.635 7.257 0.8068
v 7.508 8.426 0.8068
v 6.814 9.376 0.8068
v 5.738 9.85 0.8068
v 4.568 9.724 0.8068
v 3.619 9.029 0.8068
v 3.144 7.953 0.8068
v 3.271 6.784 0.8068
v 3.965 5.834 0.8068
v 5.041 5.359 0.8068
v 6.211 5.486 0.8068
v 7.16 6.181 0.9209
v 7.635 7.257 0.9209
v 7.508 8.426 0.9209
v 6.814 9.376 0.9209
v 5.738 9.85 0.9209
v 4.568 9.724 0.9209
v 3.619 9.029 0.9209
v 3.144 7.953 0.9209
v 3.271 6.784 0.9209
v 3.965 5.834 0.9209
v 5.041 5.359 0.9209
v 6.211 5.486 0.9209
vn 0.7792 -0.6268 0
vn 0.7792 -0.6268 0
vn 0.9882 -0.1532 0
vn 0.9882 -0.1532 0
vn 0.9324 0.3614 0
vn 0.9324 0.3614 0
vn 0.6268 0.7792 0
vn 0.6268 0.7792 0
vn 0.1532 0.9882 0
vn 0.1532 0.9882 0
vn -0.3614 0.9324 0
vn -0.3614 0.9324 0
vn -0.7792 0.6268 0
vn -0.7792 0.6268 0
vn -0.9882 0.1532 0
vn -0.9882 0.1532 0
vn -0.9324 -0.3614 0
vn -0.9324 -0.3614 0
vn -0.6268 -0.7792 0
vn -0.6268 -0.7792 0
vn -0.1532 -0.9882 0
vn -0.1532 -0.9882 0
vn 0.3614 -0.9324 0
vn 0.3614 -0.9324 0
vn 0.7792 -0.6268 0
vn 0.7792 -0.6268 0
vn 0 0 -1
vn 0 0 -1
vn 0 0 -1
vn 0 0 -1
vn 0 0 -1
vn 0 0 -1
vn 0 0 -1
vn 0 0 -1
vn 0 0 -1
vn 0 0 -1
vn 0 0 -1
vn 0 0 -1
vn 0 0 1
vn 0 0 1
vn 0 0 1
vn 0 0 1
vn 0 0 1
vn 0 0 1
vn 0 0 1
vn 0 0 1
vn 0 0 1
vn 0 0 1
vn 0 0 1
vn 0 0 1
f 350//350 352//352 353//353 351//351
f 352//352 354//354 355//355 353//353
f 354//354 356//356 357//357 355//355
f 356//356 358//358 359//359 357//357
f 358//358 360//360 361//361 359//359
f 360//360 362//362 363//363 361//361
f 362//362 364//364 365//365 363//363
f 364//364 366//366 367//367 365//365
f 366//366 368//368 369//369 367//367
f 368//368 370//370 371//371 369//369
f 370//370 372//372 373//373 371//371
f 372//372 374//374 375//375 373//373
f 384//384 383//383 382//382
f 382//382 377//377 384//384
f 381//381 380//380 382//382
f 382//382 380//380 377//377
f 386//386 385//385 384//384
f 376//376 387//387 386//386
f 377//377 376//376 386//386
f 378//378 377//377 379//379
f 377//377 380//380 379//379
f 386//386 384//384 377//377
f 396//396 394//394 395//395
f 394//394 396//396 389//389
f 393//393 394//394 392//392
f 394//394 389//389 392//392
f 398//398 396//396 397//397
f 388//388 398//398 399//399
f 389//389 398//398 388//388
f 390//390 391//391 389//389
f 389//389 391//391 392//392
f 398//398 389//389 396//396
