# RokuSuper Output Ver2.0 for Wavefront Obj

v -3.90437438 -0.28404142 0.34373856
v 6431.63475830 -0.28404142 0.34373856
v 6431.63475830 -0.28404142 -0.34373856
v -3.90437438 -0.28404142 -0.34373856
v -3.90437438 0.40343571 0.34373856
v 6431.63475830 0.40343571 0.34373856
v 6431.63475830 0.40343571 -0.34373856
v -3.90437438 0.40343571 -0.34373856

vn 0.00000000 -1.00000000 0.00000000
vn 0.00000000 -1.00000000 0.00000000
vn 0.00000000 -1.00000000 0.00000000
vn 0.00000000 -1.00000000 0.00000000
vn 1.00000000 0.00000000 0.00000000
vn 1.00000000 0.00000000 0.00000000
vn 1.00000000 0.00000000 0.00000000
vn 1.00000000 0.00000000 0.00000000
vn 0.00000000 0.00000000 -1.00000000
vn 0.00000000 0.00000000 -1.00000000
vn 0.00000000 0.00000000 -1.00000000
vn 0.00000000 0.00000000 -1.00000000
vn -1.00000000 0.00000000 0.00000000
vn -1.00000000 0.00000000 0.00000000
vn -1.00000000 0.00000000 0.00000000
vn -1.00000000 0.00000000 0.00000000
vn 0.00000000 0.00000000 1.00000000
vn 0.00000000 0.00000000 1.00000000
vn 0.00000000 0.00000000 1.00000000
vn 0.00000000 0.00000000 1.00000000
vn 0.00000000 1.00000000 0.00000000
vn 0.00000000 1.00000000 0.00000000
vn 0.00000000 1.00000000 0.00000000
vn 0.00000000 1.00000000 0.00000000

g ²ã
f 2//1 1//2 4//3 3//4
f 6//5 2//6 3//7 7//8
f 8//9 7//10 3//11 4//12
f 5//13 8//14 4//15 1//16
f 6//17 5//18 1//19 2//20
f 8//21 5//22 6//23 7//24

