# Rhino

g ______01
o object_1
v 3.638 1.85 1.523
v 3.638 1.85 2.721
v 3.638 3.146 1.523
v 3.638 3.146 2.721
v 3.788 1.85 1.523
v 3.788 1.85 2.721
v 3.788 3.146 1.523
v 3.788 3.146 2.721
vn 0 -1 0
vn 0 -1 0
vn 0 -1 0
vn 0 -1 0
vn 1 0 0
vn 1 0 0
vn 1 0 0
vn 1 0 0
vn 0 1 0
vn 0 1 0
vn 0 1 0
vn 0 1 0
vn -1 0 0
vn -1 0 0
vn -1 0 0
vn -1 0 0
vn 0 0 -1
vn 0 0 -1
vn 0 0 -1
vn 0 0 -1
vn 0 0 1
vn 0 0 1
vn 0 0 1
vn 0 0 1
f 1//1 5//3 6//4 2//2
f 5//5 7//7 8//8 6//6
f 7//9 3//11 4//12 8//10
f 3//13 1//15 2//16 4//14
f 5//18 1//17 3//20
f 3//20 7//19 5//18
f 6//22 4//24 2//21
f 4//24 6//22 8//23
o object_2
v 0.5583 0.2143 1.966
v 0.5583 0.2143 2.008
v 0.5583 0.8184 1.652
v 0.5583 4.179 1.652
v 0.5583 4.781 1.965
v 0.5583 4.781 2.008
v 0.9795 0.2143 2.533
v 0.9798 4.781 2.533
v 1.131 0.4028 2.721
v 1.131 4.593 2.721
v 1.918 4.781 1.333
v 1.922 0.2143 1.332
v 2.445 0.8184 0.7741
v 2.445 4.179 0.7741
v 2.494 4.223 0.7741
v 2.497 0.7719 0.7741
v 3.788 1.85 2.721
v 3.788 3.146 2.721
v 3.802 0.4028 2.721
v 3.804 4.593 2.721
v 3.996 0.2143 2.533
v 3.998 4.781 2.533
v 4.589 1.107 2.721
v 4.589 1.85 2.721
v 4.589 3.146 2.721
v 4.589 3.891 2.721
v 5.792 0.7719 0.7741
v 5.792 4.223 0.7741
v 6.578 0.2143 1.332
v 6.58 4.781 1.333
v 6.94 1.85 1.588
v 6.94 3.146 1.588
v 6.974 1.107 1.612
v 6.974 1.85 1.612
v 6.974 3.146 1.612
v 6.974 3.891 1.612
vn 4.038e-08 -0.7071 -0.7071
vn 4.038e-08 -0.7071 -0.7071
vn 4.038e-08 -0.7071 -0.7071
vn 4.038e-08 -0.7071 -0.7071
vn 0 0.7071 -0.7071
vn 0 0.7071 -0.7071
vn 0 0.7071 -0.7071
vn 0 0.7071 -0.7071
vn 0 0.7071 0.7071
vn 0 0.7071 0.7071
vn 0 0.7071 0.7071
vn 0 0.7071 0.7071
vn 0 -0.7071 0.7071
vn 0 -0.7071 0.7071
vn 0 -0.7071 0.7071
vn 0 -0.7071 0.7071
vn -1 -7.642e-31 -1.627e-15
vn -1 -7.642e-31 -1.627e-15
vn -1 -7.642e-31 -1.627e-15
vn -1 -7.642e-31 -1.627e-15
vn -1 -7.642e-31 -1.627e-15
vn -1 -7.642e-31 -1.627e-15
vn 0.5785 -3.081e-33 -0.8157
vn 0.5785 -3.081e-33 -0.8157
vn 0.5785 -3.081e-33 -0.8157
vn 0.5785 -3.081e-33 -0.8157
vn 0.5785 -3.081e-33 -0.8157
vn 0.5785 -3.081e-33 -0.8157
vn 0.5785 -3.081e-33 -0.8157
vn 0.5785 -3.081e-33 -0.8157
vn 0.5785 -3.081e-33 -0.8157
vn 0.5785 -3.081e-33 -0.8157
vn 0.3813 0.4267 0.8201
vn 0.3813 0.4267 0.8201
vn 0.3813 0.4267 0.8201
vn 0.3813 0.4267 0.8201
vn 0.3813 0.4267 0.8201
vn 0.4217 0 0.9068
vn 0.4217 1.898e-18 0.9068
vn 0.4217 0 0.9068
vn 0.4217 -2.522e-17 0.9068
vn -5.012e-18 0 -1
vn 0 0 -1
vn -1.169e-17 0 -1
vn -3.341e-18 0 -1
vn 0 0 -1
vn 0 0 -1
vn -0.3813 0.4267 -0.8201
vn -0.3813 0.4267 -0.8201
vn -0.3813 0.4267 -0.8201
vn -0.3813 0.4267 -0.8201
vn -0.3813 0.4267 -0.8201
vn -0.3813 -0.4267 -0.8201
vn -0.3813 -0.4267 -0.8201
vn -0.3813 -0.4267 -0.8201
vn -0.3813 -0.4267 -0.8201
vn -0.3813 -0.4267 -0.8201
vn 2.673e-17 1 5.748e-17
vn 0 1 0
vn -5.346e-17 1 -1.15e-16
vn 0 1 0
vn 0 1 0
vn -2.673e-17 1 -5.748e-17
vn -0.4217 0 -0.9068
vn -0.4217 0 -0.9068
vn -0.4217 0 -0.9068
vn -0.4217 2.712e-17 -0.9068
vn -0.7797 1.402e-17 0.6262
vn -0.7797 1.402e-17 0.6262
vn -0.7797 1.402e-17 0.6262
vn -0.7797 1.402e-17 0.6262
vn -0.7797 1.402e-17 0.6262
vn -0.7797 1.402e-17 0.6262
vn 0.3813 -0.4267 0.8201
vn 0.3813 -0.4267 0.8201
vn 0.3813 -0.4267 0.8201
vn 0.3813 -0.4267 0.8201
vn 0.3813 -0.4267 0.8201
vn 3.341e-18 -1 7.185e-18
vn 3.341e-18 -1 7.185e-18
vn 0 -1 0
vn 3.341e-18 -1 7.185e-18
vn 0 -1 0
vn 0 -1 0
vn -1.336e-17 0 1
vn 0 0 1
vn 0 0 1
vn -5.346e-17 0 1
vn 0 0 1
vn 0 0 1
vn -1.336e-17 0 1
vn 0 0 1
vn 0 0 1
vn 2.673e-17 0 1
vn 0.4217 0 0.9068
vn 0.4217 0 0.9068
vn 0.4217 0 0.9068
vn 0.4217 -2.522e-17 0.9068
f 35//26 20//27 24//28
f 20//27 35//26 37//25
f 36//31 23//32 19//29
f 19//29 38//30 36//31
f 28//34 30//33 16//36 18//35
f 27//38 17//39 15//40 29//37
f 14//46 9//41 10//43
f 11//42 9//41 13//44
f 9//41 14//46 13//44
f 12//45 11//42 13//44
f 37//47 36//49 38//50
f 35//48 36//49 37//47
f 40//56 37//47 38//50
f 39//54 37//47 40//56
f 40//56 38//50 44//52
f 41//51 39//54 42//55
f 37//47 39//54 41//51
f 44//52 43//53 40//56
f 28//57 38//59 30//58
f 34//61 44//60 28//57
f 38//59 28//57 44//60
f 33//62 43//65 44//63 34//64
f 24//71 23//68 36//66 35//67
f 21//70 22//69 23//68
f 24//71 21//70 23//68
f 12//73 13//72 19//76
f 22//74 12//73 23//75
f 19//76 23//75 12//73
f 24//81 11//77 21//79
f 24//81 20//80 11//77
f 9//78 11//77 20//80
f 30//83 38//82 16//86
f 14//85 16//86 38//82
f 14//85 38//82 13//84
f 19//87 13//84 38//82
f 12//89 22//88 21//90 11//91
f 14//96 10//97 15//94
f 17//95 16//93 15//94
f 15//94 16//93 14//96
f 18//92 16//93 17//95
f 27//99 41//100 31//102
f 29//98 37//101 27//99
f 41//100 27//99 37//101
f 10//105 9//106 37//103
f 20//104 37//103 9//106
f 29//108 15//107 37//103
f 10//105 37//103 15//107
f 26//117 33//118 34//110
f 32//112 25//116 31//111
f 34//110 28//115 26//117
f 18//109 17//113 25//116 26//117
f 28//115 18//109 26//117
f 17//113 27//114 25//116
f 25//116 27//114 31//111
f 31//119 41//122 42//121 32//120
o object_3
v 3.577 1.85 1.516
v 3.577 1.85 1.551
v 3.577 3.146 1.516
v 3.577 3.146 1.551
v 6.839 1.85 1.516
v 6.839 3.146 1.516
v 6.888 1.85 1.551
v 6.888 3.146 1.551
vn 0.5807 0 -0.8141
vn 0.5807 0 -0.8141
vn 0.5807 0 -0.8141
vn 0.5807 0 -0.8141
vn 0 -1 0
vn 0 -1 0
vn 0 -1 0
vn 0 -1 0
vn 0 1 0
vn 0 1 0
vn 0 1 0
vn 0 1 0
vn -1 0 0
vn -1 0 0
vn -1 0 0
vn -1 0 0
vn 0 0 -1
vn 0 0 -1
vn 0 0 -1
vn 0 0 -1
vn 0 0 1
vn 0 0 1
vn 0 0 1
vn 0 0 1
f 50//123 52//125 51//126 49//124
f 45//127 49//129 51//130 46//128
f 48//132 52//133 50//134 47//131
f 48//136 47//135 45//137 46//138
f 47//140 50//142 49//141 45//139
f 48//144 46//143 51//145 52//146
o object_4
v 3.788 3.108 1.553
v 3.788 3.108 2.721
v 3.788 3.146 1.553
v 3.788 3.146 2.721
v 3.852 3.108 1.523
v 3.852 3.146 1.523
v 4.594 3.108 2.721
v 4.594 3.146 2.721
v 6.848 3.108 1.523
v 6.848 3.146 1.523
v 6.975 3.108 1.614
v 6.975 3.146 1.614
vn -1 3.694e-30 -4.927e-16
vn -1 3.694e-30 -4.927e-16
vn -1 3.694e-30 -4.927e-16
vn -1 3.694e-30 -4.927e-16
vn 0.5807 0 -0.8141
vn 0.5807 0 -0.8141
vn 0.5807 0 -0.8141
vn 0.5807 0 -0.8141
vn 0 -1 0
vn 0 -1 0
vn 0 -1 0
vn 6.274e-18 -1 1.349e-17
vn 0 -1 0
vn 1.004e-16 -1 2.159e-16
vn 0.4217 1.243e-15 0.9067
vn 0.4217 0 0.9067
vn 0.4217 1.243e-15 0.9067
vn 0.4217 0 0.9067
vn 0 1 0
vn 0 1 0
vn -4.392e-17 1 -9.444e-17
vn 0 1 0
vn 0 1 0
vn 0 1 0
vn -0.4217 0 -0.9067
vn -0.4217 0 -0.9067
vn -0.4217 -1.631e-15 -0.9067
vn -0.4217 -3.27e-15 -0.9067
vn 8.567e-17 0 -1
vn 8.567e-17 0 -1
vn 8.567e-17 0 -1
vn 8.567e-17 0 -1
vn 0 0 1
vn 0 0 1
vn 0 0 1
vn 0 0 1
f 54//147 56//149 55//150 53//148
f 62//152 64//154 63//153 61//151
f 54//157 53//158 63//160
f 57//155 61//159 53//158
f 54//157 63//160 59//156
f 61//159 63//160 53//158
f 59//162 63//161 64//163 60//164
f 56//168 60//165 64//169
f 62//170 55//167 64//169
f 56//168 64//169 55//167
f 58//166 55//167 62//170
f 55//174 58//171 57//172 53//173
f 58//176 62//178 61//177 57//175
f 56//180 54//179 59//181 60//182
o object_5
v 3.788 1.85 1.553
v 3.788 1.85 2.721
v 3.788 1.887 1.553
v 3.788 1.887 2.721
v 3.852 1.85 1.523
v 3.852 1.887 1.523
v 4.594 1.85 2.721
v 4.594 1.887 2.721
v 6.848 1.85 1.523
v 6.848 1.887 1.523
v 6.975 1.85 1.614
v 6.975 1.887 1.614
vn -1 1.528e-14 0
vn -1 1.528e-14 0
vn -1 1.528e-14 0
vn -1 1.528e-14 0
vn 0.5807 0 -0.8141
vn 0.5807 0 -0.8141
vn 0.5807 0 -0.8141
vn 0.5807 0 -0.8141
vn 0 -1 0
vn 0 -1 0
vn 0 -1 0
vn -3.921e-17 -1 -8.432e-17
vn 0 -1 0
vn 1.255e-17 -1 2.698e-17
vn 0.4217 1.243e-15 0.9067
vn 0.4217 0 0.9067
vn 0.4217 1.243e-15 0.9067
vn 0.4217 0 0.9067
vn 0 1 0
vn 0 1 0
vn -4.078e-17 1 -8.769e-17
vn 0 1 0
vn 1.882e-17 1 4.047e-17
vn 0 1 0
vn -0.4217 0 -0.9067
vn -0.4217 0 -0.9067
vn -0.4217 -1.631e-15 -0.9067
vn -0.4217 -3.27e-15 -0.9067
vn 8.567e-17 0 -1
vn 8.567e-17 0 -1
vn 8.567e-17 0 -1
vn 8.567e-17 0 -1
vn 0 0 1
vn 0 0 1
vn 0 0 1
vn 0 0 1
f 66//183 68//185 67//186 65//184
f 74//188 76//190 75//189 73//187
f 66//193 65//194 75//196
f 69//191 73//195 65//194
f 66//193 75//196 71//192
f 73//195 75//196 65//194
f 71//198 75//197 76//199 72//200
f 68//204 72//201 76//205
f 74//206 67//203 76//205
f 68//204 76//205 67//203
f 70//202 67//203 74//206
f 67//210 70//207 69//208 65//209
f 70//212 74//214 73//213 69//211
f 68//216 66//215 71//217 72//218
