# Blender v2.63 (sub 0) OBJ File: 'torpedo_  triple_a.blend'
# www.blender.org
mtllib torpedo_triple.mtl
o Cube.003
v 7.915380 7.490020 4.130181
v 7.915380 6.840605 4.130181
v 5.926600 6.840605 4.130181
v 5.926601 7.490020 4.130181
v 7.915381 7.490020 4.492917
v 7.915380 6.840604 4.492917
v 5.926600 6.840605 4.492917
v 5.926600 7.490020 4.492917
vn 0.000000 0.000000 -1.000000
vn 0.000000 -0.000000 1.000000
vn 1.000000 -0.000001 -0.000000
vn -0.000000 -1.000000 -0.000001
vn -1.000000 0.000001 -0.000001
vn 0.000000 1.000000 0.000001
usemtl 
s off
f 1//1 2//1 3//1 4//1
f 5//2 8//2 7//2 6//2
f 1//3 5//3 6//3 2//3
f 2//4 6//4 7//4 3//4
f 3//5 7//5 8//5 4//5
f 5//6 1//6 4//6 8//6
o Cube.002
v 4.176652 6.381351 2.722722
v 4.176652 5.731936 2.722722
v 3.173508 5.731936 2.722722
v 3.173508 6.381352 2.722722
v 4.176652 6.381351 3.085459
v 4.176651 5.731936 3.085459
v 3.173508 5.731936 3.085459
v 3.173508 6.381351 3.085459
vn 1.000000 -0.000000 0.000001
vn -1.000000 0.000000 -0.000001
usemtl Material.001
s off
f 9//1 10//1 11//1 12//1
f 13//2 16//2 15//2 14//2
f 9//7 13//7 14//7 10//7
f 10//4 14//4 15//4 11//4
f 11//8 15//8 16//8 12//8
f 13//6 9//6 12//6 16//6
o Cube.001
v 4.176652 8.622278 2.738448
v 4.176652 7.972863 2.738448
v 3.173508 7.972863 2.738448
v 3.173508 8.622278 2.738448
v 4.176652 8.622278 3.101184
v 4.176651 7.972862 3.101184
v 3.173508 7.972863 3.101184
v 3.173508 8.622278 3.101184
vn -0.000000 1.000000 0.000000
usemtl 
s off
f 17//1 18//1 19//1 20//1
f 21//2 24//2 23//2 22//2
f 17//7 21//7 22//7 18//7
f 18//4 22//4 23//4 19//4
f 19//8 23//8 24//8 20//8
f 21//9 17//9 20//9 24//9
o Cube
v 4.176652 7.490020 4.130181
v 4.176652 6.840605 4.130181
v 3.173508 6.840605 4.130181
v 3.173508 7.490020 4.130181
v 4.176652 7.490020 4.492917
v 4.176651 6.840604 4.492917
v 3.173508 6.840605 4.492917
v 3.173508 7.490020 4.492917
usemtl 
s off
f 25//1 26//1 27//1 28//1
f 29//2 32//2 31//2 30//2
f 25//7 29//7 30//7 26//7
f 26//4 30//4 31//4 27//4
f 27//8 31//8 32//8 28//8
f 29//6 25//6 28//6 32//6
o Cylinder.002_Cylinder.010
v 1.909199 8.597617 2.158477
v 1.909199 8.432729 1.760401
v 1.909199 8.034654 1.595513
v 1.909199 7.636578 1.760401
v 1.909199 7.471690 2.158477
v 1.909199 7.636579 2.556552
v 1.909199 8.034654 2.721440
v 1.909199 8.432729 2.556552
v 13.084141 8.824745 2.158478
v 13.084141 8.593333 1.599799
v 13.084141 8.034655 1.368386
v 13.084141 7.475975 1.599798
v 13.084141 7.244562 2.158478
v 13.084141 7.475975 2.717157
v 13.084141 8.034655 2.948569
v 13.084141 8.593333 2.717156
v 1.661403 8.034654 2.158477
v 13.084141 8.730618 2.158478
v 13.084141 8.526775 1.666356
v 13.084141 8.034654 1.462512
v 13.084141 7.542532 1.666356
v 13.084141 7.338688 2.158478
v 13.084141 7.542532 2.650599
v 13.084141 8.034654 2.854443
v 13.084141 8.526775 2.650599
v 3.436193 8.526775 2.650598
v 3.436193 8.730618 2.158477
v 3.436193 8.034654 2.854442
v 3.436193 7.542532 2.650599
v 3.436193 7.338688 2.158477
v 3.436193 7.542532 1.666355
v 3.436193 8.034654 1.462512
v 3.436193 8.526775 1.666355
v 3.436193 8.034654 2.158477
v 2.259034 8.593332 1.599798
v 2.259034 8.824745 2.158477
v 2.259034 8.034654 1.368385
v 2.259034 7.475975 1.599798
v 2.259034 7.244562 2.158477
v 2.259034 7.475975 2.717156
v 2.259034 8.034654 2.948568
v 2.259034 8.593332 2.717156
v 2.692344 8.593332 1.599798
v 2.692344 8.824745 2.158477
v 2.692344 8.034654 1.368385
v 2.692344 7.475975 1.599798
v 2.692344 7.244562 2.158477
v 2.692344 7.475975 2.717156
v 2.692344 8.034654 2.948568
v 2.692344 8.593332 2.717156
v 2.709222 8.637227 1.555903
v 2.709222 8.886822 2.158477
v 2.709222 8.034654 1.306309
v 2.709222 7.432080 1.555903
v 2.709222 7.182486 2.158477
v 2.709222 7.432080 2.761050
v 2.709222 8.034654 3.010644
v 2.709222 8.637227 2.761050
v 3.139429 8.637227 1.555903
v 3.139429 8.886822 2.158477
v 3.139429 8.034654 1.306309
v 3.139429 7.432080 1.555903
v 3.139429 7.182486 2.158477
v 3.139429 7.432080 2.761050
v 3.139429 8.034654 3.010644
v 3.139429 8.637227 2.761050
v 3.158186 8.593333 1.599798
v 3.158186 8.824745 2.158477
v 3.158186 8.034654 1.368386
v 3.158186 7.475975 1.599798
v 3.158186 7.244562 2.158477
v 3.158186 7.475975 2.717156
v 3.158186 8.034654 2.948568
v 3.158186 8.593333 2.717156
vn -0.902777 0.397369 -0.164596
vn -0.902777 0.164596 -0.397369
vn -0.902777 -0.164596 -0.397369
vn -0.902777 -0.397369 -0.164596
vn -0.902777 -0.397369 0.164596
vn -0.902777 -0.164596 0.397369
vn -0.902777 0.164596 0.397369
vn -0.902777 0.397369 0.164596
vn 1.000000 0.000000 0.000000
vn 0.000000 -0.923880 -0.382683
vn 0.000000 -0.382684 -0.923879
vn 0.000000 0.382683 -0.923880
vn 0.000000 0.923880 -0.382684
vn -0.000000 0.923880 0.382683
vn -0.000000 0.382683 0.923880
vn -0.000000 -0.382684 0.923879
vn -0.000000 -0.923880 0.382683
vn -0.514383 0.792282 -0.328175
vn -0.514383 0.328174 -0.792283
vn -0.514383 -0.328174 -0.792283
vn -0.514383 -0.792283 -0.328174
vn -0.514383 -0.792282 0.328174
vn -0.514383 -0.328174 0.792283
vn -0.514383 0.328174 0.792283
vn -0.514383 0.792282 0.328175
vn 0.000000 0.923879 -0.382684
vn 0.000000 0.382684 -0.923879
vn 0.000000 -0.382683 -0.923880
vn 0.000000 -0.923879 0.382684
vn 0.000000 -0.382683 0.923880
vn 0.000000 0.382684 0.923879
vn 0.000000 0.923879 0.382684
vn -0.959317 0.260838 -0.108043
vn -0.959317 0.108043 -0.260840
vn -0.959317 -0.108043 -0.260840
vn -0.959317 -0.260840 -0.108044
vn -0.959317 -0.260839 0.108043
vn -0.959317 -0.108043 0.260839
vn -0.959317 0.108043 0.260839
vn -0.959318 0.260838 0.108043
vn 0.950456 0.287196 -0.118961
vn 0.000000 0.923880 -0.382683
vn 0.950456 0.118960 -0.287195
vn 0.000000 0.382684 -0.923880
vn 0.950457 -0.118960 -0.287195
vn 0.950456 -0.287196 -0.118961
vn 0.000000 -0.923879 -0.382684
vn 0.950456 -0.287196 0.118961
vn 0.950456 -0.118961 0.287196
vn 0.950456 0.118961 0.287197
vn 0.950456 0.287197 0.118961
usemtl 
s off
f 49//10 33//10 34//10
f 49//11 34//11 35//11
f 49//12 35//12 36//12
f 49//13 36//13 37//13
f 49//14 37//14 38//14
f 49//15 38//15 39//15
f 49//16 39//16 40//16
f 40//17 33//17 49//17
f 41//18 50//18 51//18 42//18
f 42//18 51//18 52//18 43//18
f 43//18 52//18 53//18 44//18
f 44//18 53//18 54//18 45//18
f 45//18 54//18 55//18 46//18
f 46//18 55//18 56//18 47//18
f 47//18 56//18 57//18 48//18
f 48//18 57//18 50//18 41//18
f 50//19 57//19 58//19 59//19
f 57//20 56//20 60//20 58//20
f 56//21 55//21 61//21 60//21
f 55//22 54//22 62//22 61//22
f 54//23 53//23 63//23 62//23
f 53//24 52//24 64//24 63//24
f 52//25 51//25 65//25 64//25
f 51//26 50//26 59//26 65//26
f 58//18 66//18 59//18
f 60//18 66//18 58//18
f 61//18 66//18 60//18
f 62//18 66//18 61//18
f 63//18 66//18 62//18
f 64//18 66//18 63//18
f 65//18 66//18 64//18
f 59//18 66//18 65//18
f 33//27 68//27 67//27 34//27
f 34//28 67//28 69//28 35//28
f 35//29 69//29 70//29 36//29
f 36//30 70//30 71//30 37//30
f 37//31 71//31 72//31 38//31
f 38//32 72//32 73//32 39//32
f 39//33 73//33 74//33 40//33
f 68//34 33//34 40//34 74//34
f 68//35 76//35 75//35 67//35
f 67//36 75//36 77//36 69//36
f 69//37 77//37 78//37 70//37
f 70//19 78//19 79//19 71//19
f 71//38 79//38 80//38 72//38
f 72//39 80//39 81//39 73//39
f 73//40 81//40 82//40 74//40
f 76//41 68//41 74//41 82//41
f 76//42 84//42 83//42 75//42
f 75//43 83//43 85//43 77//43
f 77//44 85//44 86//44 78//44
f 78//45 86//45 87//45 79//45
f 79//46 87//46 88//46 80//46
f 80//47 88//47 89//47 81//47
f 81//48 89//48 90//48 82//48
f 84//49 76//49 82//49 90//49
f 84//35 92//35 91//35 83//35
f 83//36 91//36 93//36 85//36
f 85//37 93//37 94//37 86//37
f 86//19 94//19 95//19 87//19
f 87//26 95//26 96//26 88//26
f 88//39 96//39 97//39 89//39
f 89//40 97//40 98//40 90//40
f 92//41 84//41 90//41 98//41
f 92//50 100//50 99//50 91//50
f 100//51 41//51 42//51 99//51
f 91//52 99//52 101//52 93//52
f 99//53 42//53 43//53 101//53
f 93//54 101//54 102//54 94//54
f 101//37 43//37 44//37 102//37
f 94//55 102//55 103//55 95//55
f 102//56 44//56 45//56 103//56
f 95//57 103//57 104//57 96//57
f 103//38 45//38 46//38 104//38
f 96//58 104//58 105//58 97//58
f 104//39 46//39 47//39 105//39
f 97//59 105//59 106//59 98//59
f 105//40 47//40 48//40 106//40
f 41//23 100//23 106//23 48//23
f 100//60 92//60 98//60 106//60
o Cylinder.001_Cylinder.009
v 1.909199 6.860152 2.158477
v 1.909199 6.695264 1.760401
v 1.909199 6.297189 1.595513
v 1.909199 5.899113 1.760401
v 1.909199 5.734225 2.158477
v 1.909199 5.899114 2.556552
v 1.909199 6.297189 2.721440
v 1.909199 6.695264 2.556552
v 13.084141 7.087280 2.158478
v 13.084141 6.855868 1.599799
v 13.084141 6.297189 1.368386
v 13.084141 5.738510 1.599798
v 13.084141 5.507097 2.158478
v 13.084141 5.738510 2.717157
v 13.084141 6.297189 2.948569
v 13.084141 6.855868 2.717156
v 1.661403 6.297189 2.158477
v 13.084141 6.993154 2.158478
v 13.084141 6.789310 1.666356
v 13.084141 6.297189 1.462512
v 13.084141 5.805067 1.666356
v 13.084141 5.601223 2.158478
v 13.084141 5.805067 2.650599
v 13.084141 6.297189 2.854443
v 13.084141 6.789311 2.650599
v 3.436193 6.789311 2.650598
v 3.436193 6.993154 2.158477
v 3.436193 6.297189 2.854442
v 3.436193 5.805067 2.650599
v 3.436193 5.601223 2.158477
v 3.436193 5.805067 1.666355
v 3.436193 6.297189 1.462512
v 3.436193 6.789310 1.666355
v 3.436193 6.297189 2.158477
v 2.259034 6.855868 1.599798
v 2.259034 7.087280 2.158477
v 2.259034 6.297189 1.368385
v 2.259034 5.738510 1.599798
v 2.259034 5.507097 2.158477
v 2.259034 5.738510 2.717156
v 2.259034 6.297189 2.948568
v 2.259034 6.855868 2.717156
v 2.692344 6.855868 1.599798
v 2.692344 7.087280 2.158477
v 2.692344 6.297189 1.368385
v 2.692344 5.738510 1.599798
v 2.692344 5.507097 2.158477
v 2.692344 5.738510 2.717156
v 2.692344 6.297189 2.948568
v 2.692344 6.855868 2.717156
v 2.709222 6.899762 1.555903
v 2.709222 7.149356 2.158477
v 2.709222 6.297189 1.306309
v 2.709222 5.694615 1.555903
v 2.709222 5.445021 2.158477
v 2.709222 5.694615 2.761050
v 2.709222 6.297189 3.010644
v 2.709222 6.899762 2.761050
v 3.139429 6.899762 1.555903
v 3.139429 7.149356 2.158477
v 3.139429 6.297189 1.306309
v 3.139429 5.694615 1.555903
v 3.139429 5.445021 2.158477
v 3.139429 5.694615 2.761050
v 3.139429 6.297189 3.010644
v 3.139429 6.899762 2.761050
v 3.158186 6.855868 1.599798
v 3.158186 7.087280 2.158477
v 3.158186 6.297189 1.368386
v 3.158186 5.738510 1.599798
v 3.158186 5.507097 2.158477
v 3.158186 5.738510 2.717156
v 3.158186 6.297189 2.948568
v 3.158186 6.855868 2.717156
vn -0.514383 0.792283 -0.328174
vn -0.514384 0.792282 0.328174
vn -0.959317 0.260840 -0.108044
vn -0.959317 0.108044 -0.260840
vn -0.959317 0.108043 0.260840
vn -0.959317 0.260840 0.108044
vn 0.950457 0.118960 -0.287195
vn 0.950456 -0.118960 0.287196
usemtl 
s off
f 123//10 107//10 108//10
f 123//11 108//11 109//11
f 123//12 109//12 110//12
f 123//13 110//13 111//13
f 123//14 111//14 112//14
f 123//15 112//15 113//15
f 123//16 113//16 114//16
f 114//17 107//17 123//17
f 115//18 124//18 125//18 116//18
f 116//18 125//18 126//18 117//18
f 117//18 126//18 127//18 118//18
f 118//18 127//18 128//18 119//18
f 119//18 128//18 129//18 120//18
f 120//18 129//18 130//18 121//18
f 121//18 130//18 131//18 122//18
f 122//18 131//18 124//18 115//18
f 124//19 131//19 132//19 133//19
f 131//20 130//20 134//20 132//20
f 130//21 129//21 135//21 134//21
f 129//22 128//22 136//22 135//22
f 128//23 127//23 137//23 136//23
f 127//24 126//24 138//24 137//24
f 126//25 125//25 139//25 138//25
f 125//38 124//38 133//38 139//38
f 132//18 140//18 133//18
f 134//18 140//18 132//18
f 135//18 140//18 134//18
f 136//18 140//18 135//18
f 137//18 140//18 136//18
f 138//18 140//18 137//18
f 139//18 140//18 138//18
f 133//18 140//18 139//18
f 107//61 142//61 141//61 108//61
f 108//28 141//28 143//28 109//28
f 109//29 143//29 144//29 110//29
f 110//30 144//30 145//30 111//30
f 111//31 145//31 146//31 112//31
f 112//32 146//32 147//32 113//32
f 113//33 147//33 148//33 114//33
f 142//62 107//62 114//62 148//62
f 142//51 150//51 149//51 141//51
f 141//21 149//21 151//21 143//21
f 143//37 151//37 152//37 144//37
f 144//19 152//19 153//19 145//19
f 145//38 153//38 154//38 146//38
f 146//39 154//39 155//39 147//39
f 147//24 155//24 156//24 148//24
f 150//23 142//23 148//23 156//23
f 150//63 158//63 157//63 149//63
f 149//64 157//64 159//64 151//64
f 151//44 159//44 160//44 152//44
f 152//45 160//45 161//45 153//45
f 153//46 161//46 162//46 154//46
f 154//47 162//47 163//47 155//47
f 155//65 163//65 164//65 156//65
f 158//66 150//66 156//66 164//66
f 158//22 166//22 165//22 157//22
f 157//36 165//36 167//36 159//36
f 159//37 167//37 168//37 160//37
f 160//19 168//19 169//19 161//19
f 161//26 169//26 170//26 162//26
f 162//39 170//39 171//39 163//39
f 163//40 171//40 172//40 164//40
f 166//41 158//41 164//41 172//41
f 166//50 174//50 173//50 165//50
f 174//51 115//51 116//51 173//51
f 165//67 173//67 175//67 167//67
f 173//36 116//36 117//36 175//36
f 167//54 175//54 176//54 168//54
f 175//37 117//37 118//37 176//37
f 168//55 176//55 177//55 169//55
f 176//56 118//56 119//56 177//56
f 169//57 177//57 178//57 170//57
f 177//38 119//38 120//38 178//38
f 170//68 178//68 179//68 171//68
f 178//39 120//39 121//39 179//39
f 171//59 179//59 180//59 172//59
f 179//40 121//40 122//40 180//40
f 115//23 174//23 180//23 122//23
f 174//60 166//60 172//60 180//60
o Cylinder.003_Cylinder.007
v 7.136848 8.860250 0.754848
v 8.335349 8.363813 0.754848
v 8.831785 7.165312 0.754848
v 8.335349 5.966811 0.754848
v 7.136848 5.470375 0.754848
v 5.938346 5.966811 0.754848
v 5.441911 7.165312 0.754848
v 5.938346 8.363813 0.754848
v 7.136847 8.329072 1.426096
v 7.959750 7.988215 1.426096
v 8.300608 7.165313 1.426096
v 7.959751 6.342410 1.426096
v 7.136848 6.001552 1.426096
v 6.313945 6.342410 1.426096
v 5.973088 7.165313 1.426096
v 6.313946 7.988216 1.426096
v 7.136848 7.165312 0.754848
v 7.136848 7.165312 1.426096
v 7.959751 7.988215 0.993514
v 7.136848 8.329072 0.993514
v 8.300608 7.165312 0.993514
v 7.959751 6.342410 0.993514
v 7.136848 6.001552 0.993514
v 6.313945 6.342410 0.993514
v 5.973088 7.165313 0.993514
v 6.313946 7.988215 0.993514
v 7.136848 8.860250 0.075169
v 5.938346 8.363813 0.075169
v 5.441911 7.165312 0.075169
v 5.938346 5.966811 0.075169
v 7.136848 5.470375 0.075169
v 8.335349 5.966811 0.075169
v 8.831785 7.165312 0.075169
v 8.335349 8.363813 0.075169
vn 0.167369 0.404064 0.899289
vn 0.382683 0.923880 -0.000000
vn 0.404064 0.167369 0.899289
vn 0.923880 0.382683 -0.000000
vn 0.404064 -0.167369 0.899289
vn 0.923880 -0.382683 0.000000
vn 0.167369 -0.404064 0.899289
vn 0.382684 -0.923879 0.000000
vn -0.167369 -0.404064 0.899289
vn -0.382684 -0.923879 -0.000000
vn -0.404064 -0.167369 0.899289
vn -0.923880 -0.382683 -0.000000
vn -0.404064 0.167369 0.899289
vn -0.923879 0.382684 -0.000000
vn -0.382683 0.923880 -0.000001
vn -0.167369 0.404064 0.899289
vn -0.382684 0.923879 0.000000
vn -0.923880 0.382684 0.000000
vn -0.923880 -0.382684 0.000000
vn 0.382684 -0.923880 0.000000
vn 0.923879 -0.382684 0.000000
vn 0.923879 0.382684 0.000000
vn 0.382684 0.923879 0.000000
usemtl 
s off
f 197//1 181//1 182//1
f 198//2 190//2 189//2
f 197//1 182//1 183//1
f 198//2 191//2 190//2
f 197//1 183//1 184//1
f 198//2 192//2 191//2
f 197//1 184//1 185//1
f 198//2 193//2 192//2
f 197//1 185//1 186//1
f 198//2 194//2 193//2
f 197//1 186//1 187//1
f 198//2 195//2 194//2
f 197//1 187//1 188//1
f 198//2 196//2 195//2
f 188//1 181//1 197//1
f 198//2 189//2 196//2
f 181//69 200//69 199//69 182//69
f 200//70 189//70 190//70 199//70
f 182//71 199//71 201//71 183//71
f 199//72 190//72 191//72 201//72
f 183//73 201//73 202//73 184//73
f 201//74 191//74 192//74 202//74
f 184//75 202//75 203//75 185//75
f 202//76 192//76 193//76 203//76
f 185//77 203//77 204//77 186//77
f 203//78 193//78 194//78 204//78
f 186//79 204//79 205//79 187//79
f 204//80 194//80 195//80 205//80
f 187//81 205//81 206//81 188//81
f 205//82 195//82 196//82 206//82
f 189//83 200//83 206//83 196//83
f 200//84 181//84 188//84 206//84
f 188//85 181//85 207//85 208//85
f 187//86 188//86 208//86 209//86
f 186//87 187//87 209//87 210//87
f 185//78 186//78 210//78 211//78
f 184//88 185//88 211//88 212//88
f 183//89 184//89 212//89 213//89
f 182//90 183//90 213//90 214//90
f 181//91 182//91 214//91 207//91
f 214//2 207//2 208//2
f 213//2 209//2 210//2
f 212//2 213//2 210//2
f 212//2 210//2 211//2
f 214//2 208//2 209//2
f 214//2 209//2 213//2
o Cylinder
v 1.909199 7.732678 3.508995
v 1.909199 7.567790 3.110920
v 1.909199 7.169714 2.946032
v 1.909199 6.771639 3.110920
v 1.909199 6.606751 3.508995
v 1.909199 6.771639 3.907071
v 1.909199 7.169714 4.071959
v 1.909199 7.567790 3.907071
v 13.084141 7.959806 3.508996
v 13.084141 7.728394 2.950317
v 13.084141 7.169715 2.718905
v 13.084141 6.611035 2.950317
v 13.084141 6.379623 3.508996
v 13.084141 6.611036 4.067676
v 13.084141 7.169715 4.299088
v 13.084141 7.728394 4.067675
v 1.661403 7.169714 3.508995
v 13.084141 7.865680 3.508996
v 13.084141 7.661836 3.016875
v 13.084141 7.169715 2.813031
v 13.084141 6.677593 3.016874
v 13.084141 6.473749 3.508996
v 13.084141 6.677593 4.001118
v 13.084141 7.169715 4.204961
v 13.084141 7.661837 4.001117
v 3.436193 7.661837 4.001117
v 3.436193 7.865680 3.508996
v 3.436193 7.169715 4.204961
v 3.436193 6.677593 4.001118
v 3.436193 6.473749 3.508996
v 3.436193 6.677593 3.016874
v 3.436193 7.169715 2.813030
v 3.436193 7.661836 3.016874
v 3.436193 7.169714 3.508996
v 2.259034 7.728394 2.950316
v 2.259034 7.959806 3.508996
v 2.259034 7.169714 2.718904
v 2.259034 6.611035 2.950316
v 2.259034 6.379623 3.508996
v 2.259034 6.611035 4.067675
v 2.259034 7.169714 4.299087
v 2.259034 7.728394 4.067675
v 2.692344 7.728394 2.950316
v 2.692344 7.959806 3.508996
v 2.692344 7.169714 2.718904
v 2.692344 6.611035 2.950316
v 2.692344 6.379623 3.508996
v 2.692344 6.611035 4.067675
v 2.692344 7.169714 4.299087
v 2.692344 7.728394 4.067675
v 2.709222 7.772288 2.906422
v 2.709222 8.021882 3.508996
v 2.709222 7.169714 2.656828
v 2.709222 6.567141 2.906422
v 2.709222 6.317547 3.508996
v 2.709222 6.567141 4.111569
v 2.709222 7.169714 4.361163
v 2.709222 7.772288 4.111569
v 3.139429 7.772288 2.906422
v 3.139429 8.021882 3.508996
v 3.139429 7.169714 2.656828
v 3.139429 6.567141 2.906422
v 3.139429 6.317547 3.508996
v 3.139429 6.567141 4.111569
v 3.139429 7.169714 4.361163
v 3.139429 7.772288 4.111569
v 3.158186 7.728394 2.950317
v 3.158186 7.959806 3.508996
v 3.158186 7.169714 2.718904
v 3.158186 6.611035 2.950317
v 3.158186 6.379623 3.508996
v 3.158186 6.611035 4.067675
v 3.158186 7.169715 4.299087
v 3.158186 7.728394 4.067675
vn 0.000000 -0.923879 -0.382683
vn -0.514384 -0.792282 0.328174
vn -0.514383 -0.328174 0.792282
vn -0.514383 0.328174 0.792282
vn -0.959317 -0.260840 0.108044
vn -0.959317 -0.108044 0.260840
vn -0.959317 0.108044 0.260840
vn -0.000001 0.923880 -0.382683
vn -0.000001 -0.382683 0.923880
vn 0.950456 0.287195 -0.118960
vn 0.950457 0.118960 -0.287194
vn 0.950456 -0.287197 0.118961
usemtl 
s off
f 231//10 215//10 216//10
f 231//11 216//11 217//11
f 231//12 217//12 218//12
f 231//13 218//13 219//13
f 231//14 219//14 220//14
f 231//15 220//15 221//15
f 231//16 221//16 222//16
f 222//17 215//17 231//17
f 223//18 232//18 233//18 224//18
f 224//18 233//18 234//18 225//18
f 225//18 234//18 235//18 226//18
f 226//18 235//18 236//18 227//18
f 227//18 236//18 237//18 228//18
f 228//18 237//18 238//18 229//18
f 229//18 238//18 239//18 230//18
f 230//18 239//18 232//18 223//18
f 232//92 239//92 240//92 241//92
f 239//20 238//20 242//20 240//20
f 238//21 237//21 243//21 242//21
f 237//51 236//51 244//51 243//51
f 236//23 235//23 245//23 244//23
f 235//24 234//24 246//24 245//24
f 234//25 233//25 247//25 246//25
f 233//38 232//38 241//38 247//38
f 240//18 248//18 241//18
f 242//18 248//18 240//18
f 243//18 248//18 242//18
f 244//18 248//18 243//18
f 245//18 248//18 244//18
f 246//18 248//18 245//18
f 247//18 248//18 246//18
f 241//18 248//18 247//18
f 215//61 250//61 249//61 216//61
f 216//28 249//28 251//28 217//28
f 217//29 251//29 252//29 218//29
f 218//30 252//30 253//30 219//30
f 219//93 253//93 254//93 220//93
f 220//94 254//94 255//94 221//94
f 221//95 255//95 256//95 222//95
f 250//62 215//62 222//62 256//62
f 250//51 258//51 257//51 249//51
f 249//21 257//21 259//21 251//21
f 251//37 259//37 260//37 252//37
f 252//19 260//19 261//19 253//19
f 253//26 261//26 262//26 254//26
f 254//39 262//39 263//39 255//39
f 255//24 263//24 264//24 256//24
f 258//23 250//23 256//23 264//23
f 258//63 266//63 265//63 257//63
f 257//64 265//64 267//64 259//64
f 259//44 267//44 268//44 260//44
f 260//45 268//45 269//45 261//45
f 261//96 269//96 270//96 262//96
f 262//97 270//97 271//97 263//97
f 263//98 271//98 272//98 264//98
f 266//66 258//66 264//66 272//66
f 266//99 274//99 273//99 265//99
f 265//21 273//21 275//21 267//21
f 267//37 275//37 276//37 268//37
f 268//19 276//19 277//19 269//19
f 269//26 277//26 278//26 270//26
f 270//100 278//100 279//100 271//100
f 271//40 279//40 280//40 272//40
f 274//41 266//41 272//41 280//41
f 274//101 282//101 281//101 273//101
f 282//51 223//51 224//51 281//51
f 273//102 281//102 283//102 275//102
f 281//36 224//36 225//36 283//36
f 275//54 283//54 284//54 276//54
f 283//37 225//37 226//37 284//37
f 276//55 284//55 285//55 277//55
f 284//19 226//19 227//19 285//19
f 277//103 285//103 286//103 278//103
f 285//38 227//38 228//38 286//38
f 278//68 286//68 287//68 279//68
f 286//39 228//39 229//39 287//39
f 279//59 287//59 288//59 280//59
f 287//40 229//40 230//40 288//40
f 223//23 282//23 288//23 230//23
f 282//60 274//60 280//60 288//60
