# Rhino

g ______64
o object_1
v 2.483 1.331 0.02233
v 2.483 1.464 0.02233
v 2.483 1.677 0.491
v 2.483 1.81 0.491
v 2.522 1.331 0.02233
v 2.522 1.464 0.02233
v 2.522 1.677 0.491
v 2.522 1.81 0.491
vn 1 0 0
vn 1 0 0
vn 1 0 0
vn 1 0 0
vn 0 0.8046 -0.5938
vn 0 0.8046 -0.5938
vn 0 0.8046 -0.5938
vn 0 0.8046 -0.5938
vn -1 0 0
vn -1 0 0
vn -1 0 0
vn -1 0 0
vn 0 -0.8046 0.5938
vn 0 -0.8046 0.5938
vn 0 -0.8046 0.5938
vn 0 -0.8046 0.5938
vn 0 1.665e-16 -1
vn 0 1.665e-16 -1
vn 0 1.665e-16 -1
vn 0 1.665e-16 -1
vn 0 -1.665e-16 1
vn 0 -1.665e-16 1
vn 0 -1.665e-16 1
vn 0 -1.665e-16 1
f 5//1 6//3 8//4 7//2
f 6//5 2//7 4//8 8//6
f 2//9 1//11 3//12 4//10
f 1//13 5//15 7//16 3//14
f 6//18 5//17 1//20
f 1//20 2//19 6//18
f 8//22 3//24 7//21
f 3//24 8//22 4//23
o object_2
v 2.484 3.185 0.491
v 2.484 3.318 0.491
v 2.484 3.531 0.02233
v 2.484 3.664 0.02233
v 2.524 3.185 0.491
v 2.524 3.318 0.491
v 2.524 3.531 0.02233
v 2.524 3.664 0.02233
vn -1 0 0
vn -1 0 0
vn -1 0 0
vn -1 0 0
vn 0 -0.8046 -0.5938
vn 0 -0.8046 -0.5938
vn 0 -0.8046 -0.5938
vn 0 -0.8046 -0.5938
vn 1 0 0
vn 1 0 0
vn 1 0 0
vn 1 0 0
vn 0 0.8046 0.5938
vn 0 0.8046 0.5938
vn 0 0.8046 0.5938
vn 0 0.8046 0.5938
vn 0 -7.216e-16 -1
vn 0 -7.216e-16 -1
vn 0 -7.216e-16 -1
vn 0 -7.216e-16 -1
vn 0 7.216e-16 1
vn 0 7.216e-16 1
vn 0 7.216e-16 1
vn 0 7.216e-16 1
f 12//25 11//27 9//28 10//26
f 11//29 15//31 13//32 9//30
f 15//33 16//35 14//36 13//34
f 16//37 12//39 10//40 14//38
f 11//42 12//41 16//44
f 16//44 15//43 11//42
f 9//46 14//48 10//45
f 14//48 9//46 13//47
o object_3
v 1.334 2.479 0.02233
v 1.334 2.519 0.02233
v 1.468 2.479 0.02233
v 1.468 2.519 0.02233
v 1.68 2.479 0.491
v 1.68 2.519 0.491
v 1.813 2.479 0.491
v 1.813 2.519 0.491
vn 0 -1 0
vn 0 -1 0
vn 0 -1 0
vn 0 -1 0
vn 0.8046 0 -0.5938
vn 0.8046 0 -0.5938
vn 0.8046 0 -0.5938
vn 0.8046 0 -0.5938
vn 0 1 0
vn 0 1 0
vn 0 1 0
vn 0 1 0
vn -0.8046 0 0.5938
vn -0.8046 0 0.5938
vn -0.8046 0 0.5938
vn -0.8046 0 0.5938
vn -5.551e-17 0 -1
vn -5.551e-17 0 -1
vn -5.551e-17 0 -1
vn -5.551e-17 0 -1
vn 5.551e-17 0 1
vn 5.551e-17 0 1
vn 5.551e-17 0 1
vn 5.551e-17 0 1
f 17//49 19//51 23//52 21//50
f 19//53 20//55 24//56 23//54
f 20//57 18//59 22//60 24//58
f 18//61 17//63 21//64 22//62
f 19//66 17//65 18//68
f 18//68 20//67 19//66
f 23//70 22//72 21//69
f 22//72 23//70 24//71
o object_4
v 1.392 2.573 0.01629
v 1.454 2.126 0.01629
v 1.513 3.008 0.01629
v 1.665 1.766 0.01629
v 1.703 2.552 0.4947
v 1.748 2.23 0.4947
v 1.77 3.337 0.01629
v 1.79 2.865 0.4947
v 1.9 1.972 0.4947
v 1.975 3.102 0.4947
v 1.994 1.509 0.01629
v 2.13 3.548 0.01629
v 2.136 1.787 0.4947
v 2.234 3.254 0.4947
v 2.429 1.389 0.01629
v 2.449 1.7 0.4947
v 2.556 3.298 0.4947
v 2.577 3.61 0.01629
v 2.771 1.744 0.4947
v 2.869 3.212 0.4947
v 2.876 1.451 0.01629
v 3.012 3.489 0.01629
v 3.03 1.896 0.4947
v 3.106 3.027 0.4947
v 3.215 2.133 0.4947
v 3.236 1.662 0.01629
v 3.258 2.768 0.4947
v 3.302 2.446 0.4947
v 3.34 3.232 0.01629
v 3.492 1.99 0.01629
v 3.551 2.872 0.01629
v 3.613 2.425 0.01629
vn 0.5517 -0.6305 0.546
vn 0.5517 -0.6305 0.546
vn 0.745 -0.3832 0.546
vn 0.745 -0.3832 0.546
vn 0.8359 -0.05573 0.546
vn 0.8359 -0.05573 0.546
vn 0.7893 0.2809 0.546
vn 0.7893 0.2809 0.546
vn 0.6305 0.5517 0.546
vn 0.6305 0.5517 0.546
vn 0.3832 0.745 0.546
vn 0.3832 0.745 0.546
vn 0.05573 0.8359 0.546
vn 0.05573 0.8359 0.546
vn -0.2809 0.7893 0.546
vn -0.2809 0.7893 0.546
vn -0.5517 0.6305 0.546
vn -0.5517 0.6305 0.546
vn -0.745 0.3832 0.546
vn -0.745 0.3832 0.546
vn -0.8359 0.05573 0.546
vn -0.8359 0.05573 0.546
vn -0.7893 -0.2809 0.546
vn -0.7893 -0.2809 0.546
vn -0.6305 -0.5517 0.546
vn -0.6305 -0.5517 0.546
vn -0.3832 -0.745 0.546
vn -0.3832 -0.745 0.546
vn -0.05573 -0.8359 0.546
vn -0.05573 -0.8359 0.546
vn 0.2809 -0.7893 0.546
vn 0.2809 -0.7893 0.546
vn 0.5517 -0.6305 0.546
vn 0.5517 -0.6305 0.546
vn 0 0 -1
vn 0 0 -1
vn 0 0 -1
vn 0 0 -1
vn 0 0 -1
vn 0 0 -1
vn 0 0 -1
vn 0 0 -1
vn -3.006e-19 3.435e-19 -1
vn 3.006e-19 -3.435e-19 -1
vn -1.503e-19 1.717e-19 -1
vn 7.514e-20 -8.587e-20 -1
vn 0 0 -1
vn -1.878e-20 2.147e-20 -1
vn -1.503e-19 1.717e-19 -1
vn 0 0 -1
vn 0 0 1
vn -1.924e-17 2.198e-17 1
vn 0 0 1
vn 0 0 1
vn 0 0 1
vn 0 0 1
vn 0 0 1
vn 1.924e-17 -2.198e-17 1
vn -1.924e-17 2.198e-17 1
vn -9.618e-18 1.099e-17 1
vn -9.618e-18 1.099e-17 1
vn 8.416e-18 -9.618e-18 1
vn -1.689e-18 1.93e-18 1
vn -4.809e-18 5.496e-18 1
vn 0 0 1
vn -9.618e-18 1.099e-17 1
f 54//75 49//76 47//74 50//73
f 55//79 51//80 52//78 56//77
f 56//77 52//78 49//76 54//75
f 46//83 44//84 48//82 53//81
f 36//87 38//88 41//86 42//85
f 42//85 41//86 44//84 46//83
f 53//81 48//82 51//80 55//79
f 31//89 34//90 38//88 36//87
f 25//93 29//94 32//92 27//91
f 28//97 33//98 30//96 26//95
f 26//95 30//96 29//94 25//93
f 39//101 40//102 37//100 35//99
f 50//105 47//106 43//104 45//103
f 45//103 43//104 40//102 39//101
f 35//99 37//100 33//98 28//97
f 27//91 32//92 34//90 31//89
f 46//118 36//116 42//117
f 36//116 46//118 53//119
f 50//107 26//112 36//116
f 27//114 31//115 36//116
f 27//114 26//112 25//113
f 27//114 36//116 26//112
f 50//107 36//116 53//119
f 50//107 55//120 56//121
f 56//121 54//122 50//107
f 50//107 35//110 26//112
f 28//111 26//112 35//110
f 50//107 39//109 35//110
f 50//107 45//108 39//109
f 55//120 50//107 53//119
f 32//132 37//136 38//130
f 32//132 29//133 37//136
f 29//133 30//134 37//136
f 38//130 34//131 32//132
f 41//129 48//127 44//128
f 48//127 41//129 38//130
f 33//135 37//136 30//134
f 43//138 37//136 40//137
f 48//127 37//136 43//138
f 47//123 49//124 43//138
f 49//124 51//126 48//127
f 51//126 49//124 52//125
f 49//124 48//127 43//138
f 38//130 37//136 48//127
o object_5
v 1.351 2.238 0.001296
v 1.351 2.238 0.03333
v 1.352 2.763 0.001296
v 1.352 2.763 0.03333
v 1.578 1.764 0.001296
v 1.578 1.764 0.03333
v 1.58 3.236 0.001296
v 1.58 3.236 0.03333
v 1.988 1.436 0.001296
v 1.988 1.436 0.03333
v 1.992 3.563 0.001296
v 1.992 3.563 0.03333
v 2.5 1.318 0.001296
v 2.5 1.318 0.03333
v 2.504 3.679 0.001296
v 2.504 3.679 0.03333
v 3.012 1.434 0.001296
v 3.012 1.434 0.03333
v 3.016 3.561 0.001296
v 3.016 3.561 0.03333
v 3.424 1.761 0.001296
v 3.424 1.761 0.03333
v 3.426 3.233 0.001296
v 3.426 3.233 0.03333
v 3.653 2.234 0.001296
v 3.653 2.234 0.03333
v 3.654 2.759 0.001296
v 3.654 2.759 0.03333
vn -0.001842 -1 0
vn -0.001842 -1 0
vn -0.4355 -0.9002 0
vn -0.4355 -0.9002 0
vn -0.783 -0.622 0
vn -0.783 -0.622 0
vn -0.9753 -0.2207 0
vn -0.9753 -0.2207 0
vn -0.9745 0.2243 0
vn -0.9745 0.2243 0
vn -0.7807 0.6249 0
vn -0.7807 0.6249 0
vn -0.4322 0.9018 0
vn -0.4322 0.9018 0
vn 0.001842 1 0
vn 0.001842 1 0
vn 0.4355 0.9002 0
vn 0.4355 0.9002 0
vn 0.783 0.622 0
vn 0.783 0.622 0
vn 0.9753 0.2207 0
vn 0.9753 0.2207 0
vn 0.9745 -0.2243 0
vn 0.9745 -0.2243 0
vn 0.7807 -0.6249 0
vn 0.7807 -0.6249 0
vn 0.4322 -0.9018 0
vn 0.4322 -0.9018 0
vn -0.001842 -1 0
vn -0.001842 -1 0
vn 0 0 1
vn 0 0 1
vn 0 0 1
vn 0 0 1
vn 0 0 1
vn 0 0 1
vn 0 0 1
vn 0 0 1
vn 0 0 1
vn 0 0 1
vn 0 0 1
vn 0 0 1
vn 0 0 1
vn 0 0 1
vn 0 0 -1
vn 0 0 -1
vn 0 0 -1
vn 0 0 -1
vn 0 0 -1
vn 0 0 -1
vn 0 0 -1
vn 0 0 -1
vn 0 0 -1
vn 0 0 -1
vn 0 0 -1
vn 0 0 -1
vn 0 0 -1
vn 0 0 -1
f 70//139 66//141 65//142 69//140
f 66//141 62//143 61//144 65//142
f 62//143 58//145 57//146 61//144
f 58//145 60//147 59//148 57//146
f 60//147 64//149 63//150 59//148
f 64//149 68//151 67//152 63//150
f 68//151 72//153 71//154 67//152
f 72//153 76//155 75//156 71//154
f 76//155 80//157 79//158 75//156
f 80//157 84//159 83//160 79//158
f 84//159 82//161 81//162 83//160
f 82//161 78//163 77//164 81//162
f 78//163 74//165 73//166 77//164
f 74//165 70//167 69//168 73//166
f 80//178 76//177 72//176
f 64//174 82//180 80//178
f 68//175 80//178 72//176
f 64//174 80//178 68//175
f 60//173 62//171 64//174
f 82//180 84//179 80//178
f 74//182 78//181 82//180
f 62//171 74//182 82//180
f 58//172 62//171 60//173
f 62//171 66//170 70//169
f 62//171 70//169 74//182
f 82//180 64//174 62//171
f 79//192 71//190 75//191
f 63//188 79//192 81//194
f 67//189 71//190 79//192
f 63//188 67//189 79//192
f 59//187 63//188 61//185
f 81//194 79//192 83//193
f 73//196 81//194 77//195
f 61//185 81//194 73//196
f 57//186 59//187 61//185
f 61//185 69//183 65//184
f 61//185 73//196 69//183
f 81//194 61//185 63//188
o object_6
v 1.669 2.4 0.4816
v 1.669 2.4 0.5165
v 1.709 2.771 0.4816
v 1.709 2.771 0.5165
v 1.793 2.048 0.4816
v 1.793 2.048 0.5165
v 1.907 3.088 0.4816
v 1.907 3.088 0.5165
v 2.057 1.785 0.4816
v 2.057 1.785 0.5165
v 2.223 3.287 0.4816
v 2.223 3.287 0.5165
v 2.41 1.663 0.4816
v 2.41 1.663 0.5165
v 2.593 3.33 0.4816
v 2.593 3.33 0.5165
v 2.781 1.706 0.4816
v 2.781 1.706 0.5165
v 2.946 3.207 0.4816
v 2.946 3.207 0.5165
v 3.096 1.905 0.4816
v 3.096 1.905 0.5165
v 3.21 2.944 0.4816
v 3.21 2.944 0.5165
v 3.294 2.221 0.4816
v 3.294 2.221 0.5165
v 3.335 2.592 0.4816
v 3.335 2.592 0.5165
vn 0.9448 -0.3278 0
vn 0.9448 -0.3278 0
vn 0.709 -0.7052 0
vn 0.709 -0.7052 0
vn 0.3328 -0.943 0
vn 0.3328 -0.943 0
vn -0.1093 -0.994 0
vn -0.1093 -0.994 0
vn -0.5298 -0.8481 0
vn -0.5298 -0.8481 0
vn -0.8453 -0.5343 0
vn -0.8453 -0.5343 0
vn -0.9934 -0.1146 0
vn -0.9934 -0.1146 0
vn -0.9448 0.3278 0
vn -0.9448 0.3278 0
vn -0.709 0.7052 0
vn -0.709 0.7052 0
vn -0.3328 0.943 0
vn -0.3328 0.943 0
vn 0.1093 0.994 0
vn 0.1093 0.994 0
vn 0.5298 0.8481 0
vn 0.5298 0.8481 0
vn 0.8453 0.5343 0
vn 0.8453 0.5343 0
vn 0.9934 0.1146 0
vn 0.9934 0.1146 0
vn 0.9448 -0.3278 0
vn 0.9448 -0.3278 0
vn 0 0 1
vn 0 0 1
vn 0 0 1
vn 0 0 1
vn 0 0 1
vn 0 0 1
vn 0 0 1
vn 0 0 1
vn 0 0 1
vn 0 0 1
vn 0 0 1
vn 0 0 1
vn 0 0 1
vn 0 0 1
vn 0 0 -1
vn 0 0 -1
vn 0 0 -1
vn 0 0 -1
vn 0 0 -1
vn 0 0 -1
vn 0 0 -1
vn 0 0 -1
vn 0 0 -1
vn 0 0 -1
vn 0 0 -1
vn 0 0 -1
vn 0 0 -1
vn 0 0 -1
f 110//197 106//199 105//200 109//198
f 106//199 102//201 101//202 105//200
f 102//201 98//203 97//204 101//202
f 98//203 94//205 93//206 97//204
f 94//205 90//207 89//208 93//206
f 90//207 86//209 85//210 89//208
f 86//209 88//211 87//212 85//210
f 88//211 92//213 91//214 87//212
f 92//213 96//215 95//216 91//214
f 96//215 100//217 99//218 95//216
f 100//217 104//219 103//220 99//218
f 104//219 108//221 107//222 103//220
f 108//221 112//223 111//224 107//222
f 112//223 110//225 109//226 111//224
f 100//237 96//236 92//235
f 104//238 92//235 90//232
f 86//233 92//235 88//234
f 90//232 92//235 86//233
f 94//231 98//230 90//232
f 100//237 92//235 104//238
f 108//239 104//238 110//227
f 112//240 108//239 110//227
f 98//230 102//229 90//232
f 102//229 106//228 110//227
f 90//232 102//229 110//227
f 110//227 104//238 90//232
f 99//251 91//249 95//250
f 103//252 89//246 91//249
f 85//247 87//248 91//249
f 89//246 85//247 91//249
f 93//245 89//246 97//244
f 99//251 103//252 91//249
f 107//253 109//241 103//252
f 111//254 109//241 107//253
f 97//244 89//246 101//243
f 101//243 109//241 105//242
f 89//246 109//241 101//243
f 109//241 89//246 103//252
o object_7
v 1.561 3.173 0.3422
v 1.561 3.173 0.3422
v 1.561 3.173 0.3422
v 1.561 3.173 0.3422
vn -0.7061 0.641 0.3009
vn -0.706 0.6411 0.3009
vn -0.706 0.6411 0.3009
vn -0.706 0.6411 0.3009
f 115//256 114//258 116//257
f 114//258 115//256 113//255
o object_8
v 3.189 2.478 0.491
v 3.189 2.517 0.491
v 3.322 2.478 0.491
v 3.322 2.517 0.491
v 3.535 2.478 0.02233
v 3.535 2.517 0.02233
v 3.668 2.478 0.02233
v 3.668 2.517 0.02233
vn 0 1 0
vn 0 1 0
vn 0 1 0
vn 0 1 0
vn -0.8046 0 -0.5938
vn -0.8046 0 -0.5938
vn -0.8046 0 -0.5938
vn -0.8046 0 -0.5938
vn 0 -1 0
vn 0 -1 0
vn 0 -1 0
vn 0 -1 0
vn 0.8046 0 0.5938
vn 0.8046 0 0.5938
vn 0.8046 0 0.5938
vn 0.8046 0 0.5938
vn -2.776e-16 0 -1
vn -2.776e-16 0 -1
vn -2.776e-16 0 -1
vn -2.776e-16 0 -1
vn 2.776e-16 0 1
vn 2.776e-16 0 1
vn 2.776e-16 0 1
vn 2.776e-16 0 1
f 124//259 122//261 118//262 120//260
f 122//263 121//265 117//266 118//264
f 121//267 123//269 119//270 117//268
f 123//271 124//273 120//274 119//272
f 122//276 124//275 123//278
f 123//278 121//277 122//276
f 118//280 119//282 120//279
f 119//282 118//280 117//281
o object_9
v 2.976 1.998 0.491
v 3.004 2.025 0.491
v 3.07 1.904 0.491
v 3.098 1.931 0.491
v 3.221 1.753 0.02233
v 3.249 1.781 0.02233
v 3.315 1.659 0.02233
v 3.343 1.687 0.02233
vn 0.7071 0.7071 1.027e-15
vn 0.7071 0.7071 1.027e-15
vn 0.7071 0.7071 1.027e-15
vn 0.7071 0.7071 1.027e-15
vn -0.569 0.569 -0.5938
vn -0.569 0.569 -0.5938
vn -0.569 0.569 -0.5938
vn -0.569 0.569 -0.5938
vn -0.7071 -0.7071 -1.027e-15
vn -0.7071 -0.7071 -1.027e-15
vn -0.7071 -0.7071 -1.027e-15
vn -0.7071 -0.7071 -1.027e-15
vn 0.569 -0.569 0.5938
vn 0.569 -0.569 0.5938
vn 0.569 -0.569 0.5938
vn 0.569 -0.569 0.5938
vn 8.327e-16 6.661e-16 -1
vn 8.327e-16 6.661e-16 -1
vn 8.327e-16 6.661e-16 -1
vn 8.327e-16 6.661e-16 -1
vn -8.327e-16 -6.661e-16 1
vn -8.327e-16 -6.661e-16 1
vn -8.327e-16 -6.661e-16 1
vn -8.327e-16 -6.661e-16 1
f 132//283 130//285 126//286 128//284
f 130//287 129//289 125//290 126//288
f 129//291 131//293 127//294 125//292
f 131//295 132//297 128//298 127//296
f 130//300 132//299 131//302
f 131//302 129//301 130//300
f 126//304 127//306 128//303
f 127//306 126//304 125//305
o object_10
v 1.666 3.31 0.02233
v 1.694 3.338 0.02233
v 1.76 3.216 0.02233
v 1.788 3.244 0.02233
v 1.91 3.066 0.491
v 1.938 3.093 0.491
v 2.004 2.972 0.491
v 2.032 2.999 0.491
vn -0.7071 -0.7071 -3.331e-16
vn -0.7071 -0.7071 -3.331e-16
vn -0.7071 -0.7071 -3.331e-16
vn -0.7071 -0.7071 -3.331e-16
vn 0.569 -0.569 -0.5938
vn 0.569 -0.569 -0.5938
vn 0.569 -0.569 -0.5938
vn 0.569 -0.569 -0.5938
vn 0.7071 0.7071 3.331e-16
vn 0.7071 0.7071 3.331e-16
vn 0.7071 0.7071 3.331e-16
vn 0.7071 0.7071 3.331e-16
vn -0.569 0.569 0.5938
vn -0.569 0.569 0.5938
vn -0.569 0.569 0.5938
vn -0.569 0.569 0.5938
vn 3.886e-16 1.665e-16 -1
vn 3.886e-16 1.665e-16 -1
vn 3.886e-16 1.665e-16 -1
vn 3.886e-16 1.665e-16 -1
vn -3.886e-16 -1.665e-16 1
vn -3.886e-16 -1.665e-16 1
vn -3.886e-16 -1.665e-16 1
vn -3.886e-16 -1.665e-16 1
f 133//307 135//309 139//310 137//308
f 135//311 136//313 140//314 139//312
f 136//315 134//317 138//318 140//316
f 134//319 133//321 137//322 138//320
f 135//324 133//323 134//326
f 134//326 136//325 135//324
f 139//328 138//330 137//327
f 138//330 139//328 140//329
o object_11
v 1.662 1.687 0.02233
v 1.69 1.659 0.02233
v 1.757 1.781 0.02233
v 1.784 1.753 0.02233
v 1.907 1.932 0.491
v 1.935 1.904 0.491
v 2.001 2.026 0.491
v 2.029 1.998 0.491
vn 0.7071 -0.7071 0
vn 0.7071 -0.7071 0
vn 0.7071 -0.7071 0
vn 0.7071 -0.7071 0
vn 0.569 0.569 -0.5938
vn 0.569 0.569 -0.5938
vn 0.569 0.569 -0.5938
vn 0.569 0.569 -0.5938
vn -0.7071 0.7071 0
vn -0.7071 0.7071 0
vn -0.7071 0.7071 0
vn -0.7071 0.7071 0
vn -0.569 -0.569 0.5938
vn -0.569 -0.569 0.5938
vn -0.569 -0.569 0.5938
vn -0.569 -0.569 0.5938
vn -1.665e-16 -1.665e-16 -1
vn -1.665e-16 -1.665e-16 -1
vn -1.665e-16 -1.665e-16 -1
vn -1.665e-16 -1.665e-16 -1
vn 1.665e-16 1.665e-16 1
vn 1.665e-16 1.665e-16 1
vn 1.665e-16 1.665e-16 1
vn 1.665e-16 1.665e-16 1
f 142//331 144//333 148//334 146//332
f 144//335 143//337 147//338 148//336
f 143//339 141//341 145//342 147//340
f 141//343 142//345 146//346 145//344
f 144//348 142//347 141//350
f 141//350 143//349 144//348
f 148//352 145//354 146//351
f 145//354 148//352 147//353
o object_12
v 2.975 2.997 0.491
v 3.003 2.97 0.491
v 3.069 3.092 0.491
v 3.097 3.064 0.491
v 3.22 3.242 0.02233
v 3.247 3.214 0.02233
v 3.314 3.336 0.02233
v 3.341 3.308 0.02233
vn -0.7071 0.7071 5.551e-17
vn -0.7071 0.7071 5.551e-17
vn -0.7071 0.7071 5.551e-17
vn -0.7071 0.7071 5.551e-17
vn -0.569 -0.569 -0.5938
vn -0.569 -0.569 -0.5938
vn -0.569 -0.569 -0.5938
vn -0.569 -0.569 -0.5938
vn 0.7071 -0.7071 -5.551e-17
vn 0.7071 -0.7071 -5.551e-17
vn 0.7071 -0.7071 -5.551e-17
vn 0.7071 -0.7071 -5.551e-17
vn 0.569 0.569 0.5938
vn 0.569 0.569 0.5938
vn 0.569 0.569 0.5938
vn 0.569 0.569 0.5938
vn 2.22e-16 3.331e-16 -1
vn 2.22e-16 3.331e-16 -1
vn 2.22e-16 3.331e-16 -1
vn 2.22e-16 3.331e-16 -1
vn -2.22e-16 -3.331e-16 1
vn -2.22e-16 -3.331e-16 1
vn -2.22e-16 -3.331e-16 1
vn -2.22e-16 -3.331e-16 1
f 155//355 153//357 149//358 151//356
f 153//359 154//361 150//362 149//360
f 154//363 156//365 152//366 150//364
f 156//367 155//369 151//370 152//368
f 153//372 155//371 156//374
f 156//374 154//373 153//372
f 149//376 152//378 151//375
f 152//378 149//376 150//377
