# Rhino

v 13.77029705047607 4.999999046325684 1.604012966156006
v 13.77029705047607 4.999999046325684 1.604012966156006
v 13.77029705047607 4.999999046325684 0.05745799839496613
v 13.77029705047607 4.999999046325684 0.05745799839496613
v 13.39871788024902 6.868053913116455 1.604012966156006
v 13.39871788024902 6.868053913116455 1.604012966156006
v 13.39871788024902 6.868053913116455 0.05745799839496613
v 13.39871788024902 6.868053913116455 0.05745799839496613
v 13.39871692657471 3.131943941116333 1.604012966156006
v 13.39871692657471 3.131943941116333 1.604012966156006
v 13.39871692657471 3.131943941116333 0.05745799839496613
v 13.39871692657471 3.131943941116333 0.05745799839496613
v 12.34054946899414 8.451715469360352 1.604012966156006
v 12.34054946899414 8.451715469360352 1.604012966156006
v 12.34054946899414 8.451715469360352 0.05745799839496613
v 12.34054946899414 8.451715469360352 0.05745799839496613
v 12.34054756164551 1.54828405380249 1.604012966156006
v 12.34054756164551 1.54828405380249 1.604012966156006
v 12.34054756164551 1.54828405380249 0.05745799839496613
v 12.34054756164551 1.54828405380249 0.05745799839496613
v 10.75688934326172 9.509882926940918 1.604012966156006
v 10.75688934326172 9.509882926940918 1.604012966156006
v 10.75688934326172 9.509882926940918 0.05745799839496613
v 10.75688934326172 9.509882926940918 0.05745799839496613
v 10.7568883895874 0.4901170134544373 1.604012966156006
v 10.7568883895874 0.4901170134544373 1.604012966156006
v 10.7568883895874 0.4901170134544373 0.05745799839496613
v 10.7568883895874 0.4901170134544373 0.05745799839496613
v 8.888833999633789 9.881462097167969 1.604012966156006
v 8.888833999633789 9.881462097167969 1.604012966156006
v 8.888833999633789 9.881462097167969 0.05745799839496613
v 8.888833999633789 9.881462097167969 0.05745799839496613
v 8.888833045959473 0.118537999689579 1.604012966156006
v 8.888833045959473 0.118537999689579 1.604012966156006
v 8.888833045959473 0.118537999689579 0.05745799839496613
v 8.888833045959473 0.118537999689579 0.05745799839496613
v 7.020781993865967 9.509883880615234 1.604012966156006
v 7.020781993865967 9.509883880615234 1.604012966156006
v 7.020781993865967 9.509883880615234 0.05745799839496613
v 7.020781993865967 9.509883880615234 0.05745799839496613
v 7.020778179168701 0.4901179969310761 1.604012966156006
v 7.020778179168701 0.4901179969310761 1.604012966156006
v 7.020778179168701 0.4901179969310761 0.05745799839496613
v 7.020778179168701 0.4901179969310761 0.05745799839496613
v 5.437121868133545 8.451717376708984 1.604012966156006
v 5.437121868133545 8.451717376708984 1.604012966156006
v 5.437121868133545 8.451717376708984 0.05745799839496613
v 5.437121868133545 8.451717376708984 0.05745799839496613
v 5.437118053436279 1.548287034034729 1.604012966156006
v 5.437118053436279 1.548287034034729 1.604012966156006
v 5.437118053436279 1.548287034034729 0.05745799839496613
v 5.437118053436279 1.548287034034729 0.05745799839496613
v 4.378952980041504 6.868056774139404 1.604012966156006
v 4.378952980041504 6.868056774139404 1.604012966156006
v 4.378952980041504 6.868056774139404 0.05745799839496613
v 4.378952980041504 6.868056774139404 0.05745799839496613
v 4.378951072692871 3.131947994232178 1.604012966156006
v 4.378951072692871 3.131947994232178 1.604012966156006
v 4.378951072692871 3.131947994232178 0.05745799839496613
v 4.378951072692871 3.131947994232178 0.05745799839496613
v 4.007372856140137 5.000001907348633 1.604012966156006
v 4.007372856140137 5.000001907348633 1.604012966156006
v 4.007372856140137 5.000001907348633 0.05745799839496613
v 4.007372856140137 5.000001907348633 0.05745799839496613
vn 0.997809112071991 -0.06615915894508362 0
vn 0 0 1
vn 0.997809112071991 0.06615865230560303 0
vn 0 0 -1
vn 0.9471732974052429 0.3207221925258637 0
vn 0 0 1
vn 0.8965374827384949 0.4429679214954376 0
vn 0 0 -1
vn 0.8965373039245606 -0.4429682493209839 0
vn 0 0 1
vn 0.9471731781959534 -0.3207226097583771 0
vn 0 0 -1
vn 0.7523388862609863 0.6587762832641602 0
vn 0 0 1
vn 0.6587762236595154 0.7523389458656311 0
vn 0 0 -1
vn 0.6587759256362915 -0.752339243888855 0
vn 0 0 1
vn 0.7523386478424072 -0.658776581287384 0
vn 0 0 -1
vn 0.4429678618907929 0.8965374827384949 0
vn 0 0 1
vn 0.3207221627235413 0.9471732974052429 0
vn 0 0 -1
vn 0.3207220137119293 -0.9471733570098877 0
vn 0 0 1
vn 0.4429675936698914 -0.8965376019477844 0
vn 0 0 -1
vn 0.06615888327360153 0.997809112071991 0
vn 0 0 1
vn 0 0 -1
vn -0.06615866720676422 0.997809112071991 0
vn 0 0 1
vn -0.06615915894508362 -0.997809112071991 0
vn 0.06615865230560303 -0.997809112071991 0
vn 0 0 -1
vn 0 0 1
vn -0.3207218945026398 0.9471734166145325 0
vn 0 0 -1
vn -0.4429675340652466 0.8965376615524292 0
vn 0 0 1
vn -0.4429682493209839 -0.8965373039245606 0
vn 0 0 -1
vn -0.3207226097583771 -0.9471731781959534 0
vn 0 0 1
vn -0.6587759256362915 0.752339243888855 0
vn 0 0 -1
vn -0.7523386478424072 0.658776581287384 0
vn 0 0 1
vn -0.7523393630981445 -0.6587757468223572 0
vn 0 0 -1
vn -0.6587766408920288 -0.7523385882377625 0
vn 0 0 1
vn -0.8965373039245606 0.4429682493209839 0
vn 0 0 -1
vn -0.9471731781959534 0.3207226097583771 0
vn 0 0 1
vn -0.9471734762191773 -0.3207216560840607 0
vn 0 0 -1
vn -0.8965377807617188 -0.4429672956466675 0
vn 0 0 1
vn -0.9978090524673462 0.06615929305553436 0
vn 0 0 -1
vn -0.997809112071991 -0.06615836918354034 0
f 16//16 55//55 47//47 24//24
f 8//8 63//63 55//55 16//16
f 4//4 59//59 63//63 8//8
f 12//12 51//51 59//59 4//4
f 20//20 43//43 51//51 12//12
f 28//28 36//36 43//43 20//20
f 53//53 14//14 22//22 45//45
f 61//61 6//6 14//14 53//53
f 57//57 2//2 6//6 61//61
f 49//49 10//10 2//2 57//57
f 41//41 18//18 10//10 49//49
f 33//33 26//26 18//18 41//41
f 22//22 30//30 37//37 45//45
f 24//24 47//47 39//39 31//31
f 38//38 29//29 32//32 40//40
f 29//29 21//21 23//23 32//32
f 21//21 13//13 15//15 23//23
f 13//13 5//5 7//7 15//15
f 5//5 1//1 3//3 7//7
f 1//1 9//9 11//11 3//3
f 9//9 17//17 19//19 11//11
f 17//17 25//25 27//27 19//19
f 25//25 34//34 35//35 27//27
f 34//34 42//42 44//44 35//35
f 42//42 50//50 52//52 44//44
f 50//50 58//58 60//60 52//52
f 58//58 62//62 64//64 60//60
f 62//62 54//54 56//56 64//64
f 54//54 46//46 48//48 56//56
f 46//46 38//38 40//40 48//48
