# RokuSuper Output Ver2.0 for Wavefront Obj

v 1.01076400 2.72071300 1.55117900
v 1.01113000 2.72071300 1.65483800
v 1.25169200 2.72071300 1.65054300
v 1.28649800 2.72071300 1.55290500
v 1.01076400 2.75823600 1.55117900
v 1.28649800 2.75823600 1.55290500
v 1.01113000 2.75823600 1.65483800
v 1.25169200 2.75823600 1.65054300
v 1.72678000 2.72071300 1.81650700
v 1.77202000 2.72071300 1.68959900
v 1.72678000 2.75823600 1.81650700
v 1.77202000 2.75823600 1.68959900
v 1.30746200 2.31484200 1.54192700
v 0.76509800 2.31160600 1.78352300
v 0.72429400 2.31160600 1.64714900
v 0.97840800 2.31484200 1.54192700
v 0.72429400 2.30255600 1.64714900
v 0.97840800 2.29932000 1.54192700
v 0.76509800 2.30255600 1.78352300
v 1.30746200 2.29932000 1.54192700
v 0.97840800 2.29932000 1.50268700
v 1.30746200 2.29932000 1.50268700
v 1.30746200 2.31484200 1.50268700
v 0.97840800 2.31484200 1.50268700
v 0.72429400 2.68838500 1.64714900
v 0.76509800 2.68838500 1.78352300
v 1.30746200 2.68515700 1.54192700
v 0.97840800 2.68515700 1.54192700
v 0.72429400 2.69744200 1.64714900
v 0.97840800 2.70067200 1.54192700
v 0.76509800 2.69744200 1.78352300
v 1.30746200 2.70067200 1.54192700
v 0.97840800 2.70067200 1.50268700
v 1.30746200 2.70067200 1.50268700
v 1.30746200 2.68515700 1.50268700
v 0.97840800 2.68515700 1.50268700
v 1.25169200 2.27927600 1.65054300
v 1.01113000 2.27927600 1.65483800
v 1.01076400 2.27927600 1.55117900
v 1.28649800 2.27927600 1.55290500
v 1.01076400 2.24175500 1.55117900
v 1.28649800 2.24175500 1.55290500
v 1.01113000 2.24175500 1.65483800
v 1.25169200 2.24175500 1.65054300
v 1.77202000 2.27927600 1.68959900
v 1.72678000 2.27927600 1.81650700
v 1.72678000 2.24175500 1.81650700
v 1.77202000 2.24175500 1.68959900
v 1.88461700 2.26858300 1.35576600
v 1.58149100 1.99964600 2.13712800
v 1.58149100 1.53112800 2.13712800
v 1.88461700 1.53063100 1.35576600
v 1.62783300 1.99867700 2.13712800
v 1.93095800 2.26858300 1.35576600
v 1.52864500 1.99817200 2.27869200
v 1.52864500 1.53162700 2.27869200
v 1.57498700 1.53162700 2.27869200
v 1.62783300 1.53112800 2.13712800
v 1.57498700 1.99817200 2.27869200
v 1.62783300 1.99817200 2.13712800
v 1.62783300 2.26858300 2.13712800
v 1.58149100 2.26858300 2.13712800
v 1.93095800 1.53063100 1.35576600
v 1.93095800 2.26858300 1.28419000
v 1.93095800 1.53063100 1.28419000
v 1.88461700 1.53063100 1.28419000
v 1.88461700 2.26858300 1.28419000
v 1.58149100 3.46886300 2.13712800
v 1.58149100 3.00035200 2.13712800
v 1.88461700 2.73140700 1.35576600
v 1.88461700 3.46936900 1.35576600
v 1.62783300 3.00131200 2.13712800
v 1.93095800 2.73140700 1.35576600
v 1.52864500 3.46836400 2.27869200
v 1.52864500 3.00181800 2.27869200
v 1.57498700 3.46836400 2.27869200
v 1.62783300 3.46886300 2.13712800
v 1.57498700 3.00181800 2.27869200
v 1.62783300 3.00181800 2.13712800
v 1.62783300 2.73140700 2.13712800
v 1.58149100 2.73140700 2.13712800
v 1.93095800 3.46936900 1.35576600
v 1.93095800 3.46936900 1.28419000
v 1.93095800 2.73140700 1.28419000
v 1.88461700 3.46936900 1.28419000
v 1.88461700 2.73140700 1.28419000

vn 0.00000000 -1.00000000 0.00000000
vn 0.00000000 -1.00000000 0.00000000
vn 0.00000000 -1.00000000 0.00000000
vn 0.00000000 -1.00000000 0.00000000
vn 0.00625953 0.00000000 -0.99998041
vn 0.00625953 0.00000000 -0.99998041
vn 0.09526762 0.00000000 -0.99545170
vn 0.18422538 0.00000000 -0.98288403
vn 0.00000000 1.00000000 0.00000000
vn 0.00000000 1.00000000 0.00000000
vn 0.00000000 1.00000000 0.00000000
vn 0.00000000 1.00000000 0.00000000
vn 0.01785118 0.00000000 0.99984065
vn 0.01785118 0.00000000 0.99984065
vn -0.09940787 0.00000000 0.99504677
vn -0.21691800 0.00000000 0.97618983
vn 0.00000000 -1.00000000 0.00000000
vn 0.00000000 -1.00000000 0.00000000
vn 0.00000000 -1.00000000 0.00000000
vn 0.00000000 -1.00000000 0.00000000
vn 0.00000000 1.00000000 0.00000000
vn 0.00000000 1.00000000 0.00000000
vn 0.00000000 1.00000000 0.00000000
vn 0.00000000 1.00000000 0.00000000
vn 0.27100450 0.00000000 -0.96257808
vn 0.27100450 0.00000000 -0.96257808
vn 0.18422538 0.00000000 -0.98288403
vn 0.09526762 0.00000000 -0.99545170
vn -0.99999377 0.00000000 0.00353079
vn -0.99999377 0.00000000 0.00353079
vn -0.99999377 0.00000000 0.00353079
vn -0.99999377 0.00000000 0.00353079
vn -0.21691800 0.00000000 0.97618983
vn -0.09940787 0.00000000 0.99504677
vn -0.32978955 0.00000000 0.94405448
vn -0.32978955 0.00000000 0.94405448
vn 0.94193990 0.00000000 0.33578152
vn 0.94193990 0.00000000 0.33578152
vn 0.94193990 0.00000000 0.33578152
vn 0.94193990 0.00000000 0.33578152
vn -0.00566509 0.99994874 0.00839175
vn 0.00000000 0.99991031 0.01339306
vn -0.00566509 0.99994874 0.00839175
vn -0.01132985 0.99993007 0.00338997
vn -0.38257337 0.00000000 -0.92392512
vn -0.38257337 0.00000000 -0.92392512
vn -0.38257337 0.00000000 -0.92392512
vn -0.38257337 0.00000000 -0.92392512
vn -0.00263264 -0.99986597 0.01615914
vn 0.00000000 -0.99994749 0.01024757
vn -0.00175508 -0.99994043 0.01077268
vn -0.00526470 -0.99998490 0.00157523
vn 0.40690529 0.00000000 0.91347035
vn 0.40690529 0.00000000 0.91347035
vn 0.40690529 0.00000000 0.91347035
vn 0.40690529 0.00000000 0.91347035
vn 0.00000000 -0.99994749 0.01024757
vn 0.00000000 -1.00000000 0.00000000
vn 0.00000000 -1.00000000 0.00000000
vn -0.00175508 -0.99994043 0.01077268
vn 0.00000000 0.00000000 -1.00000000
vn 0.00000000 0.00000000 -1.00000000
vn 0.00000000 0.00000000 -1.00000000
vn 0.00000000 0.00000000 -1.00000000
vn -1.00000000 0.00000000 0.00000000
vn -1.00000000 0.00000000 0.00000000
vn -1.00000000 0.00000000 0.00000000
vn -1.00000000 0.00000000 0.00000000
vn -0.95803524 0.00000000 0.28665046
vn -0.95803524 0.00000000 0.28665046
vn -0.95803524 0.00000000 0.28665046
vn -0.95803524 0.00000000 0.28665046
vn 1.00000000 0.00000000 0.00000000
vn 1.00000000 0.00000000 0.00000000
vn 1.00000000 0.00000000 0.00000000
vn 1.00000000 0.00000000 0.00000000
vn -0.00565108 -0.99994899 0.00837101
vn -0.01130185 -0.99993041 0.00338159
vn -0.00565108 -0.99994899 0.00837101
vn 0.00000000 -0.99991075 0.01335996
vn -0.38257337 0.00000000 -0.92392512
vn -0.38257337 0.00000000 -0.92392512
vn -0.38257337 0.00000000 -0.92392512
vn -0.38257337 0.00000000 -0.92392512
vn -0.00262775 0.99986646 0.01612920
vn -0.00525493 0.99998496 0.00157231
vn -0.00175182 0.99994065 0.01075272
vn 0.00000000 0.99994769 0.01022859
vn 0.40690529 0.00000000 0.91347035
vn 0.40690529 0.00000000 0.91347035
vn 0.40690529 0.00000000 0.91347035
vn 0.40690529 0.00000000 0.91347035
vn 0.00000000 0.99994769 0.01022859
vn -0.00175182 0.99994065 0.01075272
vn 0.00000000 1.00000000 0.00000000
vn 0.00000000 1.00000000 0.00000000
vn 0.00000000 0.00000000 -1.00000000
vn 0.00000000 0.00000000 -1.00000000
vn 0.00000000 0.00000000 -1.00000000
vn 0.00000000 0.00000000 -1.00000000
vn 0.00000000 0.00000000 -1.00000000
vn 0.00000000 0.00000000 -1.00000000
vn 0.00000000 0.00000000 -1.00000000
vn 0.00000000 0.00000000 -1.00000000
vn -1.00000000 0.00000000 0.00000000
vn -1.00000000 0.00000000 0.00000000
vn -1.00000000 0.00000000 0.00000000
vn -1.00000000 0.00000000 0.00000000
vn -1.00000000 0.00000000 0.00000000
vn -1.00000000 0.00000000 0.00000000
vn -1.00000000 0.00000000 0.00000000
vn -1.00000000 0.00000000 0.00000000
vn -0.95803524 0.00000000 0.28665046
vn -0.95803524 0.00000000 0.28665046
vn -0.95803524 0.00000000 0.28665046
vn -0.95803524 0.00000000 0.28665046
vn 0.00000000 0.00000000 1.00000000
vn 0.00000000 0.00000000 1.00000000
vn 0.00000000 0.00000000 1.00000000
vn 0.00000000 0.00000000 1.00000000
vn 1.00000000 0.00000000 0.00000000
vn 1.00000000 0.00000000 0.00000000
vn 1.00000000 0.00000000 0.00000000
vn 1.00000000 0.00000000 0.00000000
vn 1.00000000 0.00000000 0.00000000
vn 1.00000000 0.00000000 0.00000000
vn 1.00000000 0.00000000 0.00000000
vn 1.00000000 0.00000000 0.00000000
vn 0.00000000 1.00000000 0.00000000
vn 0.00000000 1.00000000 0.00000000
vn 0.00000000 1.00000000 0.00000000
vn 0.00000000 1.00000000 0.00000000
vn 0.00625953 0.00000000 -0.99998041
vn 0.18422538 0.00000000 -0.98288403
vn 0.09526762 0.00000000 -0.99545170
vn 0.00625953 0.00000000 -0.99998041
vn 0.00000000 -1.00000000 0.00000000
vn 0.00000000 -1.00000000 0.00000000
vn 0.00000000 -1.00000000 0.00000000
vn 0.00000000 -1.00000000 0.00000000
vn 0.01785118 0.00000000 0.99984065
vn -0.21691800 0.00000000 0.97618983
vn -0.09940787 0.00000000 0.99504677
vn 0.01785118 0.00000000 0.99984065
vn 0.00000000 1.00000000 0.00000000
vn 0.00000000 1.00000000 0.00000000
vn 0.00000000 1.00000000 0.00000000
vn 0.00000000 1.00000000 0.00000000
vn 0.00000000 -1.00000000 0.00000000
vn 0.00000000 -1.00000000 0.00000000
vn 0.00000000 -1.00000000 0.00000000
vn 0.00000000 -1.00000000 0.00000000
vn 0.27100450 0.00000000 -0.96257808
vn 0.09526762 0.00000000 -0.99545170
vn 0.18422538 0.00000000 -0.98288403
vn 0.27100450 0.00000000 -0.96257808
vn -0.99999377 0.00000000 0.00353079
vn -0.99999377 0.00000000 0.00353079
vn -0.99999377 0.00000000 0.00353079
vn -0.99999377 0.00000000 0.00353079
vn -0.21691800 0.00000000 0.97618983
vn -0.32978955 0.00000000 0.94405448
vn -0.32978955 0.00000000 0.94405448
vn -0.09940787 0.00000000 0.99504677
vn 0.94193990 0.00000000 0.33578152
vn 0.94193990 0.00000000 0.33578152
vn 0.94193990 0.00000000 0.33578152
vn 0.94193990 0.00000000 0.33578152
vn -0.93345323 0.00000000 -0.35869914
vn -0.98292965 0.00000000 -0.18398178
vn -0.98292965 0.00000000 -0.18398178
vn -0.93535174 0.00000000 -0.35371898
vn 0.98749635 0.00000000 0.15764185
vn 0.93230181 0.00000000 0.36168125
vn 0.93230181 0.00000000 0.36168125
vn -0.93685140 0.00000000 -0.34972768
vn -0.93345323 0.00000000 -0.35869914
vn -0.93535174 0.00000000 -0.35371898
vn -0.93685140 0.00000000 -0.34972768
vn 0.00000000 -0.99999379 0.00352489
vn 0.00000000 -0.99999872 0.00159901
vn 0.00000000 -0.99999672 0.00256195
vn 0.00000000 -0.99999379 0.00352489
vn 0.93685140 0.00000000 0.34972768
vn 0.93685140 0.00000000 0.34972768
vn 0.93685140 0.00000000 0.34972768
vn 0.93685140 0.00000000 0.34972768
vn 0.01589636 0.99981158 0.01114063
vn 0.03178868 0.99942416 0.01186675
vn 0.01589636 0.99981158 0.01114063
vn 0.00000000 0.99994580 0.01041169
vn 0.00000000 0.00000000 1.00000000
vn 0.00000000 0.00000000 1.00000000
vn 0.00000000 0.00000000 1.00000000
vn 0.00000000 0.00000000 1.00000000
vn -0.93345323 0.00000000 -0.35869914
vn -0.93230141 0.00000000 -0.36168229
vn -0.98292965 0.00000000 -0.18398178
vn 0.00000000 -0.99999872 0.00159901
vn 0.00000000 -0.99999998 0.00021202
vn 0.00000000 -0.99999991 0.00042405
vn 0.00000000 -0.99999672 0.00256195
vn 0.93230181 0.00000000 0.36168125
vn 0.98292976 0.00000000 0.18398123
vn 0.98749635 0.00000000 0.15764185
vn 0.93230181 0.00000000 0.36168125
vn 0.00000000 1.00000000 0.00000000
vn 0.00000000 1.00000000 0.00000000
vn 0.00000000 1.00000000 0.00000000
vn 0.00000000 1.00000000 0.00000000
vn 1.00000000 0.00000000 0.00000000
vn 1.00000000 0.00000000 0.00000000
vn 0.98749635 0.00000000 0.15764185
vn 0.98292976 0.00000000 0.18398123
vn 0.00000000 0.00000000 1.00000000
vn 0.00000000 0.00000000 1.00000000
vn 0.00000000 0.00000000 1.00000000
vn 0.00000000 0.00000000 1.00000000
vn -0.98292965 0.00000000 -0.18398178
vn -0.98292965 0.00000000 -0.18398178
vn -1.00000000 0.00000000 0.00000000
vn -1.00000000 0.00000000 0.00000000
vn 0.00000000 0.00000000 -1.00000000
vn 0.00000000 0.00000000 -1.00000000
vn 0.00000000 0.00000000 -1.00000000
vn 0.00000000 0.00000000 -1.00000000
vn 0.00000000 -0.99999998 0.00021202
vn 0.00000000 -1.00000000 0.00000000
vn 0.00000000 -1.00000000 0.00000000
vn 0.00000000 -0.99999991 0.00042405
vn -0.93345323 0.00000000 -0.35869914
vn -0.93535174 0.00000000 -0.35371898
vn -0.98292965 0.00000000 -0.18398178
vn -0.98912424 0.00000000 -0.14708240
vn 0.98292976 0.00000000 0.18398123
vn 0.93230181 0.00000000 0.36168125
vn 0.93230181 0.00000000 0.36168125
vn -0.93685140 0.00000000 -0.34972768
vn -0.93685140 0.00000000 -0.34972768
vn -0.93535174 0.00000000 -0.35371898
vn -0.93345323 0.00000000 -0.35869914
vn 0.00000000 0.99999379 0.00352489
vn 0.00000000 0.99999379 0.00352489
vn 0.00000000 0.99999671 0.00256579
vn 0.00000000 0.99999871 0.00160669
vn 0.93685140 0.00000000 0.34972768
vn 0.93685140 0.00000000 0.34972768
vn 0.93685140 0.00000000 0.34972768
vn 0.93685140 0.00000000 0.34972768
vn 0.01581016 -0.99981362 0.01108019
vn 0.00000000 -0.99994638 0.01035518
vn 0.01581016 -0.99981362 0.01108019
vn 0.03161635 -0.99943039 0.01180242
vn 0.00000000 0.00000000 1.00000000
vn 0.00000000 0.00000000 1.00000000
vn 0.00000000 0.00000000 1.00000000
vn 0.00000000 0.00000000 1.00000000
vn -0.93345323 0.00000000 -0.35869914
vn -0.98912424 0.00000000 -0.14708240
vn -0.93230141 0.00000000 -0.36168229
vn 0.00000000 0.99999871 0.00160669
vn 0.00000000 0.99999671 0.00256579
vn 0.00000000 0.99999991 0.00043172
vn 0.00000000 0.99999998 0.00021586
vn 0.93230181 0.00000000 0.36168125
vn 0.93230181 0.00000000 0.36168125
vn 0.98292976 0.00000000 0.18398123
vn 0.98292976 0.00000000 0.18398123
vn 0.00000000 -1.00000000 0.00000000
vn 0.00000000 -1.00000000 0.00000000
vn 0.00000000 -1.00000000 0.00000000
vn 0.00000000 -1.00000000 0.00000000
vn 1.00000000 0.00000000 0.00000000
vn 0.98292976 0.00000000 0.18398123
vn 0.98292976 0.00000000 0.18398123
vn 1.00000000 0.00000000 0.00000000
vn 0.00000000 0.00000000 1.00000000
vn 0.00000000 0.00000000 1.00000000
vn 0.00000000 0.00000000 1.00000000
vn 0.00000000 0.00000000 1.00000000
vn -0.98292965 0.00000000 -0.18398178
vn -1.00000000 0.00000000 0.00000000
vn -1.00000000 0.00000000 0.00000000
vn -0.98912424 0.00000000 -0.14708240
vn 0.00000000 0.00000000 -1.00000000
vn 0.00000000 0.00000000 -1.00000000
vn 0.00000000 0.00000000 -1.00000000
vn 0.00000000 0.00000000 -1.00000000
vn 0.00000000 0.99999998 0.00021586
vn 0.00000000 0.99999991 0.00043172
vn 0.00000000 1.00000000 0.00000000
vn 0.00000000 1.00000000 0.00000000
vn 0.00000000 0.00000000 -1.00000000
vn 0.00000000 0.00000000 -1.00000000
vn 0.00000000 0.00000000 -1.00000000
vn 0.00000000 0.00000000 -1.00000000
vn -1.00000000 0.00000000 0.00000000
vn -0.98292965 0.00000000 -0.18398178
vn -0.98912424 0.00000000 -0.14708240
vn -1.00000000 0.00000000 0.00000000
vn 0.00000000 0.00000000 1.00000000
vn 0.00000000 0.00000000 1.00000000
vn 0.00000000 0.00000000 1.00000000
vn 0.00000000 0.00000000 1.00000000
vn 0.98749635 0.00000000 0.15764185
vn 1.00000000 0.00000000 0.00000000
vn 1.00000000 0.00000000 0.00000000
vn 0.98292976 0.00000000 0.18398123

g ²ã
f 2//1 1//2 4//3 3//4
f 1//5 5//6 6//7 4//8
f 5//9 7//10 8//11 6//12
f 7//13 2//14 3//15 8//16
f 9//17 3//18 4//19 10//20
f 8//21 11//22 12//23 6//24
f 12//25 10//26 4//27 6//28
f 5//29 1//30 2//31 7//32
f 8//33 3//34 9//35 11//36
f 11//37 9//38 10//39 12//40
f 14//41 13//42 16//43 15//44
f 15//45 16//46 18//47 17//48
f 17//49 18//50 20//51 19//52
f 19//53 20//54 13//55 14//56
f 18//57 21//58 22//59 20//60
f 22//61 21//62 24//63 23//64
f 21//65 18//66 16//67 24//68
f 17//69 19//70 14//71 15//72
f 20//73 22//74 23//75 13//76
f 26//77 25//78 28//79 27//80
f 25//81 29//82 30//83 28//84
f 29//85 31//86 32//87 30//88
f 31//89 26//90 27//91 32//92
f 30//93 32//94 34//95 33//96
f 34//97 35//98 36//99 33//100
f 23//101 24//102 36//103 35//104
f 33//105 36//106 28//107 30//108
f 24//109 16//110 28//111 36//112
f 29//113 25//114 26//115 31//116
f 16//117 13//118 27//119 28//120
f 32//121 27//122 35//123 34//124
f 13//125 23//126 35//127 27//128
f 38//129 37//130 40//131 39//132
f 39//133 40//134 42//135 41//136
f 41//137 42//138 44//139 43//140
f 43//141 44//142 37//143 38//144
f 46//145 45//146 40//147 37//148
f 44//149 42//150 48//151 47//152
f 48//153 42//154 40//155 45//156
f 41//157 43//158 38//159 39//160
f 44//161 47//162 46//163 37//164
f 47//165 48//166 45//167 46//168
f 50//169 49//170 52//171 51//172
f 54//173 61//174 53//175
f 55//176 50//177 51//178 56//179
f 56//180 51//181 58//182 57//183
f 57//184 58//185 60//186 59//187
f 59//188 60//189 50//190 55//191
f 60//192 61//193 62//194 50//195
f 50//196 62//197 49//198
f 51//199 52//200 63//201 58//202
f 58//203 63//204 54//205 53//206
f 61//207 54//208 49//209 62//210
f 65//211 64//212 54//213 63//214
f 57//215 59//216 55//217 56//218
f 52//219 49//220 67//221 66//222
f 66//223 67//224 64//225 65//226
f 52//227 66//228 65//229 63//230
f 69//231 68//232 71//233 70//234
f 73//235 72//236 80//237
f 75//238 74//239 68//240 69//241
f 74//242 76//243 77//244 68//245
f 76//246 78//247 79//248 77//249
f 78//250 75//251 69//252 79//253
f 79//254 69//255 81//256 80//257
f 69//258 70//259 81//260
f 68//261 77//262 82//263 71//264
f 77//265 72//266 73//267 82//268
f 80//269 81//270 70//271 73//272
f 83//273 82//274 73//275 84//276
f 76//277 74//278 75//279 78//280
f 71//281 85//282 86//283 70//284
f 85//285 83//286 84//287 86//288
f 71//289 82//290 83//291 85//292
f 64//293 67//294 86//295 84//296
f 67//297 49//298 70//299 86//300
f 49//301 54//302 73//303 70//304
f 54//305 64//306 84//307 73//308

