# RokuSuper Output Ver2.0 for Wavefront Obj

v 0.99673700 2.41493700 1.57038600
v 1.14405800 2.32988400 1.57038600
v 1.14405800 2.32988400 1.36462300
v 0.99673700 2.41493700 1.36462300
v 0.99673700 2.58505300 1.57038600
v 0.99673700 2.58505300 1.36462300
v 1.14405800 2.67011500 1.57038600
v 1.14405800 2.67011500 1.36462300
v 1.29137900 2.58505300 1.57038600
v 1.29137900 2.58505300 1.36462300
v 1.29137900 2.41493700 1.57038600
v 1.29137900 2.41493700 1.36462300
v 1.14405800 2.21881200 1.16177700
v 0.90055000 2.35940600 1.16177700
v 0.90055000 2.64058500 1.16177700
v 1.14405800 2.78118000 1.16177700
v 1.38756700 2.64058500 1.16177700
v 1.38756700 2.35940600 1.16177700
v 1.14405800 2.15568900 1.03665500
v 0.84588000 2.32784400 1.03665500
v 0.84588000 2.67214800 1.03665500
v 1.14405800 2.84430200 1.03665500
v 1.44223600 2.67214800 1.03665500
v 1.44223600 2.32784400 1.03665500
v 1.14405800 2.01956800 0.08446800
v 0.72800000 2.25978800 0.08446800
v 0.72800000 2.74021100 0.08446800
v 1.14405800 2.98042300 0.08446800
v 1.56012500 2.74021100 0.08446800
v 1.56012500 2.25978800 0.08446800
v 1.14405800 1.88096800 0.08446800
v 0.60796100 2.19048000 0.08446800
v 0.60796100 2.80951000 0.08446800
v 1.14405800 3.11903000 0.08446800
v 1.68015600 2.80951000 0.08446800
v 1.68015600 2.19048000 0.08446800
v 1.14405800 1.88096800 0.01156000
v 1.14405800 3.11903000 0.01156000
v 0.60796100 2.80951000 0.01156000
v 0.60796100 2.19048000 0.01156000
v 1.68015600 2.19048000 0.01156000
v 1.68015600 2.80951000 0.01156000
v 1.12896700 2.93636800 1.19854700
v 1.12896700 2.93636800 1.27076500
v 1.11484200 2.66994400 1.28489600
v 1.11484200 2.66994400 1.18441500
v 1.20118300 2.93636800 1.27076500
v 1.20118300 2.93636800 1.19854700
v 1.21531500 2.66994400 1.18441500
v 1.21531500 2.66994400 1.28489600
v 1.47674500 2.91444300 1.23490100
v 1.32127500 2.91444300 1.50419000
v 1.01033300 2.91444300 1.50419000
v 1.32127500 2.91444300 0.96562100
v 0.85486300 2.91444300 1.23490100
v 1.01033300 2.91444300 0.96562100
v 1.47674500 2.88798600 1.23490100
v 1.32127500 2.88798600 0.96562100
v 1.01033300 2.88798600 1.50419000
v 1.32127500 2.88798600 1.50419000
v 1.01033300 2.88798600 0.96562100
v 0.85486300 2.88798600 1.23490100

vn -0.18897620 -0.98198167 0.00000000
vn -0.49998757 -0.86603258 0.00000000
vn -0.83341992 -0.49207972 0.25153286
vn -0.00000449 -0.96784443 0.25154953
vn -1.00000000 0.00000000 0.00000000
vn -0.75594366 0.65463668 0.00000000
vn -0.83818628 0.48391197 0.25154117
vn -0.83341992 -0.49207972 0.25153286
vn -0.75594366 0.65463668 0.00000000
vn -0.50002725 0.86600967 0.00000000
vn -0.00943938 0.96780243 0.25153399
vn -0.83818628 0.48391197 0.25154117
vn 0.50002725 0.86600967 0.00000000
vn 0.94491413 0.32731834 0.00000000
vn 0.83818642 0.48390961 0.25154525
vn -0.00943938 0.96780243 0.25153399
vn 0.94491413 0.32731834 0.00000000
vn 1.00000000 0.00000000 0.00000000
vn 0.84285748 -0.47573084 0.25153814
vn 0.83818642 0.48390961 0.25154525
vn 0.49998757 -0.86603258 0.00000000
vn -0.18897620 -0.98198167 0.00000000
vn -0.00000449 -0.96784443 0.25154953
vn 0.84285748 -0.47573084 0.25153814
vn -0.00000449 -0.96784443 0.25154953
vn -0.83341992 -0.49207972 0.25153286
vn -0.76650021 -0.44253590 0.46544538
vn -0.00000167 -0.88507751 0.46544366
vn -0.83341992 -0.49207972 0.25153286
vn -0.83818628 0.48391197 0.25154117
vn -0.76650314 0.44253533 0.46544110
vn -0.76650021 -0.44253590 0.46544538
vn -0.83818628 0.48391197 0.25154117
vn -0.00943938 0.96780243 0.25153399
vn -0.00000462 0.88508286 0.46543348
vn -0.76650314 0.44253533 0.46544110
vn -0.00943938 0.96780243 0.25153399
vn 0.83818642 0.48390961 0.25154525
vn 0.76650403 0.44253178 0.46544301
vn -0.00000462 0.88508286 0.46543348
vn 0.83818642 0.48390961 0.25154525
vn 0.84285748 -0.47573084 0.25153814
vn 0.76650298 -0.44253685 0.46543993
vn 0.76650403 0.44253178 0.46544301
vn 0.84285748 -0.47573084 0.25153814
vn -0.00000449 -0.96784443 0.25154953
vn -0.00000167 -0.88507751 0.46544366
vn 0.76650298 -0.44253685 0.46543993
vn -0.00000167 -0.88507751 0.46544366
vn -0.76650021 -0.44253590 0.46544538
vn -0.82565284 -0.47668824 0.30177096
vn -0.00000094 -0.95338197 0.30176615
vn -0.76650021 -0.44253590 0.46544538
vn -0.76650314 0.44253533 0.46544110
vn -0.82565057 0.47668867 0.30177649
vn -0.82565284 -0.47668824 0.30177096
vn -0.76650314 0.44253533 0.46544110
vn -0.00000462 0.88508286 0.46543348
vn -0.00000229 0.95338202 0.30176600
vn -0.82565057 0.47668867 0.30177649
vn -0.00000462 0.88508286 0.46543348
vn 0.76650403 0.44253178 0.46544301
vn 0.82565170 0.47668807 0.30177433
vn -0.00000229 0.95338202 0.30176600
vn 0.76650403 0.44253178 0.46544301
vn 0.76650298 -0.44253685 0.46543993
vn 0.82565175 -0.47668793 0.30177443
vn 0.82565170 0.47668807 0.30177433
vn 0.76650298 -0.44253685 0.46543993
vn -0.00000167 -0.88507751 0.46544366
vn -0.00000094 -0.95338197 0.30176615
vn 0.82565175 -0.47668793 0.30177443
vn -0.00000094 -0.95338197 0.30176615
vn -0.82565284 -0.47668824 0.30177096
vn -0.74859412 -0.64829189 0.13901248
vn 0.18714668 -0.97244560 0.13901684
vn -0.82565284 -0.47668824 0.30177096
vn -0.82565057 0.47668867 0.30177649
vn -0.93573669 0.32414812 0.13901380
vn -0.74859412 -0.64829189 0.13901248
vn -0.82565057 0.47668867 0.30177649
vn -0.00000229 0.95338202 0.30176600
vn -0.18715068 0.97244479 0.13901707
vn -0.93573669 0.32414812 0.13901380
vn -0.00000229 0.95338202 0.30176600
vn 0.82565170 0.47668807 0.30177433
vn 0.74858706 0.64829821 0.13902102
vn -0.18715068 0.97244479 0.13901707
vn 0.82565170 0.47668807 0.30177433
vn 0.82565175 -0.47668793 0.30177443
vn 0.93573622 -0.32414678 0.13902011
vn 0.74858706 0.64829821 0.13902102
vn 0.82565175 -0.47668793 0.30177443
vn -0.00000094 -0.95338197 0.30176615
vn 0.18714668 -0.97244560 0.13901684
vn 0.93573622 -0.32414678 0.13902011
vn 0.00000000 0.00000000 1.00000000
vn 0.00000000 0.00000000 1.00000000
vn 0.00000000 0.00000000 1.00000000
vn 0.00000000 0.00000000 1.00000000
vn 0.00000000 0.00000000 1.00000000
vn 0.00000000 0.00000000 1.00000000
vn 0.00000000 0.00000000 1.00000000
vn 0.00000000 0.00000000 1.00000000
vn 0.00000000 0.00000000 1.00000000
vn 0.00000000 0.00000000 1.00000000
vn 0.00000000 0.00000000 1.00000000
vn 0.00000000 0.00000000 1.00000000
vn 0.00000000 0.00000000 1.00000000
vn 0.00000000 0.00000000 1.00000000
vn 0.00000000 0.00000000 1.00000000
vn 0.00000000 0.00000000 1.00000000
vn 0.00000000 0.00000000 1.00000000
vn 0.00000000 0.00000000 1.00000000
vn 0.00000000 0.00000000 1.00000000
vn 0.00000000 0.00000000 1.00000000
vn 0.00000000 0.00000000 1.00000000
vn 0.00000000 0.00000000 1.00000000
vn 0.00000000 0.00000000 1.00000000
vn 0.00000000 0.00000000 1.00000000
vn 0.00000000 0.00000000 -1.00000000
vn 0.00000000 0.00000000 -1.00000000
vn 0.00000000 0.00000000 -1.00000000
vn 0.00000000 0.00000000 -1.00000000
vn 0.00000000 0.00000000 -1.00000000
vn 0.00000000 0.00000000 -1.00000000
vn 0.00000000 0.00000000 -1.00000000
vn 0.00000000 0.00000000 -1.00000000
vn -0.75593173 0.65465046 0.00000000
vn -0.50000515 0.86602243 0.00000000
vn -0.50000515 0.86602243 0.00000000
vn -0.94491174 0.32732523 0.00000000
vn 0.50000445 0.86602283 0.00000000
vn 0.94491166 0.32732545 0.00000000
vn 0.75593135 0.65465089 0.00000000
vn 0.50000445 0.86602283 0.00000000
vn 0.94491166 0.32732545 0.00000000
vn 1.00000000 0.00000000 0.00000000
vn 1.00000000 0.00000000 0.00000000
vn 0.75593135 0.65465089 0.00000000
vn 0.49999476 -0.86602843 0.00000000
vn -0.18898026 -0.98198089 0.00000000
vn 0.18897946 -0.98198104 0.00000000
vn 0.49999476 -0.86602843 0.00000000
vn -0.18898026 -0.98198089 0.00000000
vn -0.49999546 -0.86602802 0.00000000
vn -0.49999546 -0.86602802 0.00000000
vn 0.18897946 -0.98198104 0.00000000
vn -1.00000000 0.00000000 0.00000000
vn -0.75593173 0.65465046 0.00000000
vn -0.94491174 0.32732523 0.00000000
vn -1.00000000 0.00000000 0.00000000
vn -0.99859755 0.05294264 0.00000000
vn -0.99859755 0.05294264 0.00000000
vn -0.99859755 0.05294264 0.00000000
vn -0.99859755 0.05294264 0.00000000
vn 0.99859617 0.05296881 0.00000000
vn 0.99859617 0.05296881 0.00000000
vn 0.99859617 0.05296881 0.00000000
vn 0.99859617 0.05296881 0.00000000
vn 0.00000000 -1.00000000 0.00000000
vn 0.00000000 -1.00000000 0.00000000
vn 0.00000000 -1.00000000 0.00000000
vn 0.00000000 -1.00000000 0.00000000
vn 0.00000000 0.05296881 -0.99859617
vn 0.00000000 0.05296881 -0.99859617
vn 0.00000000 0.05296881 -0.99859617
vn 0.00000000 0.05296881 -0.99859617
vn 0.00000000 1.00000000 0.00000000
vn 0.00000000 1.00000000 0.00000000
vn 0.00000000 1.00000000 0.00000000
vn 0.00000000 1.00000000 0.00000000
vn 0.00000000 0.05296507 0.99859637
vn 0.00000000 0.05296507 0.99859637
vn 0.00000000 0.05296507 0.99859637
vn 0.00000000 0.05296507 0.99859637
vn 0.00000000 1.00000000 0.00000000
vn 0.00000000 1.00000000 0.00000000
vn 0.00000000 1.00000000 0.00000000
vn 0.00000000 1.00000000 0.00000000
vn 0.00000000 1.00000000 0.00000000
vn 0.00000000 1.00000000 0.00000000
vn 0.00000000 1.00000000 0.00000000
vn 0.00000000 1.00000000 0.00000000
vn 0.00000000 -1.00000000 0.00000000
vn 0.00000000 -1.00000000 0.00000000
vn 0.00000000 -1.00000000 0.00000000
vn 0.00000000 -1.00000000 0.00000000
vn 0.00000000 -1.00000000 0.00000000
vn 0.00000000 -1.00000000 0.00000000
vn 0.00000000 -1.00000000 0.00000000
vn 0.00000000 -1.00000000 0.00000000
vn 0.65465199 0.00000000 -0.75593040
vn 0.98198221 0.00000000 0.18897340
vn 0.98197947 0.00000000 -0.18898761
vn 0.32732599 0.00000000 -0.94491147
vn 0.98198221 0.00000000 0.18897340
vn 0.86603108 0.00000000 0.49999017
vn 0.86603108 0.00000000 0.49999017
vn 0.98197947 0.00000000 -0.18898761
vn 0.00000000 0.00000000 1.00000000
vn 0.00000000 0.00000000 1.00000000
vn 0.00000000 0.00000000 1.00000000
vn 0.00000000 0.00000000 1.00000000
vn -0.86603108 0.00000000 0.49999017
vn -0.98197947 0.00000000 -0.18898761
vn -0.98198221 0.00000000 0.18897340
vn -0.86603108 0.00000000 0.49999017
vn -0.98197947 0.00000000 -0.18898761
vn -0.32732599 0.00000000 -0.94491147
vn -0.65465199 0.00000000 -0.75593040
vn -0.98198221 0.00000000 0.18897340
vn -0.32732599 0.00000000 -0.94491147
vn 0.65465199 0.00000000 -0.75593040
vn 0.32732599 0.00000000 -0.94491147
vn -0.65465199 0.00000000 -0.75593040

g ²ã
f 2//1 1//2 4//3 3//4
f 1//5 5//6 6//7 4//8
f 5//9 7//10 8//11 6//12
f 7//13 9//14 10//15 8//16
f 9//17 11//18 12//19 10//20
f 11//21 2//22 3//23 12//24
f 3//25 4//26 14//27 13//28
f 4//29 6//30 15//31 14//32
f 6//33 8//34 16//35 15//36
f 8//37 10//38 17//39 16//40
f 10//41 12//42 18//43 17//44
f 12//45 3//46 13//47 18//48
f 13//49 14//50 20//51 19//52
f 14//53 15//54 21//55 20//56
f 15//57 16//58 22//59 21//60
f 16//61 17//62 23//63 22//64
f 17//65 18//66 24//67 23//68
f 18//69 13//70 19//71 24//72
f 19//73 20//74 26//75 25//76
f 20//77 21//78 27//79 26//80
f 21//81 22//82 28//83 27//84
f 22//85 23//86 29//87 28//88
f 23//89 24//90 30//91 29//92
f 24//93 19//94 25//95 30//96
f 25//97 26//98 32//99 31//100
f 26//101 27//102 33//103 32//104
f 27//105 28//106 34//107 33//108
f 28//109 29//110 35//111 34//112
f 29//113 30//114 36//115 35//116
f 30//117 25//118 31//119 36//120
f 38//121 37//122 40//123 39//124
f 37//125 38//126 42//127 41//128
f 33//129 34//130 38//131 39//132
f 34//133 35//134 42//135 38//136
f 35//137 36//138 41//139 42//140
f 36//141 31//142 37//143 41//144
f 31//145 32//146 40//147 37//148
f 32//149 33//150 39//151 40//152
f 44//153 43//154 46//155 45//156
f 48//157 47//158 50//159 49//160
f 50//161 45//162 46//163 49//164
f 49//165 46//166 43//167 48//168
f 48//169 43//170 44//171 47//172
f 47//173 44//174 45//175 50//176
f 52//177 51//178 54//179 53//180
f 55//181 53//182 54//183 56//184
f 58//185 57//186 60//187 59//188
f 58//189 59//190 62//191 61//192
f 54//193 51//194 57//195 58//196
f 51//197 52//198 60//199 57//200
f 52//201 53//202 59//203 60//204
f 53//205 55//206 62//207 59//208
f 55//209 56//210 61//211 62//212
f 56//213 54//214 58//215 61//216

